<?xml version="1.0" standalone="no"?>
<!DOCTYPE svg PUBLIC "-//W3C//DTD SVG 1.1//EN" "http://www.w3.org/Graphics/SVG/1.1/DTD/svg11.dtd" >
<svg xmlns="http://www.w3.org/2000/svg" xmlns:xlink="http://www.w3.org/1999/xlink" version="1.1" viewBox="-10 0 1010 1000">
  <g transform="matrix(1 0 0 -1 0 800)">
   <path fill="currentColor"
d="M192.188 549.661c6.875 -0.126953 15.5938 -0.655273 19.375 -1.17383c3.78125 -0.519531 8.5625 -1.25488 10.625 -1.63574s7.05078 -1.51953 11.085 -2.5293c4.03418 -1.01074 10.3623 -2.92383 14.0625 -4.25391c3.69922 -1.33008 9.39844 -3.60059 12.665 -5.0459
c3.26562 -1.44531 8.46875 -4.04883 11.5625 -5.78516s8.4375 -5.06738 11.875 -7.40234c3.4375 -2.33398 8.94043 -6.49023 12.2266 -9.23438c3.28809 -2.74512 8.72266 -7.87793 12.0781 -11.4053c3.35449 -3.5293 8.42969 -9.53027 11.2764 -13.3369
c2.84766 -3.80664 6.95605 -9.87402 9.12891 -13.4834c2.17383 -3.60938 5.41699 -9.65625 7.20703 -13.4375s4.38379 -9.96875 5.76367 -13.75c1.37891 -3.78125 3.50195 -10.8408 4.7168 -15.6865c1.21484 -4.84668 2.65625 -11.8223 3.20312 -15.502
c0.545898 -3.67871 1.26562 -10.96 1.59766 -16.1807c0.394531 -6.19629 0.388672 -12.8574 -0.0175781 -19.1855c-0.341797 -5.33301 -1.03809 -12.4551 -1.54883 -15.8281c-0.508789 -3.37305 -1.65234 -9.37109 -2.54004 -13.3281
c-0.887695 -3.95801 -2.8252 -10.9014 -4.30566 -15.4307c-1.48047 -4.52832 -4.26172 -11.8545 -6.18262 -16.2803s-5.19434 -11.124 -7.27441 -14.8848c-2.08105 -3.75977 -9.93457 -16.0293 -17.4541 -27.2656c-7.51953 -11.2354 -26.0635 -38.8496 -41.21 -61.3652
l-27.5381 -40.9375l39.8115 -0.332031l39.8105 -0.333008l6.06738 -1.65625c3.33691 -0.910156 8.53223 -2.86035 11.5449 -4.33203c3.01172 -1.4707 7.63477 -4.30273 10.2744 -6.29004c2.6377 -1.98828 6.28027 -5.23242 8.09375 -7.21094
c1.81348 -1.97754 4.80859 -5.90918 6.65625 -8.73535c1.84668 -2.82715 4.20605 -7.18652 5.24219 -9.6875c1.03711 -2.50195 2.42871 -6.79785 3.09277 -9.54785s1.27734 -5.84375 1.36328 -6.875s0.301758 83.3438 0.480469 187.5l0.325195 189.375l1.36035 5
c0.748047 2.75 2.20801 7.0459 3.24512 9.54785c1.03613 2.50098 3.47852 7.00098 5.42871 10c1.94922 2.99805 5.68848 7.56348 8.30957 10.1436c2.62109 2.58105 6.33789 5.73047 8.25977 6.99902s5.4375 3.28027 7.8125 4.46973
c2.375 1.19141 6.05859 2.74902 8.18457 3.46387s6.37598 1.73242 9.44434 2.2627c4.8418 0.834961 14.7744 0.938477 75.1963 0.782227l69.6182 -0.178711l6.06738 -1.67188c3.33691 -0.917969 8.53223 -2.875 11.5449 -4.34668
c3.01172 -1.4707 7.63477 -4.30273 10.2744 -6.29004c2.6377 -1.98828 6.28027 -5.23242 8.09375 -7.21094c1.81348 -1.97754 4.80859 -5.90918 6.65625 -8.73535c1.84668 -2.82715 4.20605 -7.18652 5.24414 -9.6875c1.03711 -2.50195 2.48926 -6.93848 3.22754 -9.86035
c1.06738 -4.22266 1.3418 -7.1709 1.3418 -14.375s-0.274414 -10.1523 -1.3418 -14.375c-0.738281 -2.92188 -2.19043 -7.3584 -3.22754 -9.86035c-1.03809 -2.50098 -3.39746 -6.86035 -5.24414 -9.6875c-1.84766 -2.82617 -4.84277 -6.75781 -6.65625 -8.73535
c-1.81348 -1.97852 -5.45605 -5.22266 -8.09375 -7.21094c-2.63965 -1.9873 -7.2627 -4.81934 -10.2744 -6.29004c-3.0127 -1.47168 -8.20801 -3.4209 -11.5449 -4.33105l-6.06738 -1.6543l-36.0938 -0.210938l-36.0938 -0.209961v-31.166v-31.165l20.4688 -0.251953
c19.6885 -0.242188 20.7002 -0.314453 26.5361 -1.88379c3.33691 -0.897461 8.53223 -2.83691 11.5449 -4.30859c3.01172 -1.4707 7.63477 -4.30273 10.2744 -6.29004c2.6377 -1.98828 6.28027 -5.23242 8.09375 -7.21094
c1.81348 -1.97754 4.80859 -5.90918 6.65625 -8.73535c1.84668 -2.82715 4.20605 -7.18652 5.24414 -9.6875c1.03711 -2.50195 2.48926 -6.93848 3.22754 -9.86035c1.06738 -4.22266 1.3418 -7.1709 1.3418 -14.375s-0.274414 -10.1523 -1.3418 -14.375
c-0.738281 -2.92188 -2.19043 -7.3584 -3.22754 -9.86035c-1.03809 -2.50098 -3.39746 -6.86035 -5.24414 -9.6875c-1.84766 -2.82617 -4.84277 -6.75781 -6.65625 -8.73535c-1.81348 -1.97852 -5.45605 -5.22266 -8.09375 -7.21094
c-2.63965 -1.9873 -7.2627 -4.81934 -10.2744 -6.29004c-3.0127 -1.47168 -8.20801 -3.41113 -11.5449 -4.30859c-5.83594 -1.56934 -6.84961 -1.6416 -26.5176 -1.88379l-20.4502 -0.251953l-0.194336 -67.292c-0.192383 -66.6553 -0.208008 -67.3398 -1.54297 -72.292
c-0.741211 -2.75 -2.19629 -7.0459 -3.2334 -9.54785c-1.03613 -2.50098 -3.39551 -6.86035 -5.24219 -9.6875c-1.84766 -2.82617 -4.84277 -6.75781 -6.65625 -8.73535c-1.81348 -1.97852 -5.45605 -5.22266 -8.09375 -7.21094
c-2.63965 -1.9873 -7.2627 -4.81934 -10.2744 -6.29004c-3.0127 -1.47168 -8.20801 -3.37793 -11.5449 -4.23535c-3.73828 -0.960938 -8.70703 -1.69336 -12.9424 -1.90527c-4.91406 -0.248047 -8.53516 -0.0556641 -12.6963 0.670898
c-3.20215 0.560547 -7.56152 1.60254 -9.6875 2.31738s-5.80957 2.27246 -8.18457 3.46387c-2.375 1.18945 -5.89062 3.20117 -7.8125 4.46973s-5.63867 4.41797 -8.25977 6.99902c-2.62109 2.58008 -6.36035 7.14551 -8.30957 10.1436
c-1.9502 2.99902 -4.39258 7.49902 -5.42871 10c-1.03711 2.50195 -2.42871 6.79785 -3.09277 9.54785s-1.20898 5.77344 -1.21191 6.71875c-0.00195312 0.945312 -0.285156 1.71875 -0.628906 1.71875s-0.626953 -0.773438 -0.628906 -1.71875
c-0.00292969 -0.945312 -0.547852 -3.96875 -1.21191 -6.71875s-2.05566 -7.0459 -3.09277 -9.54785c-1.03613 -2.50098 -3.39551 -6.86035 -5.24219 -9.6875c-1.84766 -2.82617 -4.84277 -6.75781 -6.65625 -8.73535
c-1.81348 -1.97852 -5.45605 -5.22266 -8.09375 -7.21094c-2.63965 -1.9873 -7.2627 -4.81934 -10.2744 -6.29004c-3.0127 -1.47168 -8.20801 -3.43066 -11.5449 -4.35254l-6.06738 -1.67578l-100.898 -0.168945c-88.3066 -0.148438 -101.591 -0.0498047 -106.446 0.788086
c-3.05078 0.526367 -7.28711 1.54199 -9.41309 2.25684s-5.80957 2.27246 -8.18457 3.46387c-2.375 1.18945 -5.89062 3.20117 -7.8125 4.46973s-5.63867 4.41797 -8.25977 6.99902c-2.62109 2.58008 -6.36035 7.14551 -8.30957 10.1436
c-1.9502 2.99902 -4.39258 7.49902 -5.43066 10c-1.03711 2.50195 -2.48633 6.93848 -3.22168 9.86035c-1.03711 4.12109 -1.34277 7.27441 -1.36719 14.0625c-0.0224609 6.42969 0.279297 10.0752 1.13672 13.75c0.641602 2.75 2.00195 7.10938 3.02148 9.6875
c1.02051 2.57812 2.83398 6.30176 4.03125 8.27539s25.6826 38.5361 54.4131 81.25c28.7295 42.7139 61.8506 92.0059 73.6016 109.537c18.2715 27.2578 21.6426 32.6445 23.2744 37.1875c1.0498 2.92188 2.26758 7 2.70605 9.0625s0.791016 6.42188 0.783203 9.6875
c-0.0078125 3.44336 -0.450195 7.64355 -1.05273 10c-0.572266 2.23438 -1.75684 5.53906 -2.63184 7.34375c-0.875977 1.80469 -2.97168 4.78906 -4.65625 6.63281c-1.88281 2.06055 -4.69629 4.20117 -7.29785 5.55371c-2.3291 1.21094 -6.0625 2.64258 -8.29688 3.18066
s-5.78711 1.16602 -7.89648 1.39453c-3.32324 0.359375 -3.99805 0.25 -5.07324 -0.825195c-0.807617 -0.807617 -1.39258 -2.52637 -1.6748 -4.91699c-0.239258 -2.02148 -0.961914 -5.92578 -1.60547 -8.67578c-0.644531 -2.75 -2.01953 -7.0459 -3.05664 -9.54785
c-1.03809 -2.50098 -3.48047 -7.00098 -5.43066 -10c-1.94922 -2.99805 -5.68848 -7.56738 -8.30957 -10.1523c-2.62109 -2.58398 -6.59375 -5.90137 -8.82812 -7.36914c-2.23438 -1.46875 -6.15723 -3.67383 -8.71875 -4.89941
c-2.56055 -1.22656 -7.3418 -2.91895 -10.625 -3.76367c-3.64355 -0.936523 -8.64648 -1.66992 -12.8438 -1.87988c-4.91406 -0.248047 -8.53516 -0.0556641 -12.6963 0.670898c-3.20215 0.560547 -7.56152 1.60156 -9.6875 2.31543
c-2.12598 0.714844 -5.69824 2.2002 -7.93848 3.30078c-2.23926 1.10059 -5.75488 3.1123 -7.8125 4.47168c-2.05664 1.35742 -5.88477 4.58105 -8.50586 7.16211c-2.62109 2.58008 -6.36035 7.14551 -8.30957 10.1436c-1.9502 2.99902 -4.39258 7.49902 -5.42871 10
c-1.03711 2.50195 -2.44238 6.79785 -3.12305 9.54785s-1.40234 8.09375 -1.60352 11.875c-0.202148 3.78125 -0.046875 9.80078 0.345703 13.3779c0.392578 3.57617 1.26465 9.21191 1.93945 12.5225c0.675781 3.31152 2.24316 9.10352 3.48633 12.873
c1.24121 3.76758 3.90625 10.3066 5.91992 14.5293s5.54004 10.5508 7.83594 14.0625s6.08301 8.77539 8.41602 11.6973c2.33203 2.92188 7.28809 8.2793 11.0137 11.9053c3.72559 3.62695 8.60156 8.01172 10.8359 9.74512s6.24023 4.60938 8.90137 6.39062
c2.66113 1.78223 7.72363 4.76172 11.25 6.62305c3.52637 1.86035 8.85449 4.36328 11.8428 5.5625c2.98633 1.19922 8.4707 3.0332 12.1875 4.07715c3.71484 1.04395 9.42773 2.32617 12.6934 2.85059c3.26562 0.523438 6.92188 1.07324 8.125 1.21973
c1.20312 0.147461 7.8125 0.164062 14.6875 0.0371094v0zM784.375 549.693c6.86035 -0.126953 15.3291 -0.68457 19.375 -1.27539c3.95312 -0.577148 10.9766 -2.0127 15.6084 -3.18945c4.63184 -1.17578 11.6631 -3.42773 15.625 -5.00391
s9.59473 -4.0918 12.5166 -5.59277c2.92188 -1.5 7.98438 -4.45508 11.25 -6.56641s8.33398 -5.74707 11.2627 -8.08008c2.92773 -2.33301 8.55469 -7.57324 12.5029 -11.6445c3.94824 -4.07227 9.18359 -10.0762 11.6338 -13.3418
c2.4502 -3.2666 6.05859 -8.46973 8.01855 -11.5625c1.95996 -3.09375 5.7666 -10.124 8.45801 -15.624c2.69238 -5.5 6.17578 -13.4141 7.74121 -17.5859c1.56445 -4.17188 4.12695 -12.0469 5.69238 -17.5c1.56738 -5.45312 3.95508 -15.3984 5.30664 -22.1016
s3.03223 -16.5469 3.73438 -21.875s1.69629 -14.4688 2.20898 -20.3125c0.514648 -5.84375 1.23145 -18.6406 1.59473 -28.4375c0.417969 -11.2695 0.586914 -58.1035 0.458984 -127.5l-0.201172 -109.688l-1.35547 -5c-0.745117 -2.75 -2.20312 -7.0459 -3.24023 -9.54785
c-1.03613 -2.50098 -3.39551 -6.86035 -5.24219 -9.6875c-1.84766 -2.82617 -4.84277 -6.75781 -6.65625 -8.73535c-1.81348 -1.97852 -5.45605 -5.22266 -8.09375 -7.21094c-2.63965 -1.9873 -7.2627 -4.81934 -10.2744 -6.29004
c-3.0127 -1.47168 -8.20801 -3.37793 -11.5449 -4.23535c-3.73828 -0.960938 -8.70703 -1.69336 -12.9424 -1.90527c-4.91406 -0.248047 -8.53516 -0.0556641 -12.6963 0.670898c-3.20215 0.560547 -7.56152 1.60254 -9.6875 2.31738s-5.80957 2.27246 -8.18457 3.46387
c-2.375 1.18945 -5.89062 3.20117 -7.8125 4.46973s-5.63867 4.41797 -8.25977 6.99902c-2.62109 2.58008 -6.36035 7.14551 -8.30957 10.1436c-1.9502 2.99902 -4.39258 7.49902 -5.42871 10c-1.03711 2.50195 -2.49219 6.79785 -3.2334 9.54785
c-1.33496 4.95215 -1.35059 5.63672 -1.54297 72.3438l-0.194336 67.3438h-31.2129h-31.2129l-0.194336 -67.3438c-0.192383 -66.707 -0.208008 -67.3916 -1.54297 -72.3438c-0.741211 -2.75 -2.19629 -7.0459 -3.2334 -9.54785
c-1.03613 -2.50098 -3.39551 -6.86035 -5.24219 -9.6875c-1.84766 -2.82617 -4.84277 -6.75781 -6.65625 -8.73535c-1.81348 -1.97852 -5.45605 -5.22266 -8.09375 -7.21094c-2.63965 -1.9873 -7.2627 -4.81934 -10.2744 -6.29004
c-3.0127 -1.47168 -8.20801 -3.37793 -11.5449 -4.23535c-3.73828 -0.960938 -8.70703 -1.69336 -12.9424 -1.90527c-4.91406 -0.248047 -8.53516 -0.0556641 -12.6963 0.670898c-3.20215 0.560547 -7.56152 1.60254 -9.6875 2.31738s-5.80957 2.27246 -8.18457 3.46387
c-2.375 1.18945 -5.89062 3.20117 -7.8125 4.46973s-5.63867 4.41797 -8.25977 6.99902c-2.62109 2.58008 -6.36035 7.14551 -8.30957 10.1436c-1.9502 2.99902 -4.39258 7.49902 -5.42871 10c-1.03711 2.50195 -2.49512 6.79785 -3.24023 9.54785l-1.35547 5l-0.204102 110
c-0.129883 70.1699 0.0371094 116.337 0.460938 127.5c0.366211 9.625 1.08301 22.2812 1.5957 28.125c0.511719 5.84375 1.50098 14.9844 2.19922 20.3125s2.39648 15.2637 3.77441 22.0791s3.77539 16.7764 5.32715 22.1357
c1.55176 5.35742 4.09277 13.1406 5.64746 17.2949c1.55371 4.1543 5.17773 12.334 8.05176 18.1777c2.875 5.84375 7.37793 13.8594 10.0088 17.8125c2.62891 3.95312 6.88281 9.77539 9.45215 12.9395c2.56934 3.16309 8.12891 9.06934 12.3555 13.125
c4.22656 4.05469 10.0117 9.04395 12.8574 11.0879c2.84473 2.04297 8.14551 5.48242 11.7793 7.64355c3.63184 2.16113 9.43164 5.16699 12.8877 6.68066s8.9541 3.64844 12.2197 4.74512s8.74902 2.65234 12.1865 3.45801
c3.4375 0.804688 8.35938 1.78906 10.9375 2.18652s7.07812 0.96582 10 1.2627s10.7969 0.439453 17.5 0.31543zM780.816 424.936c-2.33984 -0.0351562 -5.34375 -0.353516 -6.67676 -0.706055c-1.41309 -0.374023 -3.39746 -1.64551 -4.76172 -3.05078
c-1.28516 -1.3252 -3.33398 -4.3125 -4.55176 -6.6377c-1.21777 -2.32617 -3.18555 -7.04102 -4.37402 -10.4785c-1.1875 -3.4375 -2.88672 -9.34375 -3.77539 -13.125c-0.887695 -3.78125 -2.17578 -10.8125 -2.86133 -15.625s-1.35352 -9.66406 -1.48535 -10.7803
l-0.239258 -2.03125h29.1543h29.1533l-0.527344 4.53125c-0.291016 2.49219 -1.08984 8.01953 -1.77539 12.2832c-0.686523 4.2627 -1.95117 10.5283 -2.81152 13.9229s-2.51465 8.83105 -3.67578 12.0801c-1.16211 3.24902 -3.09961 7.67383 -4.30566 9.83105
c-1.20703 2.1582 -3.17773 4.93555 -4.37988 6.17383c-1.40625 1.44727 -3.19824 2.50586 -5.01953 2.96484c-1.55664 0.392578 -4.74609 0.683594 -7.08691 0.647461z" />
  </g>

</svg>
