<?xml version="1.0" standalone="no"?>
<!DOCTYPE svg PUBLIC "-//W3C//DTD SVG 1.1//EN" "http://www.w3.org/Graphics/SVG/1.1/DTD/svg11.dtd" >
<svg xmlns="http://www.w3.org/2000/svg" xmlns:xlink="http://www.w3.org/1999/xlink" version="1.1" viewBox="-10 0 1010 1000">
  <g transform="matrix(1 0 0 -1 0 800)">
   <path fill="currentColor"
d="M179 550c26 0 80 -34 121 -75c58 -58 75 -58 75 -1c0 48 94 70 266 60c259 -15 266 -22 285 -250c11 -136 -9 -234 -47 -234c-36 0 -70 49 -74 109c-7 104 -9 104 -36 0c-16 -60 -54 -109 -86 -109s-58 85 -58 188s-25 187 -56 187s-54 -35 -52 -78s-2 -128 -7 -188
c-7 -81 -66 -109 -229 -109c-120 0 -218 21 -218 47c1 26 28 88 60 139c37 59 34 107 -9 134c-37 23 -49 72 -25 110s64 70 90 70zM350 362c-14 0 -40 -41 -60 -93s-9 -94 24 -94s61 42 61 94s-11 93 -25 93z" />
  </g>

</svg>
