<?xml version="1.0" standalone="no"?>
<!DOCTYPE svg PUBLIC "-//W3C//DTD SVG 1.1//EN" "http://www.w3.org/Graphics/SVG/1.1/DTD/svg11.dtd" >
<svg xmlns="http://www.w3.org/2000/svg" xmlns:xlink="http://www.w3.org/1999/xlink" version="1.1" viewBox="-10 0 1010 1000">
  <g transform="matrix(1 0 0 -1 0 800)">
   <path fill="currentColor"
d="M501.875 612.224c5.66602 -0.179688 9.47949 -0.679688 13.8799 -1.81836c3.33691 -0.863281 8.53223 -2.77441 11.5449 -4.24609c3.01172 -1.4707 7.63477 -4.30273 10.2744 -6.29004c2.6377 -1.98828 6.28027 -5.23242 8.09375 -7.21094
c1.81348 -1.97754 4.82422 -5.93359 6.69141 -8.79102c1.86719 -2.85645 4.31836 -7.49707 5.44922 -10.3125c1.12988 -2.81445 2.57715 -7.36719 3.2168 -10.1172c1.12305 -4.83203 1.16211 -13.6855 1.16211 -263.438c0 -249.753 -0.0390625 -258.605 -1.16211 -263.438
c-0.639648 -2.75 -2.08691 -7.30273 -3.2168 -10.1172c-1.13086 -2.81543 -3.58203 -7.45605 -5.44922 -10.3125c-1.86719 -2.85742 -4.87793 -6.81348 -6.69141 -8.79102c-1.81348 -1.97852 -5.45605 -5.22266 -8.09375 -7.21094
c-2.63965 -1.9873 -7.2627 -4.81934 -10.2744 -6.29004c-3.0127 -1.47168 -8.20801 -3.37793 -11.5449 -4.23535c-3.73828 -0.960938 -8.70703 -1.69336 -12.9424 -1.90527c-4.91406 -0.248047 -8.53516 -0.0556641 -12.6963 0.670898
c-3.20215 0.560547 -7.56152 1.60254 -9.6875 2.31738s-5.80957 2.27246 -8.18457 3.46387c-2.375 1.18945 -5.89062 3.20117 -7.8125 4.46973s-5.63867 4.41797 -8.25977 6.99902c-2.62109 2.58008 -6.37695 7.16992 -8.3457 10.1992
c-1.96973 3.02832 -4.50391 7.80957 -5.63477 10.625c-1.12988 2.81445 -2.57715 7.36719 -3.2168 10.1172c-1.12305 4.83203 -1.16211 13.6855 -1.16211 263.438c0 249.752 0.0390625 258.604 1.16211 263.438c0.639648 2.75 2.08691 7.30273 3.2168 10.1172
c1.13086 2.81543 3.66504 7.59668 5.63477 10.625c1.96875 3.0293 5.72461 7.61914 8.3457 10.1992c2.62109 2.58105 6.33789 5.73047 8.25977 6.99902s5.4375 3.28027 7.8125 4.46973c2.375 1.19141 6.07324 2.75488 8.21875 3.47559
c2.14453 0.720703 6.08203 1.72461 8.75 2.22949c3.25293 0.617188 7.4209 0.837891 12.6621 0.670898zM221.875 549.693c6.86035 -0.126953 15.3291 -0.68457 19.375 -1.27539c3.95312 -0.577148 10.9766 -2.0127 15.6084 -3.18945
c4.63184 -1.17578 11.6631 -3.42773 15.625 -5.00391s9.59473 -4.0918 12.5166 -5.59277c2.92188 -1.5 7.98438 -4.45508 11.25 -6.56641s8.33398 -5.74707 11.2627 -8.08008c2.92773 -2.33301 8.55469 -7.57324 12.5029 -11.6445
c3.94824 -4.07227 9.18359 -10.0762 11.6338 -13.3418c2.4502 -3.2666 6.05859 -8.46973 8.01855 -11.5625c1.95996 -3.09375 5.7666 -10.124 8.45801 -15.624c2.69238 -5.5 6.17578 -13.4141 7.74121 -17.5859c1.56445 -4.17188 4.12695 -12.0469 5.69238 -17.5
c1.56738 -5.45312 3.95508 -15.3984 5.30664 -22.1016s3.03223 -16.5469 3.73438 -21.875s1.69629 -14.4688 2.20898 -20.3125c0.514648 -5.84375 1.23145 -18.6406 1.59473 -28.4375c0.417969 -11.2695 0.586914 -58.1035 0.458984 -127.5l-0.201172 -109.688l-1.35547 -5
c-0.745117 -2.75 -2.20312 -7.0459 -3.24023 -9.54785c-1.03613 -2.50098 -3.39551 -6.86035 -5.24219 -9.6875c-1.84766 -2.82617 -4.84277 -6.75781 -6.65625 -8.73535c-1.81348 -1.97852 -5.45605 -5.22266 -8.09375 -7.21094
c-2.63965 -1.9873 -7.2627 -4.81934 -10.2744 -6.29004c-3.0127 -1.47168 -8.20801 -3.37793 -11.5449 -4.23535c-3.73828 -0.960938 -8.70703 -1.69336 -12.9424 -1.90527c-4.91406 -0.248047 -8.53516 -0.0556641 -12.6963 0.670898
c-3.20215 0.560547 -7.56152 1.60254 -9.6875 2.31738s-5.80957 2.27246 -8.18457 3.46387c-2.375 1.18945 -5.89062 3.20117 -7.8125 4.46973s-5.63867 4.41797 -8.25977 6.99902c-2.62109 2.58008 -6.36035 7.14551 -8.30957 10.1436
c-1.9502 2.99902 -4.39258 7.49902 -5.42871 10c-1.03711 2.50195 -2.49219 6.79785 -3.2334 9.54785c-1.33496 4.95215 -1.35059 5.63672 -1.54297 72.3438l-0.194336 67.3438h-31.2129h-31.2129l-0.194336 -67.3438
c-0.192383 -66.707 -0.208008 -67.3916 -1.54297 -72.3438c-0.741211 -2.75 -2.19629 -7.0459 -3.2334 -9.54785c-1.03613 -2.50098 -3.39551 -6.86035 -5.24219 -9.6875c-1.84766 -2.82617 -4.84277 -6.75781 -6.65625 -8.73535
c-1.81348 -1.97852 -5.45605 -5.22266 -8.09375 -7.21094c-2.63965 -1.9873 -7.2627 -4.81934 -10.2744 -6.29004c-3.0127 -1.47168 -8.20801 -3.37793 -11.5449 -4.23535c-3.73828 -0.960938 -8.70703 -1.69336 -12.9424 -1.90527
c-4.91406 -0.248047 -8.53516 -0.0556641 -12.6963 0.670898c-3.20215 0.560547 -7.56152 1.60254 -9.6875 2.31738s-5.80957 2.27246 -8.18457 3.46387c-2.375 1.18945 -5.89062 3.20117 -7.8125 4.46973s-5.63867 4.41797 -8.25977 6.99902
c-2.62109 2.58008 -6.36035 7.14551 -8.30957 10.1436c-1.9502 2.99902 -4.39258 7.49902 -5.42871 10c-1.03711 2.50195 -2.49512 6.79785 -3.24023 9.54785l-1.35547 5l-0.204102 110c-0.129883 70.1699 0.0371094 116.337 0.460938 127.5
c0.366211 9.625 1.08301 22.2812 1.5957 28.125c0.511719 5.84375 1.50098 14.9844 2.19922 20.3125s2.39648 15.2637 3.77441 22.0791s3.77539 16.7764 5.32715 22.1357c1.55176 5.35742 4.09277 13.1406 5.64746 17.2949c1.55371 4.1543 5.17773 12.334 8.05176 18.1777
c2.875 5.84375 7.37793 13.8594 10.0088 17.8125c2.62891 3.95312 6.88281 9.77539 9.45215 12.9395c2.56934 3.16309 8.12891 9.06934 12.3555 13.125c4.22656 4.05469 10.0117 9.04395 12.8574 11.0879c2.84473 2.04297 8.14551 5.48242 11.7793 7.64355
c3.63184 2.16113 9.43164 5.16699 12.8877 6.68066s8.9541 3.64844 12.2197 4.74512s8.74902 2.65234 12.1865 3.45801c3.4375 0.804688 8.35938 1.78906 10.9375 2.18652s7.07812 0.96582 10 1.2627s10.7969 0.439453 17.5 0.31543zM740 549.938
c34.7041 0.0302734 60.7217 -0.200195 64.0625 -0.567383c3.09375 -0.339844 8.71875 -1.21387 12.5 -1.94141c3.78125 -0.728516 10.6719 -2.56055 15.3125 -4.07324c4.64062 -1.51172 12.6562 -4.83789 17.8125 -7.3916
c5.15625 -2.55469 12.1875 -6.53027 15.625 -8.83594s8.78125 -6.22656 11.875 -8.71484c3.09375 -2.4873 9.14551 -8.14062 13.4492 -12.5625c4.30371 -4.4209 10.3975 -11.4619 13.541 -15.6455c3.14453 -4.18262 7.55664 -10.707 9.80566 -14.4951
c2.25 -3.78906 5.05176 -8.80371 6.22754 -11.1445s3.26758 -6.92676 4.64844 -10.1924s3.51855 -9.03125 4.75098 -12.8125s2.93164 -9.82812 3.77539 -13.4375s2.0332 -9.79688 2.64453 -13.75c0.807617 -5.22168 1.11133 -10.8623 1.11133 -20.625
c0 -9.66211 -0.308594 -15.4561 -1.09668 -20.625c-0.603516 -3.95312 -1.79395 -10.1396 -2.64551 -13.75c-0.851562 -3.60938 -2.55957 -9.65625 -3.7959 -13.4375c-1.23535 -3.78125 -3.74609 -10.3467 -5.5791 -14.5889
c-1.83301 -4.24414 -4.82422 -10.4199 -6.64746 -13.7256c-1.82324 -3.30664 -5.04785 -8.6123 -7.16602 -11.7939l-3.85254 -5.78125l3.64258 -5.49316c2.00293 -3.02051 5.35547 -8.58203 7.44824 -12.3574c2.09375 -3.77441 5.18652 -10.1338 6.87402 -14.1279
c1.6875 -3.99609 4.07129 -10.3281 5.29785 -14.0732c1.22559 -3.74512 2.92676 -9.76172 3.77832 -13.3711s2.04199 -9.79688 2.64551 -13.75c0.788086 -5.16797 1.09668 -10.9629 1.09668 -20.625c0 -9.7627 -0.303711 -15.4033 -1.11133 -20.625
c-0.611328 -3.95312 -1.80078 -10.1406 -2.64453 -13.75s-2.54492 -9.65625 -3.78125 -13.4375c-1.23535 -3.78125 -3.76562 -10.3906 -5.62207 -14.6875s-4.94336 -10.625 -6.86035 -14.0625s-5.27246 -8.92188 -7.45703 -12.1875s-6.34473 -8.89062 -9.24512 -12.5
s-8.61133 -9.80957 -12.6904 -13.7764c-4.0791 -3.96875 -9.38672 -8.77637 -11.7939 -10.6855c-2.40723 -1.9082 -7.18848 -5.35645 -10.625 -7.66309c-3.43652 -2.30762 -10.4668 -6.28418 -15.623 -8.83887c-5.15625 -2.55371 -13.1719 -5.87988 -17.8125 -7.3916
c-4.64062 -1.5127 -11.5312 -3.34473 -15.3125 -4.07324c-3.78125 -0.727539 -9.40625 -1.60156 -12.5 -1.94141c-3.29688 -0.362305 -29.5859 -0.621094 -63.5117 -0.624023c-49.0381 -0.00390625 -58.7207 0.140625 -63.3418 0.946289
c-3 0.523438 -7.18555 1.5332 -9.30078 2.24414s-5.78906 2.26562 -8.16406 3.45703c-2.375 1.18945 -5.89062 3.20117 -7.8125 4.46973s-5.63867 4.41797 -8.25977 6.99902c-2.62109 2.58008 -6.37695 7.16992 -8.3457 10.1992
c-1.96973 3.02832 -4.50391 7.80957 -5.63477 10.625c-1.12988 2.81445 -2.57715 7.36719 -3.2168 10.1172c-1.11914 4.81836 -1.16211 12.1191 -1.16211 200.938c0 188.819 0.0429688 196.119 1.16211 200.938c0.639648 2.75 2.08691 7.30273 3.2168 10.1172
c1.13086 2.81543 3.66504 7.59668 5.63477 10.625c1.96875 3.0293 5.72461 7.61914 8.3457 10.1992c2.62109 2.58105 6.33789 5.73047 8.25977 6.99902s5.4375 3.28027 7.8125 4.46973c2.375 1.19141 6.07324 2.75488 8.21875 3.47559
c2.14453 0.720703 6.08203 1.70508 8.75 2.1875c3.92188 0.708984 16.0312 0.886719 63.2871 0.927734v-0.000976562zM218.316 424.936c-2.33984 -0.0351562 -5.34375 -0.353516 -6.67676 -0.706055c-1.41309 -0.374023 -3.39746 -1.64551 -4.76172 -3.05078
c-1.28516 -1.3252 -3.33398 -4.3125 -4.55176 -6.6377c-1.21777 -2.32617 -3.18555 -7.04102 -4.37402 -10.4785c-1.1875 -3.4375 -2.88672 -9.34375 -3.77539 -13.125c-0.887695 -3.78125 -2.17578 -10.8125 -2.86133 -15.625s-1.35352 -9.66406 -1.48535 -10.7803
l-0.239258 -2.03125h29.1543h29.1533l-0.527344 4.53125c-0.291016 2.49219 -1.08984 8.01953 -1.77539 12.2832c-0.686523 4.2627 -1.95117 10.5283 -2.81152 13.9229s-2.51465 8.83105 -3.67578 12.0801c-1.16211 3.24902 -3.09961 7.67383 -4.30566 9.83105
c-1.20703 2.1582 -3.17773 4.93555 -4.37988 6.17383c-1.40625 1.44727 -3.19824 2.50586 -5.01953 2.96484c-1.55664 0.392578 -4.74609 0.683594 -7.08691 0.647461zM771.44 425h-21.4404v-31.25v-31.25h21.4404h21.4395l2.90234 1.84082
c1.5957 1.01172 4.02637 2.99902 5.40137 4.41504c1.37402 1.41602 3.5498 4.1582 4.83398 6.09375c1.28418 1.93457 3.18555 5.64355 4.22461 8.24023c1.63867 4.0957 1.88965 5.51074 1.88965 10.6602s-0.250977 6.56445 -1.88965 10.6602
c-1.03906 2.59668 -2.94043 6.30566 -4.22461 8.24023c-1.28418 1.93555 -3.45996 4.67773 -4.83398 6.09375c-1.375 1.41602 -3.80566 3.40332 -5.40137 4.41504l-2.90234 1.84082h-21.4395zM771.44 237.5h-21.4404v-31.25v-31.25h21.4404h21.4395l2.90234 1.84082
c1.5957 1.01172 4.02637 2.99902 5.40137 4.41504c1.37402 1.41602 3.5498 4.1582 4.83398 6.09375c1.28418 1.93457 3.18555 5.64355 4.22461 8.24023c1.64258 4.10547 1.88867 5.49805 1.87988 10.6602c-0.00683594 4.95117 -0.288086 6.65039 -1.69043 10.2305
c-0.924805 2.3623 -2.64551 5.87793 -3.82227 7.8125c-1.17773 1.93555 -3.43066 4.86426 -5.00684 6.50684c-1.57617 1.6416 -4.18359 3.82227 -5.79395 4.84375l-2.92871 1.85645h-21.4395z" />
  </g>

</svg>
