<?xml version="1.0" standalone="no"?>
<!DOCTYPE svg PUBLIC "-//W3C//DTD SVG 1.1//EN" "http://www.w3.org/Graphics/SVG/1.1/DTD/svg11.dtd" >
<svg xmlns="http://www.w3.org/2000/svg" xmlns:xlink="http://www.w3.org/1999/xlink" version="1.1" viewBox="-10 0 1010 1000">
  <g transform="matrix(1 0 0 -1 0 800)">
   <path fill="currentColor"
d="M251.875 612.224c5.66602 -0.179688 9.47949 -0.679688 13.8799 -1.81836c3.33691 -0.863281 8.53223 -2.77441 11.5449 -4.24609c3.01172 -1.4707 7.63477 -4.30273 10.2744 -6.29004c2.6377 -1.98828 6.28027 -5.23242 8.09375 -7.21094
c1.81348 -1.97754 4.80859 -5.90918 6.65625 -8.73535c1.84668 -2.82715 4.20605 -7.18652 5.24414 -9.6875c1.03711 -2.50195 2.48633 -6.93848 3.22168 -9.86035c1.03711 -4.12109 1.34277 -7.27441 1.36719 -14.0625
c0.0224609 -6.42969 -0.279297 -10.0752 -1.13672 -13.75c-0.641602 -2.75 -1.99805 -7.10938 -3.01367 -9.6875c-1.0166 -2.57812 -3.13574 -6.76367 -4.71094 -9.30176c-1.57422 -2.53809 -4.22363 -6.24902 -5.88574 -8.24609
c-1.66309 -1.99805 -6.33008 -6.3623 -10.373 -9.69922c-4.04199 -3.33691 -12.2773 -11.0166 -18.2998 -17.0664c-6.02344 -6.04883 -13.2959 -13.8115 -16.1602 -17.249c-2.86523 -3.4375 -8.07324 -10.0469 -11.5742 -14.6875
c-3.50195 -4.64062 -8.21191 -11.25 -10.4668 -14.6875c-2.25586 -3.4375 -5.84961 -9.1748 -7.98633 -12.749c-2.13672 -3.5752 -6.01465 -10.7471 -8.61621 -15.9375c-2.60254 -5.19141 -5.70215 -11.6885 -6.88965 -14.4385
c-1.18555 -2.75 -3.41895 -8.375 -4.96191 -12.5s-3.91406 -11.292 -5.27051 -15.9268s-3.28125 -12.3691 -4.27734 -17.1875s-2.25098 -11.8545 -2.79004 -15.6357c-0.538086 -3.78125 -1.26367 -10.502 -1.61133 -14.9346s-0.632812 -11.915 -0.632812 -16.6279
s0.285156 -12.1953 0.632812 -16.6279s1.07324 -11.1533 1.61133 -14.9346c0.539062 -3.78125 1.79395 -10.8174 2.79004 -15.6357c0.996094 -4.81738 2.9209 -12.5527 4.27734 -17.1875s3.72754 -11.8018 5.27051 -15.9268s3.77637 -9.75 4.96191 -12.5
c1.1875 -2.75 4.28711 -9.24707 6.88965 -14.4385c2.60156 -5.19043 6.47852 -12.3623 8.61621 -15.9375c2.13672 -3.57422 6.12988 -9.87109 8.87305 -13.9922c2.74414 -4.12012 7.45996 -10.7295 10.4805 -14.6875c3.01953 -3.95703 7.80469 -9.96289 10.6328 -13.3447
c2.82812 -3.38379 9.04492 -10.1748 13.8135 -15.0928c4.76953 -4.91797 12.1113 -11.8516 16.3174 -15.4062c4.20508 -3.55566 9.52832 -8.33203 11.8301 -10.6152s5.75977 -6.56641 7.68457 -9.52051c1.92578 -2.95312 4.34863 -7.41602 5.38672 -9.91699
c1.03711 -2.50195 2.48926 -6.93848 3.22754 -9.86035c1.06738 -4.22266 1.3418 -7.1709 1.3418 -14.375s-0.274414 -10.1514 -1.3418 -14.375c-0.738281 -2.92188 -2.19043 -7.3584 -3.22754 -9.86035c-1.03809 -2.50098 -3.39746 -6.86035 -5.24414 -9.6875
c-1.84766 -2.82617 -4.84277 -6.75781 -6.65625 -8.73535c-1.81348 -1.97852 -5.45605 -5.22266 -8.09375 -7.21094c-2.63965 -1.9873 -7.2627 -4.81934 -10.2744 -6.29004c-3.0127 -1.47168 -8.20801 -3.40234 -11.5449 -4.29102
c-5.11035 -1.35938 -7.49805 -1.62402 -15.1299 -1.67578c-6.7793 -0.0458984 -10.3223 0.229492 -14.0625 1.0957c-2.75 0.635742 -7.10938 2.02441 -9.6875 3.08594s-6.375 2.9082 -8.4375 4.10352c-2.0625 1.19629 -5.29688 3.35938 -7.1875 4.80859
c-1.89062 1.44824 -6.67188 5.4043 -10.625 8.79199s-12.5479 11.5068 -19.0996 18.043c-6.55078 6.53711 -14.8594 15.2607 -18.4639 19.3857c-3.60352 4.125 -8.95996 10.4521 -11.9023 14.0625c-2.94336 3.60938 -8.37891 10.6396 -12.0801 15.625
c-3.7002 4.98438 -9.33203 13 -12.5137 17.8125c-3.18262 4.8125 -7.88184 12.2646 -10.4443 16.5625c-2.56152 4.29688 -6.93652 12.0303 -9.7207 17.1875c-2.78516 5.15625 -7.01562 13.5938 -9.40332 18.75c-2.3877 5.15527 -6.31152 14.3018 -8.71973 20.3262
c-2.4082 6.02246 -6.07031 16.1484 -8.13672 22.5c-2.06641 6.35059 -5.0332 16.6113 -6.59082 22.7988c-1.55957 6.1875 -3.55371 14.9053 -4.43262 19.375c-0.879883 4.46875 -2.01465 10.9375 -2.52246 14.375c-0.506836 3.4375 -1.34766 9.90625 -1.86621 14.375
c-0.519531 4.46875 -1.27051 13.4688 -1.66992 20c-0.430664 7.04785 -0.573242 17.9717 -0.351562 26.875c0.207031 8.25 0.802734 19.3867 1.3252 24.748c0.522461 5.3623 1.51855 13.6582 2.21484 18.4375c0.695312 4.77832 1.98535 12.3447 2.86621 16.8145
c0.881836 4.46875 2.87891 13.1875 4.43945 19.375s4.24219 15.6094 5.95898 20.9375c1.71582 5.32812 4.61328 13.625 6.43848 18.4375s4.63574 11.8438 6.24707 15.625c1.61035 3.78125 5.41992 11.9375 8.46582 18.125s8.07227 15.668 11.1709 21.0703
c3.09766 5.40137 8.24121 13.9004 11.4307 18.8857c3.18848 4.98828 8.8916 13.3398 12.6729 18.5576c3.78125 5.21973 9.94629 13.3154 13.7002 17.9883c3.75488 4.67285 9.80176 11.8623 13.4375 15.9766c3.63672 4.1123 10.0771 11.0566 14.3105 15.4307
c4.2334 4.375 11.4053 11.3193 15.9375 15.4297c4.53223 4.11133 10.4893 9.34473 13.2393 11.6299c2.75 2.28613 6.43164 5.11133 8.18164 6.2793c1.75 1.16699 5.125 3.09668 7.5 4.28613c2.375 1.19141 6.07324 2.75488 8.21875 3.47559
c2.14453 0.720703 6.08203 1.72559 8.75 2.22949c3.25293 0.617188 7.4209 0.837891 12.6621 0.670898zM751.875 612.224c5.66602 -0.179688 9.47949 -0.679688 13.8799 -1.81836c3.33691 -0.863281 8.49707 -2.75684 11.4668 -4.20801
c2.96973 -1.4502 7.12988 -3.90527 9.24512 -5.45508s7.36133 -5.79004 11.6582 -9.42188c4.29688 -3.63379 13.3135 -12.0957 20.0371 -18.8066c6.72461 -6.71094 15.1836 -15.5762 18.7998 -19.7012c3.61523 -4.125 9.64551 -11.3242 13.4004 -15.9971
c3.75391 -4.67383 9.91895 -12.7686 13.7002 -17.9883c3.78125 -5.21875 9.48438 -13.5693 12.6729 -18.5576c3.18945 -4.98633 8.33301 -13.4854 11.4307 -18.8867c3.09863 -5.40137 8.125 -14.8828 11.1709 -21.0703s6.85547 -14.3438 8.46582 -18.125
c1.61133 -3.78125 4.42188 -10.8125 6.24707 -15.625s4.72266 -13.1094 6.43848 -18.4375c1.7168 -5.32812 4.40332 -14.75 5.96973 -20.9375c1.56738 -6.1875 3.69531 -15.75 4.73047 -21.25c1.03418 -5.5 2.30566 -13.0938 2.82324 -16.875
s1.23535 -9.54688 1.59375 -12.8125c0.359375 -3.26562 0.930664 -10.4375 1.27148 -15.9375c0.339844 -5.5 0.619141 -14.6406 0.619141 -20.3125s-0.279297 -14.8125 -0.619141 -20.3125c-0.34082 -5.5 -0.912109 -12.6719 -1.27148 -15.9375
c-0.358398 -3.26562 -1.07617 -9.03125 -1.59375 -12.8125s-1.78906 -11.375 -2.82324 -16.875c-1.03516 -5.5 -3.16113 -15.0625 -4.72559 -21.25c-1.56543 -6.1875 -4.53711 -16.4473 -6.60352 -22.7979c-2.06641 -6.35254 -5.72852 -16.4775 -8.13672 -22.5
c-2.4082 -6.02441 -6.33203 -15.1709 -8.71973 -20.3271s-6.61816 -13.5938 -9.40332 -18.75c-2.78418 -5.15625 -7.15918 -12.8906 -9.7207 -17.1875c-2.5625 -4.29688 -7.26172 -11.75 -10.4443 -16.5625c-3.18164 -4.8125 -8.81348 -12.8281 -12.5137 -17.8125
c-3.70117 -4.98438 -9.13672 -12.0156 -12.0801 -15.625c-2.94238 -3.60938 -8.29785 -9.9375 -11.9023 -14.0625c-3.60254 -4.125 -12.0518 -12.9902 -18.7764 -19.7012c-6.72363 -6.71094 -15.7402 -15.1729 -20.0371 -18.8066
c-4.29688 -3.63184 -9.54297 -7.87207 -11.6582 -9.42188s-6.27539 -4.00488 -9.24512 -5.45508c-2.96973 -1.45117 -8.12988 -3.33984 -11.4668 -4.19727c-3.73828 -0.960938 -8.70703 -1.69336 -12.9424 -1.90527
c-4.91406 -0.248047 -8.53516 -0.0556641 -12.6963 0.670898c-3.20215 0.560547 -7.56152 1.60254 -9.6875 2.31738s-5.80957 2.27246 -8.18457 3.46387c-2.375 1.18945 -5.89062 3.20117 -7.8125 4.46973s-5.63867 4.41797 -8.25977 6.99902
c-2.62109 2.58008 -6.36035 7.14551 -8.30957 10.1436c-1.9502 2.99902 -4.39258 7.49902 -5.43066 10c-1.03711 2.50195 -2.48926 6.93848 -3.22754 9.86035c-1.06738 4.22266 -1.3418 7.1709 -1.3418 14.375s0.274414 10.1523 1.3418 14.375
c0.738281 2.92188 2.19043 7.3584 3.22754 9.86035c1.03809 2.50098 3.46094 6.96387 5.38672 9.91699c1.9248 2.9541 5.38281 7.23926 7.68457 9.52441s7.37793 6.81738 11.2812 10.0713c3.90332 3.25488 11.2188 10.1533 16.2568 15.3301
c5.03809 5.17773 11.5068 12.2139 14.375 15.6367c2.86914 3.42285 8.07812 10.0195 11.5762 14.6602c3.49805 4.6416 8.02637 10.9697 10.0625 14.0625c2.03613 3.09375 5.49512 8.57812 7.68555 12.1875c2.19141 3.60938 6.89551 12.4697 10.4541 19.6875
c3.55859 7.21875 8.0459 17.2773 9.97363 22.3496c1.92578 5.07324 4.73535 13.5234 6.24414 18.7773c1.50684 5.25293 3.58789 13.8975 4.62305 19.2109c1.03516 5.31445 2.38379 13.5996 2.99805 18.4121c0.832031 6.52344 1.11523 13.123 1.11523 25.9375
c0 12.8154 -0.283203 19.415 -1.11523 25.9375c-0.614258 4.8125 -1.9502 13.0322 -2.96973 18.2646c-1.01953 5.2334 -2.96582 13.4512 -4.3252 18.2627s-3.85449 12.4824 -5.54395 17.0479c-1.68945 4.56445 -4.04395 10.5498 -5.2334 13.2998
s-4.29199 9.24707 -6.89453 14.4395c-2.60156 5.19043 -6.47949 12.3613 -8.61621 15.9375c-2.13672 3.57422 -5.73047 9.31055 -7.98633 12.748c-2.25488 3.4375 -6.96484 10.0479 -10.4668 14.6875c-3.50098 4.64062 -8.71191 11.2373 -11.5811 14.6611
c-2.86816 3.42285 -9.33691 10.459 -14.375 15.6367c-5.03809 5.17676 -12.3535 12.0752 -16.2568 15.3301c-3.90332 3.25391 -8.97949 7.78613 -11.2812 10.0713s-5.75977 6.57031 -7.68457 9.52441c-1.92578 2.95312 -4.34863 7.41602 -5.38672 9.91699
c-1.03711 2.50195 -2.48926 6.93848 -3.22754 9.86035c-1.06738 4.22266 -1.3418 7.1709 -1.3418 14.375s0.274414 10.1514 1.3418 14.375c0.738281 2.92188 2.19043 7.3584 3.22754 9.86035c1.03809 2.50098 3.48047 7.00098 5.43066 10
c1.94922 2.99805 5.68848 7.56348 8.30957 10.1436c2.62109 2.58105 6.33789 5.73047 8.25977 6.99902s5.4375 3.28027 7.8125 4.46973c2.375 1.19141 6.07324 2.75488 8.21875 3.47559c2.14453 0.720703 6.08203 1.72461 8.75 2.22949
c3.25293 0.617188 7.4209 0.837891 12.6621 0.669922zM376.875 487.224c5.66602 -0.179688 9.47949 -0.679688 13.8799 -1.81836c3.33691 -0.863281 8.53223 -2.77441 11.5449 -4.24609c3.01172 -1.4707 7.63477 -4.30273 10.2744 -6.29004
c2.6377 -1.98828 6.28027 -5.23242 8.09375 -7.21094c1.81348 -1.97754 4.80859 -5.90918 6.65625 -8.73535c1.84668 -2.82715 4.20605 -7.18652 5.24414 -9.6875c1.03711 -2.50195 2.48926 -6.93848 3.22754 -9.86035c1.06738 -4.22266 1.3418 -7.1709 1.3418 -14.375
s-0.274414 -10.1523 -1.3418 -14.375c-0.738281 -2.92188 -2.19043 -7.3584 -3.22754 -9.86035c-1.03809 -2.50098 -3.40039 -6.86035 -5.25195 -9.6875c-1.85156 -2.82617 -4.69238 -6.60449 -6.3125 -8.39355c-1.62012 -1.79004 -4.68848 -4.64062 -6.81934 -6.33496
c-2.12988 -1.69531 -5.62598 -4.1084 -7.76953 -5.36426s-5.59473 -3.85547 -7.66992 -5.77637c-2.07422 -1.9209 -5.38672 -5.63672 -7.35938 -8.25684c-1.97363 -2.62012 -4.77539 -7.04883 -6.22852 -9.84277c-1.45215 -2.79395 -3.62598 -8.02539 -4.83105 -11.626
c-1.20508 -3.60156 -2.80078 -9.89258 -3.54785 -13.9834c-1.13184 -6.2041 -1.35742 -9.76758 -1.35742 -21.499s0.225586 -15.2949 1.35742 -21.499c0.74707 -4.09082 2.34277 -10.3818 3.54785 -13.9834c1.20508 -3.60059 3.37891 -8.83203 4.83105 -11.626
c1.45312 -2.79395 4.25488 -7.22266 6.22852 -9.84277c1.97266 -2.62012 5.28516 -6.33594 7.35938 -8.25684c2.0752 -1.9209 5.52637 -4.52051 7.66992 -5.77637s5.63965 -3.66895 7.76953 -5.36426c2.13086 -1.69434 5.19922 -4.54492 6.81934 -6.33496
c1.62012 -1.78906 4.46094 -5.56738 6.3125 -8.39355c1.85156 -2.82715 4.21387 -7.18652 5.25195 -9.6875c1.03711 -2.50195 2.48926 -6.93848 3.22754 -9.86035c1.06738 -4.22266 1.3418 -7.1709 1.3418 -14.375s-0.274414 -10.1523 -1.3418 -14.375
c-0.738281 -2.92188 -2.19043 -7.3584 -3.22754 -9.86035c-1.03809 -2.50098 -3.39746 -6.86035 -5.24414 -9.6875c-1.84766 -2.82617 -4.84277 -6.75781 -6.65625 -8.73535c-1.81348 -1.97852 -5.45605 -5.22266 -8.09375 -7.21094
c-2.63965 -1.9873 -7.2627 -4.81934 -10.2744 -6.29004c-3.0127 -1.47168 -8.20801 -3.37793 -11.5449 -4.23535c-3.73828 -0.960938 -8.70703 -1.69336 -12.9424 -1.90527c-4.91406 -0.248047 -8.53516 -0.0556641 -12.6963 0.670898
c-3.20215 0.560547 -7.56152 1.60156 -9.6875 2.31543s-6.11621 2.42383 -8.86621 3.79883c-2.75 1.37695 -7.70898 4.29785 -11.0186 6.49219c-3.31055 2.19531 -8.37305 5.8418 -11.25 8.10449c-2.87793 2.26172 -8.11035 6.78711 -11.6299 10.0547
c-3.51953 3.2666 -9.10547 9.08789 -12.4131 12.9336c-3.30859 3.8457 -8.06641 9.80469 -10.5732 13.2422s-6.44043 9.34375 -8.74023 13.125c-2.30078 3.78125 -5.58887 9.66602 -7.30664 13.0762c-1.71875 3.41113 -4.19434 8.62988 -5.5 11.5986
c-1.30664 2.96777 -3.77539 9.45801 -5.48633 14.4229c-1.71191 4.96582 -4.12207 12.9648 -5.35547 17.7773c-1.23438 4.8125 -2.93848 12.9688 -3.78711 18.125s-1.90723 12.4688 -2.35156 16.25c-0.486328 4.14453 -0.807617 14.1973 -0.807617 25.3125
s0.321289 21.168 0.807617 25.3125c0.444336 3.78125 1.48438 10.9697 2.30957 15.9746c0.825195 5.00391 2.17969 11.8945 3.00781 15.3125c0.829102 3.41699 2.12305 8.32227 2.87598 10.9004s2.78516 8.625 4.51562 13.4375s5.17285 12.9688 7.65137 18.125
c2.47754 5.15625 6.55371 12.75 9.05762 16.875s6.60352 10.3125 9.10938 13.75c2.50684 3.4375 7.26465 9.39648 10.5732 13.2422c3.30762 3.8457 8.89355 9.66699 12.4131 12.9336c3.51953 3.26758 8.75195 7.79297 11.6299 10.0547
c2.87695 2.2627 7.93945 5.90918 11.25 8.10449c3.30957 2.19434 8.26855 5.11523 11.0186 6.49219c2.75 1.375 6.75488 3.09082 8.90039 3.81055c2.14453 0.719727 6.08203 1.72266 8.75 2.22754c3.25293 0.617188 7.4209 0.837891 12.6621 0.670898zM626.875 487.224
c5.66602 -0.179688 9.47949 -0.679688 13.8799 -1.81836c3.33691 -0.863281 8.53223 -2.77441 11.5449 -4.24609c3.01172 -1.4707 7.65137 -4.31445 10.3096 -6.31738c2.65723 -2.00195 7.49609 -6.5127 10.75 -10.0234c3.25488 -3.50879 8.50195 -9.47461 11.6602 -13.2559
s8.48535 -10.5312 11.8389 -15c3.35254 -4.46875 8.3418 -11.5 11.0879 -15.625s6.75586 -10.4297 8.91016 -14.0098c2.15527 -3.58008 5.97266 -10.4707 8.48438 -15.3125c2.51074 -4.8418 6.23633 -12.7402 8.27637 -17.5527
c2.04199 -4.8125 4.89355 -12.2539 6.33789 -16.5371c1.44434 -4.28223 3.5957 -11.7354 4.78223 -16.5625c1.18457 -4.82617 2.7666 -12.7129 3.5166 -17.5254c1.1123 -7.14746 1.3623 -11.4404 1.3623 -23.4375s-0.25 -16.29 -1.3623 -23.4375
c-0.75 -4.8125 -2.33203 -12.6992 -3.5166 -17.5254c-1.18652 -4.82715 -3.33789 -12.2803 -4.78223 -16.5625c-1.44434 -4.2832 -4.2959 -11.7246 -6.33789 -16.5371c-2.04004 -4.8125 -5.76562 -12.7109 -8.27637 -17.5527
c-2.51172 -4.8418 -6.3291 -11.7324 -8.48438 -15.3125c-2.1543 -3.58008 -6.16406 -9.88477 -8.91016 -14.0098s-7.73535 -11.1562 -11.0879 -15.625c-3.35352 -4.46875 -8.68066 -11.2188 -11.8389 -15s-8.40527 -9.74707 -11.6602 -13.2559
c-3.25391 -3.51074 -8.09277 -8.02148 -10.75 -10.0234c-2.6582 -2.00293 -7.29785 -4.84668 -10.3096 -6.31738c-3.0127 -1.47168 -8.20801 -3.37793 -11.5449 -4.23535c-3.73828 -0.960938 -8.70703 -1.69336 -12.9424 -1.90527
c-4.91406 -0.248047 -8.53516 -0.0556641 -12.6963 0.670898c-3.20215 0.560547 -7.56152 1.60156 -9.6875 2.31543c-2.12598 0.714844 -5.69824 2.2002 -7.93848 3.30078c-2.23926 1.10059 -5.75488 3.1123 -7.8125 4.47168
c-2.05664 1.35742 -5.88477 4.58105 -8.50586 7.16211c-2.62109 2.58008 -6.36035 7.14551 -8.30957 10.1436c-1.9502 2.99902 -4.39258 7.49902 -5.43066 10c-1.03711 2.50195 -2.48926 6.93848 -3.22754 9.86035c-1.06738 4.22266 -1.3418 7.1709 -1.3418 14.375
s0.274414 10.1523 1.3418 14.375c0.738281 2.92188 2.19043 7.3584 3.22754 9.86035c1.03809 2.50098 3.39746 6.86035 5.24414 9.6875c1.84766 2.82617 5.83301 7.81152 8.85547 11.0771c3.02344 3.26562 7.86621 8.89062 10.7637 12.5
c2.89648 3.60938 7.74121 10.2188 10.7656 14.6875s7.24316 11.251 9.37402 15.0713c2.13184 3.82031 5.125 10.0195 6.65039 13.7764c1.52637 3.75781 3.38477 9.06836 4.12891 11.8047c1.02148 3.75293 1.35449 6.73535 1.35449 12.1602
c0 5.42578 -0.333008 8.40723 -1.35449 12.1611c-0.744141 2.73633 -2.60254 8.04688 -4.12891 11.8047c-1.52539 3.75684 -4.51855 9.95605 -6.65039 13.7764c-2.13086 3.82031 -6.34961 10.6025 -9.37402 15.0713s-7.86914 11.0781 -10.7656 14.6875
c-2.89746 3.60938 -7.74023 9.23438 -10.7637 12.5c-3.02246 3.26562 -7.00781 8.25098 -8.85547 11.0771c-1.84668 2.82715 -4.20605 7.18652 -5.24414 9.6875c-1.03711 2.50195 -2.48926 6.93848 -3.22754 9.86035c-1.06738 4.22266 -1.3418 7.1709 -1.3418 14.375
s0.274414 10.1514 1.3418 14.375c0.738281 2.92188 2.19043 7.3584 3.22754 9.86035c1.03809 2.50098 3.48047 7.00098 5.43066 10c1.94922 2.99805 5.68848 7.56348 8.30957 10.1436c2.62109 2.58105 6.44922 5.80469 8.50586 7.16211
c2.05762 1.35938 5.57324 3.37109 7.8125 4.47168c2.24023 1.10059 5.82715 2.59082 7.97266 3.31152c2.14453 0.719727 6.08203 1.72363 8.75 2.22852c3.25293 0.617188 7.4209 0.837891 12.6621 0.669922zM499.449 362.443
c2.96289 0.03125 7.8418 -0.371094 10.8418 -0.894531s7.18555 -1.53223 9.30078 -2.24219c2.11523 -0.710938 5.67773 -2.19336 7.91797 -3.29395c2.23926 -1.10059 5.75488 -3.1123 7.8125 -4.47168c2.05664 -1.35742 5.88477 -4.58105 8.50586 -7.16211
c2.62109 -2.58008 6.36035 -7.14551 8.30957 -10.1445c1.9502 -2.99805 4.39258 -7.49805 5.42871 -10c1.03711 -2.50098 2.43848 -6.79688 3.11523 -9.54688s1.39941 -7.8125 1.60645 -11.25c0.217773 -3.61914 0.0654297 -8.58203 -0.363281 -11.791
c-0.407227 -3.04688 -1.46191 -7.82812 -2.34375 -10.625c-0.881836 -2.7959 -2.44629 -6.77148 -3.47754 -8.83398s-3.11328 -5.62598 -4.62891 -7.91797c-1.51367 -2.29297 -4.65918 -6.08984 -6.98828 -8.4375c-2.3291 -2.34863 -6.40723 -5.76758 -9.0625 -7.59863
c-2.65527 -1.83008 -6.87891 -4.27637 -9.38672 -5.43359c-2.50684 -1.15918 -6.60156 -2.67285 -9.09863 -3.36523s-7.3291 -1.56543 -10.7393 -1.94043c-4.47949 -0.493164 -7.91895 -0.493164 -12.3984 0c-3.41016 0.375 -8.24219 1.24805 -10.7393 1.94043
s-6.5918 2.20605 -9.09863 3.36523c-2.50781 1.15723 -6.69434 3.58203 -9.30469 5.38574c-2.60938 1.80469 -6.6875 5.22363 -9.06152 7.59668c-2.37402 2.375 -5.55566 6.19336 -7.07129 8.48633c-1.51465 2.29297 -3.59766 5.85645 -4.62891 7.91895
s-2.58594 6.00684 -3.45605 8.76465c-0.869141 2.75879 -1.92578 7.37793 -2.34863 10.2656c-0.46875 3.20508 -0.620117 7.8252 -0.389648 11.8604c0.208008 3.63477 0.933594 8.85938 1.6123 11.6094s2.08203 7.0459 3.11914 9.54785
c1.03613 2.50098 3.47852 7.00098 5.42871 10c1.94922 2.99805 5.68848 7.56348 8.30957 10.1436c2.62109 2.58105 6.33789 5.73047 8.25977 6.99902s5.4375 3.28027 7.8125 4.46973c2.375 1.19141 6.07324 2.75488 8.21875 3.47559
c2.14453 0.720703 6.08203 1.70508 8.75 2.1875c2.66699 0.482422 7.27441 0.902344 10.2363 0.932617z" />
  </g>

</svg>
