<?xml version="1.0" standalone="no"?>
<!DOCTYPE svg PUBLIC "-//W3C//DTD SVG 1.1//EN" "http://www.w3.org/Graphics/SVG/1.1/DTD/svg11.dtd" >
<svg xmlns="http://www.w3.org/2000/svg" xmlns:xlink="http://www.w3.org/1999/xlink" version="1.1" viewBox="-10 0 1010 1000">
  <g transform="matrix(1 0 0 -1 0 800)">
   <path fill="currentColor"
d="M189.375 674.724c5.66602 -0.179688 9.47949 -0.679688 13.8799 -1.81836c3.33691 -0.863281 8.49707 -2.75684 11.4668 -4.20801c2.96973 -1.4502 7.12891 -3.88965 9.24512 -5.41992s91.3916 -90.292 198.391 -197.249
c154.637 -154.572 194.671 -194.273 195.154 -193.528c0.334961 0.515625 1.48047 3.17871 2.54688 5.91797c1.06543 2.73926 2.5166 7.09863 3.22363 9.6875c0.950195 3.47949 1.28613 6.58203 1.28613 11.8945c0 5.4248 -0.333008 8.40723 -1.35449 12.1602
c-0.744141 2.73633 -2.60254 8.04688 -4.12891 11.8047c-1.52539 3.75684 -4.51855 9.95605 -6.65039 13.7764c-2.13086 3.82031 -6.34961 10.6035 -9.37402 15.0713c-3.02441 4.46875 -7.86914 11.0781 -10.7656 14.6875c-2.89746 3.60938 -7.74023 9.23438 -10.7637 12.5
c-3.02246 3.26562 -7.00781 8.25098 -8.85547 11.0771c-1.84668 2.82715 -4.20605 7.18652 -5.24414 9.6875c-1.03711 2.50195 -2.48926 6.93848 -3.22754 9.86035c-1.06738 4.22266 -1.3418 7.1709 -1.3418 14.375s0.274414 10.1523 1.3418 14.375
c0.738281 2.92188 2.19043 7.3584 3.22754 9.86035c1.03809 2.50098 3.48047 7.00098 5.43066 10c1.94922 2.99805 5.68848 7.56348 8.30957 10.1436c2.62109 2.58105 6.44922 5.80469 8.50586 7.16211c2.05762 1.35938 5.57324 3.37109 7.8125 4.47168
c2.24023 1.10059 5.8125 2.58594 7.93848 3.30078c2.12598 0.713867 6.48535 1.75488 9.6875 2.31543c4.16113 0.726562 7.78223 0.918945 12.6963 0.670898c4.23535 -0.211914 9.2041 -0.944336 12.9424 -1.90527c3.33691 -0.857422 8.53223 -2.76367 11.5449 -4.23535
c3.01172 -1.4707 7.65137 -4.31445 10.3096 -6.31738c2.65723 -2.00195 7.49609 -6.5127 10.75 -10.0234c3.25488 -3.50879 8.50195 -9.47461 11.6602 -13.2559c3.1582 -3.78027 8.48535 -10.5312 11.8389 -15c3.35254 -4.46875 8.3418 -11.5 11.0879 -15.625
s6.75586 -10.4297 8.91016 -14.0098c2.15527 -3.58008 5.97266 -10.4707 8.48438 -15.3125c2.51074 -4.8418 6.23633 -12.7402 8.27637 -17.5527c2.04199 -4.8125 4.89355 -12.2539 6.33789 -16.5371c1.44434 -4.28223 3.5957 -11.7354 4.78223 -16.5625
c1.18457 -4.82617 2.7666 -12.7129 3.5166 -17.5254c1.1123 -7.14746 1.3623 -11.4404 1.3623 -23.4375s-0.25 -16.29 -1.3623 -23.4375c-0.75 -4.8125 -2.33203 -12.6992 -3.5166 -17.5254c-1.18652 -4.82715 -3.33789 -12.2803 -4.78223 -16.5625
c-1.44434 -4.2832 -4.28027 -11.6699 -6.30176 -16.416c-2.02246 -4.74609 -4.97363 -11.2148 -6.56055 -14.375s-4.2998 -8.27734 -6.03125 -11.3711c-1.72949 -3.09375 -5.24707 -8.95898 -7.81543 -13.0352l-4.66895 -7.41016l20.8643 -20.8711l20.8652 -20.8721
l1.12109 1.40625c0.617188 0.774414 4.00293 5.2041 7.52344 9.84473s8.06738 10.9688 10.1035 14.0625s5.49512 8.57812 7.68555 12.1875c2.19141 3.60938 6.89551 12.4688 10.4541 19.6875s8.0459 17.2764 9.97363 22.3496
c1.92578 5.07324 4.73535 13.5225 6.24414 18.7764c1.50684 5.25293 3.58789 13.8984 4.62305 19.2119c1.03516 5.31445 2.38379 13.5996 2.99805 18.4121c0.832031 6.52344 1.11523 13.123 1.11523 25.9375s-0.283203 19.4141 -1.11523 25.9375
c-0.614258 4.8125 -1.9502 13.0322 -2.96973 18.2646c-1.01953 5.2334 -2.96582 13.4512 -4.3252 18.2627s-3.85449 12.4824 -5.54395 17.0479c-1.68945 4.56445 -4.04395 10.5498 -5.2334 13.2998s-4.29199 9.24707 -6.89453 14.4385
c-2.60156 5.19043 -6.47949 12.3623 -8.61621 15.9375c-2.13672 3.57422 -5.73047 9.31152 -7.98633 12.749c-2.25488 3.4375 -6.96484 10.0469 -10.4668 14.6875c-3.50098 4.64062 -8.71191 11.2373 -11.5811 14.6602c-2.86816 3.42285 -9.33691 10.459 -14.375 15.6367
c-5.03809 5.17676 -12.3535 12.0752 -16.2568 15.3301c-3.90332 3.25391 -8.97949 7.78613 -11.2812 10.0713s-5.75977 6.57031 -7.68457 9.52441c-1.92578 2.95312 -4.34863 7.41602 -5.38672 9.91699c-1.03711 2.50195 -2.48926 6.93848 -3.22754 9.86035
c-1.06738 4.22266 -1.3418 7.1709 -1.3418 14.375s0.274414 10.1523 1.3418 14.375c0.738281 2.92188 2.19043 7.3584 3.22754 9.86035c1.03809 2.50098 3.48047 7.00098 5.43066 10c1.94922 2.99805 5.68848 7.56348 8.30957 10.1436
c2.62109 2.58105 6.33789 5.73047 8.25977 6.99902s5.4375 3.28027 7.8125 4.46973c2.375 1.19141 6.05859 2.74902 8.18457 3.46387s6.48535 1.75684 9.6875 2.31738c4.16113 0.726562 7.78223 0.918945 12.6963 0.670898
c4.23535 -0.211914 9.2041 -0.944336 12.9424 -1.90527c3.33691 -0.857422 8.49707 -2.74609 11.4668 -4.19727c2.96973 -1.4502 7.12988 -3.90527 9.24512 -5.45508s7.36133 -5.79004 11.6582 -9.42188c4.29688 -3.63281 13.3135 -12.0947 20.0371 -18.8057
c6.72461 -6.71191 15.1836 -15.5771 18.7998 -19.7021c3.61523 -4.125 9.64551 -11.3242 13.4004 -15.9971c3.75391 -4.67383 9.91895 -12.7686 13.7002 -17.9883c3.78125 -5.21875 9.48438 -13.5693 12.6729 -18.5576c3.18945 -4.98633 8.33301 -13.4854 11.4307 -18.8867
c3.09863 -5.40137 8.125 -14.8828 11.1709 -21.0703s6.85547 -14.3438 8.46582 -18.125c1.61133 -3.78027 4.42188 -10.8125 6.24707 -15.625s4.72266 -13.1094 6.43848 -18.4375c1.7168 -5.32715 4.40332 -14.75 5.96973 -20.9375
c1.56738 -6.1875 3.69531 -15.75 4.73047 -21.25c1.03418 -5.5 2.30566 -13.0938 2.82324 -16.875s1.23535 -9.54688 1.59375 -12.8125c0.359375 -3.26465 0.930664 -10.4375 1.27148 -15.9375c0.339844 -5.5 0.619141 -14.6396 0.619141 -20.3125
c0 -5.67188 -0.279297 -14.8125 -0.619141 -20.3125c-0.34082 -5.5 -0.912109 -12.6719 -1.27148 -15.9375c-0.358398 -3.26562 -1.07617 -9.03125 -1.59375 -12.8125c-0.517578 -3.78027 -1.78906 -11.375 -2.82324 -16.875
c-1.03516 -5.5 -3.16113 -15.0625 -4.72559 -21.25c-1.56543 -6.1875 -4.53711 -16.4473 -6.60352 -22.7979c-2.06641 -6.35254 -5.72852 -16.4775 -8.13672 -22.5c-2.4082 -6.02441 -6.33203 -15.1709 -8.71973 -20.3271
c-2.3877 -5.15527 -6.61816 -13.5938 -9.40332 -18.75c-2.78418 -5.15625 -7.15918 -12.8906 -9.7207 -17.1875c-2.5625 -4.29688 -7.25684 -11.75 -10.4336 -16.5625c-3.17578 -4.8125 -9.58301 -13.8125 -14.2383 -20
c-4.6543 -6.1875 -10.8105 -14.0293 -13.6787 -17.4258c-2.86914 -3.39648 -5.48926 -6.55078 -5.82422 -7.00977c-0.456055 -0.625977 2.14746 -3.62012 10.3887 -11.9492c7.7207 -7.80371 12.0527 -12.7393 14.543 -16.5674c1.9502 -2.99902 4.39453 -7.49902 5.43262 -10
c1.03711 -2.50195 2.48926 -6.93848 3.22754 -9.86035c1.06738 -4.22266 1.3418 -7.1709 1.3418 -14.375s-0.274414 -10.1523 -1.3418 -14.375c-0.738281 -2.92188 -2.19043 -7.3584 -3.22754 -9.86035c-1.03809 -2.50098 -3.39746 -6.86035 -5.24414 -9.6875
c-1.84766 -2.82617 -4.84277 -6.75781 -6.65625 -8.73535c-1.81348 -1.97852 -5.45605 -5.22266 -8.09375 -7.21094c-2.63965 -1.9873 -7.2627 -4.81934 -10.2744 -6.29004c-3.0127 -1.47168 -8.20801 -3.40234 -11.5449 -4.29102
c-5.11035 -1.35938 -7.49805 -1.62402 -15.1299 -1.67578c-6.7793 -0.0458984 -10.3223 0.229492 -14.0625 1.0957c-2.75 0.635742 -7.10938 2.02441 -9.6875 3.08594s-6.375 2.90527 -8.4375 4.09766c-2.0625 1.19336 -5.15527 3.26562 -6.875 4.60449
c-1.71875 1.33984 -91.2168 90.5078 -198.885 198.152c-107.668 107.644 -195.891 195.585 -196.052 195.424s-0.863281 -3.10059 -1.56055 -6.53223s-1.59863 -9.61426 -2.00195 -13.7393c-0.431641 -4.40918 -0.580078 -11.2344 -0.360352 -16.5625
c0.206055 -4.98438 0.950195 -12.4092 1.65332 -16.499c0.703125 -4.09082 2.26465 -10.3818 3.46973 -13.9834c1.20508 -3.60059 3.37891 -8.83203 4.83105 -11.626c1.45312 -2.79395 4.25488 -7.22266 6.22852 -9.84277
c1.97266 -2.62012 5.28516 -6.33594 7.35938 -8.25684c2.0752 -1.9209 5.52637 -4.52051 7.66992 -5.77637s5.63965 -3.66895 7.76953 -5.36426c2.13086 -1.69434 5.19922 -4.54492 6.81934 -6.33496c1.62012 -1.78906 4.46094 -5.56738 6.3125 -8.39355
c1.85156 -2.82715 4.21387 -7.18652 5.25195 -9.6875c1.03711 -2.50195 2.48926 -6.93848 3.22754 -9.86035c1.06738 -4.22266 1.3418 -7.1709 1.3418 -14.375s-0.274414 -10.1523 -1.3418 -14.375c-0.738281 -2.92188 -2.19043 -7.3584 -3.22754 -9.86035
c-1.03809 -2.50098 -3.39746 -6.86035 -5.24414 -9.6875c-1.84766 -2.82617 -4.84277 -6.75781 -6.65625 -8.73535c-1.81348 -1.97852 -5.45605 -5.22266 -8.09375 -7.21094c-2.63965 -1.9873 -7.2627 -4.81934 -10.2744 -6.29004
c-3.0127 -1.47168 -8.20801 -3.37793 -11.5449 -4.23535c-3.73828 -0.960938 -8.70703 -1.69336 -12.9424 -1.90527c-4.91406 -0.248047 -8.53516 -0.0556641 -12.6963 0.670898c-3.20215 0.560547 -7.56152 1.60156 -9.6875 2.31543s-6.11621 2.42383 -8.86621 3.79883
c-2.75 1.37695 -7.70898 4.29785 -11.0186 6.49219c-3.31055 2.19531 -8.37305 5.8418 -11.25 8.10449c-2.87793 2.26172 -8.11035 6.78711 -11.6299 10.0547c-3.51953 3.2666 -9.10547 9.08789 -12.4131 12.9336c-3.30859 3.8457 -8.06641 9.80469 -10.5732 13.2422
s-6.44043 9.34375 -8.74023 13.125c-2.30078 3.78125 -5.58887 9.66602 -7.30664 13.0762c-1.71875 3.41113 -4.19434 8.62988 -5.5 11.5986c-1.30664 2.96777 -3.77539 9.45801 -5.48633 14.4229c-1.71191 4.96582 -4.12207 12.9648 -5.35547 17.7773
c-1.23438 4.8125 -2.93848 12.9688 -3.78711 18.125s-1.90723 12.4688 -2.35156 16.25c-0.486328 4.14453 -0.807617 14.1973 -0.807617 25.3125s0.321289 21.168 0.807617 25.3125c0.444336 3.78125 1.48438 10.9697 2.30957 15.9746
c0.825195 5.00391 2.17969 11.8945 3.00781 15.3125c0.829102 3.41699 2.12305 8.32227 2.87598 10.9004s2.78027 8.625 4.50391 13.4375s5.47363 13.5312 8.33301 19.375c2.8584 5.84375 7.20898 13.8428 9.66699 17.7754l4.46973 7.14941l-18.3115 18.3193
l-18.3125 18.3193l-1.12109 -1.40625c-0.617188 -0.774414 -4.00586 -5.2041 -7.5293 -9.84473s-8.25195 -11.25 -10.5068 -14.6875c-2.25586 -3.4375 -5.84961 -9.1748 -7.98633 -12.749c-2.13672 -3.5752 -6.01465 -10.7471 -8.61621 -15.9375
c-2.60254 -5.19141 -5.70215 -11.6885 -6.88965 -14.4385c-1.18555 -2.75 -3.41895 -8.375 -4.96191 -12.5s-3.91406 -11.292 -5.27051 -15.9268s-3.28125 -12.3691 -4.27734 -17.1875s-2.25098 -11.8545 -2.79004 -15.6357
c-0.538086 -3.78125 -1.26367 -10.502 -1.61133 -14.9346s-0.632812 -11.915 -0.632812 -16.6279s0.285156 -12.1953 0.632812 -16.6279s1.07324 -11.1533 1.61133 -14.9346c0.539062 -3.78125 1.79395 -10.8174 2.79004 -15.6357s2.9209 -12.5527 4.27734 -17.1875
s3.72754 -11.8018 5.27051 -15.9268s3.77637 -9.75 4.96191 -12.5c1.1875 -2.75 4.28711 -9.24707 6.88965 -14.4385c2.60156 -5.19043 6.47852 -12.3623 8.61621 -15.9375c2.13672 -3.57422 6.12988 -9.87109 8.87305 -13.9922
c2.74414 -4.12012 7.45996 -10.7295 10.4805 -14.6875c3.01953 -3.95703 7.80469 -9.96289 10.6328 -13.3447c2.82812 -3.38379 9.04492 -10.1748 13.8135 -15.0928c4.76953 -4.91797 12.1113 -11.8516 16.3174 -15.4062
c4.20508 -3.55566 9.52832 -8.33203 11.8301 -10.6152s5.75977 -6.56641 7.68457 -9.52051c1.92578 -2.95312 4.34863 -7.41602 5.38672 -9.91699c1.03711 -2.50195 2.48926 -6.93848 3.22754 -9.86035c1.06738 -4.22266 1.3418 -7.1709 1.3418 -14.375
s-0.274414 -10.1523 -1.3418 -14.375c-0.738281 -2.92188 -2.19043 -7.3584 -3.22754 -9.86035c-1.03809 -2.50098 -3.39746 -6.86035 -5.24414 -9.6875c-1.84766 -2.82617 -4.84277 -6.75781 -6.65625 -8.73535c-1.81348 -1.97852 -5.45605 -5.22266 -8.09375 -7.21094
c-2.63965 -1.9873 -7.2627 -4.81934 -10.2744 -6.29004c-3.0127 -1.47168 -8.20801 -3.40234 -11.5449 -4.29102c-5.11035 -1.35938 -7.49805 -1.62402 -15.1299 -1.67578c-6.7793 -0.0458984 -10.3223 0.229492 -14.0625 1.0957
c-2.75 0.635742 -7.10938 2.02441 -9.6875 3.08594s-6.375 2.9082 -8.4375 4.10352c-2.0625 1.19629 -5.29688 3.35938 -7.1875 4.80859c-1.89062 1.44824 -6.67188 5.4043 -10.625 8.79199s-12.5479 11.5068 -19.0996 18.043
c-6.55078 6.53711 -14.8594 15.2598 -18.4639 19.3848c-3.60352 4.125 -8.95996 10.4531 -11.9023 14.0625c-2.94336 3.60938 -8.37891 10.6406 -12.0801 15.625c-3.7002 4.98438 -9.33203 13 -12.5137 17.8125c-3.18262 4.8125 -7.88184 12.2656 -10.4443 16.5625
c-2.56152 4.29688 -6.93652 12.0312 -9.7207 17.1875c-2.78516 5.15625 -7.01562 13.5938 -9.40332 18.75s-6.31152 14.3027 -8.71973 20.3271c-2.4082 6.02246 -6.07031 16.1475 -8.13672 22.5c-2.06641 6.35059 -5.0332 16.6104 -6.59082 22.7979
c-1.55957 6.1875 -3.55371 14.9062 -4.43262 19.375c-0.879883 4.46875 -2.01465 10.9375 -2.52246 14.375c-0.506836 3.4375 -1.34766 9.90625 -1.86621 14.375c-0.519531 4.46875 -1.27051 13.4688 -1.66992 20c-0.430664 7.04785 -0.573242 17.9717 -0.351562 26.875
c0.207031 8.25 0.802734 19.3867 1.3252 24.749c0.522461 5.36133 1.51855 13.6582 2.21484 18.4375c0.695312 4.77832 1.98535 12.3447 2.86621 16.8135c0.881836 4.46875 2.87891 13.1875 4.43945 19.375s4.24219 15.6094 5.95898 20.9375
c1.71582 5.32812 4.6123 13.625 6.4375 18.4375c1.82422 4.8125 4.7168 11.9844 6.42871 15.9375s4.53711 10.2139 6.27734 13.9131c1.74121 3.69922 5.33691 10.7305 7.98926 15.625c2.65332 4.89453 6.91895 12.415 9.47949 16.7119s7.25391 11.75 10.4307 16.5625
c3.17578 4.8125 9.58301 13.8125 14.2383 20c4.6543 6.1875 10.8105 14.0293 13.6787 17.4258c2.86914 3.39648 5.48926 6.55078 5.82422 7.00977c0.456055 0.625977 -2.14746 3.62012 -10.3887 11.9492c-7.7207 7.80371 -12.0527 12.7393 -14.543 16.5674
c-1.9502 2.99902 -4.39453 7.49902 -5.43262 10c-1.03711 2.50195 -2.48926 6.93848 -3.22754 9.86035c-1.06738 4.22266 -1.3418 7.1709 -1.3418 14.375s0.274414 10.1523 1.3418 14.375c0.738281 2.92188 2.19043 7.3584 3.22754 9.86035
c1.03809 2.50098 3.48047 7.00098 5.43066 10c1.94922 2.99805 5.68848 7.56348 8.30957 10.1436c2.62109 2.58105 6.33789 5.73047 8.25977 6.99902s5.4375 3.28027 7.8125 4.46973c2.375 1.19141 6.07324 2.75488 8.21875 3.47559
c2.14453 0.720703 6.08203 1.72461 8.75 2.22949c3.25293 0.617188 7.4209 0.837891 12.6621 0.670898z" />
  </g>

</svg>
