<?xml version="1.0" standalone="no"?>
<!DOCTYPE svg PUBLIC "-//W3C//DTD SVG 1.1//EN" "http://www.w3.org/Graphics/SVG/1.1/DTD/svg11.dtd" >
<svg xmlns="http://www.w3.org/2000/svg" xmlns:xlink="http://www.w3.org/1999/xlink" version="1.1" viewBox="-10 0 1010 1000">
  <g transform="matrix(1 0 0 -1 0 800)">
   <path fill="currentColor"
d="M220.625 737.224c5.66602 -0.179688 9.47949 -0.679688 13.8799 -1.81836c3.33691 -0.863281 8.53223 -2.77441 11.5449 -4.24609c3.01172 -1.4707 7.63477 -4.30273 10.2744 -6.29004c2.6377 -1.98828 6.28027 -5.23242 8.09375 -7.21094
c1.81348 -1.97754 4.80859 -5.90918 6.65625 -8.73535c1.84668 -2.82715 4.20605 -7.18652 5.24219 -9.6875c1.03711 -2.50195 2.49219 -6.79785 3.2334 -9.54785c1.33691 -4.9541 1.35254 -5.68652 1.68066 -78.8516l0.332031 -73.8506l7.50977 -3.75977
c4.12988 -2.06641 11.3018 -6.28223 15.9375 -9.36719c4.63477 -3.08594 11.2402 -7.98633 14.6777 -10.8916c3.4375 -2.9043 8.52734 -7.66211 11.3096 -10.5713c2.7832 -2.90918 7.2832 -8.08496 10 -11.501c2.71777 -3.41602 6.66504 -8.88184 8.77441 -12.1465
c2.1084 -3.26465 5.2627 -8.61133 7.00781 -11.8818c1.74609 -3.26953 4.42969 -8.94336 5.96484 -12.6055c1.53418 -3.66309 3.67676 -9.4248 4.76172 -12.8037c1.08398 -3.37988 2.63574 -9.09766 3.44629 -12.707c0.8125 -3.60938 1.97559 -9.79688 2.58496 -13.75
c0.816406 -5.28906 1.10938 -10.9023 1.10938 -21.25s-0.292969 -15.9609 -1.10938 -21.25c-0.609375 -3.95312 -1.77246 -10.1406 -2.58496 -13.75c-0.810547 -3.60938 -2.3623 -9.32715 -3.44629 -12.707c-1.08496 -3.37891 -3.22754 -9.14062 -4.76172 -12.8037
c-1.53516 -3.66211 -4.21875 -9.33594 -5.96484 -12.6055c-1.74512 -3.27051 -4.89941 -8.61719 -7.00781 -11.8818c-2.10938 -3.26465 -6.05664 -8.73047 -8.77441 -12.1465c-2.7168 -3.41602 -7.2168 -8.58691 -10 -11.4902
c-2.78223 -2.9043 -7.87207 -7.65234 -11.3096 -10.5527c-3.4375 -2.89941 -10.043 -7.80469 -14.6777 -10.9004c-4.63574 -3.09668 -11.8076 -7.32129 -15.9375 -9.38867l-7.50977 -3.75879l-0.321289 -167.601l-0.321289 -167.602l-1.35938 -5
c-0.74707 -2.75 -2.20703 -7.0459 -3.24414 -9.54785c-1.03613 -2.50098 -3.39551 -6.86035 -5.24219 -9.6875c-1.84766 -2.82617 -4.84277 -6.75781 -6.65625 -8.73535c-1.81348 -1.97852 -5.45605 -5.22266 -8.09375 -7.21094
c-2.63965 -1.9873 -7.2627 -4.81934 -10.2744 -6.29004c-3.0127 -1.47168 -8.20801 -3.37793 -11.5449 -4.23535c-3.73828 -0.960938 -8.70703 -1.69336 -12.9424 -1.90527c-4.91406 -0.248047 -8.53516 -0.0556641 -12.6963 0.670898
c-3.20215 0.560547 -7.56152 1.60254 -9.6875 2.31738s-5.80957 2.27246 -8.18457 3.46387c-2.375 1.18945 -5.89062 3.20117 -7.8125 4.46973s-5.63867 4.41797 -8.25977 6.99902c-2.62109 2.58008 -6.36035 7.14551 -8.30957 10.1436
c-1.9502 2.99902 -4.39258 7.49902 -5.42871 10c-1.03711 2.50195 -2.49707 6.79785 -3.24414 9.54785l-1.35938 5l-0.321289 167.57l-0.321289 167.571l-7.8125 4.0127c-4.29688 2.20703 -10.624 5.83105 -14.0605 8.05371s-9.04297 6.26367 -12.459 8.98145
c-3.41602 2.7168 -8.58691 7.2168 -11.4902 10c-2.9043 2.78223 -7.65039 7.87207 -10.5479 11.3096c-2.89648 3.4375 -7.61719 9.76562 -10.4883 14.0625s-6.64062 10.4883 -8.37695 13.7588c-1.73633 3.26953 -4.41113 8.94336 -5.94629 12.6055
c-1.53418 3.66309 -3.67676 9.4248 -4.76172 12.8037c-1.08398 3.37988 -2.63574 9.09766 -3.44629 12.707c-0.8125 3.60938 -1.97559 9.79688 -2.58496 13.75c-0.816406 5.28906 -1.10938 10.9023 -1.10938 21.25s0.292969 15.9609 1.10938 21.25
c0.609375 3.95312 1.77246 10.1406 2.58496 13.75c0.810547 3.60938 2.3623 9.32715 3.44629 12.707c1.08496 3.37891 3.22754 9.14062 4.76172 12.8037c1.53516 3.66211 4.21582 9.33594 5.95898 12.6055c1.74121 3.27051 5.00488 8.75879 7.25195 12.1963
c2.24609 3.4375 5.93555 8.64062 8.19727 11.5625s7.77637 8.97656 12.2549 13.4561c4.47949 4.47852 10.5342 9.99316 13.4561 12.2549s8.22461 6.02051 11.7842 8.35254c3.55957 2.33301 10.0283 6.06641 14.375 8.29883l7.90332 4.05664l0.332031 73.8223
c0.328125 73.1348 0.34375 73.8672 1.68066 78.8213c0.741211 2.75 2.19629 7.0459 3.2334 9.54785c1.03613 2.50098 3.47852 7.00098 5.42871 10c1.94922 2.99805 5.68848 7.56348 8.30957 10.1436c2.62109 2.58105 6.33789 5.73047 8.25977 6.99902
s5.4375 3.28027 7.8125 4.46973c2.375 1.19141 6.07324 2.75488 8.21875 3.47559c2.14453 0.720703 6.08203 1.72461 8.75 2.22949c3.25293 0.617188 7.4209 0.837891 12.6621 0.670898v0.000976562zM501.875 737.224c5.66602 -0.179688 9.47949 -0.679688 13.8799 -1.81836
c3.33691 -0.863281 8.53223 -2.77441 11.5449 -4.24609c3.01172 -1.4707 7.63477 -4.30273 10.2744 -6.29004c2.6377 -1.98828 6.28027 -5.23242 8.09375 -7.21094c1.81348 -1.97754 4.82422 -5.93359 6.69141 -8.79102c1.86719 -2.85645 4.31836 -7.49707 5.44922 -10.3125
c1.12988 -2.81445 2.57715 -7.36719 3.2168 -10.1172c1.12109 -4.8252 1.16211 -12.8789 1.16211 -231.25c0 -124.438 -0.201172 -227.553 -0.446289 -229.144l-0.447266 -2.89453l8.25977 -4.0752c4.54199 -2.24121 12.0557 -6.60645 16.6963 -9.7002
s11.25 -8.00195 14.6875 -10.9072c3.4375 -2.9043 8.52734 -7.66211 11.3096 -10.5713c2.7832 -2.90918 7.2832 -8.08496 10 -11.501c2.71777 -3.41602 6.66504 -8.88184 8.77441 -12.1465c2.1084 -3.26465 5.2627 -8.61133 7.00781 -11.8818
c1.74609 -3.26953 4.42969 -8.94336 5.96484 -12.6055c1.53418 -3.66309 3.67676 -9.4248 4.76172 -12.8037c1.08398 -3.37988 2.63574 -9.09766 3.44629 -12.707c0.8125 -3.60938 1.97363 -9.79688 2.58105 -13.75c0.799805 -5.20215 1.10938 -10.9844 1.12012 -20.9375
c0.00976562 -7.93945 -0.322266 -16.127 -0.786133 -19.375c-0.44043 -3.09375 -1.51758 -9.14062 -2.3916 -13.4375s-2.7959 -11.4688 -4.27051 -15.9375c-1.47363 -4.46875 -4.00586 -11.1387 -5.625 -14.8223c-1.62012 -3.68359 -4.67773 -9.73145 -6.79395 -13.4395
c-2.11719 -3.70801 -5.71875 -9.41309 -8.00488 -12.6768c-2.28516 -3.26562 -6.39746 -8.6084 -9.13672 -11.874s-7.33789 -8.19434 -10.2188 -10.9521c-2.88184 -2.75879 -7.91016 -7.15723 -11.1758 -9.77539s-9.03125 -6.77637 -12.8125 -9.24023
c-3.78125 -2.46484 -10.25 -6.17578 -14.375 -8.24707l-7.5 -3.7666l-0.410156 -11.3525c-0.297852 -8.24121 -0.758789 -12.7246 -1.68066 -16.3535c-0.698242 -2.75 -2.11816 -7.0459 -3.15527 -9.54785c-1.03613 -2.50098 -3.39551 -6.86035 -5.24219 -9.6875
c-1.84766 -2.82617 -4.84277 -6.75781 -6.65625 -8.73535c-1.81348 -1.97852 -5.45605 -5.22266 -8.09375 -7.21094c-2.63965 -1.9873 -7.2627 -4.81934 -10.2744 -6.29004c-3.0127 -1.47168 -8.20801 -3.37793 -11.5449 -4.23535
c-3.73828 -0.960938 -8.70703 -1.69336 -12.9424 -1.90527c-4.91406 -0.248047 -8.53516 -0.0556641 -12.6963 0.670898c-3.20215 0.560547 -7.56152 1.60254 -9.6875 2.31738s-5.80957 2.27246 -8.18457 3.46387c-2.375 1.18945 -5.89062 3.20117 -7.8125 4.46973
s-5.63867 4.41797 -8.25977 6.99902c-2.62109 2.58008 -6.36035 7.14551 -8.30957 10.1436c-1.9502 2.99902 -4.39258 7.49902 -5.42871 10c-1.03711 2.50195 -2.45703 6.79785 -3.15527 9.54785c-0.920898 3.625 -1.38379 8.11426 -1.68066 16.3232l-0.410156 11.3232
l-8.125 4.16895c-4.46875 2.29297 -11.6406 6.54004 -15.9375 9.4375s-10.625 7.63184 -14.0625 10.5186c-3.4375 2.88867 -8.52734 7.62695 -11.3096 10.5312c-2.7832 2.90332 -7.2832 8.07422 -10 11.4902c-2.71777 3.41602 -6.66504 8.88184 -8.77441 12.1465
c-2.1084 3.26465 -5.2627 8.61133 -7.00781 11.8818c-1.74609 3.26953 -4.42969 8.94336 -5.96484 12.6055c-1.53418 3.66309 -3.67676 9.4248 -4.76172 12.8037c-1.08398 3.37988 -2.63574 9.09766 -3.44629 12.707c-0.8125 3.60938 -1.97559 9.79688 -2.58496 13.75
c-0.816406 5.28906 -1.10938 10.9023 -1.10938 21.25s0.292969 15.9609 1.10938 21.25c0.609375 3.95312 1.77246 10.1406 2.58496 13.75c0.810547 3.60938 2.3623 9.32715 3.44629 12.707c1.08496 3.37891 3.22754 9.14062 4.76172 12.8037
c1.53516 3.66211 4.21582 9.33594 5.95898 12.6055c1.74121 3.27051 5.00488 8.75879 7.25195 12.1963c2.24609 3.4375 5.93555 8.64062 8.19727 11.5625s7.77637 8.97656 12.2549 13.4561c4.47949 4.47852 10.5664 10.0186 13.5283 12.3115
c2.96094 2.29199 8.44531 6.16406 12.1875 8.60449c3.74121 2.43945 10.5186 6.29004 15.0605 8.55664l8.25684 4.12109l-0.444336 2.88086c-0.245117 1.58496 -0.445312 104.693 -0.445312 229.132c0 218.371 0.0410156 226.425 1.16211 231.25
c0.639648 2.75 2.08691 7.30273 3.2168 10.1172c1.13086 2.81543 3.66504 7.59668 5.63477 10.625c1.96875 3.0293 5.72461 7.61914 8.3457 10.1992c2.62109 2.58105 6.33789 5.73047 8.25977 6.99902s5.4375 3.28027 7.8125 4.46973
c2.375 1.19141 6.07324 2.75488 8.21875 3.47559c2.14453 0.720703 6.08203 1.72461 8.75 2.22949c3.25293 0.617188 7.4209 0.837891 12.6621 0.670898zM783.125 737.224c5.66602 -0.179688 9.47949 -0.679688 13.8799 -1.81836
c3.33691 -0.863281 8.53223 -2.77441 11.5449 -4.24609c3.01172 -1.4707 7.63477 -4.30273 10.2744 -6.29004c2.6377 -1.98828 6.28027 -5.23242 8.09375 -7.21094c1.81348 -1.97754 4.80859 -5.90918 6.65625 -8.73535c1.84668 -2.82715 4.20605 -7.18652 5.24219 -9.6875
c1.03711 -2.50195 2.45703 -6.79785 3.15527 -9.54785c0.921875 -3.62891 1.38281 -8.1123 1.68066 -16.3535l0.410156 -11.3525l7.5 -3.7627c4.125 -2.06934 10.875 -5.98047 15 -8.69238c4.125 -2.71094 10.5938 -7.4707 14.375 -10.5762
s9.27832 -8.14941 12.2168 -11.208c2.93848 -3.05762 7.5791 -8.37207 10.3125 -11.8086c2.7334 -3.4375 6.69531 -8.9209 8.80469 -12.1855c2.1084 -3.26465 5.2627 -8.61133 7.00781 -11.8818c1.74609 -3.26953 4.42969 -8.94336 5.96484 -12.6055
c1.53418 -3.66309 3.67676 -9.4248 4.76172 -12.8037c1.08398 -3.37988 2.63574 -9.09766 3.44629 -12.7061c0.8125 -3.61035 1.97363 -9.79785 2.58105 -13.75c0.799805 -5.20215 1.10938 -10.9854 1.12012 -20.9375
c0.00976562 -7.93945 -0.322266 -16.1279 -0.786133 -19.375c-0.44043 -3.09375 -1.51758 -9.14062 -2.3916 -13.4375c-0.874023 -4.29785 -2.7959 -11.4697 -4.27051 -15.9375c-1.47363 -4.46875 -4.00586 -11.1396 -5.625 -14.8232
c-1.62012 -3.68359 -4.67773 -9.73145 -6.79395 -13.4395c-2.11719 -3.70801 -5.71875 -9.41309 -8.00488 -12.6768c-2.28516 -3.26562 -6.39746 -8.6084 -9.13672 -11.874s-7.33789 -8.19434 -10.2188 -10.9521c-2.88184 -2.75879 -7.91016 -7.15723 -11.1758 -9.77539
s-9.03125 -6.77637 -12.8125 -9.24023c-3.78125 -2.46484 -10.25 -6.17676 -14.375 -8.24902l-7.5 -3.76855l-0.318359 -230.101l-0.319336 -230.102l-1.36133 -5c-0.749023 -2.75 -2.20996 -7.0459 -3.24707 -9.54785
c-1.03613 -2.50098 -3.39551 -6.86035 -5.24219 -9.6875c-1.84766 -2.82617 -4.84277 -6.75781 -6.65625 -8.73535c-1.81348 -1.97852 -5.45605 -5.22266 -8.09375 -7.21094c-2.63965 -1.9873 -7.2627 -4.81934 -10.2744 -6.29004
c-3.0127 -1.47168 -8.20801 -3.37793 -11.5449 -4.23535c-3.73828 -0.960938 -8.70703 -1.69336 -12.9424 -1.90527c-4.91406 -0.248047 -8.53516 -0.0556641 -12.6963 0.670898c-3.20215 0.560547 -7.56152 1.60254 -9.6875 2.31738s-5.80957 2.27246 -8.18457 3.46387
c-2.375 1.18945 -5.89062 3.20117 -7.8125 4.46973s-5.63867 4.41797 -8.25977 6.99902c-2.62109 2.58008 -6.36035 7.14551 -8.30957 10.1436c-1.9502 2.99902 -4.39258 7.49902 -5.42871 10c-1.03711 2.50195 -2.49805 6.79785 -3.24707 9.54785l-1.36133 5
l-0.319336 230.07l-0.318359 230.071l-7.8125 4.0127c-4.29688 2.20703 -10.624 5.83105 -14.0605 8.05371s-9.04297 6.26367 -12.459 8.98145c-3.41602 2.7168 -8.58691 7.2168 -11.4902 10c-2.9043 2.78223 -7.65039 7.87207 -10.5479 11.3096
c-2.89648 3.4375 -7.61719 9.76562 -10.4883 14.0625s-6.64062 10.4883 -8.37695 13.7588c-1.73633 3.26953 -4.41113 8.94336 -5.94629 12.6055c-1.53418 3.66309 -3.67676 9.4248 -4.76172 12.8037c-1.08398 3.37988 -2.63574 9.09766 -3.44629 12.707
c-0.8125 3.60938 -1.97559 9.79688 -2.58496 13.75c-0.816406 5.28906 -1.10938 10.9023 -1.10938 21.25s0.292969 15.9609 1.10938 21.25c0.609375 3.95312 1.77246 10.1406 2.58496 13.75c0.810547 3.60938 2.3623 9.32715 3.44629 12.707
c1.08496 3.37891 3.22754 9.14062 4.76172 12.8037c1.53516 3.66211 4.21582 9.33594 5.95898 12.6055c1.74121 3.27051 5.00488 8.75879 7.25195 12.1963c2.24609 3.4375 5.93555 8.64062 8.19727 11.5625s7.77637 8.97656 12.2549 13.4561
c4.47949 4.47852 10.5342 9.99316 13.4561 12.2549s8.22461 6.02051 11.7842 8.35254c3.55957 2.33301 10.0283 6.06543 14.375 8.29688l7.90332 4.05566l0.410156 11.3232c0.296875 8.20898 0.759766 12.6982 1.68066 16.3232
c0.698242 2.75 2.11816 7.0459 3.15527 9.54785c1.03613 2.50098 3.47852 7.00098 5.42871 10c1.94922 2.99805 5.68848 7.56348 8.30957 10.1436c2.62109 2.58105 6.33789 5.73047 8.25977 6.99902s5.4375 3.28027 7.8125 4.46973
c2.375 1.19141 6.07324 2.75488 8.21875 3.47559c2.14453 0.720703 6.08203 1.72461 8.75 2.22949c3.25293 0.617188 7.4209 0.837891 12.6621 0.670898v0.000976562zM780.751 549.947c-1.95996 -0.0292969 -5.0127 -0.404297 -6.7832 -0.834961
c-1.77148 -0.428711 -4.86523 -1.58008 -6.875 -2.55762c-2.17188 -1.05566 -5.32617 -3.44238 -7.77344 -5.88379c-2.74707 -2.74121 -4.75293 -5.45996 -6.02832 -8.1709c-1.05078 -2.23438 -2.2207 -5.55273 -2.60059 -7.37402
c-0.379883 -1.82227 -0.69043 -4.69141 -0.69043 -6.37598s0.310547 -4.55371 0.69043 -6.37598c0.379883 -1.82129 1.5498 -5.13965 2.60059 -7.37402c1.27148 -2.70312 3.28809 -5.44043 6.02832 -8.18066s5.47754 -4.75684 8.18066 -6.02832
c2.23438 -1.05078 5.55273 -2.2207 7.37402 -2.60059c1.82227 -0.379883 4.69141 -0.69043 6.37598 -0.69043s4.55371 0.310547 6.37598 0.69043c1.82129 0.379883 5.13965 1.5498 7.37402 2.60059c2.70312 1.27148 5.44043 3.28809 8.18066 6.02832
s4.75684 5.47754 6.02832 8.18066c1.05078 2.23438 2.2207 5.55273 2.60059 7.37402c0.379883 1.82227 0.69043 4.69141 0.69043 6.37598s-0.310547 4.55371 -0.69043 6.37598c-0.379883 1.82129 -1.5498 5.13965 -2.60059 7.37402
c-1.27148 2.70312 -3.28809 5.44043 -6.02832 8.18066s-5.47754 4.75684 -8.18066 6.02832c-2.23438 1.05078 -5.55273 2.2207 -7.37402 2.60059c-1.82227 0.379883 -4.91602 0.666992 -6.875 0.637695zM218.251 424.947
c-1.95996 -0.0292969 -5.0127 -0.404297 -6.7832 -0.834961c-1.77148 -0.428711 -4.86523 -1.58008 -6.875 -2.55762c-2.17188 -1.05566 -5.32617 -3.44238 -7.77344 -5.88379c-2.74707 -2.74121 -4.75293 -5.45996 -6.02832 -8.1709
c-1.05078 -2.23438 -2.2207 -5.55273 -2.60059 -7.37402c-0.379883 -1.82227 -0.69043 -4.69141 -0.69043 -6.37598s0.310547 -4.55371 0.69043 -6.37598c0.379883 -1.82129 1.5498 -5.13965 2.60059 -7.37402c1.27148 -2.70312 3.28809 -5.44043 6.02832 -8.18066
s5.47754 -4.75684 8.18066 -6.02832c2.23438 -1.05078 5.55273 -2.2207 7.37402 -2.60059c1.82227 -0.379883 4.69141 -0.69043 6.37598 -0.69043s4.55371 0.310547 6.37598 0.69043c1.82129 0.379883 5.13965 1.5498 7.37402 2.60059
c2.70312 1.27148 5.44043 3.28809 8.18066 6.02832s4.75684 5.47754 6.02832 8.18066c1.05078 2.23438 2.2207 5.55273 2.60059 7.37402c0.379883 1.82227 0.69043 4.69141 0.69043 6.37598s-0.310547 4.55371 -0.69043 6.37598
c-0.379883 1.82129 -1.5498 5.13965 -2.60059 7.37402c-1.27148 2.70312 -3.28809 5.44043 -6.02832 8.18066s-5.47754 4.75684 -8.18066 6.02832c-2.23438 1.05078 -5.55273 2.2207 -7.37402 2.60059c-1.82227 0.379883 -4.91602 0.666992 -6.875 0.637695z
M499.501 112.447c-1.95996 -0.0292969 -5.0127 -0.404297 -6.7832 -0.834961c-1.77148 -0.428711 -4.86523 -1.58008 -6.875 -2.55762c-2.17188 -1.05566 -5.32617 -3.44238 -7.77344 -5.88379c-2.74707 -2.74121 -4.75293 -5.45996 -6.02832 -8.1709
c-1.05078 -2.23438 -2.2207 -5.55273 -2.60059 -7.37402c-0.379883 -1.82227 -0.69043 -4.69141 -0.69043 -6.37598s0.310547 -4.55371 0.69043 -6.37598c0.379883 -1.82129 1.5498 -5.13965 2.60059 -7.37402c1.27148 -2.70312 3.28809 -5.44043 6.02832 -8.18066
s5.47754 -4.75684 8.18066 -6.02832c2.23438 -1.05078 5.55273 -2.2207 7.37402 -2.60059c1.82227 -0.379883 4.69141 -0.69043 6.37598 -0.69043s4.55371 0.310547 6.37598 0.69043c1.82129 0.379883 5.13965 1.5498 7.37402 2.60059
c2.70312 1.27148 5.44043 3.28809 8.18066 6.02832s4.75684 5.47754 6.02832 8.18066c1.05078 2.23438 2.2207 5.55273 2.60059 7.37402c0.379883 1.82227 0.69043 4.69141 0.69043 6.37598s-0.310547 4.55371 -0.69043 6.37598
c-0.379883 1.82129 -1.5498 5.13965 -2.60059 7.37402c-1.27148 2.70312 -3.28809 5.44043 -6.02832 8.18066s-5.47754 4.75684 -8.18066 6.02832c-2.23438 1.05078 -5.55273 2.2207 -7.37402 2.60059c-1.82227 0.379883 -4.91602 0.666992 -6.875 0.637695z" />
  </g>

</svg>
