<?xml version="1.0" standalone="no"?>
<!DOCTYPE svg PUBLIC "-//W3C//DTD SVG 1.1//EN" "http://www.w3.org/Graphics/SVG/1.1/DTD/svg11.dtd" >
<svg xmlns="http://www.w3.org/2000/svg" xmlns:xlink="http://www.w3.org/1999/xlink" version="1.1" viewBox="-10 0 1010 1000">
  <g transform="matrix(1 0 0 -1 0 800)">
   <path fill="currentColor"
d="M596.875 737.145c6.70312 -0.129883 14.2969 -0.53418 16.875 -0.900391s7.64062 -1.24707 11.25 -1.95703c3.60938 -0.710938 9.79688 -2.26855 13.75 -3.46289c3.95312 -1.19531 10.2773 -3.4375 14.0537 -4.98438c3.77637 -1.5459 9.56543 -4.19824 12.8643 -5.89258
c3.29785 -1.69434 9.34863 -5.27832 13.4453 -7.96582c4.09766 -2.68652 10.543 -7.42578 14.3242 -10.5303c3.78125 -3.10547 9.27832 -8.14941 12.2168 -11.208c2.93848 -3.05762 7.5791 -8.37207 10.3125 -11.8086c2.7334 -3.4375 6.78906 -9.06152 9.01172 -12.498
s5.84668 -9.76367 8.05371 -14.0605l4.01172 -7.8125l73.8223 -0.317383l73.8213 -0.317383l6.06738 -1.67188c3.33691 -0.917969 8.53223 -2.875 11.5449 -4.34668c3.01172 -1.4707 7.63477 -4.30273 10.2744 -6.29004c2.6377 -1.98828 6.28027 -5.23242 8.09375 -7.21094
c1.81348 -1.97754 4.80859 -5.90918 6.65625 -8.73535c1.84668 -2.82715 4.20605 -7.18652 5.24414 -9.6875c1.03711 -2.50195 2.48926 -6.93848 3.22754 -9.86035c1.06738 -4.22266 1.3418 -7.1709 1.3418 -14.375s-0.274414 -10.1523 -1.3418 -14.375
c-0.738281 -2.92188 -2.19043 -7.3584 -3.22754 -9.86035c-1.03809 -2.50098 -3.39746 -6.86035 -5.24414 -9.6875c-1.84766 -2.82617 -4.84277 -6.75781 -6.65625 -8.73535c-1.81348 -1.97852 -5.45605 -5.22266 -8.09375 -7.21094
c-2.63965 -1.9873 -7.2627 -4.81934 -10.2744 -6.29004c-3.0127 -1.47168 -8.20801 -3.42871 -11.5449 -4.34668l-6.06738 -1.67188l-73.8213 -0.317383l-73.8223 -0.317383l-4.16992 -8.125c-2.29492 -4.46875 -6.54199 -11.6406 -9.43945 -15.9375
s-7.63184 -10.625 -10.5186 -14.0625c-2.88867 -3.4375 -7.6084 -8.50684 -10.4902 -11.2646c-2.88086 -2.75879 -7.91016 -7.15723 -11.1758 -9.77539s-9.03125 -6.76953 -12.8125 -9.22559s-9.55078 -5.84082 -12.8213 -7.52051s-9.03613 -4.32031 -12.8125 -5.86621
c-3.77637 -1.54688 -10.1006 -3.78906 -14.0537 -4.98438c-3.95312 -1.19434 -10.1406 -2.75488 -13.75 -3.46777c-3.60938 -0.711914 -9.09375 -1.64941 -12.1875 -2.08301c-3.09961 -0.433594 -11.6562 -0.787109 -19.0625 -0.787109
c-7.57812 0 -15.8896 0.349609 -19.0625 0.800781c-3.09375 0.44043 -8.4375 1.36328 -11.875 2.05078s-9.20312 2.09473 -12.8125 3.12598s-9.79688 3.15332 -13.75 4.71484c-3.95312 1.5625 -10.3691 4.49707 -14.2588 6.52344s-9.79492 5.44434 -13.123 7.59668
c-3.3291 2.15137 -8.84668 6.13477 -12.2627 8.85254c-3.41602 2.7168 -8.58691 7.2168 -11.4902 10c-2.9043 2.78223 -7.65234 7.87207 -10.5527 11.3096c-2.89941 3.4375 -7.74707 9.95508 -10.7715 14.4834s-7.28418 11.7695 -9.46582 16.0938l-3.9668 7.86035h-165.097
c-145.009 0 -165.763 0.115234 -170.554 0.951172c-3 0.523438 -7.18555 1.5332 -9.30078 2.24414s-5.78906 2.26562 -8.16406 3.45703c-2.375 1.18945 -5.89062 3.20117 -7.8125 4.46973s-5.63867 4.41797 -8.25977 6.99902
c-2.62109 2.58008 -6.36035 7.14551 -8.30957 10.1436c-1.9502 2.99902 -4.39258 7.49902 -5.43066 10c-1.03711 2.50195 -2.48926 6.93848 -3.22754 9.86035c-1.06738 4.22266 -1.3418 7.1709 -1.3418 14.375s0.274414 10.1523 1.3418 14.375
c0.738281 2.92188 2.19043 7.3584 3.22754 9.86035c1.03809 2.50098 3.48047 7.00098 5.43066 10c1.94922 2.99805 5.68848 7.56348 8.30957 10.1436c2.62109 2.58105 6.33789 5.73047 8.25977 6.99902s5.4375 3.28027 7.8125 4.46973
c2.375 1.19141 6.04883 2.74609 8.16406 3.45703s6.30078 1.7207 9.30078 2.24414c4.79102 0.835938 25.5439 0.951172 170.554 0.951172h165.097l3.86816 7.66699c2.12891 4.21582 5.85938 10.7227 8.29102 14.459s6.29785 9.21582 8.58984 12.1768
c2.29297 2.96191 7.83301 9.04883 12.3115 13.5283c4.47949 4.47852 10.5342 9.99316 13.4561 12.2549s8.125 5.95117 11.5625 8.19727c3.4375 2.24707 8.92578 5.51074 12.1963 7.25195c3.26953 1.74316 8.97461 4.4375 12.6777 5.98828
c3.70215 1.55176 9.82812 3.80176 13.6133 5c3.78418 1.19824 10.3135 2.87988 14.5098 3.73633c4.19531 0.855469 10.0186 1.84863 12.9404 2.20605s6.4375 0.765625 7.8125 0.90625c1.375 0.141602 7.98438 0.151367 14.6875 0.0214844zM593.251 612.447
c-1.95996 -0.0292969 -5.0127 -0.404297 -6.7832 -0.834961c-1.77148 -0.428711 -4.86523 -1.58008 -6.875 -2.55762c-2.17188 -1.05566 -5.32617 -3.44238 -7.77344 -5.88379c-2.74707 -2.74121 -4.75293 -5.45996 -6.02832 -8.1709
c-1.05078 -2.23438 -2.2207 -5.55273 -2.60059 -7.37402c-0.379883 -1.82227 -0.69043 -4.69141 -0.69043 -6.37598s0.310547 -4.55371 0.69043 -6.37598c0.379883 -1.82129 1.5498 -5.13965 2.60059 -7.37402c1.27148 -2.70312 3.28809 -5.44043 6.02832 -8.18066
s5.47754 -4.75684 8.18066 -6.02832c2.23438 -1.05078 5.55273 -2.2207 7.37402 -2.60059c1.82227 -0.379883 4.69141 -0.69043 6.37598 -0.69043s4.55371 0.310547 6.37598 0.69043c1.82129 0.379883 5.13965 1.5498 7.37402 2.60059
c2.70312 1.27148 5.44043 3.28809 8.18066 6.02832s4.75684 5.47754 6.02832 8.18066c1.05078 2.23438 2.2207 5.55273 2.60059 7.37402c0.379883 1.82227 0.69043 4.69141 0.69043 6.37598s-0.310547 4.55371 -0.69043 6.37598
c-0.379883 1.82129 -1.5498 5.13965 -2.60059 7.37402c-1.27148 2.70312 -3.28809 5.44043 -6.02832 8.18066s-5.47754 4.75684 -8.18066 6.02832c-2.23438 1.05078 -5.55273 2.2207 -7.37402 2.60059c-1.82227 0.379883 -4.91602 0.666992 -6.875 0.637695z
M284.375 455.895c6.70312 -0.129883 14.2969 -0.53418 16.875 -0.900391s7.64062 -1.24707 11.25 -1.95703c3.60938 -0.710938 9.79688 -2.26855 13.75 -3.46289c3.95312 -1.19531 10.2773 -3.4375 14.0537 -4.98438c3.77637 -1.5459 9.63281 -4.23242 13.0137 -5.96875
c3.38184 -1.7373 9.85352 -5.625 14.3838 -8.64062c4.53027 -3.01465 11.0488 -7.8584 14.4863 -10.7637c3.4375 -2.9043 8.50684 -7.64258 11.2646 -10.5303c2.75879 -2.88672 7.15723 -7.9209 9.77539 -11.1865s6.77246 -9.03125 9.23242 -12.8125
c2.46094 -3.78125 6.32715 -10.5908 8.59375 -15.1328l4.12109 -8.25684l2.88086 0.444336c1.58496 0.245117 104.976 0.445312 229.757 0.445312h226.875l6.06738 -1.67578c3.33691 -0.921875 8.53223 -2.88086 11.5449 -4.35254
c3.01172 -1.4707 7.63477 -4.30273 10.2744 -6.29004c2.6377 -1.98828 6.28027 -5.23242 8.09375 -7.21094c1.81348 -1.97754 4.80859 -5.90918 6.65625 -8.73535c1.84668 -2.82715 4.20605 -7.18652 5.24414 -9.6875c1.03711 -2.50195 2.48926 -6.93848 3.22754 -9.86035
c1.06738 -4.22266 1.3418 -7.1709 1.3418 -14.375s-0.274414 -10.1514 -1.3418 -14.375c-0.738281 -2.92188 -2.19043 -7.3584 -3.22754 -9.86035c-1.03809 -2.50098 -3.39746 -6.86035 -5.24414 -9.6875c-1.84766 -2.82617 -4.84277 -6.75781 -6.65625 -8.73535
c-1.81348 -1.97852 -5.45605 -5.22266 -8.09375 -7.21094c-2.63965 -1.9873 -7.2627 -4.81934 -10.2744 -6.29004c-3.0127 -1.47168 -8.20801 -3.43066 -11.5449 -4.35254l-6.06738 -1.67578h-226.875c-124.781 0 -228.172 0.200195 -229.757 0.445312l-2.88086 0.444336
l-4.16309 -8.35645c-2.29004 -4.5957 -6.66992 -12.1084 -9.7334 -16.6953c-3.0625 -4.58496 -7.94141 -11.1504 -10.8408 -14.5879c-2.90039 -3.4375 -7.62988 -8.50684 -10.5117 -11.2637c-2.88086 -2.75879 -7.91016 -7.15723 -11.1758 -9.77539
s-9.03125 -6.76953 -12.8125 -9.22559c-3.78125 -2.45703 -9.55078 -5.84082 -12.8213 -7.52148c-3.27051 -1.67969 -9.03613 -4.31934 -12.8125 -5.86523c-3.77637 -1.54785 -10.1006 -3.78906 -14.0537 -4.98535c-3.95312 -1.19434 -10.1406 -2.75488 -13.75 -3.46777
c-3.60938 -0.711914 -9.09375 -1.64844 -12.1875 -2.08301c-3.09961 -0.433594 -11.6562 -0.787109 -19.0625 -0.787109c-7.57812 0 -15.8896 0.349609 -19.0625 0.800781c-3.09375 0.44043 -8.4375 1.36328 -11.875 2.05078s-9.20312 2.09473 -12.8125 3.12598
s-9.79688 3.15332 -13.75 4.71484c-3.95312 1.5625 -10.3691 4.49707 -14.2588 6.52344c-3.88965 2.02734 -9.79492 5.44531 -13.123 7.59668c-3.3291 2.15234 -8.84668 6.13574 -12.2627 8.85254c-3.41602 2.71777 -8.58691 7.21777 -11.4902 10
c-2.9043 2.7832 -7.65234 7.87207 -10.5527 11.3105c-2.89941 3.4375 -7.74707 9.95508 -10.7715 14.4834s-7.28418 11.7686 -9.46582 16.0938l-3.9668 7.86035h-8.84668c-5.11621 0 -11.1494 0.401367 -14.3027 0.951172c-3 0.523438 -7.18555 1.5332 -9.30078 2.24414
s-5.78906 2.26562 -8.16406 3.45703c-2.375 1.18945 -5.89062 3.20117 -7.8125 4.46973s-5.63867 4.41797 -8.25977 6.99902c-2.62109 2.58008 -6.36035 7.14551 -8.30957 10.1436c-1.9502 2.99902 -4.39258 7.49902 -5.43066 10
c-1.03711 2.50195 -2.48926 6.93848 -3.22754 9.86035c-1.06738 4.22266 -1.3418 7.1709 -1.3418 14.375s0.274414 10.1523 1.3418 14.375c0.738281 2.92188 2.19043 7.3584 3.22754 9.86035c1.03809 2.50098 3.48047 7.00098 5.43066 10
c1.94922 2.99805 5.68848 7.56348 8.30957 10.1436c2.62109 2.58105 6.33789 5.73047 8.25977 6.99902s5.4375 3.28027 7.8125 4.46973c2.375 1.19141 6.04883 2.74609 8.16406 3.45703s6.30078 1.7207 9.30078 2.24414c3.15332 0.549805 9.18652 0.951172 14.3027 0.951172
h8.84668l3.86816 7.66699c2.12891 4.21582 5.85938 10.7227 8.29102 14.459s6.29785 9.21582 8.58984 12.1768c2.29297 2.96191 7.83301 9.04883 12.3115 13.5283c4.47949 4.47852 10.5342 9.99316 13.4561 12.2549s8.125 5.95117 11.5625 8.19727
c3.4375 2.24707 8.92578 5.51074 12.1963 7.25195c3.26953 1.74316 8.97461 4.4375 12.6777 5.98828c3.70215 1.55176 9.82812 3.80176 13.6133 5c3.78418 1.19824 10.3135 2.87988 14.5098 3.73633c4.19531 0.855469 10.0186 1.84863 12.9404 2.20605
s6.4375 0.765625 7.8125 0.90625c1.375 0.141602 7.98438 0.151367 14.6875 0.0214844zM280.751 331.197c-1.95996 -0.0292969 -5.0127 -0.404297 -6.7832 -0.834961c-1.77148 -0.428711 -4.86523 -1.58008 -6.875 -2.55762
c-2.17188 -1.05566 -5.32617 -3.44238 -7.77344 -5.88379c-2.74707 -2.74121 -4.75293 -5.45996 -6.02832 -8.1709c-1.05078 -2.23438 -2.2207 -5.55273 -2.60059 -7.37402c-0.379883 -1.82227 -0.69043 -4.69141 -0.69043 -6.37598s0.310547 -4.55371 0.69043 -6.37598
c0.379883 -1.82129 1.5498 -5.13965 2.60059 -7.37402c1.27148 -2.70312 3.28809 -5.44043 6.02832 -8.18066s5.47754 -4.75684 8.18066 -6.02832c2.23438 -1.05078 5.55273 -2.2207 7.37402 -2.60059c1.82227 -0.379883 4.69141 -0.69043 6.37598 -0.69043
s4.55371 0.310547 6.37598 0.69043c1.82129 0.379883 5.13965 1.5498 7.37402 2.60059c2.70312 1.27148 5.44043 3.28809 8.18066 6.02832s4.75684 5.47754 6.02832 8.18066c1.05078 2.23438 2.2207 5.55273 2.60059 7.37402
c0.379883 1.82227 0.69043 4.69141 0.69043 6.37598s-0.310547 4.55371 -0.69043 6.37598c-0.379883 1.82129 -1.5498 5.13965 -2.60059 7.37402c-1.27148 2.70312 -3.28809 5.44043 -6.02832 8.18066s-5.47754 4.75684 -8.18066 6.02832
c-2.23438 1.05078 -5.55273 2.2207 -7.37402 2.60059c-1.82227 0.379883 -4.91602 0.666992 -6.875 0.637695zM721.875 174.645c6.70312 -0.129883 14.2969 -0.53418 16.875 -0.900391s7.64062 -1.24707 11.25 -1.95703c3.60938 -0.710938 9.79688 -2.26855 13.75 -3.46289
c3.95312 -1.19531 10.2773 -3.4375 14.0537 -4.98438c3.77637 -1.5459 9.56543 -4.19824 12.8643 -5.89258c3.29785 -1.69434 9.34863 -5.27832 13.4453 -7.96582c4.09766 -2.68652 10.543 -7.42578 14.3242 -10.5303c3.78125 -3.10547 9.27832 -8.14941 12.2168 -11.208
c2.93848 -3.05762 7.5791 -8.37207 10.3125 -11.8086c2.7334 -3.4375 6.78906 -9.06152 9.01172 -12.498s5.8457 -9.76367 8.05176 -14.0605l4.01074 -7.8125l11.3232 -0.396484c9.24609 -0.323242 12.4365 -0.688477 17.3906 -1.98828
c3.33691 -0.875977 8.53223 -2.79688 11.5449 -4.26855c3.01172 -1.4707 7.63477 -4.30273 10.2744 -6.29004c2.6377 -1.98828 6.28027 -5.23242 8.09375 -7.21094c1.81348 -1.97754 4.80859 -5.90918 6.65625 -8.73535c1.84668 -2.82715 4.20605 -7.18652 5.24414 -9.6875
c1.03711 -2.50195 2.48926 -6.93848 3.22754 -9.86035c1.06738 -4.22266 1.3418 -7.1709 1.3418 -14.375s-0.274414 -10.1523 -1.3418 -14.375c-0.738281 -2.92188 -2.19043 -7.3584 -3.22754 -9.86035c-1.03809 -2.50098 -3.39746 -6.86035 -5.24414 -9.6875
c-1.84766 -2.82617 -4.84277 -6.75781 -6.65625 -8.73535c-1.81348 -1.97852 -5.45605 -5.22266 -8.09375 -7.21094c-2.63965 -1.9873 -7.2627 -4.81934 -10.2744 -6.29004c-3.0127 -1.47168 -8.20801 -3.39258 -11.5449 -4.26855
c-4.9541 -1.2998 -8.14453 -1.66504 -17.3906 -1.98828l-11.3232 -0.396484l-4.16895 -8.125c-2.29297 -4.46875 -6.54004 -11.6406 -9.4375 -15.9375s-7.63184 -10.625 -10.5186 -14.0625c-2.88867 -3.4375 -7.6084 -8.50684 -10.4902 -11.2646
c-2.88086 -2.75879 -7.91016 -7.15723 -11.1758 -9.77539s-9.03125 -6.76953 -12.8125 -9.22559s-9.55078 -5.84082 -12.8213 -7.52051s-9.03613 -4.32031 -12.8125 -5.86621c-3.77637 -1.54688 -10.1006 -3.78906 -14.0537 -4.98438
c-3.95312 -1.19434 -10.1406 -2.75488 -13.75 -3.46777c-3.60938 -0.711914 -9.09375 -1.64941 -12.1875 -2.08301c-3.09961 -0.433594 -11.6562 -0.787109 -19.0625 -0.787109c-7.57812 0 -15.8896 0.349609 -19.0625 0.800781
c-3.09375 0.44043 -8.4375 1.36328 -11.875 2.05078s-9.20312 2.09473 -12.8125 3.12598s-9.79688 3.15332 -13.75 4.71484c-3.95312 1.5625 -10.4219 4.51855 -14.375 6.56934c-3.95312 2.05273 -10.7031 6.09375 -15 8.98242s-10.625 7.61523 -14.0625 10.502
c-3.4375 2.88867 -8.50684 7.6084 -11.2646 10.4902c-2.75879 2.88086 -7.15723 7.91016 -9.77539 11.1758s-6.7666 9.02734 -9.21777 12.8018c-2.45312 3.77539 -6.19922 10.3154 -8.32812 14.5312l-3.86816 7.66699h-227.597
c-200.968 0 -228.236 0.111328 -233.054 0.951172c-3 0.523438 -7.18555 1.5332 -9.30078 2.24414s-5.78906 2.26562 -8.16406 3.45703c-2.375 1.18945 -5.89062 3.20117 -7.8125 4.46973s-5.63867 4.41797 -8.25977 6.99902
c-2.62109 2.58008 -6.36035 7.14551 -8.30957 10.1436c-1.9502 2.99902 -4.39258 7.49902 -5.43066 10c-1.03711 2.50195 -2.48926 6.93848 -3.22754 9.86035c-1.06738 4.22266 -1.3418 7.1709 -1.3418 14.375s0.274414 10.1523 1.3418 14.375
c0.738281 2.92188 2.19043 7.3584 3.22754 9.86035c1.03809 2.50098 3.48047 7.00098 5.43066 10c1.94922 2.99805 5.68848 7.56348 8.30957 10.1436c2.62109 2.58105 6.33789 5.73047 8.25977 6.99902s5.4375 3.28027 7.8125 4.46973
c2.375 1.19141 6.04883 2.74609 8.16406 3.45703s6.30078 1.7207 9.30078 2.24414c4.81641 0.839844 32.0859 0.951172 233.054 0.951172h227.597l3.86816 7.66699c2.12891 4.21582 5.85938 10.7227 8.29102 14.459s6.29785 9.21582 8.58984 12.1768
c2.29297 2.96191 7.83301 9.04883 12.3115 13.5283c4.47949 4.47852 10.5342 9.99316 13.4561 12.2549s8.125 5.95117 11.5625 8.19727c3.4375 2.24707 8.92578 5.51074 12.1963 7.25195c3.26953 1.74316 8.97461 4.4375 12.6777 5.98828
c3.70215 1.55176 9.82812 3.80176 13.6133 5c3.78418 1.19824 10.3135 2.87988 14.5098 3.73633c4.19531 0.855469 10.0186 1.84863 12.9404 2.20605s6.4375 0.765625 7.8125 0.90625c1.375 0.141602 7.98438 0.151367 14.6875 0.0224609v-0.000976562zM718.251 49.9473
c-1.95996 -0.0292969 -5.0127 -0.404297 -6.7832 -0.834961c-1.77148 -0.428711 -4.86523 -1.58008 -6.875 -2.55762c-2.17188 -1.05566 -5.32617 -3.44238 -7.77344 -5.88379c-2.74707 -2.74121 -4.75293 -5.45996 -6.02832 -8.1709
c-1.05078 -2.23438 -2.2207 -5.55273 -2.60059 -7.37402c-0.379883 -1.82227 -0.69043 -4.69141 -0.69043 -6.37598s0.310547 -4.55371 0.69043 -6.37598c0.379883 -1.82129 1.5498 -5.13965 2.60059 -7.37402c1.27148 -2.70312 3.28809 -5.44043 6.02832 -8.18066
s5.47754 -4.75684 8.18066 -6.02832c2.23438 -1.05078 5.55273 -2.2207 7.37402 -2.60059c1.82227 -0.379883 4.69141 -0.69043 6.37598 -0.69043s4.55371 0.310547 6.37598 0.69043c1.82129 0.379883 5.13965 1.5498 7.37402 2.60059
c2.70312 1.27148 5.44043 3.28809 8.18066 6.02832s4.75684 5.47754 6.02832 8.18066c1.05078 2.23438 2.2207 5.55273 2.60059 7.37402c0.379883 1.82227 0.69043 4.69141 0.69043 6.37598s-0.310547 4.55371 -0.69043 6.37598
c-0.379883 1.82129 -1.5498 5.13965 -2.60059 7.37402c-1.27148 2.70312 -3.28809 5.44043 -6.02832 8.18066s-5.47754 4.75684 -8.18066 6.02832c-2.23438 1.05078 -5.55273 2.2207 -7.37402 2.60059c-1.82227 0.379883 -4.91602 0.666992 -6.875 0.637695z" />
  </g>

</svg>
