<?xml version="1.0" standalone="no"?>
<!DOCTYPE svg PUBLIC "-//W3C//DTD SVG 1.1//EN" "http://www.w3.org/Graphics/SVG/1.1/DTD/svg11.dtd" >
<svg xmlns="http://www.w3.org/2000/svg" xmlns:xlink="http://www.w3.org/1999/xlink" version="1.1" viewBox="-10 0 1010 1000">
  <g transform="matrix(1 0 0 -1 0 800)">
   <path fill="currentColor"
d="M832.858 737.451c2.77539 0.0273438 7.69727 -0.405273 10.9375 -0.960938s7.86035 -1.71484 10.2666 -2.57812c2.40625 -0.861328 5.78125 -2.27441 7.5 -3.13867s4.8125 -2.70801 6.875 -4.0957c2.0625 -1.38867 5.78223 -4.48438 8.2666 -6.87988
c2.4834 -2.39453 5.94922 -6.42871 7.70312 -8.96582c1.75293 -2.53516 4.27051 -6.92383 5.5957 -9.75293c1.3252 -2.82812 3.06152 -7.53223 3.85938 -10.4541c1.24414 -4.55664 1.4502 -6.78027 1.4502 -15.625s-0.206055 -11.0684 -1.4502 -15.625
c-0.797852 -2.92188 -2.53418 -7.62598 -3.85938 -10.4541c-1.3252 -2.8291 -3.86328 -7.24707 -5.6416 -9.81934c-1.77832 -2.57324 -5.40527 -6.75195 -8.05859 -9.28711c-2.6543 -2.53613 -7.19434 -6.06836 -10.0898 -7.84961
c-2.89551 -1.78223 -7.44824 -4.08203 -10.1182 -5.1123c-2.66992 -1.0293 -6.85938 -2.29395 -9.31055 -2.80957s-66.3633 -8.66504 -142.026 -18.1113c-75.6641 -9.44629 -138.625 -17.3408 -139.914 -17.5449l-2.34375 -0.37207v-24.3193v-24.3203l77.6562 -0.00488281
c46.5127 -0.00292969 79.7871 -0.25 82.9688 -0.616211c2.92188 -0.335938 6.97168 -1.04492 8.99902 -1.57422s5.82422 -1.81641 8.4375 -2.85938c2.61328 -1.04395 6.86035 -3.20508 9.43848 -4.80273s7.24121 -5.44727 10.3623 -8.55469
s8.64746 -9.62793 12.2812 -14.4902c3.63379 -4.86133 8.98047 -12.4551 11.8809 -16.875c2.90039 -4.41895 7.19043 -11.2695 9.53418 -15.2227c2.3418 -3.95312 6.86914 -12.25 10.0596 -18.4375s7.54199 -15.1875 9.6709 -20s5.40918 -12.6875 7.29004 -17.5
c1.87988 -4.8125 4.94922 -13.25 6.82129 -18.75c1.87012 -5.5 4.64355 -14.2188 6.16309 -19.375c1.51855 -5.15625 3.90625 -14.0156 5.30566 -19.6875c1.39844 -5.67188 3.64062 -15.7969 4.98145 -22.5s3.15039 -16.8281 4.01953 -22.5
s2.14355 -15.375 2.83105 -21.5625c0.688477 -6.1875 1.56348 -15.3281 1.94531 -20.3125s0.917969 -16.2344 1.19141 -25c0.272461 -8.76562 0.260742 -23.7949 -0.0263672 -33.3984s-0.958008 -22.541 -1.49121 -28.75s-1.5332 -15.9297 -2.22168 -21.6016
s-2.10449 -15.5156 -3.14746 -21.875c-1.04199 -6.35938 -2.88379 -16.2031 -4.09082 -21.875s-3.17871 -14.25 -4.37988 -19.0625s-3.27832 -12.5469 -4.61719 -17.1875c-1.33691 -4.64062 -4.09668 -13.3594 -6.13281 -19.375
c-2.03516 -6.01562 -4.83789 -13.9053 -6.22852 -17.5322s-4.25781 -10.6582 -6.37305 -15.625s-6.20605 -13.8115 -9.09082 -19.6553s-7.78516 -15.0732 -10.8906 -20.5098c-3.10449 -5.4375 -8.5625 -14.2969 -12.1279 -19.6875
c-3.56445 -5.3916 -8.87891 -12.9893 -11.8086 -16.8838c-2.93066 -3.89551 -7.81934 -10.0791 -10.8633 -13.7422c-3.04492 -3.66309 -7.22266 -8.30859 -9.28516 -10.3232s-6.06543 -5.20508 -8.89453 -7.08984c-2.83008 -1.88477 -7.57617 -4.41699 -10.5459 -5.62891
c-2.9707 -1.20996 -7.96777 -2.73145 -11.1055 -3.37891c-5.52246 -1.13965 -12.6201 -1.17676 -223.204 -1.17676c-209.618 0 -217.704 0.0419922 -223.133 1.16309c-3.09863 0.638672 -7.59863 1.93652 -10 2.88379c-2.40234 0.947266 -6.49609 2.97461 -9.09766 4.50586
s-6.74219 4.51855 -9.20117 6.63867c-2.45996 2.12012 -6.33594 6.10449 -8.61426 8.85449s-6.88574 8.65625 -10.2383 13.125s-8.34473 11.5 -11.0928 15.625c-2.74902 4.125 -7.47266 11.7188 -10.499 16.875s-8.37988 15.1406 -11.8984 22.1875
s-8.24609 17.1719 -10.5068 22.5s-5.95898 14.75 -8.21777 20.9375c-2.25977 6.1875 -5.48535 15.75 -7.16895 21.25c-1.68262 5.5 -4.06738 13.7471 -5.29785 18.3281s-3.20117 12.5967 -4.37891 17.8125s-2.84375 13.1406 -3.70117 17.6094
s-2.27051 12.7656 -3.14062 18.4375s-2.00391 13.8281 -2.52051 18.125c-0.517578 4.29688 -1.37207 12.96 -1.89844 19.251c-0.525391 6.29199 -1.23828 19.2998 -1.58301 28.9062c-0.421875 11.7393 -0.419922 23.2549 0.00585938 35.1123
c0.348633 9.70508 1.05664 22.5732 1.57227 28.5938c0.517578 6.02246 1.5127 15.5898 2.21191 21.2617s1.9834 14.6719 2.85449 20c0.870117 5.32812 2.4248 13.9062 3.45312 19.0625c1.0293 5.15625 2.98242 14.0117 4.3418 19.6787
c1.36035 5.66797 3.99512 15.5117 5.85547 21.875c1.86133 6.36426 4.83887 15.79 6.61816 20.9463c1.77832 5.15625 4.85449 13.4531 6.83496 18.4375c1.98145 4.98438 4.9502 12.1562 6.59961 15.9375c1.64844 3.78125 5.84863 12.5 9.33398 19.375
s8.96094 16.8594 12.1689 22.1875c3.20703 5.32812 7.52441 12.2188 9.5918 15.3125c2.06934 3.09375 6.15332 8.85938 9.0752 12.8125c2.92383 3.95312 7.66309 10.0479 10.5332 13.543c2.86914 3.49609 6.68945 7.68164 8.48926 9.30078
c1.80078 1.61914 4.90234 4.05078 6.89453 5.40527c1.99219 1.35254 5.92969 3.56641 8.75 4.91699c2.82031 1.35254 7.94141 3.22754 11.3789 4.16699l6.25 1.70996l79.5312 0.188477l79.5312 0.188477v16.5947v16.5957l-2.34375 -0.37207
c-1.28906 -0.204102 -60.9092 -7.68164 -132.489 -16.6172c-94.8506 -11.8398 -131.887 -16.2432 -136.562 -16.2383c-3.78809 0.00488281 -8.72461 0.484375 -12.0498 1.17188c-3.09863 0.638672 -7.59863 1.93652 -10 2.88379
c-2.40234 0.947266 -6.51074 2.9834 -9.12988 4.52539c-2.62012 1.54199 -6.59082 4.38867 -8.8252 6.32617s-5.48145 5.19043 -7.2168 7.22949c-1.73438 2.03906 -4.40723 5.83594 -5.93848 8.4375s-3.55957 6.69824 -4.50781 9.10254
c-0.948242 2.40527 -2.27832 7.0459 -2.95605 10.3125c-1.00879 4.86523 -1.1748 7.52441 -0.917969 14.6904c0.25 6.98828 0.646484 9.88281 1.9707 14.375c0.912109 3.09375 2.7666 7.92676 4.12207 10.7402c1.35645 2.8125 4.16602 7.37207 6.24512 10.1309
c2.07812 2.75781 5.38379 6.45898 7.3457 8.22363c1.96094 1.76562 5.2207 4.34375 7.24219 5.73047c2.02148 1.38574 5.96387 3.59277 8.76074 4.90332c2.79785 1.31055 7.26465 2.98047 9.92773 3.71191c3.2627 0.894531 114.57 15.0605 341.238 43.4258
c185.019 23.1543 338.667 42.1211 341.442 42.1475zM378.182 404.375h-59.3193l-2.45605 -3.90625c-1.35059 -2.14844 -4.2334 -7.13086 -6.40527 -11.0723c-2.17188 -3.94238 -5.19922 -9.84863 -6.72656 -13.125c-1.52832 -3.27734 -4.05469 -9.05273 -5.61621 -12.834
c-1.56055 -3.78125 -4.03809 -10.1641 -5.50488 -14.1836s-3.94922 -11.6133 -5.51855 -16.875s-3.97461 -14.207 -5.34375 -19.8789c-1.37012 -5.67188 -3.3457 -15.0615 -4.39062 -20.8662s-1.90039 -10.9375 -1.90039 -11.4062
c0 -0.71582 13.0576 -0.852539 81.25 -0.852539h81.25v62.5v62.5h-59.3184zM623.384 404.375h-60.8838v-62.5v-62.5h81.5625c80.2178 0 81.5625 0.0195312 81.5625 1.20898c0 0.665039 -0.831055 6.13965 -1.84766 12.167
c-1.01562 6.02734 -2.83203 15.3242 -4.03516 20.6602c-1.20312 5.33496 -3.49414 14.2734 -5.09082 19.8633s-4.40625 14.3984 -6.24316 19.5742c-1.83789 5.17578 -4.81152 12.9102 -6.60938 17.1875s-5.56152 12.2764 -8.36523 17.7764
c-2.80273 5.5 -6.01172 11.4766 -7.13086 13.2812l-2.03516 3.28125h-60.8838zM499.613 154.375h-224.73l0.426758 -3.28125c0.234375 -1.80469 1.53223 -8.90625 2.88379 -15.7812c1.35059 -6.875 3.59375 -16.8594 4.98438 -22.1875s4.44922 -15.4531 6.79492 -22.5
c2.34766 -7.04688 5.98633 -16.8271 8.08789 -21.7344s5.53027 -12.3604 7.62012 -16.5625s5.7998 -11.0859 8.24316 -15.2969l4.44336 -7.65625h179.823h179.822l3.41211 5.46875c1.87598 3.00781 4.54102 7.4375 5.91992 9.84375
c1.37988 2.40625 4.36426 8.08789 6.63281 12.625s5.65039 11.8496 7.51465 16.25s4.66797 11.543 6.22949 15.8721c1.5625 4.3291 3.8584 11.2197 5.10352 15.3125c1.24414 4.09277 3.37012 11.7939 4.72461 17.1152c1.35352 5.32129 3.29883 14.04 4.32422 19.375
c1.02441 5.33496 2 10.4736 2.16699 11.4189l0.302734 1.71875h-224.73z" />
  </g>

</svg>
