<?xml version="1.0" standalone="no"?>
<!DOCTYPE svg PUBLIC "-//W3C//DTD SVG 1.1//EN" "http://www.w3.org/Graphics/SVG/1.1/DTD/svg11.dtd" >
<svg xmlns="http://www.w3.org/2000/svg" xmlns:xlink="http://www.w3.org/1999/xlink" version="1.1" viewBox="-10 0 1010 1000">
  <g transform="matrix(1 0 0 -1 0 800)">
   <path fill="currentColor"
d="M251.875 737.224c5.66699 -0.180664 9.47852 -0.679688 13.8799 -1.81836c3.33691 -0.863281 8.53223 -2.77441 11.5449 -4.24609c3.01172 -1.4707 7.63477 -4.30273 10.2744 -6.29004c2.6377 -1.98828 6.28027 -5.23242 8.09375 -7.21094
c1.81348 -1.97754 4.80859 -5.90918 6.65625 -8.73535c1.84668 -2.82715 4.20605 -7.18652 5.24414 -9.6875c1.03711 -2.50195 2.48926 -6.93848 3.22754 -9.86035c1.06738 -4.22266 1.3418 -7.1709 1.3418 -14.375s-0.274414 -10.1523 -1.3418 -14.375
c-0.738281 -2.92188 -2.19043 -7.3584 -3.22754 -9.86035c-1.03809 -2.50098 -3.39746 -6.86035 -5.24414 -9.6875c-1.84766 -2.82617 -4.84277 -6.75781 -6.65625 -8.73535c-1.81348 -1.97852 -5.56445 -5.30469 -8.33594 -7.39258
c-4.04688 -3.0498 -18.3389 -10.4375 -72.5918 -37.5264c-60.6748 -30.2949 -68.1895 -33.8896 -73.8027 -35.3037c-3.81055 -0.958984 -8.93359 -1.70898 -13.125 -1.91895c-4.91406 -0.248047 -8.53516 -0.0556641 -12.6963 0.670898
c-3.20215 0.560547 -7.56152 1.60254 -9.6875 2.31738s-5.80957 2.27246 -8.18457 3.46387c-2.375 1.18945 -5.89062 3.20117 -7.8125 4.46973s-5.63867 4.41797 -8.25977 6.99902c-2.62109 2.58008 -6.36035 7.14551 -8.30957 10.1436
c-1.9502 2.99902 -4.39258 7.49902 -5.43066 10c-1.03711 2.50195 -2.48926 6.93848 -3.22754 9.86035c-1.06738 4.22266 -1.3418 7.1709 -1.3418 14.375s0.274414 10.1523 1.3418 14.375c0.738281 2.92188 2.19043 7.3584 3.22754 9.86035
c1.03809 2.50098 3.48047 7.00098 5.43066 10c1.94922 2.99805 5.68848 7.56738 8.30957 10.1523c2.62109 2.58398 6.59375 5.9082 8.82812 7.38477s33.7344 17.5234 70 35.6592c36.2656 18.1348 67.9209 33.6025 70.3467 34.3721
c2.42383 0.769531 6.50195 1.79688 9.0625 2.28418c3.05371 0.580078 7.33789 0.798828 12.4658 0.635742zM751.875 737.224c5.63672 -0.179688 9.55273 -0.689453 14.0625 -1.83301c5.59473 -1.41797 13.3291 -5.11914 73.8027 -35.3135
c54.2529 -27.0889 68.5449 -34.4766 72.5918 -37.5264c2.77148 -2.08789 6.52246 -5.41406 8.33594 -7.39258c1.81348 -1.97754 4.80859 -5.90918 6.65625 -8.73535c1.84668 -2.82715 4.20605 -7.18652 5.24414 -9.6875c1.03711 -2.50195 2.48926 -6.93848 3.22754 -9.86035
c1.06738 -4.22266 1.3418 -7.1709 1.3418 -14.375s-0.274414 -10.1523 -1.3418 -14.375c-0.738281 -2.92188 -2.19043 -7.3584 -3.22754 -9.86035c-1.03809 -2.50098 -3.39746 -6.86035 -5.24414 -9.6875c-1.84766 -2.82617 -4.84277 -6.75781 -6.65625 -8.73535
c-1.81348 -1.97852 -5.45605 -5.22266 -8.09375 -7.21094c-2.63965 -1.9873 -7.2627 -4.81934 -10.2744 -6.29004c-3.0127 -1.47168 -8.20801 -3.37793 -11.5449 -4.23535c-3.73828 -0.960938 -8.70703 -1.69336 -12.9424 -1.90527
c-4.88965 -0.246094 -8.53613 -0.0556641 -12.6279 0.660156c-3.16504 0.551758 -7.66504 1.62109 -10 2.375c-2.33594 0.753906 -33.9189 16.2061 -70.1846 34.3389s-67.7656 34.1768 -70 35.6533s-6.20703 4.80078 -8.82812 7.38477
c-2.62109 2.58496 -6.36035 7.1543 -8.30957 10.1523c-1.9502 2.99902 -4.39258 7.49902 -5.43066 10c-1.03711 2.50195 -2.48926 6.93848 -3.22754 9.86035c-1.06738 4.22266 -1.3418 7.1709 -1.3418 14.375s0.274414 10.1523 1.3418 14.375
c0.738281 2.92188 2.19043 7.3584 3.22754 9.86035c1.03809 2.50098 3.48047 7.00098 5.43066 10c1.94922 2.99805 5.68848 7.56348 8.30957 10.1436c2.62109 2.58105 6.33789 5.73047 8.25977 6.99902s5.4375 3.28027 7.8125 4.46973
c2.375 1.19141 6.07324 2.75488 8.21875 3.47559c2.14453 0.720703 6.08203 1.72461 8.75 2.22949c3.25293 0.617188 7.4209 0.837891 12.6621 0.670898zM498.125 612.405c7.04688 0.0488281 17.4531 -0.194336 23.125 -0.541992
c5.67188 -0.345703 14.3906 -1.06152 19.375 -1.58887s13.3818 -1.65234 18.6602 -2.49805c5.2793 -0.84668 12.4512 -2.11914 15.9375 -2.82812c3.4873 -0.709961 11.4023 -2.56055 17.5898 -4.11328s17.0156 -4.72852 24.0625 -7.05566s16.8906 -5.85156 21.875 -7.83008
c4.98438 -1.97949 13.2402 -5.51953 18.3467 -7.86719c5.10645 -2.34863 13.7412 -6.66211 19.1885 -9.58594c5.44727 -2.9248 12.8008 -7.06641 16.3408 -9.20312c3.54004 -2.1377 10.6553 -6.69531 15.8115 -10.1289s12.7012 -8.75391 16.7666 -11.8223
c4.06641 -3.06836 10.6758 -8.31152 14.6875 -11.6533c4.0127 -3.34082 10.833 -9.33301 15.1562 -13.3174c4.32324 -3.9834 11.6826 -11.2803 16.3555 -16.2139c4.67383 -4.93262 10.7832 -11.6416 13.5762 -14.9072c2.79395 -3.26562 8.12695 -9.87598 11.8535 -14.6895
s9.72656 -13.1104 13.335 -18.4375c3.60742 -5.32715 8.52148 -12.9375 10.9199 -16.9111c2.39844 -3.97461 6.63965 -11.4277 9.4248 -16.5625c2.78613 -5.13574 7.07617 -13.6963 9.5332 -19.0244c2.45801 -5.32812 6.01074 -13.4844 7.89453 -18.125
s5.35156 -14.2031 7.70508 -21.25s5.55469 -17.7344 7.1123 -23.75s3.81641 -15.8594 5.01758 -21.875c1.20215 -6.01562 2.875 -16.1406 3.71777 -22.5s1.90039 -15.6406 2.34863 -20.625c0.474609 -5.27441 0.816406 -17.8154 0.816406 -30
s-0.341797 -24.7256 -0.816406 -30c-0.448242 -4.98438 -1.50586 -14.2656 -2.34863 -20.625s-2.51562 -16.4844 -3.71777 -22.5c-1.20117 -6.01562 -3.45996 -15.8594 -5.01758 -21.875s-4.75879 -16.7031 -7.1123 -23.75s-5.82129 -16.6094 -7.70508 -21.25
s-5.41016 -12.7344 -7.83398 -17.9873c-2.4248 -5.25098 -6.72168 -13.8291 -9.54785 -19.0625c-2.82617 -5.23145 -7.37402 -13.1689 -10.1064 -17.6377c-2.7334 -4.46875 -7.64453 -12.0625 -10.9141 -16.875s-8.64648 -12.2656 -11.9502 -16.5625
c-3.30273 -4.29688 -8.77441 -11.0469 -12.1611 -15s-9.54883 -10.7939 -13.6953 -15.2012c-4.14551 -4.4082 -11.3311 -11.5371 -15.9697 -15.8428c-4.6377 -4.30469 -11.8389 -10.665 -16.0029 -14.1338s-10.9463 -8.82617 -15.0713 -11.9062
c-4.125 -3.0791 -11.5781 -8.32324 -16.5625 -11.6514c-4.98438 -3.33008 -12.8594 -8.30664 -17.5 -11.0605c-4.64062 -2.75488 -12.5156 -7.14258 -17.5 -9.75s-12.7852 -6.44043 -17.334 -8.5166c-4.55078 -2.07715 -12.2852 -5.37109 -17.1875 -7.32031
c-4.9043 -1.9502 -14.6816 -5.44434 -21.7285 -7.76465s-17.875 -5.49609 -24.0625 -7.05762s-14.7656 -3.53906 -19.0625 -4.39453c-4.29688 -0.856445 -11.6094 -2.12695 -16.25 -2.82324s-12.2344 -1.69434 -16.875 -2.21777s-14.2031 -1.27832 -21.25 -1.67773
c-7.62207 -0.433594 -18.8887 -0.570312 -27.8125 -0.338867c-8.25 0.213867 -19.6406 0.819336 -25.3125 1.3457s-15.1748 1.66016 -21.1172 2.51953c-5.94238 0.860352 -14.9424 2.41504 -20 3.45605s-14.1172 3.16504 -20.1328 4.71973
s-16.2812 4.59766 -22.8125 6.76074c-6.53125 2.16406 -16.0938 5.62988 -21.25 7.70117c-5.15625 2.07227 -13.6719 5.75 -18.9248 8.17383c-5.25098 2.42383 -13.8291 6.7207 -19.0625 9.54688c-5.23145 2.82715 -12.7471 7.11133 -16.7002 9.51953
c-3.95312 2.40918 -10.9561 6.89551 -15.5635 9.9707c-4.60547 3.0752 -11.918 8.27539 -16.25 11.5566c-4.33008 3.28027 -10.2646 7.95508 -13.1865 10.3877c-2.92188 2.43164 -7.84375 6.6748 -10.9375 9.42773c-3.09375 2.75391 -8.12598 7.39746 -11.1826 10.3203
c-3.05664 2.92188 -9.06055 9.07812 -13.3428 13.6797c-4.28125 4.60156 -10.6211 11.7734 -14.0898 15.9375s-8.82617 10.9463 -11.9053 15.0713s-8.12207 11.2686 -11.2061 15.874s-7.54199 11.5771 -9.90625 15.4922s-6.68359 11.5371 -9.59863 16.9385
s-7.16602 13.8984 -9.44531 18.8828c-2.28027 4.98438 -5.68945 12.8594 -7.57715 17.5c-1.88867 4.64062 -5.48633 14.625 -7.99512 22.1875s-5.7002 18.25 -7.0918 23.75c-1.39062 5.5 -3.37012 14.0781 -4.39648 19.0625
c-1.02734 4.98438 -2.56934 13.8438 -3.42773 19.6875c-0.857422 5.84375 -1.86523 13.7188 -2.23828 17.5s-0.954102 11.375 -1.29199 16.875c-0.336914 5.5 -0.612305 14.9219 -0.612305 20.9375c0.000976562 6.01562 0.285156 15.5781 0.631836 21.25
c0.347656 5.67188 0.916992 13.125 1.2666 16.5625c0.348633 3.4375 1.20703 10.3281 1.9082 15.3125c0.700195 4.98438 2.11426 13.4219 3.14258 18.75c1.0293 5.32812 3.14941 14.7354 4.71387 20.9033c1.5625 6.16992 4.52734 16.4355 6.58691 22.8125
c2.06055 6.37891 5.58984 16.2373 7.8418 21.9092c2.25293 5.67188 6.13379 14.7393 8.625 20.1504c2.49121 5.40918 6.76855 13.9873 9.50684 19.0625c2.73828 5.07324 6.75 12.1777 8.91602 15.7871c2.16504 3.60938 6.66113 10.6406 9.99219 15.625
c3.33008 4.98438 8.5752 12.4375 11.6543 16.5625c3.08008 4.125 8.4375 10.9072 11.9062 15.0713s9.82129 11.3359 14.1172 15.9375s10.0186 10.4912 12.7168 13.0889c2.69922 2.59766 6.9502 6.60449 9.44727 8.90527c2.49805 2.2998 7.98242 7.04688 12.1875 10.5498
c4.20605 3.50293 11.0215 8.88867 15.1465 11.9688c4.125 3.0791 11.5781 8.32422 16.5625 11.6543c4.98438 3.33105 11.9033 7.75879 15.375 9.83887c3.47168 2.08105 10.8262 6.21582 16.3428 9.18945c5.5166 2.97266 14.0664 7.25293 19 9.51172
s13.751 6.01562 19.5947 8.34766s15.5029 5.82129 21.4629 7.75391c5.96191 1.93262 15.665 4.7627 21.5625 6.28809c5.89941 1.52637 14.8027 3.6123 19.7871 4.63672s13.8438 2.56641 19.6875 3.42578s13.8594 1.88281 17.8125 2.27539
c3.95312 0.390625 10.7031 0.930664 15 1.19824c4.29688 0.268555 13.5781 0.527344 20.625 0.576172zM498.438 487.383c-5.84375 -0.0625 -12.1729 -0.205078 -14.0625 -0.316406c-1.89062 -0.112305 -7.375 -0.639648 -12.1875 -1.17285
c-4.8125 -0.53418 -12.5479 -1.66602 -17.1875 -2.51562c-4.64062 -0.850586 -10.2656 -1.98438 -12.5 -2.51953c-2.23438 -0.536133 -7.57812 -1.96777 -11.875 -3.18066c-4.29688 -1.21387 -11.4873 -3.5498 -15.9785 -5.19238s-12.2842 -4.81934 -17.3193 -7.05859
s-13.0322 -6.22461 -17.7725 -8.85645c-4.73926 -2.63184 -12.9775 -7.69629 -18.3047 -11.2539c-5.32812 -3.55859 -13.4854 -9.49805 -18.125 -13.1982c-4.64062 -3.7002 -13.5186 -11.8086 -19.7275 -18.0166c-6.20801 -6.20898 -14.3164 -15.0859 -18.0176 -19.7266
c-3.7002 -4.64062 -9.18945 -12.0938 -12.1963 -16.5625s-6.87793 -10.5156 -8.60254 -13.4375s-4.30664 -7.48145 -5.7373 -10.1338c-1.43164 -2.65137 -4.26758 -8.45605 -6.30176 -12.8975c-2.03516 -4.44238 -5.13281 -11.9248 -6.88477 -16.6279
s-4.41309 -12.8291 -5.91406 -18.0576c-1.5 -5.22852 -3.44922 -13.0146 -4.3291 -17.3018c-0.880859 -4.28613 -2.16699 -11.7314 -2.8584 -16.5439c-0.692383 -4.8125 -1.54883 -12.6875 -1.9043 -17.5c-0.356445 -4.8125 -0.648438 -12.8281 -0.648438 -17.8125
s0.28125 -12.8594 0.625977 -17.5s1.06348 -11.6719 1.59668 -15.625s1.7998 -11.4385 2.81543 -16.6338c1.01465 -5.19531 3.08887 -13.7783 4.60938 -19.0752c1.51953 -5.2959 4.04199 -13.0654 5.60449 -17.2656c1.56348 -4.2002 4.65332 -11.707 6.86523 -16.6826
c2.21289 -4.97461 6.17871 -12.9229 8.8125 -17.6631c2.63281 -4.73926 7.69141 -12.9766 11.2393 -18.3047c3.54883 -5.32812 9.39062 -13.3438 12.9854 -17.8125c3.59277 -4.46875 10.0186 -11.7588 14.2803 -16.1992c4.26172 -4.44141 10.9834 -10.9131 14.9365 -14.3828
s9.57812 -8.16602 12.5 -10.4355s8.40625 -6.23535 12.1875 -8.81348c3.78125 -2.57617 9.81152 -6.44922 13.4004 -8.60547c3.58789 -2.15625 10.6191 -5.97559 15.625 -8.48926c5.00488 -2.51367 12.8965 -6.1084 17.5371 -7.98828s11.8848 -4.56934 16.0986 -5.97656
c4.21387 -1.40625 11.5264 -3.52734 16.25 -4.71289s12.3857 -2.85156 17.0264 -3.70312c4.64062 -0.852539 12.2344 -1.99902 16.875 -2.54883c4.64062 -0.548828 14.3438 -1.16602 21.5625 -1.37207c7.8252 -0.222656 17.1621 -0.0800781 23.125 0.353516
c5.5 0.399414 13.9375 1.29492 18.75 1.99121c4.8125 0.695312 12.6602 2.09277 17.4385 3.10449c4.7793 1.01172 12.6055 2.97363 17.3936 4.36035c4.78906 1.3877 12.6904 4.02637 17.5615 5.86523c4.87109 1.83789 12.5127 5.01562 16.9814 7.06152
c4.46875 2.04492 11.7812 5.75781 16.25 8.24902c4.46875 2.49219 12.4844 7.43359 17.8125 10.9805s13.4844 9.48633 18.125 13.1982c4.64062 3.71387 13.5146 11.8271 19.7188 18.0322c6.20508 6.2041 14.3193 15.0781 18.0322 19.7188
c3.71191 4.64062 9.65234 12.7969 13.2012 18.125c3.54785 5.32812 8.60645 13.5654 11.2402 18.3047c2.63379 4.74023 6.59961 12.6885 8.8125 17.6631c2.21191 4.97559 5.28711 12.4424 6.83105 16.5928s3.92969 11.418 5.2998 16.1484
c1.37109 4.73145 3.31934 12.5107 4.33105 17.29c1.01172 4.77832 2.40137 12.626 3.08691 17.4385c0.686523 4.8125 1.5459 12.7031 1.91016 17.5352s0.661133 12.8477 0.65918 17.8125c-0.000976562 4.96484 -0.292969 12.9648 -0.649414 17.7773
c-0.355469 4.8125 -1.21289 12.6875 -1.90625 17.5c-0.694336 4.8125 -2.08887 12.6602 -3.10059 17.4385c-1.01172 4.7793 -2.95996 12.5586 -4.33105 17.29c-1.37012 4.73047 -3.75586 11.998 -5.2998 16.1484s-4.61914 11.6172 -6.83105 16.5928
c-2.21289 4.97461 -6.17871 12.9229 -8.8125 17.6631c-2.63281 4.73926 -7.69141 12.9766 -11.2402 18.3047s-9.48926 13.4844 -13.2012 18.125c-3.71387 4.64062 -11.8271 13.5146 -18.0322 19.7188c-6.2041 6.20508 -15.0771 14.3125 -19.7188 18.0176
c-4.64062 3.70508 -12.0938 9.19727 -16.5625 12.2041s-10.5156 6.88086 -13.4375 8.60938c-2.92188 1.72754 -7.42188 4.28418 -10 5.68262s-8.38184 4.23145 -12.8975 6.2959s-12.0439 5.18066 -16.7285 6.92578c-4.68555 1.74609 -12.8037 4.41113 -18.04 5.92383
c-5.2373 1.51172 -13.8809 3.6123 -19.209 4.66699s-12.9219 2.3457 -16.875 2.87012c-3.95312 0.523438 -10.9844 1.23535 -15.625 1.58008s-13.2188 0.575195 -19.0615 0.512695zM501.875 455.974c5.66602 -0.179688 9.47949 -0.679688 13.8799 -1.81836
c3.33691 -0.863281 8.53223 -2.77441 11.5449 -4.24609c3.01172 -1.4707 7.63477 -4.30273 10.2744 -6.29004c2.6377 -1.98828 6.28027 -5.23242 8.09375 -7.21094c1.81348 -1.97754 4.80859 -5.90918 6.65625 -8.73535c1.84668 -2.82715 4.20605 -7.18652 5.24219 -9.6875
c1.03711 -2.50195 2.48926 -6.79785 3.22754 -9.54785c1.31348 -4.8916 1.34766 -6.11621 1.54785 -56.668l0.206055 -51.666l20.4443 -0.251953c19.6631 -0.242188 20.6768 -0.314453 26.5127 -1.88379c3.33691 -0.897461 8.53223 -2.83691 11.5449 -4.30859
c3.01172 -1.4707 7.63477 -4.30273 10.2744 -6.29004c2.6377 -1.98828 6.28027 -5.23242 8.09375 -7.21094c1.81348 -1.97754 4.80859 -5.90918 6.65625 -8.73535c1.84668 -2.82715 4.20605 -7.18652 5.24414 -9.6875c1.03711 -2.50195 2.48926 -6.93848 3.22754 -9.86035
c1.06738 -4.22266 1.3418 -7.1709 1.3418 -14.375s-0.274414 -10.1523 -1.3418 -14.375c-0.738281 -2.92188 -2.19043 -7.3584 -3.22754 -9.86035c-1.03809 -2.50098 -3.39746 -6.86035 -5.24414 -9.6875c-1.84766 -2.82617 -4.84277 -6.75781 -6.65625 -8.73535
c-1.81348 -1.97852 -5.45605 -5.22266 -8.09375 -7.21094c-2.63965 -1.9873 -7.2627 -4.81934 -10.2744 -6.29004c-3.0127 -1.47168 -8.20801 -3.42578 -11.5449 -4.3418l-6.06738 -1.66602l-53.9658 -0.189453c-46.4795 -0.163086 -54.7432 -0.0556641 -59.5713 0.777344
c-3.08301 0.532227 -7.3457 1.55273 -9.47168 2.26758s-5.80957 2.27246 -8.18457 3.46387c-2.375 1.18945 -5.89062 3.20117 -7.8125 4.46973s-5.63867 4.41797 -8.25977 6.99902c-2.62109 2.58008 -6.37695 7.16992 -8.3457 10.1992
c-1.96973 3.02832 -4.50391 7.80957 -5.63477 10.625c-1.12988 2.81445 -2.57715 7.36719 -3.2168 10.1172c-1.10352 4.74707 -1.16211 9.37793 -1.16211 91.5625s0.0585938 86.8154 1.16211 91.5625c0.639648 2.75 2.08691 7.30273 3.2168 10.1172
c1.13086 2.81543 3.66504 7.59668 5.63477 10.625c1.96875 3.0293 5.72461 7.61914 8.3457 10.1992c2.62109 2.58105 6.33789 5.73047 8.25977 6.99902s5.4375 3.28027 7.8125 4.46973c2.375 1.19141 6.07324 2.75488 8.21875 3.47559
c2.14453 0.720703 6.08203 1.72461 8.75 2.22949c3.25293 0.617188 7.4209 0.837891 12.6621 0.670898z" />
  </g>

</svg>
