<?xml version="1.0" standalone="no"?>
<!DOCTYPE svg PUBLIC "-//W3C//DTD SVG 1.1//EN" "http://www.w3.org/Graphics/SVG/1.1/DTD/svg11.dtd" >
<svg xmlns="http://www.w3.org/2000/svg" xmlns:xlink="http://www.w3.org/1999/xlink" version="1.1" viewBox="-10 0 1010 1000">
  <g transform="matrix(1 0 0 -1 0 800)">
   <path fill="currentColor"
d="M502.188 738.426c7.35352 -0.120117 15.2012 -0.623047 19.0625 -1.21973c3.60938 -0.557617 10.2725 -1.98145 14.8086 -3.16309c4.53418 -1.18066 11.2842 -3.28711 15 -4.67969c3.71484 -1.3916 9.92676 -4.10645 13.8037 -6.03223
c3.87793 -1.92578 10.3467 -5.66504 14.375 -8.30957c4.0293 -2.64453 9.29395 -6.41797 11.7002 -8.38672c2.40625 -1.9668 7.28906 -6.43555 10.8516 -9.92871s8.08789 -8.33008 10.0576 -10.7471c1.96875 -2.41797 4.97461 -6.36523 6.67871 -8.77148
c1.70508 -2.40625 4.53223 -6.76562 6.28418 -9.6875s70.6582 -140.312 153.125 -305.312c132.771 -265.652 150.239 -300.931 152.57 -308.125c1.44824 -4.46875 3.32129 -11.5 4.16309 -15.625s1.80566 -9.89062 2.14062 -12.8125s0.788086 -8.40625 1.00586 -12.1875
c0.21875 -3.78125 0.0957031 -10.5312 -0.272461 -15c-0.369141 -4.46875 -1.12012 -10.7969 -1.66895 -14.0625s-1.80762 -9.09863 -2.79883 -12.9629c-0.990234 -3.86426 -2.82324 -9.77051 -4.07227 -13.125c-1.25 -3.35449 -3.5957 -8.91211 -5.21289 -12.3496
s-4.71973 -9.20312 -6.89355 -12.8125c-2.1748 -3.60938 -5.92871 -9.23438 -8.3418 -12.5s-8.48828 -10.0342 -13.502 -15.04s-11.3711 -10.8057 -14.1289 -12.8877s-7.25781 -5.25879 -10 -7.05859s-9.48633 -5.46582 -14.9863 -8.14648
s-12.9648 -5.85645 -16.5889 -7.05762c-3.62402 -1.19922 -9.53027 -2.89941 -13.125 -3.77539s-9.77051 -2.10059 -13.7236 -2.71973c-6.85352 -1.07422 -21.415 -1.12695 -312.812 -1.12695h-305.625l-7.9834 1.44336c-4.3916 0.793945 -10.6318 2.13184 -13.8682 2.97266
c-3.23633 0.841797 -8.36133 2.40234 -11.3906 3.4707c-3.0293 1.06641 -8.55957 3.30469 -12.29 4.97266c-3.72949 1.66797 -9.91699 4.91016 -13.75 7.20508c-3.83203 2.29492 -9.50488 6.07324 -12.6055 8.39648c-3.10156 2.32324 -8.30469 6.61035 -11.5625 9.52637
c-3.25879 2.91602 -7.48438 7.09375 -9.39258 9.28223c-1.90625 2.18945 -5.0293 5.94922 -6.93848 8.35547s-4.87891 6.48438 -6.59766 9.0625c-1.71973 2.57812 -4.68164 7.55176 -6.58203 11.0518c-1.90039 3.50098 -4.5791 8.98535 -5.95215 12.1875
c-1.37402 3.20312 -3.50781 8.91699 -4.74219 12.6982c-1.23633 3.78125 -2.83301 9.54688 -3.55078 12.8125s-1.69434 8.75 -2.1709 12.1875s-1.05664 9.625 -1.28906 13.75c-0.249023 4.41797 -0.114258 11.2246 0.326172 16.5625
c0.413086 4.98438 1.28711 12.0498 1.94434 15.7002c0.657227 3.65137 2.16699 9.9873 3.35742 14.0811c1.18945 4.09473 3.25098 10.1064 4.58008 13.3623c1.3291 3.25488 68.8984 139.794 150.153 303.419c81.2559 163.625 149.188 299.903 150.961 302.841
c1.77344 2.93848 4.30469 6.875 5.62695 8.75c1.32129 1.875 3.53223 4.81543 4.91211 6.53418s4.76953 5.63477 7.53223 8.70215c2.76172 3.06738 8.11523 8.2207 11.8965 11.4512c3.78223 3.23047 10.25 8.11523 14.375 10.8545s11.1562 6.77637 15.625 8.96875
c4.46875 2.19434 10.9375 5.02637 14.375 6.29492s9.90625 3.24512 14.375 4.39355s11.2197 2.5166 15 3.04199c3.78125 0.525391 7.85938 1.07422 9.0625 1.2207s7.8125 0.173828 14.6875 0.0605469zM500.641 613.544
c-2.81836 0.118164 -5.74902 -0.145508 -7.31348 -0.65625c-1.43555 -0.469727 -3.54492 -1.43359 -4.6875 -2.1416c-1.14258 -0.708984 -2.9873 -2.23145 -4.10059 -3.38281c-1.4043 -1.45312 -46.959 -92.5879 -148.651 -297.385
c-91.8301 -184.937 -146.875 -296.459 -147.29 -298.416c-0.368164 -1.73535 -0.461914 -4.45703 -0.211914 -6.12109c0.24707 -1.64746 1.3457 -4.72461 2.43945 -6.83789c1.30859 -2.52832 3.10645 -4.75195 5.25977 -6.50781
c1.84863 -1.50684 4.68359 -3.08594 6.51953 -3.63086c2.9082 -0.863281 34.1025 -0.964844 297.709 -0.964844c260.884 0 294.823 0.107422 297.641 0.944336c1.74902 0.519531 4.52637 1.87207 6.1709 3.00488c1.64453 1.13379 3.91699 3.40527 5.04883 5.04785
s2.39746 4.1582 2.8125 5.58887s0.754883 4.53027 0.754883 6.88867v4.28711l-147.463 295.024c-81.1064 162.265 -148.478 296.328 -149.715 297.921c-1.4375 1.84961 -3.68848 3.66016 -6.23438 5.01758c-3.32715 1.77344 -4.75977 2.15625 -8.6875 2.31934h-0.000976562z
M501.875 487.224c5.66602 -0.179688 9.47949 -0.679688 13.8799 -1.81836c3.33691 -0.863281 8.53223 -2.77441 11.5449 -4.24609c3.01172 -1.4707 7.63477 -4.30273 10.2744 -6.29004c2.6377 -1.98828 6.28027 -5.23242 8.09375 -7.21094
c1.81348 -1.97754 4.82422 -5.93359 6.69141 -8.79102c1.86719 -2.85645 4.31836 -7.49707 5.44922 -10.3125c1.12988 -2.81445 2.57715 -7.36719 3.2168 -10.1172c1.09668 -4.71875 1.16211 -8.98633 1.16211 -75.9375s-0.0654297 -71.2188 -1.16211 -75.9375
c-0.639648 -2.75 -2.08691 -7.30273 -3.2168 -10.1172c-1.13086 -2.81543 -3.58203 -7.45605 -5.44922 -10.3125c-1.86719 -2.85742 -4.87793 -6.81348 -6.69141 -8.79102c-1.81348 -1.97852 -5.45605 -5.22266 -8.09375 -7.21094
c-2.63965 -1.9873 -7.2627 -4.81934 -10.2744 -6.29004c-3.0127 -1.47168 -8.20801 -3.37793 -11.5449 -4.23535c-3.73828 -0.960938 -8.70703 -1.69336 -12.9424 -1.90527c-4.91406 -0.248047 -8.53516 -0.0556641 -12.6963 0.670898
c-3.20215 0.560547 -7.56152 1.60254 -9.6875 2.31738s-5.80957 2.27246 -8.18457 3.46387c-2.375 1.18945 -5.89062 3.20117 -7.8125 4.46973s-5.63867 4.41797 -8.25977 6.99902c-2.62109 2.58008 -6.37695 7.16992 -8.3457 10.1992
c-1.96973 3.02832 -4.50391 7.80957 -5.63477 10.625c-1.12988 2.81445 -2.57715 7.36719 -3.2168 10.1172c-1.09668 4.71875 -1.16211 8.98633 -1.16211 75.9375s0.0654297 71.2188 1.16211 75.9375c0.639648 2.75 2.08691 7.30273 3.2168 10.1172
c1.13086 2.81543 3.66504 7.59668 5.63477 10.625c1.96875 3.0293 5.72461 7.61914 8.3457 10.1992c2.62109 2.58105 6.33789 5.73047 8.25977 6.99902s5.4375 3.28027 7.8125 4.46973c2.375 1.19141 6.07324 2.75488 8.21875 3.47559
c2.14453 0.720703 6.08203 1.72461 8.75 2.22949c3.25293 0.617188 7.4209 0.837891 12.6621 0.670898zM502.477 175.231c3.25195 -0.152344 8.0332 -0.712891 10.625 -1.24707c2.59082 -0.53418 6.82031 -1.78418 9.39844 -2.7793
c2.57812 -0.994141 6.79688 -3.05469 9.375 -4.5791s6.375 -4.20801 8.4375 -5.96289c2.0625 -1.75586 5.3584 -5.08398 7.32227 -7.39746c1.96289 -2.3125 4.74121 -6.24902 6.1709 -8.74805c1.43066 -2.49902 3.28125 -6.22754 4.1123 -8.28613
c0.832031 -2.05762 2.10742 -5.91992 2.83496 -8.58105c1.07129 -3.91602 1.33008 -6.68555 1.36133 -14.5264c0.03125 -7.95605 -0.204102 -10.6377 -1.31152 -15c-0.742188 -2.92188 -2.19727 -7.3584 -3.23438 -9.86035
c-1.03809 -2.50098 -3.39746 -6.86035 -5.24414 -9.6875c-1.84766 -2.82617 -4.84277 -6.75781 -6.65625 -8.73535c-1.81348 -1.97852 -5.45605 -5.22266 -8.09375 -7.21094c-2.63867 -1.9873 -7.26172 -4.81934 -10.2734 -6.29004
c-3.0127 -1.47168 -8.20801 -3.37793 -11.5449 -4.23535c-3.73828 -0.960938 -8.70703 -1.69336 -12.9424 -1.90527c-4.91406 -0.248047 -8.53613 -0.0556641 -12.6963 0.670898c-3.20215 0.560547 -7.56152 1.60254 -9.6875 2.31738
c-2.12695 0.714844 -5.80957 2.27246 -8.18457 3.46387c-2.375 1.18945 -5.89062 3.20117 -7.8125 4.46973c-1.92285 1.26855 -5.63965 4.41797 -8.26074 6.99902c-2.62012 2.58008 -6.35938 7.14551 -8.30957 10.1436c-1.94922 2.99902 -4.39258 7.49902 -5.42871 10
c-1.03711 2.50195 -2.44043 6.79785 -3.11816 9.54785c-0.678711 2.75098 -1.4043 7.97559 -1.6123 11.6104c-0.230469 4.03516 -0.0791016 8.65527 0.389648 11.8604c0.422852 2.8877 1.47949 7.50684 2.34863 10.2656c0.869141 2.75781 2.42383 6.70215 3.45508 8.76465
s3.11426 5.62598 4.62988 7.91895c1.51465 2.29297 4.75 6.16504 7.18848 8.60449c2.43848 2.43848 6.86914 6.0625 9.84277 8.05176c2.97461 1.98926 7.96387 4.64062 11.0869 5.89062c3.125 1.25 7.89941 2.70508 10.6113 3.2334s5.91602 1.08105 7.11914 1.22656
c1.20312 0.147461 4.84863 0.143555 8.10156 -0.00683594z" />
  </g>

</svg>
