<?xml version="1.0" standalone="no"?>
<!DOCTYPE svg PUBLIC "-//W3C//DTD SVG 1.1//EN" "http://www.w3.org/Graphics/SVG/1.1/DTD/svg11.dtd" >
<svg xmlns="http://www.w3.org/2000/svg" xmlns:xlink="http://www.w3.org/1999/xlink" version="1.1" viewBox="-10 0 1010 1000">
  <g transform="matrix(1 0 0 -1 0 800)">
   <path fill="currentColor"
d="M498.882 737.418c101.505 0.0576172 146.1 -0.12207 150.625 -0.608398c3.53711 -0.379883 9.55957 -1.47754 13.3848 -2.4375c3.82422 -0.960938 9.58984 -2.79395 12.8125 -4.07422c3.22168 -1.2793 7.68652 -3.32715 9.9209 -4.55078s5.75 -3.34766 7.8125 -4.71973
c2.0625 -1.37402 5.85938 -4.17773 8.4375 -6.23242s50.6982 -49.7471 106.935 -105.983c56.2354 -56.2373 103.938 -104.357 106.006 -106.937c2.06738 -2.57812 5.06445 -6.70605 6.66016 -9.1709c1.59473 -2.4668 4.17969 -7.05762 5.74512 -10.2012
c1.56445 -3.14355 3.79492 -8.57812 4.95703 -12.0781c1.16309 -3.49902 2.54492 -8.4834 3.07129 -11.0752c0.527344 -2.5918 1.24805 -7.23242 1.59961 -10.3125c0.420898 -3.6709 0.642578 -55.0098 0.642578 -149.037s-0.22168 -145.366 -0.642578 -149.037
c-0.351562 -3.08008 -1.07227 -7.7207 -1.59961 -10.3125c-0.526367 -2.5918 -1.90527 -7.56641 -3.06348 -11.0527c-1.1582 -3.4873 -3.42383 -8.97168 -5.03613 -12.1875c-1.61133 -3.2168 -4.19922 -7.81641 -5.75195 -10.2227s-4.51465 -6.48438 -6.58203 -9.0625
c-2.06836 -2.57812 -49.7705 -50.6992 -106.006 -106.937c-56.2354 -56.2363 -104.355 -103.939 -106.935 -106.005c-2.57812 -2.06641 -6.67285 -5.04199 -9.09863 -6.61133c-2.42676 -1.56934 -6.92676 -4.11035 -10 -5.64648
c-3.07422 -1.53711 -7.97949 -3.63184 -10.9014 -4.6543s-7.84375 -2.44238 -10.9375 -3.15527s-8.35645 -1.59277 -11.6943 -1.95605c-4.08398 -0.444336 -52.9424 -0.658203 -149.375 -0.655273c-93.9033 0.00390625 -145.235 0.226562 -148.904 0.647461
c-3.08105 0.351562 -7.7207 1.07227 -10.3125 1.59961c-2.59277 0.526367 -7.57617 1.9082 -11.0762 3.07129c-3.5 1.16211 -8.93457 3.39258 -12.0771 4.95703c-3.14355 1.56543 -7.73438 4.15039 -10.2021 5.74512c-2.46484 1.5957 -6.59277 4.59277 -9.1709 6.66113
s-50.6982 49.7705 -106.935 106.006c-56.2363 56.2344 -103.938 104.354 -106.007 106.933c-2.06641 2.57812 -5.0625 6.70605 -6.6582 9.1709c-1.59473 2.4668 -4.17969 7.05762 -5.74512 10.2012c-1.56445 3.14355 -3.79492 8.57812 -4.95703 12.0781
c-1.16309 3.49902 -2.54492 8.4834 -3.07129 11.0752c-0.527344 2.5918 -1.24805 7.23242 -1.59961 10.3125c-0.420898 3.6709 -0.642578 55.0098 -0.642578 149.037s0.22168 145.366 0.642578 149.037c0.351562 3.08008 1.07227 7.7207 1.59961 10.3125
c0.526367 2.5918 1.9082 7.57617 3.07129 11.0752c1.16211 3.5 3.39258 8.93457 4.95703 12.0781c1.56543 3.14355 4.15039 7.73438 5.74512 10.2012c1.5957 2.46484 4.5918 6.59277 6.65918 9.1709s49.7705 50.6992 106.006 106.935
c56.2354 56.2363 104.356 103.938 106.935 106.006c2.5791 2.06836 6.70605 5.06348 9.1709 6.65918c2.4668 1.59473 7.05762 4.17969 10.2021 5.74512c3.14258 1.56445 8.57715 3.79688 12.0771 4.96094c3.49902 1.16406 8.66211 2.57715 11.4717 3.13965
c2.80957 0.563477 7.02832 1.24707 9.375 1.51953s69.1533 0.532227 148.46 0.578125zM499.998 612.5h-128.438l-92.0303 -92.0322l-92.0303 -92.0322v-128.438v-128.438l92.0322 -92.0303l92.0322 -92.0303h128.438h128.438l92.0303 92.0322l92.0303 92.0322v128.438
v128.438l-92.0322 92.0303l-92.0322 92.0303h-128.438zM501.875 549.724c5.66602 -0.179688 9.47949 -0.679688 13.8799 -1.81836c3.33691 -0.863281 8.53223 -2.77441 11.5449 -4.24609c3.01172 -1.4707 7.63477 -4.30273 10.2744 -6.29004
c2.6377 -1.98828 6.28027 -5.23242 8.09375 -7.21094c1.81348 -1.97754 4.82422 -5.93359 6.69141 -8.79102c1.86719 -2.85645 4.31836 -7.49707 5.44922 -10.3125c1.12988 -2.81445 2.57715 -7.36719 3.2168 -10.1172c1.10742 -4.7666 1.16211 -9.76953 1.16211 -107.188
c0 -97.4189 -0.0546875 -102.421 -1.16211 -107.188c-0.639648 -2.75 -2.08691 -7.30273 -3.2168 -10.1172c-1.13086 -2.81543 -3.58203 -7.45605 -5.44922 -10.3125c-1.86719 -2.85742 -4.87793 -6.81348 -6.69141 -8.79102
c-1.81348 -1.97852 -5.45605 -5.22266 -8.09375 -7.21094c-2.63965 -1.9873 -7.2627 -4.81934 -10.2744 -6.29004c-3.0127 -1.47168 -8.20801 -3.37793 -11.5449 -4.23535c-3.73828 -0.960938 -8.70703 -1.69336 -12.9424 -1.90527
c-4.91406 -0.248047 -8.53516 -0.0556641 -12.6963 0.670898c-3.20215 0.560547 -7.56152 1.60254 -9.6875 2.31738s-5.80957 2.27246 -8.18457 3.46387c-2.375 1.18945 -5.89062 3.20117 -7.8125 4.46973s-5.63867 4.41797 -8.25977 6.99902
c-2.62109 2.58008 -6.37695 7.16992 -8.3457 10.1992c-1.96973 3.02832 -4.50391 7.80957 -5.63477 10.625c-1.12988 2.81445 -2.57715 7.36719 -3.2168 10.1172c-1.10742 4.7666 -1.16211 9.76953 -1.16211 107.188c0 97.418 0.0546875 102.421 1.16211 107.188
c0.639648 2.75 2.08691 7.30273 3.2168 10.1172c1.13086 2.81543 3.66504 7.59668 5.63477 10.625c1.96875 3.0293 5.72461 7.61914 8.3457 10.1992c2.62109 2.58105 6.33789 5.73047 8.25977 6.99902s5.4375 3.28027 7.8125 4.46973
c2.375 1.19141 6.07324 2.75488 8.21875 3.47559c2.14453 0.720703 6.08203 1.72461 8.75 2.22949c3.25293 0.617188 7.4209 0.837891 12.6621 0.670898zM499.174 174.943v-0.000976562c2.81055 0.03125 7.29883 -0.248047 9.97363 -0.619141
c2.6748 -0.37207 7.125 -1.39062 9.88965 -2.2627c2.76367 -0.871094 7.13477 -2.64551 9.71289 -3.94238s6.46777 -3.66992 8.64258 -5.27246c2.17578 -1.60449 5.72461 -4.72949 7.88672 -6.94531c2.16211 -2.2168 5.25293 -6 6.86914 -8.4082
c1.61523 -2.40723 3.87305 -6.41504 5.0166 -8.9043s2.66406 -6.63574 3.37891 -9.21387s1.60254 -7.42969 1.97461 -10.7812c0.483398 -4.36426 0.483398 -7.82324 0 -12.1875c-0.37207 -3.35059 -1.25977 -8.20215 -1.97461 -10.7803s-2.23535 -6.72461 -3.37891 -9.21387
s-3.40137 -6.49707 -5.0166 -8.9043c-1.61621 -2.4082 -4.70703 -6.19141 -6.86914 -8.4082c-2.16211 -2.21582 -5.71094 -5.34082 -7.88672 -6.94531c-2.1748 -1.60254 -6.06445 -3.97559 -8.64258 -5.27246s-6.94922 -3.07129 -9.71289 -3.94238
c-2.76465 -0.87207 -7.21484 -1.89062 -9.88965 -2.2627c-2.6748 -0.371094 -6.91504 -0.675781 -9.42285 -0.675781c-2.50879 0 -7.01562 0.427734 -10.0156 0.951172s-7.18555 1.5332 -9.30078 2.24414s-5.78906 2.26562 -8.16406 3.45703
c-2.375 1.18945 -5.89062 3.20117 -7.8125 4.46973s-5.63867 4.41797 -8.25977 6.99902c-2.62109 2.58008 -6.36035 7.14551 -8.30957 10.1436c-1.9502 2.99902 -4.39258 7.49902 -5.43066 10c-1.03711 2.50195 -2.48926 6.93848 -3.22754 9.86035
c-1.06738 4.22266 -1.3418 7.1709 -1.3418 14.375s0.274414 10.1523 1.3418 14.375c0.738281 2.92188 2.19043 7.3584 3.22754 9.86035c1.03809 2.50098 3.48047 7.00098 5.43066 10c1.94922 2.99805 5.68848 7.56348 8.30957 10.1436
c2.62109 2.58105 6.33789 5.73047 8.25977 6.99902s5.4375 3.28027 7.8125 4.46973c2.375 1.19141 6.07324 2.75488 8.21875 3.47559c2.14453 0.720703 6.08203 1.70508 8.75 2.1875c2.66699 0.482422 7.14941 0.902344 9.96094 0.932617z" />
  </g>

</svg>
