<?xml version="1.0" standalone="no"?>
<!DOCTYPE svg PUBLIC "-//W3C//DTD SVG 1.1//EN" "http://www.w3.org/Graphics/SVG/1.1/DTD/svg11.dtd" >
<svg xmlns="http://www.w3.org/2000/svg" xmlns:xlink="http://www.w3.org/1999/xlink" version="1.1" viewBox="-10 0 1010 1000">
  <g transform="matrix(1 0 0 -1 0 800)">
   <path fill="currentColor"
d="M498.125 737.396c7.39062 0.0439453 18.5 -0.197266 24.6875 -0.536133s15.6094 -1.04492 20.9375 -1.56836s13.625 -1.51562 18.4375 -2.20605c4.8125 -0.689453 11.8438 -1.81738 15.625 -2.50488c3.78125 -0.688477 11.5127 -2.25586 17.1807 -3.48242
c5.66895 -1.22656 15.7666 -3.75293 22.4414 -5.61328c6.67383 -1.85938 16.8027 -4.95996 22.5068 -6.88965s15.915 -5.72461 22.6914 -8.43262c6.77539 -2.70801 16.7744 -7.00586 22.2197 -9.55078s14.1035 -6.86328 19.2422 -9.59863
c5.13867 -2.73438 12.8584 -7.01074 17.1553 -9.50293s13.0156 -7.97266 19.375 -12.1787c6.35938 -4.2041 15.5 -10.5898 20.3125 -14.1875c4.8125 -3.59668 12.125 -9.30957 16.25 -12.6943c4.125 -3.38379 11.0156 -9.3125 15.3125 -13.1748
s13.1729 -12.4658 19.7246 -19.1182c6.55273 -6.65137 15.4121 -16.1982 19.6875 -21.2148c4.27637 -5.0166 10.084 -12.0713 12.9053 -15.6777c2.82227 -3.60742 8.16602 -10.8105 11.875 -16.0078c3.70996 -5.19727 9.12402 -13.1885 12.0322 -17.7598
c2.9082 -4.57031 7.77051 -12.623 10.8047 -17.8936c3.03418 -5.27148 8.20117 -14.9463 11.4814 -21.5c3.28027 -6.55273 7.58594 -15.5996 9.56934 -20.1025c1.9834 -4.50391 5.09766 -11.9854 6.92188 -16.626c1.82324 -4.64062 4.96777 -13.3594 6.9873 -19.375
s4.91895 -15.2969 6.44336 -20.625c1.52344 -5.32812 3.74316 -13.9062 4.93262 -19.0625c1.18848 -5.15625 2.87012 -13.0312 3.73535 -17.5s2.27734 -12.9062 3.13672 -18.75s1.99609 -14.9844 2.52734 -20.3125c0.530273 -5.32812 1.25 -14.8906 1.59961 -21.25
s0.634766 -16.4844 0.634766 -22.5s-0.285156 -16.1406 -0.634766 -22.5s-1.06934 -15.9219 -1.59961 -21.25c-0.53125 -5.32812 -1.66797 -14.4688 -2.52734 -20.3125s-2.26953 -14.2812 -3.13379 -18.75s-2.66016 -12.7656 -3.99023 -18.4375
c-1.3291 -5.67188 -3.4248 -13.8281 -4.6543 -18.125c-1.23047 -4.29688 -3.80859 -12.5938 -5.73047 -18.4375s-5.54297 -15.8281 -8.0459 -22.1875s-6.08984 -14.9717 -7.9707 -19.1396c-1.88086 -4.16699 -6.49316 -13.5889 -10.251 -20.9375
c-3.75684 -7.34766 -10.1387 -18.8447 -14.1826 -25.5479c-4.04297 -6.70312 -10.4668 -16.6875 -14.2744 -22.1875c-3.80859 -5.5 -10.0469 -14.0547 -13.8623 -19.0098c-3.81738 -4.95508 -10.4541 -13.1113 -14.749 -18.125
c-4.29492 -5.01465 -13.1582 -14.5605 -19.6953 -21.2158s-15.4004 -15.2588 -19.6973 -19.1182c-4.29688 -3.86035 -11.1221 -9.72852 -15.166 -13.0439c-4.04492 -3.31445 -10.6543 -8.51562 -14.6875 -11.5596c-4.03418 -3.04395 -11.2715 -8.21484 -16.084 -11.4941
c-4.8125 -3.27637 -12.125 -8.05469 -16.25 -10.6172s-11.1562 -6.72461 -15.625 -9.25c-4.46875 -2.52441 -13.6094 -7.31836 -20.3125 -10.6543c-6.70312 -3.33496 -15.2812 -7.40332 -19.0625 -9.04102c-3.78125 -1.63672 -11.375 -4.74121 -16.875 -6.89844
c-5.5 -2.15625 -14.7529 -5.49805 -20.5615 -7.42578c-5.80957 -1.92773 -15.6533 -4.90137 -21.875 -6.6084c-6.22266 -1.70605 -15.1104 -3.94043 -19.751 -4.96484s-12.2344 -2.55957 -16.875 -3.41309c-4.64062 -0.852539 -12.375 -2.12109 -17.1875 -2.81934
c-4.8125 -0.699219 -13.1094 -1.69824 -18.4375 -2.22168s-14.75 -1.22949 -20.9375 -1.56836s-16.3125 -0.621094 -22.5 -0.626953c-6.1875 -0.00683594 -16.4531 0.273438 -22.8125 0.623047s-15.9219 1.06934 -21.25 1.59961
c-5.32812 0.53125 -14.4688 1.66797 -20.3125 2.52734s-14.2812 2.26953 -18.75 3.13379s-12.3438 2.55371 -17.5 3.75586c-5.15625 1.20117 -13.3125 3.29688 -18.125 4.65723s-13.5312 4.04883 -19.375 5.97559s-15.2529 5.30762 -20.9092 7.5127
s-13.5312 5.44043 -17.5 7.19238c-3.96875 1.75 -12.5596 5.84766 -19.0908 9.10449s-16.0938 8.33105 -21.25 11.2773c-5.15625 2.94531 -12.8906 7.58203 -17.1875 10.3037s-11.8447 7.76367 -16.7715 11.2041c-4.92773 3.44043 -12.9434 9.35645 -17.8125 13.1455
c-4.87012 3.79004 -12.6504 10.1582 -17.291 14.1514s-13.8877 12.6045 -20.5488 19.1357c-6.66211 6.53125 -15.6338 15.8125 -19.9385 20.625c-4.30566 4.8125 -11.2939 13.0752 -15.5303 18.3633c-4.23633 5.28711 -10.8291 14.0059 -14.6514 19.375
c-3.82227 5.36816 -9.46191 13.6992 -12.5332 18.5117c-3.07031 4.8125 -8.07324 13.1094 -11.1162 18.4375c-3.04395 5.32812 -8.12012 14.8604 -11.2812 21.1836s-7.37012 15.1826 -9.35449 19.6875c-1.9834 4.50488 -5.09863 11.9883 -6.92285 16.6289
c-1.82324 4.64062 -4.96777 13.3594 -6.9873 19.375s-4.92578 15.3154 -6.45898 20.668c-1.5332 5.35059 -3.9043 14.6318 -5.26855 20.625c-1.36426 5.99121 -3.17871 14.6914 -4.03125 19.332s-2.1123 12.375 -2.79785 17.1875s-1.68262 13.1094 -2.21582 18.4375
c-0.532227 5.32812 -1.25293 14.8906 -1.60254 21.25s-0.634766 16.4844 -0.634766 22.5s0.285156 16.1406 0.634766 22.5s1.07031 15.9219 1.60254 21.25c0.533203 5.32812 1.53027 13.625 2.21582 18.4375s1.94531 12.5469 2.79785 17.1875
s2.66699 13.3408 4.03125 19.332c1.36426 5.99316 3.75391 15.3389 5.30859 20.7705s4.25195 14.1689 5.99219 19.417c1.74023 5.24902 4.97363 14.1621 7.18457 19.8076c2.21191 5.64551 5.45703 13.5205 7.21289 17.5s5.8584 12.5791 9.11621 19.1104
c3.25879 6.53125 8.41504 16.2344 11.459 21.5625c3.04297 5.32812 8.0459 13.625 11.1162 18.4375c3.07129 4.8125 8.71094 13.1436 12.5332 18.5117c3.82227 5.36914 10.415 14.0879 14.6514 19.375c4.23633 5.28809 11.2236 13.5508 15.5254 18.3633
c4.30273 4.8125 13.4238 14.2344 20.2676 20.9375c6.8457 6.70312 15.25 14.6123 18.6787 17.5762c3.42871 2.96484 10.1631 8.53223 14.9668 12.374s13.1738 10.1357 18.5996 13.9863s13.7305 9.46973 18.4541 12.4873c4.72266 3.01758 12.9473 7.97656 18.2754 11.0195
c5.32812 3.04395 15.0312 8.2002 21.5625 11.459c6.53125 3.25781 15.1309 7.36035 19.1104 9.11621s11.8545 4.99609 17.5 7.20117s15.0459 5.58301 20.8896 7.50586s14.1406 4.50293 18.4375 5.7334c4.29688 1.22949 12.4531 3.3252 18.125 4.6543
c5.67188 1.33008 13.9688 3.12598 18.4375 3.99023s12.9062 2.27441 18.75 3.13477c5.84375 0.861328 15.125 2.01465 20.625 2.56445c5.5 0.550781 14.0781 1.22852 19.0625 1.50684s15.1094 0.541992 22.5 0.587891zM498.438 612.378
c-6.53125 -0.0566406 -13.2812 -0.1875 -15 -0.291016c-1.71973 -0.103516 -6.64062 -0.487305 -10.9375 -0.851562c-4.29688 -0.365234 -11.75 -1.22168 -16.5625 -1.90332c-4.8125 -0.680664 -12.4062 -1.95215 -16.875 -2.8252
c-4.46875 -0.87207 -12.4824 -2.70703 -17.8086 -4.07812c-5.3252 -1.37012 -14.6064 -4.13965 -20.625 -6.15332c-6.01758 -2.01367 -15.4414 -5.53809 -20.9414 -7.83105c-5.5 -2.29199 -15.2031 -6.82324 -21.5625 -10.0674
c-6.35938 -3.24512 -15.9902 -8.63672 -21.4023 -11.9824c-5.41211 -3.34473 -13.2871 -8.52734 -17.5 -11.5156s-10.1914 -7.4668 -13.2852 -9.95312c-3.09375 -2.48535 -8.85156 -7.35156 -12.7959 -10.8154s-10.8037 -9.9541 -15.2441 -14.4229
c-4.43945 -4.46875 -11.0557 -11.5986 -14.7041 -15.8447c-3.64746 -4.24609 -9.06836 -10.9307 -12.0469 -14.8535c-2.97852 -3.92383 -7.44727 -10.1201 -9.93164 -13.7695c-2.48438 -3.65039 -6.88477 -10.6074 -9.7793 -15.46
c-2.89355 -4.85254 -7.62109 -13.4873 -10.5039 -19.1895c-2.88281 -5.70117 -7.06348 -14.7432 -9.29102 -20.0908c-2.22754 -5.34863 -5.47949 -13.8633 -7.22559 -18.9209c-1.74707 -5.05762 -4.3125 -13.3135 -5.69922 -18.3457
c-1.38672 -5.0332 -3.62012 -14.6348 -4.96387 -21.3379c-1.34277 -6.70312 -3.01562 -16.8281 -3.7168 -22.5s-1.55469 -14.5312 -1.89648 -19.6875c-0.34082 -5.15625 -0.620117 -14.0156 -0.620117 -19.6875s0.279297 -14.5312 0.620117 -19.6875
c0.341797 -5.15625 1.19922 -14.0156 1.90527 -19.6875s2.12402 -14.6719 3.15137 -20s2.99219 -14.0449 4.36719 -19.3711c1.37402 -5.3252 4.14746 -14.6064 6.16113 -20.625c2.01367 -6.01758 5.53125 -15.417 7.81445 -20.8867
c2.2832 -5.4707 6.52246 -14.6387 9.41992 -20.375c2.89746 -5.73535 7.7041 -14.4785 10.6816 -19.4287c2.97656 -4.9502 6.8252 -11.1104 8.55176 -13.6885s5.53027 -7.92188 8.4541 -11.875c2.9248 -3.95312 7.89941 -10.2812 11.0547 -14.0625
c3.15625 -3.78125 8.68164 -10.0342 12.2793 -13.8945c3.59766 -3.85938 9.89746 -10.1533 13.999 -13.9854c4.10156 -3.83105 10.5518 -9.55566 14.333 -12.7197c3.78125 -3.16504 9.82812 -7.94824 13.4375 -10.6309c3.60938 -2.68164 10.0781 -7.19238 14.375 -10.0225
c4.29688 -2.83105 11.3281 -7.18652 15.625 -9.67773s11.9902 -6.62207 17.0957 -9.17969s13.6836 -6.48633 19.0625 -8.73242c5.37891 -2.24512 14.7012 -5.72852 20.7168 -7.73926c6.01562 -2.01172 14.7344 -4.65332 19.375 -5.87012s11.9531 -2.92871 16.25 -3.80273
s11.3281 -2.13477 15.625 -2.7998c4.29688 -0.666992 11.8906 -1.64746 16.875 -2.18164c4.98438 -0.533203 15.6719 -1.14258 23.75 -1.35449c8.93066 -0.233398 19.0967 -0.0957031 25.9375 0.350586c6.1875 0.404297 15.75 1.29883 21.25 1.9873
c5.5 0.689453 15.4844 2.35254 22.1875 3.69434c6.70312 1.34277 16.3047 3.57617 21.3379 4.96289c5.03223 1.38672 13.2881 3.95215 18.3457 5.69922c5.05762 1.74609 13.5723 4.99805 18.9209 7.22559c5.34766 2.22754 14.417 6.41992 20.1533 9.31738
c5.73535 2.89746 14.4785 7.70508 19.4287 10.6826s11.5322 7.11621 14.626 9.19531s9.14062 6.44141 13.4375 9.69336c4.29688 3.25293 10.2031 7.94238 13.125 10.4219s8.40625 7.38184 12.1875 10.8945c3.78125 3.51367 10.3477 10.0898 14.5908 14.6143
c4.24414 4.52441 11.1934 12.5449 15.4414 17.8232c4.24805 5.2793 10.375 13.4355 13.6143 18.125c3.24023 4.69043 8.34668 12.6064 11.3486 17.5908s8.36035 14.9688 11.9072 22.1875s8.27051 17.7656 10.4961 23.4375c2.22656 5.67188 5.21582 13.9688 6.64258 18.4375
c1.42773 4.46875 3.68945 12.3438 5.02637 17.5s3.27148 13.7344 4.29883 19.0625s2.44531 14.3281 3.15137 20s1.56348 14.5312 1.90527 19.6875c0.34082 5.15625 0.620117 14.0156 0.620117 19.6875s-0.279297 14.5312 -0.620117 19.6875
c-0.341797 5.15625 -1.19922 14.0156 -1.90527 19.6875s-2.12402 14.6719 -3.15137 20s-2.99219 14.0449 -4.36719 19.3711c-1.37402 5.3252 -4.14746 14.6064 -6.16113 20.625c-2.01367 6.01758 -5.53613 15.4414 -7.82617 20.9414
c-2.29102 5.5 -6.90527 15.3438 -10.2539 21.875s-8.68945 16.0938 -11.8682 21.25c-3.17969 5.15625 -8.24121 12.8281 -11.2471 17.0488s-7.95801 10.791 -11.002 14.5996c-3.04492 3.80957 -8.22949 9.91797 -11.5205 13.5762s-9.3623 9.98828 -13.4902 14.0693
c-4.12695 4.08008 -10.9785 10.4082 -15.2246 14.0625c-4.24609 3.65332 -10.9307 9.08008 -14.8535 12.0586c-3.92383 2.97852 -10.1201 7.44727 -13.7695 9.93164c-3.65039 2.48438 -10.6074 6.88477 -15.46 9.7793c-4.85254 2.89355 -13.4873 7.62109 -19.1895 10.5039
c-5.70117 2.88281 -14.7432 7.06348 -20.0908 9.29102c-5.34863 2.22754 -13.8633 5.47949 -18.9209 7.22559c-5.05762 1.74707 -13.3135 4.3125 -18.3457 5.69922c-5.0332 1.38672 -14.6348 3.62012 -21.3379 4.96387c-6.70312 1.34277 -16.8281 3.01562 -22.5 3.7168
s-14.5312 1.55469 -19.6875 1.89648c-5.15625 0.34082 -14.7188 0.574219 -21.249 0.517578zM501.875 549.724c5.66602 -0.179688 9.47949 -0.679688 13.8799 -1.81836c3.33691 -0.863281 8.53223 -2.77441 11.5449 -4.24609
c3.01172 -1.4707 7.63477 -4.30273 10.2744 -6.29004c2.6377 -1.98828 6.28027 -5.23242 8.09375 -7.21094c1.81348 -1.97754 4.82422 -5.93359 6.69141 -8.79102c1.86719 -2.85645 4.31836 -7.49707 5.44922 -10.3125c1.12988 -2.81445 2.57715 -7.36719 3.2168 -10.1172
c1.10742 -4.7666 1.16211 -9.76953 1.16211 -107.188c0 -97.4189 -0.0546875 -102.421 -1.16211 -107.188c-0.639648 -2.75 -2.08691 -7.30273 -3.2168 -10.1172c-1.13086 -2.81543 -3.58203 -7.45605 -5.44922 -10.3125
c-1.86719 -2.85742 -4.87793 -6.81348 -6.69141 -8.79102c-1.81348 -1.97852 -5.45605 -5.22266 -8.09375 -7.21094c-2.63965 -1.9873 -7.2627 -4.81934 -10.2744 -6.29004c-3.0127 -1.47168 -8.20801 -3.37793 -11.5449 -4.23535
c-3.73828 -0.960938 -8.70703 -1.69336 -12.9424 -1.90527c-4.91406 -0.248047 -8.53516 -0.0556641 -12.6963 0.670898c-3.20215 0.560547 -7.56152 1.60254 -9.6875 2.31738s-5.80957 2.27246 -8.18457 3.46387c-2.375 1.18945 -5.89062 3.20117 -7.8125 4.46973
s-5.63867 4.41797 -8.25977 6.99902c-2.62109 2.58008 -6.37695 7.16992 -8.3457 10.1992c-1.96973 3.02832 -4.50391 7.80957 -5.63477 10.625c-1.12988 2.81445 -2.57715 7.36719 -3.2168 10.1172c-1.10742 4.7666 -1.16211 9.76953 -1.16211 107.188
c0 97.418 0.0546875 102.421 1.16211 107.188c0.639648 2.75 2.08691 7.30273 3.2168 10.1172c1.13086 2.81543 3.66504 7.59668 5.63477 10.625c1.96875 3.0293 5.72461 7.61914 8.3457 10.1992c2.62109 2.58105 6.33789 5.73047 8.25977 6.99902
s5.4375 3.28027 7.8125 4.46973c2.375 1.19141 6.07324 2.75488 8.21875 3.47559c2.14453 0.720703 6.08203 1.72461 8.75 2.22949c3.25293 0.617188 7.4209 0.837891 12.6621 0.670898zM499.174 174.943v-0.000976562c2.81055 0.03125 7.29883 -0.248047 9.97363 -0.619141
c2.6748 -0.37207 7.125 -1.39062 9.88965 -2.2627c2.76367 -0.871094 7.13477 -2.64551 9.71289 -3.94238s6.46777 -3.66992 8.64258 -5.27246c2.17578 -1.60449 5.72461 -4.72949 7.88672 -6.94531c2.16211 -2.2168 5.25293 -6 6.86914 -8.4082
c1.61523 -2.40723 3.87305 -6.41504 5.0166 -8.9043s2.66406 -6.63574 3.37891 -9.21387s1.60254 -7.42969 1.97461 -10.7812c0.483398 -4.36426 0.483398 -7.82324 0 -12.1875c-0.37207 -3.35059 -1.25977 -8.20215 -1.97461 -10.7803s-2.23535 -6.72461 -3.37891 -9.21387
s-3.40137 -6.49707 -5.0166 -8.9043c-1.61621 -2.4082 -4.70703 -6.19141 -6.86914 -8.4082c-2.16211 -2.21582 -5.71094 -5.34082 -7.88672 -6.94531c-2.1748 -1.60254 -6.06445 -3.97559 -8.64258 -5.27246s-6.94922 -3.07129 -9.71289 -3.94238
c-2.76465 -0.87207 -7.21484 -1.89062 -9.88965 -2.2627c-2.6748 -0.371094 -6.91504 -0.675781 -9.42285 -0.675781c-2.50879 0 -7.01562 0.427734 -10.0156 0.951172s-7.18555 1.5332 -9.30078 2.24414s-5.78906 2.26562 -8.16406 3.45703
c-2.375 1.18945 -5.89062 3.20117 -7.8125 4.46973s-5.63867 4.41797 -8.25977 6.99902c-2.62109 2.58008 -6.36035 7.14551 -8.30957 10.1436c-1.9502 2.99902 -4.39258 7.49902 -5.43066 10c-1.03711 2.50195 -2.48926 6.93848 -3.22754 9.86035
c-1.06738 4.22266 -1.3418 7.1709 -1.3418 14.375s0.274414 10.1523 1.3418 14.375c0.738281 2.92188 2.19043 7.3584 3.22754 9.86035c1.03809 2.50098 3.48047 7.00098 5.43066 10c1.94922 2.99805 5.68848 7.56348 8.30957 10.1436
c2.62109 2.58105 6.33789 5.73047 8.25977 6.99902s5.4375 3.28027 7.8125 4.46973c2.375 1.19141 6.07324 2.75488 8.21875 3.47559c2.14453 0.720703 6.08203 1.70508 8.75 2.1875c2.66699 0.482422 7.14941 0.902344 9.96094 0.932617z" />
  </g>

</svg>
