<?xml version="1.0" standalone="no"?>
<!DOCTYPE svg PUBLIC "-//W3C//DTD SVG 1.1//EN" "http://www.w3.org/Graphics/SVG/1.1/DTD/svg11.dtd" >
<svg xmlns="http://www.w3.org/2000/svg" xmlns:xlink="http://www.w3.org/1999/xlink" version="1.1" viewBox="-10 0 1010 1000">
  <g transform="matrix(1 0 0 -1 0 800)">
   <path fill="currentColor"
d="M497.564 737.379c8.45703 0.0664062 21.1133 -0.168945 28.125 -0.523438s17.2451 -1.06836 22.7412 -1.58691c5.49609 -0.517578 13.2305 -1.36035 17.1875 -1.87305c3.95605 -0.512695 11.2725 -1.60645 16.2559 -2.43066
c4.98438 -0.823242 13.8447 -2.52637 19.6875 -3.78516c5.84375 -1.25684 14.8447 -3.40527 20 -4.77344c5.15625 -1.36816 14.5781 -4.19531 20.9375 -6.28223c6.36035 -2.08691 16.4854 -5.75195 22.5 -8.14453c6.01562 -2.39355 15.7246 -6.66309 21.5742 -9.48926
c5.85059 -2.82617 14.4424 -7.2666 19.0947 -9.86816c4.65137 -2.60156 12.0547 -7.01367 16.4521 -9.80566c4.39746 -2.79102 11.3037 -7.45117 15.3457 -10.3555c4.04297 -2.90332 10.6963 -7.98047 14.7861 -11.2812c4.08887 -3.30078 11.4209 -9.66309 16.293 -14.1387
s12.5098 -12.123 16.9736 -16.9951c4.46289 -4.87207 9.86914 -10.9678 12.0146 -13.5459c2.14355 -2.57812 6.3418 -7.92188 9.32812 -11.875c2.98535 -3.95312 7.96289 -10.9844 11.0615 -15.625c3.09766 -4.64062 7.53711 -11.6621 9.86719 -15.6035
c2.32812 -3.94043 6.43164 -11.3936 9.11816 -16.5625c2.68555 -5.16797 6.75 -13.6152 9.03125 -18.7715s5.93848 -14.1562 8.12793 -20s5.42578 -15.4062 7.19141 -21.25s4.30176 -15.125 5.63672 -20.625s3.12891 -13.5459 3.98828 -17.8809
c0.857422 -4.33496 2.39551 -13.6162 3.41699 -20.625s2.29199 -16.9629 2.82227 -22.1191c0.53125 -5.15625 1.24707 -13.5938 1.59082 -18.75s0.808594 -16.2656 1.0332 -24.6875c0.238281 -8.90332 0.105469 -22.376 -0.316406 -32.1875
c-0.399414 -9.28125 -1.14648 -21.9375 -1.65918 -28.125c-0.513672 -6.1875 -1.49902 -16.0312 -2.18848 -21.875c-0.69043 -5.84375 -1.95605 -15.2656 -2.81348 -20.9375c-0.856445 -5.67188 -2.2666 -14.25 -3.13281 -19.0625s-2.5625 -13.3906 -3.76855 -19.0625
s-3.59961 -15.9375 -5.31934 -22.8125s-4.53809 -17.4219 -6.2627 -23.4375c-1.72559 -6.01562 -5.05762 -16.7031 -7.40625 -23.75s-6.16113 -17.7344 -8.47168 -23.75c-2.31152 -6.01562 -6.10645 -15.4375 -8.43457 -20.9375
c-2.32715 -5.5 -6.53027 -14.9219 -9.33984 -20.9375c-2.81055 -6.01562 -6.8125 -14.1719 -8.89453 -18.125c-2.08105 -3.95312 -5.19629 -9.71875 -6.92285 -12.8125c-1.72559 -3.09375 -5.37891 -9.42188 -8.11816 -14.0625
c-2.74023 -4.64062 -8.14453 -13.2188 -12.0127 -19.0625c-3.86719 -5.84375 -9.44336 -13.9189 -12.3906 -17.9453c-2.94824 -4.02637 -7.54785 -10.0732 -10.2227 -13.4375s-8.23926 -10.0547 -12.3662 -14.8672s-12.71 -13.959 -19.0742 -20.3252
c-6.36328 -6.36621 -15.1846 -14.6602 -19.6025 -18.4307c-4.41699 -3.77148 -11.0264 -9.1875 -14.6875 -12.0352c-3.66016 -2.84863 -9.66113 -7.29395 -13.335 -9.87891c-3.6748 -2.58496 -10.4336 -7.05176 -15.0205 -9.9248
c-4.58594 -2.87305 -12.8164 -7.63477 -18.29 -10.5811c-5.47266 -2.94629 -13.4795 -6.94922 -17.792 -8.89453c-4.31348 -1.94531 -11.3457 -4.92676 -15.627 -6.625c-4.28027 -1.69824 -11.5078 -4.31934 -16.0596 -5.82422
c-4.55273 -1.50586 -11.8779 -3.70898 -16.2783 -4.89648c-4.40137 -1.18652 -11.2373 -2.87793 -15.1904 -3.75879c-3.95312 -0.879883 -11.5469 -2.2959 -16.875 -3.14551c-5.32812 -0.850586 -14.3281 -2.04492 -20 -2.65332
c-7.70898 -0.828125 -15.5977 -1.1123 -31.25 -1.12402c-12.5098 -0.00878906 -24.208 0.306641 -29.0625 0.786133c-4.46875 0.44043 -12.0625 1.36133 -16.875 2.04688c-4.8125 0.68457 -13.584 2.22363 -19.4912 3.41992s-15.6436 3.56543 -21.6348 5.26465
s-14.9395 4.54004 -19.8838 6.31348s-12.9277 4.90625 -17.7402 6.96289s-13.1094 5.94531 -18.4375 8.64062c-5.32812 2.69629 -13.625 7.25195 -18.4375 10.125c-4.8125 2.87207 -11.4219 7.01855 -14.6875 9.21387c-3.26562 2.19629 -8.46875 5.81445 -11.5625 8.04004
c-3.09375 2.22754 -8.93457 6.69824 -12.9795 9.93555c-4.0459 3.2373 -10.2334 8.43457 -13.75 11.5498c-3.51758 3.11523 -9.72656 8.92871 -13.7959 12.9189c-4.07129 3.99023 -11.3115 11.5615 -16.0908 16.8242c-4.77832 5.26367 -11.8877 13.5605 -15.7959 18.4375
c-3.90918 4.87793 -9.57324 12.2432 -12.5879 16.3682s-8.6416 12.2812 -12.5059 18.125c-3.86328 5.84375 -9.27832 14.4219 -12.0322 19.0625s-7.1709 12.375 -9.81445 17.1875s-7.15137 13.541 -10.0176 19.3965c-2.86523 5.85449 -7.02637 14.7139 -9.24707 19.6875
c-2.2207 4.97266 -6.01367 13.9629 -8.43066 19.9785s-6.22949 16.0195 -8.47168 22.2324c-2.24219 6.21191 -5.89844 17.1807 -8.12402 24.375c-2.22656 7.19336 -5.05078 16.7363 -6.27734 21.2051s-3.34961 12.7793 -4.71875 18.4678
c-1.36816 5.68848 -3.17969 13.5635 -4.02441 17.5s-2.40039 11.7979 -3.45703 17.4697c-1.05566 5.67188 -2.75684 15.9375 -3.77832 22.8125s-2.41895 17.5625 -3.10449 23.75c-0.686523 6.1875 -1.73535 17.5781 -2.33301 25.3125
c-0.782227 10.1309 -1.0918 21.4004 -1.10938 40.3125c-0.0146484 15.5928 0.297852 30.4365 0.768555 36.5625c0.435547 5.67188 1.35352 15.375 2.04004 21.5625c0.6875 6.1875 1.96289 15.8906 2.83496 21.5625c0.871094 5.67188 2.4248 14.5312 3.45312 19.6875
c1.02734 5.15625 2.82129 13.1719 3.98535 17.8125s3.3877 12.6943 4.93945 17.8965c1.55371 5.20312 4.36816 13.7129 6.25488 18.9111s4.87012 12.8945 6.62988 17.1025c1.75977 4.20898 5.82812 12.9961 9.04199 19.5273s8.15137 15.8125 10.9727 20.625
s8.17578 13.25 11.8994 18.75s9.17676 13.0938 12.1191 16.875s8.17773 10.168 11.6348 14.1934c3.45703 4.02441 10.0225 11.0869 14.5908 15.6953s11.8115 11.4404 16.0977 15.1816c4.28516 3.74316 10.7207 9.09375 14.2998 11.8926
c3.58008 2.79785 9.59375 7.24609 13.3643 9.88477c3.76953 2.63867 10.2246 6.93262 14.3438 9.54297c4.11914 2.60938 12.1445 7.29102 17.833 10.4023s14.5615 7.60059 19.7178 9.97656c5.15625 2.375 13.5938 6.00195 18.75 8.05957s14.2969 5.37988 20.3125 7.38184
s15.1562 4.78809 20.3125 6.19238c5.15625 1.40332 13.7344 3.53223 19.0625 4.73145c5.32812 1.19824 15.5938 3.15527 22.8125 4.34766c7.21875 1.19336 18.1875 2.72754 24.375 3.41113c6.1875 0.681641 15.75 1.54102 21.25 1.9082s11.8281 0.74707 14.0625 0.84375
s10.9824 0.230469 19.4404 0.295898zM504.688 612.164c-11.3447 0.133789 -24.2812 -0.00195312 -28.75 -0.301758c-4.46973 -0.299805 -12.3447 -0.998047 -17.5 -1.55273c-5.15625 -0.553711 -13.4961 -1.67969 -18.5332 -2.50098
c-5.03711 -0.822266 -12.4902 -2.23438 -16.5625 -3.13867c-4.07227 -0.90332 -10.7793 -2.58594 -14.9043 -3.73926s-10.1729 -2.98828 -13.4375 -4.07715c-3.26562 -1.08887 -9.45312 -3.37793 -13.75 -5.08691c-4.29688 -1.70996 -11.9033 -5.15625 -16.9023 -7.66016
c-5 -2.50293 -11.75 -6.16992 -15 -8.14746c-3.25098 -1.97754 -8.49902 -5.39746 -11.6631 -7.60059c-3.16406 -2.20215 -8.22656 -6.01855 -11.25 -8.47949s-7.93555 -6.69336 -10.915 -9.40527c-2.97852 -2.71191 -8.18164 -8.04004 -11.5625 -11.8408
c-3.37988 -3.80176 -7.80176 -9.05664 -9.82715 -11.6787c-2.02441 -2.62207 -5.86426 -8.05371 -8.53223 -12.0703c-2.66797 -4.01758 -6.8291 -10.9082 -9.24805 -15.3125c-2.41895 -4.40527 -6.12793 -11.9268 -8.24121 -16.7139
c-2.1123 -4.78711 -5.62305 -14.0684 -7.80078 -20.625c-2.17676 -6.55664 -4.80469 -15.4355 -5.83984 -19.7324s-2.44922 -10.9062 -3.14355 -14.6875c-0.693359 -3.78125 -1.82812 -10.9531 -2.52246 -15.9375c-0.693359 -4.98438 -1.54199 -11.7344 -1.88672 -15
s-0.953125 -11.8438 -1.35352 -19.0625c-0.441406 -7.97266 -0.572266 -19.627 -0.332031 -29.6875c0.216797 -9.10938 0.820312 -21.7109 1.33984 -28.0039c0.519531 -6.29395 1.64648 -16.9814 2.50488 -23.75c0.858398 -6.76953 2.41699 -17.2227 3.46484 -23.2275
c1.04688 -6.00684 2.73633 -14.8242 3.75391 -19.5957c1.0166 -4.77051 2.96973 -13.1318 4.33984 -18.5791c1.37012 -5.44824 3.73926 -14.209 5.26758 -19.4678c1.52637 -5.26074 4.63867 -15.0186 6.91504 -21.6855c2.27734 -6.66797 5.78125 -16.2305 7.78809 -21.25
c2.00684 -5.02051 5.11816 -12.5029 6.91504 -16.6279c1.7959 -4.125 6.03418 -13.0361 9.41797 -19.8027c3.38477 -6.76758 8.58691 -16.4707 11.5605 -21.5625c2.97363 -5.09277 8.08887 -13.3252 11.3662 -18.293c3.27832 -4.96777 8.63086 -12.5615 11.8955 -16.875
s8.05176 -10.373 10.6387 -13.4668c2.58789 -3.09375 9.78613 -10.7002 15.9971 -16.9033s14.668 -13.9678 18.793 -17.2539s10.5938 -8.09277 14.375 -10.6826s10.293 -6.66406 14.4717 -9.05469c4.17773 -2.38965 11.085 -5.91699 15.3486 -7.83789
s11.1113 -4.65723 15.2158 -6.08105c4.10547 -1.42383 11.1201 -3.52734 15.5889 -4.67676s11.6406 -2.66895 15.9375 -3.37695c4.29688 -0.708984 11.1875 -1.57422 15.3125 -1.92285c4.125 -0.349609 11.5781 -0.634766 16.5625 -0.634766
s12.4375 0.285156 16.5625 0.632812s11.7852 1.3418 17.0225 2.20801s12.9717 2.52344 17.1875 3.68262s10.7588 3.22266 14.54 4.58594c3.78125 1.3623 9.54688 3.65625 12.8125 5.09668s8.59082 4.04297 11.833 5.78418c3.24219 1.74023 8.90527 5.05664 12.583 7.37012
c3.67676 2.31348 9.46191 6.25977 12.8535 8.76953c3.39258 2.50977 8.69922 6.67871 11.793 9.26465c3.09375 2.58496 9.99609 9.07812 15.3379 14.4277c5.34082 5.34961 12.7549 13.3838 16.4736 17.8525c3.71973 4.46875 9.31543 11.6367 12.4355 15.9277
c3.11914 4.29102 7.68945 10.9004 10.1543 14.6875c2.46582 3.78711 6.9209 11.0518 9.90137 16.1445c2.98145 5.0918 8.23926 14.8926 11.6846 21.7783c3.44629 6.88574 8.32617 17.3447 10.8447 23.2402c2.51953 5.89746 6.26953 15.2217 8.33496 20.7217
s5.20215 14.4346 6.96973 19.8535c1.76855 5.41992 4.72754 15.2832 6.57617 21.917c1.84863 6.63477 4.49512 17.1064 5.88086 23.2715c1.38477 6.16406 3.21973 14.8643 4.07715 19.333s2.27148 12.7656 3.14258 18.4375s2.14355 15.375 2.82812 21.5625
s1.59375 15.8906 2.02051 21.5625s0.774414 19.875 0.773438 31.5625s-0.353516 25.4688 -0.783203 30.625s-1.33105 13.7344 -2.00391 19.0625c-0.673828 5.32812 -1.81348 13.2031 -2.53418 17.5s-2.55762 12.8135 -4.08301 18.9258s-4.33789 15.6748 -6.25098 21.25
s-5.15234 13.9336 -7.19824 18.5742s-5.46094 11.668 -7.58789 15.6162c-2.12891 3.94824 -6.58398 11.2607 -9.90332 16.25c-3.31836 4.98926 -8.18164 11.7432 -10.8066 15.0088c-2.62598 3.26562 -7.45215 8.81641 -10.7246 12.3359s-9.08691 9.0957 -12.9219 12.3906
c-3.83496 3.2959 -8.97852 7.50293 -11.4316 9.34863c-2.45312 1.84668 -6.96191 5.02637 -10.0205 7.06738s-8.90137 5.61914 -12.9854 7.95215s-11.2559 5.9873 -15.9375 8.12207s-12.3096 5.30273 -16.9502 7.04102c-4.64062 1.73633 -12.9375 4.45117 -18.4375 6.03125
s-14.6689 3.83691 -20.374 5.01367c-5.70703 1.17773 -14.3379 2.7207 -19.1816 3.42773c-4.84277 0.708008 -13.3936 1.71484 -19.001 2.23828c-5.66113 0.52832 -19.3623 1.05957 -30.8184 1.19531zM314.375 424.724
c5.66602 -0.179688 9.47949 -0.679688 13.8799 -1.81836c3.33691 -0.863281 8.53223 -2.77441 11.5449 -4.24609c3.01172 -1.4707 7.59375 -4.28223 10.1816 -6.24707c2.58887 -1.96387 20.2178 -19.1299 39.1758 -38.1475
c28.9736 -29.0635 35.0332 -35.4463 37.998 -40.0293c1.93945 -2.99902 4.375 -7.49902 5.41309 -10c1.03711 -2.50195 2.48926 -6.93848 3.22754 -9.86035c1.06738 -4.22266 1.3418 -7.1709 1.3418 -14.375s-0.274414 -10.1523 -1.3418 -14.375
c-0.738281 -2.92188 -2.19043 -7.3584 -3.22754 -9.86035c-1.03809 -2.50098 -3.39746 -6.86035 -5.24414 -9.6875c-1.84766 -2.82617 -4.84277 -6.75781 -6.65625 -8.73535c-1.81348 -1.97852 -5.45605 -5.22266 -8.09375 -7.21094
c-2.63965 -1.9873 -7.2627 -4.81934 -10.2744 -6.29004c-3.0127 -1.47168 -8.20801 -3.40234 -11.5449 -4.29102c-5.11035 -1.35938 -7.49805 -1.62402 -15.1299 -1.67578c-6.7793 -0.0458984 -10.3223 0.229492 -14.0625 1.0957
c-2.75 0.635742 -7.10938 2.02441 -9.6875 3.08594s-6.375 2.90527 -8.4375 4.09766c-2.0625 1.19336 -5.4375 3.51074 -7.5 5.15039s-19.1211 18.4004 -37.9072 37.2451c-28.6924 28.7812 -34.7217 35.1357 -37.6855 39.7158c-1.93945 2.99902 -4.375 7.49902 -5.41309 10
c-1.03711 2.50195 -2.48926 6.93848 -3.22754 9.86035c-1.06738 4.22266 -1.3418 7.1709 -1.3418 14.375s0.274414 10.1523 1.3418 14.375c0.738281 2.92188 2.19043 7.3584 3.22754 9.86035c1.03809 2.50098 3.48047 7.00098 5.43066 10
c1.94922 2.99805 5.68848 7.56348 8.30957 10.1436c2.62109 2.58105 6.33789 5.73047 8.25977 6.99902s5.4375 3.28027 7.8125 4.46973c2.375 1.19141 6.07324 2.75488 8.21875 3.47559c2.14453 0.720703 6.08203 1.72461 8.75 2.22949
c3.25293 0.617188 7.4209 0.837891 12.6621 0.670898zM689.375 424.724c5.66602 -0.179688 9.47949 -0.679688 13.8799 -1.81836c3.33691 -0.863281 8.53223 -2.77441 11.5449 -4.24609c3.01172 -1.4707 7.63477 -4.30273 10.2744 -6.29004
c2.6377 -1.98828 6.28027 -5.23242 8.09375 -7.21094c1.81348 -1.97754 4.80859 -5.90918 6.65625 -8.73535c1.84668 -2.82715 4.20605 -7.18652 5.24414 -9.6875c1.03711 -2.50195 2.48926 -6.93848 3.22754 -9.86035c1.06738 -4.22266 1.3418 -7.1709 1.3418 -14.375
s-0.274414 -10.1523 -1.3418 -14.375c-0.738281 -2.92188 -2.19043 -7.3584 -3.22754 -9.86035c-1.03809 -2.50098 -3.47363 -7.00098 -5.41309 -10c-2.96484 -4.58301 -9.02441 -10.9658 -37.998 -40.0293c-18.958 -19.0176 -36.5869 -36.1836 -39.1758 -38.1475
c-2.58789 -1.96484 -7.16992 -4.77637 -10.1816 -6.24707c-3.0127 -1.47168 -8.20801 -3.37793 -11.5449 -4.23535c-3.73828 -0.960938 -8.70703 -1.69336 -12.9424 -1.90527c-4.91406 -0.248047 -8.53516 -0.0556641 -12.6963 0.670898
c-3.20215 0.560547 -7.56152 1.60254 -9.6875 2.31738s-5.80957 2.27246 -8.18457 3.46387c-2.375 1.18945 -5.89062 3.20117 -7.8125 4.46973s-5.63867 4.41797 -8.25977 6.99902c-2.62109 2.58008 -6.36035 7.14551 -8.30957 10.1436
c-1.9502 2.99902 -4.39258 7.49902 -5.43066 10c-1.03711 2.50195 -2.48926 6.93848 -3.22754 9.86035c-1.06738 4.22266 -1.3418 7.1709 -1.3418 14.375s0.274414 10.1523 1.3418 14.375c0.738281 2.92188 2.19043 7.3584 3.22754 9.86035
c1.03809 2.50098 3.4707 7.00098 5.40625 10c2.99121 4.63379 8.93066 10.8545 39.5596 41.4414c21.6973 21.667 37.4307 36.8887 39.5342 38.248c1.92188 1.24316 5.4375 3.2334 7.8125 4.42285c2.375 1.19141 6.07324 2.75488 8.21875 3.47559
c2.14453 0.720703 6.08203 1.72461 8.75 2.22949c3.25293 0.617188 7.4209 0.837891 12.6621 0.670898zM439.375 174.724c5.61719 -0.178711 9.48047 -0.680664 13.75 -1.78613c3.43359 -0.889648 10.0234 -3.44629 15.625 -6.0625
c5.32812 -2.48828 12.3594 -5.24219 15.625 -6.11816c5.15723 -1.38477 7.20996 -1.59375 15.625 -1.59375c8.41406 0 10.4678 0.208984 15.625 1.59277c3.26562 0.876953 9.875 3.43066 14.6875 5.67676c4.8125 2.24512 10.4902 4.66699 12.6162 5.38086
s6.48535 1.75488 9.6875 2.31543c4.16113 0.726562 7.78223 0.918945 12.6963 0.670898c4.22852 -0.211914 9.20312 -0.943359 12.9229 -1.89941c3.3252 -0.855469 8.66895 -2.85742 11.875 -4.4502c3.20508 -1.5918 7.8623 -4.45312 10.3506 -6.35742
c2.48828 -1.90527 5.98242 -5.05371 7.76367 -6.99707c1.78223 -1.94336 4.75195 -5.84668 6.59961 -8.67285c1.84668 -2.82715 4.20605 -7.18652 5.24414 -9.6875c1.03711 -2.50195 2.48926 -6.93848 3.22754 -9.86035c1.06738 -4.22266 1.3418 -7.1709 1.3418 -14.375
s-0.274414 -10.1523 -1.3418 -14.375c-0.738281 -2.92188 -2.19043 -7.3584 -3.22754 -9.86035c-1.03809 -2.50098 -3.39746 -6.86035 -5.24414 -9.6875c-1.84766 -2.82617 -4.81738 -6.72949 -6.59961 -8.67285c-1.78125 -1.94336 -5.2793 -5.0957 -7.77246 -7.00586
c-2.49414 -1.91016 -8.24121 -5.30371 -12.7715 -7.54297s-11.1523 -5.31641 -14.7168 -6.83887c-3.56348 -1.52246 -10.4141 -4.03516 -15.2227 -5.58301c-4.80859 -1.54883 -11.9629 -3.53516 -15.8984 -4.41504c-3.93555 -0.880859 -9.82715 -2.01855 -13.0928 -2.53027
c-3.26562 -0.510742 -9.17188 -1.22266 -13.125 -1.58105c-3.95312 -0.359375 -10.9844 -0.65332 -15.625 -0.65332s-11.6719 0.290039 -15.625 0.644531s-10.7031 1.22168 -15 1.92676c-4.29688 0.706055 -11.4688 2.22266 -15.9375 3.37012
c-4.46875 1.14844 -11.0781 3.11621 -14.6875 4.37207c-3.60938 1.25684 -9.51562 3.56348 -13.125 5.125c-3.60938 1.5625 -9.61035 4.35352 -13.3359 6.20215c-3.72461 1.84766 -8.36523 4.41211 -10.3125 5.69727c-1.94629 1.28516 -5.68359 4.44824 -8.30469 7.0293
c-2.62109 2.58008 -6.36035 7.14551 -8.30957 10.1436c-1.9502 2.99902 -4.39258 7.49902 -5.43066 10c-1.03711 2.50195 -2.48926 6.93848 -3.22754 9.86035c-1.06738 4.22266 -1.3418 7.1709 -1.3418 14.375s0.274414 10.1523 1.3418 14.375
c0.738281 2.92188 2.19043 7.3584 3.22754 9.86035c1.03809 2.50098 3.48047 7.00098 5.43066 10c1.94922 2.99805 5.68848 7.56348 8.30957 10.1436c2.62109 2.58105 6.33789 5.73047 8.25977 6.99902s5.4375 3.28027 7.8125 4.46973
c2.375 1.19141 6.07324 2.75488 8.21875 3.47559c2.14453 0.720703 6.08203 1.72461 8.75 2.22949c3.25293 0.617188 7.4209 0.837891 12.6621 0.670898z" />
  </g>

</svg>
