<?xml version="1.0" standalone="no"?>
<!DOCTYPE svg PUBLIC "-//W3C//DTD SVG 1.1//EN" "http://www.w3.org/Graphics/SVG/1.1/DTD/svg11.dtd" >
<svg xmlns="http://www.w3.org/2000/svg" xmlns:xlink="http://www.w3.org/1999/xlink" version="1.1" viewBox="-10 0 1010 1000">
  <g transform="matrix(1 0 0 -1 0 800)">
   <path fill="currentColor"
d="M501.875 612.289l383.438 -0.101562l4.79688 -1.36914c2.63867 -0.75293 6.88086 -2.23633 9.42578 -3.29492c2.54688 -1.06055 6.85645 -3.37793 9.57812 -5.15039c2.72266 -1.77246 7.21875 -5.49219 9.99316 -8.2666s6.49414 -7.27051 8.2666 -9.99316
c1.77246 -2.72168 4.08984 -7.03125 5.15039 -9.57812c1.05859 -2.54492 2.52051 -6.78711 3.24609 -9.42578c1.09473 -3.9834 1.31934 -6.54688 1.31934 -15.1094s-0.224609 -11.126 -1.31934 -15.1094c-0.725586 -2.63867 -2.1875 -6.88086 -3.24609 -9.42578
c-1.06055 -2.54688 -3.37793 -6.85645 -5.15039 -9.57812c-1.77246 -2.72266 -5.49219 -7.21875 -8.2666 -9.99316s-7.27051 -6.49414 -9.99316 -8.2666c-2.72168 -1.77246 -7.04395 -4.09473 -9.60449 -5.16113c-2.56055 -1.06543 -6.94336 -2.54883 -9.73926 -3.2959
l-5.08203 -1.35742h-384.688h-384.688l-5.08203 1.35742c-2.7959 0.74707 -7.17871 2.23047 -9.73926 3.2959c-2.56055 1.06641 -6.88281 3.38867 -9.60449 5.16113c-2.72266 1.77246 -7.21875 5.49219 -9.99316 8.2666s-6.49414 7.27051 -8.2666 9.99316
c-1.77246 2.72168 -4.08984 7.03125 -5.15039 9.57812c-1.05859 2.54492 -2.52051 6.78711 -3.24609 9.42578c-1.09473 3.9834 -1.31934 6.54688 -1.31934 15.1094s0.224609 11.126 1.31934 15.1094c0.725586 2.63867 2.1875 6.88086 3.24609 9.42578
c1.06055 2.54688 3.3584 6.80957 5.10742 9.47461c1.75 2.66406 4.86133 6.64062 6.91406 8.83496c2.05273 2.19531 5.6084 5.37109 7.89844 7.05859c2.29199 1.6875 5.74707 3.95312 7.67969 5.03418c1.93164 1.08105 5.82715 2.81055 8.65527 3.84277
s7.29395 2.26758 9.92383 2.74414c4.04883 0.733398 63.6064 0.851562 388.221 0.764648zM501.875 362.289l383.438 -0.101562l4.79688 -1.36914c2.63867 -0.75293 6.88086 -2.23633 9.42578 -3.29492c2.54688 -1.06055 6.85645 -3.37793 9.57812 -5.15039
c2.72266 -1.77246 7.21875 -5.49219 9.99316 -8.2666s6.49414 -7.27051 8.2666 -9.99316c1.77246 -2.72168 4.08984 -7.03125 5.15039 -9.57812c1.05859 -2.54492 2.52051 -6.78711 3.24609 -9.42578c1.09473 -3.9834 1.31934 -6.54688 1.31934 -15.1094
s-0.224609 -11.126 -1.31934 -15.1094c-0.725586 -2.63867 -2.1875 -6.88086 -3.24609 -9.42578c-1.06055 -2.54688 -3.37793 -6.85645 -5.15039 -9.57812c-1.77246 -2.72266 -5.49219 -7.21875 -8.2666 -9.99316s-7.27051 -6.49414 -9.99316 -8.2666
c-2.72168 -1.77246 -7.04395 -4.09473 -9.60449 -5.16113c-2.56055 -1.06543 -6.94336 -2.54883 -9.73926 -3.2959l-5.08203 -1.35742h-384.688h-384.688l-5.08203 1.35742c-2.7959 0.74707 -7.17871 2.23047 -9.73926 3.2959
c-2.56055 1.06641 -6.88281 3.38867 -9.60449 5.16113c-2.72266 1.77246 -7.21875 5.49219 -9.99316 8.2666s-6.49414 7.27051 -8.2666 9.99316c-1.77246 2.72168 -4.08984 7.03125 -5.15039 9.57812c-1.05859 2.54492 -2.52051 6.78711 -3.24609 9.42578
c-1.09473 3.9834 -1.31934 6.54688 -1.31934 15.1094s0.224609 11.126 1.31934 15.1094c0.725586 2.63867 2.1875 6.88086 3.24609 9.42578c1.06055 2.54688 3.3584 6.80957 5.10742 9.47461c1.75 2.66406 4.86133 6.64062 6.91406 8.83496
c2.05273 2.19531 5.6084 5.37109 7.89844 7.05859c2.29199 1.6875 5.74707 3.95312 7.67969 5.03418c1.93164 1.08105 5.82715 2.81055 8.65527 3.84277s7.29395 2.26758 9.92383 2.74414c4.04883 0.733398 63.6064 0.851562 388.221 0.764648zM376.875 112.29
l258.438 -0.102539l4.79688 -1.36914c2.63867 -0.75293 6.88086 -2.23633 9.42578 -3.29492c2.54688 -1.06055 6.85645 -3.37793 9.57812 -5.15039c2.72266 -1.77246 7.21875 -5.49219 9.99316 -8.2666s6.49414 -7.27051 8.2666 -9.99316
c1.77246 -2.72168 4.08984 -7.03125 5.15039 -9.57812c1.05859 -2.54492 2.52051 -6.78711 3.24609 -9.42578c1.0957 -3.9834 1.32031 -6.54688 1.32031 -15.1094s-0.224609 -11.126 -1.32031 -15.1094c-0.725586 -2.63867 -2.1875 -6.88086 -3.24609 -9.42578
c-1.06055 -2.54688 -3.37793 -6.85645 -5.15039 -9.57812c-1.77246 -2.72266 -5.49219 -7.21875 -8.2666 -9.99316s-7.27051 -6.49414 -9.99316 -8.2666c-2.72168 -1.77246 -7.04395 -4.09473 -9.60449 -5.16113c-2.56055 -1.06543 -6.94336 -2.54883 -9.73926 -3.2959
l-5.08203 -1.35742h-259.688h-259.688l-5.08203 1.35742c-2.7959 0.74707 -7.17871 2.23047 -9.73926 3.2959c-2.56055 1.06641 -6.88281 3.38867 -9.60449 5.16113c-2.72266 1.77246 -7.21875 5.49219 -9.99316 8.2666s-6.49414 7.27051 -8.2666 9.99316
c-1.77246 2.72168 -4.08984 7.03125 -5.15039 9.57812c-1.05859 2.54492 -2.52051 6.78711 -3.24609 9.42578c-1.0957 3.9834 -1.32031 6.54688 -1.32031 15.1094s0.224609 11.126 1.32031 15.1094c0.725586 2.63867 2.1875 6.88086 3.24609 9.42578
c1.06055 2.54688 3.3584 6.80957 5.10742 9.47461c1.75 2.66406 4.86133 6.64062 6.91406 8.83496c2.05273 2.19531 5.6084 5.37109 7.89844 7.05859c2.29199 1.6875 5.74707 3.95312 7.67969 5.03418c1.93164 1.08105 5.82715 2.81055 8.65527 3.84277
s7.29395 2.26758 9.92383 2.74512c4.03613 0.732422 45.083 0.851562 263.22 0.764648z" />
  </g>

</svg>
