<?xml version="1.0" standalone="no"?>
<!DOCTYPE svg PUBLIC "-//W3C//DTD SVG 1.1//EN" "http://www.w3.org/Graphics/SVG/1.1/DTD/svg11.dtd" >
<svg xmlns="http://www.w3.org/2000/svg" xmlns:xlink="http://www.w3.org/1999/xlink" version="1.1" viewBox="-10 0 1010 1000">
  <g transform="matrix(1 0 0 -1 0 800)">
   <path fill="currentColor"
d="M501.875 737.289l382.812 -0.101562l6.06738 -1.67578c3.33691 -0.921875 8.53223 -2.88086 11.5449 -4.35254c3.01172 -1.4707 7.63477 -4.30273 10.2744 -6.29004c2.6377 -1.98828 6.28027 -5.23242 8.09375 -7.21094
c1.81348 -1.97754 4.82422 -5.93359 6.69141 -8.79102c1.86719 -2.85645 4.31836 -7.49707 5.44922 -10.3125c1.12988 -2.81445 2.57715 -7.36719 3.2168 -10.1172c1.12402 -4.83691 1.16211 -14.4688 1.16211 -294.688c0 -280.219 -0.0380859 -289.851 -1.16211 -294.688
c-0.639648 -2.75 -2.08691 -7.30273 -3.2168 -10.1172c-1.13086 -2.81543 -3.58203 -7.45605 -5.44922 -10.3125c-1.86719 -2.85742 -4.87793 -6.81348 -6.69141 -8.79102c-1.81348 -1.97852 -5.45605 -5.22266 -8.09375 -7.21094
c-2.63965 -1.9873 -7.2627 -4.81934 -10.2744 -6.29004c-3.0127 -1.47168 -8.20801 -3.43066 -11.5449 -4.35254l-6.06738 -1.67578l-98.5938 -0.168945l-98.5938 -0.169922v-31.2041v-31.2041l36.0938 -0.209961l36.0938 -0.210938l6.06738 -1.6543
c3.33691 -0.910156 8.53223 -2.85938 11.5449 -4.33105c3.01172 -1.4707 7.63477 -4.30273 10.2744 -6.29004c2.6377 -1.98828 6.28027 -5.23242 8.09375 -7.21094c1.81348 -1.97754 4.80859 -5.90918 6.65625 -8.73535c1.84668 -2.82715 4.20605 -7.18652 5.24414 -9.6875
c1.03711 -2.50195 2.48926 -6.93848 3.22754 -9.86035c1.06738 -4.22266 1.3418 -7.1709 1.3418 -14.375s-0.274414 -10.1523 -1.3418 -14.375c-0.738281 -2.92188 -2.19043 -7.3584 -3.22754 -9.86035c-1.03809 -2.50098 -3.39746 -6.86035 -5.24414 -9.6875
c-1.84766 -2.82617 -4.84277 -6.75781 -6.65625 -8.73535c-1.81348 -1.97852 -5.45605 -5.22266 -8.09375 -7.21094c-2.63965 -1.9873 -7.2627 -4.81934 -10.2744 -6.29004c-3.0127 -1.47168 -8.20801 -3.43066 -11.5449 -4.35254l-6.06738 -1.67578l-257.188 -0.162109
c-227.789 -0.143555 -257.817 -0.0537109 -262.696 0.788086c-3.03027 0.522461 -7.24902 1.53516 -9.375 2.25s-5.80957 2.27246 -8.18457 3.46387c-2.375 1.18945 -5.89062 3.20117 -7.8125 4.46973s-5.63867 4.41797 -8.25977 6.99902
c-2.62109 2.58008 -6.36035 7.14551 -8.30957 10.1436c-1.9502 2.99902 -4.39258 7.49902 -5.43066 10c-1.03711 2.50195 -2.48926 6.93848 -3.22754 9.86035c-1.06738 4.22266 -1.3418 7.1709 -1.3418 14.375s0.274414 10.1523 1.3418 14.375
c0.738281 2.92188 2.19043 7.3584 3.22754 9.86035c1.03809 2.50098 3.48047 7.00098 5.43066 10c1.94922 2.99805 5.68848 7.56348 8.30957 10.1436c2.62109 2.58105 6.33789 5.73047 8.25977 6.99902s5.4375 3.28027 7.8125 4.46973
c2.375 1.19141 6.04883 2.74609 8.16406 3.45703s6.30078 1.7207 9.30078 2.24414c4.42871 0.772461 11.7852 0.951172 39.123 0.951172h33.668v31.25v31.25h-96.168c-83.2949 0 -96.8984 0.12793 -101.623 0.951172c-3 0.523438 -7.18555 1.5332 -9.30078 2.24414
s-5.78906 2.26562 -8.16406 3.45703c-2.375 1.18945 -5.89062 3.20117 -7.8125 4.46973s-5.63867 4.41797 -8.25977 6.99902c-2.62109 2.58008 -6.37695 7.16992 -8.3457 10.1992c-1.96973 3.02832 -4.50391 7.80957 -5.63477 10.625
c-1.12988 2.81445 -2.57715 7.36719 -3.2168 10.1172c-1.12402 4.83691 -1.16211 14.4688 -1.16211 294.688c0 280.22 0.0380859 289.852 1.16211 294.688c0.639648 2.75 2.08691 7.30273 3.2168 10.1172c1.13086 2.81543 3.66504 7.59668 5.63477 10.625
c1.96875 3.0293 5.72461 7.61914 8.3457 10.1992c2.62109 2.58105 6.33789 5.73047 8.25977 6.99902s5.4375 3.28027 7.8125 4.46973c2.375 1.19141 6.07324 2.75488 8.21875 3.47559c2.14453 0.720703 6.08203 1.70605 8.75 2.18945
c4.13574 0.749023 61.1729 0.863281 387.662 0.776367h0.000976562zM500 612.5h-312.5v-218.75v-218.75h312.5h312.5v218.75v218.75h-312.5zM689.375 549.724c5.66602 -0.179688 9.47949 -0.679688 13.8799 -1.81836c3.33691 -0.863281 8.53223 -2.77441 11.5449 -4.24609
c3.01172 -1.4707 7.63477 -4.30273 10.2744 -6.29004c2.6377 -1.98828 6.28027 -5.23242 8.09375 -7.21094c1.81348 -1.97754 4.80859 -5.90918 6.65625 -8.73535c1.84668 -2.82715 4.20605 -7.18652 5.24414 -9.6875c1.03711 -2.50195 2.48926 -6.93848 3.22754 -9.86035
c1.06738 -4.22266 1.3418 -7.1709 1.3418 -14.375s-0.274414 -10.1523 -1.3418 -14.375c-0.738281 -2.92188 -2.17676 -7.3252 -3.19727 -9.78516c-1.02051 -2.46094 -3.33398 -6.82031 -5.1416 -9.6875c-2.8623 -4.54297 -11.7881 -13.7354 -69.2773 -71.3477
c-36.2959 -36.373 -68.0586 -67.6992 -70.585 -69.6133c-2.52637 -1.91309 -7.07129 -4.71777 -10.0996 -6.23242c-3.0293 -1.51367 -8.27539 -3.46387 -11.6572 -4.33301c-3.81738 -0.981445 -8.75879 -1.71191 -13.0254 -1.92578
c-4.88965 -0.246094 -8.53613 -0.0556641 -12.6279 0.660156c-3.16504 0.551758 -7.66504 1.625 -10 2.38184c-2.33594 0.756836 -24.1943 11.3252 -48.5742 23.4844l-44.3262 22.1084l-48.4863 -48.4111c-26.667 -26.627 -50.2158 -49.666 -52.3311 -51.1973
c-2.11523 -1.5332 -6.27539 -3.97363 -9.24512 -5.42383c-2.96973 -1.45117 -8.12988 -3.33984 -11.4668 -4.19727c-3.73828 -0.960938 -8.70703 -1.69336 -12.9424 -1.90527c-4.91406 -0.248047 -8.53516 -0.0556641 -12.6963 0.670898
c-3.20215 0.560547 -7.56152 1.60254 -9.6875 2.31738s-5.78027 2.25879 -8.11914 3.43066s-5.99512 3.30566 -8.125 4.74121c-2.12988 1.43652 -5.87207 4.60059 -8.31641 7.03223c-2.44434 2.43066 -6.04297 6.87402 -7.99707 9.87207
c-1.95508 2.99902 -4.40137 7.49902 -5.43945 10c-1.03711 2.50195 -2.48926 6.93848 -3.22754 9.86035c-1.06738 4.22266 -1.3418 7.1709 -1.3418 14.375s0.274414 10.1523 1.3418 14.375c0.738281 2.92188 2.17676 7.3252 3.19727 9.78516
c1.02051 2.46094 3.33398 6.82031 5.1416 9.6875c2.8623 4.54395 11.7773 13.7246 69.2773 71.3379c36.2959 36.3672 67.3984 67.2119 69.1172 68.543s4.95312 3.51953 7.1875 4.86328c2.23438 1.34473 6.17188 3.30762 8.75 4.36328s6.9375 2.43945 9.6875 3.0752
c3.74023 0.866211 7.2832 1.1416 14.0625 1.0957c7.63379 -0.0517578 10.0479 -0.319336 15.3125 -1.69727c5.38965 -1.41016 12.4756 -4.73828 51.5098 -24.1963l45.2607 -22.5615l49.1143 48.9961c30.1562 30.082 50.4639 49.8682 52.6094 51.2568
c1.92188 1.24316 5.4375 3.23438 7.8125 4.42383c2.375 1.19141 6.07324 2.75488 8.21875 3.47559c2.14453 0.720703 6.08203 1.72461 8.75 2.22949c3.25293 0.617188 7.4209 0.837891 12.6621 0.670898zM500 50h-62.5v-31.25v-31.25h62.5h62.5v31.25v31.25h-62.5z" />
  </g>

</svg>
