<?xml version="1.0" standalone="no"?>
<!DOCTYPE svg PUBLIC "-//W3C//DTD SVG 1.1//EN" "http://www.w3.org/Graphics/SVG/1.1/DTD/svg11.dtd" >
<svg xmlns="http://www.w3.org/2000/svg" xmlns:xlink="http://www.w3.org/1999/xlink" version="1.1" viewBox="-10 0 1010 1000">
  <g transform="matrix(1 0 0 -1 0 800)">
   <path fill="currentColor"
d="M626.875 362.224c5.66602 -0.179688 9.47949 -0.679688 13.8799 -1.81836c3.33691 -0.863281 8.53223 -2.77441 11.5449 -4.24609c3.01172 -1.4707 7.63477 -4.30273 10.2744 -6.29004c2.6377 -1.98828 6.28027 -5.23242 8.09375 -7.21094
c1.81348 -1.97754 4.82422 -5.93359 6.69141 -8.79102c1.86719 -2.85645 4.31836 -7.49707 5.44922 -10.3125c1.12988 -2.81445 2.57715 -7.36719 3.2168 -10.1172c1.11914 -4.81836 1.16211 -12.1191 1.16211 -200.938c0 -188.819 -0.0429688 -196.119 -1.16211 -200.938
c-0.639648 -2.75 -2.08691 -7.30273 -3.2168 -10.1172c-1.13086 -2.81543 -3.58203 -7.45605 -5.44922 -10.3125c-1.86719 -2.85742 -4.85254 -6.78516 -6.63477 -8.72852c-1.78125 -1.94336 -5.27539 -5.08984 -7.76367 -6.99316s-6.77344 -4.58008 -9.52344 -5.94824
s-6.73047 -3.06641 -8.8457 -3.77441c-2.11523 -0.707031 -6.30078 -1.71387 -9.30078 -2.2373s-7.63086 -0.951172 -10.291 -0.951172s-7.29102 0.427734 -10.291 0.951172s-7.18555 1.5332 -9.30078 2.24414s-5.78906 2.26562 -8.16406 3.45703
c-2.375 1.18945 -5.89062 3.20117 -7.8125 4.46973s-5.63867 4.41797 -8.25977 6.99902c-2.62109 2.58008 -6.37695 7.16992 -8.3457 10.1992c-1.96973 3.02832 -4.50391 7.80957 -5.63477 10.625c-1.12988 2.81445 -2.57715 7.36719 -3.2168 10.1172
c-1.11914 4.81836 -1.16211 12.1191 -1.16211 200.938c0 188.818 0.0429688 196.119 1.16211 200.938c0.639648 2.75 2.08691 7.30273 3.2168 10.1172c1.13086 2.81543 3.66504 7.59668 5.63477 10.625c1.96875 3.0293 5.72461 7.61914 8.3457 10.1992
c2.62109 2.58105 6.33789 5.73047 8.25977 6.99902s5.4375 3.28027 7.8125 4.46973c2.375 1.19141 6.07324 2.75488 8.21875 3.47559c2.14453 0.720703 6.08203 1.72461 8.75 2.22949c3.25293 0.617188 7.4209 0.837891 12.6621 0.670898zM376.875 237.224
c5.66602 -0.179688 9.47949 -0.679688 13.8799 -1.81836c3.33691 -0.863281 8.53223 -2.77441 11.5449 -4.24609c3.01172 -1.4707 7.63477 -4.30273 10.2744 -6.29004c2.6377 -1.98828 6.28027 -5.23242 8.09375 -7.21094
c1.81348 -1.97754 4.82422 -5.93359 6.69141 -8.79102c1.86719 -2.85645 4.31836 -7.49707 5.44922 -10.3125c1.12988 -2.81445 2.57715 -7.36719 3.2168 -10.1172c1.11426 -4.79199 1.16211 -10.5527 1.16211 -138.438c0 -127.886 -0.0478516 -133.646 -1.16211 -138.438
c-0.639648 -2.75 -2.08691 -7.30273 -3.2168 -10.1172c-1.13086 -2.81543 -3.58203 -7.45605 -5.44922 -10.3125c-1.86719 -2.85742 -4.85254 -6.78516 -6.63477 -8.72852c-1.78125 -1.94336 -5.27539 -5.08984 -7.76367 -6.99316s-6.77344 -4.58008 -9.52344 -5.94824
s-6.73047 -3.06641 -8.8457 -3.77441c-2.11523 -0.707031 -6.30078 -1.71387 -9.30078 -2.2373s-7.63086 -0.951172 -10.291 -0.951172s-7.29102 0.427734 -10.291 0.951172s-7.18555 1.5332 -9.30078 2.24414s-5.78906 2.26562 -8.16406 3.45703
c-2.375 1.18945 -5.89062 3.20117 -7.8125 4.46973s-5.63867 4.41797 -8.25977 6.99902c-2.62109 2.58008 -6.37695 7.16992 -8.3457 10.1992c-1.96973 3.02832 -4.50391 7.80957 -5.63477 10.625c-1.12988 2.81445 -2.57715 7.36719 -3.2168 10.1172
c-1.11426 4.79199 -1.16211 10.5527 -1.16211 138.438c0 127.885 0.0478516 133.646 1.16211 138.438c0.639648 2.75 2.08691 7.30273 3.2168 10.1172c1.13086 2.81543 3.66504 7.59668 5.63477 10.625c1.96875 3.0293 5.72461 7.61914 8.3457 10.1992
c2.62109 2.58105 6.33789 5.73047 8.25977 6.99902s5.4375 3.28027 7.8125 4.46973c2.375 1.19141 6.07324 2.75488 8.21875 3.47559c2.14453 0.720703 6.08203 1.72461 8.75 2.22949c3.25293 0.617188 7.4209 0.837891 12.6621 0.670898zM126.875 112.224
c5.66602 -0.179688 9.47949 -0.679688 13.8799 -1.81836c3.33691 -0.863281 8.53223 -2.77441 11.5449 -4.24609c3.01172 -1.4707 7.63477 -4.30273 10.2744 -6.29004c2.6377 -1.98828 6.28027 -5.23242 8.09375 -7.21094
c1.81348 -1.97754 4.82422 -5.93359 6.69141 -8.79102c1.86719 -2.85645 4.31836 -7.49707 5.44922 -10.3125c1.12988 -2.81445 2.57715 -7.36719 3.2168 -10.1172c1.09668 -4.71875 1.16211 -8.98633 1.16211 -75.9375s-0.0654297 -71.2188 -1.16211 -75.9375
c-0.639648 -2.75 -2.08691 -7.30273 -3.2168 -10.1172c-1.13086 -2.81543 -3.58203 -7.45605 -5.44922 -10.3125c-1.86719 -2.85742 -4.85254 -6.78516 -6.63477 -8.72852c-1.78125 -1.94336 -5.27539 -5.08984 -7.76367 -6.99316s-6.77344 -4.58008 -9.52344 -5.94824
s-6.73047 -3.06641 -8.8457 -3.77441c-2.11523 -0.707031 -6.30078 -1.71387 -9.30078 -2.2373s-7.63086 -0.951172 -10.291 -0.951172s-7.29102 0.427734 -10.291 0.951172s-7.18555 1.5332 -9.30078 2.24414s-5.78906 2.26562 -8.16406 3.45703
c-2.375 1.18945 -5.89062 3.20117 -7.8125 4.46973s-5.63867 4.41797 -8.25977 6.99902c-2.62109 2.58008 -6.37695 7.16992 -8.3457 10.1992c-1.96973 3.02832 -4.50391 7.80957 -5.63477 10.625c-1.12988 2.81445 -2.57715 7.36719 -3.2168 10.1172
c-1.09668 4.71875 -1.16211 8.98633 -1.16211 75.9375s0.0654297 71.2188 1.16211 75.9375c0.639648 2.75 2.08691 7.30273 3.2168 10.1172c1.13086 2.81543 3.66504 7.59668 5.63477 10.625c1.96875 3.0293 5.72461 7.61914 8.3457 10.1992
c2.62109 2.58105 6.33789 5.73047 8.25977 6.99902s5.4375 3.28027 7.8125 4.46973c2.375 1.19141 6.07324 2.75488 8.21875 3.47559c2.14453 0.720703 6.08203 1.72461 8.75 2.22949c3.25293 0.617188 7.4209 0.837891 12.6621 0.670898zM876.875 -12.7764v0
c5.66602 -0.179688 9.47949 -0.679688 13.8799 -1.81836c3.33691 -0.863281 8.53223 -2.77441 11.5449 -4.24609c3.01172 -1.4707 7.63477 -4.30273 10.2744 -6.29004c2.6377 -1.98828 6.28027 -5.23242 8.09375 -7.21094
c1.81348 -1.97754 4.80859 -5.90918 6.65625 -8.73535c1.84668 -2.82715 4.20605 -7.18652 5.24219 -9.6875c1.03711 -2.50195 2.43848 -6.79785 3.11523 -9.54785s1.39941 -7.8125 1.60645 -11.25c0.217773 -3.61914 0.0654297 -8.58203 -0.363281 -11.791
c-0.407227 -3.04688 -1.46191 -7.82812 -2.34375 -10.625c-0.881836 -2.7959 -2.44629 -6.77148 -3.47754 -8.83398s-3.12695 -5.64453 -4.65723 -7.96191c-1.53027 -2.31641 -4.82812 -6.25586 -7.32715 -8.75586c-2.5 -2.5 -6.56055 -5.89746 -9.02441 -7.55078
c-2.46387 -1.65234 -6.53516 -3.9541 -9.04785 -5.11621c-2.5127 -1.16016 -6.59961 -2.67383 -9.08398 -3.36133c-2.48242 -0.688477 -7.31641 -1.57715 -10.7393 -1.97461c-4.71387 -0.547852 -7.7334 -0.547852 -12.4473 0
c-3.42285 0.397461 -8.1709 1.2627 -10.5498 1.92188s-6.47168 2.17676 -9.0957 3.37305c-2.625 1.19531 -6.89746 3.64355 -9.49414 5.43945c-2.59766 1.7959 -6.66602 5.20801 -9.04004 7.58105c-2.37402 2.375 -5.55566 6.19336 -7.07129 8.48633
c-1.51465 2.29297 -3.59766 5.85645 -4.62891 7.91895s-2.58594 6.00684 -3.45605 8.76465c-0.869141 2.75879 -1.92578 7.37793 -2.34863 10.2656c-0.46875 3.20508 -0.620117 7.8252 -0.389648 11.8604c0.208008 3.63477 0.933594 8.85938 1.6123 11.6094
s2.08203 7.0459 3.11914 9.54785c1.03613 2.50098 3.47852 7.00098 5.42871 10c1.94922 2.99805 5.68848 7.56348 8.30957 10.1436c2.62109 2.58105 6.33789 5.73047 8.25977 6.99902s5.4375 3.28027 7.8125 4.46973c2.375 1.19141 6.07324 2.75488 8.21875 3.47559
c2.14453 0.720703 6.08203 1.72461 8.75 2.22949c3.25293 0.617188 7.4209 0.837891 12.6621 0.670898z" />
  </g>

</svg>
