<?xml version="1.0" standalone="no"?>
<!DOCTYPE svg PUBLIC "-//W3C//DTD SVG 1.1//EN" "http://www.w3.org/Graphics/SVG/1.1/DTD/svg11.dtd" >
<svg xmlns="http://www.w3.org/2000/svg" xmlns:xlink="http://www.w3.org/1999/xlink" version="1.1" viewBox="-10 0 1010 1000">
  <g transform="matrix(1 0 0 -1 0 800)">
   <path fill="currentColor"
d="M126.875 -12.7764c5.66602 -0.179688 9.47949 -0.679688 13.8799 -1.81836c3.33691 -0.863281 8.53223 -2.77441 11.5449 -4.24609c3.01172 -1.4707 7.63477 -4.30273 10.2744 -6.29004c2.6377 -1.98828 6.28027 -5.23242 8.09375 -7.21094
c1.81348 -1.97754 4.80859 -5.90918 6.65625 -8.73535c1.84668 -2.82715 4.20605 -7.18652 5.24414 -9.6875c1.03711 -2.50195 2.49316 -6.93848 3.2373 -9.86035c1.11621 -4.38672 1.34277 -7.00098 1.29883 -15c-0.0429688 -7.7627 -0.313477 -10.6484 -1.36426 -14.5264
c-0.72168 -2.66113 -1.99121 -6.52344 -2.82324 -8.58105c-0.831055 -2.05859 -2.68164 -5.78711 -4.11133 -8.28613s-4.20801 -6.43555 -6.1709 -8.74805c-1.96484 -2.31348 -5.25977 -5.6416 -7.32227 -7.39746c-2.0625 -1.75488 -5.85938 -4.43848 -8.4375 -5.96289
s-6.79688 -3.58496 -9.375 -4.5791c-2.57812 -0.995117 -6.9375 -2.2959 -9.6875 -2.8916c-3.24414 -0.702148 -7.74414 -1.08203 -12.8125 -1.08203c-5.06055 0 -9.56152 0.379883 -12.7783 1.07812c-2.73047 0.591797 -7.50586 2.09375 -10.6104 3.33691
c-3.10547 1.24316 -8.0791 3.8877 -11.0537 5.87695s-7.4043 5.61328 -9.84277 8.05176c-2.43945 2.43945 -5.67383 6.31152 -7.18945 8.60449c-1.51465 2.29297 -3.59766 5.85645 -4.62891 7.91895s-2.58594 6.00684 -3.45605 8.76465
c-0.869141 2.75879 -1.92578 7.37793 -2.34863 10.2656c-0.46875 3.20508 -0.620117 7.8252 -0.389648 11.8604c0.208008 3.63477 0.933594 8.85938 1.6123 11.6094s2.08203 7.0459 3.11914 9.54785c1.03613 2.50098 3.47852 7.00098 5.42871 10
c1.94922 2.99805 5.68848 7.56348 8.30957 10.1436c2.62109 2.58105 6.33789 5.73047 8.25977 6.99902s5.4375 3.28027 7.8125 4.46973c2.375 1.19141 6.07324 2.75488 8.21875 3.47559c2.14453 0.720703 6.08203 1.72461 8.75 2.22949
c3.25293 0.617188 7.4209 0.837891 12.6621 0.670898v0zM376.875 -12.7764c5.66602 -0.179688 9.47949 -0.679688 13.8799 -1.81836c3.33691 -0.863281 8.53223 -2.77441 11.5449 -4.24609c3.01172 -1.4707 7.63477 -4.30273 10.2744 -6.29004
c2.6377 -1.98828 6.28027 -5.23242 8.09375 -7.21094c1.81348 -1.97754 4.80859 -5.90918 6.65625 -8.73535c1.84668 -2.82715 4.20605 -7.18652 5.24414 -9.6875c1.03711 -2.50195 2.49316 -6.93848 3.2373 -9.86035c1.11621 -4.38672 1.34277 -7.00098 1.29883 -15
c-0.0429688 -7.7627 -0.313477 -10.6484 -1.36426 -14.5264c-0.72168 -2.66113 -1.99121 -6.52344 -2.82324 -8.58105c-0.831055 -2.05859 -2.68164 -5.78711 -4.11133 -8.28613s-4.20801 -6.43555 -6.1709 -8.74805c-1.96484 -2.31348 -5.25977 -5.6416 -7.32227 -7.39746
c-2.0625 -1.75488 -5.85938 -4.43848 -8.4375 -5.96289s-6.79688 -3.58496 -9.375 -4.5791c-2.57812 -0.995117 -6.9375 -2.2959 -9.6875 -2.8916c-3.24414 -0.702148 -7.74414 -1.08203 -12.8125 -1.08203c-5.06055 0 -9.56152 0.379883 -12.7783 1.07812
c-2.73047 0.591797 -7.50586 2.09375 -10.6104 3.33691c-3.10547 1.24316 -8.0791 3.8877 -11.0537 5.87695s-7.4043 5.61328 -9.84277 8.05176c-2.43945 2.43945 -5.67383 6.31152 -7.18945 8.60449c-1.51465 2.29297 -3.59766 5.85645 -4.62891 7.91895
s-2.58594 6.00684 -3.45605 8.76465c-0.869141 2.75879 -1.92578 7.37793 -2.34863 10.2656c-0.46875 3.20508 -0.620117 7.8252 -0.389648 11.8604c0.208008 3.63477 0.933594 8.85938 1.6123 11.6094s2.08203 7.0459 3.11914 9.54785
c1.03613 2.50098 3.47852 7.00098 5.42871 10c1.94922 2.99805 5.68848 7.56348 8.30957 10.1436c2.62109 2.58105 6.33789 5.73047 8.25977 6.99902s5.4375 3.28027 7.8125 4.46973c2.375 1.19141 6.07324 2.75488 8.21875 3.47559
c2.14453 0.720703 6.08203 1.72461 8.75 2.22949c3.25293 0.617188 7.4209 0.837891 12.6621 0.670898v0zM626.875 -12.7764c5.66602 -0.179688 9.47949 -0.679688 13.8799 -1.81836c3.33691 -0.863281 8.53223 -2.77441 11.5449 -4.24609
c3.01172 -1.4707 7.63477 -4.30273 10.2744 -6.29004c2.6377 -1.98828 6.28027 -5.23242 8.09375 -7.21094c1.81348 -1.97754 4.80859 -5.90918 6.65625 -8.73535c1.84668 -2.82715 4.20605 -7.18652 5.24414 -9.6875c1.03711 -2.50195 2.49316 -6.93848 3.2373 -9.86035
c1.11621 -4.38672 1.34277 -7.00098 1.29883 -15c-0.0429688 -7.7627 -0.313477 -10.6484 -1.36426 -14.5264c-0.72168 -2.66113 -1.99121 -6.52344 -2.82324 -8.58105c-0.831055 -2.05859 -2.68164 -5.78711 -4.11133 -8.28613s-4.20801 -6.43555 -6.1709 -8.74805
c-1.96484 -2.31348 -5.25977 -5.6416 -7.32227 -7.39746c-2.0625 -1.75488 -5.85938 -4.43848 -8.4375 -5.96289s-6.79688 -3.58496 -9.375 -4.5791c-2.57812 -0.995117 -6.9375 -2.2959 -9.6875 -2.8916c-3.24414 -0.702148 -7.74414 -1.08203 -12.8125 -1.08203
c-5.06055 0 -9.56152 0.379883 -12.7783 1.07812c-2.73047 0.591797 -7.50586 2.09375 -10.6104 3.33691c-3.10547 1.24316 -8.0791 3.8877 -11.0537 5.87695s-7.4043 5.61328 -9.84277 8.05176c-2.43945 2.43945 -5.67383 6.31152 -7.18945 8.60449
c-1.51465 2.29297 -3.59766 5.85645 -4.62891 7.91895s-2.58594 6.00684 -3.45605 8.76465c-0.869141 2.75879 -1.92578 7.37793 -2.34863 10.2656c-0.46875 3.20508 -0.620117 7.8252 -0.389648 11.8604c0.208008 3.63477 0.933594 8.85938 1.6123 11.6094
s2.08203 7.0459 3.11914 9.54785c1.03613 2.50098 3.47852 7.00098 5.42871 10c1.94922 2.99805 5.68848 7.56348 8.30957 10.1436c2.62109 2.58105 6.33789 5.73047 8.25977 6.99902s5.4375 3.28027 7.8125 4.46973c2.375 1.19141 6.07324 2.75488 8.21875 3.47559
c2.14453 0.720703 6.08203 1.72461 8.75 2.22949c3.25293 0.617188 7.4209 0.837891 12.6621 0.670898v0zM876.875 -12.7764v0c5.66602 -0.179688 9.47949 -0.679688 13.8799 -1.81836c3.33691 -0.863281 8.53223 -2.77441 11.5449 -4.24609
c3.01172 -1.4707 7.63477 -4.30273 10.2744 -6.29004c2.6377 -1.98828 6.28027 -5.23242 8.09375 -7.21094c1.81348 -1.97754 4.80859 -5.90918 6.65625 -8.73535c1.84668 -2.82715 4.20605 -7.18652 5.24414 -9.6875c1.03711 -2.50195 2.49316 -6.93848 3.2373 -9.86035
c1.11621 -4.38672 1.34277 -7.00098 1.29883 -15c-0.0429688 -7.7627 -0.313477 -10.6484 -1.36426 -14.5264c-0.72168 -2.66113 -1.99121 -6.52344 -2.82324 -8.58105c-0.831055 -2.05859 -2.68164 -5.78711 -4.11133 -8.28613s-4.20801 -6.43555 -6.1709 -8.74805
c-1.96484 -2.31348 -5.25977 -5.6416 -7.32227 -7.39746c-2.0625 -1.75488 -5.85938 -4.43848 -8.4375 -5.96289s-6.79688 -3.58496 -9.375 -4.5791c-2.57812 -0.995117 -6.9375 -2.2959 -9.6875 -2.8916c-3.24414 -0.702148 -7.74414 -1.08203 -12.8125 -1.08203
c-5.06055 0 -9.56152 0.379883 -12.7783 1.07812c-2.73047 0.591797 -7.50586 2.09375 -10.6104 3.33691c-3.10547 1.24316 -8.0791 3.8877 -11.0537 5.87695s-7.4043 5.61328 -9.84277 8.05176c-2.43945 2.43945 -5.67383 6.31152 -7.18945 8.60449
c-1.51465 2.29297 -3.59766 5.85645 -4.62891 7.91895s-2.58594 6.00684 -3.45605 8.76465c-0.869141 2.75879 -1.92578 7.37793 -2.34863 10.2656c-0.46875 3.20508 -0.620117 7.8252 -0.389648 11.8604c0.208008 3.63477 0.933594 8.85938 1.6123 11.6094
s2.08203 7.0459 3.11914 9.54785c1.03613 2.50098 3.47852 7.00098 5.42871 10c1.94922 2.99805 5.68848 7.56348 8.30957 10.1436c2.62109 2.58105 6.33789 5.73047 8.25977 6.99902s5.4375 3.28027 7.8125 4.46973c2.375 1.19141 6.07324 2.75488 8.21875 3.47559
c2.14453 0.720703 6.08203 1.72461 8.75 2.22949c3.25293 0.617188 7.4209 0.837891 12.6621 0.670898z" />
  </g>

</svg>
