<?xml version="1.0" standalone="no"?>
<!DOCTYPE svg PUBLIC "-//W3C//DTD SVG 1.1//EN" "http://www.w3.org/Graphics/SVG/1.1/DTD/svg11.dtd" >
<svg xmlns="http://www.w3.org/2000/svg" xmlns:xlink="http://www.w3.org/1999/xlink" version="1.1" viewBox="-10 0 1010 1000">
  <g transform="matrix(1 0 0 -1 0 800)">
   <path fill="currentColor"
d="M249.187 737.436c76.7744 0.0546875 91.1836 -0.0742188 97.2744 -0.873047c3.93359 -0.515625 9.92383 -1.65527 13.3154 -2.53418c3.38867 -0.87793 8.97461 -2.71875 12.4121 -4.0918s8.92188 -4.00684 12.1875 -5.85449
c3.26562 -1.84668 8.32812 -5.12402 11.25 -7.2832s7.98438 -6.61133 11.25 -9.89355s7.50781 -8.07715 9.42773 -10.6553s4.84961 -6.9375 6.50977 -9.6875s4.24121 -7.75488 5.73535 -11.1221c1.49414 -3.36816 3.55371 -8.99316 4.57617 -12.5
c1.02246 -3.50781 2.33789 -8.76855 2.92383 -11.6904c0.966797 -4.8291 1.08301 -13.7236 1.27637 -97.7627c0.182617 -79.9785 0.0830078 -93.4365 -0.739258 -99.7568c-0.522461 -4.01855 -1.66016 -10.0381 -2.52734 -13.377s-2.41797 -8.24805 -3.44434 -10.9102
c-1.02637 -2.66309 -3.08203 -7.22363 -4.56836 -10.1367c-1.48633 -2.91211 -4.28711 -7.67383 -6.22363 -10.582s-5.76758 -7.8623 -8.5127 -11.0088c-2.74512 -3.14746 -7.32715 -7.68066 -10.1816 -10.0742c-2.85449 -2.39453 -7.2998 -5.75195 -9.87793 -7.46289
s-6.51562 -4.12305 -8.75 -5.36035c-2.23438 -1.23633 -6.93945 -3.38867 -10.4561 -4.78223s-9.10254 -3.2373 -12.4131 -4.09766c-3.31055 -0.859375 -9.23633 -1.98535 -13.1699 -2.50098c-6.06738 -0.795898 -20.6748 -0.9375 -96.4609 -0.9375
c-75.7852 0 -90.3936 0.141602 -96.46 0.9375c-3.93359 0.515625 -9.875 1.64453 -13.2031 2.50977c-3.3291 0.864258 -8.21191 2.40527 -10.8506 3.42285s-7.28516 3.12988 -10.3242 4.69434c-3.03906 1.56348 -7.82031 4.37207 -10.625 6.23926
c-2.80469 1.86816 -7.62988 5.60645 -10.7236 8.30957c-3.09375 2.70215 -7.62695 7.2832 -10.0742 10.1807c-2.44629 2.89746 -5.9248 7.47559 -7.72949 10.1738c-1.80469 2.69922 -4.5127 7.32031 -6.01855 10.2705c-1.50488 2.9502 -3.57715 7.54199 -4.60352 10.2051
c-1.02637 2.66211 -2.5752 7.56348 -3.43945 10.8926c-0.865234 3.32812 -1.99414 9.26953 -2.50977 13.2031c-0.795898 6.06738 -0.9375 20.6748 -0.9375 96.4609s0.141602 90.3936 0.9375 96.4609c0.515625 3.93359 1.65625 9.92383 2.53516 13.3145
c0.878906 3.38867 2.59375 8.69336 3.81348 11.7871c1.21875 3.09375 3.35156 7.73438 4.74121 10.3125c1.3877 2.57812 3.92773 6.79688 5.64355 9.375s5.12109 7.05859 7.56738 9.95605c2.44727 2.89746 6.98047 7.47852 10.0742 10.1807
c3.09375 2.70312 8.00391 6.49805 10.9121 8.43457s7.66992 4.7373 10.582 6.22363c2.91309 1.48633 7.49023 3.54785 10.1719 4.58301c2.68164 1.0332 7.65332 2.59473 11.0488 3.46973c3.39355 0.874023 8.95312 1.96875 12.3535 2.43164
c4.92383 0.670898 24.5127 0.855469 96.3047 0.90625zM751.875 737.224c5.66602 -0.179688 9.47949 -0.679688 13.8799 -1.81836c3.33691 -0.863281 8.53223 -2.77441 11.5449 -4.24609c3.01172 -1.4707 7.63477 -4.30273 10.2744 -6.29004
c2.6377 -1.98828 6.28027 -5.23242 8.09375 -7.21094c1.81348 -1.97754 4.80859 -5.90918 6.65625 -8.73535c1.84668 -2.82715 4.20605 -7.18652 5.24219 -9.6875c1.03711 -2.50195 2.48438 -6.79785 3.21777 -9.54785c1.27246 -4.77539 1.34277 -6.62207 1.55664 -41.0615
l0.224609 -36.0605l36.0605 -0.209961l36.0615 -0.210938l6.06738 -1.6543c3.33691 -0.910156 8.53223 -2.85938 11.5449 -4.33105c3.01172 -1.4707 7.63477 -4.30273 10.2744 -6.29004c2.6377 -1.98828 6.28027 -5.23242 8.09375 -7.21094
c1.81348 -1.97754 4.80859 -5.90918 6.65625 -8.73535c1.84668 -2.82715 4.20605 -7.18652 5.24414 -9.6875c1.03711 -2.50195 2.48926 -6.93848 3.22754 -9.86035c1.06738 -4.22266 1.3418 -7.1709 1.3418 -14.375s-0.274414 -10.1523 -1.3418 -14.375
c-0.738281 -2.92188 -2.19043 -7.3584 -3.22754 -9.86035c-1.03809 -2.50098 -3.39746 -6.86035 -5.24414 -9.6875c-1.84766 -2.82617 -4.84277 -6.75781 -6.65625 -8.73535c-1.81348 -1.97852 -5.45605 -5.22266 -8.09375 -7.21094
c-2.63965 -1.9873 -7.2627 -4.81934 -10.2744 -6.29004c-3.0127 -1.47168 -8.20801 -3.4209 -11.5449 -4.33105l-6.06738 -1.6543l-36.0615 -0.210938l-36.0605 -0.209961l-0.224609 -36.0596c-0.213867 -34.4404 -0.28418 -36.2861 -1.55664 -41.0615
c-0.733398 -2.75 -2.18066 -7.0459 -3.21777 -9.54785c-1.03613 -2.50098 -3.39551 -6.86035 -5.24219 -9.6875c-1.84766 -2.82617 -4.84277 -6.75781 -6.65625 -8.73535c-1.81348 -1.97852 -5.45605 -5.22266 -8.09375 -7.21094
c-2.63965 -1.9873 -7.2627 -4.81934 -10.2744 -6.29004c-3.0127 -1.47168 -8.20801 -3.37793 -11.5449 -4.23535c-3.73828 -0.960938 -8.70703 -1.69336 -12.9424 -1.90527c-4.91406 -0.248047 -8.53516 -0.0556641 -12.6963 0.670898
c-3.20215 0.560547 -7.56152 1.60254 -9.6875 2.31738s-5.80957 2.27246 -8.18457 3.46387c-2.375 1.18945 -5.89062 3.20117 -7.8125 4.46973s-5.63867 4.41797 -8.25977 6.99902c-2.62109 2.58008 -6.36035 7.14551 -8.30957 10.1436
c-1.9502 2.99902 -4.39258 7.49902 -5.42871 10c-1.03711 2.50195 -2.48438 6.79785 -3.21777 9.54785c-1.27246 4.77539 -1.34277 6.62207 -1.55664 41.0938l-0.224609 36.0938h-33.6348c-27.3096 0 -34.6621 0.178711 -39.0908 0.951172
c-3 0.523438 -7.18555 1.5332 -9.30078 2.24414s-5.78906 2.26562 -8.16406 3.45703c-2.375 1.18945 -5.89062 3.20117 -7.8125 4.46973s-5.63867 4.41797 -8.25977 6.99902c-2.62109 2.58008 -6.36035 7.14551 -8.30957 10.1436
c-1.9502 2.99902 -4.39258 7.49902 -5.43066 10c-1.03711 2.50195 -2.48926 6.93848 -3.22754 9.86035c-1.06738 4.22266 -1.3418 7.1709 -1.3418 14.375s0.274414 10.1523 1.3418 14.375c0.738281 2.92188 2.19043 7.3584 3.22754 9.86035
c1.03809 2.50098 3.48047 7.00098 5.43066 10c1.94922 2.99805 5.68848 7.56348 8.30957 10.1436c2.62109 2.58105 6.33789 5.73047 8.25977 6.99902s5.4375 3.28027 7.8125 4.46973c2.375 1.19141 6.04883 2.74609 8.16406 3.45703s6.30078 1.7207 9.30078 2.24414
c4.42871 0.772461 11.7812 0.951172 39.0908 0.951172h33.6348l0.224609 36.0938c0.213867 34.4717 0.28418 36.3184 1.55664 41.0938c0.733398 2.75 2.18066 7.0459 3.21777 9.54785c1.03613 2.50098 3.47852 7.00098 5.42871 10
c1.94922 2.99805 5.68848 7.56348 8.30957 10.1436c2.62109 2.58105 6.33789 5.73047 8.25977 6.99902s5.4375 3.28027 7.8125 4.46973c2.375 1.19141 6.07324 2.75488 8.21875 3.47559c2.14453 0.720703 6.08203 1.72461 8.75 2.22949
c3.25293 0.617188 7.4209 0.837891 12.6621 0.669922zM250 612.5h-62.5v-62.5v-62.5h62.5h62.5v62.5v62.5h-62.5zM249.187 237.436c76.7744 0.0546875 91.1836 -0.0742188 97.2744 -0.873047c3.93359 -0.515625 9.92383 -1.65527 13.3154 -2.53418
c3.38867 -0.87793 8.97461 -2.71875 12.4121 -4.0918s8.92188 -4.00684 12.1875 -5.85449c3.26562 -1.84668 8.32812 -5.12402 11.25 -7.2832s7.98438 -6.61133 11.25 -9.89355s7.50781 -8.07715 9.42773 -10.6553s4.84961 -6.9375 6.50977 -9.6875
s4.24121 -7.75488 5.73535 -11.1221c1.49414 -3.36816 3.55371 -8.99316 4.57617 -12.5c1.02246 -3.50781 2.33789 -8.76855 2.92383 -11.6904c0.966797 -4.8291 1.08301 -13.7236 1.27637 -97.7627c0.182617 -79.9785 0.0830078 -93.4365 -0.739258 -99.7568
c-0.522461 -4.01855 -1.66016 -10.0381 -2.52734 -13.377s-2.41797 -8.24805 -3.44434 -10.9102c-1.02637 -2.66309 -3.08203 -7.22363 -4.56836 -10.1367c-1.48633 -2.91211 -4.28711 -7.67383 -6.22363 -10.582s-5.76758 -7.8623 -8.5127 -11.0088
c-2.74512 -3.14746 -7.32715 -7.68066 -10.1816 -10.0742c-2.85449 -2.39453 -7.2998 -5.75195 -9.87793 -7.46289s-6.51562 -4.12305 -8.75 -5.36035c-2.23438 -1.23633 -6.93945 -3.38867 -10.4561 -4.78223s-9.10254 -3.2373 -12.4131 -4.09766
c-3.31055 -0.859375 -9.23633 -1.98535 -13.1699 -2.50098c-6.06738 -0.795898 -20.6748 -0.9375 -96.4609 -0.9375c-75.7852 0 -90.3936 0.141602 -96.46 0.9375c-3.93359 0.515625 -9.875 1.64453 -13.2031 2.50977c-3.3291 0.864258 -8.21191 2.40527 -10.8506 3.42285
s-7.28516 3.12988 -10.3242 4.69434c-3.03906 1.56348 -7.82031 4.37207 -10.625 6.23926c-2.80469 1.86816 -7.62988 5.60645 -10.7236 8.30957c-3.09375 2.70215 -7.62695 7.2832 -10.0742 10.1807c-2.44629 2.89746 -5.9248 7.47559 -7.72949 10.1738
c-1.80469 2.69922 -4.5127 7.32031 -6.01855 10.2705c-1.50488 2.9502 -3.57715 7.54199 -4.60352 10.2051c-1.02637 2.66211 -2.5752 7.56348 -3.43945 10.8926c-0.865234 3.32812 -1.99414 9.26953 -2.50977 13.2031c-0.795898 6.06738 -0.9375 20.6748 -0.9375 96.4609
s0.141602 90.3936 0.9375 96.4609c0.515625 3.93359 1.65625 9.92383 2.53516 13.3145c0.878906 3.38867 2.59375 8.69336 3.81348 11.7871c1.21875 3.09375 3.35156 7.73438 4.74121 10.3125c1.3877 2.57812 3.92773 6.79688 5.64355 9.375
s5.12109 7.05859 7.56738 9.95605c2.44727 2.89746 6.98047 7.47852 10.0742 10.1807c3.09375 2.70312 8.00391 6.49805 10.9121 8.43457s7.66992 4.7373 10.582 6.22363c2.91309 1.48633 7.49023 3.54785 10.1719 4.58301c2.68164 1.0332 7.65332 2.59473 11.0488 3.46973
c3.39355 0.874023 8.95312 1.96875 12.3535 2.43164c4.92383 0.670898 24.5127 0.855469 96.3047 0.90625zM749.187 237.436c76.7744 0.0546875 91.1836 -0.0742188 97.2744 -0.873047c3.93359 -0.515625 9.92383 -1.65527 13.3154 -2.53418
c3.38867 -0.87793 8.97461 -2.71875 12.4121 -4.0918s8.92188 -4.00684 12.1875 -5.85449c3.26562 -1.84668 8.32812 -5.12402 11.25 -7.2832s7.98438 -6.61133 11.25 -9.89355s7.50781 -8.07715 9.42773 -10.6553s4.84961 -6.9375 6.50977 -9.6875
s4.24121 -7.75488 5.73535 -11.1221c1.49414 -3.36816 3.55371 -8.99316 4.57617 -12.5c1.02246 -3.50781 2.33789 -8.76855 2.92383 -11.6904c0.966797 -4.8291 1.08301 -13.7236 1.27637 -97.7627c0.182617 -79.9785 0.0830078 -93.4365 -0.739258 -99.7568
c-0.522461 -4.01855 -1.66016 -10.0381 -2.52734 -13.377s-2.41797 -8.24805 -3.44434 -10.9102c-1.02637 -2.66309 -3.08203 -7.22363 -4.56836 -10.1367c-1.48633 -2.91211 -4.28711 -7.67383 -6.22363 -10.582s-5.76758 -7.8623 -8.5127 -11.0088
c-2.74512 -3.14746 -7.32715 -7.68066 -10.1816 -10.0742c-2.85449 -2.39453 -7.2998 -5.75195 -9.87793 -7.46289s-6.51562 -4.12305 -8.75 -5.36035c-2.23438 -1.23633 -6.93945 -3.38867 -10.4561 -4.78223s-9.10254 -3.2373 -12.4131 -4.09766
c-3.31055 -0.859375 -9.23633 -1.98535 -13.1699 -2.50098c-6.06738 -0.795898 -20.6748 -0.9375 -96.4609 -0.9375c-75.7852 0 -90.3936 0.141602 -96.46 0.9375c-3.93359 0.515625 -9.875 1.64453 -13.2031 2.50977c-3.3291 0.864258 -8.21191 2.40527 -10.8506 3.42285
s-7.28516 3.12988 -10.3242 4.69434c-3.03906 1.56348 -7.82031 4.37207 -10.625 6.23926c-2.80469 1.86816 -7.62988 5.60645 -10.7236 8.30957c-3.09375 2.70215 -7.62695 7.2832 -10.0742 10.1807c-2.44629 2.89746 -5.9248 7.47559 -7.72949 10.1738
c-1.80469 2.69922 -4.5127 7.32031 -6.01855 10.2705c-1.50488 2.9502 -3.57715 7.54199 -4.60352 10.2051c-1.02637 2.66211 -2.5752 7.56348 -3.43945 10.8926c-0.865234 3.32812 -1.99414 9.26953 -2.50977 13.2031c-0.795898 6.06738 -0.9375 20.6748 -0.9375 96.4609
s0.141602 90.3936 0.9375 96.4609c0.515625 3.93359 1.65625 9.92383 2.53516 13.3145c0.878906 3.38867 2.59375 8.69336 3.81348 11.7871c1.21875 3.09375 3.35156 7.73438 4.74121 10.3125c1.3877 2.57812 3.92773 6.79688 5.64355 9.375
s5.12109 7.05859 7.56738 9.95605c2.44727 2.89746 6.98047 7.47852 10.0742 10.1807c3.09375 2.70312 8.00391 6.49805 10.9121 8.43457s7.66992 4.7373 10.582 6.22363c2.91309 1.48633 7.49023 3.54785 10.1719 4.58301c2.68164 1.0332 7.65332 2.59473 11.0488 3.46973
c3.39355 0.874023 8.95312 1.96875 12.3535 2.43164c4.92383 0.670898 24.5127 0.855469 96.3047 0.90625zM250 112.5h-62.5v-62.5v-62.5h62.5h62.5v62.5v62.5h-62.5zM750 112.5h-62.5v-62.5v-62.5h62.5h62.5v62.5v62.5h-62.5z" />
  </g>

</svg>
