<?xml version="1.0" standalone="no"?>
<!DOCTYPE svg PUBLIC "-//W3C//DTD SVG 1.1//EN" "http://www.w3.org/Graphics/SVG/1.1/DTD/svg11.dtd" >
<svg xmlns="http://www.w3.org/2000/svg" xmlns:xlink="http://www.w3.org/1999/xlink" version="1.1" viewBox="-10 0 1010 1000">
  <g transform="matrix(1 0 0 -1 0 800)">
   <path fill="currentColor"
d="M498.931 695.555c208.209 0.0488281 304.26 -0.134766 308.438 -0.588867c3.33789 -0.362305 9.51074 -1.34766 13.7188 -2.18945c4.20703 -0.841797 11.5576 -2.81152 16.334 -4.37793c4.77734 -1.56738 12.585 -4.75391 17.3506 -7.08203
c4.7666 -2.32812 11.0566 -5.72754 13.9785 -7.55469c2.92188 -1.82617 7.94043 -5.29883 11.1523 -7.71777c3.21191 -2.41797 8.65039 -7.06934 12.0859 -10.3369c3.43652 -3.2666 8.50195 -8.62891 11.2578 -11.917c2.75684 -3.28711 7.25977 -9.35254 10.0098 -13.4775
c2.74805 -4.125 6.9209 -11.4375 9.27148 -16.25s5.3916 -12.0186 6.75879 -16.0137c1.36719 -3.99414 3.19727 -10.1816 4.06738 -13.75c0.869141 -3.56738 2.08008 -9.7207 2.69043 -13.6738c0.806641 -5.21973 1.11035 -10.8652 1.11035 -20.625
c0 -9.77246 -0.302734 -15.3975 -1.11133 -20.625c-0.612305 -3.95312 -1.92188 -10.4219 -2.91113 -14.375c-0.988281 -3.95312 -2.81738 -10.1406 -4.06348 -13.75c-1.24512 -3.60938 -4.20117 -10.5 -6.56934 -15.3125
c-2.36719 -4.8125 -6.23926 -11.7031 -8.60449 -15.3125c-2.36621 -3.60938 -6.09668 -8.8125 -8.29102 -11.5625s-6.39258 -7.49805 -9.32812 -10.5508c-2.93555 -3.05469 -8.18262 -7.89648 -11.6602 -10.7627s-9.10254 -7.05859 -12.5 -9.31738
c-3.39746 -2.25781 -8.77246 -5.43066 -11.9443 -7.05078l-5.76562 -2.94336l-0.1875 -190.625l-0.1875 -190.625l-1.33887 -8.125c-0.736328 -4.46875 -2.05859 -10.959 -2.93652 -14.4238c-0.878906 -3.46387 -2.60645 -9.22949 -3.83984 -12.8125
c-1.2334 -3.58203 -4.3125 -10.7324 -6.84277 -15.8887c-2.5293 -5.15625 -6.34082 -12.0469 -8.4668 -15.3125c-2.12695 -3.26562 -6.00098 -8.60938 -8.60938 -11.875s-7.42871 -8.62305 -10.7129 -11.9053c-3.28418 -3.2832 -8.34375 -7.87305 -11.2441 -10.2002
c-2.90039 -2.32812 -7.96289 -6.01953 -11.25 -8.20312c-3.28711 -2.18457 -9.21094 -5.6543 -13.1641 -7.71094s-10.4336 -5.01172 -14.4004 -6.56641c-3.9668 -1.55566 -10.4355 -3.68555 -14.375 -4.73438s-10.3965 -2.5332 -14.3496 -3.29883l-7.1875 -1.39258
l-220.625 -0.214844c-156.784 -0.152344 -222.614 -0.0175781 -227.5 0.46875c-3.78125 0.376953 -10.3906 1.38867 -14.6875 2.24805c-4.29688 0.860352 -11.918 2.93066 -16.9346 4.60254c-5.0166 1.6709 -12.123 4.45312 -15.791 6.18359
s-9.40723 4.77441 -12.7529 6.7666c-3.34668 1.99121 -9.375 6.09277 -13.3984 9.11426c-4.02246 3.02246 -10.3721 8.51172 -14.1113 12.2002c-3.73828 3.6875 -8.92383 9.37695 -11.5234 12.6426s-6.4668 8.60938 -8.59375 11.875
c-2.12598 3.26562 -5.9375 10.1562 -8.4668 15.3125c-2.53027 5.15625 -5.60938 12.3066 -6.84277 15.8887c-1.2334 3.58301 -2.96094 9.34863 -3.83984 12.8125c-0.87793 3.46484 -2.2002 9.95508 -2.93652 14.4238l-1.33887 8.125l-0.1875 190.625l-0.1875 190.625
l-5.37109 2.75c-2.9541 1.5127 -7.93945 4.43652 -11.0791 6.49707c-3.13867 2.06152 -7.81641 5.35449 -10.3945 7.31934c-2.57812 1.96582 -7.4502 6.18945 -10.8252 9.3877c-3.37695 3.19824 -8.39844 8.51074 -11.1602 11.8057s-7.27051 9.36523 -10.0205 13.4902
c-2.74805 4.125 -6.9209 11.4375 -9.27148 16.25s-5.3916 12.0186 -6.75879 16.0137c-1.36719 3.99414 -3.19727 10.1816 -4.06738 13.75c-0.869141 3.56738 -2.08008 9.7207 -2.69043 13.6738c-0.806641 5.21973 -1.11035 10.8652 -1.11035 20.625
s0.303711 15.4053 1.11035 20.625c0.610352 3.95312 1.82129 10.1064 2.69043 13.6738c0.870117 3.56836 2.7002 9.75586 4.06738 13.75c1.36719 3.99512 4.4082 11.2158 6.75879 16.0459c2.35156 4.83008 6.52637 12.1426 9.27832 16.25
c2.75293 4.10742 7.24512 10.1396 9.98438 13.4053c2.73828 3.26562 7.47656 8.33496 10.5283 11.2646c3.05176 2.93066 7.51855 6.89453 9.92578 8.80957c2.40723 1.91602 7.18848 5.37598 10.625 7.69043c3.43652 2.31348 10.748 6.42676 16.248 9.1416
c5.56055 2.74414 13.7461 6.16113 18.4375 7.69727c4.64062 1.51953 11.2695 3.36914 14.7305 4.10938c3.46094 0.741211 9.22656 1.72363 12.8125 2.18457c5.36133 0.688477 60.2188 0.849609 308.888 0.907227h-0.000976562zM500.938 570.416
c-163.281 0.0576172 -297.578 -0.111328 -298.438 -0.374023c-0.859375 -0.263672 -2.7002 -1.05957 -4.09082 -1.77051c-1.39062 -0.709961 -3.73535 -2.60156 -5.21191 -4.20312c-1.47559 -1.60059 -3.28809 -4.22656 -4.02832 -5.83301
c-1.04102 -2.26367 -1.34375 -4.12109 -1.34375 -8.23535s0.302734 -5.97168 1.34375 -8.23535c0.740234 -1.60645 2.55371 -4.2334 4.03125 -5.83691c1.47754 -1.60254 4.10449 -3.66309 5.83691 -4.57715l3.15039 -1.66309h297.812h297.812l2.71777 1.4502
c1.49609 0.798828 3.95117 2.58691 5.45703 3.97461c1.50488 1.3877 3.5166 4.11035 4.46875 6.04883c1.48242 3.01855 1.73047 4.29102 1.72559 8.83887c-0.00488281 4.10547 -0.311523 5.97656 -1.35059 8.23535c-0.740234 1.60645 -2.55371 4.2334 -4.03125 5.83691
c-1.47754 1.60254 -4.10449 3.66309 -5.83691 4.57715l-3.15039 1.66309zM500.137 404.22c-182.812 0.125 -228.984 0 -229.225 -0.625c-0.165039 -0.430664 -0.227539 -81.2256 -0.137695 -179.545l0.163086 -178.764l2.05469 -4.17285
c1.26758 -2.57617 3.14551 -5.13281 4.9082 -6.68457c1.56934 -1.38184 4.38184 -3.08398 6.25 -3.7832c3.39062 -1.26758 3.76562 -1.27051 215.85 -1.27051c212.085 0 212.459 0.00292969 215.851 1.27051c1.86816 0.699219 4.68066 2.40137 6.25 3.7832
c1.7627 1.55176 3.64062 4.1084 4.9082 6.68457l2.05469 4.17285v179.389v179.389zM499.421 362.443c78.7881 0.0507812 89.1289 -0.0537109 94.375 -0.953125c3.24023 -0.555664 7.86035 -1.71484 10.2666 -2.57812c2.40625 -0.861328 5.78125 -2.27441 7.5 -3.13867
s4.8125 -2.70801 6.875 -4.0957c2.0625 -1.38867 5.78223 -4.48438 8.2666 -6.87988c2.4834 -2.39453 5.94922 -6.42871 7.70312 -8.96582c1.75293 -2.53516 4.27051 -6.92383 5.5957 -9.75293c1.3252 -2.82812 3.06152 -7.53223 3.85938 -10.4541
c1.24414 -4.55664 1.4502 -6.78027 1.4502 -15.625s-0.206055 -11.0684 -1.4502 -15.625c-0.797852 -2.92188 -2.53418 -7.62598 -3.85938 -10.4541c-1.3252 -2.8291 -3.84277 -7.21777 -5.5957 -9.75293c-1.75391 -2.53711 -5.21973 -6.57129 -7.70312 -8.96582
c-2.48438 -2.39551 -6.2041 -5.49121 -8.2666 -6.87988c-2.0625 -1.3877 -5.15625 -3.23145 -6.875 -4.0957s-5.10547 -2.28223 -7.52637 -3.15137s-7.20215 -2.04102 -10.625 -2.60547c-5.60645 -0.924805 -15.1455 -1.00879 -96.2236 -0.84082l-90 0.185547
l-5.94434 1.64355c-3.27051 0.904297 -7.87988 2.52148 -10.2441 3.59277c-2.36328 1.07227 -6.5791 3.46973 -9.36719 5.32715c-2.78809 1.8584 -7.05762 5.44434 -9.48926 7.96875c-2.43164 2.52539 -5.63086 6.38574 -7.11035 8.5791s-3.75977 6.27148 -5.06738 9.0625
s-3.0293 7.46484 -3.82715 10.3867c-1.24414 4.55664 -1.4502 6.78027 -1.4502 15.625s0.206055 11.0684 1.4502 15.625c0.797852 2.92188 2.53027 7.61621 3.84863 10.4326c1.31934 2.81543 3.47852 6.75293 4.79883 8.75c1.32031 1.99609 4.49512 5.8291 7.05566 8.5166
c2.56152 2.6875 6.95215 6.41309 9.75879 8.28125c2.80566 1.86621 6.90332 4.21094 9.10547 5.20996c2.20215 0.998047 5.67285 2.2998 7.71191 2.89258s5.69043 1.43848 8.11426 1.87891c3.43652 0.624023 23.8809 0.8125 92.8896 0.856445z" />
  </g>

</svg>
