<?xml version="1.0" standalone="no"?>
<!DOCTYPE svg PUBLIC "-//W3C//DTD SVG 1.1//EN" "http://www.w3.org/Graphics/SVG/1.1/DTD/svg11.dtd" >
<svg xmlns="http://www.w3.org/2000/svg" xmlns:xlink="http://www.w3.org/1999/xlink" version="1.1" viewBox="-10 0 1010 1000">
  <g transform="matrix(1 0 0 -1 0 800)">
   <path fill="currentColor"
d="M566.875 737.189c5.07812 -0.160156 9.50586 -0.686523 12.6514 -1.50391c2.66113 -0.691406 6.52344 -1.93652 8.58105 -2.76855c2.05859 -0.831055 5.89746 -2.74219 8.53125 -4.24609c2.79102 -1.59277 7.22949 -5.04102 10.6406 -8.26562
c3.43555 -3.24805 7.25879 -7.64941 9.26074 -10.6572c1.87598 -2.81836 4.25586 -7.11133 5.28906 -9.54004s2.46875 -6.56641 3.19043 -9.19531c0.720703 -2.62891 1.5127 -7.30664 1.75977 -10.3965c0.24707 -3.08887 0.24707 -8.14355 0 -11.2324
c-0.24707 -3.08984 -1.03906 -7.76758 -1.75977 -10.3965c-0.72168 -2.62891 -2.15723 -6.7666 -3.19043 -9.19531s-3.43457 -6.75293 -5.33496 -9.60938c-2.92773 -4.40039 -29.1357 -30.752 -171.596 -172.532l-168.14 -167.338l53.9639 -0.324219l53.9639 -0.324219
l6.06738 -1.66504c3.33691 -0.915039 8.53223 -2.86816 11.5449 -4.33984c3.01172 -1.4707 7.63477 -4.30273 10.2744 -6.29004c2.6377 -1.98828 6.28027 -5.23242 8.09375 -7.21094c1.81348 -1.97754 4.80859 -5.90918 6.65625 -8.73535
c1.84668 -2.82715 4.20605 -7.18652 5.24414 -9.6875c1.03711 -2.50195 2.48926 -6.93848 3.22754 -9.86035c1.06738 -4.22266 1.3418 -7.1709 1.3418 -14.375s-0.274414 -10.1523 -1.3418 -14.375c-0.738281 -2.92188 -2.19043 -7.3584 -3.22754 -9.86035
c-1.03809 -2.50098 -3.39746 -6.86035 -5.24414 -9.6875c-1.84766 -2.82617 -4.84277 -6.75781 -6.65625 -8.73535c-1.81348 -1.97852 -5.45605 -5.22266 -8.09375 -7.21094c-2.63965 -1.9873 -7.2627 -4.81934 -10.2744 -6.29004
c-3.0127 -1.47168 -8.20801 -3.43066 -11.5449 -4.35254l-6.06738 -1.67578l-132.166 -0.166016c-116.196 -0.146484 -132.835 -0.0507812 -137.695 0.788086c-3.04199 0.524414 -7.27051 1.53906 -9.39648 2.25391s-5.80957 2.27246 -8.18457 3.46387
c-2.375 1.18945 -5.89062 3.20117 -7.8125 4.46973s-5.63867 4.41797 -8.25977 6.99902c-2.62109 2.58008 -6.37695 7.16992 -8.3457 10.1992c-1.96973 3.02832 -4.50391 7.80957 -5.63477 10.625c-1.12988 2.81445 -2.57715 7.36719 -3.2168 10.1172
c-1.11426 4.79199 -1.16211 10.5527 -1.16211 138.438c0 127.886 0.0478516 133.646 1.16211 138.438c0.639648 2.75 2.08691 7.30273 3.2168 10.1172c1.13086 2.81543 3.66504 7.59668 5.63477 10.625c1.96875 3.0293 5.72461 7.61914 8.3457 10.1992
c2.62109 2.58105 6.33789 5.73047 8.25977 6.99902s5.4375 3.28027 7.8125 4.46973c2.375 1.19141 6.05859 2.74902 8.18457 3.46387s6.48535 1.75684 9.6875 2.31738c4.16113 0.726562 7.78223 0.918945 12.6963 0.670898
c4.23535 -0.211914 9.2041 -0.944336 12.9424 -1.90527c3.33691 -0.857422 8.53223 -2.76367 11.5449 -4.23535c3.01172 -1.4707 7.63477 -4.30273 10.2744 -6.29004c2.6377 -1.98828 6.28027 -5.23242 8.09375 -7.21094
c1.81348 -1.97754 4.80859 -5.90918 6.65625 -8.73535c1.84668 -2.82715 4.20605 -7.18652 5.24219 -9.6875c1.03711 -2.50195 2.48926 -6.79785 3.22754 -9.54785c1.31055 -4.88281 1.34961 -6.27539 1.68066 -59.499l0.337891 -54.499l168.168 167.312
c126.305 125.663 169.366 168.142 172.981 170.642c2.64941 1.83008 6.84863 4.26172 9.33301 5.4043s6.54492 2.67676 9.02441 3.41016s6.13574 1.59082 8.125 1.90625s7.13281 0.461914 11.4297 0.327148zM751.875 424.793h0.000976562l132.812 -0.105469
l6.06738 -1.67578c3.33691 -0.921875 8.53223 -2.88086 11.5449 -4.35254c3.01172 -1.4707 7.63477 -4.30273 10.2744 -6.29004c2.6377 -1.98828 6.28027 -5.23242 8.09375 -7.21094c1.81348 -1.97754 4.82422 -5.93359 6.69141 -8.79102
c1.86719 -2.85645 4.31836 -7.49707 5.44922 -10.3125c1.12988 -2.81445 2.57715 -7.36719 3.2168 -10.1172c1.11426 -4.79199 1.16211 -10.5527 1.16211 -138.438c0 -127.886 -0.0478516 -133.646 -1.16211 -138.438c-0.639648 -2.75 -2.08691 -7.30273 -3.2168 -10.1172
c-1.13086 -2.81543 -3.58203 -7.45605 -5.44922 -10.3125c-1.86719 -2.85742 -4.87793 -6.81348 -6.69141 -8.79102c-1.81348 -1.97852 -5.45605 -5.22266 -8.09375 -7.21094c-2.63965 -1.9873 -7.2627 -4.81934 -10.2744 -6.29004
c-3.0127 -1.47168 -8.20801 -3.37793 -11.5449 -4.23535c-3.73828 -0.960938 -8.70703 -1.69336 -12.9424 -1.90527c-4.91406 -0.248047 -8.53516 -0.0556641 -12.6963 0.670898c-3.20215 0.560547 -7.56152 1.60254 -9.6875 2.31738s-5.80957 2.27246 -8.18457 3.46387
c-2.375 1.18945 -5.89062 3.20117 -7.8125 4.46973s-5.63867 4.41797 -8.25977 6.99902c-2.62109 2.58008 -6.36035 7.14551 -8.30957 10.1436c-1.9502 2.99902 -4.39258 7.49902 -5.42871 10c-1.03711 2.50195 -2.49023 6.79785 -3.22949 9.54785
c-1.31738 4.90527 -1.34766 6.03418 -1.54688 59.3506l-0.203125 54.3496l-167.32 -167.253c-92.0264 -91.9902 -169.051 -168.506 -171.166 -170.037c-2.11523 -1.53027 -6.27539 -3.96973 -9.24512 -5.41992c-2.96973 -1.45117 -8.12988 -3.33984 -11.4668 -4.19727
c-3.73828 -0.960938 -8.70703 -1.69336 -12.9424 -1.90527c-4.91406 -0.248047 -8.53516 -0.0556641 -12.6963 0.670898c-3.20215 0.560547 -7.56152 1.60254 -9.6875 2.31738s-5.80957 2.27246 -8.18457 3.46387c-2.375 1.18945 -5.89062 3.20117 -7.8125 4.46973
s-5.63867 4.41797 -8.25977 6.99902c-2.62109 2.58008 -6.36035 7.14551 -8.30957 10.1436c-1.9502 2.99902 -4.39258 7.49902 -5.43066 10c-1.03711 2.50195 -2.48926 6.93848 -3.22754 9.86035c-1.06738 4.22266 -1.3418 7.1709 -1.3418 14.375
s0.274414 10.1523 1.3418 14.375c0.738281 2.92188 2.17676 7.3252 3.19727 9.78516c1.02051 2.46094 3.33203 6.82031 5.13574 9.6875c2.92285 4.64551 21.6338 23.5791 171.148 173.185l167.868 167.969h-51.9453c-43.7021 0 -52.8115 0.151367 -57.4004 0.951172
c-3 0.523438 -7.18555 1.5332 -9.30078 2.24414s-5.78906 2.26562 -8.16406 3.45703c-2.375 1.18945 -5.89062 3.20117 -7.8125 4.46973s-5.63867 4.41797 -8.25977 6.99902c-2.62109 2.58008 -6.36035 7.14551 -8.30957 10.1436
c-1.9502 2.99902 -4.39258 7.49902 -5.43066 10c-1.03711 2.50195 -2.48926 6.93848 -3.22754 9.86035c-1.06738 4.22266 -1.3418 7.1709 -1.3418 14.375s0.274414 10.1523 1.3418 14.375c0.738281 2.92188 2.19043 7.3584 3.22754 9.86035
c1.03809 2.50098 3.48047 7.00098 5.43066 10c1.94922 2.99805 5.68848 7.56348 8.30957 10.1436c2.62109 2.58105 6.33789 5.73047 8.25977 6.99902s5.4375 3.28027 7.8125 4.46973c2.375 1.19141 6.07324 2.75488 8.21875 3.47559
c2.14453 0.720703 6.08203 1.70703 8.75 2.19238c4.08789 0.744141 25.7051 0.865234 137.662 0.777344z" />
  </g>

</svg>
