<?xml version="1.0" standalone="no"?>
<!DOCTYPE svg PUBLIC "-//W3C//DTD SVG 1.1//EN" "http://www.w3.org/Graphics/SVG/1.1/DTD/svg11.dtd" >
<svg xmlns="http://www.w3.org/2000/svg" xmlns:xlink="http://www.w3.org/1999/xlink" version="1.1" viewBox="-10 0 1010 1000">
  <g transform="matrix(1 0 0 -1 0 800)">
   <path fill="currentColor"
d="M502.812 737.16c6.60254 -0.121094 14.79 -0.664062 18.4375 -1.22363c3.60938 -0.554688 9.48145 -1.71875 13.0488 -2.58691c3.56836 -0.868164 9.75586 -2.69629 13.75 -4.06348c3.99512 -1.36719 11.2012 -4.41406 16.0137 -6.77051
s11.7031 -6.22461 15.3125 -8.5957c3.60938 -2.37012 9.37793 -6.5791 12.8193 -9.35059c3.44141 -2.77246 8.95898 -7.85645 12.2598 -11.2979c3.30371 -3.44043 7.5459 -8.18652 9.42871 -10.5469c1.88379 -2.36035 5.30859 -7.10254 7.61328 -10.5391
c2.30371 -3.43652 6.37793 -10.6172 9.05371 -15.9551c2.8916 -5.77246 6.02148 -13.248 7.71875 -18.4375c1.57031 -4.80273 3.46582 -11.6836 4.21289 -15.293s1.75879 -9.78613 2.25 -13.7266c0.491211 -3.93945 0.893555 -11.4736 0.893555 -16.7432
c0 -5.26855 -0.294922 -12.3105 -0.655273 -15.6484c-0.361328 -3.33789 -1.08984 -8.43457 -1.61914 -11.3252c-0.530273 -2.89062 -1.90039 -8.65625 -3.04492 -12.8125c-1.14551 -4.15625 -3.38477 -10.791 -4.97754 -14.7441s-4.43848 -10.1084 -6.3252 -13.6777
c-1.8877 -3.57031 -5.21777 -9.20117 -7.40137 -12.5137c-2.18457 -3.3125 -5.8877 -8.40723 -8.22949 -11.3213c-2.3418 -2.91504 -7.22559 -8.25293 -10.8535 -11.8623c-3.62695 -3.60938 -8.98242 -8.41211 -11.9004 -10.6738s-7.4834 -5.57324 -10.1436 -7.35938
c-2.66113 -1.78613 -7.79395 -4.81152 -11.4062 -6.72363l-6.56738 -3.47656v-191.962v-191.963l42.9688 42.8467c26.0674 25.9932 44.3428 43.7354 46.4629 45.1094c1.92188 1.24316 5.4375 3.23535 7.8125 4.4248c2.375 1.19141 6.05859 2.74902 8.18457 3.46387
s6.48535 1.75684 9.6875 2.31738c4.16113 0.726562 7.78223 0.918945 12.6963 0.670898c4.23535 -0.211914 9.2041 -0.944336 12.9424 -1.90527c3.33691 -0.857422 8.53223 -2.76367 11.5449 -4.23535c3.01172 -1.4707 7.63477 -4.30273 10.2744 -6.29004
c2.6377 -1.98828 6.28027 -5.23242 8.09375 -7.21094c1.81348 -1.97754 4.80859 -5.90918 6.65625 -8.73535c1.84668 -2.82715 4.20605 -7.18652 5.24414 -9.6875c1.03711 -2.50195 2.48926 -6.93848 3.22754 -9.86035c1.06738 -4.22266 1.3418 -7.1709 1.3418 -14.375
s-0.274414 -10.1523 -1.3418 -14.375c-0.738281 -2.92188 -2.17676 -7.3252 -3.19727 -9.78516c-1.02051 -2.46094 -3.33203 -6.82031 -5.13867 -9.6875c-2.89355 -4.5957 -14.8184 -16.7666 -100.528 -102.603c-55.3887 -55.4697 -99.2695 -98.9248 -101.95 -100.96
c-2.58789 -1.9668 -7.16992 -4.7793 -10.1816 -6.25c-3.0127 -1.47168 -8.20801 -3.40234 -11.5449 -4.29102c-5.11035 -1.35938 -7.49805 -1.62402 -15.1299 -1.67578c-6.7793 -0.0458984 -10.3223 0.229492 -14.0625 1.0957
c-2.75 0.635742 -7.10938 2.02441 -9.6875 3.08594s-6.375 2.90527 -8.4375 4.09766c-2.0625 1.19336 -5.4375 3.51172 -7.5 5.15332s-47.3691 46.668 -100.682 100.058c-85.4287 85.5527 -97.3223 97.6924 -100.216 102.288
c-1.80664 2.86719 -4.11816 7.22656 -5.13867 9.6875c-1.02051 2.45996 -2.45898 6.86328 -3.19727 9.78516c-1.06738 4.22266 -1.3418 7.1709 -1.3418 14.375s0.274414 10.1523 1.3418 14.375c0.738281 2.92188 2.19043 7.3584 3.22754 9.86035
c1.03809 2.50098 3.48047 7.00098 5.43066 10c1.94922 2.99805 5.68848 7.56348 8.30957 10.1436c2.62109 2.58105 6.33789 5.73047 8.25977 6.99902s5.4375 3.28027 7.8125 4.46973c2.375 1.19141 6.05859 2.74902 8.18457 3.46387s6.48535 1.75684 9.6875 2.31738
c4.16113 0.726562 7.78223 0.918945 12.6963 0.670898c4.23535 -0.211914 9.2041 -0.944336 12.9424 -1.90527c3.33691 -0.857422 8.49707 -2.74609 11.4668 -4.19727c2.96973 -1.4502 7.12988 -3.8916 9.24512 -5.42383s22.9004 -21.8076 46.1895 -45.0547
l42.3438 -42.2686v191.972v191.971l-6.71875 3.55371c-3.69531 1.95508 -9.39062 5.39941 -12.6562 7.65234c-3.26562 2.25488 -8.04688 5.81152 -10.625 7.90527c-2.57812 2.09277 -7.37598 6.47754 -10.6602 9.74414c-3.28613 3.26758 -7.87598 8.31348 -10.2012 11.2139
s-6.01172 7.96289 -8.19238 11.25c-2.18164 3.28711 -5.51855 8.92969 -7.41504 12.5391c-1.89746 3.60938 -4.74316 9.73242 -6.32422 13.6064c-1.58008 3.87402 -3.82227 10.5088 -4.98438 14.7441c-1.16016 4.23535 -2.54297 10.0654 -3.07324 12.9561
c-0.529297 2.89062 -1.25781 7.9873 -1.61914 11.3252c-0.360352 3.33789 -0.655273 10.3779 -0.655273 15.6436s0.43457 13.0811 0.964844 17.3682c0.530273 4.28613 1.65234 10.8408 2.49219 14.5645c0.84082 3.72363 2.69043 10.2656 4.11133 14.5381
c1.41992 4.27148 4.4707 11.6309 6.77832 16.3535c2.30664 4.72363 5.68945 10.9785 7.5166 13.9004c1.82617 2.92188 5.29883 7.94043 7.71777 11.1523c2.41797 3.21191 7.06934 8.65039 10.3369 12.0859c3.2666 3.43652 8.62891 8.50195 11.917 11.2578
c3.28711 2.75684 9.35254 7.25977 13.4775 10.0098c4.125 2.74805 11.4375 6.9209 16.25 9.27148s12.0186 5.3916 16.0137 6.75879c3.99414 1.36719 10.1816 3.19727 13.75 4.06738c3.56738 0.869141 9.58008 2.0127 13.3613 2.54004
c3.78125 0.52832 8 1.07812 9.375 1.22168c1.375 0.144531 7.84375 0.164062 14.374 0.0449219zM500.938 612.284c-2.51953 0.119141 -5.43457 -0.142578 -6.875 -0.616211c-1.375 -0.454102 -3.17285 -1.18652 -3.99609 -1.62891s-2.74707 -1.95703 -4.27539 -3.36523
c-1.52832 -1.40918 -3.50391 -3.97852 -4.39062 -5.71094c-1.21875 -2.37891 -1.67871 -4.375 -1.88086 -8.15039c-0.214844 -4.03516 -0.00878906 -5.68066 1.06543 -8.5293c0.732422 -1.94141 2.46191 -4.81348 3.84375 -6.38281
c1.53418 -1.74316 4.10352 -3.6377 6.60156 -4.86719c3.54688 -1.74707 4.73535 -2.01367 8.96973 -2.01367s5.42285 0.266602 8.96973 2.01367c2.49805 1.22949 5.06738 3.12402 6.60156 4.86719c1.38184 1.56934 3.11133 4.44141 3.84375 6.38281
c1.07422 2.84863 1.28027 4.49414 1.06543 8.5293c-0.202148 3.77539 -0.662109 5.77148 -1.88086 8.15039c-0.886719 1.73242 -2.9248 4.35938 -4.52734 5.83691c-1.60352 1.47754 -4.23047 3.26953 -5.83691 3.98242c-1.78125 0.790039 -4.63184 1.37695 -7.29785 1.50195
z" />
  </g>

</svg>
