<?xml version="1.0" standalone="no"?>
<!DOCTYPE svg PUBLIC "-//W3C//DTD SVG 1.1//EN" "http://www.w3.org/Graphics/SVG/1.1/DTD/svg11.dtd" >
<svg xmlns="http://www.w3.org/2000/svg" xmlns:xlink="http://www.w3.org/1999/xlink" version="1.1" viewBox="-10 0 1010 1000">
  <g transform="matrix(1 0 0 -1 0 800)">
   <path fill="currentColor"
d="M314.375 737.224v0c5.66602 -0.179688 9.47949 -0.679688 13.8799 -1.81836c3.33789 -0.863281 8.49707 -2.75684 11.4678 -4.20801c2.96973 -1.4502 7.12988 -3.89062 9.24512 -5.42188c2.11426 -1.53125 36.9609 -35.8682 77.4355 -76.3047l73.5918 -73.5205
l74.2207 74.1094c46.8311 46.7607 75.5107 74.9434 77.7158 76.3672c1.92188 1.24219 5.4375 3.23145 7.8125 4.4209c2.375 1.19141 6.05859 2.74902 8.18457 3.46387s6.48535 1.75684 9.6875 2.31738c4.16113 0.726562 7.78223 0.918945 12.6963 0.670898
c4.23535 -0.211914 9.2041 -0.944336 12.9424 -1.90527c3.33691 -0.857422 8.53223 -2.76367 11.5449 -4.23535c3.01172 -1.4707 7.59375 -4.2832 10.1816 -6.25c2.68066 -2.03516 46.5615 -45.4902 101.95 -100.96c85.71 -85.8359 97.6348 -98.0068 100.528 -102.603
c1.80664 -2.86719 4.11816 -7.22656 5.13867 -9.6875c1.02051 -2.45996 2.45898 -6.86328 3.19727 -9.78516c1.06738 -4.22266 1.3418 -7.1709 1.3418 -14.375s-0.274414 -10.1523 -1.3418 -14.375c-0.738281 -2.92188 -2.19043 -7.3584 -3.22754 -9.86035
c-1.03809 -2.50098 -3.39746 -6.86035 -5.24414 -9.6875c-1.84766 -2.82617 -4.84277 -6.75781 -6.65625 -8.73535c-1.81348 -1.97852 -5.45605 -5.22266 -8.09375 -7.21094c-2.63965 -1.9873 -7.2627 -4.81934 -10.2744 -6.29004
c-3.0127 -1.47168 -8.20801 -3.37793 -11.5449 -4.23535c-3.73828 -0.960938 -8.70703 -1.69336 -12.9424 -1.90527c-4.91406 -0.248047 -8.53516 -0.0556641 -12.6963 0.670898c-3.20215 0.560547 -7.56152 1.60254 -9.6875 2.31738s-5.80957 2.27246 -8.18457 3.46387
c-2.375 1.18945 -5.89062 3.18164 -7.8125 4.4248c-2.12012 1.37402 -20.3936 19.1152 -46.459 45.1045l-42.9639 42.8438l-0.165039 -304.356l-0.166016 -304.355l-1.3623 -5c-0.75 -2.75 -2.21191 -7.0459 -3.24902 -9.54785
c-1.03613 -2.50098 -3.39551 -6.86035 -5.24219 -9.6875c-1.84766 -2.82617 -4.84277 -6.75781 -6.65625 -8.73535c-1.81348 -1.97852 -5.45605 -5.22266 -8.09375 -7.21094c-2.63965 -1.9873 -7.2627 -4.81934 -10.2744 -6.29004
c-3.0127 -1.47168 -8.20801 -3.37793 -11.5449 -4.23535c-3.73828 -0.960938 -8.70703 -1.69336 -12.9424 -1.90527c-4.91406 -0.248047 -8.53516 -0.0556641 -12.6963 0.670898c-3.20215 0.560547 -7.56152 1.60254 -9.6875 2.31738s-5.80957 2.27246 -8.18457 3.46387
c-2.375 1.18945 -5.89062 3.20117 -7.8125 4.46973s-5.63867 4.41797 -8.25977 6.99902s-6.36035 7.14648 -8.30957 10.1445c-1.9502 2.99902 -4.39258 7.49902 -5.42871 10c-1.03711 2.50195 -2.49902 6.79785 -3.24902 9.54785l-1.3623 5l-0.166016 304.368
l-0.165039 304.368l-42.0264 -41.9707c-23.1152 -23.083 -43.9277 -43.373 -46.251 -45.0869s-6.62402 -4.28809 -9.55762 -5.72168c-2.93359 -1.43262 -8.06445 -3.30762 -11.4014 -4.16504c-3.73828 -0.960938 -8.70703 -1.69336 -12.9424 -1.90527
c-4.91406 -0.248047 -8.53516 -0.0556641 -12.6963 0.670898c-3.20215 0.560547 -7.56152 1.60254 -9.6875 2.31738s-5.80957 2.27246 -8.18457 3.46387c-2.375 1.18945 -5.89062 3.18164 -7.8125 4.4248c-2.12012 1.37305 -20.3936 19.1143 -46.459 45.1045
l-42.9639 42.8428l-0.165039 -304.355l-0.166016 -304.355l-1.3623 -5c-0.75 -2.75 -2.21191 -7.0459 -3.24902 -9.54785c-1.03613 -2.50098 -3.39551 -6.86035 -5.24219 -9.6875c-1.84766 -2.82617 -4.84277 -6.75781 -6.65625 -8.73535
c-1.81348 -1.97852 -5.45605 -5.22266 -8.09375 -7.21094c-2.63965 -1.9873 -7.2627 -4.81934 -10.2744 -6.29004c-3.0127 -1.47168 -8.20801 -3.37793 -11.5449 -4.23535c-3.73828 -0.960938 -8.70703 -1.69336 -12.9424 -1.90527
c-4.91406 -0.248047 -8.53516 -0.0556641 -12.6963 0.670898c-3.20215 0.560547 -7.56152 1.60254 -9.6875 2.31738s-5.80957 2.27246 -8.18457 3.46387c-2.375 1.18945 -5.89062 3.20117 -7.8125 4.46973s-5.63867 4.41797 -8.25977 6.99902
c-2.62109 2.58008 -6.36035 7.14551 -8.30957 10.1436c-1.9502 2.99902 -4.39258 7.49902 -5.42871 10c-1.03711 2.50195 -2.49902 6.79785 -3.24902 9.54785l-1.3623 5l-0.166016 304.364l-0.165039 304.364l-42.3389 -42.2637
c-23.2871 -23.2451 -44.0703 -43.5186 -46.1855 -45.0508s-6.27539 -3.97363 -9.24512 -5.42383c-2.96973 -1.45117 -8.12988 -3.33984 -11.4668 -4.19727c-3.73828 -0.960938 -8.70703 -1.69336 -12.9424 -1.90527
c-4.91406 -0.248047 -8.53516 -0.0556641 -12.6963 0.670898c-3.20215 0.560547 -7.56152 1.60254 -9.6875 2.31738s-5.80957 2.27246 -8.18457 3.46387c-2.375 1.18945 -5.89062 3.20117 -7.8125 4.46973s-5.63867 4.41797 -8.25977 6.99902
c-2.62109 2.58008 -6.36035 7.14551 -8.30957 10.1436c-1.9502 2.99902 -4.39258 7.49902 -5.43066 10c-1.03711 2.50195 -2.48926 6.93848 -3.22754 9.86035c-1.06738 4.22266 -1.3418 7.1709 -1.3418 14.375s0.274414 10.1523 1.3418 14.375
c0.738281 2.92188 2.19043 7.3584 3.22754 9.86035c1.03809 2.50098 3.46973 7.00098 5.4043 10c3.10742 4.81445 15.0176 16.9453 102.061 103.946c63.1729 63.1426 99.7949 99.3027 102.035 100.748c1.92188 1.23926 5.4375 3.22754 7.8125 4.41699
c2.375 1.19141 6.07324 2.75488 8.21875 3.47559c2.14453 0.720703 6.08203 1.72461 8.75 2.22949c3.25293 0.617188 7.4209 0.837891 12.6621 0.670898z" />
  </g>

</svg>
