<?xml version="1.0" standalone="no"?>
<!DOCTYPE svg PUBLIC "-//W3C//DTD SVG 1.1//EN" "http://www.w3.org/Graphics/SVG/1.1/DTD/svg11.dtd" >
<svg xmlns="http://www.w3.org/2000/svg" xmlns:xlink="http://www.w3.org/1999/xlink" version="1.1" viewBox="-10 0 1010 1000">
  <g transform="matrix(1 0 0 -1 0 800)">
   <path fill="currentColor"
d="M314.375 549.724c5.66602 -0.179688 9.47949 -0.679688 13.8799 -1.81836c3.33691 -0.863281 8.53223 -2.77441 11.5449 -4.24609c3.01172 -1.4707 7.63477 -4.30273 10.2744 -6.29004c2.6377 -1.98828 6.28027 -5.23242 8.09375 -7.21094
c1.81348 -1.97754 4.80859 -5.90918 6.65625 -8.73535c1.84668 -2.82715 4.20605 -7.18652 5.24414 -9.6875c1.03711 -2.50195 2.48926 -6.93848 3.22754 -9.86035c1.06738 -4.22266 1.3418 -7.1709 1.3418 -14.375s-0.274414 -10.1523 -1.3418 -14.375
c-0.738281 -2.92188 -2.19043 -7.3584 -3.22754 -9.86035c-1.03809 -2.50098 -3.47266 -7.00098 -5.41113 -10c-3.00879 -4.65234 -9.76758 -11.7041 -46.1123 -48.1084l-42.5859 -42.6562h184.833h184.833v11.1104c0 6.11035 0.291016 13.4941 0.647461 16.4062
c0.356445 2.91309 1.2168 7.40039 1.91309 9.97168c0.695312 2.57227 2.33789 6.96484 3.64844 9.7627c1.31055 2.79688 3.52441 6.76562 4.91992 8.82031c1.39453 2.05469 3.99023 5.32617 5.76758 7.27148c1.77832 1.94531 5.47266 5.22363 8.20898 7.28613
c2.7373 2.0625 7.2793 4.85938 10.0918 6.21582c2.81348 1.35547 7.64648 3.25293 10.7402 4.21582l5.625 1.75195h94.0625h94.0625l5.3125 -1.43359c2.92188 -0.788086 8.125 -2.80176 11.5625 -4.47363s8.08984 -4.4375 10.3379 -6.14453
c2.24805 -1.70801 5.99414 -5.16406 8.3252 -7.68164c2.33105 -2.5166 5.62988 -6.83887 7.33105 -9.60352s3.93652 -7.21289 4.9668 -9.88477c1.03027 -2.6709 2.36035 -6.75098 2.95605 -9.06738c1.00391 -3.90234 1.08301 -11.0205 1.08301 -97.0234
s-0.0791016 -93.1211 -1.08301 -97.0234c-0.595703 -2.31641 -1.92578 -6.39551 -2.95605 -9.06641c-1.03027 -2.67285 -3.26562 -7.12109 -4.9668 -9.88574s-5 -7.08594 -7.33105 -9.60352s-6.07715 -5.97363 -8.3252 -7.68164
c-2.24805 -1.70703 -6.90039 -4.47266 -10.3379 -6.14453c-3.4375 -1.6709 -8.64062 -3.68555 -11.5625 -4.47363l-5.3125 -1.43262h-94.0625h-94.0625l-5.625 1.75098c-3.09375 0.962891 -7.92676 2.86035 -10.7402 4.21582
c-2.8125 1.35742 -7.35449 4.15332 -10.0918 6.21582c-2.73633 2.0625 -6.43066 5.34082 -8.20898 7.28613c-1.77734 1.94531 -4.37305 5.2168 -5.76758 7.27148c-1.39551 2.05469 -3.60938 6.02344 -4.91992 8.82031c-1.31055 2.79785 -2.95312 7.19043 -3.64844 9.7627
c-0.696289 2.57129 -1.55664 7.05859 -1.91309 9.97168s-0.647461 10.2959 -0.647461 16.4062v11.1104h-184.833h-184.833l42.5859 -42.6553c36.3447 -36.4043 43.1035 -43.457 46.1123 -48.1084c1.93848 -2.99902 4.37305 -7.49902 5.41113 -10
c1.03711 -2.50195 2.48926 -6.93848 3.22754 -9.86035c1.06738 -4.22266 1.3418 -7.1709 1.3418 -14.375s-0.274414 -10.1523 -1.3418 -14.375c-0.738281 -2.92188 -2.19043 -7.3584 -3.22754 -9.86035c-1.03809 -2.50098 -3.39746 -6.86035 -5.24414 -9.6875
c-1.84766 -2.82617 -4.84277 -6.75781 -6.65625 -8.73535c-1.81348 -1.97852 -5.45605 -5.22266 -8.09375 -7.21094c-2.63965 -1.9873 -7.2627 -4.81934 -10.2744 -6.29004c-3.0127 -1.47168 -8.20801 -3.40234 -11.5449 -4.29102
c-5.11035 -1.35938 -7.49805 -1.62402 -15.1299 -1.67578c-6.7793 -0.0458984 -10.3223 0.229492 -14.0625 1.0957c-2.75 0.635742 -7.10938 2.02441 -9.6875 3.08594s-6.375 2.90527 -8.4375 4.09766c-2.0625 1.19336 -5.4375 3.51172 -7.5 5.15332
s-47.3691 46.668 -100.682 100.058c-85.4287 85.5527 -97.3223 97.6924 -100.217 102.288c-1.80664 2.86719 -4.11816 7.22656 -5.13867 9.6875c-1.02051 2.45996 -2.45898 6.86328 -3.19727 9.78516c-1.06738 4.22266 -1.3418 7.1709 -1.3418 14.375
s0.274414 10.1523 1.3418 14.375c0.738281 2.92188 2.19043 7.3584 3.22754 9.86035c1.03809 2.50098 3.46973 7.00098 5.4043 10c3.10742 4.81543 15.0176 16.9463 102.062 103.947c63.1729 63.1426 99.7949 99.3027 102.035 100.748
c1.92188 1.23926 5.4375 3.22754 7.8125 4.41699c2.375 1.19141 6.07324 2.75488 8.21875 3.47559c2.14453 0.720703 6.08203 1.72461 8.75 2.22949c3.25293 0.617188 7.4209 0.837891 12.6621 0.669922zM791.562 320.625h-20.9375v-20.625v-20.625h20.9375h20.9375v20.625
v20.625h-20.9375z" />
  </g>

</svg>
