<?xml version="1.0" standalone="no"?>
<!DOCTYPE svg PUBLIC "-//W3C//DTD SVG 1.1//EN" "http://www.w3.org/Graphics/SVG/1.1/DTD/svg11.dtd" >
<svg xmlns="http://www.w3.org/2000/svg" xmlns:xlink="http://www.w3.org/1999/xlink" version="1.1" viewBox="-10 0 1010 1000">
  <g transform="matrix(1 0 0 -1 0 800)">
   <path fill="currentColor"
d="M314.375 737.224l-0.000976562 0.00292969c5.66602 -0.179688 9.47949 -0.679688 13.8799 -1.81836c3.33691 -0.863281 8.53223 -2.77441 11.5449 -4.24609c3.01172 -1.4707 7.59375 -4.2832 10.1816 -6.25c2.68066 -2.03516 46.5615 -45.4902 101.95 -100.96
c85.71 -85.835 97.6348 -98.0059 100.528 -102.602c1.80664 -2.86719 4.11816 -7.22656 5.13867 -9.6875c1.02051 -2.45996 2.45898 -6.86328 3.19727 -9.78516c1.06738 -4.22266 1.3418 -7.1709 1.3418 -14.375s-0.274414 -10.1523 -1.3418 -14.375
c-0.738281 -2.92188 -2.19043 -7.3584 -3.22754 -9.86035c-1.03809 -2.50098 -3.39746 -6.86035 -5.24414 -9.6875c-1.84766 -2.82617 -4.84277 -6.75781 -6.65625 -8.73535c-1.81348 -1.97852 -5.45605 -5.22266 -8.09375 -7.21094
c-2.63965 -1.9873 -7.2627 -4.81934 -10.2744 -6.29004c-3.0127 -1.47168 -8.20801 -3.37793 -11.5449 -4.23535c-3.73828 -0.960938 -8.70703 -1.69336 -12.9424 -1.90527c-4.91406 -0.248047 -8.53516 -0.0556641 -12.6963 0.670898
c-3.20215 0.560547 -7.56152 1.60254 -9.6875 2.31738s-5.80957 2.27246 -8.18457 3.46387c-2.375 1.18945 -5.89062 3.18164 -7.8125 4.4248c-2.12012 1.37305 -20.3955 19.1152 -46.4629 45.1094l-42.9688 42.8467v-174.517v-174.518h174.521h174.521l-42.5859 42.6562
c-36.3447 36.4043 -43.1035 43.4561 -46.1123 48.1084c-1.93848 2.99902 -4.37305 7.49902 -5.41113 10c-1.03711 2.50195 -2.48926 6.93848 -3.22754 9.86035c-1.06738 4.22266 -1.3418 7.1709 -1.3418 14.375s0.274414 10.1523 1.3418 14.375
c0.738281 2.92188 2.19043 7.3584 3.22754 9.86035c1.03809 2.50098 3.48047 7.00098 5.43066 10c1.94922 2.99805 5.68848 7.56348 8.30957 10.1436c2.62109 2.58105 6.33789 5.73047 8.25977 6.99902s5.4375 3.28027 7.8125 4.46973
c2.375 1.19141 6.05859 2.74902 8.18457 3.46387s6.48535 1.75684 9.6875 2.31738c4.16113 0.726562 7.78223 0.918945 12.6963 0.670898c4.23535 -0.211914 9.2041 -0.944336 12.9424 -1.90527c3.33691 -0.857422 8.53223 -2.76367 11.5449 -4.23535
c3.01172 -1.4707 7.59375 -4.2832 10.1816 -6.25c2.68066 -2.03516 46.5605 -45.4902 101.95 -100.96c85.709 -85.835 97.6338 -98.0059 100.527 -102.602c1.80664 -2.86719 4.11816 -7.22656 5.13867 -9.6875c1.02051 -2.45996 2.45898 -6.86328 3.19727 -9.78516
c1.06738 -4.22266 1.3418 -7.1709 1.3418 -14.375s-0.274414 -10.1523 -1.3418 -14.375c-0.738281 -2.92188 -2.17676 -7.3252 -3.19727 -9.78516c-1.02051 -2.46094 -3.33203 -6.82031 -5.13867 -9.6875c-2.89258 -4.59668 -14.8174 -16.7676 -100.527 -102.603
c-55.3887 -55.4697 -99.2695 -98.9248 -101.95 -100.96c-2.58789 -1.9668 -7.16992 -4.7793 -10.1816 -6.25c-3.0127 -1.47168 -8.20801 -3.37793 -11.5449 -4.23535c-3.73828 -0.960938 -8.70703 -1.69336 -12.9424 -1.90527
c-4.91406 -0.248047 -8.53516 -0.0556641 -12.6963 0.670898c-3.20215 0.560547 -7.56152 1.60254 -9.6875 2.31738s-5.80957 2.27246 -8.18457 3.46387c-2.375 1.18945 -5.89062 3.20117 -7.8125 4.46973s-5.63867 4.41797 -8.25977 6.99902
c-2.62109 2.58008 -6.36035 7.14551 -8.30957 10.1436c-1.9502 2.99902 -4.39258 7.49902 -5.43066 10c-1.03711 2.50195 -2.48926 6.93848 -3.22754 9.86035c-1.06738 4.22266 -1.3418 7.1709 -1.3418 14.375s0.274414 10.1523 1.3418 14.375
c0.738281 2.92188 2.19043 7.3584 3.22754 9.86035c1.03809 2.50098 3.47266 7.00098 5.41113 10c3.00879 4.65234 9.76758 11.7041 46.1123 48.1084l42.5859 42.6562h-208.188c-183.59 0 -208.833 0.112305 -213.644 0.951172
c-3 0.523438 -7.18555 1.5332 -9.30078 2.24414s-5.78906 2.26562 -8.16406 3.45703c-2.375 1.18945 -5.89062 3.20117 -7.8125 4.46973s-5.63867 4.41797 -8.25977 6.99902c-2.62109 2.58008 -6.36035 7.14551 -8.30957 10.1436
c-1.9502 2.99902 -4.39258 7.49902 -5.42871 10c-1.03711 2.50195 -2.49805 6.79785 -3.24707 9.54785l-1.36133 5l-0.168945 210.612l-0.168945 210.612l-42.3369 -42.2617c-23.2861 -23.2451 -44.0684 -43.5166 -46.1836 -45.0488s-6.27539 -3.97363 -9.24512 -5.42383
c-2.96973 -1.45117 -8.12988 -3.33984 -11.4668 -4.19727c-3.73828 -0.960938 -8.70703 -1.69336 -12.9424 -1.90527c-4.91406 -0.248047 -8.53516 -0.0556641 -12.6963 0.670898c-3.20215 0.560547 -7.56152 1.60254 -9.6875 2.31738s-5.80957 2.27246 -8.18457 3.46387
c-2.375 1.18945 -5.89062 3.20117 -7.8125 4.46973s-5.63867 4.41797 -8.25977 6.99902c-2.62109 2.58008 -6.36035 7.14551 -8.30957 10.1436c-1.9502 2.99902 -4.39258 7.49902 -5.43066 10c-1.03711 2.50195 -2.48926 6.93848 -3.22754 9.86035
c-1.06738 4.22266 -1.3418 7.1709 -1.3418 14.375s0.274414 10.1523 1.3418 14.375c0.738281 2.92188 2.19043 7.3584 3.22754 9.86035c1.03809 2.50098 3.46973 7.00098 5.4043 10c3.10742 4.81445 15.0176 16.9453 102.061 103.946
c63.1729 63.1426 99.7949 99.3027 102.035 100.748c1.92188 1.23926 5.4375 3.22754 7.8125 4.41699c2.375 1.19141 6.07324 2.75488 8.21875 3.47559c2.14453 0.720703 6.08203 1.72461 8.75 2.22949c3.25293 0.617188 7.4209 0.837891 12.6621 0.670898z" />
  </g>

</svg>
