<?xml version="1.0" standalone="no"?>
<!DOCTYPE svg PUBLIC "-//W3C//DTD SVG 1.1//EN" "http://www.w3.org/Graphics/SVG/1.1/DTD/svg11.dtd" >
<svg xmlns="http://www.w3.org/2000/svg" xmlns:xlink="http://www.w3.org/1999/xlink" version="1.1" viewBox="-10 0 1010 1000">
  <g transform="matrix(1 0 0 -1 0 800)">
   <path fill="currentColor"
d="M456.562 678.659c1.71875 0.0439453 6.24609 -0.196289 10.0605 -0.533203c3.81445 -0.338867 9.67578 -1.17871 13.0254 -1.86816s8.53613 -2.07227 11.5225 -3.07324c2.98926 -1.00098 7.95312 -2.98438 11.0322 -4.40625
c3.0791 -1.42285 7.70996 -3.8916 10.291 -5.48828c2.58105 -1.5957 6.80273 -4.50293 9.38086 -6.45996c2.57812 -1.95801 7.12598 -6.05273 10.1064 -9.10156c2.98145 -3.04688 6.4248 -6.76172 7.6543 -8.25391c1.22852 -1.49121 3.82715 -5.13086 5.77441 -8.08789
c1.94727 -2.95605 5.0127 -8.48535 6.81152 -12.2871s4.11914 -9.58398 5.15723 -12.8496c1.03711 -3.26562 2.31836 -8.04688 2.8457 -10.625s1.25586 -7.07031 1.61719 -9.9834c0.407227 -3.27832 0.658203 -22.9873 0.658203 -51.7188v-46.4229h138.405
c119.422 0 139.387 -0.128906 145.556 -0.9375c3.93359 -0.515625 9.92383 -1.65625 13.3154 -2.53516c3.38867 -0.878906 8.69336 -2.5957 11.7871 -3.81543c3.09375 -1.2207 7.96387 -3.47949 10.8223 -5.02051s7.07715 -4.08008 9.375 -5.64355
s6.51367 -4.80078 9.36816 -7.19238c2.85352 -2.39258 7.43555 -6.92383 10.1807 -10.0713c2.74512 -3.14648 6.57617 -8.10059 8.5127 -11.0088s4.71973 -7.63574 6.18457 -10.5068c1.46582 -2.87109 3.54395 -7.52246 4.62012 -10.3379s2.64062 -7.75098 3.47754 -10.9678
c0.836914 -3.21875 1.94336 -9.06836 2.45898 -13.002c0.795898 -6.06738 0.936523 -20.6055 0.932617 -96.0244c-0.00292969 -55.3174 -0.242188 -90.998 -0.632812 -94.499c-0.345703 -3.09375 -1.0752 -7.875 -1.62207 -10.625s-1.93164 -7.8125 -3.0791 -11.25
c-1.14648 -3.4375 -3.06641 -8.40234 -4.2666 -11.0322s-3.51562 -6.98926 -5.14551 -9.6875s-4.65918 -7.15527 -6.73242 -9.90527s-6.31445 -7.53809 -9.42383 -10.6396c-3.11035 -3.10254 -7.76465 -7.20703 -10.3428 -9.12109s-7.12891 -4.94336 -10.1133 -6.73145
c-2.9834 -1.78809 -8.01562 -4.375 -11.1816 -5.74805s-8.59961 -3.3252 -12.0752 -4.33887c-3.47559 -1.0127 -8.70898 -2.32324 -11.6309 -2.91016c-4.90137 -0.986328 -16.2871 -1.08496 -147.03 -1.27246l-141.72 -0.202148v-46.4092
c0 -28.7236 -0.250977 -48.4277 -0.658203 -51.7061c-0.361328 -2.91309 -1.08984 -7.40527 -1.61719 -9.9834s-1.80859 -7.35938 -2.8457 -10.625c-1.03809 -3.26562 -3.37305 -9.0791 -5.19043 -12.918c-1.81738 -3.83984 -5.21973 -9.85938 -7.5625 -13.3779
c-2.44336 -3.6709 -7.19922 -9.45703 -11.1611 -13.5781c-3.7959 -3.9502 -9.01172 -8.77441 -11.5889 -10.7227c-2.57812 -1.94824 -6.7998 -4.84766 -9.38086 -6.44336c-2.58105 -1.59668 -7.08105 -4.00391 -10 -5.35156
c-2.91895 -1.34668 -7.8623 -3.3252 -10.9863 -4.39746c-3.12305 -1.07129 -8.4668 -2.52148 -11.875 -3.22363c-3.40723 -0.702148 -9.7627 -1.5752 -14.123 -1.94043c-5.52832 -0.463867 -10.0723 -0.46875 -15.0186 -0.0166016
c-3.90039 0.356445 -10.0273 1.25684 -13.6172 2c-3.58887 0.743164 -8.92383 2.18945 -11.8555 3.21191c-2.93262 1.02246 -8.2168 3.22656 -11.7441 4.89746c-3.52637 1.67188 -8.72949 4.55078 -11.5625 6.39746c-2.83301 1.84766 -7.68164 5.49805 -10.7754 8.11328
s-69.0635 68.2686 -146.601 145.896c-119.016 119.156 -141.624 142.066 -145.143 147.079c-2.29102 3.26562 -5.99902 9.59375 -8.23926 14.0625s-4.91797 10.751 -5.9502 13.96c-1.0332 3.20898 -2.50195 8.69336 -3.26465 12.1875
c-1.20215 5.50977 -1.38574 8.21777 -1.38574 20.415s0.183594 14.9053 1.38574 20.415c0.762695 3.49414 2.23145 8.97852 3.26465 12.1875c1.03223 3.20898 3.70996 9.49121 5.9502 13.96s5.94824 10.7969 8.23926 14.0625c3.51855 5.0127 26.127 27.9229 145.143 147.079
c77.5371 77.627 143.507 143.28 146.601 145.896c3.09473 2.61621 7.94238 6.26562 10.7754 8.11328c2.83301 1.84668 8.03613 4.72559 11.5625 6.39746c3.52637 1.6709 8.81055 3.875 11.7441 4.89746c2.93164 1.02246 8.27539 2.47363 11.875 3.22266
c3.59863 0.75 8.79395 1.58496 11.543 1.85645c2.75 0.272461 6.40625 0.52832 8.125 0.572266v0zM437.525 469.532l-0.337891 54.2197l-111.874 -111.876l-111.875 -111.876l111.875 -111.876l111.874 -111.876l0.337891 54.2197
c0.331055 52.9355 0.371094 54.3379 1.68066 59.2197c0.738281 2.75 2.19043 7.0459 3.22754 9.54785c1.03613 2.50098 3.47852 7.00098 5.42871 10c1.94922 2.99805 5.68848 7.56348 8.30957 10.1436c2.62109 2.58105 6.33789 5.73047 8.25977 6.99902
s5.4375 3.28027 7.8125 4.46973c2.375 1.19141 6.04883 2.74609 8.16406 3.45703s6.30078 1.7207 9.30078 2.24414c4.78711 0.834961 24.8701 0.951172 164.123 0.951172h158.668v62.5v62.5h-158.668c-139.254 0 -159.337 0.116211 -164.123 0.951172
c-3 0.523438 -7.18555 1.5332 -9.30078 2.24414s-5.78906 2.26562 -8.16406 3.45703c-2.375 1.18945 -5.89062 3.20117 -7.8125 4.46973s-5.63867 4.41797 -8.25977 6.99902c-2.62109 2.58008 -6.36035 7.14551 -8.30957 10.1436
c-1.9502 2.99902 -4.39258 7.49902 -5.42871 10c-1.03711 2.50195 -2.48926 6.79785 -3.22754 9.54785c-1.30957 4.88184 -1.34961 6.28418 -1.68066 59.2197z" />
  </g>

</svg>
