<?xml version="1.0" standalone="no"?>
<!DOCTYPE svg PUBLIC "-//W3C//DTD SVG 1.1//EN" "http://www.w3.org/Graphics/SVG/1.1/DTD/svg11.dtd" >
<svg xmlns="http://www.w3.org/2000/svg" xmlns:xlink="http://www.w3.org/1999/xlink" version="1.1" viewBox="-10 0 1010 1000">
  <g transform="matrix(1 0 0 -1 0 800)">
   <path fill="currentColor"
d="M314.375 549.724c5.66602 -0.179688 9.47949 -0.679688 13.8799 -1.81836c3.33691 -0.863281 8.53223 -2.77441 11.5449 -4.24609c3.01172 -1.4707 7.63477 -4.30273 10.2744 -6.29004c2.6377 -1.98828 6.28027 -5.23242 8.09375 -7.21094
c1.81348 -1.97754 4.80859 -5.90918 6.65625 -8.73535c1.84668 -2.82715 4.20605 -7.18652 5.24414 -9.6875c1.03711 -2.50195 2.48926 -6.93848 3.22754 -9.86035c1.06738 -4.22266 1.3418 -7.1709 1.3418 -14.375s-0.274414 -10.1523 -1.3418 -14.375
c-0.738281 -2.92188 -2.19043 -7.3584 -3.22754 -9.86035c-1.03809 -2.50098 -3.47266 -7.00098 -5.41113 -10c-3.00879 -4.65234 -9.76758 -11.7041 -46.1123 -48.1084l-42.5859 -42.6562h191.966h191.967l3.47656 6.56738c1.91211 3.6123 4.93164 8.74512 6.70898 11.4062
c1.7793 2.66113 5.35449 7.51074 7.94629 10.7764s7.40137 8.61426 10.6875 11.8867c3.28711 3.27148 8.36133 7.87109 11.2764 10.2207c2.91406 2.34961 8.00879 6.05957 11.3213 8.24414c3.3125 2.18359 8.94336 5.51074 12.5137 7.39355
c3.56934 1.88281 9.66016 4.7168 13.5352 6.29785c3.87402 1.58008 10.5088 3.82227 14.7432 4.98438c4.23535 1.16016 10.0654 2.54297 12.957 3.07324c2.89062 0.529297 7.9873 1.25781 11.3252 1.61914c3.33789 0.360352 10.377 0.655273 15.6436 0.655273
c5.26562 0 13.0625 -0.431641 17.3242 -0.958984c4.2627 -0.52832 10.4414 -1.54004 13.7305 -2.25c3.29004 -0.709961 9.81738 -2.54492 14.5029 -4.07812c4.6875 -1.5332 12.4219 -4.69336 17.1875 -7.02148c4.7666 -2.32812 11.0566 -5.72754 13.9785 -7.55469
c2.92188 -1.82617 7.94043 -5.29883 11.1523 -7.71777c3.21191 -2.41797 8.65039 -7.06934 12.0859 -10.3369c3.43652 -3.2666 8.50195 -8.62891 11.2578 -11.917c2.75684 -3.28711 7.25977 -9.35254 10.0098 -13.4775c2.74805 -4.125 6.9209 -11.4375 9.27148 -16.25
s5.3916 -12.0186 6.75879 -16.0137c1.36719 -3.99414 3.19727 -10.1816 4.06738 -13.75c0.869141 -3.56738 2.08008 -9.7207 2.69043 -13.6738c0.806641 -5.21973 1.11035 -10.8652 1.11035 -20.625c0 -9.77246 -0.302734 -15.3975 -1.11133 -20.625
c-0.612305 -3.95312 -1.92188 -10.4219 -2.91113 -14.375c-0.988281 -3.95312 -2.81738 -10.1406 -4.06348 -13.75c-1.24512 -3.60938 -4.20117 -10.5 -6.56934 -15.3125c-2.36719 -4.8125 -6.23926 -11.7031 -8.60449 -15.3125
c-2.36621 -3.60938 -6.09668 -8.8125 -8.29102 -11.5625s-6.39258 -7.49805 -9.32812 -10.5508c-2.93555 -3.05469 -8.18262 -7.89648 -11.6602 -10.7627s-9.10254 -7.06836 -12.5 -9.33887s-10.5762 -6.32031 -15.9531 -8.99805
c-5.69434 -2.83691 -13.4336 -6.06934 -18.5342 -7.74219c-4.81836 -1.58008 -11.6689 -3.46582 -15.2256 -4.19238c-3.55566 -0.726562 -9.68848 -1.72168 -13.6289 -2.21094c-3.93945 -0.490234 -11.4736 -0.891602 -16.7432 -0.891602
c-5.26855 0 -12.3105 0.294922 -15.6484 0.655273c-3.33789 0.361328 -8.43457 1.08984 -11.3252 1.61914c-2.89062 0.530273 -8.65625 1.90039 -12.8125 3.04492c-4.15625 1.14551 -10.791 3.38477 -14.7441 4.97754s-10.1084 4.43848 -13.6777 6.3252
c-3.57031 1.8877 -9.20117 5.21777 -12.5137 7.40137c-3.3125 2.18457 -8.40723 5.89453 -11.3213 8.24414c-2.91504 2.34961 -7.98926 6.94922 -11.2764 10.2207c-3.28613 3.27246 -8.0957 8.62109 -10.6875 11.8867s-6.16699 8.11523 -7.94629 10.7764
c-1.77734 2.66113 -4.79688 7.79395 -6.70898 11.4062l-3.47656 6.56738h-191.967h-191.966l42.5859 -42.6562c36.3447 -36.4043 43.1035 -43.4561 46.1123 -48.1084c1.93848 -2.99902 4.37305 -7.49902 5.41113 -10c1.03711 -2.50195 2.48926 -6.93848 3.22754 -9.86035
c1.06738 -4.22266 1.3418 -7.1709 1.3418 -14.375s-0.274414 -10.1523 -1.3418 -14.375c-0.738281 -2.92188 -2.19043 -7.3584 -3.22754 -9.86035c-1.03809 -2.50098 -3.39746 -6.86035 -5.24414 -9.6875c-1.84766 -2.82617 -4.84277 -6.75781 -6.65625 -8.73535
c-1.81348 -1.97852 -5.45605 -5.22266 -8.09375 -7.21094c-2.63965 -1.9873 -7.2627 -4.81934 -10.2744 -6.29004c-3.0127 -1.47168 -8.20801 -3.40234 -11.5449 -4.29102c-5.11035 -1.35938 -7.49805 -1.62402 -15.1299 -1.67578
c-6.7793 -0.0458984 -10.3223 0.229492 -14.0625 1.0957c-2.75 0.635742 -7.10938 2.02441 -9.6875 3.08594s-6.375 2.90527 -8.4375 4.09766c-2.0625 1.19336 -5.4375 3.51172 -7.5 5.15332s-47.3691 46.668 -100.682 100.059
c-85.4287 85.5527 -97.3223 97.6924 -100.217 102.288c-1.80664 2.86719 -4.11816 7.22656 -5.13867 9.6875c-1.02051 2.45996 -2.45898 6.86328 -3.19727 9.78516c-1.06738 4.22266 -1.3418 7.1709 -1.3418 14.375s0.274414 10.1523 1.3418 14.375
c0.738281 2.92188 2.19043 7.3584 3.22754 9.86035c1.03809 2.50098 3.46973 7.00098 5.4043 10c3.10742 4.81543 15.0176 16.9463 102.062 103.946c63.1729 63.1426 99.7949 99.3027 102.035 100.748c1.92188 1.23926 5.4375 3.22754 7.8125 4.41699
c2.375 1.19141 6.07324 2.75488 8.21875 3.47559c2.14453 0.720703 6.08203 1.72461 8.75 2.22949c3.25293 0.617188 7.4209 0.837891 12.6621 0.670898v0zM792.5 320.428c-4.22266 0.163086 -5.97168 -0.0556641 -8.52734 -1.06738
c-1.76758 -0.700195 -4.5 -2.4043 -6.07031 -3.78711c-1.74512 -1.53613 -3.63965 -4.10449 -4.86914 -6.60352c-1.74707 -3.54688 -2.01367 -4.73535 -2.01367 -8.96973s0.266602 -5.42285 2.01367 -8.96973c1.22949 -2.49805 3.12402 -5.06738 4.86719 -6.60156
c1.56934 -1.38184 4.44141 -3.11133 6.38281 -3.84375c2.84766 -1.07324 4.49512 -1.28027 8.5293 -1.06641c3.55859 0.188477 5.78418 0.669922 7.71777 1.66797c1.49609 0.770508 3.95117 2.53809 5.45703 3.92578c1.50488 1.3877 3.5166 4.11035 4.46875 6.04883
c1.48242 3.01855 1.73047 4.29102 1.72559 8.83887c-0.00488281 4.10547 -0.311523 5.97656 -1.35059 8.23535c-0.740234 1.60645 -2.55371 4.2334 -4.03125 5.83691c-1.47754 1.60254 -4.10449 3.64258 -5.83691 4.53223
c-2.50098 1.2832 -4.24609 1.65918 -8.46289 1.82324z" />
  </g>

</svg>
