<?xml version="1.0" standalone="no"?>
<!DOCTYPE svg PUBLIC "-//W3C//DTD SVG 1.1//EN" "http://www.w3.org/Graphics/SVG/1.1/DTD/svg11.dtd" >
<svg xmlns="http://www.w3.org/2000/svg" xmlns:xlink="http://www.w3.org/1999/xlink" version="1.1" viewBox="-10 0 1010 1000">
  <g transform="matrix(1 0 0 -1 0 800)">
   <path fill="currentColor"
d="M314.375 737.224l0.00195312 0.00195312c5.66602 -0.179688 9.47949 -0.679688 13.8799 -1.81836c3.33691 -0.863281 8.53223 -2.77441 11.5449 -4.24609c3.01172 -1.4707 7.63477 -4.30273 10.2744 -6.29004c2.6377 -1.98828 6.28027 -5.23242 8.09375 -7.21094
c1.81348 -1.97754 4.80859 -5.90918 6.65625 -8.73535c1.84668 -2.82715 4.20605 -7.18652 5.24414 -9.6875c1.03711 -2.50195 2.48926 -6.93848 3.22754 -9.86035c1.06738 -4.22266 1.3418 -7.1709 1.3418 -14.375s-0.274414 -10.1523 -1.3418 -14.375
c-0.738281 -2.92188 -2.19043 -7.3584 -3.22754 -9.86035c-1.03809 -2.50098 -3.47266 -7.00098 -5.41113 -10c-3.00879 -4.65234 -9.76758 -11.7031 -46.1064 -48.1025l-42.5791 -42.6494l210.607 -0.163086l210.607 -0.162109l6.06738 -1.67578
c3.33691 -0.921875 8.53223 -2.88086 11.5449 -4.35254c3.01172 -1.4707 7.63477 -4.30273 10.2744 -6.29004c2.6377 -1.98828 6.28027 -5.23242 8.09375 -7.21094c1.81348 -1.97754 4.80859 -5.90918 6.65625 -8.73535c1.84668 -2.82715 4.20605 -7.18652 5.24219 -9.6875
c1.03711 -2.50195 2.49805 -6.79785 3.24707 -9.54785l1.36133 -5l0.168945 -210.604l0.168945 -210.604l42.9619 42.8398c26.0645 25.9893 44.3369 43.7295 46.457 45.1025c1.92188 1.24316 5.4375 3.23535 7.8125 4.4248c2.375 1.19141 6.05859 2.74902 8.18457 3.46387
s6.48535 1.75684 9.6875 2.31738c4.16113 0.726562 7.78223 0.918945 12.6963 0.670898c4.23535 -0.211914 9.2041 -0.944336 12.9424 -1.90527c3.33691 -0.857422 8.53223 -2.76367 11.5449 -4.23535c3.01172 -1.4707 7.63477 -4.30273 10.2744 -6.29004
c2.6377 -1.98828 6.28027 -5.23242 8.09375 -7.21094c1.81348 -1.97754 4.80859 -5.90918 6.65625 -8.73535c1.84668 -2.82715 4.20605 -7.18652 5.24414 -9.6875c1.03711 -2.50195 2.48926 -6.93848 3.22754 -9.86035c1.06738 -4.22266 1.3418 -7.1709 1.3418 -14.375
s-0.274414 -10.1523 -1.3418 -14.375c-0.738281 -2.92188 -2.17676 -7.3252 -3.19727 -9.78516c-1.02051 -2.46094 -3.33203 -6.82031 -5.13867 -9.6875c-2.89355 -4.5957 -14.8174 -16.7666 -100.528 -102.602c-55.3877 -55.4697 -99.2686 -98.9248 -101.949 -100.96
c-2.58789 -1.9668 -7.16992 -4.7793 -10.1816 -6.25c-3.0127 -1.47168 -8.20801 -3.40234 -11.5449 -4.29102c-5.11035 -1.35938 -7.49805 -1.62402 -15.1299 -1.67578c-6.7793 -0.0458984 -10.3223 0.229492 -14.0625 1.0957
c-2.75 0.635742 -7.10938 2.02441 -9.6875 3.08594s-6.375 2.90527 -8.4375 4.09766c-2.0625 1.19336 -5.4375 3.51074 -7.5 5.15332c-2.06348 1.6416 -47.3701 46.668 -100.683 100.058c-85.4287 85.5527 -97.3223 97.6924 -100.216 102.288
c-1.80664 2.86719 -4.11816 7.22656 -5.13867 9.6875c-1.02051 2.45996 -2.45898 6.86328 -3.19727 9.78516c-1.06738 4.22266 -1.3418 7.1709 -1.3418 14.375s0.274414 10.1523 1.3418 14.375c0.738281 2.92188 2.19043 7.3584 3.22754 9.86035
c1.03809 2.50098 3.48047 7.00098 5.43066 10c1.94922 2.99805 5.68848 7.56348 8.30957 10.1436c2.62109 2.58105 6.33789 5.73047 8.25977 6.99902s5.4375 3.28027 7.8125 4.46973c2.375 1.19141 6.05859 2.74902 8.18457 3.46387s6.48535 1.75684 9.6875 2.31738
c4.16113 0.726562 7.78223 0.918945 12.6963 0.670898c4.23535 -0.211914 9.2041 -0.944336 12.9424 -1.90527c3.33691 -0.857422 8.49707 -2.74609 11.4668 -4.19727c2.96973 -1.4502 7.12988 -3.8916 9.24512 -5.42383s22.9004 -21.8076 46.1895 -45.0547
l42.3438 -42.2686v174.524v174.524h-174.521h-174.521l42.5859 -42.6562c36.3447 -36.4043 43.1035 -43.4561 46.1123 -48.1084c1.93848 -2.99902 4.37305 -7.49902 5.41113 -10c1.03711 -2.50195 2.48926 -6.93848 3.22754 -9.86035
c1.06738 -4.22266 1.3418 -7.1709 1.3418 -14.375s-0.274414 -10.1523 -1.3418 -14.375c-0.738281 -2.92188 -2.19043 -7.3584 -3.22754 -9.86035c-1.03809 -2.50098 -3.39746 -6.86035 -5.24414 -9.6875c-1.84766 -2.82617 -4.84277 -6.75781 -6.65625 -8.73535
c-1.81348 -1.97852 -5.45605 -5.22266 -8.09375 -7.21094c-2.63965 -1.9873 -7.2627 -4.81934 -10.2744 -6.29004c-3.0127 -1.47168 -8.20801 -3.40234 -11.5449 -4.29102c-5.11035 -1.35938 -7.49805 -1.62402 -15.1299 -1.67578
c-6.7793 -0.0458984 -10.3223 0.229492 -14.0625 1.0957c-2.75 0.635742 -7.10938 2.02441 -9.6875 3.08594s-6.375 2.90527 -8.4375 4.09766c-2.0625 1.19336 -5.43652 3.51172 -7.5 5.15332c-2.0625 1.64258 -47.3691 46.6689 -100.682 100.059
c-85.4287 85.5527 -97.3223 97.6924 -100.216 102.288c-1.80664 2.86719 -4.11816 7.22656 -5.13867 9.6875c-1.02051 2.45996 -2.45898 6.86328 -3.19727 9.78516c-1.06738 4.22266 -1.3418 7.1709 -1.3418 14.375s0.274414 10.1523 1.3418 14.375
c0.738281 2.92188 2.19043 7.3584 3.22754 9.86035c1.03809 2.50098 3.46973 7.00098 5.4043 10c3.10742 4.81445 15.0176 16.9453 102.061 103.946c63.1729 63.1426 99.7949 99.3027 102.035 100.748c1.92188 1.23926 5.4375 3.22754 7.8125 4.41699
c2.375 1.19141 6.07324 2.75488 8.21875 3.47559c2.14453 0.720703 6.08203 1.72461 8.75 2.22949c3.25293 0.617188 7.4209 0.837891 12.6621 0.670898z" />
  </g>

</svg>
