<?xml version="1.0" standalone="no"?>
<!DOCTYPE svg PUBLIC "-//W3C//DTD SVG 1.1//EN" "http://www.w3.org/Graphics/SVG/1.1/DTD/svg11.dtd" >
<svg xmlns="http://www.w3.org/2000/svg" xmlns:xlink="http://www.w3.org/1999/xlink" version="1.1" viewBox="-10 0 1010 1000">
  <g transform="matrix(1 0 0 -1 0 800)">
   <path fill="currentColor"
d="M501.875 737.224c5.66602 -0.178711 9.47949 -0.678711 13.8799 -1.81738c3.33691 -0.863281 8.53223 -2.77441 11.5449 -4.24609c3.01172 -1.4707 7.59375 -4.2832 10.1816 -6.25c2.68066 -2.03516 46.5615 -45.4902 101.95 -100.96
c85.709 -85.835 97.6338 -98.0059 100.527 -102.602c1.80664 -2.86719 4.11816 -7.22656 5.13867 -9.6875c1.02051 -2.45996 2.45898 -6.86328 3.19727 -9.78516c1.06738 -4.22266 1.3418 -7.1709 1.3418 -14.375s-0.274414 -10.1523 -1.3418 -14.375
c-0.738281 -2.92188 -2.19043 -7.3584 -3.22754 -9.86035c-1.03809 -2.50098 -3.39746 -6.86035 -5.24414 -9.6875c-1.84766 -2.82617 -4.84277 -6.75781 -6.65625 -8.73535c-1.81348 -1.97852 -5.45605 -5.22266 -8.09375 -7.21094
c-2.63867 -1.9873 -7.26172 -4.81934 -10.2734 -6.29004c-3.0127 -1.47168 -8.20801 -3.37793 -11.5449 -4.23535c-3.73828 -0.960938 -8.70703 -1.69336 -12.9424 -1.90527c-4.91406 -0.248047 -8.53613 -0.0556641 -12.6973 0.670898
c-3.20215 0.560547 -7.56055 1.60254 -9.6875 2.31738c-2.12598 0.714844 -5.80957 2.27246 -8.18457 3.46387c-2.375 1.18945 -5.88965 3.18164 -7.8125 4.4248c-2.11914 1.37305 -20.3945 19.1152 -46.4629 45.1094l-42.9688 42.8467v-268.233v-268.234l36.0938 -0.209961
l36.0947 -0.210938l6.06738 -1.6543c3.33691 -0.910156 8.53223 -2.85938 11.5449 -4.33105c3.01074 -1.4707 7.63379 -4.30273 10.2734 -6.29004c2.63867 -1.98828 6.28027 -5.23242 8.09375 -7.21094c1.81445 -1.97754 4.80859 -5.90918 6.65625 -8.73535
c1.84668 -2.82715 4.20605 -7.18652 5.24414 -9.6875c1.03711 -2.50195 2.49023 -6.93848 3.22754 -9.86035c1.06836 -4.22266 1.34277 -7.1709 1.34277 -14.375s-0.275391 -10.1523 -1.34277 -14.375c-0.737305 -2.92188 -2.19043 -7.3584 -3.22754 -9.86035
c-1.03809 -2.50098 -3.39746 -6.86035 -5.24414 -9.6875c-1.84766 -2.82617 -4.8418 -6.75781 -6.65625 -8.73535c-1.81348 -1.97852 -5.45508 -5.22266 -8.09375 -7.21094c-2.63867 -1.9873 -7.26172 -4.81934 -10.2734 -6.29004
c-3.0127 -1.47168 -8.20801 -3.43066 -11.5449 -4.35254l-6.06738 -1.67578l-132.166 -0.166016c-116.197 -0.146484 -132.835 -0.0507812 -137.696 0.788086c-3.04199 0.524414 -7.27051 1.53906 -9.39648 2.25391s-5.80957 2.27246 -8.18457 3.46387
c-2.375 1.18945 -5.89062 3.20117 -7.8125 4.46973s-5.63867 4.41797 -8.25977 6.99902c-2.62109 2.58008 -6.36035 7.14551 -8.30957 10.1436c-1.9502 2.99902 -4.39258 7.49902 -5.43066 10c-1.03711 2.50195 -2.48926 6.93848 -3.22754 9.86035
c-1.06738 4.22363 -1.3418 7.1709 -1.3418 14.375s0.274414 10.1523 1.3418 14.375c0.738281 2.92188 2.19043 7.3584 3.22754 9.86035c1.03809 2.50098 3.48047 7.00098 5.43066 10c1.94922 2.99902 5.68848 7.56445 8.30957 10.1445
c2.62109 2.58105 6.33789 5.73047 8.25977 6.99902s5.4375 3.28027 7.8125 4.46973c2.375 1.19141 6.04883 2.74609 8.16406 3.45703s6.30078 1.7207 9.30078 2.24414c4.42871 0.772461 11.7852 0.951172 39.123 0.951172h33.668v268.274v268.274l-42.3438 -42.2686
c-23.2891 -23.2471 -44.0742 -43.5225 -46.1895 -45.0547s-6.27539 -3.97363 -9.24512 -5.42383c-2.96973 -1.45117 -8.12988 -3.33984 -11.4668 -4.19727c-3.73828 -0.960938 -8.70703 -1.69336 -12.9424 -1.90527
c-4.91406 -0.248047 -8.53516 -0.0556641 -12.6963 0.670898c-3.20215 0.560547 -7.56152 1.60254 -9.6875 2.31738s-5.80957 2.27246 -8.18457 3.46387c-2.375 1.18945 -5.89062 3.20117 -7.8125 4.46973s-5.63867 4.41797 -8.25977 6.99902
c-2.62109 2.58008 -6.36035 7.14551 -8.30957 10.1436c-1.9502 2.99902 -4.39258 7.49902 -5.43066 10c-1.03711 2.50195 -2.48926 6.93848 -3.22754 9.86035c-1.06738 4.22266 -1.3418 7.1709 -1.3418 14.375s0.274414 10.1523 1.3418 14.375
c0.738281 2.92188 2.19043 7.3584 3.22754 9.86035c1.03809 2.50098 3.46973 7.00098 5.4043 10c3.10742 4.81445 15.0176 16.9453 102.061 103.946c63.1729 63.1426 99.7949 99.3027 102.035 100.748c1.92188 1.23926 5.4375 3.22754 7.8125 4.41699
c2.375 1.19141 6.07324 2.75488 8.21875 3.47559c2.14453 0.720703 6.08203 1.72461 8.75 2.22949c3.25293 0.617188 7.4209 0.837891 12.6621 0.670898z" />
  </g>

</svg>
