<?xml version="1.0" standalone="no"?>
<!DOCTYPE svg PUBLIC "-//W3C//DTD SVG 1.1//EN" "http://www.w3.org/Graphics/SVG/1.1/DTD/svg11.dtd" >
<svg xmlns="http://www.w3.org/2000/svg" xmlns:xlink="http://www.w3.org/1999/xlink" version="1.1" viewBox="-10 0 1010 1000">
  <g transform="matrix(1 0 0 -1 0 800)">
   <path fill="currentColor"
d="M189.375 674.724v0.000976562c5.62793 -0.178711 9.48145 -0.680664 13.7812 -1.79395c3.2832 -0.848633 8.08984 -2.55078 10.6826 -3.78125s6.5166 -3.41113 8.71875 -4.84766c2.91699 -1.90137 83.5625 -82.1416 296.965 -295.476l292.959 -292.865l0.175781 148.114
l0.173828 148.113l1.35938 5c0.746094 2.75 2.20605 7.0459 3.24316 9.54785c1.03613 2.50098 3.47852 7.00098 5.42871 10c1.94922 2.99805 5.68848 7.56348 8.30957 10.1436c2.62109 2.58105 6.33789 5.73047 8.25977 6.99902s5.4375 3.28027 7.8125 4.46973
c2.375 1.19141 6.05859 2.74902 8.18457 3.46387s6.48535 1.75684 9.6875 2.31738c4.16113 0.726562 7.78223 0.918945 12.6963 0.670898c4.23535 -0.211914 9.2041 -0.944336 12.9424 -1.90527c3.33691 -0.857422 8.53223 -2.76367 11.5449 -4.23535
c3.01172 -1.4707 7.63477 -4.30273 10.2744 -6.29004c2.6377 -1.98828 6.28027 -5.23242 8.09375 -7.21094c1.81348 -1.97754 4.82422 -5.93359 6.69141 -8.79102c1.86719 -2.85645 4.31836 -7.49707 5.44922 -10.3125c1.12988 -2.81445 2.57715 -7.36719 3.2168 -10.1172
c1.12109 -4.82715 1.16211 -12.9023 1.16211 -232.188c0 -219.285 -0.0410156 -227.361 -1.16211 -232.188c-0.639648 -2.75 -2.08691 -7.30273 -3.2168 -10.1172c-1.13086 -2.81543 -3.58203 -7.45605 -5.44922 -10.3125
c-1.86719 -2.85742 -4.87793 -6.81348 -6.69141 -8.79102c-1.81348 -1.97852 -5.45605 -5.22266 -8.09375 -7.21094c-2.63965 -1.9873 -7.2627 -4.81934 -10.2744 -6.29004c-3.0127 -1.47168 -8.20801 -3.43066 -11.5449 -4.35254l-6.06738 -1.67578l-225.938 -0.162109
c-199.867 -0.144531 -226.573 -0.0527344 -231.446 0.788086c-3.03027 0.522461 -7.24902 1.53516 -9.375 2.25s-5.80957 2.27246 -8.18457 3.46387c-2.375 1.18945 -5.89062 3.20117 -7.8125 4.46973s-5.63867 4.41797 -8.25977 6.99902
c-2.62109 2.58008 -6.36035 7.14551 -8.30957 10.1436c-1.9502 2.99902 -4.39258 7.49902 -5.43066 10c-1.03711 2.50195 -2.48926 6.93848 -3.22754 9.86035c-1.06738 4.22266 -1.3418 7.1709 -1.3418 14.375s0.274414 10.1523 1.3418 14.375
c0.738281 2.92188 2.19043 7.3584 3.22754 9.86035c1.03809 2.50098 3.48047 7.00098 5.43066 10c1.94922 2.99805 5.68848 7.56348 8.30957 10.1436c2.62109 2.58105 6.33789 5.73047 8.25977 6.99902s5.4375 3.28027 7.8125 4.46973
c2.375 1.19141 6.04883 2.74609 8.16406 3.45703s6.30078 1.7207 9.30078 2.24414c4.77832 0.833008 23.5117 0.951172 151.151 0.951172h145.698l-292.871 292.969c-262.379 262.466 -293.213 293.512 -296.151 298.184c-1.80371 2.86719 -4.11426 7.22656 -5.13477 9.6875
c-1.02051 2.45996 -2.45898 6.86328 -3.19727 9.78516c-1.06738 4.22266 -1.3418 7.1709 -1.3418 14.375s0.274414 10.1523 1.3418 14.375c0.738281 2.92188 2.19043 7.3584 3.22754 9.86035c1.03809 2.50098 3.48047 7.00098 5.43066 10
c1.94922 2.99805 5.68848 7.56348 8.30957 10.1436c2.62109 2.58105 6.33789 5.73047 8.25977 6.99902s5.4375 3.28027 7.8125 4.46973c2.375 1.19141 6.07324 2.75488 8.21875 3.47559c2.14453 0.720703 6.08203 1.72461 8.75 2.22949
c3.25293 0.617188 7.4209 0.837891 12.6621 0.670898z" />
  </g>

</svg>
