<?xml version="1.0" standalone="no"?>
<!DOCTYPE svg PUBLIC "-//W3C//DTD SVG 1.1//EN" "http://www.w3.org/Graphics/SVG/1.1/DTD/svg11.dtd" >
<svg xmlns="http://www.w3.org/2000/svg" xmlns:xlink="http://www.w3.org/1999/xlink" version="1.1" viewBox="-10 0 1010 1000">
  <g transform="matrix(1 0 0 -1 0 800)">
   <path fill="currentColor"
d="M249.463 737.456c3.65625 0.0244141 8.89062 -0.380859 11.6309 -0.901367c2.73926 -0.519531 6.98145 -1.625 9.42676 -2.45703c2.44531 -0.831055 6.35156 -2.5166 8.68164 -3.74609c2.3291 -1.22949 6.06348 -3.62109 8.29785 -5.31445
c2.23438 -1.69238 33.8994 -32.9795 70.3672 -69.5264c57.7695 -57.8945 66.7275 -67.1191 69.5898 -71.6631c1.80762 -2.86719 4.12109 -7.22656 5.1416 -9.6875c1.02051 -2.45996 2.45898 -6.86328 3.19727 -9.78516c1.06738 -4.22266 1.3418 -7.1709 1.3418 -14.375
s-0.274414 -10.1523 -1.3418 -14.375c-0.738281 -2.92188 -2.19043 -7.3584 -3.22754 -9.86035c-1.03809 -2.50098 -3.39746 -6.86035 -5.24414 -9.6875c-1.84766 -2.82617 -4.84277 -6.75781 -6.65625 -8.73535c-1.81348 -1.97852 -5.45605 -5.22266 -8.09375 -7.21094
c-2.63965 -1.9873 -7.2627 -4.81934 -10.2744 -6.29004c-3.0127 -1.47168 -8.20801 -3.37793 -11.5449 -4.23535c-3.73828 -0.960938 -8.70703 -1.69336 -12.9424 -1.90527c-4.91406 -0.248047 -8.53516 -0.0556641 -12.6963 0.670898
c-3.20215 0.560547 -7.56152 1.60254 -9.6875 2.31738s-5.80957 2.27246 -8.18457 3.46387c-2.375 1.18945 -5.89062 3.19434 -7.8125 4.45312c-1.92188 1.25977 -8.76172 7.47559 -15.2002 13.8125l-11.7041 11.5215l-0.171875 -110.876l-0.171875 -110.876
l-1.36719 -4.79688c-0.750977 -2.63867 -2.25781 -6.93945 -3.34766 -9.55664c-1.08984 -2.61816 -3.39648 -6.92773 -5.12598 -9.57812s-5.14355 -6.88867 -7.58691 -9.41797c-2.44434 -2.5293 -6.16211 -5.83105 -8.26172 -7.33594
c-2.10059 -1.50488 -6.03809 -3.84668 -8.75 -5.20312c-2.71289 -1.35742 -7.46289 -3.24609 -10.5566 -4.19727c-5.28418 -1.62598 -6.3252 -1.73047 -17.1875 -1.73047c-10.8232 0 -11.916 0.109375 -17.0957 1.70508
c-3.04297 0.938477 -7.77539 2.82422 -10.5156 4.19238c-2.74023 1.36621 -6.28809 3.38379 -7.88477 4.48242s-5.11035 4.10645 -7.80859 6.68457s-6.52539 7.1084 -8.50391 10.0664s-4.50781 7.56348 -5.61914 10.2354c-1.1123 2.66992 -2.6377 7.01465 -3.38867 9.65332
l-1.36719 4.79688l-0.171875 110.901l-0.171875 110.9l-11.0791 -10.9766c-6.09473 -6.03711 -12.8115 -12.2354 -14.9268 -13.7754c-2.11523 -1.53809 -6.27539 -3.98535 -9.24512 -5.43555c-2.96973 -1.45117 -8.12988 -3.33984 -11.4668 -4.19727
c-3.73828 -0.960938 -8.70703 -1.69336 -12.9424 -1.90527c-4.91406 -0.248047 -8.53516 -0.0556641 -12.6963 0.670898c-3.20215 0.560547 -7.56152 1.60254 -9.6875 2.31738s-5.80957 2.27246 -8.18457 3.46387c-2.375 1.18945 -5.89062 3.20117 -7.8125 4.46973
s-5.63867 4.41797 -8.25977 6.99902c-2.62109 2.58008 -6.36035 7.14551 -8.30957 10.1436c-1.9502 2.99902 -4.39258 7.49902 -5.43066 10c-1.03711 2.50195 -2.48926 6.93848 -3.22754 9.86035c-1.06738 4.22266 -1.3418 7.1709 -1.3418 14.375
s0.274414 10.1523 1.3418 14.375c0.738281 2.92188 2.19043 7.3584 3.22754 9.86035c1.03809 2.50098 3.46973 7.00098 5.4043 10c3.07617 4.76562 12.0264 13.9551 71.123 73.0273c61.4395 61.415 68.0869 67.8691 72.9102 70.7939
c2.91895 1.77051 7.55957 4.0918 10.3125 5.1582s7.39648 2.44727 10.3184 3.06738c3.08691 0.65625 8.09766 1.14844 11.9629 1.17383v0.000976562zM689.375 612.224h0.00195312c5.66602 -0.179688 9.47949 -0.679688 13.8799 -1.81836
c3.33691 -0.863281 8.53223 -2.77441 11.5449 -4.24609c3.01074 -1.4707 7.59277 -4.2832 10.1807 -6.25c2.68066 -2.03516 46.5615 -45.4902 101.95 -100.96c85.71 -85.835 97.6348 -98.0059 100.528 -102.602c1.80664 -2.86719 4.11816 -7.22656 5.13867 -9.6875
c1.02051 -2.45996 2.45898 -6.86328 3.19727 -9.78516c1.06738 -4.22266 1.3418 -7.1709 1.3418 -14.375s-0.274414 -10.1523 -1.3418 -14.375c-0.738281 -2.92188 -2.19043 -7.3584 -3.22754 -9.86035c-1.03809 -2.50098 -3.46973 -7.00098 -5.4043 -10
c-3.1084 -4.81543 -15.0264 -16.9551 -102.062 -103.955c-72.5723 -72.543 -99.6113 -99.1914 -102.604 -101.119c-2.23438 -1.43945 -6.15723 -3.62109 -8.71875 -4.84668c-2.56055 -1.22656 -7.3418 -2.91895 -10.625 -3.76367
c-3.64355 -0.936523 -8.64648 -1.66992 -12.8438 -1.87988c-4.91406 -0.248047 -8.53516 -0.0556641 -12.6963 0.670898c-3.20215 0.560547 -7.56152 1.60254 -9.6875 2.31738s-5.80957 2.27246 -8.18457 3.46387c-2.375 1.18945 -5.89062 3.20117 -7.8125 4.46973
s-5.63867 4.41797 -8.25977 6.99902c-2.62109 2.58008 -6.36035 7.14551 -8.30957 10.1436c-1.9502 2.99902 -4.39258 7.49902 -5.43066 10c-1.03711 2.50195 -2.48926 6.93848 -3.22754 9.86035c-1.06738 4.22266 -1.3418 7.1709 -1.3418 14.375
s0.274414 10.1523 1.3418 14.375c0.738281 2.92188 2.19043 7.3584 3.22754 9.86035c1.03809 2.50098 3.47363 7.00098 5.41309 10c2.97461 4.59668 9.07617 11.0127 38.9219 40.9209c19.4678 19.5078 35.0605 35.4688 34.6494 35.4688
c-0.410156 0 -6.31055 -1.14844 -13.1113 -2.55273c-6.80176 -1.40332 -17.5244 -3.79297 -23.8281 -5.30957s-17.2725 -4.43164 -24.375 -6.47852s-18.2578 -5.52637 -24.7891 -7.73145s-14.6875 -5.06934 -18.125 -6.36523s-10.4688 -4.11328 -15.625 -6.26074
c-5.15625 -2.14648 -14.0107 -6.05957 -19.6758 -8.69531c-5.66602 -2.63477 -14.2148 -6.91211 -18.999 -9.50293c-4.7832 -2.5918 -12.5225 -6.97949 -17.1982 -9.75098c-4.67676 -2.77148 -12.4258 -7.69434 -17.2217 -10.9414
c-4.79492 -3.24609 -11.8262 -8.24316 -15.625 -11.1035c-3.79785 -2.86035 -9.15527 -7.07422 -11.9053 -9.3623c-2.75 -2.29004 -8.84473 -7.68555 -13.5439 -11.9932c-4.7002 -4.30762 -11.085 -10.5771 -14.1904 -13.9336
c-3.10547 -3.35742 -7.79688 -8.60156 -10.4258 -11.6553c-2.62891 -3.05273 -7.52344 -9.20703 -10.874 -13.6758c-3.35156 -4.46875 -8.10352 -11.1377 -10.5596 -14.8203s-6.76562 -10.7041 -9.57715 -15.6045c-2.81055 -4.89941 -7.27832 -13.418 -9.92676 -18.9287
c-2.64844 -5.51172 -6.24219 -13.5605 -7.9873 -17.8867c-1.74414 -4.3252 -4.57422 -11.9795 -6.28906 -17.0088c-1.71387 -5.0293 -4.23926 -13.1611 -5.61133 -18.0723c-1.37305 -4.91016 -3.19922 -12.0225 -4.05957 -15.8037s-2.26758 -10.5312 -3.12793 -15
c-0.861328 -4.46875 -2.13379 -12.2031 -2.82812 -17.1875c-0.696289 -4.98438 -1.68066 -13.4219 -2.18848 -18.75s-1.10156 -12.5 -1.31738 -15.9375c-0.216797 -3.4375 -0.634766 -13.8438 -0.928711 -23.125c-0.428711 -13.5283 -0.78418 -17.8662 -1.79297 -21.875
c-0.691406 -2.75 -2.10547 -7.0459 -3.14258 -9.54785c-1.03613 -2.50098 -3.39551 -6.86035 -5.24219 -9.6875c-1.84766 -2.82617 -4.84277 -6.75781 -6.65625 -8.73535c-1.81348 -1.97852 -5.45605 -5.22266 -8.09375 -7.21094
c-2.63965 -1.9873 -7.2627 -4.81934 -10.2744 -6.29004c-3.0127 -1.47168 -8.20801 -3.37793 -11.5449 -4.23535c-3.73828 -0.960938 -8.70703 -1.69336 -12.9424 -1.90527c-4.91406 -0.248047 -8.53516 -0.0556641 -12.6963 0.670898
c-3.20215 0.560547 -7.56152 1.60254 -9.6875 2.31738s-5.80957 2.27246 -8.18457 3.46387c-2.375 1.18945 -5.89062 3.20117 -7.8125 4.46973s-5.63867 4.41797 -8.25977 6.99902c-2.62109 2.58008 -6.36035 7.14551 -8.30957 10.1436
c-1.9502 2.99902 -4.39258 7.49902 -5.42871 10c-1.03711 2.50195 -2.4541 6.79785 -3.14941 9.54785c-0.874023 3.4541 -1.36914 7.99707 -1.60254 14.6973c-0.185547 5.33301 -0.0136719 16.7236 0.383789 25.3125c0.396484 8.58789 1.13867 20.5371 1.64844 26.5527
c0.510742 6.01562 1.50879 15.5781 2.21777 21.25c0.709961 5.67188 2.09961 15.2344 3.08887 21.25c0.990234 6.01562 2.67578 15.1562 3.74609 20.3125c1.07129 5.15625 3.30859 14.7188 4.97168 21.25c1.66406 6.53125 4.48145 16.6562 6.26172 22.5
s4.91406 15.209 6.96289 20.8115s5.5498 14.6025 7.78027 20s7.53906 16.8447 11.7959 25.4385s10.043 19.5625 12.8574 24.375s8.56055 13.9531 12.7695 20.3125c4.20801 6.35938 10.2744 15.0781 13.4805 19.375c3.20508 4.29688 7.66895 10.0625 9.91797 12.8125
s6.62891 7.94922 9.73145 11.5537c3.10254 3.60547 9.29785 10.3398 13.7666 14.9668c4.46875 4.62793 11.7812 11.9053 16.25 16.1738s12.2031 11.1797 17.1875 15.3594c4.98438 4.17871 12.7188 10.4346 17.1875 13.9004c4.46875 3.46484 11.7051 8.80371 16.0811 11.8613
c4.375 3.05762 12.3906 8.41113 17.8125 11.8965c5.4209 3.48535 14.6377 9.08398 20.4814 12.4424s17.0938 9.38672 25 13.3965s18.3125 9.06152 23.125 11.2256s14.6562 6.32812 21.875 9.25195c7.21875 2.92578 18.4688 7.22559 25 9.55859
c6.53125 2.33203 16.8496 5.80664 22.9316 7.72168c6.08008 1.91309 15.502 4.73145 20.9375 6.26172c5.43359 1.5293 15.5059 4.19434 22.3809 5.92188c6.875 1.72656 16.2969 3.97559 20.9375 4.99805s13.5986 2.87207 19.9072 4.10938
c6.30859 1.23828 18.2617 3.35254 26.5625 4.69824c8.30078 1.34668 17.4834 2.76562 20.4053 3.15332s5.71777 0.835938 6.21387 0.99707c0.577148 0.186523 -16 17.2188 -46.0352 47.2969c-40.2744 40.333 -47.4365 47.7783 -50.4609 52.457
c-1.93945 2.99902 -4.37305 7.49902 -5.41113 10c-1.03711 2.50195 -2.48926 6.93848 -3.22754 9.86035c-1.06738 4.22266 -1.3418 7.1709 -1.3418 14.375s0.274414 10.1523 1.3418 14.375c0.738281 2.92188 2.19043 7.3584 3.22754 9.86035
c1.03809 2.50098 3.48047 7.00098 5.43066 10c1.94922 2.99805 5.68848 7.56348 8.30957 10.1436c2.62109 2.58105 6.33789 5.73047 8.25977 6.99902s5.4375 3.28027 7.8125 4.46973c2.375 1.19141 6.07324 2.75488 8.21875 3.47559
c2.14453 0.720703 6.08203 1.72461 8.75 2.22949c3.25293 0.617188 7.4209 0.837891 12.6621 0.670898z" />
  </g>

</svg>
