<?xml version="1.0" standalone="no"?>
<!DOCTYPE svg PUBLIC "-//W3C//DTD SVG 1.1//EN" "http://www.w3.org/Graphics/SVG/1.1/DTD/svg11.dtd" >
<svg xmlns="http://www.w3.org/2000/svg" xmlns:xlink="http://www.w3.org/1999/xlink" version="1.1" viewBox="-10 0 1010 1000">
  <g transform="matrix(1 0 0 -1 0 800)">
   <path fill="currentColor"
d="M238.618 446.165l-0.000976562 -0.000976562c78.585 0.0576172 117.732 -0.129883 121.799 -0.583008c3.29492 -0.367188 8.35742 -1.35352 11.25 -2.19238c2.89062 -0.836914 7.28516 -2.54102 9.76367 -3.78516c2.47949 -1.24414 6.05176 -3.28125 7.93945 -4.52734
c1.88672 -1.24512 5.32812 -4.05176 7.64551 -6.2373c2.31836 -2.18457 5.59375 -5.84082 7.27832 -8.125c1.68359 -2.2832 4.21875 -6.46387 5.63184 -9.28906c1.41309 -2.82422 3.27734 -7.5791 4.14258 -10.5664c0.866211 -2.9873 1.87402 -8.12109 2.24121 -11.4092
c0.485352 -4.36133 0.47168 -7.6543 -0.0546875 -12.1777c-0.396484 -3.41016 -1.40527 -8.56152 -2.24121 -11.4473c-0.836914 -2.88672 -2.54102 -7.27637 -3.78906 -9.75488c-1.24707 -2.47949 -3.39746 -6.19531 -4.77734 -8.25781s-4.94727 -6.14062 -7.92676 -9.0625
c-3.16602 -3.10352 -7.50781 -6.55957 -10.4424 -8.31348c-2.76367 -1.65039 -6.96289 -3.78809 -9.33203 -4.75098s-6.13574 -2.27344 -8.37012 -2.91211c-3.72852 -1.06738 -7.63086 -1.19141 -47.5 -1.5l-43.4375 -0.335938l7.24219 -5.41602
c3.98242 -2.97852 10.4512 -7.51758 14.375 -10.0879c3.92285 -2.57031 10.0586 -6.30078 13.6348 -8.28906c3.57617 -1.98926 9.76367 -5.07324 13.75 -6.85547c3.98633 -1.78125 10.3594 -4.27344 14.1621 -5.53809c3.80371 -1.26562 9.56934 -2.875 12.8125 -3.57812
c4.26074 -0.921875 9.22754 -1.37109 17.8838 -1.61719c7.28418 -0.207031 14.7617 -0.0537109 19.0625 0.390625c3.89258 0.401367 10.5654 1.43262 14.8281 2.29004s11.5752 2.83594 16.25 4.39648s11.9404 4.48242 16.1475 6.49316s10.0488 5.10547 12.9824 6.87695
c2.93262 1.77246 7.55762 4.87109 10.2764 6.88672s7.22754 5.67773 10.0186 8.1377s7.20312 6.90527 9.80371 9.87793c2.60156 2.97363 7.11816 8.73242 10.0381 12.7949c2.91895 4.06445 7.76562 10.3975 10.7676 14.0742
c3.00391 3.67773 8.52734 9.88672 12.2744 13.7998c3.74902 3.91309 10.3311 10.2061 14.6279 13.9844s11.8086 9.85742 16.6934 13.5098c4.88477 3.65137 12.9004 9.16016 17.8125 12.2412s14.5566 8.43066 21.4316 11.8896c6.875 3.45801 16.2969 7.78418 20.9375 9.6123
c4.64062 1.8291 11.7891 4.43262 15.8867 5.78516c4.09668 1.35352 11.1279 3.42676 15.625 4.6084c4.49609 1.18164 11.666 2.85645 15.9316 3.72363s11.9824 2.14062 17.1494 2.83008s14.8955 1.56055 21.6191 1.93652
c6.89648 0.384766 17.5381 0.501953 24.4131 0.269531c6.70312 -0.227539 15.1406 -0.686523 18.75 -1.02051s10.2432 -1.15039 14.7412 -1.81348c4.49805 -0.664062 11.5293 -1.92969 15.625 -2.8125s10.6807 -2.47168 14.6338 -3.53027
c3.95312 -1.05762 11.125 -3.25684 15.9375 -4.88574c4.8125 -1.62793 12.4062 -4.46094 16.875 -6.29395s12.9062 -5.7666 18.75 -8.74121s13.2969 -7.03516 16.5625 -9.02441c3.26562 -1.98828 9.45312 -6.01074 13.75 -8.93945s11.0859 -7.95117 15.0879 -11.1631
c4.00098 -3.20996 10.4697 -8.76855 14.375 -12.3506c3.9043 -3.58105 10.1045 -9.8457 13.7773 -13.9199c3.67383 -4.07422 8.50098 -9.67871 10.7275 -12.4531c2.22754 -2.77637 5.92676 -7.69824 8.22168 -10.9375c2.29492 -3.24121 5.2793 -8.17773 6.63281 -10.9717
s3.1709 -7.85645 4.03906 -11.25c0.867188 -3.39355 1.74414 -9.00293 1.94629 -12.4658c0.219727 -3.76562 0.0595703 -8.4082 -0.399414 -11.5488c-0.422852 -2.8877 -1.47559 -7.50684 -2.33984 -10.2656c-0.865234 -2.75781 -2.80273 -7.4082 -4.30566 -10.333
c-1.50391 -2.9248 -4.5791 -7.625 -6.83496 -10.4443s-6.41113 -6.97461 -9.2334 -9.23438c-2.82227 -2.26074 -7.94434 -5.50586 -11.3818 -7.21289s-9.0625 -3.84277 -12.5 -4.74805c-5.37109 -1.41309 -7.52539 -1.64453 -15.3125 -1.64453
c-7.71191 0 -9.95801 0.236328 -15.0742 1.58789c-3.30664 0.874023 -8.1748 2.58789 -10.8174 3.80859c-2.64355 1.22168 -6.6875 3.47266 -8.98828 5.00391c-2.30078 1.53027 -6.0293 4.56445 -8.28613 6.74316c-2.25684 2.17676 -6.52148 7.19336 -9.47754 11.1465
c-2.95508 3.95312 -7.25 9.22754 -9.54297 11.7217c-2.29297 2.49316 -6.8877 6.8125 -10.21 9.59668c-3.32422 2.78516 -9.40137 7.29492 -13.5088 10.0225c-4.10742 2.72852 -10.8574 6.60742 -15 8.62109c-4.14258 2.0127 -10.3447 4.70898 -13.7822 5.99023
s-9.90625 3.25293 -14.375 4.38184s-11.3594 2.55371 -15.3125 3.16699c-5.40039 0.838867 -10.917 1.11719 -22.1875 1.12109c-11.2354 0.00488281 -16.792 -0.270508 -22.1396 -1.09473c-3.92676 -0.606445 -9.55176 -1.67383 -12.5 -2.37207
c-2.94824 -0.697266 -8.03223 -2.11914 -11.2979 -3.1582c-3.26562 -1.04004 -8.60938 -2.99805 -11.875 -4.35059s-8.60938 -3.87793 -11.875 -5.61133c-3.26562 -1.73438 -8.60938 -4.93359 -11.875 -7.11035c-3.26562 -2.17578 -8.19141 -5.77246 -10.9453 -7.99121
c-2.75488 -2.21875 -7.70508 -6.84375 -11.001 -10.2783c-3.2959 -3.43359 -8.61426 -9.86621 -11.8184 -14.293c-3.2041 -4.42773 -7.86914 -10.5996 -10.3652 -13.7168c-2.49805 -3.11719 -7.8916 -9.30469 -11.9873 -13.75
c-4.09473 -4.44531 -10.5117 -10.8154 -14.2578 -14.1553c-3.74805 -3.33887 -9.48535 -8.20605 -12.751 -10.8154s-9.24512 -7.04883 -13.2871 -9.86621c-4.04199 -2.81641 -10.5098 -7.03223 -14.375 -9.36816c-3.86426 -2.33594 -11.666 -6.5957 -17.3379 -9.46582
c-5.67188 -2.87109 -13.8281 -6.68945 -18.125 -8.48633s-12.7344 -4.9082 -18.75 -6.91406c-6.01562 -2.00684 -14.875 -4.63184 -19.6875 -5.83398s-12.5469 -2.87793 -17.1875 -3.72168c-4.64062 -0.845703 -12.6562 -2.04688 -17.8125 -2.6709
c-7.39648 -0.895508 -13.9258 -1.13281 -30.9375 -1.12598c-17.2793 0.00683594 -23.1143 0.229492 -29.375 1.11914c-4.29688 0.611328 -10.7656 1.6748 -14.375 2.36328c-3.60938 0.689453 -9.375 1.9502 -12.8125 2.80371
c-3.4375 0.852539 -9.90527 2.69141 -14.375 4.08496c-4.46875 1.39355 -12.3438 4.20801 -17.5 6.25488c-5.15527 2.04688 -13.9102 5.9209 -19.4531 8.60938c-5.54297 2.68945 -14.1211 7.20215 -19.0625 10.0283c-4.94141 2.82715 -14.1875 8.58691 -20.5469 12.8008
c-6.35938 4.21289 -15.4873 10.6865 -20.2842 14.3848s-11.4062 8.97363 -14.6875 11.7217l-5.96582 4.99902l-0.34375 -44.6016c-0.331055 -43.0127 -0.390625 -44.7793 -1.67969 -49.6025c-0.736328 -2.75 -2.1582 -6.96875 -3.16211 -9.375
c-1.00293 -2.40625 -2.74121 -5.92188 -3.8623 -7.8125c-1.12012 -1.89062 -3.41699 -5.17285 -5.10254 -7.29395s-4.60254 -5.26172 -6.48047 -6.97754c-1.87891 -1.7168 -5.3877 -4.43262 -7.79688 -6.03516c-2.41016 -1.60254 -6.61914 -3.88184 -9.35254 -5.06641
c-2.73438 -1.18555 -7.30566 -2.77051 -10.1582 -3.52344c-4.25586 -1.12207 -6.9248 -1.37012 -14.874 -1.37793c-8.63184 -0.00878906 -10.3535 0.174805 -15.7949 1.68359c-3.35938 0.931641 -8.43555 2.80469 -11.2793 4.16211
c-2.84473 1.35742 -6.96973 3.79199 -9.16797 5.41016s-5.37598 4.23242 -7.0625 5.80957c-1.68652 1.57812 -4.66699 4.99219 -6.62305 7.58789c-1.95508 2.5957 -4.76074 7.18457 -6.23145 10.1963c-1.47168 3.0127 -3.43066 8.20801 -4.35254 11.5449l-1.67578 6.06738
l-0.180664 120.938c-0.125977 84.7451 0.0234375 122.502 0.501953 126.166c0.375 2.875 1.39844 7.51562 2.27539 10.3125c0.876953 2.7959 2.71094 7.24316 4.07617 9.88281s3.44629 6.15527 4.62402 7.8125s4.18066 5.08008 6.67285 7.60645
c2.49121 2.52637 7.03516 6.25 10.0967 8.27441c3.0625 2.02441 7.79199 4.53809 10.5088 5.58594c2.71875 1.04785 6.68164 2.35156 8.80859 2.89648c2.12598 0.544922 5.83496 1.2002 8.24121 1.45508c2.40723 0.254883 56.4883 0.501953 120.182 0.547852z" />
  </g>

</svg>
