<?xml version="1.0" standalone="no"?>
<!DOCTYPE svg PUBLIC "-//W3C//DTD SVG 1.1//EN" "http://www.w3.org/Graphics/SVG/1.1/DTD/svg11.dtd" >
<svg xmlns="http://www.w3.org/2000/svg" xmlns:xlink="http://www.w3.org/1999/xlink" version="1.1" viewBox="-10 0 1010 1000">
  <g transform="matrix(1 0 0 -1 0 800)">
   <path fill="currentColor"
d="M126.562 507.884v0.000976562c8.67871 -0.18457 10.7432 -0.436523 15.625 -1.90234c3.09375 -0.928711 7.84375 -2.79785 10.5566 -4.15527c2.71191 -1.35645 6.64941 -3.69824 8.75 -5.20312c2.09961 -1.50488 5.81738 -4.80664 8.26172 -7.33594
c2.44336 -2.5293 5.85742 -6.76758 7.58691 -9.41797s4.03613 -6.95996 5.12598 -9.57812c1.08984 -2.61719 2.58691 -6.91797 3.32715 -9.55664c1.30371 -4.64941 1.35645 -6.17383 1.68066 -49.6094l0.335938 -44.8135l5.9375 5.03223
c3.26562 2.76758 10.3652 8.37207 15.7764 12.4561c5.41211 4.08301 13.9902 10.1943 19.0625 13.5811c5.07324 3.3877 12.4482 8.06738 16.3896 10.4014c3.94043 2.33301 11.3936 6.44434 16.5625 9.13477c5.16797 2.68945 13.0527 6.46875 17.5215 8.39648
s11.5801 4.76074 15.8027 6.29492s11.5303 3.91602 16.2393 5.29297s12.5039 3.32129 17.3223 4.32129s11.9951 2.28516 15.9482 2.85645c3.95312 0.570312 13.7969 1.22266 21.875 1.44922c8.07812 0.225586 19.3818 0.214844 25.1191 -0.0253906
s14.0342 -0.894531 18.4375 -1.45605c4.40332 -0.560547 11.7275 -1.70117 16.2744 -2.53418c4.54785 -0.833008 12.5684 -2.6123 17.8223 -3.95312c5.25391 -1.33984 13.4863 -3.75684 18.2939 -5.37109c4.80664 -1.61426 12.7656 -4.60254 17.6846 -6.63867
c4.91895 -2.03711 12.3721 -5.42188 16.5625 -7.52148c4.19043 -2.10059 10.1494 -5.22656 13.2432 -6.94727s10.4062 -6.2998 16.25 -10.1758c5.84375 -3.875 14.4219 -10.085 19.0625 -13.7988c4.64062 -3.71289 13.3828 -11.6836 19.4277 -17.7109
c6.04395 -6.02637 13.3867 -13.9111 16.3174 -17.5205c2.92969 -3.60938 7.66113 -9.79688 10.5127 -13.75c2.85254 -3.95312 7.17871 -9.55176 9.61426 -12.4414s6.92676 -7.46094 9.98047 -10.1582c3.05273 -2.69824 7.55957 -6.41699 10.0137 -8.26367
s7.12988 -4.9834 10.3916 -6.96973c3.26074 -1.9873 9.02344 -5.0918 12.8047 -6.89844c3.78125 -1.80762 9.62012 -4.30078 12.9746 -5.54004s9.26074 -3.0625 13.125 -4.05273s9.69727 -2.28125 12.9629 -2.87109c4.03125 -0.727539 10.7773 -1.17285 21.0127 -1.38867
c9.59766 -0.201172 17.4316 -0.0498047 21.5625 0.417969c3.56836 0.405273 9.86621 1.41211 13.9971 2.23828c4.13086 0.825195 11.0156 2.66016 15.2988 4.07617c4.2832 1.41699 11.0654 4.05762 15.0693 5.86816c4.00488 1.81055 10.1992 5.0332 13.7646 7.16211
s9.01367 5.7373 12.1074 8.01855c3.09375 2.28223 9.2998 7.82617 13.792 12.3193c4.49121 4.49414 10.5625 11.4053 13.4912 15.3584c2.92773 3.95312 7.05273 8.78516 9.16602 10.7383s6.00293 4.96973 8.64551 6.7041c2.6416 1.73438 6.88574 4.02051 9.43262 5.08105
c2.54492 1.05859 6.78711 2.52051 9.42578 3.24609c3.9834 1.0957 6.54688 1.32031 15.1094 1.32031s11.126 -0.224609 15.1094 -1.32031c2.63867 -0.725586 6.88086 -2.1875 9.42578 -3.24609c2.54688 -1.06055 6.79102 -3.34668 9.43262 -5.08105
c2.64258 -1.73438 6.53516 -4.75098 8.65234 -6.7041c2.11621 -1.95312 5.43457 -5.68555 7.37402 -8.29395s4.72168 -7.19043 6.18359 -10.1826s3.38672 -8.16992 4.27832 -11.5068c1.38574 -5.18945 1.62695 -7.42285 1.66602 -15.4424
c0.0380859 -7.88672 -0.185547 -10.2686 -1.40918 -15c-0.800781 -3.09375 -2.6875 -8.25098 -4.19531 -11.4609c-1.50684 -3.20996 -4.33984 -8.13184 -6.2959 -10.9375s-6.24121 -8.47656 -9.52344 -12.6016s-11.0391 -12.5811 -17.2393 -18.79
c-6.19922 -6.20996 -14.2246 -13.6934 -17.834 -16.6289c-3.60938 -2.9375 -9.75 -7.62891 -13.6465 -10.4258c-3.89648 -2.79883 -10.7852 -7.38672 -15.3096 -10.1973s-12.4463 -7.29004 -17.6035 -9.95605c-5.1582 -2.66504 -13.4561 -6.58301 -18.4404 -8.70801
c-4.98438 -2.12305 -13.9844 -5.50098 -20 -7.50684c-6.01562 -2.00391 -14.875 -4.62988 -19.6875 -5.83496c-4.8125 -1.2041 -12.5908 -2.89551 -17.2852 -3.75977s-12.5693 -2.0752 -17.5 -2.69043c-7.20215 -0.900391 -13.6348 -1.12109 -32.7148 -1.12109
c-19.1426 0 -25.5078 0.219727 -32.8125 1.12988c-4.98438 0.621094 -12.8594 1.8291 -17.5 2.68555c-4.63965 0.855469 -11.9453 2.41406 -16.2334 3.46289c-4.28906 1.04883 -11.7422 3.16797 -16.5635 4.70801c-4.82129 1.54102 -13.082 4.49902 -18.3584 6.57324
c-5.27539 2.07422 -14.5566 6.25 -20.625 9.2793c-6.06738 3.0293 -14.3926 7.52734 -18.501 9.99609c-4.10742 2.46973 -10.7168 6.75684 -14.6875 9.52832c-3.96973 2.77148 -10.4531 7.61914 -14.4062 10.7744c-3.95312 3.1543 -10.2812 8.5957 -14.0625 12.0928
c-3.78125 3.49609 -9.63672 9.37402 -13.0117 13.0605c-3.37598 3.68652 -8.17871 9.23438 -10.6748 12.3281c-2.49512 3.09375 -7.17578 9.27051 -10.3994 13.7266c-3.22559 4.45703 -8.8125 11.1553 -12.418 14.8867c-3.60449 3.73145 -8.95996 8.70117 -11.9004 11.043
s-8.01758 5.99219 -11.2832 8.1123s-9.875 5.79492 -14.6875 8.16504c-4.8125 2.37109 -12.5469 5.58105 -17.1875 7.13281c-4.64062 1.55273 -11.1094 3.41309 -14.375 4.13379s-8.89062 1.73926 -12.5 2.26367c-4.33594 0.628906 -11.0146 0.939453 -19.6875 0.913086
c-8.71582 -0.0263672 -14.8789 -0.352539 -18.3467 -0.97168c-2.87109 -0.512695 -7.85938 -1.65137 -11.085 -2.5293c-3.22559 -0.878906 -8.3291 -2.54492 -11.3418 -3.70117c-3.01172 -1.1582 -8.15039 -3.35156 -11.418 -4.87598
c-3.26758 -1.52539 -9.0332 -4.55273 -12.8125 -6.72949s-9.82422 -5.92969 -13.4336 -8.33984s-9.375 -6.51367 -12.8125 -9.11816l-6.25 -4.73633l42.1875 -0.339844l42.1875 -0.338867l5.94434 -1.61816c3.27051 -0.889648 7.87988 -2.49512 10.2441 -3.56641
c2.36328 -1.07227 6.58984 -3.47461 9.39062 -5.33789c2.80078 -1.86426 7.35059 -5.74023 10.1113 -8.61621c2.75977 -2.875 6.46289 -7.57422 8.22852 -10.4443c1.76562 -2.86914 4.08398 -7.62988 5.15137 -10.5811c1.06738 -2.9502 2.31738 -7.20215 2.77637 -9.44824
c0.459961 -2.24609 1.02246 -6.19336 1.25098 -8.77148s0.107422 -7.21875 -0.268555 -10.3125c-0.376953 -3.09375 -1.24609 -7.73438 -1.93262 -10.3125s-2.63574 -7.5 -4.33105 -10.9375c-1.69629 -3.4375 -4.89844 -8.51562 -7.11523 -11.2852
c-2.21777 -2.76953 -5.53223 -6.31641 -7.36621 -7.88184c-1.83301 -1.56543 -5.36816 -4.16211 -7.85352 -5.76953c-2.48633 -1.60742 -6.52344 -3.77441 -8.97168 -4.81641c-2.44824 -1.04102 -6.60156 -2.50781 -9.23047 -3.25781l-4.77832 -1.36426l-122.979 -0.166992
c-118.658 -0.161133 -123.183 -0.125 -128.75 1.01855c-3.1748 0.652344 -8.02441 2.05762 -10.7773 3.12305s-7.25293 3.32129 -10 5.0127s-6.94434 4.86133 -9.32812 7.04395c-2.38379 2.18359 -5.97949 6.18652 -7.99121 8.89648
c-2.01172 2.71094 -4.79785 7.31836 -6.19141 10.2383s-3.28223 8.01562 -4.19629 11.3213l-1.66211 6.0127v124.062v124.062l1.35742 5.08203c0.74707 2.7959 2.27246 7.28125 3.39062 9.9668c1.11816 2.68652 3.65234 7.30371 5.63086 10.2617
s5.80566 7.48828 8.50391 10.0664s6.21191 5.58594 7.80859 6.68457s5.10352 3.08496 7.79395 4.41602c2.68945 1.33008 6.32812 2.8877 8.08496 3.46094c1.75781 0.573242 4.99219 1.44824 7.1875 1.94434c2.84863 0.642578 6.85938 0.839844 13.9922 0.688477z" />
  </g>

</svg>
