<?xml version="1.0" standalone="no"?>
<!DOCTYPE svg PUBLIC "-//W3C//DTD SVG 1.1//EN" "http://www.w3.org/Graphics/SVG/1.1/DTD/svg11.dtd" >
<svg xmlns="http://www.w3.org/2000/svg" xmlns:xlink="http://www.w3.org/1999/xlink" version="1.1" viewBox="-10 0 1010 1000">
  <g transform="matrix(1 0 0 -1 0 800)">
   <path fill="currentColor"
d="M128.438 549.938c5.15527 0.0263672 14.8584 -0.228516 21.5615 -0.567383c6.70312 -0.337891 16.9688 -1.05469 22.8125 -1.59082s14.8203 -1.5332 19.9473 -2.21484c5.12793 -0.681641 14.6895 -2.22168 21.25 -3.42188
c6.56055 -1.19922 17.1309 -3.44727 23.4902 -4.99609c6.35938 -1.54688 15.8945 -4.08984 21.1885 -5.65137c5.29395 -1.56055 13.8721 -4.3252 19.0625 -6.14355s13.7959 -5.07324 19.124 -7.2334s13.2031 -5.53613 17.5 -7.50098
c4.29688 -1.9668 11.0469 -5.19434 15 -7.17383c3.95312 -1.98047 10.5625 -5.43262 14.6875 -7.67188s12.4219 -7.01953 18.4375 -10.623c6.01562 -3.60254 15.8594 -9.78613 21.875 -13.7402c6.01562 -3.95312 14.5938 -9.74121 19.0625 -12.8623
s17.6875 -12.5986 29.375 -21.0605c11.6875 -8.46289 25.8906 -18.6396 31.5625 -22.6162c5.67188 -3.97559 14.25 -9.74414 19.0625 -12.8184s11.7471 -7.31836 15.4102 -9.43164c3.66504 -2.11328 10.6025 -5.80957 15.418 -8.21387
c4.81641 -2.4043 11.1016 -5.33984 13.9648 -6.52344c2.86426 -1.18359 8.58203 -3.31738 12.707 -4.74023s10.7646 -3.41699 14.7559 -4.43164c3.99023 -1.01465 11.3027 -2.5293 16.25 -3.36621c4.94629 -0.835938 12.9316 -1.81836 17.7441 -2.18066
c5.30957 -0.400391 33.4463 -0.661133 71.5518 -0.662109l62.8027 -0.00292969l-42.5859 42.6562c-36.3447 36.4043 -43.1035 43.4561 -46.1123 48.1084c-1.93848 2.99902 -4.37305 7.49902 -5.41113 10c-1.03711 2.50195 -2.48926 6.93848 -3.22754 9.86035
c-1.06738 4.22266 -1.3418 7.1709 -1.3418 14.375s0.274414 10.1523 1.3418 14.375c0.738281 2.92188 2.19043 7.3584 3.22754 9.86035c1.03809 2.50098 3.48047 7.00098 5.43066 10c1.94922 2.99805 5.68848 7.56348 8.30957 10.1436
c2.62109 2.58105 6.33789 5.73047 8.25977 6.99902s5.4375 3.28027 7.8125 4.46973c2.375 1.19141 6.05859 2.74902 8.18457 3.46387s6.48535 1.75684 9.6875 2.31738c4.16113 0.726562 7.78223 0.918945 12.6963 0.670898
c4.23535 -0.211914 9.2041 -0.944336 12.9424 -1.90527c3.33691 -0.857422 8.53223 -2.76367 11.5449 -4.23535c3.01172 -1.4707 7.59375 -4.28418 10.1816 -6.25c2.6709 -2.03027 46.7588 -45.6709 101.993 -100.961c80.1592 -80.2393 97.8359 -98.2334 100.4 -102.204
c1.71094 -2.65039 4.00293 -6.95996 5.09277 -9.57812c1.08984 -2.61719 2.5791 -6.91797 3.30957 -9.55664c1.10742 -3.99707 1.32812 -6.51562 1.32812 -15.1094s-0.220703 -11.1123 -1.32812 -15.1094c-0.730469 -2.63867 -2.21973 -6.93945 -3.30957 -9.55664
c-1.08984 -2.61816 -3.38184 -6.92773 -5.09277 -9.57812c-2.56445 -3.9707 -20.2412 -21.9648 -100.4 -102.204c-55.2334 -55.29 -99.3213 -98.9307 -101.993 -100.961c-2.58789 -1.96582 -7.16992 -4.7793 -10.1816 -6.25
c-3.0127 -1.47168 -8.20801 -3.37793 -11.5449 -4.23535c-3.73828 -0.960938 -8.70703 -1.69336 -12.9424 -1.90527c-4.91406 -0.248047 -8.53516 -0.0556641 -12.6963 0.670898c-3.20215 0.560547 -7.56152 1.60254 -9.6875 2.31738s-5.80957 2.27246 -8.18457 3.46387
c-2.375 1.18945 -5.89062 3.20117 -7.8125 4.46973s-5.63867 4.41797 -8.25977 6.99902c-2.62109 2.58008 -6.36035 7.14551 -8.30957 10.1436c-1.9502 2.99902 -4.39258 7.49902 -5.43066 10c-1.03711 2.50195 -2.48926 6.93848 -3.22754 9.86035
c-1.06738 4.22266 -1.3418 7.1709 -1.3418 14.375s0.274414 10.1523 1.3418 14.375c0.738281 2.92188 2.19043 7.3584 3.22754 9.86035c1.03809 2.50098 3.47266 7.00098 5.41113 10c3.00879 4.65234 9.76758 11.7041 46.1123 48.1084l42.5859 42.6562h-63.1807
c-37.8555 0 -66.4102 -0.258789 -71.2393 -0.645508c-4.43262 -0.355469 -10.8721 -1.07031 -14.3096 -1.58984c-3.4375 -0.518555 -8.92188 -1.52051 -12.1875 -2.22754c-3.26562 -0.706055 -8.32812 -1.94922 -11.25 -2.7627s-8.125 -2.43359 -11.5625 -3.60156
c-3.4375 -1.16895 -8.7334 -3.15625 -11.7695 -4.41699c-3.03418 -1.25977 -9.46094 -4.25879 -14.2773 -6.66309c-4.81543 -2.4043 -11.7539 -6.09961 -15.418 -8.21094c-3.66211 -2.1123 -10.5283 -6.30664 -15.2559 -9.32129
c-4.72852 -3.01465 -13.3066 -8.7832 -19.0625 -12.8184c-5.75684 -4.03613 -19.0439 -13.5605 -29.5283 -21.167c-10.4854 -7.60645 -23.2812 -16.791 -28.4375 -20.4121c-5.15625 -3.62012 -13.5938 -9.39355 -18.75 -12.8291
c-5.15625 -3.43457 -13.875 -9.01465 -19.375 -12.3994s-14.5 -8.66699 -20 -11.7383c-5.5 -3.07031 -13.6572 -7.41797 -18.125 -9.66113c-4.46875 -2.24316 -11.6406 -5.6875 -15.9375 -7.65332c-4.29785 -1.96582 -12.1729 -5.3418 -17.5 -7.50195
c-5.32812 -2.16016 -13.9336 -5.41504 -19.124 -7.2334s-13.7686 -4.58301 -19.0625 -6.14355c-5.29492 -1.56152 -14.8291 -4.10449 -21.1885 -5.65137c-6.35938 -1.54883 -16.9297 -3.79688 -23.4902 -4.99609c-6.56055 -1.2002 -16.123 -2.74023 -21.25 -3.42188
s-14.1045 -1.67871 -19.9473 -2.21484c-5.84375 -0.536133 -16.1094 -1.25293 -22.8125 -1.59082c-6.70312 -0.338867 -16.1592 -0.618164 -21.0117 -0.62207c-5.12305 -0.00292969 -11.1123 0.392578 -14.2793 0.945312c-3 0.523438 -7.18555 1.53223 -9.30078 2.24219
c-2.11523 0.710938 -5.67773 2.19336 -7.91797 3.29395c-2.23926 1.10059 -5.75488 3.1123 -7.8125 4.47168c-2.05664 1.35742 -5.88477 4.58105 -8.50586 7.16211c-2.62109 2.58008 -6.36035 7.14551 -8.30957 10.1436c-1.9502 2.99902 -4.39258 7.49902 -5.43066 10
c-1.03711 2.50195 -2.48926 6.93848 -3.22754 9.86035c-1.06738 4.22266 -1.3418 7.1709 -1.3418 14.375s0.274414 10.1523 1.3418 14.375c0.738281 2.92188 2.19043 7.3584 3.22754 9.86035c1.03809 2.50098 3.48047 7.00098 5.43066 10
c1.94922 2.99805 5.68848 7.56348 8.30957 10.1436c2.62109 2.58105 6.33789 5.73047 8.25977 6.99902s5.4375 3.28027 7.8125 4.46973c2.375 1.19141 6.04883 2.74609 8.16406 3.45703s6.30078 1.7207 9.30078 2.24414s9.14453 0.954102 13.6543 0.957031
c4.50879 0.00390625 12.9795 0.287109 18.8242 0.630859c5.84375 0.34375 13.4375 0.911133 16.875 1.2627c3.4375 0.350586 10.3271 1.21387 15.3125 1.91699c4.98438 0.703125 13.1396 2.11328 18.125 3.13379c4.98438 1.02051 12.2969 2.70508 16.25 3.74512
c3.95215 1.04004 11.5469 3.30859 16.875 5.04199c5.32715 1.73242 13.9062 4.83887 19.0625 6.90234c5.15527 2.0625 14.4375 6.22266 20.625 9.24316s15.6094 8.00488 20.9375 11.0742c5.32715 3.07031 13.7656 8.18457 18.75 11.3662
c4.98438 3.18066 13.5625 8.90527 19.0625 12.7188s18.7188 13.2637 29.375 20.999c10.6562 7.73633 25.4209 18.3037 32.8125 23.4844c7.39062 5.18066 14.7734 10.2617 16.4053 11.291s2.96777 2.02148 2.96875 2.20508c0 0.183594 -0.772461 0.791016 -1.71777 1.34961
c-0.946289 0.558594 -6.5 4.32617 -12.3438 8.37109c-5.84375 4.0459 -21.1729 14.9863 -34.0625 24.3125c-12.8906 9.32617 -27.9375 20.0801 -33.4375 23.8975s-14.0781 9.54395 -19.0625 12.7246c-4.98535 3.18164 -13.4229 8.2959 -18.75 11.3662
c-5.32812 3.06934 -14.75 8.05371 -20.9375 11.0742s-15.4688 7.18066 -20.625 9.24512c-5.15625 2.06348 -13.3125 5.03906 -18.125 6.6123s-11.7588 3.69531 -15.4355 4.71582c-3.67578 1.01953 -11.4102 2.83594 -17.1875 4.03613
c-5.77539 1.19922 -14.5801 2.75586 -19.5645 3.45801c-4.98535 0.703125 -11.875 1.56543 -15.3125 1.91602c-3.4375 0.351562 -11.0322 0.918945 -16.875 1.2627c-5.84375 0.34375 -14.3154 0.626953 -18.8242 0.630859
c-4.50977 0.00292969 -10.6543 0.433594 -13.6543 0.957031s-7.18555 1.5332 -9.30078 2.24414s-5.78906 2.26562 -8.16406 3.45703c-2.375 1.18945 -5.89062 3.20117 -7.8125 4.46973s-5.63867 4.41797 -8.25977 6.99902
c-2.62109 2.58008 -6.36035 7.14551 -8.30957 10.1436c-1.9502 2.99902 -4.39258 7.49902 -5.43066 10c-1.03711 2.50195 -2.48926 6.93848 -3.22754 9.86035c-1.06738 4.22363 -1.3418 7.1709 -1.3418 14.375s0.274414 10.1523 1.3418 14.375
c0.738281 2.92188 2.19043 7.3584 3.22754 9.86035c1.03809 2.50098 3.48047 7.00098 5.43066 10c1.94922 2.99902 5.68848 7.56445 8.30957 10.1445c2.62109 2.58105 6.44922 5.80469 8.50586 7.16211c2.05762 1.35938 5.57324 3.37109 7.8125 4.47168
c2.24023 1.10059 5.82715 2.59082 7.97266 3.31152c2.14453 0.719727 6.08203 1.7041 8.75 2.18652c2.66699 0.482422 9.06836 0.899414 14.2246 0.927734z" />
  </g>

</svg>
