<?xml version="1.0" standalone="no"?>
<!DOCTYPE svg PUBLIC "-//W3C//DTD SVG 1.1//EN" "http://www.w3.org/Graphics/SVG/1.1/DTD/svg11.dtd" >
<svg xmlns="http://www.w3.org/2000/svg" xmlns:xlink="http://www.w3.org/1999/xlink" version="1.1" viewBox="-10 0 1010 1000">
  <g transform="matrix(1 0 0 -1 0 800)">
   <path fill="currentColor"
d="M295 445.329l0.000976562 -0.000976562c19.5479 -0.158203 24.9961 -0.405273 32.8242 -1.48828c5.16211 -0.712891 12.4746 -1.88867 16.25 -2.61035c3.77441 -0.722656 10.1523 -2.13867 14.1719 -3.14746c4.02051 -1.00879 10.6299 -2.83789 14.6875 -4.06543
c4.05859 -1.22754 11.457 -3.7959 16.4414 -5.70898c4.98438 -1.91211 13.1406 -5.3584 18.125 -7.65918s12.709 -6.22852 17.166 -8.72852s11.748 -6.93066 16.2031 -9.8457c4.4541 -2.91504 11.4648 -7.86621 15.5781 -11.001
c4.11426 -3.13574 11.3076 -9.12305 15.9854 -13.3047s11.1934 -10.5234 14.4795 -14.0928c3.28516 -3.56934 8.06836 -9.02051 10.6289 -12.1143s6.89062 -8.71875 9.62402 -12.5s6.57422 -8.84375 8.53516 -11.25c1.96191 -2.40625 5.91113 -6.66602 8.77637 -9.46582
c2.86621 -2.80078 7.98242 -7.23926 11.3691 -9.86328c3.38672 -2.625 9.52539 -6.76465 13.6406 -9.19922c4.11523 -2.43652 10.4951 -5.77734 14.1777 -7.42578s9.6377 -3.97559 13.2344 -5.17188c3.59668 -1.19727 8.92969 -2.76172 11.8516 -3.47949
c2.92188 -0.71582 7.84375 -1.7666 10.9375 -2.33594c3.74219 -0.686523 10.543 -1.13281 20.3125 -1.33105c12.8525 -0.260742 15.6299 -0.137695 22.2314 0.986328c4.14844 0.706055 11.5215 2.58789 16.3828 4.18262c4.97363 1.63086 13.1543 5.02051 18.7061 7.75195
c5.42676 2.66895 12.5303 6.47363 15.7852 8.45312c3.25488 1.98047 7.61426 4.74121 9.6875 6.13574c2.07324 1.39551 7.00391 4.94922 10.957 7.89941l7.1875 5.36328l-41.5625 0.338867c-35.7227 0.290039 -42.1777 0.483398 -45.9375 1.375
c-2.40625 0.570312 -6.0166 1.60645 -8.02148 2.30273c-2.00684 0.696289 -5.66309 2.28809 -8.125 3.53711c-2.46387 1.24902 -6.37793 3.6748 -8.7002 5.38867c-2.32129 1.71484 -6.25879 5.31152 -8.75 7.99219c-2.49023 2.68164 -5.82812 7.08398 -7.41699 9.7832
s-3.62109 6.76758 -4.5166 9.04004c-0.895508 2.27441 -2.06152 5.79004 -2.59082 7.8125c-0.529297 2.02441 -1.26172 6.34375 -1.62695 9.59961c-0.480469 4.28223 -0.467773 7.60449 0.0429688 12.0059c0.389648 3.34668 1.27539 8.13574 1.96973 10.6416
c0.694336 2.50684 2.33105 6.84082 3.63867 9.63184c1.30664 2.79102 3.51758 6.75488 4.91309 8.80957c1.39453 2.05469 3.99023 5.32617 5.76758 7.27148c1.77832 1.94531 5.47266 5.22363 8.20898 7.28613c2.7373 2.0625 7.2793 4.85938 10.0918 6.21582
c2.81348 1.35547 7.64648 3.25293 10.7402 4.21582l5.625 1.75195h125.312h125.312l5.3125 -1.4502c2.92188 -0.797852 7.62598 -2.53418 10.4541 -3.85938c2.8291 -1.3252 7.26953 -3.87891 9.86816 -5.67578c2.59961 -1.79688 6.82422 -5.49707 9.38867 -8.22363
c2.56445 -2.72559 6.0752 -7.25098 7.80078 -10.0557c1.72656 -2.80469 3.98145 -7.28516 5.01172 -9.95703c1.03027 -2.6709 2.36035 -6.75098 2.95605 -9.06738c1.00879 -3.9248 1.08301 -12.6289 1.08301 -128.273c0 -115.644 -0.0742188 -124.347 -1.08301 -128.272
c-0.595703 -2.31641 -1.92578 -6.39648 -2.95605 -9.06738c-1.03027 -2.67188 -3.26562 -7.12012 -4.9668 -9.88477s-5 -7.08691 -7.33105 -9.60352c-2.33105 -2.51758 -6.07715 -5.97363 -8.3252 -7.68164c-2.24805 -1.70703 -6.90039 -4.47266 -10.3379 -6.14453
s-8.64062 -3.68555 -11.5625 -4.47363c-4.5293 -1.22266 -6.83301 -1.43359 -15.625 -1.43359c-8.84473 0 -11.0684 0.206055 -15.625 1.4502c-2.92188 0.797852 -7.62598 2.53418 -10.4541 3.85938c-2.8291 1.3252 -7.25195 3.86621 -9.8291 5.64746
c-2.57715 1.78223 -6.69336 5.35254 -9.14648 7.93555c-2.45215 2.58203 -5.83594 6.84082 -7.51855 9.46387s-3.91797 6.82812 -4.96777 9.34668c-1.0498 2.51758 -2.51562 6.73633 -3.25684 9.375c-1.31348 4.6748 -1.35254 5.94238 -1.55566 49.6621l-0.208008 44.8652
l-1.75098 -1.42773c-0.963867 -0.785156 -5.23828 -4.26172 -9.50098 -7.72754c-4.26172 -3.46387 -10.9834 -8.69238 -14.9365 -11.6191c-3.95312 -2.92578 -10.5625 -7.56934 -14.6875 -10.3174c-4.125 -2.74902 -10.4053 -6.73828 -13.9551 -8.86523
c-3.55078 -2.12793 -10.1191 -5.86133 -14.5957 -8.29688c-4.47754 -2.43457 -11.8389 -6.11523 -16.3574 -8.17871c-4.51953 -2.0625 -12.0137 -5.23242 -16.6543 -7.04395c-4.64062 -1.8125 -11.6719 -4.29492 -15.625 -5.5166
c-3.95312 -1.22266 -10.6846 -3.10156 -14.959 -4.17578c-4.27539 -1.07324 -11.7285 -2.61426 -16.5625 -3.42383c-4.83496 -0.810547 -12.5186 -1.8125 -17.0752 -2.22559c-5.44922 -0.493164 -14.9648 -0.636719 -27.8125 -0.419922
c-14.7373 0.25 -21.8311 0.647461 -28.915 1.61621c-5.16211 0.707031 -12.4746 1.87695 -16.25 2.59961c-3.77441 0.722656 -10.6602 2.2666 -15.3008 3.43164c-4.64062 1.16406 -12.0938 3.28125 -16.5625 4.70508s-12.0625 4.13672 -16.875 6.03027
s-13.25 5.6377 -18.75 8.32227c-5.5 2.68359 -13.0938 6.67969 -16.875 8.87793c-3.78125 2.19922 -9.40625 5.63281 -12.5 7.63086s-9.28125 6.37402 -13.75 9.72363c-4.46875 3.35059 -11.6406 9.18652 -15.9375 12.9688
c-4.29688 3.7832 -10.6289 9.79785 -14.0723 13.3652s-8.37793 9.01758 -10.9648 12.1113c-2.58887 3.09375 -5.98828 7.3125 -7.55371 9.375c-1.56738 2.0625 -5.23633 6.98438 -8.15527 10.9375c-2.91797 3.95312 -7.21777 9.24023 -9.55469 11.751
c-2.33691 2.50879 -6.95215 6.82617 -10.2559 9.59473c-3.30371 2.76758 -8.95898 6.99707 -12.5684 9.39844s-10.6582 6.40137 -15.6641 8.88867c-5.00684 2.48633 -13.0273 5.82812 -17.8242 7.42383c-4.79688 1.59668 -11.9521 3.5957 -15.8984 4.44238
c-3.94629 0.847656 -10.0654 1.87207 -13.5986 2.27637c-4.09375 0.46875 -12.2529 0.62793 -22.5 0.439453c-12.8916 -0.238281 -17.4395 -0.55957 -22.9521 -1.62207c-3.78125 -0.729492 -9.46875 -2.02441 -12.6387 -2.87988
c-3.1709 -0.854492 -8.51465 -2.56445 -11.875 -3.79883c-3.36133 -1.23438 -9.76758 -4.02344 -14.2363 -6.19922c-4.46875 -2.1748 -11.0781 -5.90723 -14.6875 -8.29395s-8.71973 -6.05859 -11.3555 -8.15918c-2.63477 -2.10156 -7.375 -6.43262 -10.5322 -9.62598
c-3.15625 -3.19434 -8.49805 -9.47461 -11.8691 -13.957c-3.37109 -4.4834 -7.50684 -9.44043 -9.19238 -11.0156c-1.68359 -1.5752 -4.77637 -4.12695 -6.87109 -5.66895s-6.23828 -3.99121 -9.20801 -5.44141c-2.96973 -1.45117 -8.12988 -3.33984 -11.4668 -4.19727
c-3.73828 -0.960938 -8.70703 -1.69336 -12.9424 -1.90527c-4.91406 -0.248047 -8.53516 -0.0556641 -12.6963 0.670898c-3.20215 0.560547 -7.56152 1.60156 -9.6875 2.31543c-2.12598 0.714844 -5.69824 2.2002 -7.93848 3.30078
c-2.23926 1.10059 -5.75488 3.1123 -7.8125 4.47168c-2.05664 1.35742 -5.88477 4.58105 -8.50586 7.16211c-2.62109 2.58008 -6.36035 7.14551 -8.30957 10.1436c-1.9502 2.99902 -4.39258 7.49902 -5.43066 10c-1.03711 2.50195 -2.48926 6.93848 -3.22754 9.86035
c-1.06738 4.22266 -1.3418 7.1709 -1.3418 14.375s0.274414 10.1523 1.3418 14.375c0.738281 2.92188 2.19629 7.37207 3.24023 9.88965s3.68359 7.29883 5.86621 10.625s6.88672 9.7041 10.4521 14.1729c3.56641 4.46875 10.5771 12.3096 15.5791 17.4238
c5.00293 5.11426 12.4707 12.1631 16.5957 15.6641s9.79004 8.0957 12.5889 10.209c2.79883 2.11426 9.12695 6.47949 14.0625 9.7002s11.5391 7.30957 14.6748 9.08691c3.13574 1.77637 10.0264 5.32031 15.3125 7.875c5.28613 2.55371 12.5645 5.82324 16.1738 7.26465
c3.60938 1.44238 10.6084 3.99316 15.5527 5.66992s12.6787 4.0166 17.1875 5.2002s11.8535 2.86328 16.3223 3.7334s11.2188 2.01953 15 2.55273c3.78125 0.53418 9.54688 1.21973 12.8125 1.52344s16.4844 0.467773 29.375 0.363281z" />
  </g>

</svg>
