<?xml version="1.0" standalone="no"?>
<!DOCTYPE svg PUBLIC "-//W3C//DTD SVG 1.1//EN" "http://www.w3.org/Graphics/SVG/1.1/DTD/svg11.dtd" >
<svg xmlns="http://www.w3.org/2000/svg" xmlns:xlink="http://www.w3.org/1999/xlink" version="1.1" viewBox="-10 0 1010 1000">
  <g transform="matrix(1 0 0 -1 0 800)">
   <path fill="currentColor"
d="M689.375 549.724c5.66602 -0.179688 9.47949 -0.679688 13.8799 -1.81836c3.33691 -0.863281 8.53223 -2.77441 11.5449 -4.24609c3.01172 -1.4707 7.59375 -4.2832 10.1816 -6.25c2.68066 -2.03516 46.5615 -45.4902 101.95 -100.96
c85.71 -85.835 97.6348 -98.0059 100.527 -102.602c1.80664 -2.86719 4.11816 -7.22656 5.13867 -9.6875c1.02051 -2.45996 2.45898 -6.86328 3.19727 -9.78516c1.06738 -4.22266 1.3418 -7.1709 1.3418 -14.375s-0.274414 -10.1523 -1.3418 -14.375
c-0.738281 -2.92188 -2.17676 -7.3252 -3.19727 -9.78516c-1.02051 -2.46094 -3.33203 -6.82031 -5.13867 -9.6875c-2.89355 -4.5957 -14.8184 -16.7666 -100.527 -102.603c-55.3887 -55.4697 -99.2695 -98.9248 -101.95 -100.96
c-2.58789 -1.9668 -7.16992 -4.7793 -10.1816 -6.25c-3.0127 -1.47168 -8.20801 -3.37793 -11.5449 -4.23535c-3.73828 -0.960938 -8.70703 -1.69336 -12.9424 -1.90527c-4.91406 -0.248047 -8.53516 -0.0556641 -12.6963 0.670898
c-3.20215 0.560547 -7.56152 1.60254 -9.6875 2.31738s-5.80957 2.27246 -8.18457 3.46387c-2.375 1.18945 -5.89062 3.20117 -7.8125 4.46973s-5.63867 4.41797 -8.25977 6.99902c-2.62109 2.58008 -6.36035 7.14551 -8.30957 10.1436
c-1.9502 2.99902 -4.39258 7.49902 -5.43066 10c-1.03711 2.50195 -2.48926 6.93848 -3.22754 9.86035c-1.06738 4.22266 -1.3418 7.1709 -1.3418 14.375s0.274414 10.1523 1.3418 14.375c0.738281 2.92188 2.19043 7.3584 3.22754 9.86035
c1.03809 2.50098 3.47266 7.00098 5.41113 10c3.00879 4.65234 9.76758 11.7041 46.1123 48.1084l42.5859 42.6562h-191.966h-191.967l-3.55371 -6.71875c-1.95508 -3.69531 -5.39941 -9.39062 -7.65234 -12.6562c-2.25488 -3.26562 -5.81152 -8.04688 -7.90527 -10.625
c-2.09277 -2.57812 -6.47754 -7.37598 -9.74414 -10.6602c-3.26758 -3.28613 -8.31348 -7.87598 -11.2139 -10.2012c-2.90137 -2.3252 -7.96289 -6.01367 -11.25 -8.19727c-3.28711 -2.18457 -9.21094 -5.66504 -13.165 -7.73535
c-3.95312 -2.07031 -10.501 -5.04395 -14.5508 -6.60742s-10.5186 -3.68262 -14.375 -4.70898c-3.85547 -1.02637 -9.26172 -2.28027 -12.0117 -2.78613c-2.75 -0.506836 -7.73145 -1.21484 -11.0684 -1.5752c-3.33789 -0.359375 -10.3799 -0.65332 -15.6484 -0.65332
c-5.26953 0 -12.8037 0.402344 -16.7432 0.893555c-3.94043 0.491211 -10.1172 1.50098 -13.7275 2.24414c-3.60938 0.743164 -10.3594 2.59961 -15 4.125c-4.64062 1.52637 -12.6553 4.84375 -17.8125 7.375c-5.15625 2.53027 -12.4502 6.62891 -16.21 9.10938
s-8.73926 6.03027 -11.0674 7.8877s-6.81445 5.83301 -9.96973 8.83594s-7.97754 8.13281 -10.7178 11.4004c-2.73926 3.26758 -7.22852 9.31641 -9.97852 13.4414c-2.74805 4.125 -6.9209 11.4375 -9.27148 16.25s-5.3916 12.0186 -6.75879 16.0137
c-1.36719 3.99414 -3.19727 10.1816 -4.06738 13.75c-0.869141 3.56738 -2.08008 9.7207 -2.69043 13.6738c-0.806641 5.21973 -1.11035 10.8652 -1.11035 20.625s0.303711 15.4053 1.11035 20.625c0.610352 3.95312 1.82129 10.1064 2.69043 13.6738
c0.870117 3.56836 2.7002 9.75586 4.06738 13.75c1.36719 3.99512 4.40527 11.2012 6.75098 16.0137s6.21973 11.7031 8.60938 15.3125s6.13672 8.8125 8.32812 11.5625s6.38672 7.49805 9.32227 10.5508c2.93555 3.05469 8.15039 7.86523 11.5879 10.6934
c3.4375 2.82715 9.0625 7.03027 12.5 9.33984c3.4375 2.31055 10.75 6.41699 16.25 9.12598s13.375 6.05566 17.5 7.43652s10.5938 3.20801 14.375 4.06055c3.78125 0.853516 10.3828 1.98535 14.6689 2.51562c4.28711 0.530273 12.1025 0.964844 17.3682 0.964844
s12.3057 -0.291016 15.6436 -0.645508c3.33789 -0.355469 9.02246 -1.21582 12.6318 -1.91113c3.60938 -0.696289 9.50098 -2.11719 13.0928 -3.15918c3.59277 -1.04102 9.3584 -3.01953 12.8125 -4.39453c3.45508 -1.37598 9.32422 -4.05664 13.042 -5.95703
c3.71777 -1.90137 9.81445 -5.49707 13.5469 -7.99121c3.7334 -2.49414 8.98828 -6.31836 11.6787 -8.49805c2.68945 -2.17969 7.57617 -6.64453 10.8613 -9.92188c3.28418 -3.27734 8.09375 -8.63086 10.6885 -11.8965s6.17188 -8.11523 7.95117 -10.7764
c1.77734 -2.66113 4.79688 -7.79395 6.70898 -11.4062l3.47656 -6.56738h191.967h191.966l-42.5859 42.6562c-36.3447 36.4043 -43.1035 43.4561 -46.1123 48.1084c-1.93848 2.99902 -4.37305 7.49902 -5.41113 10c-1.03711 2.50195 -2.48926 6.93848 -3.22754 9.86035
c-1.06738 4.22266 -1.3418 7.1709 -1.3418 14.375s0.274414 10.1523 1.3418 14.375c0.738281 2.92188 2.19043 7.3584 3.22754 9.86035c1.03809 2.50098 3.48047 7.00098 5.43066 10c1.94922 2.99805 5.68848 7.56348 8.30957 10.1436
c2.62109 2.58105 6.33789 5.73047 8.25977 6.99902s5.4375 3.28027 7.8125 4.46973c2.375 1.19141 6.07324 2.75488 8.21875 3.47559c2.14453 0.720703 6.08203 1.72461 8.75 2.22949c3.25293 0.617188 7.4209 0.837891 12.6621 0.670898v0.000976562zM208.258 320.571
c-2.30762 -0.0292969 -4.89844 -0.268555 -5.75781 -0.530273c-0.859375 -0.262695 -2.7002 -1.05859 -4.09082 -1.76953c-1.39062 -0.709961 -3.73535 -2.60156 -5.21191 -4.20312c-1.47559 -1.60059 -3.28809 -4.22656 -4.02832 -5.83301
c-1.04102 -2.26367 -1.34375 -4.12109 -1.34375 -8.23535s0.302734 -5.97168 1.34375 -8.23535c0.740234 -1.60645 2.55371 -4.2334 4.03125 -5.83691c1.47754 -1.60254 4.10449 -3.64062 5.83691 -4.52734c2.37891 -1.21875 4.375 -1.67871 8.15039 -1.88086
c4.03516 -0.214844 5.68066 -0.00878906 8.5293 1.06543c1.94141 0.732422 4.81348 2.46191 6.38281 3.84375c1.74316 1.53418 3.6377 4.10352 4.86719 6.60156c1.74707 3.54688 2.01367 4.73535 2.01367 8.96973s-0.266602 5.42285 -2.01367 8.96973
c-1.22949 2.49805 -3.12402 5.06738 -4.86719 6.60156c-1.56934 1.38184 -4.38184 3.08398 -6.25 3.7832c-2.26758 0.847656 -4.79102 1.25195 -7.5918 1.2168z" />
  </g>

</svg>
