<?xml version="1.0" standalone="no"?>
<!DOCTYPE svg PUBLIC "-//W3C//DTD SVG 1.1//EN" "http://www.w3.org/Graphics/SVG/1.1/DTD/svg11.dtd" >
<svg xmlns="http://www.w3.org/2000/svg" xmlns:xlink="http://www.w3.org/1999/xlink" version="1.1" viewBox="-10 0 1010 1000">
  <g transform="matrix(1 0 0 -1 0 800)">
   <path fill="currentColor"
d="M499.187 737.436c76.7744 0.0546875 91.1836 -0.0742188 97.2744 -0.873047c3.93359 -0.515625 9.875 -1.64453 13.2031 -2.50977c3.3291 -0.864258 8.23047 -2.41309 10.8926 -3.43945c2.66309 -1.02637 7.2998 -3.12109 10.3066 -4.6543
c3.00488 -1.53418 7.48535 -4.13184 9.95703 -5.77441s6.93652 -5.01953 9.92285 -7.50391c2.98633 -2.48535 7.59863 -6.9873 10.25 -10.0059c2.65234 -3.01758 6.76465 -8.42383 9.13965 -12.0117c2.37695 -3.58887 5.40918 -8.80664 6.74023 -11.5967
c1.33105 -2.78809 3.1582 -7.02441 4.06055 -9.41211c0.90332 -2.3877 2.32715 -6.97461 3.16699 -10.1914c0.838867 -3.21875 1.94727 -9.06836 2.46289 -13.002c0.808594 -6.16895 0.9375 -26.1338 0.9375 -145.556v-138.405l46.7188 -0.0126953
c36.457 -0.00878906 48.1631 -0.204102 53.2949 -0.887695c3.61719 -0.481445 8.87109 -1.46094 11.6748 -2.17676c2.80469 -0.716797 7.58008 -2.17383 10.6104 -3.23926c3.0332 -1.06445 8.47754 -3.44824 12.1016 -5.29688
c3.62402 -1.84766 8.82715 -4.91211 11.5625 -6.80762c2.73633 -1.89648 7.50879 -5.76953 10.6045 -8.60742c3.09668 -2.83691 7.13477 -6.84668 8.97461 -8.90918c1.83887 -2.0625 5.29883 -6.67285 7.68848 -10.2461c2.38965 -3.57227 5.70605 -9.33789 7.36914 -12.8125
c1.66406 -3.47363 3.89453 -8.87207 4.95605 -11.9961c1.06152 -3.12305 2.50488 -8.4668 3.20703 -11.875c0.702148 -3.40723 1.5752 -9.7627 1.94043 -14.123c0.463867 -5.52832 0.46875 -10.0723 0.0166016 -15.0186c-0.356445 -3.90039 -1.25684 -10.0273 -2 -13.6172
c-0.743164 -3.58887 -2.18945 -8.92383 -3.21191 -11.8555c-1.02246 -2.93262 -3.22656 -8.2168 -4.89746 -11.7432c-1.67188 -3.52637 -4.55078 -8.72949 -6.39746 -11.5625c-1.84766 -2.83301 -5.49805 -7.68164 -8.11328 -10.7754s-68.2695 -69.0635 -145.896 -146.601
c-118.493 -118.354 -142.094 -141.646 -147.079 -145.159c-3.26562 -2.30078 -9.59375 -6.00684 -14.0625 -8.23633c-4.46875 -2.22852 -10.7471 -4.89746 -13.9521 -5.93066c-3.2041 -1.0332 -8.54785 -2.46191 -11.875 -3.1748
c-4.11816 -0.882812 -9.4707 -1.40918 -16.7764 -1.65039c-6.875 -0.226562 -12.9355 -0.0771484 -16.875 0.414062c-3.37988 0.421875 -9.36523 1.59375 -13.2988 2.60449c-3.93359 1.00977 -10.2051 3.125 -13.9355 4.69922
c-3.73047 1.5752 -9.74219 4.64062 -13.3594 6.8125c-3.61621 2.17188 -9.1582 6.06152 -12.3145 8.64062c-3.15625 2.58008 -69.0439 68.0605 -146.418 145.512c-77.373 77.4502 -142.095 142.647 -143.826 144.882c-1.73047 2.23438 -4.41309 6.03125 -5.96094 8.4375
s-4.0957 6.93164 -5.66113 10.0566c-1.56641 3.125 -3.82324 8.48633 -5.0166 11.9141c-1.19336 3.42676 -2.77539 9.1582 -3.5166 12.7363s-1.63965 9.69629 -1.99609 13.5967c-0.452148 4.94629 -0.447266 9.49023 0.0166016 15.0186
c0.365234 4.36035 1.23828 10.7158 1.94043 14.123c0.702148 3.4082 2.15039 8.75195 3.21973 11.875c1.06934 3.12402 3.18457 8.3418 4.70117 11.5967c1.5166 3.25391 4.82617 9.01953 7.35352 12.8125c2.52734 3.79199 6.10156 8.58301 7.94336 10.6455
c1.84082 2.0625 5.89844 6.09668 9.0166 8.96484c3.11914 2.86719 8.18359 6.91113 11.2559 8.98633c3.07227 2.07617 8.95996 5.39648 13.085 7.37988c4.125 1.98242 10.1719 4.45312 13.4375 5.48828c3.26562 1.03613 8.04688 2.31543 10.625 2.84277
s7.07031 1.25586 9.9834 1.61719c3.27832 0.407227 22.9873 0.658203 51.7188 0.658203h46.4229v138.405c0 119.422 0.128906 139.387 0.9375 145.556c0.515625 3.93359 1.62207 9.7832 2.45898 13.0029c0.836914 3.2168 2.40137 8.15234 3.47754 10.9678
s3.16992 7.49805 4.6543 10.4072c1.48438 2.9082 4.17578 7.49512 5.98047 10.1934s5.25 7.2334 7.65625 10.0811c2.40723 2.84473 6.37793 6.94238 8.82422 9.10547c2.44629 2.16211 6.13574 5.20117 8.19824 6.75293s6 4.18164 8.75 5.84375
s6.80859 3.84473 9.01855 4.84863c2.20996 1.00488 6.14746 2.60938 8.75 3.56738c2.60254 0.957031 7.19922 2.3584 10.2158 3.11133c3.0166 0.753906 8.21973 1.74414 11.5625 2.20117c4.79395 0.65332 25.1094 0.841797 96.2021 0.891602zM500 612.5h-62.4834
l-0.173828 -161.094l-0.171875 -161.095l-1.35938 -5c-0.748047 -2.75 -2.20801 -7.0459 -3.24512 -9.54785c-1.03613 -2.50098 -3.39551 -6.86035 -5.24219 -9.6875c-1.84766 -2.82617 -4.84277 -6.75781 -6.65625 -8.73535
c-1.81348 -1.97852 -5.45605 -5.22266 -8.09375 -7.21094c-2.63965 -1.9873 -7.2627 -4.81934 -10.2744 -6.29004c-3.0127 -1.47168 -8.20801 -3.4248 -11.5449 -4.34082l-6.06738 -1.66406l-54.2197 -0.324219l-54.2197 -0.324219l111.876 -111.873l111.877 -111.875
l112.03 112.03l112.03 112.03h-51.9482c-43.7051 0 -52.8154 0.151367 -57.4043 0.951172c-3 0.523438 -7.18555 1.5332 -9.30078 2.24414s-5.78906 2.26562 -8.16406 3.45703c-2.375 1.18945 -5.89062 3.20117 -7.8125 4.46973s-5.63867 4.41797 -8.25977 6.99902
c-2.62109 2.58008 -6.36035 7.14551 -8.30957 10.1436c-1.9502 2.99902 -4.39258 7.49902 -5.42871 10c-1.03711 2.50195 -2.49707 6.79785 -3.24512 9.54785l-1.35938 5l-0.171875 161.094l-0.173828 161.095h-62.4834z" />
  </g>

</svg>
