<?xml version="1.0" standalone="no"?>
<!DOCTYPE svg PUBLIC "-//W3C//DTD SVG 1.1//EN" "http://www.w3.org/Graphics/SVG/1.1/DTD/svg11.dtd" >
<svg xmlns="http://www.w3.org/2000/svg" xmlns:xlink="http://www.w3.org/1999/xlink" version="1.1" viewBox="-10 0 1010 1000">
  <g transform="matrix(1 0 0 -1 0 800)">
   <path fill="currentColor"
d="M876.562 507.884l0.000976562 -0.000976562c8.67871 -0.18457 10.7432 -0.436523 15.625 -1.90234c3.09375 -0.928711 7.84375 -2.79785 10.5566 -4.15527c2.71191 -1.35645 6.64941 -3.69824 8.75 -5.20312c2.09961 -1.50488 5.81738 -4.80664 8.26172 -7.33594
c2.44336 -2.5293 5.85742 -6.76758 7.58691 -9.41797s4.04102 -6.97266 5.1377 -9.60449c1.09473 -2.63281 2.60254 -7.07422 3.34961 -9.87012l1.35742 -5.08203v-124.062v-124.062l-1.66211 -6.0127c-0.914062 -3.30566 -2.80273 -8.40137 -4.19629 -11.3213
s-4.17969 -7.52734 -6.19141 -10.2383c-2.01172 -2.70996 -5.60742 -6.71289 -7.99121 -8.89648c-2.38379 -2.18262 -6.58105 -5.35254 -9.32812 -7.04395s-7.24707 -3.94727 -10 -5.0127s-7.60254 -2.4707 -10.7764 -3.12305
c-5.56934 -1.14453 -10.0586 -1.17871 -128.75 -1.00195c-114.593 0.169922 -123.251 0.256836 -126.961 1.27051c-2.19043 0.598633 -5.84668 1.82227 -8.125 2.7207c-2.2793 0.897461 -6.3584 2.93164 -9.06543 4.52051s-6.95508 4.62012 -9.43945 6.73535
c-2.48535 2.11621 -6.25293 6.14941 -8.37305 8.96289c-2.12109 2.81348 -5.10156 7.69141 -6.62598 10.8408c-1.52344 3.14844 -3.33594 7.83398 -4.02734 10.4121s-1.56445 7.21875 -1.94141 10.3125c-0.375977 3.09375 -0.49707 7.73438 -0.268555 10.3125
s0.791016 6.52539 1.25098 8.77148c0.458984 2.24609 1.70898 6.49805 2.77637 9.44824c1.06738 2.95117 3.38574 7.71191 5.15137 10.5811c1.76562 2.87012 5.46875 7.56934 8.22852 10.4443c2.76074 2.87598 7.31055 6.75195 10.1113 8.61621
c2.80078 1.86328 7.02734 4.26562 9.39062 5.33789c2.36426 1.07129 6.97363 2.67773 10.2441 3.56836l5.94434 1.62012l42.0459 0.217773c23.8066 0.123047 41.8994 0.454102 41.708 0.763672c-0.186523 0.300781 -2.93555 2.48535 -6.1084 4.85449
c-3.17383 2.36914 -8.72461 6.28613 -12.335 8.70215c-3.61035 2.41699 -9.64062 6.16699 -13.4004 8.33301s-9.52539 5.19531 -12.8105 6.73145c-3.28613 1.53613 -8.43945 3.7334 -11.4512 4.88379c-3.0127 1.15039 -8.11621 2.81055 -11.3418 3.68945
c-3.22559 0.87793 -8.21387 2.0166 -11.085 2.5293c-3.46777 0.619141 -9.63086 0.945312 -18.3467 0.97168c-8.67285 0.0263672 -15.3516 -0.28418 -19.6875 -0.913086c-3.60938 -0.524414 -9.16016 -1.53125 -12.334 -2.23926
c-3.1748 -0.707031 -8.51855 -2.16211 -11.875 -3.2334c-3.35742 -1.07129 -8.77539 -3.05469 -12.041 -4.40723s-8.60938 -3.88281 -11.875 -5.62207s-8.32812 -4.71484 -11.25 -6.61035s-7.71777 -5.36133 -10.6582 -7.7002
c-2.94043 -2.33984 -8.2959 -7.30664 -11.9004 -11.0381c-3.60547 -3.73145 -9.19238 -10.4297 -12.418 -14.8867c-3.22363 -4.45605 -7.90234 -10.6328 -10.3955 -13.7266c-2.49219 -3.09375 -7.30371 -8.6416 -10.6914 -12.3271
c-3.38672 -3.68555 -9.24512 -9.55566 -13.0156 -13.0439c-3.77246 -3.4873 -10.2334 -9.05762 -14.3584 -12.3779c-4.125 -3.32129 -10.2197 -7.93262 -13.543 -10.249c-3.32422 -2.31738 -9.74707 -6.45312 -14.2734 -9.19238
c-4.52734 -2.73926 -12.917 -7.33691 -18.6445 -10.2188s-14.0703 -6.72168 -18.5391 -8.5332s-11.3594 -4.39844 -15.3125 -5.74707s-10.6836 -3.43945 -14.957 -4.64551c-4.27441 -1.20605 -11.5869 -3.00098 -16.25 -3.9873
c-4.66406 -0.987305 -12.418 -2.3623 -17.2305 -3.05371c-4.8125 -0.692383 -12.9258 -1.58691 -18.0303 -1.98926c-5.92676 -0.466797 -16.3125 -0.604492 -28.75 -0.380859c-11.6914 0.209961 -22.4658 0.733398 -26.9697 1.30957
c-4.125 0.52832 -10.875 1.54199 -15 2.25293c-4.125 0.709961 -12.1406 2.42578 -17.8125 3.81152c-5.67188 1.38672 -15.2344 4.15918 -21.25 6.16309c-6.01562 2.00293 -14.9609 5.36328 -19.8789 7.46777s-11.5273 5.12207 -14.6875 6.70703
c-3.16016 1.58398 -8.98047 4.70996 -12.9336 6.94727s-10.7031 6.37109 -15 9.18457c-4.29688 2.81543 -10.4092 7.09375 -13.583 9.50781c-3.1748 2.41406 -9.09082 7.22168 -13.1475 10.6826s-11.3037 10.3271 -16.1035 15.2578
c-4.80078 4.92969 -11.4238 12.3369 -14.7168 16.459c-3.29492 4.12305 -7.58984 9.79102 -9.5459 12.5967s-4.78906 7.72754 -6.2959 10.9375c-1.50781 3.20996 -3.39453 8.36719 -4.19531 11.4609c-1.22363 4.73145 -1.44727 7.11328 -1.40918 15
c0.0390625 7.99902 0.28125 10.2578 1.65234 15.3877c0.883789 3.30566 2.74707 8.40137 4.14062 11.3213s4.18262 7.52734 6.19727 10.2383c2.01465 2.70996 5.39551 6.52539 7.51172 8.47852c2.11719 1.95312 6.00977 4.96973 8.65234 6.7041
c2.6416 1.73438 6.88574 4.02051 9.43262 5.08105c2.54492 1.05859 6.78711 2.52051 9.42578 3.24609c3.9834 1.0957 6.54688 1.32031 15.1094 1.32031s11.126 -0.224609 15.1094 -1.32031c2.63867 -0.725586 6.88086 -2.1875 9.42578 -3.24609
c2.54688 -1.06055 6.79102 -3.34668 9.43262 -5.08105c2.64258 -1.73438 6.53223 -4.75098 8.64551 -6.7041s6.23438 -6.78516 9.15918 -10.7383c3.04004 -4.1084 8.95312 -10.8037 13.8037 -15.6289c4.66797 -4.64355 10.8096 -10.1279 13.6494 -12.1875
c2.83984 -2.06055 7.62109 -5.23926 10.625 -7.06348c3.00391 -1.8252 8.40039 -4.73828 11.9922 -6.47461s8.93555 -4.07422 11.875 -5.19531c2.93945 -1.12207 8.43848 -2.91406 12.2197 -3.98242c3.78125 -1.06934 10.25 -2.54785 14.375 -3.28613
c5.70898 -1.02246 10.9746 -1.41602 22.0508 -1.64746c8.99316 -0.188477 17.2295 -0.0244141 21.5625 0.428711c3.85645 0.40332 10.3867 1.44238 14.5117 2.31055c4.125 0.866211 11.2969 2.83203 15.9375 4.36523c4.64062 1.53418 12.6562 4.87109 17.8125 7.41602
s12.3682 6.61621 16.0254 9.04785c3.6582 2.43164 9.72754 7.06445 13.4873 10.2959c3.76074 3.23145 8.88184 8.21875 11.3809 11.082c2.49902 2.86426 6.9375 8.53223 9.8623 12.5947c2.92676 4.06445 7.88379 10.5332 11.0156 14.375
c3.13379 3.84375 9.36035 10.7451 13.8379 15.3369c4.47754 4.59277 11.4502 11.1758 15.4951 14.6279c4.04395 3.45215 9.9502 8.25098 13.125 10.6631c3.17383 2.41211 9.28613 6.69629 13.583 9.52148c4.29688 2.82422 10.6016 6.73438 14.0107 8.69043
c3.40918 1.95508 9.48242 5.20117 13.4951 7.21289s10.2236 4.90625 13.8018 6.43164c3.57715 1.52539 10.0195 4.09473 14.3164 5.70996c4.29785 1.61523 12.0312 4.15723 17.1875 5.64844c5.15625 1.49219 13.3125 3.56543 18.125 4.6084
c4.8125 1.04199 12.5469 2.46094 17.1875 3.15137c4.64062 0.691406 11.8125 1.56738 15.9375 1.94824s15.2422 0.680664 24.7041 0.666016s20.1494 -0.321289 23.75 -0.680664c3.60059 -0.360352 10.0615 -1.21484 14.3584 -1.89941
c4.29785 -0.68457 11.7754 -2.21875 16.6191 -3.40918c4.84277 -1.19043 12.4365 -3.31934 16.875 -4.73145c4.4375 -1.41211 12.0059 -4.11035 16.8184 -5.99707s14.0938 -6.05762 20.625 -9.26758c6.53125 -3.21191 15.8125 -8.14648 20.625 -10.9668
c4.8125 -2.82129 12.7695 -7.79102 17.6826 -11.0439c4.91309 -3.25391 12.7881 -8.81738 17.5 -12.3643c4.71191 -3.5459 11.9424 -9.24316 16.0674 -12.6611l7.5 -6.21289l0.335938 44.752c0.324219 43.374 0.376953 44.9004 1.68066 49.5498
c0.740234 2.63867 2.25586 6.9834 3.36816 9.65332c1.11133 2.67188 3.64062 7.27734 5.61914 10.2354s5.80566 7.48828 8.50391 10.0664s6.21191 5.58594 7.80859 6.68457s5.10352 3.08496 7.79395 4.41602c2.68945 1.33008 6.32812 2.8877 8.08496 3.46094
c1.75781 0.573242 4.99219 1.44824 7.1875 1.94434c2.84863 0.642578 6.85938 0.839844 13.9922 0.688477z" />
  </g>

</svg>
