<?xml version="1.0" standalone="no"?>
<!DOCTYPE svg PUBLIC "-//W3C//DTD SVG 1.1//EN" "http://www.w3.org/Graphics/SVG/1.1/DTD/svg11.dtd" >
<svg xmlns="http://www.w3.org/2000/svg" xmlns:xlink="http://www.w3.org/1999/xlink" version="1.1" viewBox="-10 0 1010 1000">
  <g transform="matrix(1 0 0 -1 0 800)">
   <path fill="currentColor"
d="M314.375 737.224v0c5.66602 -0.179688 9.47949 -0.679688 13.8799 -1.81836c3.33691 -0.863281 8.53223 -2.77441 11.5449 -4.24609c3.01172 -1.4707 7.63477 -4.30273 10.2744 -6.29004c2.6377 -1.98828 6.28027 -5.23242 8.09375 -7.21094
c1.81348 -1.97754 4.80859 -5.90918 6.65625 -8.73535c1.84668 -2.82715 4.20605 -7.18652 5.24219 -9.6875c1.03711 -2.50195 2.49902 -6.79785 3.24902 -9.54785l1.3623 -5l0.166016 -304.355l0.165039 -304.355l42.9639 42.8428
c26.0654 25.9902 44.3389 43.7314 46.459 45.1045c1.92188 1.24316 5.4375 3.23535 7.8125 4.4248c2.375 1.19141 6.05859 2.74902 8.18457 3.46387s6.48535 1.75684 9.6875 2.31738c4.16113 0.726562 7.78223 0.918945 12.6963 0.670898
c4.23535 -0.211914 9.2041 -0.944336 12.9424 -1.90527c3.33691 -0.857422 8.49707 -2.74609 11.4668 -4.19727c2.96973 -1.4502 7.12988 -3.8916 9.24512 -5.42383s22.8984 -21.8057 46.1855 -45.0508l42.3389 -42.2637l0.165039 304.363l0.166016 304.364l1.3623 5
c0.75 2.75 2.21191 7.0459 3.24902 9.54785c1.03613 2.50098 3.47852 7.00098 5.42871 10c1.94922 2.99805 5.68848 7.56348 8.30957 10.1436c2.62109 2.58105 6.33789 5.73047 8.25977 6.99902s5.4375 3.28027 7.8125 4.46973
c2.375 1.19141 6.05859 2.74902 8.18457 3.46387s6.48535 1.75684 9.6875 2.31738c4.16113 0.726562 7.78223 0.918945 12.6963 0.670898c4.23535 -0.211914 9.2041 -0.944336 12.9424 -1.90527c3.33691 -0.857422 8.53223 -2.76367 11.5449 -4.23535
c3.01172 -1.4707 7.63477 -4.30273 10.2744 -6.29004c2.6377 -1.98828 6.28027 -5.23242 8.09375 -7.21094c1.81348 -1.97754 4.80859 -5.90918 6.65625 -8.73535c1.84668 -2.82715 4.20605 -7.18652 5.24219 -9.6875c1.03711 -2.50195 2.49902 -6.79785 3.24902 -9.54785
l1.3623 -5l0.166016 -304.354l0.165039 -304.356l42.9639 42.8428c26.0654 25.9902 44.3389 43.7314 46.459 45.1045c1.92188 1.24316 5.4375 3.23535 7.8125 4.4248c2.375 1.19141 6.05859 2.74902 8.18457 3.46387s6.48535 1.75684 9.6875 2.31738
c4.16113 0.726562 7.78223 0.918945 12.6963 0.670898c4.23535 -0.211914 9.2041 -0.944336 12.9424 -1.90527c3.33691 -0.857422 8.53223 -2.76367 11.5449 -4.23535c3.01172 -1.4707 7.63477 -4.30273 10.2744 -6.29004
c2.6377 -1.98828 6.28027 -5.23242 8.09375 -7.21094c1.81348 -1.97754 4.80859 -5.90918 6.65625 -8.73535c1.84668 -2.82715 4.20605 -7.18652 5.24414 -9.6875c1.03711 -2.50195 2.48926 -6.93848 3.22754 -9.86035c1.06738 -4.22266 1.3418 -7.1709 1.3418 -14.375
s-0.274414 -10.1523 -1.3418 -14.375c-0.738281 -2.92188 -2.17676 -7.3252 -3.19727 -9.78516c-1.02051 -2.46094 -3.33203 -6.82031 -5.13867 -9.6875c-2.89355 -4.5957 -14.8184 -16.7666 -100.528 -102.602c-55.3887 -55.4707 -99.2695 -98.9248 -101.95 -100.96
c-2.58691 -1.9668 -7.16895 -4.7793 -10.1807 -6.25c-3.0127 -1.47168 -8.20801 -3.37793 -11.5449 -4.23535c-3.73828 -0.960938 -8.70703 -1.69336 -12.9424 -1.90527c-4.91406 -0.248047 -8.53516 -0.0556641 -12.6963 0.670898
c-3.20215 0.560547 -7.56152 1.60254 -9.6875 2.31738s-5.80957 2.27246 -8.18457 3.46387c-2.375 1.18945 -5.89062 3.17871 -7.8125 4.4209c-2.20508 1.42285 -30.8848 29.6064 -77.7158 76.3672l-74.2207 74.1094l-73.5918 -73.5205
c-40.4746 -40.4365 -75.3213 -74.7734 -77.4365 -76.3047s-6.27539 -3.97168 -9.24512 -5.42188c-2.96973 -1.45117 -8.12988 -3.36426 -11.4668 -4.25293c-5.11035 -1.35938 -7.49805 -1.62402 -15.1299 -1.67578c-6.7793 -0.0458984 -10.3223 0.229492 -14.0625 1.0957
c-2.75 0.635742 -7.10938 2.02441 -9.6875 3.08594s-6.375 2.90527 -8.4375 4.09766c-2.0625 1.19336 -5.4375 3.51074 -7.5 5.15332c-2.06348 1.6416 -47.3701 46.668 -100.683 100.058c-85.4287 85.5527 -97.3223 97.6924 -100.216 102.288
c-1.80664 2.86719 -4.11816 7.22656 -5.13867 9.6875c-1.02051 2.45996 -2.45898 6.86328 -3.19727 9.78516c-1.06738 4.22266 -1.3418 7.1709 -1.3418 14.375s0.274414 10.1523 1.3418 14.375c0.738281 2.92188 2.19043 7.3584 3.22754 9.86035
c1.03809 2.50098 3.48047 7.00098 5.43066 10c1.94922 2.99805 5.68848 7.56348 8.30957 10.1436c2.62109 2.58105 6.33789 5.73047 8.25977 6.99902s5.4375 3.28027 7.8125 4.46973c2.375 1.19141 6.05859 2.74902 8.18457 3.46387s6.48535 1.75684 9.6875 2.31738
c4.16113 0.726562 7.78223 0.918945 12.6963 0.670898c4.23535 -0.211914 9.2041 -0.944336 12.9424 -1.90527c3.33691 -0.857422 8.49707 -2.74609 11.4668 -4.19727c2.96973 -1.4502 7.12988 -3.8916 9.24512 -5.42383s22.8984 -21.8057 46.1855 -45.0508
l42.3389 -42.2637l0.165039 304.364l0.166016 304.363l1.3623 5c0.75 2.75 2.21191 7.0459 3.24902 9.54785c1.03613 2.50098 3.47852 7.00098 5.42871 10c1.94922 2.99805 5.68848 7.56348 8.30957 10.1436c2.62109 2.58105 6.33789 5.73047 8.25977 6.99902
s5.4375 3.28027 7.8125 4.46973c2.375 1.19141 6.07324 2.75488 8.21875 3.47559c2.14453 0.720703 6.08203 1.72461 8.75 2.22949c3.25293 0.617188 7.4209 0.837891 12.6621 0.670898z" />
  </g>

</svg>
