<?xml version="1.0" standalone="no"?>
<!DOCTYPE svg PUBLIC "-//W3C//DTD SVG 1.1//EN" "http://www.w3.org/Graphics/SVG/1.1/DTD/svg11.dtd" >
<svg xmlns="http://www.w3.org/2000/svg" xmlns:xlink="http://www.w3.org/1999/xlink" version="1.1" viewBox="-10 0 1010 1000">
  <g transform="matrix(1 0 0 -1 0 800)">
   <path fill="currentColor"
d="M502.188 719.72c9.65918 -0.181641 13.873 -0.532227 18.5479 -1.54395c3.32715 -0.71875 8.6709 -2.15332 11.875 -3.18652c3.20508 -1.0332 9.4834 -3.70215 13.9521 -5.93066c4.46875 -2.22949 10.7969 -5.93555 14.0625 -8.23535
c4.9873 -3.5127 28.5371 -26.7559 147.077 -145.159c77.627 -77.5371 143.28 -143.508 145.896 -146.602s6.21777 -7.875 8.00488 -10.625c1.78613 -2.75 4.52734 -7.55664 6.09082 -10.6816s3.81934 -8.48633 5.0127 -11.9141
c1.19336 -3.42676 2.77539 -9.1582 3.5166 -12.7363s1.63965 -9.69629 1.99609 -13.5967c0.452148 -4.94629 0.447266 -9.49023 -0.0166016 -15.0186c-0.365234 -4.36035 -1.23828 -10.7158 -1.94043 -14.123c-0.702148 -3.4082 -2.14551 -8.75195 -3.20703 -11.875
c-1.06152 -3.12402 -3.29199 -8.52246 -4.95605 -11.9961c-1.66309 -3.47461 -5.05078 -9.38086 -7.52734 -13.125c-3.33594 -5.0459 -6.7041 -8.99512 -13.0059 -15.252c-5.79492 -5.75391 -10.4951 -9.7666 -14.7539 -12.5947
c-3.4375 -2.28223 -8.78125 -5.41113 -11.875 -6.95215s-8.10547 -3.67773 -11.1377 -4.74805c-3.03125 -1.06934 -7.80664 -2.53027 -10.6113 -3.24707c-2.80371 -0.71582 -8.05762 -1.69531 -11.6748 -2.17676c-5.13184 -0.683594 -16.8379 -0.878906 -53.2949 -0.887695
l-46.7188 -0.0126953l-0.00488281 -137.969c-0.00292969 -88.1895 -0.232422 -139.998 -0.632812 -143.595c-0.345703 -3.09375 -1.0752 -7.875 -1.62207 -10.625s-1.96777 -7.92188 -3.1582 -11.4932c-1.18945 -3.57129 -3.41211 -9.1123 -4.93848 -12.3154
c-1.52734 -3.20215 -4.71484 -8.72266 -7.08496 -12.2656c-2.36914 -3.54395 -6.4375 -8.87891 -9.04102 -11.8564c-2.60352 -2.97852 -7.06152 -7.37109 -9.90723 -9.76367c-2.84473 -2.39258 -7.52637 -5.92188 -10.4033 -7.84375
c-2.87598 -1.92188 -8.16309 -4.92383 -11.7471 -6.66895c-3.58398 -1.74609 -9.38672 -4.11328 -12.8945 -5.25977c-3.50781 -1.14551 -8.62793 -2.53223 -11.3779 -3.08105s-7.53125 -1.28027 -10.625 -1.62598c-3.50195 -0.390625 -39.001 -0.62793 -94.0625 -0.62793
s-90.5605 0.237305 -94.0625 0.62793c-3.09375 0.345703 -7.875 1.0752 -10.625 1.62207s-7.8125 1.93164 -11.25 3.0791c-3.4375 1.14648 -8.40234 3.06641 -11.0322 4.2666s-6.98926 3.51367 -9.6875 5.1416c-2.69824 1.62891 -6.59277 4.23047 -8.65527 5.78223
s-5.75195 4.59082 -8.19824 6.75293c-2.44629 2.16309 -6.41699 6.26074 -8.82422 9.10547c-2.40625 2.84668 -5.85156 7.38184 -7.65625 10.0801c-1.80469 2.69922 -4.49609 7.28613 -5.98047 10.1943c-1.48438 2.90918 -3.57812 7.5918 -4.6543 10.4072
s-2.64062 7.75098 -3.47754 10.9678c-0.836914 3.21875 -1.94336 9.06836 -2.45898 13.002c-0.808594 6.16895 -0.9375 26.1338 -0.9375 145.556v138.405h-46.4229c-28.7314 0 -48.4404 0.250977 -51.7188 0.658203c-2.91309 0.361328 -7.40527 1.08984 -9.9834 1.61719
s-7.35938 1.80859 -10.625 2.8457c-3.26562 1.03809 -9.03125 3.35547 -12.8125 5.15039s-8.84375 4.53906 -11.25 6.09863s-6.0625 4.15039 -8.125 5.75879c-2.0625 1.60742 -6.24219 5.37207 -9.28711 8.36523c-3.0459 2.99414 -6.7334 6.99023 -8.19434 8.88086
c-1.46191 1.89062 -4.12988 5.6875 -5.92969 8.4375s-4.62305 7.8125 -6.27441 11.25s-3.87109 8.80566 -4.93262 11.9297c-1.06152 3.12305 -2.50488 8.4668 -3.20703 11.875c-0.702148 3.40723 -1.5752 9.7627 -1.94043 14.123
c-0.463867 5.52832 -0.46875 10.0723 -0.0166016 15.0186c0.356445 3.90039 1.25488 10.0186 1.99609 13.5967s2.32324 9.30957 3.5166 12.7363c1.19336 3.42773 3.44922 8.78906 5.0127 11.9141s4.30566 7.93164 6.09277 10.6816s5.38086 7.53125 7.98633 10.625
c2.60352 3.09375 67.9756 68.8057 145.269 146.025c100.723 100.626 142.019 141.488 145.771 144.237c2.87891 2.11035 7.23828 5.01172 9.6875 6.44727c2.44824 1.43555 7.45508 3.95605 11.1279 5.60059c3.67188 1.64355 9.71875 3.83691 13.4375 4.87402
c3.71777 1.03711 9.29199 2.2959 12.3857 2.7959c4.03125 0.65332 9.16602 0.844727 18.125 0.675781zM500 586.25c-0.172852 0 -50.6465 -50.333 -112.164 -111.852l-111.851 -111.854l54.3506 -0.189453l54.3516 -0.188477l6.06738 -1.66699
c3.33691 -0.916016 8.53223 -2.87012 11.5449 -4.3418c3.01172 -1.4707 7.63477 -4.30273 10.2744 -6.29004c2.6377 -1.98828 6.28027 -5.23242 8.09375 -7.21094c1.81348 -1.97754 4.80859 -5.90918 6.65625 -8.73535c1.84668 -2.82715 4.20605 -7.18652 5.24219 -9.6875
c1.03711 -2.50195 2.49707 -6.79785 3.24512 -9.54785l1.35938 -5l0.171875 -161.094l0.173828 -161.094h62.4834h62.4834l0.173828 161.094l0.171875 161.094l1.35938 5c0.748047 2.75 2.20801 7.0459 3.24512 9.54785c1.03613 2.50098 3.47852 7.00098 5.42871 10
c1.94922 2.99805 5.68848 7.56348 8.30957 10.1436c2.62109 2.58105 6.33789 5.73047 8.25977 6.99902s5.4375 3.28027 7.8125 4.46973c2.375 1.19141 6.04883 2.74609 8.16406 3.45703s6.30078 1.7207 9.30078 2.24414c4.58887 0.799805 13.6992 0.951172 57.4033 0.951172
h51.9492l-111.874 111.875c-61.5303 61.5312 -112.016 111.875 -112.188 111.875z" />
  </g>

</svg>
