<?xml version="1.0" standalone="no"?>
<!DOCTYPE svg PUBLIC "-//W3C//DTD SVG 1.1//EN" "http://www.w3.org/Graphics/SVG/1.1/DTD/svg11.dtd" >
<svg xmlns="http://www.w3.org/2000/svg" xmlns:xlink="http://www.w3.org/1999/xlink" version="1.1" viewBox="-10 0 1010 1000">
  <g transform="matrix(1 0 0 -1 0 800)">
   <path fill="currentColor"
d="M751.875 674.724c5.66602 -0.179688 9.47949 -0.679688 13.8799 -1.81836c3.33691 -0.863281 8.53223 -2.77441 11.5449 -4.24609c3.01172 -1.4707 7.59375 -4.2832 10.1816 -6.24902c2.6123 -1.98438 34.0859 -32.999 70.7422 -69.7109
c53.7109 -53.793 66.6172 -67.0361 69.1504 -70.9551c1.71191 -2.65039 4.00488 -6.95996 5.09473 -9.57812c1.08984 -2.61719 2.5791 -6.91797 3.30957 -9.55664c1.10742 -3.99707 1.32812 -6.51562 1.32812 -15.1094s-0.220703 -11.1123 -1.32812 -15.1094
c-0.730469 -2.63867 -2.21973 -6.93945 -3.30957 -9.55664c-1.08984 -2.61816 -3.38281 -6.92773 -5.09473 -9.57812c-2.5332 -3.91895 -15.4395 -17.1621 -69.1504 -70.9551c-36.6562 -36.7119 -68.1299 -67.7266 -70.7422 -69.7109
c-2.58789 -1.96582 -7.16992 -4.77832 -10.1816 -6.24902c-3.0127 -1.47168 -8.17383 -3.36035 -11.4688 -4.19629c-3.2959 -0.835938 -6.79883 -1.51953 -7.78613 -1.51953s-1.79492 -0.28125 -1.79492 -0.625s0.807617 -0.625 1.79492 -0.625
s4.49023 -0.683594 7.78613 -1.51953c3.29492 -0.835938 8.45605 -2.72461 11.4688 -4.19629c3.01172 -1.4707 7.59375 -4.2832 10.1816 -6.24902c2.6123 -1.98438 34.0859 -32.999 70.7422 -69.7109c53.7109 -53.793 66.6172 -67.0361 69.1504 -70.9551
c1.71191 -2.65039 4.00488 -6.95996 5.09473 -9.57812c1.08984 -2.61719 2.5791 -6.91797 3.30957 -9.55664c1.10742 -3.99707 1.32812 -6.51562 1.32812 -15.1094s-0.220703 -11.1123 -1.32812 -15.1094c-0.730469 -2.63867 -2.21973 -6.93945 -3.30957 -9.55664
c-1.08984 -2.61816 -3.38281 -6.92773 -5.09473 -9.57812c-2.5332 -3.91895 -15.4395 -17.1621 -69.1504 -70.9551c-36.6562 -36.7119 -68.1299 -67.7266 -70.7422 -69.7109c-2.58789 -1.96582 -7.16992 -4.77832 -10.1816 -6.24902
c-3.0127 -1.47168 -8.20801 -3.37793 -11.5449 -4.23535c-3.73828 -0.960938 -8.70703 -1.69336 -12.9424 -1.90527c-4.91406 -0.248047 -8.53516 -0.0556641 -12.6963 0.670898c-3.20215 0.560547 -7.56152 1.60254 -9.6875 2.31738s-5.80957 2.27246 -8.18457 3.46387
c-2.375 1.18945 -5.89062 3.20117 -7.8125 4.46973s-5.63867 4.41797 -8.25977 6.99902c-2.62109 2.58008 -6.36035 7.14551 -8.30957 10.1436c-1.9502 2.99902 -4.39258 7.49902 -5.43066 10c-1.03711 2.50195 -2.48926 6.93848 -3.22754 9.86035
c-1.06738 4.22266 -1.3418 7.1709 -1.3418 14.375s0.274414 10.1523 1.3418 14.375c0.738281 2.92188 2.19043 7.3584 3.22754 9.86035c1.03809 2.50098 3.48145 7.00098 5.43164 10c2.50781 3.85547 6.8418 8.78125 14.7969 16.8184l11.25 11.3662l-59.2988 0.256836
c-50.6484 0.219727 -60.4385 0.408203 -67.1113 1.29395c-4.29688 0.570312 -11.0469 1.6084 -15 2.30664c-3.95312 0.697266 -10.9883 2.22852 -15.6348 3.40137s-12.6621 3.58789 -17.8125 5.36621c-5.15039 1.7793 -12.8809 4.76367 -17.1777 6.63281
c-4.29688 1.86816 -10.9121 5.03516 -14.6992 7.03613c-3.78809 2.00098 -9.50293 5.22363 -12.6992 7.16211c-3.19629 1.9375 -8.39453 5.25488 -11.5508 7.37012c-3.15625 2.11621 -8.55078 5.96094 -11.9883 8.54688c-3.4375 2.58496 -8.64062 6.66504 -11.5625 9.06836
s-7.70312 6.4873 -10.625 9.07715s-10.7549 10.0605 -17.4072 16.6035c-6.65137 6.54199 -20.8906 21.0361 -31.6426 32.208s-23.5908 24.0205 -28.5312 28.5527c-4.93945 4.5332 -11.6533 10.4131 -14.9189 13.0684s-9.3125 7.06543 -13.4375 9.80078
s-10.875 6.60352 -15 8.59473s-10.6865 4.63965 -14.5811 5.88477c-3.89551 1.24512 -10.2236 2.86719 -14.0625 3.60645c-6.88867 1.32422 -8.22754 1.34668 -100.419 1.72266c-92.9297 0.37793 -93.4648 0.387695 -98.4541 1.71973
c-2.75879 0.736328 -6.83691 2.12012 -9.0625 3.07617c-2.22559 0.955078 -5.7334 2.70605 -7.7959 3.8916c-2.0625 1.18457 -5.49219 3.52832 -7.62207 5.20801c-2.13086 1.67871 -5.19922 4.51758 -6.81934 6.30762c-1.62012 1.78906 -4.46094 5.56738 -6.3125 8.39355
c-1.85156 2.82715 -4.21387 7.18652 -5.25195 9.6875c-1.03711 2.50195 -2.48926 6.93848 -3.22754 9.86035c-1.06738 4.22266 -1.3418 7.1709 -1.3418 14.375s0.274414 10.1523 1.3418 14.375c0.738281 2.92188 2.19043 7.3584 3.22754 9.86035
c1.03809 2.50098 3.40039 6.86035 5.25195 9.6875c1.85156 2.82617 4.69238 6.60449 6.3125 8.39355c1.62012 1.79004 4.68848 4.62891 6.81934 6.30762c2.12988 1.67969 5.55957 4.02344 7.62207 5.20801c2.0625 1.18555 5.57031 2.93652 7.7959 3.8916
c2.22559 0.956055 6.30371 2.33984 9.0625 3.0752c4.98828 1.33008 5.55078 1.34082 98.4541 1.72168c92.1377 0.37793 93.5342 0.402344 100.419 1.72461c3.83887 0.736328 10.167 2.3584 14.0625 3.60352c3.89453 1.24512 10.4795 3.90234 14.6328 5.90625
s10.9033 5.89355 15 8.64355s10.1064 7.13379 13.3555 9.74121c3.25 2.60742 9.96387 8.46582 14.9219 13.0195c4.95703 4.55273 17.6611 17.2783 28.2314 28.2783s25.2305 25.9082 32.5791 33.1289c7.34766 7.2207 16.9746 16.2207 21.3926 20
s11.3086 9.37207 15.3125 12.4277s11.2178 8.1582 16.0303 11.3379s11.5312 7.375 14.9297 9.32422c3.39941 1.94922 8.62695 4.77148 11.6162 6.27344c2.98926 1.50098 8.92676 4.19824 13.1943 5.99316c4.26758 1.7959 11.416 4.50391 15.8848 6.01855
s11.9502 3.72266 16.627 4.90918c4.67578 1.18555 12.5537 2.84277 17.5068 3.68164s11.6738 1.85938 14.9355 2.26758c4.04395 0.504883 24.791 0.826172 65.2295 1.00977l59.2988 0.270508l-11.25 11.3662c-7.95508 8.03711 -12.2891 12.9629 -14.7969 16.8184
c-1.9502 2.99902 -4.39355 7.49902 -5.43164 10c-1.03711 2.50195 -2.48926 6.93848 -3.22754 9.86035c-1.06738 4.22266 -1.3418 7.1709 -1.3418 14.375s0.274414 10.1523 1.3418 14.375c0.738281 2.92188 2.19043 7.3584 3.22754 9.86035
c1.03809 2.50098 3.48047 7.00098 5.43066 10c1.94922 2.99805 5.68848 7.56348 8.30957 10.1436c2.62109 2.58105 6.33789 5.73047 8.25977 6.99902s5.4375 3.28027 7.8125 4.46973c2.375 1.19141 6.07324 2.75488 8.21875 3.47559
c2.14453 0.720703 6.08203 1.72461 8.75 2.22949c3.25293 0.617188 7.4209 0.837891 12.6621 0.670898zM670.275 424.919c-29.542 -0.0449219 -55.8223 -0.319336 -58.4004 -0.611328s-7.46582 -1.12012 -10.8633 -1.84082
c-3.39648 -0.719727 -8.59961 -2.16113 -11.5625 -3.20215c-2.96191 -1.04102 -8.25391 -3.28516 -11.7578 -4.9873c-3.50293 -1.70117 -9.69043 -5.30176 -13.75 -8c-4.05859 -2.69922 -10.332 -7.29688 -13.9414 -10.2188
c-3.60938 -2.9209 -10.9854 -9.4873 -16.3916 -14.5908c-5.40625 -5.10449 -18.5596 -18.4209 -29.2305 -29.5928s-23.123 -23.9199 -27.6709 -28.3291s-12.0664 -11.4336 -16.707 -15.6113c-4.64062 -4.17676 -8.4375 -7.75098 -8.4375 -7.94238
c0 -0.192383 2.38379 -2.44824 5.29785 -5.01367c2.91309 -2.56641 9.73535 -8.88477 15.1592 -14.041c5.42285 -5.15625 19.4414 -19.3594 31.1504 -31.5625c11.71 -12.2031 25.5605 -26.2246 30.7793 -31.1592c5.21875 -4.93359 12.4414 -11.3574 16.0508 -14.2734
s9.65625 -7.37012 13.4375 -9.89844s9.96875 -6.13477 13.75 -8.01562c3.78125 -1.87891 9.28223 -4.25879 12.2227 -5.28809c2.94141 -1.02832 8.00391 -2.44043 11.25 -3.13867c3.24707 -0.697266 8.63379 -1.56738 11.9717 -1.93457
c3.81445 -0.419922 25.627 -0.666992 58.7129 -0.666992h52.6445l-11.29 11.4062c-7.99023 8.07227 -12.3262 13 -14.8359 16.8584c-1.9502 2.99902 -4.39355 7.49902 -5.43164 10c-1.03711 2.50195 -2.48926 6.93848 -3.22754 9.86035
c-1.06738 4.22266 -1.3418 7.1709 -1.3418 14.375s0.274414 10.1523 1.3418 14.375c0.738281 2.92188 2.19043 7.3584 3.22754 9.86035c1.03809 2.50098 3.48047 7.00098 5.43066 10c1.94922 2.99805 5.68848 7.56348 8.30957 10.1436
c2.62109 2.58105 6.33789 5.73047 8.25977 6.99902s5.4375 3.28027 7.8125 4.46973c2.375 1.19141 6.11035 2.7666 8.2998 3.50293c2.19043 0.736328 6.05762 1.66895 8.59375 2.07227c2.53711 0.404297 4.6123 0.888672 4.6123 1.07715s-2.0752 0.672852 -4.6123 1.07715
c-2.53613 0.40332 -6.40332 1.33594 -8.59375 2.07227c-2.18945 0.736328 -5.9248 2.31152 -8.2998 3.50293c-2.375 1.18945 -5.89062 3.20117 -7.8125 4.46973s-5.63867 4.41797 -8.25977 6.99902c-2.62109 2.58008 -6.36035 7.14551 -8.30957 10.1436
c-1.9502 2.99902 -4.39258 7.49902 -5.43066 10c-1.03711 2.50195 -2.48926 6.93848 -3.22754 9.86035c-1.06738 4.22266 -1.3418 7.1709 -1.3418 14.375s0.274414 10.1523 1.3418 14.375c0.738281 2.92188 2.19043 7.3584 3.22754 9.86035
c1.03809 2.50098 3.48145 7.00098 5.43164 10c2.50977 3.8584 6.8457 8.78613 14.8359 16.8584l11.29 11.4062z" />
  </g>

</svg>
