<?xml version="1.0" standalone="no"?>
<!DOCTYPE svg PUBLIC "-//W3C//DTD SVG 1.1//EN" "http://www.w3.org/Graphics/SVG/1.1/DTD/svg11.dtd" >
<svg xmlns="http://www.w3.org/2000/svg" xmlns:xlink="http://www.w3.org/1999/xlink" version="1.1" viewBox="-10 0 1010 1000">
  <g transform="matrix(1 0 0 -1 0 800)">
   <path fill="currentColor"
d="M689.375 549.724c5.66602 -0.179688 9.47949 -0.679688 13.8799 -1.81836c3.33691 -0.863281 8.53223 -2.77441 11.5449 -4.24609c3.01172 -1.4707 7.59375 -4.2832 10.1816 -6.25c2.68066 -2.03516 46.5615 -45.4902 101.95 -100.96
c85.71 -85.835 97.6348 -98.0059 100.527 -102.602c1.80664 -2.86719 4.11816 -7.22656 5.13867 -9.6875c1.02051 -2.45996 2.45898 -6.86328 3.19727 -9.78516c1.06738 -4.22266 1.3418 -7.1709 1.3418 -14.375s-0.274414 -10.1523 -1.3418 -14.375
c-0.738281 -2.92188 -2.17676 -7.3252 -3.19727 -9.78516c-1.02051 -2.46094 -3.33203 -6.82031 -5.13867 -9.6875c-2.89355 -4.5957 -14.8184 -16.7666 -100.527 -102.603c-55.3887 -55.4697 -99.2695 -98.9248 -101.95 -100.96
c-2.58789 -1.9668 -7.16992 -4.7793 -10.1816 -6.25c-3.0127 -1.47168 -8.20801 -3.37793 -11.5449 -4.23535c-3.73828 -0.960938 -8.70703 -1.69336 -12.9424 -1.90527c-4.91406 -0.248047 -8.53516 -0.0556641 -12.6963 0.670898
c-3.20215 0.560547 -7.56152 1.60254 -9.6875 2.31738s-5.80957 2.27246 -8.18457 3.46387c-2.375 1.18945 -5.89062 3.20117 -7.8125 4.46973s-5.63867 4.41797 -8.25977 6.99902c-2.62109 2.58008 -6.36035 7.14551 -8.30957 10.1436
c-1.9502 2.99902 -4.39258 7.49902 -5.43066 10c-1.03711 2.50195 -2.48926 6.93848 -3.22754 9.86035c-1.06738 4.22266 -1.3418 7.1709 -1.3418 14.375s0.274414 10.1523 1.3418 14.375c0.738281 2.92188 2.19043 7.3584 3.22754 9.86035
c1.03809 2.50098 3.47266 7.00098 5.41113 10c3.00879 4.65234 9.76758 11.7041 46.1123 48.1084l42.5859 42.6562h-184.833h-184.833v-11.1104c0 -6.11035 -0.291016 -13.4932 -0.647461 -16.4062s-1.2168 -7.40039 -1.91309 -9.97168
c-0.695312 -2.57227 -2.33789 -6.96484 -3.64844 -9.7627c-1.31055 -2.79688 -3.52441 -6.76562 -4.91992 -8.82031c-1.39453 -2.05469 -3.99023 -5.32617 -5.76758 -7.27148c-1.77832 -1.94531 -5.45117 -5.20801 -8.16309 -7.25195
c-2.71191 -2.04297 -7.25293 -4.84961 -10.0918 -6.23633s-7.69238 -3.2998 -10.7861 -4.25098l-5.625 -1.73047h-94.0625h-94.0625l-5.3125 1.4502c-2.92188 0.797852 -7.62598 2.53418 -10.4541 3.85938c-2.8291 1.3252 -7.26953 3.87891 -9.86816 5.67578
c-2.59961 1.79688 -6.82422 5.49707 -9.38867 8.22363c-2.56445 2.72559 -6.0752 7.25098 -7.80078 10.0557c-1.72656 2.80469 -3.98145 7.28516 -5.01172 9.95703c-1.03027 2.6709 -2.36035 6.75098 -2.95605 9.06738c-1.00391 3.90234 -1.08301 11.0205 -1.08301 97.0234
s0.0791016 93.1211 1.08301 97.0234c0.595703 2.31641 1.92578 6.39648 2.95605 9.06738c1.03027 2.67188 3.28516 7.15234 5.01172 9.95703c1.72559 2.80469 5.23633 7.33008 7.80078 10.0557c2.56445 2.72656 6.78906 6.42676 9.38867 8.22363
c2.59863 1.79688 7.03906 4.35059 9.86816 5.67578c2.82812 1.3252 7.53223 3.06152 10.4541 3.85938l5.3125 1.4502h94.0625h94.0625l5.625 -1.73047c3.09375 -0.951172 7.92773 -2.85352 10.7412 -4.22852s7.31348 -4.13184 10 -6.12695
s6.37988 -5.26855 8.20801 -7.27441c1.82812 -2.00488 4.46484 -5.32617 5.85938 -7.38086c1.39551 -2.05469 3.60938 -6.02344 4.91992 -8.82031c1.31055 -2.79785 2.95312 -7.19043 3.64844 -9.7627c0.696289 -2.57129 1.55664 -7.05859 1.91309 -9.97168
s0.647461 -10.2959 0.647461 -16.4062v-11.1104h184.833h184.833l-42.5859 42.6562c-36.3447 36.4043 -43.1035 43.4561 -46.1123 48.1084c-1.93848 2.99902 -4.37305 7.49902 -5.41113 10c-1.03711 2.50195 -2.48926 6.93848 -3.22754 9.86035
c-1.06738 4.22266 -1.3418 7.1709 -1.3418 14.375s0.274414 10.1523 1.3418 14.375c0.738281 2.92188 2.19043 7.3584 3.22754 9.86035c1.03809 2.50098 3.48047 7.00098 5.43066 10c1.94922 2.99805 5.68848 7.56348 8.30957 10.1436
c2.62109 2.58105 6.33789 5.73047 8.25977 6.99902s5.4375 3.28027 7.8125 4.46973c2.375 1.19141 6.07324 2.75488 8.21875 3.47559c2.14453 0.720703 6.08203 1.72461 8.75 2.22949c3.25293 0.617188 7.4209 0.837891 12.6621 0.670898v0.000976562zM208.438 320.625
h-20.9375v-20.625v-20.625h20.9375h20.9375v20.625v20.625h-20.9375z" />
  </g>

</svg>
