<?xml version="1.0" standalone="no"?>
<!DOCTYPE svg PUBLIC "-//W3C//DTD SVG 1.1//EN" "http://www.w3.org/Graphics/SVG/1.1/DTD/svg11.dtd" >
<svg xmlns="http://www.w3.org/2000/svg" xmlns:xlink="http://www.w3.org/1999/xlink" version="1.1" viewBox="-10 0 1010 1000">
  <g transform="matrix(1 0 0 -1 0 800)">
   <path fill="currentColor"
d="M530.671 737.443c107.558 0.0507812 120.333 -0.0458984 125.625 -0.953125c3.24023 -0.555664 7.86035 -1.71484 10.2666 -2.57812c2.40625 -0.861328 5.78125 -2.27148 7.5 -3.13281s5.12305 -2.94336 7.56543 -4.62598
c2.44238 -1.68164 6.40039 -5.09082 8.79492 -7.57422c2.39551 -2.48438 5.56543 -6.31152 7.04492 -8.50488s3.75977 -6.27148 5.06738 -9.0625s3.0293 -7.46484 3.82715 -10.3867c1.24414 -4.55664 1.4502 -6.78027 1.4502 -15.625s-0.206055 -11.0684 -1.4502 -15.625
c-0.797852 -2.92188 -2.51953 -7.5957 -3.82715 -10.3867s-3.58789 -6.86914 -5.06738 -9.0625s-4.64941 -6.02051 -7.04492 -8.50488c-2.39453 -2.4834 -6.35254 -5.89258 -8.79492 -7.57422c-2.44238 -1.68262 -5.84668 -3.76465 -7.56543 -4.62598
s-5.09375 -2.27148 -7.5 -3.13281c-2.40625 -0.863281 -7.02637 -2.02246 -10.2666 -2.57812c-5.01758 -0.859375 -12.0137 -1.00977 -47.1816 -1.00977h-41.29l177.87 -177.97c138.993 -139.069 178.489 -178.925 180.702 -182.344
c1.55762 -2.40625 3.67578 -6.0625 4.70703 -8.125s2.58594 -6.00684 3.45605 -8.76465c0.869141 -2.75879 1.92676 -7.38086 2.34961 -10.2725c0.47168 -3.22363 0.621094 -7.81152 0.386719 -11.8604c-0.210938 -3.63086 -0.9375 -8.76172 -1.61426 -11.3994
c-0.677734 -2.63867 -2.09082 -6.85742 -3.14062 -9.375c-1.0498 -2.51855 -3.26562 -6.69238 -4.92285 -9.27734c-1.65723 -2.58301 -4.82422 -6.63379 -7.03516 -9s-5.84863 -5.69238 -8.08301 -7.39062s-6.875 -4.45605 -10.3125 -6.12793
s-8.64062 -3.68555 -11.5625 -4.47363c-4.5293 -1.22266 -6.83301 -1.43359 -15.625 -1.43359c-8.84473 0 -11.0684 0.206055 -15.625 1.4502c-2.92188 0.797852 -7.5957 2.51953 -10.3867 3.82715s-6.86914 3.57227 -9.0625 5.03223
c-2.77539 1.84766 -58.1797 56.8232 -182.271 180.858l-178.28 178.204l-0.00488281 -39.6855c-0.00292969 -21.8281 -0.280273 -42.0771 -0.616211 -44.999s-1.04297 -6.96777 -1.57227 -8.99219c-0.52832 -2.02246 -1.69336 -5.53809 -2.58887 -7.8125
c-0.895508 -2.27246 -2.92773 -6.375 -4.5166 -9.11621c-1.9502 -3.36426 -4.91992 -7.0332 -9.13867 -11.29c-3.77441 -3.80859 -8.10645 -7.45117 -10.9375 -9.19727c-2.57812 -1.58887 -6.8252 -3.74316 -9.43848 -4.78711
c-2.61328 -1.04297 -6.41016 -2.33301 -8.4375 -2.86426s-6.38086 -1.2627 -9.6748 -1.625c-4.20215 -0.461914 -7.74414 -0.459961 -11.875 0.00390625c-3.2373 0.364258 -7.99609 1.24902 -10.5742 1.96582s-6.9707 2.37305 -9.76172 3.68066
c-2.79102 1.30664 -6.72852 3.51074 -8.75 4.89648c-2.02148 1.38672 -5.28125 3.96484 -7.24219 5.73047c-1.96191 1.76465 -5.26758 5.46582 -7.3457 8.22363c-2.0791 2.75879 -4.88867 7.31836 -6.24512 10.1309c-1.35547 2.81348 -3.25293 7.64648 -4.21582 10.7402
l-1.75195 5.625v125.312v125.312l1.4502 5.3125c0.797852 2.92188 2.53027 7.61621 3.84863 10.4326c1.31934 2.81543 3.47852 6.75293 4.79883 8.75c1.32031 1.99609 4.49512 5.8291 7.05566 8.5166c2.56152 2.6875 6.95215 6.41309 9.75879 8.28125
c2.80566 1.86621 6.90332 4.21094 9.10547 5.20996c2.20215 0.998047 5.67285 2.2998 7.71191 2.89258s5.69043 1.43848 8.11426 1.87891c3.47461 0.630859 29.7285 0.8125 124.14 0.856445v0.00195312zM126.562 445.363l0.000976562 -0.000976562
c7.19727 -0.166016 10.5371 -0.535156 14.375 -1.58594c2.75 -0.753906 7.30371 -2.44824 10.1201 -3.76562c2.81543 -1.31836 6.75293 -3.4502 8.75 -4.73926c2.44824 -1.5791 61.7783 -60.458 182.224 -180.836l178.594 -178.493l0.00488281 39.6855
c0.00292969 21.8262 0.280273 42.0752 0.616211 44.9971s1.04297 6.96777 1.57227 8.99219c0.52832 2.02246 1.69336 5.53809 2.58887 7.8125c0.895508 2.27246 2.92773 6.36914 4.5166 9.10254c1.87695 3.22852 4.96777 7.0791 8.82617 10.9971
c3.26562 3.31641 7.21973 6.89258 8.78711 7.94824c1.56836 1.05566 5.08398 3.03125 7.8125 4.39258c2.72949 1.36035 6.79102 3.05273 9.02539 3.76074c2.23438 0.708984 5.75 1.6377 7.8125 2.06738c2.0625 0.427734 7.40625 0.754883 11.875 0.725586
c6.55664 -0.0419922 9.2959 -0.357422 14.1914 -1.63281c3.33594 -0.869141 8.43164 -2.68945 11.3242 -4.04492c2.8916 -1.35547 6.93848 -3.60547 8.99316 -5.00098c2.05469 -1.39453 5.32617 -3.99023 7.27148 -5.76758
c1.94531 -1.77832 5.22363 -5.47266 7.28613 -8.20898c2.0625 -2.7373 4.85938 -7.2793 6.21582 -10.0918c1.35547 -2.8125 3.25293 -7.64551 4.21582 -10.7393l1.75195 -5.625v-125.312v-125.312l-1.4502 -5.3125c-0.797852 -2.92188 -2.51953 -7.5957 -3.82715 -10.3867
s-3.58789 -6.86914 -5.06738 -9.0625s-4.64941 -6.02051 -7.04492 -8.50488c-2.39453 -2.4834 -6.35254 -5.89258 -8.79492 -7.57422c-2.44238 -1.68262 -5.84668 -3.76465 -7.56543 -4.62598s-5.10547 -2.27637 -7.52637 -3.14551s-7.20215 -2.04102 -10.625 -2.60352
c-5.64355 -0.928711 -17.5215 -1.00781 -127.474 -0.842773l-121.25 0.183594l-5.94434 1.64453c-3.27051 0.905273 -7.87988 2.52246 -10.2441 3.59375c-2.36328 1.07227 -6.5791 3.46973 -9.36719 5.32715c-2.78809 1.8584 -7.05762 5.44434 -9.48926 7.96875
c-2.43164 2.52539 -5.63086 6.38574 -7.11035 8.5791s-3.75977 6.27148 -5.06738 9.0625s-3.0293 7.46484 -3.82715 10.3867c-1.24414 4.55566 -1.4502 6.78027 -1.4502 15.625s0.206055 11.0684 1.4502 15.625c0.797852 2.92188 2.51953 7.5957 3.82715 10.3867
s3.58789 6.86914 5.06738 9.0625s4.67871 6.05371 7.11035 8.5791c2.43164 2.52441 6.70117 6.11035 9.48926 7.96875c2.78809 1.85742 7.00391 4.25488 9.36719 5.32715c2.36426 1.07129 6.97363 2.68164 10.2441 3.57812l5.94434 1.62891l43.7158 0.200195
l43.7168 0.200195l-177.842 177.939c-138.973 139.048 -178.462 178.896 -180.675 182.315c-1.55859 2.40625 -3.67578 6.0625 -4.70703 8.125s-2.58594 6.00684 -3.45605 8.76465c-0.869141 2.75879 -1.92676 7.38086 -2.34961 10.2725
c-0.47168 3.22363 -0.621094 7.81152 -0.386719 11.8604c0.210938 3.63086 0.9375 8.76172 1.61426 11.3994c0.677734 2.63867 2.09082 6.85742 3.14062 9.375c1.04883 2.51855 3.28516 6.72363 4.96777 9.34668c1.68164 2.62305 5.06543 6.88184 7.51758 9.46387
c2.45312 2.58301 6.49316 6.0957 8.97656 7.80762s6.23145 3.97461 8.3291 5.0293c2.09668 1.05469 5.6123 2.52539 7.8125 3.26855c2.19922 0.744141 5.82715 1.73633 8.06152 2.2041c2.72852 0.571289 7.13965 0.780273 13.4375 0.633789z" />
  </g>

</svg>
