<?xml version="1.0" standalone="no"?>
<!DOCTYPE svg PUBLIC "-//W3C//DTD SVG 1.1//EN" "http://www.w3.org/Graphics/SVG/1.1/DTD/svg11.dtd" >
<svg xmlns="http://www.w3.org/2000/svg" xmlns:xlink="http://www.w3.org/1999/xlink" version="1.1" viewBox="-10 0 1010 1000">
  <g transform="matrix(1 0 0 -1 0 800)">
   <path fill="currentColor"
d="M501.875 737.224l-0.000976562 0.00195312c5.66602 -0.179688 9.47949 -0.679688 13.8799 -1.81836c3.33691 -0.863281 8.53223 -2.77441 11.5449 -4.24609c3.01172 -1.4707 7.63477 -4.30273 10.2744 -6.29004c2.6377 -1.98828 6.28027 -5.23242 8.09375 -7.21094
c1.81348 -1.97754 4.80859 -5.90918 6.65625 -8.73535c1.84668 -2.82715 4.20605 -7.18652 5.24219 -9.6875c1.03711 -2.50195 2.49902 -6.79785 3.24902 -9.54785l1.3623 -5l0.166016 -304.364l0.165039 -304.364l105.464 105.357
c67.5674 67.499 106.721 106.168 108.959 107.613c1.92188 1.23926 5.4375 3.22852 7.8125 4.41797c2.375 1.19141 6.05859 2.74902 8.18457 3.46387s6.48535 1.75684 9.6875 2.31738c4.16113 0.726562 7.78223 0.918945 12.6963 0.670898
c4.23633 -0.211914 9.20508 -0.944336 12.9434 -1.90527c3.33594 -0.857422 8.53125 -2.76367 11.5439 -4.23535c3.01172 -1.4707 7.63477 -4.30273 10.2744 -6.29004c2.6377 -1.98828 6.28027 -5.23242 8.09375 -7.21094
c1.81348 -1.97754 4.80859 -5.90918 6.65625 -8.73535c1.84668 -2.82715 4.20605 -7.18652 5.24414 -9.6875c1.03711 -2.50195 2.48926 -6.93848 3.22754 -9.86035c1.06738 -4.22266 1.3418 -7.1709 1.3418 -14.375s-0.274414 -10.1523 -1.3418 -14.375
c-0.738281 -2.92188 -2.17676 -7.3252 -3.19727 -9.78516c-1.02051 -2.46094 -3.33203 -6.82031 -5.13672 -9.6875c-2.91992 -4.6416 -20.8818 -22.8301 -163.027 -165.102c-92.5557 -92.6367 -161.726 -161.389 -164.452 -163.461
c-2.58789 -1.96582 -7.16992 -4.7793 -10.1816 -6.25c-3.0127 -1.47168 -8.20801 -3.40234 -11.5449 -4.29102c-5.11035 -1.35938 -7.49805 -1.62402 -15.1299 -1.67578c-6.7793 -0.0458984 -10.3223 0.229492 -14.0625 1.0957
c-2.75 0.635742 -7.10938 2.02441 -9.6875 3.08594s-6.375 2.90527 -8.4375 4.09766c-2.0625 1.19336 -5.4375 3.5127 -7.5 5.15527c-2.06348 1.64258 -75.4951 74.7939 -163.184 162.558c-141.866 141.987 -159.797 160.146 -162.717 164.786
c-1.80469 2.86719 -4.11621 7.22656 -5.13672 9.6875c-1.02051 2.45996 -2.45898 6.86328 -3.19727 9.78516c-1.06738 4.22266 -1.3418 7.1709 -1.3418 14.375s0.274414 10.1523 1.3418 14.375c0.738281 2.92188 2.19043 7.3584 3.22754 9.86035
c1.03809 2.50098 3.48047 7.00098 5.43066 10c1.94922 2.99805 5.68848 7.56348 8.30957 10.1436c2.62109 2.58105 6.33789 5.73047 8.25977 6.99902s5.4375 3.28027 7.8125 4.46973c2.375 1.19141 6.05859 2.74902 8.18457 3.46387s6.48535 1.75684 9.6875 2.31738
c4.16113 0.726562 7.78223 0.918945 12.6963 0.670898c4.23535 -0.211914 9.2041 -0.944336 12.9424 -1.90527c3.33691 -0.857422 8.49707 -2.74609 11.4668 -4.19727c2.96973 -1.4502 7.12988 -3.89062 9.24512 -5.4209
c2.11621 -1.53125 51.0244 -49.9297 108.687 -107.555l104.839 -104.771l0.165039 304.367l0.166016 304.368l1.3623 5c0.75 2.75 2.21191 7.0459 3.24902 9.54785c1.03613 2.50098 3.47852 7.00098 5.42871 10c1.94922 2.99805 5.68848 7.56348 8.30957 10.1436
c2.62109 2.58105 6.33789 5.73047 8.25977 6.99902s5.4375 3.28027 7.8125 4.46973c2.375 1.19141 6.07324 2.75488 8.21875 3.47559c2.14453 0.720703 6.08203 1.72461 8.75 2.22949c3.25293 0.617188 7.4209 0.837891 12.6621 0.670898z" />
  </g>

</svg>
