<?xml version="1.0" standalone="no"?>
<!DOCTYPE svg PUBLIC "-//W3C//DTD SVG 1.1//EN" "http://www.w3.org/Graphics/SVG/1.1/DTD/svg11.dtd" >
<svg xmlns="http://www.w3.org/2000/svg" xmlns:xlink="http://www.w3.org/1999/xlink" version="1.1" viewBox="-10 0 1010 1000">
  <g transform="matrix(1 0 0 -1 0 800)">
   <path fill="currentColor"
d="M706.931 695.52c8.00098 0.0625 17.4141 -0.270508 23.125 -0.818359c5.29785 -0.507812 12.1631 -1.35742 15.2568 -1.8877s9 -1.69043 13.125 -2.57715c4.125 -0.887695 11.5781 -2.87109 16.5625 -4.40723c4.98438 -1.53711 12.9482 -4.32031 17.6973 -6.18555
c4.75 -1.86426 12.8115 -5.47949 17.915 -8.03418c5.10449 -2.55469 12.1875 -6.39062 15.7402 -8.52539c3.55273 -2.13379 9.13184 -5.73242 12.3975 -7.99512c3.26562 -2.26367 9.45312 -6.91992 13.75 -10.3467c4.29688 -3.42773 12.3203 -10.749 17.8291 -16.2686
c5.51074 -5.51953 12.7139 -13.4111 16.0088 -17.5361s8.38379 -11.0156 11.3086 -15.3125c2.92578 -4.29688 6.91992 -10.5967 8.87695 -14c1.95801 -3.40332 4.9248 -8.90918 6.59375 -12.2344c1.66895 -3.32617 4.29199 -8.99023 5.82812 -12.5879
c1.53613 -3.59668 3.94336 -9.79004 5.34961 -13.7637c1.40527 -3.97363 3.53906 -10.7119 4.74121 -14.9756c1.20215 -4.2627 3.02344 -11.9697 4.04785 -17.126c1.02344 -5.15625 2.35547 -13.4531 2.95996 -18.4375c0.789062 -6.51953 1.09863 -13.709 1.10254 -25.625
c0.00195312 -9.25781 -0.341797 -19.5947 -0.78125 -23.4375c-0.430664 -3.78125 -1.48047 -10.9092 -2.33008 -15.8408c-0.850586 -4.93066 -2.40918 -12.3838 -3.46387 -16.5625c-1.05469 -4.17773 -2.91309 -10.6904 -4.13086 -14.4717
s-3.48535 -10.1094 -5.04004 -14.0625c-1.55371 -3.95312 -4.2832 -10.2812 -6.06445 -14.0625s-5.15527 -10.25 -7.49707 -14.375c-2.34277 -4.125 -6.32617 -10.5938 -8.85254 -14.375c-2.52734 -3.78125 -6.93359 -9.88672 -9.79297 -13.5664
c-2.85938 -3.68066 -8.0918 -9.91699 -11.627 -13.8594c-3.53613 -3.94336 -9.00488 -9.51562 -12.1543 -12.3848c-3.14844 -2.86914 -7.55273 -6.78223 -9.78711 -8.69629s-5.89062 -4.87012 -8.125 -6.56836s-5.89062 -4.37695 -8.125 -5.95312
c-2.23438 -1.57715 -7.01562 -4.6875 -10.625 -6.91309c-3.60938 -2.22461 -9.79688 -5.75977 -13.75 -7.85645c-3.95312 -2.0957 -10.7031 -5.33984 -15 -7.20996s-11.8906 -4.80566 -16.875 -6.52344s-13 -4.13184 -17.8125 -5.36328s-11.9844 -2.82129 -15.9375 -3.5332
s-10.5625 -1.75195 -14.6875 -2.31055c-6.37891 -0.866211 -16.6738 -1.05566 -68.9062 -1.27246l-61.4062 -0.253906l-0.00488281 -156.681c-0.00390625 -102.442 -0.226562 -158.627 -0.643555 -162.305c-0.350586 -3.09375 -1.22168 -7.73438 -1.93555 -10.3125
s-2.23242 -6.72461 -3.37598 -9.21387s-3.40137 -6.49707 -5.0166 -8.9043c-1.61621 -2.4082 -4.70703 -6.19141 -6.86914 -8.4082c-2.16211 -2.21582 -5.71094 -5.34082 -7.88672 -6.94531c-2.1748 -1.60254 -6.06445 -3.97559 -8.64258 -5.27246
s-6.97559 -3.0791 -9.77148 -3.96191c-2.79688 -0.881836 -7.57812 -1.93652 -10.625 -2.34375c-3.13086 -0.417969 -8.12305 -0.580078 -11.4785 -0.373047c-3.26562 0.202148 -8.6123 1.0498 -11.8818 1.88379c-3.27051 0.833984 -7.87988 2.39355 -10.2441 3.46484
c-2.36328 1.07227 -6.5791 3.46973 -9.36719 5.32715c-2.78809 1.8584 -7.05762 5.44434 -9.48926 7.96875c-2.43164 2.52539 -5.63086 6.38574 -7.11035 8.5791s-3.75879 6.27148 -5.06445 9.0625s-3.02832 7.32422 -3.82812 10.0742l-1.45215 5l-0.163086 161.719
l-0.163086 161.719h-80.751h-80.752l42.5049 -42.6562c31.6299 -31.7422 43.2686 -43.8164 45.4893 -47.1924c1.64062 -2.49512 3.91895 -6.57324 5.0625 -9.0625s2.66406 -6.63574 3.37891 -9.21387s1.60254 -7.42969 1.97461 -10.7812
c0.483398 -4.36426 0.483398 -7.82324 0 -12.1875c-0.37207 -3.35156 -1.25977 -8.20312 -1.97461 -10.7812s-2.23535 -6.72461 -3.37891 -9.21387s-3.40137 -6.49707 -5.0166 -8.9043c-1.61621 -2.4082 -4.70703 -6.19141 -6.86914 -8.4082
c-2.16211 -2.21582 -5.71094 -5.34082 -7.88672 -6.94531c-2.1748 -1.60254 -6.06445 -3.97559 -8.64258 -5.27246s-6.97559 -3.0791 -9.77148 -3.96191c-2.79688 -0.881836 -7.57812 -1.93652 -10.625 -2.34375c-3.13086 -0.417969 -8.12305 -0.580078 -11.4785 -0.373047
c-3.26562 0.202148 -8.60938 1.05176 -11.875 1.88867s-7.625 2.27148 -9.6875 3.18652c-2.0625 0.916016 -5.85938 2.95508 -8.4375 4.53125c-4.01855 2.45703 -18.7637 16.9268 -103.301 101.373c-70.3428 70.2666 -99.5166 99.8086 -101.766 103.052
c-1.73438 2.49902 -4.23633 6.8584 -5.56152 9.6875c-1.3252 2.82812 -3.06152 7.53223 -3.85938 10.4541c-1.24414 4.55664 -1.4502 6.78027 -1.4502 15.625s0.206055 11.0684 1.4502 15.625c0.797852 2.92188 2.53418 7.62598 3.85938 10.4541
c1.3252 2.8291 3.82715 7.18848 5.56152 9.6875c2.24902 3.24316 31.4229 32.7852 101.766 103.053c84.5371 84.4463 99.2822 98.916 103.301 101.373c2.57812 1.57617 6.375 3.61523 8.4375 4.53125c2.0625 0.915039 6.42188 2.34961 9.6875 3.18652
s8.60938 1.68652 11.875 1.88867c3.35547 0.207031 8.34766 0.0449219 11.4785 -0.373047c3.04688 -0.407227 7.82812 -1.46191 10.625 -2.34375c2.7959 -0.882812 7.19336 -2.66504 9.77148 -3.96191s6.46777 -3.66992 8.64258 -5.27246
c2.17578 -1.60449 5.72461 -4.72949 7.88672 -6.94531c2.16211 -2.2168 5.25293 -6 6.86914 -8.4082c1.61523 -2.40723 3.87305 -6.41504 5.0166 -8.9043s2.66406 -6.63574 3.37891 -9.21387s1.60254 -7.42969 1.97461 -10.7812
c0.483398 -4.36426 0.483398 -7.82324 0 -12.1875c-0.37207 -3.35156 -1.25977 -8.20312 -1.97461 -10.7812s-2.23535 -6.72461 -3.37891 -9.21387s-3.42188 -6.56738 -5.0625 -9.0625c-2.2207 -3.37598 -13.8594 -15.4502 -45.4893 -47.1924l-42.5049 -42.6562h80.7588
h80.7578l0.00195312 58.2812c0.00195312 35.6592 0.256836 61.0713 0.658203 65.4688c0.360352 3.95312 1.2002 10.7998 1.86719 15.2158c0.666992 4.41504 1.94727 11.3057 2.84473 15.3125c0.897461 4.00586 2.73047 10.9404 4.07227 15.4092s3.59668 11.2188 5.01074 15
s4.0957 10.25 5.95898 14.375c1.86426 4.125 5.40137 11.1562 7.85938 15.625c2.45898 4.46875 7.20508 12.2031 10.5469 17.1875s8.55078 12.1562 11.5762 15.9375c3.02637 3.78125 10.4326 11.8271 16.459 17.8789c6.02637 6.05273 14.5635 13.8643 18.9717 17.3594
c4.40723 3.49512 12.002 8.98633 16.875 12.2021s12.5166 7.84277 16.9863 10.2822c4.46875 2.43848 11.9219 6.09277 16.5625 8.12012c4.64062 2.02637 11.6719 4.83984 15.625 6.25c3.95312 1.41113 10.5879 3.53613 14.7432 4.72363s11.749 3.00781 16.875 4.04492
s12.9756 2.32031 17.4443 2.85156c4.46875 0.532227 9.25 1.0625 10.625 1.17871s8.57227 0.257812 15.9922 0.314453zM710.625 570.344c-8.50488 0.166016 -13.8066 -0.0273438 -17.5449 -0.636719c-2.94629 -0.480469 -7.65625 -1.46094 -10.4678 -2.17871
c-2.81055 -0.716797 -7.14941 -2.0293 -9.64258 -2.91602c-2.49316 -0.885742 -7.54004 -3.10449 -11.2158 -4.92871c-3.67676 -1.8252 -9.18652 -5.03125 -12.2441 -7.125c-3.05859 -2.0957 -7.73633 -5.79199 -10.3965 -8.21582
c-2.6582 -2.4248 -6.66504 -6.43262 -8.90332 -8.90625c-2.23828 -2.47461 -5.95605 -7.31152 -8.25977 -10.749c-2.30566 -3.4375 -5.50098 -8.92773 -7.10254 -12.2002c-1.60156 -3.27344 -3.89355 -8.89844 -5.09375 -12.5
c-1.2002 -3.60254 -2.81738 -9.3623 -3.59375 -12.7998c-1.40234 -6.20898 -1.41309 -6.63477 -1.62207 -65.4688l-0.210938 -59.2188h54.9922c45.2822 0 56.2549 0.166016 62.1416 0.9375c3.93359 0.515625 9.7832 1.62207 13.002 2.45898
c3.2168 0.836914 8.15234 2.40137 10.9678 3.47754s7.49805 3.16992 10.4072 4.6543c2.9082 1.48438 7.49512 4.17578 10.1943 5.98047c2.69824 1.80469 7.27539 5.2832 10.1719 7.72949c2.89551 2.44727 7.36133 6.83984 9.92383 9.76172s6.36035 7.83789 8.44043 10.9248
c2.08008 3.08594 5.27539 8.59863 7.10254 12.251c1.82617 3.65137 4.29004 9.59766 5.47363 13.2139c1.18555 3.61621 2.74707 9.63379 3.47168 13.373c0.724609 3.74023 1.48145 10.4561 1.68262 14.9248c0.207031 4.60254 0.0585938 10.9141 -0.341797 14.5596
c-0.389648 3.53906 -1.14844 8.60156 -1.6875 11.25s-1.9541 7.76855 -3.14648 11.3779c-1.19141 3.60938 -3.53711 9.375 -5.21191 12.8125s-4.51758 8.5 -6.31641 11.25c-1.7998 2.75 -4.88184 6.96875 -6.85059 9.375s-5.84277 6.53516 -8.61035 9.17578
c-2.76758 2.6416 -7.09375 6.30957 -9.61426 8.15234s-5.98828 4.23535 -7.70703 5.31836c-1.71875 1.08398 -6.07812 3.37891 -9.6875 5.10059c-3.60938 1.72266 -9.18457 3.98633 -12.3896 5.03223c-3.2041 1.0459 -8.54785 2.48926 -11.875 3.20801
c-4.62305 0.999023 -8.91797 1.3623 -18.2354 1.54395z" />
  </g>

</svg>
