<?xml version="1.0" standalone="no"?>
<!DOCTYPE svg PUBLIC "-//W3C//DTD SVG 1.1//EN" "http://www.w3.org/Graphics/SVG/1.1/DTD/svg11.dtd" >
<svg xmlns="http://www.w3.org/2000/svg" xmlns:xlink="http://www.w3.org/1999/xlink" version="1.1" viewBox="-10 0 1010 1000">
  <g transform="matrix(1 0 0 -1 0 800)">
   <path fill="currentColor"
d="M501.875 737.224c5.66602 -0.179688 9.47949 -0.679688 13.8799 -1.81836c3.33691 -0.863281 8.53223 -2.77441 11.5449 -4.24609c3.01172 -1.4707 7.59375 -4.2832 10.1816 -6.25c2.68066 -2.03516 46.5615 -45.4902 101.95 -100.96
c85.71 -85.835 97.6348 -98.0059 100.527 -102.602c1.80664 -2.86719 4.11816 -7.22656 5.13867 -9.6875c1.02051 -2.45996 2.45898 -6.86328 3.19727 -9.78516c1.06738 -4.22266 1.3418 -7.1709 1.3418 -14.375s-0.274414 -10.1523 -1.3418 -14.375
c-0.738281 -2.92188 -2.19043 -7.3584 -3.22754 -9.86035c-1.03809 -2.50098 -3.39746 -6.86035 -5.24414 -9.6875c-1.84766 -2.82617 -4.84277 -6.75781 -6.65625 -8.73535c-1.81348 -1.97852 -5.45605 -5.22266 -8.09375 -7.21094
c-2.63965 -1.9873 -7.2627 -4.81934 -10.2744 -6.29004c-3.0127 -1.47168 -8.20801 -3.37793 -11.5449 -4.23535c-3.73828 -0.960938 -8.70703 -1.69336 -12.9424 -1.90527c-4.91406 -0.248047 -8.53516 -0.0556641 -12.6963 0.670898
c-3.20215 0.560547 -7.56152 1.60254 -9.6875 2.31738s-5.80957 2.27246 -8.18457 3.46387c-2.375 1.18945 -5.89062 3.18164 -7.8125 4.4248c-2.12012 1.37305 -20.3955 19.1152 -46.4629 45.1094l-42.9688 42.8467v-184.746v-184.746l14.8438 -0.329102
c13.2402 -0.292969 15.499 -0.5 20.9102 -1.91504c3.33594 -0.87207 8.43164 -2.69434 11.3242 -4.0498c2.8916 -1.35547 6.93848 -3.60547 8.99316 -5.00098c2.05469 -1.39453 5.32617 -3.99023 7.27148 -5.76758c1.94531 -1.77832 5.22363 -5.47266 7.28613 -8.20898
c2.0625 -2.7373 4.85938 -7.2793 6.21582 -10.0918c1.35547 -2.81348 3.25293 -7.64648 4.21582 -10.7402l1.75195 -5.625v-94.0625v-94.0625l-1.4502 -5.3125c-0.797852 -2.92188 -2.51953 -7.5957 -3.82715 -10.3867s-3.58789 -6.86914 -5.06738 -9.0625
s-4.64941 -6.02051 -7.04492 -8.50488c-2.39453 -2.4834 -6.35254 -5.89258 -8.79492 -7.57422c-2.44238 -1.68262 -5.84668 -3.76465 -7.56543 -4.62598s-5.10547 -2.27637 -7.52637 -3.14551s-7.20215 -2.04102 -10.625 -2.60547
c-5.60645 -0.924805 -15.1455 -1.00879 -96.2236 -0.84082l-90 0.185547l-5.94434 1.64355c-3.27051 0.904297 -7.87988 2.52148 -10.2432 3.59277c-2.36328 1.07227 -6.5791 3.46973 -9.36719 5.32715c-2.78906 1.8584 -7.05859 5.44434 -9.48926 7.96875
c-2.43164 2.52539 -5.63184 6.38574 -7.11035 8.5791c-1.47949 2.19336 -3.76074 6.27148 -5.06738 9.0625c-1.30762 2.79102 -3.0293 7.46484 -3.82715 10.3867l-1.45117 5.3125v94.0625v94.0625l1.75195 5.625c0.962891 3.09375 2.86035 7.92676 4.21582 10.7402
c1.35645 2.8125 4.16602 7.37207 6.24512 10.1309c2.07812 2.75781 5.38379 6.45898 7.3457 8.22363c1.96094 1.76562 5.2207 4.34375 7.24219 5.73047c2.02148 1.38574 6.04199 3.62891 8.93359 4.98438c2.89258 1.35547 7.98828 3.17773 11.3242 4.0498
c5.41113 1.41504 7.66992 1.62207 20.9111 1.91504l14.8438 0.329102v184.755v184.754l-42.3438 -42.2686c-23.29 -23.2471 -44.0742 -43.5225 -46.1904 -45.0547c-2.11523 -1.53223 -6.27539 -3.97363 -9.24512 -5.42383
c-2.96973 -1.45117 -8.12988 -3.33984 -11.4668 -4.19727c-3.73828 -0.960938 -8.70703 -1.69336 -12.9424 -1.90527c-4.91406 -0.248047 -8.53516 -0.0556641 -12.6963 0.670898c-3.20215 0.560547 -7.56152 1.60254 -9.6875 2.31738s-5.80957 2.27246 -8.18457 3.46387
c-2.375 1.18945 -5.89062 3.20117 -7.8125 4.46973s-5.63867 4.41797 -8.25977 6.99902c-2.62109 2.58008 -6.36035 7.14551 -8.30957 10.1436c-1.9502 2.99902 -4.39258 7.49902 -5.43066 10c-1.03711 2.50195 -2.48926 6.93848 -3.22754 9.86035
c-1.06738 4.22266 -1.3418 7.1709 -1.3418 14.375s0.274414 10.1523 1.3418 14.375c0.738281 2.92188 2.19043 7.3584 3.22754 9.86035c1.03809 2.50098 3.46973 7.00098 5.4043 10c3.10742 4.81543 15.0176 16.9463 102.062 103.947
c63.1729 63.1426 99.7949 99.3027 102.035 100.748c1.92188 1.23926 5.4375 3.22754 7.8125 4.41699c2.375 1.19141 6.07324 2.75488 8.21875 3.47559c2.14453 0.720703 6.08203 1.72461 8.75 2.22949c3.25293 0.617188 7.4209 0.837891 12.6621 0.670898zM500 29.375
h-20.625v-20.9375v-20.9375h20.625h20.625v20.9375v20.9375h-20.625z" />
  </g>

</svg>
