<?xml version="1.0" standalone="no"?>
<!DOCTYPE svg PUBLIC "-//W3C//DTD SVG 1.1//EN" "http://www.w3.org/Graphics/SVG/1.1/DTD/svg11.dtd" >
<svg xmlns="http://www.w3.org/2000/svg" xmlns:xlink="http://www.w3.org/1999/xlink" version="1.1" viewBox="-10 0 1010 1000">
  <g transform="matrix(1 0 0 -1 0 800)">
   <path fill="currentColor"
d="M439.375 737.293l132.812 -0.105469l6.06738 -1.67578c3.33691 -0.921875 8.53223 -2.88086 11.5449 -4.35254c3.01172 -1.4707 7.63477 -4.30273 10.2744 -6.29004c2.6377 -1.98828 6.28027 -5.23242 8.09375 -7.21094
c1.81348 -1.97754 4.82422 -5.93359 6.69141 -8.79102c1.86719 -2.85645 4.31836 -7.49707 5.44922 -10.3125c1.12988 -2.81445 2.57715 -7.36719 3.2168 -10.1172c1.11426 -4.79199 1.16211 -10.5527 1.16211 -138.438c0 -127.885 -0.0478516 -133.646 -1.16211 -138.438
c-0.639648 -2.75 -2.08691 -7.30273 -3.2168 -10.1172c-1.13086 -2.81543 -3.58203 -7.45605 -5.44922 -10.3125c-1.86719 -2.85742 -4.87793 -6.81348 -6.69141 -8.79102c-1.81348 -1.97852 -5.45605 -5.22266 -8.09375 -7.21094
c-2.63965 -1.9873 -7.2627 -4.81934 -10.2744 -6.29004c-3.0127 -1.47168 -8.20801 -3.37793 -11.5449 -4.23535c-3.73828 -0.960938 -8.70703 -1.69336 -12.9424 -1.90527c-4.91406 -0.248047 -8.53516 -0.0556641 -12.6963 0.670898
c-3.20215 0.560547 -7.56152 1.60254 -9.6875 2.31738s-5.80957 2.27246 -8.18457 3.46387c-2.375 1.18945 -5.89062 3.20117 -7.8125 4.46973s-5.63867 4.41797 -8.25977 6.99902c-2.62109 2.58008 -6.36035 7.14551 -8.30957 10.1436
c-1.9502 2.99902 -4.39258 7.49902 -5.42871 10c-1.03711 2.50195 -2.48926 6.79785 -3.22754 9.54785c-1.30957 4.87988 -1.34961 6.29297 -1.67969 58.9648l-0.338867 53.9629l-167.341 -168.141c-141.733 -142.412 -168.136 -168.67 -172.532 -171.597
c-2.85547 -1.89941 -7.17676 -4.2998 -9.60645 -5.33301c-2.42871 -1.0332 -6.51953 -2.45605 -9.09082 -3.16113c-2.57129 -0.706055 -7.25 -1.52051 -10.3965 -1.81055s-8.29492 -0.290039 -11.4414 0s-7.8252 1.10449 -10.3965 1.81055
c-2.57129 0.705078 -6.61133 2.10645 -8.97754 3.11328s-6.33105 3.14355 -8.81055 4.74707c-2.48047 1.60449 -6.44434 4.77832 -8.81055 7.05469c-2.36621 2.27539 -5.53613 5.73438 -7.04395 7.68555c-1.50879 1.95117 -3.85059 5.60742 -5.20605 8.125
c-1.35449 2.51758 -3.30566 7.1084 -4.33594 10.2021s-2.20801 8.15625 -2.61816 11.25c-0.433594 3.27832 -0.585938 8.23242 -0.365234 11.875c0.209961 3.4375 0.932617 8.40918 1.60742 11.0469c0.674805 2.63867 2.1377 6.9834 3.25 9.65332
c1.11133 2.67188 3.67676 7.33105 5.69922 10.3555c3.15137 4.71094 27.6318 29.5732 171.107 173.784l167.431 168.285l-54.499 0.337891c-53.1484 0.330078 -54.6221 0.371094 -59.5146 1.67578c-2.75879 0.736328 -6.83691 2.11914 -9.0625 3.0752
c-2.22559 0.955078 -5.7334 2.70605 -7.7959 3.8916c-2.0625 1.18457 -5.49219 3.52832 -7.62207 5.20801c-2.13086 1.67871 -5.19922 4.51758 -6.81934 6.30762c-1.62012 1.78906 -4.46094 5.56738 -6.3125 8.39355c-1.85156 2.82715 -4.21387 7.18652 -5.25195 9.6875
c-1.03711 2.50195 -2.48926 6.93848 -3.22754 9.86035c-1.06738 4.22266 -1.3418 7.1709 -1.3418 14.375s0.274414 10.1523 1.3418 14.375c0.738281 2.92188 2.19043 7.3584 3.22754 9.86035c1.03809 2.50098 3.48047 7.00098 5.43066 10
c1.94922 2.99805 5.68848 7.56348 8.30957 10.1436c2.62109 2.58105 6.33789 5.73047 8.25977 6.99902s5.4375 3.28027 7.8125 4.46973c2.375 1.19141 6.07324 2.75488 8.21875 3.47559c2.14453 0.720703 6.08203 1.70703 8.75 2.19238
c4.08789 0.744141 25.7051 0.865234 137.662 0.777344zM876.875 424.724l0.000976562 -0.00195312c5.66602 -0.179688 9.47949 -0.679688 13.8799 -1.81836c3.33691 -0.863281 8.53223 -2.77441 11.5449 -4.24609c3.01172 -1.4707 7.63477 -4.30273 10.2744 -6.29004
c2.6377 -1.98828 6.28027 -5.23242 8.09375 -7.21094c1.81348 -1.97754 4.80859 -5.90918 6.65625 -8.73535c1.84668 -2.82715 4.20605 -7.18652 5.24414 -9.6875c1.03711 -2.50195 2.48926 -6.93848 3.22754 -9.86035c1.06738 -4.22266 1.3418 -7.1709 1.3418 -14.375
s-0.274414 -10.1523 -1.3418 -14.375c-0.738281 -2.92188 -2.17676 -7.3252 -3.19727 -9.78516c-1.02051 -2.46094 -3.33203 -6.82031 -5.13574 -9.6875c-2.92383 -4.64355 -21.6318 -23.5762 -171.127 -173.16l-167.846 -167.945l54.3486 -0.189453l54.3477 -0.188477
l6.06738 -1.66699c3.33691 -0.916016 8.53223 -2.87012 11.5449 -4.3418c3.01172 -1.4707 7.63477 -4.30273 10.2744 -6.29004c2.6377 -1.98828 6.28027 -5.23242 8.09375 -7.21094c1.81348 -1.97754 4.80859 -5.90918 6.65625 -8.73535
c1.84668 -2.82715 4.20605 -7.18652 5.24414 -9.6875c1.03711 -2.50195 2.48926 -6.93848 3.22754 -9.86035c1.06738 -4.22266 1.3418 -7.1709 1.3418 -14.375s-0.274414 -10.1523 -1.3418 -14.375c-0.738281 -2.92188 -2.19043 -7.3584 -3.22754 -9.86035
c-1.03809 -2.50098 -3.39746 -6.86035 -5.24414 -9.6875c-1.84766 -2.82617 -4.84277 -6.75781 -6.65625 -8.73535c-1.81348 -1.97852 -5.45605 -5.22266 -8.09375 -7.21094c-2.63965 -1.9873 -7.2627 -4.81934 -10.2744 -6.29004
c-3.0127 -1.47168 -8.20801 -3.43066 -11.5449 -4.35254l-6.06738 -1.67578l-132.166 -0.166016c-116.196 -0.146484 -132.834 -0.0507812 -137.695 0.788086c-3.04199 0.524414 -7.27051 1.53906 -9.39648 2.25391s-5.80957 2.27246 -8.18457 3.46387
c-2.375 1.18945 -5.89062 3.20117 -7.8125 4.46973s-5.63867 4.41797 -8.25977 6.99902c-2.62109 2.58008 -6.37695 7.16992 -8.3457 10.1992c-1.96973 3.02832 -4.50391 7.80957 -5.63477 10.625c-1.12988 2.81445 -2.57715 7.36719 -3.2168 10.1172
c-1.11426 4.79199 -1.16211 10.5527 -1.16211 138.438c0 127.886 0.0478516 133.646 1.16211 138.438c0.639648 2.75 2.08691 7.30273 3.2168 10.1172c1.13086 2.81543 3.66504 7.59668 5.63477 10.625c1.96875 3.0293 5.72461 7.61914 8.3457 10.1992
c2.62109 2.58105 6.33789 5.73047 8.25977 6.99902s5.4375 3.28027 7.8125 4.46973c2.375 1.19141 6.05859 2.74902 8.18457 3.46387s6.48535 1.75684 9.6875 2.31738c4.16113 0.726562 7.78223 0.918945 12.6963 0.670898
c4.23535 -0.211914 9.2041 -0.944336 12.9424 -1.90527c3.33691 -0.857422 8.53223 -2.76367 11.5449 -4.23535c3.01172 -1.4707 7.63477 -4.30273 10.2744 -6.29004c2.6377 -1.98828 6.28027 -5.23242 8.09375 -7.21094
c1.81348 -1.97754 4.80859 -5.90918 6.65625 -8.73535c1.84668 -2.82715 4.20605 -7.18652 5.24219 -9.6875c1.03711 -2.50195 2.49023 -6.79785 3.22949 -9.54785c1.31738 -4.90527 1.34766 -6.03418 1.54688 -59.3477l0.203125 -54.3486l167.945 167.843
c109.021 108.955 169.171 168.634 171.439 170.098c1.92188 1.23926 5.4375 3.22656 7.8125 4.41602c2.375 1.19141 6.07324 2.75488 8.21875 3.47559c2.14453 0.720703 6.08203 1.72461 8.75 2.22949c3.25293 0.617188 7.4209 0.837891 12.6621 0.670898z" />
  </g>

</svg>
