<?xml version="1.0" standalone="no"?>
<!DOCTYPE svg PUBLIC "-//W3C//DTD SVG 1.1//EN" "http://www.w3.org/Graphics/SVG/1.1/DTD/svg11.dtd" >
<svg xmlns="http://www.w3.org/2000/svg" xmlns:xlink="http://www.w3.org/1999/xlink" version="1.1" viewBox="-10 0 1010 1000">
  <g transform="matrix(1 0 0 -1 0 800)">
   <path fill="currentColor"
d="M415.736 737.443c2.63867 0.03125 6.98633 -0.248047 9.66113 -0.619141c2.6748 -0.37207 7.125 -1.39062 9.88965 -2.26172c2.76367 -0.87207 6.99414 -2.56934 9.40039 -3.77148c2.40625 -1.20312 6.20312 -3.45898 8.4375 -5.0127
c2.62402 -1.82422 66.959 -65.6885 181.688 -180.359l177.624 -177.534l0.209961 44.0264c0.204102 42.8506 0.245117 44.1543 1.55664 48.8232c0.740234 2.63867 2.20605 6.85742 3.25586 9.375c1.0498 2.51855 3.28516 6.72363 4.96777 9.34668
s5.06641 6.88184 7.51855 9.46387c2.45312 2.58301 6.56934 6.15332 9.14648 7.93555c2.57715 1.78125 7 4.32227 9.8291 5.64746c2.82812 1.3252 7.53223 3.06152 10.4541 3.85938c4.55664 1.24414 6.78027 1.4502 15.625 1.4502
c8.79199 0 11.0957 -0.210938 15.625 -1.43359c2.92188 -0.788086 8.125 -2.80176 11.5625 -4.47363s8.08984 -4.4375 10.3379 -6.14453c2.24805 -1.70801 5.99414 -5.16406 8.3252 -7.68164c2.33105 -2.5166 5.62988 -6.83887 7.33105 -9.60352
s3.93652 -7.21289 4.9668 -9.88477c1.03027 -2.6709 2.36035 -6.75098 2.95605 -9.06738c1.00879 -3.92578 1.08301 -12.6289 1.08301 -128.272c0 -115.645 -0.0742188 -124.349 -1.08301 -128.273c-0.595703 -2.31641 -1.92578 -6.39648 -2.95605 -9.06738
c-1.03027 -2.67188 -3.26562 -7.12012 -4.9668 -9.88477s-5 -7.08691 -7.33105 -9.60352c-2.33105 -2.51758 -6.07715 -5.97363 -8.3252 -7.68164c-2.24805 -1.70703 -6.90039 -4.47266 -10.3379 -6.14453s-8.64062 -3.68555 -11.5625 -4.47363l-5.3125 -1.43359h-125.312
h-125.312l-5.625 1.75195c-3.09375 0.962891 -7.92676 2.86035 -10.7402 4.21582c-2.8125 1.35645 -7.35449 4.15332 -10.0918 6.21582c-2.73633 2.0625 -6.43066 5.34082 -8.20898 7.28613c-1.77734 1.94531 -4.37305 5.2168 -5.76758 7.27148
c-1.39551 2.05469 -3.60645 6.01855 -4.91309 8.80957c-1.30762 2.79102 -2.94434 7.125 -3.63867 9.63184c-0.694336 2.50586 -1.58008 7.29492 -1.96973 10.6416c-0.510742 4.40137 -0.523438 7.72363 -0.0429688 12.0059
c0.365234 3.25586 1.09766 7.5752 1.62695 9.59961c0.529297 2.02246 1.69531 5.53809 2.59082 7.8125c0.895508 2.27246 2.92773 6.36914 4.5166 9.10254c1.87695 3.22949 4.96777 7.08008 8.82617 10.998c3.26562 3.31641 7.20312 6.88086 8.75 7.92188
c1.54688 1.04004 4.82715 2.91797 7.29102 4.17188c2.46191 1.25488 6.11816 2.85156 8.125 3.54785c2.00488 0.696289 5.47461 1.71777 7.70898 2.26855c3.47461 0.857422 10.3398 1.04004 47.459 1.25781l43.3975 0.254883l-178.165 178.242
c-124.008 124.062 -178.972 179.455 -180.818 182.229c-1.45996 2.19336 -3.72461 6.27148 -5.03223 9.0625s-3.0293 7.46484 -3.82715 10.3867c-1.24414 4.55664 -1.4502 6.78027 -1.4502 15.625s0.206055 11.0684 1.4502 15.625
c0.797852 2.92188 2.51953 7.5957 3.82715 10.3867s3.58789 6.86914 5.06738 9.0625s4.67871 6.05371 7.11035 8.5791c2.43164 2.52441 6.70117 6.11035 9.48926 7.96875c2.78809 1.85742 6.87109 4.19434 9.07324 5.19336c2.20215 0.998047 5.67285 2.2998 7.71191 2.89258
s5.69043 1.43848 8.11426 1.87891c2.42285 0.44043 6.56543 0.825195 9.20508 0.856445h-0.00195312zM241.25 445.416l0.000976562 0.00195312l124.062 -0.103516l5.625 -1.73047c3.09375 -0.951172 7.92773 -2.85352 10.7412 -4.22852s7.31348 -4.13184 10 -6.12695
s6.37988 -5.26855 8.20801 -7.27441c1.82812 -2.00488 4.46484 -5.32617 5.85938 -7.38086c1.39551 -2.05469 3.60645 -6.01855 4.91309 -8.80957c1.30762 -2.79102 2.94434 -7.125 3.63867 -9.63184c0.694336 -2.50586 1.58008 -7.29492 1.96973 -10.6416
c0.510742 -4.40137 0.523438 -7.72363 0.0429688 -12.0059c-0.365234 -3.25586 -1.09766 -7.5752 -1.62695 -9.59961c-0.529297 -2.02246 -1.69531 -5.53809 -2.59082 -7.8125c-0.895508 -2.27246 -2.92773 -6.375 -4.5166 -9.11621
c-1.9502 -3.36426 -4.91992 -7.0332 -9.13867 -11.29c-3.77441 -3.80859 -8.10645 -7.45117 -10.9375 -9.19727c-2.57812 -1.58887 -6.8252 -3.74316 -9.43848 -4.78711c-2.61328 -1.04297 -6.41016 -2.33008 -8.4375 -2.85938s-6.07715 -1.23828 -8.99902 -1.57422
s-23.1709 -0.613281 -44.999 -0.616211l-39.6855 -0.00488281l178.204 -178.281c124.034 -124.091 179.01 -179.495 180.857 -182.271c1.45996 -2.19336 3.72461 -6.27148 5.03223 -9.0625s3.0293 -7.46484 3.82715 -10.3867
c1.24414 -4.55664 1.4502 -6.78027 1.4502 -15.625s-0.206055 -11.0684 -1.4502 -15.625c-0.797852 -2.92188 -2.51953 -7.5957 -3.82715 -10.3867s-3.58789 -6.86914 -5.06738 -9.0625s-4.64941 -6.02051 -7.04492 -8.50488
c-2.39453 -2.4834 -6.35254 -5.89258 -8.79492 -7.57422c-2.44238 -1.68262 -5.84668 -3.76465 -7.56543 -4.62598s-5.09375 -2.27148 -7.5 -3.13281c-2.40625 -0.863281 -7.02637 -2.02246 -10.2666 -2.57812s-7.79004 -1.00977 -10.1113 -1.00977
c-2.32031 0 -6.40723 0.304688 -9.08203 0.675781c-2.6748 0.37207 -7.125 1.39062 -9.88965 2.26172c-2.76367 0.87207 -6.99414 2.56934 -9.40039 3.77148c-2.40625 1.20312 -6.20312 3.45898 -8.4375 5.0127c-2.62207 1.82422 -67.0547 65.7861 -181.688 180.359
l-177.624 177.532l-0.209961 -44.0254c-0.204102 -42.8496 -0.245117 -44.1533 -1.55664 -48.8223c-0.740234 -2.63867 -2.20605 -6.85742 -3.25586 -9.375c-1.0498 -2.51855 -3.26562 -6.69238 -4.92285 -9.27734c-1.65723 -2.58301 -4.82422 -6.63379 -7.03516 -9
s-5.84863 -5.69238 -8.08301 -7.39062s-6.875 -4.45605 -10.3125 -6.12793s-8.64062 -3.68555 -11.5625 -4.47363c-4.5293 -1.22266 -6.83301 -1.43359 -15.625 -1.43359c-8.84473 0 -11.0684 0.206055 -15.625 1.4502c-2.92188 0.797852 -7.62598 2.53418 -10.4541 3.85938
c-2.8291 1.3252 -7.26953 3.87891 -9.86816 5.67578c-2.59961 1.79688 -6.82422 5.49707 -9.38867 8.22363c-2.56445 2.72559 -6.0752 7.25098 -7.80078 10.0557c-1.72656 2.80469 -3.98145 7.28516 -5.01172 9.95703c-1.03027 2.6709 -2.36035 6.75098 -2.95605 9.06738
c-1.00879 3.9248 -1.08301 12.6289 -1.08301 128.272c0 115.645 0.0742188 124.348 1.08301 128.273c0.595703 2.31641 1.92578 6.39648 2.95605 9.06738c1.03027 2.67188 3.28516 7.15234 5.01172 9.95703c1.72559 2.80469 5.23633 7.33008 7.80078 10.0557
c2.56445 2.72656 6.71191 6.36914 9.21777 8.09668c2.50586 1.72656 6.27148 4.00195 8.36914 5.05664c2.09668 1.05469 5.6123 2.52539 7.8125 3.26855c2.19922 0.744141 5.82715 1.72168 8.06152 2.17285c3.28223 0.662109 27.8965 0.800781 128.125 0.717773z" />
  </g>

</svg>
