<?xml version="1.0" standalone="no"?>
<!DOCTYPE svg PUBLIC "-//W3C//DTD SVG 1.1//EN" "http://www.w3.org/Graphics/SVG/1.1/DTD/svg11.dtd" >
<svg xmlns="http://www.w3.org/2000/svg" xmlns:xlink="http://www.w3.org/1999/xlink" version="1.1" viewBox="-10 0 1010 1000">
  <g transform="matrix(1 0 0 -1 0 800)">
   <path fill="currentColor"
d="M749.463 737.456c3.65625 0.0244141 8.89062 -0.380859 11.6309 -0.901367c2.73926 -0.519531 6.98145 -1.625 9.42676 -2.45703c2.44531 -0.831055 6.35156 -2.5166 8.68164 -3.74609c2.3291 -1.22949 6.06348 -3.62109 8.29785 -5.31445
c2.23438 -1.69238 33.8994 -32.9795 70.3672 -69.5264c57.7695 -57.8945 66.7275 -67.1191 69.5898 -71.6631c1.80762 -2.86719 4.12109 -7.22656 5.1416 -9.6875c1.02051 -2.45996 2.45898 -6.86328 3.19727 -9.78516c1.06738 -4.22266 1.3418 -7.1709 1.3418 -14.375
s-0.274414 -10.1523 -1.3418 -14.375c-0.738281 -2.92188 -2.19043 -7.3584 -3.22754 -9.86035c-1.03809 -2.50098 -3.39746 -6.86035 -5.24414 -9.6875c-1.84766 -2.82617 -4.84277 -6.75781 -6.65625 -8.73535c-1.81348 -1.97852 -5.45605 -5.22266 -8.09375 -7.21094
c-2.63965 -1.9873 -7.2627 -4.81934 -10.2744 -6.29004c-3.0127 -1.47168 -8.20801 -3.37793 -11.5449 -4.23535c-3.73828 -0.960938 -8.70703 -1.69336 -12.9424 -1.90527c-4.91406 -0.248047 -8.53516 -0.0556641 -12.6963 0.670898
c-3.20215 0.560547 -7.56152 1.60254 -9.6875 2.31738s-5.80957 2.27246 -8.18457 3.46387c-2.375 1.18945 -5.89062 3.19434 -7.8125 4.45312c-1.92188 1.25977 -8.76172 7.47559 -15.2002 13.8125l-11.7041 11.5215l-0.171875 -110.876l-0.171875 -110.876
l-1.36719 -4.79688c-0.750977 -2.63867 -2.25781 -6.93945 -3.34766 -9.55664c-1.08984 -2.61816 -3.39648 -6.92773 -5.12598 -9.57812s-5.14355 -6.88867 -7.58691 -9.41797c-2.44434 -2.5293 -6.16211 -5.83105 -8.26172 -7.33594
c-2.10059 -1.50488 -6.03809 -3.84668 -8.75 -5.20312c-2.71289 -1.35742 -7.46289 -3.24609 -10.5566 -4.19727c-5.28418 -1.62598 -6.3252 -1.73047 -17.1875 -1.73047c-10.8232 0 -11.916 0.109375 -17.0957 1.70508
c-3.04297 0.938477 -7.77539 2.82422 -10.5156 4.19238c-2.74023 1.36621 -6.28809 3.38379 -7.88477 4.48242s-5.11035 4.10645 -7.80859 6.68457s-6.52539 7.1084 -8.50391 10.0664s-4.50781 7.56348 -5.61914 10.2354c-1.1123 2.66992 -2.6377 7.01465 -3.38867 9.65332
l-1.36719 4.79688l-0.171875 110.901l-0.171875 110.9l-11.0791 -10.9766c-6.09473 -6.03711 -12.8115 -12.2354 -14.9268 -13.7754c-2.11523 -1.53809 -6.27539 -3.98535 -9.24512 -5.43555c-2.96973 -1.45117 -8.12988 -3.33984 -11.4668 -4.19727
c-3.73828 -0.960938 -8.70703 -1.69336 -12.9424 -1.90527c-4.91406 -0.248047 -8.53516 -0.0556641 -12.6963 0.670898c-3.20215 0.560547 -7.56152 1.60254 -9.6875 2.31738s-5.80957 2.27246 -8.18457 3.46387c-2.375 1.18945 -5.89062 3.20117 -7.8125 4.46973
s-5.63867 4.41797 -8.25977 6.99902c-2.62109 2.58008 -6.36035 7.14551 -8.30957 10.1436c-1.9502 2.99902 -4.39258 7.49902 -5.43066 10c-1.03711 2.50195 -2.48926 6.93848 -3.22754 9.86035c-1.06738 4.22266 -1.3418 7.1709 -1.3418 14.375
s0.274414 10.1523 1.3418 14.375c0.738281 2.92188 2.19043 7.3584 3.22754 9.86035c1.03809 2.50098 3.46973 7.00098 5.4043 10c3.07617 4.76562 12.0264 13.9551 71.123 73.0273c61.4395 61.415 68.0869 67.8691 72.9102 70.7939
c2.91895 1.77051 7.55957 4.0918 10.3125 5.1582s7.39648 2.44727 10.3184 3.06738c3.08691 0.65625 8.09766 1.14844 11.9629 1.17383v0.000976562zM314.375 612.224c5.66602 -0.179688 9.47949 -0.679688 13.8799 -1.81836
c3.33691 -0.863281 8.53223 -2.77441 11.5449 -4.24609c3.01172 -1.4707 7.63477 -4.30273 10.2744 -6.29004c2.6377 -1.98828 6.28027 -5.23242 8.09375 -7.21094c1.81348 -1.97754 4.80859 -5.90918 6.65625 -8.73535c1.84668 -2.82715 4.20605 -7.18652 5.24414 -9.6875
c1.03711 -2.50195 2.48926 -6.93848 3.22754 -9.86035c1.06738 -4.22266 1.3418 -7.1709 1.3418 -14.375s-0.274414 -10.1523 -1.3418 -14.375c-0.738281 -2.92188 -2.19043 -7.3584 -3.22754 -9.86035c-1.03809 -2.50098 -3.47168 -7.00098 -5.41113 -10
c-3.02441 -4.67871 -10.1865 -12.123 -50.4609 -52.4561c-30.0479 -30.0918 -46.6123 -47.1113 -46.0352 -47.2979c0.496094 -0.161133 4.27637 -0.75 8.40137 -1.30859s11.8594 -1.72363 17.1875 -2.59082s15.5752 -2.68066 22.7715 -4.03125
s18.8682 -3.73535 25.9375 -5.30078c7.06934 -1.56445 17.7754 -4.12012 23.791 -5.67969c6.01562 -1.55859 16.1406 -4.33691 22.5 -6.17188s16.4844 -4.93555 22.5 -6.89062s15.0156 -5.0459 20 -6.87012s12.2969 -4.57324 16.25 -6.10938
s12.25 -4.95215 18.4375 -7.59277c6.1875 -2.63965 18.2812 -8.27441 26.875 -12.5225s19.8438 -10.0918 25 -12.9854c5.15625 -2.89453 12.75 -7.32129 16.875 -9.83789c4.125 -2.51562 12.4814 -7.91406 18.5703 -11.9951
c6.08789 -4.08008 15.2285 -10.5361 20.3125 -14.3467c5.08301 -3.80957 11.4922 -8.77637 14.2422 -11.0352s7.94434 -6.65527 11.543 -9.76855c3.59766 -3.11328 9.77539 -8.75488 13.7266 -12.5361s10.8516 -10.6787 15.332 -15.3271
c4.48145 -4.64941 10.7002 -11.3994 13.8193 -15c3.11816 -3.60156 8.46582 -10.0635 11.8838 -14.3604c3.41699 -4.29688 8.63379 -11.1875 11.5938 -15.3125s8.05762 -11.5781 11.3262 -16.5625c3.26953 -4.98438 8.69336 -13.8438 12.0527 -19.6875
c3.36035 -5.84375 9.14062 -16.8125 12.8467 -24.375c3.70508 -7.5625 8.5752 -18.1846 10.8232 -23.6035c2.24609 -5.41992 5.79395 -14.5537 7.88379 -20.2979c2.08789 -5.74414 5.20996 -15.0908 6.93652 -20.7715c1.72656 -5.67969 4.36914 -15.1084 5.87207 -20.9521
s3.71582 -15.2656 4.91797 -20.9375s3.03613 -15.5156 4.07617 -21.875s2.45703 -16.0625 3.15039 -21.5625s1.68359 -14.9219 2.2002 -20.9375s1.25684 -18.1094 1.64453 -26.875c0.388672 -8.76562 0.554688 -20.1562 0.370117 -25.3125
c-0.227539 -6.35352 -0.743164 -10.9863 -1.59766 -14.375c-0.694336 -2.75 -2.11035 -7.0459 -3.14746 -9.54785c-1.03613 -2.50098 -3.39551 -6.86035 -5.24219 -9.6875c-1.84766 -2.82617 -4.84277 -6.75781 -6.65625 -8.73535
c-1.81348 -1.97852 -5.45605 -5.22266 -8.09375 -7.21094c-2.63965 -1.9873 -7.2627 -4.81934 -10.2744 -6.29004c-3.0127 -1.47168 -8.20801 -3.37793 -11.5449 -4.23535c-3.73828 -0.960938 -8.70703 -1.69336 -12.9424 -1.90527
c-4.91406 -0.248047 -8.53516 -0.0556641 -12.6963 0.670898c-3.20215 0.560547 -7.56152 1.60254 -9.6875 2.31738s-5.80957 2.27246 -8.18457 3.46387c-2.375 1.18945 -5.89062 3.20117 -7.8125 4.46973s-5.63867 4.41797 -8.25977 6.99902
c-2.62109 2.58008 -6.36035 7.14551 -8.30957 10.1436c-1.9502 2.99902 -4.39258 7.49902 -5.42871 10c-1.03711 2.50195 -2.45117 6.79785 -3.14258 9.54785c-1.0127 4.02637 -1.36133 8.34766 -1.79492 22.1875c-0.295898 9.45312 -0.711914 19.8594 -0.923828 23.125
c-0.213867 3.26562 -0.802734 10.2969 -1.30859 15.625s-1.63574 14.5898 -2.50977 20.5801c-0.873047 5.99023 -2.40625 14.9287 -3.40527 19.8613s-2.98145 13.5312 -4.40527 19.1074s-3.98828 14.498 -5.7002 19.8262s-4.94043 14.3281 -7.1748 20
s-6.23535 14.8125 -8.89062 20.3125s-6.74414 13.375 -9.08691 17.5c-2.3418 4.125 -6.64453 11.1562 -9.56055 15.625c-2.91504 4.46875 -8.04883 11.7812 -11.4082 16.25c-3.3584 4.46875 -9.01367 11.5 -12.5674 15.625s-10.4238 11.4375 -15.2676 16.25
s-12.1631 11.626 -16.2656 15.1416c-4.10254 3.51465 -10.5527 8.80176 -14.334 11.748c-3.78125 2.94727 -12.5 9.11816 -19.375 13.7158c-6.875 4.5957 -17 10.9336 -22.5 14.084s-15.9062 8.62207 -23.125 12.1592s-17.4873 8.27832 -22.8184 10.5371
c-5.33105 2.25781 -14.1904 5.78125 -19.6875 7.8291c-5.49707 2.04688 -14.3535 5.17871 -19.6816 6.95801c-5.32812 1.77832 -15.0312 4.7793 -21.5625 6.66797s-16.8994 4.67676 -23.041 6.19629c-6.14062 1.51953 -17.334 4.03027 -24.875 5.58105
c-7.54004 1.55078 -14.04 2.81934 -14.4463 2.81934c-0.405273 0 15.1904 -15.9609 34.6582 -35.4688c29.8457 -29.9082 35.9473 -36.3242 38.9219 -40.9209c1.93945 -2.99902 4.375 -7.49902 5.41309 -10c1.03711 -2.50195 2.48926 -6.93848 3.22754 -9.86035
c1.06738 -4.22266 1.3418 -7.1709 1.3418 -14.375s-0.274414 -10.1523 -1.3418 -14.375c-0.738281 -2.92188 -2.19043 -7.3584 -3.22754 -9.86035c-1.03809 -2.50098 -3.48047 -7.00098 -5.43066 -10c-1.94922 -2.99805 -5.68848 -7.56738 -8.30957 -10.1523
c-2.62109 -2.58398 -6.59375 -5.90137 -8.82812 -7.36914c-2.23438 -1.46875 -6.15723 -3.67383 -8.71875 -4.89941c-2.56055 -1.22656 -7.3418 -2.94434 -10.625 -3.81836c-5.00293 -1.33203 -7.43652 -1.59961 -15.0312 -1.65137
c-6.7793 -0.0458984 -10.3223 0.229492 -14.0625 1.0957c-2.75 0.635742 -7.10938 2.02441 -9.6875 3.08594s-6.375 2.90527 -8.4375 4.09766c-2.0625 1.19336 -5.43652 3.51172 -7.5 5.15332c-2.0625 1.64258 -47.3691 46.6689 -100.682 100.059
c-85.4287 85.5527 -97.3223 97.6924 -100.216 102.288c-1.80664 2.86719 -4.11816 7.22656 -5.13867 9.6875c-1.02051 2.45996 -2.45898 6.86328 -3.19727 9.78516c-1.06738 4.22266 -1.3418 7.1709 -1.3418 14.375s0.274414 10.1523 1.3418 14.375
c0.738281 2.92188 2.19043 7.3584 3.22754 9.86035c1.03809 2.50098 3.46973 7.00098 5.4043 10c3.10742 4.81445 15.0176 16.9453 102.061 103.946c63.1729 63.1426 99.7949 99.3027 102.035 100.748c1.92188 1.23926 5.4375 3.22754 7.8125 4.41699
c2.375 1.19141 6.07324 2.75488 8.21875 3.47559c2.14453 0.720703 6.08203 1.72461 8.75 2.22949c3.25293 0.617188 7.4209 0.837891 12.6621 0.670898z" />
  </g>

</svg>
