<?xml version="1.0" standalone="no"?>
<!DOCTYPE svg PUBLIC "-//W3C//DTD SVG 1.1//EN" "http://www.w3.org/Graphics/SVG/1.1/DTD/svg11.dtd" >
<svg xmlns="http://www.w3.org/2000/svg" xmlns:xlink="http://www.w3.org/1999/xlink" version="1.1" viewBox="-10 0 1010 1000">
  <g transform="matrix(1 0 0 -1 0 800)">
   <path fill="currentColor"
d="M336.562 695.29c12.0732 -0.133789 20.3896 -0.526367 24.9062 -1.1748c3.73047 -0.535156 9.35547 -1.41699 12.5 -1.95898c3.14551 -0.541992 9.23438 -1.83594 13.5312 -2.87402c4.29688 -1.04004 11.6846 -3.14746 16.417 -4.68652
c4.73145 -1.53809 12.0439 -4.20703 16.25 -5.93066c4.20508 -1.72363 11.4893 -5.05859 16.1875 -7.41113s11.7764 -6.23926 15.7295 -8.63867c3.95312 -2.39746 10.0029 -6.35645 13.4443 -8.79688s9.30078 -6.9248 13.0215 -9.9668
c3.71875 -3.04199 9.69336 -8.31641 13.2754 -11.7227c3.58203 -3.40527 9.35547 -9.42578 12.8281 -13.3789c3.47363 -3.95312 8.43945 -10 11.0352 -13.4375s6.41504 -8.78125 8.4873 -11.875c2.07324 -3.09375 5.54492 -8.70703 7.71387 -12.4746
c2.16992 -3.7666 5.7041 -10.5166 7.85449 -15c2.15039 -4.48242 5.02441 -10.9629 6.38574 -14.4004s3.61523 -9.76562 5.00781 -14.0625c1.39355 -4.29688 3.10449 -9.92188 3.80273 -12.5c0.697266 -2.57812 2.1084 -8.90625 3.13477 -14.0625
s2.35547 -13.1719 2.95312 -17.8125c0.953125 -7.3916 1.11621 -16.0127 1.31348 -69.5312l0.225586 -61.0938h80.7373h80.7363l-42.5859 42.6562c-36.3447 36.4043 -43.1035 43.4561 -46.1123 48.1084c-1.93848 2.99902 -4.37305 7.49902 -5.41113 10
c-1.03711 2.50195 -2.48926 6.93848 -3.22754 9.86035c-1.06738 4.22266 -1.3418 7.1709 -1.3418 14.375s0.274414 10.1523 1.3418 14.375c0.738281 2.92188 2.19043 7.3584 3.22754 9.86035c1.03809 2.50098 3.48047 7.00098 5.43066 10
c1.94922 2.99805 5.68848 7.56348 8.30957 10.1436c2.62109 2.58105 6.44922 5.80469 8.50586 7.16211c2.05762 1.35938 5.57324 3.37109 7.8125 4.47168c2.24023 1.10059 5.8125 2.58594 7.93848 3.30078c2.12598 0.713867 6.48535 1.75488 9.6875 2.31543
c4.16113 0.726562 7.78223 0.918945 12.6963 0.670898c4.20703 -0.210938 9.2002 -0.943359 12.8701 -1.88672c3.29785 -0.847656 8.21973 -2.63086 10.9375 -3.96387s6.62988 -3.51465 8.69238 -4.84766c2.56641 -1.65918 34.8594 -33.5195 102.291 -100.919
c87.043 -87.001 98.9531 -99.1318 102.062 -103.947c1.93457 -2.99902 4.36621 -7.49902 5.4043 -10c1.03711 -2.50195 2.48926 -6.93848 3.22754 -9.86035c1.06738 -4.22266 1.3418 -7.1709 1.3418 -14.375s-0.274414 -10.1523 -1.3418 -14.375
c-0.738281 -2.92188 -2.17676 -7.3252 -3.19727 -9.78516c-1.02051 -2.46094 -3.33203 -6.82031 -5.13867 -9.6875c-2.89355 -4.5957 -14.8184 -16.7666 -100.528 -102.602c-55.3887 -55.4697 -99.2695 -98.9248 -101.95 -100.96
c-2.58789 -1.9668 -7.16992 -4.7793 -10.1816 -6.25c-3.0127 -1.47168 -8.20801 -3.37793 -11.5449 -4.23535c-3.73828 -0.960938 -8.70703 -1.69336 -12.9424 -1.90527c-4.91406 -0.248047 -8.53516 -0.0556641 -12.6963 0.670898
c-3.20215 0.560547 -7.56152 1.60254 -9.6875 2.31738s-5.80957 2.27246 -8.18457 3.46387c-2.375 1.18945 -5.89062 3.20117 -7.8125 4.46973s-5.63867 4.41797 -8.25977 6.99902c-2.62109 2.58008 -6.36035 7.14551 -8.30957 10.1436
c-1.9502 2.99902 -4.39258 7.49902 -5.43066 10c-1.03711 2.50195 -2.48926 6.93848 -3.22754 9.86035c-1.06738 4.22266 -1.3418 7.1709 -1.3418 14.375s0.274414 10.1523 1.3418 14.375c0.738281 2.92188 2.19043 7.3584 3.22754 9.86035
c1.03809 2.50098 3.47266 7.00098 5.41113 10c3.00879 4.65234 9.76758 11.7041 46.1123 48.1084l42.5859 42.6562h-80.7627h-80.7617l-0.173828 -161.095l-0.171875 -161.094l-1.35938 -5c-0.748047 -2.75 -2.20801 -7.0459 -3.24512 -9.54785
c-1.03613 -2.50098 -3.39551 -6.86035 -5.24219 -9.6875c-1.84766 -2.82617 -4.84277 -6.75781 -6.65625 -8.73535c-1.81348 -1.97852 -5.45605 -5.22266 -8.09375 -7.21094c-2.63965 -1.9873 -7.2627 -4.81934 -10.2744 -6.29004
c-3.0127 -1.47168 -8.20801 -3.37793 -11.5449 -4.23535c-3.73828 -0.960938 -8.70703 -1.69336 -12.9424 -1.90527c-4.91406 -0.248047 -8.53516 -0.0556641 -12.6963 0.670898c-3.20215 0.560547 -7.56152 1.60254 -9.6875 2.31738s-5.80957 2.27246 -8.18457 3.46387
c-2.375 1.18945 -5.89062 3.20117 -7.8125 4.46973s-5.63867 4.41797 -8.25977 6.99902c-2.62109 2.58008 -6.36035 7.14551 -8.30957 10.1436c-1.9502 2.99902 -4.39258 7.49902 -5.42871 10c-1.03711 2.50195 -2.49707 6.79785 -3.24512 9.54785l-1.35938 5
l-0.171875 161.061l-0.173828 161.061l-61.085 0.225586c-53.5107 0.197266 -62.1318 0.360352 -69.5234 1.31348c-4.64062 0.597656 -12.6562 1.92676 -17.8125 2.95312s-11.4844 2.4375 -14.0625 3.13477c-2.57812 0.698242 -8.20312 2.40918 -12.5 3.80273
c-4.29688 1.39258 -10.625 3.64648 -14.0625 5.00781s-9.91797 4.23535 -14.4004 6.38574c-4.4834 2.15039 -11.2334 5.68457 -15 7.85449c-3.76758 2.16895 -9.38086 5.63965 -12.4746 7.71094c-3.09375 2.07227 -7.875 5.46094 -10.625 7.53027
s-7.53125 5.87207 -10.625 8.44922c-3.09375 2.57812 -9.57227 8.6416 -14.3965 13.4746c-4.8252 4.83301 -11.1846 11.7402 -14.1338 15.3496c-2.94824 3.60938 -7.74805 9.9375 -10.665 14.0625c-2.91797 4.125 -7.05859 10.4131 -9.20215 13.9736
s-5.81738 10.3105 -8.16309 15c-2.34668 4.68945 -5.68066 11.9668 -7.40918 16.1719c-1.72754 4.20605 -4.40039 11.5186 -5.93848 16.25c-1.53906 4.73242 -3.64844 12.1201 -4.68848 16.417c-1.04102 4.29688 -2.45117 11.1875 -3.13574 15.3125
s-1.61523 10.1719 -2.06836 13.4375c-0.535156 3.86328 -0.823242 12.7061 -0.823242 25.3125c-0.000976562 15.1357 0.246094 21.2217 1.12598 27.8125c0.620117 4.64062 1.97461 12.6309 3.01172 17.7568s2.85742 12.7197 4.04492 16.875s3.3125 10.79 4.72363 14.7432
c1.41016 3.95312 4.22363 10.9844 6.25 15.625c2.02734 4.64062 5.67871 12.0938 8.11426 16.5625s7.33496 12.4844 10.8877 17.8125c3.55176 5.32812 8.91797 12.7812 11.9248 16.5625s10.5469 11.9541 16.7539 18.1621c6.20801 6.20703 14.3809 13.7471 18.1621 16.7539
s11.2344 8.37012 16.5625 11.9189s13.0625 8.30469 17.1875 10.5693s10.8955 5.64062 15.0459 7.50293c4.15039 1.86133 11.4629 4.82129 16.25 6.57617s12.1289 4.16504 16.3145 5.35742c4.18555 1.19141 11.7793 3.00195 16.875 4.02441
c5.0957 1.02148 12.9209 2.29688 17.3896 2.83594c4.46875 0.538086 9.25 1.0918 10.625 1.22852s10.6562 0.158203 20.625 0.0478516h-0.000976562zM335.625 570.344c-8.50488 0.166016 -13.8066 -0.0273438 -17.5449 -0.636719
c-2.94629 -0.480469 -7.65625 -1.46094 -10.4678 -2.17871c-2.81055 -0.716797 -7.14941 -2.03809 -9.64258 -2.93359s-7.12207 -2.86035 -10.2861 -4.36621c-3.16406 -1.50488 -8.64844 -4.67871 -12.1875 -7.05273s-8.54297 -6.21777 -11.1211 -8.54199
s-6.6084 -6.35645 -8.95605 -8.96094c-2.34668 -2.60449 -6.22266 -7.64551 -8.6123 -11.2031s-5.60059 -9.08398 -7.13379 -12.2812c-1.53516 -3.19629 -3.76074 -8.72266 -4.94629 -12.2812s-2.79492 -9.42285 -3.5752 -13.0322
c-1.23438 -5.70605 -1.41992 -8.35742 -1.41992 -20.3125c0 -11.9639 0.18457 -14.6025 1.42188 -20.3125c0.78125 -3.60938 2.25684 -9.09375 3.27832 -12.1875s3.51367 -9 5.53809 -13.125s5.00293 -9.46875 6.62012 -11.875s4.51367 -6.30957 6.43555 -8.67285
c1.92383 -2.36426 6.03711 -6.66699 9.14258 -9.56152c3.10352 -2.89453 8.17578 -7.08105 11.2695 -9.30273c3.09375 -2.22266 9 -5.7041 13.125 -7.7373c4.125 -2.03418 9.99902 -4.56738 13.0547 -5.63086c3.05566 -1.0625 8.96191 -2.68457 13.125 -3.60352
l7.57031 -1.6709l58.624 -0.220703l58.623 -0.22168l-0.22168 58.623l-0.220703 58.624l-1.6709 7.57031c-0.918945 4.16309 -2.54395 10.0693 -3.61328 13.125c-1.06836 3.05566 -3.16504 8.15527 -4.65918 11.335c-1.49512 3.17871 -4.32227 8.24121 -6.28418 11.25
c-1.95996 3.00781 -5.17578 7.43848 -7.14453 9.84473s-5.7959 6.4873 -8.50684 9.06836c-2.70898 2.58203 -6.61328 5.98242 -8.67578 7.55957c-2.0625 1.57617 -5.59668 4.02734 -7.85352 5.44629c-2.25781 1.41992 -7.03906 3.97852 -10.625 5.68848
c-3.58691 1.70898 -9.05273 3.94922 -12.1465 4.97754c-3.09375 1.0293 -8.4375 2.47461 -11.875 3.21191c-4.8252 1.03613 -9.02734 1.39551 -18.4375 1.5791z" />
  </g>

</svg>
