<?xml version="1.0" standalone="no"?>
<!DOCTYPE svg PUBLIC "-//W3C//DTD SVG 1.1//EN" "http://www.w3.org/Graphics/SVG/1.1/DTD/svg11.dtd" >
<svg xmlns="http://www.w3.org/2000/svg" xmlns:xlink="http://www.w3.org/1999/xlink" version="1.1" viewBox="-10 0 1010 1000">
  <g transform="matrix(1 0 0 -1 0 800)">
   <path fill="currentColor"
d="M545.554 678.358c4.25781 -0.166992 10.8672 -0.863281 14.6875 -1.54785s10.21 -2.33301 14.1992 -3.66406c3.98926 -1.33008 9.89551 -3.74023 13.125 -5.35645s8.2627 -4.4873 11.1846 -6.37988c2.92188 -1.8916 7.5625 -5.35742 10.3125 -7.69922
c2.75 -2.34277 68.5791 -67.9092 146.288 -145.704c119.13 -119.262 141.942 -142.376 145.459 -147.382c2.29395 -3.26562 5.99512 -9.59375 8.22461 -14.0625c2.23047 -4.46875 4.90625 -10.751 5.94629 -13.9609c1.04102 -3.20898 2.5166 -8.69336 3.2793 -12.1875
c1.20215 -5.50977 1.38574 -8.21777 1.38574 -20.4141c0 -12.2285 -0.182617 -14.8984 -1.39648 -20.4678c-0.768555 -3.52441 -2.26074 -9.00781 -3.31543 -12.1875c-1.05469 -3.18066 -3.41602 -8.87695 -5.24707 -12.6572
c-1.83105 -3.78125 -5.00781 -9.40625 -7.05957 -12.5s-5.84473 -8.01562 -8.42773 -10.9375s-67.9365 -68.4697 -145.229 -145.663c-118.364 -118.211 -141.47 -141.01 -146.471 -144.523c-3.26562 -2.29492 -9.4668 -5.97266 -13.7803 -8.1709
c-4.31445 -2.19922 -10.9658 -5.00781 -14.7812 -6.24219c-3.81641 -1.2334 -10.1309 -2.79492 -14.0312 -3.4707c-3.90234 -0.675781 -9.625 -1.40723 -12.7197 -1.62598c-3.09375 -0.217773 -9.01855 -0.0986328 -13.167 0.264648
c-4.14746 0.365234 -10.1943 1.20996 -13.4375 1.87891c-3.24219 0.667969 -8.56738 2.10547 -11.833 3.19238s-8.78027 3.33984 -12.2539 5.00586c-3.47461 1.66602 -9.24023 4.98438 -12.8125 7.37402c-3.57324 2.38965 -8.18359 5.84961 -10.2461 7.68848
c-2.0625 1.83984 -6.09668 5.89551 -8.96484 9.01367c-2.86719 3.11914 -6.91113 8.18359 -8.98633 11.2559c-2.07617 3.07227 -5.39648 8.95996 -7.37988 13.085c-1.98242 4.125 -4.45312 10.1719 -5.48828 13.4375c-1.03613 3.26562 -2.31543 8.04688 -2.84277 10.625
s-1.25586 7.07031 -1.61719 9.9834c-0.407227 3.27832 -0.658203 22.9873 -0.658203 51.7188v46.4229l-137.969 0.00488281c-88.1895 0.00292969 -139.998 0.232422 -143.594 0.632812c-3.09375 0.345703 -7.875 1.0752 -10.625 1.62207s-7.88281 1.95508 -11.4053 3.12793
c-3.52344 1.17383 -8.58594 3.16211 -11.25 4.41699c-2.66504 1.25586 -6.9541 3.54785 -9.53223 5.09375c-2.57812 1.54492 -6.375 4.0791 -8.4375 5.63086s-5.75195 4.59082 -8.19824 6.75293c-2.44629 2.16309 -6.41699 6.26074 -8.82422 9.10547
c-2.40625 2.84668 -5.85156 7.38184 -7.65625 10.0801c-1.80469 2.69922 -4.49609 7.28613 -5.98047 10.1943c-1.48438 2.90918 -3.57812 7.5918 -4.6543 10.4072s-2.64062 7.75098 -3.47754 10.9678c-0.836914 3.21875 -1.94336 9.06836 -2.45898 13.002
c-0.795898 6.06738 -0.9375 20.6748 -0.9375 96.4609s0.141602 90.3936 0.9375 96.4609c0.515625 3.93359 1.62207 9.7832 2.45898 13.002c0.836914 3.2168 2.40137 8.15234 3.47754 10.9678s3.16992 7.49805 4.6543 10.4072
c1.48438 2.9082 4.17578 7.49512 5.98047 10.1943c1.80469 2.69824 5.25 7.2334 7.65625 10.0801c2.40723 2.84473 6.37793 6.94238 8.82422 9.10547c2.44629 2.16211 6.13574 5.20117 8.19824 6.75293s5.85938 4.09277 8.4375 5.64746s5.8125 3.3916 7.1875 4.08398
c1.375 0.691406 5.10352 2.28027 8.28418 3.53027s8.48535 2.97461 11.7881 3.83301c3.30176 0.857422 9.2207 1.98145 13.1543 2.49707c6.16895 0.808594 26.1338 0.9375 145.556 0.9375h138.405v46.4229c0 28.7314 0.250977 48.4404 0.658203 51.7188
c0.361328 2.91309 1.08984 7.40527 1.61719 9.9834s1.80664 7.35938 2.84277 10.625c1.03516 3.26562 3.50586 9.3125 5.48828 13.4375c1.9834 4.125 5.30371 10.0127 7.37988 13.085c2.0752 3.07227 6.11914 8.13672 8.98633 11.2559
c2.86816 3.11816 6.90234 7.17383 8.96484 9.01367c2.0625 1.83887 6.67285 5.29883 10.2461 7.68848c3.57227 2.38965 9.33789 5.70801 12.8125 7.37402c3.47363 1.66602 8.98828 3.91895 12.2539 5.00586s8.60938 2.53125 11.875 3.20996s8.46875 1.48242 11.5625 1.78711
s9.1084 0.416992 13.3662 0.250977v0zM674.554 412.008l-112.008 112.009l-0.203125 -54.3525c-0.199219 -53.3174 -0.229492 -54.4463 -1.54688 -59.3516c-0.739258 -2.75 -2.19238 -7.0459 -3.22949 -9.54785c-1.03613 -2.50098 -3.39551 -6.86035 -5.24219 -9.6875
c-1.84766 -2.82617 -4.81738 -6.72949 -6.59961 -8.67285c-1.78125 -1.94336 -5.27539 -5.08984 -7.76367 -6.99316s-6.77344 -4.58008 -9.52344 -5.94824s-6.73047 -3.06641 -8.8457 -3.77441c-2.11523 -0.707031 -6.30078 -1.71387 -9.30078 -2.2373
c-4.78711 -0.834961 -24.8701 -0.951172 -164.123 -0.951172h-158.668v-62.5v-62.5h158.668c139.253 0 159.336 -0.116211 164.123 -0.951172c3 -0.523438 7.18555 -1.53027 9.30078 -2.2373c2.11523 -0.708008 6.0957 -2.40625 8.8457 -3.77441
s7.03516 -4.04492 9.52344 -5.94824s5.98242 -5.0498 7.76367 -6.99316c1.78223 -1.94336 4.75195 -5.84668 6.59961 -8.67285c1.84668 -2.82715 4.20605 -7.18652 5.24219 -9.6875c1.03711 -2.50195 2.48926 -6.79785 3.22754 -9.54785
c1.30957 -4.88184 1.34961 -6.28418 1.68066 -59.2197l0.337891 -54.2188l111.874 111.876l111.875 111.877l-112.008 112.007v-0.000976562z" />
  </g>

</svg>
