<?xml version="1.0" standalone="no"?>
<!DOCTYPE svg PUBLIC "-//W3C//DTD SVG 1.1//EN" "http://www.w3.org/Graphics/SVG/1.1/DTD/svg11.dtd" >
<svg xmlns="http://www.w3.org/2000/svg" xmlns:xlink="http://www.w3.org/1999/xlink" version="1.1" viewBox="-10 0 1010 1000">
  <g transform="matrix(1 0 0 -1 0 800)">
   <path fill="currentColor"
d="M501.875 737.224c5.66602 -0.179688 9.47949 -0.679688 13.8799 -1.81836c3.33691 -0.863281 8.53223 -2.77441 11.5449 -4.24609c3.01172 -1.4707 7.59375 -4.2832 10.1816 -6.25c2.68066 -2.03516 46.5615 -45.4902 101.95 -100.96
c85.71 -85.835 97.6348 -98.0059 100.527 -102.602c1.80664 -2.86719 4.11816 -7.22656 5.13867 -9.6875c1.02051 -2.45996 2.45898 -6.86328 3.19727 -9.78516c1.06738 -4.22266 1.3418 -7.1709 1.3418 -14.375s-0.274414 -10.1523 -1.3418 -14.375
c-0.738281 -2.92188 -2.19043 -7.3584 -3.22754 -9.86035c-1.03809 -2.50098 -3.39746 -6.86035 -5.24414 -9.6875c-1.84766 -2.82617 -4.84277 -6.75781 -6.65625 -8.73535c-1.81348 -1.97852 -5.45605 -5.22266 -8.09375 -7.21094
c-2.63965 -1.9873 -7.2627 -4.81934 -10.2744 -6.29004c-3.0127 -1.47168 -8.20801 -3.37793 -11.5449 -4.23535c-3.73828 -0.960938 -8.70703 -1.69336 -12.9424 -1.90527c-4.91406 -0.248047 -8.53516 -0.0556641 -12.6963 0.670898
c-3.20215 0.560547 -7.56152 1.60254 -9.6875 2.31738s-5.80957 2.27246 -8.18457 3.46387c-2.375 1.18945 -5.89062 3.18164 -7.8125 4.4248c-2.12012 1.37305 -20.3955 19.1152 -46.4629 45.1094l-42.9688 42.8467v-192.011v-192.011l5.46875 -2.75098
c3.00781 -1.5127 8.42188 -4.70312 12.0312 -7.09082c3.60938 -2.38672 8.8125 -6.12988 11.5625 -8.31934c2.75 -2.18848 7.82129 -6.80566 11.2695 -10.2588c3.44824 -3.45508 8.1875 -8.66504 10.5332 -11.5801c2.3457 -2.91406 6.05176 -8.00879 8.23633 -11.3213
c2.18359 -3.3125 5.51367 -8.94336 7.40137 -12.5137c1.88672 -3.56934 4.73242 -9.72461 6.3252 -13.6777s3.83203 -10.5879 4.97754 -14.7441c1.14453 -4.15625 2.51465 -9.92188 3.04492 -12.8125c0.529297 -2.89062 1.25781 -7.9873 1.61914 -11.3252
c0.360352 -3.33789 0.655273 -10.3799 0.655273 -15.6484c0 -5.26953 -0.402344 -12.8037 -0.893555 -16.7432c-0.491211 -3.94043 -1.50098 -10.1172 -2.24414 -13.7266s-2.59961 -10.3594 -4.125 -15c-1.52637 -4.64062 -4.84375 -12.6562 -7.375 -17.8125
c-2.53027 -5.15625 -6.55371 -12.3281 -8.94043 -15.9375c-2.3877 -3.60938 -6.13184 -8.8125 -8.32227 -11.5625c-2.18945 -2.75 -6.52441 -7.63477 -9.63379 -10.8564c-3.10938 -3.2207 -8.46582 -8.125 -11.9033 -10.8984
c-3.4375 -2.77246 -9.20312 -6.98242 -12.8125 -9.35254c-3.60938 -2.37109 -10.5 -6.23926 -15.3125 -8.5957s-12.0186 -5.40332 -16.0137 -6.77051c-3.99414 -1.36719 -10.1816 -3.19727 -13.75 -4.06738c-3.56738 -0.869141 -9.7207 -2.08008 -13.6738 -2.69043
c-5.21973 -0.806641 -10.8652 -1.11035 -20.625 -1.11035c-9.77246 0 -15.3975 0.302734 -20.625 1.11133c-3.95312 0.612305 -10.4219 1.91992 -14.375 2.90625s-10.1406 2.82422 -13.75 4.08398s-10.5 4.21289 -15.3125 6.5625s-12.125 6.51367 -16.25 9.25293
c-4.125 2.73828 -10.1738 7.2207 -13.4414 9.95996c-3.26758 2.74023 -8.39746 7.5625 -11.4004 10.7178c-3.00293 3.15625 -6.96484 7.62402 -8.80566 9.93164c-1.84082 2.30664 -5.23145 7.00586 -7.53613 10.4434c-2.30371 3.43652 -6.37109 10.6064 -9.03809 15.9346
s-6.03125 13.25 -7.47754 17.6045c-1.44531 4.35449 -3.31543 10.9648 -4.15625 14.6875c-0.839844 3.72363 -1.96191 10.2783 -2.49219 14.5654s-0.964844 12.1016 -0.964844 17.3682c0 5.26562 0.294922 12.3057 0.655273 15.6436
c0.361328 3.33789 1.08984 8.43457 1.61914 11.3252c0.530273 2.89062 1.91309 8.7207 3.07324 12.9561c1.16211 4.23535 3.4043 10.8701 4.98438 14.7441c1.58105 3.87402 4.42676 9.99707 6.32422 13.6064c1.89648 3.60938 5.2334 9.25195 7.41504 12.5391
c2.18066 3.28711 5.87012 8.34961 8.19824 11.25c2.32715 2.90039 6.91699 7.95996 10.2002 11.2441c3.28223 3.28418 8.63965 8.09375 11.9053 10.6885s8.11523 6.17188 10.7764 7.95117c2.66113 1.77734 7.79395 4.79688 11.4062 6.70898l6.56738 3.47656v191.971v191.971
l-42.3438 -42.2686c-23.2891 -23.2471 -44.0742 -43.5225 -46.1895 -45.0547s-6.27539 -3.97363 -9.24512 -5.42383c-2.96973 -1.45117 -8.12988 -3.33984 -11.4668 -4.19727c-3.73828 -0.960938 -8.70703 -1.69336 -12.9424 -1.90527
c-4.91406 -0.248047 -8.53516 -0.0556641 -12.6963 0.670898c-3.20215 0.560547 -7.56152 1.60254 -9.6875 2.31738s-5.80957 2.27246 -8.18457 3.46387c-2.375 1.18945 -5.89062 3.20117 -7.8125 4.46973s-5.63867 4.41797 -8.25977 6.99902
c-2.62109 2.58008 -6.36035 7.14551 -8.30957 10.1436c-1.9502 2.99902 -4.39258 7.49902 -5.43066 10c-1.03711 2.50195 -2.48926 6.93848 -3.22754 9.86035c-1.06738 4.22266 -1.3418 7.1709 -1.3418 14.375s0.274414 10.1523 1.3418 14.375
c0.738281 2.92188 2.19043 7.3584 3.22754 9.86035c1.03809 2.50098 3.46973 7.00098 5.4043 10c3.10742 4.81543 15.0176 16.9463 102.062 103.947c63.1729 63.1426 99.7949 99.3027 102.034 100.748c1.92188 1.23926 5.4375 3.22754 7.8125 4.41699
c2.375 1.19141 6.07324 2.75488 8.21875 3.47559c2.14453 0.720703 6.08203 1.72461 8.75 2.22949c3.25293 0.617188 7.4209 0.837891 12.6621 0.670898h0.000976562zM501.562 29.0576c-2.15625 0.176758 -4.96484 -0.0361328 -6.60645 -0.5
c-1.57129 -0.444336 -4.14941 -1.56543 -5.72949 -2.49121c-1.5791 -0.924805 -3.87695 -2.85742 -5.10645 -4.29395c-1.22949 -1.43555 -2.82715 -4.17969 -3.55078 -6.09766c-1.05762 -2.80371 -1.2627 -4.46777 -1.0498 -8.4873
c0.202148 -3.77539 0.662109 -5.77148 1.88086 -8.15039c0.886719 -1.73242 2.9248 -4.35938 4.52734 -5.83691c1.60352 -1.47754 4.23047 -3.29102 5.83691 -4.03125c2.25879 -1.03906 4.12988 -1.3457 8.23535 -1.35059
c4.54785 -0.00488281 5.82031 0.243164 8.83887 1.72559c1.93848 0.952148 4.66113 2.96387 6.04883 4.46875c1.3877 1.50586 3.15527 3.96094 3.92578 5.45703c0.998047 1.93359 1.47949 4.15918 1.66797 7.71777c0.213867 4.03418 0.00683594 5.68164 -1.06641 8.5293
c-0.732422 1.94141 -2.46191 4.81348 -3.84375 6.38281c-1.49512 1.69824 -4.08105 3.62305 -6.38574 4.75293c-2.48828 1.21973 -5.21289 2.00781 -7.62305 2.20508z" />
  </g>

</svg>
