<?xml version="1.0" standalone="no"?>
<!DOCTYPE svg PUBLIC "-//W3C//DTD SVG 1.1//EN" "http://www.w3.org/Graphics/SVG/1.1/DTD/svg11.dtd" >
<svg xmlns="http://www.w3.org/2000/svg" xmlns:xlink="http://www.w3.org/1999/xlink" version="1.1" viewBox="-10 0 1010 1000">
  <g transform="matrix(1 0 0 -1 0 800)">
   <path fill="currentColor"
d="M499.421 737.443c78.7881 0.0507812 89.1289 -0.0537109 94.375 -0.953125c3.24023 -0.555664 7.86035 -1.71484 10.2666 -2.57812c2.40625 -0.861328 5.78125 -2.27441 7.5 -3.13867s4.8125 -2.70801 6.875 -4.0957c2.0625 -1.38867 5.78223 -4.48438 8.2666 -6.87988
c2.4834 -2.39453 5.94922 -6.42871 7.70312 -8.96582c1.75293 -2.53516 4.27051 -6.92383 5.5957 -9.75293c1.3252 -2.82812 3.06152 -7.53223 3.85938 -10.4541l1.4502 -5.3125v-94.0625v-94.0625l-1.75195 -5.625c-0.962891 -3.09375 -2.86035 -7.92676 -4.21582 -10.7402
c-1.35645 -2.8125 -4.15332 -7.35449 -6.21582 -10.0918c-2.0625 -2.73633 -5.34082 -6.43066 -7.28613 -8.20898c-1.94531 -1.77734 -5.2168 -4.37305 -7.27148 -5.76758c-2.05469 -1.39551 -6.10156 -3.64551 -8.99316 -5.00098
c-2.89258 -1.35547 -7.98828 -3.17773 -11.3242 -4.0498c-5.41113 -1.41504 -7.66992 -1.62207 -20.9102 -1.91504l-14.8438 -0.329102v-184.746v-184.746l42.9688 42.8467c26.0674 25.9941 44.3428 43.7363 46.4629 45.1094c1.92188 1.24316 5.4375 3.23535 7.8125 4.4248
c2.375 1.19141 6.05859 2.74902 8.18457 3.46387s6.48535 1.75684 9.6875 2.31738c4.16113 0.726562 7.78223 0.918945 12.6963 0.670898c4.23535 -0.211914 9.2041 -0.944336 12.9424 -1.90527c3.33691 -0.857422 8.53223 -2.76367 11.5449 -4.23535
c3.01172 -1.4707 7.63477 -4.30273 10.2744 -6.29004c2.6377 -1.98828 6.28027 -5.23242 8.09375 -7.21094c1.81348 -1.97754 4.80859 -5.90918 6.65625 -8.73535c1.84668 -2.82715 4.20605 -7.18652 5.24414 -9.6875c1.03711 -2.50195 2.48926 -6.93848 3.22754 -9.86035
c1.06738 -4.22266 1.3418 -7.1709 1.3418 -14.375s-0.274414 -10.1523 -1.3418 -14.375c-0.738281 -2.92188 -2.17676 -7.3252 -3.19727 -9.78516c-1.02051 -2.46094 -3.33203 -6.82031 -5.13867 -9.6875c-2.89355 -4.5957 -14.8184 -16.7666 -100.528 -102.603
c-55.3887 -55.4697 -99.2695 -98.9248 -101.949 -100.96c-2.58789 -1.9668 -7.16992 -4.7793 -10.1816 -6.25c-3.0127 -1.47168 -8.20801 -3.40234 -11.5449 -4.29102c-5.11035 -1.35938 -7.49805 -1.62402 -15.1299 -1.67578
c-6.7793 -0.0458984 -10.3223 0.229492 -14.0625 1.0957c-2.75 0.635742 -7.10938 2.02441 -9.6875 3.08594s-6.375 2.90527 -8.4375 4.09766c-2.0625 1.19336 -5.4375 3.51172 -7.5 5.15332s-47.3691 46.668 -100.683 100.059
c-85.4287 85.5527 -97.3223 97.6924 -100.216 102.288c-1.80664 2.86719 -4.11816 7.22656 -5.13867 9.6875c-1.02051 2.45996 -2.45898 6.86328 -3.19727 9.78516c-1.06738 4.22266 -1.3418 7.1709 -1.3418 14.375s0.274414 10.1523 1.3418 14.375
c0.738281 2.92188 2.19043 7.3584 3.22754 9.86035c1.03809 2.50098 3.48047 7.00098 5.43066 10c1.94922 2.99805 5.68848 7.56348 8.30957 10.1436c2.62109 2.58105 6.33789 5.73047 8.25977 6.99902s5.4375 3.28027 7.8125 4.46973
c2.375 1.19141 6.05859 2.74902 8.18457 3.46387s6.48535 1.75684 9.6875 2.31738c4.16113 0.726562 7.78223 0.918945 12.6963 0.670898c4.23535 -0.211914 9.2041 -0.944336 12.9424 -1.90527c3.33691 -0.857422 8.49707 -2.74609 11.4668 -4.19727
c2.96973 -1.4502 7.12988 -3.8916 9.24512 -5.42383s22.9004 -21.8076 46.1895 -45.0547l42.3438 -42.2686v184.754v184.755l-14.8438 0.329102c-13.2402 0.292969 -15.499 0.5 -20.9102 1.91504c-3.33594 0.87207 -8.43164 2.69434 -11.3242 4.0498
c-2.8916 1.35547 -6.91211 3.59863 -8.93359 4.98438c-2.02148 1.38672 -5.28125 3.96484 -7.24219 5.73047c-1.96191 1.76465 -5.26758 5.46582 -7.3457 8.22363c-2.0791 2.75879 -4.88867 7.31836 -6.24512 10.1309c-1.35547 2.81348 -3.25293 7.64648 -4.21582 10.7402
l-1.75195 5.625v94.0625v94.0625l1.4502 5.3125c0.797852 2.92188 2.51953 7.5957 3.82715 10.3867s3.58789 6.86914 5.06738 9.0625s4.67871 6.05371 7.11035 8.5791c2.43164 2.52441 6.70117 6.11035 9.48926 7.96875c2.78809 1.85742 6.87109 4.19434 9.07324 5.19336
c2.20215 0.998047 5.67285 2.2998 7.71191 2.89258s5.69043 1.43848 8.11426 1.87891c3.43652 0.624023 23.8809 0.8125 92.8896 0.856445zM500 612.5h-20.625v-20.9375v-20.9375h20.625h20.625v20.9375v20.9375h-20.625z" />
  </g>

</svg>
