<?xml version="1.0" standalone="no"?>
<!DOCTYPE svg PUBLIC "-//W3C//DTD SVG 1.1//EN" "http://www.w3.org/Graphics/SVG/1.1/DTD/svg11.dtd" >
<svg xmlns="http://www.w3.org/2000/svg" xmlns:xlink="http://www.w3.org/1999/xlink" version="1.1" viewBox="-10 0 1010 1000">
  <g transform="matrix(1 0 0 -1 0 800)">
   <path fill="currentColor"
d="M345.625 737.224c5.66602 -0.179688 9.47949 -0.679688 13.8799 -1.81836c3.33691 -0.863281 8.53223 -2.77441 11.5449 -4.24609c3.01172 -1.4707 7.63477 -4.30273 10.2744 -6.29004c2.6377 -1.98828 6.28027 -5.23242 8.09375 -7.21094
c1.81348 -1.97754 4.82422 -5.93359 6.69141 -8.79102c1.86719 -2.85645 4.31836 -7.49707 5.44922 -10.3125c1.12988 -2.81445 2.57715 -7.36719 3.2168 -10.1172c1.06836 -4.59668 1.16211 -8.20312 1.16211 -44.6875s-0.09375 -40.0908 -1.16211 -44.6875
c-0.639648 -2.75 -2.08691 -7.30273 -3.2168 -10.1172c-1.13086 -2.81543 -3.58203 -7.45605 -5.44922 -10.3125c-1.86719 -2.85742 -4.87793 -6.81348 -6.69141 -8.79102c-1.81348 -1.97852 -5.45605 -5.22266 -8.09375 -7.21094
c-2.63965 -1.9873 -7.2627 -4.81934 -10.2744 -6.29004c-3.0127 -1.47168 -8.20801 -3.37793 -11.5449 -4.23535c-3.73828 -0.960938 -8.70703 -1.69336 -12.9424 -1.90527c-4.91406 -0.248047 -8.53516 -0.0556641 -12.6963 0.670898
c-3.20215 0.560547 -7.56152 1.60254 -9.6875 2.31738s-5.80957 2.27246 -8.18457 3.46387c-2.375 1.18945 -5.89062 3.20117 -7.8125 4.46973s-5.63867 4.41797 -8.25977 6.99902c-2.62109 2.58008 -6.37695 7.16992 -8.3457 10.1992
c-1.96973 3.02832 -4.50391 7.80957 -5.63477 10.625c-1.12988 2.81445 -2.57715 7.36719 -3.2168 10.1172c-1.06836 4.59668 -1.16211 8.20312 -1.16211 44.6875s0.09375 40.0908 1.16211 44.6875c0.639648 2.75 2.08691 7.30273 3.2168 10.1172
c1.13086 2.81543 3.66504 7.59668 5.63477 10.625c1.96875 3.0293 5.72461 7.61914 8.3457 10.1992c2.62109 2.58105 6.33789 5.73047 8.25977 6.99902s5.4375 3.28027 7.8125 4.46973c2.375 1.19141 6.07324 2.75488 8.21875 3.47559
c2.14453 0.720703 6.08203 1.72461 8.75 2.22949c3.25293 0.617188 7.4209 0.837891 12.6621 0.670898zM658.125 737.224c5.66602 -0.179688 9.47949 -0.679688 13.8799 -1.81836c3.33691 -0.863281 8.53223 -2.77441 11.5449 -4.24609
c3.01172 -1.4707 7.63477 -4.30273 10.2744 -6.29004c2.6377 -1.98828 6.28027 -5.23242 8.09375 -7.21094c1.81348 -1.97754 4.82422 -5.93359 6.69141 -8.79102c1.86719 -2.85645 4.31836 -7.49707 5.44922 -10.3125c1.12988 -2.81445 2.57715 -7.36719 3.2168 -10.1172
c1.06836 -4.59668 1.16211 -8.20312 1.16211 -44.6875s-0.09375 -40.0908 -1.16211 -44.6875c-0.639648 -2.75 -2.08691 -7.30273 -3.2168 -10.1172c-1.13086 -2.81543 -3.58203 -7.45605 -5.44922 -10.3125c-1.86719 -2.85742 -4.87793 -6.81348 -6.69141 -8.79102
c-1.81348 -1.97852 -5.45605 -5.22266 -8.09375 -7.21094c-2.63965 -1.9873 -7.2627 -4.81934 -10.2744 -6.29004c-3.0127 -1.47168 -8.20801 -3.37793 -11.5449 -4.23535c-3.73828 -0.960938 -8.70703 -1.69336 -12.9424 -1.90527
c-4.91406 -0.248047 -8.53516 -0.0556641 -12.6963 0.670898c-3.20215 0.560547 -7.56152 1.60254 -9.6875 2.31738s-5.80957 2.27246 -8.18457 3.46387c-2.375 1.18945 -5.89062 3.20117 -7.8125 4.46973s-5.63867 4.41797 -8.25977 6.99902
c-2.62109 2.58008 -6.37695 7.16992 -8.3457 10.1992c-1.96973 3.02832 -4.50391 7.80957 -5.63477 10.625c-1.12988 2.81445 -2.57715 7.36719 -3.2168 10.1172c-1.06836 4.59668 -1.16211 8.20312 -1.16211 44.6875s0.09375 40.0908 1.16211 44.6875
c0.639648 2.75 2.08691 7.30273 3.2168 10.1172c1.13086 2.81543 3.66504 7.59668 5.63477 10.625c1.96875 3.0293 5.72461 7.61914 8.3457 10.1992c2.62109 2.58105 6.33789 5.73047 8.25977 6.99902s5.4375 3.28027 7.8125 4.46973
c2.375 1.19141 6.07324 2.75488 8.21875 3.47559c2.14453 0.720703 6.08203 1.72461 8.75 2.22949c3.25293 0.617188 7.4209 0.837891 12.6621 0.670898zM158.125 518.534l39.0625 -0.133789l6.06738 -1.65723c3.33691 -0.912109 8.53223 -2.8623 11.5449 -4.33398
c3.01172 -1.4707 7.63477 -4.30273 10.2744 -6.29004c2.6377 -1.98828 6.28027 -5.23242 8.09375 -7.21094c1.81348 -1.97754 4.80859 -5.90918 6.65625 -8.73535c1.84668 -2.82715 4.20605 -7.18652 5.24414 -9.6875c1.03711 -2.50195 2.48926 -6.93848 3.22754 -9.86035
c1.06738 -4.22266 1.3418 -7.1709 1.3418 -14.375s-0.274414 -10.1523 -1.3418 -14.375c-0.738281 -2.92188 -2.19043 -7.3584 -3.22754 -9.86035c-1.03809 -2.50098 -3.39746 -6.86035 -5.24414 -9.6875c-1.84766 -2.82617 -4.84277 -6.75781 -6.65625 -8.73535
c-1.81348 -1.97852 -5.45605 -5.22266 -8.09375 -7.21094c-2.63965 -1.9873 -7.2627 -4.81934 -10.2744 -6.29004c-3.0127 -1.47168 -8.20801 -3.42188 -11.5449 -4.33301l-6.06738 -1.65625l-38.2939 -0.207031c-32.5381 -0.175781 -39.1426 -0.0605469 -43.9463 0.768555
c-3.1084 0.537109 -7.39258 1.56055 -9.51855 2.27539s-5.80957 2.27246 -8.18457 3.46387c-2.375 1.18945 -5.89062 3.20117 -7.8125 4.46973s-5.63867 4.41797 -8.25977 6.99902c-2.62109 2.58008 -6.36035 7.14551 -8.30957 10.1436
c-1.9502 2.99902 -4.39258 7.49902 -5.43066 10c-1.03711 2.50195 -2.48926 6.93848 -3.22754 9.86035c-1.06738 4.22266 -1.3418 7.1709 -1.3418 14.375s0.274414 10.1523 1.3418 14.375c0.738281 2.92188 2.19043 7.3584 3.22754 9.86035
c1.03809 2.50098 3.48047 7.00098 5.43066 10c1.94922 2.99805 5.68848 7.56348 8.30957 10.1436c2.62109 2.58105 6.33789 5.73047 8.25977 6.99902s5.4375 3.28027 7.8125 4.46973c2.375 1.19141 6.07324 2.75488 8.21875 3.47559
c2.14453 0.720703 6.08203 1.71191 8.75 2.20312c3.92383 0.72168 12.3105 0.866211 43.9121 0.757812zM501.875 518.542l164.062 -0.104492l6.06738 -1.67578c3.33691 -0.921875 8.53223 -2.88086 11.5449 -4.35254c3.01172 -1.4707 7.63477 -4.30273 10.2744 -6.29004
c2.6377 -1.98828 6.28027 -5.23242 8.09375 -7.21094c1.81348 -1.97754 4.82422 -5.93359 6.69141 -8.79102c1.86719 -2.85645 4.31836 -7.49707 5.44922 -10.3125c1.12988 -2.81445 2.57715 -7.36719 3.2168 -10.1172c1.11719 -4.80762 1.16211 -11.3359 1.16211 -169.688
c0 -158.352 -0.0449219 -164.88 -1.16211 -169.688c-0.639648 -2.75 -2.08691 -7.30273 -3.2168 -10.1172c-1.13086 -2.81543 -3.58203 -7.45605 -5.44922 -10.3125c-1.86719 -2.85742 -4.87793 -6.81348 -6.69141 -8.79102
c-1.81348 -1.97852 -5.45605 -5.22266 -8.09375 -7.21094c-2.63965 -1.9873 -7.2627 -4.81934 -10.2744 -6.29004c-3.0127 -1.47168 -8.20801 -3.43066 -11.5449 -4.35254l-6.06738 -1.67578l-163.427 -0.164062c-144.083 -0.145508 -164.08 -0.0517578 -168.945 0.788086
c-3.03613 0.523438 -7.25977 1.53711 -9.38574 2.25195s-5.80957 2.27246 -8.18457 3.46387c-2.375 1.18945 -5.89062 3.20117 -7.8125 4.46973s-5.63867 4.41797 -8.25977 6.99902c-2.62109 2.58008 -6.37695 7.16992 -8.3457 10.1992
c-1.96973 3.02832 -4.50391 7.80957 -5.63477 10.625c-1.12988 2.81445 -2.57715 7.36719 -3.2168 10.1172c-1.11719 4.80762 -1.16211 11.3359 -1.16211 169.688c0 158.353 0.0449219 164.881 1.16211 169.688c0.639648 2.75 2.08691 7.30273 3.2168 10.1172
c1.13086 2.81543 3.66504 7.59668 5.63477 10.625c1.96875 3.0293 5.72461 7.61914 8.3457 10.1992c2.62109 2.58105 6.33789 5.73047 8.25977 6.99902s5.4375 3.28027 7.8125 4.46973c2.375 1.19141 6.07324 2.75488 8.21875 3.47559
c2.14453 0.720703 6.08203 1.70703 8.75 2.19141c4.10254 0.745117 30.1387 0.865234 168.911 0.777344h0.000976562zM845.625 518.534l39.0625 -0.133789l6.06738 -1.65723c3.33691 -0.912109 8.53223 -2.8623 11.5449 -4.33398
c3.01172 -1.4707 7.63477 -4.30273 10.2744 -6.29004c2.6377 -1.98828 6.28027 -5.23242 8.09375 -7.21094c1.81348 -1.97754 4.80859 -5.90918 6.65625 -8.73535c1.84668 -2.82715 4.20605 -7.18652 5.24414 -9.6875c1.03711 -2.50195 2.48926 -6.93848 3.22754 -9.86035
c1.06738 -4.22266 1.3418 -7.1709 1.3418 -14.375s-0.274414 -10.1523 -1.3418 -14.375c-0.738281 -2.92188 -2.19043 -7.3584 -3.22754 -9.86035c-1.03809 -2.50098 -3.39746 -6.86035 -5.24414 -9.6875c-1.84766 -2.82617 -4.84277 -6.75781 -6.65625 -8.73535
c-1.81348 -1.97852 -5.45605 -5.22266 -8.09375 -7.21094c-2.63965 -1.9873 -7.2627 -4.81934 -10.2744 -6.29004c-3.0127 -1.47168 -8.20801 -3.42188 -11.5449 -4.33301l-6.06738 -1.65625l-38.2939 -0.207031c-32.5381 -0.175781 -39.1426 -0.0605469 -43.9463 0.768555
c-3.1084 0.537109 -7.39258 1.56055 -9.51855 2.27539s-5.80957 2.27246 -8.18457 3.46387c-2.375 1.18945 -5.89062 3.20117 -7.8125 4.46973s-5.63867 4.41797 -8.25977 6.99902c-2.62109 2.58008 -6.36035 7.14551 -8.30957 10.1436
c-1.9502 2.99902 -4.39258 7.49902 -5.43066 10c-1.03711 2.50195 -2.48926 6.93848 -3.22754 9.86035c-1.06738 4.22266 -1.3418 7.1709 -1.3418 14.375s0.274414 10.1523 1.3418 14.375c0.738281 2.92188 2.19043 7.3584 3.22754 9.86035
c1.03809 2.50098 3.48047 7.00098 5.43066 10c1.94922 2.99805 5.68848 7.56348 8.30957 10.1436c2.62109 2.58105 6.33789 5.73047 8.25977 6.99902s5.4375 3.28027 7.8125 4.46973c2.375 1.19141 6.07324 2.75488 8.21875 3.47559
c2.14453 0.720703 6.08203 1.71191 8.75 2.20312c3.92383 0.72168 12.3105 0.866211 43.9121 0.757812zM500 393.75h-93.75v-93.75v-93.75h93.75h93.75v93.75v93.75h-93.75zM158.125 206.034l39.0625 -0.133789l6.06738 -1.65723
c3.33691 -0.912109 8.53223 -2.8623 11.5449 -4.33398c3.01172 -1.4707 7.63477 -4.30273 10.2744 -6.29004c2.6377 -1.98828 6.28027 -5.23242 8.09375 -7.21094c1.81348 -1.97754 4.80859 -5.90918 6.65625 -8.73535c1.84668 -2.82715 4.20605 -7.18652 5.24414 -9.6875
c1.03711 -2.50195 2.48926 -6.93848 3.22754 -9.86035c1.06738 -4.22266 1.3418 -7.1709 1.3418 -14.375s-0.274414 -10.1523 -1.3418 -14.375c-0.738281 -2.92188 -2.19043 -7.3584 -3.22754 -9.86035c-1.03809 -2.50098 -3.39746 -6.86035 -5.24414 -9.6875
c-1.84766 -2.82617 -4.84277 -6.75781 -6.65625 -8.73535c-1.81348 -1.97852 -5.45605 -5.22266 -8.09375 -7.21094c-2.63965 -1.9873 -7.2627 -4.81934 -10.2744 -6.29004c-3.0127 -1.47168 -8.20801 -3.42188 -11.5449 -4.33301l-6.06738 -1.65625l-38.2939 -0.207031
c-32.5381 -0.175781 -39.1426 -0.0605469 -43.9463 0.768555c-3.1084 0.537109 -7.39258 1.56055 -9.51855 2.27539s-5.80957 2.27246 -8.18457 3.46387c-2.375 1.18945 -5.89062 3.20117 -7.8125 4.46973s-5.63867 4.41797 -8.25977 6.99902
c-2.62109 2.58008 -6.36035 7.14551 -8.30957 10.1436c-1.9502 2.99902 -4.39258 7.49902 -5.43066 10c-1.03711 2.50195 -2.48926 6.93848 -3.22754 9.86035c-1.06738 4.22266 -1.3418 7.1709 -1.3418 14.375s0.274414 10.1523 1.3418 14.375
c0.738281 2.92188 2.19043 7.3584 3.22754 9.86035c1.03809 2.50098 3.48047 7.00098 5.43066 10c1.94922 2.99805 5.68848 7.56348 8.30957 10.1436c2.62109 2.58105 6.33789 5.73047 8.25977 6.99902s5.4375 3.28027 7.8125 4.46973
c2.375 1.19141 6.07324 2.75488 8.21875 3.47559c2.14453 0.720703 6.08203 1.71191 8.75 2.20312c3.92383 0.72168 12.3105 0.866211 43.9121 0.757812zM845.625 206.034l39.0625 -0.133789l6.06738 -1.65723c3.33691 -0.912109 8.53223 -2.8623 11.5449 -4.33398
c3.01172 -1.4707 7.63477 -4.30273 10.2744 -6.29004c2.6377 -1.98828 6.28027 -5.23242 8.09375 -7.21094c1.81348 -1.97754 4.80859 -5.90918 6.65625 -8.73535c1.84668 -2.82715 4.20605 -7.18652 5.24414 -9.6875c1.03711 -2.50195 2.48926 -6.93848 3.22754 -9.86035
c1.06738 -4.22266 1.3418 -7.1709 1.3418 -14.375s-0.274414 -10.1523 -1.3418 -14.375c-0.738281 -2.92188 -2.19043 -7.3584 -3.22754 -9.86035c-1.03809 -2.50098 -3.39746 -6.86035 -5.24414 -9.6875c-1.84766 -2.82617 -4.84277 -6.75781 -6.65625 -8.73535
c-1.81348 -1.97852 -5.45605 -5.22266 -8.09375 -7.21094c-2.63965 -1.9873 -7.2627 -4.81934 -10.2744 -6.29004c-3.0127 -1.47168 -8.20801 -3.42188 -11.5449 -4.33301l-6.06738 -1.65625l-38.2939 -0.207031c-32.5381 -0.175781 -39.1426 -0.0605469 -43.9463 0.768555
c-3.1084 0.537109 -7.39258 1.56055 -9.51855 2.27539s-5.80957 2.27246 -8.18457 3.46387c-2.375 1.18945 -5.89062 3.20117 -7.8125 4.46973s-5.63867 4.41797 -8.25977 6.99902c-2.62109 2.58008 -6.36035 7.14551 -8.30957 10.1436
c-1.9502 2.99902 -4.39258 7.49902 -5.43066 10c-1.03711 2.50195 -2.48926 6.93848 -3.22754 9.86035c-1.06738 4.22266 -1.3418 7.1709 -1.3418 14.375s0.274414 10.1523 1.3418 14.375c0.738281 2.92188 2.19043 7.3584 3.22754 9.86035
c1.03809 2.50098 3.48047 7.00098 5.43066 10c1.94922 2.99805 5.68848 7.56348 8.30957 10.1436c2.62109 2.58105 6.33789 5.73047 8.25977 6.99902s5.4375 3.28027 7.8125 4.46973c2.375 1.19141 6.07324 2.75488 8.21875 3.47559
c2.14453 0.720703 6.08203 1.71191 8.75 2.20312c3.92383 0.72168 12.3105 0.866211 43.9121 0.757812zM345.625 49.7236c5.66602 -0.179688 9.47949 -0.679688 13.8799 -1.81836c3.33691 -0.863281 8.53223 -2.77441 11.5449 -4.24609
c3.01172 -1.4707 7.63477 -4.30273 10.2744 -6.29004c2.6377 -1.98828 6.28027 -5.23242 8.09375 -7.21094c1.81348 -1.97754 4.82422 -5.93359 6.69141 -8.79102c1.86719 -2.85645 4.31836 -7.49707 5.44922 -10.3125c1.12988 -2.81445 2.57715 -7.36719 3.2168 -10.1172
c1.06836 -4.59668 1.16211 -8.20312 1.16211 -44.6875s-0.09375 -40.0908 -1.16211 -44.6875c-0.639648 -2.75 -2.08691 -7.30273 -3.2168 -10.1172c-1.13086 -2.81543 -3.58203 -7.45605 -5.44922 -10.3125c-1.86719 -2.85742 -4.87793 -6.81348 -6.69141 -8.79102
c-1.81348 -1.97852 -5.45605 -5.22266 -8.09375 -7.21094c-2.63965 -1.9873 -7.2627 -4.81934 -10.2744 -6.29004c-3.0127 -1.47168 -8.20801 -3.37793 -11.5449 -4.23535c-3.73828 -0.960938 -8.70703 -1.69336 -12.9424 -1.90527
c-4.91406 -0.248047 -8.53516 -0.0556641 -12.6963 0.670898c-3.20215 0.560547 -7.56152 1.60254 -9.6875 2.31738s-5.80957 2.27246 -8.18457 3.46387c-2.375 1.18945 -5.89062 3.20117 -7.8125 4.46973s-5.63867 4.41797 -8.25977 6.99902
c-2.62109 2.58008 -6.37695 7.16992 -8.3457 10.1992c-1.96973 3.02832 -4.50391 7.80957 -5.63477 10.625c-1.12988 2.81445 -2.57715 7.36719 -3.2168 10.1172c-1.06836 4.59668 -1.16211 8.20312 -1.16211 44.6875s0.09375 40.0908 1.16211 44.6875
c0.639648 2.75 2.08691 7.30273 3.2168 10.1172c1.13086 2.81543 3.66504 7.59668 5.63477 10.625c1.96875 3.0293 5.72461 7.61914 8.3457 10.1992c2.62109 2.58105 6.33789 5.73047 8.25977 6.99902s5.4375 3.28027 7.8125 4.46973
c2.375 1.19141 6.07324 2.75488 8.21875 3.47559c2.14453 0.720703 6.08203 1.72461 8.75 2.22949c3.25293 0.617188 7.4209 0.837891 12.6621 0.670898zM658.125 49.7236c5.66602 -0.179688 9.47949 -0.679688 13.8799 -1.81836
c3.33691 -0.863281 8.53223 -2.77441 11.5449 -4.24609c3.01172 -1.4707 7.63477 -4.30273 10.2744 -6.29004c2.6377 -1.98828 6.28027 -5.23242 8.09375 -7.21094c1.81348 -1.97754 4.82422 -5.93359 6.69141 -8.79102c1.86719 -2.85645 4.31836 -7.49707 5.44922 -10.3125
c1.12988 -2.81445 2.57715 -7.36719 3.2168 -10.1172c1.06836 -4.59668 1.16211 -8.20312 1.16211 -44.6875s-0.09375 -40.0908 -1.16211 -44.6875c-0.639648 -2.75 -2.08691 -7.30273 -3.2168 -10.1172c-1.13086 -2.81543 -3.58203 -7.45605 -5.44922 -10.3125
c-1.86719 -2.85742 -4.87793 -6.81348 -6.69141 -8.79102c-1.81348 -1.97852 -5.45605 -5.22266 -8.09375 -7.21094c-2.63965 -1.9873 -7.2627 -4.81934 -10.2744 -6.29004c-3.0127 -1.47168 -8.20801 -3.37793 -11.5449 -4.23535
c-3.73828 -0.960938 -8.70703 -1.69336 -12.9424 -1.90527c-4.91406 -0.248047 -8.53516 -0.0556641 -12.6963 0.670898c-3.20215 0.560547 -7.56152 1.60254 -9.6875 2.31738s-5.80957 2.27246 -8.18457 3.46387c-2.375 1.18945 -5.89062 3.20117 -7.8125 4.46973
s-5.63867 4.41797 -8.25977 6.99902c-2.62109 2.58008 -6.37695 7.16992 -8.3457 10.1992c-1.96973 3.02832 -4.50391 7.80957 -5.63477 10.625c-1.12988 2.81445 -2.57715 7.36719 -3.2168 10.1172c-1.06836 4.59668 -1.16211 8.20312 -1.16211 44.6875
s0.09375 40.0908 1.16211 44.6875c0.639648 2.75 2.08691 7.30273 3.2168 10.1172c1.13086 2.81543 3.66504 7.59668 5.63477 10.625c1.96875 3.0293 5.72461 7.61914 8.3457 10.1992c2.62109 2.58105 6.33789 5.73047 8.25977 6.99902s5.4375 3.28027 7.8125 4.46973
c2.375 1.19141 6.07324 2.75488 8.21875 3.47559c2.14453 0.720703 6.08203 1.72461 8.75 2.22949c3.25293 0.617188 7.4209 0.837891 12.6621 0.670898z" />
  </g>

</svg>
