<?xml version="1.0" standalone="no"?>
<!DOCTYPE svg PUBLIC "-//W3C//DTD SVG 1.1//EN" "http://www.w3.org/Graphics/SVG/1.1/DTD/svg11.dtd" >
<svg xmlns="http://www.w3.org/2000/svg" xmlns:xlink="http://www.w3.org/1999/xlink" version="1.1" viewBox="-10 0 1010 1000">
  <g transform="matrix(1 0 0 -1 0 800)">
   <path fill="currentColor"
d="M501.875 674.789l382.812 -0.101562l6.06738 -1.67578c3.33691 -0.921875 8.53223 -2.88086 11.5449 -4.35254c3.01172 -1.4707 7.63477 -4.30273 10.2744 -6.29004c2.6377 -1.98828 6.28027 -5.23242 8.09375 -7.21094
c1.81348 -1.97754 4.82422 -5.93359 6.69141 -8.79102c1.86719 -2.85645 4.31836 -7.49707 5.44922 -10.3125c1.12988 -2.81445 2.57715 -7.36719 3.2168 -10.1172c1.125 -4.83984 1.16211 -15.2529 1.16211 -325.938c0 -310.685 -0.0371094 -321.098 -1.16211 -325.938
c-0.639648 -2.75 -2.08691 -7.30273 -3.2168 -10.1172c-1.13086 -2.81543 -3.58203 -7.45605 -5.44922 -10.3125c-1.86719 -2.85742 -4.87793 -6.81348 -6.69141 -8.79102c-1.81348 -1.97852 -5.45605 -5.22266 -8.09375 -7.21094
c-2.63965 -1.9873 -7.2627 -4.81934 -10.2744 -6.29004c-3.0127 -1.47168 -8.20801 -3.43066 -11.5449 -4.35254l-6.06738 -1.67578l-382.188 -0.161133c-339.481 -0.143555 -382.803 -0.0546875 -387.696 0.788086c-3.03027 0.522461 -7.24902 1.53418 -9.375 2.24902
s-5.80957 2.27246 -8.18457 3.46387c-2.375 1.18945 -5.89062 3.20117 -7.8125 4.46973s-5.63867 4.41797 -8.25977 6.99902c-2.62109 2.58008 -6.37695 7.16992 -8.3457 10.1992c-1.96973 3.02832 -4.50391 7.80957 -5.63477 10.625
c-1.12988 2.81445 -2.57715 7.36719 -3.2168 10.1172c-1.125 4.83984 -1.16211 15.2529 -1.16211 325.938c0 310.686 0.0371094 321.099 1.16211 325.938c0.639648 2.75 2.08691 7.30273 3.2168 10.1172c1.13086 2.81543 3.66504 7.59668 5.63477 10.625
c1.96875 3.0293 5.72461 7.61914 8.3457 10.1992c2.62109 2.58105 6.33789 5.73047 8.25977 6.99902s5.4375 3.28027 7.8125 4.46973c2.375 1.19141 6.07324 2.75488 8.21875 3.47559c2.14453 0.720703 6.08203 1.70605 8.75 2.18945
c4.13574 0.749023 61.1729 0.863281 387.662 0.776367h0.000976562zM500 550h-312.5v-250v-250h312.5h312.5v250v250h-312.5zM347.924 518.693c48.9736 0.0380859 74.1934 -0.163086 77.4736 -0.619141c2.6748 -0.37207 7.125 -1.39062 9.88965 -2.2627
c2.76367 -0.871094 7.13477 -2.64551 9.71289 -3.94238s6.46777 -3.66992 8.64258 -5.27246c2.17578 -1.60449 5.72461 -4.72949 7.88672 -6.94531c2.16211 -2.2168 5.25293 -6 6.86914 -8.4082c1.61523 -2.40723 3.87305 -6.41504 5.0166 -8.9043
s2.66406 -6.63574 3.37891 -9.21387s1.60254 -7.42969 1.97461 -10.7812c0.483398 -4.36426 0.483398 -7.82324 0 -12.1875c-0.37207 -3.35156 -1.25977 -8.20312 -1.97461 -10.7812s-2.23535 -6.72461 -3.37891 -9.21387s-3.40137 -6.49707 -5.0166 -8.9043
c-1.61621 -2.4082 -4.70703 -6.19141 -6.86914 -8.4082c-2.16211 -2.21582 -5.71094 -5.34082 -7.88672 -6.94531c-2.1748 -1.60254 -6.06445 -3.97559 -8.64258 -5.27246s-6.94922 -3.07129 -9.71289 -3.94238c-2.76465 -0.87207 -7.21484 -1.89062 -9.88965 -2.2627
c-3.05566 -0.424805 -19.1182 -0.675781 -43.2227 -0.675781h-38.3594l-0.224609 -36.0938c-0.213867 -34.4717 -0.28418 -36.3184 -1.55664 -41.0938c-0.733398 -2.75 -2.18066 -7.0459 -3.21777 -9.54785c-1.03613 -2.50098 -3.39551 -6.86035 -5.24219 -9.6875
c-1.84766 -2.82617 -4.84277 -6.75781 -6.65625 -8.73535c-1.81348 -1.97852 -5.45605 -5.22266 -8.09375 -7.21094c-2.63965 -1.9873 -7.2627 -4.81934 -10.2744 -6.29004c-3.0127 -1.47168 -8.20801 -3.37793 -11.5449 -4.23535
c-3.73828 -0.960938 -8.70703 -1.69336 -12.9424 -1.90527c-4.91406 -0.248047 -8.53516 -0.0556641 -12.6963 0.670898c-3.20215 0.560547 -7.56152 1.60254 -9.6875 2.31738s-5.80957 2.27246 -8.18457 3.46387c-2.375 1.18945 -5.89062 3.20117 -7.8125 4.46973
s-5.63867 4.41797 -8.25977 6.99902c-2.62109 2.58008 -6.37695 7.16992 -8.3457 10.1992c-1.96973 3.02832 -4.50391 7.80957 -5.63477 10.625c-1.12988 2.81445 -2.57715 7.36719 -3.2168 10.1172c-1.09668 4.71875 -1.16211 8.98633 -1.16211 75.9375
s0.0654297 71.2188 1.16211 75.9375c0.639648 2.75 2.08691 7.30273 3.2168 10.1172c1.13086 2.81543 3.66504 7.59668 5.63477 10.625c1.96875 3.0293 5.72461 7.61914 8.3457 10.1992c2.62109 2.58105 6.33789 5.73047 8.25977 6.99902s5.4375 3.28027 7.8125 4.46973
c2.375 1.19141 6.07324 2.75488 8.21875 3.47559c2.14453 0.720703 6.08203 1.70508 8.75 2.1875c3.96777 0.717773 18.0557 0.887695 77.4609 0.932617zM720.625 330.974c5.66602 -0.179688 9.47949 -0.679688 13.8799 -1.81836
c3.33691 -0.863281 8.53223 -2.77441 11.5449 -4.24609c3.01172 -1.4707 7.63477 -4.30273 10.2744 -6.29004c2.6377 -1.98828 6.28027 -5.23242 8.09375 -7.21094c1.81348 -1.97754 4.82422 -5.93359 6.69141 -8.79102c1.86719 -2.85645 4.31836 -7.49707 5.44922 -10.3125
c1.12988 -2.81445 2.57715 -7.36719 3.2168 -10.1172c1.09668 -4.71875 1.16211 -8.98633 1.16211 -75.9375s-0.0654297 -71.2188 -1.16211 -75.9375c-0.639648 -2.75 -2.08691 -7.30273 -3.2168 -10.1172c-1.13086 -2.81543 -3.58203 -7.45605 -5.44922 -10.3125
c-1.86719 -2.85742 -4.87793 -6.81348 -6.69141 -8.79102c-1.81348 -1.97852 -5.45605 -5.22266 -8.09375 -7.21094c-2.63965 -1.9873 -7.2627 -4.81934 -10.2744 -6.29004c-3.0127 -1.47168 -8.20801 -3.42871 -11.5449 -4.34668l-6.06738 -1.67188l-69.6182 -0.178711
c-60.4219 -0.15625 -70.3545 -0.0527344 -75.1963 0.782227c-3.06836 0.530273 -7.31836 1.54785 -9.44434 2.2627s-5.80957 2.27246 -8.18457 3.46387c-2.375 1.18945 -5.89062 3.20117 -7.8125 4.46973s-5.63867 4.41797 -8.25977 6.99902
c-2.62109 2.58008 -6.36035 7.14551 -8.30957 10.1436c-1.9502 2.99902 -4.39258 7.49902 -5.43066 10c-1.03711 2.50195 -2.48926 6.93848 -3.22754 9.86035c-1.06738 4.22266 -1.3418 7.1709 -1.3418 14.375s0.274414 10.1523 1.3418 14.375
c0.738281 2.92188 2.19043 7.3584 3.22754 9.86035c1.03809 2.50098 3.48047 7.00098 5.43066 10c1.94922 2.99805 5.68848 7.56348 8.30957 10.1436c2.62109 2.58105 6.33789 5.73047 8.25977 6.99902s5.4375 3.28027 7.8125 4.46973
c2.375 1.19141 6.04883 2.74609 8.16406 3.45703s6.30078 1.7207 9.30078 2.24414c4.42871 0.772461 11.7812 0.951172 39.0908 0.951172h33.6348l0.224609 36.0938c0.213867 34.4717 0.28418 36.3184 1.55664 41.0938c0.733398 2.75 2.18066 7.0459 3.21777 9.54785
c1.03613 2.50098 3.47852 7.00098 5.42871 10c1.94922 2.99805 5.68848 7.56348 8.30957 10.1436c2.62109 2.58105 6.33789 5.73047 8.25977 6.99902s5.4375 3.28027 7.8125 4.46973c2.375 1.19141 6.07324 2.75488 8.21875 3.47559
c2.14453 0.720703 6.08203 1.72461 8.75 2.22949c3.25293 0.617188 7.4209 0.837891 12.6621 0.670898z" />
  </g>

</svg>
