<?xml version="1.0" standalone="no"?>
<!DOCTYPE svg PUBLIC "-//W3C//DTD SVG 1.1//EN" "http://www.w3.org/Graphics/SVG/1.1/DTD/svg11.dtd" >
<svg xmlns="http://www.w3.org/2000/svg" xmlns:xlink="http://www.w3.org/1999/xlink" version="1.1" viewBox="-10 0 1010 1000">
  <g transform="matrix(1 0 0 -1 0 800)">
   <path fill="currentColor"
d="M501.875 737.224c5.66602 -0.179688 9.47949 -0.679688 13.8799 -1.81836c3.33691 -0.863281 8.53223 -2.77441 11.5449 -4.24609c3.01172 -1.4707 7.63477 -4.30273 10.2744 -6.29004c2.6377 -1.98828 6.28027 -5.23242 8.09375 -7.21094
c1.81348 -1.97754 4.80859 -5.90918 6.65625 -8.73535c1.84668 -2.82715 4.20605 -7.18652 5.24219 -9.6875c1.03711 -2.50195 2.49609 -6.79785 3.24219 -9.54785l1.35742 -5l0.323242 -137.03l0.323242 -137.031l108.438 65.0752
c59.6396 35.792 110.547 66.1426 113.125 67.4453c2.57812 1.30371 6.42773 2.9541 8.55371 3.66797s6.48535 1.75488 9.6875 2.31543c4.16113 0.726562 7.78223 0.918945 12.6963 0.670898c4.23535 -0.211914 9.2041 -0.944336 12.9424 -1.90527
c3.33691 -0.857422 8.53223 -2.76367 11.5449 -4.23535c3.01172 -1.4707 7.63477 -4.30273 10.2744 -6.29004c2.6377 -1.98828 6.28027 -5.23242 8.09375 -7.21094c1.81348 -1.97754 4.80859 -5.90918 6.65625 -8.73535c1.84668 -2.82715 4.20605 -7.18652 5.24414 -9.6875
c1.03711 -2.50195 2.48926 -6.93848 3.22754 -9.86035c1.06738 -4.22266 1.3418 -7.1709 1.3418 -14.375s-0.274414 -10.1523 -1.3418 -14.375c-0.738281 -2.92188 -2.19043 -7.3584 -3.22754 -9.86035c-1.03809 -2.50098 -3.4043 -6.86035 -5.26074 -9.6875
c-1.85742 -2.82617 -4.61133 -6.52734 -6.12109 -8.22363c-1.51074 -1.69629 -4.72461 -4.64941 -7.14258 -6.5625c-2.41895 -1.91309 -55.0752 -33.8535 -117.013 -70.9785s-112.614 -67.6406 -112.614 -67.8125s50.6758 -30.6875 112.614 -67.8125
s114.595 -69.0654 117.013 -70.9785s5.63184 -4.86621 7.14258 -6.5625c1.50977 -1.69629 4.26367 -5.39746 6.12109 -8.22363c1.85645 -2.82715 4.22266 -7.18652 5.26074 -9.6875c1.03711 -2.50195 2.48926 -6.93848 3.22754 -9.86035
c1.06738 -4.22266 1.3418 -7.1709 1.3418 -14.375s-0.274414 -10.1523 -1.3418 -14.375c-0.738281 -2.92188 -2.19043 -7.3584 -3.22754 -9.86035c-1.03809 -2.50098 -3.39746 -6.86035 -5.24414 -9.6875c-1.84766 -2.82617 -4.84277 -6.75781 -6.65625 -8.73535
c-1.81348 -1.97852 -5.45605 -5.22266 -8.09375 -7.21094c-2.63965 -1.9873 -7.2627 -4.81934 -10.2744 -6.29004c-3.0127 -1.47168 -8.20801 -3.37793 -11.5449 -4.23535c-3.73828 -0.960938 -8.70703 -1.69336 -12.9424 -1.90527
c-4.91406 -0.248047 -8.53516 -0.0556641 -12.6963 0.670898c-3.20215 0.560547 -7.56152 1.60156 -9.6875 2.31543s-5.97559 2.36426 -8.55371 3.66797c-2.57812 1.30273 -53.4854 31.6533 -113.125 67.4453l-108.438 65.0752l-0.323242 -137.031l-0.323242 -137.031
l-1.35742 -5c-0.746094 -2.75 -2.20508 -7.0459 -3.24219 -9.54785c-1.03613 -2.50098 -3.39551 -6.86035 -5.24219 -9.6875c-1.84766 -2.82617 -4.84277 -6.75781 -6.65625 -8.73535c-1.81348 -1.97852 -5.45605 -5.22266 -8.09375 -7.21094
c-2.63965 -1.9873 -7.2627 -4.81934 -10.2744 -6.29004c-3.0127 -1.47168 -8.20801 -3.37793 -11.5449 -4.23535c-3.73828 -0.960938 -8.70703 -1.69336 -12.9424 -1.90527c-4.91406 -0.248047 -8.53516 -0.0556641 -12.6963 0.670898
c-3.20215 0.560547 -7.56152 1.60254 -9.6875 2.31738s-5.80957 2.27246 -8.18457 3.46387c-2.375 1.18945 -5.89062 3.20117 -7.8125 4.46973s-5.63867 4.41797 -8.25977 6.99902c-2.62109 2.58008 -6.36035 7.14551 -8.30957 10.1436
c-1.9502 2.99902 -4.39258 7.49902 -5.42871 10c-1.03711 2.50195 -2.49609 6.79785 -3.24219 9.54785l-1.35742 5l-0.323242 137.029l-0.323242 137.029l-110 -66.0146c-60.499 -36.3076 -111.827 -66.8506 -114.062 -67.8711
c-2.23438 -1.02148 -6.73438 -2.55078 -10 -3.39844c-3.66113 -0.950195 -8.57324 -1.67383 -12.8125 -1.88672c-4.91406 -0.248047 -8.53516 -0.0556641 -12.6963 0.670898c-3.20215 0.560547 -7.56152 1.60254 -9.6875 2.31738s-5.80957 2.27246 -8.18457 3.46387
c-2.375 1.18945 -5.89062 3.20117 -7.8125 4.46973s-5.63965 4.41797 -8.25977 6.99902c-2.62109 2.58008 -6.36035 7.14551 -8.30957 10.1436c-1.9502 2.99902 -4.39258 7.49902 -5.43066 10c-1.03711 2.50195 -2.48926 6.93848 -3.22754 9.86035
c-1.06738 4.22266 -1.3418 7.1709 -1.3418 14.375s0.274414 10.1523 1.3418 14.375c0.738281 2.92188 2.19043 7.3584 3.22754 9.86035c1.03809 2.50098 3.4043 6.86035 5.26074 9.6875c1.85742 2.82617 4.61035 6.52734 6.12109 8.22363
c1.50977 1.69629 4.72559 4.64941 7.14551 6.5625c2.41895 1.91309 55.0742 33.8535 117.011 70.9785c61.9355 37.125 112.61 67.6406 112.61 67.8125s-50.6738 30.6875 -112.61 67.8125c-61.9375 37.125 -114.592 69.0654 -117.011 70.9785
c-2.41992 1.91309 -5.63574 4.86621 -7.14551 6.5625s-4.26367 5.39746 -6.12109 8.22363c-1.85645 2.82715 -4.22266 7.18652 -5.26074 9.6875c-1.03711 2.50195 -2.48926 6.93848 -3.22754 9.86035c-1.06738 4.22266 -1.3418 7.1709 -1.3418 14.375
s0.274414 10.1523 1.3418 14.375c0.738281 2.92188 2.19043 7.3584 3.22754 9.86035c1.03809 2.50098 3.47949 7.00098 5.43066 10c1.94922 2.99805 5.68848 7.56348 8.30957 10.1436c2.62109 2.58105 6.33789 5.73047 8.25977 6.99902s5.4375 3.28027 7.8125 4.46973
c2.375 1.19141 6.05859 2.74902 8.18457 3.46387s6.48535 1.75684 9.6875 2.31738c4.16113 0.726562 7.78223 0.918945 12.6963 0.670898c4.23926 -0.212891 9.15137 -0.936523 12.8125 -1.88672c3.26562 -0.847656 7.76562 -2.37695 10 -3.39844
c2.2334 -1.02051 53.5615 -31.5635 114.062 -67.8711l110 -66.0146l0.323242 137.029l0.323242 137.028l1.35742 5c0.746094 2.75 2.20508 7.0459 3.24219 9.54785c1.03613 2.50098 3.47852 7.00098 5.42871 10c1.94922 2.99805 5.68848 7.56348 8.30957 10.1436
c2.62109 2.58105 6.33789 5.73047 8.25977 6.99902s5.4375 3.28027 7.8125 4.46973c2.375 1.19141 6.07324 2.75488 8.21875 3.47559c2.14453 0.720703 6.08203 1.72461 8.75 2.22949c3.25293 0.617188 7.4209 0.837891 12.6621 0.670898z" />
  </g>

</svg>
