<?xml version="1.0" standalone="no"?>
<!DOCTYPE svg PUBLIC "-//W3C//DTD SVG 1.1//EN" "http://www.w3.org/Graphics/SVG/1.1/DTD/svg11.dtd" >
<svg xmlns="http://www.w3.org/2000/svg" xmlns:xlink="http://www.w3.org/1999/xlink" version="1.1" viewBox="-10 0 1010 1000">
  <g transform="matrix(1 0 0 -1 0 800)">
   <path fill="currentColor"
d="M505.625 737.776c9.45312 -0.141602 20.8438 -0.543945 25.3125 -0.893555s12.0625 -1.06738 16.875 -1.5957c4.8125 -0.527344 13.3906 -1.67383 19.0625 -2.54492c5.67188 -0.873047 14.4316 -2.40625 19.4658 -3.41016
c5.03418 -1.00293 14.3154 -3.11621 20.625 -4.69727s15.5498 -4.13574 20.5342 -5.67676s12.7188 -4.07422 17.1875 -5.62891c4.46875 -1.55371 13.0469 -4.80664 19.0625 -7.22852s15.9277 -6.73145 22.0254 -9.57812c6.09863 -2.8457 15.3799 -7.49316 20.625 -10.3271
c5.24609 -2.83398 12.6309 -6.98047 16.4121 -9.21387c3.78125 -2.23438 11.2344 -6.91211 16.5625 -10.3965s13.3438 -8.98828 17.8125 -12.2314s11.5723 -8.64648 15.7861 -12.0068c4.21387 -3.36133 11.1045 -9.12207 15.3125 -12.8018s12.251 -11.2002 17.874 -16.7119
c5.62207 -5.51074 13.4209 -13.5547 17.3301 -17.876c3.9082 -4.31934 9.67578 -10.9287 12.8154 -14.6875c3.13965 -3.75684 9.0459 -11.2598 13.126 -16.6709c4.0791 -5.41211 10.1865 -13.9902 13.5723 -19.0625c3.38477 -5.07324 8.21582 -12.5986 10.7344 -16.7236
c2.51953 -4.125 6.62402 -11.1885 9.12305 -15.6963s6.2627 -11.625 8.36328 -15.8164s5.67383 -11.7529 7.93945 -16.8037s5.93262 -13.8027 8.14941 -19.4482c2.21777 -5.64551 5.54004 -14.7861 7.38281 -20.3125c1.84375 -5.52637 4.76074 -15.0205 6.48242 -21.0986
c1.72266 -6.07812 4.12988 -15.5225 5.35059 -20.9873c1.2207 -5.46582 2.91113 -13.7109 3.75684 -18.3242s2.10352 -12.3252 2.79492 -17.1377c0.69043 -4.8125 1.6748 -12.8281 2.18555 -17.8125s1.24805 -14.9688 1.63672 -22.1875
c0.455078 -8.42676 0.611328 -28.7852 0.4375 -56.875c-0.223633 -36.1611 -0.444336 -44.8408 -1.27441 -50.0381c-0.551758 -3.45898 -1.58301 -9.08984 -2.29297 -12.5127c-0.708984 -3.42383 -2.27441 -9.45312 -3.47754 -13.3994
c-1.2041 -3.94629 -3.36426 -10.1279 -4.80176 -13.7373c-1.43652 -3.60938 -4.40137 -10.0781 -6.58691 -14.375c-2.18652 -4.29688 -6.3291 -11.3281 -9.20605 -15.625s-6.8125 -9.78125 -8.74512 -12.1875c-1.93359 -2.40625 -5.5127 -6.58008 -7.9541 -9.27539
c-2.44238 -2.69531 -7.09863 -7.26855 -10.3496 -10.1621c-3.25 -2.89355 -8.54004 -7.23828 -11.7568 -9.65625c-3.21582 -2.41797 -8.57031 -6.10645 -11.8984 -8.19922c-3.32812 -2.0918 -9.31543 -5.43359 -13.3057 -7.42676
c-3.98926 -1.99414 -9.50391 -4.52246 -12.2539 -5.62012c-2.75 -1.09668 -6.96875 -2.67773 -9.375 -3.51367c-2.40625 -0.834961 -8.17188 -2.46973 -12.8125 -3.63184c-4.64062 -1.16113 -11.3252 -2.56055 -14.8555 -3.10938
c-3.5293 -0.548828 -10.6973 -1.26953 -15.9297 -1.60254c-6.2002 -0.395508 -12.8887 -0.390625 -19.207 0.0117188c-5.33301 0.339844 -13.0859 1.17285 -17.2295 1.84961c-4.14355 0.677734 -10.7529 2.06641 -14.6875 3.08496
c-3.93457 1.01953 -10.1064 2.88477 -13.7158 4.14551s-10.0049 3.8418 -14.2129 5.73633c-4.20703 1.89453 -11.3105 5.6416 -15.7832 8.32812c-4.47363 2.68555 -11.3945 7.33203 -15.3799 10.3252c-3.98438 2.99316 -10.6631 8.72852 -14.8408 12.7471l-7.5957 7.30469
l-6.25 -4.93359c-3.4375 -2.71387 -10.1875 -7.55371 -15 -10.7539c-4.8125 -3.20117 -11.873 -7.55176 -15.6904 -9.66797s-10.8604 -5.63477 -15.6494 -7.81934c-4.79004 -2.18457 -12.2139 -5.24219 -16.4971 -6.79395
c-4.28418 -1.55176 -11.1963 -3.8125 -15.3623 -5.02246c-4.16504 -1.21094 -10.915 -2.90625 -15 -3.76758c-4.08398 -0.862305 -11.3633 -2.13867 -16.1758 -2.83789c-4.8125 -0.698242 -14.0234 -1.58691 -20.4688 -1.97363
c-8.7041 -0.522461 -14.7246 -0.521484 -23.4072 0.00488281c-6.42871 0.389648 -14.7949 1.13867 -18.5938 1.66406c-3.79785 0.525391 -10.4814 1.64941 -14.8525 2.49805c-4.37109 0.847656 -11.8242 2.6377 -16.5625 3.97656
c-4.73828 1.33984 -11.709 3.54297 -15.4902 4.89551s-9.6875 3.6582 -13.125 5.12207c-3.4375 1.46484 -8.78125 3.92969 -11.875 5.47852s-7.875 4.09766 -10.625 5.66309c-2.75 1.56738 -8.19531 4.91797 -12.1016 7.44629
c-3.90625 2.5293 -9.39062 6.32812 -12.1875 8.44238c-2.79688 2.11523 -7.6084 5.9707 -10.6914 8.56934c-3.08398 2.59766 -8.26172 7.25488 -11.5078 10.3486c-3.24707 3.09375 -8.74707 8.85938 -12.2227 12.8125s-8.49512 10.0596 -11.1533 13.5703
c-2.65918 3.51074 -6.88965 9.55762 -9.40137 13.4375s-5.84863 9.30469 -7.41602 12.0547c-1.56543 2.75 -4.12793 7.55469 -5.69336 10.6777s-4.25293 9.0293 -5.97266 13.125c-1.71875 4.0957 -4.39844 11.1689 -5.95215 15.7158
c-1.55469 4.54785 -3.80078 12.1455 -4.99121 16.8838c-1.19043 4.7373 -2.88672 12.9697 -3.76758 18.293c-0.881836 5.32422 -1.87402 12.6328 -2.2041 16.2422c-0.331055 3.60938 -0.783203 10.2188 -1.00391 14.6875
c-0.22168 4.46875 -0.0859375 13.1875 0.301758 19.375c0.388672 6.1875 1.12402 14.3438 1.63574 18.125c0.512695 3.78125 1.50195 9.82812 2.20117 13.4375c0.698242 3.60938 2.21875 10.2188 3.37793 14.6875s3.41797 11.8896 5.01953 16.4902
s4.30762 11.6318 6.01367 15.625c1.70508 3.99316 5.05762 11.0068 7.4502 15.5869s6.51562 11.748 9.16406 15.9287c2.64844 4.17969 7.23438 10.8438 10.1914 14.8076c2.95703 3.96484 7.17871 9.3125 9.38281 11.8848c2.20312 2.57227 6.54199 7.32031 9.6416 10.5508
c3.10059 3.23047 8.96191 8.80078 13.0244 12.3799c4.06445 3.57812 10.6777 8.95898 14.6982 11.957c4.01953 2.99805 10.7285 7.61816 14.9082 10.2666c4.18066 2.64844 11.3486 6.77148 15.9287 9.16406s11.5938 5.74512 15.5869 7.4502
c3.99316 1.70605 10.9346 4.37988 15.4248 5.94238c4.49121 1.5625 11.9121 3.82031 16.4902 5.01855c4.5791 1.19824 11.2783 2.75 14.8877 3.44922s9.65625 1.68945 13.4375 2.20215c3.78125 0.511719 11.9375 1.24707 18.125 1.63574
c6.1875 0.387695 14.9062 0.523438 19.375 0.301758c4.46875 -0.220703 11.0781 -0.672852 14.6875 -1.00391c3.60938 -0.330078 10.8154 -1.30566 16.0137 -2.16504c5.19922 -0.860352 12.8809 -2.40234 17.0732 -3.42578
c4.19141 -1.02344 11.6094 -3.16406 16.4834 -4.75781c4.87402 -1.59277 12.502 -4.42871 16.9512 -6.30176c4.44922 -1.87402 10.6377 -4.68262 13.7529 -6.24316s8.61621 -4.5293 12.2256 -6.59766s10.0781 -6.15039 14.375 -9.07031
c4.29688 -2.9209 11.0469 -7.9082 15 -11.085c3.95312 -3.17578 10.4004 -8.83203 14.3271 -12.5703c3.92773 -3.7373 9.98145 -10.0303 13.4531 -13.9834c3.47266 -3.95312 8.48828 -10.0596 11.1465 -13.5703c2.65918 -3.51074 6.88965 -9.55762 9.40137 -13.4375
s5.84863 -9.30469 7.41602 -12.0547c1.56543 -2.75 4.12793 -7.55469 5.69336 -10.6777s4.25293 -9.0293 5.97266 -13.125c1.71875 -4.0957 4.39844 -11.1689 5.95215 -15.7158c1.55469 -4.54785 3.80078 -12.1455 4.99121 -16.8838
c1.19043 -4.7373 2.88574 -12.9697 3.76758 -18.293c0.880859 -5.32422 1.92188 -12.4922 2.3125 -15.9297c0.413086 -3.63281 0.892578 -24.4434 1.14551 -49.6875c0.392578 -39.2666 0.541016 -43.7676 1.5498 -46.875
c0.614258 -1.89062 2.12695 -5.40625 3.36328 -7.8125c1.5791 -3.0752 3.83496 -5.95801 7.5957 -9.7041c4.04688 -4.03027 6.49121 -5.88477 10.0371 -7.61426c2.57812 -1.25684 6.51562 -2.7666 8.75 -3.35449c2.37988 -0.625977 6.52148 -1.08398 10 -1.10547
c3.26562 -0.0214844 7.48438 0.328125 9.375 0.774414s5.96875 2.02539 9.0625 3.50879c3.55664 1.70508 7.05273 3.99219 9.50586 6.21875c2.13379 1.9375 5.24023 5.55469 6.90137 8.03906s3.85254 6.90137 4.87012 9.81445l1.84766 5.29785l0.201172 39.0625
c0.126953 24.626 -0.0615234 43.2197 -0.511719 50.3125c-0.391602 6.1875 -1.12207 14.625 -1.62109 18.75s-1.61523 11.5781 -2.48047 16.5625c-0.866211 4.98438 -2.83105 14.1836 -4.36719 20.4424c-1.53711 6.25879 -4.22949 15.8213 -5.9834 21.25
s-4.6748 13.667 -6.49023 18.3076s-4.89551 11.9531 -6.84473 16.25c-1.9502 4.29688 -5.26074 11.0469 -7.3584 15c-2.09668 3.95312 -5.6416 10.2812 -7.87598 14.0625c-2.23535 3.78125 -6.31152 10.25 -9.05762 14.375s-7.66602 11.0156 -10.9326 15.3125
s-9.0957 11.4688 -12.9531 15.9375s-11.7578 12.7666 -17.5566 18.4385c-5.79883 5.67285 -13.3555 12.6631 -16.793 15.5352s-9.90625 7.97168 -14.375 11.333c-4.46875 3.36035 -11.7812 8.49805 -16.25 11.416c-4.46875 2.91895 -11.9219 7.46191 -16.5625 10.0986
c-4.64062 2.63574 -12.1133 6.58594 -16.6055 8.77832c-4.49121 2.19238 -11.1035 5.24023 -14.6924 6.77246c-3.58887 1.5332 -10.3906 4.22754 -15.1162 5.98828c-4.72559 1.75977 -11.8955 4.20508 -15.9326 5.43359c-4.03809 1.22754 -11.7002 3.3252 -17.0283 4.66016
s-13.625 3.14062 -18.4375 4.01172c-4.8125 0.87207 -13.1094 2.1377 -18.4375 2.8125c-5.32812 0.675781 -15.3125 1.55566 -22.1875 1.95703c-7.39355 0.430664 -17.2227 0.556641 -24.0625 0.307617c-6.35938 -0.231445 -15.9111 -0.833984 -21.2256 -1.33887
c-5.31543 -0.503906 -13.4717 -1.49121 -18.125 -2.19434c-4.6543 -0.701172 -12.9619 -2.25293 -18.4619 -3.44629s-14.4619 -3.44629 -19.916 -5.00684c-5.45312 -1.55957 -12.7393 -3.81934 -16.1904 -5.02051c-3.45215 -1.20215 -9.81836 -3.5957 -14.1475 -5.32031
c-4.3291 -1.72559 -11.5264 -4.86914 -15.9941 -6.98828s-11.499 -5.64258 -15.625 -7.83008c-4.12598 -2.18652 -10.7363 -5.94922 -14.6895 -8.35938s-10.2812 -6.50586 -14.0625 -9.10156c-3.78125 -2.59473 -9.125 -6.42188 -11.875 -8.50488
s-8.375 -6.58984 -12.5 -10.0156s-12.1045 -10.7432 -17.7314 -16.2607c-5.62793 -5.5166 -13.5889 -13.917 -17.6914 -18.667c-4.10254 -4.74902 -10.0156 -12.0615 -13.1396 -16.25c-3.12402 -4.1875 -7.84277 -10.8477 -10.4854 -14.8008
c-2.64355 -3.95312 -6.63477 -10.2812 -8.87012 -14.0625c-2.23438 -3.78125 -5.7793 -10.1094 -7.87598 -14.0625c-2.09766 -3.95312 -5.4082 -10.7031 -7.3584 -15c-1.94922 -4.29688 -5.02734 -11.6094 -6.83984 -16.25s-4.625 -12.5156 -6.25 -17.5
c-1.62402 -4.98438 -4.18555 -13.9092 -5.69336 -19.833s-3.45605 -14.6426 -4.33105 -19.375s-2.12695 -12.8232 -2.78125 -17.9795c-0.655273 -5.15625 -1.5293 -14.5781 -1.94238 -20.9375c-0.46582 -7.16797 -0.601562 -17.0273 -0.356445 -25.9375
c0.216797 -7.90625 0.830078 -18.4531 1.3623 -23.4375s1.53223 -12.7188 2.22266 -17.1875c0.689453 -4.46875 2.2373 -12.709 3.44043 -18.3125c1.20215 -5.60352 3.69922 -15.3135 5.54785 -21.5791c1.84766 -6.26465 4.90332 -15.502 6.79004 -20.5273
c1.88574 -5.02539 4.75684 -12.1895 6.37793 -15.9219c1.62305 -3.73145 4.77832 -10.4404 7.0127 -14.9092c2.2334 -4.46875 5.88379 -11.3594 8.11133 -15.3125s7.51074 -12.3906 11.7412 -18.75s10.8936 -15.5586 14.8057 -20.4414
c3.91309 -4.88379 10.7031 -12.8271 15.0869 -17.6494c4.38477 -4.82324 11.4121 -11.9365 15.6162 -15.8076c4.20312 -3.87109 10.165 -9.16992 13.249 -11.7744c3.08398 -2.60352 8.98242 -7.26855 13.1074 -10.3662c4.125 -3.09863 10.875 -7.88574 15 -10.6387
c4.125 -2.75391 11.0156 -7.05078 15.3125 -9.55078s12.1719 -6.72559 17.5 -9.3916s13.3438 -6.40137 17.8125 -8.30176s11.668 -4.7334 15.9971 -6.29785c4.3291 -1.5625 11.1758 -3.84375 15.2139 -5.06738c4.03906 -1.22461 11.1836 -3.18848 15.8789 -4.36523
c4.69434 -1.17578 11.6289 -2.73145 15.4102 -3.45605c3.78125 -0.725586 10.5312 -1.85156 15 -2.50293s11.6406 -1.55273 15.9375 -2.00391c4.8125 -0.505859 15.8535 -0.820312 28.75 -0.820312s23.9375 0.314453 28.75 0.820312
c4.29688 0.451172 11.4688 1.35254 15.9375 2.00391s11.2188 1.77539 15 2.49609c3.78125 0.72168 11.375 2.4541 16.875 3.84863s14.3594 3.93848 19.6875 5.65234s14.3281 4.94531 20 7.17969c5.67188 2.23535 12.4219 4.63672 15 5.33594
c3.67383 0.996094 6.71484 1.28223 14.0625 1.32422c7.73438 0.0439453 10.3379 -0.189453 14.8789 -1.33301c3.02832 -0.762695 7.65332 -2.28027 10.2793 -3.37402c2.62598 -1.09277 7.17969 -3.59863 10.1201 -5.56836
c2.94141 -1.96973 7.33496 -5.64746 9.7666 -8.17188c2.43164 -2.52539 5.63086 -6.38574 7.11035 -8.5791s3.75977 -6.27148 5.06738 -9.0625s3.0293 -7.46484 3.82715 -10.3867c1.24414 -4.55664 1.4502 -6.78027 1.4502 -15.625s-0.206055 -11.0684 -1.4502 -15.625
c-0.797852 -2.92188 -2.53418 -7.62598 -3.85938 -10.4541c-1.3252 -2.8291 -3.87695 -7.26562 -5.6709 -9.86133c-1.79395 -2.59473 -5.56738 -6.89062 -8.38672 -9.54492c-2.81836 -2.65527 -7.3916 -6.18555 -10.1621 -7.8457
c-2.77148 -1.65918 -9.07324 -4.64746 -14.0049 -6.64062c-4.93066 -1.99219 -13.0254 -5.07422 -17.9863 -6.84863c-4.96191 -1.77441 -13.6807 -4.63379 -19.375 -6.35352c-5.69531 -1.71973 -15.9795 -4.5166 -22.8545 -6.21484
c-6.875 -1.69922 -17.8828 -4.07031 -24.4619 -5.26953s-16.2822 -2.75 -21.5625 -3.44531s-13.96 -1.69727 -19.2881 -2.22754s-18.9688 -1.13086 -30.3125 -1.33496c-12.9287 -0.233398 -25.0566 -0.102539 -32.5 0.352539
c-6.53125 0.399414 -15.9531 1.14746 -20.9375 1.66406c-4.98438 0.515625 -12.8594 1.49414 -17.5 2.17285s-12.375 1.95312 -17.1875 2.83203s-13.6348 2.72852 -19.6045 4.11035s-15.251 3.77148 -20.625 5.31055s-14.4111 4.36523 -20.083 6.28027
s-15.8564 5.69727 -22.6328 8.40527c-6.77539 2.70801 -16.9004 7.06152 -22.5 9.67285c-5.59863 2.61133 -13.1328 6.31055 -16.7422 8.2207c-3.60938 1.9082 -8.8125 4.72656 -11.5625 6.26074s-8.09375 4.63184 -11.875 6.88379s-11.8584 7.43164 -17.9482 11.5098
c-6.09082 4.07812 -14.9502 10.3281 -19.6875 13.8896c-4.73828 3.56055 -12.5518 9.75391 -17.3643 13.7607c-4.8125 4.00879 -13.2744 11.5 -18.8037 16.6484s-13.1475 12.6562 -16.9297 16.6826c-3.78125 4.02734 -9.48926 10.2744 -12.6846 13.8838
c-3.19434 3.60938 -8.95996 10.5 -12.8105 15.3125c-3.85156 4.8125 -9.34863 11.9746 -12.2148 15.917c-2.86719 3.94141 -8.36816 11.957 -12.2236 17.8125c-3.85547 5.85449 -9.72559 15.3838 -13.0439 21.1758c-3.31738 5.79199 -8.79688 16.0576 -12.1748 22.8125
c-3.37891 6.75488 -7.61719 15.6572 -9.41895 19.7822c-1.80078 4.125 -4.81738 11.4375 -6.70312 16.25s-4.95898 13.25 -6.83105 18.75c-1.87109 5.5 -4.49805 13.7969 -5.83594 18.4375c-1.33887 4.64062 -3.44727 12.4756 -4.68555 17.4102
c-1.23828 4.93652 -3.20801 13.7959 -4.375 19.6875c-1.16797 5.89355 -2.82812 15.4961 -3.6875 21.3398c-0.861328 5.84375 -2.00195 14.9844 -2.53711 20.3125c-0.53418 5.32812 -1.25098 14.6094 -1.59082 20.625c-0.34082 6.01562 -0.618164 16.4219 -0.618164 23.125
s0.279297 17.1094 0.621094 23.125c0.342773 6.01562 1.05176 15.1562 1.57715 20.3125s1.51367 13.3125 2.19531 18.125s2.23438 13.9531 3.44824 20.3125c1.21484 6.35938 3.1875 15.6406 4.38281 20.625s3.73145 14.3936 5.63574 20.9092
c1.90527 6.5166 5.01172 16.1982 6.90332 21.5166s4.82129 13.1328 6.50977 17.3672c1.68848 4.2334 4.8916 11.7617 7.11719 16.7295s5.76562 12.4609 7.86621 16.6523s5.86426 11.3086 8.36328 15.8164s6.60352 11.5713 9.12305 15.6963
c2.51855 4.125 7.30176 11.5781 10.6279 16.5625s8.99512 13 12.5977 17.8125c3.60059 4.8125 9.08301 11.8438 12.1807 15.625c3.09863 3.78125 9.1543 10.8125 13.458 15.625s12.8594 13.6719 19.0117 19.6875c6.15332 6.01562 15.3652 14.5234 20.4707 18.9062
c5.10449 4.38281 13.7754 11.4141 19.2676 15.625c5.49316 4.21094 14.6719 10.8369 20.3994 14.7246c5.72656 3.8877 14.7715 9.68262 20.0996 12.8799c5.32812 3.19629 14.4912 8.38086 20.3623 11.5195c5.87207 3.1377 15.1787 7.78711 20.6816 10.3311
c5.50391 2.54395 14.9033 6.59863 20.8877 9.01074c5.98438 2.41113 15.9395 6.11133 22.1211 8.22266c6.18262 2.11035 15.042 4.93164 19.6875 6.26855c4.64648 1.33887 12.3848 3.4082 17.1973 4.59961s11.5625 2.74902 15 3.45996
c3.4375 0.711914 9.34375 1.85449 13.125 2.53809s10.8125 1.79883 15.625 2.47754s13.4482 1.69238 19.1904 2.25195c5.74121 0.558594 14.8818 1.25879 20.3125 1.55469c5.42969 0.295898 17.6064 0.422852 27.0596 0.28125zM503.438 403.97
c-4.125 0.150391 -8.625 0.166992 -10 0.0371094c-1.375 -0.130859 -4.98145 -0.550781 -8.01367 -0.932617c-3.0332 -0.383789 -8.6123 -1.50879 -12.3994 -2.50293c-3.78613 -0.993164 -9.88281 -3.07422 -13.5488 -4.62207
c-3.66504 -1.5498 -9.03711 -4.23145 -11.9385 -5.95898c-2.90039 -1.72754 -7.40039 -4.73047 -10 -6.67188c-2.59863 -1.94238 -7.21094 -5.94434 -10.249 -8.89355c-3.03711 -2.94922 -7.45117 -7.89355 -9.81055 -10.9873
c-2.35742 -3.09375 -5.70996 -8.01562 -7.44922 -10.9375c-1.73828 -2.92188 -4.43164 -8.31641 -5.9834 -11.9883s-3.6416 -9.85938 -4.64355 -13.75s-2.16699 -9.32422 -2.58789 -12.0742s-0.765625 -9.35938 -0.765625 -14.6875s0.344727 -11.9375 0.765625 -14.6875
s1.58594 -8.18359 2.58789 -12.0742s3.0918 -10.0781 4.64355 -13.75s4.23633 -9.04883 5.96387 -11.9502c1.72754 -2.90039 4.73047 -7.40039 6.67188 -10c1.94238 -2.59863 5.94434 -7.21094 8.89355 -10.249c2.94922 -3.03711 7.89355 -7.45117 10.9873 -9.81055
c3.09375 -2.35742 8.01562 -5.70996 10.9375 -7.44922c2.92188 -1.73828 8.31641 -4.43164 11.9883 -5.9834c3.67285 -1.55176 9.85938 -3.6416 13.75 -4.64355s9.32422 -2.16699 12.0742 -2.58789s9.35938 -0.765625 14.6875 -0.765625s11.9375 0.344727 14.6875 0.765625
s8.09375 1.56641 11.875 2.54688c3.78125 0.979492 9.66602 2.92578 13.0771 4.32617c3.41211 1.40039 8.55957 3.88477 11.4404 5.52246s8.12891 5.1377 11.6621 7.7793c3.53418 2.64062 9.07324 7.5918 12.3105 11.001c3.23633 3.41016 7.46777 8.42188 9.40234 11.1357
c1.93457 2.71484 4.81348 7.18652 6.39746 9.93652s4.0332 7.8125 5.44238 11.25c1.41016 3.4375 3.36426 9.34375 4.34375 13.125c0.980469 3.78125 2.12598 9.125 2.54688 11.875s0.765625 9.35938 0.765625 14.6875s-0.344727 11.9375 -0.765625 14.6875
s-1.58594 8.18359 -2.58789 12.0742s-3.0918 10.0781 -4.64355 13.75s-4.23633 9.04883 -5.96387 11.9502c-1.72754 2.90039 -4.73047 7.40039 -6.67188 10c-1.94238 2.59863 -5.94434 7.21094 -8.89355 10.249c-2.94922 3.03711 -7.89355 7.45117 -10.9873 9.81055
c-3.09375 2.35742 -8.01562 5.70996 -10.9375 7.44922c-2.92188 1.73828 -8.28125 4.41602 -11.9102 5.9502c-3.62793 1.5332 -9.25293 3.50488 -12.5 4.38184c-3.24609 0.876953 -8.43359 1.99805 -11.5273 2.49316c-3.09375 0.494141 -9 1.02246 -13.124 1.17383z" />
  </g>

</svg>
