<?xml version="1.0" standalone="no"?>
<!DOCTYPE svg PUBLIC "-//W3C//DTD SVG 1.1//EN" "http://www.w3.org/Graphics/SVG/1.1/DTD/svg11.dtd" >
<svg xmlns="http://www.w3.org/2000/svg" xmlns:xlink="http://www.w3.org/1999/xlink" version="1.1" viewBox="-10 0 1010 1000">
  <g transform="matrix(1 0 0 -1 0 800)">
   <path fill="currentColor"
d="M227.188 732.211c10.0312 -0.129883 18.4209 -0.579102 23.4375 -1.25488c4.29688 -0.580078 12.5938 -1.99707 18.4375 -3.15039c5.84277 -1.15332 16.0264 -3.65723 22.627 -5.56348c6.60156 -1.90723 16.6816 -5.17871 22.3984 -7.27051
c5.71777 -2.09082 15.3633 -5.91504 21.4346 -8.49805c6.07129 -2.58203 17.6484 -8.00098 25.7275 -12.04c8.07812 -4.04004 18.625 -9.54395 23.4375 -12.2305s14.2598 -8.18848 20.9961 -12.2266c6.73535 -4.03809 16.7188 -10.2266 22.1875 -13.752
c5.46777 -3.52539 15.2852 -10.0723 21.8164 -14.5488c6.53027 -4.47656 16.5146 -11.5107 22.1875 -15.6309c5.67188 -4.11914 14.3223 -10.541 19.2227 -14.2686l8.91113 -6.77832l11.4023 8.64355c6.27051 4.75488 16.8799 12.5371 23.5752 17.2949
s18.3672 12.7744 25.9375 17.8135s17.8418 11.7041 22.8262 14.8096c4.98438 3.10645 13.1406 8.03125 18.125 10.9453s12.5781 7.21582 16.875 9.56055s13.4043 7.05078 20.2383 10.4561c6.83496 3.40625 16.1162 7.8252 20.625 9.81836
c4.50977 1.99414 12.1367 5.17676 16.9492 7.07324c4.8125 1.89551 12.5469 4.72559 17.1875 6.28809c4.64062 1.56348 12.5156 3.99414 17.5 5.40234c4.98438 1.40918 13.8438 3.51562 19.6875 4.68262c5.84277 1.16699 14.1406 2.58789 18.4375 3.15918
c4.29688 0.569336 13.7559 1.19238 21.0215 1.38184c8.22949 0.214844 16.2402 0.0615234 21.25 -0.407227c4.42188 -0.413086 11.7207 -1.42969 16.2168 -2.25781c4.49707 -0.828125 11.6025 -2.49121 15.79 -3.69629c4.1875 -1.20605 10.7744 -3.48145 14.6367 -5.05664
c3.86133 -1.57617 9.94336 -4.40625 13.5127 -6.28906c3.57031 -1.88281 9.19531 -5.21875 12.5 -7.41406c3.30566 -2.19434 7.97852 -5.56836 10.3848 -7.49707s6.74707 -5.67188 9.64746 -8.31836s7.92285 -7.90918 11.1621 -11.6953
c3.24023 -3.78516 7.94043 -9.97656 10.4463 -13.7578s5.83984 -9.26953 7.4082 -12.1953c1.56836 -2.92676 4.10742 -8.31738 5.64258 -11.9805c1.53418 -3.66406 3.64062 -9.31543 4.67969 -12.5596c1.03906 -3.24512 2.59082 -8.96289 3.44824 -12.707
s2.05957 -10.1826 2.67188 -14.3076c0.848633 -5.71191 1.11621 -11.4492 1.125 -24.0625c0.00878906 -12.5381 -0.263672 -18.6123 -1.12305 -25c-0.623047 -4.64062 -1.83105 -12.0938 -2.68359 -16.5625s-2.67578 -12.4834 -4.05078 -17.8096
c-1.375 -5.32715 -4.07031 -14.4678 -5.98926 -20.3125c-1.91992 -5.8457 -5.45605 -15.5498 -7.85742 -21.5654c-2.40234 -6.01562 -6.88379 -16.4219 -9.96094 -23.125c-3.07617 -6.70312 -7.86719 -16.5469 -10.6475 -21.875
c-2.7793 -5.32812 -6.94336 -13.0625 -9.25195 -17.1875s-6.08984 -10.7344 -8.40137 -14.6875s-6.19336 -10.4219 -8.62695 -14.375c-2.43262 -3.95312 -7.52441 -11.9688 -11.3145 -17.8125c-3.78809 -5.84375 -9.97559 -15.125 -13.7471 -20.625
c-3.77344 -5.5 -9.67188 -13.9375 -13.1084 -18.75s-9.58398 -13.1992 -13.6621 -18.6367l-7.41504 -9.8877l3.03027 -3.8623c1.66699 -2.125 6.83496 -9.06641 11.4844 -15.4258s12.3477 -17.1875 17.1064 -24.0625c4.75781 -6.875 11.0352 -16.1562 13.9482 -20.625
c2.91406 -4.46875 8.47656 -13.2422 12.3623 -19.4961c3.88477 -6.25391 9.7041 -15.957 12.9316 -21.5625c3.22656 -5.60547 8.47949 -15.0908 11.6738 -21.0781c3.19336 -5.9873 7.62793 -14.7061 9.85254 -19.375s5.5918 -12.0039 7.48438 -16.3008
s5.20605 -12.3125 7.36328 -17.8125c2.1582 -5.5 5.46973 -14.7812 7.3584 -20.625c1.88965 -5.84375 4.58008 -15.125 5.98047 -20.625c1.39941 -5.5 3.23926 -14.0781 4.08887 -19.0625c0.848633 -4.98438 1.91504 -12.0156 2.36816 -15.625
c0.5 -3.97656 0.817383 -12.9668 0.806641 -22.8125c-0.0136719 -12.252 -0.291992 -18.0947 -1.12793 -23.75c-0.611328 -4.125 -1.81152 -10.5635 -2.66895 -14.3076c-0.858398 -3.74414 -2.40918 -9.46191 -3.44824 -12.707
c-1.03906 -3.24414 -3.14551 -8.89551 -4.67969 -12.5596c-1.53613 -3.66309 -4.06445 -9.01367 -5.61914 -11.8906c-1.55469 -2.87598 -4.38965 -7.66113 -6.2998 -10.6328c-1.90918 -2.9707 -5.60254 -8.07422 -8.20605 -11.3398
c-2.60449 -3.26562 -7.56445 -8.76953 -11.0225 -12.2314c-3.45703 -3.46191 -9.09766 -8.52441 -12.5352 -11.251c-3.4375 -2.72559 -8.5 -6.39551 -11.25 -8.1543c-2.75 -1.75781 -7.39453 -4.48926 -10.3203 -6.06934
c-2.92676 -1.5791 -8.31738 -4.12793 -11.9805 -5.66309c-3.66406 -1.53418 -9.42578 -3.67676 -12.8047 -4.76172c-3.37988 -1.08398 -9.09766 -2.63574 -12.707 -3.44727s-9.9375 -1.97656 -14.0625 -2.58691c-5.65723 -0.837891 -11.4932 -1.11523 -23.75 -1.12891
c-9.8457 -0.0107422 -18.8359 0.306641 -22.8125 0.806641c-3.60938 0.453125 -10.6406 1.51953 -15.625 2.36816c-4.98438 0.849609 -13.5625 2.68945 -19.0625 4.08887c-5.5 1.40039 -14.7803 4.09082 -20.625 5.98047c-5.84375 1.88867 -15.125 5.2002 -20.625 7.3584
c-5.5 2.15723 -13.5156 5.4707 -17.8125 7.36328c-4.29688 1.8916 -11.6318 5.25977 -16.3008 7.48438s-13.2959 6.60938 -19.1719 9.74414c-5.875 3.13477 -15.415 8.42285 -21.1992 11.751s-15.6621 9.24414 -21.9531 13.1465s-17.4004 11.0723 -24.6875 15.9326
s-17.4688 11.8027 -22.625 15.4268c-5.15527 3.62402 -13.5938 9.68262 -18.75 13.4639c-5.15527 3.78125 -11.1064 8.23047 -13.2227 9.88867l-3.84863 3.01367l-9.05762 -6.80762c-4.98242 -3.74414 -13.375 -9.89551 -18.6523 -13.6709
c-5.27637 -3.77441 -14.1084 -9.9668 -19.627 -13.7598s-15.2217 -10.251 -21.5625 -14.3506s-16.5254 -10.4756 -22.6309 -14.1699s-16.6523 -9.80957 -23.4375 -13.5908s-18.5234 -9.92285 -26.0859 -13.6494s-17.125 -8.2373 -21.25 -10.0234
c-4.125 -1.78711 -10.875 -4.5957 -15 -6.24121s-10.7344 -4.125 -14.6875 -5.51074s-10.4219 -3.51758 -14.375 -4.7373s-11.2656 -3.21875 -16.25 -4.44336c-4.98438 -1.22363 -13 -2.90039 -17.8125 -3.72754s-11.7031 -1.875 -15.3125 -2.32812
c-3.97656 -0.5 -12.9668 -0.817383 -22.8125 -0.806641c-12.252 0.0136719 -18.0947 0.291992 -23.75 1.12793c-4.125 0.611328 -10.5635 1.81152 -14.3076 2.66895s-9.46191 2.40918 -12.707 3.44824c-3.24414 1.03906 -8.89551 3.14551 -12.5596 4.67969
c-3.66309 1.53516 -9.05371 4.08105 -11.9805 5.6582c-2.92578 1.57617 -8.41406 4.90918 -12.1953 7.4043c-3.78125 2.49609 -9.96875 7.20801 -13.75 10.4707c-3.78125 3.26367 -8.31152 7.44434 -10.0664 9.29102s-5.08887 5.60742 -7.4082 8.35742
s-6.26855 8.09375 -8.77734 11.875c-2.50781 3.78125 -5.84375 9.26953 -7.41211 12.1953c-1.56836 2.92676 -4.10742 8.31738 -5.64258 11.9805c-1.53418 3.66406 -3.66602 9.39648 -4.7373 12.7412c-1.07129 3.34375 -2.5166 8.49902 -3.21191 11.457
c-0.695312 2.95703 -1.82617 9.03223 -2.51367 13.501c-0.758789 4.93652 -1.39062 13.0791 -1.60938 20.751c-0.225586 7.88867 -0.0732422 15.9805 0.40625 21.5625c0.422852 4.91504 1.58984 13.8115 2.59473 19.7695c1.00586 5.95898 2.9502 15.2969 4.32129 20.7529
c1.37207 5.45508 4.07129 14.7832 5.99805 20.7285c1.92871 5.94629 5.27148 15.3105 7.42969 20.8105c2.15918 5.5 5.33984 13.2344 7.06836 17.1875s5.36621 11.8281 8.08398 17.5s7.28711 14.6719 10.1543 20c2.86621 5.32812 7.87695 14.3281 11.1338 20
s9.56348 16.1602 14.0137 23.3086c4.45117 7.14844 12.1396 19.0273 17.0859 26.3984c4.94531 7.37207 12.8643 18.8203 17.6006 25.4414c4.73438 6.62109 11.6377 16.0713 15.3389 21.001l6.73242 8.96191l-3.03809 3.85059
c-1.66992 2.11719 -6.83203 9.05371 -11.4707 15.4131s-12.3271 17.1875 -17.0859 24.0625s-11.0352 16.1562 -13.9482 20.625s-8.44727 13.1875 -12.2988 19.375s-9.66797 15.8906 -12.9268 21.5625c-3.25781 5.67188 -8.26953 14.6719 -11.1357 20
c-2.86719 5.32812 -7.43652 14.3281 -10.1543 20s-6.35547 13.5469 -8.08398 17.5s-4.90918 11.6875 -7.06836 17.1875c-2.1582 5.5 -5.46973 14.7812 -7.3584 20.625c-1.88965 5.84375 -4.57617 15.125 -5.97168 20.625c-1.39648 5.5 -3.25879 14.0918 -4.13965 19.0928
s-2.01465 13.1572 -2.52051 18.125c-0.504883 4.96777 -0.923828 13.7139 -0.930664 19.4346c-0.00683594 5.72168 0.275391 13.3154 0.62793 16.875c0.352539 3.56055 1.22266 9.98828 1.93457 14.2852c0.712891 4.29688 2.26465 11.1875 3.4502 15.3125
s3.43457 10.7344 4.99902 14.6875s4.3877 10.1406 6.27344 13.75s5.48438 9.65625 7.99609 13.4375c2.5127 3.78125 7.21777 9.96875 10.4551 13.75c3.23828 3.78125 8.26074 9.0752 11.1631 11.7656c2.90137 2.69043 8.36914 7.2207 12.1504 10.0674
c3.78125 2.84766 9.6875 6.86621 13.125 8.93164c3.4375 2.06445 8.21875 4.74121 10.625 5.94824s7.71191 3.51172 11.79 5.12109s10.8281 3.86133 15 5.00391s11.1006 2.68652 15.3975 3.43066c4.29688 0.745117 10.0625 1.60254 12.8125 1.90527
s12.0312 0.459961 20.625 0.349609zM224.062 607.411c-3.78125 -0.0449219 -7.57812 -0.198242 -8.4375 -0.342773c-0.859375 -0.143555 -3.25 -0.80957 -5.3125 -1.48047c-2.0625 -0.669922 -5.14355 -2.27441 -6.84668 -3.56445
c-1.7041 -1.29004 -4.02246 -3.55762 -5.15137 -5.03906c-1.12988 -1.48047 -2.54785 -4.29102 -3.15234 -6.24414c-0.871094 -2.81348 -1.09082 -5.69922 -1.05859 -13.8652c0.0351562 -8.68555 0.304688 -11.5449 1.70508 -18.125
c0.914062 -4.29688 2.81445 -11.6094 4.22168 -16.25s4.3584 -12.9766 6.55957 -18.5234c2.2002 -5.54688 5.95703 -14.2656 8.34863 -19.375c2.39062 -5.10938 6.63574 -13.6299 9.43262 -18.9355c2.79688 -5.30664 7.76172 -14.2627 11.0332 -19.9033
s8.3584 -14.0957 11.3027 -18.7891c2.94531 -4.69336 8.72754 -13.5957 12.8496 -19.7842c4.12109 -6.18848 10.1582 -15.0098 13.4141 -19.6025l5.91992 -8.35156l3.83594 4.28613c2.10938 2.35742 7.1875 7.94336 11.2832 12.4131
c4.0957 4.4707 13.8379 14.8779 21.6494 23.1279c7.81055 8.25 21.0537 21.752 29.4277 30.0049s21.835 21.2197 29.9131 28.8154s17.2891 16.1523 20.4688 19.0166c3.18066 2.86328 5.78125 5.39551 5.78125 5.62793c0 0.230469 -4.99219 3.94238 -11.0938 8.24609
c-6.10156 4.30566 -15.8291 10.9736 -21.6172 14.8203s-14.5068 9.46582 -19.375 12.4893c-4.86816 3.02246 -13.3516 8.07812 -18.8516 11.2334c-5.5 3.15625 -15.4844 8.50781 -22.1875 11.8916s-16.4141 7.97949 -21.5791 10.2129
c-5.16504 2.23242 -13.4854 5.47363 -18.4912 7.20312c-5.00488 1.72949 -12.5908 4.0127 -16.8584 5.0752c-4.26758 1.06152 -10.5713 2.34961 -14.0088 2.8623s-9.34375 0.894531 -13.125 0.849609zM776.875 607.237
c-5.91992 0.140625 -11.0127 -0.0986328 -14.6875 -0.69043c-3.09375 -0.498047 -9.13965 -1.7832 -13.4365 -2.85547c-4.29492 -1.07227 -12.0293 -3.42383 -17.1875 -5.22559c-5.15625 -1.80078 -12.6104 -4.6416 -16.5635 -6.31152s-12.9531 -5.89355 -20 -9.38574
c-7.04688 -3.49121 -17.8535 -9.22656 -24.0156 -12.7441c-6.16211 -3.51855 -15.3027 -8.94922 -20.3125 -12.0693s-14.0312 -8.95117 -20.0469 -12.959s-14.8936 -10.0762 -19.7285 -13.4854s-9.61621 -6.81738 -10.625 -7.57422l-1.83398 -1.37598l5.30957 -4.87402
c2.91992 -2.68066 11.6377 -10.7803 19.373 -17.999s23.6543 -22.6875 35.377 -34.375c11.7217 -11.6875 25.9258 -26.1758 31.5645 -32.1973c5.6377 -6.02051 14.4463 -15.583 19.5742 -21.25c5.12695 -5.66602 9.80664 -10.8262 10.3984 -11.4648
c1.03418 -1.11816 1.30664 -0.836914 6.9873 7.1875c3.25195 4.5918 9.5625 13.834 14.0244 20.5371c4.46289 6.70312 10.8682 16.6631 14.2344 22.1338s8.7959 14.6113 12.0664 20.3125s8.83398 16.1318 12.3652 23.1787c3.53027 7.04688 8.09766 16.75 10.1504 21.5625
c2.05176 4.8125 4.86426 11.8438 6.24902 15.625s3.375 9.82812 4.42188 13.4375s2.45801 9.09375 3.13574 12.1875s1.57422 8.39648 1.99219 11.7842c0.418945 3.39844 0.614258 9.1416 0.433594 12.8125c-0.21875 4.47363 -0.758789 7.875 -1.64746 10.3828
c-0.727539 2.05078 -2.12207 4.72266 -3.09766 5.9375c-0.975586 1.21387 -3.15527 3.25977 -4.84375 4.5459c-1.6875 1.28516 -4.75586 2.93555 -6.81836 3.66602c-3.00293 1.06445 -5.55469 1.37207 -12.8125 1.5459zM499.976 442.5
c-0.224609 0 -5.44434 -4.53906 -11.5986 -10.0869s-17.0957 -15.584 -24.3145 -22.3037c-7.21875 -6.71875 -23.5439 -22.6406 -36.2783 -35.3809c-12.7344 -12.7412 -28.3438 -28.7949 -34.6875 -35.6748s-16.7373 -18.3613 -23.0967 -25.5137
s-11.5625 -13.2461 -11.5625 -13.54s5.20312 -6.3877 11.5625 -13.542c6.35938 -7.15332 17.1611 -19.0566 24.0039 -26.4512c6.84375 -7.39453 21.75 -22.7334 33.125 -34.0879c11.376 -11.3525 26.4277 -25.9443 33.4482 -32.4248
c7.02051 -6.47949 18.6484 -17.0186 25.8408 -23.4189c7.19043 -6.40039 13.3086 -11.6377 13.5957 -11.6377s6.37402 5.20312 13.5264 11.5625s18.6338 16.7529 25.5137 23.0967c6.87988 6.34277 22.2266 21.249 34.1035 33.125
c11.876 11.875 27.0391 27.4971 33.6953 34.7158c6.65527 7.21875 17.1885 18.8477 23.4053 25.8428c6.21777 6.99414 11.3047 12.9502 11.3047 13.2363c0 0.28418 -5.08691 6.23438 -11.3037 13.2197s-16.7441 18.6074 -23.3936 25.8262s-22.7979 23.8223 -35.8838 36.8955
c-13.0869 13.0742 -30.9658 30.3975 -39.7314 38.4961c-8.76562 8.09961 -19.2959 17.7236 -23.4014 21.3857c-4.10547 3.66309 -7.64844 6.66016 -7.87305 6.66016zM501.875 362.224c5.66602 -0.179688 9.47949 -0.679688 13.8799 -1.81836
c3.33691 -0.863281 8.53223 -2.77441 11.5449 -4.24609c3.01172 -1.4707 7.63477 -4.30273 10.2744 -6.29004c2.6377 -1.98828 6.28027 -5.23242 8.09375 -7.21094c1.81348 -1.97754 4.80859 -5.90918 6.65625 -8.73535c1.84668 -2.82715 4.20605 -7.18652 5.24414 -9.6875
c1.03711 -2.50195 2.49316 -6.93848 3.2373 -9.86035c1.11621 -4.38672 1.34277 -7.00098 1.29883 -15c-0.0429688 -7.7627 -0.313477 -10.6484 -1.36426 -14.5264c-0.72168 -2.66113 -1.99121 -6.52344 -2.82324 -8.58105
c-0.831055 -2.05859 -2.68164 -5.78711 -4.11133 -8.28613s-4.20801 -6.43555 -6.1709 -8.74805c-1.96484 -2.31348 -5.25977 -5.6416 -7.32227 -7.39746c-2.0625 -1.75488 -5.85938 -4.43848 -8.4375 -5.96289s-6.79688 -3.58496 -9.375 -4.5791
c-2.57812 -0.995117 -6.9375 -2.29102 -9.6875 -2.87988c-3.21191 -0.688477 -7.79395 -1.07227 -12.8125 -1.07227c-5.00977 0 -9.59375 0.382812 -12.7783 1.06738c-2.73047 0.586914 -7.50586 2.08301 -10.6104 3.32617
c-3.10547 1.24316 -8.0791 3.8877 -11.0537 5.87695s-7.4043 5.61328 -9.84277 8.05176c-2.43945 2.43945 -5.67383 6.31152 -7.18945 8.60449c-1.51465 2.29297 -3.59766 5.85645 -4.62891 7.91895s-2.58594 6.00684 -3.45605 8.76465
c-0.869141 2.75879 -1.92578 7.37793 -2.34863 10.2656c-0.46875 3.20508 -0.620117 7.8252 -0.389648 11.8604c0.208008 3.63477 0.933594 8.85938 1.6123 11.6094s2.08203 7.0459 3.11914 9.54785c1.03613 2.50098 3.47852 7.00098 5.42871 10
c1.94922 2.99805 5.68848 7.56348 8.30957 10.1436c2.62109 2.58105 6.33789 5.73047 8.25977 6.99902s5.4375 3.28027 7.8125 4.46973c2.375 1.19141 6.07324 2.75488 8.21875 3.47559c2.14453 0.720703 6.08203 1.72461 8.75 2.22949
c3.25293 0.617188 7.4209 0.837891 12.6621 0.670898zM279.664 199.91c-0.637695 0.694336 -1.84766 -0.65918 -6.70215 -7.5c-3.25781 -4.5918 -9.29395 -13.4102 -13.4131 -19.5977s-9.89844 -15.0908 -12.8428 -19.7852
c-2.94336 -4.69336 -8.03027 -13.1494 -11.3018 -18.79s-8.23633 -14.5967 -11.0332 -19.9033c-2.79688 -5.30566 -7.04199 -13.8262 -9.43262 -18.9355c-2.3916 -5.10938 -6.14844 -13.8281 -8.34863 -19.375c-2.20117 -5.54688 -5.15234 -13.8828 -6.55957 -18.5234
s-3.30762 -11.9531 -4.22168 -16.25c-1.40039 -6.58008 -1.66992 -9.43945 -1.70508 -18.125c-0.0322266 -8.16602 0.1875 -11.0518 1.05859 -13.8652c0.604492 -1.95312 2.01074 -4.73926 3.125 -6.19141c1.11328 -1.45117 3.01953 -3.43848 4.2334 -4.41602
c1.21484 -0.977539 3.88672 -2.37207 5.9375 -3.09961c2.50781 -0.888672 5.90918 -1.42871 10.3828 -1.64746c3.6709 -0.180664 9.41406 0.0146484 12.8125 0.433594c3.3877 0.417969 8.69043 1.31445 11.7842 1.99219s8.57812 2.08887 12.1875 3.13574
s9.65625 3.03711 13.4375 4.42188s10.8125 4.19629 15.625 6.24707s14.3135 6.51074 21.1133 9.91309c6.80078 3.40137 16.6357 8.61328 21.8555 11.582s13.2969 7.70508 17.9492 10.5244c4.65137 2.81934 12.5352 7.76074 17.5195 10.9814
c4.98438 3.21875 13.1406 8.65137 18.125 12.0703c4.98438 3.4209 11.4043 7.90137 14.2666 9.95703l5.20312 3.73926l-4.5752 4.14258c-2.51562 2.27832 -8.23242 7.49316 -12.7031 11.5889s-14.8789 13.8369 -23.1289 21.6465s-20.9062 20.2109 -28.125 27.5596
c-7.21875 7.34766 -17.4844 18 -22.8125 23.6709c-5.32812 5.67188 -14.0176 15.0898 -19.3096 20.9307c-5.29199 5.8418 -9.97266 11.001 -10.4014 11.4678zM721.072 200.615c-0.0742188 -0.00390625 -4.63477 -4.98242 -10.1348 -11.0625
c-5.5 -6.08105 -14.7734 -16.1309 -20.6074 -22.335s-16.2402 -17.0068 -23.125 -24.0049c-6.88477 -6.99902 -19.4082 -19.2549 -27.8301 -27.2354s-18.9697 -17.8643 -23.4404 -21.9629c-4.46973 -4.09863 -10.0557 -9.17871 -12.4131 -11.2881l-4.28613 -3.83594
l8.35156 -5.91211c4.59277 -3.25195 13.835 -9.5625 20.5381 -14.0244c6.70312 -4.46289 16.6631 -10.8682 22.1338 -14.2344s14.6113 -8.79688 20.3125 -12.0674s16.1318 -8.83691 23.1787 -12.3711s16.75 -8.10059 21.5625 -10.1494s11.8438 -4.8584 15.625 -6.24316
s9.82812 -3.375 13.4375 -4.42188s9.09375 -2.45801 12.1875 -3.13574s8.39648 -1.57422 11.7842 -1.99219c3.39844 -0.418945 9.1416 -0.614258 12.8125 -0.433594c4.47363 0.21875 7.875 0.758789 10.3828 1.64746c2.05078 0.727539 4.70508 2.11328 5.89941 3.0791
c1.19336 0.96582 2.96094 2.7334 3.92676 3.92676c0.96582 1.19434 2.35156 3.84863 3.0791 5.89941c0.888672 2.50781 1.42871 5.90918 1.64746 10.3828c0.180664 3.6709 -0.0146484 9.41406 -0.433594 12.8125c-0.417969 3.3877 -1.31445 8.69043 -1.99219 11.7842
s-2.08887 8.57812 -3.13574 12.1875s-3.03711 9.65625 -4.42188 13.4375s-4.19434 10.8125 -6.24414 15.625c-2.04883 4.8125 -6.54102 14.375 -9.98242 21.25c-3.44238 6.875 -9.19043 17.626 -12.7744 23.8896c-3.58301 6.26367 -9.33105 15.918 -12.7725 21.4512
c-3.44141 5.53516 -9.66504 15.1758 -13.8311 21.4238s-10.2119 15.0869 -13.4365 19.6416c-3.22363 4.55469 -5.92285 8.27734 -5.99805 8.27148v0z" />
  </g>

</svg>
