<?xml version="1.0" standalone="no"?>
<!DOCTYPE svg PUBLIC "-//W3C//DTD SVG 1.1//EN" "http://www.w3.org/Graphics/SVG/1.1/DTD/svg11.dtd" >
<svg xmlns="http://www.w3.org/2000/svg" xmlns:xlink="http://www.w3.org/1999/xlink" version="1.1" viewBox="-10 0 1010 1000">
  <g transform="matrix(1 0 0 -1 0 800)">
   <path fill="currentColor"
d="M504.375 737.146c9.79688 -0.125 21.75 -0.645508 26.5625 -1.15723c4.8125 -0.510742 11.7031 -1.36621 15.3125 -1.90039c3.60938 -0.533203 10.2188 -1.69531 14.6875 -2.58105c4.46875 -0.884766 12.3438 -2.69141 17.5 -4.0127
c5.15625 -1.32324 13.0312 -3.57617 17.5 -5.00781c4.46875 -1.43262 12.7656 -4.42383 18.4375 -6.65137c5.67188 -2.22559 16.2188 -6.95312 23.4375 -10.5029c7.21875 -3.55078 17.0625 -8.81738 21.875 -11.7031c4.8125 -2.88672 11 -6.75977 13.75 -8.60938
c2.75 -1.84863 8.09375 -5.63281 11.875 -8.40918s10.1094 -7.7373 14.0625 -11.0244c3.95312 -3.28613 10.4219 -9.00098 14.375 -12.6982s10.5176 -10.29 14.5879 -14.6494c4.06934 -4.35938 10.877 -12.2441 15.1279 -17.5225
c4.25098 -5.2793 10.3809 -13.4355 13.623 -18.125c3.24219 -4.69043 8.33008 -12.6064 11.3076 -17.5908s7.62207 -13.4219 10.3213 -18.75c2.7002 -5.32812 6.58398 -13.625 8.63184 -18.4375c2.04688 -4.8125 5.15918 -12.7246 6.91602 -17.582
c1.75684 -4.8584 4.47461 -13.2939 6.04004 -18.7451c1.56445 -5.45312 3.81152 -14.416 4.99219 -19.9189c1.18164 -5.50195 2.71191 -13.6602 3.40137 -18.1289c0.69043 -4.46875 1.69043 -12.2031 2.22461 -17.1875c0.533203 -4.98438 1.14258 -15.6719 1.35449 -23.75
c0.233398 -8.92188 0.0957031 -19.1035 -0.350586 -25.9375c-0.402344 -6.1875 -1.27246 -15.4688 -1.93359 -20.625c-0.660156 -5.15625 -1.92188 -13.3125 -2.80566 -18.125s-2.60547 -12.8281 -3.82715 -17.8125s-3.46289 -13.0635 -4.98047 -17.9541
c-1.5166 -4.88965 -4.58594 -13.6455 -6.81934 -19.4561l-4.0625 -10.5645l62.5664 -108.356c34.4111 -59.5957 63.3467 -109.903 64.3018 -111.794s2.44238 -5.6875 3.30664 -8.4375c0.863281 -2.75 1.92188 -7.19336 2.35156 -9.87402
c0.492188 -3.07324 0.647461 -7.5752 0.418945 -12.1875c-0.204102 -4.12305 -0.90918 -9.40625 -1.61523 -12.1104c-0.689453 -2.63867 -2.12207 -6.88086 -3.18066 -9.42578c-1.06055 -2.54688 -3.38867 -6.85645 -5.1748 -9.57812
c-1.78516 -2.72266 -5.36523 -7.08301 -7.9541 -9.69141c-2.58887 -2.60742 -6.39453 -5.87402 -8.45703 -7.25879c-2.0625 -1.38379 -5.71875 -3.50586 -8.125 -4.71484c-2.40625 -1.20996 -6.66113 -2.91992 -9.45605 -3.80078
c-2.79395 -0.881836 -7.99707 -1.9248 -11.5625 -2.31934c-5.8623 -0.647461 -11.5967 -0.381836 -60.002 2.7793c-29.4355 1.92188 -54.8311 3.49414 -56.4336 3.49414h-2.91211l-6.77051 -13.9062c-3.72363 -7.64844 -15.0684 -30.6406 -25.21 -51.0938
c-12.7441 -25.7002 -19.4004 -38.4424 -21.5498 -41.25c-1.71094 -2.23438 -4.90918 -5.84082 -7.10742 -8.01465s-5.87793 -5.20801 -8.17871 -6.74316c-2.30078 -1.53418 -6.34473 -3.78906 -8.98828 -5.01074c-2.64258 -1.2207 -7.43555 -2.88672 -10.6494 -3.70215
s-8.30957 -1.66797 -11.3242 -1.89453c-3.26367 -0.245117 -7.88281 -0.100586 -11.418 0.356445c-3.26562 0.421875 -8.1875 1.47363 -10.9375 2.33691s-6.96875 2.55859 -9.375 3.76855c-2.40625 1.20898 -6.0625 3.33105 -8.125 4.71484
c-2.0625 1.38477 -5.86523 4.65137 -8.44922 7.25879c-2.58496 2.6084 -5.9873 6.71094 -7.56055 9.11719c-1.57422 2.40625 -22.3711 38.1953 -46.2148 79.5312c-23.8447 41.3359 -43.5146 75.1562 -43.7119 75.1562c-0.196289 0 -19.8691 -33.8203 -43.7158 -75.1562
s-44.6436 -77.125 -46.2158 -79.5312s-4.97266 -6.50879 -7.55762 -9.11719c-2.58398 -2.60742 -6.38672 -5.87402 -8.44922 -7.25879c-2.0625 -1.38379 -5.71875 -3.50586 -8.125 -4.71484c-2.40625 -1.20996 -6.625 -2.90527 -9.375 -3.76855
s-7.67188 -1.91504 -10.9375 -2.33691c-3.53516 -0.457031 -8.1543 -0.601562 -11.418 -0.356445c-3.01465 0.226562 -8.11035 1.0791 -11.3242 1.89453s-7.98438 2.4707 -10.5986 3.67969c-2.61621 1.20801 -6.82617 3.62793 -9.35645 5.37695
c-2.53125 1.75 -6.23242 4.79395 -8.22754 6.76562c-1.99414 1.97266 -5.02539 5.41406 -6.7373 7.64844c-2.15723 2.81738 -8.95312 15.8408 -22.1758 42.5c-10.4863 21.1406 -21.8525 44.1758 -25.2598 51.1895l-6.19336 12.751l-7.63574 -0.396484
c-4.19922 -0.216797 -13.9639 -0.813477 -21.6982 -1.3252s-29.8125 -1.94824 -49.0625 -3.19336c-30.9873 -2.00488 -35.7139 -2.17969 -41.2246 -1.53027c-3.42383 0.40332 -8.48633 1.44629 -11.25 2.31836c-2.76367 0.871094 -6.99414 2.57324 -9.40039 3.7832
c-2.40625 1.20898 -6.0625 3.33105 -8.125 4.71484c-2.0625 1.38477 -5.86816 4.65137 -8.45703 7.25879c-2.58887 2.6084 -6.16895 6.96875 -7.9541 9.69141c-1.78613 2.72168 -4.11426 7.03125 -5.1748 9.57812c-1.05859 2.54492 -2.52051 6.78711 -3.24805 9.42578
c-1.10352 4.00586 -1.32227 6.54785 -1.32715 15.4219c-0.00488281 9.78125 0.128906 11.0723 1.69629 16.25c0.936523 3.09375 2.63672 7.59375 3.7793 10s30.2451 53.1455 64.6729 112.754l62.5967 108.379l-3.22363 8.18359
c-1.77344 4.50098 -4.56641 12.2617 -6.20605 17.2461s-3.98242 12.8594 -5.20605 17.5s-3.20312 13.3594 -4.39844 19.375c-1.19629 6.01562 -2.74902 15.5781 -3.4502 21.25c-0.702148 5.67188 -1.55566 14.5312 -1.89746 19.6875
c-0.34082 5.15625 -0.620117 14.0156 -0.620117 19.6875s0.279297 14.5312 0.620117 19.6875c0.341797 5.15625 1.19922 14.0156 1.90527 19.6875s2.12402 14.6719 3.15137 20c1.02637 5.32812 2.99609 14.0469 4.37598 19.375s4.16113 14.6094 6.17969 20.625
s5.29199 14.875 7.27441 19.6875s6.19141 13.9531 9.35352 20.3125s8.20117 15.6406 11.1992 20.625s7.57422 12.1562 10.1699 15.9375s6.40723 9.125 8.46973 11.875c2.06152 2.75 6.34961 8.12598 9.5293 11.9463s8.77539 10.1484 12.4365 14.0625
s9.94043 10.1816 13.9541 13.9268c4.01465 3.74609 10.3926 9.39258 14.1738 12.5488s9.82812 7.93457 13.4375 10.6172c3.60938 2.68359 10.0781 7.19629 14.375 10.0264c4.29688 2.83105 11.3281 7.18652 15.625 9.67773s11.6758 6.46484 16.3994 8.83105
c4.72266 2.36621 12.457 5.94922 17.1875 7.96191c4.72949 2.01367 12.5752 5.09766 17.4326 6.85449c4.8584 1.75684 13.2939 4.47461 18.7451 6.04004c5.45312 1.56445 14.5244 3.83691 20.1611 5.04883c5.63574 1.21191 14.7783 2.86914 20.3174 3.68262
c5.53809 0.814453 13.8662 1.79297 18.5068 2.17578c4.64062 0.381836 9.70312 0.799805 11.25 0.926758c1.54688 0.128906 10.8281 0.130859 20.625 0.00585938v0zM498.75 612.409c-4.98438 -0.0449219 -11.875 -0.324219 -15.3125 -0.62207
c-3.4375 -0.296875 -9.66602 -1.1123 -13.8398 -1.8125c-4.1748 -0.699219 -10.5029 -1.9707 -14.0625 -2.82422c-3.56055 -0.854492 -9.56641 -2.55957 -13.3477 -3.79004c-3.78125 -1.22949 -9.95801 -3.49316 -13.7266 -5.02832
c-3.76953 -1.53613 -9.83008 -4.31543 -13.4697 -6.17676s-9.80078 -5.36133 -13.6934 -7.77734c-3.8916 -2.41699 -10.2051 -6.74902 -14.0312 -9.62891c-3.8252 -2.87891 -10.1885 -8.18066 -14.1416 -11.7822c-3.95312 -3.60059 -9.71875 -9.41699 -12.8125 -12.9248
s-7.96484 -9.51172 -10.8252 -13.3418c-2.85938 -3.83008 -6.77441 -9.50586 -8.69824 -12.6133c-1.9248 -3.10645 -5.13281 -8.75586 -7.12891 -12.5527c-1.99707 -3.79688 -4.87109 -9.86523 -6.3877 -13.4854s-3.91016 -10.0762 -5.32031 -14.3467
c-1.40918 -4.27051 -3.3877 -11.2803 -4.39746 -15.5771c-1.01074 -4.29688 -2.28223 -10.7656 -2.82617 -14.375c-0.544922 -3.60938 -1.2666 -9.79688 -1.60449 -13.75c-0.336914 -3.95312 -0.612305 -10.7031 -0.612305 -15
c0.000976562 -4.29688 0.286133 -11.1875 0.635742 -15.3125c0.348633 -4.125 1.2002 -10.916 1.8916 -15.0898c0.692383 -4.1748 1.95703 -10.5029 2.81055 -14.0625c0.854492 -3.56055 2.55957 -9.56641 3.79004 -13.3477
c1.22949 -3.78125 3.45801 -9.87402 4.95117 -13.5391s3.8877 -9.00879 5.32129 -11.875c1.43457 -2.86621 4.69141 -8.72656 7.24023 -13.0234c2.54785 -4.29688 7.08496 -11.0977 10.084 -15.1133c2.99805 -4.0166 7.98242 -10.1719 11.0762 -13.6797
c3.09375 -3.50684 8.85938 -9.32324 12.8125 -12.9238c3.95312 -3.60156 10.3164 -8.90332 14.1416 -11.7822c3.82617 -2.87988 10.1543 -7.23242 14.0625 -9.6748c3.90918 -2.44141 11.3271 -6.50391 16.4834 -9.02734c5.15625 -2.52246 12.9561 -5.87207 17.3311 -7.44238
c4.37598 -1.57031 10.3369 -3.54492 13.2451 -4.38672c2.90918 -0.84375 8.6416 -2.24121 12.7402 -3.10645c4.09766 -0.865234 10.7939 -2.0166 14.8799 -2.55859s12.21 -1.15332 18.0537 -1.35938c6.34277 -0.223633 14.4033 -0.0693359 20 0.381836
c5.15625 0.415039 12.6094 1.30469 16.5625 1.97754c3.95312 0.671875 10.2812 1.95801 14.0625 2.85742c3.78125 0.900391 10.8945 3.00488 15.8076 4.67578c4.91211 1.67188 12.3799 4.59375 16.5938 6.49121c4.21387 1.89844 10.4609 5.02441 13.8809 6.94531
c3.41992 1.92188 9.31152 5.55273 13.0928 8.06836c3.78125 2.5166 9.96875 7.05371 13.75 10.083c3.78125 3.03027 10.3916 9.02441 14.6895 13.3223s10.29 10.9082 13.3154 14.6895s7.2959 9.54688 9.48828 12.8125c2.19336 3.26562 5.80078 9.10059 8.01855 12.9668
c2.2168 3.86523 5.60156 10.5146 7.52051 14.7764c1.91992 4.26074 4.78125 11.5039 6.36035 16.0957s3.68164 11.6514 4.67188 15.6885c0.991211 4.03613 2.37402 10.7861 3.07227 15c0.697266 4.21289 1.55469 11.0352 1.90332 15.1602
c0.349609 4.125 0.634766 11.0156 0.634766 15.3125s-0.289062 11.1875 -0.642578 15.3125s-1.06348 10.1719 -1.57812 13.4375c-0.513672 3.26562 -1.65332 9.17188 -2.53027 13.125c-0.87793 3.95312 -2.72559 10.7031 -4.10742 15s-3.7666 10.8955 -5.30078 14.6641
c-1.5332 3.76953 -4.31152 9.83008 -6.17285 13.4697s-5.36133 9.80078 -7.77734 13.6934c-2.41699 3.8916 -6.74707 10.2051 -9.62402 14.0312c-2.87598 3.8252 -8.31348 10.3291 -12.083 14.4541s-9.5918 9.89062 -12.9385 12.8125s-9.21484 7.65234 -13.041 10.5127
c-3.8252 2.85938 -9.49707 6.77441 -12.6045 8.69824c-3.10645 1.9248 -8.75586 5.13281 -12.5527 7.12891c-3.79688 1.99707 -9.86523 4.87109 -13.4854 6.3877s-10.0762 3.91016 -14.3467 5.32031c-4.27051 1.40918 -11.2803 3.3877 -15.5771 4.39746
c-4.29688 1.01074 -10.7656 2.28223 -14.375 2.82617c-3.60938 0.544922 -9.79688 1.2666 -13.75 1.60449c-3.95312 0.336914 -11.2656 0.577148 -16.25 0.533203zM299.024 185.756l-6.28906 5.27148l-19.1367 -33.1621
c-10.5244 -18.2373 -19.0615 -33.2363 -18.9697 -33.3281c0.0927734 -0.0917969 8.70312 0.393555 19.1348 1.07812c14.4619 0.950195 20.2402 1.10059 24.3203 0.636719c2.94434 -0.333984 7.00879 -1.04102 9.0332 -1.56934
c2.02246 -0.529297 5.53809 -1.69434 7.8125 -2.58984c2.27246 -0.895508 6.32812 -2.91992 9.01074 -4.5c2.68359 -1.58008 7.02441 -4.84863 9.64746 -7.26367s6.35645 -6.53125 8.29688 -9.14551c2.25 -3.03223 6.5498 -10.8955 11.8779 -21.7188
c4.59375 -9.33008 8.52539 -16.9648 8.7373 -16.9648s8.91211 14.7764 19.3359 32.8359c10.4219 18.0605 18.8438 32.9424 18.7139 33.0703c-0.130859 0.128906 -4.35645 1.7793 -9.39062 3.66797c-5.0332 1.88867 -12.2051 4.76172 -15.9375 6.38379
c-3.73145 1.62207 -10.5811 4.84961 -15.2217 7.17188s-11.9531 6.26074 -16.25 8.75195s-11.4141 6.90234 -15.8154 9.80176c-4.40039 2.89941 -11.291 7.75391 -15.3125 10.7871c-4.02051 3.03223 -10.1396 7.88574 -13.5977 10.7852zM707.036 190.467
c-0.369141 0.123047 -0.855469 -0.0732422 -1.08008 -0.436523s-4.73438 -4.12598 -10.0215 -8.36133c-5.28809 -4.23535 -12.6992 -9.86816 -16.4697 -12.5156c-3.77148 -2.64746 -11.0293 -7.38867 -16.1289 -10.5352
c-5.10059 -3.14648 -14.0547 -8.18359 -19.8984 -11.1924c-5.84375 -3.00977 -14.1416 -7.00195 -18.4395 -8.87207s-11.751 -4.87207 -16.5625 -6.6709c-4.81152 -1.79785 -8.85449 -3.36816 -8.98535 -3.48926c-0.129883 -0.12207 8.29199 -14.9971 18.7139 -33.0576
c10.4238 -18.0596 19.125 -32.8359 19.3369 -32.8359c0.212891 0 4.11816 7.5918 8.67773 16.8711s9.56738 18.6299 11.1279 20.7812c1.56055 2.15039 4.42188 5.5459 6.35938 7.54492c1.93652 1.99805 5.34961 4.99121 7.58398 6.64941s6.07715 4.03809 8.54102 5.28711
c2.46191 1.24902 6.11816 2.83887 8.125 3.5332c2.00488 0.693359 4.91211 1.54883 6.45898 1.90137c1.54688 0.351562 5.0625 0.899414 7.8125 1.21582c3.6748 0.423828 10.0391 0.246094 24.0078 -0.668945c10.4551 -0.683594 19.085 -1.16895 19.1768 -1.07617
c0.0927734 0.0927734 -8.34375 14.9141 -18.748 32.9365s-19.2188 32.8691 -19.5879 32.9912z" />
  </g>

</svg>
