<?xml version="1.0" standalone="no"?>
<!DOCTYPE svg PUBLIC "-//W3C//DTD SVG 1.1//EN" "http://www.w3.org/Graphics/SVG/1.1/DTD/svg11.dtd" >
<svg xmlns="http://www.w3.org/2000/svg" xmlns:xlink="http://www.w3.org/1999/xlink" version="1.1" viewBox="-10 0 1010 1000">
  <g transform="matrix(1 0 0 -1 0 800)">
   <path fill="currentColor"
d="M626.875 674.79l257.812 -0.102539l6.06738 -1.67578c3.33691 -0.921875 8.53223 -2.88086 11.5449 -4.35254c3.01172 -1.4707 7.63477 -4.30273 10.2744 -6.29004c2.6377 -1.98828 6.28027 -5.23242 8.09375 -7.21094
c1.81348 -1.97754 4.82422 -5.93359 6.69141 -8.79102c1.86719 -2.85645 4.31836 -7.49707 5.44922 -10.3125c1.12988 -2.81445 2.57715 -7.36719 3.2168 -10.1172c1.125 -4.83984 1.16211 -15.2529 1.16211 -325.938c0 -310.685 -0.0371094 -321.098 -1.16211 -325.938
c-0.639648 -2.75 -2.08691 -7.30273 -3.2168 -10.1172c-1.13086 -2.81543 -3.58203 -7.45605 -5.44922 -10.3125c-1.86719 -2.85742 -4.87793 -6.81348 -6.69141 -8.79102c-1.81348 -1.97852 -5.45605 -5.22266 -8.09375 -7.21094
c-2.63965 -1.9873 -7.2627 -4.81934 -10.2744 -6.29004c-3.0127 -1.47168 -8.20801 -3.43066 -11.5449 -4.35254l-6.06738 -1.67578l-257.188 -0.162109c-227.789 -0.143555 -257.817 -0.0537109 -262.696 0.788086c-3.03027 0.522461 -7.24902 1.53516 -9.375 2.25
s-5.80957 2.27246 -8.18457 3.46387c-2.375 1.18945 -5.89062 3.17676 -7.8125 4.41504c-2.2666 1.45996 -52.7002 51.4521 -143.564 142.311c-91.2871 91.2803 -141.381 141.81 -143.831 145.08c-2.06836 2.76172 -5.04785 7.01172 -6.62109 9.44434
c-1.57324 2.43164 -4.38574 7.48535 -6.24805 11.2285c-1.86328 3.74316 -4.41016 9.54492 -5.65918 12.8926s-3.0791 9.39453 -4.06641 13.4375c-0.986328 4.04297 -2.16211 10.0234 -2.60938 13.2891c-0.448242 3.26562 -0.81543 10.5781 -0.81543 16.25
s0.367188 12.9844 0.81543 16.25c0.447266 3.26562 1.62305 9.24609 2.60938 13.2891c0.987305 4.04297 2.81445 10.0898 4.06055 13.4375s3.76172 9.10254 5.5918 12.7891s4.64453 8.74023 6.25391 11.2295c1.61035 2.48926 4.61914 6.78516 6.6875 9.54688
c2.45215 3.27539 52.4463 53.7041 143.831 145.079c90.8193 90.8115 141.301 140.852 143.565 142.312c1.92188 1.23828 5.4375 3.22559 7.8125 4.41504c2.375 1.19141 6.07324 2.75488 8.21875 3.47559c2.14453 0.720703 6.08203 1.70703 8.75 2.19043
c4.12305 0.748047 43.4404 0.864258 262.662 0.776367h0.000976562zM606.718 550h-205.781l-124.998 -125l-124.999 -125l124.999 -125l124.998 -125h205.781h205.782v250v250h-205.782zM439.375 487.224c5.66602 -0.179688 9.47949 -0.679688 13.8799 -1.81836
c3.33691 -0.863281 8.49707 -2.75684 11.4668 -4.20801c2.96973 -1.4502 7.12988 -3.8916 9.24512 -5.42383s22.8984 -21.8057 46.1855 -45.0508l42.3389 -42.2637l42.9736 42.8506c26.0703 25.9961 44.3467 43.7402 46.4668 45.1133
c1.92188 1.24316 5.4375 3.23535 7.8125 4.4248c2.375 1.19141 6.05859 2.74902 8.18457 3.46387s6.48535 1.75684 9.6875 2.31738c4.16113 0.726562 7.78223 0.918945 12.6963 0.670898c4.23535 -0.211914 9.2041 -0.944336 12.9424 -1.90527
c3.33691 -0.857422 8.53223 -2.76367 11.5449 -4.23535c3.01172 -1.4707 7.63477 -4.30273 10.2744 -6.29004c2.6377 -1.98828 6.28027 -5.23242 8.09375 -7.21094c1.81348 -1.97754 4.80859 -5.90918 6.65625 -8.73535c1.84668 -2.82715 4.20605 -7.18652 5.24414 -9.6875
c1.03711 -2.50195 2.48926 -6.93848 3.22754 -9.86035c1.06738 -4.22266 1.3418 -7.1709 1.3418 -14.375s-0.274414 -10.1523 -1.3418 -14.375c-0.738281 -2.92188 -2.19043 -7.3584 -3.22754 -9.86035c-1.03809 -2.50098 -3.47266 -7.00098 -5.41113 -10
c-3.00879 -4.65234 -9.76758 -11.7041 -46.1123 -48.1084l-42.5859 -42.6562l42.5859 -42.6562c36.3447 -36.4043 43.1035 -43.4561 46.1123 -48.1084c1.93848 -2.99902 4.37305 -7.49902 5.41113 -10c1.03711 -2.50195 2.48926 -6.93848 3.22754 -9.86035
c1.06738 -4.22266 1.3418 -7.1709 1.3418 -14.375s-0.274414 -10.1523 -1.3418 -14.375c-0.738281 -2.92188 -2.19043 -7.3584 -3.22754 -9.86035c-1.03809 -2.50098 -3.39746 -6.86035 -5.24414 -9.6875c-1.84766 -2.82617 -4.84277 -6.75781 -6.65625 -8.73535
c-1.81348 -1.97852 -5.45605 -5.22266 -8.09375 -7.21094c-2.63965 -1.9873 -7.2627 -4.81934 -10.2744 -6.29004c-3.0127 -1.47168 -8.20801 -3.37793 -11.5449 -4.23535c-3.73828 -0.960938 -8.70703 -1.69336 -12.9424 -1.90527
c-4.91406 -0.248047 -8.53516 -0.0556641 -12.6963 0.670898c-3.20215 0.560547 -7.56152 1.60254 -9.6875 2.31738s-5.80957 2.27246 -8.18457 3.46387c-2.375 1.18945 -5.89062 3.18164 -7.8125 4.4248c-2.12012 1.37305 -20.3965 19.1172 -46.4668 45.1133
l-42.9736 42.8506l-42.3389 -42.2637c-23.2871 -23.2451 -44.0703 -43.5186 -46.1855 -45.0508s-6.27539 -3.97363 -9.24512 -5.42383c-2.96973 -1.45117 -8.12988 -3.33984 -11.4668 -4.19727c-3.73828 -0.960938 -8.70703 -1.69336 -12.9424 -1.90527
c-4.91406 -0.248047 -8.53516 -0.0556641 -12.6963 0.670898c-3.20215 0.560547 -7.56152 1.60254 -9.6875 2.31738s-5.80957 2.27246 -8.18457 3.46387c-2.375 1.18945 -5.89062 3.20117 -7.8125 4.46973s-5.63867 4.41797 -8.25977 6.99902
c-2.62109 2.58008 -6.36035 7.14551 -8.30957 10.1436c-1.9502 2.99902 -4.39258 7.49902 -5.43066 10c-1.03711 2.50195 -2.48926 6.93848 -3.22754 9.86035c-1.06738 4.22266 -1.3418 7.1709 -1.3418 14.375s0.274414 10.1523 1.3418 14.375
c0.738281 2.92188 2.19043 7.3584 3.22754 9.86035c1.03809 2.50098 3.47266 7.00098 5.41113 10c3.00879 4.65234 9.76758 11.7041 46.1123 48.1084l42.5859 42.6562l-42.5859 42.6562c-36.3447 36.4043 -43.1035 43.4561 -46.1123 48.1084
c-1.93848 2.99902 -4.37305 7.49902 -5.41113 10c-1.03711 2.50195 -2.48926 6.93848 -3.22754 9.86035c-1.06738 4.22266 -1.3418 7.1709 -1.3418 14.375s0.274414 10.1523 1.3418 14.375c0.738281 2.92188 2.19043 7.3584 3.22754 9.86035
c1.03809 2.50098 3.48047 7.00098 5.43066 10c1.94922 2.99805 5.68848 7.56348 8.30957 10.1436c2.62109 2.58105 6.33789 5.73047 8.25977 6.99902s5.4375 3.28027 7.8125 4.46973c2.375 1.19141 6.07324 2.75488 8.21875 3.47559
c2.14453 0.720703 6.08203 1.72461 8.75 2.22949c3.25293 0.617188 7.4209 0.837891 12.6621 0.670898z" />
  </g>

</svg>
