<?xml version="1.0" standalone="no"?>
<!DOCTYPE svg PUBLIC "-//W3C//DTD SVG 1.1//EN" "http://www.w3.org/Graphics/SVG/1.1/DTD/svg11.dtd" >
<svg xmlns="http://www.w3.org/2000/svg" xmlns:xlink="http://www.w3.org/1999/xlink" version="1.1" viewBox="-10 0 1010 1000">
  <g transform="matrix(1 0 0 -1 0 800)">
   <path fill="currentColor"
d="M617.188 674.734l-0.000976562 -0.000976562c39.7832 -0.12793 62.5586 -0.435547 66.25 -0.894531c3.09375 -0.385742 8.8584 -1.15137 12.8125 -1.70312c3.95312 -0.551758 11.9111 -1.97852 17.6846 -3.1709s14.8584 -3.41992 20.1875 -4.9502
c5.33008 -1.5293 13.1377 -4.03027 17.3506 -5.55859c4.21387 -1.52637 10.8789 -4.15625 14.8125 -5.84277s11.1094 -5.05078 15.9463 -7.47559c4.83594 -2.4248 11.5859 -6.01855 15 -7.98633c3.41309 -1.96777 9.38477 -5.67285 13.2705 -8.23438
c3.88574 -2.5625 9.93262 -6.78906 13.4375 -9.39258c3.50391 -2.60352 9.60742 -7.42871 13.5605 -10.7207c3.95312 -3.29297 11.6973 -10.4883 17.21 -15.9893c5.51172 -5.50195 12.9365 -13.502 16.498 -17.7783c3.56152 -4.27734 8.50488 -10.502 10.9834 -13.833
c2.47949 -3.33203 6.15234 -8.55176 8.16211 -11.5996s5.44434 -8.49512 7.63086 -12.1045c2.1875 -3.60938 6.71191 -12.0469 10.0547 -18.75c3.3418 -6.70312 7.57617 -15.9844 9.41016 -20.625c1.83203 -4.64062 4.58496 -12.2344 6.11719 -16.875
c1.53125 -4.64062 3.85254 -12.6562 5.1582 -17.8125s3.10742 -13.4531 4.00391 -18.4375c0.895508 -4.98438 2.04492 -12.3008 2.55176 -16.2598c0.507812 -3.95898 1.25 -11.834 1.64941 -17.5c0.4375 -6.21191 0.577148 -15.8867 0.349609 -24.3652
c-0.207031 -7.73438 -0.807617 -17.8594 -1.33496 -22.5s-1.52734 -11.9531 -2.22266 -16.25c-0.694336 -4.29688 -2.1084 -11.5977 -3.14062 -16.2246c-1.0332 -4.62695 -2.99023 -12.2588 -4.34766 -16.96c-1.3584 -4.7002 -3.85449 -12.3301 -5.54492 -16.9551
c-1.69141 -4.625 -4.26074 -11.1963 -5.70898 -14.6035c-1.44922 -3.40723 -4.70898 -10.3389 -7.24414 -15.4053c-2.53613 -5.06641 -6.48242 -12.3789 -8.77148 -16.25c-2.28809 -3.87109 -6.12695 -9.99219 -8.53027 -13.6016s-6.2627 -9.11914 -8.57715 -12.2441
c-2.31348 -3.125 -7.11719 -9.17188 -10.6748 -13.4375s-10.9746 -12.2559 -16.4814 -17.7559s-12.8252 -12.3428 -16.2627 -15.2051c-3.4375 -2.86328 -8.93457 -7.26465 -12.2148 -9.78125s-9.74902 -7.0957 -14.375 -10.1758s-11.2041 -7.20996 -14.6191 -9.17871
c-3.41602 -1.96875 -10.3066 -5.62988 -15.3125 -8.13574c-5.00684 -2.50586 -11.8906 -5.74121 -15.2979 -7.19043c-3.40723 -1.44824 -9.97852 -4.01758 -14.6035 -5.70898c-4.625 -1.69043 -12.2549 -4.18652 -16.9551 -5.54492
c-4.70117 -1.35742 -12.333 -3.3125 -16.96 -4.34375s-10.8027 -2.28418 -13.7246 -2.78516c-2.92188 -0.5 -8.82812 -1.35449 -13.125 -1.89746s-11.75 -1.26758 -16.5625 -1.6084c-5.51074 -0.391602 -80.9424 -0.623047 -203.739 -0.625977l-194.989 -0.00585938
l42.5859 -42.6562c36.3447 -36.4043 43.1035 -43.4561 46.1123 -48.1084c1.93848 -2.99902 4.37305 -7.49902 5.41113 -10c1.03711 -2.50195 2.48926 -6.93848 3.22754 -9.86035c1.06738 -4.22266 1.3418 -7.1709 1.3418 -14.375s-0.274414 -10.1523 -1.3418 -14.375
c-0.738281 -2.92188 -2.19043 -7.3584 -3.22754 -9.86035c-1.03809 -2.50098 -3.39746 -6.86035 -5.24414 -9.6875c-1.84766 -2.82617 -4.84277 -6.75781 -6.65625 -8.73535c-1.81348 -1.97852 -5.45605 -5.22266 -8.09375 -7.21094
c-2.63965 -1.9873 -7.2627 -4.81934 -10.2744 -6.29004c-3.0127 -1.47168 -8.20801 -3.40234 -11.5449 -4.29102c-5.11035 -1.35938 -7.49805 -1.62402 -15.1299 -1.67578c-6.7793 -0.0458984 -10.3223 0.229492 -14.0625 1.0957
c-2.75 0.635742 -7.10938 2.02441 -9.6875 3.08594s-6.375 2.90527 -8.4375 4.09766c-2.0625 1.19336 -5.43652 3.51172 -7.5 5.15332c-2.0625 1.64258 -47.3691 46.6689 -100.682 100.059c-85.4287 85.5527 -97.3223 97.6924 -100.216 102.288
c-1.80664 2.86719 -4.11816 7.22656 -5.13867 9.6875c-1.02051 2.45996 -2.45898 6.86328 -3.19727 9.78516c-1.06738 4.22266 -1.3418 7.1709 -1.3418 14.375s0.274414 10.1523 1.3418 14.375c0.738281 2.92188 2.17676 7.3252 3.19727 9.78516
c1.02051 2.46094 3.33203 6.82031 5.13867 9.6875c2.89355 4.59473 14.7871 16.7354 100.216 102.288c53.3125 53.3896 98.6191 98.4092 100.682 100.042c2.0625 1.63379 5.24609 3.875 7.0752 4.97949c1.82812 1.10449 5.625 2.95605 8.4375 4.1123
c2.81152 1.15527 7.3623 2.62305 10.1123 3.25977c3.74414 0.867188 7.27734 1.14258 14.0625 1.09668c7.59473 -0.0517578 10.0283 -0.319336 15.0312 -1.65137c3.2832 -0.874023 8.06445 -2.5918 10.625 -3.81836c2.56152 -1.22559 6.48438 -3.43066 8.71875 -4.89941
c2.23438 -1.46777 6.20703 -4.78516 8.82812 -7.36914c2.62109 -2.58496 6.36035 -7.1543 8.30957 -10.1523c1.9502 -2.99902 4.39258 -7.49902 5.43066 -10c1.03711 -2.50195 2.48926 -6.93848 3.22754 -9.86035c1.06738 -4.22266 1.3418 -7.1709 1.3418 -14.375
s-0.274414 -10.1523 -1.3418 -14.375c-0.738281 -2.92188 -2.19043 -7.3584 -3.22754 -9.86035c-1.03809 -2.50098 -3.47266 -7.00098 -5.41113 -10c-3.00879 -4.65332 -9.76953 -11.7051 -46.1221 -48.1182l-42.5957 -42.666l197.812 0.185547
c182.77 0.171875 198.302 0.266602 204.252 1.24902c3.54102 0.584961 9.67676 1.79004 13.6348 2.67773s10.9043 2.875 15.4355 4.41797c4.53223 1.54199 12.458 4.87207 17.6143 7.40137s12.75 6.8252 16.875 9.54688c4.125 2.7207 9.60938 6.63574 12.1875 8.69824
c2.57812 2.06348 7.05859 5.97949 9.95508 8.70312c2.89746 2.72266 7.92285 8.04492 11.1689 11.8262c3.24609 3.78223 8.42969 10.6719 11.5195 15.3125c3.08789 4.64062 7.67188 12.6562 10.1855 17.8125c2.51367 5.15723 5.83203 13.0479 7.37402 17.5361
c1.54199 4.4873 3.53809 11.4326 4.43555 15.4336s2.09863 10.3135 2.6709 14.0283c0.748047 4.86035 1.03906 10.8682 1.03906 21.4395c0 10.5723 -0.291016 16.5791 -1.03906 21.4404c-0.572266 3.71484 -1.76562 9.99121 -2.65332 13.9482
c-0.887695 3.95801 -2.875 10.9033 -4.41797 15.4346c-1.54199 4.5332 -4.87207 12.459 -7.40137 17.6143c-2.5293 5.15625 -6.8252 12.75 -9.54688 16.875c-2.7207 4.125 -6.72656 9.75 -8.90137 12.5s-7.6377 8.66113 -12.1406 13.1357
c-4.50195 4.47363 -11.4199 10.5586 -15.373 13.5225s-9.85938 7.01855 -13.125 9.00977c-3.26562 1.99023 -9.59375 5.37598 -14.0625 7.52246c-4.46973 2.14648 -11.5 5.06836 -15.625 6.49219c-4.125 1.4248 -10.875 3.39746 -15 4.38379
c-4.125 0.985352 -10.4531 2.28125 -14.0625 2.87891c-5.77441 0.956055 -13.7314 1.13477 -66.25 1.48438c-58.1602 0.386719 -59.8154 0.431641 -64.7041 1.72266c-2.75879 0.728516 -6.83691 2.10645 -9.0625 3.0625c-2.22559 0.955078 -5.7334 2.70605 -7.7959 3.8916
c-2.0625 1.18457 -5.49219 3.52832 -7.62207 5.20801c-2.13086 1.67871 -5.19922 4.51758 -6.81934 6.30762c-1.62012 1.78906 -4.46094 5.56738 -6.3125 8.39355c-1.85156 2.82715 -4.21387 7.18652 -5.25195 9.6875c-1.03711 2.50195 -2.48926 6.93848 -3.22754 9.86035
c-1.06738 4.22266 -1.3418 7.1709 -1.3418 14.375s0.274414 10.1523 1.3418 14.375c0.738281 2.92188 2.19043 7.3584 3.22754 9.86035c1.03809 2.50098 3.48047 7.00098 5.43066 10c1.94922 2.99805 5.68848 7.56348 8.30957 10.1436
c2.62109 2.58105 6.44922 5.80469 8.50586 7.16211c2.05762 1.35938 5.57324 3.37109 7.8125 4.47168c2.24023 1.10059 5.82715 2.59082 7.97266 3.31152c2.14453 0.719727 6.08203 1.71387 8.75 2.20801c4.05078 0.75 14.8311 0.865234 65.4746 0.702148z" />
  </g>

</svg>
