<?xml version="1.0" standalone="no"?>
<!DOCTYPE svg PUBLIC "-//W3C//DTD SVG 1.1//EN" "http://www.w3.org/Graphics/SVG/1.1/DTD/svg11.dtd" >
<svg xmlns="http://www.w3.org/2000/svg" xmlns:xlink="http://www.w3.org/1999/xlink" version="1.1" viewBox="-10 0 1010 1000">
  <g transform="matrix(1 0 0 -1 0 800)">
   <path fill="currentColor"
d="M314.375 674.724l0.000976562 0.000976562c5.66602 -0.179688 9.47949 -0.679688 13.8799 -1.81836c3.33691 -0.863281 8.53223 -2.77441 11.5449 -4.24609c3.01172 -1.4707 7.63477 -4.30273 10.2744 -6.29004c2.6377 -1.98828 6.28027 -5.23242 8.09375 -7.21094
c1.81348 -1.97754 4.80859 -5.90918 6.65625 -8.73535c1.84668 -2.82715 4.20605 -7.18652 5.24414 -9.6875c1.03711 -2.50195 2.48926 -6.93848 3.22754 -9.86035c1.06738 -4.22266 1.3418 -7.1709 1.3418 -14.375s-0.274414 -10.1523 -1.3418 -14.375
c-0.738281 -2.92188 -2.19043 -7.3584 -3.22754 -9.86035c-1.03809 -2.50098 -3.47266 -7.00098 -5.41113 -10c-3.00879 -4.65234 -9.7666 -11.7031 -46.0986 -48.0947l-42.5713 -42.6416l200.912 -0.214844c148.418 -0.158203 202.383 -0.405273 206.538 -0.944336
c3.09375 -0.401367 8.85938 -1.18164 12.8125 -1.7334c3.95312 -0.552734 11.2656 -1.83496 16.25 -2.84863s11.7344 -2.54883 15 -3.41211s9.59375 -2.70898 14.0625 -4.10059c4.46777 -1.39258 12.4844 -4.25098 17.8125 -6.35254s14.6094 -6.25 20.625 -9.21973
c6.01562 -2.96875 13.75 -7.02441 17.1875 -9.01172c3.4375 -1.98828 9.42871 -5.71094 13.3145 -8.27246c3.88574 -2.5625 9.93262 -6.78906 13.4375 -9.39258s9.60742 -7.42871 13.5605 -10.7207c3.95312 -3.29297 11.6973 -10.4883 17.21 -15.9893
c5.51172 -5.50195 12.9365 -13.502 16.498 -17.7783c3.56152 -4.27734 8.50488 -10.502 10.9834 -13.833c2.47949 -3.33203 6.15234 -8.55176 8.16211 -11.5996s5.44434 -8.49512 7.63086 -12.1045c2.1875 -3.60938 6.71191 -12.0469 10.0547 -18.75
c3.3418 -6.70312 7.57812 -15.9844 9.41309 -20.625s4.66992 -12.5156 6.30078 -17.5c1.62988 -4.98438 3.97656 -13.1406 5.21191 -18.125c1.23633 -4.98438 2.97266 -13 3.8584 -17.8125c0.884766 -4.8125 2.20898 -13.6719 2.94336 -19.6875
c1.09961 -9.02734 1.33496 -14.4297 1.34863 -30.9375c0.0126953 -15.1084 -0.248047 -22.2402 -1.06543 -29.1592c-0.594727 -5.03809 -1.64648 -12.6318 -2.33691 -16.875c-0.691406 -4.24414 -2.10059 -11.501 -3.13281 -16.1279
c-1.0332 -4.62695 -2.98926 -12.2588 -4.34668 -16.96c-1.3584 -4.7002 -3.85449 -12.3301 -5.54492 -16.9551c-1.69141 -4.625 -4.26074 -11.1963 -5.70898 -14.6035c-1.44922 -3.4082 -4.70898 -10.3389 -7.24414 -15.4053
c-2.53613 -5.06641 -6.48242 -12.3789 -8.77148 -16.25c-2.28809 -3.87109 -6.05664 -9.90234 -8.37402 -13.4023c-2.31836 -3.5 -6.17773 -9.00977 -8.57715 -12.2441s-7.27344 -9.37109 -10.8311 -13.6367s-10.9746 -12.2559 -16.4814 -17.7559
s-12.8252 -12.3428 -16.2627 -15.2051c-3.4375 -2.86328 -8.93457 -7.26465 -12.2148 -9.78125s-9.74902 -7.0957 -14.375 -10.1758s-11.2041 -7.20996 -14.6191 -9.17871c-3.41602 -1.96875 -10.3428 -5.64941 -15.3936 -8.17871
c-5.05078 -2.53027 -12.5225 -6.00293 -16.6035 -7.7168c-4.08008 -1.71387 -10.6533 -4.27246 -14.6064 -5.68359c-3.95312 -1.41211 -10.9961 -3.66992 -15.6504 -5.01855s-12.248 -3.29492 -16.875 -4.32617s-10.8027 -2.28418 -13.7246 -2.78516
c-2.92188 -0.5 -8.82812 -1.35449 -13.125 -1.89746s-11.75 -1.26758 -16.5625 -1.6084s-33.1123 -0.623047 -62.8867 -0.625977c-45.6816 -0.00488281 -54.9893 0.142578 -59.5918 0.945312c-3 0.523438 -7.18555 1.53223 -9.30078 2.24219
c-2.11523 0.710938 -5.67773 2.19336 -7.91797 3.29395c-2.23926 1.10059 -5.75488 3.1123 -7.8125 4.47168c-2.05664 1.35742 -5.88477 4.58105 -8.50586 7.16211c-2.62109 2.58008 -6.36035 7.14551 -8.30957 10.1436c-1.9502 2.99902 -4.39258 7.49902 -5.43066 10
c-1.03711 2.50195 -2.48926 6.93848 -3.22754 9.86035c-1.06738 4.22266 -1.3418 7.1709 -1.3418 14.375s0.274414 10.1523 1.3418 14.375c0.738281 2.92188 2.19043 7.3584 3.22754 9.86035c1.03809 2.50098 3.40039 6.86035 5.25195 9.6875
c1.85156 2.82617 4.69238 6.60449 6.3125 8.39355c1.62012 1.79004 4.68848 4.62891 6.81934 6.30762c2.12988 1.67969 5.55957 4.02344 7.62207 5.20801c2.0625 1.18555 5.57031 2.93652 7.7959 3.8916c2.22559 0.956055 6.30371 2.33496 9.0625 3.06348
c4.88867 1.29297 6.53613 1.33691 64.3916 1.72754c50.8281 0.341797 60.3018 0.548828 65.8154 1.43164c3.54102 0.568359 9.71289 1.7666 13.7148 2.66406c4.00098 0.897461 10.9473 2.89355 15.4346 4.43555c4.48828 1.54199 12.3789 4.86035 17.5352 7.37402
s13.1719 7.09961 17.8125 10.1914s10.6875 7.52148 13.4375 9.84375s6.79102 5.94043 8.98047 8.04004c2.19043 2.09961 6.65332 6.91113 9.91992 10.6924c3.26562 3.78125 8.46582 10.6719 11.5557 15.3125c3.08887 4.64062 7.67285 12.6562 10.1865 17.8125
s5.83203 13.0469 7.37402 17.5352c1.54199 4.4873 3.53809 11.4326 4.43555 15.4336s2.0957 10.3135 2.66211 14.0283c0.733398 4.80469 1.03418 10.9902 1.04199 21.4404c0.0078125 10.6416 -0.276367 16.5479 -1.03027 21.4404
c-0.573242 3.71484 -1.76855 9.99121 -2.65625 13.9482c-0.887695 3.95801 -2.875 10.9033 -4.41797 15.4346c-1.54199 4.53223 -4.87207 12.458 -7.40137 17.6143s-6.8252 12.75 -9.54688 16.875c-2.7207 4.125 -6.72656 9.75 -8.90137 12.5
s-7.6377 8.66016 -12.1406 13.1348c-4.50293 4.47363 -11.4209 10.5586 -15.374 13.5225s-9.85938 7.01855 -13.125 9.00977c-3.26562 1.99023 -9.59375 5.37598 -14.0625 7.52246s-11.5 5.06836 -15.625 6.49219c-4.125 1.4248 -10.875 3.39746 -15 4.38379
c-4.125 0.985352 -10.4531 2.29688 -14.0625 2.91211c-6.19824 1.05762 -17.5977 1.12988 -204.688 1.2998l-198.125 0.181641l42.5967 -42.667c36.3535 -36.4141 43.1143 -43.4668 46.123 -48.1191c1.93848 -2.99902 4.37305 -7.49902 5.41113 -10
c1.03711 -2.50195 2.48926 -6.93848 3.22754 -9.86035c1.06738 -4.22266 1.3418 -7.1709 1.3418 -14.375s-0.274414 -10.1523 -1.3418 -14.375c-0.738281 -2.92188 -2.19043 -7.3584 -3.22754 -9.86035c-1.03809 -2.50098 -3.48047 -7.00098 -5.43066 -10
c-1.94922 -2.99805 -5.68848 -7.56738 -8.30957 -10.1523c-2.62109 -2.58398 -6.59375 -5.90137 -8.82812 -7.36914c-2.23438 -1.46875 -6.15723 -3.67383 -8.71875 -4.89941c-2.56055 -1.22656 -7.3418 -2.94434 -10.625 -3.81836
c-5.00293 -1.33203 -7.43652 -1.59961 -15.0312 -1.65137c-6.78516 -0.0458984 -10.3184 0.229492 -14.0625 1.09668c-2.75 0.636719 -7.30078 2.10449 -10.1123 3.25977c-2.8125 1.15625 -6.60938 3.00684 -8.4375 4.1123c-1.8291 1.10449 -5.0127 3.3457 -7.0752 4.97949
c-2.0625 1.63281 -47.3691 46.6523 -100.682 100.042c-85.4287 85.5527 -97.3223 97.6924 -100.216 102.288c-1.80664 2.86719 -4.11816 7.22656 -5.13867 9.6875c-1.02051 2.45996 -2.45898 6.86328 -3.19727 9.78516c-1.06738 4.22266 -1.3418 7.1709 -1.3418 14.375
s0.274414 10.1523 1.3418 14.375c0.738281 2.92188 2.19043 7.3584 3.22754 9.86035c1.03809 2.50098 3.46973 7.00098 5.4043 10c3.10742 4.81445 15.0176 16.9453 102.061 103.946c63.1729 63.1426 99.7949 99.3027 102.035 100.748
c1.92188 1.23926 5.4375 3.22754 7.8125 4.41699c2.375 1.19141 6.07324 2.75488 8.21875 3.47559c2.14453 0.720703 6.08203 1.72461 8.75 2.22949c3.25293 0.617188 7.4209 0.837891 12.6621 0.670898z" />
  </g>

</svg>
