<?xml version="1.0" standalone="no"?>
<!DOCTYPE svg PUBLIC "-//W3C//DTD SVG 1.1//EN" "http://www.w3.org/Graphics/SVG/1.1/DTD/svg11.dtd" >
<svg xmlns="http://www.w3.org/2000/svg" xmlns:xlink="http://www.w3.org/1999/xlink" version="1.1" viewBox="-10 0 1010 1000">
  <g transform="matrix(1 0 0 -1 0 800)">
   <path fill="currentColor"
d="M503.438 737.146c7.5625 -0.133789 16.8438 -0.669922 20.625 -1.19238c3.78027 -0.522461 9.80859 -1.54199 13.3936 -2.26367c3.58496 -0.722656 9.43066 -2.13184 12.9902 -3.13184c3.55957 -0.999023 10.0479 -3.10254 14.418 -4.6748
c4.37109 -1.57227 12.166 -4.92578 17.3232 -7.45312c5.15625 -2.52734 12.5732 -6.58691 16.4834 -9.02051c3.9082 -2.43457 10.2354 -6.78418 14.0625 -9.66797c3.8252 -2.88281 10.0479 -8.05371 13.8291 -11.4912c3.78125 -3.43652 9.44727 -9.16016 12.5918 -12.7197
c3.14355 -3.55859 7.25 -8.43848 9.125 -10.8447c1.87402 -2.40625 5.36914 -7.32715 7.76758 -10.9375c2.39746 -3.60938 5.81055 -9.11914 7.58398 -12.2432c1.77344 -3.12598 4.52051 -8.46973 6.10449 -11.875c1.58301 -3.40625 3.97754 -9.07617 5.31934 -12.6006
c1.34375 -3.52441 3.39941 -9.57129 4.57129 -13.4375c1.1709 -3.86621 2.86426 -10.6045 3.76367 -14.9717c0.898438 -4.36719 2.04297 -11.0439 2.54395 -14.8369c0.5 -3.79395 1.09961 -10.6895 1.33203 -15.3213l0.422852 -8.42578l67.25 -0.180664l67.248 -0.180664
l6.06738 -1.66992c3.33691 -0.918945 8.53223 -2.875 11.5449 -4.34668c3.01172 -1.4707 7.63477 -4.30273 10.2744 -6.29004c2.6377 -1.98828 6.28027 -5.23242 8.09375 -7.21094c1.81348 -1.97754 4.82422 -5.93359 6.69141 -8.79102s4.31836 -7.49707 5.44922 -10.3125
c1.12988 -2.81445 2.57715 -7.36719 3.2168 -10.1182c1.12402 -4.83691 1.16211 -14.4688 1.16211 -294.688s-0.0380859 -289.851 -1.16211 -294.688c-0.639648 -2.75 -2.08691 -7.30273 -3.2168 -10.1172c-1.13086 -2.81543 -3.58203 -7.45605 -5.44922 -10.3125
c-1.86719 -2.85742 -4.87793 -6.81348 -6.69141 -8.79102c-1.81348 -1.97852 -5.45605 -5.22266 -8.09375 -7.21094c-2.63965 -1.9873 -7.2627 -4.81934 -10.2744 -6.29004c-3.0127 -1.47168 -8.20801 -3.43066 -11.5449 -4.35254l-6.06738 -1.67578l-319.688 -0.161133
c-283.635 -0.143555 -320.309 -0.0546875 -325.196 0.788086c-3.03027 0.521484 -7.24902 1.53418 -9.375 2.24902s-5.80957 2.27246 -8.18457 3.46387c-2.375 1.18945 -5.89062 3.20117 -7.8125 4.46973s-5.63867 4.41797 -8.25977 6.99902
c-2.62109 2.58008 -6.37695 7.16992 -8.3457 10.1992c-1.96973 3.02832 -4.50391 7.80957 -5.63477 10.625c-1.12988 2.81445 -2.57715 7.36719 -3.2168 10.1172c-1.12402 4.83691 -1.16211 14.4688 -1.16211 294.688c0 280.219 0.0380859 289.851 1.16211 294.688
c0.639648 2.75 2.08691 7.30273 3.2168 10.1172c1.13086 2.81543 3.66504 7.59668 5.63477 10.625c1.96875 3.0293 5.72461 7.61914 8.3457 10.1992c2.62109 2.58105 6.33789 5.73047 8.25977 6.99902s5.4375 3.28027 7.8125 4.46973
c2.375 1.19141 6.04883 2.74609 8.16406 3.45703s6.30078 1.7207 9.30078 2.24414c4.64746 0.810547 15.0469 0.951172 70.2783 0.951172h64.8223l0.423828 8.44336c0.233398 4.64453 0.833008 11.5469 1.33301 15.3408c0.500977 3.79297 1.64551 10.4697 2.54395 14.8369
c0.899414 4.36719 2.59277 11.1055 3.76367 14.9717c1.17188 3.86621 3.22754 9.91309 4.57129 13.4375c1.3418 3.52441 3.73633 9.19434 5.31934 12.6006c1.58398 3.40527 4.33398 8.74902 6.11133 11.875c1.77734 3.125 4.98047 8.35352 7.11719 11.6191
s5.62402 8.1875 7.75 10.9375s6.51367 7.98047 9.75 11.6221s9.04785 9.45215 12.9141 12.9102c3.86621 3.45898 8.99902 7.82031 11.4053 9.69043c2.40625 1.87109 7.32812 5.36328 10.9375 7.76172c3.60938 2.39746 9.11914 5.81055 12.2441 7.58398
c3.12598 1.77344 8.46973 4.52051 11.875 6.10449c3.40625 1.58301 9.07617 3.97754 12.6006 5.31934c3.52441 1.34375 9.60938 3.41211 13.5215 4.59766c3.91211 1.18652 11.2949 2.98926 16.4053 4.00781c5.10938 1.01758 12.2441 2.16211 15.8535 2.54297
s7.54688 0.803711 8.75 0.94043c1.20312 0.134766 8.375 0.136719 15.9385 0.00390625zM501.875 612.194c-4.29688 0.121094 -8.51562 0.0898438 -9.375 -0.0683594s-3.67188 -0.732422 -6.25 -1.27637c-2.57812 -0.542969 -6.99023 -1.91113 -9.80469 -3.04102
c-2.81543 -1.13086 -7.55762 -3.64453 -10.5381 -5.58691c-2.98047 -1.94336 -7.57617 -5.69922 -10.2139 -8.3457c-2.63672 -2.64746 -5.99219 -6.6416 -7.45703 -8.87598s-3.66699 -6.15723 -4.89258 -8.71875c-1.22656 -2.56055 -2.89648 -7.28711 -3.71191 -10.502
c-0.81543 -3.21582 -1.66895 -8.08105 -1.89746 -10.8135l-0.414062 -4.96582h62.6797h62.6797l-0.414062 4.96582c-0.228516 2.73242 -1.08203 7.59766 -1.89746 10.8135c-0.81543 3.21484 -2.48535 7.94141 -3.71191 10.502
c-1.22559 2.56152 -3.34277 6.34375 -4.70605 8.40625c-1.36133 2.0625 -4.05957 5.49707 -5.99512 7.63379c-1.93555 2.13574 -5.69336 5.52148 -8.34961 7.52344c-2.65527 2.00195 -7.29395 4.84375 -10.3057 6.31445c-3.0127 1.47168 -8.20801 3.38281 -11.5449 4.24609
c-4.46777 1.15625 -8.12793 1.62793 -13.8799 1.78906zM281.218 425h-31.2178v-218.75v-218.75h250h250v218.75v218.75h-31.2178h-31.2168l-0.224609 -36.0938c-0.213867 -34.4717 -0.28418 -36.3184 -1.55664 -41.0938c-0.733398 -2.75 -2.18066 -7.0459 -3.21777 -9.54785
c-1.03613 -2.50098 -3.39551 -6.86035 -5.24219 -9.6875c-1.84766 -2.82617 -4.84277 -6.75781 -6.65625 -8.73535c-1.81348 -1.97852 -5.45605 -5.22266 -8.09375 -7.21094c-2.63965 -1.9873 -7.2627 -4.81934 -10.2744 -6.29004
c-3.0127 -1.47168 -8.20801 -3.37793 -11.5449 -4.23535c-3.73828 -0.960938 -8.70703 -1.69336 -12.9424 -1.90527c-4.91406 -0.248047 -8.53516 -0.0556641 -12.6963 0.670898c-3.20215 0.560547 -7.56152 1.60254 -9.6875 2.31738s-5.80957 2.27246 -8.18457 3.46387
c-2.375 1.18945 -5.89062 3.20117 -7.8125 4.46973s-5.63867 4.41797 -8.25977 6.99902c-2.62109 2.58008 -6.36035 7.14551 -8.30957 10.1436c-1.9502 2.99902 -4.39258 7.49902 -5.42871 10c-1.03711 2.50195 -2.48438 6.79785 -3.21777 9.54785
c-1.27246 4.77539 -1.34277 6.62207 -1.55664 41.0938l-0.224609 36.0938h-62.4346h-62.4346l-0.224609 -36.0938c-0.213867 -34.4717 -0.28418 -36.3184 -1.55664 -41.0938c-0.733398 -2.75 -2.18066 -7.0459 -3.21777 -9.54785
c-1.03613 -2.50098 -3.39551 -6.86035 -5.24219 -9.6875c-1.84766 -2.82617 -4.84277 -6.75781 -6.65625 -8.73535c-1.81348 -1.97852 -5.45605 -5.22266 -8.09375 -7.21094c-2.63965 -1.9873 -7.2627 -4.81934 -10.2744 -6.29004
c-3.0127 -1.47168 -8.20801 -3.37793 -11.5449 -4.23535c-3.73828 -0.960938 -8.70703 -1.69336 -12.9424 -1.90527c-4.91406 -0.248047 -8.53516 -0.0556641 -12.6963 0.670898c-3.20215 0.560547 -7.56152 1.60254 -9.6875 2.31738s-5.80957 2.27246 -8.18457 3.46387
c-2.375 1.18945 -5.89062 3.20117 -7.8125 4.46973s-5.63867 4.41797 -8.25977 6.99902c-2.62109 2.58008 -6.36035 7.14551 -8.30957 10.1436c-1.9502 2.99902 -4.39258 7.49902 -5.42871 10c-1.03711 2.50195 -2.48438 6.79785 -3.21777 9.54785
c-1.27246 4.77539 -1.34277 6.62207 -1.55664 41.0938l-0.224609 36.0938h-31.2168z" />
  </g>

</svg>
