<?xml version="1.0" standalone="no"?>
<!DOCTYPE svg PUBLIC "-//W3C//DTD SVG 1.1//EN" "http://www.w3.org/Graphics/SVG/1.1/DTD/svg11.dtd" >
<svg xmlns="http://www.w3.org/2000/svg" xmlns:xlink="http://www.w3.org/1999/xlink" version="1.1" viewBox="-10 0 1010 1000">
  <g transform="matrix(1 0 0 -1 0 800)">
   <path fill="currentColor"
d="M752.812 528.972c3.09375 -0.168945 7.73438 -0.735352 10.3125 -1.25684c2.57812 -0.523438 6.79688 -1.76367 9.375 -2.75781s6.71582 -3.00781 9.19629 -4.47656c2.47949 -1.46777 6.31738 -4.17383 8.5293 -6.01367
c2.21094 -1.83984 5.44727 -5.07422 7.19043 -7.1875s28.5361 -40.8262 59.54 -86.0293c31.0029 -45.2031 57.9219 -84.7188 59.8193 -87.8125c1.89648 -3.09375 4.98145 -8.85938 6.85352 -12.8125c1.87402 -3.95312 4.76953 -11.3125 6.43652 -16.3545
c1.66699 -5.04102 3.72852 -12.6348 4.58008 -16.875c0.851562 -4.23926 1.84277 -10.6201 2.20215 -14.1807c0.358398 -3.55957 0.649414 -10.4502 0.647461 -15.3125c-0.00292969 -4.86133 -0.286133 -11.3711 -0.629883 -14.4648
c-0.342773 -3.09375 -1.18652 -8.61719 -1.875 -12.2734c-0.6875 -3.65625 -2.08789 -9.56641 -3.11035 -13.1328c-1.02148 -3.56641 -2.96387 -9.32031 -4.31445 -12.7861s-3.76953 -8.91602 -5.37402 -12.1123c-1.60547 -3.19629 -4.49609 -8.36133 -6.42383 -11.4785
s-5.53418 -8.35938 -8.0127 -11.6504c-2.47852 -3.29004 -7.1123 -8.73535 -10.2969 -12.1006c-3.18457 -3.36426 -8.48535 -8.375 -11.7803 -11.1338s-9.08398 -7.07227 -12.8652 -9.58691c-3.78125 -2.51367 -9.54688 -5.9873 -12.8125 -7.71973
s-8.60938 -4.25879 -11.875 -5.61328c-3.26562 -1.35547 -9.13965 -3.47559 -13.0518 -4.71289c-3.91309 -1.2373 -10.6631 -2.93457 -15 -3.77148c-4.33789 -0.836914 -10.958 -1.82422 -14.7129 -2.19336c-4.19434 -0.412109 -24.9668 -0.671875 -53.8613 -0.671875
c-30.3262 0 -48.7607 0.240234 -51.8965 0.675781c-2.6748 0.37207 -7.125 1.39062 -9.88965 2.2627c-2.76367 0.871094 -7.13477 2.64551 -9.71289 3.94238s-6.375 3.60742 -8.4375 5.13574c-2.0625 1.52734 -5.35059 4.36035 -7.30762 6.29492
c-1.95605 1.93457 -4.71777 5.08887 -6.13574 7.00879c-1.41895 1.91992 -3.66699 5.5166 -4.99707 7.99219c-1.3291 2.47461 -3.1543 6.7041 -4.05371 9.39648c-0.899414 2.69434 -1.99219 7.33496 -2.42871 10.3125l-0.793945 5.41602l-0.460938 -3.96777
c-0.253906 -2.18164 -1.16211 -6.40039 -2.01758 -9.375c-0.857422 -2.97363 -2.66699 -7.70898 -4.02246 -10.5225c-1.35645 -2.8125 -4.15332 -7.35449 -6.21582 -10.0918c-2.0625 -2.73633 -5.34082 -6.43066 -7.28613 -8.20898
c-1.94531 -1.77734 -5.19238 -4.35645 -7.2168 -5.73047c-2.02441 -1.375 -5.98926 -3.60645 -8.80957 -4.95703c-2.82031 -1.35254 -7.94141 -3.18945 -11.3789 -4.08203c-5.08594 -1.32227 -7.76367 -1.63477 -14.375 -1.67676
c-4.46875 -0.0292969 -9.8125 0.297852 -11.875 0.725586c-2.0625 0.429688 -5.57812 1.3584 -7.8125 2.06738c-2.23438 0.708008 -6.3125 2.40625 -9.0625 3.77344c-2.75 1.36816 -6.89941 3.89258 -9.22168 5.60938c-2.32129 1.7168 -6.25879 5.31543 -8.75 7.99609
c-2.49023 2.68164 -5.82812 7.08398 -7.41699 9.7832s-3.62109 6.76758 -4.5166 9.04004c-0.895508 2.27441 -2.06152 5.79004 -2.59082 7.8125c-0.529297 2.02441 -1.25977 6.3291 -1.62305 9.56641c-0.470703 4.19043 -0.462891 7.70312 0.0234375 12.1875
c0.375977 3.46582 1.27051 8.41016 1.98633 10.9883c0.716797 2.57812 2.21875 6.68066 3.33789 9.11719c1.11816 2.43555 3.47852 6.56934 5.24316 9.18555c1.76562 2.61621 5.25 6.76562 7.74414 9.2207c2.49316 2.4541 6.3623 5.66992 8.59668 7.14648
s5.75 3.52734 7.8125 4.55859s6.01172 2.58789 8.77539 3.45898c2.76465 0.87207 7.21484 1.88965 9.88965 2.26172c2.6748 0.371094 6.76172 0.675781 9.08203 0.675781c2.32129 0 6.87109 -0.454102 10.1113 -1.00977s7.86035 -1.71484 10.2666 -2.57812
c2.40625 -0.861328 5.78125 -2.27441 7.5 -3.13867s4.8125 -2.70801 6.875 -4.0957c2.0625 -1.38867 5.78223 -4.48438 8.2666 -6.87988c2.4834 -2.39453 5.89258 -6.35254 7.57617 -8.79492c1.68262 -2.44238 3.92188 -6.15625 4.97656 -8.25391
c1.05469 -2.09668 2.53223 -5.6123 3.28418 -7.8125c0.751953 -2.19922 1.84766 -6.81055 2.43359 -10.2471l1.06738 -6.24805l0.40918 4.37305c0.225586 2.40527 0.990234 6.46387 1.70117 9.01855c0.709961 2.55469 2.24023 6.70117 3.40039 9.21387
c1.16211 2.5127 3.43945 6.54785 5.06152 8.96582c1.62305 2.41895 4.80078 6.26562 7.06152 8.5498c2.26172 2.28418 5.80469 5.40039 7.87402 6.92578s5.87207 3.82812 8.4502 5.11719c2.57812 1.28809 6.51562 2.93652 8.75 3.66113s5.32812 1.65723 6.875 2.07129
c2.02246 0.541016 16.6758 0.853516 52.1875 1.11426l49.375 0.360352l3.56445 1.75c2.06543 1.01465 4.74414 3.06348 6.37207 4.87402c1.56055 1.73535 3.40625 4.70801 4.15332 6.6875c1.07422 2.8457 1.29199 4.51758 1.08105 8.29492
c-0.176758 3.18066 -0.713867 5.64062 -1.63379 7.5c-0.753906 1.52246 -26.5586 39.4717 -57.3438 84.3311c-30.7861 44.8594 -56.9961 83.3828 -58.2461 85.6064c-1.24902 2.22461 -3.18066 6.72461 -4.29102 10c-1.11035 3.27637 -2.31738 8.15625 -2.68164 10.8447
c-0.364258 2.68945 -0.662109 6.94141 -0.662109 9.44922c0 2.50879 0.412109 6.91797 0.917969 9.79883c0.503906 2.88184 1.58789 7.20703 2.40918 9.61328s2.26953 5.92188 3.21875 7.8125c0.950195 1.89062 2.96582 5.31348 4.48047 7.60645
s4.69629 6.11133 7.07031 8.48633c2.37402 2.37305 6.50293 5.82715 9.1748 7.6748s7.29883 4.41016 10.2812 5.69727c2.9834 1.28516 7.14355 2.7832 9.24609 3.32812s5.8623 1.24219 8.35547 1.55176c2.49316 0.308594 7.06445 0.421875 10.1582 0.251953z
M126.562 445.363c7.13086 -0.164062 10.5732 -0.541016 14.375 -1.57031c2.75 -0.743164 7.8125 -2.71973 11.25 -4.39062s8.07812 -4.42676 10.3125 -6.125s5.87207 -5.02441 8.08301 -7.39062s5.37793 -6.41699 7.03516 -9
c1.65723 -2.58496 3.87305 -6.75879 4.92285 -9.27734c1.0498 -2.51758 2.5 -6.73633 3.22363 -9.375c1.22559 -4.47461 1.3418 -6.95703 1.73438 -36.9844c0.390625 -29.8574 0.521484 -32.6797 1.81152 -38.9873c0.764648 -3.73926 2.36523 -9.77539 3.55859 -13.415
c1.19141 -3.63867 3.55566 -9.43848 5.25293 -12.8887c1.69727 -3.44922 4.67676 -8.66211 6.62012 -11.584c1.94434 -2.92188 5.49609 -7.64844 7.89355 -10.5029c2.39648 -2.85352 6.93262 -7.43555 10.0811 -10.1807c3.14648 -2.74512 8.1123 -6.58887 11.0342 -8.54102
c2.92188 -1.95312 8.26562 -5.0127 11.875 -6.79883c3.60938 -1.78711 9.53613 -4.23828 13.1709 -5.44824c3.63574 -1.20898 9.82324 -2.84961 13.75 -3.64453c7.11328 -1.44043 7.34082 -1.44629 57.4541 -1.44629h50.3125l3.52637 1.73145
c1.93848 0.952148 4.66113 2.96387 6.04883 4.46875c1.3877 1.50586 3.17578 3.96094 3.97461 5.45703l1.4502 2.71777l0.351562 69.6875c0.321289 63.7461 0.445312 70.084 1.45703 74.3398c0.608398 2.55859 1.75098 6.36621 2.53906 8.45996
s2.21094 5.34375 3.16016 7.22168c0.950195 1.87891 2.79492 4.99023 4.09863 6.91309s3.8252 5.08789 5.60254 7.0332c1.77832 1.94531 5.47266 5.22363 8.20898 7.28613c2.7373 2.0625 7.2793 4.85938 10.0918 6.21582c2.81348 1.35547 7.64648 3.20996 10.7402 4.12207
c4.49219 1.32422 7.38672 1.7207 14.375 1.9707c7.19336 0.257812 9.81934 0.0917969 14.7607 -0.932617c3.30664 -0.685547 8.44434 -2.23828 11.417 -3.4502c2.97363 -1.21191 7.72168 -3.75195 10.5527 -5.64258c2.8291 -1.8916 6.70312 -4.9375 8.60742 -6.76953
c1.9043 -1.83105 4.65625 -4.84277 6.11426 -6.69238c1.45703 -1.84961 3.72754 -5.22461 5.04395 -7.5c1.31738 -2.27539 3.17188 -6.10254 4.12207 -8.50488c0.950195 -2.40137 2.25098 -6.90137 2.88965 -10c1.09375 -5.29688 1.16406 -9.86328 1.17188 -76.5938
c0.00683594 -57.8311 -0.158203 -72.2871 -0.886719 -78.125c-0.492188 -3.94043 -1.35254 -9.41406 -1.91406 -12.1641c-0.560547 -2.75 -1.84473 -7.88281 -2.85156 -11.4062c-1.00781 -3.52344 -2.97461 -9.28906 -4.37012 -12.8125
c-1.39453 -3.52344 -4.33496 -9.85449 -6.53418 -14.0684c-2.19824 -4.21484 -5.74512 -10.2617 -7.88184 -13.4375c-2.13672 -3.17676 -5.42285 -7.70508 -7.30176 -10.0645c-1.87988 -2.35938 -6.11914 -7.10449 -9.42285 -10.5449
c-3.30176 -3.44141 -8.81934 -8.52539 -12.2607 -11.2988c-3.44043 -2.77148 -9.20898 -6.98047 -12.8184 -9.35059c-3.60938 -2.37109 -10.5 -6.22754 -15.3125 -8.57031c-4.8125 -2.34375 -11.6846 -5.28613 -15.2705 -6.53809
c-3.58691 -1.25293 -9.77441 -3.09473 -13.75 -4.09277c-3.97656 -0.998047 -10.1826 -2.30273 -13.792 -2.89941c-5.7627 -0.952148 -12.9238 -1.11426 -58.75 -1.32715c-34.9805 -0.163086 -55.2783 -0.0107422 -61.5625 0.459961
c-5.15625 0.386719 -13.0312 1.23926 -17.5 1.89453c-4.46973 0.655273 -10.2344 1.63184 -12.8125 2.1709s-8.34375 1.93945 -12.8125 3.11133s-11.9219 3.45117 -16.5625 5.06445s-11.9531 4.46094 -16.25 6.32812c-4.29688 1.86621 -11.0469 5.10059 -15 7.1875
c-3.95312 2.08594 -10.1406 5.64062 -13.75 7.89941s-8.95312 5.79297 -11.875 7.85352c-2.92188 2.06152 -7.5625 5.54688 -10.3125 7.74707s-8.19727 6.85547 -12.1055 10.3477c-3.9082 3.48926 -9.8584 9.36621 -13.2227 13.0557
c-3.36426 3.69141 -8.19629 9.31641 -10.7393 12.5c-2.54297 3.18555 -6.33105 8.18164 -8.41895 11.1035c-2.08691 2.92188 -5.63965 8.30273 -7.89551 11.958c-2.25488 3.65527 -5.78809 9.84277 -7.85254 13.75s-5.2832 10.6191 -7.15137 14.917
c-1.86914 4.29688 -4.82129 11.9307 -6.55957 16.9658c-1.73926 5.03516 -4.27832 13.6133 -5.64355 19.0625c-1.36523 5.4502 -3.05859 13.4238 -3.76367 17.7217c-0.704102 4.29688 -1.64453 10.9053 -2.08984 14.6875
c-0.566406 4.81836 -0.808594 16.9688 -0.808594 40.625c0 29.9766 0.121094 34.2207 1.08301 37.96c0.595703 2.31641 1.92578 6.39648 2.95605 9.06738c1.03027 2.67188 3.28516 7.15234 5.01172 9.95703c1.72559 2.80469 5.23633 7.33008 7.80078 10.0566
s6.71191 6.36914 9.21777 8.09668c2.50586 1.72656 6.27148 4.00195 8.36914 5.05664c2.09668 1.05469 5.6123 2.52539 7.8125 3.26855c2.19922 0.744141 5.82715 1.73633 8.06152 2.2041c2.72852 0.571289 7.13965 0.780273 13.4375 0.633789zM293.438 70.376h-0.000976562
c7.86035 -0.202148 10.2842 -0.509766 15 -1.9043c3.09375 -0.914062 7.92676 -2.77148 10.7402 -4.12695c2.8125 -1.35645 7.37207 -4.16602 10.1309 -6.24512c2.75781 -2.07812 6.45898 -5.38379 8.22363 -7.3457c1.76562 -1.96094 4.34375 -5.2207 5.73047 -7.24219
c1.38574 -2.02148 3.58984 -5.95898 4.89648 -8.75c1.30762 -2.79102 2.94434 -7.125 3.63867 -9.63184c0.694336 -2.50586 1.58789 -7.3584 1.98535 -10.7812c0.547852 -4.71387 0.547852 -7.7334 0 -12.4473c-0.397461 -3.42285 -1.29102 -8.27539 -1.98535 -10.7812
c-0.694336 -2.50684 -2.33105 -6.84082 -3.63867 -9.63184c-1.30664 -2.79102 -3.51074 -6.72852 -4.89648 -8.75c-1.38672 -2.02148 -3.96484 -5.28125 -5.73047 -7.24219c-1.76465 -1.96191 -5.46582 -5.26758 -8.22363 -7.3457
c-2.75879 -2.0791 -7.31836 -4.88867 -10.1309 -6.24512c-2.81348 -1.35547 -7.64648 -3.20605 -10.7402 -4.1123c-4.22559 -1.23926 -7.60156 -1.73633 -13.5732 -1.99707c-5.06152 -0.22168 -9.71484 -0.0644531 -12.8125 0.43457
c-2.6748 0.431641 -6.69141 1.34082 -8.92578 2.02148c-2.23438 0.681641 -6.28125 2.34082 -8.99414 3.68848c-2.71191 1.34668 -6.64941 3.67676 -8.75 5.17676c-2.09961 1.5 -5.73633 4.64551 -8.08008 6.99121c-2.34375 2.34473 -5.81152 6.59375 -7.70605 9.44141
c-1.89453 2.84863 -4.43555 7.6084 -5.64746 10.5781c-1.20996 2.9707 -2.73145 7.96777 -3.37891 11.1055c-0.753906 3.65332 -1.17676 8.28809 -1.17676 12.8916c0 4.57422 0.422852 9.2373 1.16309 12.8262c0.640625 3.10156 2.06055 7.88281 3.15625 10.625
s3.2207 6.95508 4.72168 9.36133c1.50195 2.40625 4.05176 5.92188 5.66699 7.8125c1.61621 1.89062 4.76465 5.02246 7 6.95996c2.23438 1.9375 6.20508 4.78418 8.8252 6.32617c2.61914 1.54199 6.73145 3.58105 9.1377 4.53027s6.76562 2.24902 9.6875 2.88867
c4.24707 0.929688 7.19238 1.11426 14.6875 0.920898z" />
  </g>

</svg>
