<?xml version="1.0" standalone="no"?>
<!DOCTYPE svg PUBLIC "-//W3C//DTD SVG 1.1//EN" "http://www.w3.org/Graphics/SVG/1.1/DTD/svg11.dtd" >
<svg xmlns="http://www.w3.org/2000/svg" xmlns:xlink="http://www.w3.org/1999/xlink" version="1.1" viewBox="-10 0 1010 1000">
  <g transform="matrix(1 0 0 -1 0 800)">
   <path fill="currentColor"
d="M667.5 737.182c11.5371 -0.129883 22.4316 -0.591797 27.5957 -1.17188c4.69336 -0.52832 12.0059 -1.54688 16.25 -2.26562c4.24414 -0.717773 11.5137 -2.16504 16.1543 -3.2168c4.64062 -1.05078 12.7969 -3.25391 18.125 -4.89551s12.5 -4.03906 15.9375 -5.32715
s9.76562 -3.86914 14.0625 -5.73633c4.29688 -1.86621 11.5693 -5.35547 16.1611 -7.75293c4.5918 -2.39648 11.7168 -6.40137 15.833 -8.89941s10.9053 -6.97363 15.0879 -9.94629c4.18262 -2.97363 10.1816 -7.46582 13.3301 -9.98242s9.37012 -7.88281 13.8252 -11.9248
c4.45605 -4.04297 11.3604 -10.9277 15.3447 -15.2998c3.98438 -4.37305 9.72949 -11.0518 12.7666 -14.8418s7.53906 -9.73633 10.0049 -13.2139c2.46484 -3.47754 6.78613 -10.0791 9.60254 -14.6719c2.81543 -4.59082 7.16309 -12.2852 9.66016 -17.0977
s6.26465 -12.7979 8.37207 -17.7461c2.10742 -4.94727 5.49707 -13.9473 7.53223 -20c2.03613 -6.05176 4.69434 -14.8916 5.9082 -19.6445s2.88965 -12.3467 3.72461 -16.875s1.94922 -11.6094 2.47559 -15.7344s1.24512 -11.4375 1.59863 -16.25
s0.641602 -13.8125 0.641602 -20s-0.283203 -17.2969 -0.628906 -24.6875s-1.05078 -18.3594 -1.56738 -24.375c-0.517578 -6.01562 -1.50391 -15.7188 -2.19141 -21.5625s-1.96484 -15.2656 -2.83887 -20.9375s-2.98242 -17.293 -4.68555 -25.8242
s-4.64941 -21.6094 -6.54688 -29.0625c-1.89844 -7.45312 -4.87598 -18.3135 -6.61816 -24.1357c-1.74219 -5.82129 -4.97852 -15.8955 -7.19043 -22.3867c-2.21387 -6.49121 -5.87695 -16.6348 -8.14062 -22.54c-2.26465 -5.90625 -6.49316 -16.2227 -9.39551 -22.9258
c-2.90332 -6.70312 -8.76465 -19.2188 -13.0234 -27.8125c-4.25977 -8.59375 -10.5625 -20.6172 -14.0068 -26.7197c-3.44336 -6.10156 -8.98633 -15.5234 -12.3174 -20.9375c-3.33008 -5.41309 -8.58691 -13.6396 -11.6807 -18.2803s-8.44141 -12.375 -11.8838 -17.1875
s-8.51953 -11.7031 -11.2832 -15.3125s-8.24219 -10.5 -12.1738 -15.3125s-10.9707 -13.0986 -15.6416 -18.4141c-4.66992 -5.31543 -13.9766 -15.2656 -20.6797 -22.1113s-16.5469 -16.4492 -21.875 -21.3418c-5.32812 -4.89355 -12.7812 -11.5488 -16.5625 -14.7891
c-3.78125 -3.24121 -9.96582 -8.40527 -13.7441 -11.4746c-3.77734 -3.07129 -12.0742 -9.49414 -18.4375 -14.2744c-6.3623 -4.78027 -18.459 -13.2656 -26.8809 -18.8555s-19.8125 -12.834 -25.3125 -16.0996c-5.5 -3.26465 -13.9375 -8.10059 -18.75 -10.7461
c-4.8125 -2.64648 -15.5 -8.1377 -23.75 -12.2021s-19.3594 -9.27539 -24.6875 -11.5801s-14.8906 -6.23535 -21.25 -8.73535s-17.8457 -6.68652 -25.5244 -9.30371c-7.67969 -2.61621 -18.2266 -6.01465 -23.4375 -7.55078
c-5.21191 -1.53613 -15.5732 -4.3457 -23.0264 -6.24316c-7.45312 -1.89844 -20.5312 -4.84473 -29.0625 -6.54785s-20.1523 -3.80859 -25.8242 -4.67871s-14.9531 -2.1416 -20.625 -2.82324c-5.67188 -0.682617 -15.375 -1.67188 -21.5625 -2.19727
s-17.2969 -1.23828 -24.6875 -1.58398c-7.39062 -0.344727 -18.5 -0.628906 -24.6875 -0.628906s-15.1875 0.288086 -20 0.641602s-12.125 1.07227 -16.25 1.59863s-11.2061 1.64062 -15.7344 2.47559s-12.1221 2.51074 -16.875 3.72461s-13.5928 3.87207 -19.6445 5.9082
c-6.05273 2.03516 -15.0527 5.43066 -20 7.5459c-4.94824 2.11328 -12.2305 5.49121 -16.1836 7.50488c-3.95312 2.01465 -10.4219 5.58594 -14.375 7.9375s-9.68164 5.91992 -12.7295 7.92871c-3.04785 2.00977 -8.26758 5.68262 -11.5996 8.16211
c-3.33105 2.47852 -9.46094 7.36035 -13.6221 10.8467s-11.1797 9.92676 -15.5986 14.3105c-4.41797 4.38379 -10.5781 10.9248 -13.6875 14.5342c-3.11035 3.60938 -7.90527 9.51562 -10.6562 13.125s-6.56543 8.8125 -8.47461 11.5625s-5.86621 8.98828 -8.79199 13.8623
c-2.92676 4.875 -7.01465 12.1875 -9.08398 16.25c-2.06934 4.06348 -5.51367 11.4658 -7.6543 16.4502s-5.79395 14.8281 -8.11914 21.875s-5.22949 17.1719 -6.4541 22.5s-2.8125 13.1602 -3.52734 17.4043c-0.71582 4.24414 -1.72266 11.5566 -2.23633 16.25
c-0.514648 4.69336 -1.10254 15.002 -1.30762 22.9082c-0.206055 7.96484 -0.0478516 21.4824 0.355469 30.3125c0.400391 8.76562 1.15039 20.8594 1.66504 26.875c0.515625 6.01562 1.65039 16.6934 2.52148 23.7285c0.871094 7.03418 2.39648 17.7217 3.38965 23.75
c0.993164 6.02734 2.95996 16.5381 4.37109 23.3574s3.7959 17.3662 5.29883 23.4375s4.28418 16.3828 6.17969 22.9141c1.89648 6.53125 5.55762 18.0908 8.1377 25.6875c2.57812 7.59668 6.78027 19.1279 9.33594 25.625c2.55664 6.49707 6.53223 16.1719 8.83691 21.5
s7.51562 16.4375 11.5801 24.6875s9.55762 18.9375 12.2051 23.75c2.64941 4.8125 8.2002 14.375 12.3369 21.25c4.1377 6.875 11.1113 17.8555 15.498 24.3994c4.38672 6.54492 10.7695 15.7109 14.1826 20.3682c3.41504 4.65723 8.82617 11.8184 12.0273 15.9131
c3.2002 4.09473 8.64258 10.8193 12.0947 14.9443c3.45117 4.125 9.64941 11.2969 13.7725 15.9375c4.12402 4.64062 14.5439 15.4844 23.1572 24.0967c8.6123 8.61328 19.4561 19.0205 24.0967 23.127c4.64062 4.10742 10.2656 9.03125 12.5 10.9434
s7.71875 6.4209 12.1875 10.0195s12.4844 9.79785 17.8125 13.7754c5.32812 3.97852 15.7344 11.3076 23.125 16.2891c7.39062 4.98047 18.3594 12.0273 24.375 15.6582c6.01562 3.63184 15.2969 9.03516 20.625 12.0088c5.32812 2.97266 16.7188 8.8877 25.3125 13.1445
s21.5312 10.2549 28.75 13.3301c7.21875 3.07422 18.75 7.7002 25.625 10.2783s17.7031 6.38867 24.0625 8.4668s15.0781 4.80176 19.375 6.05176s13.7695 3.79688 21.0508 5.65918c7.28125 1.86328 20.2188 4.78125 28.75 6.48438s20.1523 3.80859 25.8242 4.67871
s14.9531 2.1416 20.625 2.8252c5.67188 0.682617 15.5156 1.6875 21.875 2.23145c6.35938 0.544922 16.3438 1.23438 22.1875 1.5332s19.2031 0.447266 29.6875 0.330078zM610.938 609.281c-0.6875 -0.0507812 -2.09473 -0.203125 -3.12598 -0.337891
c-1.03125 -0.133789 -5.8125 -0.81543 -10.625 -1.51367s-12.5479 -1.95605 -17.1875 -2.79492c-4.64062 -0.84082 -11.1104 -2.1123 -14.375 -2.82812c-3.26562 -0.71582 -10.4375 -2.41504 -15.9375 -3.77637c-5.5 -1.36035 -14.6406 -3.84668 -20.3125 -5.52539
c-5.67285 -1.67871 -14.6729 -4.58691 -20 -6.46191c-5.32812 -1.87695 -12.9229 -4.67383 -16.875 -6.21582c-3.95312 -1.54297 -11.125 -4.49707 -15.9375 -6.56543s-12.8281 -5.70801 -17.8125 -8.08691c-4.98438 -2.37793 -13.8447 -6.94434 -19.6875 -10.1465
c-5.84375 -3.20312 -14.1406 -7.93359 -18.4375 -10.5137c-4.29688 -2.5791 -11.4697 -7.07422 -15.9375 -9.98926c-4.46875 -2.91406 -11.5 -7.70703 -15.625 -10.6504s-11.1562 -8.17773 -15.625 -11.6318c-4.46973 -3.4541 -10.7979 -8.51758 -14.0625 -11.251
c-3.26562 -2.73438 -8.60938 -7.36621 -11.875 -10.293c-3.26562 -2.92871 -10.957 -10.2598 -17.0889 -16.293c-6.13379 -6.03223 -14.585 -14.7656 -18.7812 -19.4062c-4.19727 -4.64062 -9.87207 -11.1094 -12.6113 -14.375s-7.81543 -9.59375 -11.2803 -14.0625
s-8.12012 -10.6562 -10.3447 -13.75c-2.22363 -3.09375 -6.60645 -9.45605 -9.73926 -14.1396c-3.13281 -4.68262 -8.62695 -13.4014 -12.209 -19.375c-3.58301 -5.97266 -8.85449 -15.2197 -11.7158 -20.5479c-2.86035 -5.32812 -6.87207 -13.2031 -8.91406 -17.5
s-5.25391 -11.3281 -7.13965 -15.625c-1.88477 -4.29688 -4.80371 -11.2598 -6.48633 -15.4727c-1.68359 -4.21387 -4.8584 -12.792 -7.05859 -19.0625c-2.19922 -6.27148 -5.28027 -15.7617 -6.84668 -21.0898c-1.56738 -5.32812 -4.1084 -14.7852 -5.64746 -21.0156
c-1.54004 -6.23047 -3.50781 -14.8291 -4.375 -19.1084c-0.866211 -4.27832 -2.2832 -11.9775 -3.14844 -17.1094c-0.864258 -5.13086 -2.02148 -12.8037 -2.57031 -17.0498c-0.548828 -4.24512 -0.910156 -7.78223 -0.801758 -7.8584s3.99316 -1.19922 8.63379 -2.49805
c4.64062 -1.29785 11.9531 -3.62402 16.25 -5.16895s11.417 -4.33691 15.8223 -6.20312c4.40527 -1.86719 11.04 -4.91406 14.7441 -6.77148s9.52148 -4.97168 12.9277 -6.91992c3.40625 -1.94922 10.5518 -6.43359 15.8809 -9.96582
c5.32812 -3.53223 12.5 -8.61523 15.9375 -11.2939s9.20312 -7.45996 12.8125 -10.625s10.6436 -9.93945 15.6328 -15.0537c4.98828 -5.11426 12.5352 -13.6377 16.7715 -18.9404s10.6123 -14.0215 14.1699 -19.374c3.55664 -5.35254 8.8418 -14.0137 11.7432 -19.248
c2.90234 -5.23438 6.89844 -13.1094 8.88086 -17.5s5.24023 -12.2148 7.23828 -17.3867c2 -5.17188 4.96484 -14.0312 6.58984 -19.6875c1.62598 -5.65625 3.01074 -10.3682 3.07812 -10.4707s3.60156 0.261719 7.85254 0.808594
c4.25195 0.547852 11.9287 1.7002 17.0596 2.56152c5.13184 0.860352 12.8662 2.2793 17.1875 3.15234c4.32227 0.87207 13.4326 2.98145 20.2451 4.6875c6.81348 1.70508 17.3848 4.62012 23.4932 6.47559c6.1084 1.85742 16.1543 5.20117 22.3232 7.43359
c6.16895 2.23145 15.5664 5.86914 20.8818 8.08398s14.0244 6.04883 19.3525 8.51855c5.32715 2.4707 14.75 7.18066 20.9375 10.4678c6.1875 3.28613 16.1445 8.91504 22.1279 12.5078s14.2812 8.80762 18.4375 11.5869c4.15723 2.78027 11.0742 7.58008 15.3721 10.665
c4.29688 3.08496 10.9053 8.02637 14.6875 10.9805c3.78125 2.9541 9.54688 7.60938 12.8125 10.3447c3.26465 2.73535 9.73438 8.40723 14.375 12.6045c4.63965 4.19727 13.373 12.6484 19.4053 18.7822c6.0332 6.13184 13.3643 13.8223 16.293 17.0879
c2.92676 3.26562 7.55566 8.60938 10.2861 11.875c2.72949 3.26562 7.37988 9.03125 10.334 12.8125s7.89551 10.3906 10.9805 14.6875c3.08594 4.29688 7.86035 11.1875 10.6113 15.3125c2.75 4.125 6.97266 10.7344 9.38281 14.6875
c2.40918 3.95312 6.29688 10.5625 8.6377 14.6875s6.83398 12.5625 9.98535 18.75c3.15039 6.1875 7.36816 14.9062 9.37109 19.375c2.00391 4.46875 5.41699 12.5391 7.58398 17.9336c2.16797 5.39551 5.49707 14.1816 7.39746 19.5254
c1.90039 5.34473 4.87207 14.4131 6.60352 20.1523c1.73047 5.73926 4.52441 15.9365 6.20703 22.6621c1.68359 6.72461 3.77539 15.7627 4.64746 20.085c0.873047 4.32129 2.29199 12.0557 3.15234 17.1875c0.861328 5.13086 2.01367 12.8076 2.56152 17.0596
c0.546875 4.25098 0.911133 7.80273 0.808594 7.8916s-3.9834 1.20703 -8.62402 2.48633c-4.64062 1.27832 -11.9531 3.5957 -16.25 5.14844s-11.75 4.49902 -16.5625 6.54785s-12.6953 5.78125 -17.5166 8.29492c-4.82227 2.51367 -11.4316 6.18262 -14.6875 8.15332
c-3.25684 1.96973 -9.43652 5.97754 -13.7334 8.9043c-4.29688 2.92773 -11.8906 8.57129 -16.875 12.543c-5.25488 4.18652 -14.1992 12.3564 -21.29 19.4473s-15.2607 16.0352 -19.4473 21.29c-3.97168 4.98438 -9.61523 12.5781 -12.543 16.875
c-2.92676 4.29688 -6.93457 10.4766 -8.9043 13.7334c-1.9707 3.25586 -5.63965 9.86523 -8.15332 14.6875c-2.51367 4.82129 -6.24609 12.7041 -8.29492 17.5166s-4.99316 12.2656 -6.54492 16.5625c-1.55078 4.29688 -3.90332 11.6797 -5.22656 16.4062
c-2.09863 7.49121 -2.56738 8.58203 -3.65723 8.5zM626.875 487.224c5.66602 -0.179688 9.47949 -0.679688 13.8799 -1.81836c3.33691 -0.863281 8.53223 -2.77441 11.5449 -4.24609c3.01172 -1.4707 7.63477 -4.30273 10.2744 -6.29004
c2.6377 -1.98828 6.28027 -5.23242 8.09375 -7.21094c1.81348 -1.97754 4.80859 -5.90918 6.65625 -8.73535c1.84668 -2.82715 4.20605 -7.18652 5.24414 -9.6875c1.03711 -2.50195 2.48926 -6.93848 3.22754 -9.86035c1.06738 -4.22266 1.3418 -7.1709 1.3418 -14.375
s-0.274414 -10.1523 -1.3418 -14.375c-0.738281 -2.92188 -2.19043 -7.3584 -3.22754 -9.86035c-1.03809 -2.50098 -3.47559 -7.00098 -5.41895 -10c-2.83203 -4.37012 -7.84473 -9.79199 -25.2656 -27.3271l-21.7334 -21.875l3.0752 -4.0625
c1.69141 -2.23438 4.45801 -6.875 6.14746 -10.3125s3.71777 -8.64062 4.50586 -11.5625c1.22266 -4.5293 1.43359 -6.83301 1.43359 -15.625c0 -8.84473 -0.206055 -11.0684 -1.4502 -15.625c-0.797852 -2.92188 -2.51953 -7.5957 -3.82715 -10.3867
s-3.58789 -6.86914 -5.06738 -9.0625s-4.64941 -6.02051 -7.04492 -8.50488c-2.39453 -2.4834 -6.35254 -5.89258 -8.79492 -7.57422c-2.44238 -1.68262 -5.84668 -3.76465 -7.56543 -4.62598s-5.09375 -2.27148 -7.5 -3.13281
c-2.40625 -0.863281 -7.02637 -2.02246 -10.2666 -2.57812s-7.79004 -1.00977 -10.1113 -1.00977c-2.32031 0 -6.41895 0.299805 -9.1084 0.666992c-2.68848 0.367188 -7.70117 1.60254 -11.1387 2.74707s-6.30273 2.03418 -6.36719 1.97656
s0.71582 -2.45898 1.73438 -5.33594c1.01758 -2.87793 2.29883 -7.79297 2.84766 -10.9248c0.71875 -4.1084 0.895508 -7.69336 0.636719 -12.8799c-0.198242 -3.95312 -0.917969 -9.34668 -1.59961 -11.9844c-0.681641 -2.63867 -2.09863 -6.85742 -3.14844 -9.375
c-1.0498 -2.51855 -3.26562 -6.69238 -4.92285 -9.27734c-1.65723 -2.58301 -4.82422 -6.63379 -7.03516 -9s-5.84863 -5.69238 -8.08301 -7.39062s-6.875 -4.45605 -10.3125 -6.12793s-8.64062 -3.68555 -11.5625 -4.47363
c-4.5293 -1.22266 -6.83301 -1.43359 -15.625 -1.43359c-8.83105 0 -11.0752 0.207031 -15.625 1.44629c-2.92188 0.794922 -7.84375 2.65234 -10.9375 4.12695s-7.77148 4.2334 -10.3955 6.12988l-4.77051 3.4502l-20.542 -20.5869
c-11.2979 -11.3223 -22.6592 -22.1953 -25.248 -24.1621c-2.58789 -1.9668 -7.16992 -4.78027 -10.1816 -6.25098c-3.0127 -1.47168 -8.20801 -3.37793 -11.5449 -4.23535c-3.73828 -0.960938 -8.70703 -1.69336 -12.9424 -1.90527
c-4.91406 -0.248047 -8.53516 -0.0556641 -12.6963 0.670898c-3.20215 0.560547 -7.56152 1.60254 -9.6875 2.31738s-5.80957 2.27246 -8.18457 3.46387c-2.375 1.18945 -5.89062 3.20117 -7.8125 4.46973s-5.63867 4.41797 -8.25977 6.99902
c-2.62109 2.58008 -6.36035 7.14551 -8.30957 10.1436c-1.9502 2.99902 -4.39258 7.49902 -5.43066 10c-1.03711 2.50195 -2.48926 6.93848 -3.22754 9.86035c-1.06738 4.22266 -1.3418 7.1709 -1.3418 14.375s0.274414 10.1523 1.3418 14.375
c0.738281 2.92188 2.19043 7.3584 3.22754 9.86035c1.03809 2.50098 3.47559 7.00098 5.41895 10c2.83203 4.37012 7.84473 9.79199 25.2656 27.3271l21.7334 21.875l-3.0752 4.0625c-1.69141 2.23438 -4.45801 6.875 -6.14746 10.3125s-3.71777 8.64062 -4.50586 11.5625
c-1.22266 4.5293 -1.43359 6.83301 -1.43359 15.625c0 8.84473 0.206055 11.0684 1.4502 15.625c0.797852 2.92188 2.51953 7.5957 3.82715 10.3867s3.58789 6.86914 5.06738 9.0625s4.67871 6.05371 7.11035 8.5791c2.43164 2.52441 6.70117 6.11035 9.48926 7.96875
c2.78809 1.85742 7.00391 4.25488 9.36719 5.32715c2.36426 1.07129 6.97363 2.63086 10.2441 3.46484c3.26953 0.833984 8.61621 1.68164 11.8818 1.88379c3.35742 0.207031 8.38184 0.0429688 11.5625 -0.376953c3.09375 -0.40918 8.4375 -1.68262 11.875 -2.83008
s6.30273 -2.03906 6.36719 -1.98145s-0.71582 2.45898 -1.73438 5.33594c-1.01758 2.87793 -2.29883 7.79297 -2.84766 10.9248c-0.71875 4.1084 -0.895508 7.69336 -0.636719 12.8799c0.198242 3.95312 0.917969 9.34668 1.59961 11.9844
c0.681641 2.63867 2.09863 6.85742 3.14844 9.375c1.0498 2.51855 3.28516 6.72363 4.96777 9.34668s5.06641 6.88184 7.51855 9.46387c2.45312 2.58301 6.56934 6.15332 9.14648 7.93555c2.57715 1.78125 7 4.32227 9.8291 5.64746
c2.82812 1.3252 7.53223 3.06152 10.4541 3.85938c4.55664 1.24414 6.78027 1.4502 15.625 1.4502c8.79199 0 11.0957 -0.210938 15.625 -1.43359c2.92188 -0.788086 8.125 -2.80176 11.5625 -4.47266c3.4375 -1.67188 8.07812 -4.44336 10.3125 -6.15918l4.0625 -3.11914
l22.1875 22.0059c12.2031 12.1035 23.7598 23.0283 25.6816 24.2783s5.4375 3.24609 7.8125 4.43555c2.375 1.19141 6.07324 2.75488 8.21875 3.47559c2.14453 0.720703 6.08203 1.72461 8.75 2.22949c3.25293 0.617188 7.4209 0.837891 12.6621 0.670898z" />
  </g>

</svg>
