<?xml version="1.0" standalone="no"?>
<!DOCTYPE svg PUBLIC "-//W3C//DTD SVG 1.1//EN" "http://www.w3.org/Graphics/SVG/1.1/DTD/svg11.dtd" >
<svg xmlns="http://www.w3.org/2000/svg" xmlns:xlink="http://www.w3.org/1999/xlink" version="1.1" viewBox="-10 0 1010 1000">
  <g transform="matrix(1 0 0 -1 0 800)">
   <path fill="currentColor"
d="M498.125 737.396c7.39062 0.0439453 18.5 -0.197266 24.6875 -0.536133s15.6094 -1.04492 20.9375 -1.56836s13.625 -1.51562 18.4375 -2.20605c4.8125 -0.689453 11.8438 -1.81738 15.625 -2.50488c3.78125 -0.688477 11.5127 -2.25586 17.1807 -3.48242
c5.66895 -1.22656 15.7666 -3.75293 22.4414 -5.61328c6.67383 -1.85938 16.8027 -4.95996 22.5068 -6.88965s15.915 -5.72461 22.6914 -8.43262c6.77539 -2.70801 16.7744 -7.00586 22.2197 -9.55078s14.1035 -6.86328 19.2422 -9.59863
c5.13867 -2.73438 12.8584 -7.01074 17.1553 -9.50293s13.0156 -7.97266 19.375 -12.1787c6.35938 -4.2041 15.5 -10.5898 20.3125 -14.1875c4.8125 -3.59668 12.125 -9.30957 16.25 -12.6943c4.125 -3.38379 11.0156 -9.3125 15.3125 -13.1748
s13.1729 -12.4658 19.7246 -19.1182c6.55273 -6.65137 15.4121 -16.1982 19.6875 -21.2148c4.27637 -5.0166 10.084 -12.0713 12.9053 -15.6777c2.82227 -3.60742 8.16602 -10.8105 11.875 -16.0078c3.70996 -5.19727 9.12402 -13.1885 12.0322 -17.7598
c2.9082 -4.57031 7.77051 -12.623 10.8047 -17.8936c3.03418 -5.27148 8.21484 -14.9736 11.5107 -21.5586c3.29688 -6.58594 7.11914 -14.5078 8.49512 -17.6035c1.375 -3.0957 4.58984 -10.6914 7.14258 -16.8789s5.30762 -13.0781 6.12305 -15.3125
c0.816406 -2.23438 3.19727 -9.875 5.29102 -16.9785c2.09473 -7.10352 4.79199 -16.8066 5.99414 -21.5625s3.29492 -14.1309 4.65137 -20.834c1.35547 -6.70312 3.16113 -16.9688 4.01367 -22.8125c0.851562 -5.84375 1.98242 -14.9844 2.51367 -20.3125
c0.530273 -5.32812 1.25 -14.8906 1.59961 -21.25s0.634766 -16.4844 0.634766 -22.5s-0.285156 -16.1406 -0.634766 -22.5s-1.06934 -15.9219 -1.59961 -21.25c-0.53125 -5.32812 -1.66797 -14.4688 -2.52734 -20.3125s-2.26953 -14.2812 -3.13379 -18.75
s-2.66016 -12.7656 -3.99023 -18.4375c-1.3291 -5.67188 -3.4248 -13.8281 -4.6543 -18.125c-1.23047 -4.29688 -3.80859 -12.5938 -5.73047 -18.4375s-5.54297 -15.8281 -8.0459 -22.1875s-6.08984 -14.9717 -7.9707 -19.1396
c-1.88086 -4.16699 -6.49316 -13.5889 -10.251 -20.9375c-3.75684 -7.34766 -10.1387 -18.8447 -14.1826 -25.5479c-4.04297 -6.70312 -10.4668 -16.6875 -14.2744 -22.1875c-3.80859 -5.5 -10.0469 -14.0547 -13.8623 -19.0098
c-3.81738 -4.95508 -10.4541 -13.1113 -14.749 -18.125c-4.29492 -5.01465 -13.1582 -14.5605 -19.6953 -21.2158s-15.4004 -15.2588 -19.6973 -19.1182c-4.29688 -3.86035 -11.1221 -9.72852 -15.166 -13.0439c-4.04492 -3.31445 -10.6543 -8.51562 -14.6875 -11.5596
c-4.03418 -3.04395 -11.2715 -8.21484 -16.084 -11.4941c-4.8125 -3.27637 -12.125 -8.05469 -16.25 -10.6172s-11.1562 -6.72461 -15.625 -9.25c-4.46875 -2.52441 -13.6094 -7.31836 -20.3125 -10.6543c-6.70312 -3.33496 -15.2812 -7.40332 -19.0625 -9.04102
c-3.78125 -1.63672 -11.375 -4.74121 -16.875 -6.89844c-5.5 -2.15625 -14.7529 -5.49805 -20.5615 -7.42578c-5.80957 -1.92773 -15.6533 -4.90137 -21.875 -6.6084c-6.22266 -1.70605 -15.1104 -3.94043 -19.751 -4.96484s-12.2344 -2.55957 -16.875 -3.41309
c-4.64062 -0.852539 -12.375 -2.12109 -17.1875 -2.81934c-4.8125 -0.699219 -13.1094 -1.69824 -18.4375 -2.22168s-14.75 -1.22949 -20.9375 -1.56836s-16.3125 -0.621094 -22.5 -0.626953c-6.1875 -0.00683594 -16.4531 0.273438 -22.8125 0.623047
s-15.9219 1.06934 -21.25 1.59961c-5.32812 0.53125 -14.4688 1.66797 -20.3125 2.52734s-14.2812 2.26953 -18.75 3.13379s-12.3438 2.55371 -17.5 3.75586c-5.15625 1.20117 -13.3125 3.29688 -18.125 4.65723s-13.5312 4.04883 -19.375 5.97559
s-15.2529 5.30762 -20.9092 7.5127s-13.5312 5.44043 -17.5 7.19238c-3.96875 1.75 -12.5596 5.84766 -19.0908 9.10449s-16.0938 8.33105 -21.25 11.2773c-5.15625 2.94531 -12.8906 7.58203 -17.1875 10.3037s-11.8447 7.76367 -16.7715 11.2041
c-4.92773 3.44043 -12.9434 9.35645 -17.8125 13.1455c-4.87012 3.79004 -12.6504 10.1582 -17.291 14.1514s-13.8877 12.6045 -20.5488 19.1357c-6.66211 6.53125 -15.6338 15.8125 -19.9385 20.625c-4.30566 4.8125 -11.2939 13.0752 -15.5303 18.3633
c-4.23633 5.28711 -10.8291 14.0059 -14.6514 19.375c-3.82227 5.36816 -9.46191 13.6992 -12.5332 18.5117c-3.07031 4.8125 -8.07324 13.1094 -11.1162 18.4375c-3.04395 5.32812 -8.12012 14.8604 -11.2812 21.1836s-7.37012 15.1826 -9.35449 19.6875
c-1.9834 4.50488 -5.09863 11.9883 -6.92285 16.6289c-1.82324 4.64062 -4.96777 13.3594 -6.9873 19.375s-4.92578 15.3154 -6.45898 20.668c-1.5332 5.35059 -3.9043 14.6318 -5.26855 20.625c-1.36426 5.99121 -3.17871 14.6914 -4.03125 19.332
s-2.1123 12.375 -2.79785 17.1875s-1.68262 13.1094 -2.21582 18.4375c-0.532227 5.32812 -1.25293 14.8906 -1.60254 21.25s-0.634766 16.4844 -0.634766 22.5s0.285156 16.1406 0.634766 22.5s1.07031 15.9219 1.60254 21.25
c0.533203 5.32812 1.53027 13.625 2.21582 18.4375s1.94531 12.5469 2.79785 17.1875s2.66992 13.3594 4.03906 19.375c1.36816 6.01562 3.88379 15.7188 5.58887 21.5625c1.70605 5.84375 4.18359 14.2812 5.50488 18.75c1.32227 4.46875 3.27148 10.0938 4.33203 12.5
s3.33594 7.89062 5.05566 12.1875s4.4043 10.6768 5.96582 14.1777c1.56152 3.5 5.41406 11.5156 8.56152 17.8125c3.14746 6.2959 8.21289 15.8066 11.2568 21.1348c3.04297 5.32812 8.0459 13.625 11.1162 18.4375c3.07129 4.8125 8.71094 13.1436 12.5332 18.5117
c3.82227 5.36914 10.415 14.0879 14.6514 19.375c4.23633 5.28809 11.2236 13.5508 15.5254 18.3633c4.30273 4.8125 13.4238 14.2344 20.2676 20.9375c6.8457 6.70312 15.25 14.6123 18.6787 17.5762c3.42871 2.96484 10.1631 8.53223 14.9668 12.374
s13.1738 10.1357 18.5996 13.9863s13.7305 9.46973 18.4541 12.4873c4.72266 3.01758 12.9473 7.97656 18.2754 11.0195c5.32812 3.04395 15.0312 8.2002 21.5625 11.459c6.53125 3.25781 15.1309 7.36035 19.1104 9.11621s11.8545 4.99609 17.5 7.20117
s15.0459 5.58301 20.8896 7.50586s14.1406 4.50293 18.4375 5.7334c4.29688 1.22949 12.4531 3.3252 18.125 4.6543c5.67188 1.33008 13.9688 3.12598 18.4375 3.99023s12.9062 2.27441 18.75 3.13477c5.84375 0.861328 15.125 2.01465 20.625 2.56445
c5.5 0.550781 14.0781 1.22852 19.0625 1.50684s15.1094 0.541992 22.5 0.587891zM437.031 606.206c-0.257812 -0.0234375 -3.42188 -0.72168 -7.03125 -1.55078c-3.60938 -0.830078 -10.6211 -2.66309 -15.582 -4.07422
c-4.95996 -1.41211 -12.6943 -3.8457 -17.1875 -5.4082c-4.49219 -1.56348 -12.5273 -4.6543 -17.8555 -6.86914c-5.32812 -2.21582 -14.8906 -6.68262 -21.25 -9.92676c-6.35938 -3.24512 -15.9902 -8.63672 -21.4023 -11.9824
c-5.41211 -3.34473 -13.2871 -8.52734 -17.5 -11.5156s-10.1914 -7.4668 -13.2852 -9.95312c-3.09375 -2.48535 -8.85156 -7.35156 -12.7959 -10.8154s-10.8037 -9.9541 -15.2432 -14.4229s-11.0566 -11.5986 -14.7041 -15.8447s-9.09473 -10.9648 -12.1045 -14.9307
c-3.00977 -3.96484 -7.67188 -10.4756 -10.3594 -14.4668c-2.6875 -3.99219 -5.9502 -9.03223 -7.25098 -11.2012c-1.30078 -2.16797 -2.25293 -4.05371 -2.11621 -4.19141c0.137695 -0.136719 13.6914 -5.46387 30.1211 -11.8379
c16.4297 -6.375 30.2832 -11.5898 30.7861 -11.5898s33.3848 23.5342 73.0723 52.2969l72.1572 52.2969v33.0156c0 18.1592 -0.210938 32.9961 -0.46875 32.9717zM564.531 605.841l-2.03125 0.37793v-32.9814v-32.9824l72.501 -52.54l72.5 -52.54l30.4131 11.7842
c16.7275 6.48145 30.5449 11.917 30.707 12.0791c0.162109 0.161133 -1.68945 3.46777 -4.11328 7.34668c-2.4248 3.87891 -6.76562 10.3623 -9.64648 14.4082s-7.73145 10.4756 -10.7793 14.2881c-3.04688 3.8125 -8.2334 9.92285 -11.5244 13.5811
s-9.3623 9.98828 -13.4902 14.0693c-4.12695 4.08008 -10.9785 10.4082 -15.2246 14.0625c-4.24609 3.65332 -10.9307 9.08008 -14.8535 12.0586c-3.92383 2.97852 -10.1201 7.44727 -13.7695 9.93164c-3.65039 2.48438 -10.6074 6.88477 -15.46 9.7793
c-4.85254 2.89355 -13.4873 7.62109 -19.1895 10.5039c-5.70117 2.88281 -14.8418 7.11035 -20.3125 9.39551c-5.46973 2.28418 -15.2891 5.93359 -21.8203 8.11035s-16.375 5.06641 -21.875 6.42285s-10.9141 2.63672 -12.0312 2.84473zM499.892 430.587
c-0.456055 -0.0205078 -10.1104 -6.79199 -21.4541 -15.0459c-11.3438 -8.25586 -39.2578 -28.5068 -62.0312 -45.0049s-41.4053 -30.1084 -41.4053 -30.2451c0 -0.137695 10.2646 -32.6006 22.8125 -72.1406c12.5469 -39.54 22.8125 -72.0332 22.8125 -72.208
s35.7188 -0.317383 79.375 -0.317383c43.6553 0 79.375 0.141602 79.375 0.313477s10.2734 32.708 22.8311 72.3018c18.4189 58.0684 22.6787 72.1338 22.0312 72.7451c-0.44043 0.416016 -28.4121 20.7549 -62.1592 45.1982
c-33.7471 24.4424 -61.7314 44.4248 -62.1875 44.4033zM190.284 340.625c-0.15625 0 -0.285156 -0.210938 -0.285156 -0.46875c-0.000976562 -0.257812 -0.426758 -4.40625 -0.948242 -9.21875c-0.520508 -4.8125 -1.11816 -15.3594 -1.3291 -23.4375
c-0.233398 -8.92676 -0.0957031 -19.0996 0.350586 -25.9375c0.404297 -6.1875 1.30176 -15.75 1.99609 -21.25s2.10254 -14.3594 3.12891 -19.6875s2.99121 -14.0449 4.36621 -19.3711c1.37402 -5.3252 4.14746 -14.6064 6.16113 -20.625
c2.01367 -6.01758 5.53613 -15.4414 7.82617 -20.9414c2.29102 -5.5 6.90527 -15.3438 10.2539 -21.875s8.7168 -16.1436 11.9307 -21.3604s8.26465 -12.876 11.2236 -17.0205c2.95996 -4.14453 7.90625 -10.666 10.9932 -14.4922
c3.08496 -3.82617 6.08301 -7.55273 6.66113 -8.28223s1.16504 -1.18945 1.30469 -1.02246c0.138672 0.166016 9.5791 11.0586 20.9795 24.2061c11.4004 13.1465 20.7275 24.2617 20.7275 24.7002s-12.2041 39.2783 -27.1211 86.3105
c-14.916 47.0332 -27.374 85.7686 -27.6846 86.0791s-13.9941 5.76855 -30.4082 12.1289c-16.4141 6.36133 -29.9707 11.5654 -30.127 11.5654zM809.531 340.599c-0.257812 -0.0136719 -4.96875 -1.79688 -10.4688 -3.96191s-18.9463 -7.40527 -29.8809 -11.6465
c-11.0283 -4.27734 -20.1104 -8.14746 -20.3975 -8.69336c-0.285156 -0.541016 -12.5059 -38.79 -27.1572 -84.9971c-22.6904 -71.5615 -26.5215 -84.1777 -25.8516 -85.1338c0.432617 -0.618164 9.78711 -11.9443 20.7871 -25.1689
c11 -13.2256 20.2812 -23.9775 20.625 -23.8945s3.64453 3.90527 7.33594 8.49414s9.35254 12.168 12.582 16.8418c3.22754 4.6748 8.3252 12.5771 11.3271 17.5615c3.00098 4.98438 8.36035 14.9688 11.9062 22.1875c3.54688 7.21875 8.27051 17.7656 10.4961 23.4375
c2.22656 5.67188 5.21582 13.9688 6.64258 18.4375c1.42773 4.46875 3.68945 12.3438 5.02637 17.5c1.33789 5.15625 3.27148 13.7344 4.29785 19.0625s2.43457 14.1875 3.12891 19.6875c0.695312 5.5 1.59277 15.0625 1.99609 21.25
c0.446289 6.83789 0.583984 17.0107 0.350586 25.9375c-0.210938 8.07812 -0.808594 18.625 -1.3291 23.4375c-0.521484 4.8125 -0.947266 8.96094 -0.948242 9.21875c0 0.257812 -0.211914 0.457031 -0.46875 0.442383zM501.791 70.625h-94.1582l-22.3252 -25.7354
l-22.3262 -25.7363l3.50195 -1.77051c1.92578 -0.973633 7.93457 -3.62109 13.3525 -5.88281c5.41797 -2.2627 14.7734 -5.75879 20.7891 -7.76953c6.01562 -2.01172 14.7344 -4.65332 19.375 -5.87012s11.9531 -2.92871 16.25 -3.80273s11.3281 -2.13477 15.625 -2.7998
c4.29688 -0.666992 11.8906 -1.64746 16.875 -2.18164c4.98438 -0.533203 15.6719 -1.14258 23.75 -1.35449c8.93066 -0.233398 19.0967 -0.0957031 25.9375 0.350586c6.1875 0.404297 15.75 1.30176 21.25 1.99609s14.3594 2.10254 19.6875 3.12891
s14.0059 2.98047 19.2842 4.34375c5.27734 1.36133 13.5742 3.77539 18.4375 5.3623c4.8623 1.58789 13.25 4.65332 18.6387 6.8125c5.38867 2.1582 12.6387 5.26172 16.1113 6.89453c3.47266 1.63379 6.23535 3.1582 6.14062 3.38867
c-0.0966797 0.230469 -9.59375 11.7158 -21.1064 25.5225l-20.9316 25.1035h-94.1582z" />
  </g>

</svg>
