<?xml version="1.0" standalone="no"?>
<!DOCTYPE svg PUBLIC "-//W3C//DTD SVG 1.1//EN" "http://www.w3.org/Graphics/SVG/1.1/DTD/svg11.dtd" >
<svg xmlns="http://www.w3.org/2000/svg" xmlns:xlink="http://www.w3.org/1999/xlink" version="1.1" viewBox="-10 0 1010 1000">
  <g transform="matrix(1 0 0 -1 0 800)">
   <path fill="currentColor"
d="M498.125 737.396c7.39062 0.0439453 18.5 -0.197266 24.6875 -0.536133s15.6094 -1.04492 20.9375 -1.56836s13.625 -1.51562 18.4375 -2.20605c4.8125 -0.689453 11.8438 -1.81738 15.625 -2.50488c3.78125 -0.688477 11.5127 -2.25586 17.1807 -3.48242
c5.66895 -1.22656 15.7666 -3.75293 22.4414 -5.61328c6.67383 -1.85938 16.8027 -4.95996 22.5068 -6.88965s15.915 -5.72461 22.6914 -8.43262c6.77539 -2.70801 16.7744 -7.00586 22.2197 -9.55078s14.1035 -6.86328 19.2422 -9.59863
c5.13867 -2.73438 12.8584 -7.01074 17.1553 -9.50293s13.0156 -7.97266 19.375 -12.1787c6.35938 -4.2041 15.5 -10.5898 20.3125 -14.1875c4.8125 -3.59668 12.125 -9.30957 16.25 -12.6943c4.125 -3.38379 11.0156 -9.3125 15.3125 -13.1748
s13.1729 -12.4658 19.7246 -19.1182c6.55273 -6.65137 15.4121 -16.1982 19.6875 -21.2148c4.27637 -5.0166 10.084 -12.0713 12.9053 -15.6777c2.82227 -3.60742 8.16602 -10.8105 11.875 -16.0078c3.70996 -5.19727 9.12402 -13.1885 12.0322 -17.7598
c2.9082 -4.57031 7.77051 -12.623 10.8047 -17.8936c3.03418 -5.27148 8.20117 -14.9463 11.4814 -21.5c3.28027 -6.55273 7.58594 -15.5996 9.56934 -20.1025c1.9834 -4.50391 5.09766 -11.9854 6.92188 -16.626c1.82324 -4.64062 4.96777 -13.3594 6.9873 -19.375
s4.91895 -15.2969 6.44336 -20.625c1.52344 -5.32812 3.74316 -13.9062 4.93262 -19.0625c1.18848 -5.15625 2.87012 -13.0312 3.73535 -17.5s2.27734 -12.9062 3.13672 -18.75s1.99609 -14.9844 2.52734 -20.3125c0.530273 -5.32812 1.25 -14.8906 1.59961 -21.25
s0.634766 -16.4844 0.634766 -22.5s-0.285156 -16.1406 -0.634766 -22.5s-1.06934 -15.9219 -1.59961 -21.25c-0.53125 -5.32812 -1.66797 -14.4688 -2.52734 -20.3125s-2.26953 -14.2812 -3.13379 -18.75s-2.66016 -12.7656 -3.99023 -18.4375
c-1.3291 -5.67188 -3.4248 -13.8281 -4.6543 -18.125c-1.23047 -4.29688 -3.80859 -12.5938 -5.73047 -18.4375s-5.54297 -15.8281 -8.0459 -22.1875s-6.08984 -14.9717 -7.9707 -19.1396c-1.88086 -4.16699 -6.49316 -13.5889 -10.251 -20.9375
c-3.75684 -7.34766 -10.1387 -18.8447 -14.1826 -25.5479c-4.04297 -6.70312 -10.4668 -16.6875 -14.2744 -22.1875c-3.80859 -5.5 -10.0469 -14.0547 -13.8623 -19.0098c-3.81738 -4.95508 -10.4541 -13.1113 -14.749 -18.125
c-4.29492 -5.01465 -13.1582 -14.5605 -19.6953 -21.2158s-15.4004 -15.2588 -19.6973 -19.1182c-4.29688 -3.86035 -11.1221 -9.72852 -15.166 -13.0439c-4.04492 -3.31445 -10.6543 -8.51562 -14.6875 -11.5596c-4.03418 -3.04395 -11.2715 -8.21484 -16.084 -11.4941
c-4.8125 -3.27637 -12.125 -8.05469 -16.25 -10.6172s-11.1562 -6.72461 -15.625 -9.25c-4.46875 -2.52441 -13.6094 -7.31836 -20.3125 -10.6543c-6.70312 -3.33496 -15.2812 -7.40332 -19.0625 -9.04102c-3.78125 -1.63672 -11.375 -4.74121 -16.875 -6.89844
c-5.5 -2.15625 -14.7529 -5.49805 -20.5615 -7.42578c-5.80957 -1.92773 -15.6533 -4.90137 -21.875 -6.6084c-6.22266 -1.70605 -15.1104 -3.94043 -19.751 -4.96484s-12.2344 -2.55957 -16.875 -3.41309c-4.64062 -0.852539 -12.375 -2.12109 -17.1875 -2.81934
c-4.8125 -0.699219 -13.1094 -1.69824 -18.4375 -2.22168s-14.75 -1.22949 -20.9375 -1.56836s-16.3125 -0.621094 -22.5 -0.626953c-6.1875 -0.00683594 -16.4531 0.273438 -22.8125 0.623047s-15.9219 1.06934 -21.25 1.59961
c-5.32812 0.53125 -14.4688 1.66797 -20.3125 2.52734s-14.2812 2.26953 -18.75 3.13379s-12.3438 2.55371 -17.5 3.75586c-5.15625 1.20117 -13.3125 3.29688 -18.125 4.65723s-13.5312 4.04883 -19.375 5.97559s-15.2529 5.30762 -20.9092 7.5127
s-13.5312 5.44043 -17.5 7.19238c-3.96875 1.75 -12.5596 5.84766 -19.0908 9.10449s-16.0938 8.33105 -21.25 11.2773c-5.15625 2.94531 -12.8906 7.58203 -17.1875 10.3037s-11.8447 7.76367 -16.7715 11.2041c-4.92773 3.44043 -12.9434 9.35742 -17.8125 13.1484
c-4.87012 3.79102 -12.6504 10.1523 -17.291 14.1357c-4.64062 3.98438 -13.8877 12.5938 -20.5488 19.1338c-6.66211 6.53906 -15.6338 15.8271 -19.9385 20.6396c-4.30566 4.8125 -11.2939 13.0752 -15.5303 18.3633c-4.23633 5.28711 -10.8291 14.0059 -14.6514 19.375
c-3.82227 5.36816 -9.46191 13.6992 -12.5332 18.5117c-3.07031 4.8125 -8.07324 13.1094 -11.1162 18.4375c-3.04395 5.32812 -8.12012 14.8604 -11.2812 21.1836s-7.37012 15.1826 -9.35449 19.6875c-1.9834 4.50488 -5.09863 11.9883 -6.92285 16.6289
c-1.82324 4.64062 -4.96777 13.3594 -6.9873 19.375s-4.92578 15.3154 -6.45898 20.668c-1.5332 5.35059 -3.9043 14.6318 -5.26855 20.625c-1.36426 5.99121 -3.17871 14.6914 -4.03125 19.332s-2.1123 12.375 -2.79785 17.1875s-1.68262 13.1094 -2.21582 18.4375
c-0.532227 5.32812 -1.25293 14.8906 -1.60254 21.25s-0.634766 16.4844 -0.634766 22.5s0.285156 16.1406 0.634766 22.5s1.07031 15.9219 1.60254 21.25c0.533203 5.32812 1.53027 13.625 2.21582 18.4375s1.94531 12.5469 2.79785 17.1875
s2.66699 13.3408 4.03125 19.332c1.36426 5.99316 3.75391 15.3389 5.30859 20.7705s4.25195 14.1689 5.99219 19.417c1.74023 5.24902 4.97363 14.1621 7.18457 19.8076c2.21191 5.64551 5.45703 13.5205 7.21289 17.5s5.8584 12.5791 9.11621 19.1104
c3.25879 6.53125 8.41504 16.2344 11.459 21.5625c3.04297 5.32812 8.0459 13.625 11.1162 18.4375c3.07129 4.8125 8.71094 13.1436 12.5332 18.5117c3.82227 5.36914 10.415 14.0879 14.6514 19.375c4.23633 5.28809 11.2236 13.5508 15.5254 18.3633
c4.30273 4.8125 13.4238 14.2344 20.2676 20.9375c6.8457 6.70312 15.25 14.6123 18.6787 17.5762c3.42871 2.96484 10.1631 8.53223 14.9668 12.374s13.1738 10.1357 18.5996 13.9863s13.7305 9.46973 18.4541 12.4873c4.72266 3.01758 12.9473 7.97656 18.2754 11.0195
c5.32812 3.04395 15.0312 8.2002 21.5625 11.459c6.53125 3.25781 15.1309 7.36035 19.1104 9.11621s11.8545 4.99609 17.5 7.20117s15.0459 5.58301 20.8896 7.50586s14.1406 4.50293 18.4375 5.7334c4.29688 1.22949 12.4531 3.3252 18.125 4.6543
c5.67188 1.33008 13.9688 3.12598 18.4375 3.99023s12.9062 2.27441 18.75 3.13477c5.84375 0.861328 15.125 2.01465 20.625 2.56445c5.5 0.550781 14.0781 1.22852 19.0625 1.50684s15.1094 0.541992 22.5 0.587891zM498.438 612.378
c-6.53125 -0.0566406 -13.2812 -0.1875 -15 -0.291016c-1.71973 -0.103516 -6.64062 -0.487305 -10.9375 -0.851562c-4.29688 -0.365234 -11.75 -1.22168 -16.5625 -1.90332c-4.8125 -0.680664 -12.4062 -1.95215 -16.875 -2.8252
c-4.46875 -0.87207 -12.4824 -2.70703 -17.8086 -4.07812c-5.3252 -1.37012 -14.6064 -4.13965 -20.625 -6.15332c-6.01758 -2.01367 -15.4414 -5.53711 -20.9414 -7.82812c-5.5 -2.29199 -15.5625 -7.00879 -22.3613 -10.4824s-12.626 -6.63574 -12.9502 -7.02637
c-0.400391 -0.482422 1.63867 -3.71094 6.34375 -10.0439c3.81445 -5.13184 10.0918 -14.1133 13.9512 -19.957c3.8584 -5.84375 8.8418 -13.7188 11.0742 -17.5c2.23145 -3.78125 6.50391 -11.4053 9.49316 -16.9414c2.99023 -5.53711 7.78809 -15.0996 10.6621 -21.25
c2.87305 -6.15137 7.3418 -16.5273 9.93066 -23.0586c2.58789 -6.53125 6.00293 -15.6719 7.58984 -20.3125s4.12305 -12.6562 5.6377 -17.8125c1.51367 -5.15625 3.75195 -13.3369 4.97266 -18.1797c1.22168 -4.84277 3.17773 -13.5615 4.34668 -19.375
c1.16992 -5.81348 2.71094 -14.3672 3.4248 -19.0078c0.714844 -4.64062 1.71289 -11.8125 2.21875 -15.9375c0.506836 -4.125 1.28516 -11.4375 1.73145 -16.25c0.513672 -5.54785 0.80957 -18.4717 0.80957 -35.3125s-0.295898 -29.7646 -0.80957 -35.3125
c-0.446289 -4.8125 -1.22461 -12.125 -1.73145 -16.25c-0.505859 -4.125 -1.50391 -11.2969 -2.21875 -15.9375c-0.713867 -4.64062 -2.25488 -13.1943 -3.4248 -19.0078c-1.16895 -5.81348 -3.125 -14.5322 -4.34668 -19.375
c-1.2207 -4.84277 -3.45898 -13.0234 -4.97266 -18.1797c-1.51465 -5.15625 -4.05078 -13.1719 -5.6377 -17.8125s-5 -13.7812 -7.58691 -20.3125c-2.58594 -6.53125 -7.28613 -17.3594 -10.4453 -24.0625c-3.1582 -6.70312 -8.51367 -17.25 -11.8994 -23.4375
s-9.04395 -15.8906 -12.5732 -21.5625c-3.53027 -5.67188 -8.87988 -13.8281 -11.8887 -18.125s-7.70508 -10.7432 -10.4365 -14.3252l-4.96484 -6.51367l1.46875 -1.12402c0.807617 -0.618164 6.6709 -3.78223 13.0303 -7.03125
c6.35938 -3.24805 16.0625 -7.7832 21.5625 -10.0752c5.5 -2.29297 14.9219 -5.81445 20.9375 -7.8252c6.01562 -2.01172 14.7344 -4.65332 19.375 -5.87012s11.9531 -2.92871 16.25 -3.80273s11.3281 -2.13477 15.625 -2.7998
c4.29688 -0.666992 11.8906 -1.64746 16.875 -2.18164c4.98438 -0.533203 15.6719 -1.14258 23.75 -1.35449c8.93066 -0.233398 19.0967 -0.0957031 25.9375 0.350586c6.1875 0.404297 15.75 1.29883 21.25 1.9873c5.5 0.689453 15.4844 2.35254 22.1875 3.69434
c6.70312 1.34277 16.3047 3.57617 21.3379 4.96289c5.03223 1.38672 13.2881 3.95215 18.3457 5.69922c5.05762 1.74609 13.5967 5.00488 18.9746 7.23926c5.37891 2.23535 15.3418 6.90625 22.1406 10.3799s12.626 6.63574 12.9502 7.02637
c0.400391 0.482422 -1.63867 3.71094 -6.34375 10.0439c-3.81445 5.13184 -10.0918 14.1133 -13.9512 19.957c-3.8584 5.84375 -8.8418 13.7188 -11.0742 17.5c-2.23145 3.78125 -6.50391 11.4053 -9.49316 16.9414c-2.99023 5.53711 -7.7832 15.0996 -10.6504 21.25
c-2.86719 6.15137 -7.24219 16.2295 -9.72168 22.3965c-2.47949 6.16602 -6.4375 16.9941 -8.79395 24.0625c-2.35742 7.06738 -5.54492 17.4902 -7.08301 23.1621s-3.49902 13.4062 -4.35742 17.1875c-0.857422 3.78125 -2.28027 10.5312 -3.15918 15
c-0.880859 4.46875 -2.15332 11.6406 -2.83008 15.9375c-0.675781 4.29688 -1.64941 11.3281 -2.16211 15.625c-0.513672 4.29688 -1.30078 11.75 -1.75 16.5625c-0.522461 5.59375 -0.816406 18.3311 -0.816406 35.3125s0.293945 29.7188 0.816406 35.3125
c0.449219 4.8125 1.23242 12.2656 1.74023 16.5625c0.506836 4.29688 1.47949 11.3281 2.16016 15.625s1.95801 11.4688 2.83984 15.9375c0.879883 4.46875 2.30371 11.2188 3.16113 15c0.858398 3.78125 2.81934 11.5156 4.35742 17.1875s4.72559 16.0947 7.08301 23.1621
c2.35645 7.06836 6.32031 17.8965 8.80664 24.0625c2.4873 6.16699 6.32617 15.1504 8.53125 19.9629s6.3916 13.3271 9.30371 18.9229s7.71582 14.3145 10.6748 19.375s8.54199 13.9834 12.4072 19.8271s10.1465 14.8252 13.96 19.957
c4.70605 6.33301 6.74414 9.56152 6.34375 10.0439c-0.324219 0.390625 -6.15137 3.55273 -12.9502 7.02637s-16.7607 8.14453 -22.1396 10.3799c-5.37793 2.23438 -13.917 5.49316 -18.9746 7.23926c-5.05762 1.74707 -13.3135 4.3125 -18.3457 5.69922
c-5.0332 1.38672 -14.6357 3.62012 -21.3379 4.96387c-6.70312 1.34277 -16.8281 3.01562 -22.5 3.7168c-5.67285 0.701172 -14.5312 1.55469 -19.6875 1.89648c-5.15625 0.34082 -14.7197 0.574219 -21.25 0.517578zM251.41 484.944l-1.80469 2.13086l-3.76465 -5.25586
c-2.07129 -2.8916 -4.99414 -7.08496 -6.49609 -9.31934s-5.08008 -8 -7.9502 -12.8125c-2.87109 -4.8125 -7.5791 -13.415 -10.4619 -19.1172c-2.88281 -5.70117 -7.06348 -14.7432 -9.29102 -20.0908c-2.22754 -5.34863 -5.47949 -13.8633 -7.22559 -18.9209
c-1.74707 -5.05762 -4.3125 -13.3135 -5.69922 -18.3457c-1.38672 -5.0332 -3.62012 -14.6348 -4.96387 -21.3379c-1.34277 -6.70312 -3.01562 -16.8281 -3.7168 -22.5s-1.55469 -14.5312 -1.89648 -19.6875c-0.34082 -5.15625 -0.620117 -14.0156 -0.620117 -19.6875
s0.279297 -14.5312 0.620117 -19.6875c0.341797 -5.15625 1.19922 -14.0156 1.90527 -19.6875s2.12402 -14.6719 3.15137 -20s2.99219 -14.0449 4.36719 -19.3711c1.37402 -5.3252 4.14746 -14.6064 6.16113 -20.625c2.01367 -6.01758 5.53613 -15.4414 7.82617 -20.9414
c2.29102 -5.5 6.90527 -15.3438 10.2539 -21.875s8.6875 -16.0938 11.8643 -21.25c3.17773 -5.15625 8.05566 -12.5928 10.8418 -16.5244l5.06445 -7.15039l1.81934 2.15039c1.00195 1.18164 4.72168 6.50879 8.26758 11.8369c3.54492 5.32812 8.46094 13.2031 10.9238 17.5
c2.46191 4.29688 6.81836 12.5938 9.67969 18.4375s6.6377 14.1797 8.3916 18.5234c1.75488 4.34473 4.19824 10.6729 5.43066 14.0625c1.23242 3.39062 3.74414 11.3672 5.58105 17.7266s4.18945 15.5 5.22656 20.3125c1.03809 4.8125 2.4668 12.4062 3.1748 16.875
s1.73633 11.9219 2.28418 16.5625c0.566406 4.79492 1.14453 16.3037 1.34082 26.6572c0.213867 11.3643 0.0673828 22.0645 -0.392578 28.4375c-0.404297 5.62012 -1.43457 15.1396 -2.28906 21.1553s-2.39062 15.0479 -3.41406 20.0723s-3.00586 13.3213 -4.40527 18.4375
s-3.80762 13.0957 -5.35352 17.7305c-1.54492 4.63477 -4.50879 12.6504 -6.58789 17.8125c-2.07812 5.16211 -6.12109 14.166 -8.98438 20.0098s-7.2207 14.1406 -9.68262 18.4375c-2.46289 4.29688 -7.37891 12.1719 -10.9238 17.5
c-3.5459 5.32812 -7.25879 10.6465 -8.25195 11.8193zM750.563 486.601c-0.286133 0.176758 -2.07129 -1.77637 -3.96875 -4.3418c-1.89551 -2.56445 -5.55371 -7.89258 -8.12695 -11.8398c-2.57422 -3.94727 -6.67188 -10.6475 -9.10547 -14.8916
c-2.43359 -4.24316 -6.77441 -12.4961 -9.64453 -18.3389c-2.87012 -5.84375 -7.33008 -15.9697 -9.91113 -22.5c-2.58008 -6.53125 -5.82812 -15.5312 -7.21777 -20c-1.38965 -4.46973 -3.51465 -11.9229 -4.72363 -16.5625
c-1.20801 -4.64062 -2.90625 -11.9697 -3.77246 -16.2861s-2.13184 -11.6289 -2.8125 -16.25c-0.680664 -4.62207 -1.5957 -11.6367 -2.03418 -15.5889c-0.5 -4.51074 -0.796875 -15.6836 -0.796875 -30s0.296875 -25.4902 0.796875 -30
c0.438477 -3.95312 1.35352 -10.9688 2.03418 -15.5898s1.94629 -11.9336 2.81348 -16.25c0.867188 -4.31543 2.69727 -12.1416 4.06836 -17.3906c1.37207 -5.24805 3.88965 -13.7617 5.59668 -18.9209c1.70703 -5.1582 4.82715 -13.6621 6.93457 -18.8955
s6.1748 -14.2969 9.03809 -20.1406s7.2207 -14.1406 9.68262 -18.4375c2.46289 -4.29688 7.37891 -12.1719 10.9238 -17.5c3.5459 -5.32812 7.26758 -10.6562 8.26855 -11.8398l1.82324 -2.15234l4.94141 7.00879c2.71777 3.85547 7.69043 11.4336 11.0518 16.8398
c3.36035 5.40723 9.32324 16.2998 13.25 24.2061c3.92578 7.90625 8.95508 19.0156 11.1748 24.6875s5.2041 13.9688 6.63086 18.4375c1.42773 4.46875 3.68945 12.3438 5.02637 17.5s3.27148 13.7344 4.29883 19.0625s2.44531 14.3281 3.15137 20
s1.56348 14.5312 1.90527 19.6875c0.34082 5.15625 0.620117 14.0156 0.620117 19.6875s-0.279297 14.5312 -0.620117 19.6875c-0.341797 5.15625 -1.19922 14.0156 -1.90527 19.6875s-2.12402 14.6719 -3.15137 20s-2.99219 14.0449 -4.36719 19.3711
c-1.37402 5.3252 -4.14746 14.6064 -6.16113 20.625c-2.01367 6.01758 -5.53125 15.417 -7.81445 20.8867c-2.2832 5.4707 -6.52246 14.6387 -9.41992 20.375c-2.89746 5.73535 -7.69824 14.4785 -10.667 19.4287c-2.96973 4.9502 -8.0752 12.875 -11.3457 17.6094
c-3.26953 4.73438 -6.17871 8.75293 -6.46484 8.92871z" />
  </g>

</svg>
