<?xml version="1.0" standalone="no"?>
<!DOCTYPE svg PUBLIC "-//W3C//DTD SVG 1.1//EN" "http://www.w3.org/Graphics/SVG/1.1/DTD/svg11.dtd" >
<svg xmlns="http://www.w3.org/2000/svg" xmlns:xlink="http://www.w3.org/1999/xlink" version="1.1" viewBox="-10 0 1010 1000">
  <g transform="matrix(1 0 0 -1 0 800)">
   <path fill="currentColor"
d="M498.125 737.396c7.39062 0.0439453 18.5 -0.197266 24.6875 -0.536133s15.6094 -1.04492 20.9375 -1.56836s13.625 -1.51562 18.4375 -2.20605c4.8125 -0.689453 11.8438 -1.81738 15.625 -2.50488c3.78125 -0.688477 11.5127 -2.25586 17.1807 -3.48242
c5.66895 -1.22656 15.7666 -3.75293 22.4414 -5.61328c6.67383 -1.85938 16.8027 -4.95996 22.5068 -6.88965s15.915 -5.72461 22.6914 -8.43262c6.77539 -2.70801 16.7744 -7.00586 22.2197 -9.55078s14.1035 -6.86328 19.2422 -9.59863
c5.13867 -2.73438 12.8584 -7.01074 17.1553 -9.50293s13.0156 -7.97266 19.375 -12.1787c6.35938 -4.2041 15.5 -10.5898 20.3125 -14.1875c4.8125 -3.59668 12.125 -9.30957 16.25 -12.6943c4.125 -3.38379 11.0156 -9.3125 15.3125 -13.1748
s13.1729 -12.4658 19.7246 -19.1182c6.55273 -6.65137 15.4121 -16.1982 19.6875 -21.2148c4.27637 -5.0166 10.084 -12.0713 12.9053 -15.6777c2.82227 -3.60742 8.16602 -10.8105 11.875 -16.0078c3.70996 -5.19727 9.12402 -13.1885 12.0322 -17.7598
c2.9082 -4.57031 7.77051 -12.623 10.8047 -17.8936c3.03418 -5.27148 8.20117 -14.9463 11.4814 -21.5c3.28027 -6.55273 7.58594 -15.5996 9.56934 -20.1025c1.9834 -4.50391 5.09766 -11.9854 6.92188 -16.626c1.82324 -4.64062 4.96777 -13.3594 6.9873 -19.375
s4.91895 -15.2969 6.44336 -20.625c1.52344 -5.32812 3.74316 -13.9062 4.93262 -19.0625c1.18848 -5.15625 2.87012 -13.0312 3.73535 -17.5s2.27734 -12.9062 3.13672 -18.75s1.99609 -14.9844 2.52734 -20.3125c0.530273 -5.32812 1.25 -14.8906 1.59961 -21.25
s0.634766 -16.4844 0.634766 -22.5s-0.285156 -16.1406 -0.634766 -22.5s-1.06934 -15.9219 -1.59961 -21.25c-0.53125 -5.32812 -1.66797 -14.4688 -2.52734 -20.3125s-2.26953 -14.2812 -3.13379 -18.75s-2.66016 -12.7656 -3.99023 -18.4375
c-1.3291 -5.67188 -3.4248 -13.8281 -4.6543 -18.125c-1.23047 -4.29688 -3.80859 -12.5938 -5.73047 -18.4375s-5.54297 -15.8281 -8.0459 -22.1875s-6.08984 -14.9717 -7.9707 -19.1396c-1.88086 -4.16699 -6.49316 -13.5889 -10.251 -20.9375
c-3.75684 -7.34766 -10.1387 -18.8447 -14.1826 -25.5479c-4.04297 -6.70312 -10.4668 -16.6875 -14.2744 -22.1875c-3.80859 -5.5 -10.0469 -14.0547 -13.8623 -19.0098c-3.81738 -4.95508 -10.4541 -13.1113 -14.749 -18.125
c-4.29492 -5.01465 -13.1582 -14.5605 -19.6953 -21.2158s-15.4004 -15.2588 -19.6973 -19.1182c-4.29688 -3.86035 -11.1221 -9.72852 -15.166 -13.0439c-4.04492 -3.31445 -10.6543 -8.51562 -14.6875 -11.5596c-4.03418 -3.04395 -11.2715 -8.21484 -16.084 -11.4941
c-4.8125 -3.27637 -12.125 -8.05469 -16.25 -10.6172s-11.1562 -6.72461 -15.625 -9.25c-4.46875 -2.52441 -13.6094 -7.31836 -20.3125 -10.6543c-6.70312 -3.33496 -15.2812 -7.40332 -19.0625 -9.04102c-3.78125 -1.63672 -11.375 -4.74121 -16.875 -6.89844
c-5.5 -2.15625 -14.7529 -5.49805 -20.5615 -7.42578c-5.80957 -1.92773 -15.6533 -4.90137 -21.875 -6.6084c-6.22266 -1.70605 -15.1104 -3.94043 -19.751 -4.96484s-12.2344 -2.55957 -16.875 -3.41309c-4.64062 -0.852539 -12.375 -2.12109 -17.1875 -2.81934
c-4.8125 -0.699219 -13.1094 -1.69824 -18.4375 -2.22168s-14.75 -1.22949 -20.9375 -1.56836s-16.3125 -0.621094 -22.5 -0.626953c-6.1875 -0.00683594 -16.4531 0.273438 -22.8125 0.623047s-15.9219 1.06934 -21.25 1.59961
c-5.32812 0.53125 -14.4688 1.66797 -20.3125 2.52734s-14.2812 2.26953 -18.75 3.13379s-12.3438 2.55371 -17.5 3.75586c-5.15625 1.20117 -13.3125 3.29688 -18.125 4.65723s-13.5312 4.04883 -19.375 5.97559s-15.2529 5.30762 -20.9092 7.5127
s-13.5312 5.44043 -17.5 7.19238c-3.96875 1.75 -12.5596 5.84766 -19.0908 9.10449s-16.0938 8.33105 -21.25 11.2773c-5.15625 2.94531 -12.8906 7.58203 -17.1875 10.3037s-11.8447 7.76367 -16.7715 11.2041c-4.92773 3.44043 -12.9434 9.35645 -17.8125 13.1455
c-4.87012 3.79004 -12.6504 10.1582 -17.291 14.1514s-13.8877 12.6045 -20.5488 19.1357c-6.66211 6.53125 -15.6338 15.8125 -19.9385 20.625c-4.30566 4.8125 -11.2939 13.0752 -15.5303 18.3633c-4.23633 5.28711 -10.8291 14.0059 -14.6514 19.375
c-3.82227 5.36816 -9.46191 13.6992 -12.5332 18.5117c-3.07031 4.8125 -8.07324 13.1094 -11.1162 18.4375c-3.04395 5.32812 -8.12012 14.8604 -11.2812 21.1836s-7.37012 15.1826 -9.35449 19.6875c-1.9834 4.50488 -5.09863 11.9883 -6.92285 16.6289
c-1.82324 4.64062 -4.96777 13.3594 -6.9873 19.375s-4.92578 15.3154 -6.45898 20.668c-1.5332 5.35059 -3.9043 14.6318 -5.26855 20.625c-1.36426 5.99121 -3.17871 14.6914 -4.03125 19.332s-2.1123 12.375 -2.79785 17.1875s-1.68262 13.1094 -2.21582 18.4375
c-0.532227 5.32812 -1.25293 14.8906 -1.60254 21.25s-0.634766 16.4844 -0.634766 22.5s0.285156 16.1406 0.634766 22.5s1.07031 15.9219 1.60254 21.25c0.533203 5.32812 1.53027 13.625 2.21582 18.4375s1.94531 12.5469 2.79785 17.1875
s2.66699 13.3408 4.03125 19.332c1.36426 5.99316 3.75391 15.3389 5.30859 20.7705s4.25195 14.1689 5.99219 19.417c1.74023 5.24902 4.97363 14.1621 7.18457 19.8076c2.21191 5.64551 5.45703 13.5205 7.21289 17.5s5.8584 12.5791 9.11621 19.1104
c3.25879 6.53125 8.41504 16.2344 11.459 21.5625c3.04297 5.32812 8.0459 13.625 11.1162 18.4375c3.07129 4.8125 8.71094 13.1436 12.5332 18.5117c3.82227 5.36914 10.415 14.0879 14.6514 19.375c4.23633 5.28809 11.2236 13.5508 15.5254 18.3633
c4.30273 4.8125 13.4238 14.2344 20.2676 20.9375c6.8457 6.70312 15.25 14.6123 18.6787 17.5762c3.42871 2.96484 10.1631 8.53223 14.9668 12.374s13.1738 10.1357 18.5996 13.9863s13.7305 9.46973 18.4541 12.4873c4.72266 3.01758 12.9473 7.97656 18.2754 11.0195
c5.32812 3.04395 15.0312 8.2002 21.5625 11.459c6.53125 3.25781 15.1309 7.36035 19.1104 9.11621s11.8545 4.99609 17.5 7.20117s15.0459 5.58301 20.8896 7.50586s14.1406 4.50293 18.4375 5.7334c4.29688 1.22949 12.4531 3.3252 18.125 4.6543
c5.67188 1.33008 13.9688 3.12598 18.4375 3.99023s12.9062 2.27441 18.75 3.13477c5.84375 0.861328 15.125 2.01465 20.625 2.56445c5.5 0.550781 14.0781 1.22852 19.0625 1.50684s15.1094 0.541992 22.5 0.587891zM504.375 612.143
c-9.79688 0.12207 -19.2188 0.118164 -20.9375 -0.0107422c-1.71875 -0.12793 -6.64062 -0.532227 -10.9375 -0.896484c-4.29688 -0.365234 -11.75 -1.22168 -16.5625 -1.90332c-4.8125 -0.680664 -12.4062 -1.95215 -16.875 -2.8252
c-4.46875 -0.87207 -12.4824 -2.70703 -17.8086 -4.07812c-5.3252 -1.37012 -14.6064 -4.13965 -20.625 -6.15332c-6.01758 -2.01367 -15.4414 -5.53613 -20.9414 -7.82617c-5.5 -2.29102 -15.3438 -6.90625 -21.875 -10.2578
c-6.53125 -3.35059 -15.8828 -8.55176 -20.7812 -11.5596c-4.89844 -3.00684 -8.90625 -5.65918 -8.90625 -5.89355s97.3057 -97.7314 216.234 -216.659c139.325 -139.325 216.447 -216.019 216.835 -215.625c0.330078 0.334961 3.32422 5.10938 6.65234 10.6094
s8.95215 15.9062 12.4971 23.125s8.2666 17.7656 10.4922 23.4375c2.22656 5.67188 5.21582 13.9688 6.64258 18.4375c1.42773 4.46875 3.68945 12.3438 5.02637 17.5s3.27148 13.7344 4.29883 19.0625s2.44531 14.3281 3.15137 20s1.56348 14.5312 1.90527 19.6875
c0.34082 5.15625 0.620117 14.0156 0.620117 19.6875s-0.279297 14.5312 -0.620117 19.6875c-0.341797 5.15625 -1.19922 14.0156 -1.90527 19.6875s-2.12402 14.6719 -3.15137 20s-2.99219 14.0449 -4.36719 19.3711c-1.37402 5.3252 -4.14746 14.6064 -6.16113 20.625
c-2.01367 6.01758 -5.53613 15.4414 -7.82617 20.9414c-2.29102 5.5 -6.90527 15.3438 -10.2539 21.875s-8.68945 16.0938 -11.8682 21.25c-3.17969 5.15625 -8.24121 12.8281 -11.2471 17.0488s-7.95801 10.791 -11.002 14.5996
c-3.04492 3.80957 -8.22949 9.91797 -11.5205 13.5762s-9.3623 9.98828 -13.4902 14.0693c-4.12695 4.08008 -10.9785 10.4082 -15.2246 14.0625c-4.24609 3.65332 -10.9307 9.08008 -14.8535 12.0586c-3.92383 2.97852 -10.1201 7.44727 -13.7695 9.93164
c-3.65039 2.48438 -10.6074 6.88477 -15.46 9.7793c-4.85254 2.89355 -13.4873 7.62109 -19.1895 10.5039c-5.70117 2.88281 -14.7432 7.06348 -20.0908 9.29102c-5.34863 2.22754 -13.8633 5.47949 -18.9209 7.22559c-5.05762 1.74707 -13.3135 4.30664 -18.3457 5.6875
c-5.0332 1.38086 -13.2285 3.36133 -18.2129 4.40137c-4.98438 1.04102 -12.7188 2.45508 -17.1875 3.14355s-12.0625 1.66797 -16.875 2.17676c-4.8125 0.509766 -16.7656 1.02637 -26.5625 1.14844zM239.257 471.875c-0.237305 0 -1.95312 -2.46094 -3.81348 -5.46875
s-4.99512 -8.2627 -6.9668 -11.6777c-1.97168 -3.41602 -5.68555 -10.4053 -8.25391 -15.5332c-2.56836 -5.12891 -6.46094 -13.625 -8.65039 -18.8818c-2.18945 -5.25781 -5.41016 -13.6973 -7.15625 -18.7549c-1.74707 -5.05762 -4.3125 -13.3135 -5.69922 -18.3457
c-1.38672 -5.0332 -3.62012 -14.6348 -4.96387 -21.3379c-1.34277 -6.70312 -3.01562 -16.8281 -3.7168 -22.5s-1.55469 -14.5312 -1.89648 -19.6875c-0.34082 -5.15625 -0.620117 -14.0156 -0.620117 -19.6875s0.279297 -14.5312 0.620117 -19.6875
c0.341797 -5.15625 1.19922 -14.0156 1.90527 -19.6875s2.12402 -14.6719 3.15137 -20s2.99219 -14.0449 4.36719 -19.3711c1.37402 -5.3252 4.14746 -14.6064 6.16113 -20.625c2.01367 -6.01758 5.53613 -15.4414 7.82617 -20.9414
c2.29102 -5.5 6.90527 -15.3438 10.2539 -21.875s8.7168 -16.1436 11.9307 -21.3604s8.26465 -12.876 11.2236 -17.0205c2.95996 -4.14453 7.88281 -10.665 10.9404 -14.4893c3.05762 -3.8252 8.25391 -9.94629 11.5479 -13.6025
c3.29492 -3.65723 8.94336 -9.57715 12.5527 -13.1562s9.65625 -9.22656 13.4375 -12.5488c3.78125 -3.32324 9.40625 -8.0752 12.5 -10.5605c3.09375 -2.48633 9.07227 -6.96484 13.2852 -9.95312s12.0879 -8.1709 17.5 -11.5156
c5.41211 -3.3457 15.043 -8.7373 21.4023 -11.9824c6.35938 -3.24414 16.0625 -7.77539 21.5625 -10.0674c5.5 -2.29297 14.9219 -5.81445 20.9375 -7.8252c6.01562 -2.01172 14.7344 -4.65332 19.375 -5.87012s11.9531 -2.92871 16.25 -3.80273
s11.3281 -2.13477 15.625 -2.7998c4.29688 -0.666992 11.8906 -1.64746 16.875 -2.18164c4.98438 -0.533203 15.6719 -1.14258 23.75 -1.35449c8.93066 -0.233398 19.0967 -0.0957031 25.9375 0.350586c6.1875 0.404297 15.75 1.29883 21.25 1.9873
c5.5 0.689453 15.4844 2.35254 22.1875 3.69434c6.70312 1.34277 16.3047 3.57617 21.3379 4.96289c5.03223 1.38672 13.2881 3.95215 18.3457 5.69922c5.05762 1.74609 13.5723 4.99805 18.9209 7.22559c5.34766 2.22754 14.4521 6.4375 20.2295 9.35645
c5.77832 2.91895 14.9434 7.98438 20.3672 11.2568c5.42383 3.27344 10.1357 6.2207 10.4707 6.55078c0.392578 0.386719 -76.2998 77.5088 -215.625 216.835c-118.929 118.929 -216.428 216.234 -216.665 216.234z" />
  </g>

</svg>
