<?xml version="1.0" standalone="no"?>
<!DOCTYPE svg PUBLIC "-//W3C//DTD SVG 1.1//EN" "http://www.w3.org/Graphics/SVG/1.1/DTD/svg11.dtd" >
<svg xmlns="http://www.w3.org/2000/svg" xmlns:xlink="http://www.w3.org/1999/xlink" version="1.1" viewBox="-10 0 1010 1000">
  <g transform="matrix(1 0 0 -1 0 800)">
   <path fill="currentColor"
d="M660.312 735.28c9.96582 -0.12793 19.9453 -0.604492 24.375 -1.16309c4.125 -0.520508 11.4375 -1.66797 16.25 -2.55176s12.4521 -2.57422 16.9746 -3.75781c4.52441 -1.18359 10.9941 -3.0293 14.375 -4.10352c3.38281 -1.07324 10.791 -3.78223 16.4629 -6.01953
c5.67285 -2.2373 14.9531 -6.38965 20.625 -9.22656c5.67285 -2.83691 13.124 -6.78516 16.5605 -8.77441c3.43652 -1.99023 9.99805 -6.12793 14.583 -9.19629c4.58398 -3.06836 11.335 -7.85352 15.001 -10.6338c3.66797 -2.78125 9.19922 -7.17871 12.293 -9.77148
c3.09375 -2.59375 10.2236 -9.22754 15.8447 -14.7422s12.8164 -12.9805 15.9902 -16.5898s8.22754 -9.65625 11.2295 -13.4375c3.00293 -3.78125 8.93262 -12.0781 13.1768 -18.4375c4.24316 -6.35938 9.47754 -14.6514 11.6318 -18.4258
c2.15332 -3.77441 6.3623 -11.9307 9.35254 -18.125s6.77148 -14.6367 8.4043 -18.7617c1.63379 -4.125 4.20801 -11.2549 5.7207 -15.8447c1.51367 -4.58984 3.84082 -12.6055 5.16992 -17.8125c1.33008 -5.20703 3.14941 -13.5459 4.04297 -18.5303
s2.06348 -12.7188 2.59766 -17.1875c0.536133 -4.46875 1.13281 -14.4531 1.32812 -22.1875c0.211914 -8.40332 0.0644531 -17.71 -0.364258 -23.125c-0.393555 -4.98438 -1.28418 -13 -1.97656 -17.8125s-2.25391 -13.25 -3.47168 -18.75
c-1.21582 -5.5 -3.9834 -15.3438 -6.14941 -21.875s-5.25879 -14.9453 -6.87305 -18.6973c-1.61328 -3.75195 -4.49414 -9.93945 -6.40234 -13.75s-5.16406 -9.88086 -7.23633 -13.4902c-2.07129 -3.60938 -6.32422 -10.3594 -9.45117 -15
c-3.12598 -4.64062 -7.76465 -11.1094 -10.3076 -14.375c-2.54199 -3.26562 -7.02539 -8.75 -9.96387 -12.1875c-2.9375 -3.4375 -80.1709 -81.1592 -171.63 -172.714s-171.385 -171.328 -177.614 -177.274c-6.22949 -5.94531 -14.8379 -13.7246 -19.1299 -17.2861
s-11.0098 -8.77734 -14.9297 -11.5908c-3.91895 -2.81348 -10.9385 -7.50391 -15.5977 -10.4219c-4.65918 -2.91895 -12.25 -7.28027 -16.8691 -9.69141c-4.61816 -2.41113 -11.9385 -5.92383 -16.2676 -7.80664c-4.3291 -1.88379 -12.4424 -4.99414 -18.0273 -6.91406
c-5.58691 -1.91797 -14.7012 -4.61035 -20.2539 -5.98242c-5.55371 -1.37109 -14.457 -3.1748 -19.7852 -4.00781c-5.32812 -0.832031 -14.1572 -1.86035 -19.6191 -2.28516c-6.33203 -0.491211 -14.9395 -0.632812 -23.75 -0.388672
c-8.1123 0.223633 -17.8193 0.913086 -23.5059 1.66699c-5.32812 0.707031 -13.9062 2.14648 -19.0625 3.20117c-5.15625 1.05371 -13.6123 3.14355 -18.793 4.64258c-5.17871 1.5 -12.8643 4.00977 -17.0791 5.57812s-10.3838 4.00781 -13.708 5.4209
c-3.3252 1.41406 -9.86133 4.48145 -14.5264 6.81641c-4.66406 2.33496 -11.2734 5.84277 -14.6875 7.79492c-3.41309 1.95312 -10.5771 6.44629 -15.918 9.98633c-5.3418 3.54004 -13.2168 9.17969 -17.5 12.5332c-4.28418 3.35352 -10.8818 8.83789 -14.6631 12.1875
c-3.78125 3.34863 -11.1035 10.4072 -16.2705 15.6865c-5.16797 5.2793 -12.0859 12.833 -15.3721 16.7861c-3.28711 3.95312 -7.85156 9.66016 -10.1416 12.6816c-2.29102 3.02148 -6.65039 9.20898 -9.68848 13.75c-3.03906 4.54102 -7.72656 12.0449 -10.418 16.6748
c-2.69043 4.63086 -7.33887 13.4902 -10.3311 19.6875c-2.99121 6.19824 -6.77441 14.6436 -8.40723 18.7686c-1.63379 4.125 -4.20801 11.2549 -5.7207 15.8447c-1.51367 4.58984 -3.84082 12.6055 -5.16992 17.8125c-1.33008 5.20703 -3.14941 13.5459 -4.04395 18.5303
c-0.893555 4.98438 -2.10156 12.8594 -2.68359 17.5c-0.791992 6.30273 -1.05957 13.3398 -1.05957 27.8125c0 14.5381 0.265625 21.4814 1.06543 27.8125c0.585938 4.64062 1.77832 12.2344 2.65039 16.875s2.54102 12.0938 3.70996 16.5625
c1.16797 4.46875 3.36914 11.7812 4.89258 16.25c1.52246 4.46875 3.66602 10.375 4.76367 13.125c1.09668 2.75 4.04297 9.23828 6.54688 14.418c2.50293 5.18066 6.31445 12.4795 8.46875 16.2197c2.1543 3.74121 6.375 10.4717 9.37695 14.957
c3.00293 4.48535 7.65039 10.9678 10.3291 14.4053s7.27246 9.0625 10.21 12.5s80.1709 81.1611 171.63 172.72s171.771 171.688 178.476 178.065s16.5469 15.0928 21.875 19.3662s14.0469 10.668 19.375 14.21c5.32812 3.54102 13.0625 8.34766 17.1875 10.6826
c4.125 2.33398 11.1562 5.98438 15.625 8.11328c4.46875 2.12793 11.3594 5.13672 15.3125 6.68652s10.7031 3.95605 15 5.34766s11.2217 3.38965 15.3877 4.43945c4.16699 1.05078 11.4795 2.58984 16.25 3.42188c4.77148 0.832031 11.7686 1.8252 15.5498 2.20703
s8 0.802734 9.375 0.935547c1.375 0.131836 10.0938 0.142578 19.374 0.0224609zM655.749 610.525c-4.70898 -0.0556641 -9.5459 -0.204102 -10.749 -0.331055c-1.20312 -0.125977 -5.25293 -0.800781 -9 -1.49902s-10.1777 -2.37402 -14.29 -3.72461
c-4.11328 -1.34961 -10.9248 -4.15918 -15.1377 -6.24023c-4.21387 -2.08203 -10.5801 -5.68945 -14.1475 -8.01562c-3.56836 -2.32715 -9.44043 -6.57715 -13.0498 -9.44531c-4.55371 -3.61719 -59.7686 -58.415 -180.388 -179.023
c-111.86 -111.85 -175.499 -175.926 -178.52 -179.746c-2.58105 -3.26562 -6.44336 -8.60938 -8.58398 -11.875s-5.23242 -8.60938 -6.87207 -11.875c-1.63867 -3.26562 -3.97754 -8.60938 -5.19727 -11.875c-1.21875 -3.26562 -2.92871 -8.75 -3.79883 -12.1875
c-0.871094 -3.4375 -2.01855 -9.56934 -2.55078 -13.626c-0.53125 -4.05664 -0.962891 -10.8066 -0.960938 -15c0.00292969 -4.19336 0.288086 -10.1553 0.632812 -13.249c0.34375 -3.09375 1.18457 -8.47168 1.86621 -11.9521
c0.682617 -3.47949 1.95508 -8.79199 2.82812 -11.8066c0.874023 -3.01465 2.58203 -8.18262 3.79688 -11.4854c1.21582 -3.30371 4.2793 -10.2246 6.80957 -15.3809c2.5293 -5.15625 7.10059 -13.1719 10.1582 -17.8125c3.05664 -4.64062 8.13281 -11.582 11.2803 -15.4258
s8.59473 -9.8457 12.1045 -13.3389c3.51074 -3.49316 9.07129 -8.60645 12.3574 -11.3613c3.28516 -2.75488 9.76367 -7.5293 14.3955 -10.6084s12.6475 -7.6748 17.8125 -10.2119c5.16504 -2.53613 12.3438 -5.62988 15.9531 -6.87402
c3.60938 -1.24316 9.375 -2.94824 12.8125 -3.78809s9.42871 -1.94629 13.3135 -2.45898c3.88477 -0.513672 10.4941 -0.926758 14.6875 -0.919922c4.19336 0.00585938 10.6211 0.410156 14.2832 0.898438c3.66309 0.487305 9.42871 1.58691 12.8125 2.44434
c3.38477 0.855469 8.54395 2.43457 11.4658 3.50781s8.46387 3.49609 12.3154 5.38379c3.85156 1.88965 10.1797 5.55469 14.0625 8.14746s9.73145 6.8457 12.9971 9.45312c3.65723 2.91895 72.7012 71.4932 179.762 178.54
c113.466 113.448 175.448 175.861 178.502 179.737c2.57129 3.26562 6.13086 8.11523 7.91016 10.7764c1.77734 2.66113 4.74512 7.72363 6.5918 11.25c1.84766 3.52637 4.40039 9.04785 5.67188 12.2695c1.27246 3.22266 3.12891 9.08789 4.125 13.0352
c0.99707 3.94629 2.23438 10.3936 2.75 14.3291c0.516602 3.93457 0.935547 10.585 0.933594 14.7783c-0.00292969 4.19336 -0.288086 10.1553 -0.632812 13.249c-0.34375 3.09375 -1.18457 8.47168 -1.86621 11.9521c-0.682617 3.47949 -1.95508 8.79199 -2.82812 11.8066
c-0.874023 3.01465 -2.58203 8.18262 -3.79688 11.4854c-1.21582 3.30371 -4.28613 10.2441 -6.8252 15.4238c-2.53809 5.18066 -7.40918 13.6182 -10.8242 18.75c-3.41504 5.13281 -8.56055 12.1377 -11.4346 15.5674c-2.87305 3.42871 -8.24805 9.24512 -11.9434 12.9238
c-3.69434 3.67871 -9.60059 9.01172 -13.125 11.8506c-3.52344 2.83984 -9.78223 7.38379 -13.9062 10.0977c-4.125 2.71484 -11.7197 7.00977 -16.875 9.54492c-5.15625 2.53516 -12.3281 5.62305 -15.9375 6.8623c-3.61035 1.23926 -9.375 2.94141 -12.8125 3.78125
s-9.42871 1.94629 -13.3135 2.45898c-3.88574 0.513672 -10.916 0.887695 -15.625 0.833008zM501.562 445.363c7.13086 -0.164062 10.5732 -0.541016 14.375 -1.57031c2.75 -0.743164 7.8125 -2.71973 11.25 -4.39062s8.07812 -4.42676 10.3125 -6.125
s5.87207 -5.02441 8.08301 -7.39062s5.37793 -6.41699 7.03516 -9c1.65723 -2.58496 3.87305 -6.75879 4.92285 -9.27734c1.0498 -2.51758 2.46289 -6.73633 3.14062 -9.375c0.676758 -2.6377 1.40039 -7.75 1.60742 -11.3594
c0.220703 -3.82617 0.0683594 -8.9082 -0.362305 -12.1875c-0.407227 -3.09375 -1.67578 -8.37891 -2.82129 -11.7461c-1.14453 -3.36621 -1.76367 -5.9873 -1.375 -5.82227c0.388672 0.163086 3.23828 1.13574 6.33203 2.16113
c3.09375 1.02441 7.8252 2.16797 10.5146 2.54102s6.78809 0.678711 9.1084 0.678711c2.32129 0 6.87109 -0.454102 10.1104 -1.00977c3.24023 -0.555664 7.86035 -1.71484 10.2666 -2.57812c2.40625 -0.861328 5.78125 -2.27441 7.5 -3.13867
s4.8125 -2.70801 6.875 -4.0957c2.0625 -1.38867 5.78223 -4.48438 8.2666 -6.87988c2.4834 -2.39453 5.94922 -6.42871 7.70312 -8.96582c1.75293 -2.53516 4.27051 -6.92383 5.5957 -9.75293c1.3252 -2.82812 3.06152 -7.53223 3.85938 -10.4541
c1.26855 -4.64746 1.44629 -6.68164 1.41504 -16.25c-0.0332031 -10.0879 -0.169922 -11.374 -1.75195 -16.5625c-0.944336 -3.09375 -2.8252 -7.92676 -4.18066 -10.7402c-1.35645 -2.8125 -4.15332 -7.35449 -6.21582 -10.0918
c-2.0625 -2.73633 -5.34082 -6.43066 -7.28613 -8.20898c-1.94531 -1.77734 -5.2168 -4.37305 -7.27148 -5.76758c-2.05469 -1.39551 -6.01855 -3.60645 -8.80957 -4.91309c-2.79102 -1.30762 -7.18359 -2.96387 -9.76172 -3.68066s-7.33691 -1.60156 -10.5732 -1.96582
c-4.13086 -0.463867 -7.67285 -0.46582 -11.875 -0.00390625c-3.29395 0.362305 -7.6582 1.0957 -9.7002 1.63184c-2.04102 0.535156 -5.36035 1.63867 -7.37598 2.45312c-2.02051 0.816406 -3.52734 1.15625 -3.36133 0.758789
c0.166992 -0.396484 1.1416 -3.25293 2.16504 -6.34668s2.20703 -7.99414 2.62988 -10.8906c0.466797 -3.21289 0.619141 -7.84277 0.388672 -11.875c-0.208008 -3.63477 -0.933594 -8.85938 -1.61133 -11.6094c-0.678711 -2.75 -2.08203 -7.0459 -3.11914 -9.54785
c-1.03613 -2.50098 -3.39551 -6.86035 -5.24219 -9.6875c-1.84863 -2.82617 -4.84277 -6.75781 -6.65625 -8.73535c-1.81445 -1.97852 -5.45605 -5.22266 -8.09375 -7.21094c-2.63965 -1.9873 -7.26367 -4.81934 -10.2744 -6.29004
c-3.0127 -1.47168 -8.20801 -3.37793 -11.5449 -4.23535c-3.73828 -0.960938 -8.70703 -1.69336 -12.9424 -1.90527c-4.91406 -0.248047 -8.53516 -0.0556641 -12.6963 0.670898c-3.20215 0.560547 -7.56152 1.60254 -9.6875 2.31738s-5.80957 2.27246 -8.18457 3.46387
c-2.375 1.18945 -5.89062 3.20117 -7.8125 4.46973s-5.63867 4.41797 -8.25977 6.99902c-2.62109 2.58008 -6.36035 7.14551 -8.30957 10.1436c-1.9502 2.99902 -4.39258 7.49902 -5.42871 10c-1.03711 2.50195 -2.44043 6.79785 -3.11914 9.54785
s-1.4043 7.97461 -1.6123 11.6094c-0.230469 4.03223 -0.078125 8.66211 0.389648 11.875c0.422852 2.89648 1.60547 7.79688 2.62988 10.8906c1.02344 3.09375 1.99805 5.9502 2.16504 6.34668c0.166016 0.397461 -1.34082 0.0576172 -3.36133 -0.758789
c-2.01562 -0.814453 -5.33496 -1.91797 -7.37598 -2.45312c-2.04199 -0.536133 -6.40625 -1.26953 -9.7002 -1.63184c-4.20312 -0.461914 -7.74414 -0.459961 -11.875 0.00390625c-3.2373 0.364258 -7.99609 1.24902 -10.5742 1.96582s-6.9707 2.37305 -9.76172 3.68066
c-2.79102 1.30664 -6.72852 3.51074 -8.75 4.89648c-2.02148 1.38672 -5.28125 3.96484 -7.24219 5.73047c-1.96191 1.76465 -5.26758 5.46582 -7.3457 8.22363c-2.0791 2.75879 -4.88867 7.31836 -6.24512 10.1309c-1.35547 2.81348 -3.23633 7.64648 -4.18066 10.7402
c-1.58203 5.18848 -1.71875 6.47461 -1.75195 16.5625c-0.03125 9.56836 0.146484 11.6025 1.41504 16.25c0.797852 2.92188 2.53027 7.61621 3.84863 10.4326c1.31934 2.81543 3.47852 6.75293 4.79883 8.75c1.32031 1.99609 4.49512 5.8291 7.05566 8.5166
c2.56152 2.6875 6.95215 6.41309 9.75879 8.28125c2.80566 1.86621 7.03613 4.27148 9.39941 5.34375c2.36426 1.07129 6.97363 2.63086 10.2432 3.46484s8.61621 1.68164 11.8818 1.88379c3.37012 0.208008 8.35059 0.0439453 11.5176 -0.378906
c3.06934 -0.40918 8.13184 -1.58984 11.25 -2.62305c3.11914 -1.0332 5.98828 -2.01367 6.37695 -2.17676c0.388672 -0.165039 -0.230469 2.45605 -1.375 5.82227c-1.14551 3.36719 -2.41406 8.65234 -2.82129 11.7461
c-0.430664 3.2793 -0.583008 8.36133 -0.362305 12.1875c0.207031 3.60938 0.930664 8.72168 1.60742 11.3594c0.677734 2.63867 2.09082 6.85742 3.14062 9.375c1.0498 2.51855 3.28516 6.72363 4.96777 9.34668s5.06641 6.88184 7.51855 9.46387
c2.45312 2.58301 6.49316 6.0957 8.97656 7.80762s6.23145 3.97461 8.3291 5.0293c2.09668 1.05469 5.6123 2.52539 7.8125 3.26855c2.19922 0.744141 5.82715 1.73633 8.06152 2.2041c2.72852 0.571289 7.13965 0.780273 13.4375 0.633789zM476.598 324.984
c-2.73926 1.1748 -2.95117 1.19043 -2.55566 0.179688c0.236328 -0.605469 1.09863 -3.13574 1.91504 -5.62305c0.816406 -2.48633 1.82324 -6.2832 2.23828 -8.4375c0.415039 -2.15332 0.741211 -7.43164 0.725586 -11.7285
c-0.0166016 -4.66699 -0.419922 -9.58691 -1.00195 -12.2197c-0.536133 -2.42383 -1.68066 -6.35156 -2.54297 -8.72754c-0.862305 -2.375 -1.45215 -4.43457 -1.31055 -4.57617c0.140625 -0.140625 2.04297 0.459961 4.22852 1.33398
c2.18457 0.875 6.20508 2.07031 8.93262 2.65625c3.17969 0.683594 7.7666 1.06641 12.7734 1.06641s9.59375 -0.382812 12.7734 -1.06641c2.72852 -0.585938 6.7793 -1.75098 9.00195 -2.58691c2.22363 -0.836914 4.12598 -1.43652 4.22852 -1.33398
c0.103516 0.102539 -0.517578 2.13184 -1.37988 4.50684c-0.862305 2.37598 -2.00684 6.30371 -2.54297 8.72754c-0.582031 2.63281 -0.985352 7.55273 -1.00195 12.2197c-0.015625 4.29688 0.310547 9.5752 0.725586 11.7285
c0.415039 2.1543 1.42188 5.95117 2.23828 8.4375c0.816406 2.4873 1.67871 5.01758 1.91504 5.62305c0.395508 1.01074 0.183594 0.995117 -2.55566 -0.179688c-1.64453 -0.704102 -5.26172 -1.90332 -8.03906 -2.66406
c-4.26367 -1.16699 -6.6582 -1.38281 -15.3633 -1.38281s-11.0996 0.21582 -15.3633 1.38281c-2.77734 0.760742 -6.39453 1.95996 -8.03906 2.66406z" />
  </g>

</svg>
