<?xml version="1.0" standalone="no"?>
<!DOCTYPE svg PUBLIC "-//W3C//DTD SVG 1.1//EN" "http://www.w3.org/Graphics/SVG/1.1/DTD/svg11.dtd" >
<svg xmlns="http://www.w3.org/2000/svg" xmlns:xlink="http://www.w3.org/1999/xlink" version="1.1" viewBox="-10 0 1010 1000">
  <g transform="matrix(1 0 0 -1 0 800)">
   <path fill="currentColor"
d="M501.875 737.224c5.66602 -0.179688 9.47949 -0.679688 13.8799 -1.81836c3.33691 -0.863281 8.53223 -2.77441 11.5449 -4.24609c3.01172 -1.4707 7.63477 -4.30273 10.2744 -6.29004c2.6377 -1.98828 6.28027 -5.23242 8.09375 -7.21094
c1.81348 -1.97754 4.80859 -5.90918 6.65625 -8.73535c1.84668 -2.82715 4.20605 -7.18652 5.24219 -9.6875c1.03711 -2.50195 2.48438 -6.79785 3.21777 -9.54785c1.27441 -4.77832 1.34375 -6.61328 1.55664 -41.3115l0.223633 -36.3105l9.18652 -1.06152
c5.05273 -0.583008 13.2646 -1.87695 18.249 -2.875s12.4434 -2.78809 16.5742 -3.97852c4.13184 -1.18945 11.1631 -3.47754 15.625 -5.08301c4.46289 -1.60449 12.4727 -5.02148 17.8008 -7.59082c5.32812 -2.57031 11.9375 -5.96191 14.6875 -7.53809
s7.95312 -4.83691 11.5625 -7.24512s8.39062 -5.80176 10.625 -7.54004c2.23438 -1.73926 7.2207 -5.93848 11.0801 -9.33398c3.86035 -3.39453 9.0332 -8.3291 11.4971 -10.9639c2.46289 -2.63672 6.77832 -7.60547 9.58984 -11.043s6.94824 -8.92188 9.19336 -12.1875
c2.24609 -3.26562 5.53613 -8.41602 7.31055 -11.4463c1.77637 -3.0293 4.18066 -7.39844 5.34375 -9.70898c1.16309 -2.30957 3.39746 -7.20312 4.96582 -10.873c1.56738 -3.6709 3.85645 -9.70898 5.08594 -13.417s2.90527 -9.41406 3.72363 -12.6797
s1.91406 -8.32812 2.43262 -11.25c0.519531 -2.92188 1.31055 -7.98438 1.75781 -11.25c0.494141 -3.61426 0.816406 -12.417 0.822266 -22.5c0.00585938 -10.3066 -0.308594 -19.041 -0.833984 -23.125c-0.464844 -3.60938 -1.53711 -9.9043 -2.38477 -13.9883
c-0.84668 -4.08496 -2.49121 -10.6992 -3.65332 -14.6992s-3.41113 -10.502 -4.99609 -14.4492c-1.58496 -3.94629 -4.94434 -11.167 -7.46582 -16.0449c-2.52148 -4.87891 -6.70703 -12.0508 -9.30078 -15.9375c-2.59375 -3.8877 -6.91309 -9.78223 -9.59766 -13.0986
c-2.68555 -3.31641 -6.25391 -7.60645 -7.92969 -9.5332l-3.04688 -3.50391l1.48438 -1.82129c0.816406 -1.00195 3.89551 -4.72656 6.84277 -8.2793c2.94629 -3.55176 7.19434 -9.12891 9.43945 -12.3936c2.24609 -3.26562 5.53613 -8.41699 7.31055 -11.4473
c1.77637 -3.0293 4.18066 -7.39844 5.34375 -9.70898c1.16309 -2.30957 3.39746 -7.20215 4.96582 -10.8721c1.56738 -3.6709 3.85645 -9.70898 5.08594 -13.417s2.90527 -9.41406 3.72363 -12.6797s1.91406 -8.32812 2.43262 -11.25
c0.519531 -2.92188 1.31055 -7.98438 1.75781 -11.25c0.494141 -3.61426 0.816406 -12.417 0.822266 -22.5c0.00585938 -10.3066 -0.308594 -19.041 -0.833984 -23.125c-0.464844 -3.60938 -1.53711 -9.9043 -2.38477 -13.9883
c-0.84668 -4.08496 -2.49121 -10.6992 -3.65332 -14.6992s-3.41113 -10.5029 -4.99609 -14.4492s-4.94434 -11.167 -7.46582 -16.0449c-2.52148 -4.87891 -6.70605 -12.0508 -9.29785 -15.9375c-2.59277 -3.8877 -7.18457 -10.1621 -10.2051 -13.9434
c-3.01855 -3.78125 -8.73242 -10.123 -12.6963 -14.0938c-3.96387 -3.96875 -9.77734 -9.34863 -12.9199 -11.9541s-8.48633 -6.69727 -11.875 -9.09375c-3.38867 -2.39551 -9.11523 -6.1377 -12.7246 -8.31543c-3.60938 -2.17676 -11.0625 -6.13086 -16.5625 -8.78613
c-5.5 -2.6543 -13.6543 -6.14551 -18.1211 -7.75684c-4.4668 -1.6123 -11.6387 -3.89648 -15.9375 -5.07617s-10.4883 -2.68555 -13.7539 -3.34473s-8.89062 -1.62695 -12.5 -2.15039c-3.60938 -0.524414 -8.95312 -1.11621 -11.875 -1.31738
c-2.92188 -0.200195 -6.21191 -0.5 -7.31152 -0.666992l-1.99805 -0.301758l-0.224609 -36.0723c-0.213867 -34.4492 -0.28418 -36.2959 -1.55664 -41.0713c-0.733398 -2.75 -2.18066 -7.0459 -3.21777 -9.54785c-1.03613 -2.50098 -3.39551 -6.86035 -5.24219 -9.6875
c-1.84766 -2.82617 -4.84277 -6.75781 -6.65625 -8.73535c-1.81348 -1.97852 -5.45605 -5.22266 -8.09375 -7.21094c-2.63965 -1.9873 -7.2627 -4.81934 -10.2744 -6.29004c-3.0127 -1.47168 -8.20801 -3.37793 -11.5449 -4.23535
c-3.73828 -0.960938 -8.70703 -1.69336 -12.9424 -1.90527c-4.91406 -0.248047 -8.53516 -0.0556641 -12.6963 0.670898c-3.20215 0.560547 -7.56152 1.60254 -9.6875 2.31738s-5.80957 2.27246 -8.18457 3.46387c-2.375 1.18945 -5.89062 3.20117 -7.8125 4.46973
s-5.63867 4.41797 -8.25977 6.99902c-2.62109 2.58008 -6.36035 7.14551 -8.30957 10.1445c-1.9502 2.99805 -4.39258 7.49805 -5.42871 10c-1.03711 2.50098 -2.48438 6.79688 -3.21777 9.54688c-1.27246 4.77539 -1.34277 6.62207 -1.55664 41.0947l-0.224609 36.0938
l-65.748 0.0078125c-61.748 0.0078125 -66.0918 0.0800781 -71.374 1.17578c-3.09375 0.641602 -7.87793 2.03906 -10.6309 3.10352c-2.75293 1.06641 -7.39355 3.40625 -10.3125 5.20117c-3.10645 1.91016 -7.54297 5.47754 -10.7002 8.60645
c-2.9668 2.93848 -6.80273 7.51074 -8.52441 10.1611c-1.72266 2.65039 -4.02832 6.97266 -5.125 9.60449c-1.09473 2.63281 -2.60254 7.07422 -3.34961 9.87012l-1.35742 5.08203v259.688v259.688l1.35742 5.08203c0.74707 2.7959 2.25488 7.2373 3.34961 9.87012
c1.09668 2.63184 3.40234 6.9541 5.125 9.60449c1.72168 2.65039 5.55762 7.22266 8.52441 10.1611c3.15723 3.12891 7.59375 6.69629 10.7002 8.60645c2.91895 1.79492 7.55957 4.13477 10.3125 5.20117c2.75293 1.06445 7.53711 2.46191 10.6309 3.10352
c5.28223 1.0957 9.62598 1.16797 71.374 1.17578l65.748 0.0078125l0.224609 36.0938c0.213867 34.4717 0.28418 36.3184 1.55664 41.0938c0.733398 2.75 2.18066 7.0459 3.21777 9.54785c1.03613 2.50098 3.47852 7.00098 5.42871 10
c1.94922 2.99805 5.68848 7.56348 8.30957 10.1436c2.62109 2.58105 6.33789 5.73047 8.25977 6.99902s5.4375 3.28027 7.8125 4.46973c2.375 1.19141 6.07324 2.75488 8.21875 3.47559c2.14453 0.720703 6.08203 1.72461 8.75 2.22949
c3.25293 0.617188 7.4209 0.837891 12.6621 0.670898v-0.00195312zM467.031 487.329l-92.0312 0.206055v-62.5342v-62.5352l95.1562 0.196289c94.0156 0.194336 95.2236 0.211914 100.78 1.50586c3.09375 0.71875 7.86719 2.06348 10.6064 2.9873
c2.74121 0.923828 7.47754 2.9668 10.5273 4.54199s7.27539 4.13867 9.39258 5.69629c2.11719 1.55859 5.33691 4.24023 7.15723 5.96094c1.81934 1.71973 4.66895 4.97461 6.33203 7.23047s3.86914 5.79004 4.90137 7.85254s2.50391 5.71875 3.27148 8.125
c1.03613 3.25195 1.47656 6.50586 1.7168 12.6777c0.201172 5.20117 0.03125 10.1045 -0.455078 13.125c-0.426758 2.65234 -1.60254 7.10547 -2.61133 9.89648c-1.00879 2.78906 -3.2832 7.42969 -5.05371 10.3125c-1.94922 3.16992 -5.45312 7.4834 -8.87695 10.9258
c-3.1123 3.12793 -7.77051 7.09766 -10.3506 8.82324c-2.58105 1.72461 -7.02344 4.30762 -9.87305 5.74023s-7.74023 3.46289 -10.8691 4.51074c-3.12793 1.04785 -8.3877 2.5 -11.6895 3.22656c-5.93262 1.30566 -7.05566 1.32324 -98.0312 1.52832zM467.031 237.329
l-92.0312 0.206055v-62.5342v-62.5352l95.1562 0.196289c94.0156 0.194336 95.2236 0.211914 100.78 1.50586c3.09375 0.71875 7.86719 2.06348 10.6064 2.9873c2.74121 0.923828 7.47754 2.9668 10.5273 4.54199s7.27539 4.13867 9.39258 5.69629
c2.11719 1.55859 5.33691 4.24023 7.15723 5.96094c1.81934 1.71973 4.66895 4.97461 6.33203 7.23047s3.86914 5.79004 4.90137 7.85254s2.50391 5.71875 3.27148 8.125c1.03613 3.25195 1.47656 6.50586 1.7168 12.6777
c0.201172 5.20117 0.03125 10.1045 -0.455078 13.125c-0.426758 2.65234 -1.60254 7.10547 -2.61133 9.89648c-1.00879 2.78906 -3.2832 7.42969 -5.05371 10.3125c-1.94922 3.16992 -5.45312 7.4834 -8.87695 10.9258c-3.1123 3.12793 -7.77051 7.09766 -10.3506 8.82324
c-2.58105 1.72461 -7.02344 4.30762 -9.87305 5.74023s-7.74023 3.46289 -10.8691 4.51074c-3.12793 1.04785 -8.3877 2.5 -11.6895 3.22656c-5.93262 1.30566 -7.05566 1.32324 -98.0312 1.52832z" />
  </g>

</svg>
