<?xml version="1.0" standalone="no"?>
<!DOCTYPE svg PUBLIC "-//W3C//DTD SVG 1.1//EN" "http://www.w3.org/Graphics/SVG/1.1/DTD/svg11.dtd" >
<svg xmlns="http://www.w3.org/2000/svg" xmlns:xlink="http://www.w3.org/1999/xlink" version="1.1" viewBox="-10 0 1010 1000">
  <g transform="matrix(1 0 0 -1 0 800)">
   <path fill="currentColor"
d="M251.562 695.363c7.13086 -0.164062 10.5732 -0.541016 14.375 -1.57031c2.75 -0.743164 7.8125 -2.71973 11.25 -4.39062s8.07812 -4.42676 10.3125 -6.125s5.87207 -5.02441 8.08301 -7.39062s5.37793 -6.41699 7.03516 -9
c1.65723 -2.58496 3.87305 -6.75879 4.92285 -9.27734c1.0498 -2.51758 2.49316 -6.73633 3.20703 -9.375c1.09668 -4.05273 1.34375 -7.19531 1.59473 -20.2656l0.296875 -15.4688h208.368h208.367l0.0078125 13.9062c0.00683594 11.0977 0.243164 15.0439 1.17188 19.5391
c0.638672 3.09863 1.93652 7.59863 2.88379 10c0.947266 2.40234 2.97461 6.49609 4.50586 9.09766s4.2041 6.39844 5.93848 8.4375c1.73535 2.03906 4.98242 5.29199 7.2168 7.22949s6.20508 4.78418 8.8252 6.32617c2.61914 1.54199 6.73047 3.5791 9.13477 4.52734
c2.40527 0.948242 7.0459 2.27832 10.3125 2.95605c4.86523 1.00879 7.52441 1.1748 14.6904 0.917969c6.9248 -0.248047 9.92383 -0.654297 14.375 -1.94922c3.09375 -0.899414 7.92773 -2.75977 10.7412 -4.13477s7.31348 -4.13184 10 -6.12695
s6.37988 -5.26855 8.20801 -7.27441c1.82812 -2.00488 4.46484 -5.32617 5.85938 -7.38086c1.39551 -2.05469 3.60938 -6.02344 4.91992 -8.82031c1.31055 -2.79785 2.95312 -7.19043 3.64844 -9.7627c0.696289 -2.57129 1.55664 -7.05859 1.91309 -9.97168
s0.647461 -13.4854 0.647461 -23.4932v-18.1982l1.71875 -0.768555c0.945312 -0.423828 4.95312 -2.63867 8.90625 -4.9248c3.95312 -2.28516 10.5625 -6.69141 14.6875 -9.79297s10.6016 -8.73535 14.3936 -12.5205c3.79102 -3.78418 8.79297 -9.27148 11.1172 -12.1934
c2.32324 -2.92188 5.72168 -7.5625 7.55078 -10.3125c1.83008 -2.75 4.76074 -7.53125 6.5127 -10.625s4.6084 -8.94824 6.34668 -13.0098c1.73926 -4.0625 4.14746 -10.6338 5.35059 -14.6055c1.20312 -3.9707 2.875 -10.6318 3.71289 -14.8018
c0.838867 -4.1709 1.83203 -11.2393 2.20898 -15.708c0.483398 -5.74414 0.625 -71.9375 0.483398 -225.938c-0.189453 -205.938 -0.261719 -218.17 -1.32031 -224.375c-0.615234 -3.60938 -1.92676 -9.79688 -2.91504 -13.75
c-0.987305 -3.95312 -2.81445 -10.1406 -4.06055 -13.75c-1.24512 -3.60938 -4.20117 -10.5 -6.56934 -15.3125c-2.36719 -4.8125 -6.23926 -11.7031 -8.60449 -15.3125c-2.36621 -3.60938 -6.09668 -8.8125 -8.29102 -11.5625s-6.39258 -7.49805 -9.32812 -10.5508
c-2.93555 -3.05469 -8.18262 -7.89648 -11.6602 -10.7627s-9.10254 -7.06836 -12.5 -9.33887s-10.5762 -6.32031 -15.9531 -8.99805c-5.72461 -2.85254 -13.4336 -6.06934 -18.6006 -7.76367c-4.85449 -1.5918 -12.2676 -3.58594 -16.4746 -4.43066
c-4.20801 -0.845703 -10.5615 -1.83105 -14.1221 -2.19043c-4.39941 -0.443359 -102.703 -0.652344 -307.056 -0.652344c-201.63 0 -302.582 0.211914 -306.652 0.643555c-3.33789 0.352539 -9.72559 1.35938 -14.1943 2.2373
c-4.46875 0.876953 -11.9219 2.8457 -16.5625 4.375s-12.6562 4.85254 -17.8125 7.38379c-5.15625 2.53223 -12.0469 6.36133 -15.3125 8.51074c-3.26562 2.14844 -8.04688 5.51367 -10.625 7.47852c-2.57812 1.96582 -7.4502 6.18945 -10.8252 9.3877
c-3.37695 3.19824 -8.39844 8.51074 -11.1602 11.8057s-7.27051 9.36523 -10.0205 13.4902c-2.74805 4.125 -6.9209 11.4375 -9.27148 16.25s-5.3916 12.0186 -6.75879 16.0137c-1.36719 3.99414 -3.19727 10.1816 -4.06738 13.75
c-0.869141 3.56738 -2.08789 9.7207 -2.70703 13.6738c-1.07031 6.8252 -1.12695 18.3584 -1.12695 229.062c0 208.455 0.0664062 222.293 1.09668 228.774c0.602539 3.79492 1.91895 10.2637 2.92578 14.375c1.00586 4.11133 2.72363 10.0059 3.81738 13.0996
c1.09277 3.09375 3.35156 8.67676 5.01953 12.4072c1.66797 3.72949 4.90918 9.91699 7.20215 13.75c2.29395 3.83203 6.59082 10.2021 9.5498 14.1553s8.75781 10.5645 12.8848 14.6914s10.7383 9.92383 14.6914 12.8809c3.95312 2.95605 10.1406 7.15137 13.75 9.32227
s9.13574 5.14062 12.2803 6.60156c3.14551 1.45996 8.34863 3.63281 11.5625 4.8291c3.21484 1.19531 8.09473 2.80273 10.8447 3.57129c2.75 0.769531 8.09375 2.02441 11.875 2.79102l6.875 1.39355l0.384766 16.1787c0.323242 13.5869 0.591797 16.9463 1.68164 20.9746
c0.712891 2.63867 2.15527 6.85742 3.20508 9.375c1.0498 2.51855 3.28516 6.72363 4.96777 9.34668s5.06641 6.88184 7.51855 9.46387c2.45312 2.58301 6.49316 6.0957 8.97656 7.80762s6.23145 3.97461 8.3291 5.0293c2.09668 1.05469 5.6123 2.52539 7.8125 3.26855
c2.19922 0.744141 5.82715 1.73633 8.06152 2.2041c2.72852 0.571289 7.13965 0.780273 13.4375 0.633789v0.00195312zM500.938 487.315c-268.186 0.116211 -296.518 0.0341797 -299.061 -0.856445c-1.54492 -0.541016 -4.01953 -1.81738 -5.5 -2.83594
c-1.47949 -1.01758 -3.64453 -3.16406 -4.80957 -4.76855s-2.55957 -4.32324 -3.09961 -6.04199c-0.884766 -2.81836 -0.964844 -23.9766 -0.818359 -215.625l0.162109 -212.5l1.35059 -2.92285c0.742188 -1.60645 2.55957 -4.2334 4.03711 -5.83691
c1.47754 -1.60254 4.10449 -3.66309 5.83691 -4.57715l3.15039 -1.66309h297.812h297.812l2.71777 1.4502c1.49609 0.798828 3.95117 2.58691 5.45703 3.97461c1.50488 1.3877 3.5166 4.11035 4.46875 6.04883l1.73145 3.52637v213.75v213.75l-1.54297 3.125
c-0.848633 1.71875 -2.81738 4.39941 -4.375 5.95703s-4.23828 3.52637 -5.95703 4.375l-3.125 1.54297zM668.438 382.876c7.79883 -0.200195 10.3193 -0.517578 15 -1.88184c3.09375 -0.90332 7.92773 -2.76562 10.7412 -4.14062
c2.8125 -1.375 7.31348 -4.13184 10 -6.12695c2.68555 -1.99512 6.37891 -5.26855 8.20801 -7.27441c1.82715 -2.00488 4.46387 -5.32617 5.85938 -7.38086s3.60938 -6.02344 4.91992 -8.82031c1.31055 -2.79785 2.95312 -7.19043 3.64844 -9.7627
c0.696289 -2.57129 1.55664 -7.05859 1.91309 -9.97168s0.647461 -5.61328 0.647461 -6c0 -0.439453 2.07031 -0.851562 5.50098 -1.09473c3.02637 -0.214844 8.01855 -1.10547 11.0938 -1.98047c3.07617 -0.874023 7.89551 -2.71289 10.709 -4.08789
s7.31348 -4.13184 10 -6.12695s6.37988 -5.26855 8.20801 -7.27441c1.82812 -2.00488 4.46484 -5.32617 5.85938 -7.38086c1.39551 -2.05469 3.60645 -6.01855 4.91309 -8.80957c1.30762 -2.79102 2.94434 -7.125 3.63867 -9.63184
c0.694336 -2.50586 1.58008 -7.29492 1.96973 -10.6416c0.510742 -4.40137 0.523438 -7.72363 0.0429688 -12.0059c-0.365234 -3.25586 -1.09766 -7.5752 -1.62695 -9.59961c-0.529297 -2.02246 -1.69531 -5.53809 -2.59082 -7.8125
c-0.895508 -2.27246 -2.92773 -6.375 -4.5166 -9.11621c-1.9502 -3.36426 -4.91992 -7.0332 -9.13867 -11.29c-3.77441 -3.80859 -8.10645 -7.45117 -10.9375 -9.19727c-2.57812 -1.58887 -6.8252 -3.74316 -9.43848 -4.78711
c-2.61328 -1.04297 -6.41016 -2.33105 -8.4375 -2.86035s-6.20312 -1.24902 -9.2793 -1.59863s-5.66895 -0.711914 -5.76172 -0.803711c-0.0917969 -0.0927734 -0.454102 -2.68555 -0.803711 -5.76172s-1.06836 -7.24805 -1.59668 -9.27246
c-0.529297 -2.02246 -1.69434 -5.53809 -2.58984 -7.8125c-0.895508 -2.27246 -2.92773 -6.375 -4.5166 -9.11621c-1.9502 -3.36426 -4.91992 -7.0332 -9.13867 -11.29c-3.77441 -3.80859 -8.10645 -7.45117 -10.9375 -9.19727
c-2.57812 -1.58887 -6.8252 -3.74316 -9.43848 -4.78711c-2.61328 -1.04297 -6.41016 -2.33301 -8.4375 -2.86426s-6.38086 -1.2627 -9.6748 -1.625c-4.20215 -0.461914 -7.74414 -0.459961 -11.875 0.00390625c-3.2373 0.364258 -7.99609 1.24902 -10.5742 1.96582
s-6.9707 2.37305 -9.76172 3.68066c-2.79102 1.30664 -6.72852 3.51074 -8.75 4.89648c-2.02148 1.38672 -5.28125 3.96484 -7.24219 5.73047c-1.96191 1.76465 -5.26758 5.46582 -7.3457 8.22363c-2.0791 2.75879 -4.88867 7.31836 -6.24512 10.1309
c-1.35547 2.81348 -3.18945 7.63184 -4.0752 10.708c-0.886719 3.0752 -1.78613 8.0498 -1.99902 11.0537l-0.387695 5.46094l-4.12793 0.364258c-2.27051 0.199219 -6.97266 1.0293 -10.4502 1.84473c-3.47656 0.814453 -8.71289 2.60254 -11.6367 3.97266
c-2.92285 1.37012 -6.96875 3.625 -8.99023 5.01074c-2.02148 1.38672 -5.28125 3.96484 -7.24219 5.73047c-1.96191 1.76465 -5.26758 5.46582 -7.3457 8.22363c-2.0791 2.75879 -4.88867 7.31836 -6.24512 10.1309c-1.35547 2.81348 -3.20996 7.64648 -4.12207 10.7402
c-1.32422 4.49219 -1.7207 7.38672 -1.9707 14.375c-0.256836 7.16602 -0.0908203 9.8252 0.917969 14.6904c0.677734 3.2666 2.00781 7.90723 2.95605 10.3125c0.948242 2.4043 2.97656 6.50098 4.50781 9.10254s4.2041 6.39844 5.93848 8.4375
c1.73535 2.03906 4.98242 5.29199 7.2168 7.22949s6.20508 4.78418 8.8252 6.32617c2.61914 1.54199 6.63184 3.54004 8.91699 4.44043c2.28418 0.900391 6.08105 2.08398 8.4375 2.63184c2.35547 0.546875 6.5332 1.18262 9.2832 1.41211l5 0.416992l0.416992 5
c0.229492 2.75 0.865234 6.92773 1.41211 9.2832c0.547852 2.35645 1.73145 6.15332 2.63184 8.4375c0.900391 2.28516 2.88965 6.2832 4.4209 8.88477s4.2041 6.39844 5.93848 8.4375c1.73535 2.03906 4.98242 5.29199 7.2168 7.22949s6.20508 4.78418 8.8252 6.32617
c2.61914 1.54199 6.73145 3.58105 9.1377 4.53027s6.76562 2.24902 9.6875 2.88867c4.24707 0.929688 7.19238 1.11426 14.6875 0.920898zM333.125 320.544c65.9609 0.0615234 69.9922 0.00195312 75.3916 -1.1123c3.1377 -0.647461 8.13477 -2.16895 11.1055 -3.37891
c2.96973 -1.21191 7.7334 -3.75488 10.585 -5.65234s7.05859 -5.30469 9.34766 -7.57227c2.29004 -2.2666 5.43262 -5.90039 6.98438 -8.0752c1.55176 -2.17383 3.92383 -6.17188 5.27051 -8.88379c1.34766 -2.71289 3.00684 -6.75977 3.68848 -8.99414
c0.680664 -2.23438 1.58984 -6.25098 2.02148 -8.92578c0.499023 -3.09766 0.65625 -7.75195 0.43457 -12.8125c-0.260742 -5.97168 -0.757812 -9.34863 -1.99707 -13.5742c-0.90625 -3.09375 -2.75684 -7.92676 -4.1123 -10.7402
c-1.35645 -2.8125 -4.15332 -7.35449 -6.21582 -10.0918c-2.0625 -2.73633 -5.34082 -6.43066 -7.28613 -8.20898c-1.94531 -1.77734 -5.2168 -4.37305 -7.27148 -5.76758c-2.05469 -1.39551 -6.10156 -3.64551 -8.99316 -5.00098
c-2.89258 -1.35547 -7.98828 -3.21777 -11.3242 -4.1377l-6.06641 -1.67383l-70.625 -0.00195312c-56.0254 -0.000976562 -71.4004 0.167969 -74.375 0.819336c-2.0625 0.452148 -5.57812 1.40039 -7.8125 2.10938c-2.23438 0.708008 -6.3125 2.40625 -9.0625 3.77344
c-2.75 1.36816 -6.89941 3.89258 -9.22168 5.60938c-2.32129 1.7168 -6.25879 5.31543 -8.75 7.99609c-2.49023 2.68164 -5.82812 7.08398 -7.41699 9.7832s-3.62109 6.76758 -4.5166 9.04004c-0.895508 2.27441 -2.06152 5.79004 -2.59082 7.8125
c-0.529297 2.02441 -1.26172 6.34375 -1.62695 9.59961c-0.480469 4.28223 -0.467773 7.60449 0.0429688 12.0059c0.389648 3.34668 1.27539 8.13574 1.96973 10.6416c0.694336 2.50684 2.33105 6.84082 3.63867 9.63184c1.30664 2.79102 3.51758 6.75488 4.91309 8.80957
c1.39453 2.05469 3.96484 5.29785 5.71094 7.20898c1.74609 1.91016 5.21094 5.02246 7.69922 6.91602s6.35156 4.43652 8.58594 5.65039c2.23438 1.21484 6.62598 3.06445 9.75781 4.11133c3.13379 1.0459 7.21191 2.1543 9.0625 2.46191
c1.85254 0.307617 34.7266 0.587891 73.0547 0.624023z" />
  </g>

</svg>
