<?xml version="1.0" standalone="no"?>
<!DOCTYPE svg PUBLIC "-//W3C//DTD SVG 1.1//EN" "http://www.w3.org/Graphics/SVG/1.1/DTD/svg11.dtd" >
<svg xmlns="http://www.w3.org/2000/svg" xmlns:xlink="http://www.w3.org/1999/xlink" version="1.1" viewBox="-10 0 1010 1000">
  <g transform="matrix(1 0 0 -1 0 800)">
   <path fill="currentColor"
d="M248.512 549.917c59.0762 0.0712891 69.5967 -0.0517578 74.2793 -0.868164c3 -0.523438 7.18555 -1.53027 9.30078 -2.23926c2.11523 -0.708008 5.5332 -2.09668 7.5957 -3.08691c2.0625 -0.989258 5.57812 -3 7.8125 -4.4668
c2.23438 -1.46777 6.20703 -4.78418 8.82812 -7.36816c2.62109 -2.58496 6.36035 -7.1543 8.30957 -10.1523c1.9502 -2.99902 4.39258 -7.49902 5.43066 -10c1.03711 -2.50195 2.48926 -6.93848 3.22754 -9.86035c1.06738 -4.22266 1.3418 -7.1709 1.3418 -14.375
s-0.274414 -10.1523 -1.3418 -14.375c-0.738281 -2.92188 -2.19043 -7.3584 -3.22754 -9.86035c-1.03809 -2.50098 -3.39746 -6.86035 -5.24414 -9.6875c-1.84766 -2.82617 -4.81738 -6.72949 -6.59961 -8.67285c-1.78125 -1.94336 -5.27539 -5.0918 -7.76367 -6.99707
c-2.48828 -1.9043 -7.14551 -4.76562 -10.3506 -6.35742c-3.20605 -1.59277 -8.5498 -3.64453 -11.875 -4.56152l-6.04785 -1.66406l-67.3438 -0.180664l-67.3438 -0.180664v-156.213v-156.213l67.3438 -0.180664l67.3438 -0.180664l5.96875 -1.64551
c3.2832 -0.904297 8.06445 -2.64746 10.625 -3.87402c2.56152 -1.22559 6.48438 -3.43066 8.71875 -4.89941c2.23438 -1.46777 6.20703 -4.78516 8.82812 -7.36914c2.62109 -2.58496 6.36035 -7.1543 8.30957 -10.1523c1.9502 -2.99902 4.39258 -7.49902 5.43066 -10
c1.03711 -2.50195 2.48926 -6.93848 3.22754 -9.86035c1.06738 -4.22266 1.3418 -7.1709 1.3418 -14.375s-0.274414 -10.1523 -1.3418 -14.375c-0.738281 -2.92188 -2.19043 -7.3584 -3.22754 -9.86035c-1.03809 -2.50098 -3.48047 -7.00098 -5.43066 -10
c-1.94922 -2.99805 -5.68848 -7.56348 -8.30957 -10.1436c-2.62109 -2.58105 -6.44922 -5.80469 -8.50586 -7.16211c-2.05762 -1.35938 -5.57324 -3.37109 -7.8125 -4.47168c-2.24023 -1.10059 -5.80273 -2.58301 -7.91797 -3.29395
c-2.11523 -0.709961 -6.30078 -1.71875 -9.30078 -2.24219c-4.65723 -0.8125 -15.3438 -0.951172 -73.1191 -0.951172c-42.3701 0 -70.084 0.244141 -74.1367 0.651367c-3.56055 0.358398 -9.75977 1.3252 -13.7773 2.14844
c-4.0166 0.823242 -10.3447 2.50488 -14.0625 3.7373c-3.7168 1.23242 -10.4141 4.03613 -14.8828 6.22852c-4.46875 2.19336 -10.375 5.45703 -13.125 7.25293c-2.75 1.79688 -7.39062 5.17383 -10.3125 7.50488c-2.92188 2.33203 -7.99707 7.00684 -11.2783 10.3887
c-3.28125 3.38281 -7.39355 7.97852 -9.1377 10.2129c-1.74512 2.23438 -4.64258 6.3125 -6.43945 9.0625s-5.06055 8.65625 -7.25391 13.125c-2.19238 4.46875 -4.99609 11.166 -6.22852 14.8828c-1.23242 3.71777 -2.91406 10.0459 -3.7373 14.0625
c-0.823242 4.01758 -1.79004 10.2168 -2.14844 13.7773c-0.433594 4.30566 -0.651367 60.5977 -0.651367 168.215s0.217773 163.909 0.651367 168.215c0.358398 3.56055 1.3252 9.75977 2.14844 13.7773c0.823242 4.0166 2.50488 10.3447 3.7373 14.0625
c1.23242 3.7168 4.03418 10.4141 6.22461 14.8828c2.19141 4.46875 5.65039 10.6562 7.68652 13.75s5.83008 8.15625 8.43164 11.25s6.7998 7.62402 9.33105 10.0664c2.53125 2.44336 6.42969 5.9375 8.66406 7.76562s6.59375 4.99121 9.6875 7.0293
s9.28125 5.50195 13.75 7.69727s11.5 5.08496 15.625 6.42285s10.5938 3.03809 14.375 3.77832c3.78125 0.741211 9.125 1.58105 11.875 1.86621c2.75 0.286133 35.9717 0.557617 73.8242 0.603516zM723.125 549.764c36.1191 -0.138672 42.4219 -0.302734 48.125 -1.25098
c3.60938 -0.600586 9.375 -1.7998 12.8125 -2.66406c3.4375 -0.865234 8.92188 -2.56445 12.1875 -3.77637s9.45312 -4.01074 13.75 -6.21875c4.29688 -2.20898 10.4824 -5.90625 13.7461 -8.21582c3.26367 -2.31055 9.47363 -7.71582 13.7988 -12.0127
c4.32617 -4.29688 9.42188 -9.92188 11.3242 -12.5s4.66699 -6.65625 6.14355 -9.0625c1.47559 -2.40625 4.05957 -7.11523 5.74121 -10.4658s4.13281 -8.97559 5.44531 -12.5c1.31348 -3.52441 3.03125 -8.87598 3.81738 -11.8906
c1.27539 -4.89062 1.60449 -5.51855 3.0498 -5.82812c0.891602 -0.191406 3.84961 -1.05859 6.57129 -1.92773c2.72363 -0.868164 7.02148 -2.52246 9.55176 -3.67578c2.5293 -1.15234 6.9209 -3.60938 9.75977 -5.45898c2.83789 -1.85059 7.14844 -5.0752 9.5791 -7.16797
c2.43066 -2.0918 6.15723 -5.96289 8.28027 -8.60254s4.88184 -6.38672 6.12988 -8.32812s3.46875 -6.06055 4.93652 -9.1543c1.4668 -3.09375 3.40234 -7.82422 4.30078 -10.5107c0.898438 -2.6875 2.16895 -7.46875 2.82324 -10.625
c0.654297 -3.15723 1.48438 -8.65137 1.8457 -12.2119c0.427734 -4.22461 0.655273 -41.3613 0.655273 -106.965s-0.227539 -102.739 -0.655273 -106.965c-0.361328 -3.56055 -1.19141 -9.05469 -1.8457 -12.2119c-0.654297 -3.15625 -1.91797 -7.9375 -2.80762 -10.625
c-0.890625 -2.68652 -3.12988 -7.97949 -4.97754 -11.7607s-5.1123 -9.26562 -7.25586 -12.1875c-2.14258 -2.92188 -5.81836 -7.20801 -8.16602 -9.52441c-2.34863 -2.31641 -6.03223 -5.50977 -8.18652 -7.09668c-2.15527 -1.58496 -5.77246 -3.98535 -8.03906 -5.33203
s-6.7666 -3.52344 -10 -4.83594c-3.2334 -1.31348 -7.74316 -2.88672 -10.0225 -3.49609l-4.14258 -1.10938l-1.40723 -5.39648c-0.774414 -2.96875 -2.48145 -8.28125 -3.79492 -11.8057c-1.3125 -3.52441 -3.76367 -9.14941 -5.44531 -12.5
s-4.26562 -8.05957 -5.74121 -10.4658c-1.47656 -2.40625 -4.24121 -6.48438 -6.14355 -9.0625s-6.99805 -8.20312 -11.3242 -12.5c-4.3252 -4.29688 -10.5352 -9.70215 -13.7988 -12.0127c-3.26367 -2.30957 -9.44922 -6.00684 -13.7461 -8.21582
c-4.29688 -2.20801 -10.4844 -5.00684 -13.75 -6.21875s-8.75 -2.91113 -12.1875 -3.77637c-3.4375 -0.864258 -9.20312 -2.06348 -12.8125 -2.66309c-5.64941 -0.938477 -12.2324 -1.12305 -47.3223 -1.32617c-34.959 -0.202148 -41.5703 -0.0966797 -46.4473 0.745117
c-3.12695 0.540039 -7.42578 1.56641 -9.55176 2.28125s-5.80957 2.27246 -8.18457 3.46387c-2.375 1.18945 -5.89062 3.20117 -7.8125 4.46973s-5.63867 4.41797 -8.25977 6.99902c-2.62109 2.58008 -6.36035 7.14551 -8.30957 10.1436
c-1.9502 2.99902 -4.39258 7.49902 -5.43066 10c-1.03711 2.50195 -2.48926 6.93848 -3.22754 9.86035c-1.06738 4.22266 -1.3418 7.1709 -1.3418 14.375s0.274414 10.1523 1.3418 14.375c0.738281 2.92188 2.19043 7.3584 3.22754 9.86035
c1.03809 2.50098 3.48047 7.00098 5.43066 10c1.94922 2.99805 5.68848 7.56348 8.30957 10.1436c2.62109 2.58105 6.44922 5.80469 8.50586 7.16211c2.05762 1.35938 5.57324 3.37109 7.8125 4.47168c2.24023 1.10059 5.80273 2.58301 7.91797 3.29395
c2.11523 0.709961 6.30078 1.71875 9.30078 2.24219c4.42871 0.772461 11.7852 0.951172 39.123 0.951172h33.668v3.37109c0 1.85449 0.294922 6.28418 0.655273 9.84375c0.361328 3.56055 1.19141 9.05469 1.8457 12.2119c0.654297 3.15625 1.91797 7.9375 2.80762 10.625
c0.890625 2.68652 3.12988 7.99414 4.97852 11.793c1.84766 3.79883 5.10938 9.2832 7.24902 12.1875c2.13867 2.9043 6.09277 7.43945 8.78613 10.0801c2.69238 2.63867 7.64551 6.62793 11.0049 8.86426c3.36133 2.23535 8.0791 4.96191 10.4854 6.05762
s6.625 2.76953 9.375 3.71875l5 1.72656v65.7705v65.7705l-5 1.70996c-2.75 0.94043 -6.89844 2.57812 -9.21973 3.63867s-6.54004 3.44238 -9.375 5.29395s-7.18555 5.12012 -9.66699 7.26465c-2.48047 2.14453 -6.21777 6.02051 -8.30371 8.61328
c-2.08496 2.5918 -4.8125 6.30078 -6.06055 8.24219s-3.46875 6.06055 -4.93652 9.1543c-1.4668 3.09375 -3.40234 7.82422 -4.30078 10.5107c-0.898438 2.6875 -2.16895 7.46875 -2.82324 10.625c-0.654297 3.15723 -1.48438 8.65137 -1.8457 12.2119
c-0.360352 3.55957 -0.655273 7.98926 -0.655273 9.84375v3.37109h-33.668c-27.3379 0 -34.6943 0.178711 -39.123 0.951172c-3 0.523438 -7.18555 1.53223 -9.30078 2.24219c-2.11523 0.710938 -5.67773 2.19336 -7.91797 3.29395
c-2.23926 1.10059 -5.75488 3.1123 -7.8125 4.47168c-2.05664 1.35742 -5.88477 4.58105 -8.50586 7.16211c-2.62109 2.58008 -6.36035 7.14551 -8.30957 10.1436c-1.9502 2.99902 -4.39258 7.49902 -5.43066 10c-1.03711 2.50195 -2.48926 6.93848 -3.22754 9.86035
c-1.06738 4.22266 -1.3418 7.1709 -1.3418 14.375s0.274414 10.1523 1.3418 14.375c0.738281 2.92188 2.19043 7.3584 3.22754 9.86035c1.03809 2.50098 3.48047 7.00098 5.43066 10c1.94922 2.99805 5.68848 7.56348 8.30957 10.1436
c2.62109 2.58105 6.33789 5.73047 8.25977 6.99902s5.4375 3.28027 7.8125 4.46973c2.375 1.19141 6.07324 2.75488 8.21875 3.47559c2.14453 0.720703 6.08203 1.71387 8.75 2.20605c3.95801 0.730469 12.4941 0.865234 46.4121 0.734375zM501.875 487.224
c5.66602 -0.179688 9.47949 -0.679688 13.8799 -1.81836c3.33691 -0.863281 8.53223 -2.77441 11.5449 -4.24609c3.01172 -1.4707 7.63477 -4.30273 10.2744 -6.29004c2.6377 -1.98828 6.28027 -5.23242 8.09375 -7.21094
c1.81348 -1.97754 4.80859 -5.90918 6.65625 -8.73535c1.84668 -2.82715 4.20605 -7.18652 5.24219 -9.6875c1.03711 -2.50195 2.44238 -6.79785 3.12305 -9.54785s1.39941 -8.09375 1.59668 -11.875c0.257812 -4.93262 0.0761719 -8.50098 -0.646484 -12.6279
c-0.551758 -3.16504 -1.62695 -7.66504 -2.38672 -10c-0.760742 -2.33594 -5.66406 -12.8691 -10.8975 -23.4062l-9.51465 -19.1592l16.6738 -0.270508c15.4922 -0.250977 17.1025 -0.385742 22.7402 -1.8916c3.33691 -0.891602 8.53223 -2.82617 11.5449 -4.29785
c3.01172 -1.4707 7.63477 -4.30273 10.2744 -6.29004c2.6377 -1.98828 6.28027 -5.23242 8.09375 -7.21094c1.81348 -1.97754 4.80859 -5.90918 6.65625 -8.73535c1.84668 -2.82715 4.20605 -7.18652 5.24219 -9.6875c1.03711 -2.50195 2.44238 -6.79785 3.12305 -9.54785
s1.39941 -8.09375 1.59668 -11.875c0.257812 -4.93262 0.0761719 -8.50098 -0.646484 -12.6279c-0.551758 -3.16504 -1.62305 -7.66504 -2.37793 -10c-0.755859 -2.33594 -15.9756 -33.4971 -33.8213 -69.2471c-17.8467 -35.75 -34 -67.3906 -35.8975 -70.3125
c-1.89648 -2.92188 -5.59375 -7.42383 -8.21484 -10.0039c-2.62109 -2.58105 -6.45312 -5.80762 -8.51562 -7.16992s-5.97461 -3.56738 -8.69238 -4.90039s-7.63965 -3.11621 -10.9375 -3.96387c-3.66992 -0.943359 -8.66309 -1.67578 -12.8701 -1.88672
c-4.91406 -0.248047 -8.53516 -0.0556641 -12.6963 0.670898c-3.20215 0.560547 -7.56152 1.60254 -9.6875 2.31738s-5.80957 2.27246 -8.18457 3.46387c-2.375 1.18945 -5.89062 3.20117 -7.8125 4.46973s-5.63867 4.41797 -8.25977 6.99902
c-2.62109 2.58008 -6.36035 7.14551 -8.30957 10.1436c-1.9502 2.99902 -4.39258 7.49902 -5.42871 10c-1.03711 2.50195 -2.44238 6.79785 -3.12305 9.54785s-1.39941 8.09375 -1.59668 11.875c-0.257812 4.93262 -0.0761719 8.50098 0.646484 12.6279
c0.551758 3.16504 1.62695 7.66504 2.38672 10c0.760742 2.33594 5.67773 12.8955 10.9268 23.4658l9.54395 19.2188h-14.2764c-9.97656 0 -15.9209 0.286133 -19.7324 0.951172c-3 0.523438 -7.18555 1.5332 -9.30078 2.24414s-5.78906 2.26562 -8.16406 3.45703
c-2.375 1.18945 -5.89062 3.20117 -7.8125 4.46973s-5.63867 4.41797 -8.25977 6.99902c-2.62109 2.58008 -6.36035 7.14551 -8.30957 10.1436c-1.9502 2.99902 -4.39258 7.49902 -5.42871 10c-1.03711 2.50195 -2.44238 6.79785 -3.12305 9.54785
s-1.39941 8.09375 -1.59668 11.875c-0.257812 4.93262 -0.0761719 8.50098 0.646484 12.6279c0.551758 3.16504 1.62109 7.66504 2.375 10c0.754883 2.33594 15.9746 33.4971 33.8232 69.2471s34.0039 67.3906 35.9004 70.3125s5.5918 7.42383 8.21289 10.0039
c2.62109 2.58105 6.33789 5.73047 8.25977 6.99902s5.4375 3.28027 7.8125 4.46973c2.375 1.19141 6.07324 2.75488 8.21875 3.47559c2.14453 0.720703 6.08203 1.72461 8.75 2.22949c3.25293 0.617188 7.4209 0.837891 12.6621 0.670898z" />
  </g>

</svg>
