<?xml version="1.0" standalone="no"?>
<!DOCTYPE svg PUBLIC "-//W3C//DTD SVG 1.1//EN" "http://www.w3.org/Graphics/SVG/1.1/DTD/svg11.dtd" >
<svg xmlns="http://www.w3.org/2000/svg" xmlns:xlink="http://www.w3.org/1999/xlink" version="1.1" viewBox="-10 0 1010 1000">
  <g transform="matrix(1 0 0 -1 0 800)">
   <path fill="currentColor"
d="M470.312 549.737c280.358 -0.0644531 294.688 -0.12207 300.938 -1.19238c3.60938 -0.618164 9.375 -1.83203 12.8125 -2.69629c3.4375 -0.865234 8.92188 -2.56445 12.1875 -3.77637s9.45312 -4.01074 13.75 -6.21875
c4.29688 -2.20898 10.4824 -5.90625 13.7461 -8.21582c3.26367 -2.31055 9.47363 -7.71582 13.7988 -12.0127c4.32617 -4.29688 9.42188 -9.92188 11.3242 -12.5s4.66699 -6.65625 6.14355 -9.0625c1.47559 -2.40625 4.05957 -7.11523 5.74121 -10.4658
s4.13281 -8.97559 5.44531 -12.5c1.31348 -3.52441 3.03125 -8.87598 3.81738 -11.8906c1.27539 -4.89062 1.60449 -5.51855 3.0498 -5.82812c0.891602 -0.191406 3.84961 -1.05859 6.57129 -1.92773c2.72363 -0.868164 7.02148 -2.52246 9.55176 -3.67578
c2.5293 -1.15234 6.91113 -3.60547 9.73633 -5.44922c2.8252 -1.84473 7.16699 -5.1084 9.64844 -7.25293c2.48047 -2.14453 6.21777 -6.02051 8.30371 -8.61328c2.08496 -2.5918 4.8125 -6.30078 6.06055 -8.24219s3.46875 -6.06055 4.93652 -9.1543
c1.4668 -3.09375 3.40234 -7.82422 4.30078 -10.5107c0.898438 -2.6875 2.16895 -7.46875 2.82324 -10.625c0.654297 -3.15723 1.48438 -8.65137 1.8457 -12.2119c0.427734 -4.22461 0.655273 -41.3613 0.655273 -106.965c0 -65.6045 -0.227539 -102.74 -0.655273 -106.966
c-0.361328 -3.56055 -1.19141 -9.05469 -1.8457 -12.2119c-0.654297 -3.15625 -1.91797 -7.9375 -2.80762 -10.625c-0.890625 -2.68652 -3.12988 -7.97949 -4.97754 -11.7598c-1.84766 -3.78125 -5.1123 -9.26562 -7.25586 -12.1875
c-2.14258 -2.92188 -5.81836 -7.20801 -8.16602 -9.52441c-2.34863 -2.31641 -6.03223 -5.50977 -8.18652 -7.09668c-2.15527 -1.58496 -5.77246 -3.98535 -8.03906 -5.33203s-6.7666 -3.52344 -10 -4.83594c-3.2334 -1.31348 -7.74316 -2.88672 -10.0225 -3.49609
l-4.14258 -1.10938l-1.40723 -5.39648c-0.774414 -2.96875 -2.48145 -8.28125 -3.79492 -11.8066c-1.3125 -3.52344 -3.76367 -9.14844 -5.44531 -12.5c-1.68164 -3.35059 -4.26562 -8.05957 -5.74121 -10.4648c-1.47656 -2.40625 -4.24121 -6.48438 -6.14355 -9.0625
s-6.99805 -8.20312 -11.3242 -12.5c-4.3252 -4.29688 -10.5352 -9.70215 -13.7988 -12.0127c-3.26367 -2.30957 -9.44922 -6.00684 -13.7461 -8.21582c-4.29688 -2.20801 -10.4844 -5.00684 -13.75 -6.21875s-8.75 -2.91309 -12.1875 -3.7793
s-9.48438 -2.08301 -13.4375 -2.70508c-6.86035 -1.08008 -20.7012 -1.13086 -303.75 -1.13086c-282.285 0 -296.924 0.0546875 -304.062 1.12402c-4.125 0.618164 -10.7344 1.84082 -14.6875 2.71777c-3.95312 0.875977 -10.2803 2.72559 -14.0625 4.11133
c-3.78125 1.38477 -8.84375 3.49707 -11.25 4.69434c-2.40625 1.19824 -6.0625 3.18359 -8.125 4.41406c-2.0625 1.22949 -5.85938 3.77441 -8.4375 5.65723c-2.57812 1.88184 -7.03906 5.69629 -9.91406 8.47656c-2.87402 2.78027 -6.98145 7.30469 -9.12793 10.0547
s-5.06055 6.84668 -6.47656 9.10352c-1.41504 2.25781 -3.97363 7.03906 -5.68359 10.625c-1.71191 3.58691 -4.09082 9.47461 -5.28809 13.084c-1.19629 3.60938 -2.87793 9.9375 -3.73633 14.0625c-0.857422 4.125 -1.93066 10.4531 -2.38574 14.0625
c-0.666016 5.29688 -0.825195 39.7695 -0.825195 178.75s0.15918 173.452 0.825195 178.75c0.455078 3.60938 1.52832 9.9375 2.38574 14.0625c0.858398 4.125 2.54004 10.4531 3.73633 14.0625c1.19727 3.60938 3.57617 9.49707 5.28809 13.084
c1.70996 3.58594 4.26855 8.36719 5.68359 10.625c1.41602 2.25684 4.33008 6.35352 6.47656 9.10352s6.25391 7.27441 9.12793 10.0547c2.875 2.78027 7.33594 6.58887 9.91406 8.46387s6.09375 4.29492 7.8125 5.37793c1.71875 1.08398 6.07812 3.37793 9.6875 5.09961
s9.51562 4.10938 13.125 5.30664c3.60938 1.19629 9.9375 2.87207 14.0625 3.72266s10.4531 1.85742 14.0625 2.23926s7.54688 0.786133 8.75 0.898438c1.20312 0.113281 134.656 0.174805 296.562 0.136719h-0.000976562zM468.75 425h-281.25v-156.25v-156.25h281.25
h281.25v3.37109c0 1.85449 0.294922 6.28418 0.655273 9.84375c0.361328 3.56055 1.19141 9.05469 1.8457 12.2119c0.654297 3.15625 1.91797 7.9375 2.80762 10.625c0.890625 2.68652 3.12988 7.99414 4.97852 11.793c1.84766 3.79883 5.10938 9.2832 7.24902 12.1875
c2.13867 2.9043 6.09277 7.43945 8.78613 10.0801c2.69238 2.63867 7.64551 6.62793 11.0049 8.86426c3.36133 2.23535 8.0791 4.96191 10.4854 6.05762s6.625 2.76953 9.375 3.71875l5 1.72656v65.7705v65.7705l-5 1.70996
c-2.75 0.94043 -6.89844 2.57812 -9.21973 3.63867s-6.54004 3.44238 -9.375 5.29395s-7.18555 5.12012 -9.66699 7.26465c-2.48047 2.14453 -6.21777 6.02051 -8.30371 8.61328c-2.08496 2.5918 -4.8125 6.30078 -6.06055 8.24219s-3.46875 6.06055 -4.93652 9.1543
c-1.4668 3.09375 -3.40234 7.82422 -4.30078 10.5107c-0.898438 2.6875 -2.16895 7.46875 -2.82324 10.625c-0.654297 3.15723 -1.48438 8.65137 -1.8457 12.2119c-0.360352 3.55957 -0.655273 7.98926 -0.655273 9.84375v3.37109h-281.25z" />
  </g>

</svg>
