<?xml version="1.0" standalone="no"?>
<!DOCTYPE svg PUBLIC "-//W3C//DTD SVG 1.1//EN" "http://www.w3.org/Graphics/SVG/1.1/DTD/svg11.dtd" >
<svg xmlns="http://www.w3.org/2000/svg" xmlns:xlink="http://www.w3.org/1999/xlink" version="1.1" viewBox="-10 0 1010 1000">
  <g transform="matrix(1 0 0 -1 0 800)">
   <path fill="currentColor"
d="M126.875 612.224c5.66602 -0.179688 9.47949 -0.679688 13.8799 -1.81836c3.33691 -0.863281 8.53223 -2.77441 11.5449 -4.24609c3.01172 -1.4707 7.63477 -4.30273 10.2744 -6.29004c2.6377 -1.98828 6.28027 -5.23242 8.09375 -7.21094
c1.81348 -1.97754 4.80859 -5.90918 6.65625 -8.73535c1.84668 -2.82715 4.20605 -7.18652 5.24219 -9.6875c1.03711 -2.50195 2.49512 -6.79785 3.24023 -9.54785l1.35449 -5l0.326172 -110.625c0.178711 -60.8438 0.547852 -108.655 0.820312 -106.25
c0.271484 2.40625 1.0752 6.86523 1.78516 9.9082c0.709961 3.04395 2.125 7.8252 3.14355 10.625c1.01758 2.80078 3.41406 8.07227 5.3252 11.7158s5.27539 9.04395 7.47656 12.001c2.2002 2.95703 6.14453 7.51953 8.7627 10.1377s6.89844 6.37012 9.51172 8.33789
c2.6123 1.9668 6.1582 4.46484 7.87891 5.5498c1.72168 1.08496 5.7998 3.23438 9.0625 4.77539c3.26367 1.54199 8.04297 3.50781 10.6211 4.36719c2.57812 0.860352 7.50488 2.13672 10.9492 2.83594c3.44434 0.700195 9.79688 1.46191 14.1172 1.69336
c4.95508 0.264648 10.1445 0.141602 14.0518 -0.334961c3.40723 -0.415039 8.53809 -1.29883 11.4014 -1.96484c2.86523 -0.666016 7.64648 -2.07129 10.625 -3.12207c2.98047 -1.05176 8.39844 -3.47754 12.042 -5.39258s9.01855 -5.26367 11.9453 -7.44141
c2.92676 -2.17871 7.37109 -6.00977 9.87695 -8.51367s6.01074 -6.38086 7.78906 -8.61523s4.2666 -5.68457 5.5293 -7.66699s3.52734 -6.06055 5.03223 -9.0625s3.59766 -7.98926 4.65137 -11.083s2.49414 -8.53809 3.20215 -12.0986s1.33984 -7.63867 1.4043 -9.0625
s0.307617 5.14551 0.540039 14.5986c0.355469 14.4277 0.631836 17.9902 1.71973 22.1875c0.712891 2.75 2.14453 7.0459 3.18164 9.54785c1.03613 2.50098 3.47852 7.00098 5.42871 10c1.94922 2.99805 5.68848 7.56348 8.30957 10.1436
c2.62109 2.58105 6.33789 5.73047 8.25977 6.99902s5.4375 3.28027 7.8125 4.46973c2.375 1.19141 6.05859 2.74902 8.18457 3.46387s6.34473 1.72754 9.375 2.25c4.87305 0.84082 31.5791 0.932617 231.446 0.788086l225.938 -0.162109l6.06738 -1.67578
c3.33691 -0.921875 8.53223 -2.88086 11.5449 -4.35254c3.01172 -1.4707 7.63477 -4.30273 10.2744 -6.29004c2.6377 -1.98828 6.28027 -5.23242 8.09375 -7.21094c1.81348 -1.97754 4.82422 -5.93359 6.69141 -8.79102c1.86719 -2.85645 4.31836 -7.49707 5.44922 -10.3125
c1.12988 -2.81445 2.57715 -7.36719 3.2168 -10.1172c1.11719 -4.80762 1.16211 -11.3359 1.16211 -169.688c0 -158.353 -0.0449219 -164.88 -1.16211 -169.688c-0.639648 -2.75 -2.08691 -7.30273 -3.2168 -10.1172c-1.13086 -2.81543 -3.58203 -7.45605 -5.44922 -10.3125
c-1.86719 -2.85742 -4.87793 -6.81348 -6.69141 -8.79102c-1.81348 -1.97852 -5.45605 -5.22266 -8.09375 -7.21094c-2.63965 -1.9873 -7.2627 -4.81934 -10.2744 -6.29004c-3.0127 -1.47168 -8.20801 -3.37793 -11.5449 -4.23535
c-3.73828 -0.960938 -8.70703 -1.69336 -12.9424 -1.90527c-4.91406 -0.248047 -8.53516 -0.0556641 -12.6963 0.670898c-3.20215 0.560547 -7.56152 1.60254 -9.6875 2.31738s-5.80957 2.27246 -8.18457 3.46387c-2.375 1.18945 -5.89062 3.20117 -7.8125 4.46973
s-5.63867 4.41797 -8.25977 6.99902c-2.62109 2.58008 -6.36035 7.14551 -8.30957 10.1436c-1.9502 2.99902 -4.39258 7.49902 -5.42871 10c-1.03711 2.50195 -2.48438 6.79785 -3.21777 9.54785c-1.27246 4.77539 -1.34277 6.62207 -1.55664 41.0938l-0.224609 36.0947
h-312.435h-312.436l-0.224609 -36.0947c-0.213867 -34.4717 -0.28418 -36.3184 -1.55664 -41.0938c-0.733398 -2.75 -2.18066 -7.0459 -3.21777 -9.54785c-1.03613 -2.50098 -3.39551 -6.86035 -5.24219 -9.6875c-1.84766 -2.82617 -4.84277 -6.75781 -6.65625 -8.73535
c-1.81348 -1.97852 -5.45605 -5.22266 -8.09375 -7.21094c-2.63965 -1.9873 -7.2627 -4.81934 -10.2744 -6.29004c-3.0127 -1.47168 -8.20801 -3.37793 -11.5449 -4.23535c-3.73828 -0.960938 -8.70703 -1.69336 -12.9424 -1.90527
c-4.91406 -0.248047 -8.53516 -0.0556641 -12.6963 0.670898c-3.20215 0.560547 -7.56152 1.60254 -9.6875 2.31738s-5.80957 2.27246 -8.18457 3.46387c-2.375 1.18945 -5.89062 3.20117 -7.8125 4.46973s-5.63867 4.41797 -8.25977 6.99902
c-2.62109 2.58008 -6.37695 7.16992 -8.3457 10.1992c-1.96973 3.02832 -4.50391 7.80957 -5.63477 10.625c-1.12988 2.81445 -2.57715 7.36719 -3.2168 10.1172c-1.12305 4.83203 -1.16211 13.6855 -1.16211 263.438s0.0390625 258.604 1.16211 263.438
c0.639648 2.75 2.08691 7.30273 3.2168 10.1172c1.13086 2.81543 3.66504 7.59668 5.63477 10.625c1.96875 3.0293 5.72461 7.61914 8.3457 10.1992c2.62109 2.58105 6.33789 5.73047 8.25977 6.99902s5.4375 3.28027 7.8125 4.46973
c2.375 1.19141 6.07324 2.75488 8.21875 3.47559c2.14453 0.720703 6.08203 1.72461 8.75 2.22949c3.25293 0.617188 7.4209 0.837891 12.6621 0.670898h0.000976562zM280.751 362.459c-1.95996 -0.0224609 -5.11035 -0.452148 -7.00098 -0.953125
c-1.89062 -0.501953 -4.98438 -1.6582 -6.875 -2.57031c-1.96875 -0.948242 -5.19727 -3.41211 -7.55566 -5.76465c-2.74707 -2.74121 -4.75293 -5.45996 -6.02832 -8.1709c-1.05078 -2.23438 -2.2207 -5.55273 -2.60059 -7.37402
c-0.379883 -1.82227 -0.69043 -4.78613 -0.69043 -6.58789c0 -1.80078 0.430664 -4.95215 0.956055 -7.00098c0.526367 -2.04883 1.70117 -5.27148 2.61035 -7.16211c0.954102 -1.98145 3.39453 -5.17773 5.7627 -7.5459s5.56445 -4.80859 7.5459 -5.7627
c1.89062 -0.90918 5.11328 -2.08398 7.16211 -2.61035c2.04883 -0.525391 5.29492 -0.956055 7.21289 -0.956055s5.16406 0.430664 7.21289 0.956055c2.04883 0.526367 5.27148 1.70117 7.16211 2.61035c1.98145 0.954102 5.17773 3.39453 7.5459 5.7627
s4.80859 5.56445 5.7627 7.5459c0.90918 1.89062 2.08398 5.11328 2.61035 7.16211c0.525391 2.04883 0.956055 5.29492 0.956055 7.21289s-0.430664 5.16406 -0.956055 7.21289c-0.526367 2.04883 -1.70117 5.27148 -2.61035 7.16211
c-0.950195 1.97363 -3.40332 5.19043 -5.7627 7.55566c-2.74121 2.74707 -5.45996 4.75293 -8.1709 6.02832c-2.23438 1.05078 -5.55273 2.2207 -7.37402 2.60059c-1.82227 0.379883 -4.91602 0.671875 -6.875 0.649414zM187.937 322.188
c-0.125 1.375 -0.273438 -17.1182 -0.331055 -41.0947l-0.105469 -43.5938l43.2812 0.0664062c38.6289 0.0605469 42.6689 0.157227 37.584 0.899414c-3.13379 0.457031 -7.49316 1.29199 -9.6875 1.85547s-6.38086 1.86328 -9.30273 2.88867
s-8.28809 3.42773 -11.9258 5.33887c-3.6377 1.91211 -8.84082 5.12598 -11.5625 7.14355s-7.16699 5.84277 -9.87695 8.50195c-2.71094 2.65918 -6.3877 6.66895 -8.17188 8.91406c-1.78418 2.24316 -4.27734 5.70117 -5.54004 7.68359s-3.52734 6.06055 -5.03223 9.0625
s-3.59863 7.98926 -4.65332 11.083c-1.05371 3.09375 -2.48633 8.57812 -3.18359 12.1875c-0.696289 3.60938 -1.36816 7.6875 -1.49219 9.06348zM374.777 324.375c-0.12207 0 -0.412109 -2.03906 -0.643555 -4.53125s-1.00488 -7.02148 -1.71973 -10.0645
c-0.713867 -3.04395 -2.1123 -7.7627 -3.10547 -10.4863c-0.995117 -2.72461 -2.68359 -6.70312 -3.75293 -8.8418s-2.94922 -5.57617 -4.17676 -7.63867c-1.22656 -2.0625 -3.73828 -5.77148 -5.58105 -8.24316c-1.84277 -2.4707 -5.29688 -6.45801 -7.67578 -8.86035
c-2.37793 -2.40234 -6.2334 -5.88574 -8.56641 -7.74121c-2.33398 -1.85547 -5.86035 -4.4043 -7.83594 -5.66309c-1.97656 -1.25879 -5.55664 -3.27734 -7.95605 -4.48535s-6.53125 -3.05762 -9.18164 -4.11133c-2.65039 -1.05273 -7.71484 -2.61133 -11.2529 -3.46484
c-3.53906 -0.852539 -8.61914 -1.78125 -11.2881 -2.06348c-2.97559 -0.314453 12.1387 -0.544922 39.0527 -0.59668l43.9062 -0.0830078v43.4375c0 23.8906 -0.0996094 43.4375 -0.222656 43.4375zM656.25 300h-156.25v-31.25v-31.25h156.25h156.25v31.25v31.25h-156.25z
" />
  </g>

</svg>
