<?xml version="1.0" standalone="no"?>
<!DOCTYPE svg PUBLIC "-//W3C//DTD SVG 1.1//EN" "http://www.w3.org/Graphics/SVG/1.1/DTD/svg11.dtd" >
<svg xmlns="http://www.w3.org/2000/svg" xmlns:xlink="http://www.w3.org/1999/xlink" version="1.1" viewBox="-10 0 1010 1000">
  <g transform="matrix(1 0 0 -1 0 800)">
   <path fill="currentColor"
d="M502.5 737.191c5.32812 -0.143555 12.6406 -0.707031 16.25 -1.25195s10.0781 -1.83105 14.375 -2.85742s10.4844 -2.72949 13.75 -3.78516s8.46875 -2.91113 11.5625 -4.12402c3.09375 -1.21191 9.46973 -4.14551 14.168 -6.51855s12.292 -6.81348 16.875 -9.86719
s10.7227 -7.4707 13.6445 -9.81738c2.92188 -2.3457 8.42676 -7.36328 12.2334 -11.1484c3.80664 -3.78613 9.0332 -9.44043 11.6162 -12.5654c2.58203 -3.125 6.20215 -7.84082 8.04492 -10.4785l3.34961 -4.79688l9.72168 -5.08105
c5.34668 -2.79395 15.0596 -8.03613 21.584 -11.6494s17.2119 -9.79785 23.75 -13.7441s17.0723 -10.6787 23.4072 -14.96c6.33691 -4.28223 15.3369 -10.6357 20 -14.1182c4.66504 -3.48242 12.6992 -9.84277 17.8555 -14.1338s15.3066 -13.7197 22.5576 -20.9541
c7.25 -7.2334 15.9951 -16.5537 19.4346 -20.7109c3.43848 -4.15723 8.4082 -10.4062 11.042 -13.8848c2.63477 -3.47949 7.70801 -10.7646 11.2744 -16.1914c3.56543 -5.42578 8.82031 -14.0664 11.6777 -19.2021c2.85645 -5.13477 7.34961 -13.9941 9.98438 -19.6875
c2.63477 -5.69238 6.35547 -14.4287 8.26855 -19.4131s4.63867 -12.5781 6.05469 -16.875c1.41797 -4.29688 3.69434 -11.8867 5.05957 -16.8672c1.36621 -4.97949 3.45117 -13.5576 4.63379 -19.0625c1.18164 -5.50391 2.8584 -14.2266 3.72363 -19.3828
c0.866211 -5.15625 2.13281 -14.0156 2.81543 -19.6875s1.53223 -13.6875 1.8877 -17.8125s0.925781 -12.9844 1.2666 -19.6875s0.625 -17.3906 0.631836 -23.75s0.291992 -17.0469 0.633789 -23.75s1.05859 -17.3906 1.59277 -23.75
c0.535156 -6.35938 1.52246 -15.9219 2.19629 -21.25s1.93457 -13.9062 2.80176 -19.0625c0.868164 -5.15625 2.26367 -12.3281 3.10059 -15.9375c0.837891 -3.60938 2.19824 -8.95312 3.02441 -11.875c0.825195 -2.92188 2.3125 -7.51562 3.30371 -10.207l1.80371 -4.89648
l5.1084 -2.11816c2.81055 -1.16504 6.60254 -3.02051 8.42871 -4.125c1.82422 -1.10254 5.06055 -3.37305 7.19043 -5.04395c2.13086 -1.6709 5.19922 -4.50293 6.81934 -6.29297c1.62012 -1.78906 4.46094 -5.56738 6.3125 -8.39355
c1.85156 -2.82715 4.21387 -7.18652 5.25195 -9.6875c1.03711 -2.50195 2.48926 -6.93848 3.22754 -9.86035c1.06738 -4.22266 1.3418 -7.1709 1.3418 -14.375s-0.274414 -10.1523 -1.3418 -14.375c-0.738281 -2.92188 -2.19043 -7.3584 -3.22754 -9.86035
c-1.03809 -2.50098 -3.39746 -6.86035 -5.24414 -9.6875c-1.84766 -2.82617 -4.81738 -6.72949 -6.59961 -8.67285c-1.78125 -1.94336 -5.27539 -5.08984 -7.76367 -6.99316s-6.77344 -4.58008 -9.52344 -5.94824s-6.73047 -3.06641 -8.8457 -3.77441
c-2.11523 -0.707031 -6.30078 -1.71387 -9.30078 -2.2373c-4.72754 -0.824219 -18.5537 -0.951172 -103.782 -0.951172h-98.3271l-0.333008 -2.03125c-0.182617 -1.11719 -0.920898 -5.40625 -1.64062 -9.53125s-2.27344 -11.7188 -3.45215 -16.875
c-1.17969 -5.15625 -3.26562 -13.1045 -4.63574 -17.6621c-1.37109 -4.55859 -3.78906 -11.8711 -5.375 -16.25c-1.58594 -4.37988 -4.42969 -11.4785 -6.31934 -15.7754c-1.89062 -4.29688 -5.00391 -10.7656 -6.91992 -14.375
c-1.91504 -3.60938 -5.0332 -9.09375 -6.92871 -12.1875s-5.43066 -8.40918 -7.85547 -11.8115c-2.42578 -3.40332 -6.96582 -9.16895 -10.0918 -12.8125c-3.12598 -3.64453 -8.18848 -9.02441 -11.25 -11.957c-3.06152 -2.93164 -8.23926 -7.4668 -11.5049 -10.0791
c-3.26562 -2.61328 -9.03125 -6.78418 -12.8125 -9.27051c-3.78125 -2.48535 -11.375 -6.72266 -16.875 -9.41602s-12.7939 -5.91992 -16.209 -7.17188s-10.4463 -3.35059 -15.625 -4.66406s-13.7754 -3.03711 -19.1035 -3.83203
c-8.33203 -1.24219 -12.0479 -1.44141 -26.5625 -1.41699c-14.2432 0.0224609 -18.2881 0.244141 -25.9375 1.42188c-4.98438 0.767578 -12.0156 2.0918 -15.625 2.94336s-9.29102 2.39062 -12.624 3.41895c-3.33496 1.02832 -8.81934 3.01367 -12.1875 4.41309
c-3.37012 1.39941 -9.45312 4.23828 -13.5205 6.30859s-10.8467 6.06934 -15.0664 8.88672c-4.21875 2.81738 -9.85254 6.90625 -12.5195 9.08496c-2.66602 2.17969 -7.39648 6.37988 -10.5107 9.33301c-3.11426 2.9541 -8.21484 8.35254 -11.3359 11.9971
c-3.12012 3.64355 -7.69629 9.45703 -10.1699 12.918c-2.47461 3.45996 -6.50391 9.61914 -8.9541 13.6865c-2.45117 4.06738 -6.41113 11.3926 -8.7998 16.2793c-2.38867 4.8877 -5.84961 12.7627 -7.69043 17.5c-1.84277 4.73828 -4.4834 12.1309 -5.87012 16.4277
s-3.24316 10.4844 -4.12598 13.75s-2.28711 9.03125 -3.12109 12.8125c-0.834961 3.78125 -2.1084 10.25 -2.83105 14.375s-1.46387 8.41406 -1.64648 9.53125l-0.333008 2.03125h-98.3271c-85.2275 0 -99.0547 0.126953 -103.781 0.951172
c-3 0.523438 -7.18555 1.5332 -9.30078 2.24414s-5.78906 2.26562 -8.16406 3.45703c-2.375 1.18945 -5.89062 3.20117 -7.8125 4.46973s-5.63867 4.41797 -8.25977 6.99902c-2.62109 2.58008 -6.36035 7.14551 -8.30957 10.1436
c-1.9502 2.99902 -4.39258 7.49902 -5.43066 10c-1.03711 2.50195 -2.48926 6.93848 -3.22754 9.86035c-1.06738 4.22266 -1.3418 7.1709 -1.3418 14.375s0.274414 10.1523 1.3418 14.375c0.738281 2.92188 2.19043 7.3584 3.22754 9.86035
c1.03809 2.50098 3.40039 6.86035 5.25195 9.6875c1.85156 2.82617 4.69238 6.60449 6.3125 8.39355c1.62012 1.79004 4.68848 4.62207 6.81934 6.29297c2.12988 1.6709 5.36621 3.94141 7.19043 5.04395c1.82617 1.10449 5.62305 2.95996 8.4375 4.125l5.11914 2.11816
l2.38477 6.77148c1.31152 3.72266 3.33301 10.5664 4.49316 15.207s2.6748 11.5312 3.36719 15.3125c0.691406 3.78125 1.82129 10.6719 2.50879 15.3125c0.689453 4.64062 1.68945 12.5156 2.22266 17.5s1.39453 14.6875 1.91211 21.5625
c0.518555 6.875 1.20898 24.3125 1.53613 38.75c0.326172 14.4375 0.890625 30.3281 1.25391 35.3125s1.0957 13.2812 1.62793 18.4375c0.533203 5.15625 1.67188 14.1562 2.5293 20c0.859375 5.84375 2.54297 15.4062 3.74121 21.25
c1.2002 5.84375 2.88086 13.4375 3.7373 16.875s2.97852 11.0312 4.7168 16.875s4.57129 14.4219 6.2959 19.0625c1.72363 4.64062 4.81543 12.375 6.87012 17.1875s5.52344 12.2656 7.70801 16.5625c2.18555 4.29688 5.96191 11.2803 8.39258 15.5186
c2.43066 4.2373 6.77148 11.2686 9.64746 15.625c2.87695 4.35547 7.5498 11.0127 10.3848 14.7939s7.8457 10.1094 11.1348 14.0625c3.28809 3.95312 12.0391 13.2539 19.4443 20.668c7.40625 7.41309 17.9658 17.2188 23.4658 21.7881s14.5 11.6045 20 15.6328
s13.7969 9.85547 18.4375 12.9492c4.64062 3.09277 12.7969 8.30469 18.125 11.582c5.32812 3.27637 14.75 8.8418 20.9375 12.3662c6.1875 3.52344 17.2969 9.60156 24.6875 13.5059l13.4375 7.09863l3.88086 5.48633c2.13574 3.0166 6.69531 8.75781 10.1338 12.7578
c3.4375 4 8.87207 9.68262 12.0742 12.6279s8.20508 7.24121 11.1172 9.5459c2.91113 2.30469 8.42285 6.25586 12.248 8.78027s10.7158 6.53809 15.3125 8.91797c4.59668 2.38086 10.6084 5.22656 13.3584 6.32324c2.75 1.09766 7.8125 2.95508 11.25 4.12793
s9.00781 2.83496 12.3779 3.69434c3.37109 0.858398 8.43359 2.00391 11.25 2.54395c2.81738 0.540039 8.0752 1.36328 11.6846 1.83105c4.12207 0.53418 10.165 0.75293 16.25 0.588867h-0.000976562zM499.744 612.466
c-0.375 -0.0185547 -2.6709 -0.556641 -5.10254 -1.19434c-2.43164 -0.636719 -6.32617 -2.02246 -8.6543 -3.07812s-6.00391 -3.18359 -8.16797 -4.72754c-2.16406 -1.54492 -5.45703 -4.48926 -7.31738 -6.5459c-1.86035 -2.05566 -4.35156 -5.45508 -5.53613 -7.55469
c-1.18359 -2.09863 -3.7002 -6.33105 -5.59082 -9.4043c-1.89062 -3.07422 -5.02539 -7.36426 -6.9668 -9.53418c-1.94043 -2.16992 -5.6084 -5.53809 -8.15039 -7.48535c-2.9375 -2.25 -11.3252 -6.97949 -23.0244 -12.9814
c-10.1211 -5.19336 -22.7656 -11.8545 -28.0986 -14.8027c-5.33398 -2.94824 -13.916 -7.87891 -19.0723 -10.9551s-13.7344 -8.47949 -19.0625 -12.0059c-5.32812 -3.52734 -13.0625 -8.94434 -17.1875 -12.0391c-4.125 -3.09375 -10.5938 -8.2998 -14.375 -11.5684
s-10.5508 -9.70215 -15.0439 -14.2969s-10.3994 -11.1689 -13.125 -14.6084s-6.82227 -9.06445 -9.10449 -12.5c-2.28125 -3.43555 -5.87793 -9.375 -7.99316 -13.1992s-5.38574 -10.5107 -7.2666 -14.8594c-1.88184 -4.34766 -4.67383 -11.5645 -6.20605 -16.0371
s-3.90527 -12.5938 -5.27539 -18.0488c-1.36914 -5.4541 -3.2002 -13.9512 -4.06836 -18.8838c-0.869141 -4.93262 -1.99805 -12.4834 -2.50977 -16.7803c-0.510742 -4.29688 -1.23047 -11.3281 -1.59766 -15.625c-0.368164 -4.29688 -0.932617 -19.3936 -1.25488 -33.5488
c-0.323242 -14.1553 -1.02734 -32.2959 -1.56543 -40.3125c-0.537109 -8.0166 -1.5332 -20.0605 -2.21387 -26.7637c-0.679688 -6.70312 -2.08398 -18.083 -3.12109 -25.2891s-2.71777 -17.3311 -3.73535 -22.5c-1.01855 -5.16895 -1.85254 -9.60938 -1.85352 -9.86719
c-0.00195312 -0.257812 118.122 -0.46875 262.497 -0.46875s262.499 0.210938 262.497 0.46875c-0.000976562 0.257812 -0.834961 4.69824 -1.85352 9.86719c-1.01758 5.16895 -2.69824 15.2939 -3.73535 22.5s-2.44141 18.5859 -3.12109 25.2891
c-0.680664 6.70312 -1.67676 18.7471 -2.21387 26.7637c-0.538086 8.0166 -1.24219 26.1572 -1.56543 40.3125c-0.322266 14.1553 -0.886719 29.252 -1.25488 33.5488c-0.367188 4.29688 -1.08691 11.3281 -1.59766 15.625
c-0.511719 4.29688 -1.62402 11.75 -2.47168 16.5625s-2.50879 12.6914 -3.69238 17.5078c-1.18262 4.81738 -3.04102 11.5674 -4.12891 15c-1.08887 3.43359 -3.35645 9.76562 -5.04004 14.0732c-1.68457 4.30664 -4.83789 11.3379 -7.00781 15.625
c-2.16992 4.28613 -5.75781 10.7012 -7.97363 14.2539s-6.65527 9.96582 -9.86523 14.251c-3.21094 4.28613 -10.1016 12.1758 -15.3125 17.5332c-5.21191 5.35645 -12.8252 12.5479 -16.9189 15.9785c-4.09375 3.43262 -10.0449 8.1709 -13.2266 10.5303
c-3.18066 2.35938 -9.6748 6.92578 -14.4316 10.1465c-4.75684 3.22168 -12.5918 8.24707 -17.4131 11.1689c-4.81934 2.9209 -13.96 8.20996 -20.3125 11.7539c-6.35059 3.54297 -19.5732 10.5596 -29.3818 15.5938c-9.80957 5.0332 -19.5127 10.252 -21.5625 11.5967
c-2.05078 1.34473 -6.11914 4.86328 -9.04102 7.81836c-3.38672 3.4248 -6.55859 7.44434 -8.75 11.085c-1.89062 3.14258 -4.40723 7.42578 -5.59082 9.52051c-1.18457 2.09473 -3.67578 5.49023 -5.53613 7.5459c-1.86035 2.05664 -5.15332 5.00098 -7.31738 6.5459
c-2.16406 1.54395 -5.83398 3.66895 -8.15527 4.72168s-6.33203 2.45312 -8.91113 3.11328c-2.5791 0.65918 -4.99512 1.18359 -5.37012 1.16504zM500 50h-56.1621l1.88184 -7.03125c1.03418 -3.86719 2.87988 -9.70312 4.10059 -12.9688s3.32324 -8.2627 4.67188 -11.1055
c1.34961 -2.84277 4.1123 -7.64746 6.13867 -10.6787c2.02734 -3.03027 5.64453 -7.35742 8.03809 -9.61621c2.74609 -2.58984 6.04492 -4.93262 8.93652 -6.34668c2.51953 -1.23145 6.41016 -2.72949 8.64453 -3.32715c3.03125 -0.810547 6.52148 -1.08594 13.75 -1.08594
s10.7188 0.275391 13.75 1.08594c2.23438 0.597656 6.125 2.0957 8.64453 3.32715c2.85645 1.39746 6.18457 3.75098 8.83301 6.25c2.33789 2.20508 5.69141 6.09375 7.45312 8.64258s4.57715 7.39746 6.25781 10.7754c1.67969 3.37793 4.04492 8.81348 5.25684 12.0791
s3.05078 9.10156 4.08496 12.9688l1.88184 7.03125h-56.1621z" />
  </g>

</svg>
