<?xml version="1.0" standalone="no"?>
<!DOCTYPE svg PUBLIC "-//W3C//DTD SVG 1.1//EN" "http://www.w3.org/Graphics/SVG/1.1/DTD/svg11.dtd" >
<svg xmlns="http://www.w3.org/2000/svg" xmlns:xlink="http://www.w3.org/1999/xlink" version="1.1" viewBox="-10 0 1010 1000">
  <g transform="matrix(1 0 0 -1 0 800)">
   <path fill="currentColor"
d="M710.625 695.344c9.41016 -0.183594 13.6123 -0.542969 18.4375 -1.5791c3.4375 -0.737305 8.78125 -2.18262 11.875 -3.21191c3.09375 -1.02832 8.55957 -3.26855 12.1465 -4.97754c3.58594 -1.70996 8.36719 -4.26855 10.625 -5.68848
c2.25684 -1.41895 5.79102 -3.87207 7.85352 -5.4502s5.81543 -4.83008 8.34082 -7.22559c2.52441 -2.39746 6.35449 -6.47656 8.51074 -9.06543c2.15527 -2.58887 5.38867 -6.95801 7.18555 -9.70801s4.63672 -7.8125 6.31152 -11.25s4.02051 -9.20312 5.21191 -12.8125
c1.19238 -3.60938 2.59863 -8.68359 3.125 -11.2754c0.527344 -2.5918 1.24805 -7.23242 1.59961 -10.3125c0.353516 -3.08008 0.644531 -8.18652 0.647461 -11.3486c0.00195312 -3.16211 -0.416992 -8.9668 -0.932617 -12.8994
c-0.515625 -3.93359 -1.64453 -9.875 -2.50977 -13.2031c-0.864258 -3.3291 -2.41309 -8.23047 -3.43945 -10.8926c-1.02637 -2.66309 -3.08203 -7.22363 -4.56836 -10.1367c-1.48633 -2.91211 -4.28711 -7.67383 -6.22363 -10.582s-5.76758 -7.8623 -8.5127 -11.0088
c-2.74512 -3.14746 -7.32715 -7.68066 -10.1807 -10.0742c-2.85449 -2.39453 -7.2998 -5.75195 -9.87793 -7.46289s-6.51562 -4.12305 -8.75 -5.36035c-2.23438 -1.23633 -6.93945 -3.38867 -10.4561 -4.78223s-9.10254 -3.2373 -12.4131 -4.09766
c-3.31055 -0.859375 -9.23633 -1.98535 -13.1699 -2.50098c-3.93262 -0.515625 -9.7373 -0.93457 -12.8994 -0.932617c-3.16211 0.00292969 -8.26855 0.293945 -11.3486 0.647461c-3.08008 0.351562 -7.7207 1.07227 -10.3125 1.59961
c-2.5918 0.526367 -7.66602 1.92676 -11.2754 3.11035s-9.9375 3.84277 -14.0625 5.90918c-4.125 2.06543 -10.0312 5.56445 -13.125 7.77539c-3.09375 2.20996 -8.16602 6.38672 -11.2695 9.28125c-3.10547 2.89453 -7.21875 7.19727 -9.14258 9.56152
c-1.92188 2.36328 -4.81836 6.2666 -6.43555 8.67285s-4.59766 7.75 -6.62402 11.875c-2.02734 4.125 -4.53516 10.126 -5.57422 13.335c-1.04004 3.20898 -2.5127 8.69336 -3.27441 12.1875c-1.19629 5.4834 -1.38574 8.23242 -1.38574 20.1025
c0 11.9551 0.185547 14.6064 1.41992 20.3125c0.780273 3.60938 2.40234 9.51562 3.60352 13.125s3.56348 9.375 5.24902 12.8125c1.68652 3.4375 4.87012 8.89551 7.07617 12.1289c2.20508 3.2334 5.94238 8.0166 8.30273 10.6309
c2.36133 2.6123 6.41211 6.66504 9.00195 9.00488c2.58887 2.33887 6.95117 5.80078 9.69238 7.69141c2.74219 1.8916 7.23535 4.65625 9.98535 6.14453c2.75 1.4873 7.5459 3.71094 10.6572 4.94043c3.11133 1.22852 8.3584 2.9541 11.6611 3.83301
s8.49121 2.00195 11.5303 2.49707c3.91699 0.635742 9.07617 0.828125 17.7139 0.660156zM708.168 612.437c-1.57031 -0.0361328 -3.69922 -0.268555 -4.73047 -0.517578c-1.03125 -0.25 -3 -0.986328 -4.375 -1.63672
c-1.375 -0.651367 -3.77441 -2.45703 -5.33203 -4.01367c-1.55762 -1.55762 -3.46973 -4.19141 -4.24805 -5.85352s-1.57812 -4.77246 -1.77734 -6.91211c-0.249023 -2.66309 -0.0507812 -4.96289 0.628906 -7.30176c0.544922 -1.87695 1.89062 -4.76953 2.98926 -6.42773
c1.09766 -1.6582 3.42969 -3.96387 5.18066 -5.12207c1.75098 -1.15918 4.97949 -2.56543 7.17578 -3.125c2.61523 -0.666992 4.98633 -0.874023 6.875 -0.601562c1.58496 0.228516 4.42969 1.11328 6.32031 1.96582s4.52539 2.58984 5.85547 3.86035
c1.3291 1.27148 3.2041 3.95117 4.16699 5.9541c0.961914 2.00293 1.93555 5.00098 2.16406 6.66113c0.274414 1.99609 0.0722656 4.36328 -0.595703 6.9834c-0.555664 2.17871 -1.95801 5.39551 -3.11719 7.14648c-1.1582 1.75098 -3.45605 4.07812 -5.10547 5.16992
c-1.64941 1.09277 -4.39844 2.40234 -6.10938 2.91016s-4.39551 0.895508 -5.96582 0.860352zM586.562 528.954c3.4375 -0.178711 8.83984 -0.981445 12.0039 -1.78418s8.11914 -2.56738 11.0117 -3.92285c2.8916 -1.35547 7.05273 -3.6709 9.24609 -5.14551
c2.19336 -1.47363 6.13672 -4.84375 8.76172 -7.4873c4.00977 -4.03711 10.1836 -12.918 38.5986 -55.5234l33.8271 -50.7158l46.4004 -0.00488281c26.1504 -0.00292969 48.7188 -0.272461 51.7129 -0.616211c2.92188 -0.335938 6.97168 -1.04492 8.99902 -1.57422
s5.82422 -1.81641 8.4375 -2.85938c2.61328 -1.04395 6.86035 -3.19824 9.43848 -4.78711c2.83105 -1.74609 7.16309 -5.38867 10.9375 -9.19727c4.21875 -4.25684 7.18848 -7.92578 9.13867 -11.29c1.58887 -2.74121 3.62109 -6.84375 4.5166 -9.11621
c0.895508 -2.27441 2.06152 -5.79004 2.59082 -7.8125c0.529297 -2.02441 1.26172 -6.34375 1.62695 -9.59961c0.480469 -4.28223 0.467773 -7.60449 -0.0429688 -12.0059c-0.389648 -3.34668 -1.27539 -8.13574 -1.96973 -10.6416
c-0.694336 -2.50684 -2.33105 -6.84082 -3.63867 -9.63184c-1.30664 -2.79102 -3.51758 -6.75488 -4.91309 -8.80957c-1.39453 -2.05469 -4.03125 -5.37598 -5.85938 -7.38086c-1.82812 -2.00586 -5.52148 -5.2793 -8.20801 -7.27441s-7.18652 -4.75195 -10 -6.12695
s-7.64746 -3.27734 -10.7412 -4.22852l-5.625 -1.72852l-70.625 -0.196289c-51.8428 -0.143555 -71.8721 -0.000976562 -75.3125 0.537109c-2.57812 0.404297 -6.51562 1.29102 -8.75 1.97168c-2.23438 0.681641 -6.28125 2.34082 -8.99414 3.68848
c-2.71191 1.34668 -6.64941 3.67676 -8.75 5.17676c-2.09961 1.5 -5.75488 4.66016 -8.12109 7.02344c-3.36133 3.35547 -9.62891 12.2754 -28.6016 40.7031c-13.3643 20.0234 -24.4375 36.4062 -24.6084 36.4062s-22.8428 -18.0303 -50.3828 -40.0664l-50.0742 -40.0674
l40.0195 -40.0889c34.1943 -34.2568 40.5361 -40.8906 43.5791 -45.5977c1.95996 -3.02832 4.48633 -7.80957 5.61719 -10.625c1.12988 -2.81445 2.57715 -7.36719 3.2168 -10.1172c1.10547 -4.75488 1.16211 -9.51953 1.16211 -97.1875v-92.1875l-1.36719 -5.12109
c-0.751953 -2.81738 -2.05371 -6.81934 -2.89062 -8.89355c-0.838867 -2.0752 -2.69434 -5.81738 -4.12402 -8.31641s-4.20801 -6.43555 -6.1709 -8.74805c-1.96484 -2.31348 -5.25977 -5.6416 -7.32227 -7.39746c-2.0625 -1.75488 -5.85938 -4.43848 -8.4375 -5.96289
s-6.79688 -3.58496 -9.375 -4.5791c-2.57812 -0.995117 -6.9375 -2.2959 -9.6875 -2.8916c-3.24414 -0.702148 -7.74414 -1.08203 -12.8125 -1.08203c-5.06055 0 -9.56152 0.379883 -12.7783 1.07812c-2.73047 0.591797 -7.50586 2.09375 -10.6104 3.33691
c-3.10547 1.24316 -8.0791 3.8877 -11.0537 5.87695s-7.4043 5.61328 -9.84277 8.05176c-2.43945 2.43945 -5.67383 6.31152 -7.18848 8.60449s-3.53027 5.71582 -4.48047 7.60645c-0.949219 1.89062 -2.39746 5.40625 -3.21875 7.8125s-1.90527 6.73145 -2.40918 9.61328
c-0.771484 4.40332 -0.917969 16.8428 -0.917969 78.1172v72.8779l-55.5674 55.6338c-48.0703 48.127 -56.043 56.3682 -59.0918 61.085c-1.9375 2.99902 -4.37109 7.49902 -5.40918 10c-1.03711 2.50195 -2.48926 6.93848 -3.22754 9.86035
c-1.06738 4.22266 -1.3418 7.1709 -1.3418 14.375s0.274414 10.1523 1.3418 14.375c0.738281 2.92188 2.19043 7.3584 3.22754 9.86035c1.03809 2.50098 3.40918 6.88477 5.27051 9.74121c1.8623 2.85547 5.03906 6.92188 7.06055 9.03613
c2.02148 2.11328 52.0029 42.4795 111.07 89.7031c59.0674 47.2227 109.208 86.8662 111.425 88.0986c2.21582 1.23145 5.82715 2.95898 8.02539 3.83789c2.19727 0.879883 5.74902 2.04785 7.8916 2.59668c2.1416 0.548828 5.75 1.23047 8.0166 1.51465
s6.93359 0.369141 10.3711 0.19043zM206.875 237.39c4.98438 0.0546875 12.2969 -0.176758 16.25 -0.513672c3.95312 -0.337891 10.1406 -1.05957 13.75 -1.60449c3.60938 -0.543945 10.0771 -1.82129 14.374 -2.83887c4.29492 -1.0166 10.5234 -2.68652 13.8398 -3.70996
c3.31543 -1.02344 9.50391 -3.28613 13.751 -5.0293c4.24805 -1.74316 11.3623 -5.04004 15.8115 -7.32617s11.7617 -6.57324 16.25 -9.52539s10.9736 -7.61621 14.4111 -10.3652c3.4375 -2.74805 8.75781 -7.36914 11.8223 -10.2686
c3.06445 -2.89844 7.94043 -7.92578 10.835 -11.1709c2.89355 -3.24609 7.59375 -9.01172 10.4434 -12.8125c2.84961 -3.80176 7.03223 -9.91113 9.29297 -13.5781c2.26172 -3.66602 5.92773 -10.2754 8.14746 -14.6875c2.21973 -4.41113 5.15234 -10.834 6.51758 -14.2715
s3.33984 -8.93457 4.38672 -12.2158c1.04883 -3.28223 2.61328 -8.7666 3.47754 -12.1875c0.864258 -3.42188 2.13477 -9.47754 2.82324 -13.458c0.6875 -3.97949 1.58496 -11.0107 1.99414 -15.625c0.46582 -5.25586 0.605469 -13.4062 0.374023 -21.8262
c-0.203125 -7.39062 -0.793945 -16.2959 -1.3125 -19.7881c-0.518555 -3.49316 -1.51855 -9.1748 -2.22168 -12.626s-2.24805 -9.64258 -3.43262 -13.7578s-3.1748 -10.2461 -4.42383 -13.624s-4.44629 -10.6416 -7.10742 -16.1416
c-2.66016 -5.5 -6.74902 -13.0938 -9.08594 -16.875c-2.33594 -3.78125 -6.58008 -9.98535 -9.42969 -13.7871c-2.84961 -3.80078 -7.5498 -9.56641 -10.4434 -12.8125c-2.89453 -3.24512 -7.77051 -8.27246 -10.835 -11.1709
c-3.06445 -2.89941 -8.38477 -7.52051 -11.8223 -10.2686c-3.4375 -2.74902 -9.92285 -7.41309 -14.4111 -10.3652s-11.8535 -7.26855 -16.3662 -9.5918c-4.51367 -2.32227 -11.9502 -5.72461 -16.5264 -7.56055c-4.57715 -1.83496 -10.7549 -4.0791 -13.7295 -4.98633
c-2.97363 -0.90625 -8.87988 -2.46875 -13.125 -3.47168c-4.24414 -1.00391 -10.5293 -2.25977 -13.9668 -2.79102s-10.1875 -1.29395 -15 -1.69531c-5.1709 -0.430664 -13.2236 -0.576172 -19.6875 -0.355469c-6.01562 0.206055 -15.0156 0.961914 -20 1.67969
s-12.0156 1.98242 -15.625 2.81055s-9.45898 2.36719 -12.999 3.41895c-3.53906 1.05273 -10.0039 3.32812 -14.3662 5.05566c-4.36133 1.72754 -12.167 5.3252 -17.3467 7.99316c-5.17871 2.66797 -12.6973 7.01758 -16.7061 9.66504s-10.1816 7.09375 -13.7168 9.88184
s-10.9404 9.60547 -16.4561 15.1484c-6.60449 6.63672 -12.167 12.959 -16.292 18.5156c-3.44434 4.64062 -7.74316 10.7773 -9.55176 13.6367c-1.80957 2.85938 -4.94043 8.34375 -6.95898 12.1875c-2.0166 3.84375 -5.05371 10.2227 -6.74609 14.1758
c-1.69336 3.95312 -4.10547 10.3682 -5.36035 14.2559c-1.25391 3.8877 -2.96973 9.79395 -3.81152 13.125s-1.95312 8.30664 -2.46875 11.0566s-1.39746 8.65625 -1.95996 13.125c-0.666992 5.29395 -1.02051 12.8086 -1.01562 21.5625
c0.00292969 7.39062 0.321289 16.1094 0.705078 19.375c0.382812 3.26562 1.13574 8.60938 1.6709 11.875s1.9209 9.73438 3.07715 14.375c1.1582 4.64062 3.23047 11.6953 4.60742 15.6758c1.37598 3.98145 3.62012 9.77832 4.98633 12.8838
c1.36621 3.10449 3.66895 8.00391 5.11816 10.8857c1.44824 2.88379 4.32617 8.05469 6.39551 11.4922s5.66504 8.92188 7.99219 12.1875s6.46973 8.60938 9.20703 11.875c2.73633 3.26562 8.4541 9.33105 12.7051 13.4785c4.25 4.14746 10.6211 9.83984 14.1562 12.6475
c3.53516 2.80859 9.58203 7.18945 13.4375 9.7334s10.5254 6.49609 14.8223 8.78027c4.29688 2.28516 11.3281 5.6582 15.625 7.49512c4.29688 1.83789 10.625 4.24121 14.0625 5.33984c3.4375 1.09961 9.48438 2.79883 13.4375 3.77832
c3.95312 0.978516 9.57812 2.20605 12.5 2.72559c2.92188 0.520508 7.98438 1.24707 11.25 1.61426c3.26562 0.366211 7.0625 0.758789 8.4375 0.870117s6.57812 0.24707 11.5625 0.301758zM795 237.167c7.39062 -0.123047 16.6133 -0.655273 20.4961 -1.18359
c3.88281 -0.527344 10.4922 -1.66797 14.6875 -2.5332c4.19531 -0.864258 11.3281 -2.68945 15.8496 -4.05469s11.1309 -3.63574 14.6875 -5.0459c3.55664 -1.40918 9.81445 -4.24023 13.9072 -6.29004c4.09277 -2.04883 9.99902 -5.23438 13.125 -7.0791
c3.12598 -1.84375 8.6377 -5.45898 12.2471 -8.0332s9.23438 -6.92383 12.5 -9.66699c3.26562 -2.74219 9.62109 -8.7832 14.124 -13.4229c4.50195 -4.63965 10.9893 -12.2012 14.417 -16.8027c3.42676 -4.60254 7.70996 -10.707 9.51855 -13.5664
c1.80957 -2.85938 4.94043 -8.34375 6.95898 -12.1875c2.0166 -3.84375 5.05371 -10.2227 6.74609 -14.1758c1.69336 -3.95312 4.10547 -10.3682 5.36035 -14.2559c1.25391 -3.8877 2.96973 -9.79395 3.81152 -13.125s1.95312 -8.30664 2.46875 -11.0566
s1.39746 -8.65625 1.95996 -13.125c0.663086 -5.26855 1.02246 -12.8496 1.02246 -21.5625s-0.359375 -16.2939 -1.02246 -21.5625c-0.5625 -4.46875 -1.44434 -10.375 -1.95996 -13.125s-1.62695 -7.72559 -2.46875 -11.0566s-2.55762 -9.2373 -3.81152 -13.125
c-1.25488 -3.8877 -3.66699 -10.3027 -5.36035 -14.2559c-1.69238 -3.95312 -4.72949 -10.332 -6.74609 -14.1758c-2.01855 -3.84375 -5.14941 -9.32812 -6.95898 -12.1875c-1.80859 -2.85938 -6.0918 -8.96387 -9.51855 -13.5664
c-3.42773 -4.60156 -9.91504 -12.1631 -14.417 -16.8027c-4.50293 -4.63965 -10.8584 -10.6777 -14.124 -13.417s-8.60938 -6.8916 -11.875 -9.22754s-8.51465 -5.81152 -11.6641 -7.72461c-3.14941 -1.91406 -9.61816 -5.42285 -14.375 -7.79883
c-4.75684 -2.375 -12.0234 -5.59375 -16.1484 -7.15137s-10.4531 -3.68848 -14.0625 -4.7334c-3.60938 -1.0459 -9.09375 -2.46191 -12.1875 -3.14844c-3.09375 -0.685547 -9.70312 -1.87109 -14.6875 -2.63574c-7.5752 -1.16113 -11.7295 -1.39258 -25.3125 -1.41113
c-12.2441 -0.015625 -18.1758 0.25 -24.0625 1.08008c-4.29688 0.606445 -11.1758 1.81055 -15.2881 2.67773c-4.1123 0.866211 -10.7217 2.55859 -14.6875 3.75977c-3.96582 1.20215 -9.88379 3.18164 -13.1494 4.39844
c-3.26562 1.21777 -9.59375 3.95508 -14.0625 6.08301s-10.6562 5.36133 -13.75 7.18359c-3.09375 1.82324 -8.29688 5.15625 -11.5625 7.40625s-8.5791 6.21094 -11.8086 8.80273c-3.22852 2.5918 -8.26758 6.97656 -11.1973 9.74414
c-2.92871 2.76758 -7.69434 7.6875 -10.5889 10.9326c-2.89355 3.24609 -7.59375 9.01172 -10.4434 12.8125c-2.84961 3.80176 -7.02148 9.89551 -9.27148 13.542c-2.24902 3.64746 -5.77344 9.97559 -7.83203 14.0625c-2.05859 4.08789 -4.87891 10.1699 -6.26562 13.5146
c-1.3877 3.3457 -3.50098 9.11133 -4.69629 12.8125c-1.19629 3.70215 -2.88379 9.54297 -3.75195 12.9805c-0.866211 3.4375 -2.13965 9.50586 -2.82812 13.4863c-0.6875 3.97949 -1.58496 11.0107 -1.99414 15.625c-0.46582 5.25586 -0.605469 13.4062 -0.374023 21.8262
c0.203125 7.39062 0.793945 16.2959 1.3125 19.7881c0.518555 3.49316 1.51855 9.1748 2.22168 12.626s2.24805 9.64258 3.43262 13.7578s3.18262 10.2461 4.44141 13.624s3.30957 8.3916 4.55566 11.1416c1.24707 2.75 4.04395 8.34668 6.21582 12.4385
c2.17285 4.09082 5.93164 10.4189 8.35449 14.0625c2.42285 3.64258 6.69434 9.57227 9.49219 13.1748c2.79883 3.60449 9.16602 10.6533 14.1504 15.665c4.98438 5.0127 11.8711 11.3457 15.3047 14.0732c3.43262 2.72949 10.042 7.49316 14.6875 10.5889
c4.64453 3.09473 12.1016 7.50098 16.5703 9.79004s10.6299 5.19531 13.6914 6.45898c3.06152 1.2627 8.26465 3.2334 11.5625 4.37988s9.23047 2.93652 13.1836 3.97754s10.1406 2.44238 13.75 3.11426s9.51562 1.53418 13.125 1.91602
c3.60938 0.380859 7.54688 0.804688 8.75 0.941406c1.20312 0.135742 8.23438 0.146484 15.625 0.0234375zM210.312 112.213c-5.46094 0.176758 -9.65918 -0.0292969 -12.8018 -0.62793c-2.57227 -0.489258 -6.50977 -1.50488 -8.75 -2.25684
c-2.24023 -0.750977 -6.18164 -2.42383 -8.75977 -3.71582c-2.57812 -1.29297 -6.375 -3.59668 -8.4375 -5.11914s-5.63672 -4.68555 -7.94336 -7.0293c-2.30566 -2.34277 -5.49023 -6.19336 -7.07422 -8.55469s-3.83008 -6.34961 -4.99219 -8.8623
c-1.16016 -2.5127 -2.67383 -6.59961 -3.36133 -9.08398c-0.688477 -2.48242 -1.57715 -7.31641 -1.97461 -10.7393c-0.547852 -4.71387 -0.547852 -7.7334 0 -12.4473c0.397461 -3.42285 1.28516 -8.27539 1.97168 -10.7812
c0.686523 -2.50684 2.47461 -7.08887 3.97363 -10.1826c1.5 -3.09375 4.14844 -7.49902 5.88672 -9.78906s4.64551 -5.6377 6.46191 -7.43945c1.81543 -1.80176 4.98926 -4.5293 7.05176 -6.06055c2.0625 -1.53223 5.85938 -3.8457 8.4375 -5.14258
s6.94434 -3.06934 9.70215 -3.93945c2.75879 -0.869141 7.38086 -1.92773 10.2725 -2.35059c3.22363 -0.47168 7.81152 -0.621094 11.8604 -0.386719c3.63086 0.210938 8.76172 0.9375 11.3994 1.61426c2.63867 0.677734 6.9834 2.1416 9.65332 3.25391
c2.67188 1.11133 7.27734 3.64062 10.2354 5.61914s7.47363 5.79688 10.0352 8.48438s5.73633 6.52051 7.05664 8.5166c1.32031 1.99707 3.47949 5.93457 4.79883 8.75c1.31836 2.81641 3.05078 7.51074 3.84863 10.4326c1.24414 4.55664 1.4502 6.78027 1.4502 15.625
s-0.206055 11.0684 -1.4502 15.625c-0.797852 2.92188 -2.53027 7.61621 -3.84863 10.4326c-1.31934 2.81543 -3.47852 6.75293 -4.79883 8.75c-1.32031 1.99609 -4.49512 5.8291 -7.05664 8.5166s-7.07715 6.50586 -10.0352 8.48438s-7.56348 4.50781 -10.2354 5.61914
c-2.66992 1.1123 -7.01465 2.58496 -9.65332 3.27246c-3.15234 0.821289 -7.58301 1.33984 -12.9229 1.5127zM791.324 112.424c-2.96191 -0.0419922 -7.07422 -0.319336 -9.13672 -0.617188c-2.0625 -0.296875 -5.71875 -1.13574 -8.125 -1.86328
c-2.40625 -0.728516 -6.17188 -2.13867 -8.36816 -3.13379s-6.28906 -3.33789 -9.09473 -5.2041c-2.80664 -1.86816 -7.19727 -5.59375 -9.75879 -8.28125c-2.56055 -2.6875 -5.73535 -6.52051 -7.05566 -8.5166c-1.32031 -1.99707 -3.50879 -5.99512 -4.86328 -8.88574
c-1.35449 -2.88965 -3.06641 -7.44336 -3.80469 -10.1191c-1.12012 -4.05371 -1.35059 -6.63672 -1.38672 -15.4902c-0.0371094 -9.25586 0.143555 -11.3096 1.40723 -15.9375c0.797852 -2.92188 2.53027 -7.61621 3.84863 -10.4326
c1.31934 -2.81543 3.47852 -6.75293 4.79883 -8.75c1.32031 -1.99609 4.50781 -5.8418 7.08398 -8.5459c2.625 -2.75488 7.11523 -6.51758 10.2148 -8.55859c3.04199 -2.00488 7.63574 -4.52051 10.208 -5.59082c2.57129 -1.07129 6.83496 -2.50098 9.47363 -3.17871
c2.6377 -0.676758 7.76855 -1.40332 11.3994 -1.61426c4.04883 -0.234375 8.63672 -0.0849609 11.8604 0.386719c2.8916 0.422852 7.51367 1.48145 10.2725 2.35059c2.75781 0.870117 7.12402 2.64258 9.70215 3.93945s6.43848 3.64746 8.57715 5.22461
s5.56836 4.58789 7.62012 6.69238c2.05176 2.10254 5.1748 5.91211 6.93945 8.46484c1.76367 2.55273 4.15625 6.69238 5.31348 9.2002c1.15918 2.50684 2.6709 6.58984 3.3584 9.07422c0.688477 2.48242 1.57715 7.31641 1.97461 10.7393
c0.547852 4.71387 0.547852 7.7334 0 12.4473c-0.397461 3.42285 -1.28516 8.27539 -1.97168 10.7812c-0.686523 2.50684 -2.47461 7.08887 -3.97363 10.1826c-1.5 3.09375 -4.1543 7.50684 -5.90039 9.80762s-4.63672 5.64453 -6.42383 7.43164
s-4.9541 4.50586 -7.03711 6.04102c-2.08398 1.53613 -5.75781 3.78613 -8.16406 5.00098s-6.34375 2.88086 -8.75 3.70215c-2.40625 0.822266 -6.73145 1.90723 -9.61328 2.41113c-2.88086 0.505859 -7.66211 0.883789 -10.625 0.841797v0z" />
  </g>

</svg>
