<?xml version="1.0" standalone="no"?>
<!DOCTYPE svg PUBLIC "-//W3C//DTD SVG 1.1//EN" "http://www.w3.org/Graphics/SVG/1.1/DTD/svg11.dtd" >
<svg xmlns="http://www.w3.org/2000/svg" xmlns:xlink="http://www.w3.org/1999/xlink" version="1.1" viewBox="-10 0 1010 1000">
  <g transform="matrix(1 0 0 -1 0 800)">
   <path fill="currentColor"
d="M314.375 737.224c5.66602 -0.179688 9.47949 -0.679688 13.8799 -1.81836c3.33691 -0.863281 8.53223 -2.77441 11.5449 -4.24609c3.01172 -1.4707 7.63477 -4.30273 10.2744 -6.29004c2.6377 -1.98828 6.28027 -5.23242 8.09375 -7.21094
c1.81348 -1.97754 4.80859 -5.90918 6.65625 -8.73535c1.84668 -2.82715 4.20605 -7.18652 5.24219 -9.6875c1.03711 -2.50195 2.48438 -6.79785 3.21777 -9.54785c1.27246 -4.77539 1.34277 -6.62207 1.55664 -41.0938l0.224609 -36.0938h62.4346h62.4346l0.224609 36.0938
c0.213867 34.4717 0.28418 36.3184 1.55664 41.0938c0.733398 2.75 2.18066 7.0459 3.21777 9.54785c1.03613 2.50098 3.47852 7.00098 5.42871 10c1.94922 2.99805 5.68848 7.56348 8.30957 10.1436c2.62109 2.58105 6.33789 5.73047 8.25977 6.99902
s5.4375 3.28027 7.8125 4.46973c2.375 1.19141 6.05859 2.74902 8.18457 3.46387s6.48535 1.75684 9.6875 2.31738c4.16113 0.726562 7.78223 0.918945 12.6963 0.670898c4.23535 -0.211914 9.2041 -0.944336 12.9424 -1.90527
c3.33691 -0.857422 8.53223 -2.76367 11.5449 -4.23535c3.01172 -1.4707 7.63477 -4.30273 10.2744 -6.29004c2.6377 -1.98828 6.28027 -5.23242 8.09375 -7.21094c1.81348 -1.97754 4.80859 -5.90918 6.65625 -8.73535c1.84668 -2.82715 4.20605 -7.18652 5.24219 -9.6875
c1.03711 -2.50195 2.48535 -6.79785 3.21875 -9.54785c1.27637 -4.78418 1.34277 -6.59277 1.55566 -41.917l0.222656 -36.916l10.4219 -1.71777c5.73242 -0.945312 14.6484 -2.79785 19.8125 -4.11816c5.16406 -1.31934 12.6182 -3.44629 16.5645 -4.72461
s10.9775 -3.85938 15.625 -5.73535s12.04 -5.21094 16.4277 -7.41016c4.3877 -2.2002 10.2939 -5.32227 13.125 -6.9375c2.83105 -1.61621 8.10059 -4.89746 11.71 -7.29199s9.23828 -6.40039 12.5078 -8.90234c3.27051 -2.50195 9.08496 -7.37305 12.9219 -10.8262
s9.66504 -9.25684 12.9531 -12.8975c3.28711 -3.64062 8.33203 -9.7666 11.2109 -13.6123c2.87891 -3.84668 6.63672 -9.24316 8.35059 -11.9932c1.71484 -2.75 4.69238 -7.95312 6.61914 -11.5625c1.92578 -3.60938 5.03418 -10.3818 6.90625 -15.0498
c1.87305 -4.66895 4.39844 -11.9814 5.61328 -16.25c1.21484 -4.26953 2.66602 -10.0098 3.22461 -12.7568c0.557617 -2.74609 1.4209 -7.80859 1.91504 -11.25c0.495117 -3.44043 1.0791 -11.0371 1.29688 -16.8809
c0.240234 -6.39648 0.108398 -14.0586 -0.330078 -19.2529c-0.400391 -4.74609 -1.25488 -11.6367 -1.89844 -15.3125c-0.643555 -3.67676 -1.77148 -9.0752 -2.50684 -11.9971s-2.33887 -8.39258 -3.56445 -12.1562c-1.22559 -3.76465 -3.57812 -10.0303 -5.22852 -13.9258
c-1.65039 -3.89453 -4.72949 -10.207 -6.84277 -14.0264s-5.68066 -9.69727 -7.92676 -13.0615c-2.24707 -3.36426 -6.41211 -9.01953 -9.25684 -12.5674c-2.84375 -3.54785 -7.76367 -9.18848 -10.9326 -12.5352l-5.7627 -6.08496l6.59863 -7.04004
c3.62891 -3.87207 8.83301 -9.91504 11.5645 -13.4287c2.73145 -3.51465 6.55957 -8.80859 8.50684 -11.7656c1.94727 -2.95801 5.37695 -8.72656 7.62012 -12.8203c2.24512 -4.09473 5.70215 -11.457 7.68457 -16.3594c1.98242 -4.9043 4.60352 -12.4316 5.82617 -16.7285
s2.67871 -10.0596 3.2373 -12.8066c0.557617 -2.74609 1.4209 -7.80859 1.91504 -11.25c0.495117 -3.44043 1.0791 -11.0371 1.29688 -16.8809c0.240234 -6.39648 0.108398 -14.0586 -0.330078 -19.2529c-0.400391 -4.74609 -1.25488 -11.6367 -1.89941 -15.3125
c-0.644531 -3.67676 -1.90527 -9.5625 -2.80176 -13.0781c-0.895508 -3.5166 -2.49219 -8.97168 -3.54785 -12.123s-3.27637 -8.93066 -4.93457 -12.8438c-1.65918 -3.91406 -4.74414 -10.2412 -6.85742 -14.0605s-5.66699 -9.67676 -7.89746 -13.0166
s-6.11816 -8.65625 -8.64062 -11.8154c-2.52148 -3.15723 -6.79199 -8.16602 -9.48828 -11.1289c-2.69727 -2.96289 -8.00098 -8.17383 -11.7861 -11.5801s-9.55762 -8.24023 -12.8281 -10.7422c-3.26953 -2.50195 -8.89844 -6.50781 -12.5078 -8.90234
s-8.8125 -5.63574 -11.5625 -7.2041c-2.75 -1.56738 -8.375 -4.54492 -12.5 -6.61523s-10.9307 -5.20508 -15.124 -6.96484c-4.19238 -1.75977 -11.3916 -4.45898 -15.9971 -5.99707c-4.60547 -1.54004 -12.7129 -3.90527 -18.0156 -5.25879
c-5.30371 -1.35254 -14.333 -3.23242 -20.0654 -4.17773l-10.4219 -1.71777l-0.222656 -36.916c-0.212891 -35.3232 -0.279297 -37.1318 -1.55566 -41.917c-0.733398 -2.75 -2.18164 -7.0459 -3.21875 -9.54785c-1.03613 -2.50098 -3.39551 -6.86035 -5.24219 -9.6875
c-1.84766 -2.82617 -4.84277 -6.75781 -6.65625 -8.73535c-1.81348 -1.97852 -5.45605 -5.22266 -8.09375 -7.21094c-2.63965 -1.9873 -7.2627 -4.81934 -10.2744 -6.29004c-3.0127 -1.47168 -8.20801 -3.37793 -11.5449 -4.23535
c-3.73828 -0.960938 -8.70703 -1.69336 -12.9424 -1.90527c-4.91406 -0.248047 -8.53516 -0.0556641 -12.6963 0.670898c-3.20215 0.560547 -7.56152 1.60254 -9.6875 2.31738s-5.80957 2.27246 -8.18457 3.46387c-2.375 1.18945 -5.89062 3.20117 -7.8125 4.46973
s-5.63867 4.41797 -8.25977 6.99902c-2.62109 2.58008 -6.36035 7.14551 -8.30957 10.1445c-1.9502 2.99902 -4.39258 7.49902 -5.42871 10c-1.03711 2.50195 -2.48438 6.79785 -3.21777 9.54785c-1.27246 4.77539 -1.34277 6.62207 -1.55664 41.0938l-0.224609 36.0938
h-62.4346h-62.4346l-0.224609 -36.0938c-0.213867 -34.4717 -0.28418 -36.3184 -1.55664 -41.0938c-0.733398 -2.75 -2.18066 -7.0459 -3.21777 -9.54785c-1.03613 -2.50098 -3.39551 -6.86035 -5.24219 -9.6875c-1.84766 -2.82617 -4.84277 -6.75781 -6.65625 -8.73535
c-1.81348 -1.97852 -5.45605 -5.22266 -8.09375 -7.21094c-2.63965 -1.9873 -7.2627 -4.81934 -10.2744 -6.29004c-3.0127 -1.47168 -8.20801 -3.37793 -11.5449 -4.23535c-3.73828 -0.960938 -8.70703 -1.69336 -12.9424 -1.90527
c-4.91406 -0.248047 -8.53516 -0.0556641 -12.6963 0.670898c-3.20215 0.560547 -7.56152 1.60254 -9.6875 2.31738s-5.80957 2.27246 -8.18457 3.46387c-2.375 1.18945 -5.89062 3.20117 -7.8125 4.46973s-5.63867 4.41797 -8.25977 6.99902
c-2.62109 2.58008 -6.36035 7.14551 -8.30957 10.1436c-1.9502 2.99902 -4.39258 7.49902 -5.42871 10c-1.03711 2.50195 -2.48438 6.79785 -3.21777 9.54785c-1.27246 4.77539 -1.34277 6.62207 -1.55664 41.0938l-0.224609 36.0938h-33.6348
c-27.3096 0 -34.6621 0.178711 -39.0908 0.951172c-3 0.523438 -7.18555 1.5332 -9.30078 2.24414s-5.78906 2.26562 -8.16406 3.45703c-2.375 1.18945 -5.89062 3.20117 -7.8125 4.46973s-5.63867 4.41797 -8.25977 6.99902
c-2.62109 2.58008 -6.36035 7.14551 -8.30957 10.1436c-1.9502 2.99902 -4.39258 7.49902 -5.43066 10c-1.03711 2.50195 -2.48926 6.93848 -3.22754 9.86035c-1.06738 4.22266 -1.3418 7.1709 -1.3418 14.375s0.274414 10.1523 1.3418 14.375
c0.738281 2.92188 2.19043 7.3584 3.22754 9.86035c1.03809 2.50098 3.48047 7.00098 5.43066 10c1.94922 2.99805 5.68848 7.56348 8.30957 10.1436c2.62109 2.58105 6.44922 5.80469 8.50586 7.16211c2.05762 1.35938 5.57324 3.37109 7.8125 4.47168
c2.24023 1.10059 5.80273 2.58301 7.91797 3.29395c2.11523 0.709961 6.30078 1.71875 9.30078 2.24219c4.42871 0.772461 11.7852 0.951172 39.123 0.951172h33.668v187.5v187.5h-33.668c-27.3379 0 -34.6943 0.178711 -39.123 0.951172
c-3 0.523438 -7.18555 1.53223 -9.30078 2.24219c-2.11523 0.710938 -5.67773 2.19336 -7.91797 3.29395c-2.23926 1.10059 -5.75488 3.1123 -7.8125 4.47168c-2.05664 1.35742 -5.88477 4.58105 -8.50586 7.16211c-2.62109 2.58008 -6.36035 7.14551 -8.30957 10.1436
c-1.9502 2.99902 -4.39258 7.49902 -5.43066 10c-1.03711 2.50195 -2.48926 6.93848 -3.22754 9.86035c-1.06738 4.22266 -1.3418 7.1709 -1.3418 14.375s0.274414 10.1523 1.3418 14.375c0.738281 2.92188 2.19043 7.3584 3.22754 9.86035
c1.03809 2.50098 3.48047 7.00098 5.43066 10c1.94922 2.99805 5.68848 7.56348 8.30957 10.1436c2.62109 2.58105 6.33789 5.73047 8.25977 6.99902s5.4375 3.28027 7.8125 4.46973c2.375 1.19141 6.04883 2.74609 8.16406 3.45703s6.30078 1.7207 9.30078 2.24414
c4.42871 0.772461 11.7812 0.951172 39.0908 0.951172h33.6348l0.224609 36.0938c0.213867 34.4717 0.28418 36.3184 1.55664 41.0938c0.733398 2.75 2.18066 7.0459 3.21777 9.54785c1.03613 2.50098 3.47852 7.00098 5.42871 10
c1.94922 2.99805 5.68848 7.56348 8.30957 10.1436c2.62109 2.58105 6.33789 5.73047 8.25977 6.99902s5.4375 3.28027 7.8125 4.46973c2.375 1.19141 6.07324 2.75488 8.21875 3.47559c2.14453 0.720703 6.08203 1.72461 8.75 2.22949
c3.25293 0.617188 7.4209 0.837891 12.6621 0.669922zM488.462 487.5h-113.462v-62.5v-62.5h113.462c76.1729 0 115.457 0.219727 119.531 0.666992c3.33789 0.367188 8.74121 1.23633 12.0068 1.93262s9.03125 2.25488 12.8125 3.46289
c3.78125 1.20898 10.0889 3.71777 14.0166 5.57715c3.92773 1.85742 9.87988 5.20117 13.2275 7.42969c3.34668 2.22852 8.36328 6.19434 11.1484 8.81445c2.82715 2.66016 6.61816 7.09961 8.58398 10.0547c2.10254 3.15918 4.26074 7.43848 5.35742 10.6201
c1.28711 3.73438 1.93945 7.04883 2.17969 11.0791c0.200195 3.3457 0.0292969 7.55859 -0.40918 10.0732c-0.414062 2.37695 -1.52539 6.31348 -2.4707 8.74609c-0.945312 2.43457 -2.80957 6.09668 -4.14355 8.14062c-1.33496 2.04297 -4.97168 6.26562 -8.08301 9.38379
c-3.13867 3.14453 -8.28906 7.41504 -11.5684 9.59082c-3.25098 2.15723 -8.6416 5.29199 -11.9805 6.9668c-3.33789 1.67578 -9.29883 4.16016 -13.2461 5.52051c-3.94727 1.36133 -10.3682 3.18262 -14.2695 4.04785s-9.82422 1.87012 -13.1621 2.2334
c-4.03027 0.4375 -44.1689 0.65918 -119.531 0.65918zM488.462 237.5h-113.462v-62.5v-62.5h113.462c76.1729 0 115.457 0.219727 119.531 0.666992c3.33789 0.367188 8.74121 1.23633 12.0068 1.93262s9.03125 2.25488 12.8125 3.46289
c3.78125 1.20898 10.0889 3.71777 14.0166 5.57715c3.92773 1.85742 9.87988 5.20117 13.2275 7.42969c3.34668 2.22852 8.36328 6.19434 11.1484 8.81445c2.82715 2.66016 6.61816 7.09961 8.58398 10.0547c2.10254 3.15918 4.26074 7.43848 5.35742 10.6201
c1.28711 3.73438 1.93945 7.04883 2.17969 11.0791c0.200195 3.3457 0.0292969 7.55859 -0.40918 10.0732c-0.414062 2.37695 -1.52539 6.31348 -2.4707 8.74609c-0.945312 2.43457 -2.80957 6.09668 -4.14355 8.14062c-1.33496 2.04297 -4.97168 6.26562 -8.08301 9.38379
c-3.13867 3.14453 -8.28906 7.41504 -11.5684 9.59082c-3.25098 2.15723 -8.6416 5.29199 -11.9805 6.9668c-3.33789 1.67578 -9.29883 4.16016 -13.2461 5.52051c-3.94727 1.36133 -10.3682 3.18262 -14.2695 4.04785s-9.82422 1.87012 -13.1621 2.2334
c-4.03027 0.4375 -44.1689 0.65918 -119.531 0.65918z" />
  </g>

</svg>
