<?xml version="1.0" standalone="no"?>
<!DOCTYPE svg PUBLIC "-//W3C//DTD SVG 1.1//EN" "http://www.w3.org/Graphics/SVG/1.1/DTD/svg11.dtd" >
<svg xmlns="http://www.w3.org/2000/svg" xmlns:xlink="http://www.w3.org/1999/xlink" version="1.1" viewBox="-10 0 1010 1000">
  <g transform="matrix(1 0 0 -1 0 800)">
   <path fill="currentColor"
d="M126.875 737.224c5.66602 -0.179688 9.47949 -0.679688 13.8799 -1.81836c3.33691 -0.863281 8.53223 -2.77441 11.5449 -4.24609c3.01172 -1.4707 7.59375 -4.28516 10.1816 -6.25195c2.76953 -2.10352 160.521 -159.447 383.204 -382.21
c339.65 -339.772 378.835 -379.17 381.778 -383.85c1.80371 -2.86719 4.11426 -7.22656 5.13477 -9.6875c1.02051 -2.45996 2.45898 -6.86328 3.19727 -9.78516c1.06738 -4.22266 1.3418 -7.1709 1.3418 -14.375s-0.274414 -10.1523 -1.3418 -14.375
c-0.738281 -2.92188 -2.19043 -7.3584 -3.22754 -9.86035c-1.03809 -2.50098 -3.39746 -6.86035 -5.24414 -9.6875c-1.84766 -2.82617 -4.84277 -6.75781 -6.65625 -8.73535c-1.81348 -1.97852 -5.45605 -5.22266 -8.09375 -7.21094
c-2.63965 -1.9873 -7.2627 -4.81934 -10.2744 -6.29004c-3.0127 -1.47168 -8.20801 -3.37793 -11.5449 -4.23535c-3.73828 -0.960938 -8.70703 -1.69336 -12.9424 -1.90527c-4.91406 -0.248047 -8.53516 -0.0556641 -12.6963 0.670898
c-3.20215 0.560547 -7.56152 1.60254 -9.6875 2.31738s-5.80957 2.27246 -8.18457 3.46387c-2.375 1.18945 -5.89062 3.18066 -7.8125 4.42383c-2.14551 1.38867 -22.4551 21.1758 -52.6133 51.2617l-49.1191 49l-107.757 -53.8223
c-98.083 -48.9912 -108.316 -53.9648 -114.006 -55.3965c-3.80859 -0.958984 -8.93555 -1.70898 -13.125 -1.91895c-4.91406 -0.248047 -8.53516 -0.0556641 -12.6963 0.670898c-3.20215 0.560547 -7.56152 1.60254 -9.6875 2.31738s-5.80957 2.27246 -8.18457 3.46387
c-2.375 1.18945 -5.89062 3.20117 -7.8125 4.46973s-5.63867 4.41797 -8.25977 6.99902c-2.62109 2.58008 -6.36035 7.14551 -8.30957 10.1436c-1.9502 2.99902 -4.39258 7.49902 -5.42871 10c-1.03711 2.50195 -2.49512 6.79785 -3.24219 9.54785l-1.35547 5
l-0.178711 116.86l-0.179688 116.859l-73.583 -73.5127c-40.4697 -40.4307 -75.3125 -74.7646 -77.4277 -76.2959s-6.27539 -3.97168 -9.24512 -5.42188c-2.96973 -1.45117 -8.12988 -3.33984 -11.4668 -4.19727c-3.73828 -0.960938 -8.70703 -1.69336 -12.9424 -1.90527
c-4.91406 -0.248047 -8.53516 -0.0556641 -12.6963 0.670898c-3.20215 0.560547 -7.56152 1.60254 -9.6875 2.31738s-5.80957 2.27246 -8.18457 3.46387c-2.375 1.18945 -5.89062 3.20117 -7.8125 4.46973s-5.63867 4.41797 -8.25977 6.99902
c-2.62109 2.58008 -6.36035 7.14551 -8.30957 10.1436c-1.9502 2.99902 -4.39258 7.49902 -5.43066 10c-1.03711 2.50195 -2.48926 6.93848 -3.22754 9.86035c-1.06738 4.22266 -1.3418 7.1709 -1.3418 14.375s0.274414 10.1523 1.3418 14.375
c0.738281 2.92188 2.17676 7.3252 3.19727 9.78516c1.02051 2.46094 3.33203 6.82031 5.1377 9.6875c2.90137 4.60645 15.5703 17.5137 108.648 110.686l105.365 105.471l-167.867 167.967c-149.516 149.604 -168.226 168.538 -171.148 173.184
c-1.80371 2.86719 -4.11523 7.22656 -5.13574 9.6875c-1.02051 2.45996 -2.45898 6.86328 -3.19727 9.78516c-1.06738 4.22266 -1.3418 7.1709 -1.3418 14.375s0.274414 10.1523 1.3418 14.375c0.738281 2.92188 2.19043 7.3584 3.22754 9.86035
c1.03809 2.50098 3.48047 7.00098 5.43066 10c1.94922 2.99805 5.68848 7.56348 8.30957 10.1436c2.62109 2.58105 6.33789 5.73047 8.25977 6.99902s5.4375 3.28027 7.8125 4.46973c2.375 1.19141 6.07324 2.75488 8.21875 3.47559
c2.14453 0.720703 6.08203 1.72461 8.75 2.22949c3.25293 0.617188 7.4209 0.837891 12.6621 0.670898zM501.875 737.224c5.62793 -0.178711 9.55957 -0.69043 14.0625 -1.83008c5.69727 -1.44141 17.7471 -7.32617 136.298 -66.5596
c107.064 -53.4941 130.938 -65.6494 135.091 -68.7793c2.77441 -2.08984 6.52832 -5.41797 8.3418 -7.39648c1.81348 -1.97754 4.80859 -5.90918 6.65625 -8.73535c1.84668 -2.82715 4.20605 -7.18652 5.24414 -9.6875c1.03711 -2.50195 2.48926 -6.93848 3.22754 -9.86035
c1.06738 -4.22266 1.3418 -7.1709 1.3418 -14.375s-0.274414 -10.1523 -1.3418 -14.375c-0.738281 -2.92188 -2.19043 -7.3584 -3.22754 -9.86035c-1.03809 -2.50098 -3.47168 -7.00098 -5.41016 -10c-3.03223 -4.68945 -10.5303 -12.4717 -53.623 -55.6523
c-27.5537 -27.6094 -52.2148 -51.8076 -54.8037 -53.7725c-2.58789 -1.96582 -7.16992 -4.77832 -10.1816 -6.24902c-3.0127 -1.47168 -8.20801 -3.37793 -11.5449 -4.23535c-3.73828 -0.960938 -8.70703 -1.69336 -12.9424 -1.90527
c-4.91406 -0.248047 -8.53516 -0.0556641 -12.6963 0.670898c-3.20215 0.560547 -7.56152 1.60254 -9.6875 2.31738s-5.80957 2.27246 -8.18457 3.46387c-2.375 1.18945 -5.89062 3.20117 -7.8125 4.46973s-5.63867 4.41797 -8.25977 6.99902
c-2.62109 2.58008 -6.36035 7.14551 -8.30957 10.1436c-1.9502 2.99902 -4.39258 7.49902 -5.43066 10c-1.03711 2.50195 -2.48926 6.93848 -3.22754 9.86035c-1.06738 4.22266 -1.3418 7.1709 -1.3418 14.375s0.274414 10.1523 1.3418 14.375
c0.738281 2.92188 2.19043 7.3584 3.22754 9.86035c1.03809 2.50098 3.47754 7.00098 5.42188 10c2.77832 4.28516 7.46387 9.40137 21.8896 23.8994l18.3545 18.4463l-40.9941 20.4932c-22.5459 11.2725 -41.0527 20.4092 -41.126 20.3037
c-0.0732422 -0.104492 -0.631836 -2.58105 -1.24219 -5.50293c-0.609375 -2.92188 -2.03613 -7.61523 -3.16992 -10.4297c-1.13379 -2.81543 -3.67188 -7.59668 -5.6416 -10.625c-1.96875 -3.0293 -5.72461 -7.62305 -8.3457 -10.208
c-2.62109 -2.58398 -6.59375 -5.90137 -8.82812 -7.36914c-2.23438 -1.46875 -6.15723 -3.67383 -8.71875 -4.89941c-2.56055 -1.22656 -7.3418 -2.91895 -10.625 -3.76367c-3.64355 -0.936523 -8.64648 -1.66992 -12.8438 -1.87988
c-4.91406 -0.248047 -8.53516 -0.0556641 -12.6963 0.670898c-3.20215 0.560547 -7.56152 1.60156 -9.6875 2.31543c-2.12598 0.714844 -5.69824 2.2002 -7.93848 3.30078c-2.23926 1.10059 -5.75488 3.1123 -7.8125 4.47168
c-2.05664 1.35742 -5.88477 4.58105 -8.50586 7.16211c-2.62109 2.58008 -6.37695 7.16992 -8.3457 10.1992c-1.96973 3.02832 -4.50391 7.80957 -5.63477 10.625c-1.12988 2.81445 -2.57715 7.36719 -3.2168 10.1172c-1.08691 4.6748 -1.16211 8.59473 -1.16211 60.3125
s0.0751953 55.6377 1.16211 60.3125c0.639648 2.75 2.08691 7.30273 3.2168 10.1172c1.13086 2.81543 3.66504 7.59668 5.63477 10.625c1.96875 3.0293 5.72461 7.61914 8.3457 10.1992c2.62109 2.58105 6.33789 5.73047 8.25977 6.99902s5.4375 3.28027 7.8125 4.46973
c2.375 1.19141 6.07324 2.75488 8.21875 3.47559c2.14453 0.720703 6.08203 1.72461 8.75 2.22949c3.25293 0.617188 7.4209 0.837891 12.6621 0.670898zM603.412 108.15l-40.9121 40.9082v-61.4053v-61.4053l40.7812 20.3818
c22.4297 11.21 40.8398 20.4336 40.9121 20.4971s-18.2793 18.5225 -40.7812 41.0234z" />
  </g>

</svg>
