<?xml version="1.0" standalone="no"?>
<!DOCTYPE svg PUBLIC "-//W3C//DTD SVG 1.1//EN" "http://www.w3.org/Graphics/SVG/1.1/DTD/svg11.dtd" >
<svg xmlns="http://www.w3.org/2000/svg" xmlns:xlink="http://www.w3.org/1999/xlink" version="1.1" viewBox="-10 0 1010 1000">
  <g transform="matrix(1 0 0 -1 0 800)">
   <path fill="currentColor"
d="M523.75 737.228l144.062 -0.0839844l5.3125 -1.32812c2.92188 -0.730469 7.66016 -2.1875 10.5312 -3.23828c2.86914 -1.0498 7.31738 -3.04297 9.88574 -4.42773c2.56934 -1.38574 6.73047 -4.07031 9.25 -5.96582c2.51855 -1.89648 6.95996 -5.94824 9.86816 -9.00488
c2.90918 -3.05664 6.60059 -7.53027 8.2041 -9.94141c1.60254 -2.41211 4.33105 -7.35059 6.0625 -10.9746c1.7832 -3.73242 3.99316 -9.78613 5.09668 -13.958c1.85547 -7.0127 1.94922 -7.9375 1.94727 -19.2422
c-0.00195312 -10.8271 -0.145508 -12.4102 -1.63184 -17.9502c-0.897461 -3.3418 -2.60254 -8.45703 -3.78809 -11.3662c-1.18652 -2.91016 -3.42773 -7.38379 -4.98047 -9.94141c-1.55371 -2.55762 -24.3623 -33.3643 -50.6855 -68.46l-47.8623 -63.8105l84.5205 -0.201172
c83.7051 -0.199219 84.5713 -0.213867 89.833 -1.52637c2.92188 -0.728516 7.42188 -2.08789 10 -3.01855c2.57812 -0.931641 6.25391 -2.48047 8.16895 -3.44238s6.10449 -3.50391 9.30859 -5.64746c3.20508 -2.14355 7.9873 -6.03125 10.626 -8.64062
c2.63965 -2.60938 6.48438 -7.01758 8.54395 -9.79688s5.05371 -7.58789 6.65332 -10.6855s3.74805 -8.13672 4.77344 -11.1992c1.02637 -3.0625 2.30176 -8.06445 2.83301 -11.1152c0.532227 -3.05273 0.967773 -8.77246 0.967773 -12.7119
c0 -4.7207 -0.429688 -9.27246 -1.25977 -13.3457c-0.692383 -3.40039 -1.9873 -8.22559 -2.87695 -10.7236c-0.889648 -2.49707 -3.05469 -7.31055 -4.8125 -10.6963c-2.17969 -4.2002 -7.76855 -12.2363 -17.6035 -25.3125
c-7.9248 -10.5361 -20.4375 -27.0322 -27.8057 -36.6572c-7.36914 -9.625 -20.9902 -27.3438 -30.2695 -39.375s-31.6318 -40.8594 -49.6729 -64.0625c-18.042 -23.2031 -48.9795 -62.8594 -68.7529 -88.125c-19.7725 -25.2656 -53.9688 -68.8594 -75.9912 -96.875
c-22.0215 -28.0156 -58.3086 -74.1406 -80.6348 -102.5c-28.541 -36.251 -42.5498 -53.5352 -47.1777 -58.2061c-4.13379 -4.17188 -8.66797 -7.99805 -12.1904 -10.2871c-3.08496 -2.00488 -8.07812 -4.70898 -11.0947 -6.00977
c-3.01562 -1.2998 -7.66309 -2.92383 -10.3262 -3.6084c-2.66406 -0.68457 -6.8125 -1.52539 -9.21875 -1.86719s-7.1875 -0.625977 -10.625 -0.631836c-3.4375 -0.00488281 -8.85254 0.412109 -12.0322 0.928711c-3.18066 0.515625 -8.52441 1.81445 -11.875 2.88574
c-3.35156 1.07129 -8.76465 3.29395 -12.0303 4.93945c-3.26562 1.64453 -7.9873 4.43652 -10.4902 6.2041c-2.50391 1.76855 -6.49805 5.05078 -8.87695 7.29395c-2.37793 2.24316 -5.87695 6.10742 -7.77637 8.58691s-4.71484 6.72266 -6.25781 9.42969
c-1.54199 2.70703 -3.68652 7.33691 -4.76562 10.2881s-2.53711 8.03809 -3.24121 11.3037c-0.952148 4.41602 -1.28418 8.25977 -1.29492 15c-0.0146484 9.01562 0.0908203 9.69531 20.5088 132.032c11.2881 67.6338 20.3447 123.149 20.126 123.368
c-0.21875 0.219727 -22.9756 0.611328 -50.5713 0.87207c-42.4658 0.402344 -51.0361 0.633789 -55.7949 1.50586c-3.09277 0.567383 -8.09668 1.85938 -11.1201 2.87305c-3.02441 1.0127 -7.77441 2.97656 -10.5557 4.36523
c-2.78125 1.3877 -7.1416 3.96387 -9.68945 5.72559c-2.54688 1.76074 -6.8291 5.33789 -9.5166 7.94824s-6.63281 7.11816 -8.76758 10.0176c-2.13379 2.89844 -5.25195 8.10156 -6.92676 11.5625c-1.6748 3.45996 -3.62402 8.11914 -4.33203 10.3535
c-0.707031 2.23438 -1.71094 6.03125 -2.23047 8.4375s-1.11816 7.60938 -1.33203 11.5625c-0.231445 4.30469 -0.0917969 9.44336 0.348633 12.8125c0.405273 3.09375 2.29102 11.6719 4.19043 19.0625s7.21387 27.6406 11.8115 45
c4.5957 17.3594 11.7656 44.2188 15.9336 59.6875c4.16699 15.4688 11.0957 40.9219 15.3965 56.5625c4.30176 15.6406 11.4668 41.375 15.9238 57.1875c4.45605 15.8125 10.9297 38.4531 14.3848 50.3125c3.45605 11.8594 8.80566 30 11.8877 40.3125
c3.08301 10.3125 8.14062 26.9062 11.2402 36.875s8.85742 27.8633 12.7959 39.7656s8.29883 23.9961 9.68945 26.875s4.08008 7.57031 5.97852 10.4258c1.89746 2.85449 5.60156 7.38379 8.23145 10.0645c2.62891 2.68066 6.89746 6.42578 9.48438 8.32324
s7.08691 4.72852 10 6.29004c2.91309 1.5625 7.68652 3.67383 10.6084 4.69336s7.5625 2.2998 10.3125 2.84277c2.75 0.543945 5.98438 1.09766 7.1875 1.22949s67.0156 0.201172 146.25 0.155273zM491.233 612.5h-71.2646l-0.556641 -1.46484
c-0.305664 -0.804688 -3.0957 -9.59473 -6.19727 -19.5312c-3.10254 -9.93652 -8.58496 -27.9102 -12.1826 -39.9414c-3.59863 -12.0312 -9.50684 -32.1406 -13.1299 -44.6875s-9.67285 -33.7812 -13.4443 -47.1875s-10.9404 -39.2812 -15.9316 -57.5
s-12.6221 -46.3438 -16.958 -62.5c-4.33496 -16.1562 -8.53418 -31.8047 -9.33105 -34.7744l-1.4502 -5.39941l17.8877 -0.46582c9.83789 -0.256836 35.0439 -0.161133 56.0127 0.211914c32.8467 0.583008 38.8467 0.549805 43.332 -0.239258
c2.86523 -0.503906 6.94336 -1.5 9.0625 -2.21191c2.12109 -0.712891 5.76953 -2.25586 8.1084 -3.42773s5.99512 -3.30566 8.125 -4.74121c2.12988 -1.43652 5.86133 -4.60059 8.29199 -7.03223c2.43164 -2.43066 5.5957 -6.16211 7.03223 -8.29199
c1.43555 -2.12988 3.56934 -5.78613 4.74121 -8.125s2.71289 -5.9834 3.42383 -8.09863s1.7207 -6.30078 2.24414 -9.30078s0.951172 -7.6543 0.951172 -10.3438c0 -3.44043 -3.43457 -25.3867 -11.5908 -74.0527c-6.375 -38.0391 -11.499 -69.4365 -11.3877 -69.7715
c0.111328 -0.333984 2.04102 1.7373 4.28711 4.60352c2.24707 2.86621 18.5391 23.6328 36.2041 46.1484c17.666 22.5156 47.6084 60.7656 66.5381 85c18.9307 24.2344 45.1152 57.8438 58.1885 74.6875c13.0723 16.8438 28.5986 36.876 34.501 44.5166l10.7314 13.8906
l-98.5791 0.1875l-98.5801 0.186523l-5.09863 1.36719c-2.80469 0.751953 -7.16406 2.27246 -9.6875 3.37793s-6.92969 3.51367 -9.79199 5.35156c-2.86133 1.83789 -7.2334 5.37402 -9.71582 7.85742c-2.48145 2.48242 -5.69531 6.25684 -7.14062 8.38672
s-3.58691 5.78613 -4.75879 8.125s-2.71582 5.99316 -3.43066 8.11914s-1.75684 6.48535 -2.31738 9.6875c-0.733398 4.19727 -0.916992 7.74023 -0.657227 12.6963c0.197266 3.78125 0.917969 9.125 1.60156 11.875c0.682617 2.75 1.94727 6.72168 2.81055 8.8252
c0.862305 2.10352 2.62012 5.61914 3.9043 7.8125c1.28516 2.19336 28.0166 38.2295 59.4033 80.0811l57.0654 76.0938h-71.2656z" />
  </g>

</svg>
