<?xml version="1.0" standalone="no"?>
<!DOCTYPE svg PUBLIC "-//W3C//DTD SVG 1.1//EN" "http://www.w3.org/Graphics/SVG/1.1/DTD/svg11.dtd" >
<svg xmlns="http://www.w3.org/2000/svg" xmlns:xlink="http://www.w3.org/1999/xlink" version="1.1" viewBox="-10 0 1010 1000">
  <g transform="matrix(1 0 0 -1 0 800)">
   <path fill="currentColor"
d="M126.875 737.224c5.66602 -0.179688 9.47949 -0.679688 13.8799 -1.81836c3.33691 -0.863281 8.49707 -2.75684 11.4668 -4.20801c2.96973 -1.4502 7.12988 -3.89062 9.24512 -5.42188c2.11523 -1.53223 30.9053 -29.8125 63.9785 -62.8457
c33.0723 -33.0332 60.2461 -59.9326 60.3867 -59.7764c0.139648 0.15625 2.85352 8.72168 6.03027 19.0342s9.25879 29.3086 13.5156 42.2129c4.25684 12.9033 8.88867 25.8408 10.293 28.75c1.4043 2.9082 4.10645 7.62305 6.00488 10.4785
c1.89746 2.85449 5.60156 7.38379 8.23145 10.0645c2.62891 2.68066 6.89746 6.42578 9.48438 8.32324s7.08691 4.72852 10 6.29004c2.91309 1.5625 7.68652 3.67383 10.6084 4.69336s7.70312 2.37891 10.625 3.02051c5.10156 1.12109 11.0879 1.16699 150.625 1.16699
s145.523 -0.0458984 150.625 -1.16699c2.92188 -0.641602 7.70312 -2.00098 10.625 -3.02246c2.92188 -1.02051 7.62793 -3.07715 10.457 -4.57031c2.83008 -1.49414 7.23145 -4.28516 9.78027 -6.20312c2.54785 -1.91797 7.01367 -5.98926 9.92188 -9.0459
c2.90918 -3.05664 6.60059 -7.53027 8.2041 -9.94141c1.60254 -2.41211 4.33105 -7.35059 6.0625 -10.9746c1.7832 -3.73242 3.99316 -9.78613 5.09668 -13.958c1.85547 -7.01367 1.94922 -7.9375 1.94727 -19.2422
c-0.00195312 -10.8281 -0.145508 -12.4102 -1.63184 -17.9502c-0.897461 -3.3418 -2.60254 -8.45703 -3.78809 -11.3662c-1.18652 -2.91016 -3.42773 -7.38379 -4.98047 -9.94141s-24.3623 -33.3643 -50.6855 -68.46l-47.8623 -63.8105l84.5205 -0.201172
c83.7051 -0.199219 84.5713 -0.213867 89.833 -1.52734c2.92188 -0.728516 7.42188 -2.08789 10 -3.01855c2.57812 -0.931641 6.25391 -2.48047 8.16895 -3.44238s6.10449 -3.50391 9.30859 -5.64746c3.20508 -2.14355 7.9873 -6.03125 10.626 -8.64062
c2.63965 -2.60938 6.48438 -7.01758 8.54395 -9.79688s5.05371 -7.58789 6.65332 -10.6855c1.59961 -3.09668 3.74805 -8.13672 4.77344 -11.1992c1.02637 -3.0625 2.30176 -8.06348 2.83301 -11.1143c0.532227 -3.05273 0.967773 -8.77246 0.967773 -12.7119
c0 -4.7207 -0.429688 -9.27246 -1.25977 -13.3457c-0.692383 -3.40039 -1.9873 -8.22559 -2.87695 -10.7236c-0.889648 -2.49707 -3.05469 -7.31055 -4.8125 -10.6963c-2.17969 -4.2002 -7.76855 -12.2363 -17.6035 -25.3125
c-7.9248 -10.5361 -20.4375 -27.0322 -27.8057 -36.6572c-7.36914 -9.625 -20.8838 -27.2031 -30.0332 -39.0625c-9.14844 -11.8594 -28.5312 -36.8906 -43.0732 -55.625c-14.541 -18.7344 -26.7344 -34.4326 -27.0967 -34.8848
c-0.506836 -0.631836 24.4395 -25.9424 108.415 -110c96.4277 -96.5186 109.455 -109.782 112.357 -114.394c1.80566 -2.86719 4.11719 -7.22656 5.1377 -9.6875c1.02051 -2.45996 2.45898 -6.86328 3.19727 -9.78516c1.06738 -4.22266 1.3418 -7.1709 1.3418 -14.375
s-0.274414 -10.1523 -1.3418 -14.375c-0.738281 -2.92188 -2.19043 -7.3584 -3.22754 -9.86035c-1.03809 -2.50098 -3.39746 -6.86035 -5.24414 -9.6875c-1.84766 -2.82617 -4.84277 -6.75781 -6.65625 -8.73535c-1.81348 -1.97852 -5.45605 -5.22266 -8.09375 -7.21094
c-2.63965 -1.9873 -7.2627 -4.81934 -10.2744 -6.29004c-3.0127 -1.47168 -8.20801 -3.37793 -11.5449 -4.23535c-3.73828 -0.960938 -8.70703 -1.69336 -12.9424 -1.90527c-4.91406 -0.248047 -8.53516 -0.0556641 -12.6963 0.670898
c-3.20215 0.560547 -7.56152 1.60254 -9.6875 2.31738s-5.80957 2.27246 -8.18457 3.46387c-2.375 1.18945 -5.89062 3.17871 -7.8125 4.41797c-2.2373 1.44434 -40.8213 39.5449 -107.267 105.92l-103.771 103.664l-37.4531 -47.6709
c-20.5996 -26.2188 -58.2686 -74.1084 -83.71 -106.421c-32.9795 -41.8867 -48.1455 -60.6572 -52.8379 -65.3936c-4.13281 -4.16992 -8.66992 -7.99805 -12.1924 -10.2871c-3.08496 -2.00488 -8.07812 -4.70898 -11.0938 -6.00977
c-3.01562 -1.2998 -7.66309 -2.92383 -10.3271 -3.6084s-6.8125 -1.52539 -9.21875 -1.86719s-7.1875 -0.625977 -10.625 -0.631836c-3.4375 -0.00488281 -8.85254 0.412109 -12.0322 0.928711c-3.18066 0.515625 -8.52441 1.81445 -11.875 2.88574
c-3.35156 1.07129 -8.76465 3.29395 -12.0303 4.93945c-3.26562 1.64453 -7.98633 4.43652 -10.4902 6.2041c-2.50391 1.76855 -6.49805 5.05078 -8.87695 7.29395c-2.37793 2.24316 -5.87695 6.10742 -7.77637 8.58691s-4.71484 6.72266 -6.25781 9.42969
c-1.54199 2.70703 -3.68652 7.33691 -4.76562 10.2881s-2.53711 8.03809 -3.24121 11.3037c-0.952148 4.41602 -1.28418 8.25977 -1.29492 15c-0.0146484 9.01562 0.0908203 9.69531 20.5088 132.033c11.2881 67.6338 20.3447 123.148 20.126 123.368
c-0.21875 0.21875 -22.9756 0.611328 -50.5713 0.87207c-42.4658 0.402344 -51.0361 0.633789 -55.7949 1.50586c-3.09277 0.567383 -8.09668 1.85938 -11.1201 2.87305c-3.02441 1.0127 -7.77441 2.97656 -10.5557 4.36523
c-2.78125 1.3877 -7.1416 3.96387 -9.68945 5.72559c-2.54688 1.76074 -6.8291 5.33789 -9.5166 7.94824s-6.63281 7.11816 -8.76758 10.0176c-2.13379 2.89844 -5.25195 8.10156 -6.92676 11.5625c-1.6748 3.45996 -3.62402 8.11914 -4.33203 10.3535
c-0.707031 2.23438 -1.71094 6.03125 -2.23047 8.4375s-1.11816 7.60938 -1.33203 11.5625c-0.231445 4.30469 -0.0917969 9.44336 0.348633 12.8125c0.405273 3.09375 2.29004 11.6719 4.18945 19.0625s6.68945 25.6719 10.6445 40.625s11.2422 42.2344 16.1924 60.625
c4.95117 18.3906 12.0938 44.6875 15.874 58.4375l6.87207 25l-85.1953 85.3125c-74.8545 74.957 -85.5947 85.9453 -88.4795 90.5273c-1.80664 2.86719 -4.11914 7.22656 -5.13965 9.6875c-1.02051 2.45996 -2.45898 6.86328 -3.19727 9.78516
c-1.06738 4.22266 -1.3418 7.1709 -1.3418 14.375s0.274414 10.1523 1.3418 14.375c0.738281 2.92188 2.19043 7.3584 3.22754 9.86035c1.03809 2.50098 3.48047 7.00098 5.43066 10c1.94922 2.99805 5.68848 7.56348 8.30957 10.1436
c2.62109 2.58105 6.33789 5.73047 8.25977 6.99902s5.4375 3.28027 7.8125 4.46973c2.375 1.19141 6.07324 2.75488 8.21875 3.47559c2.14453 0.720703 6.08203 1.72461 8.75 2.22949c3.25293 0.617188 7.4209 0.837891 12.6621 0.670898h0.000976562zM491.233 612.5
h-71.2646l-0.556641 -1.46484c-0.305664 -0.804688 -3.0957 -9.59473 -6.19727 -19.5312c-3.10254 -9.93652 -8.58398 -27.9102 -12.1807 -39.9414c-3.59766 -12.0312 -8.25488 -27.8008 -10.3496 -35.0439c-2.09473 -7.24219 -3.80957 -13.5713 -3.80957 -14.0645
s12.165 -13.0596 27.0342 -27.9258c14.8682 -14.8652 27.21 -27.0283 27.4238 -27.0283c0.214844 0 0.75293 0.914062 1.19531 2.03125c0.443359 1.11719 1.93555 3.99609 3.31543 6.39746c1.37988 2.40234 28.1914 38.6123 59.582 80.4688l57.0732 76.1025h-71.2656z
M348.128 363.122c-0.173828 -0.00195312 -3.34473 -11.3223 -7.04688 -25.1562c-3.70215 -13.835 -7.52637 -28.1338 -8.49707 -31.7754l-1.76465 -6.62305l13.1289 -0.408203c7.2207 -0.225586 19.084 -0.40918 26.3643 -0.40918
c7.2793 0 19.6328 0.186523 27.4521 0.414062l14.2158 0.413086l-31.7695 31.7744c-17.4727 17.4756 -31.9102 31.7725 -32.083 31.7705zM606.711 362.5h-80.7705l45.3096 -45.3125c24.9199 -24.9219 45.4717 -45.3125 45.6689 -45.3125s9.90137 12.2969 21.5635 27.3252
c11.6631 15.0303 27.459 35.4209 35.1016 45.3125l13.8975 17.9873h-80.7705zM518.083 193.479c-11.6641 11.6611 -21.208 21.0244 -21.208 20.8076c0 -0.21582 -4.5127 -27.3145 -10.0283 -60.2217c-5.5166 -32.9053 -9.93848 -60.1025 -9.82715 -60.4365
c0.111328 -0.333008 13.835 16.7607 30.4971 37.9854c16.6631 21.2256 30.6279 39.0566 31.0352 39.627c0.636719 0.893555 -2.21094 3.98633 -20.4688 22.2383z" />
  </g>

</svg>
