<?xml version="1.0" standalone="no"?>
<!DOCTYPE svg PUBLIC "-//W3C//DTD SVG 1.1//EN" "http://www.w3.org/Graphics/SVG/1.1/DTD/svg11.dtd" >
<svg xmlns="http://www.w3.org/2000/svg" xmlns:xlink="http://www.w3.org/1999/xlink" version="1.1" viewBox="-10 0 1010 1000">
  <g transform="matrix(1 0 0 -1 0 800)">
   <path fill="currentColor"
d="M647.812 724.619c6.875 -0.130859 15.875 -0.65918 20 -1.17285c4.125 -0.514648 9.66797 -1.35254 12.3193 -1.86328c2.65039 -0.509766 6.16602 -1.24707 7.8125 -1.63867s5.94727 -1.5498 9.55664 -2.57324c3.60938 -1.02539 9.79688 -3.1377 13.75 -4.69531
c3.95312 -1.55859 9.90137 -4.19141 13.2178 -5.85352c3.31641 -1.66113 8.37891 -4.41211 11.25 -6.11426s8.04883 -5.18457 11.5049 -7.73926c3.45801 -2.55469 8.7627 -6.84766 11.7891 -9.54004s7.83105 -7.51074 10.6768 -10.707
c2.84668 -3.19629 6.78418 -7.9502 8.75195 -10.5645c1.9668 -2.61328 5.25391 -7.42188 7.30469 -10.6846c2.05078 -3.26367 5.37891 -9.21875 7.39453 -13.2344s4.92676 -10.5352 6.46973 -14.4883s3.45703 -9.51562 4.25391 -12.3623
c1.44336 -5.1543 1.45898 -5.17578 3.94922 -5.79102c1.375 -0.338867 6.15137 -1.77148 10.6143 -3.18066c4.46289 -1.41016 11.0723 -3.82031 14.6875 -5.35547s9.43652 -4.31934 12.9365 -6.18652c3.5 -1.86816 9.26562 -5.31348 12.8125 -7.65625
c3.54688 -2.34375 8.55859 -5.95117 11.1367 -8.01758s6.77832 -5.69824 9.33398 -8.07227s7.29883 -7.40918 10.54 -11.1904c3.24219 -3.78125 7.94824 -9.97852 10.457 -13.7715c2.50977 -3.79297 6.11523 -9.83984 8.0127 -13.4375s4.71094 -9.63477 6.25293 -13.416
c1.54297 -3.78125 3.79883 -10.25 5.01562 -14.375c1.21484 -4.125 2.90723 -11.0156 3.75977 -15.3125c0.853516 -4.29688 1.90625 -10.625 2.34082 -14.0625c0.435547 -3.4502 0.789062 -12.8301 0.790039 -20.9375c0 -10.0459 -0.337891 -17.457 -1.07031 -23.4512
c-0.588867 -4.82031 -1.63867 -11.7109 -2.33398 -15.3125s-2.10938 -9.92383 -3.14355 -14.0488s-3.27734 -11.6484 -4.9834 -16.7197c-1.70703 -5.07129 -4.11816 -11.6807 -5.35938 -14.6875c-1.24023 -3.00684 -4 -9.12402 -6.13184 -13.5928
s-5.65527 -11.2188 -7.83008 -15c-2.17578 -3.78125 -5.92871 -9.82812 -8.3418 -13.4375c-2.41406 -3.60938 -6.08398 -8.8125 -8.15527 -11.5625c-2.07227 -2.75 -5.87988 -7.53125 -8.46094 -10.625s-7.94141 -8.86328 -11.9121 -12.8203
c-3.96973 -3.95801 -9.74902 -9.33105 -12.8428 -11.9404c-3.09375 -2.61035 -8.15625 -6.56055 -11.25 -8.78027s-8.25391 -5.6543 -11.4678 -7.63379c-3.21387 -1.97754 -9.12012 -5.24414 -13.125 -7.25684c-4.00488 -2.01172 -10.2363 -4.83203 -13.8447 -6.26562
c-3.60938 -1.43359 -9.82812 -3.54688 -13.8203 -4.69727c-3.99121 -1.14941 -10.1787 -2.64551 -13.75 -3.3252c-3.57031 -0.679688 -9.67188 -1.5791 -13.5576 -1.99902c-4.47461 -0.483398 -11.5791 -0.639648 -19.375 -0.424805
c-8.32715 0.228516 -14.6865 0.757812 -19.6562 1.63672c-4.04102 0.714844 -10.1104 1.99902 -13.4873 2.85547c-3.37598 0.855469 -9.06934 2.5752 -12.6523 3.82031c-3.58203 1.24512 -9.60742 3.66699 -13.3887 5.38184
c-3.78125 1.71387 -7.29688 3.24316 -7.8125 3.39844c-0.605469 0.181641 -22.6025 -21.3926 -62.1328 -60.9375l-61.1963 -61.2188l3.14258 -7.08398c1.72754 -3.89551 4.01074 -9.47461 5.07129 -12.3965c1.0625 -2.92188 2.64355 -7.79297 3.51465 -10.8242
c0.87207 -3.03125 2.12402 -8.23438 2.7832 -11.5625s1.56641 -8.72266 2.0166 -11.9883c0.467773 -3.39551 0.796875 -11.2891 0.769531 -18.4375c-0.03125 -8.08301 -0.40625 -14.8867 -1.06055 -19.2529c-0.556641 -3.71484 -1.73828 -9.99121 -2.62598 -13.9482
c-0.887695 -3.95801 -2.8584 -10.8291 -4.37988 -15.2705c-1.52148 -4.44043 -4.1709 -11.1875 -5.8877 -14.9932c-1.71582 -3.80469 -4.84863 -9.9248 -6.96094 -13.6016c-2.1123 -3.67578 -5.84277 -9.6084 -8.29102 -13.1836
c-2.44727 -3.5752 -7.29688 -9.90332 -10.7744 -14.0625c-3.47852 -4.15918 -10.0879 -11.2227 -14.6875 -15.6963c-4.60059 -4.47363 -11.457 -10.6133 -15.2383 -13.6436c-3.78125 -3.0293 -11.2344 -8.40039 -16.5625 -11.9365
c-5.32812 -3.53516 -12.5771 -8.0332 -16.1104 -9.99512s-9.7041 -5.10938 -13.7148 -6.99316c-4.00977 -1.88477 -11.1045 -4.93652 -15.7646 -6.7832c-4.65918 -1.8457 -12.6914 -4.6123 -17.8477 -6.14746s-13.4531 -3.64258 -18.4375 -4.68262
c-4.98438 -1.03906 -12.7188 -2.40625 -17.1875 -3.03711c-6.37402 -0.900391 -11.9639 -1.14453 -25.9375 -1.13379c-13.5225 0.0107422 -19.5059 0.270508 -24.8428 1.07617c-3.86719 0.583008 -10.3359 1.79785 -14.375 2.69922
c-4.04004 0.900391 -10.4014 2.62012 -14.1357 3.82227c-3.73535 1.20215 -9.77832 3.4375 -13.4297 4.9668c-3.65039 1.5293 -9.03223 4.07422 -11.959 5.65332c-2.92578 1.58008 -7.57031 4.29883 -10.3203 6.04199s-7.10938 4.75977 -9.6875 6.70312
s-7.39551 5.94629 -10.7061 8.89453c-3.30957 2.94824 -8.75488 8.54297 -12.1016 12.4316c-3.3457 3.88965 -8.52734 10.7285 -11.5146 15.1973s-7.28223 11.7812 -9.54395 16.25c-2.2627 4.46875 -5.39355 11.3594 -6.95801 15.3125
c-1.56348 3.95312 -3.76367 10.2158 -4.88867 13.917l-2.04395 6.72852l-2.52734 0.648438c-1.39062 0.357422 -4.77832 1.37207 -7.52832 2.25391c-2.75 0.883789 -8.07715 2.85352 -11.8389 4.37793c-3.76074 1.52539 -10.2295 4.5 -14.375 6.61133
c-4.14453 2.11133 -11.1924 6.28125 -15.6611 9.26758s-11.2686 8.13379 -15.1104 11.4395c-3.8418 3.30469 -9.18555 8.42188 -11.875 11.3701c-2.68945 2.94922 -7.14453 8.3623 -9.90039 12.0303c-2.75586 3.66699 -6.64062 9.40527 -8.63281 12.752
c-1.99219 3.3457 -4.97754 8.9707 -6.63477 12.5c-1.6582 3.52832 -4.02051 9.11816 -5.25098 12.4219c-1.23047 3.30273 -2.93652 8.41895 -3.79199 11.3691c-0.854492 2.9502 -2.25391 8.68555 -3.11035 12.7451c-0.855469 4.05859 -2.02539 11.458 -2.60059 16.4424
c-0.821289 7.1084 -0.974609 12.3643 -0.712891 24.375c0.231445 10.624 0.72168 17.9141 1.60059 23.8086c0.695312 4.67285 2.1123 12.3496 3.14746 17.0596c1.03418 4.70898 3.04199 12.417 4.46191 17.1289c1.41895 4.71094 4.13086 12.5029 6.02539 17.3154
s5.50781 12.9688 8.0293 18.125s6.68262 12.8906 9.24902 17.1875c2.56543 4.29688 6.77441 10.8213 9.35352 14.498c2.58008 3.67676 6.89746 9.43262 9.59668 12.79c2.69824 3.35742 8.28125 9.60547 12.4062 13.8848c4.125 4.27832 10.3291 10.2139 13.7852 13.1895
c3.45703 2.97559 8.37891 6.9541 10.9375 8.84082c2.55957 1.88672 6.33984 4.57129 8.40234 5.96484s6.75781 4.26367 10.4336 6.37988c3.67676 2.11523 9.79688 5.25098 13.6016 6.9668c3.80566 1.7168 10.501 4.34668 14.8789 5.84277
c4.37891 1.49609 11.0547 3.44922 14.8359 4.33887c3.78125 0.890625 9.82812 2.04395 13.4375 2.5625c3.60938 0.519531 10.5 1.12891 15.3125 1.35645c5.21094 0.245117 12.0361 0.118164 16.875 -0.314453c4.46875 -0.399414 10.6553 -1.14941 13.75 -1.66602
c3.09375 -0.517578 9.38184 -1.91992 13.9736 -3.11621c4.5918 -1.19824 10.9189 -3.16699 14.0625 -4.375c3.14258 -1.20996 8.62402 -3.49414 12.1816 -5.07715l6.46875 -2.87793l60.8984 60.8975l60.8975 60.8984l-4.33887 9.03906
c-2.38574 4.97168 -5.36133 11.8027 -6.61328 15.1807c-1.25098 3.37793 -3.21973 9.4248 -4.37305 13.4375c-1.1543 4.0127 -2.68945 10.8115 -3.41113 15.1084c-0.720703 4.29688 -1.6123 11.4688 -1.97949 15.9375c-0.368164 4.46875 -0.484375 11.5 -0.260742 15.625
c0.224609 4.125 0.802734 10.3984 1.28516 13.9404c0.481445 3.54297 1.60352 9.6875 2.49414 13.6553c0.889648 3.96777 2.70117 10.3516 4.02441 14.1846c1.3252 3.83301 3.43164 9.36035 4.68262 12.2822c1.25 2.92188 3.84668 8.24707 5.76758 11.834
c1.92188 3.58691 5.68066 9.77441 8.35156 13.75s6.75977 9.61914 9.08594 12.541s8.60547 9.68652 13.9541 15.0322c5.34766 5.34473 12.3955 11.8398 15.6602 14.4326c3.26562 2.59277 8.44727 6.49316 11.5146 8.66895c3.06738 2.1748 9.25488 6.18848 13.75 8.91797
s12.3926 7.0166 17.5479 9.52734c5.15625 2.51074 11.2031 5.31348 13.4375 6.22852c2.23438 0.914062 7.15625 2.78613 10.9375 4.15918s10.6562 3.60547 15.2754 4.95898c4.61914 1.35449 13.1982 3.43359 19.0625 4.62012
c5.86426 1.18555 14.5996 2.58691 19.4121 3.11328c4.8125 0.525391 10.4375 1.06738 12.5 1.20215c2.0625 0.135742 9.375 0.138672 16.25 0.0078125zM643.125 599.902c-2.92188 -0.0488281 -6.15625 -0.1875 -7.1875 -0.306641
c-1.03125 -0.120117 -3.98438 -0.518555 -6.5625 -0.886719c-2.57812 -0.367188 -7.83691 -1.47852 -11.6865 -2.46875c-3.84863 -0.989258 -10.5156 -3.24609 -14.8145 -5.01367s-10.3125 -4.68945 -13.3643 -6.49316
c-3.05273 -1.80371 -7.63574 -4.83301 -10.1855 -6.73438c-2.55078 -1.90039 -6.77637 -5.67285 -9.39258 -8.38379c-2.61523 -2.70996 -5.81641 -6.58887 -7.11328 -8.61914c-1.2959 -2.03027 -2.85742 -5.12402 -3.46875 -6.875
c-0.612305 -1.75098 -1.29883 -4.44922 -1.52539 -5.99609c-0.253906 -1.7334 -0.0371094 -4.60645 0.56543 -7.48828c0.555664 -2.65234 2.19922 -7.11426 3.79883 -10.3125c1.55176 -3.09961 4.625 -8.02734 6.8291 -10.9492s6.93262 -8.44238 10.5088 -12.2686
s7.54395 -8.52539 8.81738 -10.4443c1.27344 -1.91797 3.43164 -5.81836 4.79785 -8.66797c1.36523 -2.84961 3.2168 -7.99414 4.11523 -11.4316c1.38477 -5.30176 1.63281 -7.57715 1.63281 -15s-0.248047 -9.69824 -1.63281 -15
c-0.898438 -3.4375 -2.73828 -8.55859 -4.09082 -11.3789c-1.35059 -2.82031 -3.63574 -6.89844 -5.07715 -9.0625c-1.77441 -2.66406 -35.9268 -37.2715 -105.823 -107.234c-72.9404 -73.0088 -104.52 -104.214 -107.692 -106.415
c-2.4707 -1.71387 -6.83008 -4.23633 -9.6875 -5.60547c-2.8584 -1.36914 -8.00977 -3.22461 -11.4473 -4.12305c-5.30176 -1.38477 -7.57715 -1.63281 -15 -1.63281s-9.69824 0.248047 -15 1.63281c-3.4375 0.898438 -8.58203 2.75 -11.4316 4.11523
c-2.84961 1.36621 -6.75293 3.52637 -8.67383 4.80078c-1.91992 1.27539 -6.19727 4.83789 -9.50586 7.91895c-3.30762 3.08105 -7.98242 7.08594 -10.3887 8.90039s-6.35254 4.30176 -8.76953 5.52637c-2.41699 1.22559 -6.3252 2.70312 -8.68262 3.28613
c-3.56055 0.87793 -5.06445 0.945312 -8.87207 0.397461c-2.88184 -0.415039 -6.37109 -1.50879 -9.39258 -2.94434c-2.64551 -1.25586 -6.69824 -3.68457 -9.00781 -5.39746c-2.31055 -1.71191 -6.88574 -5.91016 -10.167 -9.3291
c-3.29492 -3.43359 -7.9375 -9.20117 -10.3682 -12.8799c-2.41992 -3.66504 -5.82227 -9.58301 -7.56055 -13.1504c-1.73828 -3.56836 -4.25684 -9.79199 -5.59766 -13.8311c-1.33984 -4.03906 -2.89648 -9.45312 -3.45801 -12.0312
c-0.560547 -2.57812 -1.16895 -8.90625 -1.35059 -14.0625c-0.25293 -7.14648 -0.0996094 -10.4639 0.642578 -13.9551c0.536133 -2.51953 1.64355 -6.03516 2.46191 -7.8125c0.818359 -1.77832 2.72754 -4.56543 4.24316 -6.19434
c1.51465 -1.62891 4.43848 -3.95801 6.49902 -5.17578c2.05957 -1.2168 6.29688 -3.03027 9.41602 -4.03027c3.12012 -0.999023 8.18457 -2.25098 11.2559 -2.78125c3.07031 -0.53125 9.94238 -1.24805 15.2705 -1.59375s11.9375 -1.1748 14.6875 -1.84375
c2.75 -0.667969 7.05957 -2.09375 9.57715 -3.16699c2.51855 -1.07422 6.03418 -2.83203 7.8125 -3.90625c1.7793 -1.0752 4.97754 -3.32227 7.10742 -4.99316c2.13086 -1.6709 5.19922 -4.50293 6.81934 -6.29297c1.62012 -1.78906 4.46094 -5.56738 6.3125 -8.39355
c1.85156 -2.82715 4.21387 -7.18652 5.25 -9.6875c1.03711 -2.50195 2.43457 -6.79785 3.10449 -9.54785c0.671875 -2.75 1.50391 -9.35938 1.85059 -14.6875c0.347656 -5.32812 0.920898 -11.5156 1.27441 -13.75s1.20801 -6.3125 1.89941 -9.0625
s2.39746 -7.37109 3.79199 -10.2695c1.66895 -3.47266 3.62793 -6.36426 5.74219 -8.47656c1.76465 -1.76367 4.85156 -3.98242 6.86035 -4.93164c2.00781 -0.949219 5.66406 -2.1543 8.125 -2.67871c3.37207 -0.717773 6.7793 -0.870117 13.8477 -0.620117
c5.15625 0.181641 11.4844 0.790039 14.0625 1.35059c2.57812 0.561523 8.04785 2.13672 12.1553 3.5c4.10645 1.36328 10.5693 4.0293 14.3613 5.92676c3.79199 1.89648 9.67188 5.29688 13.0645 7.55566c3.39355 2.25977 8.96191 6.78711 12.374 10.0625
c3.41211 3.27441 7.50195 7.66992 9.08789 9.76758c1.58691 2.09766 3.96875 6.06348 5.29297 8.81348s2.71582 6.67578 3.0918 8.72363c0.378906 2.06445 0.491211 5.26855 0.250977 7.1875c-0.237305 1.90527 -1.07031 5.15137 -1.84863 7.21387
c-0.779297 2.0625 -2.31934 5.27734 -3.42383 7.14453c-1.10352 1.86719 -3.2168 4.96094 -4.69531 6.875c-1.47754 1.91406 -5.13184 6.12695 -8.11914 9.36133c-2.98633 3.23535 -6.57227 7.56055 -7.96582 9.61328s-3.60645 6.02051 -4.91699 8.81738
c-1.31055 2.79785 -2.97559 7.24512 -3.69922 9.88379c-0.724609 2.6377 -1.53223 7.41406 -1.7959 10.6133c-0.264648 3.19922 -0.289062 8.20703 -0.0556641 11.1289s1.04102 7.68457 1.79199 10.583c0.751953 2.89844 2.32617 7.34473 3.49707 9.87988
c1.17188 2.53516 3.44922 6.63184 5.06055 9.10449c2.28516 3.50293 25.375 26.9678 104.556 106.259c55.8936 55.9697 103.661 103.416 106.152 105.438c2.49023 2.01953 6.33789 4.68457 8.5498 5.92188c2.21191 1.23633 5.71094 2.91113 7.77539 3.71973
s5.66699 1.95117 8.00684 2.53809s6.64746 1.28809 9.57227 1.55664c2.9248 0.270508 7.97363 0.242188 11.2197 -0.0625c3.24707 -0.303711 8.02344 -1.13379 10.6143 -1.84473s6.99902 -2.36523 9.79688 -3.67578c2.79688 -1.31055 6.79688 -3.54492 8.88867 -4.96582
s6.38672 -4.99414 9.54395 -7.94238c3.15625 -2.94629 7.73926 -6.85059 10.1836 -8.67578c2.44531 -1.82422 5.99219 -4.17188 7.88281 -5.2168s5.18652 -2.48242 7.32422 -3.19531c2.41797 -0.805664 5.50293 -1.29492 8.16797 -1.29492
c2.35449 0 5.80859 0.453125 7.67578 1.00781c1.86719 0.553711 4.80078 1.7168 6.51953 2.58594s4.67188 2.63281 6.5625 3.91992s5.34473 4.09473 7.67578 6.2373c2.33203 2.14355 5.87012 5.90234 7.8623 8.35449c1.99219 2.45117 5.03418 6.56641 6.75977 9.14453
s4.28711 6.79688 5.69141 9.375s3.83887 7.83789 5.41016 11.6885s3.67285 10.1787 4.66992 14.0625s2.11914 9.59277 2.49512 12.6865c0.375 3.09375 0.672852 7.59375 0.662109 10s-0.402344 6.48438 -0.871094 9.0625c-0.467773 2.57812 -1.44434 6.25684 -2.1709 8.1748
c-0.725586 1.91797 -2.32715 4.66406 -3.55859 6.10254c-1.23047 1.4375 -3.46094 3.45605 -4.95605 4.48438c-1.49414 1.0293 -4.77441 2.69043 -7.28711 3.69434c-2.51367 1.00293 -7.63184 2.41309 -11.375 3.13184c-4.13184 0.794922 -11.6182 1.53906 -19.0625 1.89648
c-8.32422 0.400391 -13.8672 0.984375 -17.2744 1.82227c-2.75879 0.677734 -6.83691 2.01367 -9.0625 2.96973c-2.22559 0.955078 -5.7334 2.70605 -7.7959 3.8916c-2.0625 1.18457 -5.49219 3.52832 -7.62207 5.20801c-2.13086 1.67871 -5.19922 4.51758 -6.81934 6.30762
c-1.62012 1.78906 -4.46094 5.56738 -6.3125 8.39355c-1.85156 2.82715 -4.21387 7.18652 -5.25 9.6875c-1.03711 2.50195 -2.44141 6.79785 -3.12109 9.54785c-0.805664 3.25977 -1.43555 8.91602 -1.80859 16.25c-0.31543 6.1875 -1.0127 13.543 -1.55078 16.3447
c-0.537109 2.80176 -1.49707 6.60449 -2.13281 8.45117s-1.90527 4.83691 -2.82227 6.64648s-2.65625 4.38477 -3.86523 5.72363c-1.20996 1.33789 -3.61035 3.33887 -5.33496 4.44629c-1.72559 1.10742 -4.99902 2.68848 -7.27539 3.51465
c-2.27539 0.826172 -6.82617 1.90723 -10.1113 2.40234c-3.28516 0.496094 -8.36426 0.860352 -11.2861 0.810547z" />
  </g>

</svg>
