<?xml version="1.0" standalone="no"?>
<!DOCTYPE svg PUBLIC "-//W3C//DTD SVG 1.1//EN" "http://www.w3.org/Graphics/SVG/1.1/DTD/svg11.dtd" >
<svg xmlns="http://www.w3.org/2000/svg" xmlns:xlink="http://www.w3.org/1999/xlink" version="1.1" viewBox="-10 0 1010 1000">
  <g transform="matrix(1 0 0 -1 0 800)">
   <path fill="currentColor"
d="M701.562 727.765c7.5625 -0.124023 17.9697 -0.661133 23.125 -1.19238c5.15625 -0.533203 12.75 -1.53223 16.875 -2.22168s10.6855 -1.95703 14.5811 -2.81738c3.89355 -0.861328 10.2217 -2.41602 14.0625 -3.45703
c3.83984 -1.04004 12.6064 -3.57324 19.4814 -5.62891s19.3906 -6.0127 27.8125 -8.79395c8.42285 -2.78125 19.5195 -6.58691 24.6602 -8.45703c5.13965 -1.87109 14.2803 -5.3877 20.3125 -7.81738c6.03125 -2.42871 15.4395 -6.48535 20.9082 -9.01367
c5.46875 -2.5293 13.5674 -6.5957 17.9961 -9.03613c4.43066 -2.44141 10.0811 -6.04883 12.5596 -8.01855c2.47754 -1.96875 5.74023 -4.96777 7.25098 -6.66406c1.50977 -1.69629 4.28027 -5.42188 6.15625 -8.2793c1.87695 -2.85645 4.33496 -7.49707 5.46582 -10.3125
c1.12988 -2.81445 2.57715 -7.36719 3.2168 -10.1172c1.125 -4.83984 1.16211 -15.2529 1.16211 -325.938c0 -310.686 -0.0371094 -321.099 -1.16211 -325.938c-0.639648 -2.75 -2.08691 -7.30273 -3.2168 -10.1172c-1.13086 -2.81543 -3.58203 -7.45605 -5.44922 -10.3125
c-1.86719 -2.85742 -4.87793 -6.81348 -6.69141 -8.79102c-1.81348 -1.97852 -5.45605 -5.22266 -8.09375 -7.21094c-2.63965 -1.9873 -7.2627 -4.81934 -10.2744 -6.29004c-3.0127 -1.47168 -8.20801 -3.37793 -11.5449 -4.23535
c-3.73828 -0.960938 -8.70703 -1.69336 -12.9424 -1.90527c-4.92578 -0.248047 -8.55859 -0.0546875 -12.8125 0.681641c-4.1377 0.71582 -24.127 7.08008 -65.9375 20.9941c-33 10.9814 -63.5156 20.8203 -67.8125 21.8643s-11.75 2.51855 -16.5625 3.27734
c-7.57227 1.19336 -11.2305 1.37988 -27.1875 1.37988s-19.6152 -0.186523 -27.1875 -1.37988c-4.8125 -0.758789 -12.2656 -2.2334 -16.5625 -3.27734s-34.8125 -10.8818 -67.8125 -21.8623c-39.5439 -13.1582 -61.8926 -20.291 -65.5508 -20.9219
c-3.05273 -0.525391 -7.72656 -0.956055 -10.3867 -0.956055s-7.33398 0.430664 -10.3867 0.956055c-3.6582 0.630859 -26.0068 7.76367 -65.5508 20.9219c-33 10.9805 -63.5156 20.8184 -67.8125 21.8623s-11.75 2.51855 -16.5625 3.27734
c-7.57227 1.19336 -11.2305 1.37988 -27.1875 1.37988s-19.6152 -0.186523 -27.1875 -1.37988c-4.8125 -0.758789 -12.2656 -2.2334 -16.5625 -3.27734s-34.8125 -10.8818 -67.8125 -21.8623c-39.5439 -13.1582 -61.8926 -20.291 -65.5508 -20.9219
c-3.05273 -0.525391 -7.72656 -0.956055 -10.3867 -0.956055s-7.29102 0.427734 -10.291 0.951172s-7.18555 1.5332 -9.30078 2.24414s-5.78906 2.26562 -8.16406 3.45703c-2.375 1.18945 -5.89062 3.20117 -7.8125 4.46973s-5.63867 4.41797 -8.25977 6.99902
c-2.62109 2.58008 -6.37695 7.16992 -8.3457 10.1992c-1.96973 3.02832 -4.50391 7.80957 -5.63477 10.625c-1.12988 2.81445 -2.57715 7.36719 -3.2168 10.1172c-1.125 4.83984 -1.16211 15.2529 -1.16211 325.938c0 310.685 0.0371094 321.098 1.16211 325.938
c0.639648 2.75 2.08691 7.30273 3.2168 10.1172c1.13086 2.81543 3.66504 7.59668 5.63477 10.625c1.96875 3.0293 5.72461 7.61914 8.3457 10.1992c2.62109 2.58105 6.33105 5.72559 8.24316 6.98828c1.91211 1.26172 5.42773 3.29004 7.8125 4.50488
c2.38477 1.21582 31.7568 11.3535 65.2725 22.5283c40.4424 13.4834 65.0361 21.3525 73.125 23.3945c6.70312 1.69336 17.25 3.94043 23.4375 4.99414s15.4688 2.41113 20.625 3.01758c7.37305 0.868164 14.3789 1.10254 32.8125 1.10254
s25.4395 -0.234375 32.8125 -1.10254c5.15625 -0.606445 14.4375 -1.96387 20.625 -3.01758s16.6982 -3.29199 23.3564 -4.97461c7.59277 -1.91797 30.4922 -9.17285 61.417 -19.458l49.3115 -16.3994l52.958 17.6309c29.126 9.69629 57.3164 18.875 62.6445 20.3975
c5.32715 1.52246 14.4688 3.7627 20.3125 4.97852c5.84277 1.21582 14.5625 2.77051 19.375 3.45508s12.5469 1.55371 17.1875 1.93164c4.63965 0.37793 9.98438 0.789062 11.875 0.912109c1.89062 0.125 9.625 0.125 17.1865 0.00195312zM700.312 602.779
c-5.84375 0.145508 -13.3682 0.0166016 -16.7227 -0.286133s-9.68262 -1.14844 -14.0625 -1.87988c-4.38086 -0.730469 -10.7773 -2.02539 -14.2148 -2.87598s-25.7266 -8.02441 -49.5303 -15.9404l-43.2812 -14.3926v-246.581
c0 -199.441 0.152344 -246.523 0.795898 -246.276c0.4375 0.167969 8.52441 2.84277 17.9688 5.94434c9.44531 3.10156 20.9697 6.64062 25.6104 7.86328s11.0195 2.79297 14.1748 3.48828c3.15527 0.696289 9.90527 1.96191 15 2.81348s13.4814 2.04785 18.6377 2.65723
c7.45605 0.882812 14.2373 1.10645 33.125 1.09375c20.5547 -0.0146484 25.2461 -0.201172 34.874 -1.38477c6.11816 -0.751953 15.7471 -2.21777 21.3975 -3.25781c5.65137 -1.04004 15.1299 -3.13086 21.0645 -4.64551c5.93359 -1.51562 18.6572 -5.3457 28.2744 -8.51074
c9.61621 -3.16602 17.8438 -5.89355 18.2812 -6.06152c0.643555 -0.24707 0.795898 47.3555 0.795898 249.014v249.318l-8.90625 3.32129c-4.89844 1.82617 -15.0938 5.37891 -22.6562 7.89355s-19.9375 6.43262 -27.5 8.70508s-16.5625 4.8457 -20 5.71777
s-9.90625 2.12793 -14.375 2.79199s-12.9062 1.32617 -18.751 1.4707zM315 598.442c-9.10938 0.0976562 -17.5469 0.0615234 -18.75 -0.0800781c-1.20312 -0.142578 -6.125 -0.8125 -10.9375 -1.49023c-4.8125 -0.676758 -12.2656 -2.08496 -16.5625 -3.12891
s-24.3359 -7.39844 -44.5312 -14.1221l-36.7188 -12.2256v-246.577c0 -199.438 0.152344 -246.52 0.795898 -246.271c0.4375 0.167969 8.66504 2.89355 18.2812 6.05762c9.61719 3.16406 22.8291 7.10645 29.3604 8.76074s16.9375 3.87012 23.125 4.92383
s15.4688 2.41504 20.625 3.02441c7.45605 0.882812 14.2354 1.10645 33.125 1.09375c20.5547 -0.0146484 25.2461 -0.201172 34.874 -1.38477c6.11816 -0.751953 15.7471 -2.21777 21.3975 -3.25781c5.65137 -1.04004 15.1299 -3.13086 21.0645 -4.64551
c5.93359 -1.51562 18.6572 -5.3457 28.2744 -8.51074c9.61621 -3.16602 17.8438 -5.89355 18.2812 -6.06152c0.643555 -0.24707 0.795898 46.834 0.795898 246.271v246.577l-36.7188 12.2256c-20.1953 6.72363 -40.2344 13.0771 -44.5312 14.1201
s-11.6094 2.4873 -16.25 3.20898c-6.65332 1.03711 -11.9395 1.35254 -25 1.49219z" />
  </g>

</svg>
