<?xml version="1.0" standalone="no"?>
<!DOCTYPE svg PUBLIC "-//W3C//DTD SVG 1.1//EN" "http://www.w3.org/Graphics/SVG/1.1/DTD/svg11.dtd" >
<svg xmlns="http://www.w3.org/2000/svg" xmlns:xlink="http://www.w3.org/1999/xlink" version="1.1" viewBox="-10 0 1010 1000">
  <g transform="matrix(1 0 0 -1 0 800)">
   <path fill="currentColor"
d="M689.375 737.291l195.312 -0.103516l6.06738 -1.67578c3.33691 -0.921875 8.53223 -2.88086 11.5449 -4.35254c3.01172 -1.4707 7.63477 -4.30273 10.2744 -6.29004c2.6377 -1.98828 6.28027 -5.23242 8.09375 -7.21094
c1.81348 -1.97754 4.82422 -5.93359 6.69141 -8.79102c1.86719 -2.85645 4.31836 -7.49707 5.44922 -10.3125c1.12988 -2.81445 2.57715 -7.36719 3.2168 -10.1172c1.12402 -4.83691 1.16211 -14.4688 1.16211 -294.688c0 -280.219 -0.0380859 -289.851 -1.16211 -294.688
c-0.639648 -2.75 -2.08691 -7.30273 -3.2168 -10.1172c-1.13086 -2.81543 -3.58203 -7.45605 -5.44922 -10.3125c-1.86719 -2.85742 -4.87793 -6.81348 -6.69141 -8.79102c-1.81348 -1.97852 -5.45605 -5.22266 -8.09375 -7.21094
c-2.63965 -1.9873 -7.2627 -4.81934 -10.2744 -6.29004c-3.0127 -1.47168 -8.20801 -3.42578 -11.5449 -4.3418l-6.06738 -1.66602l-53.9648 -0.189453c-46.4795 -0.163086 -54.7441 -0.0556641 -59.5723 0.777344c-3.08301 0.532227 -7.34473 1.55273 -9.47168 2.26758
c-2.12598 0.714844 -5.80957 2.27246 -8.18457 3.46387c-2.375 1.18945 -5.88965 3.20117 -7.8125 4.46973c-1.92188 1.26855 -5.63867 4.41797 -8.25977 6.99902c-2.62109 2.58008 -6.36035 7.14551 -8.30957 10.1436c-1.9502 2.99902 -4.39258 7.49902 -5.43066 10
c-1.03711 2.50195 -2.48926 6.93848 -3.22754 9.86035c-1.06738 4.22266 -1.3418 7.1709 -1.3418 14.375s0.274414 10.1523 1.3418 14.375c0.738281 2.92188 2.19043 7.3584 3.22754 9.86035c1.03906 2.50098 3.48047 7.00098 5.43066 10
c1.94922 2.99805 5.68848 7.56348 8.30957 10.1436c2.62109 2.58105 6.33789 5.73047 8.25977 6.99902c1.92285 1.26855 5.4375 3.28027 7.8125 4.46973c2.375 1.19141 6.04883 2.74609 8.16406 3.45703s6.30078 1.7207 9.30078 2.24414
c4.03516 0.704102 10.1494 0.951172 23.498 0.951172h18.043v218.75v218.75l-129.219 -0.00585938l-129.219 -0.00488281l-2.34277 -3.6377c-1.28906 -2 -3.90527 -5.36328 -5.81445 -7.47266c-1.9082 -2.10938 -5.64355 -5.47168 -8.2998 -7.47363
c-2.65527 -2.00195 -7.29395 -4.84375 -10.3057 -6.31445c-3.0127 -1.47168 -8.20801 -3.37793 -11.5449 -4.23535c-3.73828 -0.960938 -8.70703 -1.69336 -12.9424 -1.90527c-4.91406 -0.248047 -8.53516 -0.0556641 -12.6963 0.670898
c-3.20215 0.560547 -7.56152 1.60254 -9.6875 2.31738s-5.80957 2.27246 -8.18457 3.46387c-2.375 1.18945 -5.89062 3.20117 -7.8125 4.46973s-5.63867 4.41797 -8.25977 6.99902c-2.62109 2.58008 -6.37695 7.16992 -8.3457 10.1992
c-1.96973 3.02832 -4.50391 7.80957 -5.63477 10.625c-1.12988 2.81445 -2.57715 7.36719 -3.2168 10.1172c-1.02637 4.41602 -1.16211 7.81152 -1.16211 29.0625s0.135742 24.6465 1.16211 29.0625c0.639648 2.75 2.08691 7.30273 3.2168 10.1172
c1.13086 2.81543 3.66504 7.59668 5.63477 10.625c1.96875 3.0293 5.72461 7.61914 8.3457 10.1992c2.62109 2.58105 6.33789 5.73047 8.25977 6.99902s5.4375 3.28027 7.8125 4.46973c2.375 1.19141 6.07324 2.75488 8.21875 3.47559
c2.14453 0.720703 6.08203 1.70703 8.75 2.19141c4.11133 0.746094 34.5742 0.864258 200.162 0.776367zM439.375 549.791l195.312 -0.103516l6.06738 -1.67578c3.33691 -0.921875 8.53223 -2.88086 11.5449 -4.35254c3.01172 -1.4707 7.63477 -4.30273 10.2744 -6.29004
c2.6377 -1.98828 6.28027 -5.23242 8.09375 -7.21094c1.81348 -1.97754 4.82422 -5.93359 6.69141 -8.79102c1.86719 -2.85645 4.31836 -7.49707 5.44922 -10.3125c1.12988 -2.81445 2.57715 -7.36719 3.2168 -10.1172c1.12402 -4.83691 1.16211 -14.4688 1.16211 -294.688
c0 -280.219 -0.0380859 -289.851 -1.16211 -294.688c-0.639648 -2.75 -2.08691 -7.30273 -3.2168 -10.1172c-1.13086 -2.81543 -3.58203 -7.45605 -5.44922 -10.3125c-1.86719 -2.85742 -4.87793 -6.81348 -6.69141 -8.79102
c-1.81348 -1.97852 -5.45605 -5.22266 -8.09375 -7.21094c-2.63965 -1.9873 -7.2627 -4.81934 -10.2744 -6.29004c-3.0127 -1.47168 -8.20801 -3.40234 -11.5449 -4.29102c-5.11035 -1.35938 -7.49805 -1.62402 -15.1299 -1.67578
c-6.7793 -0.0458984 -10.3223 0.229492 -14.0625 1.0957c-2.75 0.635742 -7.10938 2.02441 -9.6875 3.08594s-6.375 2.91602 -8.4375 4.12012c-2.0625 1.20508 -37.9912 27.8701 -79.8418 59.2559l-76.0928 57.0654l-77.3447 -57.9893
c-61.6807 -46.2451 -78.459 -58.5312 -82.8408 -60.666c-3.02246 -1.47266 -8.22559 -3.37891 -11.5625 -4.23633c-3.73828 -0.960938 -8.70703 -1.69336 -12.9424 -1.90527c-4.91406 -0.248047 -8.53516 -0.0556641 -12.6963 0.670898
c-3.20215 0.560547 -7.56152 1.60254 -9.6875 2.31738s-5.80957 2.27246 -8.18457 3.46387c-2.375 1.18945 -5.89062 3.20117 -7.8125 4.46973s-5.63867 4.41797 -8.25977 6.99902c-2.62109 2.58008 -6.37695 7.16992 -8.3457 10.1992
c-1.96973 3.02832 -4.50391 7.80957 -5.63477 10.625c-1.12988 2.81445 -2.57715 7.36719 -3.2168 10.1172c-1.12402 4.83691 -1.16211 14.4688 -1.16211 294.688c0 280.22 0.0380859 289.852 1.16211 294.688c0.639648 2.75 2.08691 7.30273 3.2168 10.1172
c1.13086 2.81543 3.66504 7.59668 5.63477 10.625c1.96875 3.0293 5.72461 7.61914 8.3457 10.1992c2.62109 2.58105 6.33789 5.73047 8.25977 6.99902s5.4375 3.28027 7.8125 4.46973c2.375 1.19141 6.07324 2.75488 8.21875 3.47559
c2.14453 0.720703 6.08203 1.70703 8.75 2.19141c4.11133 0.746094 34.5742 0.864258 200.162 0.776367h0.000976562zM437.5 425h-125v-187.503v-187.504l44.8438 33.6357c24.6641 18.499 46.5312 34.6201 48.5938 35.8232s5.85938 3.05566 8.4375 4.11719
s6.9375 2.4502 9.6875 3.08594c3.74023 0.866211 7.2832 1.1416 14.0625 1.0957c7.63184 -0.0517578 10.0195 -0.316406 15.1299 -1.67578c3.33691 -0.888672 8.54004 -2.81934 11.5625 -4.29102c4.27051 -2.0791 15.7695 -10.3779 51.5889 -37.2295l46.0938 -34.5527
v187.499v187.499h-125z" />
  </g>

</svg>
