<?xml version="1.0" standalone="no"?>
<!DOCTYPE svg PUBLIC "-//W3C//DTD SVG 1.1//EN" "http://www.w3.org/Graphics/SVG/1.1/DTD/svg11.dtd" >
<svg xmlns="http://www.w3.org/2000/svg" xmlns:xlink="http://www.w3.org/1999/xlink" version="1.1" viewBox="-10 0 1010 1000">
  <g transform="matrix(1 0 0 -1 0 800)">
   <path fill="currentColor"
d="M501.875 737.29l257.812 -0.102539l6.06738 -1.67578c3.33691 -0.921875 8.53223 -2.88086 11.5449 -4.35254c3.01172 -1.4707 7.63477 -4.30273 10.2744 -6.29004c2.6377 -1.98828 6.28027 -5.23242 8.09375 -7.21094
c1.81348 -1.97754 4.82422 -5.93359 6.69141 -8.79102c1.86719 -2.85645 4.31836 -7.49707 5.44922 -10.3125c1.12988 -2.81445 2.57715 -7.36719 3.2168 -10.1172c1.12695 -4.8457 1.16211 -16.8184 1.16211 -388.438c0 -371.619 -0.0351562 -383.592 -1.16211 -388.438
c-0.639648 -2.75 -2.08691 -7.30273 -3.2168 -10.1172c-1.13086 -2.81543 -3.58203 -7.45605 -5.44922 -10.3125c-1.86719 -2.85742 -4.87793 -6.81348 -6.69141 -8.79102c-1.81348 -1.97852 -5.45605 -5.22266 -8.09375 -7.21094
c-2.63965 -1.9873 -7.2627 -4.81934 -10.2744 -6.29004c-3.0127 -1.47168 -8.20801 -3.40234 -11.5449 -4.29102c-5.11035 -1.35938 -7.49805 -1.62402 -15.1299 -1.67578c-6.7793 -0.0458984 -10.3223 0.229492 -14.0625 1.0957
c-2.75 0.635742 -7.10938 2.02441 -9.6875 3.08594s-6.375 2.91602 -8.4375 4.12012c-2.0625 1.20508 -52.0547 38.417 -111.093 82.6934l-107.342 80.5029l-108.596 -81.4268c-87.6113 -65.6943 -109.656 -81.9453 -114.09 -84.1045
c-3.02246 -1.47168 -8.22559 -3.37793 -11.5625 -4.23535c-3.73828 -0.960938 -8.70703 -1.69336 -12.9424 -1.90527c-4.91406 -0.248047 -8.53516 -0.0556641 -12.6963 0.670898c-3.20215 0.560547 -7.56152 1.60254 -9.6875 2.31738s-5.80957 2.27246 -8.18457 3.46387
c-2.375 1.18945 -5.89062 3.20117 -7.8125 4.46973s-5.63867 4.41797 -8.25977 6.99902c-2.62109 2.58008 -6.37695 7.16992 -8.3457 10.1992c-1.96973 3.02832 -4.50391 7.80957 -5.63477 10.625c-1.12988 2.81445 -2.57715 7.36719 -3.2168 10.1172
c-1.12695 4.8457 -1.16211 16.8184 -1.16211 388.438c0 371.62 0.0351562 383.593 1.16211 388.438c0.639648 2.75 2.08691 7.30273 3.2168 10.1172c1.13086 2.81543 3.66504 7.59668 5.63477 10.625c1.96875 3.0293 5.72461 7.61914 8.3457 10.1992
c2.62109 2.58105 6.33789 5.73047 8.25977 6.99902s5.4375 3.28027 7.8125 4.46973c2.375 1.19141 6.07324 2.75488 8.21875 3.47559c2.14453 0.720703 6.08203 1.70703 8.75 2.19043c4.12305 0.748047 43.4404 0.864258 262.661 0.776367h0.00195312zM500 612.5h-187.5
v-281.252v-281.252l76.0938 57.0703c41.8516 31.3896 77.7812 58.0557 79.8438 59.2598s5.85938 3.05664 8.4375 4.11816s6.9375 2.4502 9.6875 3.08594c3.74023 0.866211 7.2832 1.1416 14.0625 1.0957c7.63184 -0.0517578 10.0195 -0.316406 15.1299 -1.67578
c3.33691 -0.888672 8.54004 -2.81836 11.5625 -4.29004c4.38672 -2.13574 21.0889 -14.3672 82.8389 -60.667l77.3438 -57.9922v281.25v281.249h-187.5z" />
  </g>

</svg>
