<?xml version="1.0" standalone="no"?>
<!DOCTYPE svg PUBLIC "-//W3C//DTD SVG 1.1//EN" "http://www.w3.org/Graphics/SVG/1.1/DTD/svg11.dtd" >
<svg xmlns="http://www.w3.org/2000/svg" xmlns:xlink="http://www.w3.org/1999/xlink" version="1.1" viewBox="-10 0 1010 1000">
  <g transform="matrix(1 0 0 -1 0 800)">
   <path fill="currentColor"
d="M373.125 737.214c10.0312 -0.15625 12.3633 -0.391602 17.6104 -1.77441c3.3252 -0.875977 8.66895 -2.89648 11.875 -4.48926c3.20508 -1.5918 7.8623 -4.45312 10.3506 -6.35742c2.48828 -1.90527 5.98242 -5.05371 7.76367 -6.99707
c1.78223 -1.94336 4.75195 -5.84668 6.59961 -8.67285c1.84668 -2.82715 4.20605 -7.18652 5.24414 -9.6875c1.03711 -2.50195 2.48926 -6.93848 3.22754 -9.86035c1.06738 -4.22266 1.3418 -7.1709 1.3418 -14.375s-0.274414 -10.1523 -1.3418 -14.375
c-0.738281 -2.92188 -2.19043 -7.3584 -3.22754 -9.86035c-1.03809 -2.50098 -3.39746 -6.86035 -5.24414 -9.6875c-1.84766 -2.82617 -4.81738 -6.72949 -6.59961 -8.67285c-1.78125 -1.94336 -5.27539 -5.0918 -7.76367 -6.99707
c-2.48828 -1.9043 -7.14551 -4.76562 -10.3506 -6.35742c-3.20605 -1.59277 -8.5498 -3.59668 -11.875 -4.4541c-4.86621 -1.25488 -8.51562 -1.66602 -18.6826 -2.10742c-6.94922 -0.301758 -14.9648 -0.866211 -17.8125 -1.25391s-6.86523 -1.09668 -8.92773 -1.57422
c-2.0625 -0.476562 -5.37402 -1.42676 -7.35938 -2.11035c-1.98535 -0.68457 -5.28613 -2.1377 -7.33594 -3.22949c-2.04883 -1.0918 -5.02051 -3.37012 -6.60254 -5.06055c-1.58984 -1.7002 -3.78906 -5.08789 -4.91602 -7.57422
c-1.12207 -2.47363 -2.50098 -6.19727 -3.06445 -8.27344c-0.564453 -2.07617 -1.46191 -6.57617 -1.99512 -10c-0.606445 -3.89062 -1.19043 -14.3125 -1.55664 -27.7871c-0.323242 -11.8594 -0.881836 -25.0781 -1.24219 -29.375
c-0.361328 -4.29688 -1.08496 -11.4688 -1.60938 -15.9375s-1.65234 -12.3076 -2.50488 -17.4189c-0.852539 -5.1123 -2.52734 -13.5498 -3.71973 -18.75c-1.19336 -5.20117 -3.30762 -13.2529 -4.69824 -17.8936s-3.52637 -11.25 -4.74707 -14.6875
c-1.21973 -3.4375 -3.74219 -9.85449 -5.60449 -14.2598c-1.86328 -4.40527 -4.96289 -11.1553 -6.8877 -15c-1.92578 -3.84473 -4.78125 -9.24023 -6.34668 -11.9902s-5.20801 -8.63477 -8.09668 -13.0771c-2.8877 -4.44238 -7.73438 -11.333 -10.7715 -15.3125
s-9.14844 -11.3135 -13.5811 -16.2979c-4.43359 -4.98438 -12.1221 -12.8955 -17.085 -17.5801c-4.96387 -4.68457 -13.9473 -12.8184 -19.9629 -18.0762s-10.9375 -9.74414 -10.9375 -9.96875s4.92188 -4.71094 10.9375 -9.96875s14.999 -13.3916 19.9629 -18.0762
c4.96289 -4.68457 12.6514 -12.5957 17.085 -17.5801c4.43262 -4.98438 10.5439 -12.3184 13.5811 -16.2979s7.88379 -10.8701 10.7715 -15.3125c2.88867 -4.44238 6.53125 -10.3271 8.09668 -13.0771s4.55176 -8.40625 6.63574 -12.5703
c2.08496 -4.16309 5.18555 -10.9131 6.89062 -15c1.70605 -4.08594 4.09766 -10.2422 5.31641 -13.6797s3.35254 -10.0469 4.74316 -14.6875s3.50488 -12.6924 4.69824 -17.8936c1.19238 -5.2002 2.87207 -13.6377 3.73242 -18.75
c0.860352 -5.11133 2.12109 -14.3564 2.80176 -20.5439s1.41211 -13.9219 1.62598 -17.1875s0.62207 -12.8281 0.90625 -21.25c0.443359 -13.0879 0.717773 -15.9482 1.89258 -19.6875c0.755859 -2.40625 2.45898 -6.55762 3.78418 -9.22461
c1.3252 -2.66797 3.89648 -7.02734 5.71484 -9.6875c1.81836 -2.66113 5.98145 -7.5293 9.25195 -10.8184c3.27051 -3.29004 8.05566 -7.46484 10.6338 -9.27734s7.07812 -4.50195 10 -5.97754c2.92188 -1.47461 7.28125 -3.29199 9.6875 -4.03809
c2.8291 -0.87793 7.35938 -1.55957 12.8193 -1.93066c5.05469 -0.342773 10.8369 -1.18066 14.4062 -2.08594c3.2793 -0.832031 8.05762 -2.51465 10.6182 -3.74121c2.56152 -1.22559 6.48438 -3.43066 8.71875 -4.89941
c2.23438 -1.46777 6.20703 -4.78516 8.82812 -7.36914c2.62109 -2.58496 6.36035 -7.1543 8.30957 -10.1523c1.9502 -2.99902 4.39258 -7.49902 5.43066 -10c1.03711 -2.50195 2.48926 -6.93848 3.22754 -9.86035c1.06738 -4.22266 1.3418 -7.1709 1.3418 -14.375
s-0.274414 -10.1523 -1.3418 -14.375c-0.738281 -2.92188 -2.19043 -7.3584 -3.22754 -9.86035c-1.03809 -2.50098 -3.48047 -7.00098 -5.43066 -10c-1.94922 -2.99805 -5.68848 -7.56738 -8.30957 -10.1523c-2.62109 -2.58398 -6.59375 -5.90137 -8.82812 -7.36914
c-2.23438 -1.46875 -6.15723 -3.67383 -8.71875 -4.89941c-2.56055 -1.22656 -7.3418 -2.92285 -10.625 -3.77051c-3.93652 -1.0166 -8.52246 -1.66016 -13.4688 -1.88867c-4.125 -0.19043 -11.0156 -0.00878906 -15.3125 0.404297
c-4.29688 0.412109 -11.6094 1.44629 -16.25 2.29785s-9.98438 1.98242 -11.875 2.51172c-1.89062 0.530273 -5.6875 1.65039 -8.4375 2.48926c-2.75 0.839844 -8.375 2.84082 -12.5 4.44824s-11.1562 4.7793 -15.625 7.04785
c-4.46875 2.26953 -10.9766 5.90918 -14.4629 8.08984c-3.48535 2.18066 -8.8291 5.74316 -11.875 7.91797c-3.04492 2.17383 -8.20898 6.13184 -11.4746 8.7959c-3.26562 2.66309 -9.88086 8.78711 -14.7012 13.6084s-11.2461 11.8604 -14.2812 15.6416
s-8.23242 10.957 -11.5488 15.9463c-3.31738 4.98926 -7.77441 12.3018 -9.9043 16.25s-5.28809 10.4941 -7.01855 14.5469c-1.72949 4.05273 -3.99512 9.90918 -5.03613 13.0127c-1.04004 3.10547 -2.5625 8.08691 -3.38379 11.0693
c-0.821289 2.98438 -1.94531 7.53418 -2.49805 10.1123s-1.43457 7.64062 -1.96094 11.25s-1.21777 14.8594 -1.53711 25s-1.01953 22.5977 -1.55762 27.6826c-0.537109 5.08398 -1.53809 12.5371 -2.22461 16.5625c-0.685547 4.02441 -2.21094 10.9893 -3.38965 15.4766
c-1.17773 4.4873 -3.14746 10.9561 -4.37598 14.375s-3.88672 9.59082 -5.90625 13.7158c-2.02051 4.125 -5.34277 10.0312 -7.38281 13.125c-2.04102 3.09375 -5.49512 7.875 -7.67578 10.625s-7.64062 8.67969 -12.1348 13.1768
c-4.49316 4.49707 -14.9199 14.0947 -23.1699 21.3271s-17.8271 16.0684 -21.2822 19.6357c-3.45605 3.56641 -8.07324 8.73535 -10.2607 11.4854s-5.64746 7.53125 -7.68945 10.625s-5.22656 8.74316 -7.07617 12.5547c-1.85059 3.81055 -4.33887 9.9043 -5.53027 13.541
s-2.80273 9.7998 -3.58203 13.6953c-1.18066 5.9082 -1.41699 9.10742 -1.41699 19.2715s0.236328 13.3633 1.41699 19.2715c0.779297 3.89551 2.39355 10.083 3.58887 13.75c1.19434 3.66602 3.7002 9.79688 5.56836 13.6221
c1.86719 3.82617 5.35156 9.87305 7.74023 13.4375c2.39062 3.56543 6.58789 9.15332 9.3291 12.4189s8.18164 9.03906 12.0889 12.8311c3.9082 3.79102 12.7305 11.7793 19.6055 17.752c6.875 5.97363 16.1768 14.543 20.6699 19.0449
c4.49414 4.50098 9.9541 10.4346 12.1348 13.1846s5.63477 7.53125 7.67578 10.625c2.04004 3.09375 5.3623 9 7.38281 13.125c2.01953 4.125 4.67773 10.2969 5.90625 13.7158s3.19824 9.8877 4.37598 14.375c1.17871 4.4873 2.7041 11.4521 3.38965 15.4766
c0.686523 4.02539 1.69141 11.4785 2.2334 16.5625c0.542969 5.08496 1.2373 18.9482 1.54395 30.8076s0.999023 25.6992 1.53809 30.7559c0.540039 5.05664 1.55176 12.5098 2.24805 16.5625c0.697266 4.05273 2.08301 10.6074 3.0791 14.5654
c0.99707 3.95801 2.56445 9.58301 3.48242 12.5c0.918945 2.91699 2.7627 8.04688 4.0957 11.3994c1.33301 3.35352 3.99219 9.22461 5.91016 13.0488s5.06738 9.50781 6.99805 12.6289c1.93164 3.12207 5.6377 8.5 8.23633 11.9512s7.67676 9.33496 11.2871 13.0732
c3.60938 3.73926 9.375 9.06543 12.8125 11.8369c3.4375 2.77051 9.56836 7.21094 13.626 9.86816c4.05566 2.65723 10.8057 6.52539 15 8.59668c4.19238 2.07227 10.9385 5.04785 14.9893 6.61328c4.05176 1.56445 10.8018 3.84473 15 5.06543
c4.19922 1.22266 11.7129 3.04199 16.6973 4.0459c4.98438 1.00293 12.4375 2.25684 16.5625 2.78613s10.875 1.21875 15 1.5293c4.125 0.3125 12.7031 0.486328 19.0625 0.386719zM627.188 737.438c4.46777 0.0263672 12.2021 -0.233398 17.1865 -0.580078
c4.98438 -0.345703 12.4375 -1.05469 16.5625 -1.57617c4.125 -0.520508 11.5781 -1.76758 16.5625 -2.77051c4.98438 -1.00195 12.5557 -2.82812 16.8252 -4.05859c4.26953 -1.22949 11.4209 -3.67578 15.8906 -5.43652c4.4707 -1.76074 11.3633 -4.85645 15.3184 -6.87988
c3.9541 -2.02344 10.3037 -5.72754 14.1094 -8.23242c3.80566 -2.50391 9.73145 -6.81836 13.1689 -9.58691c3.4375 -2.76758 9.20312 -8.09277 12.8125 -11.832c3.61035 -3.73828 8.68848 -9.62207 11.2871 -13.0732s6.30566 -8.83008 8.23828 -11.9551
c1.93164 -3.12305 5.18652 -9.01855 7.23145 -13.0996c2.04395 -4.08105 5.17383 -11.3076 6.9541 -16.0596c1.7793 -4.75195 4.33203 -12.9365 5.67188 -18.1865c1.33887 -5.25098 3.00586 -12.835 3.7041 -16.8535c0.697266 -4.01953 1.70996 -11.4453 2.25 -16.502
c0.539062 -5.05664 1.23145 -18.8965 1.53809 -30.7559s1.00098 -25.7227 1.54395 -30.8076c0.541992 -5.08398 1.54688 -12.5371 2.2334 -16.5625c0.685547 -4.02441 2.21094 -10.9893 3.38965 -15.4766c1.17773 -4.4873 3.14746 -10.9561 4.37598 -14.375
s3.88672 -9.59082 5.90625 -13.7158c2.02051 -4.125 5.34277 -10.0312 7.38281 -13.125c2.04102 -3.09375 5.49219 -7.875 7.66895 -10.625s7.63672 -8.66992 12.1348 -13.1553c4.49707 -4.48535 13.8018 -13.0381 20.6768 -19.0068s16.7295 -15.0957 21.8984 -20.2822
s11.6377 -12.4258 14.375 -16.0859c2.7373 -3.66113 6.375 -9.00488 8.08301 -11.875c1.70898 -2.87109 4.43164 -8.1875 6.05078 -11.8154c1.62012 -3.62695 3.77637 -9.39258 4.79199 -12.8125c1.01562 -3.41895 2.3623 -9.0293 2.99316 -12.4668
c0.859375 -4.67969 1.14355 -9.2334 1.13184 -18.125c-0.0136719 -9.7334 -0.269531 -13.1523 -1.41797 -18.959c-0.770508 -3.89551 -2.37598 -10.0586 -3.56738 -13.6953s-3.67969 -9.73047 -5.53027 -13.541c-1.84961 -3.81152 -5.03418 -9.46094 -7.07617 -12.5547
s-5.50195 -7.875 -7.68945 -10.625c-2.18652 -2.75 -6.80371 -7.91797 -10.2598 -11.4834s-13.1729 -12.5449 -21.5947 -19.9551c-8.42188 -7.40918 -18.8477 -17.0088 -23.1689 -21.3301s-9.64062 -10.1064 -11.8223 -12.8564s-5.63574 -7.53125 -7.67676 -10.625
c-2.04004 -3.09375 -5.3623 -9 -7.38281 -13.125c-2.01953 -4.125 -4.67773 -10.2969 -5.90625 -13.7158s-3.19824 -9.8877 -4.37598 -14.375c-1.17871 -4.4873 -2.7041 -11.4521 -3.38965 -15.4766c-0.686523 -4.02539 -1.6875 -11.4785 -2.22461 -16.5625
c-0.538086 -5.08496 -1.24023 -17.542 -1.56055 -27.6826c-0.321289 -10.1406 -0.883789 -20.5469 -1.24902 -23.125c-0.366211 -2.57812 -1.23926 -7.64062 -1.94238 -11.25c-0.701172 -3.60938 -1.69531 -8.10938 -2.20996 -10
c-0.512695 -1.89062 -2.0625 -6.9248 -3.44238 -11.1865c-1.38086 -4.26172 -4.0332 -11.2812 -5.89551 -15.5986c-1.8623 -4.31836 -5.09961 -10.9561 -7.19336 -14.752c-2.09375 -3.79492 -5.92285 -10.127 -8.50977 -14.0693
c-2.58691 -3.94336 -6.42188 -9.42773 -8.52051 -12.1875c-2.09961 -2.76074 -6.66211 -8.2627 -10.1396 -12.2275s-9.24902 -9.92969 -12.8252 -13.2549s-9.17383 -8.19434 -12.4395 -10.8203c-3.26562 -2.625 -10.0195 -7.48828 -15.0088 -10.8066
c-4.99023 -3.31934 -12.3027 -7.77734 -16.25 -9.90723c-3.94824 -2.12988 -10.4141 -5.25391 -14.3691 -6.94238c-3.9541 -1.6875 -9.71973 -3.92871 -12.8125 -4.98145c-3.0918 -1.05176 -8.15332 -2.61523 -11.2471 -3.47363s-8.57812 -2.13672 -12.1875 -2.83984
s-8.8125 -1.58789 -11.5625 -1.96484c-2.75 -0.37793 -9.21875 -0.84375 -14.375 -1.03711c-7.15234 -0.266602 -10.7559 -0.107422 -15.1963 0.669922c-3.20215 0.55957 -7.56152 1.60254 -9.6875 2.31641c-2.12598 0.714844 -5.69824 2.2002 -7.93848 3.30078
c-2.23926 1.10059 -5.75488 3.1123 -7.8125 4.47168c-2.05664 1.35742 -5.88477 4.58105 -8.50586 7.16211c-2.62109 2.58008 -6.36035 7.14551 -8.30957 10.1436c-1.9502 2.99902 -4.39258 7.49902 -5.43066 10c-1.03711 2.50195 -2.48926 6.93848 -3.22754 9.86035
c-1.06738 4.22363 -1.3418 7.1709 -1.3418 14.375s0.274414 10.1523 1.3418 14.375c0.738281 2.92188 2.19043 7.3584 3.22754 9.86035c1.03809 2.50098 3.40039 6.86035 5.25195 9.6875c1.85156 2.82617 4.69238 6.60449 6.3125 8.39355
c1.62012 1.79004 4.68848 4.62891 6.81934 6.30762c2.12988 1.67969 5.55957 4.0293 7.62207 5.22266c2.0625 1.19238 5.85938 3.03418 8.4375 4.09375c2.57812 1.05859 6.78906 2.39453 9.35645 2.96875c2.56836 0.574219 8.33398 1.29199 12.8125 1.59473
c5.11328 0.347656 9.77148 1.05176 12.5186 1.89453c2.40625 0.738281 6.55762 2.42578 9.22461 3.75098c2.66797 1.3252 7.02734 3.89648 9.6875 5.71289c2.66113 1.81738 7.65527 6.12207 11.0986 9.56445c3.44336 3.44336 7.74707 8.4375 9.56445 11.0986
c1.81641 2.66016 4.3877 7.01953 5.71289 9.6875c1.3252 2.66699 3.02832 6.81836 3.78613 9.22461c1.18164 3.75879 1.44824 6.57715 1.89355 20c0.285156 8.59375 0.694336 18.1562 0.910156 21.25c0.214844 3.09375 0.943359 10.6875 1.61914 16.875
c0.674805 6.1875 2.06152 16.1191 3.0791 22.0703c1.01855 5.95215 2.81738 14.8115 3.99805 19.6875c1.18066 4.87695 3.16895 12.2422 4.41797 16.3672s3.2666 10.3125 4.4834 13.75s3.60742 9.59375 5.31348 13.6797c1.70508 4.08691 4.80566 10.8369 6.89062 15
c2.08398 4.16406 5.07031 9.82031 6.63574 12.5703s5.18164 8.59375 8.03613 12.9863c2.85547 4.39258 7.35742 10.8467 10.0059 14.3428c2.64746 3.49609 7.33691 9.3252 10.4209 12.9512c3.08398 3.62695 10.1328 11.1006 15.6641 16.6074
c5.53223 5.50684 15.9639 15.1816 23.1826 21.498s13.125 11.6865 13.125 11.9326c0 0.24707 -5.0625 4.87109 -11.25 10.2764c-6.1875 5.40625 -15.1709 13.5303 -19.9639 18.0537c-4.79199 4.52441 -12.3408 12.3047 -16.7725 17.2891
c-4.43359 4.98438 -10.543 12.3184 -13.5811 16.2979c-3.03711 3.98047 -7.88379 10.8701 -10.7715 15.3125c-2.88867 4.44238 -6.53125 10.3271 -8.09668 13.0771s-4.55176 8.40625 -6.63574 12.5703c-2.08496 4.16309 -5.18555 10.9131 -6.89062 15
c-1.70605 4.08594 -4.09668 10.2422 -5.31348 13.6797s-3.2334 9.625 -4.48145 13.75c-1.24902 4.125 -3.24512 11.5596 -4.4375 16.5234c-1.19141 4.96191 -2.86328 12.9775 -3.71484 17.8125c-0.851562 4.83301 -2.09863 13.2891 -2.77148 18.7891
c-0.671875 5.5 -1.52441 13.6035 -1.89258 18.0049c-0.368164 4.40234 -0.924805 17.6211 -1.2373 29.375c-0.358398 13.4268 -0.929688 23.6836 -1.54004 27.5947c-0.535156 3.42383 -1.43262 7.92383 -1.99707 10c-0.563477 2.07617 -1.94238 5.7998 -3.06445 8.27344
c-1.13281 2.49805 -3.32617 5.87402 -4.93359 7.59277c-1.62793 1.74121 -4.72656 4.04395 -7.08594 5.26758c-2.30664 1.19629 -6.02148 2.75781 -8.25586 3.47168c-2.23535 0.712891 -6.17285 1.71484 -8.75 2.22656c-2.57812 0.509766 -7.92285 1.22559 -11.875 1.58984
c-3.95312 0.364258 -10.0342 0.663086 -13.5117 0.664062c-3.47852 0.000976562 -8.7793 0.429688 -11.7793 0.953125s-7.18555 1.5332 -9.30078 2.24414s-5.78906 2.26562 -8.16406 3.45703c-2.375 1.18945 -5.89062 3.20117 -7.8125 4.46973
s-5.63867 4.41797 -8.25977 6.99902c-2.62109 2.58008 -6.36035 7.14551 -8.30957 10.1436c-1.9502 2.99902 -4.39258 7.49902 -5.43066 10c-1.03711 2.50195 -2.48926 6.93848 -3.22754 9.86035c-1.06738 4.22363 -1.3418 7.1709 -1.3418 14.375
s0.274414 10.1523 1.3418 14.375c0.738281 2.92188 2.19043 7.3584 3.22754 9.86035c1.03809 2.50098 3.48047 7.00098 5.43066 10c1.94922 2.99902 5.68848 7.56445 8.30957 10.1445c2.62109 2.58105 6.44922 5.80469 8.50586 7.16211
c2.05762 1.35938 5.57324 3.37109 7.8125 4.47168c2.24023 1.10059 5.82715 2.59082 7.97266 3.31152c2.14453 0.719727 6.08203 1.7041 8.75 2.18652c2.66699 0.482422 8.50586 0.899414 12.9746 0.926758z" />
  </g>

</svg>
