<?xml version="1.0" standalone="no"?>
<!DOCTYPE svg PUBLIC "-//W3C//DTD SVG 1.1//EN" "http://www.w3.org/Graphics/SVG/1.1/DTD/svg11.dtd" >
<svg xmlns="http://www.w3.org/2000/svg" xmlns:xlink="http://www.w3.org/1999/xlink" version="1.1" viewBox="-10 0 1010 1000">
  <g transform="matrix(1 0 0 -1 0 800)">
   <path fill="currentColor"
d="M501.875 674.791l195.312 -0.103516l6.06738 -1.67578c3.33691 -0.921875 8.53223 -2.88086 11.5449 -4.35254c3.01172 -1.4707 7.63477 -4.30273 10.2744 -6.29004c2.6377 -1.98828 6.28027 -5.23242 8.09375 -7.21094
c1.81348 -1.97754 4.80859 -5.90918 6.65625 -8.73535c1.84668 -2.82715 4.20605 -7.18652 5.24219 -9.6875c1.03711 -2.50195 2.49219 -6.79785 3.2334 -9.54785c1.33496 -4.95215 1.35059 -5.63672 1.54297 -72.3252l0.194336 -67.3252l67.3252 -0.180664
l67.3252 -0.180664l6.06738 -1.66992c3.33691 -0.918945 8.53223 -2.875 11.5449 -4.34668c3.01172 -1.4707 7.63477 -4.30273 10.2744 -6.29004c2.6377 -1.98828 6.28027 -5.23242 8.09375 -7.21094c1.81348 -1.97754 4.82422 -5.93359 6.69141 -8.79102
c1.86719 -2.85645 4.31836 -7.49707 5.44922 -10.3125c1.12988 -2.81445 2.57715 -7.36719 3.2168 -10.1172c1.12305 -4.83203 1.16211 -13.6855 1.16211 -263.438c0 -249.752 -0.0390625 -258.604 -1.16211 -263.438c-0.639648 -2.75 -2.08691 -7.30273 -3.2168 -10.1172
c-1.13086 -2.81543 -3.58203 -7.45605 -5.44922 -10.3125c-1.86719 -2.85742 -4.87793 -6.81348 -6.69141 -8.79102c-1.81348 -1.97852 -5.45605 -5.22266 -8.09375 -7.21094c-2.63965 -1.9873 -7.2627 -4.81934 -10.2744 -6.29004
c-3.0127 -1.47168 -8.20801 -3.43066 -11.5449 -4.35254l-6.06738 -1.67578l-382.188 -0.161133c-339.481 -0.143555 -382.803 -0.0546875 -387.696 0.788086c-3.03027 0.522461 -7.24902 1.53418 -9.375 2.24902s-5.80957 2.27246 -8.18457 3.46387
c-2.375 1.18945 -5.89062 3.20117 -7.8125 4.46973s-5.63867 4.41797 -8.25977 6.99902c-2.62109 2.58008 -6.37695 7.16992 -8.3457 10.1992c-1.96973 3.02832 -4.50391 7.80957 -5.63477 10.625c-1.12988 2.81445 -2.57715 7.36719 -3.2168 10.1172
c-1.12305 4.83203 -1.16211 13.6855 -1.16211 263.438c0 249.753 0.0390625 258.605 1.16211 263.438c0.639648 2.75 2.08691 7.30273 3.2168 10.1172c1.13086 2.81543 3.66504 7.59668 5.63477 10.625c1.96875 3.0293 5.72461 7.61914 8.3457 10.1992
c2.62109 2.58105 6.33789 5.73047 8.25977 6.99902s5.4375 3.28027 7.8125 4.46973c2.375 1.19141 6.04883 2.74609 8.16406 3.45703s6.30078 1.7207 9.30078 2.24414c4.64746 0.810547 15.0547 0.951172 70.3545 0.951172h64.8994l0.194336 67.3438
c0.192383 66.707 0.208008 67.3916 1.54297 72.3438c0.741211 2.75 2.19629 7.0459 3.2334 9.54785c1.03613 2.50098 3.47852 7.00098 5.42871 10c1.94922 2.99805 5.68848 7.56348 8.30957 10.1436c2.62109 2.58105 6.33789 5.73047 8.25977 6.99902
s5.4375 3.28027 7.8125 4.46973c2.375 1.19141 6.07324 2.75488 8.21875 3.47559c2.14453 0.720703 6.08203 1.70703 8.75 2.19141c4.11133 0.746094 34.5742 0.864258 200.162 0.776367h0.000976562zM500 550h-125v-31.25v-31.25h125h125v31.25v31.25h-125z
M340.781 362.443l-153.281 0.0566406v-42.7393c0 -40.1611 0.0664062 -42.7598 1.09375 -43.0742c0.601562 -0.183594 5.17188 -2.06543 10.1562 -4.18164s14.9902 -6.06152 22.2344 -8.76758s19.1973 -6.92188 26.5625 -9.36914s19.7188 -6.27344 27.4531 -8.50195
s21.375 -5.85352 30.3125 -8.05371s22.5781 -5.27441 30.3125 -6.83105s18.9844 -3.66016 25 -4.6748c6.01562 -1.01367 15.8594 -2.55469 21.875 -3.42383c6.01562 -0.868164 17.4062 -2.28711 25.3125 -3.15234s19.5781 -1.99707 25.9375 -2.51562
c6.35938 -0.519531 17.6094 -1.27441 25 -1.67969c7.39062 -0.40625 25.9531 -0.738281 41.25 -0.740234c15.2969 -0.000976562 33.7188 0.333008 40.9375 0.744141c7.21875 0.410156 18.4688 1.16211 25 1.67188c6.53125 0.508789 17.2188 1.49805 23.75 2.19824
s16.9375 1.97559 23.125 2.83398s17.0586 2.52832 24.1572 3.71191c7.09863 1.18262 17.9268 3.14551 24.0625 4.36133s17.25 3.61816 24.6982 5.33887c7.44824 1.72168 19.2607 4.67969 26.25 6.57422c6.98926 1.89355 17.3477 4.86328 23.0195 6.59961
c5.67188 1.73535 14.9531 4.70801 20.625 6.60547s15.2344 5.27246 21.25 7.49902c6.01562 2.22754 16.4922 6.32227 23.2812 9.09863l12.3438 5.04883v42.71v42.709l-153.281 -0.0566406c-126.594 -0.046875 -152.514 -0.195312 -148.875 -0.856445
c2.42383 -0.44043 6.08008 -1.28418 8.125 -1.87402c2.0459 -0.59082 6.10156 -2.2334 9.0127 -3.65137c2.91211 -1.41797 7.45312 -4.20508 10.0928 -6.19238c2.6377 -1.98828 6.28027 -5.23242 8.09375 -7.21094c1.81348 -1.97754 4.80859 -5.90918 6.65625 -8.73535
c1.84668 -2.82715 4.20605 -7.18652 5.24414 -9.6875c1.03711 -2.50195 2.49316 -6.93848 3.2373 -9.86035c1.11621 -4.38672 1.34277 -7.00098 1.29883 -15c-0.0429688 -7.7627 -0.313477 -10.6484 -1.36426 -14.5264
c-0.72168 -2.66113 -1.99121 -6.52344 -2.82324 -8.58105c-0.831055 -2.05859 -2.68164 -5.78711 -4.11133 -8.28613s-4.20801 -6.43555 -6.1709 -8.74805c-1.96484 -2.31348 -5.25977 -5.6416 -7.32227 -7.39746c-2.0625 -1.75488 -5.85938 -4.43848 -8.4375 -5.96289
s-6.79688 -3.58496 -9.375 -4.5791c-2.57812 -0.995117 -6.9375 -2.29102 -9.6875 -2.87988c-3.21191 -0.688477 -7.79395 -1.07227 -12.8125 -1.07227c-5.00977 0 -9.59375 0.382812 -12.7783 1.06738c-2.73047 0.586914 -7.50586 2.08301 -10.6104 3.32617
c-3.10547 1.24316 -8.0791 3.8877 -11.0537 5.87695s-7.4043 5.61328 -9.84277 8.05176c-2.43945 2.43945 -5.67383 6.31152 -7.18945 8.60449c-1.51465 2.29297 -3.59766 5.85645 -4.62891 7.91895s-2.58594 6.00684 -3.45605 8.76465
c-0.869141 2.75879 -1.92578 7.37793 -2.34863 10.2656c-0.46875 3.20508 -0.620117 7.8252 -0.389648 11.8604c0.208008 3.63477 0.933594 8.85938 1.6123 11.6094s2.08203 7.0459 3.11914 9.54785c1.03613 2.50098 3.47852 7.00098 5.42871 10
c1.94922 2.99805 5.68848 7.56348 8.30957 10.1436c2.62109 2.58105 6.33789 5.73047 8.25977 6.99902s5.4375 3.28027 7.8125 4.46973c2.375 1.19141 6.07324 2.75488 8.21875 3.47559c2.14453 0.720703 6.08203 1.70508 8.75 2.1875
c4.22559 0.764648 -14.8857 0.883789 -148.432 0.932617zM187.706 142.5c-0.113281 0 -0.206055 -34.875 -0.206055 -77.5v-77.5h312.5h312.5v77.5c0 42.625 -0.181641 77.5 -0.40332 77.5c-0.220703 0 -5.77637 -1.84766 -12.3438 -4.10645
s-18.6904 -6.16895 -26.9404 -8.68945s-21.8906 -6.4248 -30.3125 -8.67578s-20.0938 -5.20996 -25.9375 -6.57617s-15.9688 -3.61426 -22.5 -4.99609s-18.2031 -3.63086 -25.9375 -4.99707s-18.8438 -3.21094 -24.6875 -4.09863s-17.2344 -2.44531 -25.3125 -3.46094
s-20.875 -2.41797 -28.4375 -3.11621s-20.2188 -1.68848 -28.125 -2.20215c-7.90625 -0.512695 -24.0781 -1.24414 -35.9375 -1.625s-29.7188 -0.514648 -39.6875 -0.296875s-23.8906 0.666016 -30.9375 0.99707s-18.7188 1.03223 -25.9375 1.55957
s-18.6094 1.51074 -25.3125 2.18652c-6.70312 0.676758 -16.6875 1.79688 -22.1875 2.49121s-15.7656 2.11523 -22.8125 3.15723c-7.04688 1.04297 -16.0469 2.45605 -20 3.1416s-12.3906 2.23242 -18.75 3.4375c-6.35938 1.20605 -17.8906 3.60352 -25.625 5.32812
c-7.73438 1.72559 -19.5469 4.53711 -26.25 6.24805c-6.70312 1.71191 -19.0781 5.08301 -27.5 7.49219s-23.7275 7.17578 -34.0127 10.5908c-10.2852 3.41602 -18.793 6.21094 -18.9062 6.21094z" />
  </g>

</svg>
