<?xml version="1.0" standalone="no"?>
<!DOCTYPE svg PUBLIC "-//W3C//DTD SVG 1.1//EN" "http://www.w3.org/Graphics/SVG/1.1/DTD/svg11.dtd" >
<svg xmlns="http://www.w3.org/2000/svg" xmlns:xlink="http://www.w3.org/1999/xlink" version="1.1" viewBox="-10 0 1010 1000">
  <g transform="matrix(1 0 0 -1 0 800)">
   <path fill="currentColor"
d="M501.875 674.724c5.66602 -0.179688 9.47949 -0.679688 13.8799 -1.81836c3.33691 -0.863281 8.53223 -2.77441 11.5449 -4.24609c3.01172 -1.4707 7.63477 -4.30273 10.2744 -6.29004c2.6377 -1.98828 6.28027 -5.23242 8.09375 -7.21094
c1.81348 -1.97754 4.80859 -5.90918 6.65625 -8.73535c1.84668 -2.82715 4.20605 -7.18652 5.24414 -9.6875c1.03711 -2.50195 2.49316 -6.93848 3.2373 -9.86035c1.11621 -4.38672 1.34277 -7.00098 1.29883 -15c-0.0429688 -7.7627 -0.313477 -10.6484 -1.36426 -14.5264
c-0.72168 -2.66113 -1.99121 -6.52344 -2.82324 -8.58105c-0.831055 -2.05859 -2.68164 -5.78711 -4.11133 -8.28613s-4.20801 -6.43555 -6.1709 -8.74805c-1.96484 -2.31348 -5.25977 -5.6416 -7.32227 -7.39746c-2.0625 -1.75488 -5.85938 -4.43848 -8.4375 -5.96289
s-6.79688 -3.58496 -9.375 -4.5791c-2.57812 -0.995117 -6.9375 -2.29102 -9.6875 -2.87988c-3.21191 -0.688477 -7.79395 -1.07227 -12.8125 -1.07227c-5.00977 0 -9.59375 0.382812 -12.7783 1.06738c-2.73047 0.586914 -7.50586 2.08301 -10.6104 3.32617
c-3.10547 1.24316 -8.0791 3.8877 -11.0537 5.87695s-7.4043 5.61328 -9.84277 8.05176c-2.43945 2.43945 -5.67383 6.31152 -7.18945 8.60449c-1.51465 2.29297 -3.59766 5.85645 -4.62891 7.91895s-2.58594 6.00684 -3.45605 8.76465
c-0.869141 2.75879 -1.92578 7.37793 -2.34863 10.2656c-0.46875 3.20508 -0.620117 7.8252 -0.389648 11.8604c0.208008 3.63477 0.933594 8.85938 1.6123 11.6094s2.08203 7.0459 3.11914 9.54785c1.03613 2.50098 3.47852 7.00098 5.42871 10
c1.94922 2.99805 5.68848 7.56348 8.30957 10.1436c2.62109 2.58105 6.33789 5.73047 8.25977 6.99902s5.4375 3.28027 7.8125 4.46973c2.375 1.19141 6.07324 2.75488 8.21875 3.47559c2.14453 0.720703 6.08203 1.72461 8.75 2.22949
c3.25293 0.617188 7.4209 0.837891 12.6621 0.670898zM283.125 580.974c5.66602 -0.179688 9.47949 -0.679688 13.8799 -1.81836c3.33691 -0.863281 8.53223 -2.77441 11.5449 -4.24609c3.01172 -1.4707 7.63477 -4.30273 10.2744 -6.29004
c2.6377 -1.98828 6.28027 -5.23242 8.09375 -7.21094c1.81348 -1.97754 4.80859 -5.90918 6.65625 -8.73535c1.84668 -2.82715 4.20605 -7.18652 5.24414 -9.6875c1.03711 -2.50195 2.49316 -6.93848 3.2373 -9.86035c1.11621 -4.38672 1.34277 -7.00098 1.29883 -15
c-0.0429688 -7.7627 -0.313477 -10.6484 -1.36426 -14.5264c-0.72168 -2.66113 -1.99121 -6.52344 -2.82324 -8.58105c-0.831055 -2.05859 -2.68164 -5.78711 -4.11133 -8.28613s-4.20801 -6.43555 -6.1709 -8.74805c-1.96484 -2.31348 -5.25977 -5.6416 -7.32227 -7.39746
c-2.0625 -1.75488 -5.85938 -4.43848 -8.4375 -5.96289s-6.79688 -3.58496 -9.375 -4.5791c-2.57812 -0.995117 -6.9375 -2.29102 -9.6875 -2.87988c-3.21191 -0.688477 -7.79395 -1.07227 -12.8125 -1.07227c-5.00977 0 -9.59375 0.382812 -12.7783 1.06738
c-2.73047 0.586914 -7.50586 2.08301 -10.6104 3.32617c-3.10547 1.24316 -8.0791 3.8877 -11.0537 5.87695s-7.4043 5.61328 -9.84277 8.05176c-2.43945 2.43945 -5.67383 6.31152 -7.18945 8.60449c-1.51465 2.29297 -3.59766 5.85645 -4.62891 7.91895
s-2.58594 6.00684 -3.45605 8.76465c-0.869141 2.75879 -1.92578 7.37793 -2.34863 10.2656c-0.46875 3.20508 -0.620117 7.8252 -0.389648 11.8604c0.208008 3.63477 0.933594 8.85938 1.6123 11.6094s2.08203 7.0459 3.11914 9.54785
c1.03613 2.50098 3.47852 7.00098 5.42871 10c1.94922 2.99805 5.68848 7.56348 8.30957 10.1436c2.62109 2.58105 6.33789 5.73047 8.25977 6.99902s5.4375 3.28027 7.8125 4.46973c2.375 1.19141 6.07324 2.75488 8.21875 3.47559
c2.14453 0.720703 6.08203 1.72461 8.75 2.22949c3.25293 0.617188 7.4209 0.837891 12.6621 0.670898zM720.625 580.974c5.66602 -0.179688 9.47949 -0.679688 13.8799 -1.81836c3.33691 -0.863281 8.53223 -2.77441 11.5449 -4.24609
c3.01172 -1.4707 7.63477 -4.30273 10.2744 -6.29004c2.6377 -1.98828 6.28027 -5.23242 8.09375 -7.21094c1.81348 -1.97754 4.80859 -5.90918 6.65625 -8.73535c1.84668 -2.82715 4.20605 -7.18652 5.24414 -9.6875c1.03711 -2.50195 2.49316 -6.93848 3.2373 -9.86035
c1.11621 -4.38672 1.34277 -7.00098 1.29883 -15c-0.0429688 -7.7627 -0.313477 -10.6484 -1.36426 -14.5264c-0.72168 -2.66113 -1.99121 -6.52344 -2.82324 -8.58105c-0.831055 -2.05859 -2.68164 -5.78711 -4.11133 -8.28613s-4.20801 -6.43555 -6.1709 -8.74805
c-1.96484 -2.31348 -5.25977 -5.6416 -7.32227 -7.39746c-2.0625 -1.75488 -5.85938 -4.43848 -8.4375 -5.96289s-6.79688 -3.58496 -9.375 -4.5791c-2.57812 -0.995117 -6.9375 -2.29102 -9.6875 -2.87988c-3.21191 -0.688477 -7.79395 -1.07227 -12.8125 -1.07227
c-5.00977 0 -9.59375 0.382812 -12.7783 1.06738c-2.73047 0.586914 -7.50586 2.08301 -10.6104 3.32617c-3.10547 1.24316 -8.0791 3.8877 -11.0537 5.87695s-7.4043 5.61328 -9.84277 8.05176c-2.43945 2.43945 -5.67383 6.31152 -7.18945 8.60449
c-1.51465 2.29297 -3.59766 5.85645 -4.62891 7.91895s-2.58594 6.00684 -3.45605 8.76465c-0.869141 2.75879 -1.92578 7.37793 -2.34863 10.2656c-0.46875 3.20508 -0.620117 7.8252 -0.389648 11.8604c0.208008 3.63477 0.933594 8.85938 1.6123 11.6094
s2.08203 7.0459 3.11914 9.54785c1.03613 2.50098 3.47852 7.00098 5.42871 10c1.94922 2.99805 5.68848 7.56348 8.30957 10.1436c2.62109 2.58105 6.33789 5.73047 8.25977 6.99902s5.4375 3.28027 7.8125 4.46973c2.375 1.19141 6.07324 2.75488 8.21875 3.47559
c2.14453 0.720703 6.08203 1.72461 8.75 2.22949c3.25293 0.617188 7.4209 0.837891 12.6621 0.670898zM503.438 487.146c7.5625 -0.133789 16.8438 -0.669922 20.625 -1.19238c3.78027 -0.522461 9.80859 -1.54199 13.3936 -2.26367
c3.58496 -0.722656 9.43066 -2.13184 12.9902 -3.13184c3.55957 -0.999023 10.0479 -3.10254 14.418 -4.6748c4.37109 -1.57227 12.166 -4.92578 17.3232 -7.45312c5.15625 -2.52734 12.5732 -6.58691 16.4834 -9.02051c3.9082 -2.43457 10.2354 -6.78418 14.0625 -9.66797
c3.8252 -2.88281 10.0479 -8.05371 13.8291 -11.4912c3.78125 -3.43652 9.44727 -9.16016 12.5918 -12.7197c3.14355 -3.55859 7.25 -8.43848 9.125 -10.8447c1.87402 -2.40625 5.36914 -7.32715 7.76758 -10.9375c2.39746 -3.60938 5.81055 -9.11914 7.58398 -12.2432
c1.77344 -3.12598 4.52051 -8.46973 6.10449 -11.875c1.58301 -3.40625 3.97754 -9.07617 5.31934 -12.6006c1.34375 -3.52441 3.41211 -9.60938 4.59766 -13.5215c1.18652 -3.91211 2.9873 -11.2949 4.00293 -16.4062c1.01562 -5.10938 2.22363 -12.2432 2.68555 -15.8535
c0.492188 -3.84961 0.838867 -12.6338 0.838867 -21.25c0 -8.61523 -0.34668 -17.4004 -0.838867 -21.25c-0.461914 -3.60938 -1.66992 -10.7432 -2.68555 -15.8525c-1.01562 -5.11035 -2.81641 -12.4941 -4.00293 -16.4062
c-1.18555 -3.91211 -3.25391 -9.99707 -4.59766 -13.5215c-1.3418 -3.52441 -3.73633 -9.19434 -5.31934 -12.6006c-1.58398 -3.40527 -4.33105 -8.74902 -6.10449 -11.875c-1.77344 -3.125 -5.18652 -8.63477 -7.58398 -12.2441
c-2.39844 -3.60938 -5.89062 -8.53125 -7.76172 -10.9375c-1.87012 -2.40625 -6.23145 -7.53809 -9.69043 -11.4053c-3.45801 -3.86621 -9.26855 -9.67773 -12.9111 -12.9141c-3.6416 -3.23633 -8.87207 -7.62402 -11.6221 -9.75s-7.67188 -5.61914 -10.9375 -7.76367
s-9.03125 -5.62793 -12.8125 -7.74121c-3.78125 -2.1123 -10.1094 -5.27539 -14.0625 -7.0293c-3.95312 -1.75293 -11.6875 -4.68848 -17.1875 -6.52246c-5.5 -1.83301 -13.2871 -4.06445 -17.3047 -4.95703s-10.0645 -2.03906 -13.4375 -2.5459
c-3.37305 -0.507812 -9.92969 -1.24414 -14.5703 -1.63574c-4.90723 -0.415039 -13.0137 -0.55957 -19.375 -0.34375c-6.01562 0.204102 -14.1133 0.798828 -17.9961 1.32129c-3.88281 0.523438 -10.6328 1.68652 -15 2.58496
c-4.36719 0.899414 -11.1055 2.59277 -14.9717 3.76367c-3.86621 1.17188 -9.91309 3.22754 -13.4375 4.57129c-3.52441 1.3418 -9.19434 3.73633 -12.6006 5.31934c-3.40527 1.58398 -8.74902 4.33105 -11.875 6.10449c-3.125 1.77344 -8.63477 5.18652 -12.2441 7.58398
c-3.60938 2.39844 -8.53125 5.89062 -10.9375 7.76172c-2.40625 1.87012 -7.53906 6.23145 -11.4053 9.69043c-3.86621 3.45801 -9.67773 9.26855 -12.9141 12.9102c-3.23633 3.64258 -7.62402 8.87207 -9.75 11.623c-2.12598 2.75 -5.61328 7.67188 -7.75 10.9375
s-5.33984 8.49414 -7.11719 11.6182c-1.77734 3.12598 -4.52734 8.46973 -6.11133 11.875c-1.58301 3.40625 -3.97754 9.07617 -5.31934 12.6006c-1.34375 3.52441 -3.41211 9.60938 -4.59766 13.5215c-1.18652 3.91211 -2.9873 11.2949 -4.00293 16.4062
c-1.01562 5.10938 -2.22559 12.2432 -2.68945 15.8535c-0.507812 3.95703 -0.834961 12.5166 -0.823242 21.5625c0.0107422 8.54004 0.363281 17.5566 0.818359 20.9375c0.439453 3.26562 1.49707 9.68262 2.35059 14.2598
c0.853516 4.57812 2.50977 11.6514 3.68066 15.7207c1.17188 4.06934 3.38086 10.7305 4.91016 14.8027c1.5293 4.07129 4.0791 10.1904 5.66699 13.5977c1.58691 3.40527 4.33984 8.74902 6.11719 11.875c1.77734 3.125 4.98047 8.35352 7.11719 11.6191
c2.13672 3.26465 5.62402 8.1875 7.75 10.9375s6.51367 7.98047 9.75 11.6221s9.04785 9.45215 12.9141 12.9102c3.86621 3.45898 8.99902 7.82031 11.4053 9.69043c2.40625 1.87109 7.32812 5.36328 10.9375 7.76172c3.60938 2.39746 9.11914 5.81055 12.2441 7.58398
c3.12598 1.77344 8.46973 4.52051 11.875 6.10449c3.40625 1.58301 9.07617 3.97754 12.6006 5.31934c3.52441 1.34375 9.60938 3.41211 13.5215 4.59766c3.91211 1.18652 11.2949 2.98926 16.4053 4.00781c5.10938 1.01758 12.2441 2.16211 15.8535 2.54297
s7.54688 0.803711 8.75 0.94043c1.20312 0.134766 8.375 0.136719 15.9385 0.00292969zM189.375 362.224c5.66602 -0.179688 9.47949 -0.679688 13.8799 -1.81836c3.33691 -0.863281 8.53223 -2.77441 11.5449 -4.24609c3.01172 -1.4707 7.63477 -4.30273 10.2744 -6.29004
c2.6377 -1.98828 6.28027 -5.23242 8.09375 -7.21094c1.81348 -1.97754 4.80859 -5.90918 6.65625 -8.73535c1.84668 -2.82715 4.20605 -7.18652 5.24414 -9.6875c1.03711 -2.50195 2.49316 -6.93848 3.2373 -9.86035c1.11621 -4.38672 1.34277 -7.00098 1.29883 -15
c-0.0429688 -7.7627 -0.313477 -10.6484 -1.36426 -14.5264c-0.72168 -2.66113 -1.99121 -6.52344 -2.82324 -8.58105c-0.831055 -2.05859 -2.68164 -5.78711 -4.11133 -8.28613s-4.20801 -6.43555 -6.1709 -8.74805c-1.96484 -2.31348 -5.25977 -5.6416 -7.32227 -7.39746
c-2.0625 -1.75488 -5.85938 -4.43848 -8.4375 -5.96289s-6.79688 -3.58496 -9.375 -4.5791c-2.57812 -0.995117 -6.9375 -2.29102 -9.6875 -2.87988c-3.21191 -0.688477 -7.79395 -1.07227 -12.8125 -1.07227c-5.00977 0 -9.59375 0.382812 -12.7783 1.06738
c-2.73047 0.586914 -7.50586 2.08301 -10.6104 3.32617c-3.10547 1.24316 -8.0791 3.8877 -11.0537 5.87695s-7.4043 5.61328 -9.84277 8.05176c-2.43945 2.43945 -5.67383 6.31152 -7.18945 8.60449c-1.51465 2.29297 -3.59766 5.85645 -4.62891 7.91895
s-2.58594 6.00684 -3.45605 8.76465c-0.869141 2.75879 -1.92578 7.37793 -2.34863 10.2656c-0.46875 3.20508 -0.620117 7.8252 -0.389648 11.8604c0.208008 3.63477 0.933594 8.85938 1.6123 11.6094s2.08203 7.0459 3.11914 9.54785
c1.03613 2.50098 3.47852 7.00098 5.42871 10c1.94922 2.99805 5.68848 7.56348 8.30957 10.1436c2.62109 2.58105 6.33789 5.73047 8.25977 6.99902s5.4375 3.28027 7.8125 4.46973c2.375 1.19141 6.07324 2.75488 8.21875 3.47559
c2.14453 0.720703 6.08203 1.72461 8.75 2.22949c3.25293 0.617188 7.4209 0.837891 12.6621 0.670898zM501.875 362.194c-4.29688 0.121094 -8.51562 0.0898438 -9.375 -0.0683594s-3.67188 -0.732422 -6.25 -1.27637
c-2.57812 -0.542969 -6.97266 -1.9043 -9.7666 -3.02539c-2.79395 -1.12207 -7.15332 -3.37793 -9.6875 -5.01367s-6.27734 -4.41406 -8.31934 -6.17383c-2.04004 -1.75879 -5.45801 -5.4082 -7.5957 -8.10742s-5.19238 -7.53809 -6.78809 -10.752
c-1.59473 -3.21387 -3.6377 -8.59961 -4.54004 -11.9668c-1.43555 -5.36133 -1.63965 -7.32715 -1.63965 -15.8105c0 -8.4248 0.208984 -10.4658 1.60059 -15.6562c0.880859 -3.2832 2.60352 -8.06445 3.83008 -10.625c1.22559 -2.56152 3.42773 -6.48438 4.89258 -8.71875
s4.82031 -6.22852 7.45703 -8.87598c2.6377 -2.64648 7.19336 -6.37598 10.125 -8.28711c2.93066 -1.91113 7.31445 -4.31836 9.74023 -5.35156c2.42676 -1.03223 6.87891 -2.49707 9.89551 -3.25488c4.49023 -1.12891 7.18164 -1.37207 14.8584 -1.34277
c8.00195 0.0302734 10.249 0.269531 15.3438 1.63184c3.2832 0.876953 8.06445 2.59766 10.625 3.82422c2.56152 1.22559 6.48438 3.43066 8.71875 4.89941c2.23438 1.46777 6.20703 4.78516 8.82812 7.36914c2.62109 2.58496 6.35059 7.13867 8.28711 10.1182
c1.9375 2.97949 4.36621 7.40234 5.39941 9.82812c1.03223 2.42676 2.49707 6.87891 3.25488 9.89551c1.12891 4.49023 1.37207 7.18164 1.34277 14.8584c-0.0302734 8.00195 -0.269531 10.249 -1.63184 15.3438c-0.876953 3.2832 -2.59766 8.06445 -3.82422 10.625
c-1.22559 2.56152 -3.34277 6.34375 -4.70605 8.40625c-1.36133 2.0625 -4.05957 5.49707 -5.99512 7.63379c-1.93555 2.13574 -5.69336 5.52148 -8.34961 7.52344c-2.65527 2.00195 -7.29395 4.84375 -10.3057 6.31445c-3.0127 1.47168 -8.20801 3.38281 -11.5449 4.24609
c-4.46777 1.15625 -8.12793 1.62793 -13.8799 1.78906zM814.375 362.224c5.66602 -0.179688 9.47949 -0.679688 13.8799 -1.81836c3.33691 -0.863281 8.53223 -2.77441 11.5449 -4.24609c3.01172 -1.4707 7.63477 -4.30273 10.2744 -6.29004
c2.6377 -1.98828 6.28027 -5.23242 8.09375 -7.21094c1.81348 -1.97754 4.80859 -5.90918 6.65625 -8.73535c1.84668 -2.82715 4.20605 -7.18652 5.24414 -9.6875c1.03711 -2.50195 2.49316 -6.93848 3.2373 -9.86035c1.11621 -4.38672 1.34277 -7.00098 1.29883 -15
c-0.0429688 -7.7627 -0.313477 -10.6484 -1.36426 -14.5264c-0.72168 -2.66113 -1.99121 -6.52344 -2.82324 -8.58105c-0.831055 -2.05859 -2.68164 -5.78711 -4.11133 -8.28613s-4.20801 -6.43555 -6.1709 -8.74805c-1.96484 -2.31348 -5.25977 -5.6416 -7.32227 -7.39746
c-2.0625 -1.75488 -5.85938 -4.43848 -8.4375 -5.96289s-6.79688 -3.58496 -9.375 -4.5791c-2.57812 -0.995117 -6.9375 -2.29102 -9.6875 -2.87988c-3.21191 -0.688477 -7.79395 -1.07227 -12.8125 -1.07227c-5.00977 0 -9.59375 0.382812 -12.7783 1.06738
c-2.73047 0.586914 -7.50586 2.08301 -10.6104 3.32617c-3.10547 1.24316 -8.0791 3.8877 -11.0537 5.87695s-7.4043 5.61328 -9.84277 8.05176c-2.43945 2.43945 -5.67383 6.31152 -7.18945 8.60449c-1.51465 2.29297 -3.59766 5.85645 -4.62891 7.91895
s-2.58594 6.00684 -3.45605 8.76465c-0.869141 2.75879 -1.92578 7.37793 -2.34863 10.2656c-0.46875 3.20508 -0.620117 7.8252 -0.389648 11.8604c0.208008 3.63477 0.933594 8.85938 1.6123 11.6094s2.08203 7.0459 3.11914 9.54785
c1.03613 2.50098 3.47852 7.00098 5.42871 10c1.94922 2.99805 5.68848 7.56348 8.30957 10.1436c2.62109 2.58105 6.33789 5.73047 8.25977 6.99902s5.4375 3.28027 7.8125 4.46973c2.375 1.19141 6.07324 2.75488 8.21875 3.47559
c2.14453 0.720703 6.08203 1.72461 8.75 2.22949c3.25293 0.617188 7.4209 0.837891 12.6621 0.670898zM283.125 143.474c5.66602 -0.179688 9.47949 -0.679688 13.8799 -1.81836c3.33691 -0.863281 8.53223 -2.77441 11.5449 -4.24609
c3.01172 -1.4707 7.63477 -4.30273 10.2744 -6.29004c2.6377 -1.98828 6.28027 -5.23242 8.09375 -7.21094c1.81348 -1.97754 4.80859 -5.90918 6.65625 -8.73535c1.84668 -2.82715 4.20605 -7.18652 5.24414 -9.6875c1.03711 -2.50195 2.49316 -6.93848 3.2373 -9.86035
c1.11621 -4.38672 1.34277 -7.00098 1.29883 -15c-0.0429688 -7.7627 -0.313477 -10.6484 -1.36426 -14.5264c-0.72168 -2.66113 -1.99121 -6.52344 -2.82324 -8.58105c-0.831055 -2.05859 -2.68164 -5.78711 -4.11133 -8.28613s-4.20801 -6.43555 -6.1709 -8.74805
c-1.96484 -2.31348 -5.25977 -5.6416 -7.32227 -7.39746c-2.0625 -1.75488 -5.85938 -4.43848 -8.4375 -5.96289s-6.79688 -3.58496 -9.375 -4.5791c-2.57812 -0.995117 -6.9375 -2.2959 -9.6875 -2.8916c-3.24414 -0.702148 -7.74414 -1.08203 -12.8125 -1.08203
c-5.06055 0 -9.56152 0.379883 -12.7783 1.07812c-2.73047 0.591797 -7.50586 2.09375 -10.6104 3.33691c-3.10547 1.24316 -8.0791 3.8877 -11.0537 5.87695s-7.4043 5.61328 -9.84277 8.05176c-2.43945 2.43945 -5.67383 6.31152 -7.18945 8.60449
c-1.51465 2.29297 -3.59766 5.85645 -4.62891 7.91895s-2.58594 6.00684 -3.45605 8.76465c-0.869141 2.75879 -1.92578 7.37793 -2.34863 10.2656c-0.46875 3.20508 -0.620117 7.8252 -0.389648 11.8604c0.208008 3.63477 0.933594 8.85938 1.6123 11.6094
s2.08203 7.0459 3.11914 9.54785c1.03613 2.50098 3.47852 7.00098 5.42871 10c1.94922 2.99805 5.68848 7.56348 8.30957 10.1436c2.62109 2.58105 6.33789 5.73047 8.25977 6.99902s5.4375 3.28027 7.8125 4.46973c2.375 1.19141 6.07324 2.75488 8.21875 3.47559
c2.14453 0.720703 6.08203 1.72461 8.75 2.22949c3.25293 0.617188 7.4209 0.837891 12.6621 0.670898zM720.625 143.474c5.66602 -0.179688 9.47949 -0.679688 13.8799 -1.81836c3.33691 -0.863281 8.53223 -2.77441 11.5449 -4.24609
c3.01172 -1.4707 7.63477 -4.30273 10.2744 -6.29004c2.6377 -1.98828 6.28027 -5.23242 8.09375 -7.21094c1.81348 -1.97754 4.80859 -5.90918 6.65625 -8.73535c1.84668 -2.82715 4.20605 -7.18652 5.24414 -9.6875c1.03711 -2.50195 2.49316 -6.93848 3.2373 -9.86035
c1.11621 -4.38672 1.34277 -7.00098 1.29883 -15c-0.0429688 -7.7627 -0.313477 -10.6484 -1.36426 -14.5264c-0.72168 -2.66113 -1.99121 -6.52344 -2.82324 -8.58105c-0.831055 -2.05859 -2.68164 -5.78711 -4.11133 -8.28613s-4.20801 -6.43555 -6.1709 -8.74805
c-1.96484 -2.31348 -5.25977 -5.6416 -7.32227 -7.39746c-2.0625 -1.75488 -5.85938 -4.43848 -8.4375 -5.96289s-6.79688 -3.58496 -9.375 -4.5791c-2.57812 -0.995117 -6.9375 -2.2959 -9.6875 -2.8916c-3.24414 -0.702148 -7.74414 -1.08203 -12.8125 -1.08203
c-5.06055 0 -9.56152 0.379883 -12.7783 1.07812c-2.73047 0.591797 -7.50586 2.09375 -10.6104 3.33691c-3.10547 1.24316 -8.0791 3.8877 -11.0537 5.87695s-7.4043 5.61328 -9.84277 8.05176c-2.43945 2.43945 -5.67383 6.31152 -7.18945 8.60449
c-1.51465 2.29297 -3.59766 5.85645 -4.62891 7.91895s-2.58594 6.00684 -3.45605 8.76465c-0.869141 2.75879 -1.92578 7.37793 -2.34863 10.2656c-0.46875 3.20508 -0.620117 7.8252 -0.389648 11.8604c0.208008 3.63477 0.933594 8.85938 1.6123 11.6094
s2.08203 7.0459 3.11914 9.54785c1.03613 2.50098 3.47852 7.00098 5.42871 10c1.94922 2.99805 5.68848 7.56348 8.30957 10.1436c2.62109 2.58105 6.33789 5.73047 8.25977 6.99902s5.4375 3.28027 7.8125 4.46973c2.375 1.19141 6.07324 2.75488 8.21875 3.47559
c2.14453 0.720703 6.08203 1.72461 8.75 2.22949c3.25293 0.617188 7.4209 0.837891 12.6621 0.670898zM501.875 49.7236v0c5.66602 -0.179688 9.47949 -0.679688 13.8799 -1.81836c3.33691 -0.863281 8.53223 -2.77441 11.5449 -4.24609
c3.01172 -1.4707 7.63477 -4.30273 10.2744 -6.29004c2.6377 -1.98828 6.28027 -5.23242 8.09375 -7.21094c1.81348 -1.97754 4.80859 -5.90918 6.65625 -8.73535c1.84668 -2.82715 4.20605 -7.18652 5.24414 -9.6875c1.03711 -2.50195 2.49316 -6.93848 3.2373 -9.86035
c1.11621 -4.38672 1.34277 -7.00098 1.29883 -15c-0.0429688 -7.7627 -0.313477 -10.6484 -1.36426 -14.5264c-0.72168 -2.66113 -1.99121 -6.52344 -2.82324 -8.58105c-0.831055 -2.05859 -2.68164 -5.78711 -4.11133 -8.28613s-4.20801 -6.43555 -6.1709 -8.74805
c-1.96484 -2.31348 -5.25977 -5.6416 -7.32227 -7.39746c-2.0625 -1.75488 -5.85938 -4.43848 -8.4375 -5.96289s-6.79688 -3.58496 -9.375 -4.5791c-2.57812 -0.995117 -6.9375 -2.2959 -9.6875 -2.8916c-3.24414 -0.702148 -7.74414 -1.08203 -12.8125 -1.08203
c-5.06055 0 -9.56152 0.379883 -12.7783 1.07812c-2.73047 0.591797 -7.50586 2.09375 -10.6104 3.33691c-3.10547 1.24316 -8.0791 3.8877 -11.0537 5.87695s-7.4043 5.61328 -9.84277 8.05176c-2.43945 2.43945 -5.67383 6.31152 -7.18945 8.60449
c-1.51465 2.29297 -3.59766 5.85645 -4.62891 7.91895s-2.58594 6.00684 -3.45605 8.76465c-0.869141 2.75879 -1.92578 7.37793 -2.34863 10.2656c-0.46875 3.20508 -0.620117 7.8252 -0.389648 11.8604c0.208008 3.63477 0.933594 8.85938 1.6123 11.6094
s2.08203 7.0459 3.11914 9.54785c1.03613 2.50098 3.47852 7.00098 5.42871 10c1.94922 2.99805 5.68848 7.56348 8.30957 10.1436c2.62109 2.58105 6.33789 5.73047 8.25977 6.99902s5.4375 3.28027 7.8125 4.46973c2.375 1.19141 6.07324 2.75488 8.21875 3.47559
c2.14453 0.720703 6.08203 1.72461 8.75 2.22949c3.25293 0.617188 7.4209 0.837891 12.6621 0.670898z" />
  </g>

</svg>
