<?xml version="1.0" standalone="no"?>
<!DOCTYPE svg PUBLIC "-//W3C//DTD SVG 1.1//EN" "http://www.w3.org/Graphics/SVG/1.1/DTD/svg11.dtd" >
<svg xmlns="http://www.w3.org/2000/svg" xmlns:xlink="http://www.w3.org/1999/xlink" version="1.1" viewBox="-10 0 1010 1000">
  <g transform="matrix(1 0 0 -1 0 800)">
   <path fill="currentColor"
d="M501.875 737.224c5.66602 -0.179688 9.47949 -0.679688 13.8799 -1.81836c3.33691 -0.863281 8.53223 -2.77441 11.5449 -4.24609c3.01172 -1.4707 7.63477 -4.30273 10.2744 -6.29004c2.6377 -1.98828 6.28027 -5.23242 8.09375 -7.21094
c1.81348 -1.97754 4.82422 -5.93359 6.69141 -8.79102c1.86719 -2.85645 4.31836 -7.49707 5.44922 -10.3125c1.12988 -2.81445 2.57715 -7.36719 3.2168 -10.1172c1.06836 -4.59668 1.16211 -8.20312 1.16211 -44.6875s-0.09375 -40.0908 -1.16211 -44.6875
c-0.639648 -2.75 -2.08691 -7.30273 -3.2168 -10.1172c-1.13086 -2.81543 -3.58203 -7.45605 -5.44922 -10.3125c-1.86719 -2.85742 -4.87793 -6.81348 -6.69141 -8.79102c-1.81348 -1.97852 -5.45605 -5.22266 -8.09375 -7.21094
c-2.63965 -1.9873 -7.2627 -4.81934 -10.2744 -6.29004c-3.0127 -1.47168 -8.20801 -3.37793 -11.5449 -4.23535c-3.73828 -0.960938 -8.70703 -1.69336 -12.9424 -1.90527c-4.91406 -0.248047 -8.53516 -0.0556641 -12.6963 0.670898
c-3.20215 0.560547 -7.56152 1.60254 -9.6875 2.31738s-5.80957 2.27246 -8.18457 3.46387c-2.375 1.18945 -5.89062 3.20117 -7.8125 4.46973s-5.63867 4.41797 -8.25977 6.99902c-2.62109 2.58008 -6.37695 7.16992 -8.3457 10.1992
c-1.96973 3.02832 -4.50391 7.80957 -5.63477 10.625c-1.12988 2.81445 -2.57715 7.36719 -3.2168 10.1172c-1.06836 4.59668 -1.16211 8.20312 -1.16211 44.6875s0.09375 40.0908 1.16211 44.6875c0.639648 2.75 2.08691 7.30273 3.2168 10.1172
c1.13086 2.81543 3.66504 7.59668 5.63477 10.625c1.96875 3.0293 5.72461 7.61914 8.3457 10.1992c2.62109 2.58105 6.33789 5.73047 8.25977 6.99902s5.4375 3.28027 7.8125 4.46973c2.375 1.19141 6.07324 2.75488 8.21875 3.47559
c2.14453 0.720703 6.08203 1.72461 8.75 2.22949c3.25293 0.617188 7.4209 0.837891 12.6621 0.670898zM189.375 674.724c5.66602 -0.179688 9.47949 -0.679688 13.8799 -1.81836c3.33691 -0.863281 8.53223 -2.77441 11.5449 -4.24609
c3.01172 -1.4707 7.59375 -4.28223 10.1816 -6.24707c2.58887 -1.96387 20.2178 -19.1299 39.1758 -38.1475c28.9736 -29.0635 35.0332 -35.4463 37.998 -40.0293c1.93945 -2.99902 4.375 -7.49902 5.41309 -10c1.03711 -2.50195 2.48926 -6.93848 3.22754 -9.86035
c1.06738 -4.22266 1.3418 -7.1709 1.3418 -14.375s-0.274414 -10.1523 -1.3418 -14.375c-0.738281 -2.92188 -2.19043 -7.3584 -3.22754 -9.86035c-1.03809 -2.50098 -3.39746 -6.86035 -5.24414 -9.6875c-1.84766 -2.82617 -4.84277 -6.75781 -6.65625 -8.73535
c-1.81348 -1.97852 -5.45605 -5.22266 -8.09375 -7.21094c-2.63965 -1.9873 -7.2627 -4.81934 -10.2744 -6.29004c-3.0127 -1.47168 -8.20801 -3.40234 -11.5449 -4.29102c-5.11035 -1.35938 -7.49805 -1.62402 -15.1299 -1.67578
c-6.7793 -0.0458984 -10.3223 0.229492 -14.0625 1.0957c-2.75 0.635742 -7.10938 2.02441 -9.6875 3.08594s-6.375 2.90527 -8.4375 4.09766c-2.0625 1.19336 -5.4375 3.51074 -7.5 5.15039s-19.1211 18.4004 -37.9072 37.2451
c-28.6924 28.7812 -34.7217 35.1357 -37.6855 39.7158c-1.93945 2.99902 -4.375 7.49902 -5.41309 10c-1.03711 2.50195 -2.48926 6.93848 -3.22754 9.86035c-1.06738 4.22266 -1.3418 7.1709 -1.3418 14.375s0.274414 10.1523 1.3418 14.375
c0.738281 2.92188 2.19043 7.3584 3.22754 9.86035c1.03809 2.50098 3.48047 7.00098 5.43066 10c1.94922 2.99805 5.68848 7.56348 8.30957 10.1436c2.62109 2.58105 6.33789 5.73047 8.25977 6.99902s5.4375 3.28027 7.8125 4.46973
c2.375 1.19141 6.07324 2.75488 8.21875 3.47559c2.14453 0.720703 6.08203 1.72461 8.75 2.22949c3.25293 0.617188 7.4209 0.837891 12.6621 0.670898zM814.375 674.724c5.66602 -0.179688 9.47949 -0.679688 13.8799 -1.81836
c3.33691 -0.863281 8.53223 -2.77441 11.5449 -4.24609c3.01172 -1.4707 7.63477 -4.30273 10.2744 -6.29004c2.6377 -1.98828 6.28027 -5.23242 8.09375 -7.21094c1.81348 -1.97754 4.80859 -5.90918 6.65625 -8.73535c1.84668 -2.82715 4.20605 -7.18652 5.24414 -9.6875
c1.03711 -2.50195 2.48926 -6.93848 3.22754 -9.86035c1.06738 -4.22266 1.3418 -7.1709 1.3418 -14.375s-0.274414 -10.1523 -1.3418 -14.375c-0.738281 -2.92188 -2.19043 -7.3584 -3.22754 -9.86035c-1.03809 -2.50098 -3.47363 -7.00098 -5.41309 -10
c-2.96484 -4.58301 -9.02441 -10.9658 -37.998 -40.0293c-18.958 -19.0176 -36.5869 -36.1836 -39.1758 -38.1475c-2.58789 -1.96484 -7.16992 -4.77637 -10.1816 -6.24707c-3.0127 -1.47168 -8.20801 -3.37793 -11.5449 -4.23535
c-3.73828 -0.960938 -8.70703 -1.69336 -12.9424 -1.90527c-4.91406 -0.248047 -8.53516 -0.0556641 -12.6963 0.670898c-3.20215 0.560547 -7.56152 1.60254 -9.6875 2.31738s-5.80957 2.27246 -8.18457 3.46387c-2.375 1.18945 -5.89062 3.20117 -7.8125 4.46973
s-5.63867 4.41797 -8.25977 6.99902c-2.62109 2.58008 -6.36035 7.14551 -8.30957 10.1436c-1.9502 2.99902 -4.39258 7.49902 -5.43066 10c-1.03711 2.50195 -2.48926 6.93848 -3.22754 9.86035c-1.06738 4.22266 -1.3418 7.1709 -1.3418 14.375
s0.274414 10.1523 1.3418 14.375c0.738281 2.92188 2.19043 7.3584 3.22754 9.86035c1.03809 2.50098 3.4707 7.00098 5.40625 10c2.99121 4.63379 8.93066 10.8545 39.5596 41.4414c21.6973 21.667 37.4307 36.8887 39.5342 38.248
c1.92188 1.24316 5.4375 3.2334 7.8125 4.42285c2.375 1.19141 6.07324 2.75488 8.21875 3.47559c2.14453 0.720703 6.08203 1.72461 8.75 2.22949c3.25293 0.617188 7.4209 0.837891 12.6621 0.670898zM503.438 487.146
c7.5625 -0.133789 16.8438 -0.669922 20.625 -1.19238c3.78027 -0.522461 9.80859 -1.54199 13.3936 -2.26367c3.58496 -0.722656 9.43066 -2.13184 12.9902 -3.13184c3.55957 -0.999023 10.0479 -3.10254 14.418 -4.6748
c4.37109 -1.57227 12.166 -4.92578 17.3232 -7.45312c5.15625 -2.52734 12.5732 -6.58691 16.4834 -9.02051c3.9082 -2.43457 10.2354 -6.78418 14.0625 -9.66797c3.8252 -2.88281 10.0479 -8.05371 13.8291 -11.4912c3.78125 -3.43652 9.44727 -9.16016 12.5918 -12.7197
c3.14355 -3.55859 7.25 -8.43848 9.125 -10.8447c1.87402 -2.40625 5.36914 -7.32715 7.76758 -10.9375c2.39746 -3.60938 5.81055 -9.11914 7.58398 -12.2432c1.77344 -3.12598 4.52051 -8.46973 6.10449 -11.875c1.58301 -3.40625 3.97754 -9.07617 5.31934 -12.6006
c1.34375 -3.52441 3.41211 -9.60938 4.59766 -13.5215c1.18652 -3.91211 2.9873 -11.2949 4.00293 -16.4062c1.01562 -5.10938 2.22363 -12.2432 2.68555 -15.8535c0.492188 -3.84961 0.838867 -12.6338 0.838867 -21.25c0 -8.61523 -0.34668 -17.4004 -0.838867 -21.25
c-0.461914 -3.60938 -1.66992 -10.7432 -2.68555 -15.8525c-1.01562 -5.11035 -2.81641 -12.4941 -4.00293 -16.4062c-1.18555 -3.91211 -3.25391 -9.99707 -4.59766 -13.5215c-1.3418 -3.52441 -3.73633 -9.19434 -5.31934 -12.6006
c-1.58398 -3.40527 -4.33105 -8.74902 -6.10449 -11.875c-1.77344 -3.125 -5.18652 -8.63477 -7.58398 -12.2441c-2.39844 -3.60938 -5.89062 -8.53125 -7.76172 -10.9375c-1.87012 -2.40625 -6.23145 -7.53809 -9.69043 -11.4053
c-3.45801 -3.86621 -9.26855 -9.67773 -12.9111 -12.9141c-3.6416 -3.23633 -8.87207 -7.62402 -11.6221 -9.75s-7.67188 -5.61914 -10.9375 -7.76367s-9.03125 -5.62793 -12.8125 -7.74121c-3.78125 -2.1123 -10.1094 -5.27539 -14.0625 -7.0293
c-3.95312 -1.75293 -11.6875 -4.68848 -17.1875 -6.52246c-5.5 -1.83301 -13.2871 -4.06445 -17.3047 -4.95703s-10.0645 -2.03906 -13.4375 -2.5459c-3.37305 -0.507812 -9.92969 -1.24414 -14.5703 -1.63574c-4.90723 -0.415039 -13.0137 -0.55957 -19.375 -0.34375
c-6.01562 0.204102 -14.1133 0.798828 -17.9961 1.32129c-3.88281 0.523438 -10.6328 1.68652 -15 2.58496c-4.36719 0.899414 -11.1055 2.59277 -14.9717 3.76367c-3.86621 1.17188 -9.91309 3.22754 -13.4375 4.57129c-3.52441 1.3418 -9.19434 3.73633 -12.6006 5.31934
c-3.40527 1.58398 -8.74902 4.33105 -11.875 6.10449c-3.125 1.77344 -8.63477 5.18652 -12.2441 7.58398c-3.60938 2.39844 -8.53125 5.89062 -10.9375 7.76172c-2.40625 1.87012 -7.53906 6.23145 -11.4053 9.69043c-3.86621 3.45801 -9.67773 9.26855 -12.9141 12.9102
c-3.23633 3.64258 -7.62402 8.87207 -9.75 11.623c-2.12598 2.75 -5.61328 7.67188 -7.75 10.9375s-5.33984 8.49414 -7.11719 11.6182c-1.77734 3.12598 -4.52734 8.46973 -6.11133 11.875c-1.58301 3.40625 -3.97754 9.07617 -5.31934 12.6006
c-1.34375 3.52441 -3.41211 9.60938 -4.59766 13.5215c-1.18652 3.91211 -2.9873 11.2949 -4.00293 16.4062c-1.01562 5.10938 -2.22559 12.2432 -2.68945 15.8535c-0.507812 3.95703 -0.834961 12.5166 -0.823242 21.5625
c0.0107422 8.54004 0.363281 17.5566 0.818359 20.9375c0.439453 3.26562 1.49707 9.68262 2.35059 14.2598c0.853516 4.57812 2.50977 11.6514 3.68066 15.7207c1.17188 4.06934 3.38086 10.7305 4.91016 14.8027c1.5293 4.07129 4.0791 10.1904 5.66699 13.5977
c1.58691 3.40527 4.33984 8.74902 6.11719 11.875c1.77734 3.125 4.98047 8.35352 7.11719 11.6191c2.13672 3.26465 5.62402 8.1875 7.75 10.9375s6.51367 7.98047 9.75 11.6221s9.04785 9.45215 12.9141 12.9102c3.86621 3.45898 8.99902 7.82031 11.4053 9.69043
c2.40625 1.87109 7.32812 5.36328 10.9375 7.76172c3.60938 2.39746 9.11914 5.81055 12.2441 7.58398c3.12598 1.77344 8.46973 4.52051 11.875 6.10449c3.40625 1.58301 9.07617 3.97754 12.6006 5.31934c3.52441 1.34375 9.60938 3.41211 13.5215 4.59766
c3.91211 1.18652 11.2949 2.98926 16.4053 4.00781c5.10938 1.01758 12.2441 2.16211 15.8535 2.54297s7.54688 0.803711 8.75 0.94043c1.20312 0.134766 8.375 0.136719 15.9385 0.00292969zM158.125 362.284l39.0625 -0.133789l6.06738 -1.65723
c3.33691 -0.912109 8.53223 -2.8623 11.5449 -4.33398c3.01172 -1.4707 7.63477 -4.30273 10.2744 -6.29004c2.6377 -1.98828 6.28027 -5.23242 8.09375 -7.21094c1.81348 -1.97754 4.80859 -5.90918 6.65625 -8.73535c1.84668 -2.82715 4.20605 -7.18652 5.24414 -9.6875
c1.03711 -2.50195 2.48926 -6.93848 3.22754 -9.86035c1.06738 -4.22266 1.3418 -7.1709 1.3418 -14.375s-0.274414 -10.1523 -1.3418 -14.375c-0.738281 -2.92188 -2.19043 -7.3584 -3.22754 -9.86035c-1.03809 -2.50098 -3.39746 -6.86035 -5.24414 -9.6875
c-1.84766 -2.82617 -4.84277 -6.75781 -6.65625 -8.73535c-1.81348 -1.97852 -5.45605 -5.22266 -8.09375 -7.21094c-2.63965 -1.9873 -7.2627 -4.81934 -10.2744 -6.29004c-3.0127 -1.47168 -8.20801 -3.42188 -11.5449 -4.33301l-6.06738 -1.65625l-38.2939 -0.207031
c-32.5381 -0.175781 -39.1426 -0.0605469 -43.9463 0.768555c-3.1084 0.537109 -7.39258 1.56055 -9.51855 2.27539s-5.80957 2.27246 -8.18457 3.46387c-2.375 1.18945 -5.89062 3.20117 -7.8125 4.46973s-5.63867 4.41797 -8.25977 6.99902
c-2.62109 2.58008 -6.36035 7.14551 -8.30957 10.1436c-1.9502 2.99902 -4.39258 7.49902 -5.43066 10c-1.03711 2.50195 -2.48926 6.93848 -3.22754 9.86035c-1.06738 4.22266 -1.3418 7.1709 -1.3418 14.375s0.274414 10.1523 1.3418 14.375
c0.738281 2.92188 2.19043 7.3584 3.22754 9.86035c1.03809 2.50098 3.48047 7.00098 5.43066 10c1.94922 2.99805 5.68848 7.56348 8.30957 10.1436c2.62109 2.58105 6.33789 5.73047 8.25977 6.99902s5.4375 3.28027 7.8125 4.46973
c2.375 1.19141 6.07324 2.75488 8.21875 3.47559c2.14453 0.720703 6.08203 1.71191 8.75 2.20312c3.92383 0.72168 12.3105 0.866211 43.9121 0.757812zM501.875 362.194c-4.29688 0.121094 -8.51562 0.0898438 -9.375 -0.0683594s-3.67188 -0.732422 -6.25 -1.27637
c-2.57812 -0.542969 -6.97266 -1.9043 -9.7666 -3.02539c-2.79395 -1.12207 -7.15332 -3.37793 -9.6875 -5.01367s-6.27734 -4.41406 -8.31934 -6.17383c-2.04004 -1.75879 -5.45801 -5.4082 -7.5957 -8.10742s-5.19238 -7.53809 -6.78809 -10.752
c-1.59473 -3.21387 -3.6377 -8.59961 -4.54004 -11.9668c-1.43555 -5.36133 -1.63965 -7.32715 -1.63965 -15.8105c0 -8.4248 0.208984 -10.4658 1.60059 -15.6562c0.880859 -3.2832 2.60352 -8.06445 3.83008 -10.625c1.22559 -2.56152 3.42773 -6.48438 4.89258 -8.71875
s4.82031 -6.22852 7.45703 -8.87598c2.6377 -2.64648 7.19336 -6.37598 10.125 -8.28711c2.93066 -1.91113 7.31445 -4.31836 9.74023 -5.35156c2.42676 -1.03223 6.87891 -2.49707 9.89551 -3.25488c4.49023 -1.12891 7.18164 -1.37207 14.8584 -1.34277
c8.00195 0.0302734 10.249 0.269531 15.3438 1.63184c3.2832 0.876953 8.06445 2.59766 10.625 3.82422c2.56152 1.22559 6.48438 3.43066 8.71875 4.89941c2.23438 1.46777 6.20703 4.78516 8.82812 7.36914c2.62109 2.58496 6.35059 7.13867 8.28711 10.1182
c1.9375 2.97949 4.36621 7.40234 5.39941 9.82812c1.03223 2.42676 2.49707 6.87891 3.25488 9.89551c1.12891 4.49023 1.37207 7.18164 1.34277 14.8584c-0.0302734 8.00195 -0.269531 10.249 -1.63184 15.3438c-0.876953 3.2832 -2.59766 8.06445 -3.82422 10.625
c-1.22559 2.56152 -3.34277 6.34375 -4.70605 8.40625c-1.36133 2.0625 -4.05957 5.49707 -5.99512 7.63379c-1.93555 2.13574 -5.69336 5.52148 -8.34961 7.52344c-2.65527 2.00195 -7.29395 4.84375 -10.3057 6.31445c-3.0127 1.47168 -8.20801 3.38281 -11.5449 4.24609
c-4.46777 1.15625 -8.12793 1.62793 -13.8799 1.78906zM845.625 362.284l39.0625 -0.133789l6.06738 -1.65723c3.33691 -0.912109 8.53223 -2.8623 11.5449 -4.33398c3.01172 -1.4707 7.63477 -4.30273 10.2744 -6.29004c2.6377 -1.98828 6.28027 -5.23242 8.09375 -7.21094
c1.81348 -1.97754 4.80859 -5.90918 6.65625 -8.73535c1.84668 -2.82715 4.20605 -7.18652 5.24414 -9.6875c1.03711 -2.50195 2.48926 -6.93848 3.22754 -9.86035c1.06738 -4.22266 1.3418 -7.1709 1.3418 -14.375s-0.274414 -10.1523 -1.3418 -14.375
c-0.738281 -2.92188 -2.19043 -7.3584 -3.22754 -9.86035c-1.03809 -2.50098 -3.39746 -6.86035 -5.24414 -9.6875c-1.84766 -2.82617 -4.84277 -6.75781 -6.65625 -8.73535c-1.81348 -1.97852 -5.45605 -5.22266 -8.09375 -7.21094
c-2.63965 -1.9873 -7.2627 -4.81934 -10.2744 -6.29004c-3.0127 -1.47168 -8.20801 -3.42188 -11.5449 -4.33301l-6.06738 -1.65625l-38.2939 -0.207031c-32.5381 -0.175781 -39.1426 -0.0605469 -43.9463 0.768555c-3.1084 0.537109 -7.39258 1.56055 -9.51855 2.27539
s-5.80957 2.27246 -8.18457 3.46387c-2.375 1.18945 -5.89062 3.20117 -7.8125 4.46973s-5.63867 4.41797 -8.25977 6.99902c-2.62109 2.58008 -6.36035 7.14551 -8.30957 10.1436c-1.9502 2.99902 -4.39258 7.49902 -5.43066 10
c-1.03711 2.50195 -2.48926 6.93848 -3.22754 9.86035c-1.06738 4.22266 -1.3418 7.1709 -1.3418 14.375s0.274414 10.1523 1.3418 14.375c0.738281 2.92188 2.19043 7.3584 3.22754 9.86035c1.03809 2.50098 3.48047 7.00098 5.43066 10
c1.94922 2.99805 5.68848 7.56348 8.30957 10.1436c2.62109 2.58105 6.33789 5.73047 8.25977 6.99902s5.4375 3.28027 7.8125 4.46973c2.375 1.19141 6.07324 2.75488 8.21875 3.47559c2.14453 0.720703 6.08203 1.71191 8.75 2.20312
c3.92383 0.72168 12.3105 0.866211 43.9121 0.757812zM251.875 112.224c5.66602 -0.179688 9.47949 -0.679688 13.8799 -1.81836c3.33691 -0.863281 8.53223 -2.77441 11.5449 -4.24609c3.01172 -1.4707 7.63477 -4.30273 10.2744 -6.29004
c2.6377 -1.98828 6.28027 -5.23242 8.09375 -7.21094c1.81348 -1.97754 4.80859 -5.90918 6.65625 -8.73535c1.84668 -2.82715 4.20605 -7.18652 5.24414 -9.6875c1.03711 -2.50195 2.48926 -6.93848 3.22754 -9.86035c1.06738 -4.22266 1.3418 -7.1709 1.3418 -14.375
s-0.274414 -10.1523 -1.3418 -14.375c-0.738281 -2.92188 -2.19043 -7.3584 -3.22754 -9.86035c-1.03809 -2.50098 -3.47363 -7.00098 -5.41309 -10c-2.96484 -4.58301 -9.02441 -10.9658 -37.998 -40.0293c-18.958 -19.0176 -36.5869 -36.1836 -39.1758 -38.1475
c-2.58789 -1.96484 -7.16992 -4.77637 -10.1816 -6.24707c-3.0127 -1.47168 -8.20801 -3.37793 -11.5449 -4.23535c-3.73828 -0.960938 -8.70703 -1.69336 -12.9424 -1.90527c-4.91406 -0.248047 -8.53516 -0.0556641 -12.6963 0.670898
c-3.20215 0.560547 -7.56152 1.60254 -9.6875 2.31738s-5.80957 2.27246 -8.18457 3.46387c-2.375 1.18945 -5.89062 3.20117 -7.8125 4.46973s-5.63867 4.41797 -8.25977 6.99902c-2.62109 2.58008 -6.36035 7.14551 -8.30957 10.1436
c-1.9502 2.99902 -4.39258 7.49902 -5.43066 10c-1.03711 2.50195 -2.48926 6.93848 -3.22754 9.86035c-1.06738 4.22266 -1.3418 7.1709 -1.3418 14.375s0.274414 10.1523 1.3418 14.375c0.738281 2.92188 2.19043 7.3584 3.22754 9.86035
c1.03809 2.50098 3.4707 7.00098 5.40625 10c2.99121 4.63379 8.93066 10.8545 39.5596 41.4414c21.6973 21.667 37.4307 36.8887 39.5342 38.248c1.92188 1.24316 5.4375 3.2334 7.8125 4.42285c2.375 1.19141 6.07324 2.75488 8.21875 3.47559
c2.14453 0.720703 6.08203 1.72461 8.75 2.22949c3.25293 0.617188 7.4209 0.837891 12.6621 0.670898zM751.875 112.224c5.66602 -0.179688 9.47949 -0.679688 13.8799 -1.81836c3.33691 -0.863281 8.53223 -2.77441 11.5449 -4.24609
c3.01172 -1.4707 7.59375 -4.28223 10.1816 -6.24707c2.58887 -1.96387 20.2178 -19.1299 39.1758 -38.1475c28.9736 -29.0635 35.0332 -35.4463 37.998 -40.0293c1.93945 -2.99902 4.375 -7.49902 5.41309 -10c1.03711 -2.50195 2.48926 -6.93848 3.22754 -9.86035
c1.06738 -4.22266 1.3418 -7.1709 1.3418 -14.375s-0.274414 -10.1523 -1.3418 -14.375c-0.738281 -2.92188 -2.19043 -7.3584 -3.22754 -9.86035c-1.03809 -2.50098 -3.39746 -6.86035 -5.24414 -9.6875c-1.84766 -2.82617 -4.84277 -6.75781 -6.65625 -8.73535
c-1.81348 -1.97852 -5.45605 -5.22266 -8.09375 -7.21094c-2.63965 -1.9873 -7.2627 -4.81934 -10.2744 -6.29004c-3.0127 -1.47168 -8.20801 -3.40234 -11.5449 -4.29102c-5.11035 -1.35938 -7.49805 -1.62402 -15.1299 -1.67578
c-6.7793 -0.0458984 -10.3223 0.229492 -14.0625 1.0957c-2.75 0.635742 -7.10938 2.02441 -9.6875 3.08594s-6.375 2.90527 -8.4375 4.09766c-2.0625 1.19336 -5.4375 3.51074 -7.5 5.15039s-19.1211 18.4004 -37.9072 37.2451
c-28.6924 28.7812 -34.7217 35.1357 -37.6855 39.7158c-1.93945 2.99902 -4.375 7.49902 -5.41309 10c-1.03711 2.50195 -2.48926 6.93848 -3.22754 9.86035c-1.06738 4.22266 -1.3418 7.1709 -1.3418 14.375s0.274414 10.1523 1.3418 14.375
c0.738281 2.92188 2.19043 7.3584 3.22754 9.86035c1.03809 2.50098 3.48047 7.00098 5.43066 10c1.94922 2.99805 5.68848 7.56348 8.30957 10.1436c2.62109 2.58105 6.33789 5.73047 8.25977 6.99902s5.4375 3.28027 7.8125 4.46973
c2.375 1.19141 6.07324 2.75488 8.21875 3.47559c2.14453 0.720703 6.08203 1.72461 8.75 2.22949c3.25293 0.617188 7.4209 0.837891 12.6621 0.670898zM501.875 49.7236c5.66602 -0.179688 9.47949 -0.679688 13.8799 -1.81836
c3.33691 -0.863281 8.53223 -2.77441 11.5449 -4.24609c3.01172 -1.4707 7.63477 -4.30273 10.2744 -6.29004c2.6377 -1.98828 6.28027 -5.23242 8.09375 -7.21094c1.81348 -1.97754 4.82422 -5.93359 6.69141 -8.79102c1.86719 -2.85645 4.31836 -7.49707 5.44922 -10.3125
c1.12988 -2.81445 2.57715 -7.36719 3.2168 -10.1172c1.06836 -4.59668 1.16211 -8.20312 1.16211 -44.6875s-0.09375 -40.0908 -1.16211 -44.6875c-0.639648 -2.75 -2.08691 -7.30273 -3.2168 -10.1172c-1.13086 -2.81543 -3.58203 -7.45605 -5.44922 -10.3125
c-1.86719 -2.85742 -4.87793 -6.81348 -6.69141 -8.79102c-1.81348 -1.97852 -5.45605 -5.22266 -8.09375 -7.21094c-2.63965 -1.9873 -7.2627 -4.81934 -10.2744 -6.29004c-3.0127 -1.47168 -8.20801 -3.37793 -11.5449 -4.23535
c-3.73828 -0.960938 -8.70703 -1.69336 -12.9424 -1.90527c-4.91406 -0.248047 -8.53516 -0.0556641 -12.6963 0.670898c-3.20215 0.560547 -7.56152 1.60254 -9.6875 2.31738s-5.80957 2.27246 -8.18457 3.46387c-2.375 1.18945 -5.89062 3.20117 -7.8125 4.46973
s-5.63867 4.41797 -8.25977 6.99902c-2.62109 2.58008 -6.37695 7.16992 -8.3457 10.1992c-1.96973 3.02832 -4.50391 7.80957 -5.63477 10.625c-1.12988 2.81445 -2.57715 7.36719 -3.2168 10.1172c-1.06836 4.59668 -1.16211 8.20312 -1.16211 44.6875
s0.09375 40.0908 1.16211 44.6875c0.639648 2.75 2.08691 7.30273 3.2168 10.1172c1.13086 2.81543 3.66504 7.59668 5.63477 10.625c1.96875 3.0293 5.72461 7.61914 8.3457 10.1992c2.62109 2.58105 6.33789 5.73047 8.25977 6.99902s5.4375 3.28027 7.8125 4.46973
c2.375 1.19141 6.07324 2.75488 8.21875 3.47559c2.14453 0.720703 6.08203 1.72461 8.75 2.22949c3.25293 0.617188 7.4209 0.837891 12.6621 0.670898z" />
  </g>

</svg>
