<?xml version="1.0" standalone="no"?>
<!DOCTYPE svg PUBLIC "-//W3C//DTD SVG 1.1//EN" "http://www.w3.org/Graphics/SVG/1.1/DTD/svg11.dtd" >
<svg xmlns="http://www.w3.org/2000/svg" xmlns:xlink="http://www.w3.org/1999/xlink" version="1.1" viewBox="-10 0 1010 1000">
  <g transform="matrix(1 0 0 -1 0 800)">
   <path fill="currentColor"
d="M501.875 737.289l382.812 -0.101562l6.06738 -1.67578c3.33691 -0.921875 8.53223 -2.88086 11.5449 -4.35254c3.01172 -1.4707 7.63477 -4.30273 10.2744 -6.29004c2.6377 -1.98828 6.28027 -5.23242 8.09375 -7.21094
c1.81348 -1.97754 4.82422 -5.93359 6.69141 -8.79102c1.86719 -2.85645 4.31836 -7.49707 5.44922 -10.3125c1.12988 -2.81445 2.57715 -7.36719 3.2168 -10.1172c1.12695 -4.8457 1.16211 -16.8184 1.16211 -388.438c0 -371.619 -0.0351562 -383.592 -1.16211 -388.438
c-0.639648 -2.75 -2.08691 -7.30273 -3.2168 -10.1172c-1.13086 -2.81543 -3.58203 -7.45605 -5.44922 -10.3125c-1.86719 -2.85742 -4.87793 -6.81348 -6.69141 -8.79102c-1.81348 -1.97852 -5.45605 -5.22266 -8.09375 -7.21094
c-2.63965 -1.9873 -7.2627 -4.81934 -10.2744 -6.29004c-3.0127 -1.47168 -8.20801 -3.43066 -11.5449 -4.35254l-6.06738 -1.67578l-382.188 -0.161133c-339.481 -0.143555 -382.803 -0.0546875 -387.696 0.788086c-3.03027 0.522461 -7.24902 1.53418 -9.375 2.24902
s-5.80957 2.27246 -8.18457 3.46387c-2.375 1.18945 -5.89062 3.20117 -7.8125 4.46973s-5.63867 4.41797 -8.25977 6.99902c-2.62109 2.58008 -6.37695 7.16992 -8.3457 10.1992c-1.96973 3.02832 -4.50391 7.80957 -5.63477 10.625
c-1.12988 2.81445 -2.57715 7.36719 -3.2168 10.1172c-1.12695 4.8457 -1.16211 16.8184 -1.16211 388.438c0 371.62 0.0351562 383.593 1.16211 388.438c0.639648 2.75 2.08691 7.30273 3.2168 10.1172c1.13086 2.81543 3.66504 7.59668 5.63477 10.625
c1.96875 3.0293 5.72461 7.61914 8.3457 10.1992c2.62109 2.58105 6.33789 5.73047 8.25977 6.99902s5.4375 3.28027 7.8125 4.46973c2.375 1.19141 6.07324 2.75488 8.21875 3.47559c2.14453 0.720703 6.08203 1.70605 8.75 2.18945
c4.13574 0.749023 61.1729 0.863281 387.662 0.776367h0.000976562zM218.75 612.5h-31.25v-62.5v-62.5h31.25h31.25v62.5v62.5h-31.25zM593.75 612.5h-218.75v-62.5v-62.5h218.75h218.75v62.5v62.5h-218.75zM500 362.5h-312.5v-187.5v-187.5h312.5h312.5v187.5v187.5h-312.5
z" />
  </g>

</svg>
