<?xml version="1.0" standalone="no"?>
<!DOCTYPE svg PUBLIC "-//W3C//DTD SVG 1.1//EN" "http://www.w3.org/Graphics/SVG/1.1/DTD/svg11.dtd" >
<svg xmlns="http://www.w3.org/2000/svg" xmlns:xlink="http://www.w3.org/1999/xlink" version="1.1" viewBox="-10 0 1010 1000">
  <g transform="matrix(1 0 0 -1 0 800)">
   <path fill="currentColor"
d="M874.463 737.426c3.65625 0.0410156 8.89062 -0.350586 11.6309 -0.871094c2.73926 -0.519531 6.98145 -1.625 9.42676 -2.45703c2.44531 -0.831055 6.35156 -2.5166 8.68164 -3.74609c2.3291 -1.22949 6.0957 -3.63379 8.37012 -5.34277
s5.90137 -4.99609 8.06055 -7.30371c2.1582 -2.30762 5.25879 -6.23926 6.88965 -8.7373s3.85645 -6.68359 4.94629 -9.30176c1.08984 -2.61719 2.55371 -6.91797 3.25293 -9.55664c0.770508 -2.90527 1.40332 -7.76172 1.60449 -12.3164
c0.261719 -5.92285 0.0410156 -9.37207 -1.03809 -16.25c-0.753906 -4.80176 -2.20898 -13.6338 -3.23438 -19.6279s-3.12793 -17.0439 -4.67285 -24.5547s-4.32324 -19.7637 -6.1748 -27.2275c-1.85254 -7.46387 -5.19629 -19.8984 -7.43262 -27.6328
c-2.23535 -7.73438 -5.73926 -19.125 -7.78516 -25.3125c-2.04688 -6.1875 -5.85156 -17.0332 -8.45605 -24.1016c-2.60352 -7.06836 -7.10449 -18.5996 -10.001 -25.625s-7.40234 -17.4766 -10.0127 -23.2246s-8.14648 -17.2461 -12.3008 -25.5508
c-4.15527 -8.30469 -10.3027 -20.0547 -13.6611 -26.1113c-3.35938 -6.05566 -8.87695 -15.6523 -12.2607 -21.3242c-3.38477 -5.67188 -9.23242 -15.0938 -12.9941 -20.9375s-9.66406 -14.7031 -13.1172 -19.6875c-3.45117 -4.98438 -10.6816 -14.9688 -16.0654 -22.1875
s-13.6963 -17.9062 -18.4727 -23.75c-4.77441 -5.84375 -11.8848 -14.2812 -15.7988 -18.75c-3.91504 -4.46875 -11.8379 -13.1875 -17.6064 -19.375s-15.0879 -15.7549 -20.709 -21.2607s-13.7412 -13.2402 -18.0469 -17.1875
c-4.30371 -3.94727 -12.0381 -10.7959 -17.1875 -15.2197c-5.14746 -4.42285 -13.4385 -11.3359 -18.4229 -15.3623s-13.5625 -10.6914 -19.0625 -14.8105s-13.7998 -10.1807 -18.4434 -13.4688c-4.64258 -3.28809 -13.7832 -9.48535 -20.3125 -13.7725
c-6.52832 -4.28711 -17.4941 -11.1787 -24.3691 -15.3154s-17.9844 -10.5293 -24.6875 -14.2061c-6.70312 -3.67578 -19.3916 -10.2402 -28.1973 -14.5879l-16.0088 -7.9043l-0.367188 -16.5771c-0.208984 -9.47168 -0.782227 -19.5244 -1.33594 -23.4521
c-0.53418 -3.78125 -1.53223 -9.96875 -2.21973 -13.75c-0.686523 -3.78125 -2.07129 -10.1289 -3.07715 -14.1064c-1.00586 -3.97656 -2.9873 -10.793 -4.4043 -15.1494c-1.41699 -4.35449 -3.98047 -11.335 -5.69824 -15.5117
c-1.7168 -4.17676 -5.0625 -11.4668 -7.43457 -16.2002c-2.37207 -4.73242 -6.35059 -11.9346 -8.83887 -16.0059c-2.49023 -4.06934 -6.62305 -10.3535 -9.18555 -13.9629c-2.56152 -3.60938 -7.06934 -9.51562 -10.0166 -13.125s-9.72852 -10.9316 -15.0684 -16.2715
c-5.34082 -5.34082 -13.2256 -12.5156 -17.5225 -15.9453s-11.1875 -8.51367 -15.3125 -11.2988s-10.2891 -6.66992 -13.6982 -8.63379s-9.45605 -5.20117 -13.4375 -7.19434s-11.458 -5.30664 -16.6143 -7.3623c-5.15625 -2.05664 -12.1875 -4.60352 -15.625 -5.65918
c-3.4375 -1.05664 -8.92188 -2.62305 -12.1875 -3.48242s-9.73438 -2.28809 -14.375 -3.17578c-4.64062 -0.886719 -11.9531 -2.08301 -16.25 -2.65723c-6.94043 -0.927734 -18.4092 -1.06934 -102.707 -1.26855c-83.5732 -0.198242 -95.5635 -0.109375 -100.509 0.744141
c-3.08789 0.532227 -7.35449 1.55371 -9.48047 2.26855s-5.80957 2.27246 -8.18457 3.46387c-2.375 1.18945 -5.89062 3.20117 -7.8125 4.46973s-5.63867 4.41797 -8.25977 6.99902c-2.62109 2.58008 -6.37695 7.16992 -8.3457 10.1992
c-1.96973 3.02832 -4.50391 7.80957 -5.63477 10.625c-1.12988 2.81445 -2.57715 7.36719 -3.2168 10.1172c-1.10645 4.75977 -1.16211 9.61328 -1.16211 100.938c0 88.3467 0.0878906 96.6543 1.11719 105c0.614258 4.98438 2.09766 13.9043 3.29395 19.8223
c1.19727 5.91797 3.33105 14.6367 4.74121 19.375c1.40918 4.73828 4.26172 12.9746 6.33691 18.3027s6.20117 14.4688 9.16797 20.3125c2.96777 5.84375 7.18359 13.4766 9.36914 16.9629c2.18652 3.48535 5.72949 8.79492 7.87402 11.7988
c2.14453 3.00293 6.25098 8.44824 9.125 12.0996c2.87305 3.65137 9.86523 11.2832 15.5371 16.96c5.67188 5.67578 13.6875 13.0264 17.8125 16.333s10.3125 7.96875 13.75 10.3594s9.10156 6.06738 12.5869 8.16895s10.2852 5.80078 15.1104 8.21973
c4.82617 2.41797 11.958 5.70508 15.8506 7.30371s10.3115 4.00293 14.2646 5.34375s11.5469 3.53613 16.875 4.87891s12.2607 2.88281 15.4062 3.4209c3.14453 0.539062 8.76953 1.41504 12.5 1.94629c3.92383 0.55957 13.7705 1.11719 23.3691 1.32227l16.5879 0.354492
l7.89355 16.0146c4.34082 8.80664 10.8584 21.416 14.4844 28.0186c3.625 6.60449 10.0156 17.7139 14.2021 24.6875c4.18555 6.97559 11.1201 18.0225 15.4082 24.5508c4.28906 6.5293 10.4863 15.6699 13.7715 20.3125c3.28516 4.64355 9.34473 12.9434 13.4648 18.4434
c4.11914 5.5 10.8896 14.2148 15.0449 19.3662c4.15527 5.15234 11.4551 13.8711 16.2217 19.375c4.7666 5.50488 13.2598 14.9531 18.874 20.9961c5.61523 6.04297 15.3721 16.0273 21.6816 22.1875c6.31152 6.16016 15.5361 14.8799 20.5 19.376
c4.96582 4.49707 12.4023 11.0703 16.5273 14.6084c4.125 3.53711 12.1406 10.1416 17.8125 14.6768s14.25 11.2012 19.0625 14.8145s13.5312 9.91016 19.375 13.9932s15.6875 10.6855 21.875 14.6738s15.75 9.94824 21.25 13.2451
c5.5 3.2959 14.3594 8.42969 19.6875 11.4072s17.4854 9.33691 27.0146 14.1318c9.53027 4.79492 22.7061 11.1211 29.2783 14.0586c6.57324 2.9375 17.0557 7.41406 23.2979 9.94824c6.24023 2.53516 15.9873 6.3418 21.6592 8.45996s16.1445 5.79883 23.2715 8.17871
c7.12793 2.38086 19.249 6.13965 26.9355 8.35449c7.6875 2.21484 19.5752 5.42383 26.417 7.13086c6.84082 1.70703 17.0791 4.10547 22.751 5.3291c5.67188 1.22266 15.5156 3.19531 21.875 4.38184s15.5 2.76367 20.3125 3.50391s10.0156 1.57031 11.5625 1.84473
s5.80469 0.532227 9.46289 0.571289v-0.000976562zM793.281 593.729c-0.257812 -0.0126953 -8.34375 -2.65137 -17.9688 -5.86426s-23.6875 -8.29492 -31.25 -11.2939c-7.5625 -2.99805 -19.0938 -7.83789 -25.625 -10.7549s-18.2402 -8.51953 -26.0195 -12.4482
c-7.78027 -3.92969 -19.4521 -10.1836 -25.9375 -13.8984c-6.48633 -3.71387 -15.3086 -8.94727 -19.6055 -11.6279s-12.4531 -7.97461 -18.125 -11.7646c-5.67188 -3.79102 -14.9531 -10.29 -20.625 -14.4434c-5.67188 -4.1543 -14.3906 -10.8115 -19.375 -14.7939
s-12.4375 -10.1406 -16.5625 -13.6826c-4.125 -3.54297 -11.8594 -10.46 -17.1875 -15.3711c-5.32812 -4.91211 -11.3672 -10.6416 -13.4189 -12.7334l-3.73145 -3.80273l1.54395 -1.0752c0.848633 -0.591797 4.49707 -3.31445 8.10645 -6.05176
c3.60938 -2.73828 9.375 -7.24023 12.8125 -10.0059c3.4375 -2.76465 8.64062 -7.12598 11.5625 -9.69141s9.08789 -8.19531 13.7002 -12.5127c4.61426 -4.31641 12.4551 -12.208 17.4238 -17.5361c4.9707 -5.32812 12.543 -13.8711 16.8281 -18.9834
c4.28613 -5.1123 10.7549 -13.2686 14.375 -18.125s6.78809 -8.91016 7.03906 -9.00781c0.250977 -0.0986328 4.05859 3.55762 8.46094 8.125c4.40332 4.56641 11.8789 12.6631 16.6133 17.9912c4.73535 5.32812 11.6025 13.3438 15.2598 17.8125
c3.65918 4.46875 10.3672 13.0469 14.9082 19.0625c4.54199 6.01562 11.0918 15.0156 14.5557 20c3.46484 4.98438 9.25195 13.7031 12.8594 19.375c3.6084 5.67188 8.94434 14.3906 11.8574 19.375s7.13477 12.4375 9.38184 16.5625s6.68457 12.6982 9.8623 19.0508
c3.17773 6.35449 8.10449 16.7607 10.9482 23.125c2.84473 6.36621 7.61523 17.7383 10.6016 25.2715c2.98535 7.53418 8.07812 21.6387 11.3145 31.3447c3.2373 9.70605 5.88574 17.8154 5.88574 18.0215s-0.210938 0.364258 -0.46875 0.351562zM460.522 342.752
l-1.66406 1.07129l-2.95898 -4.56836c-1.62793 -2.51172 -5.40723 -8.64551 -8.39941 -13.6299s-7.54883 -12.8594 -10.125 -17.5c-2.57715 -4.64062 -6.98047 -12.8799 -9.78613 -18.3096l-5.10156 -9.87207l6.25488 -4.65527
c3.44043 -2.56055 8.43555 -6.52539 11.1006 -8.81055c2.66406 -2.28613 8.16895 -7.41992 12.2314 -11.4102c4.06152 -3.99023 9.71777 -9.92676 12.5684 -13.1924s7.45312 -8.96191 10.2285 -12.6592l5.04492 -6.72168l9.26074 4.77246
c5.09277 2.625 13.3389 7.03125 18.3223 9.79102c4.98438 2.75977 13.2734 7.55078 18.4209 10.6455c5.14746 3.0957 11.2812 6.87109 13.6309 8.3916l4.27246 2.76367l-1.07129 1.66406c-0.589844 0.916016 -3.79102 5.32812 -7.11426 9.80566
c-3.32422 4.47656 -8.89844 11.5479 -12.3887 15.7119c-3.48926 4.16406 -9.91504 11.2783 -14.2793 15.8076c-4.36426 4.53027 -11.3311 11.2432 -15.4834 14.9199c-4.15137 3.67676 -9.09668 7.97266 -10.9873 9.54688c-1.88965 1.57422 -7.23438 5.67578 -11.875 9.11426
c-4.63965 3.43848 -9.18555 6.7334 -10.1016 7.32324zM290.857 195.564c-5.1123 -0.0332031 -11.7051 -0.436523 -14.6523 -0.895508c-2.94629 -0.459961 -7.72754 -1.44043 -10.625 -2.17969c-2.89648 -0.739258 -7.66211 -2.26758 -10.5879 -3.39746
c-2.92676 -1.12988 -7.70801 -3.25195 -10.625 -4.71582c-2.91797 -1.46387 -8.16113 -4.60449 -11.6514 -6.97656c-3.49121 -2.37305 -8.91992 -6.7373 -12.0654 -9.69727c-3.14453 -2.96094 -7.35059 -7.38184 -9.34668 -9.82422
c-1.99512 -2.44238 -5.2334 -6.90234 -7.19336 -9.91016c-1.96191 -3.00879 -4.79785 -8.07129 -6.30371 -11.25c-1.50586 -3.17969 -3.71875 -8.7334 -4.91699 -12.3428c-1.19922 -3.61035 -2.60547 -8.67285 -3.12695 -11.25
c-0.520508 -2.57812 -1.24316 -7.07031 -1.60449 -9.98438c-0.416016 -3.34668 -0.658203 -25.6191 -0.658203 -60.4971v-55.2031l58.5938 0.22168l58.5938 0.220703l7.57031 1.6709c4.16309 0.918945 10.0693 2.54395 13.125 3.61328
c3.05566 1.06836 8.15527 3.16504 11.335 4.65918c3.17871 1.49512 8.24121 4.32227 11.25 6.28418c3.00781 1.95996 7.46777 5.19824 9.91016 7.19336c2.44238 1.99609 6.90527 6.24512 9.91699 9.44336s7.53711 8.90918 10.0547 12.6904
c2.51953 3.78125 5.98828 9.82812 7.70996 13.4375c1.72266 3.60938 3.98633 9.18457 5.03223 12.3887s2.48535 8.54785 3.19922 11.875c0.900391 4.19238 1.4043 9.40332 1.64258 16.9863c0.265625 8.45215 0.103516 12.5713 -0.710938 18.125
c-0.579102 3.95312 -2.00684 10 -3.1709 13.4375s-2.4375 7.51562 -2.8291 9.0625c-0.392578 1.54688 -1.94434 5.38672 -3.44922 8.53223c-1.50391 3.14551 -4.68457 8.62988 -7.06738 12.1875c-2.38379 3.55762 -6.34375 8.66895 -8.80273 11.3594
c-2.45703 2.69043 -6.49316 6.72266 -8.9668 8.96094c-2.47461 2.23828 -7.40918 6.02246 -10.9668 8.40918s-9.04199 5.57031 -12.1875 7.07422c-3.14551 1.50488 -6.98535 3.06738 -8.53223 3.47266s-5.64062 1.67676 -9.09766 2.82617
c-3.45703 1.15039 -9.25879 2.53223 -12.8926 3.07129c-3.94434 0.585938 -10.3535 0.957031 -15.9023 0.920898z" />
  </g>

</svg>
