<?xml version="1.0" standalone="no"?>
<!DOCTYPE svg PUBLIC "-//W3C//DTD SVG 1.1//EN" "http://www.w3.org/Graphics/SVG/1.1/DTD/svg11.dtd" >
<svg xmlns="http://www.w3.org/2000/svg" xmlns:xlink="http://www.w3.org/1999/xlink" version="1.1" viewBox="-10 0 1010 1000">
  <g transform="matrix(1 0 0 -1 0 800)">
   <path fill="currentColor"
d="M504.375 737.171c9.41113 -0.137695 20.2061 -0.666992 25 -1.22754c4.64062 -0.541016 11.6719 -1.54785 15.625 -2.23535c3.95312 -0.686523 10.5625 -2.08789 14.6875 -3.11328s10.5938 -2.87207 14.375 -4.10449s9.96875 -3.5 13.75 -5.04004
c3.78125 -1.53906 10.8125 -4.81543 15.624 -7.28027c4.8125 -2.46582 12.4062 -6.91895 16.875 -9.89648c4.46973 -2.97754 10.5166 -7.33691 13.4385 -9.6875s8.62793 -7.48633 12.6787 -11.4131c4.05176 -3.92676 9.67676 -9.93066 12.5 -13.3438
c2.82422 -3.41309 7.08887 -8.91895 9.47754 -12.2363c2.38965 -3.31641 6.14355 -8.9834 8.3418 -12.5928c2.19922 -3.60938 5.9209 -10.3896 8.27148 -15.0664c2.35156 -4.67773 5.58594 -11.5684 7.18945 -15.3125c1.60352 -3.74512 4.69434 -12.1523 6.86816 -18.6836
c2.1748 -6.53125 5.11328 -16.5156 6.53027 -22.1875c1.41797 -5.67188 3.53027 -15.5156 4.69434 -21.875s2.8252 -17.1875 3.69043 -24.0625s2.00977 -18.2656 2.54199 -25.3125c0.533203 -7.04688 1.24805 -20.2656 1.58789 -29.375
c0.34082 -9.10938 0.62207 -23.6533 0.624023 -32.3203l0.00390625 -15.7568l51.7188 -0.191406l51.7188 -0.191406l6.06738 -1.66504c3.33691 -0.916016 8.53223 -2.86914 11.5449 -4.34082c3.01172 -1.4707 7.63477 -4.30273 10.2744 -6.29004
c2.6377 -1.98828 6.28027 -5.23242 8.09375 -7.21094c1.81348 -1.97754 4.80859 -5.90918 6.65625 -8.73535c1.84668 -2.82715 4.20605 -7.18652 5.24219 -9.6875c1.03711 -2.50195 2.43848 -6.79785 3.11523 -9.54785s1.40137 -7.83301 1.6123 -11.2959
c0.230469 -3.80664 0.0791016 -8.37988 -0.382812 -11.5625c-0.450195 -3.10254 -21.3008 -77.1895 -50.7324 -180.267c-27.4814 -96.25 -51.1191 -178.517 -52.5283 -182.812c-1.4082 -4.29688 -3.94434 -11.0469 -5.63672 -15
c-1.69141 -3.95312 -4.56348 -10 -6.38086 -13.4375c-1.81836 -3.4375 -4.95801 -8.92188 -6.97754 -12.1875c-2.02051 -3.26562 -6.1123 -9.17188 -9.0957 -13.125c-2.98242 -3.95312 -8.2168 -10.2852 -11.6318 -14.0703
c-3.41504 -3.78613 -9.23047 -9.55176 -12.9238 -12.8125c-3.69336 -3.26172 -9.93652 -8.34766 -13.873 -11.3027c-3.9375 -2.95508 -10.7656 -7.52539 -15.1738 -10.1553c-4.4082 -2.63086 -11.5029 -6.43555 -15.7666 -8.45508
c-4.26465 -2.02051 -10.4248 -4.6709 -13.6904 -5.88965c-3.26562 -1.21973 -9.18359 -3.2002 -13.1494 -4.40234c-3.96582 -1.20117 -10.6104 -2.90234 -14.7627 -3.7793c-4.15332 -0.876953 -10.752 -2.08008 -14.6631 -2.67285
c-6.46777 -0.980469 -16.5469 -1.09961 -111.175 -1.31152c-72.6318 -0.162109 -106.8 -0.0224609 -113.125 0.462891c-4.98438 0.382812 -12.5781 1.27051 -16.875 1.97266c-4.29688 0.703125 -11.4688 2.2168 -15.9375 3.36328
c-4.46875 1.14746 -11.0654 3.11426 -14.6582 4.37207s-10.0264 3.79883 -14.2969 5.64648c-4.26953 1.84766 -10.8926 5.08105 -14.7168 7.18555s-10.0469 5.89551 -13.8281 8.4248s-9.96875 7.07422 -13.75 10.0986c-3.78125 3.02539 -10.2617 8.87793 -14.4004 13.0068
c-4.13867 4.12793 -9.93164 10.459 -12.874 14.0684c-2.94141 3.60938 -7.17969 9.23438 -9.41699 12.5c-2.23633 3.26562 -5.52148 8.4209 -7.29883 11.4561c-1.77832 3.03418 -4.3252 7.68945 -5.66016 10.3438c-1.33398 2.6543 -3.67969 7.76562 -5.21191 11.3574
s-3.93848 10.0459 -5.34863 14.3428s-25.0488 86.5625 -52.5303 182.812c-29.4316 103.077 -50.2822 177.164 -50.7324 180.267c-0.461914 3.18262 -0.613281 7.75586 -0.382812 11.5625c0.210938 3.46289 0.935547 8.5459 1.6123 11.2959s2.07812 7.0459 3.11523 9.54785
c1.03613 2.50098 3.47852 7.00098 5.42871 10c1.94922 2.99805 5.68848 7.56348 8.30957 10.1436c2.62109 2.58105 6.33789 5.73047 8.25977 6.99902s5.4375 3.28027 7.8125 4.46973c2.375 1.19141 6.04883 2.74609 8.16406 3.45703s6.30078 1.7207 9.30078 2.24414
c4.57324 0.797852 13.4209 0.951172 54.748 0.951172h49.293l0.0078125 16.4062c0.00488281 9.02344 0.286133 23.5781 0.625977 32.3438c0.338867 8.76562 1.05273 21.7031 1.58398 28.75s1.6748 18.4375 2.54004 25.3125s2.52637 17.7031 3.69043 24.0625
s3.27637 16.2031 4.69434 21.875c1.41699 5.67188 4.35547 15.6562 6.53027 22.1875c2.17383 6.53125 5.26465 14.9385 6.86816 18.6836c1.60352 3.74414 4.83789 10.6348 7.18945 15.3125c2.35059 4.67676 6.07227 11.457 8.27148 15.0664
c2.19824 3.60938 5.95215 9.27637 8.3418 12.5928c2.38867 3.31738 6.6582 8.82812 9.4873 12.248c2.82812 3.41895 8.36035 9.33301 12.2939 13.1426c3.93262 3.81055 9.99512 9.19434 13.4717 11.9639s9.56543 7.17773 13.5303 9.7959s10.9424 6.69922 15.5059 9.06934
c4.56445 2.36914 11.2539 5.54688 14.8652 7.05957c3.6123 1.51367 10.1377 3.91309 14.501 5.33301c4.36426 1.41992 11.2266 3.40234 15.249 4.40625c4.02344 1.00293 10.5488 2.37695 14.502 3.05371c3.95312 0.675781 9.85938 1.55664 13.125 1.95703
c3.26562 0.401367 9.03125 0.967773 12.8125 1.25879c3.78125 0.291992 14.3281 0.422852 23.4375 0.290039zM502.812 612.177c-6.875 0.109375 -13.625 0.0820312 -15 -0.0615234c-1.375 -0.142578 -5.44531 -0.704102 -9.04395 -1.24805
c-3.59961 -0.542969 -8.94141 -1.68262 -11.8721 -2.53125c-2.92969 -0.848633 -7.6748 -2.64453 -10.5449 -3.98926s-6.95117 -3.68164 -9.06934 -5.19336c-2.11719 -1.51074 -5.81738 -4.82129 -8.22363 -7.35645c-2.40527 -2.53516 -5.67578 -6.58984 -7.26855 -9.01074
s-4.09277 -6.78027 -5.55566 -9.6875c-1.46387 -2.90723 -3.71387 -8.09863 -5.00098 -11.5361s-3.20898 -9.34375 -4.27051 -13.125c-1.06055 -3.78125 -2.76074 -11.0938 -3.77637 -16.25c-1.0166 -5.15625 -2.4248 -14.0156 -3.12891 -19.6875
c-0.705078 -5.67188 -1.56836 -13.8281 -1.91797 -18.125c-0.350586 -4.29688 -0.916016 -14.7031 -1.25684 -23.125c-0.341797 -8.42188 -0.623047 -22.2734 -0.626953 -30.7812l-0.00585938 -15.4688h93.8486h93.8486l-0.389648 25.1562
c-0.214844 13.8359 -0.693359 29.7969 -1.06543 35.4688c-0.371094 5.67188 -1.22363 15.2373 -1.89453 21.2568s-1.93359 15.0195 -2.80664 20c-0.87207 4.98047 -2.30566 12.0088 -3.18555 15.6182s-2.72266 9.9375 -4.09375 14.0625
c-1.37207 4.125 -3.96387 10.5938 -5.76074 14.375s-4.65527 8.98438 -6.35156 11.5625c-1.69727 2.57812 -5.05273 6.76172 -7.45801 9.29688c-2.40625 2.53516 -6.0625 5.80664 -8.12598 7.26953c-2.06445 1.46387 -5.51855 3.5459 -7.67578 4.62695
c-2.1582 1.08203 -6.41797 2.80273 -9.46582 3.82324c-3.04785 1.02148 -8.87598 2.44238 -12.9512 3.15918c-5.41406 0.951172 -10.7773 1.35547 -19.9102 1.50098zM500 300h-229.511l0.427734 -1.71875c0.235352 -0.945312 17.582 -61.7617 38.5479 -135.146
c20.9668 -73.3848 38.9434 -135.399 39.9492 -137.812s3.18359 -6.49414 4.83984 -9.07227s4.64746 -6.45117 6.64648 -8.60742c1.99902 -2.15527 5.78613 -5.54102 8.41602 -7.52344c2.63086 -1.98145 7.24707 -4.80762 10.2588 -6.27832
c3.0127 -1.47168 8.20801 -3.43066 11.5449 -4.35254l6.06738 -1.67578h102.812h102.812l6.0127 1.66211c3.30566 0.914062 8.40137 2.80273 11.3213 4.19629s7.52734 4.18262 10.2383 6.19727c2.70996 2.01465 6.52539 5.39551 8.47852 7.51172
c1.95312 2.11719 4.96973 6.00977 6.7041 8.65234c1.73438 2.6416 3.98438 6.7998 5 9.23926c1.0166 2.43945 19.001 64.4785 39.9678 137.863c20.9658 73.3848 38.3125 134.201 38.5479 135.146l0.427734 1.71875h-229.511h0.000976562z" />
  </g>

</svg>
