<?xml version="1.0" standalone="no"?>
<!DOCTYPE svg PUBLIC "-//W3C//DTD SVG 1.1//EN" "http://www.w3.org/Graphics/SVG/1.1/DTD/svg11.dtd" >
<svg xmlns="http://www.w3.org/2000/svg" xmlns:xlink="http://www.w3.org/1999/xlink" version="1.1" viewBox="-10 0 1010 1000">
  <g transform="matrix(1 0 0 -1 0 800)">
   <path fill="currentColor"
d="M503.438 674.667c7.5625 -0.136719 16.7021 -0.660156 20.3125 -1.16309c3.60938 -0.500977 9.51562 -1.52441 13.125 -2.27246s9.78711 -2.33496 13.7275 -3.52637c3.94238 -1.19141 9.65039 -3.125 12.6855 -4.29785
c3.03516 -1.17188 8.84668 -3.79688 12.9141 -5.83301c4.06836 -2.03711 10.2617 -5.48828 13.7646 -7.66992c3.50195 -2.18164 9.62793 -6.49414 13.6143 -9.58203c3.98535 -3.08887 10.5166 -8.85449 14.5127 -12.8125
c3.99609 -3.95898 9.59766 -10.0098 12.4492 -13.4473s7.6709 -9.92676 10.71 -14.4209c3.04004 -4.49414 7.31055 -11.3848 9.49023 -15.3125c2.18066 -3.92773 5.56348 -10.5166 7.51855 -14.6416c1.9541 -4.125 4.94141 -11.0156 6.63867 -15.3125
c1.69629 -4.29688 4.39551 -11.8906 5.99805 -16.875s3.90625 -13 5.11816 -17.8125c1.21289 -4.8125 2.86719 -11.9414 3.67676 -15.8428s1.60059 -7.22168 1.75781 -7.37891s36.5293 23.8896 80.8262 53.4395c44.2979 29.5488 82.5078 54.7109 84.9131 55.916
c2.4043 1.20508 6.1123 2.77539 8.23828 3.49023s6.48535 1.75684 9.6875 2.31738c4.16113 0.726562 7.78223 0.918945 12.6963 0.670898c4.23535 -0.211914 9.2041 -0.944336 12.9424 -1.90527c3.33691 -0.857422 8.53223 -2.76367 11.5449 -4.23535
c3.01172 -1.4707 7.63477 -4.30273 10.2744 -6.29004c2.6377 -1.98828 6.28027 -5.23242 8.09375 -7.21094c1.81348 -1.97754 4.80859 -5.90918 6.65625 -8.73535c1.84668 -2.82715 4.20605 -7.18652 5.24414 -9.6875c1.03711 -2.50195 2.48926 -6.93848 3.22754 -9.86035
c1.06738 -4.22266 1.3418 -7.1709 1.3418 -14.375s-0.274414 -10.1523 -1.3418 -14.375c-0.738281 -2.92188 -2.19043 -7.3584 -3.22754 -9.86035c-1.03809 -2.50098 -3.48047 -7.00098 -5.43066 -10c-1.94922 -2.99805 -5.72266 -7.60547 -8.38672 -10.2373
c-4.125 -4.07617 -15.6494 -11.9922 -77.7549 -53.4014c-56.8828 -37.9277 -72.8184 -48.8301 -72.4824 -49.5898c0.237305 -0.535156 2.21191 -6.19922 4.38867 -12.5859s5.35742 -17.0742 7.06934 -23.75c1.71094 -6.67578 3.97949 -16.4629 5.04102 -21.748
c1.0625 -5.28613 2.73633 -15.1299 3.7207 -21.875c0.984375 -6.74609 1.98828 -14.5732 2.23145 -17.3945l0.442383 -5.13086l46.6406 -0.195312l46.6396 -0.196289l6.06738 -1.66309c3.33691 -0.914062 8.53223 -2.86621 11.5449 -4.33789
c3.01172 -1.4707 7.63477 -4.30273 10.2744 -6.29004c2.6377 -1.98828 6.28027 -5.23242 8.09375 -7.21094c1.81348 -1.97754 4.80859 -5.90918 6.65625 -8.73535c1.84668 -2.82715 4.20605 -7.18652 5.24414 -9.6875c1.03711 -2.50195 2.48926 -6.93848 3.22754 -9.86035
c1.06738 -4.22266 1.3418 -7.1709 1.3418 -14.375s-0.274414 -10.1523 -1.3418 -14.375c-0.738281 -2.92188 -2.19043 -7.3584 -3.22754 -9.86035c-1.03809 -2.50098 -3.39746 -6.86035 -5.24414 -9.6875c-1.84766 -2.82617 -4.84277 -6.75781 -6.65625 -8.73535
c-1.81348 -1.97852 -5.45605 -5.22266 -8.09375 -7.21094c-2.63965 -1.9873 -7.2627 -4.81934 -10.2744 -6.29004c-3.0127 -1.47168 -8.20801 -3.4248 -11.5449 -4.33984l-6.06738 -1.66309l-48.5879 -0.194336l-48.5879 -0.194336l-0.295898 -1.38086
c-0.163086 -0.759766 -1.15918 -6.16211 -2.21582 -12.0059c-1.05566 -5.84375 -3.17773 -16.2969 -4.71582 -23.2305c-1.53809 -6.93164 -4.60449 -18.8848 -6.81152 -26.5625c-2.20801 -7.67578 -5.55664 -18.457 -7.44141 -23.957s-3.61328 -10.4746 -3.84277 -11.0547
c-0.338867 -0.855469 14.0479 -10.7012 75.6543 -51.7803c64.8848 -43.2656 76.7832 -51.4277 80.9111 -55.5068c2.66211 -2.63086 6.43457 -7.2373 8.38379 -10.2354c1.9502 -2.99902 4.39258 -7.49902 5.42969 -10c1.03711 -2.50195 2.48926 -6.93848 3.22754 -9.86035
c1.06738 -4.22266 1.34277 -7.1709 1.34277 -14.375s-0.274414 -10.1523 -1.34277 -14.375c-0.738281 -2.92188 -2.19043 -7.3584 -3.22754 -9.86035c-1.03809 -2.50098 -3.39746 -6.86035 -5.24414 -9.6875c-1.84766 -2.82617 -4.8418 -6.75781 -6.65625 -8.73535
c-1.81348 -1.97852 -5.45508 -5.22266 -8.09375 -7.21094c-2.63965 -1.9873 -7.2627 -4.81934 -10.2734 -6.29004c-3.0127 -1.47168 -8.20801 -3.37793 -11.5449 -4.23535c-3.73828 -0.960938 -8.70703 -1.69336 -12.9424 -1.90527
c-4.91406 -0.248047 -8.53516 -0.0556641 -12.6963 0.670898c-3.20215 0.560547 -7.56152 1.60254 -9.6875 2.31738s-5.83496 2.28418 -8.24121 3.48926c-2.40625 1.2041 -35.875 23.2021 -74.375 48.8848s-70.3242 46.8896 -70.7197 47.1279
c-0.4375 0.262695 -3.06055 -2.36328 -6.71973 -6.72852c-3.30078 -3.93848 -8.92188 -10.2188 -12.4922 -13.958c-3.57031 -3.73828 -9.26562 -9.45117 -12.6562 -12.6943c-3.38965 -3.24316 -8.83496 -8.12305 -12.1006 -10.8438s-9.03125 -7.24805 -12.8125 -10.0625
c-3.78125 -2.81348 -9.6875 -6.93555 -13.125 -9.15918c-3.4375 -2.22461 -10.0469 -6.15332 -14.6875 -8.73145c-4.64062 -2.57715 -10.6875 -5.74414 -13.4375 -7.03809c-2.75 -1.29297 -7.85547 -3.57129 -11.3438 -5.0625
c-3.48828 -1.49023 -10.5479 -4.12695 -15.6846 -5.8584c-5.1377 -1.73145 -13.3926 -4.14453 -18.3438 -5.3623c-4.95215 -1.21875 -12.0996 -2.75391 -15.8838 -3.41309c-3.78516 -0.65918 -10.957 -1.70117 -15.9375 -2.31641
c-6.86328 -0.847656 -13.5225 -1.11621 -27.4941 -1.1084c-13.5352 0.00683594 -20.8477 0.296875 -27.5 1.0918c-4.98438 0.595703 -13.1396 1.80859 -18.125 2.69531c-4.98438 0.886719 -12.7188 2.54297 -17.1875 3.67969
c-4.46777 1.13672 -11.3594 3.11035 -15.3125 4.38574c-3.95312 1.27441 -10.4219 3.57812 -14.375 5.11914c-3.95312 1.54004 -11.5127 4.88086 -16.7979 7.42383c-5.28613 2.54395 -12.1777 6.0791 -15.3125 7.85742c-3.13574 1.77832 -9.30078 5.5752 -13.6992 8.43652
c-4.39941 2.8623 -10.3066 6.93359 -13.125 9.04688c-2.82031 2.11426 -7.99609 6.19727 -11.501 9.07324c-3.50781 2.87598 -9.66895 8.35645 -13.6934 12.1768s-9.73438 9.51855 -12.6875 12.6631c-2.9541 3.14355 -7.45996 8.16992 -10.0127 11.1689
s-4.73145 5.45312 -4.8418 5.45312s-31.3633 -20.7725 -69.4502 -46.1611c-38.4346 -25.6211 -71.4473 -47.2041 -74.1895 -48.5059c-2.7168 -1.28906 -7.625 -3.0332 -10.9082 -3.87793c-3.64355 -0.936523 -8.64648 -1.66992 -12.8438 -1.87988
c-4.91406 -0.248047 -8.53516 -0.0556641 -12.6963 0.670898c-3.20215 0.560547 -7.56152 1.60254 -9.6875 2.31738s-5.80957 2.27246 -8.18457 3.46387c-2.375 1.18945 -5.89062 3.20117 -7.8125 4.46973s-5.63867 4.41797 -8.25977 6.99902
c-2.62109 2.58008 -6.36035 7.14551 -8.30957 10.1436c-1.9502 2.99902 -4.39258 7.49902 -5.43066 10c-1.03711 2.50195 -2.48926 6.93848 -3.22754 9.86035c-1.06738 4.22266 -1.3418 7.1709 -1.3418 14.375s0.274414 10.1523 1.3418 14.375
c0.738281 2.92188 2.19043 7.3584 3.22754 9.86035c1.03809 2.50098 3.48047 7.00098 5.43066 10c1.94922 2.99805 5.69336 7.56152 8.32129 10.1396c3.99414 3.91895 16.8877 12.7578 78.6719 53.9336c40.6416 27.085 73.8916 49.585 73.8887 50
c-0.00195312 0.414062 -1.12891 3.9375 -2.50195 7.82715c-1.37402 3.88965 -3.9082 11.7246 -5.63184 17.4092c-1.72266 5.68555 -4.37793 15.1729 -5.89941 21.084c-1.52148 5.91211 -3.75391 15.542 -4.95996 21.4014c-1.20703 5.8584 -2.91016 14.9844 -3.78418 20.2793
c-0.875 5.2959 -1.74414 10.542 -1.93164 11.6592l-0.341797 2.03125h-44.2646c-36.8252 0 -45.1807 0.160156 -49.7197 0.951172c-3 0.523438 -7.18555 1.5332 -9.30078 2.24414c-2.11426 0.710938 -5.78906 2.26562 -8.16406 3.45703
c-2.375 1.18945 -5.88965 3.20117 -7.8125 4.46973c-1.92188 1.26855 -5.6377 4.41797 -8.25977 6.99902c-2.62109 2.58008 -6.36035 7.14551 -8.30957 10.1436c-1.9502 2.99902 -4.39258 7.49902 -5.43066 10c-1.03711 2.50195 -2.48926 6.93848 -3.22754 9.86035
c-1.06641 4.22266 -1.3418 7.1709 -1.3418 14.375s0.274414 10.1523 1.3418 14.375c0.738281 2.92188 2.19043 7.3584 3.22754 9.86035c1.03906 2.50098 3.48145 7.00098 5.43066 10c1.94922 2.99805 5.68848 7.56348 8.30957 10.1436
c2.62109 2.58105 6.33789 5.73047 8.25977 6.99902c1.92285 1.26855 5.4375 3.28027 7.8125 4.46973c2.375 1.19141 6.0498 2.74609 8.16406 3.45703c2.11523 0.710938 6.30078 1.7207 9.30078 2.24414c4.5293 0.790039 12.7861 0.951172 48.6738 0.951172h43.2197
l1.11914 8.90625c0.616211 4.89844 1.81738 12.9844 2.66992 17.9688c0.853516 4.98438 2.53027 13.5625 3.72852 19.0625s2.89746 12.6719 3.77734 15.9375c0.878906 3.26562 2.58691 9.3125 3.79395 13.4375c1.20605 4.125 3.88965 12.2295 5.96191 18.0098
c2.11914 5.91309 3.52539 10.7256 3.21289 11.0059c-0.303711 0.273438 -33.0322 22.1221 -72.7295 48.5527c-60.3828 40.2041 -72.957 48.8223 -76.9531 52.7441c-2.62695 2.57812 -6.37109 7.1416 -8.32031 10.1396c-1.9502 2.99902 -4.39258 7.49902 -5.43066 10
c-1.03711 2.50195 -2.48926 6.93848 -3.22754 9.86035c-1.06738 4.22266 -1.3418 7.1709 -1.3418 14.375s0.274414 10.1523 1.3418 14.375c0.738281 2.92188 2.19043 7.3584 3.22754 9.86035c1.03809 2.50098 3.48047 7.00098 5.43066 10
c1.94922 2.99805 5.68848 7.56348 8.30957 10.1436c2.62109 2.58105 6.33789 5.73047 8.25977 6.99902s5.4375 3.28027 7.8125 4.46973c2.375 1.19141 6.05859 2.74902 8.18457 3.46387s6.48535 1.75684 9.6875 2.31738c4.16113 0.726562 7.78223 0.918945 12.6963 0.670898
c4.19727 -0.209961 9.2002 -0.943359 12.8438 -1.87988c3.2832 -0.844727 8.19336 -2.58984 10.9111 -3.87988c2.77734 -1.31738 40.2012 -25.8486 85.4404 -56.0059c44.2744 -29.5146 80.8096 -53.7314 81.1914 -53.8164
c0.416016 -0.09375 1.51465 3.63379 2.75879 9.36621c1.13672 5.23633 3.08984 13.1982 4.33789 17.6934c1.25 4.49414 3.41113 11.6006 4.80371 15.791s3.94922 11.1348 5.68066 15.4316c1.73242 4.29688 4.60645 10.9062 6.38672 14.6875s5.14844 10.25 7.48535 14.375
c2.33594 4.125 6.21582 10.4531 8.62109 14.0625c2.4043 3.60938 7.08203 9.9375 10.3936 14.0625s9.12012 10.5938 12.9102 14.375c3.78906 3.78125 9.83594 9.24609 13.4375 12.1445c3.60059 2.89844 9.21973 7.01465 12.4854 9.14648
c3.26562 2.13379 8.46875 5.27441 11.5625 6.97852c3.09375 1.70605 8.21777 4.26562 11.3877 5.68848s9.07617 3.7334 13.125 5.13477s10.6455 3.35254 14.6582 4.33691c4.0127 0.985352 10.2646 2.25586 13.8945 2.8252c3.62891 0.569336 9.06445 1.27441 12.0791 1.56738
c3.01465 0.291016 11.668 0.418945 19.2305 0.282227zM501.875 549.703c-5.33691 0.180664 -9.19922 -0.0224609 -12.1875 -0.639648c-2.40625 -0.498047 -6.68848 -2.04688 -9.51562 -3.44434c-3.72168 -1.83887 -6.41211 -3.78418 -9.74609 -7.04785
c-2.53223 -2.48047 -6.00879 -6.61816 -7.72461 -9.19629s-4.13086 -6.51562 -5.36719 -8.75s-3.50977 -7.15625 -5.05371 -10.9375s-3.81348 -10.1963 -5.04395 -14.2549c-1.23047 -4.05957 -2.23633 -7.50488 -2.23633 -7.65625c0 -0.152344 24.75 -0.276367 55 -0.276367
c39.6064 0 55 0.192383 55 0.688477c0 0.37793 -0.87207 3.68262 -1.93652 7.34375c-1.06641 3.66016 -2.93262 9.18652 -4.14746 12.2803c-1.2168 3.09375 -3.47461 8.15234 -5.01855 11.2402c-1.54395 3.08887 -4.22266 7.72949 -5.9541 10.3125
c-1.73047 2.58398 -5.13965 6.66797 -7.57617 9.07617c-2.74609 2.71484 -6.0918 5.24707 -8.80469 6.66406c-2.40625 1.25684 -6.0625 2.74609 -8.125 3.30859c-2.13574 0.583008 -7.11328 1.13867 -11.5625 1.28906zM499.865 362.345l-150.324 0.158203l-2.2041 -5.7832
c-1.21289 -3.18066 -3.46777 -9.71973 -5.0127 -14.5322c-1.54395 -4.8125 -3.82324 -13.126 -5.06445 -18.4736s-2.94336 -13.7852 -3.7832 -18.75s-1.96387 -13.1045 -2.49805 -18.0889c-0.535156 -4.98438 -1.25 -13.2812 -1.59082 -18.4375
c-0.339844 -5.15625 -0.623047 -14.6592 -0.62793 -21.1182c-0.00585938 -6.45801 0.283203 -16.583 0.640625 -22.5c0.357422 -5.91602 1.21289 -15.792 1.90039 -21.9463c0.688477 -6.1543 1.96191 -15.4355 2.83105 -20.625s2.54688 -13.8271 3.72949 -19.1934
c1.18262 -5.36816 3.13672 -13.3838 4.3418 -17.8125c1.20605 -4.43066 3.62402 -12.4141 5.37402 -17.7422c1.74902 -5.32812 4.73242 -13.625 6.62793 -18.4375c1.89648 -4.8125 5.6123 -13.25 8.25879 -18.75s6.72754 -13.3691 9.07031 -17.4873
s6.43652 -10.7275 9.09668 -14.6875c2.66211 -3.95996 6.54297 -9.41309 8.62598 -12.1182s6.26562 -7.72461 9.2959 -11.1553s8.18164 -8.64355 11.4473 -11.585c3.26562 -2.94043 8.63477 -7.36523 11.9316 -9.83105c3.29688 -2.4668 8.14258 -5.78809 10.7676 -7.38184
l4.77246 -2.89746l0.185547 90.7588l0.185547 90.7598l1.35254 5c0.744141 2.75 2.20117 7.0459 3.23828 9.54785c1.03613 2.50098 3.47852 7.00098 5.42871 10c1.94922 2.99805 5.68848 7.56348 8.30957 10.1436c2.62109 2.58105 6.33789 5.73047 8.25977 6.99902
s5.4375 3.28027 7.8125 4.46973c2.375 1.19141 6.05859 2.74902 8.18457 3.46387s6.48535 1.75684 9.6875 2.31738c4.16113 0.726562 7.78223 0.918945 12.6963 0.670898c4.23535 -0.211914 9.2041 -0.944336 12.9424 -1.90527
c3.33691 -0.857422 8.53223 -2.76367 11.5449 -4.23535c3.01172 -1.4707 7.63477 -4.30273 10.2744 -6.29004c2.6377 -1.98828 6.28027 -5.23242 8.09375 -7.21094c1.81348 -1.97754 4.80859 -5.90918 6.65625 -8.73535c1.84668 -2.82715 4.20605 -7.18652 5.24219 -9.6875
c1.03711 -2.50195 2.49316 -6.79785 3.2373 -9.54785c1.34863 -4.9873 1.35254 -5.22168 1.67969 -94.4814l0.329102 -89.4824l3.95605 2.68848c2.1748 1.47949 6.23926 4.48047 9.0293 6.66992c2.79102 2.18945 8.50391 7.41504 12.6963 11.6133
c4.19043 4.19922 10.0557 10.6787 13.0303 14.4014c2.97559 3.72266 7.26953 9.42871 9.54297 12.6797s6.10645 9.14551 8.51758 13.0986s6.7041 11.6875 9.53906 17.1875c2.83594 5.5 6.83105 13.9375 8.87891 18.75s5.18848 12.6875 6.97852 17.5
c1.79199 4.8125 4.76758 13.7734 6.61426 19.9121c1.8457 6.14062 4.62891 16.5469 6.18262 23.125c1.55469 6.58008 3.66895 16.8848 4.69824 22.9004s2.43164 15.5781 3.11523 21.25s1.58594 14.5312 2.00488 19.6875c0.419922 5.15625 0.753906 17.8125 0.743164 28.125
c-0.00976562 10.3125 -0.363281 22.6875 -0.78418 27.5s-1.31836 12.9688 -1.99414 18.125c-0.676758 5.15625 -2.1875 14.1562 -3.3584 20s-3.40332 14.9844 -4.96094 20.3125s-3.78125 12.2188 -4.94238 15.3125l-2.11035 5.625l-150.324 0.157227v0z" />
  </g>

</svg>
