<?xml version="1.0" standalone="no"?>
<!DOCTYPE svg PUBLIC "-//W3C//DTD SVG 1.1//EN" "http://www.w3.org/Graphics/SVG/1.1/DTD/svg11.dtd" >
<svg xmlns="http://www.w3.org/2000/svg" xmlns:xlink="http://www.w3.org/1999/xlink" version="1.1" viewBox="-10 0 1010 1000">
  <g transform="matrix(1 0 0 -1 0 800)">
   <path fill="currentColor"
d="M125 -75h-62.5v541.668v40.6172l37.1162 16.4961l375 166.666l25.3838 11.2812l25.3838 -11.2812l375 -166.666l37.1162 -16.4961v-40.6172v-541.668h-62.5h-62.5v501.051l-312.5 138.889l-312.5 -138.889v-501.051h-62.5zM482.291 237.501l59.375 0.208008v83.125
h229.165v-458.334h-541.665v375.001h253.125zM601.189 195.834c0 0 -59.5234 0.416992 -59.5234 -0.208008v-83.125h-187.5v-125.001h291.665v208.334h-44.6416zM541.667 -75h62.5v374.999c0 27.6221 -10.9775 54.1279 -30.5078 73.6553
c-19.5352 19.5361 -46.0332 30.5117 -73.6592 30.5117h-83.333c-27.624 0 -54.1279 -10.9795 -73.6533 -30.5068c-19.541 -19.5371 -30.5137 -46.0361 -30.5137 -73.6602v-124.999h62.5h62.5v104.166h41.667v-354.166h62.5z" />
  </g>

</svg>
