<?xml version="1.0" standalone="no"?>
<!DOCTYPE svg PUBLIC "-//W3C//DTD SVG 1.1//EN" "http://www.w3.org/Graphics/SVG/1.1/DTD/svg11.dtd" >
<svg xmlns="http://www.w3.org/2000/svg" xmlns:xlink="http://www.w3.org/1999/xlink" version="1.1" viewBox="-10 0 1010 1000">
  <g transform="matrix(1 0 0 -1 0 800)">
   <path fill="currentColor"
d="M498.931 695.555c178.851 0.0488281 262.396 -0.136719 266.562 -0.588867c3.33789 -0.362305 9.54199 -1.35352 13.7861 -2.20312s10.8164 -2.54688 14.6035 -3.77051c3.78809 -1.22461 9.86719 -3.47559 13.5098 -5.00195
c3.64258 -1.52539 9.4248 -4.33887 12.8496 -6.25195c3.42383 -1.91309 8.69824 -5.14062 11.7188 -7.17188c3.02148 -2.03125 7.96484 -5.76172 10.9854 -8.28906c3.01953 -2.52832 8.45605 -7.66113 12.0801 -11.4062c3.62305 -3.74512 8.28418 -9.05859 10.3574 -11.8086
s4.9043 -6.6875 6.29199 -8.75c1.38672 -2.0625 3.97461 -6.33105 5.74902 -9.48535c1.77539 -3.1543 4.59863 -8.93066 6.27539 -12.8369c1.67578 -3.90625 4.04883 -10.2676 5.27441 -14.1367s2.92676 -10.4668 3.78027 -14.6631
c0.854492 -4.19531 1.84961 -10.3594 2.21094 -13.6973c0.452148 -4.16211 0.65918 -96.501 0.65918 -293.905c0 -229.85 0.157227 -287.84 0.78125 -287.848c0.429688 -0.00488281 3.30957 -1.2832 6.40039 -2.83984c3.09082 -1.55859 7.6582 -4.39453 10.1494 -6.30273
c2.49121 -1.90723 5.9873 -5.05859 7.76855 -7.00195c1.78223 -1.94336 4.75195 -5.84668 6.59961 -8.67285c1.84668 -2.82715 4.20605 -7.18652 5.24414 -9.6875c1.03711 -2.50195 2.48926 -6.93848 3.22754 -9.86035c1.06738 -4.22266 1.3418 -7.1709 1.3418 -14.375
s-0.274414 -10.1523 -1.3418 -14.375c-0.738281 -2.92188 -2.19043 -7.3584 -3.22754 -9.86035c-1.03809 -2.50098 -3.39746 -6.86035 -5.24414 -9.6875c-1.84766 -2.82617 -4.84277 -6.75781 -6.65625 -8.73535c-1.81348 -1.97852 -5.45605 -5.22266 -8.09375 -7.21094
c-2.63965 -1.9873 -7.2627 -4.81934 -10.2744 -6.29004c-3.0127 -1.47168 -8.20801 -3.43066 -11.5449 -4.35254l-6.06738 -1.67578l-382.188 -0.161133c-339.48 -0.143555 -382.803 -0.0546875 -387.695 0.788086c-3.03027 0.522461 -7.24902 1.53418 -9.375 2.24902
s-5.80957 2.27246 -8.18457 3.46387c-2.375 1.18945 -5.89062 3.20117 -7.8125 4.46973s-5.63867 4.41797 -8.25977 6.99902c-2.62109 2.58008 -6.36035 7.14551 -8.30957 10.1436c-1.9502 2.99902 -4.39258 7.49902 -5.43066 10
c-1.03711 2.50195 -2.48926 6.93848 -3.22754 9.86035c-1.06738 4.22266 -1.3418 7.1709 -1.3418 14.375s0.274414 10.1523 1.3418 14.375c0.738281 2.92188 2.19043 7.3584 3.22754 9.86035c1.03809 2.50098 3.40039 6.86035 5.25195 9.6875
c1.85156 2.82617 4.69238 6.60449 6.3125 8.39355c1.62012 1.79004 4.68848 4.62891 6.81934 6.30762c2.12988 1.67969 5.55957 4.0293 7.62207 5.22168s5.36719 2.83496 7.34375 3.65137l3.59375 1.4834v287.723c0 197.478 0.207031 289.626 0.65918 293.791
c0.362305 3.33789 1.35059 9.52344 2.19531 13.7451s2.75977 11.3936 4.25586 15.9375s4.10742 11.3672 5.80273 15.1631c1.69434 3.7959 4.85352 9.87598 7.01855 13.5107c2.16602 3.63574 6.19727 9.6709 8.95996 13.4121c2.76855 3.75 8.97949 10.7598 13.8457 15.626
s11.876 11.0771 15.626 13.8457c3.74121 2.7627 9.7207 6.76074 13.2871 8.88574c3.56738 2.125 9.64746 5.28125 13.5117 7.01465c3.86328 1.7334 10.6816 4.35449 15.1504 5.82617s10.9375 3.27441 14.375 4.00781s9.20312 1.71191 12.8125 2.1748
c5.40137 0.693359 52.6553 0.854492 267.056 0.911133zM500.938 570.44c-230.66 0.116211 -255.27 0.0341797 -257.812 -0.856445c-1.54688 -0.541016 -3.98047 -1.82227 -5.40723 -2.8457s-3.43164 -3.0293 -4.45508 -4.45605s-2.31738 -3.94043 -2.87402 -5.58496
c-0.928711 -2.74121 -1.01367 -26.6641 -1.01367 -286.095v-283.104h41.5469h41.5479l0.205078 143.906c0.186523 131.015 0.298828 144.521 1.25586 150.78c0.577148 3.78125 1.77539 10.3604 2.66016 14.6201c0.885742 4.25977 2.59961 11.0098 3.80859 15
s3.18262 9.92676 4.38477 13.1924s4.54688 10.7334 7.43359 16.5947c2.97754 6.04688 7.93164 14.6982 11.4531 20c3.41309 5.13867 9.14648 12.8584 12.7412 17.1553c3.5957 4.29688 9.46191 10.625 13.0391 14.0625c3.57617 3.4375 8.6084 7.96777 11.1816 10.0664
c2.57422 2.09961 7.21094 5.63867 10.3047 7.86523s8.57812 5.83301 12.1875 8.01367s10.7812 6.00195 15.9375 8.49121c5.15625 2.48828 12.9346 5.80469 17.2842 7.37012c4.35059 1.56445 11.7012 3.8252 16.3369 5.02441
c4.63477 1.19727 11.7627 2.74609 15.8398 3.43945c4.07812 0.694336 10.9297 1.58496 15.2266 1.97949c4.79297 0.44043 13.1279 0.579102 21.5625 0.358398c7.5625 -0.198242 16.6084 -0.78418 20.1006 -1.30469c3.49316 -0.519531 9.1748 -1.52051 12.626 -2.22363
s9.64258 -2.24805 13.7578 -3.43262s10.2461 -3.1748 13.624 -4.42383s10.6416 -4.44629 16.1416 -7.10742c5.5 -2.66016 13.0938 -6.75293 16.875 -9.09375s9.40625 -6.13477 12.5 -8.43066s8.15625 -6.29883 11.25 -8.89648
c3.09375 -2.59863 8.57812 -7.78809 12.1875 -11.5322c3.60938 -3.74512 8.69727 -9.47559 11.3066 -12.7354s6.58691 -8.59961 8.83789 -11.8652c2.25195 -3.26562 6.04883 -9.35547 8.43848 -13.5342c2.38965 -4.17773 5.94238 -11.1416 7.89453 -15.4756
c1.95215 -4.33301 5.06738 -12.4463 6.92188 -18.0283c1.85449 -5.58301 4.10449 -13.4434 5 -17.4697c0.894531 -4.02734 2.03711 -10.0742 2.53809 -13.4375c0.500977 -3.36426 1.19531 -9.35156 1.54395 -13.3047c0.40332 -4.58301 0.634766 -57.6367 0.637695 -146.405
l0.00585938 -139.22h41.5654h41.5654l-0.15918 284.22l-0.15918 284.219l-1.74023 3.30273c-0.957031 1.81641 -2.85938 4.38867 -4.22754 5.7168c-1.36816 1.32715 -3.81934 3.0752 -5.44727 3.88379l-2.95996 1.47168zM501.562 320.363
c-6.41895 0.148438 -10.6553 -0.0576172 -13.4375 -0.654297c-2.23438 -0.479492 -5.89062 -1.47656 -8.125 -2.21582s-6.38086 -2.56836 -9.21484 -4.06641c-2.83301 -1.49707 -6.77051 -3.97266 -8.75 -5.50098c-1.97852 -1.5293 -5.32422 -4.58398 -7.43555 -6.78906
c-2.11035 -2.20605 -5.16113 -6.05664 -6.77832 -8.55762c-1.61816 -2.5 -3.79102 -6.4209 -4.83008 -8.71191s-2.62891 -6.83984 -3.53418 -10.1104l-1.64453 -5.94434l-0.166016 -140.156l-0.165039 -140.156h62.5195h62.5186l-0.165039 140.156l-0.166016 140.156
l-1.64453 5.94434c-0.905273 3.27051 -2.52246 7.87988 -3.59375 10.2441c-1.07227 2.36328 -3.47754 6.59375 -5.34375 9.39941c-1.86816 2.80664 -5.59375 7.19727 -8.28125 9.75879c-2.6875 2.56055 -6.52051 5.73535 -8.5166 7.05566
c-1.99707 1.32031 -5.93457 3.47852 -8.75 4.79688c-2.81641 1.31738 -7.37012 3.01172 -10.1201 3.76562c-3.83789 1.05078 -7.17773 1.41992 -14.376 1.58594z" />
  </g>

</svg>
