<?xml version="1.0" standalone="no"?>
<!DOCTYPE svg PUBLIC "-//W3C//DTD SVG 1.1//EN" "http://www.w3.org/Graphics/SVG/1.1/DTD/svg11.dtd" >
<svg xmlns="http://www.w3.org/2000/svg" xmlns:xlink="http://www.w3.org/1999/xlink" version="1.1" viewBox="-10 0 1010 1000">
  <g transform="matrix(1 0 0 -1 0 800)">
   <path fill="currentColor"
d="M501.875 737.224c5.64355 -0.179688 9.46094 -0.677734 13.75 -1.79395c4.66211 -1.21387 31.4463 -13.1426 124.74 -55.5586c78.7334 -35.7959 120.367 -55.042 123.438 -57.0645c2.54883 -1.67773 6.76562 -5.17578 9.37012 -7.77246
s5.86621 -6.40918 7.24805 -8.47168c1.38379 -2.0625 25.8682 -45.7969 54.4102 -97.1875c28.543 -51.3906 52.9209 -95.4521 54.1729 -97.916c1.25195 -2.46191 2.82715 -6.07617 3.49902 -8.03027s1.64941 -5.80664 2.17188 -8.55957
c0.837891 -4.41504 0.950195 -29.0127 0.950195 -208.062c0 -162.024 0.158203 -203.06 0.78125 -203.066c0.429688 -0.00488281 3.30957 -1.2832 6.40039 -2.83984c3.09082 -1.55859 7.6582 -4.39453 10.1494 -6.30273c2.49121 -1.90723 5.9873 -5.05859 7.76855 -7.00195
c1.78223 -1.94336 4.75195 -5.84668 6.59961 -8.67285c1.84668 -2.82715 4.20605 -7.18652 5.24414 -9.6875c1.03711 -2.50195 2.48926 -6.93848 3.22754 -9.86035c1.06738 -4.22266 1.3418 -7.1709 1.3418 -14.375s-0.274414 -10.1523 -1.3418 -14.375
c-0.738281 -2.92188 -2.19043 -7.3584 -3.22754 -9.86035c-1.03809 -2.50098 -3.39746 -6.86035 -5.24414 -9.6875c-1.84766 -2.82617 -4.84277 -6.75781 -6.65625 -8.73535c-1.81348 -1.97852 -5.45605 -5.22266 -8.09375 -7.21094
c-2.63965 -1.9873 -7.2627 -4.81934 -10.2744 -6.29004c-3.0127 -1.47168 -8.20801 -3.43066 -11.5449 -4.35254l-6.06738 -1.67578l-382.188 -0.161133c-339.481 -0.143555 -382.803 -0.0546875 -387.696 0.788086c-3.03027 0.522461 -7.24902 1.53418 -9.375 2.24902
s-5.80957 2.27246 -8.18457 3.46387c-2.375 1.18945 -5.89062 3.20117 -7.8125 4.46973s-5.63867 4.41797 -8.25977 6.99902c-2.62109 2.58008 -6.36035 7.14551 -8.30957 10.1436c-1.9502 2.99902 -4.39258 7.49902 -5.43066 10
c-1.03711 2.50195 -2.48926 6.93848 -3.22754 9.86035c-1.06738 4.22266 -1.3418 7.1709 -1.3418 14.375s0.274414 10.1523 1.3418 14.375c0.738281 2.92188 2.19043 7.3584 3.22754 9.86035c1.03809 2.50098 3.40039 6.86035 5.25195 9.6875
c1.85156 2.82617 4.69238 6.60449 6.3125 8.39355c1.62012 1.79004 4.68848 4.62891 6.81934 6.30762c2.12988 1.67969 5.55957 4.0293 7.62207 5.22168s5.36719 2.83496 7.34375 3.65137l3.59375 1.4834l0.0078125 203.166
c0.00878906 195.625 0.0517578 203.375 1.17188 208.799c0.638672 3.09863 1.94141 7.59863 2.89355 10c0.952148 2.40234 25.7803 47.6797 55.1729 100.617s54.5703 97.9375 55.9492 100c1.37988 2.0625 4.64258 5.86328 7.25 8.44727
c2.6084 2.58203 6.71094 6.01758 9.11719 7.63379c2.91699 1.95801 43.6416 20.793 122.188 56.5127c64.7969 29.4658 119.671 54.2217 121.94 55.0127c2.27148 0.790039 6.34961 1.85645 9.0625 2.37012c3.33691 0.630859 7.46289 0.852539 12.7461 0.68457v-0.000976562z
M500.625 605.906c-0.515625 0.177734 -42.4219 -18.5479 -93.125 -41.6123l-92.1875 -41.9336l-42.9688 -77.3994l-42.9688 -77.3994v-190.03v-190.031h41.5625h41.5625v75.9053c0 63.8711 0.148438 77.0391 0.9375 83.0557c0.515625 3.93359 1.62207 9.7832 2.45898 13.002
c0.836914 3.2168 2.40137 8.15234 3.47754 10.9678s3.16992 7.49805 4.6543 10.4072c1.48438 2.9082 4.17578 7.49512 5.98047 10.1943c1.80469 2.69824 5.25 7.2334 7.65625 10.0801c2.40723 2.84473 6.37793 6.94238 8.82422 9.10547
c2.44629 2.16211 6.13574 5.20117 8.19824 6.75293s5.85938 4.09277 8.4375 5.64746s5.8125 3.3916 7.1875 4.08398c1.375 0.691406 5.10352 2.28027 8.28418 3.53027s8.48535 2.97461 11.7881 3.83301c3.30176 0.857422 9.2207 1.98145 13.1543 2.49707
c6.06738 0.795898 20.6748 0.9375 96.4609 0.9375s90.3936 -0.141602 96.4609 -0.9375c3.93359 -0.515625 9.875 -1.64453 13.2031 -2.50977c3.3291 -0.864258 8.23047 -2.41309 10.8926 -3.43945c2.66309 -1.02637 7.31641 -3.12988 10.3418 -4.67285
c3.02539 -1.54395 7.64746 -4.25781 10.2695 -6.03125c2.62305 -1.77246 7.09766 -5.1709 9.94238 -7.5498c2.8457 -2.37891 7.31738 -6.7666 9.93848 -9.74902c2.62012 -2.98242 6.70898 -8.35938 9.08398 -11.9473c2.37598 -3.58887 5.40918 -8.80664 6.74023 -11.5967
c1.33105 -2.78809 3.1582 -7.02441 4.06055 -9.41211s2.32715 -6.97461 3.16602 -10.1914c0.838867 -3.21875 1.94727 -9.06836 2.46289 -13.002c0.789062 -6.0166 0.9375 -19.1846 0.9375 -83.0557v-75.9053h41.5625h41.5625v190.031v190.03l-42.9688 77.3994
l-42.9688 77.3984l-91.5625 41.6123c-50.3594 22.8867 -91.9844 41.7578 -92.5 41.9346zM498.931 570.543c5.77148 0.0449219 13.2246 -0.214844 16.5625 -0.577148s9.58496 -1.35742 13.8818 -2.20996s12.0312 -2.96777 17.1875 -4.69922s13.0312 -4.93945 17.5 -7.12695
s11.5 -6.19141 15.625 -8.89844c4.125 -2.70605 10.0312 -7.04199 13.125 -9.63574c3.09375 -2.59277 8.59961 -7.7793 12.2344 -11.5244s8.88086 -9.86914 11.6592 -13.6094c2.77734 -3.74121 6.78809 -9.7207 8.91309 -13.2871
c2.125 -3.56738 5.28125 -9.64746 7.01465 -13.5117c1.7334 -3.86328 4.37793 -10.7432 5.87598 -15.2871c1.49902 -4.54395 3.41992 -11.7158 4.26855 -15.9375c0.849609 -4.22168 1.875 -10.8799 2.28027 -14.7959c0.448242 -4.3457 0.601562 -11.7734 0.393555 -19.0625
c-0.230469 -8.10645 -0.779297 -14.4521 -1.70801 -19.7549c-0.751953 -4.29688 -2.32227 -11.1348 -3.49023 -15.1953s-3.27539 -10.333 -4.68555 -13.9375c-1.40918 -3.60547 -4.08691 -9.52734 -5.94922 -13.1602c-1.8623 -3.63184 -4.95996 -9.01855 -6.88477 -11.9717
c-1.9248 -2.95215 -5.21387 -7.62988 -7.30957 -10.3955c-2.0957 -2.76465 -6.77539 -8.09082 -10.3984 -11.8359c-3.62402 -3.74512 -9.12012 -8.93164 -12.2139 -11.5244c-3.09375 -2.59375 -9 -6.92969 -13.125 -9.63574
c-4.125 -2.70703 -11.1562 -6.71094 -15.625 -8.89844s-12.3438 -5.39551 -17.5 -7.12695s-12.8906 -3.84668 -17.1875 -4.69922s-10.5439 -1.84766 -13.8818 -2.20996s-10.3779 -0.65918 -15.6436 -0.65918s-13.0625 0.431641 -17.3242 0.958984
c-4.2627 0.52832 -10.4414 1.54004 -13.7314 2.24805c-3.29004 0.708984 -9.6377 2.49121 -14.1064 3.96094c-4.46777 1.46973 -11.2871 4.08984 -15.1504 5.82324c-3.86426 1.7334 -9.94434 4.88965 -13.5117 7.01465c-3.56641 2.125 -9.5459 6.12305 -13.2871 8.88574
c-3.75 2.76855 -10.7598 8.97949 -15.626 13.8457s-11.0762 11.876 -13.8457 15.626c-2.7627 3.74121 -6.79395 9.77637 -8.95996 13.4121c-2.16504 3.63477 -5.32422 9.71484 -7.01855 13.5107c-1.69531 3.7959 -4.30664 10.6191 -5.80273 15.1631
s-3.41113 11.7158 -4.25586 15.9375s-1.83301 10.4072 -2.19531 13.7451s-0.65918 10.3096 -0.65918 15.4932s0.296875 12.1553 0.65918 15.4932s1.35352 9.54199 2.20312 13.7861s2.54688 10.8164 3.77051 14.6035c1.22461 3.78809 3.46777 9.85059 4.98535 13.4717
c1.51758 3.62207 4.0752 9.00293 5.68555 11.959s5.00586 8.45312 7.54785 12.2158c2.54199 3.76367 6.39648 8.9668 8.56738 11.5625c2.1709 2.59668 7.14062 7.83594 11.0449 11.6445c3.9043 3.80762 10.1592 9.19531 13.8994 11.9707
c3.74121 2.77637 9.7207 6.78711 13.2871 8.91211c3.56738 2.125 9.64746 5.28125 13.5117 7.01465c3.86328 1.7334 10.7432 4.37793 15.2871 5.87598c4.54395 1.49902 11.7158 3.42188 15.9375 4.27441c4.22168 0.851562 9.92578 1.80273 12.6758 2.1123
c2.75 0.310547 9.72168 0.601562 15.4932 0.646484zM500.625 445.451c-3.42969 0.09375 -6.14844 -0.172852 -7.67285 -0.750977c-1.29785 -0.493164 -3.61523 -1.79785 -5.14941 -2.89941s-3.75879 -3.43457 -4.94043 -5.18359
c-1.18359 -1.74902 -2.48438 -4.33594 -2.89258 -5.74805c-0.40625 -1.41309 -0.630859 -4.64746 -0.498047 -7.1875c0.166992 -3.17383 0.697266 -5.55176 1.69727 -7.60059c0.799805 -1.63965 2.67578 -4.20215 4.16895 -5.69434
c1.49219 -1.49316 4.06543 -3.38574 5.71875 -4.20703c2.54297 -1.26172 3.91992 -1.48926 8.94336 -1.47656c4.95605 0.0136719 6.43457 0.259766 8.94336 1.49219c1.65332 0.8125 4.21582 2.6875 5.69434 4.16699c1.47949 1.47852 3.35742 4.04102 4.17285 5.69434
c1.24512 2.52441 1.48242 3.95605 1.48242 8.94336s-0.237305 6.41895 -1.48242 8.94336c-0.81543 1.65332 -2.7041 4.22656 -4.19727 5.71875c-1.49219 1.49316 -4.05469 3.37305 -5.69434 4.17871c-2.30176 1.13086 -4.19434 1.49902 -8.29395 1.61035zM500 112.5h-62.5
v-62.5v-62.5h62.5h62.5v62.5v62.5h-62.5z" />
  </g>

</svg>
