<?xml version="1.0" standalone="no"?>
<!DOCTYPE svg PUBLIC "-//W3C//DTD SVG 1.1//EN" "http://www.w3.org/Graphics/SVG/1.1/DTD/svg11.dtd" >
<svg xmlns="http://www.w3.org/2000/svg" xmlns:xlink="http://www.w3.org/1999/xlink" version="1.1" viewBox="-10 0 1010 1000">
  <g transform="matrix(1 0 0 -1 0 800)">
   <path fill="currentColor"
d="M252.812 653.972c3.09375 -0.168945 7.73438 -0.735352 10.3125 -1.25684c2.57812 -0.523438 6.79688 -1.76367 9.375 -2.75879c2.57812 -0.994141 6.79688 -3.05469 9.375 -4.5791s6.375 -4.20801 8.4375 -5.96289c2.0625 -1.75586 5.35742 -5.08398 7.32227 -7.39746
c1.96289 -2.3125 4.74121 -6.24902 6.1709 -8.74805s3.28027 -6.22754 4.11133 -8.28613c0.832031 -2.05762 2.10742 -5.91992 2.83594 -8.58105c1.16992 -4.27539 1.36621 -7.13184 1.69238 -24.5264l0.368164 -19.6875l4.91211 -8.75
c2.70117 -4.8125 7.28809 -12.2334 10.1934 -16.4912s7.56934 -10.5859 10.3652 -14.0625s9.17676 -10.4248 14.1807 -15.4385c5.00391 -5.01562 11.4883 -11.0713 14.4111 -13.458c2.92188 -2.38672 7.14062 -5.69922 9.375 -7.36133
c2.23438 -1.66113 6.73438 -4.7793 10 -6.92773c3.26562 -2.14941 9.59375 -5.9082 14.0625 -8.35449c4.46875 -2.44531 11.9873 -6.12207 16.7061 -8.16992c4.7207 -2.04785 12.0449 -4.87305 16.2773 -6.27637c4.23145 -1.40332 11.4775 -3.50391 16.1045 -4.66699
c4.62695 -1.16406 11.9268 -2.70312 16.2246 -3.4209c4.29688 -0.71875 10.625 -1.60449 14.0625 -1.96973c3.4375 -0.364258 12.5771 -0.663086 20.3125 -0.663086c7.73438 0 16.875 0.302734 20.3125 0.670898c3.4375 0.370117 8.92188 1.09277 12.1875 1.60547
s8.60938 1.52051 11.875 2.23828s8.32812 1.9707 11.25 2.78418s8.125 2.43359 11.5625 3.60156c3.4375 1.16895 9.47363 3.44824 13.4141 5.06641c3.94141 1.61816 10.1289 4.45996 13.75 6.31738c3.62207 1.85547 9.59863 5.18848 13.2803 7.4043
c3.68262 2.21582 9.87109 6.29492 13.75 9.06445c3.87988 2.76953 10.29 7.81641 14.2432 11.2158c3.95312 3.40039 10.3467 9.44727 14.2061 13.4385c3.86035 3.99121 9.43164 10.2881 12.3818 13.9932c2.94922 3.7041 7.58105 10 10.293 13.9893
c2.71191 3.99023 7.19434 11.2998 9.96191 16.2432l5.03223 8.98828v16.9561c0 12.1113 0.261719 18.4541 0.917969 22.1953c0.503906 2.88184 1.58789 7.20703 2.40918 9.61328s2.26953 5.92188 3.21875 7.8125c0.950195 1.89062 2.96582 5.31348 4.48047 7.60645
s4.74902 6.16504 7.18848 8.60449c2.43848 2.43848 6.86816 6.0625 9.84277 8.05176s7.94824 4.63379 11.0537 5.87695c3.10449 1.24316 7.87988 2.73926 10.6104 3.32617c3.18457 0.68457 7.76855 1.06738 12.7783 1.06738c5.01855 0 9.60059 -0.383789 12.8125 -1.07227
c2.75 -0.588867 7.10938 -1.88477 9.6875 -2.87988c2.57812 -0.994141 6.79688 -3.05469 9.375 -4.5791s6.375 -4.20801 8.4375 -5.96289c2.0625 -1.75586 5.35742 -5.08398 7.32227 -7.39746c1.96289 -2.3125 4.74121 -6.24902 6.1709 -8.74805
s3.28027 -6.22754 4.11133 -8.28613c0.832031 -2.05762 2.09961 -5.91992 2.81836 -8.58105c1.06055 -3.9248 1.36328 -7.28418 1.60547 -17.7773l0.299805 -12.9375l5.71094 -4.91699c3.14062 -2.7041 8.52344 -7.03809 11.9609 -9.63086
s9.48438 -6.83398 13.4375 -9.42578s10.8438 -6.75586 15.3125 -9.25293c4.46777 -2.49707 10.6553 -5.72949 13.75 -7.18359c3.09375 -1.4541 7.45312 -3.41797 9.6875 -4.36426c2.23438 -0.947266 7.45117 -3.03027 11.5938 -4.63086
c4.1416 -1.59863 9.39453 -3.95117 11.6729 -5.22363c2.27832 -1.27441 6.06152 -3.87109 8.40625 -5.77051c2.3457 -1.89941 6.00684 -5.47168 8.13574 -7.93945c2.12793 -2.46777 5.0459 -6.54199 6.4834 -9.05371c1.4375 -2.5127 3.29395 -6.25195 4.125 -8.31055
c0.832031 -2.05859 2.10254 -5.91992 2.82715 -8.58105c1.06152 -3.90918 1.32031 -6.70117 1.3457 -14.5273c0.0234375 -7.07422 -0.251953 -10.8242 -1.01758 -13.8975c-0.578125 -2.31641 -1.89355 -6.39648 -2.92383 -9.06738
c-1.03027 -2.67188 -3.26562 -7.12012 -4.9668 -9.88477s-5 -7.08691 -7.33105 -9.60352c-2.33105 -2.51758 -6.07715 -5.97363 -8.3252 -7.68164c-2.24805 -1.70703 -6.90039 -4.4707 -10.3379 -6.1416s-8.5 -3.64062 -11.25 -4.37793
c-3.28223 -0.879883 -7.74316 -1.45605 -12.9834 -1.67578c-4.99316 -0.209961 -9.77637 -0.046875 -12.7725 0.436523c-2.63574 0.425781 -6.8916 1.45898 -9.45898 2.29688s-8.77246 3.17676 -13.7891 5.19629c-5.0166 2.02051 -12.0283 4.96973 -15.582 6.55566
c-3.55273 1.58496 -8.12305 3.72168 -10.1562 4.74805l-3.69531 1.86621v-94.0732v-94.0713h54.0176c35.3359 0 55.6982 -0.233398 58.8799 -0.675781c2.6748 -0.37207 7.125 -1.39062 9.88965 -2.2627c2.76367 -0.871094 7.13477 -2.64551 9.71289 -3.94238
s6.46777 -3.66992 8.64258 -5.27246c2.17578 -1.60449 5.72461 -4.72949 7.88672 -6.94531c2.16211 -2.2168 5.25293 -6 6.86914 -8.4082c1.61523 -2.40723 3.88672 -6.43359 5.04883 -8.94629c1.16016 -2.5127 2.67383 -6.59961 3.36133 -9.08398
c0.688477 -2.48242 1.56934 -7.25293 1.95898 -10.5996c0.520508 -4.48242 0.525391 -7.72754 0.0166016 -12.3184c-0.379883 -3.42773 -1.27539 -8.3418 -1.99023 -10.9199s-2.23535 -6.72461 -3.37891 -9.21387s-3.40137 -6.49707 -5.0166 -8.9043
c-1.61621 -2.4082 -4.70703 -6.19141 -6.86914 -8.4082c-2.16211 -2.21582 -5.71094 -5.34082 -7.88672 -6.94531c-2.1748 -1.60254 -6.06445 -3.97559 -8.64258 -5.27246s-6.94922 -3.07129 -9.71289 -3.94238c-2.76465 -0.87207 -7.21484 -1.89062 -9.88965 -2.2627
c-3.18066 -0.442383 -23.5371 -0.675781 -58.8555 -0.675781h-53.9922l-0.196289 -57.0303c-0.193359 -56.4404 -0.208984 -57.082 -1.55957 -61.8701c-0.750977 -2.66113 -2.04492 -6.52344 -2.87695 -8.58105c-0.831055 -2.05859 -2.68164 -5.78711 -4.11133 -8.28613
s-4.20801 -6.43555 -6.1709 -8.74805c-1.96484 -2.31348 -5.25977 -5.6416 -7.32227 -7.39746c-2.0625 -1.75488 -5.85938 -4.43848 -8.4375 -5.96289s-6.79688 -3.58496 -9.375 -4.5791c-2.57812 -0.995117 -6.9375 -2.2959 -9.6875 -2.8916
c-3.24414 -0.702148 -7.74414 -1.08203 -12.8125 -1.08203c-5.06055 0 -9.56152 0.379883 -12.7783 1.07812c-2.73047 0.591797 -7.50586 2.09375 -10.6104 3.33691c-3.10547 1.24316 -8.0791 3.8877 -11.0537 5.87695s-7.4043 5.61328 -9.84277 8.05176
c-2.43945 2.43945 -5.67383 6.31152 -7.18848 8.60449s-3.53027 5.71582 -4.48047 7.60645c-0.949219 1.89062 -2.39746 5.40625 -3.21875 7.8125s-1.90527 6.73145 -2.40918 9.61328c-0.759766 4.33691 -0.917969 14.6338 -0.917969 59.8438v54.6055h-187.476h-187.476
l-0.196289 -57.0312c-0.193359 -56.4404 -0.208984 -57.0811 -1.55957 -61.8701c-0.750977 -2.66113 -2.04492 -6.52344 -2.87695 -8.58105c-0.831055 -2.05859 -2.68164 -5.78711 -4.11133 -8.28613s-4.20801 -6.43555 -6.1709 -8.74805
c-1.96484 -2.31348 -5.25977 -5.6416 -7.32227 -7.39746c-2.0625 -1.75488 -5.85938 -4.43848 -8.4375 -5.96289s-6.79688 -3.58496 -9.375 -4.5791c-2.57812 -0.995117 -6.9375 -2.2959 -9.6875 -2.8916c-3.24414 -0.702148 -7.74414 -1.08203 -12.8125 -1.08203
c-5.06055 0 -9.56152 0.379883 -12.7783 1.07812c-2.73047 0.591797 -7.50586 2.09375 -10.6104 3.33691c-3.10547 1.24316 -8.0791 3.8877 -11.0537 5.87695s-7.4043 5.61328 -9.84277 8.05176c-2.43945 2.43945 -5.67383 6.31152 -7.18848 8.60449
s-3.53027 5.71582 -4.48047 7.60645c-0.949219 1.89062 -2.39746 5.40625 -3.21875 7.8125s-1.90527 6.73145 -2.40918 9.61328c-0.759766 4.33691 -0.917969 14.6338 -0.917969 59.8438v54.6055h-54.0176c-35.3359 0 -55.6982 0.233398 -58.8799 0.675781
c-2.6748 0.37207 -7.125 1.39062 -9.88965 2.2627c-2.76367 0.871094 -7.13477 2.64551 -9.71289 3.94238s-6.38086 3.60547 -8.4502 5.13086s-5.6123 4.6416 -7.87402 6.92578c-2.26074 2.28418 -5.43848 6.13086 -7.06152 8.5498
c-1.62207 2.41797 -3.88574 6.43457 -5.0293 8.92383s-2.66406 6.63574 -3.37891 9.21387s-1.61035 7.49219 -1.99023 10.9199c-0.508789 4.59082 -0.503906 7.83594 0.0166016 12.3184c0.389648 3.34668 1.27051 8.11719 1.95898 10.5996
c0.6875 2.48438 2.20117 6.57129 3.36133 9.08398c1.16211 2.5127 3.43945 6.54785 5.06152 8.96582c1.62305 2.41895 4.80078 6.26562 7.06152 8.5498c2.26172 2.28418 5.80469 5.40039 7.87402 6.92578s5.87207 3.83398 8.4502 5.13086s6.94922 3.07129 9.71289 3.94238
c2.76465 0.87207 7.21484 1.89062 9.88965 2.2627c3.18164 0.442383 23.5439 0.675781 58.8799 0.675781h54.0176v94.0186v94.0166l-7.66992 -3.6416c-4.21875 -2.00195 -11.0986 -5.07324 -15.2871 -6.82324c-4.18945 -1.75 -10.5107 -4.26953 -14.0488 -5.59766
c-3.53711 -1.3291 -8.40039 -2.94629 -10.8066 -3.59473c-3.44922 -0.929688 -6.55762 -1.18066 -14.6875 -1.18457c-8.85547 -0.00488281 -11.0635 0.199219 -15.625 1.44434c-2.92188 0.797852 -7.62598 2.53418 -10.4541 3.85938
c-2.8291 1.3252 -7.25195 3.86621 -9.8291 5.64746c-2.57715 1.78223 -6.69336 5.35254 -9.14648 7.93555c-2.45215 2.58203 -5.83594 6.84082 -7.51855 9.46387s-3.91797 6.82812 -4.96777 9.34668c-1.0498 2.51758 -2.46191 6.73633 -3.13672 9.375
c-0.674805 2.6377 -1.39746 7.60938 -1.60742 11.0469c-0.220703 3.63281 -0.0703125 8.57031 0.360352 11.791c0.407227 3.04688 1.46191 7.82812 2.34375 10.625c0.881836 2.7959 2.44629 6.77148 3.47754 8.83398s3.11426 5.62598 4.62891 7.91895
c1.51562 2.29297 4.75 6.16504 7.18945 8.60449c2.43848 2.43848 6.8623 6.05078 9.8291 8.02637c2.96582 1.97656 7.22168 4.34668 9.45605 5.26855c2.23438 0.922852 7.4375 2.99023 11.5625 4.59375c4.125 1.60449 11.7188 4.9707 16.875 7.48145
s11.9062 6.02539 15 7.81055c3.09375 1.78418 8.81055 5.33105 12.7041 7.88184c3.89258 2.5498 9.6582 6.56934 12.8125 8.93066c3.15332 2.3623 8.5459 6.66211 11.9834 9.55566l6.25 5.26172l0.369141 12.7705c0.203125 7.02344 0.705078 14.1768 1.11426 15.8955
s1.33691 4.95312 2.06152 7.1875s2.1543 5.75 3.17773 7.8125s3.10059 5.62598 4.61523 7.91895c1.51562 2.29297 4.69727 6.11133 7.07129 8.48633c2.37402 2.37305 6.50293 5.82715 9.1748 7.6748s7.29883 4.41016 10.2812 5.69727
c2.9834 1.28516 7.14355 2.7832 9.24609 3.32812s5.8623 1.24219 8.35547 1.55176c2.49316 0.308594 7.06445 0.421875 10.1582 0.251953v-0.000976562zM312.784 378.125c-0.15625 0 -0.28418 -31.6406 -0.28418 -70.3125v-70.3125h62.5h62.5v44.6436v44.6426
l-3.59375 0.708984c-1.97656 0.389648 -7.06348 1.53516 -11.3027 2.5459c-4.24023 1.00977 -11.6201 2.9668 -16.3994 4.34668c-4.78027 1.38184 -12.1396 3.73633 -16.3545 5.23242c-4.21387 1.49512 -11.3184 4.19336 -15.7871 5.99414s-13.75 6.0293 -20.625 9.39648
s-16.0156 8.15918 -20.3125 10.6484c-4.29688 2.49023 -10.5674 6.31348 -13.9346 8.49609c-3.36719 2.18359 -6.25 3.96973 -6.40625 3.96973zM687.031 378.097c-0.257812 -0.0146484 -1.73438 -0.924805 -3.28125 -2.02148
c-1.54688 -1.0957 -7.17188 -4.61426 -12.5 -7.81738c-5.32812 -3.2041 -15.875 -8.89746 -23.4375 -12.6523c-7.5625 -3.75391 -18.1094 -8.55957 -23.4375 -10.6787c-5.32812 -2.11816 -14.6094 -5.46777 -20.625 -7.44141
c-6.01562 -1.97559 -15.4375 -4.72461 -20.9375 -6.11035c-5.5 -1.38477 -12.3203 -3.00586 -15.1562 -3.59961l-5.15625 -1.08105v-44.5977v-44.5967h62.5h62.5v70.3125c0 38.6719 -0.210938 70.2998 -0.46875 70.2842z" />
  </g>

</svg>
