<?xml version="1.0" standalone="no"?>
<!DOCTYPE svg PUBLIC "-//W3C//DTD SVG 1.1//EN" "http://www.w3.org/Graphics/SVG/1.1/DTD/svg11.dtd" >
<svg xmlns="http://www.w3.org/2000/svg" xmlns:xlink="http://www.w3.org/1999/xlink" version="1.1" viewBox="-10 0 1010 1000">
  <g transform="matrix(1 0 0 -1 0 800)">
   <path fill="currentColor"
d="M501.875 737.172c5.11035 -0.146484 9.61914 -0.670898 13.0352 -1.5166c3.57324 -0.884766 52.0186 -21.3457 153.438 -64.8037c81.5176 -34.9316 150.043 -64.4297 152.276 -65.5518c2.23438 -1.12109 5.84277 -3.35059 8.01758 -4.9541
c2.17578 -1.60352 5.72461 -4.72852 7.88672 -6.94434c2.16211 -2.2168 5.25293 -6 6.86914 -8.4082c1.61523 -2.40723 3.88672 -6.43359 5.04883 -8.94629c1.16016 -2.5127 2.67383 -6.59961 3.36133 -9.08398c0.688477 -2.48242 1.56934 -7.25293 1.95898 -10.5996
c0.520508 -4.48242 0.525391 -7.72754 0.0166016 -12.3184c-0.379883 -3.42773 -1.27539 -8.3418 -1.99023 -10.9199s-2.23535 -6.72461 -3.37891 -9.21387s-3.40137 -6.49707 -5.0166 -8.9043c-1.61621 -2.4082 -4.70703 -6.19141 -6.86914 -8.4082
c-2.16211 -2.21582 -5.71094 -5.34082 -7.88672 -6.94531c-2.1748 -1.60254 -6.06445 -3.97559 -8.64258 -5.27246s-6.97559 -3.0791 -9.77148 -3.96191c-2.79688 -0.881836 -7.57812 -1.93652 -10.625 -2.34375c-3.18555 -0.424805 -8.06445 -0.578125 -11.4785 -0.359375
c-3.26562 0.209961 -8.32812 0.957031 -11.25 1.66113c-3.80273 0.916016 -43.9072 17.8154 -141.095 59.4551l-135.783 58.1768l-134.508 -57.6465c-73.9795 -31.7061 -135.957 -58.1465 -137.729 -58.7559c-1.77148 -0.609375 -5.83984 -1.55762 -9.03809 -2.10742
c-3.2002 -0.549805 -7.71582 -0.999023 -10.0371 -0.999023c-2.32031 0 -6.40723 0.304688 -9.08203 0.675781c-2.6748 0.37207 -7.125 1.39062 -9.88965 2.2627c-2.76367 0.871094 -7.13477 2.64551 -9.71289 3.94238s-6.38086 3.60547 -8.4502 5.13086
s-5.6123 4.6416 -7.87402 6.92578c-2.26074 2.28418 -5.43848 6.13086 -7.06152 8.5498c-1.62207 2.41797 -3.88574 6.43457 -5.0293 8.92383s-2.66406 6.63574 -3.37891 9.21387s-1.61035 7.49219 -1.99023 10.9199c-0.508789 4.59082 -0.503906 7.83594 0.0166016 12.3184
c0.389648 3.34668 1.27051 8.11719 1.95898 10.5996c0.6875 2.48438 2.20117 6.57129 3.36133 9.08398c1.16211 2.5127 3.43945 6.54785 5.06152 8.96582c1.62305 2.41895 4.80078 6.26562 7.06152 8.5498c2.26172 2.28418 5.80469 5.40039 7.87402 6.9248
c2.06934 1.52539 5.59082 3.69141 7.8252 4.81348s70.7715 30.624 152.305 65.5596c108.041 46.2939 149.649 63.8477 153.438 64.7305c2.8584 0.666992 6.04004 1.3457 7.07129 1.50879s5.39062 0.196289 9.6875 0.0722656h-0.000976562zM515.312 445.818
c192.845 -0.0654297 355.125 -0.242188 360.625 -0.391602c7.66113 -0.208008 11.1689 -0.588867 15 -1.62891c2.75 -0.74707 7.8125 -2.72461 11.25 -4.39551s8.07812 -4.42676 10.3125 -6.125s5.87207 -5.02441 8.08301 -7.39062s5.37793 -6.41699 7.03516 -9
c1.65723 -2.58496 3.87305 -6.75879 4.92285 -9.27734c1.0498 -2.51758 2.46191 -6.73633 3.13672 -9.375c0.674805 -2.6377 1.39746 -7.60938 1.60742 -11.0469c0.220703 -3.63281 0.0703125 -8.57031 -0.360352 -11.791
c-0.407227 -3.04688 -1.46191 -7.82812 -2.34375 -10.625c-0.881836 -2.7959 -2.44629 -6.77148 -3.47754 -8.83398s-3.12695 -5.64453 -4.65723 -7.96191c-1.53027 -2.31641 -4.8916 -6.32031 -7.46973 -8.89844c-2.57715 -2.57715 -6.80078 -6.07422 -9.38477 -7.77051
s-6.7832 -4.00098 -9.33203 -5.12109l-4.63477 -2.03613v-170.2c0 -135.738 0.158203 -170.201 0.78125 -170.209c0.429688 -0.00488281 3.30957 -1.2832 6.40039 -2.83984c3.09082 -1.55859 7.6582 -4.39453 10.1494 -6.30273
c2.49121 -1.90723 5.9873 -5.05859 7.76855 -7.00195c1.78223 -1.94336 4.75195 -5.84668 6.59961 -8.67285c1.84668 -2.82715 4.20605 -7.18652 5.24414 -9.6875c1.03711 -2.50195 2.48926 -6.93848 3.22754 -9.86035c1.06738 -4.22266 1.3418 -7.1709 1.3418 -14.375
s-0.274414 -10.1523 -1.3418 -14.375c-0.738281 -2.92188 -2.19043 -7.3584 -3.22754 -9.86035c-1.03809 -2.50098 -3.39746 -6.86035 -5.24414 -9.6875c-1.84766 -2.82617 -4.84277 -6.75781 -6.65625 -8.73535c-1.81348 -1.97852 -5.45605 -5.22266 -8.09375 -7.21094
c-2.63965 -1.9873 -7.2627 -4.81934 -10.2744 -6.29004c-3.0127 -1.47168 -8.20801 -3.43066 -11.5449 -4.35254l-6.06738 -1.67578l-382.188 -0.161133c-339.481 -0.143555 -382.803 -0.0546875 -387.696 0.788086c-3.03027 0.522461 -7.24902 1.53418 -9.375 2.24902
s-5.80957 2.27246 -8.18457 3.46387c-2.375 1.18945 -5.89062 3.20117 -7.8125 4.46973s-5.63867 4.41797 -8.25977 6.99902c-2.62109 2.58008 -6.36035 7.14551 -8.30957 10.1436c-1.9502 2.99902 -4.39258 7.49902 -5.43066 10
c-1.03711 2.50195 -2.48926 6.93848 -3.22754 9.86035c-1.06738 4.22266 -1.3418 7.1709 -1.3418 14.375s0.274414 10.1523 1.3418 14.375c0.738281 2.92188 2.19043 7.3584 3.22754 9.86035c1.03809 2.50098 3.40039 6.86035 5.25195 9.6875
c1.85156 2.82617 4.69238 6.60449 6.3125 8.39355c1.62012 1.79004 4.68848 4.62891 6.81934 6.30762c2.12988 1.67969 5.55957 4.0293 7.62207 5.22168s5.36719 2.83594 7.34473 3.65137l3.5957 1.48438l-0.158203 170.213l-0.157227 170.214l-4.73535 2.05859
c-2.60449 1.13281 -6.91309 3.56445 -9.5752 5.4043c-2.66113 1.83984 -6.78125 5.28809 -9.15527 7.66113c-2.37402 2.375 -5.55566 6.19336 -7.07129 8.48633c-1.51465 2.29297 -3.59766 5.85645 -4.62891 7.91895s-2.58594 6.00684 -3.45605 8.76465
c-0.869141 2.75879 -1.92676 7.38086 -2.34961 10.2725c-0.47168 3.22363 -0.621094 7.81152 -0.386719 11.8604c0.210938 3.63086 0.9375 8.76172 1.61426 11.3994c0.677734 2.63867 2.09082 6.85742 3.14062 9.375c1.0498 2.51855 3.28516 6.72363 4.96777 9.34668
s5.06641 6.88184 7.51855 9.46387c2.45312 2.58301 6.56934 6.15332 9.14648 7.93555c2.57715 1.78125 7 4.32129 9.8291 5.64551c2.82812 1.32324 7.3916 3.04395 10.1416 3.82324c4.70898 1.33594 6.4707 1.43848 30.3125 1.76562
c13.9219 0.191406 183.095 0.293945 375.938 0.228516h-0.000976562zM500 320.625h-270.625v-166.562v-166.562h270.625h270.625v166.562v166.562h-270.625zM336.562 278.937c3.4541 -0.169922 8.82422 -0.959961 12.0039 -1.7666
c3.16406 -0.802734 8.11914 -2.56738 11.0117 -3.92285c2.8916 -1.35547 6.93848 -3.60547 8.99316 -5.00098c2.05469 -1.39453 5.32617 -3.99023 7.27148 -5.76758c1.94531 -1.77832 5.22363 -5.47266 7.28613 -8.20898c2.0625 -2.7373 4.85938 -7.2793 6.21582 -10.0918
c1.35547 -2.81348 3.25195 -7.64648 4.21484 -10.7393l1.75098 -5.625l0.196289 -70.625c0.143555 -51.8438 0.000976562 -71.873 -0.537109 -75.3125c-0.404297 -2.57812 -1.29102 -6.51562 -1.97168 -8.75c-0.681641 -2.23438 -2.34082 -6.28125 -3.68848 -8.99414
c-1.34668 -2.71191 -3.71875 -6.70996 -5.27051 -8.88379c-1.55176 -2.1748 -4.69434 -5.80859 -6.98438 -8.0752c-2.28906 -2.26758 -6.49609 -5.6748 -9.34766 -7.57227s-7.61719 -4.44238 -10.5908 -5.6543c-2.97266 -1.21191 -8.11035 -2.76465 -11.417 -3.4502
c-4.94238 -1.02441 -7.56836 -1.19043 -14.7617 -0.932617c-6.98828 0.25 -9.88281 0.646484 -14.375 1.9707c-3.09375 0.912109 -7.92676 2.7666 -10.7393 4.12207c-2.8125 1.35645 -7.35449 4.15332 -10.0928 6.21582c-2.73633 2.0625 -6.42969 5.34082 -8.20801 7.28516
c-1.77734 1.94531 -4.37305 5.21777 -5.76758 7.27148c-1.39648 2.05469 -3.61035 6.02344 -4.91992 8.82031c-1.31055 2.79785 -2.95312 7.19043 -3.64844 9.7627c-0.696289 2.57129 -1.55664 7.05859 -1.91406 9.97168
c-0.408203 3.33887 -0.645508 28.8662 -0.642578 69.0625c0.00292969 37.4648 0.257812 65.958 0.616211 69.0791c0.335938 2.92188 1.04297 6.96777 1.57324 8.99219c0.52832 2.02246 1.69336 5.53906 2.58887 7.8125c0.895508 2.27246 2.92773 6.34082 4.5166 9.04004
s4.92676 7.10156 7.41699 9.7832c2.49121 2.68066 6.42871 6.2793 8.75 7.99609c2.32227 1.7168 6.47168 4.24121 9.22168 5.60938c2.75 1.36719 6.82715 3.07031 9.0625 3.78125c2.23438 0.711914 5.75 1.59082 7.8125 1.95117
c2.0625 0.361328 4.73438 0.768555 5.9375 0.905273c1.20215 0.136719 5 0.109375 8.43652 -0.0595703zM502.812 278.972c3.09375 -0.168945 7.73438 -0.735352 10.3125 -1.25684c2.57812 -0.523438 6.79688 -1.76367 9.375 -2.75879
c2.57812 -0.994141 6.79688 -3.05469 9.375 -4.5791s6.375 -4.20801 8.4375 -5.96289c2.0625 -1.75586 5.35742 -5.08398 7.32227 -7.39746c1.96289 -2.3125 4.74121 -6.24902 6.1709 -8.74805s3.28516 -6.24121 4.12402 -8.31641
c0.836914 -2.07422 2.13867 -6.07617 2.89062 -8.89355l1.36719 -5.12109v-71.875c0 -66.1416 -0.0859375 -72.2109 -1.08301 -76.0859c-0.595703 -2.31641 -1.92578 -6.39648 -2.95605 -9.06738c-1.03027 -2.67188 -3.26562 -7.12012 -4.9668 -9.88477
s-5 -7.08691 -7.33105 -9.60352c-2.33105 -2.51758 -6.07715 -5.97363 -8.3252 -7.68164c-2.24805 -1.70703 -6.90039 -4.47266 -10.3379 -6.14453s-8.64062 -3.68555 -11.5625 -4.47363c-4.5293 -1.22266 -6.83301 -1.43359 -15.625 -1.43359
c-8.84473 0 -11.0684 0.206055 -15.625 1.4502c-2.92188 0.797852 -7.62598 2.53418 -10.4541 3.85938c-2.8291 1.3252 -7.25195 3.86621 -9.8291 5.64746c-2.57715 1.78223 -6.69336 5.35254 -9.14648 7.93555c-2.45215 2.58203 -5.83594 6.84082 -7.51855 9.46387
s-3.91797 6.82812 -4.96777 9.34668c-1.0498 2.51758 -2.52051 6.73633 -3.26758 9.375c-1.35156 4.77344 -1.35938 5.13672 -1.56055 74.1719c-0.143555 49.7148 0.00195312 70.7871 0.513672 74.3604c0.393555 2.74121 1.42676 7.24121 2.2959 10
c0.870117 2.75781 2.4248 6.70215 3.45605 8.76465s3.11426 5.62598 4.62891 7.91895c1.51562 2.29297 4.69727 6.11133 7.07129 8.48633c2.37402 2.37305 6.50293 5.82715 9.1748 7.6748s7.29883 4.41016 10.2812 5.69727c2.9834 1.28516 7.14355 2.7832 9.24609 3.32812
s5.8623 1.24219 8.35547 1.55176c2.49316 0.308594 7.06445 0.421875 10.1582 0.251953zM665.625 279.287c1.20312 0.0429688 4.57812 -0.197266 7.5 -0.533203s6.97168 -1.04492 8.99902 -1.57422s5.82422 -1.81641 8.4375 -2.85938
c2.61328 -1.04395 6.86035 -3.19824 9.43848 -4.78711c2.83105 -1.74609 7.16309 -5.38867 10.9375 -9.19727c4.21875 -4.25684 7.18848 -7.92578 9.13867 -11.29c1.58887 -2.74121 3.62109 -6.84375 4.5166 -9.11621c0.895508 -2.27441 2.06055 -5.79004 2.58887 -7.8125
c0.529297 -2.02441 1.23633 -6.07031 1.57227 -8.99219c0.358398 -3.12109 0.613281 -31.6143 0.616211 -69.0791c0.00292969 -40.1963 -0.234375 -65.7236 -0.642578 -69.0625c-0.356445 -2.91309 -1.2168 -7.40039 -1.91309 -9.97168
c-0.695312 -2.57227 -2.33789 -6.96484 -3.64844 -9.7627c-1.31055 -2.79688 -3.52441 -6.76562 -4.91992 -8.82031c-1.39453 -2.05469 -3.99023 -5.32617 -5.76758 -7.27148c-1.77832 -1.94531 -5.47266 -5.22363 -8.20898 -7.28613
c-2.7373 -2.0625 -7.2793 -4.85938 -10.0918 -6.21582c-2.81348 -1.35547 -7.64648 -3.23242 -10.7402 -4.17188c-5.2002 -1.58008 -6.45117 -1.70898 -16.5625 -1.71875c-9.33301 -0.0078125 -11.6553 0.19043 -15.8311 1.35059
c-2.69043 0.74707 -6.62793 2.125 -8.75 3.0625c-2.12109 0.9375 -5.72852 2.8125 -8.0166 4.16602c-2.28809 1.35449 -5.97754 4.03809 -8.2002 5.96484c-2.22168 1.92676 -5.45898 5.17188 -7.19434 7.21094c-1.73438 2.03906 -4.40723 5.83594 -5.93848 8.4375
s-3.55957 6.69824 -4.50781 9.10254c-0.948242 2.40527 -2.25781 6.98633 -2.91016 10.1807c-1.13184 5.53613 -1.17871 9.15039 -1.01172 77.1895l0.173828 71.3828l1.75195 5.625c0.962891 3.09375 2.85938 7.92676 4.21484 10.7402
c1.35645 2.8125 4.16602 7.37207 6.24512 10.1309c2.07812 2.75781 5.38379 6.45898 7.3457 8.22363c1.96094 1.76562 5.2207 4.34375 7.24219 5.73047c2.02148 1.38574 5.96387 3.59277 8.76074 4.90332c2.79785 1.31055 7.29492 2.98926 9.99609 3.73047
c2.7002 0.740234 6.77344 1.56445 9.05078 1.83008c2.27832 0.266602 5.12598 0.519531 6.3291 0.560547z" />
  </g>

</svg>
