<?xml version="1.0" standalone="no"?>
<!DOCTYPE svg PUBLIC "-//W3C//DTD SVG 1.1//EN" "http://www.w3.org/Graphics/SVG/1.1/DTD/svg11.dtd" >
<svg xmlns="http://www.w3.org/2000/svg" xmlns:xlink="http://www.w3.org/1999/xlink" version="1.1" viewBox="-10 0 1010 1000">
  <g transform="matrix(1 0 0 -1 0 800)">
   <path fill="currentColor"
d="M501.875 737.224c5.66602 -0.179688 9.47949 -0.679688 13.8799 -1.81836c3.33691 -0.863281 8.53223 -2.77441 11.5449 -4.24609c3.01172 -1.4707 7.65039 -4.3125 10.3057 -6.31445c2.65625 -2.00195 6.42383 -5.3877 8.37207 -7.52344
c1.95898 -2.14746 23.1162 -33.2197 47.3301 -69.5088c28.4443 -42.6309 44.7197 -67.5957 46.4473 -71.25c1.46289 -3.09375 3.20801 -7.73438 3.87793 -10.3125c0.668945 -2.57812 3.43066 -21.3516 6.13574 -41.7188l4.91895 -37.0303l7.92383 -0.000976562
c4.35742 0 10.1113 -0.304688 12.7861 -0.675781c2.6748 -0.37207 7.125 -1.39062 9.88965 -2.2627c2.76367 -0.871094 7.13477 -2.64551 9.71289 -3.94238s6.46777 -3.66992 8.64258 -5.27246c2.17578 -1.60449 5.72461 -4.72949 7.88672 -6.94531
c2.16211 -2.2168 5.25293 -6 6.86914 -8.4082c1.61523 -2.40723 3.88672 -6.43359 5.04883 -8.94629c1.16016 -2.5127 2.69043 -6.65918 3.40039 -9.21387c0.710938 -2.55469 1.47559 -6.61328 1.70117 -9.01855l0.40918 -4.37305l1.06738 6.24805
c0.585938 3.43652 1.68164 8.04785 2.43359 10.2471c0.751953 2.2002 2.23242 5.71582 3.29004 7.8125c1.05762 2.09766 3.04395 5.50098 4.41504 7.56348c1.5498 2.33105 19.9131 21.207 48.5088 49.8633c31.6982 31.7656 47.4287 47.0938 50.5605 49.2656
c2.49902 1.73438 6.8584 4.23633 9.6875 5.56152c2.82812 1.3252 7.53223 3.06152 10.4541 3.85938c4.55664 1.24414 6.78027 1.4502 15.625 1.4502c8.79199 0 11.0957 -0.210938 15.625 -1.43359c2.92188 -0.788086 8.125 -2.80176 11.5625 -4.47363
s8.07812 -4.42969 10.3125 -6.12793s5.87207 -5.02441 8.08301 -7.39062s5.37793 -6.41699 7.03516 -9c1.65723 -2.58496 3.87305 -6.75879 4.92285 -9.27734c1.0498 -2.51758 2.46191 -6.73633 3.13672 -9.375c0.674805 -2.6377 1.39746 -7.60938 1.60742 -11.0469
c0.220703 -3.63281 0.0703125 -8.57031 -0.360352 -11.791c-0.407227 -3.04688 -1.46191 -7.82812 -2.34375 -10.625c-0.881836 -2.7959 -2.44629 -6.77148 -3.47754 -8.83398s-3.16309 -5.71875 -4.73828 -8.125c-1.94043 -2.96484 -9.81348 -11.3789 -24.416 -26.0938
l-21.5518 -21.7188l21.5518 -21.7188c14.6025 -14.7148 22.4756 -23.1289 24.416 -26.0938c1.5752 -2.40625 3.70703 -6.0625 4.73828 -8.125s2.5957 -6.03809 3.47754 -8.83398c0.881836 -2.79688 1.93652 -7.57812 2.34375 -10.625
c0.430664 -3.2207 0.581055 -8.1582 0.360352 -11.791c-0.209961 -3.4375 -0.932617 -8.40918 -1.60742 -11.0469c-0.674805 -2.63867 -2.08691 -6.85742 -3.13672 -9.375c-1.0498 -2.51855 -3.26562 -6.69238 -4.92285 -9.27734
c-1.65723 -2.58301 -4.82422 -6.63379 -7.03516 -9s-5.84863 -5.69238 -8.08301 -7.39062s-6.875 -4.45605 -10.3125 -6.12793s-8.64062 -3.68555 -11.5625 -4.47363c-4.5293 -1.22266 -6.83301 -1.43359 -15.625 -1.43359c-8.84473 0 -11.0684 0.206055 -15.625 1.4502
c-2.92188 0.797852 -7.62598 2.53418 -10.4541 3.85938c-2.8291 1.3252 -7.18848 3.82715 -9.6875 5.56152c-3.13184 2.17188 -18.8623 17.5 -50.5605 49.2656c-28.5957 28.6562 -46.959 47.5322 -48.5088 49.8633c-1.37109 2.0625 -3.35742 5.46582 -4.41504 7.56348
c-1.05762 2.09668 -2.53809 5.6123 -3.29004 7.8125c-0.751953 2.19922 -1.84668 6.80957 -2.43359 10.2441l-1.06641 6.24512l-0.397461 -4.2627c-0.219727 -2.34473 -0.999023 -6.4209 -1.7334 -9.05762c-0.733398 -2.6377 -2.26953 -6.83203 -3.41309 -9.32129
s-3.40137 -6.49707 -5.0166 -8.9043c-1.61621 -2.4082 -4.70703 -6.19141 -6.86914 -8.4082c-2.16211 -2.21582 -5.71094 -5.34082 -7.88672 -6.94531c-2.1748 -1.60254 -6.06445 -3.97559 -8.64258 -5.27246s-7.0498 -3.10254 -9.9375 -4.01367
s-6.86816 -1.8252 -8.84668 -2.03223c-1.97852 -0.206055 -3.87012 -0.549805 -4.20312 -0.761719c-0.373047 -0.237305 9.92188 -79.3086 26.7842 -205.698c15.0645 -112.922 28.1328 -211.078 29.041 -218.125c1.48828 -11.5479 1.58398 -13.458 0.964844 -19.3506
c-0.376953 -3.5957 -1.27637 -8.6582 -1.99805 -11.25c-0.720703 -2.59082 -2.24609 -6.74902 -3.38965 -9.23828s-3.40137 -6.49707 -5.0166 -8.9043c-1.61621 -2.4082 -4.70703 -6.19141 -6.86914 -8.4082c-2.16211 -2.21582 -5.71094 -5.34082 -7.88672 -6.94531
c-2.1748 -1.60254 -6.06445 -3.97559 -8.64258 -5.27246s-6.94922 -3.07129 -9.71289 -3.94238c-2.76465 -0.87207 -7.21484 -1.89062 -9.88965 -2.2627c-3.3916 -0.470703 -56.4795 -0.675781 -175.396 -0.675781c-118.918 0 -172.007 0.205078 -175.397 0.675781
c-2.6748 0.37207 -7.125 1.39062 -9.88965 2.2627c-2.76367 0.871094 -7.13477 2.64551 -9.71289 3.94238s-6.38086 3.60547 -8.4502 5.13086s-5.6123 4.6416 -7.87402 6.92578c-2.26074 2.28418 -5.43848 6.13086 -7.06152 8.5498
c-1.62207 2.41797 -3.88574 6.43457 -5.0293 8.92383s-2.66895 6.64746 -3.38965 9.23828c-0.72168 2.5918 -1.62109 7.6543 -1.99805 11.25c-0.619141 5.89258 -0.523438 7.80273 0.964844 19.3506c0.908203 7.04688 13.9766 105.203 29.041 218.125
c16.8623 126.391 27.1572 205.461 26.7842 205.698c-0.333008 0.211914 -2.22461 0.555664 -4.20312 0.761719c-1.97852 0.207031 -5.95898 1.12109 -8.84668 2.03223s-7.35938 2.7168 -9.9375 4.01367s-6.38086 3.60547 -8.4502 5.13086s-5.6123 4.6416 -7.87402 6.92578
c-2.26074 2.28418 -5.43848 6.13086 -7.06152 8.5498c-1.62207 2.41797 -3.88574 6.43457 -5.0293 8.92383s-2.67969 6.68359 -3.41309 9.32129c-0.734375 2.63672 -1.51367 6.71289 -1.7334 9.05762l-0.397461 4.2627l-1.06641 -6.24512
c-0.586914 -3.43457 -1.68164 -8.04492 -2.43359 -10.2441c-0.751953 -2.2002 -2.22949 -5.71582 -3.28418 -7.8125c-1.05469 -2.09766 -3.27734 -5.78223 -4.94043 -8.18848c-2.03223 -2.94141 -18.2373 -19.5479 -49.4512 -50.6777
c-29.5762 -29.4971 -47.7451 -47.1562 -50.0576 -48.6514c-1.99707 -1.29199 -5.93457 -3.42773 -8.75 -4.74707c-2.81641 -1.31836 -7.51074 -3.05078 -10.4326 -3.84863c-4.55664 -1.24414 -6.78027 -1.4502 -15.625 -1.4502s-11.0684 0.206055 -15.625 1.4502
c-2.92188 0.797852 -7.62598 2.53418 -10.4541 3.85938c-2.8291 1.3252 -7.25195 3.86621 -9.8291 5.64746c-2.57715 1.78223 -6.69336 5.35254 -9.14648 7.93555c-2.45215 2.58203 -5.83594 6.84082 -7.51855 9.46387s-3.91797 6.82812 -4.96777 9.34668
c-1.0498 2.51758 -2.46289 6.73633 -3.14062 9.375c-0.676758 2.6377 -1.40332 7.76855 -1.61426 11.3994c-0.234375 4.04883 -0.0849609 8.63672 0.386719 11.8604c0.422852 2.8916 1.48047 7.51367 2.34961 10.2725c0.870117 2.75781 2.4248 6.70215 3.45605 8.76465
s3.16309 5.71875 4.73828 8.125c1.94043 2.96484 9.81348 11.3789 24.416 26.0938l21.5518 21.7188l-21.5518 21.7188c-14.6025 14.7148 -22.4756 23.1289 -24.416 26.0938c-1.5752 2.40625 -3.70703 6.0625 -4.73828 8.125s-2.58594 6.00684 -3.45605 8.76465
c-0.869141 2.75879 -1.92676 7.38086 -2.34961 10.2725c-0.47168 3.22363 -0.621094 7.81152 -0.386719 11.8613c0.210938 3.63086 0.9375 8.76172 1.61426 11.3994c0.677734 2.63867 2.09082 6.85742 3.14062 9.375c1.0498 2.51855 3.28516 6.72363 4.96777 9.34668
s5.06641 6.88184 7.51855 9.46387c2.45312 2.58301 6.56934 6.15332 9.14648 7.93555c2.57715 1.78125 7 4.32227 9.8291 5.64746c2.82812 1.3252 7.53223 3.06152 10.4541 3.85938c4.55664 1.24414 6.78027 1.4502 15.625 1.4502s11.0684 -0.206055 15.625 -1.4502
c2.92188 -0.797852 7.61621 -2.53027 10.4326 -3.84863c2.81543 -1.31934 6.75293 -3.45508 8.75 -4.74707c2.3125 -1.49512 20.4814 -19.1543 50.0576 -48.6523c31.2139 -31.1299 47.4189 -47.7354 49.4512 -50.6768c1.66309 -2.40625 3.88574 -6.09082 4.94043 -8.18848
c1.05469 -2.09668 2.53223 -5.6123 3.28418 -7.8125c0.751953 -2.19922 1.84766 -6.81055 2.43359 -10.2471l1.06738 -6.24902l0.40918 4.37402c0.225586 2.4043 0.990234 6.46387 1.70117 9.01758c0.709961 2.55469 2.24023 6.70117 3.40039 9.21387
c1.16211 2.51367 3.43945 6.54785 5.06152 8.96582c1.62305 2.41992 4.80078 6.26562 7.06152 8.5498c2.26172 2.28418 5.80469 5.40039 7.87402 6.92578s5.87207 3.83398 8.4502 5.13086s6.94922 3.07129 9.71289 3.94238c2.76465 0.87207 7.21484 1.89062 9.88965 2.2627
c2.6748 0.371094 8.42871 0.675781 12.7861 0.675781l7.92383 0.000976562l4.91895 37.0312c2.70508 20.3672 5.4668 39.1396 6.13574 41.7188c0.669922 2.57812 2.41504 7.21875 3.87793 10.3125c1.72559 3.64941 18.1064 28.7852 46.6328 71.5625
c39.0146 58.5029 44.542 66.5029 49.0166 70.9512c2.77344 2.75781 6.61523 6.04785 8.53711 7.31152c1.92188 1.2627 5.4375 3.27051 7.8125 4.45996c2.375 1.19141 6.07324 2.75488 8.21875 3.47559c2.14453 0.720703 6.08203 1.72461 8.75 2.22949
c3.25293 0.617188 7.4209 0.837891 12.6621 0.670898zM500 561.841c-0.171875 0 -5.48633 -7.78809 -11.8096 -17.3057l-11.498 -17.3057l-2.37598 -17.834c-1.30664 -9.80762 -2.51367 -18.7471 -2.68164 -19.8643l-0.305664 -2.03125h28.6709h28.6709l-0.305664 2.03125
c-0.167969 1.11719 -1.375 10.0566 -2.68164 19.8643l-2.37598 17.834l-11.498 17.3057c-6.32324 9.51758 -11.6377 17.3057 -11.8096 17.3057zM500 362.497h-45.3125l-24.5918 -184.529c-13.5254 -101.491 -24.7412 -185.866 -24.9248 -187.499l-0.333008 -2.96875h95.1621
h95.1621l-0.333008 2.96875c-0.183594 1.63281 -11.3994 86.0078 -24.9248 187.499l-24.5918 184.529h-45.3125z" />
  </g>

</svg>
