<?xml version="1.0" standalone="no"?>
<!DOCTYPE svg PUBLIC "-//W3C//DTD SVG 1.1//EN" "http://www.w3.org/Graphics/SVG/1.1/DTD/svg11.dtd" >
<svg xmlns="http://www.w3.org/2000/svg" xmlns:xlink="http://www.w3.org/1999/xlink" version="1.1" viewBox="-10 0 1010 1000">
  <g transform="matrix(1 0 0 -1 0 800)">
   <path fill="currentColor"
d="M501.875 737.224c5.66602 -0.179688 9.47949 -0.679688 13.8799 -1.81836c3.33691 -0.863281 8.53223 -2.77441 11.5449 -4.24609c3.01172 -1.4707 7.59375 -4.28223 10.1816 -6.24609c2.58887 -1.96387 24.9814 -23.9121 49.7627 -48.7734
c33.7812 -33.8896 45.791 -46.3262 47.9893 -49.6914c1.61328 -2.46973 3.76562 -6.32715 4.7832 -8.57227c1.01855 -2.24609 2.51367 -6.41309 3.32422 -9.26074c0.893555 -3.14062 16.3242 -101.781 39.209 -250.646l37.7354 -245.469h37.625
c23.5771 0 39.4395 -0.25293 42.4873 -0.675781c2.6748 -0.37207 7.125 -1.39062 9.88965 -2.2627c2.76367 -0.871094 7.13477 -2.64551 9.71289 -3.94238s6.46777 -3.66992 8.64258 -5.27246c2.17578 -1.60449 5.72461 -4.72949 7.88672 -6.94531
c2.16211 -2.2168 5.25293 -6 6.86914 -8.4082c1.61523 -2.40723 3.89258 -6.44434 5.05859 -8.96973c1.16699 -2.52637 2.68457 -6.67188 3.37207 -9.21387c0.688477 -2.54199 1.54199 -7.00488 1.89844 -9.91797c0.369141 -3.02051 0.647461 -19.041 0.647461 -37.2793
v-31.9844l15.1562 -0.280273c13.8008 -0.255859 15.6992 -0.424805 21.2236 -1.89648c3.33691 -0.888672 8.53223 -2.82031 11.5449 -4.29199c3.01172 -1.4707 7.63477 -4.30273 10.2744 -6.29004c2.6377 -1.98828 6.28027 -5.23242 8.09375 -7.21094
c1.81348 -1.97754 4.80859 -5.90918 6.65625 -8.73535c1.84668 -2.82715 4.20605 -7.18652 5.24414 -9.6875c1.03711 -2.50195 2.48926 -6.93848 3.22754 -9.86035c1.06738 -4.22266 1.3418 -7.1709 1.3418 -14.375s-0.274414 -10.1523 -1.3418 -14.375
c-0.738281 -2.92188 -2.19043 -7.3584 -3.22754 -9.86035c-1.03809 -2.50098 -3.39746 -6.86035 -5.24414 -9.6875c-1.84766 -2.82617 -4.84277 -6.75781 -6.65625 -8.73535c-1.81348 -1.97852 -5.45605 -5.22266 -8.09375 -7.21094
c-2.63965 -1.9873 -7.2627 -4.81934 -10.2744 -6.29004c-3.0127 -1.47168 -8.20801 -3.43066 -11.5449 -4.35254l-6.06738 -1.67578l-382.188 -0.161133c-339.48 -0.143555 -382.803 -0.0546875 -387.695 0.788086c-3.03027 0.522461 -7.24902 1.53418 -9.375 2.24902
s-5.80957 2.27246 -8.18457 3.46387c-2.375 1.18945 -5.89062 3.20117 -7.8125 4.46973s-5.63867 4.41797 -8.25977 6.99902c-2.62109 2.58008 -6.36035 7.14551 -8.30957 10.1436c-1.9502 2.99902 -4.39258 7.49902 -5.43066 10
c-1.03711 2.50195 -2.48926 6.93848 -3.22754 9.86035c-1.06738 4.22266 -1.3418 7.1709 -1.3418 14.375s0.274414 10.1523 1.3418 14.375c0.738281 2.92188 2.19043 7.3584 3.22754 9.86035c1.03809 2.50098 3.48047 7.00098 5.43066 10
c1.94922 2.99805 5.68848 7.56348 8.30957 10.1436c2.62109 2.58105 6.33789 5.73047 8.25977 6.99902s5.4375 3.28027 7.8125 4.46973c2.375 1.19141 6.04883 2.74609 8.16406 3.45703s6.30078 1.7207 9.30078 2.24414c3.68164 0.641602 9.59375 0.951172 18.1855 0.951172
h12.7305v32.0479c0 18.2832 0.27832 34.3223 0.647461 37.3438c0.356445 2.91309 1.20996 7.37598 1.89844 9.91797c0.6875 2.54199 2.20508 6.6875 3.37207 9.21387c1.16602 2.52539 3.44922 6.57129 5.07129 8.98926c1.62305 2.41895 4.80078 6.26562 7.06152 8.5498
c2.26172 2.28418 5.80469 5.40039 7.87402 6.92578s5.87207 3.83398 8.4502 5.13086s6.94922 3.07129 9.71289 3.94238c2.76465 0.87207 7.21484 1.89062 9.88965 2.2627c3.04785 0.422852 18.9102 0.675781 42.4873 0.675781h37.625l37.7354 245.469
c23.2217 151.055 38.3145 247.512 39.2383 250.781c0.826172 2.92188 2.61133 7.61426 3.9668 10.4277c1.35645 2.8125 4.13379 7.3125 6.17188 10c2.10742 2.77832 23.2031 24.3164 48.9082 49.9346c27.4971 27.4043 46.5713 45.9346 48.6963 47.3105
c1.92188 1.24414 5.4375 3.23535 7.8125 4.4248c2.375 1.19141 6.07324 2.75488 8.21875 3.47559c2.14453 0.720703 6.08203 1.72461 8.75 2.22949c3.25293 0.617188 7.4209 0.837891 12.6621 0.669922zM500 586.25c-0.177734 0 -5.83203 -5.55469 -12.5654 -12.3438
l-12.2412 -12.3438l-34.2188 -222.812c-18.8203 -122.547 -34.3682 -223.586 -34.5498 -224.53l-0.331055 -1.71875h93.9062h93.9062l-0.331055 1.71875c-0.181641 0.945312 -15.7295 101.983 -34.5498 224.53l-34.2188 222.812l-12.2412 12.3438
c-6.7334 6.78906 -12.3877 12.3438 -12.5654 12.3438z" />
  </g>

</svg>
