<?xml version="1.0" standalone="no"?>
<!DOCTYPE svg PUBLIC "-//W3C//DTD SVG 1.1//EN" "http://www.w3.org/Graphics/SVG/1.1/DTD/svg11.dtd" >
<svg xmlns="http://www.w3.org/2000/svg" xmlns:xlink="http://www.w3.org/1999/xlink" version="1.1" viewBox="-10 0 1010 1000">
  <g transform="matrix(1 0 0 -1 0 800)">
   <path fill="currentColor"
d="M290.736 737.443c2.63867 0.03125 6.98633 -0.248047 9.66113 -0.619141c2.6748 -0.37207 7.125 -1.39062 9.88965 -2.26172c2.76367 -0.87207 6.9502 -2.55273 9.30176 -3.73535s33.8516 -21.8555 70 -45.9404c63.4297 -42.2617 65.9307 -44.001 71.6611 -49.8379
c3.83789 -3.90918 6.95898 -7.80566 8.82617 -11.0166c1.58887 -2.7334 3.62109 -6.83008 4.5166 -9.10254c0.895508 -2.27441 2.06055 -5.79004 2.58887 -7.8125c0.529297 -2.02441 1.23633 -6.07031 1.57227 -8.99219
c0.37207 -3.23145 0.613281 -42.2285 0.616211 -99.5312l0.00488281 -94.2188h20.625h20.625l0.00488281 94.2188c0.00292969 57.3027 0.244141 96.2998 0.616211 99.5312c0.335938 2.92188 1.04297 6.96777 1.57227 8.99219
c0.52832 2.02246 1.69336 5.53809 2.58887 7.8125c0.895508 2.27246 2.92773 6.36914 4.5166 9.10254c1.86914 3.21484 4.98535 7.10254 8.82617 11.0127c5.72656 5.8291 8.27832 7.60449 71.6436 49.8291c36.1387 24.082 67.6387 44.7568 70 45.9443
c2.3623 1.1875 6.55566 2.87207 9.31934 3.74414c2.76465 0.871094 7.21484 1.88965 9.88965 2.26172c2.6748 0.371094 6.76172 0.675781 9.08203 0.675781c2.32129 0 6.87109 -0.454102 10.1113 -1.00977s7.86035 -1.71484 10.2666 -2.57812
c2.40625 -0.861328 5.74512 -2.25684 7.41895 -3.10059s32.8926 -21.4355 69.375 -45.7607c36.4824 -24.3242 67.9492 -45.7061 69.9268 -47.5156c1.97852 -1.80859 5.2832 -5.5293 7.3457 -8.26562c2.0625 -2.7373 4.85938 -7.2793 6.21582 -10.0918
c1.35547 -2.81348 3.25293 -7.64648 4.21582 -10.7402l1.75195 -5.625v-325v-325l-1.40723 -6.35254c-0.774414 -3.49414 -2.26367 -8.97363 -3.31055 -12.1768s-3.14648 -8.44922 -4.66699 -11.6582c-1.51953 -3.20898 -3.80762 -7.57324 -5.08398 -9.69824
c-1.27637 -2.12598 -3.88672 -5.9707 -5.80078 -8.5459c-1.91406 -2.57422 -5.43945 -6.75 -7.83496 -9.27734c-2.39551 -2.5293 -6.47363 -6.36133 -9.0625 -8.51758s-7.16992 -5.52246 -10.1777 -7.48047c-3.00879 -1.95898 -8.07129 -4.79297 -11.25 -6.29883
c-3.17969 -1.50586 -8.7334 -3.71875 -12.3428 -4.91699c-3.60938 -1.19922 -8.72949 -2.62012 -11.3779 -3.15918s-7.57031 -1.27148 -10.9375 -1.62793c-4.16504 -0.441406 -102.007 -0.59082 -306.122 -0.469727l-300 0.179688l-6.7998 1.44434
c-3.73926 0.793945 -9.78613 2.41895 -13.4375 3.61035c-3.65039 1.19141 -9.4502 3.53809 -12.8877 5.2168c-3.4375 1.67773 -8.5 4.51953 -11.25 6.31641s-7.11914 5.03027 -9.70801 7.18555c-2.58887 2.15625 -6.73145 6.05078 -9.2041 8.6543
c-2.47461 2.60449 -5.99805 6.7793 -7.83203 9.27832s-4.37988 6.28223 -5.6582 8.4082c-1.2793 2.125 -3.56836 6.48926 -5.08789 9.69824c-1.52051 3.20898 -3.62012 8.45508 -4.66699 11.6582s-2.53613 8.68262 -3.31055 12.1768l-1.40723 6.35254v325v325l1.75195 5.625
c0.962891 3.09375 2.86035 7.92676 4.21582 10.7402c1.35645 2.8125 4.16602 7.37207 6.24512 10.1309c2.07812 2.75781 5.38379 6.46484 7.3457 8.23633c1.96094 1.77246 33.5195 23.207 70.1289 47.6328s68.5312 45.3213 70.9375 46.4336
c2.40625 1.11133 6.04785 2.50586 8.09375 3.09863c2.04492 0.591797 5.70117 1.43652 8.125 1.87695c2.42285 0.44043 6.56543 0.825195 9.20508 0.856445zM292.188 599.488c-0.34375 0.192383 -14.6104 -8.96582 -31.7021 -20.3506l-31.0762 -20.7002l0.0263672 -21.25
l0.0263672 -21.25l1.12305 5.3125c0.616211 2.92188 1.89844 7.28125 2.84766 9.6875s2.97949 6.50391 4.51074 9.10547s4.2041 6.39844 5.93848 8.4375c1.73535 2.03906 4.98242 5.29199 7.2168 7.22949s6.20508 4.78418 8.8252 6.32617
c2.61914 1.54199 6.73047 3.5791 9.13477 4.52734c2.40527 0.948242 7.0459 2.27832 10.3125 2.95605c4.86523 1.00879 7.52441 1.1748 14.6904 0.917969c6.9248 -0.248047 9.92383 -0.654297 14.375 -1.94922c3.09375 -0.899414 7.92773 -2.75977 10.7412 -4.13477
s7.31348 -4.13184 10 -6.12695s6.37988 -5.26855 8.20801 -7.27441c1.82812 -2.00488 4.46484 -5.32617 5.85938 -7.38086c1.39551 -2.05469 3.60156 -6.01855 4.9043 -8.80957c1.30176 -2.79102 2.83008 -6.68164 3.39648 -8.64648s1.40332 -5.62109 1.86133 -8.125
c0.766602 -4.19434 0.836914 -2.79102 0.899414 17.7881l0.0673828 22.3408l-30.7812 20.5098c-16.9297 11.2812 -31.0625 20.668 -31.4053 20.8594zM739.436 579.168l-31.1543 20.7285l-31.3281 -20.8867l-31.3271 -20.8887l0.0673828 -22.3418
c0.0625 -20.5801 0.132812 -21.9834 0.899414 -17.7891c0.458008 2.50391 1.29492 6.16016 1.86133 8.125s2.09473 5.85547 3.39648 8.64648c1.30273 2.79102 3.50879 6.75488 4.9043 8.80957c1.39453 2.05469 3.99023 5.32617 5.76758 7.27148
c1.77832 1.94531 5.47266 5.22363 8.20898 7.28613c2.7373 2.0625 7.2793 4.85938 10.0918 6.21582c2.81348 1.35547 7.64648 3.20996 10.7393 4.12207c4.49219 1.32422 7.38672 1.7207 14.375 1.9707c7.19336 0.257812 9.81934 0.0917969 14.7617 -0.932617
c3.30664 -0.685547 8.44434 -2.23828 11.417 -3.4502c2.97363 -1.21191 7.72168 -3.75195 10.5527 -5.64258c2.8291 -1.8916 6.70312 -4.9375 8.60742 -6.76953c1.9043 -1.83105 4.65625 -4.84277 6.11426 -6.69238c1.45703 -1.84961 3.72754 -5.22461 5.04395 -7.5
c1.31738 -2.27539 3.17383 -6.10645 4.12598 -8.5127c0.953125 -2.40625 2.23828 -6.76562 2.85449 -9.6875l1.12305 -5.3125l0.0263672 21.25l0.0263672 21.25zM354.135 502.5c-0.131836 0 -0.435547 -1.56152 -0.674805 -3.47168
c-0.238281 -1.90918 -0.994141 -5.49512 -1.67871 -7.96875s-2.31445 -6.78027 -3.62207 -9.57129c-1.30664 -2.79102 -3.51758 -6.75488 -4.91309 -8.80957c-1.39453 -2.05469 -4.03125 -5.37598 -5.85938 -7.38086c-1.82812 -2.00586 -5.52148 -5.2793 -8.20801 -7.27441
s-7.18652 -4.75195 -10 -6.12695s-7.6084 -3.20703 -10.6553 -4.07227c-3.0459 -0.866211 -6.35059 -1.57422 -7.34375 -1.57422c-0.992188 0 -1.80469 -0.28125 -1.80469 -0.625s0.8125 -0.625 1.80469 -0.625c0.993164 0 4.29785 -0.708008 7.34375 -1.57422
c3.04688 -0.865234 7.8418 -2.69727 10.6553 -4.07227s7.31348 -4.13184 10 -6.12695s6.37988 -5.26855 8.20801 -7.27441c1.82812 -2.00488 4.46484 -5.32617 5.85938 -7.38086c1.39551 -2.05469 3.60156 -6.01855 4.9043 -8.80957
c1.30176 -2.79102 2.83008 -6.68164 3.39648 -8.64648s1.40332 -5.62109 1.86133 -8.125c0.720703 -3.94922 0.84082 3.00195 0.899414 52.4785c0.0371094 31.3672 -0.0410156 57.0312 -0.172852 57.0312zM646.592 498.26
c-0.719727 3.93848 -0.832031 -3.16699 -0.832031 -52.6348s0.112305 -56.5732 0.832031 -52.6348c0.458008 2.50391 1.29492 6.16016 1.86133 8.125s2.09473 5.85547 3.39648 8.64648c1.30273 2.79102 3.50879 6.75488 4.9043 8.80957
c1.39453 2.05469 3.99023 5.32617 5.76758 7.27148c1.77832 1.94531 5.47266 5.22363 8.20898 7.28613c2.7373 2.0625 7.2793 4.85938 10.0918 6.21582c2.81348 1.35547 7.60742 3.18262 10.6543 4.05957c3.0459 0.87793 6.35059 1.5957 7.34375 1.5957
c0.992188 0 1.80469 0.28125 1.80469 0.625s-0.8125 0.625 -1.80469 0.625c-0.993164 0 -4.29785 0.717773 -7.34375 1.5957c-3.04688 0.876953 -7.84082 2.7041 -10.6543 4.05957c-2.8125 1.35645 -7.35449 4.15332 -10.0918 6.21582
c-2.73633 2.0625 -6.43066 5.34082 -8.20898 7.28613c-1.77734 1.94531 -4.37305 5.2168 -5.76758 7.27148c-1.39551 2.05469 -3.60156 6.01855 -4.9043 8.80957c-1.30176 2.79102 -2.83008 6.68164 -3.39648 8.64648s-1.40332 5.62109 -1.86133 8.125zM230.597 494.94
c-1.12695 5.34082 -1.13379 5.05371 -1.13379 -49.3154c0 -54.1709 0.0107422 -54.6377 1.12305 -49.375c0.616211 2.92188 1.89844 7.28125 2.84766 9.6875s2.97949 6.50391 4.51074 9.10547s4.2041 6.39844 5.93848 8.4375
c1.73535 2.03906 4.98242 5.29199 7.2168 7.22949s6.20508 4.78418 8.8252 6.32617c2.61914 1.54199 6.73145 3.58301 9.1377 4.53516s6.69434 2.18359 9.5293 2.73633c2.83398 0.552734 5.15527 1.17969 5.15625 1.39258
c0.000976562 0.213867 -1.40723 0.575195 -3.12988 0.803711c-1.72266 0.229492 -5.02734 0.994141 -7.34375 1.70117s-6.43066 2.3877 -9.14355 3.73535c-2.71191 1.34668 -6.70996 3.71875 -8.88379 5.27051c-2.1748 1.55176 -5.80859 4.69434 -8.0752 6.98438
c-2.26758 2.28906 -5.6748 6.49609 -7.57227 9.34766s-4.44434 7.62402 -5.66016 10.6055c-1.21484 2.98047 -2.71973 7.83789 -3.34277 10.792zM770.394 500c-0.12793 0 -0.418945 -1.40918 -0.647461 -3.13184c-0.229492 -1.72266 -0.994141 -5.02734 -1.70117 -7.34375
s-2.3877 -6.43066 -3.73535 -9.14355c-1.34668 -2.71191 -3.71875 -6.70996 -5.27051 -8.88379c-1.55176 -2.1748 -4.69434 -5.80859 -6.98438 -8.0752c-2.28906 -2.26758 -6.49609 -5.6748 -9.34766 -7.57227s-7.64551 -4.45312 -10.6533 -5.67969
s-7.79297 -2.67969 -10.6338 -3.23145c-2.84082 -0.550781 -5.16602 -1.1416 -5.16602 -1.31348s2.3252 -0.762695 5.16602 -1.31348c2.84082 -0.551758 7.62598 -2.00488 10.6338 -3.23145s7.78418 -3.77734 10.6152 -5.66797
c2.8291 -1.8916 6.70312 -4.9375 8.60742 -6.76953c1.9043 -1.83105 4.65625 -4.84277 6.11426 -6.69238c1.45703 -1.84961 3.72754 -5.22461 5.04395 -7.5c1.31738 -2.27539 3.17383 -6.10645 4.12598 -8.5127c0.953125 -2.40625 2.23828 -6.76562 2.85449 -9.6875
c1.11328 -5.26855 1.12305 -4.85645 1.16699 49.2188c0.0244141 29.9922 -0.0605469 54.5312 -0.188477 54.5312zM354.428 354.375c-0.25293 16.2432 -0.524414 22.3242 -0.883789 19.8096c-0.28418 -1.99512 -1.07812 -5.65137 -1.7627 -8.125
s-2.31445 -6.78027 -3.62207 -9.57129c-1.30664 -2.79102 -3.51758 -6.75488 -4.91309 -8.80957c-1.39453 -2.05469 -4.03125 -5.37598 -5.85938 -7.38086c-1.82812 -2.00586 -5.52148 -5.2793 -8.20801 -7.27441s-7.18652 -4.75195 -10 -6.12695
s-7.6084 -3.20703 -10.6553 -4.07227c-3.0459 -0.866211 -6.35059 -1.57422 -7.34375 -1.57422c-0.992188 0 -1.80469 -0.28125 -1.80469 -0.625s0.8125 -0.625 1.80469 -0.625c0.993164 0 4.29785 -0.708008 7.34375 -1.57422
c3.04688 -0.865234 7.8418 -2.69727 10.6553 -4.07227s7.31348 -4.13184 10 -6.12695s6.37988 -5.26855 8.20801 -7.27441c1.82812 -2.00488 4.46484 -5.32617 5.85938 -7.38086c1.39551 -2.05469 3.60645 -6.01855 4.91309 -8.80957
c1.30762 -2.79102 2.94434 -7.125 3.63867 -9.63184c0.694336 -2.50586 1.58789 -7.3584 1.98535 -10.7812c0.547852 -4.71387 0.547852 -7.7334 0 -12.4473c-0.397461 -3.42285 -1.29102 -8.27539 -1.98535 -10.7812
c-0.694336 -2.50684 -2.33105 -6.84082 -3.63867 -9.63184c-1.30664 -2.79102 -3.51758 -6.75488 -4.91309 -8.80957c-1.39453 -2.05469 -4.03125 -5.37598 -5.85938 -7.38086c-1.82812 -2.00586 -5.52148 -5.2793 -8.20801 -7.27441s-7.18652 -4.75195 -10 -6.12695
s-7.64746 -3.23047 -10.7412 -4.12598c-4.17871 -1.20898 -7.66895 -1.71582 -13.5742 -1.97461c-5.06055 -0.22168 -9.71484 -0.0644531 -12.8125 0.43457c-2.6748 0.431641 -6.69141 1.34082 -8.92578 2.02148c-2.23438 0.681641 -6.28125 2.34082 -8.99414 3.68848
c-2.71191 1.34668 -6.70996 3.71875 -8.88379 5.27051c-2.1748 1.55176 -5.80859 4.69434 -8.0752 6.98438c-2.26758 2.28906 -5.6748 6.49609 -7.57227 9.34766s-4.44434 7.62402 -5.66016 10.6055c-1.21484 2.98047 -2.71973 7.83789 -3.34277 10.792
c-1.1084 5.25391 -1.13477 2.47949 -1.17773 -126.034l-0.0439453 -131.405l27.0312 -0.0146484l27.0312 -0.015625l14.4473 3.57422l14.4463 3.5752l0.34668 15.0342c0.193359 8.38965 0.799805 18.3486 1.37305 22.5342c0.564453 4.125 1.73535 10.8633 2.60156 14.9756
s2.55859 10.7217 3.75977 14.6875c1.20215 3.96582 3.16992 9.88379 4.37207 13.1494s4.54785 10.7334 7.43359 16.5967c2.88672 5.86133 7.92285 14.6875 11.1924 19.6123s8.12891 11.6514 10.7979 14.9473c2.66992 3.2959 7.66699 8.92285 11.1045 12.5029
s9.48438 9.2207 13.4375 12.5342c3.95312 3.31445 9.61621 7.75098 12.584 9.86035c2.96875 2.1084 8.3125 5.59766 11.875 7.75195c3.56348 2.1543 10.6973 5.9541 15.8535 8.44336c5.15625 2.48828 12.9346 5.80469 17.2842 7.37012
c4.35059 1.56445 11.7012 3.8252 16.3369 5.02441c4.63477 1.19727 11.7627 2.74609 15.8398 3.43945c4.07812 0.694336 10.9297 1.58496 15.2266 1.97949c4.79297 0.44043 13.1279 0.579102 21.5625 0.358398c7.5625 -0.198242 16.6084 -0.78418 20.1006 -1.30469
c3.49316 -0.519531 9.1748 -1.52051 12.626 -2.22363s9.64258 -2.24805 13.7578 -3.43262s10.2461 -3.1748 13.624 -4.42383s10.6416 -4.44629 16.1416 -7.10742c5.5 -2.66016 13.0938 -6.75293 16.875 -9.09375s9.40625 -6.13477 12.5 -8.43066
s8.15625 -6.29883 11.25 -8.89648c3.09375 -2.59863 8.57812 -7.78809 12.1875 -11.5322c3.60938 -3.74512 8.69727 -9.47559 11.3066 -12.7354s6.58691 -8.59961 8.83789 -11.8652c2.25195 -3.26562 6.04883 -9.35547 8.43848 -13.5342
c2.38965 -4.17773 5.94238 -11.1416 7.89453 -15.4756c1.95215 -4.33301 5.06738 -12.4463 6.92188 -18.0283c1.85449 -5.58301 4.10449 -13.4434 5 -17.4697c0.894531 -4.02734 2.03711 -10.0742 2.53809 -13.4375c0.500977 -3.36426 1.19531 -9.35156 1.54395 -13.3047
c0.347656 -3.95312 0.635742 -13.5859 0.637695 -21.4062l0.00585938 -14.2188h41.5625h41.5625l-0.0439453 131.405c-0.0429688 128.041 -0.0732422 131.271 -1.16699 126.095c-0.616211 -2.92188 -1.90137 -7.28125 -2.85449 -9.6875
c-0.952148 -2.40625 -2.80859 -6.2373 -4.12598 -8.5127c-1.31641 -2.27539 -3.58691 -5.65039 -5.04395 -7.5c-1.45801 -1.84961 -4.20996 -4.86133 -6.11426 -6.69238c-1.9043 -1.83203 -5.77832 -4.87793 -8.60742 -6.76953
c-2.83008 -1.89062 -7.57812 -4.43066 -10.5518 -5.64258c-2.97266 -1.21191 -8.11035 -2.76465 -11.417 -3.4502c-4.94238 -1.02441 -7.56836 -1.19043 -14.7617 -0.932617c-6.98828 0.25 -9.88281 0.646484 -14.375 1.9707
c-3.09375 0.912109 -7.92676 2.7666 -10.7402 4.12207c-2.8125 1.35645 -7.35449 4.15332 -10.0918 6.21582c-2.73633 2.0625 -6.43066 5.34082 -8.20898 7.28613c-1.77734 1.94531 -4.37305 5.2168 -5.76758 7.27148c-1.39551 2.05469 -3.60645 6.01855 -4.91309 8.80957
c-1.30762 2.79102 -2.94434 7.125 -3.63867 9.63184c-0.694336 2.50586 -1.58789 7.3584 -1.98535 10.7812c-0.547852 4.71387 -0.547852 7.7334 0 12.4473c0.397461 3.42285 1.29102 8.27539 1.98535 10.7812c0.694336 2.50684 2.33105 6.84082 3.63867 9.63184
c1.30664 2.79102 3.51758 6.75488 4.91309 8.80957c1.39453 2.05469 3.99023 5.32617 5.76758 7.27148c1.77832 1.94531 5.47266 5.22363 8.20898 7.28613c2.7373 2.0625 7.2793 4.85938 10.0918 6.21582c2.81348 1.35547 7.60742 3.18262 10.6543 4.05957
c3.0459 0.87793 6.35059 1.5957 7.34375 1.5957c0.992188 0 1.80469 0.28125 1.80469 0.625s-0.8125 0.625 -1.80469 0.625c-0.993164 0 -4.29785 0.717773 -7.34375 1.5957c-3.04688 0.876953 -7.84082 2.7041 -10.6543 4.05957
c-2.8125 1.35645 -7.35449 4.15332 -10.0918 6.21582c-2.73633 2.0625 -6.43066 5.34082 -8.20898 7.28613c-1.77734 1.94531 -4.37305 5.2168 -5.76758 7.27148c-1.39551 2.05469 -3.60156 6.01855 -4.9043 8.80957c-1.30176 2.79102 -2.83008 6.68164 -3.39648 8.64648
s-1.40332 5.62109 -1.86133 8.125c-0.769531 4.21094 -0.837891 2.93457 -0.907227 -17.0098c-0.0654297 -18.4814 -0.244141 -22.3779 -1.25293 -27.2666c-0.647461 -3.1377 -2.16895 -8.13477 -3.37891 -11.1055c-1.21191 -2.96973 -3.7666 -7.75098 -5.67871 -10.625
s-5.42676 -7.19434 -7.81055 -9.60156c-2.38281 -2.40723 -6.74219 -5.98047 -9.6875 -7.93945c-2.94434 -1.95898 -7.78418 -4.55273 -10.7539 -5.76465c-2.9707 -1.20996 -7.96777 -2.73145 -11.1055 -3.37891c-5.43262 -1.12109 -10 -1.17676 -96.0166 -1.17676
c-85.6152 0 -90.6055 0.0605469 -95.9453 1.16309c-3.09863 0.638672 -7.59863 1.93652 -10 2.88379c-2.40234 0.947266 -6.51074 2.9834 -9.12988 4.52539c-2.62012 1.54199 -6.59082 4.38867 -8.8252 6.32617s-5.48145 5.19043 -7.2168 7.22949
c-1.73438 2.03906 -4.40723 5.83594 -5.93848 8.4375s-3.51855 6.59473 -4.41602 8.87402c-0.898438 2.27832 -2.10547 5.93457 -2.68359 8.125c-0.856445 3.24414 -1.11816 8.31934 -1.41699 27.418v0zM230.597 369.94
c-1.12695 5.34082 -1.13379 5.05371 -1.13379 -49.3154c0 -54.1709 0.0107422 -54.6377 1.12305 -49.375c0.616211 2.92188 1.89844 7.28125 2.84766 9.6875s2.97949 6.50391 4.51074 9.10547s4.2041 6.39844 5.93848 8.4375
c1.73535 2.03906 4.98242 5.29199 7.2168 7.22949s6.20508 4.78418 8.8252 6.32617c2.61914 1.54199 6.73145 3.58301 9.1377 4.53516s6.69434 2.18359 9.5293 2.73633c2.83398 0.552734 5.15527 1.17969 5.15625 1.39258
c0.000976562 0.213867 -1.40723 0.575195 -3.12988 0.803711c-1.72266 0.229492 -5.02734 0.994141 -7.34375 1.70117s-6.43066 2.3877 -9.14355 3.73535c-2.71191 1.34668 -6.70996 3.71875 -8.88379 5.27051c-2.1748 1.55176 -5.80859 4.69434 -8.0752 6.98438
c-2.26758 2.28906 -5.6748 6.49609 -7.57227 9.34766s-4.44434 7.62402 -5.66016 10.6055c-1.21484 2.98047 -2.71973 7.83789 -3.34277 10.792zM770.394 375c-0.12793 0 -0.418945 -1.40918 -0.647461 -3.13184c-0.229492 -1.72266 -0.994141 -5.02734 -1.70117 -7.34375
s-2.3877 -6.43066 -3.73535 -9.14355c-1.34668 -2.71191 -3.71875 -6.70996 -5.27051 -8.88379c-1.55176 -2.1748 -4.69434 -5.80859 -6.98438 -8.0752c-2.28906 -2.26758 -6.49609 -5.6748 -9.34766 -7.57227s-7.64551 -4.45312 -10.6533 -5.67969
s-7.79297 -2.67969 -10.6338 -3.23145c-2.84082 -0.550781 -5.16602 -1.1416 -5.16602 -1.31348s2.3252 -0.762695 5.16602 -1.31348c2.84082 -0.551758 7.62598 -2.00488 10.6338 -3.23145s7.78418 -3.77734 10.6152 -5.66797
c2.8291 -1.8916 6.70312 -4.9375 8.60742 -6.76953c1.9043 -1.83105 4.65625 -4.84277 6.11426 -6.69238c1.45703 -1.84961 3.72754 -5.22461 5.04395 -7.5c1.31738 -2.27539 3.17383 -6.10645 4.12598 -8.5127c0.953125 -2.40625 2.23828 -6.76562 2.85449 -9.6875
c1.11328 -5.26855 1.12305 -4.85645 1.16699 49.2188c0.0244141 29.9922 -0.0605469 54.5312 -0.188477 54.5312zM501.562 70.3633c-6.41895 0.148438 -10.6553 -0.0576172 -13.4375 -0.654297c-2.23438 -0.479492 -5.89062 -1.47656 -8.125 -2.21582
s-6.38086 -2.56836 -9.21484 -4.06641c-2.83301 -1.49707 -6.77344 -3.96973 -8.75488 -5.49512c-1.98242 -1.52539 -5.46777 -4.74805 -7.74609 -7.16309c-2.27637 -2.41504 -5.57422 -6.71875 -7.3252 -9.56641c-1.75195 -2.8457 -3.93945 -7.0957 -4.86035 -9.44238
c-0.920898 -2.34766 -1.52539 -4.41699 -1.34375 -4.59863s22.377 5.17676 49.3193 11.9092c26.9443 6.73047 50.0703 12.5244 51.3926 12.875c2.37695 0.628906 2.39062 0.649414 1.25 1.92871c-0.634766 0.711914 -2.98242 2.68848 -5.2168 4.39258
s-6.875 4.46484 -10.3125 6.13574s-8.5 3.64746 -11.25 4.39062c-3.80273 1.0293 -7.24414 1.40625 -14.375 1.57031z" />
  </g>

</svg>
