<?xml version="1.0" standalone="no"?>
<!DOCTYPE svg PUBLIC "-//W3C//DTD SVG 1.1//EN" "http://www.w3.org/Graphics/SVG/1.1/DTD/svg11.dtd" >
<svg xmlns="http://www.w3.org/2000/svg" xmlns:xlink="http://www.w3.org/1999/xlink" version="1.1" viewBox="-10 0 1010 1000">
  <g transform="matrix(1 0 0 -1 0 800)">
   <path fill="currentColor"
d="M498.438 779.278c1.375 0.046875 6.4375 -0.197266 11.25 -0.542969c4.8125 -0.34668 11.2803 -1.06055 14.375 -1.58887c3.09375 -0.527344 8.93457 -1.8125 12.9775 -2.85547c4.04492 -1.04395 10.5146 -3.09863 14.375 -4.56641
c3.8623 -1.46875 10.3975 -4.36719 14.5225 -6.44043c4.125 -2.0752 10.4521 -5.72461 14.0625 -8.1123c3.60938 -2.38672 8.81152 -6.13281 11.5605 -8.32422c2.74805 -2.19043 7.82812 -6.80762 11.2871 -10.2598c3.45996 -3.45117 8.2002 -8.66016 10.5361 -11.5752
c2.33496 -2.91406 6.03223 -8.00879 8.2168 -11.3213c2.18359 -3.3125 5.51367 -8.94336 7.40137 -12.5137c1.88672 -3.56934 4.73242 -9.72461 6.3252 -13.6777s3.83203 -10.5879 4.97754 -14.7441c1.14453 -4.15625 2.51465 -9.92188 3.04492 -12.8125
c0.529297 -2.89062 1.25781 -7.9873 1.61914 -11.3252c0.360352 -3.33789 0.655273 -10.3799 0.655273 -15.6484c0 -5.26953 -0.402344 -12.8037 -0.893555 -16.7432c-0.491211 -3.94043 -1.49805 -10.0732 -2.2373 -13.6289
c-0.739258 -3.55664 -2.26855 -9.32227 -3.39941 -12.8125c-1.12988 -3.49121 -2.25391 -6.81738 -2.49805 -7.39258c-0.359375 -0.848633 0.954102 -1.75781 6.98242 -4.83105c4.08301 -2.08203 11.3486 -6.12793 16.1416 -8.99023
c4.79395 -2.86328 10.7451 -6.55957 13.2246 -8.21484l4.50684 -3.00879l1.71582 2.10742c0.943359 1.15918 4.67969 5.15527 8.30469 8.87891c3.62402 3.72461 9.12109 8.83105 12.2148 11.3477c3.09375 2.51758 8.38086 6.41504 11.748 8.66309
c3.36719 2.24707 9.47266 5.79297 13.5664 7.88086c4.09375 2.08691 10.6875 5.06348 14.6533 6.61426c3.96582 1.5498 10.9395 3.7666 15.4971 4.92578c4.55664 1.15918 11.6602 2.62012 15.7852 3.24805c5.52539 0.84082 11.0381 1.13867 20.9375 1.13184
c9.53906 -0.00683594 15.4395 -0.320312 20.3379 -1.08008c3.79492 -0.588867 10.2637 -1.89355 14.375 -2.90039c4.11133 -1.00586 10.0059 -2.72461 13.0996 -3.81836s8.37109 -3.19727 11.7285 -4.67383c3.35645 -1.47656 9.40332 -4.59961 13.4375 -6.94043
c4.0332 -2.34082 10.709 -6.79199 14.834 -9.89355s10.6016 -8.73535 14.3936 -12.5205c3.79102 -3.78418 8.79297 -9.27148 11.1172 -12.1934c2.32324 -2.92188 5.72168 -7.5625 7.55078 -10.3125c1.83008 -2.75 4.76074 -7.53125 6.5127 -10.625
s4.6084 -8.94824 6.34668 -13.0098c1.73926 -4.0625 4.14746 -10.6338 5.35059 -14.6055c1.20312 -3.9707 2.875 -10.6318 3.71289 -14.8018c0.838867 -4.1709 1.85742 -11.3799 2.26367 -16.0205c0.435547 -4.96191 0.579102 -12.1709 0.349609 -17.5
c-0.212891 -4.98438 -0.830078 -12.0156 -1.36914 -15.625c-0.540039 -3.60938 -1.83594 -10.0781 -2.88086 -14.375s-3.17285 -11.1875 -4.73047 -15.3125c-1.55664 -4.125 -4.63379 -11.0635 -6.83887 -15.4189c-2.2041 -4.35547 -5.85254 -10.6836 -8.10742 -14.0625
c-2.25586 -3.37891 -6.16309 -8.68652 -8.68359 -11.7949c-2.52148 -3.10742 -7.90918 -8.875 -11.9727 -12.8154c-4.06445 -3.94043 -10.0625 -9.1709 -13.3301 -11.6221s-8.61133 -6.08594 -11.875 -8.07715c-3.26367 -1.99219 -9.30957 -5.22461 -13.4346 -7.18359
s-10.3389 -4.55957 -13.8086 -5.77734c-3.46973 -1.21875 -9.79785 -3.06738 -14.0625 -4.10938c-4.26465 -1.04102 -9.16016 -2.07324 -10.8789 -2.29395l-3.125 -0.401367v-22.3809v-22.3809l3.125 -0.401367c1.71875 -0.220703 6.61426 -1.25293 10.8789 -2.29395
c4.26465 -1.04199 10.5928 -2.89062 14.0625 -4.10938c3.46973 -1.21777 9.68359 -3.81836 13.8086 -5.77734s10.1709 -5.19141 13.4346 -7.18359c3.26367 -1.99121 8.60742 -5.62598 11.875 -8.07715s9.28027 -7.69336 13.3613 -11.6484
c4.08203 -3.95508 9.68945 -10.0029 12.4609 -13.4404s6.68457 -8.78125 8.69336 -11.875c2.01074 -3.09375 5.33691 -8.91797 7.39355 -12.9414s5.00781 -10.5605 6.55859 -14.5264c1.5498 -3.96582 3.7666 -10.9395 4.92383 -15.4971
c1.15723 -4.55664 2.57324 -11.5195 3.14648 -15.4727c0.572266 -3.95312 1.20312 -11.125 1.40234 -15.9375c0.203125 -4.92871 0.0380859 -12.4346 -0.37793 -17.1875c-0.40625 -4.64062 -1.42383 -11.8496 -2.2627 -16.0205
c-0.837891 -4.16992 -2.50977 -10.8311 -3.71289 -14.8018c-1.20312 -3.97168 -3.61133 -10.5439 -5.35059 -14.6064c-1.73828 -4.06152 -4.59473 -9.91602 -6.34668 -13.0098s-4.68262 -7.875 -6.5127 -10.625c-1.8291 -2.75 -5.22559 -7.39062 -7.54883 -10.3125
c-2.32129 -2.92188 -7.37012 -8.44141 -11.2188 -12.2656c-3.84766 -3.82422 -10.1846 -9.33984 -14.083 -12.2559c-3.89746 -2.91504 -10.0391 -7.07812 -13.6484 -9.25195c-3.60938 -2.17188 -9.09375 -5.13086 -12.1875 -6.57422s-8.4375 -3.67773 -11.875 -4.9668
c-3.4375 -1.28809 -9.94531 -3.27637 -14.4629 -4.41992c-4.5166 -1.14258 -11.4072 -2.57227 -15.3125 -3.17676c-5.10547 -0.791016 -10.873 -1.10352 -20.5371 -1.1123c-9.81055 -0.00878906 -15.3779 0.288086 -20.625 1.09863
c-3.95312 0.610352 -10.7031 1.96582 -15 3.01172s-11.1875 3.17578 -15.3125 4.7334c-4.125 1.55664 -11.0156 4.61328 -15.3125 6.79102s-10.625 5.82715 -14.0625 8.1084c-3.4375 2.28223 -8.78125 6.20801 -11.875 8.72363
c-3.09375 2.5166 -8.59082 7.62305 -12.2148 11.3477c-3.625 3.72363 -7.35156 7.70801 -8.28223 8.85254l-1.69336 2.08105l-2.30176 -1.45605c-1.26465 -0.800781 -2.5459 -1.62305 -2.8457 -1.82715s11.5664 -30.6641 26.3721 -67.6885
c14.8037 -37.0244 27.4619 -69.2832 28.1279 -71.6865c0.665039 -2.40234 1.52832 -7.10645 1.91797 -10.4521c0.510742 -4.40137 0.523438 -7.72363 0.0429688 -12.0068c-0.365234 -3.25586 -1.09766 -7.5752 -1.62695 -9.59961
c-0.529297 -2.02246 -1.69531 -5.53809 -2.59082 -7.8125c-0.895508 -2.27246 -2.92773 -6.375 -4.5166 -9.11621c-1.9502 -3.36426 -4.91992 -7.0332 -9.13867 -11.2891c-3.77441 -3.80859 -8.10645 -7.45117 -10.9375 -9.19824
c-2.57812 -1.58887 -6.8252 -3.74219 -9.43848 -4.78711c-2.61328 -1.04297 -6.41016 -2.33203 -8.4375 -2.86133c-2.02734 -0.53125 -6.33594 -1.26172 -9.57324 -1.625c-4.13184 -0.462891 -7.67285 -0.463867 -11.875 -0.00195312
c-3.29395 0.363281 -8.09766 1.24805 -10.6758 1.96582c-2.57812 0.71875 -6.98633 2.38379 -9.7959 3.69922c-2.80957 1.31738 -6.46582 3.31445 -8.125 4.43945c-1.65918 1.12598 -4.68457 3.47461 -6.72363 5.21973s-5.33203 5.21582 -7.31836 7.71094
c-1.98535 2.49707 -4.63379 6.37109 -5.88477 8.60742c-1.25 2.23633 -14.459 34.5059 -29.3525 71.71c-22.4619 56.1133 -27.2725 67.6318 -28.2207 67.5713c-0.62793 -0.0400391 -5.21973 -0.65625 -10.2041 -1.37012
c-4.98438 -0.712891 -12.5781 -1.66113 -16.875 -2.10547c-4.6875 -0.484375 -15.8115 -0.802734 -27.8125 -0.795898c-14.7246 0.00976562 -22.6377 0.299805 -30 1.10352c-5.5 0.600586 -13.375 1.61914 -17.5 2.26465
c-4.125 0.644531 -7.66895 0.988281 -7.87598 0.761719s-12.3936 -30.5049 -27.0811 -67.2852c-14.6875 -36.7812 -27.6914 -68.7031 -28.8984 -70.9375c-1.20605 -2.23438 -3.74219 -6.09766 -5.63574 -8.58594s-5.00586 -5.95312 -6.91602 -7.69922
c-1.91113 -1.74609 -5.1543 -4.31641 -7.20898 -5.71094c-2.05469 -1.39551 -6.10156 -3.64551 -8.99316 -5.00098c-2.89258 -1.35547 -7.98828 -3.17578 -11.3242 -4.04492c-4.89551 -1.27539 -7.63477 -1.59082 -14.1914 -1.63281
c-4.46875 -0.0292969 -9.8125 0.297852 -11.875 0.725586c-2.0625 0.429688 -5.57812 1.3584 -7.8125 2.06738c-2.23438 0.708008 -6.3125 2.40625 -9.0625 3.77344c-2.75 1.36816 -6.89941 3.89258 -9.22168 5.60938c-2.32129 1.7168 -6.25879 5.31543 -8.75 7.99609
c-2.49023 2.68164 -5.82812 7.08398 -7.41699 9.7832s-3.62109 6.76758 -4.5166 9.04004c-0.895508 2.27441 -2.06152 5.79004 -2.59082 7.8125c-0.529297 2.02441 -1.26172 6.34375 -1.62695 9.59961c-0.480469 4.28223 -0.467773 7.60449 0.0429688 12.0059
c0.389648 3.34668 1.25293 8.05078 1.91797 10.4531c0.666016 2.40332 13.3242 34.6621 28.1279 71.6855c14.8057 37.0244 26.6719 67.4854 26.3721 67.6895s-1.58105 1.02637 -2.8457 1.82715l-2.30176 1.45605l-1.69141 -2.08105
c-0.930664 -1.14453 -4.79883 -5.27246 -8.5957 -9.17285s-9.15332 -8.91602 -11.9033 -11.1455s-7.9248 -5.99805 -11.499 -8.375c-3.5752 -2.37598 -9.82031 -6.01367 -13.8789 -8.08301s-10.624 -5.03125 -14.5898 -6.58203
c-3.96484 -1.5498 -10.9424 -3.77539 -15.502 -4.94434c-4.56055 -1.16895 -11.5234 -2.58301 -15.4736 -3.1416c-3.9502 -0.557617 -11.1182 -1.17969 -15.9307 -1.38184c-4.96094 -0.207031 -12.4033 -0.0458984 -17.1875 0.373047
c-4.64062 0.40625 -11.8496 1.42383 -16.0205 2.2627c-4.16992 0.837891 -10.832 2.50977 -14.8027 3.71289c-3.97168 1.20312 -10.4932 3.59277 -14.4941 5.30957c-4.00195 1.7168 -9.85547 4.57422 -13.0107 6.34863c-3.1543 1.77539 -7.98535 4.72363 -10.7354 6.55273
s-7.39062 5.22461 -10.3125 7.54785c-2.92188 2.32129 -8.44141 7.37012 -12.2656 11.2188c-3.82422 3.84766 -9.33984 10.1846 -12.2559 14.083c-2.91504 3.89746 -7.07715 10.0391 -9.24805 13.6484c-2.1709 3.6084 -5.14062 9.13574 -6.60156 12.2803
c-1.45996 3.14551 -3.67676 8.44824 -4.92676 11.7861c-1.25 3.33691 -3.22266 9.77344 -4.38379 14.3037c-1.16113 4.5293 -2.61035 11.46 -3.2207 15.4014c-0.801758 5.18164 -1.11035 10.8848 -1.11816 20.6025c-0.00683594 9.89941 0.291016 15.4121 1.13184 20.9375
c0.62793 4.125 2.08887 11.2285 3.24805 15.7852c1.15918 4.55762 3.34766 11.4609 4.86426 15.3398c1.5166 3.87793 4.08594 9.71094 5.71094 12.9639c1.625 3.25195 4.36523 8.26074 6.08887 11.1309c1.72559 2.87109 5.21777 8.01562 7.76172 11.4346
c2.54395 3.41797 7.91016 9.59766 11.9258 13.7324c4.01465 4.13477 9.84277 9.57422 12.9502 12.0879c3.1084 2.51367 8.24707 6.29492 11.4199 8.4043c3.17285 2.10742 8.65723 5.35645 12.1875 7.21777s9.5791 4.6748 13.4414 6.25098
c3.8623 1.5752 10.3311 3.8125 14.375 4.96973c4.04395 1.1582 10.165 2.61133 13.6025 3.22949l6.25 1.12402v22.2676v22.2676l-6.25 1.12402c-3.4375 0.618164 -9.55859 2.07129 -13.6025 3.22949c-4.04395 1.15723 -10.5127 3.39453 -14.375 4.96973
c-3.8623 1.57617 -9.91113 4.38965 -13.4414 6.25098s-9.01465 5.11035 -12.1875 7.21777c-3.17285 2.10938 -8.2998 5.88379 -11.3936 8.3877c-3.09375 2.50488 -8.7334 7.74609 -12.5312 11.6475c-3.79883 3.90137 -8.93164 9.72168 -11.4072 12.9355
c-2.47559 3.21484 -6.02539 8.30957 -7.88867 11.3232c-1.86426 3.0127 -4.85059 8.38965 -6.63672 11.9492c-1.78613 3.55859 -4.48633 9.64062 -6.00195 13.5176c-1.51562 3.875 -3.70312 10.7744 -4.8623 15.332c-1.15918 4.55664 -2.62012 11.6602 -3.24805 15.7852
c-0.84082 5.52539 -1.13867 11.0381 -1.13184 20.9375c0.00683594 9.53906 0.320312 15.4395 1.08008 20.3379c0.588867 3.79492 1.89355 10.2637 2.90039 14.375c1.00586 4.11133 2.72363 10.0059 3.81738 13.0996c1.09277 3.09375 3.35156 8.67676 5.01953 12.4072
c1.66797 3.72949 4.90918 9.91699 7.20215 13.75c2.29395 3.83203 6.59082 10.2021 9.5498 14.1553s8.75781 10.5645 12.8848 14.6914c4.12793 4.12695 10.7393 9.92383 14.6914 12.8809c3.95312 2.95605 10.1406 7.15137 13.75 9.32227
c3.61035 2.1709 9.13574 5.14062 12.2812 6.60156c3.14551 1.45996 8.44824 3.67676 11.7852 4.92676s9.77344 3.22266 14.3037 4.38379s11.4609 2.60742 15.4023 3.21582c5.08594 0.78418 10.9746 1.1123 20.29 1.12988
c7.57812 0.015625 15.6348 -0.321289 19.0625 -0.795898c3.26562 -0.453125 9.17188 -1.53125 13.125 -2.39746s10.5625 -2.68848 14.6875 -4.0498s12 -4.68262 17.5 -7.37988s12.9531 -6.87793 16.5625 -9.29102c3.60938 -2.41113 8.8125 -6.20898 11.5625 -8.43848
s8.10645 -7.24512 11.9033 -11.1455s7.66309 -8.02637 8.59082 -9.16699l1.6875 -2.07715l8.28418 5.26855c4.55566 2.89648 11.2373 6.95996 14.8467 9.02832c3.60938 2.06934 9.1377 5.05273 12.2852 6.62891l5.72363 2.86816l-2.17773 6.71777
c-1.19824 3.69531 -2.84766 9.68164 -3.66504 13.3047c-0.818359 3.62207 -1.9209 10.0938 -2.45117 14.3799c-0.530273 4.28711 -0.964844 12.1025 -0.964844 17.3682s0.294922 12.3057 0.655273 15.6436c0.361328 3.33789 1.08984 8.43457 1.61914 11.3252
c0.530273 2.89062 1.91309 8.7207 3.07324 12.9561c1.16211 4.23535 3.4043 10.8701 4.98438 14.7441c1.58105 3.87402 4.42676 9.99707 6.32422 13.6064c1.89648 3.60938 5.2334 9.25195 7.41504 12.5391c2.18066 3.28711 5.87012 8.34961 8.19824 11.25
c2.32715 2.90039 6.91699 7.95996 10.2002 11.2441c3.28223 3.28418 8.63965 8.10156 11.9053 10.7061c3.26562 2.60352 8.60938 6.48535 11.875 8.62598s10.1562 5.95996 15.3125 8.4873c5.15625 2.52832 12.3066 5.59961 15.8887 6.8252
c3.58301 1.22656 9.21973 2.91602 12.5273 3.75391c3.30664 0.837891 8.81348 1.97949 12.2363 2.53613c3.42188 0.555664 9.17578 1.22852 12.7852 1.49316c3.60938 0.265625 7.6875 0.521484 9.06348 0.567383zM501.875 653.988
c-1.89062 0.166016 -4.64062 0.0527344 -6.11035 -0.250977c-1.4707 -0.303711 -4.10254 -1.33008 -5.84766 -2.28027c-1.74609 -0.950195 -4.25977 -2.96094 -5.58691 -4.46875s-3.0127 -4.33008 -3.74512 -6.27148c-1.07422 -2.84863 -1.28027 -4.49414 -1.06543 -8.5293
c0.202148 -3.77539 0.662109 -5.77148 1.88086 -8.15039c0.886719 -1.73242 2.9248 -4.35938 4.52734 -5.83691c1.60352 -1.47754 4.23047 -3.29102 5.83691 -4.03125c2.25879 -1.03906 4.12988 -1.3457 8.23535 -1.35059
c4.54785 -0.00488281 5.82031 0.243164 8.83887 1.72559c1.93848 0.952148 4.66113 2.96387 6.04883 4.46875c1.3877 1.50586 3.15527 3.96094 3.92578 5.45703c0.998047 1.93359 1.47949 4.15918 1.66797 7.71777c0.213867 4.03418 0.00683594 5.68164 -1.06641 8.5293
c-0.732422 1.94141 -2.46191 4.81348 -3.84375 6.38281c-1.52344 1.73145 -4.03711 3.58887 -6.38574 4.7207c-2.24902 1.08398 -5.31348 1.99316 -7.31055 2.16797zM207.855 487.474c-1.74219 -0.0136719 -4.49023 -0.505859 -6.10742 -1.09375
c-1.61621 -0.586914 -4.18359 -1.95215 -5.70508 -3.03223c-1.52246 -1.08105 -3.60938 -3.19043 -4.63965 -4.6875c-1.03027 -1.49805 -2.3291 -4.06836 -2.88867 -5.71289c-0.557617 -1.64551 -1.01465 -4.33594 -1.01465 -5.98047s0.416016 -4.38965 0.923828 -6.10059
s1.79395 -4.42383 2.85645 -6.02832c1.0957 -1.6543 3.51758 -3.97656 5.59082 -5.36133c2.53125 -1.68945 4.90234 -2.67676 7.70117 -3.20508c3.07227 -0.580078 4.86133 -0.59375 7.44336 -0.0566406c1.87012 0.387695 4.50098 1.28613 5.84766 1.99512
c1.34766 0.708984 3.39453 2.17676 4.54883 3.25879c1.1543 1.08301 2.7793 3.0293 3.60938 4.32617c0.832031 1.2959 1.95898 4.10547 2.50586 6.24023c0.841797 3.2832 0.878906 4.53711 0.242188 8.09961c-0.525391 2.93848 -1.4668 5.31934 -3.10938 7.85938
c-1.4248 2.20508 -3.55078 4.43555 -5.38477 5.65039c-1.66699 1.10449 -4.43066 2.42383 -6.1416 2.93164s-4.53613 0.912109 -6.27832 0.897461zM498.75 487.409c-4.98438 -0.0449219 -11.875 -0.324219 -15.3125 -0.62207
c-3.4375 -0.296875 -9.66602 -1.1123 -13.8398 -1.8125c-4.1748 -0.699219 -10.5029 -1.9707 -14.0625 -2.82422c-3.56055 -0.854492 -9.56641 -2.55957 -13.3477 -3.79004c-3.78125 -1.22949 -9.95801 -3.49316 -13.7266 -5.02832
c-3.76953 -1.53613 -9.83008 -4.31543 -13.4697 -6.17676s-9.80078 -5.36133 -13.6934 -7.77734c-3.8916 -2.41699 -10.2051 -6.74902 -14.0312 -9.62891c-3.8252 -2.87891 -10.1885 -8.18066 -14.1416 -11.7822c-3.95312 -3.60059 -9.71875 -9.41699 -12.8125 -12.9248
s-7.96484 -9.51172 -10.8252 -13.3418c-2.85938 -3.83008 -6.77441 -9.50586 -8.69824 -12.6133c-1.9248 -3.10645 -5.13281 -8.75586 -7.12891 -12.5527c-1.99707 -3.79688 -4.87109 -9.86523 -6.3877 -13.4854s-3.91016 -10.0762 -5.32031 -14.3467
c-1.40918 -4.27051 -3.3877 -11.2803 -4.39746 -15.5771c-1.01074 -4.29688 -2.28223 -10.7656 -2.82617 -14.375c-0.544922 -3.60938 -1.2666 -9.79688 -1.60449 -13.75c-0.336914 -3.95312 -0.612305 -10.7031 -0.612305 -15
c0.000976562 -4.29688 0.286133 -11.1875 0.635742 -15.3125c0.348633 -4.125 1.2002 -10.916 1.8916 -15.0898c0.692383 -4.1748 1.95508 -10.5029 2.80859 -14.0625c0.852539 -3.56055 2.70117 -9.9668 4.1084 -14.2373s3.7998 -10.7266 5.31641 -14.3467
s4.41602 -9.73926 6.44238 -13.5986c2.02734 -3.8584 5.39746 -9.73926 7.48926 -13.0684c2.0918 -3.32812 6.16113 -9.18457 9.04297 -13.0117c2.88086 -3.82812 8.18164 -10.1943 11.7793 -14.1475c3.59668 -3.95312 8.27344 -8.6875 10.3916 -10.5205l3.85254 -3.33301
l0.866211 2.08301c0.476562 1.14551 15.6475 39.0303 33.7129 84.1895c26.1777 65.4365 33.5176 83.1914 36.1543 87.4521c1.89551 3.0625 5.57812 7.64551 8.62109 10.7266c2.92188 2.96094 6.88477 6.41211 8.80664 7.67188
c1.92188 1.25879 5.4375 3.26367 7.8125 4.45312c2.375 1.19141 6.05859 2.74902 8.18457 3.46387s6.48535 1.75684 9.6875 2.31738c4.16113 0.726562 7.78223 0.918945 12.6963 0.670898c4.23535 -0.211914 9.2041 -0.944336 12.9424 -1.90527
c3.33691 -0.857422 8.53223 -2.76367 11.5449 -4.23535c3.01172 -1.4707 7.63477 -4.30273 10.2744 -6.29004c2.6377 -1.98828 6.28223 -5.23242 8.09863 -7.21094c1.81543 -1.97754 4.92383 -6.09668 6.9082 -9.1543c3.16895 -4.88477 7.66992 -15.7197 37.1279 -89.375
c18.4355 -46.0986 33.7529 -84.0586 34.0371 -84.3535c0.283203 -0.294922 4.12793 3.08008 8.54297 7.5s10.5049 11.1309 13.5352 14.9121c3.0293 3.78125 7.56641 9.96875 10.083 13.75c2.51562 3.78125 6.14648 9.67285 8.06836 13.0928
c1.9209 3.41992 5.03809 9.64746 6.92676 13.8389c1.8877 4.19238 4.72363 11.3779 6.30273 15.9697s3.68164 11.6514 4.67188 15.6885c0.991211 4.03613 2.37402 10.7861 3.07227 15c0.697266 4.21289 1.55469 11.0352 1.90332 15.1602
c0.349609 4.125 0.634766 11.0156 0.634766 15.3125s-0.289062 11.1875 -0.642578 15.3125s-1.06348 10.1719 -1.57812 13.4375c-0.513672 3.26562 -1.65332 9.17188 -2.53027 13.125c-0.87793 3.95312 -2.72559 10.7031 -4.10742 15s-3.7666 10.8955 -5.30078 14.6641
c-1.5332 3.76953 -4.31152 9.83008 -6.17285 13.4697s-5.36133 9.80078 -7.77734 13.6934c-2.41699 3.8916 -6.74707 10.2051 -9.62402 14.0312c-2.87598 3.8252 -8.31348 10.3291 -12.083 14.4541s-9.5918 9.89062 -12.9385 12.8125s-9.21484 7.65234 -13.041 10.5127
c-3.8252 2.85938 -9.49707 6.77441 -12.6045 8.69824c-3.10645 1.9248 -8.75586 5.13281 -12.5527 7.12891c-3.79688 1.99707 -9.86523 4.87109 -13.4854 6.3877s-10.0762 3.91016 -14.3467 5.32031c-4.27051 1.40918 -11.2803 3.3877 -15.5771 4.39746
c-4.29688 1.01074 -10.7656 2.28223 -14.375 2.82617c-3.60938 0.544922 -9.79688 1.2666 -13.75 1.60449c-3.95312 0.336914 -11.2656 0.577148 -16.25 0.533203zM792.812 487.297c-3.17188 0.172852 -5.26855 -0.0810547 -7.625 -0.922852
c-1.78711 -0.638672 -4.37988 -1.94434 -5.76172 -2.90137c-1.38086 -0.957031 -3.24121 -2.69727 -4.13281 -3.86719c-0.892578 -1.16895 -2.20996 -3.4541 -2.92773 -5.07715c-0.893555 -2.01953 -1.32129 -4.33496 -1.35352 -7.33301
c-0.0302734 -2.70117 0.378906 -5.62305 1.06543 -7.61426c0.613281 -1.77734 2.27246 -4.5459 3.68555 -6.15137c1.41309 -1.60645 3.65527 -3.60449 4.97949 -4.44141c1.32617 -0.835938 4.1582 -1.96875 6.29297 -2.51562
c3.29102 -0.84375 4.53223 -0.879883 8.13086 -0.236328c3.08496 0.550781 5.25488 1.43262 7.93359 3.2207c2.1084 1.4082 4.51953 3.71875 5.63086 5.39648c1.06934 1.61426 2.39062 4.4707 2.93555 6.34766c0.679688 2.33887 0.87793 4.63867 0.628906 7.30176
c-0.199219 2.13965 -0.999023 5.25 -1.77734 6.91211s-2.69043 4.29688 -4.24805 5.85449s-4.23828 3.49805 -5.95703 4.31055c-2.06836 0.978516 -4.60352 1.55859 -7.5 1.7168zM209.698 154.039c-1.72461 0.146484 -4.30469 0.0195312 -5.7334 -0.28125
s-3.76074 -1.14062 -5.18262 -1.86621c-1.4209 -0.725586 -3.72559 -2.45996 -5.12207 -3.85645c-1.39551 -1.39551 -3.28223 -4.12598 -4.19238 -6.06738c-1.38965 -2.96387 -1.65234 -4.38184 -1.63965 -8.84277c0.0126953 -4.34473 0.293945 -5.88184 1.54297 -8.4375
c0.839844 -1.71875 2.80176 -4.39941 4.35938 -5.95703s4.19238 -3.46973 5.85449 -4.24805s4.77246 -1.57812 6.91211 -1.77734c2.66309 -0.249023 4.96289 -0.0507812 7.30176 0.628906c1.87695 0.544922 4.7334 1.86621 6.34766 2.93555
c1.67773 1.11133 3.98828 3.52246 5.39648 5.63086c1.78809 2.67871 2.66992 4.84863 3.2207 7.93359c0.643555 3.59863 0.607422 4.83984 -0.236328 8.13086c-0.546875 2.13477 -1.67969 4.9668 -2.51562 6.29297c-0.836914 1.32422 -2.82812 3.55957 -4.42578 4.96582
c-1.59766 1.40723 -4.2207 3.00586 -5.82812 3.55371c-1.6084 0.547852 -4.33496 1.11621 -6.05957 1.26172zM793.438 154.015c-2.42285 0.22168 -4.94824 0.00878906 -7.13672 -0.600586c-1.8623 -0.518555 -4.31152 -1.51367 -5.44141 -2.21191
c-1.12988 -0.699219 -3.31348 -2.66992 -4.85059 -4.37988c-1.5957 -1.77441 -3.27832 -4.51074 -3.9209 -6.37207c-0.701172 -2.03223 -1.10742 -4.93066 -1.07617 -7.68848c0.0380859 -3.34082 0.44043 -5.27832 1.64258 -7.90527
c0.875977 -1.91309 2.77539 -4.66113 4.2207 -6.10645c1.44434 -1.44531 4.21582 -3.37207 6.15723 -4.28223c2.98242 -1.39844 4.35547 -1.64941 8.84277 -1.61914c4.28223 0.0292969 5.91797 0.328125 8.4375 1.54297c1.71875 0.828125 4.39844 2.78125 5.95703 4.33887
c1.55762 1.55762 3.50977 4.23828 4.33887 5.95703c1.21387 2.51953 1.51367 4.1543 1.54297 8.4375c0.0302734 4.4873 -0.220703 5.86035 -1.61914 8.84277c-0.910156 1.94141 -2.83691 4.71191 -4.28223 6.15723c-1.44629 1.44531 -4.07617 3.28516 -5.8457 4.08789
c-1.76953 0.803711 -4.9043 1.61426 -6.9668 1.80176zM500 130.625c-0.224609 0 -1.89355 -3.72656 -3.70801 -8.28125c-1.81348 -4.55469 -3.43945 -8.63281 -3.6123 -9.0625c-0.240234 -0.599609 1.46289 -0.78125 7.32031 -0.78125s7.56055 0.181641 7.32031 0.78125
c-0.172852 0.429688 -1.79883 4.50781 -3.6123 9.0625c-1.81445 4.55469 -3.4834 8.28125 -3.70801 8.28125z" />
  </g>

</svg>
