<?xml version="1.0" standalone="no"?>
<!DOCTYPE svg PUBLIC "-//W3C//DTD SVG 1.1//EN" "http://www.w3.org/Graphics/SVG/1.1/DTD/svg11.dtd" >
<svg xmlns="http://www.w3.org/2000/svg" xmlns:xlink="http://www.w3.org/1999/xlink" version="1.1" viewBox="-10 0 1010 1000">
  <g transform="matrix(1 0 0 -1 0 800)">
   <path fill="currentColor"
d="M460.938 695.35c11.7393 -0.146484 18.8721 -0.526367 23.4375 -1.24805c3.60938 -0.571289 9.65625 -1.76562 13.4375 -2.65625c3.78125 -0.888672 10.4639 -2.84375 14.8496 -4.34277c4.38672 -1.49902 10.9961 -4.07812 14.6875 -5.73145
s9.80664 -4.78027 13.5879 -6.94824c3.78125 -2.16895 9.65527 -5.91895 13.0518 -8.33398c3.39746 -2.41406 8.60059 -6.42383 11.5625 -8.90918c2.96191 -2.48438 8.2168 -7.45898 11.6787 -11.0537s9.14941 -10.2002 12.6377 -14.6787
c3.48926 -4.47754 7.8291 -9.28711 9.64355 -10.6865c1.81445 -1.40039 5.08203 -3.42871 7.25879 -4.50977c2.17773 -1.08008 5.83398 -2.36133 8.125 -2.84668c2.29199 -0.485352 6.83789 -0.882812 10.1035 -0.882812s7.81152 0.397461 10.1035 0.882812
c2.29102 0.485352 5.93652 1.76172 8.10156 2.83594c2.16406 1.07422 5.30957 2.99219 6.98926 4.2627s6.1582 6.22363 9.95215 11.0068c3.79492 4.78418 9.18164 11.085 11.9707 14.0029c2.78809 2.91699 7.88281 7.72461 11.3203 10.6826
c3.4375 2.95898 8.64062 7.09375 11.5625 9.18945c2.92188 2.09668 8.26562 5.59082 11.875 7.7666s10.0781 5.55957 14.375 7.51953s11.4844 4.83496 15.9727 6.3877c4.4873 1.55371 11.3779 3.54492 15.3125 4.42676c3.93359 0.881836 10.2461 2.09961 14.0273 2.70801
c5.45605 0.876953 10.6816 1.10449 25.3125 1.10352c14.8184 -0.000976562 19.8486 -0.226562 25.625 -1.14453c3.95312 -0.628906 11.125 -2.12891 15.9375 -3.33398c4.8125 -1.20605 11.8438 -3.31934 15.625 -4.69629c3.78125 -1.37793 10.25 -4.11133 14.375 -6.07617
c4.125 -1.96387 10.4531 -5.34863 14.0625 -7.52246c3.60938 -2.17285 9.70215 -6.2998 13.5391 -9.16992c3.83789 -2.87109 8.90039 -6.97949 11.25 -9.13086c2.35059 -2.15039 7.1543 -7.00391 10.6758 -10.7852s8.30664 -9.40625 10.6357 -12.5
c2.32812 -3.09375 5.39453 -7.875 6.81543 -10.625c1.41992 -2.75 3.29883 -7.28809 4.17578 -10.084c0.876953 -2.79688 1.92676 -7.57812 2.33398 -10.625c0.430664 -3.2207 0.581055 -8.1582 0.360352 -11.791c-0.209961 -3.4375 -0.932617 -8.40918 -1.60742 -11.0469
c-0.674805 -2.63867 -2.08691 -6.85742 -3.13672 -9.375c-1.0498 -2.51855 -3.26562 -6.69238 -4.92285 -9.27734c-1.65723 -2.58301 -4.82422 -6.63379 -7.03516 -9s-5.84863 -5.69238 -8.08301 -7.39062c-2.23535 -1.69824 -6.875 -4.45605 -10.3125 -6.12793
s-8.64062 -3.68555 -11.5625 -4.47363c-4.5293 -1.22266 -6.83301 -1.43359 -15.625 -1.43359c-8.84473 0 -11.0693 0.206055 -15.625 1.4502c-2.92285 0.797852 -7.61621 2.53027 -10.4326 3.84863c-2.81543 1.31934 -6.73047 3.46777 -8.69922 4.77539
c-1.96973 1.30664 -5.2627 3.93359 -7.31934 5.83691c-2.05664 1.9043 -5.94043 6.18066 -8.63086 9.50293c-3.55762 4.39258 -6.15625 6.88672 -9.52441 9.13965c-2.54883 1.7041 -6.42188 3.73535 -8.60742 4.51465c-3.17285 1.12988 -5.73633 1.47363 -12.7236 1.70312
c-6.88086 0.227539 -9.61719 0.0654297 -12.8125 -0.758789c-2.23438 -0.576172 -5.875 -1.93457 -8.09082 -3.01953c-2.21582 -1.08398 -5.66699 -3.49023 -7.6709 -5.3457c-2.00488 -1.85449 -5.94043 -6.36035 -8.74805 -10.0098
c-2.80664 -3.65039 -8.63574 -10.2539 -12.9531 -14.6738c-4.31738 -4.4209 -10.5732 -10.2334 -13.9023 -12.9199c-3.33008 -2.68555 -9.32812 -7.04492 -13.332 -9.68848c-4.00293 -2.64355 -11.123 -6.73438 -15.8213 -9.0918
c-4.69922 -2.35645 -11.6377 -5.44531 -15.4189 -6.86328c-3.78125 -1.41895 -10.3906 -3.54395 -14.6875 -4.72266s-10.9658 -2.69141 -14.8193 -3.36133s-10.8848 -1.54395 -15.625 -1.94336c-5.09668 -0.429688 -13.3428 -0.577148 -20.1807 -0.361328
c-6.35938 0.201172 -14.6562 0.808594 -18.4375 1.35156s-10.0977 1.70898 -14.0371 2.59082c-3.93848 0.882812 -9.00098 2.16992 -11.25 2.86133c-2.24805 0.691406 -6.90039 2.32422 -10.3379 3.62891s-8.92188 3.65234 -12.1875 5.21582
c-3.26562 1.56445 -8.46875 4.29688 -11.5625 6.07031c-3.09375 1.77441 -7.875 4.79004 -10.625 6.70215s-7.67188 5.64355 -10.9375 8.29395s-8.92578 7.87402 -12.5771 11.6084c-3.65332 3.73438 -7.61133 7.91504 -8.79688 9.29004s-3.875 4.78125 -5.97754 7.56934
s-5.53809 6.62207 -7.63574 8.52051s-5.56055 4.30664 -7.69434 5.35059c-2.13477 1.04492 -5.60938 2.34375 -7.7207 2.88672c-2.44434 0.626953 -6.54395 0.985352 -11.2754 0.985352c-4.6875 0 -8.81055 -0.357422 -11.1602 -0.966797
c-2.04883 -0.532227 -5.13086 -1.61621 -6.84961 -2.40918s-4.81738 -2.72363 -6.88574 -4.28906s-5.63672 -5.21387 -7.92969 -8.10742s-5.94922 -6.92676 -8.12598 -8.96289c-2.17773 -2.03613 -5.58594 -4.7832 -7.57617 -6.10352
c-1.99023 -1.32129 -5.92188 -3.48047 -8.7373 -4.7998c-2.81641 -1.31836 -7.51074 -3.05078 -10.4326 -3.84863c-4.55664 -1.24414 -6.78027 -1.4502 -15.625 -1.4502c-8.79199 0 -11.0957 0.210938 -15.625 1.43359c-2.92188 0.788086 -8.125 2.80176 -11.5625 4.47363
s-8.07812 4.42969 -10.3125 6.12793s-5.87207 5.02441 -8.08301 7.39062s-5.37793 6.41699 -7.03516 9c-1.65723 2.58496 -3.87305 6.75879 -4.92285 9.27734c-1.0498 2.51758 -2.46289 6.73633 -3.14062 9.375c-0.676758 2.6377 -1.40332 7.76855 -1.61426 11.3994
c-0.234375 4.04883 -0.0849609 8.63672 0.386719 11.8604c0.422852 2.8916 1.47559 7.51367 2.34082 10.2725c0.864258 2.75781 2.73242 7.26465 4.15039 10.0146s4.38672 7.39062 6.5957 10.3125c2.20996 2.92188 4.99316 6.4375 6.18555 7.8125
c1.19336 1.375 5.15625 5.55176 8.80957 9.28223c3.65137 3.73047 9.45215 9.05469 12.8896 11.8311c3.4375 2.77832 9.34375 7.08301 13.125 9.56641c3.78125 2.48438 9.82812 6.07227 13.4375 7.97266c3.60938 1.89844 9.79688 4.77539 13.75 6.3916
s9.71875 3.72461 12.8125 4.68652c3.09375 0.960938 7.35645 2.18848 9.47266 2.72949c2.11719 0.540039 6.19531 1.43164 9.0625 1.98145c2.86816 0.548828 8.16797 1.37695 11.7773 1.83984c4.52148 0.579102 11.8096 0.775391 23.4375 0.630859zM376.875 487.293
l132.812 -0.105469l6.06738 -1.67578c3.33691 -0.921875 8.53223 -2.88086 11.5449 -4.35254c3.01172 -1.4707 7.63477 -4.30273 10.2744 -6.29004c2.6377 -1.98828 6.28027 -5.23242 8.09375 -7.21094c1.81348 -1.97754 4.80859 -5.90918 6.65625 -8.73535
c1.84668 -2.82715 4.20605 -7.18652 5.24219 -9.6875c1.03711 -2.50195 2.45215 -6.79785 3.14453 -9.54785c0.876953 -3.48047 1.34473 -7.84961 1.54004 -14.375c0.154297 -5.15625 0.564453 -18.9004 0.910156 -30.543c0.34668 -11.6416 1.04492 -27.9541 1.55176 -36.25
c0.506836 -8.29492 1.19922 -18.5977 1.53906 -22.8945c0.338867 -4.29688 0.787109 -9.42969 0.994141 -11.4062l0.375977 -3.59375l73.8457 -0.0078125c69.8701 -0.00878906 74.1514 -0.0722656 79.5488 -1.18555c3.1377 -0.647461 8.13477 -2.16895 11.1055 -3.37891
c2.96973 -1.21191 7.71582 -3.75 10.5459 -5.64062c2.8291 -1.8916 6.70312 -4.9375 8.60742 -6.76953c1.9043 -1.83105 4.65625 -4.84277 6.11426 -6.69238c1.45703 -1.84961 3.72754 -5.22461 5.04395 -7.5c1.31738 -2.27539 3.17285 -6.10547 4.12402 -8.50977
c0.951172 -2.40527 2.23242 -6.90527 2.84766 -10c0.688477 -3.4707 1.26758 -10.1807 1.51074 -17.5029c0.216797 -6.53125 0.666992 -15.9531 1.00098 -20.9375c0.333008 -4.98438 1.03027 -13.2812 1.54785 -18.4375
c0.518555 -5.15625 1.77148 -15.1523 2.78516 -22.2129c1.0127 -7.06055 2.55664 -16.7637 3.43066 -21.5625s2.58984 -13.5059 3.8125 -19.3496s3.59863 -16.25 5.27832 -23.125c1.68066 -6.875 4.48633 -17.7031 6.23438 -24.0625
c1.74707 -6.35938 4.97949 -17.4688 7.18262 -24.6875c2.20215 -7.21875 6.30273 -20.0156 9.11133 -28.4375c2.80957 -8.42188 8.13184 -23.6094 11.8281 -33.75c3.69531 -10.1406 7.65918 -20.8984 8.80957 -23.9062l2.08984 -5.46875h43.2539
c27.6143 0 45.0117 -0.244141 48.1162 -0.675781c2.6748 -0.37207 7.125 -1.39062 9.88965 -2.2627c2.76367 -0.871094 7.13477 -2.64551 9.71289 -3.94238s6.46777 -3.66992 8.64258 -5.27246c2.17578 -1.60449 5.72461 -4.72949 7.88672 -6.94531
c2.16211 -2.2168 5.25293 -6 6.86914 -8.4082c1.61523 -2.40723 3.88672 -6.43359 5.04883 -8.94629c1.16016 -2.5127 2.67383 -6.59961 3.36133 -9.08398c0.688477 -2.48242 1.56934 -7.25293 1.95898 -10.5996c0.520508 -4.48242 0.525391 -7.72754 0.0166016 -12.3184
c-0.379883 -3.42773 -1.27539 -8.3418 -1.99023 -10.9199s-2.23535 -6.72461 -3.37891 -9.21387s-3.40137 -6.49707 -5.0166 -8.9043c-1.61621 -2.4082 -4.70703 -6.19141 -6.86914 -8.4082c-2.16211 -2.21582 -5.71094 -5.34082 -7.88672 -6.94531
c-2.1748 -1.60254 -6.06445 -3.97559 -8.64258 -5.27246s-6.94922 -3.07129 -9.71289 -3.94238c-2.76465 -0.87207 -7.21484 -1.89062 -9.88965 -2.2627c-3.44727 -0.478516 -121.394 -0.675781 -405.048 -0.675781c-355.486 0 -400.795 0.106445 -405.641 0.951172
c-3 0.523438 -7.18555 1.5332 -9.30078 2.24414s-5.78906 2.26562 -8.16406 3.45703c-2.375 1.18945 -5.89062 3.20117 -7.8125 4.46973s-5.63867 4.41797 -8.25977 6.99902c-2.62109 2.58008 -6.36035 7.14551 -8.30957 10.1436
c-1.9502 2.99902 -4.39258 7.49902 -5.43066 10c-1.03711 2.50195 -2.48926 6.93848 -3.22754 9.86035c-1.06738 4.22266 -1.3418 7.1709 -1.3418 14.375s0.274414 10.1523 1.3418 14.375c0.738281 2.92188 2.19043 7.3584 3.22754 9.86035
c1.03809 2.50098 3.48047 7.00098 5.43066 10c1.94922 2.99805 5.68848 7.56348 8.30957 10.1436c2.62109 2.58105 6.33789 5.73047 8.25977 6.99902s5.4375 3.28027 7.8125 4.46973c2.375 1.19141 6.07324 2.75488 8.21875 3.47559
c2.14453 0.720703 6.08203 1.67871 8.75 2.12695l4.84961 0.817383l2.36719 8.70996c1.30273 4.79102 5.70801 21.9287 9.79004 38.085s9.39844 37.9531 11.8145 48.4375s6.22168 27.6406 8.45801 38.125s5.61426 27.0781 7.50781 36.875s4.86035 25.9688 6.59277 35.9375
s4.39746 26.4219 5.92285 36.5625s3.76953 26.3125 4.98926 35.9375s2.91406 24.1094 3.76562 32.1875s2.12305 21.5781 2.82422 30s1.69238 22.2031 2.2002 30.625c0.508789 8.42188 1.21094 25.0156 1.55859 36.875c0.348633 11.8594 0.756836 25.5 0.908203 30.3125
c0.183594 5.88086 0.685547 10.3896 1.53027 13.75c0.69043 2.75 2.10449 7.0459 3.1416 9.54785c1.03613 2.50098 3.47852 7.00098 5.42871 10c1.94922 2.99805 5.68848 7.56348 8.30957 10.1436c2.62109 2.58105 6.33789 5.73047 8.25977 6.99902
s5.4375 3.28027 7.8125 4.46973c2.375 1.19141 6.07324 2.75488 8.21875 3.47559c2.14453 0.720703 6.08203 1.70703 8.75 2.19238c4.08789 0.744141 25.7051 0.865234 137.662 0.777344h0.000976562zM375.081 362.5h-64.2959l-0.417969 -7.03125
c-0.230469 -3.86719 -0.836914 -12.9375 -1.34766 -20.1562c-0.509766 -7.21875 -1.63184 -20.8594 -2.49316 -30.3125c-0.862305 -9.45312 -2.41406 -24.6406 -3.44922 -33.75s-2.85547 -23.7832 -4.04492 -32.6074c-1.19043 -8.8252 -3.14941 -22.4658 -4.35449 -30.3125
c-1.20508 -7.84766 -3.5791 -22.4238 -5.27734 -32.3926c-1.69727 -9.96875 -4.52344 -25.7188 -6.28027 -35c-1.75781 -9.28125 -4.74121 -24.3281 -6.63086 -33.4375s-5.25781 -24.7188 -7.48535 -34.6875s-5.75098 -25.2969 -7.83105 -34.0625
s-5.72559 -23.6064 -8.10156 -32.9805c-2.37695 -9.37305 -4.32129 -17.3174 -4.32129 -17.6562c0 -0.399414 44.0059 -0.613281 126.25 -0.613281c90.582 0 126.25 0.191406 126.25 0.679688c0 0.375 -1.39746 6.06934 -3.10645 12.6562
c-1.70801 6.58691 -5.10156 20.2734 -7.54199 30.4141c-2.43945 10.1406 -6.80371 29.043 -9.69727 42.0059c-2.89453 12.9619 -7.22363 33.3525 -9.62012 45.3125c-2.39648 11.959 -5.48438 27.9316 -6.86328 35.4941c-1.37695 7.5625 -3.62891 20.5 -5.00293 28.75
c-1.375 8.25 -3.3418 20.4844 -4.37109 27.1875s-2.85156 19.5 -4.04883 28.4375s-2.89453 22.4375 -3.77148 30c-0.875977 7.5625 -2.28418 20.9219 -3.12891 29.6875c-0.84375 8.76562 -1.9707 21.7031 -2.50488 28.75
c-0.533203 7.04688 -1.24609 17.0312 -1.58496 22.1875c-0.336914 5.15625 -0.618164 10.2891 -0.623047 11.4062l-0.00976562 2.03125h-64.2939zM616.889 195.625h-32.9316l2.0957 -11.7188c1.15332 -6.44531 3.51074 -19.0312 5.24023 -27.9688
s4.97559 -24.8281 7.21484 -35.3125c2.23828 -10.4844 6.04004 -27.6406 8.44922 -38.125s7.42969 -31.1562 11.1562 -45.9375s8.1123 -31.8672 9.74707 -37.9688l2.97266 -11.0938h34.8955c19.1934 0 34.8965 0.106445 34.8965 0.237305
c0 0.129883 -2.12793 6.38672 -4.72949 13.9062c-2.60156 7.51758 -6.96777 20.793 -9.70312 29.5c-2.73535 8.70605 -6.76465 22.0654 -8.9541 29.6875c-2.18848 7.62109 -5.67969 20.6064 -7.75977 28.8564s-4.75879 19.3594 -5.9541 24.6875
s-3.16895 14.75 -4.38574 20.9375c-1.21582 6.1875 -2.78418 14.4844 -3.4834 18.4375s-2.1123 12.9873 -3.13965 20.0752c-1.02734 7.08887 -2.05273 14.8936 -2.28125 17.3438l-0.414062 4.45605h-32.9316v0z" />
  </g>

</svg>
