<?xml version="1.0" standalone="no"?>
<!DOCTYPE svg PUBLIC "-//W3C//DTD SVG 1.1//EN" "http://www.w3.org/Graphics/SVG/1.1/DTD/svg11.dtd" >
<svg xmlns="http://www.w3.org/2000/svg" xmlns:xlink="http://www.w3.org/1999/xlink" version="1.1" viewBox="-10 0 1010 1000">
  <g transform="matrix(1 0 0 -1 0 800)">
   <path fill="currentColor"
d="M125 -75v62.5h750v-62.5v-62.5h-750v62.5zM563.66 445.833h-438.66h-101.127l45.2256 90.4512l83.333 166.667l17.2744 34.5488h38.627h583.336h38.627l17.2744 -34.5498l66.0576 -132.117h23.8721v-62.5v-41.666c0 -49.7275 -19.7539 -97.4209 -54.9199 -132.584
c-35.1641 -35.1621 -82.8525 -54.916 -132.58 -54.916c-49.7266 0 -97.417 19.7549 -132.58 54.915c-30.2061 30.2041 -49.043 69.6875 -53.7598 111.751zM691.074 445.833c3.30273 -9.26562 8.00879 -16.6377 14.7305 -23.3594
c11.7256 -11.7236 27.6211 -18.3066 44.1953 -18.3066s32.4707 6.58301 44.1943 18.3066c6.66309 6.66309 11.707 14.874 14.7314 23.3594h-117.852zM773.874 570.833l-20.833 41.667h-506.081l-20.833 -41.667h401.373h146.374zM191.074 445.833
c3.20215 -8.98242 8.05371 -16.6826 14.7334 -23.3613c11.7197 -11.7207 27.6143 -18.3047 44.1924 -18.3047c16.5791 0 32.4707 6.58203 44.1943 18.3066c6.66309 6.66309 11.707 14.874 14.7314 23.3594h-117.853h0.000976562zM62.5 508.333v62.5h62.5h250h62.5v-62.5
v-41.666c0 -49.7275 -19.7539 -97.4209 -54.9199 -132.584c-35.1582 -35.1602 -82.8535 -54.916 -132.58 -54.916c-49.7275 0 -97.4199 19.7529 -132.583 54.918c-35.1611 35.1592 -54.917 82.8555 -54.917 132.582v41.666v0zM461.196 417.671
c11.0752 -8.75488 24.6465 -13.5039 38.8037 -13.5039c16.5791 0 32.4707 6.58203 44.1943 18.3066c3.16602 3.16504 6.18848 6.99512 8.40234 10.4307zM312.5 466.667v52.9453l52.2256 8.7041l250 41.666l72.7744 12.1289v-73.7783v-41.666
c0 -49.7275 -19.7539 -97.4209 -54.9199 -132.584c-35.1582 -35.1602 -82.8535 -54.916 -132.58 -54.916c-49.7275 0 -97.4199 19.7529 -132.583 54.918c-35.1611 35.1592 -54.917 82.8555 -54.917 132.582zM191.074 445.833
c3.20215 -8.98242 8.05371 -16.6826 14.7334 -23.3613c11.7197 -11.7207 27.6143 -18.3047 44.1924 -18.3047c16.5791 0 32.4707 6.58203 44.1943 18.3066c6.66309 6.66309 11.707 14.874 14.7314 23.3594h-117.853h0.000976562zM62.5 508.333v62.5h62.5h250h62.5v-62.5
v-41.666c0 -49.7275 -19.7539 -97.4209 -54.9199 -132.584c-35.1582 -35.1602 -82.8535 -54.916 -132.58 -54.916c-49.7275 0 -97.4199 19.7529 -132.583 54.918c-35.1611 35.1592 -54.917 82.8555 -54.917 132.582v41.666v0zM461.196 417.671l91.4004 15.2334
c-2.21387 -3.43555 -5.23633 -7.26562 -8.40234 -10.4307c-11.7236 -11.7246 -27.6152 -18.3066 -44.1943 -18.3066c-14.1572 0 -27.7285 4.74902 -38.8037 13.5039zM312.5 466.667c0 -49.7266 19.7559 -97.4229 54.917 -132.582
c35.1631 -35.165 82.8555 -54.918 132.583 -54.918c49.7266 0 97.4219 19.7559 132.58 54.916c35.166 35.1631 54.9199 82.8564 54.9199 132.584v41.666v73.7783l-72.7744 -12.1289l-250 -41.666l-52.2256 -8.7041v-52.9453zM461.196 417.671
c11.0752 -8.75488 24.6465 -13.5039 38.8037 -13.5039c16.5791 0 32.4707 6.58203 44.1943 18.3066c3.16602 3.16504 6.18848 6.99512 8.40234 10.4307zM312.5 466.667v52.9453l52.2256 8.7041l250 41.666l72.7744 12.1289v-73.7783v-41.666
c0 -49.7275 -19.7539 -97.4209 -54.9199 -132.584c-35.1582 -35.1602 -82.8535 -54.916 -132.58 -54.916c-49.7275 0 -97.4199 19.7529 -132.583 54.918c-35.1611 35.1592 -54.917 82.8555 -54.917 132.582zM208.333 -75h62.5v422.916h-62.5h-62.5v-422.916h62.5z
M791.669 -75h62.5v422.916h-62.5h-62.5v-422.916h62.5zM375 -75h62.5v166.669c0 5.51562 2.20215 10.8301 6.09766 14.7266c3.90918 3.90918 9.21289 6.10449 14.7354 6.10449h83.334c5.51953 0 10.8359 -2.20508 14.7256 -6.09473
c3.91504 -3.91504 6.10742 -9.2168 6.10742 -14.7363v-166.669h62.5h62.5v166.669c0 38.6797 -15.3682 75.7666 -42.707 103.113c-27.3662 27.3604 -64.4424 42.7178 -103.126 42.7178h-83.334c-38.6797 0 -75.7686 -15.3662 -103.115 -42.708
c-27.3584 -27.3652 -42.7178 -64.4404 -42.7178 -103.123v-166.669h62.5v0z" />
  </g>

</svg>
