<?xml version="1.0" standalone="no"?>
<!DOCTYPE svg PUBLIC "-//W3C//DTD SVG 1.1//EN" "http://www.w3.org/Graphics/SVG/1.1/DTD/svg11.dtd" >
<svg xmlns="http://www.w3.org/2000/svg" xmlns:xlink="http://www.w3.org/1999/xlink" version="1.1" viewBox="-10 0 1010 1000">
  <g transform="matrix(1 0 0 -1 0 800)">
   <path fill="currentColor"
d="M502.5 570.39l264.062 -0.0771484l7.8125 -1.46777c4.29688 -0.807617 11.1875 -2.4375 15.3125 -3.62207c4.125 -1.18359 10.7354 -3.43359 14.6875 -5c3.95312 -1.56641 10.0518 -4.37109 13.5518 -6.23438c3.5 -1.86133 9.26562 -5.29785 12.8125 -7.63672
s8.98047 -6.37109 12.0732 -8.96191c3.09375 -2.58984 8.58984 -7.77344 12.2148 -11.5186c3.62305 -3.74512 8.28418 -9.05859 10.3564 -11.8086c2.07324 -2.75 4.90527 -6.6875 6.29199 -8.75s3.97461 -6.33105 5.74902 -9.48535
c1.77539 -3.1543 4.59863 -8.93066 6.27539 -12.8369c1.67578 -3.90625 4.04883 -10.2676 5.27441 -14.1367s2.93066 -10.4668 3.78809 -14.6631c0.858398 -4.19531 1.86914 -10.7217 2.24512 -14.5029c0.484375 -4.87207 0.620117 -64.7656 0.464844 -205.625
l-0.219727 -198.75l-1.3291 -5.62695c-0.731445 -3.09473 -2.21973 -8.43848 -3.30957 -11.875c-1.08887 -3.43652 -3.47461 -9.3418 -5.30078 -13.123c-1.82715 -3.78125 -4.92676 -9.26562 -6.8877 -12.1875c-1.96289 -2.92188 -5.52441 -7.64062 -7.91699 -10.4854
c-2.39258 -2.8457 -6.77734 -7.2959 -9.74219 -9.88867c-2.96777 -2.59375 -7.92578 -6.41016 -11.0225 -8.48047c-3.0957 -2.07031 -8.42578 -5.16797 -11.8438 -6.88281c-3.41699 -1.71484 -9.49805 -4.2168 -13.5117 -5.55859s-10.5107 -3.0459 -14.4365 -3.78613
c-6.81543 -1.28613 -9.26758 -1.35938 -54.0137 -1.61719c-30.8916 -0.178711 -49.6455 -0.0371094 -55 0.414062c-4.46875 0.375977 -10.7773 1.24219 -14.0195 1.9248c-3.24121 0.683594 -8.86621 2.25781 -12.5 3.5c-3.63379 1.24121 -9.29004 3.60352 -12.5703 5.24902
c-3.2793 1.64551 -8.49707 4.68652 -11.5928 6.75684s-8.0957 5.92285 -11.1123 8.56055c-3.01758 2.63672 -7.7373 7.50879 -10.4893 10.8262c-2.75195 3.31641 -6.57812 8.56152 -8.5 11.6553c-1.92285 3.09375 -4.67285 8.15625 -6.1123 11.25
s-3.49707 8.29688 -4.57031 11.5625c-1.07422 3.26562 -2.56055 8.60938 -3.30176 11.875c-1.30566 5.74219 -1.36426 7.73242 -1.80859 60.625c-0.376953 44.8408 -0.629883 55.5879 -1.4082 59.6875c-0.521484 2.75 -1.56348 7.39062 -2.31445 10.3125
c-0.751953 2.92188 -2.29492 7.71582 -3.42871 10.6533c-1.13379 2.93652 -2.94727 7.09473 -4.0293 9.23926c-1.08301 2.14453 -3.12402 5.78906 -4.53613 8.09766s-3.85938 5.88477 -5.44141 7.94727c-1.58008 2.0625 -4.40918 5.4375 -6.28613 7.5
c-1.87598 2.0625 -5.53613 5.66895 -8.13184 8.01562c-2.59766 2.34668 -7.24121 5.95898 -10.3203 8.02832s-8.28223 5.09961 -11.5625 6.7334c-3.28027 1.63477 -7.93262 3.70898 -10.3398 4.61035c-2.40625 0.901367 -7.04688 2.35254 -10.3125 3.22363
c-3.26465 0.87207 -9.11621 2.00488 -13.001 2.51758c-3.88477 0.513672 -9.84668 0.933594 -13.249 0.933594c-3.40137 0 -9.36426 -0.419922 -13.248 -0.933594c-3.88477 -0.512695 -9.73535 -1.64551 -13.002 -2.51758
c-3.26465 -0.871094 -7.90625 -2.32227 -10.3125 -3.22363c-2.40625 -0.900391 -6.90625 -2.88965 -10 -4.41895s-8.29688 -4.57422 -11.5625 -6.76465c-3.26465 -2.19238 -8.20605 -6.03125 -10.9775 -8.53223c-2.77246 -2.50098 -6.42969 -6.09375 -8.12793 -7.98438
c-1.69922 -1.89062 -4.38379 -5.125 -5.96777 -7.1875c-1.58301 -2.0625 -4.03223 -5.63867 -5.44434 -7.94727s-3.45312 -5.95312 -4.53613 -8.09766c-1.08203 -2.14453 -2.89844 -6.30859 -4.03613 -9.25293c-1.13672 -2.94531 -2.6582 -7.59863 -3.37988 -10.3408
s-1.77539 -7.51758 -2.34082 -10.6113c-0.881836 -4.81934 -1.08496 -13.3711 -1.41895 -59.6875c-0.381836 -52.7998 -0.422852 -54.209 -1.77734 -60.3125c-0.761719 -3.4375 -2.25684 -8.92188 -3.32227 -12.1875c-1.06445 -3.26562 -3.4248 -9.03125 -5.24414 -12.8125
c-1.82031 -3.78125 -4.91406 -9.26562 -6.87598 -12.1875c-1.96289 -2.92188 -5.52441 -7.64062 -7.91699 -10.4854c-2.39258 -2.8457 -6.77637 -7.2959 -9.74219 -9.88867c-2.9668 -2.59375 -7.92578 -6.41016 -11.0225 -8.48047
c-3.0957 -2.07031 -8.42578 -5.16797 -11.8438 -6.88281c-3.41699 -1.71484 -9.49805 -4.2168 -13.5117 -5.55859s-10.5098 -3.0459 -14.4365 -3.78613c-6.81543 -1.28613 -9.26758 -1.35938 -54.0137 -1.61719c-30.8916 -0.178711 -49.6455 -0.0371094 -55 0.414062
c-4.46875 0.375977 -10.7773 1.24219 -14.0195 1.9248c-3.24121 0.683594 -8.86621 2.25781 -12.5 3.5c-3.63379 1.24121 -9.29004 3.60352 -12.5693 5.24902c-3.28027 1.64551 -8.49707 4.68652 -11.5938 6.75684c-3.0957 2.07031 -8.0957 5.92285 -11.1123 8.56055
c-3.01758 2.63672 -7.7373 7.50879 -10.4893 10.8262c-2.75195 3.31641 -6.57812 8.56152 -8.5 11.6553c-1.92285 3.09375 -4.67285 8.15625 -6.1123 11.25s-3.49707 8.29688 -4.57031 11.5625c-1.07422 3.26562 -2.57715 8.60938 -3.33984 11.875l-1.38672 5.9375
l-0.216797 198.75c-0.155273 140.863 -0.0195312 200.754 0.46582 205.625c0.375977 3.78125 1.37891 10.3291 2.22852 14.5508c0.848633 4.22168 2.76758 11.3945 4.26367 15.9375c1.49609 4.54395 4.10742 11.3672 5.80273 15.1631
c1.69434 3.7959 4.85352 9.87598 7.01855 13.5107c2.16602 3.63574 6.19727 9.6709 8.95996 13.4121c2.76855 3.75 8.97949 10.7598 13.8457 15.626s11.876 11.0771 15.626 13.8457c3.74121 2.7627 9.7207 6.76074 13.2871 8.88574
c3.56738 2.125 9.64746 5.28125 13.5117 7.01465c3.86328 1.7334 10.7432 4.37793 15.2861 5.87598c4.54492 1.49902 11.7158 3.42188 15.9375 4.27441c4.22168 0.851562 9.92578 1.80371 12.6768 2.11621c2.92969 0.333008 114.319 0.535156 269.062 0.489258h0.000976562z
M500.938 445.44c-230.66 0.116211 -255.27 0.0341797 -257.812 -0.856445c-1.54688 -0.541016 -3.98047 -1.82227 -5.40723 -2.8457s-3.43164 -3.0293 -4.45508 -4.45605s-2.31738 -3.94043 -2.87402 -5.58496c-0.925781 -2.73145 -1.01367 -18.5684 -1.01367 -182.031
v-179.041h20.625h20.625l0.00292969 32.6562c0 17.9609 0.282227 37.1562 0.625 42.6562c0.34375 5.5 1.05371 13.2344 1.5791 17.1875c0.524414 3.95312 1.53125 10.1406 2.23633 13.75s1.98242 9.375 2.83887 12.8125s2.81934 10.1221 4.3623 14.8545
c1.54395 4.73145 4.18359 11.9541 5.86719 16.0488c1.68359 4.0957 4.87109 11.0518 7.08594 15.459c2.21387 4.40723 6.3125 11.7861 9.10938 16.3975c2.79688 4.6123 7.25098 11.3623 9.89844 15c2.64746 3.63867 7.5293 9.84961 10.8467 13.8027
c3.31836 3.95312 9.93262 10.9961 14.6973 15.6523c4.76465 4.65527 11.6484 10.9043 15.2979 13.8867c3.64844 2.98145 9.68945 7.56055 13.4238 10.1748s9.74805 6.53613 13.3652 8.71387c3.61719 2.17871 10.7949 6.06543 15.9512 8.63574
c5.15625 2.57129 13.3125 6.22559 18.125 8.12109c4.8125 1.89648 11.9844 4.4502 15.9375 5.67578c3.95312 1.22656 10.8271 3.09668 15.2754 4.1582c4.44922 1.06152 12.3311 2.59375 17.5176 3.40625s14.0625 1.82129 19.7246 2.24121
c6.34473 0.47168 14.8516 0.616211 22.1699 0.375977c6.53125 -0.214844 14.5469 -0.691406 17.8125 -1.06055s9.3125 -1.23438 13.4375 -1.92383s11.0156 -2.08789 15.3125 -3.10742s11.4688 -3.00293 15.9375 -4.40723s10.8428 -3.63574 14.166 -4.95996
c3.32227 -1.32324 9.09961 -3.78613 12.8389 -5.47266c3.73926 -1.6875 10.4424 -5.09863 14.8965 -7.58008s11.7021 -6.90234 16.1064 -9.82324c4.40332 -2.9209 11.5752 -8.14844 15.9375 -11.6172c4.36133 -3.46875 11.9688 -10.2666 16.9043 -15.1045
c4.9375 -4.83887 11.6914 -12.0322 15.0098 -15.9854s8.2002 -10.1641 10.8477 -13.8027c2.64746 -3.6377 7.10156 -10.3877 9.89844 -15c2.7959 -4.61133 6.72363 -11.6455 8.72656 -15.6309c2.00293 -3.98438 4.95215 -10.3125 6.55469 -14.0625
c1.60156 -3.74902 4.16797 -10.4727 5.7041 -14.9414c1.53516 -4.46875 3.74121 -11.7812 4.9043 -16.25c1.16211 -4.46875 2.68457 -11.0781 3.38379 -14.6875c0.700195 -3.60938 1.70215 -9.79688 2.22656 -13.75c0.525391 -3.95312 1.23535 -11.6875 1.5791 -17.1875
c0.342773 -5.5 0.625 -24.6953 0.625 -42.6562l0.00292969 -32.6562h20.6289h20.6299l-0.161133 180.155l-0.160156 180.156l-1.74023 3.30273c-0.957031 1.81641 -2.85938 4.38867 -4.22754 5.7168c-1.36816 1.32715 -3.81934 3.0752 -5.44727 3.88379l-2.95996 1.47168
l-255 0.12793v0.000976562z" />
  </g>

</svg>
