<?xml version="1.0" standalone="no"?>
<!DOCTYPE svg PUBLIC "-//W3C//DTD SVG 1.1//EN" "http://www.w3.org/Graphics/SVG/1.1/DTD/svg11.dtd" >
<svg xmlns="http://www.w3.org/2000/svg" xmlns:xlink="http://www.w3.org/1999/xlink" version="1.1" viewBox="-10 0 1010 1000">
  <g transform="matrix(1 0 0 -1 0 800)">
   <path fill="currentColor"
d="M624.187 737.436c187.866 0.0566406 216.03 -0.0546875 222.274 -0.873047c3.93359 -0.515625 9.875 -1.64453 13.2031 -2.50977c3.3291 -0.864258 8.23047 -2.41309 10.8926 -3.43945c2.66309 -1.02637 7.2998 -3.12109 10.3057 -4.6543
c3.00488 -1.53418 7.48535 -4.13184 9.95703 -5.77441s6.93652 -5.01953 9.92285 -7.50391c2.98633 -2.48535 7.59863 -6.9873 10.25 -10.0059c2.65234 -3.01758 6.7666 -8.4248 9.14355 -12.0156s5.5332 -9.0752 7.01465 -12.1875
c1.48242 -3.1123 3.58496 -8.25879 4.67383 -11.4365s2.51172 -8.24023 3.16113 -11.25c0.650391 -3.00977 1.49316 -8.28516 1.87402 -11.7227c0.5 -4.51855 0.640625 -106.365 0.505859 -367.5l-0.185547 -361.25l-1.36426 -5
c-0.75 -2.75 -2.21191 -7.0459 -3.24902 -9.54785c-1.03613 -2.50098 -3.39551 -6.86035 -5.24219 -9.6875c-1.84766 -2.82617 -4.84277 -6.75781 -6.65625 -8.73535c-1.81348 -1.97852 -5.45605 -5.22266 -8.09375 -7.21094
c-2.63965 -1.9873 -7.2627 -4.81934 -10.2744 -6.29004c-3.0127 -1.47168 -8.20801 -3.43066 -11.5449 -4.35254l-6.06738 -1.67578l-382.188 -0.161133c-339.481 -0.143555 -382.804 -0.0546875 -387.696 0.788086c-3.03027 0.522461 -7.24902 1.53418 -9.375 2.24902
s-5.80957 2.27246 -8.18457 3.46387c-2.375 1.18945 -5.89062 3.20117 -7.8125 4.46973s-5.63867 4.41797 -8.25977 6.99902c-2.62109 2.58008 -6.36035 7.14551 -8.30957 10.1436c-1.9502 2.99902 -4.39258 7.49902 -5.42871 10
c-1.03711 2.50195 -2.49707 6.79785 -3.24414 9.54785l-1.3584 5l-0.194336 152.5c-0.141602 111.243 -0.00195312 153.85 0.514648 157.485c0.389648 2.74121 1.41992 7.24121 2.28906 10c0.870117 2.75781 2.4248 6.70215 3.45605 8.76465s3.14844 5.71875 4.70508 8.125
c2.19629 3.39355 27.165 28.709 111.333 112.877c86.6279 86.626 109.448 109.121 113.189 111.575c2.57812 1.69043 6.86719 4.05176 9.53027 5.24805l4.84375 2.1748v77.624c0.000976562 65.3955 0.148438 78.751 0.938477 84.7744
c0.515625 3.93359 1.62207 9.7832 2.45898 13.002c0.836914 3.2168 2.40137 8.15234 3.47754 10.9678s3.16992 7.49805 4.6543 10.4072c1.48438 2.9082 4.17578 7.49512 5.98047 10.1943c1.80469 2.69824 5.25 7.2334 7.65625 10.0801
c2.40723 2.84473 6.37793 6.94238 8.82422 9.10547c2.44629 2.16211 6.13574 5.20117 8.19824 6.75293s6 4.18164 8.75 5.84375s6.80859 3.84473 9.01855 4.84863c2.20996 1.00488 6.14746 2.60938 8.75 3.56738s7.19922 2.3584 10.2158 3.1123
s8.21973 1.74414 11.5625 2.2002c4.94238 0.672852 46.2754 0.839844 221.202 0.892578h0.000976562zM625 612.5h-187.5v-101.708v-101.708l77.3652 -77.5107c71.2783 -71.4121 77.5908 -77.9043 80.2324 -82.5107c1.57715 -2.75 3.59961 -6.86035 4.49512 -9.13281
c0.895508 -2.27441 2.06055 -5.79004 2.58887 -7.8125c0.529297 -2.02441 1.23633 -6.07031 1.57227 -8.99219c0.375977 -3.27344 0.613281 -49.5254 0.616211 -120.469l0.00488281 -115.156h104.062h104.062v312.5v312.5h-187.5h0.000976562zM543.438 570.376
c7.79883 -0.200195 10.3193 -0.517578 15 -1.88184c3.09375 -0.90332 7.94727 -2.77637 10.7852 -4.16309c2.83887 -1.38672 7.37988 -4.19336 10.0918 -6.23633c2.71191 -2.04395 6.38477 -5.30664 8.16309 -7.25195c1.77734 -1.94531 4.37305 -5.2168 5.76758 -7.27148
c1.39551 -2.05469 3.60645 -6.01855 4.91309 -8.80957c1.30762 -2.79102 2.94434 -7.125 3.63867 -9.63184c0.694336 -2.50586 1.58789 -7.3584 1.98535 -10.7812c0.547852 -4.71387 0.547852 -7.7334 0 -12.4473c-0.397461 -3.42285 -1.29102 -8.27539 -1.98535 -10.7812
c-0.694336 -2.50684 -2.33105 -6.84082 -3.63867 -9.63184c-1.30664 -2.79102 -3.51758 -6.75488 -4.91309 -8.80957c-1.39453 -2.05469 -3.99023 -5.32617 -5.76758 -7.27148c-1.77832 -1.94531 -5.45117 -5.20801 -8.16309 -7.25195
c-2.71191 -2.04297 -7.25293 -4.84961 -10.0918 -6.23633s-7.69238 -3.25293 -10.7852 -4.14844c-4.17871 -1.20898 -7.66895 -1.71582 -13.5742 -1.97461c-5.06055 -0.22168 -9.71484 -0.0644531 -12.8125 0.43457c-2.6748 0.431641 -6.69141 1.34082 -8.92578 2.02148
c-2.23438 0.681641 -6.28125 2.34082 -8.99414 3.68848c-2.71191 1.34668 -6.70996 3.71875 -8.88379 5.27051c-2.1748 1.55176 -5.80859 4.69434 -8.0752 6.98438c-2.26758 2.28906 -5.6748 6.49609 -7.57227 9.34766s-4.44043 7.61523 -5.65234 10.585
c-1.20996 2.9707 -2.73145 7.96777 -3.37891 11.1055c-0.753906 3.65332 -1.17676 8.28809 -1.17676 12.8916s0.422852 9.23828 1.17676 12.8916c0.647461 3.1377 2.16895 8.13477 3.37891 11.1055c1.21191 2.96973 3.75 7.71582 5.64062 10.5459
c1.8916 2.8291 4.9375 6.70312 6.76953 8.60742c1.83105 1.9043 4.84277 4.65625 6.69238 6.11426c1.84961 1.45703 5.22461 3.72754 7.5 5.04395c2.27539 1.31738 6.10645 3.17383 8.5127 4.12598c2.40625 0.953125 6.76562 2.25586 9.6875 2.89551
c4.24707 0.929688 7.19238 1.11426 14.6875 0.920898zM708.125 570.544c4.83398 0.0439453 9.05469 -0.321289 12.8916 -1.1123c3.1377 -0.647461 8.13477 -2.16895 11.1055 -3.37891c2.96973 -1.21191 7.71582 -3.75 10.5459 -5.64062
c2.8291 -1.8916 6.70312 -4.9375 8.60742 -6.76953c1.9043 -1.83105 4.65625 -4.84277 6.11426 -6.69238c1.45703 -1.84961 3.72754 -5.22461 5.04395 -7.5c1.31738 -2.27539 3.17188 -6.10254 4.12207 -8.50488c0.950195 -2.40137 2.25098 -6.90137 2.88965 -10
c0.740234 -3.58301 1.16309 -8.24805 1.16309 -12.8203s-0.422852 -9.2373 -1.16309 -12.8203c-0.638672 -3.09863 -1.93945 -7.59863 -2.88965 -10c-0.950195 -2.40234 -2.80469 -6.22949 -4.12207 -8.50488c-1.31641 -2.27539 -3.58691 -5.65039 -5.04395 -7.5
c-1.45801 -1.84961 -4.20996 -4.86133 -6.11426 -6.69238c-1.9043 -1.83203 -5.77832 -4.87793 -8.60742 -6.76953c-2.83008 -1.89062 -7.57812 -4.43066 -10.5518 -5.64258c-2.97266 -1.21191 -8.11035 -2.76465 -11.417 -3.4502
c-4.94238 -1.02441 -7.56836 -1.19043 -14.7617 -0.932617c-6.98828 0.25 -9.88281 0.646484 -14.375 1.9707c-3.09375 0.912109 -7.92676 2.7666 -10.7402 4.12207c-2.8125 1.35645 -7.35449 4.15332 -10.0918 6.21582c-2.73633 2.0625 -6.43066 5.34082 -8.20898 7.28613
c-1.77734 1.94531 -4.37305 5.2168 -5.76758 7.27148c-1.39551 2.05469 -3.60645 6.01855 -4.91309 8.80957c-1.30762 2.79102 -2.94434 7.125 -3.63867 9.63184c-0.694336 2.50586 -1.58789 7.3584 -1.98535 10.7812c-0.547852 4.71387 -0.547852 7.7334 0 12.4473
c0.397461 3.42285 1.29102 8.27539 1.98535 10.7812c0.694336 2.50684 2.33105 6.84082 3.63867 9.63184c1.30664 2.79102 3.51758 6.75488 4.91309 8.80957c1.39453 2.05469 3.96484 5.29785 5.71094 7.20898c1.74609 1.91016 5.21094 5.02246 7.69922 6.91602
s6.35156 4.43652 8.58594 5.65039c2.23438 1.21484 6.62598 3.06445 9.75781 4.11133c3.13379 1.0459 7.21191 2.1543 9.0625 2.46191c1.85254 0.307617 6.60156 0.587891 10.5547 0.624023zM711.562 403.954c3.4375 -0.178711 8.83984 -0.981445 12.0039 -1.78418
s8.11914 -2.56738 11.0117 -3.92285c2.8916 -1.35547 6.93848 -3.60547 8.99316 -5.00098c2.05469 -1.39453 5.32617 -3.99023 7.27148 -5.76758c1.94531 -1.77832 5.22363 -5.47266 7.28613 -8.20898c2.0625 -2.7373 4.85938 -7.2793 6.21582 -10.0918
c1.35547 -2.81348 3.23047 -7.64648 4.16797 -10.7402c1.56445 -5.16309 1.70801 -6.52344 1.75195 -16.5625c0.0419922 -9.5918 -0.130859 -11.5908 -1.40234 -16.25c-0.797852 -2.92188 -2.53418 -7.62598 -3.85938 -10.4541
c-1.3252 -2.8291 -3.84277 -7.21777 -5.5957 -9.75293c-1.75391 -2.53711 -5.21973 -6.57129 -7.70312 -8.96582c-2.48438 -2.39551 -6.2041 -5.49121 -8.2666 -6.87988c-2.0625 -1.3877 -5.15625 -3.23145 -6.875 -4.0957s-5.09375 -2.27734 -7.5 -3.13867
c-2.40625 -0.863281 -7.02637 -2.02246 -10.2666 -2.57812s-7.79004 -1.00977 -10.1113 -1.00977c-2.32031 0 -6.40723 0.304688 -9.08203 0.675781c-2.6748 0.37207 -7.125 1.39062 -9.88965 2.2627c-2.76367 0.871094 -7.13477 2.64551 -9.71289 3.94238
s-6.38086 3.60547 -8.4502 5.13086s-5.6123 4.6416 -7.87402 6.92578c-2.26074 2.28418 -5.43848 6.13086 -7.06152 8.5498c-1.62207 2.41797 -3.89941 6.45312 -5.06152 8.96582c-1.16016 2.5127 -2.67383 6.59961 -3.36133 9.08398
c-0.688477 2.48242 -1.5752 7.29883 -1.96973 10.7012c-0.52832 4.5332 -0.540039 7.82715 -0.046875 12.3184c0.371094 3.37207 1.10742 7.78613 1.63867 9.81055c0.53125 2.02246 1.69824 5.53809 2.59375 7.8125c0.895508 2.27246 2.92773 6.34082 4.5166 9.04004
s4.90137 7.07422 7.36133 9.72266c2.46094 2.64844 5.97656 5.97266 7.8125 7.38672c1.83691 1.41406 5.07324 3.54883 7.19141 4.74414c2.11914 1.19531 5.68359 2.90527 7.9209 3.80078c2.2373 0.894531 5.82227 2.07617 7.96484 2.625
c2.1416 0.548828 5.75 1.23047 8.0166 1.51465s6.93359 0.369141 10.3711 0.19043zM270.467 273.75c-0.0869141 0 -18.79 -18.6338 -41.5625 -41.4082l-41.4043 -41.4082v-101.717v-101.717h41.5625h41.5625v143.125c0 78.7188 -0.0712891 143.125 -0.158203 143.125v0z
M437.5 232.188l-41.875 41.8711v-143.279v-143.279h41.875h41.875v101.408v101.408zM707.858 237.424c2.77539 0.0419922 7.69727 -0.37793 10.9375 -0.933594s7.86035 -1.71484 10.2666 -2.57812c2.40625 -0.861328 5.78125 -2.27441 7.5 -3.13867
s4.8125 -2.70801 6.875 -4.0957c2.0625 -1.38867 5.78223 -4.48438 8.2666 -6.87988c2.4834 -2.39453 5.94922 -6.42871 7.70312 -8.96582c1.75293 -2.53516 4.27051 -6.92383 5.5957 -9.75293c1.3252 -2.82812 3.06152 -7.53223 3.85938 -10.4541
c1.27148 -4.65918 1.44434 -6.6582 1.40234 -16.25c-0.0439453 -10.0391 -0.1875 -11.3994 -1.75195 -16.5625c-0.9375 -3.09375 -2.8125 -7.92676 -4.16797 -10.7402c-1.35645 -2.8125 -4.15332 -7.35449 -6.21582 -10.0918
c-2.0625 -2.73633 -5.34082 -6.43066 -7.28613 -8.20898c-1.94531 -1.77734 -5.2168 -4.37305 -7.27148 -5.76758c-2.05469 -1.39551 -6.01855 -3.60645 -8.80957 -4.91309c-2.79102 -1.30762 -7.18359 -2.96484 -9.76172 -3.68359
c-2.57812 -0.717773 -7.38184 -1.60254 -10.6758 -1.96582c-4.20215 -0.461914 -7.74316 -0.460938 -11.875 0.00195312c-3.2373 0.363281 -7.54199 1.09375 -9.56641 1.62305c-2.02246 0.529297 -5.53809 1.69531 -7.8125 2.59082
c-2.27246 0.895508 -6.37988 2.92773 -9.12793 4.5166c-3.49805 2.02344 -6.96387 4.85742 -11.5625 9.45605s-7.43262 8.06445 -9.45605 11.5625c-1.58887 2.74805 -3.62109 6.85547 -4.5166 9.12793c-0.895508 2.27441 -2.0625 5.79004 -2.59375 7.8125
c-0.53125 2.02441 -1.26758 6.43848 -1.63867 9.81055c-0.493164 4.49121 -0.481445 7.78516 0.046875 12.3184c0.394531 3.40234 1.28125 8.21875 1.96973 10.7012c0.6875 2.48438 2.20117 6.57129 3.36133 9.08398c1.16211 2.5127 3.43945 6.54785 5.06152 8.96582
c1.62305 2.41895 4.80078 6.26562 7.06152 8.5498c2.26172 2.28418 5.80469 5.40039 7.87402 6.92578s5.87793 3.83887 8.46387 5.14062s7.08594 3.10547 10 4.00781s6.98633 1.88184 9.04883 2.17578s6.02051 0.569336 8.7959 0.611328z" />
  </g>

</svg>
