<?xml version="1.0" standalone="no"?>
<!DOCTYPE svg PUBLIC "-//W3C//DTD SVG 1.1//EN" "http://www.w3.org/Graphics/SVG/1.1/DTD/svg11.dtd" >
<svg xmlns="http://www.w3.org/2000/svg" xmlns:xlink="http://www.w3.org/1999/xlink" version="1.1" viewBox="-10 0 1010 1000">
  <g transform="matrix(1 0 0 -1 0 800)">
   <path fill="currentColor"
d="M125 -75v62.5h750v-62.5v-62.5h-750v62.5zM375 466.666v62.5h41.667v-62.5v-62.5h-41.667v62.5zM375 300v62.5h41.667v-62.5v-62.5h-41.667v62.5zM375 133.331v62.5h41.667v-62.5v-62.5h-41.667v62.5zM583.334 466.666v62.5h41.666v-62.5v-62.5h-41.666v62.5z
M583.334 300v62.5h41.666v-62.5v-62.5h-41.666v62.5zM583.334 133.331v62.5h41.666v-62.5v-62.5h-41.666v62.5zM208.334 -75h62.5v666.667c0 5.52539 2.19629 10.8271 6.09961 14.7295c3.9082 3.9082 9.20898 6.10352 14.7334 6.10352h416.664
c5.53418 0 10.8174 -2.1875 14.7354 -6.10645c3.90918 -3.9082 6.10254 -9.2041 6.10254 -14.7266v-666.667h62.5h62.5v666.667c0 38.6807 -15.3691 75.7764 -42.7236 103.125c-27.332 27.334 -64.4355 42.708 -103.114 42.708h-416.664
c-38.6787 0 -75.7705 -15.3662 -103.117 -42.7119c-27.3535 -27.3525 -42.7148 -64.4443 -42.7148 -103.121v-666.667h62.5h-0.000976562z" />
  </g>

</svg>
