<?xml version="1.0" standalone="no"?>
<!DOCTYPE svg PUBLIC "-//W3C//DTD SVG 1.1//EN" "http://www.w3.org/Graphics/SVG/1.1/DTD/svg11.dtd" >
<svg xmlns="http://www.w3.org/2000/svg" xmlns:xlink="http://www.w3.org/1999/xlink" version="1.1" viewBox="-10 0 1010 1000">
  <g transform="matrix(1 0 0 -1 0 800)">
   <path fill="currentColor"
d="M501.875 737.224c5.66602 -0.179688 9.47949 -0.679688 13.8799 -1.81836c3.33691 -0.863281 8.53223 -2.77441 11.5449 -4.24609c3.01172 -1.4707 7.63477 -4.30273 10.2744 -6.29004c2.6377 -1.98828 6.28027 -5.23242 8.09375 -7.21094
c1.81348 -1.97754 4.80859 -5.90918 6.65625 -8.73535c1.84668 -2.82715 4.20605 -7.18652 5.24219 -9.6875c1.03711 -2.50195 2.46777 -6.79785 3.17871 -9.54785c1.07715 -4.16406 1.34277 -7.52051 1.58691 -20.0742l0.293945 -15.0742l14.7812 -0.328125
c13.1738 -0.291992 15.4395 -0.5 20.8467 -1.91406c3.33594 -0.87207 8.43164 -2.69434 11.3242 -4.0498c2.8916 -1.35547 6.93848 -3.60547 8.99316 -5.00098c2.05469 -1.39453 5.32617 -3.99023 7.27148 -5.76758c1.94531 -1.77832 5.22363 -5.47266 7.28613 -8.20898
c2.0625 -2.7373 4.85938 -7.2793 6.21582 -10.0918c1.35547 -2.81348 3.20605 -7.64648 4.1123 -10.7402c1.23926 -4.22559 1.73633 -7.60254 1.99707 -13.5742c0.22168 -5.06055 0.0644531 -9.71484 -0.43457 -12.8125
c-0.431641 -2.6748 -1.34082 -6.69141 -2.02148 -8.92578c-0.681641 -2.23438 -2.34082 -6.28125 -3.68848 -8.99414c-1.34668 -2.71191 -3.71875 -6.70996 -5.27051 -8.88379c-1.55176 -2.1748 -4.69434 -5.80859 -6.98438 -8.0752
c-2.28906 -2.26758 -6.49609 -5.6748 -9.34766 -7.57227s-7.61523 -4.44043 -10.585 -5.65234c-2.9707 -1.20996 -7.96777 -2.73145 -11.1055 -3.37891c-4.57812 -0.944336 -8.4502 -1.17871 -19.6104 -1.18555l-13.9062 -0.0078125v-18.2764v-18.2754l159.289 -159.381
c102.837 -102.896 160.312 -160.845 162.18 -163.511c1.58984 -2.27246 3.99414 -6.35059 5.34082 -9.0625c1.34766 -2.71289 3.00684 -6.75977 3.68848 -8.99414c0.680664 -2.23438 1.58984 -6.25098 2.02148 -8.92578
c0.499023 -3.09766 0.65625 -7.75195 0.43457 -12.8125c-0.260742 -5.97168 -0.757812 -9.34863 -1.99707 -13.5742c-0.90625 -3.09375 -2.75684 -7.92676 -4.1123 -10.7402c-1.35645 -2.8125 -4.15332 -7.35449 -6.21582 -10.0918
c-2.0625 -2.73633 -5.34082 -6.43066 -7.28613 -8.20898c-1.94531 -1.77734 -5.2168 -4.37305 -7.27148 -5.76758c-2.05469 -1.39551 -6.10156 -3.64551 -8.99316 -5.00098c-2.89258 -1.35547 -7.98828 -3.17773 -11.3242 -4.0498
c-5.41113 -1.41504 -7.66992 -1.62207 -20.9102 -1.91504l-14.8438 -0.329102v-41.4473v-41.4463l36.0938 -0.209961l36.0938 -0.210938l6.06738 -1.6543c3.33691 -0.910156 8.53223 -2.85938 11.5449 -4.33105c3.01172 -1.4707 7.63477 -4.30273 10.2744 -6.29004
c2.6377 -1.98828 6.28027 -5.23242 8.09375 -7.21094c1.81348 -1.97754 4.80859 -5.90918 6.65625 -8.73535c1.84668 -2.82715 4.20605 -7.18652 5.24414 -9.6875c1.03711 -2.50195 2.48926 -6.93848 3.22754 -9.86035c1.06738 -4.22266 1.3418 -7.1709 1.3418 -14.375
s-0.274414 -10.1523 -1.3418 -14.375c-0.738281 -2.92188 -2.19043 -7.3584 -3.22754 -9.86035c-1.03809 -2.50098 -3.39746 -6.86035 -5.24414 -9.6875c-1.84766 -2.82617 -4.84277 -6.75781 -6.65625 -8.73535c-1.81348 -1.97852 -5.45605 -5.22266 -8.09375 -7.21094
c-2.63965 -1.9873 -7.2627 -4.81934 -10.2744 -6.29004c-3.0127 -1.47168 -8.20801 -3.43066 -11.5449 -4.35254l-6.06738 -1.67578l-382.188 -0.161133c-339.481 -0.143555 -382.804 -0.0546875 -387.696 0.788086c-3.03027 0.522461 -7.24902 1.53418 -9.375 2.24902
s-5.80957 2.27246 -8.18457 3.46387c-2.375 1.18945 -5.89062 3.20117 -7.8125 4.46973s-5.63867 4.41797 -8.25977 6.99902c-2.62109 2.58008 -6.36035 7.14551 -8.30957 10.1436c-1.9502 2.99902 -4.39258 7.49902 -5.43066 10
c-1.03711 2.50195 -2.48926 6.93848 -3.22754 9.86035c-1.06738 4.22266 -1.3418 7.1709 -1.3418 14.375s0.274414 10.1523 1.3418 14.375c0.738281 2.92188 2.19043 7.3584 3.22754 9.86035c1.03809 2.50098 3.48047 7.00098 5.43066 10
c1.94922 2.99805 5.68848 7.56348 8.30957 10.1436c2.62109 2.58105 6.33789 5.73047 8.25977 6.99902s5.4375 3.28027 7.8125 4.46973c2.375 1.19141 6.04883 2.74609 8.16406 3.45703s6.30078 1.7207 9.30078 2.24414c4.42871 0.772461 11.7852 0.951172 39.123 0.951172
h33.668v41.4795v41.4795l-14.8438 0.329102c-13.2402 0.292969 -15.499 0.5 -20.9102 1.91504c-3.33594 0.87207 -8.43164 2.69434 -11.3242 4.0498c-2.8916 1.35547 -6.91211 3.59863 -8.93359 4.98438c-2.02148 1.38672 -5.28125 3.96484 -7.24219 5.73047
c-1.96191 1.76465 -5.26758 5.46582 -7.3457 8.22363c-2.0791 2.75879 -4.88867 7.31836 -6.24512 10.1309c-1.35547 2.81348 -3.20605 7.64648 -4.1123 10.7402c-1.23926 4.22559 -1.73633 7.60254 -1.99707 13.5742c-0.22168 5.06055 -0.0644531 9.71484 0.43457 12.8125
c0.431641 2.6748 1.34082 6.69141 2.02148 8.92578c0.681641 2.23438 2.34082 6.28125 3.68848 8.99414c1.34668 2.71191 3.75098 6.79004 5.34082 9.0625c1.86621 2.66602 59.3428 60.6143 162.18 163.511l159.289 159.382v18.2754v18.2764l-13.9062 0.0078125
c-11.0977 0.00683594 -15.0439 0.243164 -19.5391 1.17188c-3.09863 0.638672 -7.59863 1.93652 -10 2.88379c-2.40234 0.947266 -6.51074 2.9834 -9.12988 4.52539c-2.62012 1.54199 -6.59082 4.38867 -8.8252 6.32617s-5.48145 5.19043 -7.2168 7.22949
c-1.73438 2.03906 -4.40723 5.83594 -5.93848 8.4375s-3.55957 6.69824 -4.50781 9.10254c-0.948242 2.40527 -2.27832 7.0459 -2.95605 10.3125c-1.00879 4.86523 -1.1748 7.52441 -0.917969 14.6904c0.25 6.98828 0.646484 9.88281 1.9707 14.375
c0.912109 3.09375 2.7666 7.92676 4.12207 10.7393c1.35645 2.8125 4.16602 7.37207 6.24512 10.1318c2.07812 2.75781 5.38379 6.45898 7.3457 8.22363c1.96094 1.76562 5.2207 4.34375 7.24219 5.73047c2.02148 1.38574 6.04199 3.62891 8.93359 4.98438
c2.89258 1.35547 7.98828 3.17773 11.3242 4.0498c5.40723 1.41406 7.67285 1.62207 20.8467 1.91406l14.7812 0.328125l0.293945 15.0742c0.244141 12.5537 0.509766 15.9102 1.58691 20.0732c0.710938 2.75 2.1416 7.0459 3.17871 9.54785
c1.03613 2.50098 3.47852 7.00098 5.42871 10c1.94922 2.99805 5.68848 7.56348 8.30957 10.1445s6.33789 5.73047 8.25977 6.99902s5.4375 3.28027 7.8125 4.46973c2.375 1.19141 6.07324 2.75488 8.21875 3.47559c2.14453 0.720703 6.08203 1.72461 8.75 2.22949
c3.25293 0.617188 7.4209 0.837891 12.6621 0.669922zM499.998 378.125c-0.171875 0 -41.1631 -40.8516 -91.0928 -90.7822c-49.9287 -49.9297 -90.7803 -90.9922 -90.7803 -91.25c0 -0.256836 17.874 -0.467773 39.7197 -0.467773h39.7188l5.125 4.55664
c2.81836 2.50684 7.2334 6.14062 9.81152 8.07617s7.21875 5.11523 10.3125 7.06641s9.28125 5.31641 13.75 7.47754c4.46875 2.16211 11.3594 5.05664 15.3125 6.43164c3.95312 1.37695 10.1406 3.22168 13.75 4.10156s9.79688 2.0957 13.75 2.70215
c5.19531 0.797852 10.9121 1.10449 20.625 1.10449s15.4297 -0.306641 20.625 -1.10449c3.95312 -0.606445 10.1064 -1.81445 13.6738 -2.68359c3.56836 -0.870117 9.75586 -2.70703 13.75 -4.08105c3.99512 -1.37402 10.6387 -4.11426 14.7637 -6.08887
c4.125 -1.97363 10.1602 -5.23926 13.4121 -7.25586c3.25195 -2.01562 8.5957 -5.69043 11.875 -8.16504s7.83398 -6.21777 10.1211 -8.31836l4.1582 -3.81934h39.748c21.8613 0 39.748 0.210938 39.748 0.469727c0 0.257812 -40.8516 41.3203 -90.7822 91.25
c-49.9297 49.9287 -90.9229 90.7803 -91.0947 90.7803zM333.438 70.625h-20.9375v-41.5625v-41.5625h20.9375h20.9375v41.5625v41.5625h-20.9375zM500 70.625h-20.625v-41.5625v-41.5625h20.625h20.625v41.5625v41.5625h-20.625zM666.562 70.625h-20.9375v-41.5625v-41.5625
h20.9375h20.9375v41.5625v41.5625h-20.9375z" />
  </g>

</svg>
