<?xml version="1.0" standalone="no"?>
<!DOCTYPE svg PUBLIC "-//W3C//DTD SVG 1.1//EN" "http://www.w3.org/Graphics/SVG/1.1/DTD/svg11.dtd" >
<svg xmlns="http://www.w3.org/2000/svg" xmlns:xlink="http://www.w3.org/1999/xlink" version="1.1" viewBox="-10 0 1010 1000">
  <g transform="matrix(1 0 0 -1 0 800)">
   <path fill="currentColor"
d="M502.812 737.229c203.455 -0.0732422 220.48 -0.15918 226.389 -1.13672c3.5127 -0.581055 8.29395 -1.49316 10.625 -2.02637c2.33008 -0.532227 6.76855 -1.70215 9.8623 -2.59766c3.09375 -0.896484 8.37207 -2.71777 11.7314 -4.04883
c3.3584 -1.33008 8.70215 -3.7168 11.875 -5.30176c3.17188 -1.58496 8.11719 -4.29297 10.9873 -6.0166c2.87109 -1.72559 8.07422 -5.25977 11.5625 -7.85547c3.48926 -2.5957 9.40723 -7.69238 13.1523 -11.3262s8.92871 -9.1377 11.5186 -12.2314
s6.94141 -9 9.6709 -13.125c2.72852 -4.125 6.73242 -11.1562 8.89648 -15.625s4.94824 -10.8701 6.18848 -14.2246c1.23926 -3.35449 3.06445 -9.26074 4.05469 -13.125c0.991211 -3.86426 2.26562 -9.77832 2.83398 -13.1445
c0.567383 -3.36426 1.28906 -9.83301 1.60254 -14.375c0.329102 -4.78613 0.578125 -135.412 0.591797 -310.849l0.0214844 -302.593l15.1562 -0.280273c13.8008 -0.255859 15.6992 -0.424805 21.2236 -1.89648c3.33691 -0.888672 8.53223 -2.82031 11.5449 -4.29199
c3.01172 -1.4707 7.63477 -4.30273 10.2744 -6.29004c2.6377 -1.98828 6.28027 -5.23242 8.09375 -7.21094c1.81348 -1.97754 4.80859 -5.90918 6.65625 -8.73535c1.84668 -2.82715 4.20605 -7.18652 5.24414 -9.6875c1.03711 -2.50195 2.48926 -6.93848 3.22754 -9.86035
c1.06738 -4.22266 1.3418 -7.1709 1.3418 -14.375s-0.274414 -10.1523 -1.3418 -14.375c-0.738281 -2.92188 -2.19043 -7.3584 -3.22754 -9.86035c-1.03809 -2.50098 -3.39746 -6.86035 -5.24414 -9.6875c-1.84766 -2.82617 -4.84277 -6.75781 -6.65625 -8.73535
c-1.81348 -1.97852 -5.45605 -5.22266 -8.09375 -7.21094c-2.63965 -1.9873 -7.2627 -4.81934 -10.2744 -6.29004c-3.0127 -1.47168 -8.20801 -3.43066 -11.5449 -4.35254l-6.06738 -1.67578l-382.188 -0.161133c-339.48 -0.143555 -382.803 -0.0546875 -387.696 0.788086
c-3.03027 0.522461 -7.24902 1.53418 -9.375 2.24902s-5.80957 2.27246 -8.18457 3.46387c-2.375 1.18945 -5.89062 3.20117 -7.8125 4.46973s-5.63867 4.41797 -8.25977 6.99902c-2.62109 2.58008 -6.36035 7.14551 -8.30957 10.1436
c-1.9502 2.99902 -4.39258 7.49902 -5.43066 10c-1.03711 2.50195 -2.48926 6.93848 -3.22754 9.86035c-1.06738 4.22266 -1.3418 7.1709 -1.3418 14.375s0.274414 10.1523 1.3418 14.375c0.738281 2.92188 2.19043 7.3584 3.22754 9.86035
c1.03809 2.50098 3.48047 7.00098 5.43066 10c1.94922 2.99805 5.68848 7.56348 8.30957 10.1436c2.62109 2.58105 6.33789 5.73047 8.25977 6.99902s5.4375 3.28027 7.8125 4.46973c2.375 1.19141 6.04883 2.74609 8.16406 3.45703s6.30078 1.7207 9.30078 2.24414
c3.68164 0.641602 9.59375 0.951172 18.1855 0.951172h12.7305l0.0185547 302.969c0.0107422 182.528 0.250977 306.157 0.604492 310.99c0.323242 4.41211 1.0459 10.7402 1.60645 14.0625c0.55957 3.32324 1.8291 9.20215 2.82031 13.0664
c0.990234 3.86426 2.82129 9.77051 4.06934 13.125s3.73438 9.19336 5.52441 12.9746c1.79102 3.78125 4.88574 9.5459 6.87793 12.8096c1.99121 3.26367 5.62598 8.60742 8.07715 11.875s7.68164 9.26562 11.6221 13.3301c3.94043 4.06348 9.70801 9.45117 12.8154 11.9717
c3.1084 2.51953 8.46387 6.44824 11.9014 8.72949s9.48438 5.7959 13.4375 7.81055s9.63379 4.64746 12.624 5.84961c2.98926 1.20312 8.38965 3.06543 12 4.13867c3.61133 1.07324 9.18066 2.49316 12.377 3.1543c3.19727 0.661133 8.20215 1.49512 11.124 1.85352
s6.29688 0.751953 7.5 0.875s101.188 0.188477 222.188 0.144531zM499.73 612.479c-201.677 -0.0195312 -211.441 -0.0712891 -214.544 -1.14258c-1.78711 -0.617188 -4.43164 -1.94238 -5.87402 -2.94238c-1.44336 -1 -3.55566 -3.22754 -4.69336 -4.9502
c-1.13867 -1.72266 -2.50293 -4.80762 -3.03223 -6.85645c-0.861328 -3.33008 -0.962891 -35.8496 -0.962891 -306.405v-302.683h20.9062h20.9053l0.224609 59.5312c0.202148 53.3711 0.339844 60.21 1.33105 66.0938c0.607422 3.60938 2.05176 10.2588 3.20801 14.7773
c1.1582 4.51758 3.12695 10.9443 4.37695 14.2812c1.25 3.33789 3.4668 8.64062 4.92676 11.7861c1.46094 3.14453 4.43457 8.6709 6.60938 12.2803c2.17578 3.60938 5.83691 9.09375 8.1377 12.1875c2.2998 3.09375 6.43066 8.15918 9.18066 11.2568
s7.78613 8.0459 11.1904 10.9971c3.40527 2.9502 8.2998 6.91016 10.8779 8.7998c2.57812 1.88867 7.64062 5.21582 11.25 7.39453c3.60938 2.17773 8.95312 5.07031 11.875 6.42871c2.92188 1.35742 8.125 3.53027 11.5625 4.82715
c3.4375 1.29785 8.95898 3.09766 12.2715 4c3.31152 0.901367 8.89355 2.1875 12.4053 2.85645s9.94238 1.52734 14.291 1.90723c5.32129 0.464844 24.7725 0.600586 59.4697 0.416992c44.002 -0.234375 52.4248 -0.423828 57.4414 -1.29492
c3.2334 -0.561523 8.99609 -1.76562 12.8066 -2.67676s9.2041 -2.42578 11.9854 -3.36621s8.16504 -3.02148 11.9648 -4.625s10.3857 -4.94629 14.6357 -7.42676c4.25098 -2.48145 10.4404 -6.52344 13.7539 -8.98242c3.31445 -2.45996 8.55859 -6.74414 11.6533 -9.52246
s8.00293 -7.79297 10.9082 -11.1455s6.82715 -8.2041 8.7168 -10.7822c1.88867 -2.57812 5.21582 -7.64062 7.39453 -11.25c2.17773 -3.60938 5.06836 -8.95312 6.42285 -11.875c1.35547 -2.92188 3.43359 -7.84375 4.62012 -10.9375s2.97656 -8.54102 3.97852 -12.1045
c1.00293 -3.56348 2.38184 -9.46973 3.06543 -13.125c0.68457 -3.65527 1.53223 -9.73926 1.88477 -13.5205c0.381836 -4.08984 0.641602 -29.2178 0.641602 -62.0312l0.000976562 -55.1562h20.9375h20.9375v302.683c0 270.557 -0.101562 303.076 -0.962891 306.406
c-0.529297 2.04883 -1.90918 5.15723 -3.06641 6.9082s-3.45312 4.07812 -5.10254 5.16992c-1.64941 1.09277 -4.39844 2.40234 -6.10938 2.91016c-2.71777 0.807617 -29.7686 0.920898 -214.402 0.902344zM501.562 570.363
c7.13086 -0.164062 10.5732 -0.541016 14.375 -1.57031c2.75 -0.743164 7.8125 -2.71973 11.25 -4.39062s8.07812 -4.42676 10.3125 -6.125s5.87207 -5.02441 8.08301 -7.39062s5.37793 -6.41699 7.03516 -9c1.65723 -2.58496 3.87305 -6.75879 4.92285 -9.27734
c1.0498 -2.51758 2.49316 -6.73633 3.20703 -9.375c1.09668 -4.05273 1.34375 -7.19531 1.59473 -20.2656l0.296875 -15.4688h12.6328c8.78223 0 14.4277 -0.307617 18.5234 -1.00977c3.24023 -0.555664 7.86035 -1.71484 10.2666 -2.57812
c2.40625 -0.861328 5.78125 -2.27441 7.5 -3.13867s4.8125 -2.70801 6.875 -4.0957c2.0625 -1.38867 5.78223 -4.48438 8.2666 -6.87988c2.4834 -2.39453 5.94922 -6.42871 7.70312 -8.96582c1.75293 -2.53516 4.27051 -6.92383 5.5957 -9.75293
c1.3252 -2.82812 3.06152 -7.53223 3.85938 -10.4541c1.24414 -4.55664 1.4502 -6.78027 1.4502 -15.625s-0.206055 -11.0684 -1.4502 -15.625c-0.797852 -2.92188 -2.51953 -7.5957 -3.82715 -10.3867s-3.58789 -6.86914 -5.06738 -9.0625
s-4.64941 -6.02051 -7.04492 -8.50488c-2.39453 -2.4834 -6.35254 -5.89258 -8.79492 -7.57422c-2.44238 -1.68262 -5.84668 -3.76465 -7.56543 -4.62598s-5.09375 -2.27148 -7.5 -3.13281c-2.40625 -0.863281 -7.02637 -2.02246 -10.2666 -2.57812
c-4.0957 -0.702148 -9.74121 -1.00977 -18.5234 -1.00977h-12.6328l-0.296875 -15.4688c-0.250977 -13.0703 -0.498047 -16.2129 -1.59473 -20.2656c-0.713867 -2.63867 -2.15723 -6.85742 -3.20703 -9.375c-1.0498 -2.51855 -3.26562 -6.69238 -4.92285 -9.27734
c-1.65723 -2.58301 -4.82422 -6.63379 -7.03516 -9s-5.84863 -5.69238 -8.08301 -7.39062s-6.875 -4.45605 -10.3125 -6.12793s-8.64062 -3.68555 -11.5625 -4.47363c-4.5293 -1.22266 -6.83301 -1.43359 -15.625 -1.43359c-8.84473 0 -11.0684 0.206055 -15.625 1.4502
c-2.92188 0.797852 -7.62598 2.53418 -10.4541 3.85938c-2.8291 1.3252 -7.25195 3.86621 -9.8291 5.64746c-2.57715 1.78223 -6.69336 5.35254 -9.14648 7.93555c-2.45215 2.58203 -5.83594 6.84082 -7.51758 9.46387c-1.68262 2.62305 -3.91895 6.82812 -4.96777 9.34668
c-1.0498 2.51758 -2.49316 6.73633 -3.20703 9.375c-1.0957 4.05078 -1.34375 7.19434 -1.59375 20.2021l-0.295898 15.4062l-15.0869 0.279297c-13.6465 0.25293 -15.6562 0.430664 -21.0322 1.86426c-3.27051 0.87207 -7.87988 2.46191 -10.2441 3.5332
c-2.36328 1.07227 -6.5791 3.46973 -9.36719 5.32715c-2.78809 1.8584 -7.05762 5.44434 -9.48926 7.96875c-2.43164 2.52539 -5.63086 6.38574 -7.11035 8.5791s-3.75977 6.27148 -5.06738 9.0625s-3.0293 7.46484 -3.82715 10.3867
c-1.24414 4.55664 -1.4502 6.78027 -1.4502 15.625s0.206055 11.0684 1.4502 15.625c0.797852 2.92188 2.51953 7.5957 3.82715 10.3867s3.58789 6.86914 5.06738 9.0625s4.67871 6.05371 7.11035 8.5791c2.43164 2.52441 6.70117 6.11035 9.48926 7.96875
c2.78809 1.85742 7.00391 4.25488 9.36719 5.32715c2.36426 1.07129 6.97363 2.66113 10.2441 3.5332c5.37598 1.43359 7.38574 1.61133 21.0322 1.86426l15.0869 0.279297l0.295898 15.4062c0.25 13.0078 0.498047 16.1514 1.59375 20.2012
c0.713867 2.63867 2.15723 6.85742 3.20703 9.375c1.04883 2.51855 3.28516 6.72363 4.96777 9.34668c1.68164 2.62402 5.06641 6.88281 7.51758 9.46484c2.45312 2.58301 6.49316 6.09473 8.97656 7.80762c2.4834 1.71191 6.23145 3.97461 8.3291 5.0293
c2.09668 1.05469 5.6123 2.52539 7.8125 3.26855c2.19922 0.744141 5.82715 1.73633 8.06152 2.2041c2.72852 0.571289 7.13965 0.779297 13.4375 0.633789zM501.25 112.289c-25.2656 0.0566406 -46.7812 -0.105469 -47.8125 -0.361328
c-1.03125 -0.254883 -3 -0.995117 -4.375 -1.64551c-1.375 -0.651367 -3.77441 -2.45703 -5.33203 -4.01367c-1.55762 -1.55762 -3.52637 -4.2373 -4.375 -5.95605l-1.54297 -3.125l-0.172852 -54.8438l-0.172852 -54.8438h62.5332h62.5332l-0.172852 54.8438
l-0.172852 54.8438l-2.14355 3.9541c-1.17871 2.17383 -3.25 4.90039 -4.60254 6.05762c-1.35156 1.15723 -3.7627 2.75391 -5.35645 3.54688l-2.89746 1.44141z" />
  </g>

</svg>
