<?xml version="1.0" standalone="no"?>
<!DOCTYPE svg PUBLIC "-//W3C//DTD SVG 1.1//EN" "http://www.w3.org/Graphics/SVG/1.1/DTD/svg11.dtd" >
<svg xmlns="http://www.w3.org/2000/svg" xmlns:xlink="http://www.w3.org/1999/xlink" version="1.1" viewBox="-10 0 1010 1000">
  <g transform="matrix(1 0 0 -1 0 800)">
   <path fill="currentColor"
d="M125 -75v62.5h229.167v62.5c0 38.6699 15.3691 75.7803 42.707 103.112c27.3574 27.3652 64.459 42.7188 103.126 42.7188c38.6631 0 75.7783 -15.3633 103.115 -42.708c27.3584 -27.3525 42.7178 -64.4492 42.7178 -103.123v-62.5h229.167v-62.5v-62.5h-291.667h-62.5
v62.5v125c0 5.52539 -2.19824 10.8281 -6.09668 14.7256c-3.91895 3.91992 -9.19629 6.10547 -14.7363 6.10547c-5.53613 0 -10.8262 -2.19434 -14.7256 -6.09473c-3.91797 -3.91699 -6.10742 -9.20703 -6.10742 -14.7363v-125v-62.5h-62.5h-291.667v62.5v0zM250 -75h62.5
v375h-62.5h-62.5v-375h62.5zM750 -75h62.5v375h-62.5h-62.5v-375h62.5zM250 362.5h500c10.2549 0 20.3408 2.61328 29.1055 7.19141c-63.1104 11.1748 -122.896 34.6455 -175.638 69.8066c-40.5117 27.0088 -75.7002 60.4648 -103.469 97.7715
c-28.5352 -38.3369 -62.8955 -70.7217 -103.472 -97.7725c-52.7021 -35.1357 -113.731 -58.8447 -175.636 -69.8057c9.22754 -4.81934 18.8418 -7.19141 29.1074 -7.19141h0.000976562zM250 237.5c-49.7275 0 -97.4209 19.7539 -132.584 54.9209
c-35.1572 35.1543 -54.916 82.8535 -54.916 132.579v64.2822l64.2568 -1.80664c72.6357 -2.04297 143.597 18.1357 200.433 56.0273c56.8633 37.9082 95.9297 90.7568 112.781 148.896l60.0293 207.102l60.0293 -207.102
c16.8516 -58.1387 55.9189 -110.988 112.778 -148.896c56.8359 -37.8916 127.797 -58.0703 200.436 -56.0273l64.2568 1.80664v-64.2822c0 -49.7275 -19.7539 -97.4209 -54.9209 -132.584c-35.1602 -35.1592 -82.8525 -54.916 -132.579 -54.916h-500v0z" />
  </g>

</svg>
