<?xml version="1.0" standalone="no"?>
<!DOCTYPE svg PUBLIC "-//W3C//DTD SVG 1.1//EN" "http://www.w3.org/Graphics/SVG/1.1/DTD/svg11.dtd" >
<svg xmlns="http://www.w3.org/2000/svg" xmlns:xlink="http://www.w3.org/1999/xlink" version="1.1" viewBox="-10 0 1010 1000">
  <g transform="matrix(1 0 0 -1 0 800)">
   <path fill="currentColor"
d="M207.5 654.289c52.0664 0.0458984 87.3828 -0.162109 90.625 -0.535156c2.92188 -0.335938 6.97168 -1.04492 8.99902 -1.57422s5.82422 -1.81641 8.4375 -2.85938c2.61328 -1.04395 6.86035 -3.19824 9.43848 -4.78711
c2.83105 -1.74609 7.16309 -5.38867 10.9375 -9.19727c4.21875 -4.25684 7.18848 -7.92578 9.13867 -11.29c1.58887 -2.74121 3.62793 -6.86035 4.53223 -9.1543c0.90332 -2.29395 2.08203 -5.88477 2.61914 -7.98047s1.18555 -5.5625 1.44141 -7.7041l0.467773 -3.89453
l0.503906 4.0625c0.277344 2.23438 1.19043 6.45312 2.02734 9.375c0.837891 2.92188 2.63184 7.61426 3.9873 10.4277c1.35645 2.8125 4.16602 7.37207 6.24512 10.1309c2.07812 2.75781 5.38379 6.45898 7.3457 8.22363c1.96094 1.76562 5.2207 4.34375 7.24219 5.73047
c2.02148 1.38574 6.04199 3.62891 8.93359 4.98438c2.89258 1.35547 7.98828 3.21777 11.3242 4.13965l6.06641 1.67578h92.1875h92.1875l6.06641 -1.67578c3.33594 -0.921875 8.43164 -2.78418 11.3242 -4.13965c2.8916 -1.35547 6.93848 -3.60547 8.99316 -5.00098
c2.05469 -1.39453 5.32617 -3.99023 7.27148 -5.76758c1.94531 -1.77832 5.22363 -5.47266 7.28613 -8.20898c2.0625 -2.7373 4.85938 -7.2793 6.21582 -10.0918c1.35547 -2.81348 3.14941 -7.50586 3.9873 -10.4277c0.836914 -2.92188 1.75 -7.14062 2.02734 -9.375
l0.503906 -4.0625l0.467773 3.89453c0.255859 2.1416 0.904297 5.6084 1.44141 7.7041s1.71582 5.68652 2.61914 7.98047c0.904297 2.29395 2.94336 6.40723 4.53223 9.14062c1.87695 3.22949 4.96777 7.08008 8.82617 10.998
c3.26562 3.31641 7.21973 6.89258 8.78711 7.94824c1.56836 1.05566 5.08398 3.03125 7.8125 4.39258c2.72949 1.36035 6.79102 3.05273 9.02539 3.76074c2.23438 0.708984 5.75 1.65723 7.8125 2.10938c3.00195 0.657227 21.835 0.821289 94.375 0.821289
c85.4307 0 90.9287 -0.0654297 95.9277 -1.14258c2.91699 -0.62793 7.41699 -1.95898 10 -2.95703c2.58398 -0.998047 6.80664 -3.06152 9.38477 -4.58594s6.375 -4.20801 8.4375 -5.96289c2.0625 -1.75586 5.35742 -5.08398 7.32227 -7.39746
c1.96289 -2.3125 4.74121 -6.24902 6.1709 -8.74805s3.28027 -6.22754 4.11133 -8.28613c0.832031 -2.05762 2.13281 -5.91992 2.8916 -8.58105l1.37891 -4.83887l0.178711 -298.75c0.121094 -203.062 -0.0283203 -300.711 -0.469727 -304.872
c-0.355469 -3.36719 -1.08789 -8.28906 -1.62695 -10.9375s-1.9541 -7.76855 -3.14648 -11.3779c-1.19141 -3.60938 -3.53711 -9.375 -5.21191 -12.8125s-4.51465 -8.5 -6.31152 -11.25s-5.03027 -7.11914 -7.18555 -9.70801
c-2.15625 -2.58887 -6.05078 -6.73145 -8.6543 -9.2041c-2.60449 -2.47461 -6.7793 -5.99219 -9.27832 -7.81934s-5.9502 -4.20703 -7.66895 -5.29004c-1.71875 -1.08398 -6.07812 -3.37891 -9.6875 -5.10059c-3.60938 -1.72266 -9.18848 -3.98828 -12.3975 -5.03516
s-8.69336 -2.53613 -12.1875 -3.31055l-6.35254 -1.40723h-97.1875h-97.1875l-6.35254 1.40723c-3.49414 0.774414 -8.97363 2.26367 -12.1768 3.31055s-8.44922 3.14648 -11.6582 4.66699c-3.20898 1.51953 -7.57324 3.80762 -9.69824 5.08398
c-2.12598 1.27637 -5.9707 3.88672 -8.5459 5.80078c-2.57422 1.91406 -6.75 5.43945 -9.27734 7.83496c-2.5293 2.39551 -6.36133 6.47363 -8.51758 9.0625c-2.15527 2.58887 -5.38867 6.95801 -7.18555 9.70801s-4.63672 7.8125 -6.31152 11.25
s-4.02051 9.20312 -5.21191 12.8125c-1.19238 3.60938 -2.59863 8.68359 -3.125 11.2754c-0.527344 2.5918 -1.24805 7.23242 -1.59961 10.3125c-0.383789 3.34082 -0.644531 24.5361 -0.647461 52.5488c-0.00390625 38.4609 -0.170898 47.8965 -0.922852 52.1875
c-0.503906 2.88184 -1.58887 7.20703 -2.41113 9.61328c-0.821289 2.40625 -2.4873 6.34375 -3.70215 8.75s-3.4541 6.0625 -4.97656 8.125c-1.52148 2.0625 -4.68457 5.63672 -7.02832 7.94336c-2.34277 2.30566 -6.19336 5.49023 -8.55469 7.07422
s-6.36035 3.83594 -8.88574 5.00195c-2.52637 1.16699 -6.67188 2.68652 -9.21387 3.37598c-2.54199 0.69043 -7.27539 1.57129 -10.5195 1.95898c-3.24414 0.386719 -7.74414 0.520508 -10 0.296875s-5.72461 -0.686523 -7.70703 -1.02734
c-1.98242 -0.341797 -5.2207 -1.13672 -7.19629 -1.76758c-1.97461 -0.631836 -5.48242 -2.00488 -7.79395 -3.05371c-2.31152 -1.04785 -6.28809 -3.34668 -8.83691 -5.1084s-6.35547 -4.88281 -8.45801 -6.93457c-2.10449 -2.05176 -5.11426 -5.48145 -6.69141 -7.62012
s-3.86035 -5.8584 -5.0752 -8.26465s-2.88086 -6.34375 -3.70215 -8.75c-0.822266 -2.40625 -1.90723 -6.73145 -2.41113 -9.61328c-0.751953 -4.29102 -0.918945 -13.7266 -0.922852 -52.1875c-0.00292969 -28.0127 -0.263672 -49.208 -0.647461 -52.5488
c-0.351562 -3.08008 -1.07227 -7.7207 -1.59961 -10.3125c-0.526367 -2.5918 -1.93262 -7.66602 -3.125 -11.2754c-1.19141 -3.60938 -3.53711 -9.375 -5.21191 -12.8125s-4.51465 -8.5 -6.31152 -11.25s-5.03027 -7.11914 -7.18555 -9.70801
c-2.15625 -2.58887 -6.05078 -6.73145 -8.6543 -9.2041c-2.60449 -2.47461 -6.7793 -5.99219 -9.27832 -7.81934s-5.9502 -4.20703 -7.66895 -5.29004c-1.71875 -1.08398 -6.07812 -3.37891 -9.6875 -5.10059c-3.60938 -1.72266 -9.18848 -3.98828 -12.3975 -5.03516
s-8.69336 -2.53613 -12.1875 -3.31055l-6.35254 -1.40723h-97.1875h-97.1875l-6.35254 1.40723c-3.49414 0.774414 -8.97363 2.26367 -12.1768 3.31055s-8.44922 3.14648 -11.6582 4.66699c-3.20898 1.51953 -7.57324 3.80762 -9.69824 5.08398
c-2.12598 1.27637 -5.9707 3.88672 -8.5459 5.80078c-2.57422 1.91406 -6.75 5.43945 -9.27734 7.83496c-2.5293 2.39551 -6.36133 6.47363 -8.51758 9.0625c-2.15527 2.58887 -5.38867 6.95801 -7.18555 9.70801s-4.63672 7.8125 -6.31152 11.25
s-4.02051 9.20312 -5.21191 12.8125c-1.19238 3.60938 -2.59863 8.68359 -3.125 11.2754c-0.527344 2.5918 -1.24805 7.23242 -1.59961 10.3125c-0.430664 3.75195 -0.643555 103.586 -0.647461 302.549c-0.00390625 258.277 0.114258 297.632 0.913086 302.188
c0.503906 2.88184 1.58789 7.20703 2.40918 9.61328s2.26953 5.92188 3.21875 7.8125c0.950195 1.89062 2.96582 5.31348 4.48047 7.60645s4.69629 6.11133 7.07031 8.48633c2.37402 2.37305 6.50293 5.82715 9.1748 7.6748s7.29883 4.41016 10.2812 5.69727
c2.9834 1.28516 7.14355 2.7832 9.24609 3.32812s5.8623 1.22754 8.35547 1.51758s42.9238 0.561523 89.8457 0.603516v-0.000976562zM208.281 529.227l-20.7812 0.165039v-62.5088v-62.5078l48.2812 0.0439453c48.0615 0.0439453 48.2568 0.0488281 42.9688 1.16699
c-2.92188 0.616211 -7.28125 1.89844 -9.6875 2.84766s-6.51855 2.98828 -9.1377 4.53027c-2.62012 1.54199 -6.59082 4.38867 -8.8252 6.32617s-5.48145 5.19043 -7.2168 7.22949c-1.73438 2.03906 -4.40723 5.83594 -5.93848 8.4375s-3.51855 6.59473 -4.41602 8.87402
c-0.898438 2.27832 -2.1123 5.93457 -2.69922 8.125c-0.926758 3.45801 -1.11328 8.79199 -1.41699 40.5439l-0.349609 36.5625zM500 529.375h-20.625v-32.0479c0 -18.2832 -0.27832 -34.3223 -0.647461 -37.3438c-0.356445 -2.91309 -1.2168 -7.40039 -1.91309 -9.97168
c-0.695312 -2.57227 -2.33789 -6.96484 -3.64844 -9.7627c-1.31055 -2.79688 -3.50684 -6.73926 -4.88086 -8.76074c-1.37305 -2.02148 -3.81445 -5.14062 -5.4248 -6.92969c-1.60938 -1.79004 -4.75391 -4.70801 -6.9873 -6.48438
c-2.2334 -1.77734 -6.22559 -4.46777 -8.87207 -5.98047c-2.64746 -1.51172 -7.43457 -3.59082 -10.6377 -4.62012s-7.28125 -2.11426 -9.0625 -2.41211c-1.91113 -0.319336 27.8936 -0.540039 72.6992 -0.540039c46.749 0 74.6436 0.214844 72.5703 0.558594
c-1.85059 0.307617 -5.92871 1.41602 -9.0625 2.46191c-3.13184 1.04688 -7.52344 2.89648 -9.75781 4.11133c-2.23438 1.21387 -6.09766 3.75684 -8.58594 5.65039s-5.95312 5.00586 -7.69922 6.91602c-1.74609 1.91113 -4.31641 5.1543 -5.71094 7.20898
c-1.39551 2.05469 -3.60938 6.02344 -4.91992 8.82031c-1.31055 2.79785 -2.95312 7.19043 -3.64844 9.7627c-0.696289 2.57129 -1.55664 7.05859 -1.91309 9.97168c-0.369141 3.02148 -0.647461 19.0605 -0.647461 37.3438v32.0479h-20.625zM791.979 529.375
c-11.2861 0 -20.709 -0.1875 -20.9375 -0.416992c-0.229492 -0.228516 -0.420898 -15.9082 -0.424805 -34.8438c-0.0078125 -31.1094 -0.121094 -34.9697 -1.17188 -40.0596c-0.638672 -3.09863 -1.93945 -7.59863 -2.88965 -10
c-0.950195 -2.40234 -2.80469 -6.22949 -4.12207 -8.50488c-1.31641 -2.27539 -3.58691 -5.65039 -5.04395 -7.5c-1.45801 -1.84961 -4.20996 -4.86133 -6.11426 -6.69238c-1.9043 -1.83203 -5.77832 -4.87793 -8.60742 -6.76953
c-2.83008 -1.89062 -7.58496 -4.43262 -10.5664 -5.64844c-2.98047 -1.21484 -7.83789 -2.71973 -10.792 -3.34277c-5.36719 -1.13281 -5.32715 -1.13379 42.9102 -1.17773l48.2803 -0.0439453v62.5v62.5h-20.5205zM338.906 279.312l-151.406 0.0625v-125v-125h62.4512
h62.4512l0.240234 39.5312c0.226562 37.3691 0.318359 40.0439 1.6709 48.9062c0.786133 5.15625 2.63965 14.1562 4.11816 20s4.04102 14.2812 5.69629 18.75c1.6543 4.46875 5.46289 13.0469 8.46387 19.0625s7.85938 14.5566 10.7979 18.9795
c2.9375 4.42285 7.49414 10.751 10.125 14.0625s9.31445 10.5332 14.8535 16.0488c6.59961 6.57324 12.9766 12.1914 18.5068 16.3066c4.64062 3.45215 11.25 8.03027 14.6875 10.1709c3.4375 2.1416 10.4688 5.9707 15.625 8.50781
c5.15625 2.53809 12.3877 5.74805 16.0693 7.13281s10.0098 3.49609 14.0625 4.69141c4.05273 1.19434 11.0098 2.90527 15.459 3.80176c4.4502 0.895508 12.4658 2.14551 17.8125 2.77637c9.6416 1.1377 8.47461 1.14746 -141.685 1.20898zM661.094 279.294
c-83.2734 -0.0449219 -149.297 -0.310547 -146.719 -0.59082s7.21875 -0.831055 10.3125 -1.22461s9 -1.41309 13.125 -2.26758c4.125 -0.853516 10.0312 -2.25879 13.125 -3.12207c3.09375 -0.864258 9.14062 -2.8418 13.4375 -4.39453
c4.29688 -1.55371 11.75 -4.71289 16.5625 -7.02051s11.7031 -5.97656 15.3125 -8.1543c3.60938 -2.17676 8.39062 -5.24121 10.625 -6.80859c2.23438 -1.56836 6.73438 -4.94336 10 -7.5s10.1816 -8.89551 15.3701 -14.0859
c5.1875 -5.19043 11.5908 -12.1465 14.2275 -15.458c2.63867 -3.31152 7.20312 -9.63965 10.1445 -14.0625c2.94238 -4.42285 7.85254 -13.1045 10.9111 -19.292c3.05957 -6.1875 6.86816 -14.7656 8.46484 -19.0625c1.5957 -4.29688 4.10156 -12.5938 5.57031 -18.4375
c1.4668 -5.84375 3.31738 -14.8438 4.11133 -20c1.36914 -8.89355 1.45508 -11.4033 1.68262 -48.9062l0.240234 -39.5312h62.4512h62.4512v125v125z" />
  </g>

</svg>
