<?xml version="1.0" standalone="no"?>
<!DOCTYPE svg PUBLIC "-//W3C//DTD SVG 1.1//EN" "http://www.w3.org/Graphics/SVG/1.1/DTD/svg11.dtd" >
<svg xmlns="http://www.w3.org/2000/svg" xmlns:xlink="http://www.w3.org/1999/xlink" version="1.1" viewBox="-10 0 1010 1000">
  <g transform="matrix(1 0 0 -1 0 800)">
   <path fill="currentColor"
d="M125 300v62.5h31.25v-62.5v-62.5h-31.25v62.5zM500 675h62.5v-31.25h-62.5h-62.5v31.25h62.5zM843.75 300v62.5h31.25v-62.5v-62.5h-31.25v62.5zM189.583 610.417l44.1943 44.1943l60.417 -60.417l-44.1943 -44.1943l-44.1943 -44.1943l-60.417 60.417zM812.5 612.5
l44.1934 -44.1953l-60.4189 -60.416l-44.1934 44.1943l-44.1934 44.1953l60.4189 60.417zM500 675h-62.5v-31.25h62.5h62.5v31.25h-62.5zM843.75 300v-62.5h31.25v62.5v62.5h-31.25v-62.5zM189.583 610.417l-44.1943 -44.1943l60.417 -60.417l44.1943 44.1943
l44.1943 44.1943l-60.417 60.417zM812.5 612.5l44.1934 -44.1953l-60.4189 -60.416l-44.1934 44.1943l-44.1934 44.1953l60.4189 60.417zM843.75 300v62.5h31.25v-62.5v-62.5h-31.25v62.5zM189.583 610.417l44.1943 44.1943l60.417 -60.417l-44.1943 -44.1943
l-44.1943 -44.1943l-60.417 60.417zM812.5 612.5l-44.1934 44.1953l-60.4189 -60.417l44.1934 -44.1953l44.1934 -44.1943l60.4189 60.416zM189.583 610.417l-44.1943 -44.1943l60.417 -60.417l44.1943 44.1943l44.1943 44.1943l-60.417 60.417zM812.5 612.5
l44.1934 -44.1953l-60.4189 -60.416l-44.1934 44.1943l-44.1934 44.1953l60.4189 60.417zM812.5 612.5l-44.1934 44.1953l-60.4189 -60.417l44.1934 -44.1953l44.1934 -44.1943l60.4189 60.416zM606.25 168.75l-18.75 25c66.124 49.5928 67.7822 125.429 28.8047 177.398
c-23.2158 30.9551 -61.1914 53.8516 -116.305 53.8516c-91.9893 0 -141.801 -65.3711 -141.742 -129.514c0.03125 -35.75 14.9463 -72.2646 54.2422 -101.736l-30.5361 -40.7158l-6.96387 -9.28418l-37.5 -50c-69.7764 52.332 -104.177 127.663 -104.242 201.627
c-0.117188 131.312 106.102 254.623 266.742 254.623c92.9297 0 169.813 -41.8643 216.305 -103.853c77.0859 -102.781 69.627 -259.825 -53.8047 -352.397l-37.5 50zM654.459 113.989l14.5098 -14.6572c-3.00488 -2.97461 9.80469 -148.493 -91.707 -215.169
c-22.5088 -14.7842 -49.5947 -21.6631 -77.2617 -21.6631c-26.2744 0 -52.4307 6.63477 -74.0557 20.7451c-101.182 66.0205 -85.7197 206.984 -94.9141 216.088l87.9395 88.834c77.3564 -76.5762 67.6123 -190.825 75.292 -200.133
c0.800781 -0.202148 2.47266 -0.53418 5.73828 -0.53418c7.51953 0 8.6377 1.14258 8.6377 1.14258c11.3994 8.87793 -14.9229 113.094 72.3936 199.524zM375 143.75l-31.2588 -54.1211c110.056 -63.5645 199.956 -60.9141 310.994 -0.851562l-29.7354 54.9727
l-29.7354 54.9727c-87.7676 -47.4736 -107.416 -47.9746 -189.006 -0.851562zM654.459 113.989l-73.4277 74.1787c-87.3164 -86.4316 -60.9941 -190.647 -72.3936 -199.525c0 0 -1.11816 -1.14258 -8.6377 -1.14258c-3.26562 0 -4.9375 0.332031 -5.73828 0.53418
c-7.67969 9.30762 2.06445 123.557 -75.292 200.133l-87.9395 -88.834c9.19434 -9.10254 -6.26758 -150.066 94.9141 -216.088c21.625 -14.1104 47.7812 -20.7451 74.0557 -20.7451c27.667 0 54.7529 6.87891 77.2617 21.6631
c101.512 66.6758 88.7021 212.194 91.707 215.169zM375 143.75l31.2588 54.1211c81.5898 -47.123 101.238 -46.6221 189.006 0.851562l29.7354 -54.9727l29.7354 -54.9727c-111.038 -60.0625 -200.938 -62.7129 -310.994 0.851562zM375 143.75l31.2588 54.1211
c81.5898 -47.123 101.238 -46.6221 189.006 0.851562l29.7354 -54.9727l29.7354 -54.9727c-111.038 -60.0625 -200.939 -62.7129 -310.994 0.851562z" />
  </g>

</svg>
