<?xml version="1.0" standalone="no"?>
<!DOCTYPE svg PUBLIC "-//W3C//DTD SVG 1.1//EN" "http://www.w3.org/Graphics/SVG/1.1/DTD/svg11.dtd" >
<svg xmlns="http://www.w3.org/2000/svg" xmlns:xlink="http://www.w3.org/1999/xlink" version="1.1" viewBox="-10 0 1010 1000">
  <g transform="matrix(1 0 0 -1 0 800)">
   <path fill="currentColor"
d="M375 175v62.5h187.5h14.7539l13.1973 -6.59863l222.049 -111.024v444.736l-217.844 -130.707l-14.8447 -8.90625h-17.3115h-375v-187.5h62.5v-62.5v-62.5h-125h-62.5v62.5v312.5v62.5h62.5h420.188l297.654 178.594l94.6562 56.793v-110.387v-656.25v-101.127
l-90.4512 45.2256l-299.303 149.651h-172.746v62.5h0.000976562zM317.987 160.747l58.832 14.708l58.8145 14.7031l62.5 -250l19.415 -77.6582h-80.0488h-24.375h-100.625h-48.7988l-11.835 47.3418l-62.5 250l60.6338 15.1582l60.6338 15.1582zM375 175v62.5h-125v-62.5
v-62.5h125v62.5zM317.987 160.747l-7.35352 29.4111l-60.6338 -15.1582l-60.6338 -15.1582l62.5 -250l11.835 -47.3418h48.7988h100.625h24.375h80.0488l-19.415 77.6582l-62.5 250l-58.8145 -14.7031zM375 175v-62.5h-125v62.5v62.5h125v-62.5zM375 175v62.5h-125v-62.5
v-62.5h125v62.5z" />
  </g>

</svg>
