<?xml version="1.0" standalone="no"?>
<!DOCTYPE svg PUBLIC "-//W3C//DTD SVG 1.1//EN" "http://www.w3.org/Graphics/SVG/1.1/DTD/svg11.dtd" >
<svg xmlns="http://www.w3.org/2000/svg" xmlns:xlink="http://www.w3.org/1999/xlink" version="1.1" viewBox="-10 0 1010 1000">
  <g transform="matrix(1 0 0 -1 0 800)">
   <path fill="currentColor"
d="M166.666 70.8311c11.5117 0 20.833 9.32617 20.833 20.8379c0 11.5098 -9.32812 20.8311 -20.833 20.8311c-11.5127 0 -20.833 -9.33105 -20.833 -20.8311c0 -11.5195 9.33008 -20.8379 20.833 -20.8379zM166.666 -54.1689c-80.5439 0 -145.833 65.3066 -145.833 145.838
c0 80.5371 65.2998 145.831 145.833 145.831c80.5439 0 145.833 -65.3047 145.833 -145.831c0 -80.5391 -65.2959 -145.838 -145.833 -145.838zM541.666 70.8311c11.5117 0 20.833 9.32617 20.833 20.8379c0 11.5098 -9.32812 20.8311 -20.833 20.8311
c-11.5127 0 -20.833 -9.33105 -20.833 -20.8311c0 -11.5195 9.33008 -20.8379 20.833 -20.8379zM541.666 -54.1689c-80.5439 0 -145.833 65.3066 -145.833 145.838c0 80.5371 65.2998 145.831 145.833 145.831c80.5439 0 145.833 -65.3047 145.833 -145.831
c0 -80.5391 -65.2959 -145.838 -145.833 -145.838zM750 258.333h62.5v-187.502h62.5v-62.5v-62.5h-125h-62.5v62.5v250.002h62.5zM541.667 8.33105v62.5h-375v-62.5v-62.5h375v62.5zM166.667 175v-62.5h375v62.5v62.5h-375v-62.5zM333.333 300h-62.5v208.333v62.5h62.5
h83.333c49.7275 0 97.4189 -19.7529 132.583 -54.917c35.1631 -35.1631 54.917 -82.8555 54.917 -132.583v-208.333h-62.5h-62.5v208.333c0 16.5781 -6.58398 32.4736 -18.3057 44.1943c-11.7207 11.7217 -27.6172 18.3057 -44.1943 18.3057h-20.833v-145.833h-62.5z
M208.333 175h62.5v62.5h270.833v62.5v62.5h-291.667c-27.626 0 -54.1221 -10.9746 -73.6582 -30.5117c-19.5312 -19.5322 -30.5078 -46.0303 -30.5078 -73.6553v-83.333h62.5zM750 91.6689v62.5h-125v-62.5v-62.5h125v62.5z" />
  </g>

</svg>
