<?xml version="1.0" standalone="no"?>
<!DOCTYPE svg PUBLIC "-//W3C//DTD SVG 1.1//EN" "http://www.w3.org/Graphics/SVG/1.1/DTD/svg11.dtd" >
<svg xmlns="http://www.w3.org/2000/svg" xmlns:xlink="http://www.w3.org/1999/xlink" version="1.1" viewBox="-10 0 1010 1000">
  <g transform="matrix(1 0 0 -1 0 800)">
   <path fill="currentColor"
d="M250.001 70.8311c11.5107 0 20.833 9.32715 20.833 20.8379c0 11.5088 -9.33008 20.8311 -20.833 20.8311c-11.5146 0 -20.834 -9.33105 -20.834 -20.8311c0 -11.5195 9.3291 -20.8379 20.834 -20.8379zM250.001 -54.1689c-80.5449 0 -145.834 65.3057 -145.834 145.838
c0 80.5371 65.2998 145.831 145.834 145.831c80.542 0 145.833 -65.3027 145.833 -145.831c0 -80.541 -65.2979 -145.838 -145.833 -145.838zM750 70.8311c11.5117 0 20.8311 9.32422 20.8311 20.8379c0 11.5117 -9.32617 20.8311 -20.8311 20.8311
c-11.5137 0 -20.8311 -9.32812 -20.8311 -20.8311c0 -11.5225 9.32812 -20.8379 20.8311 -20.8379zM750 -54.1689c-80.5479 0 -145.831 65.3096 -145.831 145.838c0 80.5332 65.2939 145.831 145.831 145.831c80.5459 0 145.831 -65.3066 145.831 -145.831
c0 -80.5371 -65.292 -145.838 -145.831 -145.838zM666.669 91.6689v62.5h-333.336v-62.5v-62.5h333.336v62.5zM166.666 29.1689h-83.333h-62.5v62.5v458.331c0 27.625 10.9766 54.124 30.5078 73.6553c19.5361 19.5371 46.0322 30.5117 73.6582 30.5117h583.332
c79.5488 0 150.268 -44.5342 198.179 -111.603c48.041 -67.2598 72.6592 -153.688 72.6592 -242.564v-208.331v-62.5h-62.5h-83.3379h-666.665v0zM166.666 154.169h666.665h20.8379v145.831c0 65.834 -19.2822 127.777 -49.3779 169.913
c-30.2393 42.3291 -65.4961 59.2539 -96.46 59.2539h-562.498v-374.998h20.833zM166.666 29.1689h666.665h83.3379h62.5v62.5v208.331c0 88.877 -24.6182 175.305 -72.6592 242.564c-47.9111 67.0674 -118.63 111.603 -198.179 111.603h-583.332
c-27.626 0 -54.1221 -10.9746 -73.6582 -30.5117c-19.5312 -19.5312 -30.5078 -46.0303 -30.5078 -73.6553v-458.331v-62.5h62.5h83.333v0zM166.666 154.169h-20.833v374.998h562.498c30.9639 0 66.2207 -16.9248 96.46 -59.2539
c30.0957 -42.1357 49.3779 -104.079 49.3779 -169.913v-145.831h-20.8379h-666.665zM666.669 591.667l61.1123 13.0957l51.9131 -242.263h136.975v-62.5v-62.5h-187.5h-50.5264l-10.5869 49.4043l-62.5 291.667zM83.333 383.333v62.5h624.998v-62.5v-62.5h-624.998v62.5z
M291.667 591.667h-62.5v-208.334h62.5h62.5v208.334h-62.5zM500 591.667h-62.5v-208.334h62.5h62.5v208.334h-62.5z" />
  </g>

</svg>
