<?xml version="1.0" standalone="no"?>
<!DOCTYPE svg PUBLIC "-//W3C//DTD SVG 1.1//EN" "http://www.w3.org/Graphics/SVG/1.1/DTD/svg11.dtd" >
<svg xmlns="http://www.w3.org/2000/svg" xmlns:xlink="http://www.w3.org/1999/xlink" version="1.1" viewBox="-10 0 1010 1000">
  <g transform="matrix(1 0 0 -1 0 800)">
   <path fill="currentColor"
d="M312.5 550v-62.5h-125v-187.5h-62.5h-62.5v250v62.5h62.5h187.5v-62.5zM312.5 550h-62.5v125h62.5h62.5v-125h-62.5zM312.5 550v62.5h375v-62.5v-62.5h-375v62.5zM687.5 550v62.5h187.5h62.5v-62.5v-250h-62.5h-62.5v187.5h-125v62.5zM687.5 550h62.5v125h-62.5h-62.5
v-125h62.5zM125 300h62.5v-312.5h625v312.5h62.5h62.5v-375v-62.5h-62.5h-750h-62.5v62.5v375h62.5zM125 300v62.5h750v-62.5v-62.5h-750v62.5zM312.5 550h62.5v125h-62.5h-62.5v-125h62.5zM312.5 550v-62.5h375v62.5v62.5h-375v-62.5zM687.5 550v-62.5h125v-187.5h62.5
h62.5v250v62.5h-62.5h-187.5v-62.5zM687.5 550h-62.5v125h62.5h62.5v-125h-62.5zM125 300h-62.5v-375v-62.5h62.5h750h62.5v62.5v375h-62.5h-62.5v-312.5h-625v312.5h-62.5zM125 300v62.5h750v-62.5v-62.5h-750v62.5zM312.5 550v62.5h375v-62.5v-62.5h-375v62.5zM687.5 550
v62.5h187.5h62.5v-62.5v-250h-62.5h-62.5v187.5h-125v62.5zM687.5 550h62.5v125h-62.5h-62.5v-125h62.5zM125 300h62.5v-312.5h625v312.5h62.5h62.5v-375v-62.5h-62.5h-750h-62.5v62.5v375h62.5zM125 300v-62.5h750v62.5v62.5h-750v-62.5zM687.5 550v-62.5h125v-187.5h62.5
h62.5v250v62.5h-62.5h-187.5v-62.5zM687.5 550h-62.5v125h62.5h62.5v-125h-62.5zM125 300h-62.5v-375v-62.5h62.5h750h62.5v62.5v375h-62.5h-62.5v-312.5h-625v312.5h-62.5zM125 300v62.5h750v-62.5v-62.5h-750v62.5zM687.5 550h62.5v125h-62.5h-62.5v-125h62.5zM125 300
h62.5v-312.5h625v312.5h62.5h62.5v-375v-62.5h-62.5h-750h-62.5v62.5v375h62.5zM125 300v-62.5h750v62.5v62.5h-750v-62.5zM125 300h-62.5v-375v-62.5h62.5h750h62.5v62.5v375h-62.5h-62.5v-312.5h-625v312.5h-62.5zM125 300v62.5h750v-62.5v-62.5h-750v62.5zM125 300v-62.5
h750v62.5v62.5h-750v-62.5z" />
  </g>

</svg>
