<?xml version="1.0" standalone="no"?>
<!DOCTYPE svg PUBLIC "-//W3C//DTD SVG 1.1//EN" "http://www.w3.org/Graphics/SVG/1.1/DTD/svg11.dtd" >
<svg xmlns="http://www.w3.org/2000/svg" xmlns:xlink="http://www.w3.org/1999/xlink" version="1.1" viewBox="-10 0 1010 1000">
  <g transform="matrix(1 0 0 -1 0 800)">
   <path fill="currentColor"
d="M812.5 -12.5v437.5h-125h-62.5v62.5v62.5h-250v-62.5v-62.5h-62.5h-125v-437.5h625zM937.5 -75v-62.5h-62.5h-750h-62.5v62.5v562.5v62.5h62.5h125c0 34.3838 14.1025 65.8799 36.6113 88.3887s54.0049 36.6113 88.3887 36.6113h250
c34.3838 0 65.8789 -14.1025 88.3887 -36.6113c22.5088 -22.5098 36.6113 -54.0049 36.6113 -88.3887h125h62.5v-62.5v-562.5zM500 175c34.5273 0 62.5 27.9727 62.5 62.5c0 34.5264 -27.9736 62.5 -62.5 62.5s-62.5 -27.9736 -62.5 -62.5
c0 -34.5273 27.9727 -62.5 62.5 -62.5zM500 50c-103.543 0 -187.5 83.9541 -187.5 187.5c0 103.544 83.9561 187.5 187.5 187.5s187.5 -83.9561 187.5 -187.5c0 -103.546 -83.957 -187.5 -187.5 -187.5z" />
  </g>

</svg>
