<?xml version="1.0" standalone="no"?>
<!DOCTYPE svg PUBLIC "-//W3C//DTD SVG 1.1//EN" "http://www.w3.org/Graphics/SVG/1.1/DTD/svg11.dtd" >
<svg xmlns="http://www.w3.org/2000/svg" xmlns:xlink="http://www.w3.org/1999/xlink" version="1.1" viewBox="-10 0 1010 1000">
  <g transform="matrix(1 0 0 -1 0 800)">
   <path fill="currentColor"
d="M125 487.5h-62.5v125c0 34.3838 14.1025 65.8799 36.6113 88.3887s54.0049 36.6113 88.3887 36.6113h125v-62.5v-62.5h-125v-125h-62.5zM125 112.5h62.5v-125h125v-62.5v-62.5h-125c-34.3838 0 -65.8789 14.1025 -88.3887 36.6113
c-22.5088 22.5088 -36.6113 54.0049 -36.6113 88.3887v125h62.5zM875 487.5h-62.5v125h-125v62.5v62.5h125c34.3838 0 65.8799 -14.1025 88.3887 -36.6113c22.5088 -22.5098 36.6113 -54.0049 36.6113 -88.3887v-125h-62.5zM875 112.5h62.5v-125
c0 -34.3838 -14.1025 -65.8789 -36.6113 -88.3887c-22.5098 -22.5088 -54.0049 -36.6113 -88.3887 -36.6113h-125v62.5v62.5h125v125h62.5zM500 237.5c34.5264 0 62.5 27.9736 62.5 62.5s-27.9736 62.5 -62.5 62.5s-62.5 -27.9736 -62.5 -62.5s27.9736 -62.5 62.5 -62.5z
M500 112.5c-103.544 0 -187.5 83.9561 -187.5 187.5s83.9561 187.5 187.5 187.5s187.5 -83.9561 187.5 -187.5s-83.9561 -187.5 -187.5 -187.5z" />
  </g>

</svg>
