<?xml version="1.0" standalone="no"?>
<!DOCTYPE svg PUBLIC "-//W3C//DTD SVG 1.1//EN" "http://www.w3.org/Graphics/SVG/1.1/DTD/svg11.dtd" >
<svg xmlns="http://www.w3.org/2000/svg" xmlns:xlink="http://www.w3.org/1999/xlink" version="1.1" viewBox="-10 0 1010 1000">
  <g transform="matrix(1 0 0 -1 0 800)">
   <path fill="currentColor"
d="M291.666 70.8311c11.5117 0 20.833 9.32617 20.833 20.8379c0 11.5098 -9.32812 20.8311 -20.833 20.8311c-11.5127 0 -20.833 -9.33105 -20.833 -20.8311c0 -11.5195 9.33008 -20.8379 20.833 -20.8379zM291.666 -54.1689c-80.5439 0 -145.833 65.3066 -145.833 145.838
c0 80.5371 65.2998 145.831 145.833 145.831c80.5439 0 145.833 -65.3047 145.833 -145.831c0 -80.5391 -65.2959 -145.838 -145.833 -145.838zM708.331 70.8311c11.5166 0 20.8379 9.33008 20.8379 20.8379c0 11.5059 -9.32812 20.8311 -20.8379 20.8311
c-11.5078 0 -20.8311 -9.33203 -20.8311 -20.8311c0 -11.5186 9.33398 -20.8379 20.8311 -20.8379zM708.331 -54.1689c-80.54 0 -145.831 65.3047 -145.831 145.838c0 80.5381 65.3018 145.831 145.831 145.831c80.542 0 145.838 -65.2998 145.838 -145.831
c0 -80.5439 -65.3027 -145.838 -145.838 -145.838zM500 341.667h-62.5v208.333h62.5h62.5v-208.333h-62.5zM208.333 29.1689h-83.333h-62.5v62.5v249.998v12.0361l4.46973 11.1758l83.334 208.333l15.7148 39.2881h42.3145h375h30.0391l18.7656 -23.4561l147.901 -184.877
h11.6299c38.6807 0 75.7598 -15.3594 103.123 -42.7178c27.3418 -27.3467 42.708 -64.4355 42.708 -103.116v-166.664v-62.5h-62.5h-83.3311h-583.336v0zM208.333 154.169h0.000976562h-20.833v175.462l63.1475 157.869h302.646l147.901 -184.877l18.7656 -23.4561h30.0391
h41.6689c5.51758 0 10.8281 -2.2002 14.7266 -6.09766c3.90918 -3.91016 6.10449 -9.21387 6.10449 -14.7363v-104.164h-20.8311h-583.336zM625 154.169h-250c0 -0.625 -0.625 -125 0 -125h250c0.625 0 0 125 0 125zM625 154.169v-125h-250v125h250zM125 279.167
c0 0 -0.625 125 0 125h625c0.625 0 0 -124.375 0 -125h-625zM125 279.167h625v125h-625v-125zM208.333 29.1689h583.336h83.3311h62.5v62.5v166.664c0 38.6807 -15.3662 75.7695 -42.708 103.116c-27.3633 27.3584 -64.4424 42.7178 -103.123 42.7178h-11.6299
l-147.9 184.877l-18.7656 23.4561h-30.0391h-375h-42.3154l-15.7139 -39.2881l-83.335 -208.333l-4.46973 -11.1758v-12.0361v-249.998v-62.5h62.5h83.333v0zM208.333 154.169h-0.000976562h583.336h20.8311v104.164c0 5.52246 -2.19531 10.8262 -6.10449 14.7363
c-3.89844 3.89746 -9.20898 6.09766 -14.7266 6.09766h-41.6689h-30.0391l-18.7656 23.4561l-147.9 184.877h-302.646l-63.1475 -157.869v-175.462h20.833zM625 154.169c0 0 0.625 -125 0 -125h-250c-0.625 0 0 124.375 0 125h250zM625 154.169h-250v-125h250v125z
M125 279.167c0 0 -0.625 125 0 125h625c0.625 0 0 -124.375 0 -125h-625zM125 279.167v125h625v-125h-625zM625 154.169h-250c0 -0.625 -0.625 -125 0 -125h250c0.625 0 0 125 0 125zM625 154.169v-125h-250v125h250zM125 279.167h625c0 0.625 0.625 125 0 125h-625
c-0.625 0 0 -125 0 -125zM125 279.167h625v125h-625v-125zM125 279.167h625c0 0.625 0.625 125 0 125h-625c-0.625 0 0 -125 0 -125zM125 279.167v125h625v-125h-625z" />
  </g>

</svg>
