<?xml version="1.0" standalone="no"?>
<!DOCTYPE svg PUBLIC "-//W3C//DTD SVG 1.1//EN" "http://www.w3.org/Graphics/SVG/1.1/DTD/svg11.dtd" >
<svg xmlns="http://www.w3.org/2000/svg" xmlns:xlink="http://www.w3.org/1999/xlink" version="1.1" viewBox="-10 0 1010 1000">
  <g transform="matrix(1 0 0 -1 0 800)">
   <path fill="currentColor"
d="M458.333 70.8311c11.5127 0 20.834 9.32812 20.834 20.8379c0 11.5088 -9.3291 20.8311 -20.834 20.8311c-11.5137 0 -20.833 -9.33105 -20.833 -20.8311c0 -11.5195 9.33008 -20.8379 20.833 -20.8379zM458.333 -54.1689c-80.5439 0 -145.833 65.3066 -145.833 145.838
c0 80.5371 65.2998 145.831 145.833 145.831c80.542 0 145.834 -65.3027 145.834 -145.831c0 -80.541 -65.2988 -145.838 -145.834 -145.838zM875 91.6689v62.5h-333.333v-62.5v-62.5h333.333v62.5zM375 91.6689v-62.5h-208.333
c-27.625 0 -54.0967 10.9492 -73.6689 30.5176c-19.5146 19.5254 -30.498 46.0137 -30.498 73.6445v375.002c0 38.6797 15.3643 75.7686 42.7129 103.12c27.3496 27.3486 64.4424 42.7139 103.12 42.7139h416.667h25.8877l18.3066 -18.3057l166.668 -166.667
l18.3066 -18.3057v-25.8887v-333.331h-62.5h-62.5v307.441l-130.057 130.057h-390.779c-5.52539 0 -10.8242 -2.19531 -14.7314 -6.10254c-3.9043 -3.9043 -6.10156 -9.20801 -6.10156 -14.7314v-354.164h187.5v-62.5zM437.5 404.167h-125v-41.667h125v41.667z
M458.333 529.167c57.5479 0 104.167 -46.6465 104.167 -104.167v-83.333c0 -28.6396 -11.7686 -54.916 -30.5098 -73.6572c-18.7373 -18.7373 -45.0264 -30.5098 -73.6572 -30.5098h-166.666c-28.6396 0 -54.916 11.7686 -73.6572 30.5098
c-18.7373 18.7373 -30.5098 45.0264 -30.5098 73.6572v83.333c0 28.6396 11.7686 54.916 30.5098 73.6572c18.7373 18.7373 45.0264 30.5098 73.6572 30.5098h166.666z" />
  </g>

</svg>
