<?xml version="1.0" standalone="no"?>
<!DOCTYPE svg PUBLIC "-//W3C//DTD SVG 1.1//EN" "http://www.w3.org/Graphics/SVG/1.1/DTD/svg11.dtd" >
<svg xmlns="http://www.w3.org/2000/svg" xmlns:xlink="http://www.w3.org/1999/xlink" version="1.1" viewBox="-10 0 1010 1000">
  <g transform="matrix(1 0 0 -1 0 800)">
   <path fill="currentColor"
d="M593.75 18.75c-69.0273 0 -125 55.9727 -125 125c0 69.0283 55.9736 125 125 125c69.0293 0 125 -55.9736 125 -125c0 -69.0283 -55.9736 -125 -125 -125zM312.5 237.5v-62.5h-187.5h-62.5v62.5v437.5v62.5h62.5h625h62.5v-62.5v-312.5h-62.5h-62.5v250h-500v-312.5h125
v-62.5zM312.5 425h562.5h62.5v-62.5v-437.5v-62.5h-62.5h-562.5h-62.5v62.5v437.5v62.5h62.5zM375 300h437.5v-312.5h-437.5v312.5zM312.5 425h-62.5v-62.5v-437.5v-62.5h62.5h562.5h62.5v62.5v437.5v62.5h-62.5h-562.5zM375 300v-312.5h437.5v312.5h-437.5z" />
  </g>

</svg>
