<?xml version="1.0" standalone="no"?>
<!DOCTYPE svg PUBLIC "-//W3C//DTD SVG 1.1//EN" "http://www.w3.org/Graphics/SVG/1.1/DTD/svg11.dtd" >
<svg xmlns="http://www.w3.org/2000/svg" xmlns:xlink="http://www.w3.org/1999/xlink" version="1.1" viewBox="-10 0 1010 1000">
  <g transform="matrix(1 0 0 -1 0 800)">
   <path fill="currentColor"
d="M125 102.812v9.6875v62.5c120.966 0 250 -86.4023 250 -250h-62.5h-62.5c0 86.4033 -58.4658 125 -125 125v52.8125zM125 292.5v7.5v62.5c219.09 0 437.5 -218.404 437.5 -437.5h-62.5h-62.5c0 144.017 -168.479 312.5 -312.5 312.5v55zM687.5 -75v62.5h62.5
c34.5283 0 62.5 27.9717 62.5 62.5v500c0 34.5273 -27.9727 62.5 -62.5 62.5h-491.667c-34.5264 0 -62.5 -27.9736 -62.5 -62.5v-41.667h-62.5h-62.5v41.667c0 103.544 83.9561 187.5 187.5 187.5h491.667c103.546 0 187.5 -83.957 187.5 -187.5v-500
c0 -103.545 -83.9551 -187.5 -187.5 -187.5h-62.5v62.5z" />
  </g>

</svg>
