<?xml version="1.0" standalone="no"?>
<!DOCTYPE svg PUBLIC "-//W3C//DTD SVG 1.1//EN" "http://www.w3.org/Graphics/SVG/1.1/DTD/svg11.dtd" >
<svg xmlns="http://www.w3.org/2000/svg" xmlns:xlink="http://www.w3.org/1999/xlink" version="1.1" viewBox="-10 0 1010 1000">
  <g transform="matrix(1 0 0 -1 0 800)">
   <path fill="currentColor"
d="M661.352 120.033l-36.4209 40.375c-34.2646 -30.9092 -78.7158 -47.9736 -124.928 -47.9082c-103.419 0 -187.211 83.8506 -187.211 187.5c-0.0166016 24.6826 4.80664 48.9932 14.2119 71.7412c9.39844 22.7334 23.1846 43.3955 40.5674 60.8018
c17.3838 17.4072 38.0264 31.2197 60.75 40.6504c22.7188 9.42773 47.0791 14.291 71.6777 14.3066c46.2705 0.0615234 90.7754 -17.0508 125.044 -48.0293l41.9131 46.3633l41.9131 46.3633c-57.2754 51.7773 -131.798 80.4053 -208.973 80.3027
c-40.9717 -0.0263672 -81.6133 -8.13672 -119.491 -23.8555c-37.8799 -15.7207 -72.2969 -38.748 -101.281 -67.7725c-28.9844 -29.0225 -51.9658 -63.4678 -67.6377 -101.373c-15.668 -37.8975 -23.7217 -78.5439 -23.6943 -119.521
c0 -172.475 139.708 -312.479 312.121 -312.479c77.0332 -0.110352 151.495 28.4502 208.744 80.0918l-41.8633 46.4082zM500 -33.3311h-62.5v83.3311h62.5h62.5v-83.3311h-62.5zM500 550h-62.5v83.333h62.5h62.5v-83.333h-62.5z" />
  </g>

</svg>
