<?xml version="1.0" standalone="no"?>
<!DOCTYPE svg PUBLIC "-//W3C//DTD SVG 1.1//EN" "http://www.w3.org/Graphics/SVG/1.1/DTD/svg11.dtd" >
<svg xmlns="http://www.w3.org/2000/svg" xmlns:xlink="http://www.w3.org/1999/xlink" version="1.1" viewBox="-10 0 1010 1000">
  <g transform="matrix(1 0 0 -1 0 800)">
   <path fill="currentColor"
d="M291.667 404.167c57.5391 0 104.166 46.627 104.166 104.166s-46.627 104.167 -104.166 104.167s-104.167 -46.6279 -104.167 -104.167s46.6279 -104.166 104.167 -104.166zM291.667 279.167c-126.557 0 -229.167 102.609 -229.167 229.166
s102.61 229.167 229.167 229.167s229.166 -102.61 229.166 -229.167s-102.609 -229.166 -229.166 -229.166zM291.666 675h62.5v-104.167h104.167v-62.5v-62.5h-166.667h-62.5v62.5v166.667h62.5zM375 91.6689h62.5v-166.669h-62.5h-62.5v166.669h62.5zM708.331 216.666h62.5
v-291.666h-62.5h-62.5v291.666h62.5zM541.666 258.334h62.5v-333.334h-62.5h-62.5v333.334h62.5zM875 300h62.5v-375h-62.5h-62.5v375h62.5z" />
  </g>

</svg>
