<?xml version="1.0" standalone="no"?>
<!DOCTYPE svg PUBLIC "-//W3C//DTD SVG 1.1//EN" "http://www.w3.org/Graphics/SVG/1.1/DTD/svg11.dtd" >
<svg xmlns="http://www.w3.org/2000/svg" xmlns:xlink="http://www.w3.org/1999/xlink" version="1.1" viewBox="-10 0 1010 1000">
  <g transform="matrix(1 0 0 -1 0 800)">
   <path fill="currentColor"
d="M125 675h62.5v-687.5h687.5v-62.5v-62.5h-750h-62.5v62.5v750h62.5zM375 404.168c11.5156 0 20.833 9.32617 20.833 20.833c0 11.5137 -9.32715 20.833 -20.833 20.833c-11.5156 0 -20.834 -9.32812 -20.834 -20.833c0 -11.5146 9.32715 -20.833 20.834 -20.833z
M375 279.168c-80.54 0 -145.834 65.2988 -145.834 145.833c0 80.542 65.3027 145.833 145.834 145.833c80.541 0 145.833 -65.3008 145.833 -145.833c0 -80.542 -65.3018 -145.833 -145.833 -145.833zM791.669 487.499c11.5088 0 20.8311 9.32812 20.8311 20.833
c0 11.5156 -9.33105 20.834 -20.8311 20.834c-11.5195 0 -20.8379 -9.3291 -20.8379 -20.834c0 -11.5117 9.32715 -20.833 20.8379 -20.833zM791.669 362.499c-80.54 0 -145.838 65.2979 -145.838 145.833c0 80.5449 65.3057 145.834 145.838 145.834
c80.5371 0 145.831 -65.2998 145.831 -145.834c0 -80.543 -65.3027 -145.833 -145.831 -145.833zM583.333 154.169c11.5195 0 20.8359 9.32715 20.8359 20.832c0 11.5117 -9.32812 20.833 -20.8359 20.833c-11.5146 0 -20.833 -9.32812 -20.833 -20.833
c0 -11.5166 9.32422 -20.832 20.833 -20.832zM583.333 29.1689c-80.5381 0 -145.833 65.2959 -145.833 145.832c0 80.541 65.3008 145.833 145.833 145.833c80.5391 0 145.836 -65.2979 145.836 -145.833c0 -80.5479 -65.3076 -145.832 -145.836 -145.832zM423.333 357.501
l-48.5068 -39.4121l97.5 -120l48.5068 39.4121l48.5068 39.4121l-97.5 120zM628.669 244.666l53.1523 -32.8799l118.206 191.084l-53.1523 32.8799l-53.1523 32.8809l-118.206 -191.084z" />
  </g>

</svg>
