<?xml version="1.0" standalone="no"?>
<!DOCTYPE svg PUBLIC "-//W3C//DTD SVG 1.1//EN" "http://www.w3.org/Graphics/SVG/1.1/DTD/svg11.dtd" >
<svg xmlns="http://www.w3.org/2000/svg" xmlns:xlink="http://www.w3.org/1999/xlink" version="1.1" viewBox="-10 0 1010 1000">
  <g transform="matrix(1 0 0 -1 0 800)">
   <path fill="currentColor"
d="M500 195.832c-57.5479 0 -104.167 46.6455 -104.167 104.167c0 57.5479 46.6465 104.167 104.167 104.167c57.5469 0 104.167 -46.6455 104.167 -104.167c0 -57.5479 -46.6465 -104.167 -104.167 -104.167zM530.745 125.607l5.42188 -30.7764l10.8438 -61.5527
c-52.7451 -9.29297 -107.066 -2.74707 -156.098 18.8271c-49.0371 21.5811 -90.5615 57.2061 -119.343 102.39c-28.7773 45.1738 -43.5146 97.875 -42.3438 151.428s18.1953 105.556 48.9209 149.435c30.7275 43.8789 73.7754 77.6572 123.7 97.0693
c49.9268 19.4121 104.484 23.584 156.781 11.9863c52.2949 -11.5957 99.9775 -38.4404 137.018 -77.1348c37.0439 -38.7051 61.7686 -87.5059 71.0723 -140.258l-61.5508 -10.8545l-61.5498 -10.8545c-5.00977 28.4082 -18.335 54.7021 -38.2666 75.5273
c-19.9492 20.8398 -45.626 35.2939 -73.7852 41.5381c-28.1582 6.24414 -57.5381 3.99805 -84.4189 -6.45312c-26.8848 -10.4541 -50.0635 -28.6426 -66.6084 -52.2686c-16.5439 -23.626 -25.7119 -51.6289 -26.3428 -80.4648
c-0.629883 -28.8379 7.30371 -57.2109 22.8027 -81.54c15.4941 -24.3252 37.8623 -43.5146 64.2549 -55.1299c26.3984 -11.6152 55.6543 -15.1436 84.0684 -10.1377zM125 300h62.5c0 -61.8066 18.3271 -122.223 52.666 -173.615
c34.3389 -51.3906 83.1455 -91.4482 140.245 -115.098c57.1016 -23.6514 119.937 -29.8389 180.555 -17.7822c60.6211 12.0586 116.293 41.8125 160.005 85.5293c43.7061 43.7012 73.4668 99.3818 85.5244 159.999c12.0566 60.6201 5.86914 123.454 -17.7822 180.556
c-23.6494 57.0996 -63.707 105.906 -115.098 140.245c-51.3926 34.3389 -111.809 52.666 -173.615 52.666v62.5v62.5c86.5293 0 171.114 -25.6592 243.062 -73.7324c71.9443 -48.0713 128.024 -116.398 161.138 -196.345
c33.1113 -79.9434 41.7734 -167.909 24.8945 -252.774c-16.8809 -84.8652 -58.5459 -162.82 -119.74 -224.008c-61.1748 -61.1826 -139.141 -102.854 -224.001 -119.734c-84.8672 -16.8789 -172.832 -8.2168 -252.774 24.8945
c-79.9453 33.1123 -148.273 89.1934 -196.346 161.14c-48.0732 71.9463 -73.7324 156.531 -73.7324 243.061h62.5z" />
  </g>

</svg>
