<?xml version="1.0" standalone="no"?>
<!DOCTYPE svg PUBLIC "-//W3C//DTD SVG 1.1//EN" "http://www.w3.org/Graphics/SVG/1.1/DTD/svg11.dtd" >
<svg xmlns="http://www.w3.org/2000/svg" xmlns:xlink="http://www.w3.org/1999/xlink" version="1.1" viewBox="-10 0 1010 1000">
  <g transform="matrix(1 0 0 -1 0 800)">
   <path fill="currentColor"
d="M125 50v-62.5h583.331v62.5v62.5h-583.331v-62.5zM375 425l44.1943 44.1943l125 -125l44.1943 -44.1943l-44.1943 -44.1943l-125 -125l-44.1943 44.1943l-44.1943 44.1943l80.8057 80.8057l-80.8057 80.8057zM583.333 175l44.1943 44.1943l124.998 -125l44.1934 -44.1943
l-44.1934 -44.1943l-124.998 -125l-44.1943 44.1943l-44.1943 44.1943l80.8047 80.8057l-80.8047 80.8057zM125 675h62.5v-750h-62.5h-62.5v750h62.5zM125 300v-62.5h375v62.5v62.5h-375v-62.5zM750 675l44.1943 44.1943l125 -125l44.1943 -44.1943l-44.1943 -44.1943
l-125 -125l-44.1943 44.1943l-44.1943 44.1943l80.8057 80.8057l-80.8057 80.8057zM125 550v-62.5h750v62.5v62.5h-750v-62.5z" />
  </g>

</svg>
