<?xml version="1.0" standalone="no"?>
<!DOCTYPE svg PUBLIC "-//W3C//DTD SVG 1.1//EN" "http://www.w3.org/Graphics/SVG/1.1/DTD/svg11.dtd" >
<svg xmlns="http://www.w3.org/2000/svg" xmlns:xlink="http://www.w3.org/1999/xlink" version="1.1" viewBox="-10 0 1010 1000">
  <g transform="matrix(1 0 0 -1 0 800)">
   <path fill="currentColor"
d="M250 70.8311c34.5244 0 62.5 27.9775 62.5 62.5c0 34.5303 -27.9746 62.5029 -62.5 62.5029s-62.5 -27.9727 -62.5 -62.5029c0 -34.5225 27.9756 -62.5 62.5 -62.5zM250 -54.1689c-103.546 0 -187.5 83.96 -187.5 187.5c0 103.546 83.9561 187.503 187.5 187.503
s187.5 -83.9561 187.5 -187.503c0 -103.54 -83.9541 -187.5 -187.5 -187.5zM666.669 -12.5c11.5117 0 20.8311 9.32715 20.8311 20.8311c0 11.5186 -9.33398 20.8379 -20.8311 20.8379c-11.5156 0 -20.8359 -9.32812 -20.8359 -20.8379
c0 -11.5127 9.32422 -20.8311 20.8359 -20.8311zM666.669 -137.5c-80.5391 0 -145.836 65.2949 -145.836 145.831c0 80.542 65.2998 145.838 145.836 145.838c80.54 0 145.831 -65.3047 145.831 -145.838c0 -80.5449 -65.3057 -145.831 -145.831 -145.831zM604.167 362.5
c69.043 0 125.002 55.957 125.002 125s-55.959 125 -125.002 125c-69.0449 0 -125 -55.9561 -125 -125s55.9551 -125 125 -125zM604.167 237.5c-138.062 0 -250 111.938 -250 250s111.938 250 250 250c138.06 0 250.002 -111.938 250.002 -250s-111.942 -250 -250.002 -250z
" />
  </g>

</svg>
