<?xml version="1.0" standalone="no"?>
<!DOCTYPE svg PUBLIC "-//W3C//DTD SVG 1.1//EN" "http://www.w3.org/Graphics/SVG/1.1/DTD/svg11.dtd" >
<svg xmlns="http://www.w3.org/2000/svg" xmlns:xlink="http://www.w3.org/1999/xlink" version="1.1" viewBox="-10 0 1010 1000">
  <g transform="matrix(1 0 0 -1 0 800)">
   <path fill="currentColor"
d="M312.5 237.5h-125v-208.331h125v208.331zM333.333 362.5c57.5479 0 104.167 -46.6465 104.167 -104.167v-250.002c0 -28.6396 -11.7695 -54.918 -30.5137 -73.6582c-18.7393 -18.7373 -45.0283 -30.5039 -73.6533 -30.5039h-166.666
c-28.6348 0 -54.9092 11.7627 -73.6533 30.5039c-18.7402 18.7363 -30.5137 45.0273 -30.5137 73.6582v250.002c0 28.6396 11.7686 54.916 30.5098 73.6572c18.7373 18.7373 45.0264 30.5098 73.6572 30.5098h166.666zM562.5 404.166h-125v-374.997h125v374.997z
M583.333 529.166c57.5479 0 104.167 -46.6455 104.167 -104.167v-416.668c0 -28.6396 -11.7695 -54.918 -30.5137 -73.6582c-18.7393 -18.7373 -45.0283 -30.5039 -73.6533 -30.5039h-166.666c-28.6348 0 -54.9092 11.7627 -73.6533 30.5039
c-18.7402 18.7363 -30.5137 45.0273 -30.5137 73.6582v416.668c0 28.6396 11.7686 54.916 30.5098 73.6572c18.7383 18.7383 45.0273 30.5098 73.6572 30.5098h166.666zM812.5 570.834h-125v-541.665h125v541.665zM833.331 695.834
c57.5439 0 104.169 -46.6416 104.169 -104.166v-583.337c0 -28.6416 -11.7715 -54.915 -30.5127 -73.6543c-18.7363 -18.7354 -45.0244 -30.5078 -73.6562 -30.5078h-166.662c-28.6406 0 -54.916 11.7686 -73.6562 30.5078
c-18.7373 18.7344 -30.5127 45.0225 -30.5127 73.6543v583.337c0 28.6406 11.7695 54.917 30.5117 73.6582c18.7393 18.7373 45.0283 30.5078 73.6572 30.5078h166.662zM166.667 -33.3311v-62.5h583.333v62.5v62.5h-583.333v-62.5z" />
  </g>

</svg>
