<?xml version="1.0" standalone="no"?>
<!DOCTYPE svg PUBLIC "-//W3C//DTD SVG 1.1//EN" "http://www.w3.org/Graphics/SVG/1.1/DTD/svg11.dtd" >
<svg xmlns="http://www.w3.org/2000/svg" xmlns:xlink="http://www.w3.org/1999/xlink" version="1.1" viewBox="-10 0 1010 1000">
  <g transform="matrix(1 0 0 -1 0 800)">
   <path fill="currentColor"
d="M270.833 487.5v-83.333h-41.666v83.333h41.666zM291.667 612.5h-83.334c-28.6309 0 -54.9199 -11.7725 -73.6572 -30.5107c-18.7412 -18.7422 -30.5088 -45.0176 -30.5088 -73.6562v-125c0 -28.6289 11.7715 -54.9189 30.5098 -73.6562
c18.7412 -18.7422 45.0176 -30.5098 73.6562 -30.5098h83.334c28.6289 0 54.9189 11.7715 73.6562 30.5098c18.7422 18.7412 30.5098 45.0176 30.5098 73.6562v125c0 57.5186 -46.6162 104.167 -104.166 104.167zM250 633.334h62.5v-83.333h-62.5h-62.5v83.333h62.5z
M250 341.666h62.5v-374.997h-62.5h-62.5v374.997h62.5zM520.833 154.166h-41.666v-83.335h41.666v83.335zM541.667 279.166c57.5479 0 104.166 -46.6465 104.166 -104.166v-125c0 -28.6387 -11.7666 -54.9141 -30.5078 -73.6562
c-18.7373 -18.7393 -45.0273 -30.5127 -73.6582 -30.5127h-83.334c-28.6406 0 -54.917 11.7695 -73.6582 30.5127c-18.7373 18.7383 -30.5078 45.0273 -30.5078 73.6562v125c0 28.6387 11.7676 54.9141 30.5088 73.6562c18.7383 18.7383 45.0273 30.5098 73.6572 30.5098
h83.334zM500 633.334h-62.5v-416.666h62.5h62.5v416.666h-62.5zM500 8.33105h-62.5v-41.6621h62.5h62.5v41.6621h-62.5zM770.831 529.166v-125h-41.6621v125h41.6621zM791.669 654.166h-83.3379c-28.6299 0 -54.9209 -11.7725 -73.6582 -30.5127
c-18.7412 -18.7451 -30.5039 -45.0205 -30.5039 -73.6543v-166.667c0 -28.625 11.7676 -54.9141 30.5049 -73.6533c18.7412 -18.7441 45.0186 -30.5127 73.6572 -30.5127h83.3379c28.6289 0 54.9199 11.7725 73.6572 30.5127
c18.7422 18.7432 30.5049 45.0186 30.5049 73.6533v166.667c0 57.5107 -46.6064 104.167 -104.162 104.167zM750 633.334h62.5v-41.666h-62.5h-62.5v41.666h62.5zM750 341.666h62.5v-374.997h-62.5h-62.5v374.997h62.5z" />
  </g>

</svg>
