<?xml version="1.0" standalone="no"?>
<!DOCTYPE svg PUBLIC "-//W3C//DTD SVG 1.1//EN" "http://www.w3.org/Graphics/SVG/1.1/DTD/svg11.dtd" >
<svg xmlns="http://www.w3.org/2000/svg" xmlns:xlink="http://www.w3.org/1999/xlink" version="1.1" viewBox="-10 0 1010 1000">
  <g transform="matrix(1 0 0 -1 0 800)">
   <path fill="currentColor"
d="M395.834 595.5c-40.8965 -14.6826 -78.1523 -37.5918 -109.744 -67.6123c-40.4189 -38.4082 -69.8242 -86.9277 -85.168 -140.533c-15.3447 -53.6025 -16.0674 -110.336 -2.0957 -164.312c13.9727 -53.9775 42.1348 -103.237 81.5557 -142.659
c39.4258 -39.4219 88.6924 -67.5869 142.656 -81.5586c53.9854 -13.9707 110.708 -13.252 164.318 2.09961c53.6035 15.3438 102.124 44.749 140.529 85.165c29.9873 31.5566 53.2402 69.7109 67.6143 109.743h-253.834c-38.6777 0 -75.7715 15.3652 -103.12 42.7139
c-27.3496 27.3496 -42.7129 64.4434 -42.7129 103.12v253.833h0.000976562zM402.552 727.552l3.37793 0.783203l3.44434 0.405273c13.1562 1.5459 26.4824 0.459961 39.2041 -3.18555c12.7051 -3.63574 24.6055 -9.78809 34.9229 -18.04
c10.3604 -8.28906 18.9287 -18.5068 25.2783 -30.1182c6.3584 -11.6318 10.3311 -24.3779 11.7129 -37.5381l0.341797 -3.25391v-3.27148v-291.666c0 -5.52637 2.19531 -10.8252 6.10156 -14.7314c3.90723 -3.90723 9.20605 -6.10254 14.7314 -6.10254h283.333
c27.623 0 54.1211 -10.9697 73.6621 -30.5146c8.66895 -8.6709 15.668 -18.7354 20.7549 -29.6484c6.35742 -13.6406 9.75195 -28.6523 9.75195 -44.0029v-7.15039l-1.61523 -6.9668c-17.6309 -76.042 -55.2852 -145.981 -109.054 -202.564
s-121.699 -97.7529 -196.745 -119.233c-75.0381 -21.4873 -154.475 -22.4932 -230.033 -2.93945c-75.5811 19.5674 -144.526 58.9883 -199.725 114.181c-55.2002 55.2021 -94.6201 124.155 -114.184 199.726c-19.5596 75.5693 -18.5479 154.993 2.93359 230.038
c21.4814 75.043 62.6504 142.977 119.236 196.747c56.585 53.7695 126.526 91.4219 202.567 109.05zM645.758 713.118c61.7246 -21.7334 117.783 -57.0371 164.054 -103.307c46.2754 -46.2725 81.5732 -102.335 103.31 -164.053l29.3213 -83.2607h-88.2725h-187.5
c-27.623 0 -54.1367 10.9863 -73.6465 30.5c-19.5508 19.541 -30.5225 46.0479 -30.5225 73.667v187.5v88.2686zM687.5 550.791v-63.292h63.2939c-8.38086 11.2148 -18.8457 23.4004 -29.3682 33.9229c-10.6289 10.6279 -21.9062 20.3867 -33.9258 29.3691z" />
  </g>

</svg>
