<?xml version="1.0" standalone="no"?>
<!DOCTYPE svg PUBLIC "-//W3C//DTD SVG 1.1//EN" "http://www.w3.org/Graphics/SVG/1.1/DTD/svg11.dtd" >
<svg xmlns="http://www.w3.org/2000/svg" xmlns:xlink="http://www.w3.org/1999/xlink" version="1.1" viewBox="-10 0 1010 1000">
  <g transform="matrix(1 0 0 -1 0 800)">
   <path fill="currentColor"
d="M395.833 237.501c-92.0557 0 -166.667 74.6094 -166.667 166.667c0 92.0557 74.6113 166.666 166.667 166.666c92.0566 0 166.667 -74.6104 166.667 -166.666c0 -92.0576 -74.6094 -166.667 -166.667 -166.667zM395.833 112.501
c161.074 0 291.667 130.592 291.667 291.667c0 161.073 -130.593 291.666 -291.667 291.666c-161.072 0 -291.667 -130.593 -291.667 -291.666c0 -161.076 130.595 -291.667 291.667 -291.667zM604.167 29.1689c92.0557 0 166.664 74.6084 166.664 166.664
c0 92.0576 -74.6094 166.667 -166.664 166.667c-92.0566 0 -166.667 -74.6104 -166.667 -166.667c0 -92.0547 74.6094 -166.664 166.667 -166.664zM604.167 -95.8311c-161.074 0 -291.667 130.591 -291.667 291.664c0 161.074 130.593 291.667 291.667 291.667
c161.073 0 291.664 -130.593 291.664 -291.667c0 -161.073 -130.591 -291.664 -291.664 -291.664z" />
  </g>

</svg>
