<?xml version="1.0" standalone="no"?>
<!DOCTYPE svg PUBLIC "-//W3C//DTD SVG 1.1//EN" "http://www.w3.org/Graphics/SVG/1.1/DTD/svg11.dtd" >
<svg xmlns="http://www.w3.org/2000/svg" xmlns:xlink="http://www.w3.org/1999/xlink" version="1.1" viewBox="-10 0 1010 1000">
  <g transform="matrix(1 0 0 -1 0 800)">
   <path fill="currentColor"
d="M114.663 43l166.667 250.002l30.6045 45.9082l49.3496 -24.6748l121.475 -60.7373l135.105 168.88l43.623 54.5264l49.376 -49.377l166.662 -166.665l18.3057 -18.3066v-25.8877v-208.337v-62.5h-62.5h-666.664h-116.781zM283.448 70.8311h487.383v119.949
l-98.9805 98.9824l-123.047 -153.807l-31.5625 -39.4531l-45.1914 22.5957l-117.318 58.6582zM166.667 300.001l-50 37.5l125 166.667l31.2969 41.7295l46.6543 -23.3281l122.392 -61.1963l176.646 211.973l43.8145 52.5762l48.3936 -48.3945l166.662 -166.664
l-44.1943 -44.1943l-44.1943 -44.1934l-118.269 118.271l-164.521 -197.423l-31.6895 -38.0273l-44.2754 22.1377l-120.012 60.0068l-93.7031 -124.938z" />
  </g>

</svg>
