<?xml version="1.0" standalone="no"?>
<!DOCTYPE svg PUBLIC "-//W3C//DTD SVG 1.1//EN" "http://www.w3.org/Graphics/SVG/1.1/DTD/svg11.dtd" >
<svg xmlns="http://www.w3.org/2000/svg" xmlns:xlink="http://www.w3.org/1999/xlink" version="1.1" viewBox="-10 0 1010 1000">
  <g transform="matrix(1 0 0 -1 0 800)">
   <path fill="currentColor"
d="M395.833 595.5c-40.8965 -14.6836 -78.1514 -37.5908 -109.743 -67.6123c-40.4189 -38.4072 -69.8252 -86.9297 -85.1699 -140.533c-15.3438 -53.6025 -16.0674 -110.335 -2.09375 -164.312c13.9727 -53.9775 42.1338 -103.236 81.5557 -142.659
c39.4248 -39.4219 88.6904 -67.5869 142.656 -81.5586c53.9863 -13.9707 110.707 -13.252 164.317 2.09961c53.6055 15.3438 102.125 44.749 140.53 85.165c29.9873 31.5566 53.2402 69.7109 67.6143 109.743h-86.0459
c-11.208 -22.0352 -25.0664 -41.2314 -42.2227 -58.5791c-28.9014 -29.2217 -65.0293 -50.2998 -104.671 -61.0752c-39.6777 -10.793 -81.4688 -10.9043 -121.209 -0.34082c-39.7197 10.5684 -75.9463 31.4385 -105.012 60.5049
c-29.0645 29.0654 -49.9355 65.293 -60.5 105.015c-10.5664 39.7236 -10.4492 81.5332 0.333984 121.195c10.7842 39.666 31.8525 75.7734 61.0811 104.682c17.2314 17.041 37.9473 31.7266 58.5771 42.2197v86.0459h0.000976562zM402.552 727.552l3.37793 0.783203
l3.44434 0.405273c13.1562 1.5459 26.4824 0.459961 39.2041 -3.18555c12.708 -3.6377 24.5996 -9.7832 34.9258 -18.043c10.3477 -8.27734 18.9287 -18.5078 25.2754 -30.1152c6.3584 -11.6318 10.333 -24.3799 11.7129 -37.5459l0.34082 -3.25v-3.26758v-166.666v-48.3242
l-46.7676 -12.1631c-18.4688 -4.80371 -35.3428 -14.4014 -48.9131 -27.8223c-13.5645 -13.416 -23.3496 -30.1855 -28.3564 -48.5996c-5.00684 -18.417 -5.06055 -37.8291 -0.15625 -56.2686c4.90625 -18.4453 14.5957 -35.2646 28.0908 -48.7598
c13.4932 -13.4941 30.3164 -23.1865 48.7607 -28.0938c18.4258 -4.89844 37.8564 -4.8457 56.2588 0.160156c18.4375 5.01172 35.1846 14.7852 48.6094 28.3584c13.417 13.5674 23.0195 30.4463 27.8213 48.9111l12.1641 46.7676h48.3242h158.331
c27.623 0 54.1211 -10.9697 73.6621 -30.5146c8.66895 -8.6709 15.668 -18.7354 20.7549 -29.6484c6.35742 -13.6406 9.75195 -28.6523 9.75195 -44.0029v-7.15039l-1.61523 -6.9668c-17.6309 -76.042 -55.2852 -145.981 -109.054 -202.564
s-121.699 -97.7529 -196.747 -119.233c-75.0361 -21.4873 -154.473 -22.4932 -230.031 -2.93945c-75.5811 19.5674 -144.527 58.9883 -199.725 114.181c-55.2002 55.2012 -94.6201 124.155 -114.184 199.726c-19.5605 75.5674 -18.5498 154.994 2.93262 230.038
c21.4814 75.0449 62.6523 142.977 119.237 196.747c56.583 53.7695 126.526 91.4219 202.567 109.05zM645.758 713.118c61.7246 -21.7334 117.783 -57.0371 164.054 -103.307c46.2754 -46.2725 81.5732 -102.335 103.31 -164.053l29.3213 -83.2607h-88.2725h-187.5h-28.8164
l-18.7129 21.9131c-10.6484 12.4697 -22.2568 24.0791 -34.7217 34.7217l-21.918 18.7129v28.8193v187.5v88.2686zM687.5 550.791v-56.6318c1.7334 -1.69922 4.11523 -4.06348 6.66113 -6.66016h56.6328c-8.38086 11.2148 -18.8457 23.4004 -29.3682 33.9229
c-10.6289 10.6279 -21.9062 20.3867 -33.9258 29.3691z" />
  </g>

</svg>
