<?xml version="1.0" standalone="no"?>
<!DOCTYPE svg PUBLIC "-//W3C//DTD SVG 1.1//EN" "http://www.w3.org/Graphics/SVG/1.1/DTD/svg11.dtd" >
<svg xmlns="http://www.w3.org/2000/svg" xmlns:xlink="http://www.w3.org/1999/xlink" version="1.1" viewBox="-10 0 1010 1000">
  <g transform="matrix(1 0 0 -1 0 800)">
   <path fill="currentColor"
d="M750 -75h62.5v583.334h-62.5h-62.5v-583.334h62.5zM375 175l-44.1943 44.1943l125 125l44.1943 44.1943l44.1943 -44.1943l125 -125l-44.1943 -44.1943l-44.1943 -44.1943l-80.8057 80.8057l-80.8057 -80.8057zM625 383.334l-44.1943 44.1943l125 125l44.1943 44.1934
l44.1943 -44.1934l125 -125l-44.1943 -44.1943l-44.1943 -44.1943l-80.8057 80.8057l-80.8057 -80.8057zM125 -75v62.5h750v-62.5v-62.5h-750v62.5zM500 -75h62.5v375h-62.5h-62.5v-375h62.5zM125 550l-44.1943 44.1943l125 125l44.1943 44.1943l44.1943 -44.1943l125 -125
l-44.1943 -44.1943l-44.1943 -44.1943l-80.8057 80.8057l-80.8057 -80.8057zM250 -75h62.5v750h-62.5h-62.5v-750h62.5z" />
  </g>

</svg>
