<?xml version="1.0" standalone="no"?>
<!DOCTYPE svg PUBLIC "-//W3C//DTD SVG 1.1//EN" "http://www.w3.org/Graphics/SVG/1.1/DTD/svg11.dtd" >
<svg xmlns="http://www.w3.org/2000/svg" xmlns:xlink="http://www.w3.org/1999/xlink" version="1.1" viewBox="-10 0 1010 1000">
  <g transform="matrix(1 0 0 -1 0 800)">
   <path fill="currentColor"
d="M500 502.372l-45.7363 -54.8838l-92.5049 -111.005l28.3994 -7.09961l109.843 -27.46l109.841 27.46l28.3984 7.09961l-92.5039 111.005zM500 291.56l-84.9883 -70.8232l-54.8838 -45.7354h279.744l-54.8838 45.7354zM500 510.502l50.7393 25.3701l-50.7393 50.7393
l-50.7393 -50.7393zM700.444 562.944l61.3164 -61.3164l-69.4785 -34.7393l105.73 -126.877l63.7461 -76.4951l-96.6016 -24.1504l-5.5918 -1.39844l92.9453 -77.4541l132.616 -110.515h-172.628h-625h-172.628l132.616 110.515l92.9453 77.4541l-5.59277 1.39844
l-96.6025 24.1504l63.7471 76.4951l105.73 126.878l-69.4775 34.7383l61.3164 61.3164l156.25 156.25l44.1943 44.1943l44.1943 -44.1943zM593.75 91.6689h62.5v-166.669v-62.5h-62.5h-187.5h-62.5v62.5v166.669h62.5h62.5v-104.169h62.5v104.169h62.5z" />
  </g>

</svg>
