<?xml version="1.0" standalone="no"?>
<!DOCTYPE svg PUBLIC "-//W3C//DTD SVG 1.1//EN" "http://www.w3.org/Graphics/SVG/1.1/DTD/svg11.dtd" >
<svg xmlns="http://www.w3.org/2000/svg" xmlns:xlink="http://www.w3.org/1999/xlink" version="1.1" viewBox="-10 0 1010 1000">
  <g transform="matrix(1 0 0 -1 0 800)">
   <path fill="currentColor"
d="M375 237.5c103.562 0 187.5 83.9375 187.5 187.5s-83.9375 187.5 -187.5 187.5s-187.5 -83.9375 -187.5 -187.5s83.9375 -187.5 187.5 -187.5zM375 112.5c-172.58 0 -312.5 139.92 -312.5 312.5s139.92 312.5 312.5 312.5s312.5 -139.92 312.5 -312.5
s-139.92 -312.5 -312.5 -312.5zM795.456 300h-278.41c-9.42383 0 -17.0459 -7.62402 -17.0459 -17.0459v-278.41c0 -9.42188 7.62207 -17.0439 17.0459 -17.0439h278.41c9.42383 0 17.0439 7.62207 17.0439 17.0439v278.41c0 9.42578 -7.62402 17.0459 -17.0439 17.0459z
M795.456 425c78.4434 0 142.044 -63.6064 142.044 -142.046v-278.41c0 -78.4414 -63.6035 -142.044 -142.044 -142.044h-278.41c-78.4414 0 -142.046 63.6025 -142.046 142.044v278.41c0 78.4424 63.6045 142.046 142.046 142.046h278.41z" />
  </g>

</svg>
