<?xml version="1.0" standalone="no"?>
<!DOCTYPE svg PUBLIC "-//W3C//DTD SVG 1.1//EN" "http://www.w3.org/Graphics/SVG/1.1/DTD/svg11.dtd" >
<svg xmlns="http://www.w3.org/2000/svg" xmlns:xlink="http://www.w3.org/1999/xlink" version="1.1" viewBox="-10 0 1093 1000">
  <g transform="matrix(1 0 0 -1 0 800)">
   <path fill="currentColor"
d="M125 300v62.5h125v-62.5v-62.5h-125v62.5zM500 675h62.5v-125h-62.5h-62.5v125h62.5zM312.5 487.5l-44.1943 -44.1943l-125 125l44.1943 44.1943l44.1943 44.1943l125 -125zM687.5 487.5l-44.1943 44.1943l62.5 62.5l44.1943 -44.1943l44.1943 -44.1943l-62.5 -62.5z
M312.5 112.5l44.1943 -44.1943l-62.5 -62.5l-44.1943 44.1943l-44.1943 44.1943l62.5 62.5zM677.357 175l-78.5361 26.1787l26.1787 -78.5361l3.20703 9.62207l9.88281 29.6455l29.6455 9.88281zM894.765 234.293l177.878 -59.293l-177.878 -59.293l-157.854 -52.6172
l-52.6172 -157.854l-59.293 -177.878l-59.293 177.878l-125 375l-39.5283 118.587l118.586 -39.5283z" />
  </g>

</svg>
