<?xml version="1.0" standalone="no"?>
<!DOCTYPE svg PUBLIC "-//W3C//DTD SVG 1.1//EN" "http://www.w3.org/Graphics/SVG/1.1/DTD/svg11.dtd" >
<svg xmlns="http://www.w3.org/2000/svg" xmlns:xlink="http://www.w3.org/1999/xlink" version="1.1" viewBox="-10 0 1010 1000">
  <g transform="matrix(1 0 0 -1 0 800)">
   <path fill="currentColor"
d="M343.75 581.25v-62.5h-93.75v-531.25h500v531.25h-93.75v62.5v62.5h156.25h62.5v-62.5v-656.25v-62.5h-62.5h-625h-62.5v62.5v656.25v62.5h62.5h156.25v-62.5zM500 550c38.5176 0 86.8057 21.9053 93.3857 31.25c-6.81445 9.67676 -55.1152 31.25 -93.3857 31.25
c-38.5176 0 -86.8047 -21.9043 -93.3857 -31.251c6.81445 -9.67676 55.1143 -31.249 93.3857 -31.249zM500 425c-61.9102 0 -218.75 25.5283 -218.75 156.249c0 130.735 156.72 156.251 218.75 156.251c61.9111 0 218.75 -25.5293 218.75 -156.25
c0 -130.735 -156.721 -156.25 -218.75 -156.25z" />
  </g>

</svg>
