<?xml version="1.0" standalone="no"?>
<!DOCTYPE svg PUBLIC "-//W3C//DTD SVG 1.1//EN" "http://www.w3.org/Graphics/SVG/1.1/DTD/svg11.dtd" >
<svg xmlns="http://www.w3.org/2000/svg" xmlns:xlink="http://www.w3.org/1999/xlink" version="1.1" viewBox="-10 0 1020 1000">
  <g transform="matrix(1 0 0 -1 0 800)">
   <path fill="currentColor"
d="M291.667 -12.5c-67.7637 0 -133.096 25.6572 -181.81 72.2529c-48.7324 46.6113 -76.7139 110.593 -76.7139 177.747c0 67.1533 27.9834 131.139 76.7119 177.746c37.5225 35.8926 85.3975 59.2891 135.287 68.1748c23.0938 53.8428 62.9668 98.1836 114.324 128.868
c32.3096 19.3047 68.1445 32.4922 105.593 39.0918c37.4492 6.59863 75.8389 6.49707 113.249 -0.304688c37.415 -6.80273 73.1562 -20.1816 105.362 -39.6699c32.1836 -19.4814 60.2041 -44.7236 82.2363 -74.5928c22.0293 -29.8633 37.6113 -63.7852 45.4385 -99.7598
c2.47168 -11.3604 4.11523 -22.833 5.04102 -34.3574c46.7812 -5.67676 89.3916 -26.3467 122.592 -59.5479c39.0742 -39.0713 61.0205 -92.0635 61.0205 -147.314c0 -55.25 -21.9473 -108.246 -61.0176 -147.314c-39.0723 -39.0723 -92.0645 -61.0186 -147.312 -61.0186
h-500.002v-0.000976562zM291.667 112.5h500.002c22.1006 0 43.2959 8.7793 58.9229 24.4062c15.6309 15.6299 24.4082 36.8232 24.4082 58.9277s-8.77832 43.2979 -24.4053 58.9238c-15.6309 15.6309 -36.8271 24.4092 -58.9258 24.4092h-41.6689h-78.0879l17.1055 76.1914
c4.09961 18.2559 4.16113 36.8545 0.186523 55.1211c-3.97363 18.2627 -11.9531 35.9512 -23.8887 52.1309c-11.9287 16.1719 -27.6084 30.502 -46.373 41.8604c-18.7578 11.3506 -40.2178 19.4805 -62.9912 23.6211c-22.7812 4.1416 -46.3867 4.20508 -69.1973 0.185547
s-44.3242 -12.0322 -63.1719 -23.293c-38.1592 -22.7998 -62.6904 -56.9551 -70.9326 -93.6729l-10.9561 -48.8115h-50.0264c-36.2168 0 -70.6006 -13.8545 -95.4072 -37.583c-24.7949 -23.7148 -38.1162 -55.1133 -38.1162 -87.417
c0 -32.3018 13.3232 -63.7021 38.1152 -87.415c24.8086 -23.7305 59.1934 -37.585 95.4082 -37.585z" />
  </g>

</svg>
