<?xml version="1.0" standalone="no"?>
<!DOCTYPE svg PUBLIC "-//W3C//DTD SVG 1.1//EN" "http://www.w3.org/Graphics/SVG/1.1/DTD/svg11.dtd" >
<svg xmlns="http://www.w3.org/2000/svg" xmlns:xlink="http://www.w3.org/1999/xlink" version="1.1" viewBox="-10 0 1010 1000">
  <g transform="matrix(1 0 0 -1 0 800)">
   <path fill="currentColor"
d="M250 425l44.1943 -44.1943l-80.8057 -80.8066l80.8057 -80.8047l-44.1943 -44.1943l-44.1943 -44.1943l-125 124.999l-44.1943 44.1934l44.1943 44.1943l125 125.002zM750 425l-44.1943 -44.1943l80.8057 -80.8066l-80.8057 -80.8047l44.1943 -44.1943l44.1943 -44.1943
l125 124.999l44.1943 44.1934l-44.1943 44.1943l-125 125.002zM562.503 675l61.6494 -10.2754l-125 -750l-61.6494 10.2754l-61.6494 10.2754l125 750zM750 425l44.1943 44.1943l125 -125.002l44.1943 -44.1943l-44.1943 -44.1934l-125 -124.999l-44.1943 44.1943
l-44.1943 44.1943l80.8057 80.8047l-80.8057 80.8066zM562.503 675l61.6494 -10.2754l-125 -750l-61.6494 10.2754l-61.6494 10.2754l125 750zM562.503 675l-61.6494 10.2754l-125 -750l61.6494 -10.2754l61.6494 -10.2754l125 750z" />
  </g>

</svg>
