<?xml version="1.0" standalone="no"?>
<!DOCTYPE svg PUBLIC "-//W3C//DTD SVG 1.1//EN" "http://www.w3.org/Graphics/SVG/1.1/DTD/svg11.dtd" >
<svg xmlns="http://www.w3.org/2000/svg" xmlns:xlink="http://www.w3.org/1999/xlink" version="1.1" viewBox="-10 0 1010 1000">
  <g transform="matrix(1 0 0 -1 0 800)">
   <path fill="currentColor"
d="M214.14 371.212l-66.2754 -71.2227l66.2471 -71.2295c10.332 -11.1064 18.4746 -23.915 24.1367 -37.7305c5.50977 -13.4434 8.67773 -27.8574 9.24512 -42.6035l3.75391 -97.6641l96.7334 -3.29199c9.0752 -0.308594 18.0312 -1.60352 26.7119 -3.82324
c20.1201 -5.14453 38.7852 -15.2617 54.1914 -29.5977l71.126 -66.1836c-0.115234 -0.106445 -0.229492 -0.212891 0 0l71.1172 66.1406c11.1738 10.3965 24.0693 18.5752 37.9746 24.2412c13.5332 5.51367 28.0322 8.65527 42.8711 9.16602l96.7607 3.3252l3.71777 97.6416
c0.561523 14.7588 3.72949 29.1865 9.24219 42.6406c5.66406 13.8232 13.8242 26.6553 24.1592 37.7578l66.2822 71.2314c0.106445 -0.115234 0.212891 -0.229492 0 0l-67.0986 72.1475c-3.92383 4.21875 -7.53516 8.68652 -10.8145 13.3623
c-9.60449 13.6943 -16.3613 29.1738 -19.873 45.5264c-1.20117 5.58887 -2.01953 11.2568 -2.44727 17.0244l-7.78125 105.22h-88.7451c-6.97266 0 -13.8945 0.583008 -20.6914 1.72461c-17.9912 3.02051 -35.1074 9.94043 -50.1553 20.292
c-5.01562 3.45117 -9.79883 7.28027 -14.3057 11.4746l-70.2236 65.3467l-71.1279 -66.1826c-10.8682 -10.1133 -23.3672 -18.1309 -36.8438 -23.7773c-13.8496 -5.80273 -28.7588 -9.1123 -44.0039 -9.63672l-96.8027 -3.33398l-3.67969 -97.5469
c-0.216797 -5.74023 -0.828125 -11.4336 -1.81836 -17.0381c-4.17383 -23.6162 -15.0781 -45.6641 -31.583 -63.4004zM122.63 456.365c0 0 0.000976562 0.00195312 0.000976562 0.00488281l3.67773 97.5381c1.2168 32.252 14.7783 61.6318 35.9092 83.0586
c21.6299 21.9336 51.6699 36.0186 84.7002 37.1562l96.8027 3.33398l71.1279 66.1826c23.917 22.2529 54.7002 33.4883 85.1514 33.4873c30.4512 0 61.2373 -11.2373 85.1514 -33.4893l70.2266 -65.3477h88.7412c33.0088 0 63.4834 -13.0107 85.8516 -34.1436
c21.8496 -20.6455 36.4326 -49.4912 38.8096 -81.6377l7.78027 -105.214l0.00195312 -0.00390625l67.1045 -72.1533c22.2393 -23.9092 33.4717 -54.6963 33.4688 -85.1416c-0.00292969 -30.4463 -11.2383 -61.2256 -33.4844 -85.1348l-66.291 -71.2383l-3.71777 -97.6396
c-1.25488 -33.0127 -15.4443 -63.0039 -37.4492 -84.5547c-21.4971 -21.0527 -50.9199 -34.5098 -83.166 -35.6172l-96.7568 -3.3252l-71.1318 -66.1543c-23.9092 -22.2393 -54.6963 -33.4717 -85.1416 -33.4688c-30.4463 0.00292969 -61.2256 11.2383 -85.1348 33.4844
l-71.1357 66.1934l-96.7285 3.28809c-32.2627 1.10156 -61.6738 14.5449 -83.1797 35.5918c-22.0117 21.542 -36.2109 51.5225 -37.4795 84.541l-3.75391 97.6621l-66.252 71.2354c-22.2422 23.9131 -33.4727 54.6982 -33.4688 85.1445
c0.00292969 30.4463 11.2402 61.2266 33.4883 85.1357zM500 237.5c34.5264 0 62.5 27.9736 62.5 62.5s-27.9736 62.5 -62.5 62.5s-62.5 -27.9736 -62.5 -62.5s27.9736 -62.5 62.5 -62.5zM500 112.5c-103.544 0 -187.5 83.9561 -187.5 187.5s83.9561 187.5 187.5 187.5
s187.5 -83.9561 187.5 -187.5s-83.9561 -187.5 -187.5 -187.5z" />
  </g>

</svg>
