<?xml version="1.0" standalone="no"?>
<!DOCTYPE svg PUBLIC "-//W3C//DTD SVG 1.1//EN" "http://www.w3.org/Graphics/SVG/1.1/DTD/svg11.dtd" >
<svg xmlns="http://www.w3.org/2000/svg" xmlns:xlink="http://www.w3.org/1999/xlink" version="1.1" viewBox="-10 0 1010 1000">
  <g transform="matrix(1 0 0 -1 0 800)">
   <path fill="currentColor"
d="M791.669 612.5c5.51953 0 10.8213 -2.19238 14.7363 -6.10742c3.88965 -3.88965 6.09473 -9.20605 6.09473 -14.7256v-499.998c0 -27.6289 -10.9775 -54.1299 -30.5107 -73.667c-19.5195 -19.5156 -46.0322 -30.502 -73.6582 -30.502
c-27.6211 0 -54.1211 10.9766 -73.6592 30.5107c-19.5244 19.5254 -30.5049 46.0283 -30.5049 73.6582v499.998c0 5.52637 2.19531 10.8252 6.10156 14.7314c3.9043 3.9043 9.20801 6.10156 14.7314 6.10156h166.669zM791.669 737.5h-166.669
c-38.6797 0 -75.7686 -15.3643 -103.12 -42.7129c-27.3496 -27.3496 -42.7129 -64.4434 -42.7129 -103.12v-499.998c0 -60.7832 24.1387 -119.067 67.125 -162.056c42.9746 -42.9658 101.26 -67.1133 162.039 -67.1133c60.7871 0 119.062 24.1387 162.056 67.1221
c42.9668 42.9756 67.1133 101.264 67.1133 162.047v499.998c0 38.6836 -15.3574 75.7598 -42.7178 103.126c-27.3467 27.3389 -64.4336 42.707 -103.113 42.707zM541.667 493.749l44.1943 44.1934l-83.3389 83.3398c-27.3496 27.3438 -64.4385 42.6992 -103.105 42.6992
c-38.6699 0 -75.749 -15.3506 -103.11 -42.7041l-117.839 -117.84c-27.3398 -27.3477 -42.6992 -64.4346 -42.6992 -103.104c0 -38.6729 15.3535 -75.75 42.7061 -103.11l375 -374.997l44.1934 44.1943l44.1943 44.1943l-375 374.997
c-3.89453 3.89551 -6.09375 9.2002 -6.09375 14.7227c0 5.52344 2.19336 10.8213 6.09961 14.7285l117.827 117.827c3.89355 3.8916 9.19727 6.0918 14.7227 6.0918c5.52637 0 10.8232 -2.19434 14.7275 -6.09766l83.3281 -83.3291zM304.167 258.334v-62.5h-95.834
c-5.52441 0 -10.8262 -2.19727 -14.7295 -6.10059c-3.9082 -3.9082 -6.10352 -9.20996 -6.10352 -14.7334v-166.669c0 -5.51562 2.20215 -10.8301 6.09766 -14.7266c3.90918 -3.90918 9.21289 -6.10449 14.7354 -6.10449h499.998v-62.5v-62.5h-499.998
c-38.6797 0 -75.7686 15.3662 -103.115 42.708c-27.3584 27.3652 -42.7178 64.4404 -42.7178 103.123v166.669c0 38.6787 15.3662 75.7705 42.7119 103.118c27.3516 27.3525 64.4434 42.7158 103.121 42.7158h95.834v-62.5v0z" />
  </g>

</svg>
