<?xml version="1.0" standalone="no"?>
<!DOCTYPE svg PUBLIC "-//W3C//DTD SVG 1.1//EN" "http://www.w3.org/Graphics/SVG/1.1/DTD/svg11.dtd" >
<svg xmlns="http://www.w3.org/2000/svg" xmlns:xlink="http://www.w3.org/1999/xlink" version="1.1" viewBox="-10 0 1010 1000">
  <g transform="matrix(1 0 0 -1 0 800)">
   <path fill="currentColor"
d="M458.333 508.333l-44.1943 -44.1943l249.998 -250l44.1943 44.1943l44.1943 44.1943l-249.998 250zM122.473 177.525l487.723 487.722c19.9111 19.5195 45.7773 29.9971 73.1367 29.9971c27.3428 0 53.2363 -10.4795 73.1445 -29.998l108.768 -108.769
c19.5254 -19.9141 30.001 -45.7891 30.001 -73.1436c0 -27.3447 -10.4902 -53.2471 -30.0029 -73.1445l-487.714 -487.716l-18.3057 -18.3057h-25.8887h-166.666h-62.5v62.5v166.662v25.8887zM229.167 107.443v-78.2744h78.2773l454.165 454.166l-78.2754 78.2764z" />
  </g>

</svg>
