<?xml version="1.0" standalone="no"?>
<!DOCTYPE svg PUBLIC "-//W3C//DTD SVG 1.1//EN" "http://www.w3.org/Graphics/SVG/1.1/DTD/svg11.dtd" >
<svg xmlns="http://www.w3.org/2000/svg" xmlns:xlink="http://www.w3.org/1999/xlink" version="1.1" viewBox="-10 0 1010 1000">
  <g transform="matrix(1 0 0 -1 0 800)">
   <path fill="currentColor"
d="M416.667 695.833c27.624 0 54.126 -10.9785 73.6543 -30.5078c19.5391 -19.5371 30.5117 -46.0342 30.5117 -73.6592v-583.335c0 -27.623 -10.9717 -54.123 -30.5127 -73.6592c-19.5391 -19.5361 -46.0352 -30.5029 -73.6533 -30.5029h-166.667
c-27.6182 0 -54.1143 10.9678 -73.6523 30.501c-19.5439 19.54 -30.5146 46.0381 -30.5146 73.6611v583.335c0 27.625 10.9746 54.124 30.5098 73.6572c19.5352 19.5342 46.0312 30.5098 73.6572 30.5098h166.667zM395.833 570.833h-125v-541.664h125v541.664zM625 300v62.5
h166.669v-62.5v-62.5h-166.669v62.5zM708.331 383.333h62.5v-166.667h-62.5h-62.5v166.667h62.5z" />
  </g>

</svg>
