<?xml version="1.0" standalone="no"?>
<!DOCTYPE svg PUBLIC "-//W3C//DTD SVG 1.1//EN" "http://www.w3.org/Graphics/SVG/1.1/DTD/svg11.dtd" >
<svg xmlns="http://www.w3.org/2000/svg" xmlns:xlink="http://www.w3.org/1999/xlink" version="1.1" viewBox="-10 0 1010 1000">
  <g transform="matrix(1 0 0 -1 0 800)">
   <path fill="currentColor"
d="M750 695.833c27.623 0 54.123 -10.9707 73.6602 -30.5127c19.5244 -19.5273 30.5088 -46.0146 30.5088 -73.6543v-583.335c0 -27.6387 -10.9824 -54.126 -30.5117 -73.6562c-19.5439 -19.5439 -46.042 -30.5059 -73.6572 -30.5059h-166.667
c-27.6172 0 -54.1162 10.9688 -73.6514 30.501c-19.5439 19.54 -30.5146 46.0381 -30.5146 73.6611v583.335c0 27.624 10.9766 54.125 30.5078 73.6553c19.5352 19.5371 46.0322 30.5117 73.6582 30.5117h166.667zM729.169 570.833h-125.002v-541.664h125.002v541.664z
M208.333 300v62.5h166.667v-62.5v-62.5h-166.667v62.5zM291.667 383.333h62.5v-166.667h-62.5h-62.5v166.667h62.5z" />
  </g>

</svg>
