<?xml version="1.0" standalone="no"?>
<!DOCTYPE svg PUBLIC "-//W3C//DTD SVG 1.1//EN" "http://www.w3.org/Graphics/SVG/1.1/DTD/svg11.dtd" >
<svg xmlns="http://www.w3.org/2000/svg" xmlns:xlink="http://www.w3.org/1999/xlink" version="1.1" viewBox="-10 0 1010 1000">
  <g transform="matrix(1 0 0 -1 0 800)">
   <path fill="currentColor"
d="M645.832 -40.709l-97.0469 -48.5234l-106.694 -53.3486l16.8711 118.089l16.415 114.896l-61.2373 61.2354l-85.8789 85.8779l119.798 19.9658l93.6064 15.6016l48.2637 96.5322l55.9014 111.807l55.9033 -111.806l48.2666 -96.5332l93.6064 -15.6016l119.795 -19.9658
l-85.875 -85.877l-61.2354 -61.2363l16.4121 -114.896l16.8682 -118.085l-106.689 53.3447zM617.88 85.0703l27.9512 13.9756l27.9512 -13.9756l18.3096 -9.1543l-3.96387 27.7461l-4.41895 30.9346l19.5518 19.5527l-5.2041 0.867188l-31.3936 5.23242l-14.2334 28.4668
l-6.59766 13.1943l-6.5957 -13.1943l-14.2334 -28.4668l-31.3945 -5.23242l-5.20117 -0.867188l19.5527 -19.5527l-4.41992 -30.9365l-3.96387 -27.7422zM166.666 633.334l44.1943 44.1934l291.666 -291.666l-44.1943 -44.1943l-44.1943 -44.1943l-291.666 291.667z
M375 633.334l44.1943 44.1934l145.833 -145.833l-44.1943 -44.1943l-44.1943 -44.1943l-145.833 145.834zM166.666 425l44.1943 44.1943l145.833 -145.833l-44.1943 -44.1943l-44.1943 -44.1943l-145.833 145.833z" />
  </g>

</svg>
