<?xml version="1.0" standalone="no"?>
<!DOCTYPE svg PUBLIC "-//W3C//DTD SVG 1.1//EN" "http://www.w3.org/Graphics/SVG/1.1/DTD/svg11.dtd" >
<svg xmlns="http://www.w3.org/2000/svg" xmlns:xlink="http://www.w3.org/1999/xlink" version="1.1" viewBox="-10 0 1010 1000">
  <g transform="matrix(1 0 0 -1 0 800)">
   <path fill="currentColor"
d="M598.213 523.215v44.6416c0 33.5674 9.94434 66.333 28.5928 94.2549c18.6367 27.8867 45.1396 49.6406 76.1299 62.4746c31.0029 12.8438 65.1055 16.2002 98.0225 9.6543c32.916 -6.54883 63.1113 -22.6914 86.8623 -46.4326
c23.7168 -23.7246 39.8691 -53.9287 46.4229 -86.8604c6.54004 -32.8926 3.18164 -67.0234 -9.6543 -98.002c-12.8398 -31.0117 -34.5947 -57.5059 -62.4834 -76.1396c-27.8965 -18.6416 -60.6963 -28.5908 -94.249 -28.5908h-44.6436v-196.428h44.6436
c33.5674 0 66.3379 -9.94629 94.2539 -28.5928c27.877 -18.6318 49.6475 -45.1475 62.4717 -76.124c12.8525 -31.0127 16.2041 -65.1025 9.6582 -98.0342c-6.55176 -32.9209 -22.6865 -63.0967 -46.4385 -86.8613c-23.7207 -23.708 -53.9131 -39.8623 -86.8545 -46.4189
c-32.8906 -6.53711 -67.0322 -3.17969 -97.998 9.65332c-31.0234 12.8438 -57.498 34.5811 -76.1533 62.4951c-18.627 27.8867 -28.583 60.6787 -28.583 94.2393v44.6436h-196.428v-44.6436c0 -33.5518 -9.95117 -66.3545 -28.5898 -94.2471
c-18.6338 -27.8877 -45.1426 -49.6514 -76.127 -62.4805c-31.0107 -12.8486 -65.1045 -16.2031 -98.0283 -9.65723c-32.9141 6.55078 -63.1113 22.6914 -86.8613 46.4355c-23.7139 23.7217 -39.8701 53.9336 -46.4199 86.8525
c-6.54297 32.9023 -3.18359 67.0254 9.65234 98.0098c12.8438 31.0137 34.5713 57.4873 62.4941 76.1494c27.8877 18.625 60.6787 28.5811 94.2383 28.5811h44.6416v196.428h-44.6416c-33.5527 0 -66.3506 9.94922 -94.249 28.5898
c-27.8965 18.6387 -49.6426 45.1357 -62.4814 76.1328c-12.8408 31.001 -16.1992 65.1074 -9.65332 98.0166c6.54688 32.9092 22.6963 63.126 46.4297 86.8623c23.7256 23.7227 53.9482 39.877 86.8584 46.4238c32.9043 6.54492 67.0166 3.18652 98.0137 -9.65234
c31 -12.8408 57.4941 -34.585 76.1348 -62.4824c18.6396 -27.8984 28.5889 -60.6973 28.5889 -94.249v-44.6416h196.428zM401.785 398.215v-196.428h196.428v196.428h-196.428zM276.785 76.7871h-44.6416c-8.81934 0 -17.4707 -2.625 -24.8057 -7.52344
c-7.33203 -4.90137 -13.0625 -11.8818 -16.4385 -20.0342c-3.38281 -8.16504 -4.26562 -17.1289 -2.54102 -25.8018c1.71875 -8.63965 5.97949 -16.6143 12.2178 -22.8535c6.2334 -6.23242 14.208 -10.4971 22.8643 -12.2197
c8.64258 -1.71777 17.6348 -0.833984 25.7803 2.54102c8.17285 3.38477 15.1299 9.0957 20.041 16.4463c4.90723 7.34473 7.52344 15.9678 7.52344 24.8018v44.6436v0zM723.213 76.7871v-44.6436c0 -8.82617 2.61816 -17.46 7.52734 -24.8096
c4.89844 -7.32812 11.874 -13.0576 20.0342 -16.4355c8.16309 -3.38281 17.1221 -4.2666 25.8037 -2.54102c8.61523 1.71484 16.6152 5.98926 22.8467 12.2178c6.2334 6.23535 10.499 14.2148 12.2207 22.8633c1.71875 8.64844 0.836914 17.6289 -2.54395 25.7871
c-3.38086 8.16602 -9.09277 15.126 -16.4492 20.043c-7.32129 4.89062 -15.9766 7.51855 -24.7959 7.51855h-44.6436zM723.213 523.215h44.6436c8.83301 0 17.46 2.61719 24.7998 7.52246c7.34961 4.91016 13.0693 11.8828 16.4424 20.0283
c3.38867 8.17871 4.26855 17.1328 2.54395 25.8066c-1.71777 8.63086 -5.98828 16.6221 -12.2168 22.8516c-6.24121 6.24023 -14.207 10.498 -22.8584 12.2188c-8.65918 1.72168 -17.6416 0.835938 -25.7891 -2.53906c-8.16895 -3.38281 -15.1396 -9.10645 -20.042 -16.4414
c-4.89844 -7.33594 -7.52344 -15.9863 -7.52344 -24.8057v-44.6416zM276.785 523.215v44.6416c0 8.83105 -2.61816 17.4609 -7.52344 24.8037c-4.90527 7.34082 -11.8779 13.0635 -20.0342 16.4414c-8.15918 3.37988 -17.1328 4.26367 -25.7949 2.54102
c-8.65625 -1.72266 -16.6162 -5.97656 -22.8604 -12.2197c-6.23242 -6.2334 -10.4922 -14.2002 -12.2148 -22.8574c-1.72168 -8.65723 -0.837891 -17.6357 2.54004 -25.792c3.37988 -8.15918 9.10059 -15.1299 16.4424 -20.0352s15.9736 -7.52344 24.8037 -7.52344h44.6416z
" />
  </g>

</svg>
