<?xml version="1.0" standalone="no"?>
<!DOCTYPE svg PUBLIC "-//W3C//DTD SVG 1.1//EN" "http://www.w3.org/Graphics/SVG/1.1/DTD/svg11.dtd" >
<svg xmlns="http://www.w3.org/2000/svg" xmlns:xlink="http://www.w3.org/1999/xlink" version="1.1" viewBox="-10 0 1010 1000">
  <g transform="matrix(1 0 0 -1 0 800)">
   <path fill="currentColor"
d="M457.789 342.211l112.562 28.1406l-28.1406 -112.562l-112.562 -28.1406zM345.616 408.908l-62.5 -250l-25.2646 -101.058l101.057 25.2646l250 62.5l36.3809 9.09473l9.09473 36.3809l62.5 250l25.2646 101.058l-101.057 -25.2646l-250 -62.5l-36.3809 -9.09473z
M500 -12.5c172.598 0 312.5 139.902 312.5 312.5s-139.902 312.5 -312.5 312.5s-312.5 -139.902 -312.5 -312.5s139.902 -312.5 312.5 -312.5zM500 -137.5c-241.615 0 -437.5 195.885 -437.5 437.5s195.885 437.5 437.5 437.5s437.5 -195.885 437.5 -437.5
s-195.885 -437.5 -437.5 -437.5zM500 675h-62.5v-62.5h62.5h62.5v62.5h-62.5zM500 -12.5h-62.5v-62.5h62.5h62.5v62.5h-62.5zM125 300v-62.5h62.5v62.5v62.5h-62.5v-62.5zM812.5 300v-62.5h62.5v62.5v62.5h-62.5v-62.5z" />
  </g>

</svg>
