<?xml version="1.0" standalone="no"?>
<!DOCTYPE svg PUBLIC "-//W3C//DTD SVG 1.1//EN" "http://www.w3.org/Graphics/SVG/1.1/DTD/svg11.dtd" >
<svg xmlns="http://www.w3.org/2000/svg" xmlns:xlink="http://www.w3.org/1999/xlink" version="1.1" viewBox="-10 0 1010 1000">
  <g transform="matrix(1 0 0 -1 0 800)">
   <path fill="currentColor"
d="M500 -12.5c172.598 0 312.5 139.902 312.5 312.5s-139.902 312.5 -312.5 312.5s-312.5 -139.902 -312.5 -312.5s139.902 -312.5 312.5 -312.5zM500 -137.5c-241.615 0 -437.5 195.885 -437.5 437.5s195.885 437.5 437.5 437.5s437.5 -195.885 437.5 -437.5
s-195.885 -437.5 -437.5 -437.5zM562.5 157.835c49.7676 24.498 83.3311 80.5889 83.3311 142.166c0 61.7783 -34.0312 117.897 -83.3311 142.164v-284.33zM500 18.75h-62.5v62.5v437.5v62.5h62.5c164.43 0 270.831 -138.956 270.831 -281.249
s-106.402 -281.251 -270.831 -281.251z" />
  </g>

</svg>
