<?xml version="1.0" standalone="no"?>
<!DOCTYPE svg PUBLIC "-//W3C//DTD SVG 1.1//EN" "http://www.w3.org/Graphics/SVG/1.1/DTD/svg11.dtd" >
<svg xmlns="http://www.w3.org/2000/svg" xmlns:xlink="http://www.w3.org/1999/xlink" version="1.1" viewBox="-10 0 1010 1000">
  <g transform="matrix(1 0 0 -1 0 800)">
   <path fill="currentColor"
d="M875 -75v-62.5h-500.001h-62.5v62.5v750h62.5h62.5v-687.5h437.501v-62.5zM374.999 675l44.1943 -44.1943l-249.999 -250l-44.1943 44.1943l-44.1943 44.1943l249.999 250zM374.999 675l44.1934 44.1943l250.002 -250l-44.1943 -44.1943l-44.1943 -44.1943l-250.001 250z
M374.999 675l-44.1943 44.1943l-249.999 -250l44.1943 -44.1943l44.1943 -44.1943l249.999 250zM374.999 675l-44.1943 -44.1943l250.001 -250l44.1943 44.1943l44.1943 44.1943l-250.002 250zM374.999 675l44.1934 44.1943l250.002 -250l-44.1943 -44.1943
l-44.1943 -44.1943l-250.001 250z" />
  </g>

</svg>
