<?xml version="1.0" standalone="no"?>
<!DOCTYPE svg PUBLIC "-//W3C//DTD SVG 1.1//EN" "http://www.w3.org/Graphics/SVG/1.1/DTD/svg11.dtd" >
<svg xmlns="http://www.w3.org/2000/svg" xmlns:xlink="http://www.w3.org/1999/xlink" version="1.1" viewBox="-10 0 1010 1000">
  <g transform="matrix(1 0 0 -1 0 800)">
   <path fill="currentColor"
d="M812.5 675v62.5h-500h-62.5v-62.5v-500h62.5h62.5v437.5h437.5v62.5zM312.5 175l44.1943 -44.1943l187.5 187.5l-44.1943 44.1943l-44.1943 44.1943l-187.5 -187.5zM312.5 175l-44.1943 -44.1943l-187.5 187.5l44.1943 44.1943l44.1943 44.1943l187.5 -187.5zM500 112.5
l-44.1934 44.1943l-143.308 -143.306l-143.305 143.306l-44.1943 -44.1943l-44.1943 -44.1943l187.499 -187.5l44.1934 -44.1943l44.1943 44.1943l187.502 187.5zM312.5 175l-44.1943 44.1943l187.5 187.5l44.1943 -44.1943l44.1943 -44.1943l-187.5 -187.5zM312.5 175
l-44.1943 -44.1943l-187.5 187.5l44.1943 44.1943l44.1943 44.1943l187.5 -187.5zM500 112.5l44.1934 -44.1943l-187.502 -187.5l-44.1943 -44.1943l-44.1934 44.1943l-187.499 187.5l44.1943 44.1943l44.1943 44.1943l143.306 -143.306l143.307 143.306zM312.5 175
l44.1943 44.1943l-187.5 187.5l-44.1943 -44.1943l-44.1943 -44.1943l187.5 -187.5zM500 112.5l44.1943 -44.1943l-187.502 -187.5l-44.1943 -44.1943l-44.1934 44.1943l-187.499 187.5l44.1943 44.1943l44.1943 44.1943l143.305 -143.306l143.308 143.306zM500 112.5
l-44.1943 44.1943l-143.307 -143.306l-143.306 143.306l-44.1943 -44.1943l-44.1943 -44.1943l187.499 -187.5l44.1934 -44.1943l44.1943 44.1943l187.502 187.5z" />
  </g>

</svg>
