<?xml version="1.0" standalone="no"?>
<!DOCTYPE svg PUBLIC "-//W3C//DTD SVG 1.1//EN" "http://www.w3.org/Graphics/SVG/1.1/DTD/svg11.dtd" >
<svg xmlns="http://www.w3.org/2000/svg" xmlns:xlink="http://www.w3.org/1999/xlink" version="1.1" viewBox="-10 0 1010 1000">
  <g transform="matrix(1 0 0 -1 0 800)">
   <path fill="currentColor"
d="M375 112.5v-62.5h500h62.5v62.5v562.5h-62.5h-62.5v-500h-437.5v-62.5zM375 112.5l44.1943 -44.1943l187.5 187.5l-44.1943 44.1943l-44.1943 44.1943l-187.5 -187.5zM375 112.5l44.1943 44.1943l187.5 -187.5l-44.1943 -44.1943l-44.1943 -44.1943l-187.5 187.5z
M312.5 300l44.1943 -44.1943l-143.306 -143.306l143.306 -143.307l-44.1943 -44.1943l-44.1943 -44.1943l-187.5 187.5l-44.1943 44.1943l44.1943 44.1943l187.5 187.5zM375 112.5l-44.1943 44.1943l187.5 187.5l44.1943 -44.1943l44.1943 -44.1943l-187.5 -187.5z
M375 112.5l-44.1943 -44.1943l187.5 -187.5l44.1943 44.1943l44.1943 44.1943l-187.5 187.5zM312.5 300l-44.1943 44.1943l-187.5 -187.5l-44.1943 -44.1943l44.1943 -44.1943l187.5 -187.5l44.1943 44.1943l44.1943 44.1943l-143.306 143.306l143.306 143.307zM375 112.5
l44.1943 44.1943l187.5 -187.5l-44.1943 -44.1943l-44.1943 -44.1943l-187.5 187.5zM312.5 300l-44.1943 44.1934l-187.5 -187.5l-44.1943 -44.1943l44.1943 -44.1943l187.5 -187.5l44.1943 44.1943l44.1943 44.1943l-143.306 143.307l143.306 143.306zM312.5 300
l44.1943 -44.1934l-143.306 -143.307l143.306 -143.306l-44.1943 -44.1943l-44.1943 -44.1943l-187.5 187.5l-44.1943 44.1943l44.1943 44.1943l187.5 187.5z" />
  </g>

</svg>
