<?xml version="1.0" standalone="no"?>
<!DOCTYPE svg PUBLIC "-//W3C//DTD SVG 1.1//EN" "http://www.w3.org/Graphics/SVG/1.1/DTD/svg11.dtd" >
<svg xmlns="http://www.w3.org/2000/svg" xmlns:xlink="http://www.w3.org/1999/xlink" version="1.1" viewBox="-10 0 1010 1000">
  <g transform="matrix(1 0 0 -1 0 800)">
   <path fill="currentColor"
d="M125 -75h-62.5v500v62.5h62.5l750 0.000976562v-62.5v-62.5l-687.5 -0.000976562v-437.5h-62.5zM875 425.001l44.1943 44.1943l-250 249.999l-44.1943 -44.1943l-44.1943 -44.1943l250 -249.999zM875 425.001l44.1943 -44.1934l-250 -250.002l-44.1943 44.1943
l-44.1943 44.1943l250 250.001zM875 425.001l44.1943 44.1943l-250 249.999l-44.1943 -44.1943l-44.1943 -44.1943l250 -249.999zM875 425.001l44.1943 -44.1934l-250 -250.002l-44.1943 44.1943l-44.1943 44.1943l250 250.001zM875 425.001l-44.1943 44.1943l-250 -250.001
l44.1943 -44.1943l44.1943 -44.1943l250 250.002z" />
  </g>

</svg>
