<?xml version="1.0" standalone="no"?>
<!DOCTYPE svg PUBLIC "-//W3C//DTD SVG 1.1//EN" "http://www.w3.org/Graphics/SVG/1.1/DTD/svg11.dtd" >
<svg xmlns="http://www.w3.org/2000/svg" xmlns:xlink="http://www.w3.org/1999/xlink" version="1.1" viewBox="-10 0 1010 1000">
  <g transform="matrix(1 0 0 -1 0 800)">
   <path fill="currentColor"
d="M125.001 675v-62.5h437.499v-687.5h62.5h62.5v750v62.5h-62.5h-499.999v-62.5zM625 -75l44.1943 -44.1943l250 250l-44.1943 44.1943l-44.1943 44.1943l-250 -250zM625 -75l-44.1943 -44.1943l-250 250l44.1943 44.1943l44.1943 44.1943l250 -250zM625 -75
l-44.1943 44.1943l250 250l44.1943 -44.1943l44.1943 -44.1943l-250 -250zM625 -75l-44.1943 -44.1943l-250 250l44.1943 44.1943l44.1943 44.1943l250 -250zM625 -75l44.1943 44.1943l-250 250l-44.1943 -44.1943l-44.1943 -44.1943l250 -250z" />
  </g>

</svg>
