<?xml version="1.0" standalone="no"?>
<!DOCTYPE svg PUBLIC "-//W3C//DTD SVG 1.1//EN" "http://www.w3.org/Graphics/SVG/1.1/DTD/svg11.dtd" >
<svg xmlns="http://www.w3.org/2000/svg" xmlns:xlink="http://www.w3.org/1999/xlink" version="1.1" viewBox="-10 0 1010 1000">
  <g transform="matrix(1 0 0 -1 0 800)">
   <path fill="currentColor"
d="M875 675h62.5v-500v-62.5h-62.5h-750v62.5v62.5h687.5v437.5h62.5zM125 175l44.1943 44.1943l250 -250l-44.1943 -44.1943l-44.1943 -44.1943l-250 250zM125 175l44.1943 -44.1943l250 250l-44.1943 44.1943l-44.1943 44.1943l-250 -250zM125 175l-44.1943 -44.1943
l250 -250l44.1943 44.1943l44.1943 44.1943l-250 250zM125 175l-44.1943 44.1943l250 250l44.1943 -44.1943l44.1943 -44.1943l-250 -250zM125 175l44.1943 -44.1943l250 250l-44.1943 44.1943l-44.1943 44.1943l-250 -250z" />
  </g>

</svg>
