<?xml version="1.0" standalone="no"?>
<!DOCTYPE svg PUBLIC "-//W3C//DTD SVG 1.1//EN" "http://www.w3.org/Graphics/SVG/1.1/DTD/svg11.dtd" >
<svg xmlns="http://www.w3.org/2000/svg" xmlns:xlink="http://www.w3.org/1999/xlink" version="1.1" viewBox="-10 0 1010 1000">
  <g transform="matrix(1 0 0 -1 0 800)">
   <path fill="currentColor"
d="M293.385 500.211c7.01367 2.36035 14.3779 4.64453 21.5059 6.65723c52.9971 14.9639 114.398 22.2979 185.109 22.2979c71.0078 0 132.63 -7.39453 185.778 -22.4873c6.89551 -1.95801 14.0361 -4.17871 20.8369 -6.46777
c9.21094 3.48926 18.7275 6.70312 28.2539 9.53906c43.1934 12.8574 90.3945 19.416 140.131 19.416v-62.5v-62.5c-8.53223 0 -17.2646 -0.270508 -25.6328 -0.768555c31.6475 -42.1445 46.4639 -92.9229 46.4639 -145.063c0 -49.7266 -19.7529 -97.4189 -54.918 -132.584
c-35.1523 -35.1602 -82.8555 -54.918 -132.582 -54.918c-49.7256 0 -97.417 19.7539 -132.581 54.918c-35.1631 35.165 -54.917 82.8564 -54.917 132.583c0 53.1221 17.6299 102.666 47.7891 142.834c-21.0518 1.94043 -44.1484 2.99902 -68.6221 2.99902
s-47.5703 -1.05859 -68.6221 -2.99902c30.1592 -40.168 47.7891 -89.7139 47.7891 -142.834c0 -49.7266 -19.7549 -97.418 -54.917 -132.583c-35.1641 -35.166 -82.8564 -54.918 -132.583 -54.918c-49.7275 0 -97.4199 19.7539 -132.584 54.918
c-35.1631 35.165 -54.916 82.8564 -54.916 132.583c0 52.1416 14.8174 102.922 46.4648 145.064c-8.36816 0.498047 -17.0996 0.768555 -25.6318 0.768555v62.5v62.5c49.7354 0 96.9365 -6.55859 140.13 -19.416c9.52637 -2.83594 19.043 -6.05078 28.2549 -9.53906v0z
M709.34 362.735c-2.62305 -1.6748 -5.21094 -3.41211 -7.62109 -5.11816c-38.0605 -26.9443 -55.8857 -59.4844 -55.8857 -99.2842c0 -16.5752 6.58496 -32.4736 18.3066 -44.1963c11.7217 -11.7217 27.6182 -18.3057 44.1914 -18.3057
c16.5859 0 32.4707 6.58008 44.1934 18.3066c11.7227 11.7227 18.3066 27.6182 18.3066 44.1953c0 43.6895 -14.8301 73.543 -52.6084 98.8467c-2.77344 1.85742 -5.76855 3.73242 -8.88281 5.55566zM290.659 362.734c-3.11426 -1.82324 -6.1084 -3.69727 -8.88184 -5.55469
c-37.7803 -25.3037 -52.6104 -55.1572 -52.6104 -98.8467c0 -16.5752 6.58496 -32.4746 18.3057 -44.1963c11.7217 -11.7217 27.6162 -18.3057 44.1943 -18.3057c16.5762 0 32.4727 6.58496 44.1924 18.3057c11.7227 11.7227 18.3076 27.6211 18.3076 44.1963
c0 39.7998 -17.8252 72.3398 -55.8857 99.2842c-2.41016 1.70605 -4.99805 3.44336 -7.62207 5.11719z" />
  </g>

</svg>
