<?xml version="1.0" standalone="no"?>
<!DOCTYPE svg PUBLIC "-//W3C//DTD SVG 1.1//EN" "http://www.w3.org/Graphics/SVG/1.1/DTD/svg11.dtd" >
<svg xmlns="http://www.w3.org/2000/svg" xmlns:xlink="http://www.w3.org/1999/xlink" version="1.1" viewBox="-10 0 1010 1000">
  <g transform="matrix(1 0 0 -1 0 800)">
   <path fill="currentColor"
d="M562.499 300l-44.1943 44.1943l62.502 62.5l44.1934 -44.1943l44.1934 -44.1943l-62.501 -62.5zM624.999 237.5c0 -69.0264 -55.9707 -125 -125 -125c-69.0254 0 -125 55.9707 -125 125c0 69.0273 55.9727 125 125 125s125 -55.9727 125 -125zM687.5 -137.5h-374.998
h-20.3242l-16.4365 11.9541c-146.412 106.481 -216.446 249.515 -216.483 387.4c-0.0605469 220.431 177.853 413.146 440.738 413.146c157.814 0 286.829 -69.4883 363.41 -174.724c130.805 -179.748 101.238 -450.995 -139.146 -625.822l-16.4365 -11.9541h-20.3242z
M666.553 -12.5c179.709 141.324 181.64 330.45 89.417 447.635c-53.1602 67.5508 -139.941 114.865 -255.974 114.865c-198.014 0 -315.779 -137.743 -315.738 -288.111c0.0244141 -90.4668 42.2012 -190.253 149.19 -274.389h333.104h0.000976562zM624.999 237.5
c0 69.0273 -55.9727 125 -125 125s-125 -55.9727 -125 -125c0 -69.0293 55.9746 -125 125 -125c69.0293 0 125 55.9736 125 125zM687.5 -137.5h20.3242l16.4365 11.9541c240.384 174.827 269.95 446.074 139.146 625.822c-76.5811 105.235 -205.596 174.724 -363.41 174.724
c-262.886 0 -440.799 -192.715 -440.738 -413.146c0.0371094 -137.886 70.0713 -280.919 216.483 -387.4l16.4365 -11.9541h20.3242h374.998zM666.553 -12.5h-0.000976562h-333.104c-106.989 84.1357 -149.166 183.922 -149.19 274.389
c-0.0410156 150.368 117.725 288.111 315.738 288.111c116.032 0 202.813 -47.3145 255.974 -114.865c92.2227 -117.185 90.292 -306.311 -89.417 -447.635zM687.5 -137.5h-374.998h-20.3242l-16.4355 11.9541c-146.412 106.481 -216.446 249.514 -216.483 387.4
c-0.0615234 220.431 177.851 413.146 440.738 413.146c157.813 0 286.828 -69.4893 363.409 -174.724c130.805 -179.748 101.238 -450.995 -139.146 -625.822l-16.4365 -11.9541h-20.3242zM666.553 -12.5h0.000976562c179.709 141.324 181.639 330.45 89.417 447.635
c-53.1611 67.5508 -139.942 114.865 -255.974 114.865c-198.013 0 -315.779 -137.743 -315.738 -288.111c0.0244141 -90.4668 42.2012 -190.253 149.19 -274.389h333.104z" />
  </g>

</svg>
