<?xml version="1.0" standalone="no"?>
<!DOCTYPE svg PUBLIC "-//W3C//DTD SVG 1.1//EN" "http://www.w3.org/Graphics/SVG/1.1/DTD/svg11.dtd" >
<svg xmlns="http://www.w3.org/2000/svg" xmlns:xlink="http://www.w3.org/1999/xlink" version="1.1" viewBox="-10 0 1010 1000">
  <g transform="matrix(1 0 0 -1 0 800)">
   <path fill="currentColor"
d="M813.052 558.083l-626.01 -0.0927734c26.9229 -26.667 169.59 -70.4902 312.958 -70.4902c143.405 0 285.944 43.7324 313.052 70.583zM875 550h62.5c0 -156.206 -273.974 -187.5 -437.5 -187.5c-163.552 0 -437.499 31.3164 -437.499 187.5h812.499zM187.042 542.01
c26.9229 26.667 169.59 70.4902 312.958 70.4902c143.404 0 285.944 -43.7324 313.052 -70.583zM125.001 550h-62.5c0 156.184 273.947 187.5 437.499 187.5c163.526 0 437.5 -31.2939 437.5 -187.5h-812.499zM875 550h62.5v-250h-62.5h-62.5v250h62.5zM125.001 550h62.5
l-0.000976562 -250h-62.5h-62.5l0.000976562 250h62.5zM875 300h-62.5c0 -27.5332 -204.274 -62.5 -312.5 -62.5c-108.229 0 -312.5 34.9688 -312.5 62.5h-125c0 -213.418 403.334 -187.5 437.5 -187.5c34.1709 0 437.5 -25.917 437.5 187.5h-62.5zM125 300h62.5v-250
c0 -27.5312 204.271 -62.5 312.5 -62.5c108.226 0 312.5 34.9668 312.5 62.5v250h62.5h62.5v-250c0 -213.417 -403.329 -187.5 -437.5 -187.5c-34.166 0 -437.5 -25.918 -437.5 187.5v250h62.5zM187.042 542.01l626.01 -0.0927734
c-27.1074 26.8506 -169.647 70.583 -313.052 70.583c-143.368 0 -286.035 -43.8232 -312.958 -70.4902zM125.001 550h812.499c0 156.206 -273.974 187.5 -437.5 187.5c-163.552 0 -437.499 -31.3164 -437.499 -187.5h62.5zM875 550h-62.5v-250h62.5h62.5v250h-62.5z
M125.001 550h-62.5l-0.000976562 -250h62.5h62.5l0.000976562 250h-62.5zM875 300h62.5c0 -213.417 -403.329 -187.5 -437.5 -187.5c-34.166 0 -437.5 -25.918 -437.5 187.5h125c0 -27.5312 204.271 -62.5 312.5 -62.5c108.226 0 312.5 34.9668 312.5 62.5h62.5zM125 300
h-62.5v-250c0 -213.418 403.334 -187.5 437.5 -187.5c34.1709 0 437.5 -25.917 437.5 187.5v250h-62.5h-62.5v-250c0 -27.5332 -204.274 -62.5 -312.5 -62.5c-108.229 0 -312.5 34.9688 -312.5 62.5v250h-62.5zM875 550h62.5v-250h-62.5h-62.5v250h62.5zM125.001 550h62.5
l-0.000976562 -250h-62.5h-62.5l0.000976562 250h62.5zM875 300h62.5c0 -213.417 -403.329 -187.5 -437.5 -187.5c-34.166 0 -437.5 -25.918 -437.5 187.5h125c0 -27.5312 204.271 -62.5 312.5 -62.5c108.226 0 312.5 34.9668 312.5 62.5h62.5zM125 300h-62.5v-250
c0 -213.418 403.334 -187.5 437.5 -187.5c34.1709 0 437.5 -25.917 437.5 187.5v250h-62.5h-62.5v-250c0 -27.5332 -204.274 -62.5 -312.5 -62.5c-108.229 0 -312.5 34.9688 -312.5 62.5v250h-62.5zM125.001 550h-62.5l-0.000976562 -250h62.5h62.5l0.000976562 250h-62.5z
M875 300h-62.5c0 -27.5332 -204.274 -62.5 -312.5 -62.5c-108.229 0 -312.5 34.9688 -312.5 62.5h-125c0 -213.418 403.334 -187.5 437.5 -187.5c34.1709 0 437.5 -25.917 437.5 187.5h-62.5zM125 300h62.5v-250c0 -27.5312 204.271 -62.5 312.5 -62.5
c108.226 0 312.5 34.9668 312.5 62.5v250h62.5h62.5v-250c0 -213.417 -403.329 -187.5 -437.5 -187.5c-34.166 0 -437.5 -25.918 -437.5 187.5v250h62.5zM875 300h62.5c0 -213.417 -403.329 -187.5 -437.5 -187.5c-34.166 0 -437.5 -25.918 -437.5 187.5h125
c0 -27.5312 204.271 -62.5 312.5 -62.5c108.226 0 312.5 34.9668 312.5 62.5h62.5zM125 300h-62.5v-250c0 -213.418 403.334 -187.5 437.5 -187.5c34.1709 0 437.5 -25.917 437.5 187.5v250h-62.5h-62.5v-250c0 -27.5332 -204.274 -62.5 -312.5 -62.5
c-108.229 0 -312.5 34.9688 -312.5 62.5v250h-62.5zM125 300h62.5v-250c0 -27.5312 204.271 -62.5 312.5 -62.5c108.226 0 312.5 34.9668 312.5 62.5v250h62.5h62.5v-250c0 -213.417 -403.329 -187.5 -437.5 -187.5c-34.166 0 -437.5 -25.918 -437.5 187.5v250h62.5z" />
  </g>

</svg>
