<?xml version="1.0" standalone="no"?>
<!DOCTYPE svg PUBLIC "-//W3C//DTD SVG 1.1//EN" "http://www.w3.org/Graphics/SVG/1.1/DTD/svg11.dtd" >
<svg xmlns="http://www.w3.org/2000/svg" xmlns:xlink="http://www.w3.org/1999/xlink" version="1.1" viewBox="-10 0 1010 1000">
  <g transform="matrix(1 0 0 -1 0 800)">
   <path fill="currentColor"
d="M250 -75v62.5h125v-62.5v-62.5h-125v62.5zM750 -75v-62.5h-125v62.5v62.5h125v-62.5zM375 112.5v-62.5h-250h-62.5v62.5v562.5v62.5h62.5h750h62.5v-62.5v-562.5v-62.5h-62.5h-250v62.5v62.5h187.5v437.5h-625v-437.5h187.5v-62.5zM375 112.5h62.5v-187.5h-62.5h-62.5
v187.5h62.5zM375 112.5v62.5h250v-62.5v-62.5h-250v62.5zM375 -75v62.5h250v-62.5v-62.5h-250v62.5zM625 112.5h62.5v-187.5h-62.5h-62.5v187.5h62.5zM750 -75v62.5h-125v-62.5v-62.5h125v62.5zM375 112.5v-62.5h-250h-62.5v62.5v562.5v62.5h62.5h750h62.5v-62.5v-562.5
v-62.5h-62.5h-250v62.5v62.5h187.5v437.5h-625v-437.5h187.5v-62.5zM375 112.5h-62.5v-187.5h62.5h62.5v187.5h-62.5zM375 112.5v-62.5h250v62.5v62.5h-250v-62.5zM375 -75v-62.5h250v62.5v62.5h-250v-62.5zM625 112.5h-62.5v-187.5h62.5h62.5v187.5h-62.5zM375 112.5v62.5
h-187.5v437.5h625v-437.5h-187.5v-62.5v-62.5h250h62.5v62.5v562.5v62.5h-62.5h-750h-62.5v-62.5v-562.5v-62.5h62.5h250v62.5zM375 112.5h62.5v-187.5h-62.5h-62.5v187.5h62.5zM375 112.5v-62.5h250v62.5v62.5h-250v-62.5zM375 -75v62.5h250v-62.5v-62.5h-250v62.5z
M625 112.5h62.5v-187.5h-62.5h-62.5v187.5h62.5zM375 112.5h-62.5v-187.5h62.5h62.5v187.5h-62.5zM375 112.5v62.5h250v-62.5v-62.5h-250v62.5zM375 -75v-62.5h250v62.5v62.5h-250v-62.5zM625 112.5h-62.5v-187.5h62.5h62.5v187.5h-62.5zM375 112.5v-62.5h250v62.5v62.5
h-250v-62.5zM375 -75v62.5h250v-62.5v-62.5h-250v62.5zM625 112.5h62.5v-187.5h-62.5h-62.5v187.5h62.5zM375 -75v-62.5h250v62.5v62.5h-250v-62.5zM625 112.5h-62.5v-187.5h62.5h62.5v187.5h-62.5zM625 112.5h62.5v-187.5h-62.5h-62.5v187.5h62.5z" />
  </g>

</svg>
