<?xml version="1.0" standalone="no"?>
<!DOCTYPE svg PUBLIC "-//W3C//DTD SVG 1.1//EN" "http://www.w3.org/Graphics/SVG/1.1/DTD/svg11.dtd" >
<svg xmlns="http://www.w3.org/2000/svg" xmlns:xlink="http://www.w3.org/1999/xlink" version="1.1" viewBox="-10 0 1010 1000">
  <g transform="matrix(1 0 0 -1 0 800)">
   <path fill="currentColor"
d="M250 674.999h500h38.627l17.2744 -34.5498l125 -250l19.5459 -39.0908l-30.0098 -31.7744c-85.207 -90.2178 -375.716 -384.501 -375.956 -384.745l-44.542 -45.126l-44.4805 45.1855c-0.271484 0.276367 -309.216 314.083 -375.897 384.688l-30.0088 31.7734
l19.5459 39.0898l125 250l17.2744 34.5498h38.6279h-0.000976562zM288.627 549.999l-88.0283 -176.057c72.6885 -75.2559 224.114 -229.485 299.452 -306.121c72.7461 73.8477 220.944 224.552 299.384 306.054l-88.0615 176.124h-422.746zM437.5 300l-44.1943 -44.1943
l-93.75 93.75l-31.8535 31.8535l20.1465 40.292l31.25 62.5l55.9014 -27.9512l55.9014 -27.9512l-11.1035 -22.208l61.8965 -61.8965z" />
  </g>

</svg>
