<?xml version="1.0" standalone="no"?>
<!DOCTYPE svg PUBLIC "-//W3C//DTD SVG 1.1//EN" "http://www.w3.org/Graphics/SVG/1.1/DTD/svg11.dtd" >
<svg xmlns="http://www.w3.org/2000/svg" xmlns:xlink="http://www.w3.org/1999/xlink" version="1.1" viewBox="-10 0 1010 1000">
  <g transform="matrix(1 0 0 -1 0 800)">
   <path fill="currentColor"
d="M250 258.333l-22.0576 58.4785l38.7295 14.6084l-0.329102 0.0888672c-21.2842 5.64844 -40.2363 17.9082 -54.1074 34.9775c-13.8838 17.0801 -22.0068 38.1475 -23.1836 60.1113c-1.18262 21.9854 4.6377 43.7891 16.6084 62.2529
c11.9746 18.4727 29.5254 32.6904 50.0332 40.5684l96.875 37.25l22.4316 -58.3359l22.4316 -58.3359l-36.9932 -14.2246l1.13379 -0.302734c21.291 -5.67578 40.2715 -17.9922 54.1406 -35.1367c13.8838 -17.1699 21.9482 -38.2676 23.0479 -60.3184
c1.10059 -22.0186 -4.8252 -43.8496 -16.9219 -62.3008c-12.0947 -18.4482 -29.7334 -32.584 -50.3799 -40.3652l-99.4014 -37.4941zM125 216.667h62.5v-41.667c0 -16.5752 6.58105 -32.4678 18.3086 -44.1953c11.7197 -11.7207 27.6133 -18.3047 44.1914 -18.3047h173.375
c8.78027 0 17.4502 1.8457 25.4521 5.41406c8 3.56641 15.1904 8.80176 21.04 15.3105c5.85938 6.52246 10.2939 14.2295 12.9834 22.5498c2.69922 8.35742 3.60938 17.166 2.67188 25.9023l-47.667 445l62.1445 6.65625l62.1445 6.65723l47.667 -445
c2.80371 -26.1436 0.0722656 -52.6104 -8.01367 -77.6396c-8.09863 -25.0547 -21.3564 -48.0869 -38.9434 -67.6621c-17.5967 -19.5801 -39.0801 -35.2197 -63.1211 -45.9395c-24.0381 -10.7188 -50.0566 -16.249 -76.3584 -16.249h-173.375
c-49.7275 0 -97.4209 19.7539 -132.584 54.9209c-35.1592 35.1602 -54.916 82.8525 -54.916 132.579v41.667h62.5v0zM666.669 91.6689l44.1973 44.1904l23.3564 -23.3594h57.583c3.8125 0.00195312 7.52637 1.03809 10.7764 3.00098
c3.25684 1.96582 5.88672 4.75195 7.6709 8.13965c1.76074 3.34082 2.58008 7.10645 2.3584 10.9043c-0.220703 3.79102 -1.46973 7.44141 -3.61328 10.5674l-110.544 161.209l51.5459 35.3457l51.5459 35.3457l110.543 -161.209
c15.0195 -21.9043 23.7695 -47.4893 25.3115 -73.999c1.54199 -26.4951 -4.18164 -52.9482 -16.5605 -76.4346c-12.3633 -23.4795 -30.9268 -43.1611 -53.6592 -56.8828c-22.7314 -13.7275 -48.7734 -20.9766 -75.3369 -20.9873h-83.5127h-25.8906l-18.3066 18.3086
l-41.6621 41.6689z" />
  </g>

</svg>
