<?xml version="1.0" standalone="no"?>
<!DOCTYPE svg PUBLIC "-//W3C//DTD SVG 1.1//EN" "http://www.w3.org/Graphics/SVG/1.1/DTD/svg11.dtd" >
<svg xmlns="http://www.w3.org/2000/svg" xmlns:xlink="http://www.w3.org/1999/xlink" version="1.1" viewBox="-10 0 1010 1000">
  <g transform="matrix(1 0 0 -1 0 800)">
   <path fill="currentColor"
d="M750 612.5l37.5 50l125 -93.75l66.667 -50l-66.667 -50l-125 -93.75l-16.667 -12.5h-20.833h-437.5h-62.5v62.5v187.5h62.5h62.5v-125h354.167l41.666 31.25l-58.333 43.75zM250 237.5l37.5 -50l-58.333 -43.75l41.666 -31.25h354.167v125h62.5h62.5v-187.5v-62.5h-62.5
h-437.5h-20.833l-16.667 12.5l-125 93.75l-66.667 50l66.667 50l125 93.75zM500 -75h-62.5v125h62.5h62.5v-125h-62.5zM500 258.333h-62.5v166.667h62.5h62.5v-166.667h-62.5zM500 612.5h-62.5v62.5h62.5h62.5v-62.5h-62.5z" />
  </g>

</svg>
