<?xml version="1.0" standalone="no"?>
<!DOCTYPE svg PUBLIC "-//W3C//DTD SVG 1.1//EN" "http://www.w3.org/Graphics/SVG/1.1/DTD/svg11.dtd" >
<svg xmlns="http://www.w3.org/2000/svg" xmlns:xlink="http://www.w3.org/1999/xlink" version="1.1" viewBox="-10 0 1010 1000">
  <g transform="matrix(1 0 0 -1 0 800)">
   <path fill="currentColor"
d="M354.167 8.33105v-62.5h-145.834v62.5v62.5h145.834v-62.5zM353.714 109.12l50.3594 46.8037c-14.1113 15.1826 -31.8164 26.6504 -51.4658 33.2988c-19.6182 6.65039 -40.6621 8.31836 -61.1016 4.83203c-20.46 -3.48633 -39.7197 -12.0107 -56.0508 -24.793
c-16.3506 -12.7969 -29.25 -29.4717 -37.5322 -48.4697c-8.29883 -19.0293 -11.7227 -39.8047 -9.97363 -60.4971c1.74902 -20.6572 8.61621 -40.5947 19.9873 -57.9463c11.3506 -17.3379 26.8711 -31.6152 45.1436 -41.4883
c18.2344 -9.85059 38.6484 -15.0293 59.4199 -15.0293v62.5zM291.667 633.333h62.5v-375h-62.5h-62.5v375h62.5zM625 258.333v62.5l78.6846 0.00390625l-91.002 156.004l53.9863 31.4922l53.9863 31.4922l91 -156c11.0732 -18.9951 16.958 -40.543 17.0322 -62.5674
c0.0732422 -22.0166 -5.65625 -43.6084 -16.6123 -62.6895c-10.9648 -19.0791 -26.7412 -34.9102 -45.791 -45.9307c-19.0312 -11.0137 -40.6426 -16.8105 -62.6328 -16.8047h-78.6514v62.5z" />
  </g>

</svg>
