<?xml version="1.0" standalone="no"?>
<!DOCTYPE svg PUBLIC "-//W3C//DTD SVG 1.1//EN" "http://www.w3.org/Graphics/SVG/1.1/DTD/svg11.dtd" >
<svg xmlns="http://www.w3.org/2000/svg" xmlns:xlink="http://www.w3.org/1999/xlink" version="1.1" viewBox="-10 0 1010 1000">
  <g transform="matrix(1 0 0 -1 0 800)">
   <path fill="currentColor"
d="M468.75 550c-17.2676 0 -31.25 13.9814 -31.25 31.25c0 17.2676 13.9814 31.25 31.25 31.25c17.2676 0 31.25 -13.9814 31.25 -31.25c0 -17.2676 -13.9814 -31.25 -31.25 -31.25zM468.75 425c86.2861 0 156.25 69.9629 156.25 156.25
c0 86.2861 -69.9629 156.25 -156.25 156.25c-86.2861 0 -156.25 -69.9629 -156.25 -156.25c0 -86.2861 69.9629 -156.25 156.25 -156.25zM468.75 487.5h62.5v-125h-62.5h-62.5v125h62.5zM875 -75l-50 -37.5l-168.75 225h-187.5h-62.5v62.5v187.5h62.5h62.5v-125h156.25
h31.25l18.75 -25l187.5 -250zM468.75 362.5v62.5h218.75v-62.5v-62.5h-218.75v62.5zM875 -75l50 37.5l-187.5 250l-18.75 25h-31.25h-156.25v125h-62.5h-62.5v-187.5v-62.5h62.5h187.5l168.75 -225zM468.75 362.5v62.5h218.75v-62.5v-62.5h-218.75v62.5zM468.75 362.5v-62.5
h218.75v62.5v62.5h-218.75v-62.5zM312.5 362.5l11.1807 -61.4922c-31.9326 -5.80566 -55.1738 -16.041 -72.2881 -27.9883c-61.9756 -43.2617 -67.1924 -136.673 -16.3525 -209.491c44.6494 -63.9512 120.828 -100.63 229.118 -24.8262l35.8418 -51.2021l35.8418 -51.2021
c-163.873 -114.711 -324.304 -57.4639 -403.293 55.6738c-76.8428 110.062 -89.2627 288.223 47.2949 383.546c33.584 23.4434 74.457 39.9258 121.476 48.4746z" />
  </g>

</svg>
