<?xml version="1.0" standalone="no"?>
<!DOCTYPE svg PUBLIC "-//W3C//DTD SVG 1.1//EN" "http://www.w3.org/Graphics/SVG/1.1/DTD/svg11.dtd" >
<svg xmlns="http://www.w3.org/2000/svg" xmlns:xlink="http://www.w3.org/1999/xlink" version="1.1" viewBox="-10 0 1010 1000">
  <g transform="matrix(1 0 0 -1 0 800)">
   <path fill="currentColor"
d="M500 445.833c-57.5205 0 -104.167 46.6191 -104.167 104.167c0 57.5205 46.6191 104.167 104.167 104.167c57.5205 0 104.167 -46.6191 104.167 -104.167c0 -57.5205 -46.6191 -104.167 -104.167 -104.167zM500 508.333c23.0117 0 41.667 18.6553 41.667 41.667
s-18.6553 41.667 -41.667 41.667s-41.667 -18.6553 -41.667 -41.667s18.6553 -41.667 41.667 -41.667zM500 -54.1689c-57.5225 0 -104.167 46.6221 -104.167 104.169c0 57.5195 46.6172 104.169 104.167 104.169c57.5225 0 104.167 -46.6221 104.167 -104.169
c0 -57.5195 -46.6172 -104.169 -104.167 -104.169zM500 8.33105c23.0117 0 41.667 18.6562 41.667 41.6689s-18.6553 41.6689 -41.667 41.6689s-41.667 -18.6562 -41.667 -41.6689s18.6553 -41.6689 41.667 -41.6689zM208.333 300v62.5h583.336v-62.5v-62.5h-583.336v62.5z
" />
  </g>

</svg>
