<?xml version="1.0" standalone="no"?>
<!DOCTYPE svg PUBLIC "-//W3C//DTD SVG 1.1//EN" "http://www.w3.org/Graphics/SVG/1.1/DTD/svg11.dtd" >
<svg xmlns="http://www.w3.org/2000/svg" xmlns:xlink="http://www.w3.org/1999/xlink" version="1.1" viewBox="-10 0 1010 1000">
  <g transform="matrix(1 0 0 -1 0 800)">
   <path fill="currentColor"
d="M580.806 219.194c-44.6328 -44.6348 -116.978 -44.6357 -161.61 -0.000976562c-44.6338 44.6348 -44.6338 116.979 0 161.611c44.6328 44.6338 116.978 44.6338 161.61 0c44.6357 -44.6338 44.6348 -116.978 0 -161.61zM669.194 130.806
c93.4385 93.4365 93.4385 244.953 0 338.39c-93.4365 93.4365 -244.951 93.4365 -338.39 0c-93.4365 -93.4365 -93.4365 -244.952 0 -338.389c93.4365 -93.4395 244.951 -93.4404 338.39 -0.000976562zM870.84 431.24l4.16016 -6.24023l34.6689 -52.0029
c-131.614 -87.7432 -279.729 -54.3105 -349.218 49.9941c-52.2041 78.3604 -53.3105 187.894 12.5459 286.678l52.0029 -34.6689l52.0029 -34.6689c-41.8545 -62.7812 -34.6553 -114.813 -12.5234 -148.035c28.7129 -43.0986 94.0322 -69.8389 175.852 -15.293z
M129.16 168.76l-4.16016 6.24023l-34.6689 52.0029c131.614 87.7432 279.729 54.3105 349.218 -49.9941c52.2041 -78.3604 53.3105 -187.894 -12.5459 -286.678l-52.0029 34.6689l-52.0029 34.6689c41.8545 62.7812 34.6553 114.813 12.5234 148.035
c-28.7129 43.0986 -94.0322 69.8389 -175.852 15.293z" />
  </g>

</svg>
