<?xml version="1.0" standalone="no"?>
<!DOCTYPE svg PUBLIC "-//W3C//DTD SVG 1.1//EN" "http://www.w3.org/Graphics/SVG/1.1/DTD/svg11.dtd" >
<svg xmlns="http://www.w3.org/2000/svg" xmlns:xlink="http://www.w3.org/1999/xlink" version="1.1" viewBox="-10 0 1010 1000">
  <g transform="matrix(1 0 0 -1 0 800)">
   <path fill="currentColor"
d="M875 550v-62.5h-166.669c-16.5732 0 -32.4688 -6.58301 -44.1934 -18.3076c-11.7197 -11.7197 -18.3047 -27.6152 -18.3047 -44.1924s6.58398 -32.4717 18.3066 -44.1943c11.7217 -11.7217 27.6182 -18.3057 44.1914 -18.3057h41.6689
c49.7266 0 97.4189 -19.7568 132.579 -54.916c35.167 -35.1631 54.9209 -82.8564 54.9209 -132.584s-19.7539 -97.416 -54.9189 -132.582c-35.1641 -35.1631 -82.8545 -54.918 -132.581 -54.918h-166.667v62.5v62.5h166.667c16.5742 0 32.4688 6.58301 44.1943 18.3076
c11.7217 11.7227 18.3057 27.6182 18.3057 44.1924c0 16.5781 -6.58398 32.4717 -18.3047 44.1914c-11.7275 11.7275 -27.6201 18.3086 -44.1953 18.3086h-41.6689c-49.7256 0 -97.417 19.7539 -132.581 54.9189c-35.1611 35.1602 -54.917 82.8535 -54.917 132.581
s19.7549 97.4199 54.918 132.582c35.1611 35.1631 82.8555 54.918 132.58 54.918h166.669v-62.5zM416.667 550v-62.5h-166.667c-16.5791 0 -32.4678 -6.5791 -44.1953 -18.3086c-11.7207 -11.7197 -18.3047 -27.6133 -18.3047 -44.1914
c0 -16.5791 6.5791 -32.4678 18.3086 -44.1953c11.7197 -11.7207 27.6133 -18.3047 44.1914 -18.3047h41.667c49.7246 0 97.4229 -19.7559 132.581 -54.917c35.1641 -35.1631 54.9189 -82.8545 54.9189 -132.583c0 -49.7275 -19.7559 -97.417 -54.916 -132.58
c-35.1641 -35.167 -82.8574 -54.9199 -132.584 -54.9199h-166.667v62.5v62.5h166.667c16.5762 0 32.4727 6.58496 44.1924 18.3047c11.7246 11.7256 18.3076 27.6221 18.3076 44.1953c0 16.5771 -6.58496 32.4727 -18.3047 44.1924
c-11.7256 11.7256 -27.6182 18.3076 -44.1953 18.3076h-41.667c-49.7275 0 -97.4209 19.7539 -132.584 54.9209c-35.1572 35.1543 -54.916 82.8535 -54.916 132.579c0 49.7275 19.7539 97.4209 54.9209 132.584c35.1543 35.1572 82.8535 54.916 132.579 54.916h166.667
v-62.5zM708.331 -33.3311h-62.5v83.3311h62.5h62.5v-83.3311h-62.5zM750 550h62.5v83.333h-62.5h-62.5v-83.333h62.5z" />
  </g>

</svg>
