<?xml version="1.0" standalone="no"?>
<!DOCTYPE svg PUBLIC "-//W3C//DTD SVG 1.1//EN" "http://www.w3.org/Graphics/SVG/1.1/DTD/svg11.dtd" >
<svg xmlns="http://www.w3.org/2000/svg" xmlns:xlink="http://www.w3.org/1999/xlink" version="1.1" viewBox="-10 0 1010 1000">
  <g transform="matrix(1 0 0 -1 0 800)">
   <path fill="currentColor"
d="M875 550v-62.5h-166.669c-16.5742 0 -32.4678 -6.58203 -44.1934 -18.3076c-11.7197 -11.7197 -18.3037 -27.6143 -18.3037 -44.1924c0 -16.5791 6.58203 -32.4707 18.3066 -44.1943c11.7207 -11.7217 27.6172 -18.3057 44.1904 -18.3057h41.6689
c49.7266 0 97.4189 -19.7568 132.579 -54.916c35.167 -35.1631 54.9209 -82.8564 54.9209 -132.584s-19.7539 -97.416 -54.9189 -132.582c-35.1641 -35.1631 -82.8545 -54.918 -132.581 -54.918h-166.666v62.5v62.5h166.666c16.5742 0 32.4688 6.58301 44.1943 18.3076
c11.7217 11.7227 18.3057 27.6182 18.3057 44.1924c0 16.5781 -6.58398 32.4717 -18.3047 44.1914c-11.7275 11.7275 -27.6201 18.3086 -44.1953 18.3086h-41.6689c-49.7256 0 -97.418 19.7539 -132.581 54.9199c-35.1602 35.1582 -54.916 82.8535 -54.916 132.58
c0 49.7275 19.7529 97.4199 54.918 132.583c35.1592 35.1611 82.8545 54.917 132.579 54.917h166.669v-62.5zM416.667 50v-62.5h-41.667c-82.8789 0 -162.368 32.9238 -220.971 91.5293c-58.6045 58.6035 -91.5293 138.09 -91.5293 220.971
c0 82.8818 32.9229 162.364 91.5293 220.974c58.6055 58.6025 138.09 91.5273 220.971 91.5273h41.667v-62.5v-62.5h-41.667c-49.7285 0 -97.4199 -19.7549 -132.584 -54.918c-35.1602 -35.1611 -54.916 -82.8535 -54.916 -132.582
c0 -49.7295 19.7549 -97.4209 54.916 -132.581c35.167 -35.167 82.8535 -54.9189 132.584 -54.9189h41.667v-62.5v-0.000976562zM708.331 -33.3311h-62.5v83.3311h62.5h62.5v-83.3311h-62.5zM750 550h62.5v83.333h-62.5h-62.5v-83.333h62.5z" />
  </g>

</svg>
