<?xml version="1.0" standalone="no"?>
<!DOCTYPE svg PUBLIC "-//W3C//DTD SVG 1.1//EN" "http://www.w3.org/Graphics/SVG/1.1/DTD/svg11.dtd" >
<svg xmlns="http://www.w3.org/2000/svg" xmlns:xlink="http://www.w3.org/1999/xlink" version="1.1" viewBox="-10 0 1010 1000">
  <g transform="matrix(1 0 0 -1 0 800)">
   <path fill="currentColor"
d="M333.64 143.719l29.4727 10.3877c4.14648 -11.7656 11.7207 -22.0225 21.7422 -29.4453c9.73535 -7.20996 21.123 -11.3887 33.3887 -12.1611h165.091c16.5791 0 32.4736 6.58594 44.1855 18.3008c11.7354 11.7354 18.3125 27.623 18.3125 44.1992
c0 16.5781 -6.58398 32.4717 -18.3037 44.1914c-11.7285 11.7305 -27.6123 18.3086 -44.1943 18.3086h-166.667c-49.7266 0 -97.4199 19.7539 -132.584 54.9199c-35.1582 35.1572 -54.916 82.8535 -54.916 132.58c0 49.7285 19.7549 97.4199 54.9189 132.583
c35.1582 35.1602 82.8555 54.917 132.58 54.917h168.017c37.832 -1.63281 74.79 -14.4414 104.861 -36.7148c30.0811 -22.2812 52.793 -53.0488 65.2344 -88.3418l-117.893 -41.5527c-4.14844 11.7695 -11.7227 22.0254 -21.7412 29.4473
c-9.77637 7.24023 -21.5781 11.418 -33.3896 12.1621h-165.089c-16.5781 0 -32.4697 -6.58105 -44.1943 -18.3076c-11.7207 -11.7197 -18.3057 -27.6152 -18.3057 -44.1924c0 -16.5781 6.58203 -32.4697 18.3076 -44.1953
c11.7207 -11.7207 27.6162 -18.3047 44.1924 -18.3047h166.667c49.7227 0 97.4307 -19.7598 132.577 -54.916c35.167 -35.1631 54.9209 -82.8564 54.9209 -132.584c0 -49.7246 -19.7598 -97.4229 -54.9121 -132.576c-35.1631 -35.1719 -82.8594 -54.9229 -132.586 -54.9229
h-168.015c-37.833 1.63184 -74.79 14.4395 -104.863 36.7139c-30.0762 22.2764 -52.7949 53.0449 -65.2354 88.3428zM500 50h62.5v-125h-62.5h-62.5v125h62.5zM437.5 675v-125c0.625 0 125 -0.625 125 0v125c0 0.625 -125 0 -125 0zM437.5 675h125v-125h-125v125zM437.5 675
v-125c0.625 0 125 -0.625 125 0v125c0 0.625 -125 0 -125 0zM437.5 675h125v-125h-125v125z" />
  </g>

</svg>
