<?xml version="1.0" standalone="no"?>
<!DOCTYPE svg PUBLIC "-//W3C//DTD SVG 1.1//EN" "http://www.w3.org/Graphics/SVG/1.1/DTD/svg11.dtd" >
<svg xmlns="http://www.w3.org/2000/svg" xmlns:xlink="http://www.w3.org/1999/xlink" version="1.1" viewBox="-10 0 1010 1000">
  <g transform="matrix(1 0 0 -1 0 800)">
   <path fill="currentColor"
d="M125 50l-60.0947 17.1709l136.637 478.209c5.6084 19.5752 17.4248 36.7812 33.7012 49.0508c16.252 12.2461 36.0586 18.8799 56.4238 18.8799s40.167 -6.62793 56.4316 -18.8867c16.2617 -12.2588 28.0811 -29.4395 33.7041 -49.0869l136.625 -478.166
l-60.0947 -17.1709l-60.0947 -17.1709l-106.571 372.983l-106.571 -372.983zM875 550v-62.5h-166.669c-16.5742 0 -32.4678 -6.58203 -44.1934 -18.3076c-11.7197 -11.7197 -18.3037 -27.6143 -18.3037 -44.1924c0 -16.5791 6.58203 -32.4707 18.3066 -44.1943
c11.7207 -11.7217 27.6172 -18.3057 44.1904 -18.3057h41.6689c49.7266 0 97.4189 -19.7568 132.579 -54.916c35.167 -35.1631 54.9209 -82.8564 54.9209 -132.584s-19.7539 -97.416 -54.9189 -132.582c-35.1641 -35.1631 -82.8545 -54.918 -132.581 -54.918h-166.666v62.5
v62.5h166.666c16.5742 0 32.4688 6.58301 44.1943 18.3076c11.7217 11.7227 18.3057 27.6182 18.3057 44.1924c0 16.5781 -6.58398 32.4717 -18.3047 44.1914c-11.7275 11.7275 -27.6201 18.3086 -44.1953 18.3086h-41.6689c-49.7256 0 -97.418 19.7539 -132.581 54.9199
c-35.1602 35.1582 -54.916 82.8535 -54.916 132.58c0 49.7275 19.7529 97.4199 54.918 132.583c35.1592 35.1611 82.8545 54.917 132.579 54.917h166.669v-62.5zM708.331 -33.3311h-62.5v83.3311h62.5h62.5v-83.3311h-62.5zM750 550h62.5v83.333h-62.5h-62.5v-83.333h62.5z
M187.5 216.667v-62.5h208.333v62.5v62.5h-208.333v-62.5z" />
  </g>

</svg>
