<?xml version="1.0" standalone="no"?>
<!DOCTYPE svg PUBLIC "-//W3C//DTD SVG 1.1//EN" "http://www.w3.org/Graphics/SVG/1.1/DTD/svg11.dtd" >
<svg xmlns="http://www.w3.org/2000/svg" xmlns:xlink="http://www.w3.org/1999/xlink" version="1.1" viewBox="-10 0 1010 1000">
  <g transform="matrix(1 0 0 -1 0 800)">
   <path fill="currentColor"
d="M187.5 487.5c-69.0283 0 -125 55.9736 -125 125c0 69.0283 55.9736 125 125 125c69.0283 0 125 -55.9736 125 -125c0 -69.0283 -55.9736 -125 -125 -125zM500 175c-69.0283 0 -125 55.9736 -125 125c0 69.0283 55.9736 125 125 125c69.0283 0 125 -55.9736 125 -125
c0 -69.0283 -55.9736 -125 -125 -125zM812.5 -137.5c-69.0283 0 -125 55.9736 -125 125c0 69.0283 55.9736 125 125 125c69.0283 0 125 -55.9736 125 -125c0 -69.0283 -55.9736 -125 -125 -125z" />
  </g>

</svg>
