<?xml version="1.0" standalone="no"?>
<!DOCTYPE svg PUBLIC "-//W3C//DTD SVG 1.1//EN" "http://www.w3.org/Graphics/SVG/1.1/DTD/svg11.dtd" >
<svg xmlns="http://www.w3.org/2000/svg" xmlns:xlink="http://www.w3.org/1999/xlink" version="1.1" viewBox="-10 0 1010 1000">
  <g transform="matrix(1 0 0 -1 0 800)">
   <path fill="currentColor"
d="M551.958 709.673l250.042 -375l1.12891 -1.69336l1.0166 -1.7627c24.6797 -42.8057 36.0098 -89.4229 36.0186 -134.92c0.0332031 -171.833 -154.021 -333.797 -340.164 -333.797c-59.5156 0 -115.491 16.9941 -163.648 44.7188
c-139.164 80.1191 -232.199 264.941 -140.496 423.998l1.01367 1.75879l1.12598 1.68945l249.958 375l51.9971 78.0088zM499.967 562.326l-196.74 -295.16c-45.418 -81.5137 -0.246094 -198.325 98.2979 -253.206c30.4365 -16.9512 63.9619 -26.46 98.4766 -26.46
c114.345 0 215.184 108.709 215.163 208.773c-0.00390625 24.6094 -5.39941 47.5762 -18.3877 70.8887z" />
  </g>

</svg>
