<?xml version="1.0" standalone="no"?>
<!DOCTYPE svg PUBLIC "-//W3C//DTD SVG 1.1//EN" "http://www.w3.org/Graphics/SVG/1.1/DTD/svg11.dtd" >
<svg xmlns="http://www.w3.org/2000/svg" xmlns:xlink="http://www.w3.org/1999/xlink" version="1.1" viewBox="-10 0 1010 1000">
  <g transform="matrix(1 0 0 -1 0 800)">
   <path fill="currentColor"
d="M361.267 -8.99219l19.5996 24.3398c14.3594 -11.5625 31.0918 -19.8066 48.9941 -24.1377c17.9375 -4.34375 36.5605 -4.66211 54.6191 -0.944336c18.0459 3.71582 35.0596 11.3809 49.8018 22.4395c13.8867 10.416 24.998 22.9707 33.8535 38.5576
c21.4033 54.5723 54.543 103.917 97.3428 144.232l2.55176 2.40332l2.80469 2.10352c26.0605 19.543 48.5977 41.7949 68.8633 68.2275c17.0205 29.3086 27.6289 62.6934 30.3936 96.873c2.8418 35.1982 -2.49316 70.6113 -15.5869 103.414
c-13.0996 32.8174 -33.6016 62.1543 -59.9121 85.7285c-26.3057 23.5703 -57.7188 40.7451 -91.7666 50.1738c-34.0459 9.42871 -69.8115 10.8574 -104.502 4.17578c-34.6924 -6.68164 -67.3662 -21.293 -95.4766 -42.6934
c-28.1084 -21.4004 -50.8896 -49.0107 -66.5615 -80.6719s-23.8135 -66.5195 -23.7852 -101.848l-62.5 -0.0488281l-62.5 -0.0498047c-0.0429688 54.5996 12.5371 108.467 36.7588 157.399c24.2207 48.9307 59.4277 91.6016 102.868 124.674
c43.4424 33.0742 93.9414 55.6562 147.554 65.9824c53.6133 10.3262 108.889 8.11816 161.506 -6.45312c52.6182 -14.5723 101.153 -41.1074 141.821 -77.5449c40.6641 -36.4355 72.3496 -81.7783 92.5889 -132.483c20.2432 -50.7119 28.4824 -105.396 24.0879 -159.832
c-4.40234 -54.4209 -21.3252 -107.086 -49.4424 -153.882l-1.65234 -2.75l-1.92578 -2.56641c-26.4668 -35.2822 -58.0488 -66.9844 -92.7998 -93.5352c-29.2715 -28.3008 -51.1953 -61.7305 -65.3867 -99.3525l-1.3916 -3.68945l-1.84473 -3.48535
c-17.2393 -32.5752 -41.4658 -60.9385 -70.9561 -83.0576c-29.4854 -22.1162 -63.4932 -37.4395 -99.5977 -44.874c-36.0967 -7.43164 -73.4199 -6.78809 -109.22 1.88086c-35.8359 8.66992 -69.2988 25.1621 -98.001 48.2754l39.2002 48.6787zM604.165 314.957
l-20.835 23.291c7.79199 6.96973 13.709 15.7832 17.2139 25.6387c3.50488 9.8584 4.47949 20.4346 2.83887 30.7441c-1.64551 10.3574 -5.84277 20.0801 -12.2324 28.3633c-6.39453 8.29297 -14.7412 14.8252 -24.3203 19.04
c-9.57324 4.21289 -20.0479 5.95508 -30.4639 5.06934c-10.4219 -0.886719 -20.4541 -4.37305 -29.1748 -10.1377c-8.72168 -5.76562 -15.8584 -13.6289 -20.7559 -22.8701c-4.89746 -9.23926 -7.39746 -19.5566 -7.27148 -30.0146l-31.248 -0.374023l-31.248 -0.374023
l-62.4951 -0.748047c-0.375977 31.3662 7.125 62.3311 21.8164 90.0479c14.6895 27.7148 36.0977 51.3057 62.2686 68.6074c26.1719 17.3008 56.2607 27.7549 87.5176 30.4141c31.2588 2.65723 62.6846 -2.57129 91.3965 -15.2051
c28.7061 -12.6309 53.8105 -32.2793 72.9531 -57.1074c19.1582 -24.8359 31.7871 -54.1152 36.7041 -85.0635c4.93457 -31 1.99707 -62.7207 -8.50977 -92.2705c-10.5088 -29.5547 -28.2656 -56.0049 -51.6494 -76.9238l-41.6699 46.582z" />
  </g>

</svg>
