<?xml version="1.0" standalone="no"?>
<!DOCTYPE svg PUBLIC "-//W3C//DTD SVG 1.1//EN" "http://www.w3.org/Graphics/SVG/1.1/DTD/svg11.dtd" >
<svg xmlns="http://www.w3.org/2000/svg" xmlns:xlink="http://www.w3.org/1999/xlink" version="1.1" viewBox="-10 0 1010 1000">
  <g transform="matrix(1 0 0 -1 0 800)">
   <path fill="currentColor"
d="M770.831 237.5v269.772c-65.8779 -97.8867 -79.6201 -180.507 -82.7051 -269.772h82.7051zM895.831 175v-62.5h-62.5h-208.331h-62.1104l-0.388672 62.1094c-0.988281 158.146 13.0635 340.876 227.69 545.614l105.64 100.772v-145.997v-500v0.000976562zM791.669 50
h-62.5v-187.5h166.662v312.5h-125v-65.625zM333.333 300h-62.5v-250h62.5h62.5v250h-62.5zM166.666 737.5h333.334h69.8291l-7.71094 -69.4023l-41.667 -375l-6.17773 -55.5977h-55.9404h-250h-55.9404l-6.17676 55.5977l-41.667 375l-7.71191 69.4023h69.8291z
M236.495 612.5h193.676l-27.7783 -250h-138.119zM291.666 112.5h83.334h62.5v-62.5v-125v-62.5h-62.5h-83.334h-62.5v62.5v125v62.5h62.5zM791.669 50l-20.8379 59.375v65.625h125v-312.5h-166.662v187.5h62.5zM333.333 300h62.5v-250h-62.5h-62.5v250h62.5zM166.666 737.5
h-69.8291l7.71191 -69.4023l41.667 -375l6.17676 -55.5977h55.9404h250h55.9404l6.17773 55.5977l41.667 375l7.71094 69.4023h-69.8291h-333.334zM236.495 612.5l27.7783 -250h138.119l27.7783 250h-193.677h0.000976562zM291.666 112.5h83.334h62.5v-62.5v-125v-62.5
h-62.5h-83.334h-62.5v62.5v125v62.5h62.5zM333.333 300h-62.5v-250h62.5h62.5v250h-62.5zM166.666 737.5h333.334h69.8291l-7.71094 -69.4023l-41.667 -375l-6.17773 -55.5977h-55.9404h-250h-55.9404l-6.17676 55.5977l-41.667 375l-7.71191 69.4023h69.8291z
M236.495 612.5h193.676l-27.7783 -250h-138.119zM291.666 112.5h-62.5v-62.5v-125v-62.5h62.5h83.334h62.5v62.5v125v62.5h-62.5h-83.334zM166.666 737.5h-69.8291l7.71191 -69.4023l41.667 -375l6.17676 -55.5977h55.9404h250h55.9404l6.17773 55.5977l41.667 375
l7.71094 69.4023h-69.8291h-333.334zM236.495 612.5l27.7783 -250h138.119l27.7783 250h-193.677h0.000976562zM291.666 112.5h83.334h62.5v-62.5v-125v-62.5h-62.5h-83.334h-62.5v62.5v125v62.5h62.5zM291.666 112.5h-62.5v-62.5v-125v-62.5h62.5h83.334h62.5v62.5v125
v62.5h-62.5h-83.334z" />
  </g>

</svg>
