<?xml version="1.0" standalone="no"?>
<!DOCTYPE svg PUBLIC "-//W3C//DTD SVG 1.1//EN" "http://www.w3.org/Graphics/SVG/1.1/DTD/svg11.dtd" >
<svg xmlns="http://www.w3.org/2000/svg" xmlns:xlink="http://www.w3.org/1999/xlink" version="1.1" viewBox="-10 0 1010 1000">
  <g transform="matrix(1 0 0 -1 0 800)">
   <path fill="currentColor"
d="M375 508.333v-62.5h-125c-5.52441 0 -10.8223 -2.19336 -14.7334 -6.10449c-3.9043 -3.90332 -6.09961 -9.20117 -6.09961 -14.7295v-374.999c0 -5.5293 2.18945 -10.8193 6.10742 -14.7363c3.89941 -3.90039 9.18945 -6.09473 14.7256 -6.09473h375
c5.54199 0 10.8115 2.17969 14.7412 6.11133c3.8916 3.89062 6.08984 9.18457 6.08984 14.7197v125h62.5h62.5v-125c0 -38.6602 -15.3604 -75.7803 -42.7119 -103.119c-27.3408 -27.3525 -64.459 -42.7119 -103.119 -42.7119h-375
c-38.667 0 -75.7686 15.3535 -103.126 42.7188c-27.3379 27.332 -42.707 64.4424 -42.707 103.112v374.999c0 38.6768 15.3633 75.7715 42.7148 103.121c27.3447 27.3457 64.4395 42.7129 103.118 42.7129h125v-62.5zM437.5 237.5h36.6113l335.862 335.859
c4.85547 4.85547 7.58301 11.4424 7.58301 18.3066c0 6.86328 -2.7334 13.457 -7.5752 18.2998c-4.86523 4.86328 -11.4561 7.58887 -18.3125 7.58887c-6.86816 0 -13.4502 -2.72656 -18.3057 -7.58301l-335.863 -335.861v-36.6104zM375 112.5h-62.5v62.5v124.999v25.8877
l18.3057 18.3066l354.169 354.167c28.2949 28.2959 66.6738 44.1943 106.694 44.1943c40.0186 0 78.3906 -15.8994 106.688 -44.1875c28.3086 -28.3105 44.2002 -66.6787 44.2002 -106.701c0 -40.0186 -15.8975 -78.3965 -44.1934 -106.693l-354.169 -354.167
l-18.3057 -18.3057h-25.8887h-125v0zM666.669 591.667l-44.1943 -44.1943l125 -125l44.1943 44.1943l44.1943 44.1943l-125 125z" />
  </g>

</svg>
