<?xml version="1.0" standalone="no"?>
<!DOCTYPE svg PUBLIC "-//W3C//DTD SVG 1.1//EN" "http://www.w3.org/Graphics/SVG/1.1/DTD/svg11.dtd" >
<svg xmlns="http://www.w3.org/2000/svg" xmlns:xlink="http://www.w3.org/1999/xlink" version="1.1" viewBox="-10 0 1010 1000">
  <g transform="matrix(1 0 0 -1 0 800)">
   <path fill="currentColor"
d="M500 -137.5c-182.138 0 -311.502 132.996 -312.498 311.08c-0.399414 9.34082 -0.584961 18.9775 -0.5625 29.0713c0.344727 154.514 50.3428 535.521 313.06 534.848c2.83008 0.00683594 6.32324 -0.0576172 9.39258 -0.183594
c263.703 -10.835 308.961 -425.674 303.106 -563.728c-1.00195 -179.068 -130.873 -311.088 -312.498 -311.088v0zM500 -12.5c116.08 0 187.5 73.5039 187.5 187.5v1.41504l0.0644531 1.41406c7.0625 155.852 -72.166 429.649 -182.995 434.578
c-1.5459 0.0693359 -2.70508 0.0957031 -4.57031 0.0917969c-112.617 0.288086 -187.666 -233.427 -188.06 -410.126c-0.0195312 -8.77539 0.154297 -17.0049 0.496094 -24.543l0.0644531 -1.41406v-1.41602c0 -113.996 71.4189 -187.5 187.5 -187.5v0z" />
  </g>

</svg>
