<?xml version="1.0" standalone="no"?>
<!DOCTYPE svg PUBLIC "-//W3C//DTD SVG 1.1//EN" "http://www.w3.org/Graphics/SVG/1.1/DTD/svg11.dtd" >
<svg xmlns="http://www.w3.org/2000/svg" xmlns:xlink="http://www.w3.org/1999/xlink" version="1.1" viewBox="-10 0 1010 1000">
  <g transform="matrix(1 0 0 -1 0 800)">
   <path fill="currentColor"
d="M465.331 122.997l-375 250l-78.0049 52.0029l78.0049 52.0029l375 250l34.6689 23.1123l34.6689 -23.1123l375 -250l78.0049 -52.0029l-78.0049 -52.0029l-375 -250l-34.6689 -23.1123zM500 250.115l262.326 174.885l-262.326 174.885l-262.326 -174.885zM875 425h62.5
v-437.5v-62.5h-62.5h-750h-62.5v62.5v437.5h62.5h62.5v-375h625v375h62.5zM125 -12.5l44.1943 -44.1943l250 250l-44.1943 44.1943l-44.1943 44.1943l-250 -250zM625 237.5l-44.1943 -44.1943l250 -250l44.1943 44.1943l44.1943 44.1943l-250 250z" />
  </g>

</svg>
