<?xml version="1.0" standalone="no"?>
<!DOCTYPE svg PUBLIC "-//W3C//DTD SVG 1.1//EN" "http://www.w3.org/Graphics/SVG/1.1/DTD/svg11.dtd" >
<svg xmlns="http://www.w3.org/2000/svg" xmlns:xlink="http://www.w3.org/1999/xlink" version="1.1" viewBox="-10 0 1010 1000">
  <g transform="matrix(1 0 0 -1 0 800)">
   <path fill="currentColor"
d="M626.306 70.8311h165.363v-62.5v-62.5h-253.867h-204.469h-25.8887l-18.3057 18.3066l-166.731 166.733c-19.5322 19.6484 -30.3564 45.959 -30.3564 73.5029c0 27.541 10.8252 53.8594 30.3584 73.5059l416.796 416.796c19.6475 19.5332 45.96 30.3564 73.5039 30.3564
c27.543 0 53.8584 -10.8271 73.502 -30.3574l208.475 -208.47c19.5303 -19.6582 30.3467 -45.9482 30.3467 -73.498c0 -27.5479 -10.8174 -53.8418 -30.3477 -73.4971zM449.528 70.8311l13.0918 13.0918l328.785 328.785l-178.698 178.694l-387.026 -387.028
l133.541 -133.543h90.3066v0zM750 287.5l44.1943 44.1943l-262.5 262.5l-44.1943 -44.1943l-44.1943 -44.1943l262.5 -262.5z" />
  </g>

</svg>
