<?xml version="1.0" standalone="no"?>
<!DOCTYPE svg PUBLIC "-//W3C//DTD SVG 1.1//EN" "http://www.w3.org/Graphics/SVG/1.1/DTD/svg11.dtd" >
<svg xmlns="http://www.w3.org/2000/svg" xmlns:xlink="http://www.w3.org/1999/xlink" version="1.1" viewBox="-10 0 1010 1000">
  <g transform="matrix(1 0 0 -1 0 800)">
   <path fill="currentColor"
d="M197.997 334.669l250 375l52.0029 78.0049l52.0029 -78.0049l250 -375l23.1123 -34.6689l-23.1123 -34.6689l-250 -375l-52.0029 -78.0049l-52.0029 78.0049l-250 375l-23.1123 34.6689zM325.115 300l174.885 -262.326l174.885 262.326l-174.885 262.326z
M222.049 355.901l250 125l27.9512 13.9756l27.9512 -13.9756l250 -125l134.958 -67.4795l-143.145 -47.7148l-250 -83.333l-19.7646 -6.58789l-19.7646 6.58789l-250 83.333l-143.146 47.7148zM412.909 311.578l87.0908 -29.0303l87.0908 29.0303l-87.0908 43.5449z" />
  </g>

</svg>
