<?xml version="1.0" standalone="no"?>
<!DOCTYPE svg PUBLIC "-//W3C//DTD SVG 1.1//EN" "http://www.w3.org/Graphics/SVG/1.1/DTD/svg11.dtd" >
<svg xmlns="http://www.w3.org/2000/svg" xmlns:xlink="http://www.w3.org/1999/xlink" version="1.1" viewBox="-10 0 1010 1000">
  <g transform="matrix(1 0 0 -1 0 800)">
   <path fill="currentColor"
d="M750 567.856l-48.792 -39.0586c-33.9316 42.3867 -74.8643 68.6406 -116.675 78.8193c-41.7051 10.1523 -84.2051 4.76855 -124.826 -16.9932c-40.7021 -21.8037 -78.0645 -60.0479 -105.128 -111.97c-27.0205 -51.8408 -42.0791 -114.394 -42.0791 -178.655
c0 -64.2598 15.0596 -126.817 42.0781 -178.654c27.0635 -51.9209 64.4277 -90.167 105.13 -111.973c40.6182 -21.7598 83.1191 -27.1436 124.827 -16.9902c41.8086 10.1777 82.7412 36.4297 116.672 78.8193l48.793 -39.0576l48.793 -39.0576
c-48.8076 -60.9727 -112.712 -104.636 -184.693 -122.156c-72.0752 -17.5459 -147.241 -7.19336 -213.419 28.2588c-66.0957 35.4082 -119.897 93.2998 -156.947 164.379c-37.0928 71.1631 -56.2324 153.011 -56.2324 236.433s19.1406 165.27 56.2314 236.432
c37.0508 71.0801 90.8545 128.973 156.948 164.38c66.1748 35.4512 141.343 45.8076 213.421 28.2588c71.9805 -17.5234 135.885 -61.1846 184.69 -122.154zM562.5 393.75v-62.5h-437.5v62.5v62.5h437.5v-62.5zM125 206.25v62.5h437.5v-62.5v-62.5h-437.5v62.5zM125 206.25
v-62.5h437.5v62.5v62.5h-437.5v-62.5z" />
  </g>

</svg>
