<?xml version="1.0" standalone="no"?>
<!DOCTYPE svg PUBLIC "-//W3C//DTD SVG 1.1//EN" "http://www.w3.org/Graphics/SVG/1.1/DTD/svg11.dtd" >
<svg xmlns="http://www.w3.org/2000/svg" xmlns:xlink="http://www.w3.org/1999/xlink" version="1.1" viewBox="-10 0 1010 1000">
  <g transform="matrix(1 0 0 -1 0 800)">
   <path fill="currentColor"
d="M375 675v-62.5h-77.8564l-109.644 -383.754v-178.746h-62.5h-62.5v187.5v8.75391l2.4043 8.41602l125 437.5l12.9521 45.3301h47.1436h125v-62.5v0zM625 675v-62.5h77.8564l109.644 -383.754v-178.746h62.5h62.5v187.5v8.75391l-2.4043 8.41602l-125 437.5
l-12.9521 45.3301h-47.1436h-125v-62.5zM375 50v-62.5h250v62.5v62.5h-250v-62.5zM750 -12.5c34.5283 0 62.5 27.9717 62.5 62.5s-27.9717 62.5 -62.5 62.5s-62.5 -27.9717 -62.5 -62.5s27.9717 -62.5 62.5 -62.5zM750 -137.5c-103.545 0 -187.5 83.9551 -187.5 187.5
s83.9551 187.5 187.5 187.5s187.5 -83.9551 187.5 -187.5s-83.9551 -187.5 -187.5 -187.5zM250 -12.5c34.5273 0 62.5 27.9727 62.5 62.5s-27.9727 62.5 -62.5 62.5s-62.5 -27.9727 -62.5 -62.5s27.9727 -62.5 62.5 -62.5zM250 -137.5
c-103.543 0 -187.5 83.9541 -187.5 187.5s83.957 187.5 187.5 187.5s187.5 -83.9541 187.5 -187.5s-83.957 -187.5 -187.5 -187.5z" />
  </g>

</svg>
