<?xml version="1.0" standalone="no"?>
<!DOCTYPE svg PUBLIC "-//W3C//DTD SVG 1.1//EN" "http://www.w3.org/Graphics/SVG/1.1/DTD/svg11.dtd" >
<svg xmlns="http://www.w3.org/2000/svg" xmlns:xlink="http://www.w3.org/1999/xlink" version="1.1" viewBox="-10 0 1010 1000">
  <g transform="matrix(1 0 0 -1 0 800)">
   <path fill="currentColor"
d="M625 175l44.6416 -43.7422c-83.8887 -85.6133 -255.392 -85.6162 -339.283 0l89.2832 87.4844c28.7412 -29.332 131.974 -29.335 160.717 0zM125 487.5h-62.5v125c0 34.3838 14.1025 65.8799 36.6113 88.3887s54.0049 36.6113 88.3887 36.6113h125v-62.5v-62.5h-125v-125
h-62.5zM125 112.5h62.5v-125h125v-62.5v-62.5h-125c-34.3838 0 -65.8789 14.1025 -88.3887 36.6113c-22.5088 22.5088 -36.6113 54.0049 -36.6113 88.3887v125h62.5zM875 487.5h-62.5v125h-125v62.5v62.5h125c34.3838 0 65.8799 -14.1025 88.3887 -36.6113
c22.5088 -22.5098 36.6113 -54.0049 36.6113 -88.3887v-125h-62.5zM875 112.5h62.5v-125c0 -34.3838 -14.1025 -65.8789 -36.6113 -88.3887c-22.5098 -22.5088 -54.0049 -36.6113 -88.3887 -36.6113h-125v62.5v62.5h125v125h62.5z" />
  </g>

</svg>
