<?xml version="1.0" standalone="no"?>
<!DOCTYPE svg PUBLIC "-//W3C//DTD SVG 1.1//EN" "http://www.w3.org/Graphics/SVG/1.1/DTD/svg11.dtd" >
<svg xmlns="http://www.w3.org/2000/svg" xmlns:xlink="http://www.w3.org/1999/xlink" version="1.1" viewBox="-10 0 1010 1000">
  <g transform="matrix(1 0 0 -1 0 800)">
   <path fill="currentColor"
d="M583.336 675h62.5v-145.833h145.833v-62.5v-62.5h-166.669c-27.625 0 -54.1211 10.9736 -73.6572 30.5127c-19.5264 19.5254 -30.5068 46.0293 -30.5068 73.6533v166.667h62.5zM250.003 133.331l44.1943 44.1943l125 -125l44.1943 -44.1943l-44.1943 -44.1943l-125 -125
l-44.1943 44.1943l-44.1943 44.1943l80.8057 80.8057l-80.8057 80.8057zM145.836 258.333v333.334c0 38.6768 15.3633 75.7695 42.7158 103.121c27.3477 27.3457 64.4385 42.7119 103.117 42.7119h291.667h25.8887l18.3057 -18.3057l208.333 -208.333l18.3057 -18.3066
v-25.8877v-458.336c0 -38.6865 -15.3535 -75.749 -42.7217 -103.129c-27.3438 -27.332 -64.4277 -42.7021 -103.109 -42.7021h-229.169h-29.748l-18.7598 23.0879l-270.832 333.333l-13.9932 17.2227v22.1895v0zM270.836 280.523v311.144
c0 5.52637 2.19629 10.8252 6.10059 14.7295c3.9082 3.9082 9.20996 6.10352 14.7324 6.10352h265.779l171.721 -171.722v-432.447c0 -5.51562 -2.20117 -10.8301 -6.10059 -14.7305c-3.90039 -3.89941 -9.2168 -6.10059 -14.7305 -6.10059h-199.421zM83.3359 -54.1689
c0 0 -0.625 125 0 125h291.667c0.625 0 0 -124.375 0 -125h-291.667zM83.3359 -54.1689h291.667v125h-291.667v-125zM145.836 258.333v-22.1895l13.9932 -17.2227l270.832 -333.333l18.7598 -23.0879h29.748h229.169c38.6816 0 75.7656 15.3701 103.109 42.7021
c27.3682 27.3799 42.7217 64.4424 42.7217 103.129v458.336v25.8877l-18.3057 18.3066l-208.333 208.333l-18.3057 18.3057h-25.8887h-291.667c-38.6787 0 -75.7695 -15.3662 -103.117 -42.7119c-27.3525 -27.3516 -42.7158 -64.4443 -42.7158 -103.121v-333.334v0z
M270.836 280.523l238.081 -293.023h199.421c5.51367 0 10.8301 2.20117 14.7305 6.10059c3.89941 3.90039 6.10059 9.21484 6.10059 14.7305v432.447l-171.721 171.722h-265.779c-5.52246 0 -10.8242 -2.19531 -14.7324 -6.10352
c-3.9043 -3.9043 -6.10059 -9.20312 -6.10059 -14.7295v-311.144zM83.3359 -54.1689c0 0 -0.625 125 0 125h291.667c0.625 0 0 -124.375 0 -125h-291.667zM83.3359 -54.1689v125h291.667v-125h-291.667zM83.3359 -54.1689h291.667c0 0.625 0.625 125 0 125h-291.667
c-0.625 0 0 -125 0 -125zM83.3359 -54.1689h291.667v125h-291.667v-125z" />
  </g>

</svg>
