<?xml version="1.0" standalone="no"?>
<!DOCTYPE svg PUBLIC "-//W3C//DTD SVG 1.1//EN" "http://www.w3.org/Graphics/SVG/1.1/DTD/svg11.dtd" >
<svg xmlns="http://www.w3.org/2000/svg" xmlns:xlink="http://www.w3.org/1999/xlink" version="1.1" viewBox="-10 0 1010 1000">
  <g transform="matrix(1 0 0 -1 0 800)">
   <path fill="currentColor"
d="M583.336 675h62.5v-145.833h145.833v-62.5v-62.5h-166.669c-27.625 0 -54.1211 10.9736 -73.6572 30.5127c-19.5264 19.5254 -30.5068 46.0293 -30.5068 73.6533v166.667h62.5zM708.338 -137.5h-416.669c-38.6826 0 -75.7617 15.3594 -103.122 42.7158
c-27.3447 27.3477 -42.7109 64.4385 -42.7109 103.115v583.336c0 38.6768 15.3633 75.7695 42.7158 103.121c27.3477 27.3457 64.4385 42.7119 103.117 42.7119h291.667h25.8887l18.3057 -18.3057l208.333 -208.333l18.3057 -18.3066v-25.8877v-458.336
c0 -38.6865 -15.3535 -75.749 -42.7217 -103.129c-27.3438 -27.332 -64.4277 -42.7021 -103.109 -42.7021v0zM708.338 -12.5c5.51367 0 10.8301 2.20117 14.7305 6.10059c3.89941 3.90039 6.10059 9.21484 6.10059 14.7305v432.447l-171.721 171.722h-265.779
c-5.52246 0 -10.8242 -2.19531 -14.7324 -6.10352c-3.9043 -3.9043 -6.10059 -9.20312 -6.10059 -14.7295v-583.336c0 -5.52148 2.19238 -10.8203 6.10547 -14.7344c3.89551 -3.89453 9.20898 -6.09668 14.7275 -6.09668h416.669zM312.5 300v41.667
c0 22.1045 8.77832 43.2939 24.4043 58.9219c15.6416 15.6396 36.8213 24.4111 58.9287 24.4111c22.1064 0 43.2959 -8.78418 58.916 -24.3975c15.6533 -15.6553 24.418 -36.8252 24.418 -58.9355v-41.667c0 -22.1094 -8.77539 -43.2891 -24.4092 -58.9277
c-15.6367 -15.6289 -36.8145 -24.4053 -58.9248 -24.4053c-22.1045 0 -43.2939 8.77832 -58.9219 24.4043c-15.6377 15.6416 -24.4111 36.8184 -24.4111 58.9287zM521.194 168.07h-0.000976562c-15.083 7.10449 -28.9678 16.7988 -40.9824 28.8125
c-27.3467 27.3457 -42.7119 64.4404 -42.7119 103.117h-62.5h-62.5c0 -71.8291 28.5332 -140.717 79.3271 -191.508c50.79 -50.7871 119.677 -79.3232 191.507 -79.3232h41.667c22.0879 0 43.2881 8.76758 58.9258 24.4053s24.4053 36.8379 24.4053 58.9258
s-8.76758 43.2881 -24.4053 58.9258s-36.8379 24.4053 -58.9258 24.4053h-41.667c-22.0908 0 -43.2812 -8.76367 -58.9258 -24.4053c-0.441406 -0.442383 -2.40039 -2.49316 -3.21289 -3.35547zM521.194 168.07v-0.000976562
c0.8125 0.862305 2.77148 2.91309 3.21289 3.35547c15.6445 15.6416 36.835 24.4053 58.9258 24.4053h41.667c22.0879 0 43.2881 -8.76758 58.9258 -24.4053s24.4053 -36.8379 24.4053 -58.9258s-8.76758 -43.2881 -24.4053 -58.9258s-36.8379 -24.4053 -58.9258 -24.4053
h-41.667c-71.8301 0 -140.716 28.5361 -191.507 79.3232c-50.793 50.791 -79.3262 119.679 -79.3262 191.508h62.5h62.5c0 -38.6758 15.3652 -75.7705 42.7119 -103.116c12.0146 -12.0137 25.8994 -21.708 40.9824 -28.8125z" />
  </g>

</svg>
