<?xml version="1.0" standalone="no"?>
<!DOCTYPE svg PUBLIC "-//W3C//DTD SVG 1.1//EN" "http://www.w3.org/Graphics/SVG/1.1/DTD/svg11.dtd" >
<svg xmlns="http://www.w3.org/2000/svg" xmlns:xlink="http://www.w3.org/1999/xlink" version="1.1" viewBox="-10 0 1010 1000">
  <g transform="matrix(1 0 0 -1 0 800)">
   <path fill="currentColor"
d="M708.331 -12.5c57.541 0 104.169 46.6279 104.169 104.169c0 57.5361 -46.627 104.165 -104.169 104.165c-57.54 0 -104.167 -46.6289 -104.167 -104.165c0 -57.542 46.6279 -104.169 104.167 -104.169zM708.331 -137.5c-126.557 0 -229.167 102.611 -229.167 229.169
c0 126.555 102.61 229.165 229.167 229.165c126.558 0 229.169 -102.609 229.169 -229.165c0 -126.559 -102.61 -229.169 -229.169 -229.169zM708.338 258.334h62.5v-104.165h104.162v-62.5v-62.5h-166.662h-62.5v62.5v166.665h62.5zM500 675h62.5v-145.833h145.831v-62.5
v-62.5h-166.664c-27.626 0 -54.1221 10.9746 -73.6572 30.5098c-19.5332 19.5312 -30.5098 46.0312 -30.5098 73.6562v166.667h62.5zM708.331 258.333h62.5v-166.664h-62.5h-62.5v166.664h62.5zM479.167 -137.5h-270.834c-38.6836 0 -75.7598 15.3574 -103.126 42.7178
c-27.3389 27.3467 -42.707 64.4336 -42.707 103.113v583.336c0 38.6797 15.3623 75.7676 42.7148 103.121c27.3477 27.3457 64.4395 42.7119 103.118 42.7119h291.667h25.8887l18.3057 -18.3057l208.331 -208.333l18.3057 -18.3066v-25.8877v-83.334v-14.7539
l-6.59766 -13.1963l-229.165 -458.333l-17.2744 -34.5498h-38.627v0zM440.54 -12.5h-232.207c-5.51953 0 -10.8359 2.20508 -14.7256 6.09473c-3.91504 3.91504 -6.10742 9.2168 -6.10742 14.7363v583.336c0 5.52246 2.19824 10.8281 6.09961 14.7295
c3.9082 3.9082 9.20996 6.10352 14.7334 6.10352h265.778l171.72 -171.722v-42.6914zM479.167 -137.5h38.627l17.2744 34.5498l229.165 458.333l6.59766 13.1963v14.7539v83.334v25.8877l-18.3057 18.3066l-208.331 208.333l-18.3057 18.3057h-25.8887h-291.667
c-38.6787 0 -75.7705 -15.3662 -103.118 -42.7119c-27.3525 -27.3535 -42.7148 -64.4414 -42.7148 -103.121v-583.336c0 -38.6797 15.3682 -75.7666 42.707 -103.113c27.3662 -27.3604 64.4424 -42.7178 103.126 -42.7178h270.834v0zM440.54 -12.5l205.291 410.587v42.6914
l-171.72 171.722h-265.778c-5.52344 0 -10.8252 -2.19531 -14.7334 -6.10352c-3.90137 -3.90137 -6.09961 -9.20703 -6.09961 -14.7295v-583.336c0 -5.51953 2.19238 -10.8213 6.10742 -14.7363c3.88965 -3.88965 9.20605 -6.09473 14.7256 -6.09473h232.207v0z" />
  </g>

</svg>
