<?xml version="1.0" standalone="no"?>
<!DOCTYPE svg PUBLIC "-//W3C//DTD SVG 1.1//EN" "http://www.w3.org/Graphics/SVG/1.1/DTD/svg11.dtd" >
<svg xmlns="http://www.w3.org/2000/svg" xmlns:xlink="http://www.w3.org/1999/xlink" version="1.1" viewBox="-10 0 1010 1000">
  <g transform="matrix(1 0 0 -1 0 800)">
   <path fill="currentColor"
d="M125 675l44.1943 44.1943l750 -750l-44.1943 -44.1943l-44.1943 -44.1943l-750 750zM779.169 8.33105h75c0 -38.6865 -15.3535 -75.749 -42.7217 -103.129c-27.3438 -27.332 -64.4277 -42.7021 -103.109 -42.7021h-416.669c-38.6826 0 -75.7617 15.3594 -103.122 42.7158
c-27.3447 27.3477 -42.7109 64.4385 -42.7109 103.115v583.336h125v-583.336c0 -5.52148 2.19238 -10.8203 6.10547 -14.7344c3.89551 -3.89453 9.20898 -6.09668 14.7275 -6.09668h416.669c5.51367 0 10.8311 2.20117 14.7314 6.10059
c3.89941 3.90039 6.10059 9.21484 6.10059 14.7305h50h-0.000976562zM291.669 737.5h-150.889l106.693 -106.694l500 -500l106.694 -106.693v150.889v291.667v25.8877l-18.3057 18.3066l-208.333 208.333l-18.3057 18.3057h-25.8887h-291.667zM442.557 612.5h114.893
l171.721 -171.722v-114.891zM291.669 737.5h291.667h25.8887l18.3057 -18.3057l208.333 -208.333l18.3057 -18.3066v-25.8877v-291.667v-150.889l-106.693 106.693l-500 500l-106.694 106.694h150.889zM442.557 612.5l286.612 -286.611v114.891l-171.721 171.722h-114.893z
" />
  </g>

</svg>
