<?xml version="1.0" standalone="no"?>
<!DOCTYPE svg PUBLIC "-//W3C//DTD SVG 1.1//EN" "http://www.w3.org/Graphics/SVG/1.1/DTD/svg11.dtd" >
<svg xmlns="http://www.w3.org/2000/svg" xmlns:xlink="http://www.w3.org/1999/xlink" version="1.1" viewBox="-10 0 1010 1000">
  <g transform="matrix(1 0 0 -1 0 800)">
   <path fill="currentColor"
d="M208.333 195.831c57.5381 0 104.167 -46.6338 104.167 -104.162v-125c0 -57.5469 -46.6436 -104.169 -104.167 -104.169h-20.833h-20.833c-57.5498 0 -104.167 46.6494 -104.167 104.169v125c0 57.5557 46.6562 104.162 104.167 104.162h41.666zM218.007 -106.985
c-19.5449 19.54 -30.5068 46.0312 -30.5068 73.6543v166.662v18.4102l9.97949 15.4707l82.9717 128.619c13.4531 20.1611 31.7793 34.3496 53.833 42.252c21.8574 7.83691 45.6953 8.44043 67.9424 1.7041c22.2324 -6.72852 41.7344 -20.4482 55.5869 -39.1035
c13.8594 -18.668 21.3418 -41.2656 21.3535 -64.542v-40.3105h20.833c30.6377 0 63.4707 -11.6904 85.9424 -42.0439c27.4756 -36.9443 16.8164 -75.8428 12.0537 -91.877l-0.817383 -2.75098l-1.06641 -2.66504l-49.1328 -122.833
c-6.98145 -19.9805 -19.3643 -37.7207 -36.6133 -50.5508c-17.957 -13.3789 -39.8135 -20.6104 -62.1992 -20.6104h-156.5c-27.6152 0 -54.1328 10.9785 -73.6602 30.5146v0zM312.5 -12.5h121.386l33.333 83.3311h-50.5518h-62.5v62.5v46.1807l-41.667 -64.5908v-127.421z
M583.328 675h62.5v-145.833h145.834v-62.5v-62.5h-166.667c-27.626 0 -54.1221 10.9756 -73.6572 30.5098c-19.5332 19.5312 -30.5098 46.0312 -30.5098 73.6562v166.667h62.5zM208.328 295.833h-62.5v295.834c0 38.6777 15.3652 75.7705 42.7139 103.12
c27.3477 27.3477 64.4404 42.7129 103.12 42.7129h291.666h25.8887l18.3057 -18.3057l208.334 -208.333l18.3057 -18.3057v-25.8887v-458.336c0 -38.6865 -15.3535 -75.75 -42.7207 -103.128c-27.3438 -27.333 -64.4287 -42.7031 -103.11 -42.7031h-95.8359v62.5v62.5
h95.8359c5.51562 0 10.8301 2.20117 14.7305 6.10059c3.89941 3.90039 6.10059 9.21484 6.10059 14.7305v432.446l-171.722 171.723h-265.778c-5.52637 0 -10.8262 -2.19531 -14.7314 -6.10156c-3.90723 -3.90723 -6.10254 -9.20605 -6.10254 -14.7314v-295.834h-62.5v0z
" />
  </g>

</svg>
