<?xml version="1.0" standalone="no"?>
<!DOCTYPE svg PUBLIC "-//W3C//DTD SVG 1.1//EN" "http://www.w3.org/Graphics/SVG/1.1/DTD/svg11.dtd" >
<svg xmlns="http://www.w3.org/2000/svg" xmlns:xlink="http://www.w3.org/1999/xlink" version="1.1" viewBox="-10 0 1010 1000">
  <g transform="matrix(1 0 0 -1 0 800)">
   <path fill="currentColor"
d="M666.662 591.666h62.5v-145.833h145.838v-62.5v-62.5h-166.669c-27.623 0 -54.1211 10.9707 -73.6611 30.5146c-19.5176 19.5225 -30.5078 46.0068 -30.5078 73.6523v166.666h62.5zM187.5 91.6689c0 -5.53418 2.1875 -10.8174 6.10645 -14.7354
c3.9082 -3.90918 9.2041 -6.10254 14.7266 -6.10254h583.336c5.51855 0 10.8145 2.19043 14.7305 6.10742c3.90625 3.90527 6.10059 9.2002 6.10059 14.7305v265.776l-171.72 171.721h-432.447c-5.52539 0 -10.8271 -2.19629 -14.7295 -6.09961
c-3.9082 -3.9082 -6.10352 -9.20898 -6.10352 -14.7334v-416.664zM62.5 91.6689v416.664c0 38.6787 15.3662 75.7705 42.7119 103.118c27.3525 27.3535 64.4443 42.7148 103.121 42.7148h458.336h25.8887l18.3057 -18.3057l208.331 -208.333l18.3057 -18.3057v-25.8887
v-291.664c0 -38.6826 -15.3672 -75.7744 -42.7119 -103.119c-27.3457 -27.3467 -64.4385 -42.7188 -103.119 -42.7188h-583.336c-38.6807 0 -75.7764 15.3691 -103.125 42.7236c-27.334 27.332 -42.708 64.4355 -42.708 103.113v0.000976562z" />
  </g>

</svg>
