<?xml version="1.0" standalone="no"?>
<!DOCTYPE svg PUBLIC "-//W3C//DTD SVG 1.1//EN" "http://www.w3.org/Graphics/SVG/1.1/DTD/svg11.dtd" >
<svg xmlns="http://www.w3.org/2000/svg" xmlns:xlink="http://www.w3.org/1999/xlink" version="1.1" viewBox="-10 0 1010 1000">
  <g transform="matrix(1 0 0 -1 0 800)">
   <path fill="currentColor"
d="M583.328 675h62.5v-145.833h145.834v-62.5v-62.5h-166.667c-27.626 0 -54.1221 10.9756 -73.6572 30.5098c-19.5332 19.5312 -30.5098 46.0312 -30.5098 73.6562v166.667h62.5zM208.328 300h62.5v291.667c0 5.52539 2.19531 10.8242 6.10254 14.7314
c3.90527 3.90625 9.20508 6.10156 14.7314 6.10156h265.777l171.723 -171.722v-140.778h62.5h62.5v166.667v25.8887l-18.3057 18.3057l-208.334 208.333l-18.3057 18.3057h-25.8887h-291.666c-38.6797 0 -75.7725 -15.3652 -103.12 -42.7129
c-27.3486 -27.3496 -42.7139 -64.4424 -42.7139 -103.12v-291.667h62.5zM125 300v62.5h750v-62.5v-62.5h-750v62.5zM250 133.331h62.5v-83.3311h-62.5h-62.5v83.3311h62.5zM416.672 133.331h62.5v-250h-62.5h-62.5v250h62.5zM583.328 133.331h62.5v-83.3311h-62.5h-62.5
v83.3311h62.5zM750 133.331h62.5v-166.662h-62.5h-62.5v166.662h62.5z" />
  </g>

</svg>
