<?xml version="1.0" standalone="no"?>
<!DOCTYPE svg PUBLIC "-//W3C//DTD SVG 1.1//EN" "http://www.w3.org/Graphics/SVG/1.1/DTD/svg11.dtd" >
<svg xmlns="http://www.w3.org/2000/svg" xmlns:xlink="http://www.w3.org/1999/xlink" version="1.1" viewBox="-10 0 1010 1000">
  <g transform="matrix(1 0 0 -1 0 800)">
   <path fill="currentColor"
d="M583.336 675h62.5v-145.833h145.833v-62.5v-62.5h-166.669c-27.625 0 -54.1211 10.9736 -73.6572 30.5127c-19.5264 19.5254 -30.5068 46.0293 -30.5068 73.6533v166.667h62.5zM208.336 466.667h-62.5v125c0 38.6768 15.3633 75.7695 42.7158 103.121
c27.3477 27.3457 64.4385 42.7119 103.117 42.7119h291.667h25.8887l18.3057 -18.3057l208.333 -208.333l18.3057 -18.3066v-25.8877v-458.336c0 -38.6865 -15.3535 -75.749 -42.7217 -103.129c-27.3438 -27.332 -64.4277 -42.7021 -103.109 -42.7021h-208.335v62.5v62.5
h208.335c5.51367 0 10.8301 2.20117 14.7305 6.10059c3.89941 3.90039 6.10059 9.21484 6.10059 14.7305v432.447l-171.721 171.722h-265.779c-5.52246 0 -10.8242 -2.19531 -14.7324 -6.10352c-3.9043 -3.9043 -6.10059 -9.20312 -6.10059 -14.7295v-125h-62.5v0z
M250 154.169c-34.5283 0 -62.5 27.9717 -62.5 62.498s27.9736 62.5 62.5 62.5s62.5 -27.9736 62.5 -62.5s-27.9717 -62.498 -62.5 -62.498zM250 29.1689c103.542 0 187.5 83.9521 187.5 187.498c0 103.544 -83.9561 187.5 -187.5 187.5s-187.5 -83.9561 -187.5 -187.5
c0 -103.546 83.958 -187.498 187.5 -187.498zM187.5 91.6689l59.8643 -17.959l-20.9355 -69.7871l23.5713 11.7852l23.5713 -11.7852l-20.9355 69.7871l59.8643 17.959l59.8643 17.959l62.5 -208.338l41.5645 -138.55l-129.38 64.6895l-97.0488 48.5244l-97.0488 -48.5244
l-129.38 -64.6895l41.5645 138.55l62.5 208.338z" />
  </g>

</svg>
