<?xml version="1.0" standalone="no"?>
<!DOCTYPE svg PUBLIC "-//W3C//DTD SVG 1.1//EN" "http://www.w3.org/Graphics/SVG/1.1/DTD/svg11.dtd" >
<svg xmlns="http://www.w3.org/2000/svg" xmlns:xlink="http://www.w3.org/1999/xlink" version="1.1" viewBox="-10 0 1010 1000">
  <g transform="matrix(1 0 0 -1 0 800)">
   <path fill="currentColor"
d="M625 675h62.5v-145.833h145.831v-62.5v-62.5h-166.662c-27.6201 0 -54.1299 10.9775 -73.6543 30.5059c-19.5352 19.5254 -30.5146 46.0449 -30.5146 73.6602v166.667h62.5zM791.811 156.209l-22.7637 10.3359c1.15234 2.53809 1.78418 5.16602 1.78418 8.45508v265.778
l-171.72 171.722h-140.778c-5.52344 0 -10.8252 -2.19531 -14.7334 -6.10352c-3.90137 -3.90137 -6.09961 -9.20703 -6.09961 -14.7295h-54.375h-70.625c0 38.6797 15.3623 75.7676 42.7148 103.121c27.3477 27.3457 64.4395 42.7119 103.118 42.7119h192.557
l244.941 -244.945v-317.555c0 -21.2109 -4.61816 -41.7451 -12.9668 -60.1318zM708.331 29.1689l-0.000976562 0.000976562h150.889l-106.693 106.694l-333.331 333.331l-106.694 106.693v-150.889v-250c0 -38.6758 15.3623 -75.7705 42.7158 -103.121
c27.3408 -27.3486 64.4531 -42.71 103.117 -42.71h249.998zM557.443 154.169h-99.1104c-5.53906 0 -10.8184 2.18652 -14.7344 6.10352c-3.89941 3.89941 -6.09863 9.2041 -6.09863 14.7275v99.1113zM708.331 29.1689l0.000976562 -0.000976562h-249.998
c-38.6641 0 -75.7764 15.3613 -103.117 42.71c-27.3535 27.3506 -42.7158 64.4453 -42.7158 103.121v250v150.889l106.694 -106.693l333.331 -333.331l106.693 -106.694h-150.889zM557.443 154.169l-119.943 119.942v-99.1113c0 -5.52344 2.19922 -10.8281 6.09863 -14.7275
c3.91602 -3.91699 9.19531 -6.10352 14.7344 -6.10352h99.1104v0zM291.669 461.459v-15.625c-5.52344 0 -10.8232 -2.19531 -14.7305 -6.10254c-3.9082 -3.90723 -6.10254 -9.20508 -6.10254 -14.7314v-416.669c0 -5.52148 2.19238 -10.8203 6.10547 -14.7344
c3.89551 -3.89453 9.20898 -6.09668 14.7275 -6.09668h291.667c5.51758 0 10.832 2.20117 14.7324 6.10059c3.89941 3.90039 6.10059 9.21484 6.10059 14.7305v83.3379h125v-83.3379c0 -38.6865 -15.3535 -75.749 -42.7217 -103.129
c-27.3447 -27.332 -64.4287 -42.7021 -103.111 -42.7021h-291.667c-38.6826 0 -75.7617 15.3594 -103.122 42.7158c-27.3447 27.3477 -42.7109 64.4385 -42.7109 103.115v416.669c0 38.6758 15.3643 75.7715 42.7139 103.12
c27.3486 27.3486 64.4414 42.7139 103.119 42.7139v-109.375zM125 675l44.1943 44.1943l750 -750l-44.1943 -44.1943l-44.1943 -44.1943l-750 750z" />
  </g>

</svg>
