<?xml version="1.0" standalone="no"?>
<!DOCTYPE svg PUBLIC "-//W3C//DTD SVG 1.1//EN" "http://www.w3.org/Graphics/SVG/1.1/DTD/svg11.dtd" >
<svg xmlns="http://www.w3.org/2000/svg" xmlns:xlink="http://www.w3.org/1999/xlink" version="1.1" viewBox="-10 0 1010 1000">
  <g transform="matrix(1 0 0 -1 0 800)">
   <path fill="currentColor"
d="M196.078 309.804c54.1631 0 98.0391 -43.9014 98.0391 -98.0391v-117.646c0 -54.1621 -43.9004 -98.04 -98.0391 -98.04h-39.2148c-54.1641 0 -98.0391 43.9043 -98.0391 98.04v117.646c0 54.1621 43.9014 98.0391 98.0391 98.0391h39.2148zM205.187 281.091
c18.3857 18.3818 43.3203 28.7129 69.3232 28.7129h147.29c21.0918 0.00195312 41.625 -6.80176 58.5391 -19.3906c16.248 -12.0918 27.8975 -28.7783 34.4668 -47.5898l46.2422 -115.605l1.00293 -2.50781l0.769531 -2.58887
c4.47949 -15.083 14.5176 -51.7148 -11.3506 -86.4727c-21.1279 -28.5439 -52.0332 -39.5703 -80.8818 -39.5703h-19.6064v-37.9473c-0.0107422 -21.877 -7.05859 -43.1729 -20.1016 -60.7354c-13.0186 -17.5303 -31.4043 -30.4834 -52.3105 -36.7988
c-20.9316 -6.33887 -43.3408 -5.78809 -63.9629 1.60352c-20.7363 7.4375 -37.9912 20.7881 -50.6533 39.7666l-78.0898 121.047l-9.39258 14.5605v17.3271v156.863c0 26.001 10.332 50.9395 28.7158 69.3262zM294.117 192.157v-119.93l39.2168 -60.7891v43.4609v58.8242
h58.8232h47.5781l-31.373 78.4326h-114.245v0.000976562zM549.021 682.353h58.8232v-137.255h137.255v-58.8232v-58.8242h-156.864c-26.0039 0 -50.9385 10.333 -69.3223 28.7158c-18.3848 18.3818 -28.7148 43.3252 -28.7148 69.3242v156.862h58.8232zM196.081 368.628
h-58.8232v235.294c0 36.4004 14.46 71.3135 40.1992 97.0527c25.7422 25.7432 60.6553 40.2012 97.0557 40.2012h274.509h24.3662l17.2285 -17.2285l196.078 -196.079l17.2285 -17.2285v-24.3652v-431.374c0 -36.4121 -14.4492 -71.292 -40.2061 -97.0615
c-25.7363 -25.7256 -60.6396 -40.1914 -97.0459 -40.1914h-98.041v58.8232v58.8232h98.041c5.18945 0 10.1934 2.07227 13.8643 5.74121c3.66895 3.6709 5.74023 8.67285 5.74023 13.8652v407.008l-161.619 161.621h-250.144
c-5.20312 0 -10.1885 -2.06641 -13.8643 -5.74219c-3.67871 -3.67773 -5.74414 -8.66504 -5.74414 -13.8652v-235.294h-58.8232v0z" />
  </g>

</svg>
