<?xml version="1.0" standalone="no"?>
<!DOCTYPE svg PUBLIC "-//W3C//DTD SVG 1.1//EN" "http://www.w3.org/Graphics/SVG/1.1/DTD/svg11.dtd" >
<svg xmlns="http://www.w3.org/2000/svg" xmlns:xlink="http://www.w3.org/1999/xlink" version="1.1" viewBox="-10 0 1010 1000">
  <g transform="matrix(1 0 0 -1 0 800)">
   <path fill="currentColor"
d="M583.336 675h62.5v-145.833h145.833v-62.5v-62.5h-166.669c-27.625 0 -54.1211 10.9736 -73.6572 30.5127c-19.5264 19.5254 -30.5068 46.0293 -30.5068 73.6533v166.667h62.5zM708.338 -137.5h-416.669c-38.6826 0 -75.7617 15.3594 -103.122 42.7158
c-27.3447 27.3477 -42.7109 64.4385 -42.7109 103.115v583.336c0 38.6768 15.3633 75.7695 42.7158 103.121c27.3477 27.3457 64.4385 42.7119 103.117 42.7119h291.667h25.8887l18.3057 -18.3057l208.333 -208.333l18.3057 -18.3066v-25.8877v-458.336
c0 -38.6865 -15.3535 -75.749 -42.7217 -103.129c-27.3438 -27.332 -64.4277 -42.7021 -103.109 -42.7021v0zM708.338 -12.5c5.51367 0 10.8301 2.20117 14.7305 6.10059c3.89941 3.90039 6.10059 9.21484 6.10059 14.7305v432.447l-171.721 171.722h-265.779
c-5.52246 0 -10.8242 -2.19531 -14.7324 -6.10352c-3.9043 -3.9043 -6.10059 -9.20312 -6.10059 -14.7295v-583.336c0 -5.52148 2.19238 -10.8203 6.10547 -14.7344c3.89551 -3.89453 9.20898 -6.09668 14.7275 -6.09668h416.669zM583.331 300l44.1943 -44.1943
l-166.667 -166.668l-44.1943 44.1934l-44.1943 44.1943l166.667 166.669zM580.664 224.387l-83.002 83.0029l-4.08984 4.08984l-32.7139 32.7148l-88.3887 -88.3887l38.0195 -38.0195l2.54199 -2.54199l6.2998 -6.2998l83.002 -83.0029
c4.08789 -4.08789 3.64746 -3.64746 4.08984 -4.08887l32.7139 -32.7148l88.3887 88.3877l-38.0195 38.0195l-2.54199 2.54199zM580.664 224.387l6.2998 -6.2998l2.54199 -2.54199l38.0195 -38.0195l-88.3887 -88.3877l-32.7139 32.7148
c-0.442383 0.441406 -0.00195312 0.000976562 -4.08984 4.08887l-83.002 83.0029l-6.2998 6.2998l-2.54199 2.54199l-38.0195 38.0195l88.3887 88.3887l32.7139 -32.7148l4.08984 -4.08984z" />
  </g>

</svg>
