<?xml version="1.0" standalone="no"?>
<!DOCTYPE svg PUBLIC "-//W3C//DTD SVG 1.1//EN" "http://www.w3.org/Graphics/SVG/1.1/DTD/svg11.dtd" >
<svg xmlns="http://www.w3.org/2000/svg" xmlns:xlink="http://www.w3.org/1999/xlink" version="1.1" viewBox="-10 0 1010 1000">
  <g transform="matrix(1 0 0 -1 0 800)">
   <path fill="currentColor"
d="M583.328 675h62.5v-145.833h145.834v-62.5v-62.5h-166.667c-27.626 0 -54.1221 10.9756 -73.6572 30.5098c-19.5332 19.5312 -30.5098 46.0312 -30.5098 73.6562v166.667h62.5zM708.331 -137.5h-416.669c-38.6826 0 -75.7646 15.3594 -103.124 42.7158
c-27.3428 27.3477 -42.71 64.4365 -42.71 103.115v583.336c0 38.6777 15.3652 75.7705 42.7139 103.12c27.3477 27.3477 64.4404 42.7129 103.12 42.7129h291.666h25.8887l18.3057 -18.3057l208.334 -208.333l18.3057 -18.3057v-25.8887v-458.336
c0 -38.6865 -15.3535 -75.75 -42.7207 -103.129c-27.3438 -27.333 -64.4287 -42.7031 -103.11 -42.7031v0.000976562zM708.331 -12.5c5.51562 0 10.8301 2.20117 14.7305 6.10059c3.89941 3.90039 6.10059 9.21484 6.10059 14.7305v432.447l-171.722 171.722h-265.778
c-5.52637 0 -10.8262 -2.19531 -14.7314 -6.10156c-3.90723 -3.90723 -6.10254 -9.20605 -6.10254 -14.7314v-583.336c0 -5.52051 2.19238 -10.8203 6.10645 -14.7354c3.89453 -3.89355 9.20508 -6.0957 14.7275 -6.0957h416.669v0zM375 425v62.5h41.667v-62.5v-62.5
h-41.667v62.5zM375 258.334v62.5h250v-62.5v-62.5h-250v62.5zM375 91.6689v62.5h250v-62.5v-62.5h-250v62.5z" />
  </g>

</svg>
