<?xml version="1.0" standalone="no"?>
<!DOCTYPE svg PUBLIC "-//W3C//DTD SVG 1.1//EN" "http://www.w3.org/Graphics/SVG/1.1/DTD/svg11.dtd" >
<svg xmlns="http://www.w3.org/2000/svg" xmlns:xlink="http://www.w3.org/1999/xlink" version="1.1" viewBox="-10 0 1010 1000">
  <g transform="matrix(1 0 0 -1 0 800)">
   <path fill="currentColor"
d="M583.336 675h62.5v-145.833h145.833v-62.5v-62.5h-166.669c-27.625 0 -54.1211 10.9736 -73.6572 30.5127c-19.5264 19.5254 -30.5068 46.0293 -30.5068 73.6533v166.667h62.5zM500.003 -75v-62.5h-208.334c-38.6826 0 -75.7617 15.3594 -103.122 42.7158
c-27.3447 27.3477 -42.7109 64.4385 -42.7109 103.115v583.336c0 38.6768 15.3633 75.7695 42.7158 103.121c27.3477 27.3457 64.4385 42.7119 103.117 42.7119h291.667h25.8887l18.3057 -18.3057l208.333 -208.333l18.3057 -18.3066v-25.8877v-187.5h-62.5h-62.5v161.61
l-171.721 171.723h-265.779c-5.52246 0 -10.8242 -2.19531 -14.7324 -6.10352c-3.9043 -3.9043 -6.10059 -9.20312 -6.10059 -14.7295v-583.336c0 -5.52148 2.19238 -10.8203 6.10547 -14.7344c3.89551 -3.89453 9.20898 -6.09668 14.7275 -6.09668h208.334v-62.5v0z
M687.5 29.1689c23.0234 0 41.6689 18.6494 41.6689 41.6621c0 23.0225 -18.6465 41.6689 -41.6689 41.6689c-23.0146 0 -41.6641 -18.6455 -41.6641 -41.6689c0 -23.0137 18.6475 -41.6621 41.6641 -41.6621zM687.5 -95.8311c-92.0352 0 -166.664 74.6279 -166.664 166.662
c0 92.0391 74.6279 166.669 166.664 166.669c92.04 0 166.669 -74.6289 166.669 -166.669c0 -92.0352 -74.6309 -166.662 -166.669 -166.662zM770.838 -12.5l44.1953 44.1924l104.162 -104.168l-44.1953 -44.1934l-44.1953 -44.1924l-104.162 104.169z" />
  </g>

</svg>
