<?xml version="1.0" standalone="no"?>
<!DOCTYPE svg PUBLIC "-//W3C//DTD SVG 1.1//EN" "http://www.w3.org/Graphics/SVG/1.1/DTD/svg11.dtd" >
<svg xmlns="http://www.w3.org/2000/svg" xmlns:xlink="http://www.w3.org/1999/xlink" version="1.1" viewBox="-10 0 1010 1000">
  <g transform="matrix(1 0 0 -1 0 800)">
   <path fill="currentColor"
d="M625 675h62.5v-145.833h145.831v-62.5v-62.5h-166.662c-27.6201 0 -54.1299 10.9775 -73.6543 30.5059c-19.5352 19.5254 -30.5146 46.0449 -30.5146 73.6602v166.667h62.5zM750 29.1689h-291.667c-38.6641 0 -75.7764 15.3613 -103.117 42.71
c-27.3535 27.3506 -42.7158 64.4453 -42.7158 103.121v416.667c0 38.6797 15.3623 75.7676 42.7148 103.121c27.3477 27.3457 64.4395 42.7119 103.118 42.7119h166.667h25.8887l18.3057 -18.3057l208.331 -208.333l18.3057 -18.3066v-25.8877v-291.667
c0 -38.6572 -15.3682 -75.7881 -42.7021 -103.108c-27.3594 -27.3721 -64.4648 -42.7227 -103.129 -42.7227v0zM750 154.169c5.53906 0 10.8193 2.1875 14.7305 6.10059c3.91211 3.91016 6.10059 9.19141 6.10059 14.7305v265.778l-171.72 171.722h-140.778
c-5.52344 0 -10.8252 -2.19531 -14.7334 -6.10352c-3.90137 -3.90137 -6.09961 -9.20703 -6.09961 -14.7295v-416.667c0 -5.52344 2.19922 -10.8281 6.09863 -14.7275c3.91602 -3.91699 9.19531 -6.10352 14.7344 -6.10352h291.667zM666.669 91.6689h62.5v-83.3379
c0 -38.6865 -15.3535 -75.749 -42.7217 -103.129c-27.3447 -27.332 -64.4287 -42.7021 -103.111 -42.7021h-291.667c-38.6826 0 -75.7617 15.3594 -103.122 42.7158c-27.3447 27.3477 -42.7109 64.4385 -42.7109 103.115v416.669c0 38.6758 15.3652 75.7715 42.7148 103.12
c27.3477 27.3486 64.4414 42.7139 103.118 42.7139h83.334v-62.5v-62.5h-83.334c-5.52344 0 -10.8232 -2.19531 -14.7305 -6.10254c-3.9082 -3.90723 -6.10254 -9.20508 -6.10254 -14.7314v-416.669c0 -5.52148 2.19238 -10.8203 6.10547 -14.7344
c3.89551 -3.89453 9.20898 -6.09668 14.7275 -6.09668h291.667c5.51758 0 10.832 2.20117 14.7324 6.10059c3.89941 3.90039 6.10059 9.21484 6.10059 14.7305v83.3379h62.5v0z" />
  </g>

</svg>
