<?xml version="1.0" standalone="no"?>
<!DOCTYPE svg PUBLIC "-//W3C//DTD SVG 1.1//EN" "http://www.w3.org/Graphics/SVG/1.1/DTD/svg11.dtd" >
<svg xmlns="http://www.w3.org/2000/svg" xmlns:xlink="http://www.w3.org/1999/xlink" version="1.1" viewBox="-10 0 1010 1000">
  <g transform="matrix(1 0 0 -1 0 800)">
   <path fill="currentColor"
d="M265.629 -36.8936l-15.626 -27.0625l-31.252 -54.125c-22.1934 12.8145 -40.6328 31.2646 -53.4268 53.4629c-12.8037 22.207 -19.5264 47.4482 -19.4883 72.9961v583.289c0 38.6768 15.3633 75.7695 42.7158 103.121c27.3477 27.3457 64.4385 42.7119 103.117 42.7119
h291.667h25.8887l18.3057 -18.3057l208.333 -208.333l18.3057 -18.3066v-25.8877v-458.336c0 -38.6865 -15.3535 -75.749 -42.7217 -103.129c-27.3438 -27.332 -64.4277 -42.7021 -103.109 -42.7021h-41.6689v62.5v62.5h41.6689c5.51367 0 10.8301 2.20117 14.7305 6.10059
c3.89941 3.90039 6.10059 9.21484 6.10059 14.7305v432.446l-171.721 171.723h-265.779c-5.52246 0 -10.8242 -2.19531 -14.7324 -6.10352c-3.9043 -3.9043 -6.10059 -9.20312 -6.10059 -14.7295v-583.383c-0.00488281 -3.73926 0.952148 -7.29883 2.77832 -10.4668
c1.83789 -3.18848 4.46094 -5.8125 7.6416 -7.64844zM458.333 154.169c38.6777 0 75.7852 -15.377 103.116 -42.7148c27.3516 -27.3467 42.7178 -64.4424 42.7178 -103.123v-83.3311c0 -27.623 -10.9697 -54.1211 -30.5146 -73.6621
c-19.5254 -19.5205 -46.0117 -30.5068 -73.6523 -30.5068h-83.333c-27.6406 0 -54.127 10.9863 -73.6523 30.5068c-19.5449 19.541 -30.5146 46.0391 -30.5146 73.6621v83.3311c0 38.6787 15.374 75.7822 42.708 103.114c27.3486 27.3545 64.4443 42.7236 103.125 42.7236v0
zM458.333 29.1689c-5.52246 0 -10.8184 -2.19336 -14.7266 -6.10254c-3.91895 -3.91797 -6.10645 -9.20117 -6.10645 -14.7354v-62.5h41.667v62.5c0 5.53223 -2.19434 10.8232 -6.09766 14.7266c-3.92578 3.92578 -9.21094 6.11133 -14.7363 6.11133zM458.331 591.666v-62.5
h-41.667v62.5v62.5h41.667v-62.5zM541.667 508.334v-62.5h-41.667v62.5v62.5h41.667v-62.5zM458.331 425v-62.5h-41.667v62.5v62.5h41.667v-62.5zM541.667 341.666v-62.5h-41.667v62.5v62.5h41.667v-62.5zM458.331 258.334v-62.5h-41.667v62.5v62.5h41.667v-62.5z
M541.667 175v62.5h-41.667v-62.5v-62.5h41.667v62.5z" />
  </g>

</svg>
