<?xml version="1.0" standalone="no"?>
<!DOCTYPE svg PUBLIC "-//W3C//DTD SVG 1.1//EN" "http://www.w3.org/Graphics/SVG/1.1/DTD/svg11.dtd" >
<svg xmlns="http://www.w3.org/2000/svg" xmlns:xlink="http://www.w3.org/1999/xlink" version="1.1" viewBox="-10 0 1010 1000">
  <g transform="matrix(1 0 0 -1 0 800)">
   <path fill="currentColor"
d="M583.336 675h62.5v-145.833h145.833v-62.5v-62.5h-166.669c-27.625 0 -54.1211 10.9736 -73.6572 30.5127c-19.5264 19.5254 -30.5068 46.0293 -30.5068 73.6533v166.667h62.5zM750 133.331l44.1943 44.1943l125 -125l44.1943 -44.1943l-44.1943 -44.1943l-125 -125
l-44.1943 44.1943l-44.1943 44.1943l80.8057 80.8057l-80.8057 80.8057zM479.169 -137.5h-187.5c-38.6826 0 -75.7617 15.3594 -103.122 42.7158c-27.3447 27.3477 -42.7109 64.4385 -42.7109 103.115v583.336c0 38.6768 15.3633 75.7695 42.7158 103.121
c27.3477 27.3457 64.4385 42.7119 103.117 42.7119h291.667h25.8887l18.3057 -18.3057l208.333 -208.333l18.3057 -18.3066v-25.8877v-208.334v-24.7158l-16.9043 -18.0303l-312.5 -333.333l-18.5186 -19.7539h-27.0771v0zM452.092 -12.5h-160.423
c-5.51855 0 -10.832 2.20215 -14.7275 6.09668c-3.91309 3.91406 -6.10547 9.21289 -6.10547 14.7344v583.336c0 5.52637 2.19629 10.8252 6.10059 14.7295c3.9082 3.9082 9.20996 6.10352 14.7324 6.10352h265.779l171.721 -171.722v-157.729zM583.336 -54.1689
c0 0 -0.625 125 0 125h291.664c0.625 0 0 -124.375 0 -125h-291.664zM583.336 -54.1689h291.664v125h-291.664v-125zM479.169 -137.5h27.0771l18.5186 19.7539l312.5 333.333l16.9043 18.0303v24.7158v208.334v25.8877l-18.3057 18.3066l-208.333 208.333l-18.3057 18.3057
h-25.8887h-291.667c-38.6787 0 -75.7695 -15.3662 -103.117 -42.7119c-27.3525 -27.3516 -42.7158 -64.4443 -42.7158 -103.121v-583.336c0 -38.6768 15.3662 -75.7676 42.7109 -103.115c27.3604 -27.3564 64.4395 -42.7158 103.122 -42.7158h187.5v0zM452.092 -12.5
l277.077 295.549v157.729l-171.721 171.722h-265.779c-5.52246 0 -10.8242 -2.19531 -14.7324 -6.10352c-3.9043 -3.9043 -6.10059 -9.20312 -6.10059 -14.7295v-583.336c0 -5.52148 2.19238 -10.8203 6.10547 -14.7344c3.89551 -3.89453 9.20898 -6.09668 14.7275 -6.09668
h160.423v0zM583.336 -54.1689c0 0 -0.625 125 0 125h291.664c0.625 0 0 -124.375 0 -125h-291.664zM583.336 -54.1689v125h291.664v-125h-291.664zM583.336 -54.1689h291.664c0 0.625 0.625 125 0 125h-291.664c-0.625 0 0 -125 0 -125zM583.336 -54.1689h291.664v125
h-291.664v-125z" />
  </g>

</svg>
