<?xml version="1.0" standalone="no"?>
<!DOCTYPE svg PUBLIC "-//W3C//DTD SVG 1.1//EN" "http://www.w3.org/Graphics/SVG/1.1/DTD/svg11.dtd" >
<svg xmlns="http://www.w3.org/2000/svg" xmlns:xlink="http://www.w3.org/1999/xlink" version="1.1" viewBox="-10 0 1010 1000">
  <g transform="matrix(1 0 0 -1 0 800)">
   <path fill="currentColor"
d="M166.672 -75h-62.5v166.669c0 49.7256 19.7539 97.417 54.917 132.58s82.8555 54.917 132.583 54.917h208.333v-62.5v-62.5h-208.333c-16.5781 0 -32.4736 -6.58398 -44.1943 -18.3057c-11.7217 -11.7207 -18.3057 -27.6182 -18.3057 -44.1914v-166.669h-62.5v0z
M375 91.6689l-44.1934 44.1943l80.8047 80.8037l-80.8057 80.8047l44.1943 44.1943l44.1943 44.1943l125 -125l44.1943 -44.1943l-44.1953 -44.1943l-125 -124.998zM583.328 675h62.5v-145.833h145.834v-62.5v-62.5h-166.667c-27.626 0 -54.1221 10.9756 -73.6572 30.5098
c-19.5332 19.5312 -30.5098 46.0312 -30.5098 73.6562v166.667h62.5zM208.328 341.667h-62.5v250c0 38.6777 15.3652 75.7705 42.7139 103.12c27.3477 27.3477 64.4404 42.7129 103.12 42.7129h291.666h25.8887l18.3057 -18.3057l208.334 -208.333l18.3057 -18.3057
v-25.8887v-458.336c0 -38.6865 -15.3535 -75.75 -42.7207 -103.128c-27.3438 -27.333 -64.4287 -42.7031 -103.11 -42.7031h-395.836v62.5v62.5h395.836c5.51562 0 10.8301 2.20117 14.7305 6.10059c3.89941 3.90039 6.10059 9.21484 6.10059 14.7305v432.446
l-171.722 171.723h-265.778c-5.52637 0 -10.8262 -2.19531 -14.7314 -6.10156c-3.90723 -3.90723 -6.10254 -9.20605 -6.10254 -14.7314v-250h-62.5v0z" />
  </g>

</svg>
