<?xml version="1.0" standalone="no"?>
<!DOCTYPE svg PUBLIC "-//W3C//DTD SVG 1.1//EN" "http://www.w3.org/Graphics/SVG/1.1/DTD/svg11.dtd" >
<svg xmlns="http://www.w3.org/2000/svg" xmlns:xlink="http://www.w3.org/1999/xlink" version="1.1" viewBox="-10 0 1010 1000">
  <g transform="matrix(1 0 0 -1 0 800)">
   <path fill="currentColor"
d="M208.333 70.8311c11.5127 0 20.834 9.32812 20.834 20.8379c0 11.5088 -9.3291 20.8311 -20.834 20.8311c-11.5137 0 -20.833 -9.33105 -20.833 -20.8311c0 -11.5195 9.33008 -20.8379 20.833 -20.8379zM208.333 -54.1689c-80.5439 0 -145.833 65.3066 -145.833 145.838
c0 80.5371 65.2998 145.831 145.833 145.831c80.542 0 145.834 -65.3027 145.834 -145.831c0 -80.541 -65.2988 -145.838 -145.834 -145.838zM708.331 70.8311c11.5166 0 20.8379 9.33008 20.8379 20.8379c0 11.5059 -9.32812 20.8311 -20.8379 20.8311
c-11.5078 0 -20.8311 -9.33203 -20.8311 -20.8311c0 -11.5186 9.33398 -20.8379 20.8311 -20.8379zM708.331 -54.1689c-80.54 0 -145.831 65.3047 -145.831 145.838c0 80.5381 65.3018 145.831 145.831 145.831c80.542 0 145.838 -65.2998 145.838 -145.831
c0 -80.5439 -65.3027 -145.838 -145.838 -145.838zM812.5 237.5v-125h-20.8311v-62.5v-62.5h83.3311h62.5v62.5v250c0 6.88965 -0.262695 13.7529 -0.782227 20.5771c-4.89844 64.3076 -32.625 125.012 -78.542 170.93c-50.791 50.793 -119.681 79.3262 -191.507 79.3262
h-41.6689h-84.002l24.1377 -80.459l62.5 -208.333l13.3623 -44.541h46.502h125v0zM798.429 362.5h-64.4268l-22.9219 76.4062c21.5234 -6.91016 42.1094 -19.1885 58.7061 -35.7861c11.9131 -11.9131 21.5508 -25.6777 28.6426 -40.6201zM291.666 -12.5h333.334
c0 0.625 0.625 125 0 125h-333.334c-0.625 0 0 -125 0 -125zM291.666 -12.5v125h333.334v-125h-333.334zM291.666 -12.5c0 0 -0.625 125 0 125h333.334c0.625 0 0 -124.375 0 -125h-333.334zM291.666 -12.5h333.334v125h-333.334v-125zM500 50h-62.5v458.333v62.5h62.5h125
v-62.5v-62.5h-62.5v-395.833h-62.5zM125 91.6689h-62.5v208.331v62.5h62.5h375v-62.5v-62.5h-312.5v-145.831h-62.5zM125 425l-19.7646 59.293l750 250l19.7646 -59.293l19.7646 -59.293l-750 -250zM250 300h62.5v166.667h-62.5h-62.5v-166.667h62.5z" />
  </g>

</svg>
