<?xml version="1.0" standalone="no"?>
<!DOCTYPE svg PUBLIC "-//W3C//DTD SVG 1.1//EN" "http://www.w3.org/Graphics/SVG/1.1/DTD/svg11.dtd" >
<svg xmlns="http://www.w3.org/2000/svg" xmlns:xlink="http://www.w3.org/1999/xlink" version="1.1" viewBox="-10 0 1010 1000">
  <g transform="matrix(1 0 0 -1 0 800)">
   <path fill="currentColor"
d="M187.5 207.312v-282.312h-62.5h-62.5v350v400v38.627l34.5488 17.2744c157.672 78.8359 366.129 6.81055 447.146 -74.208c33.2959 -33.2959 190.813 -33.2969 224.111 0.000976562l106.694 106.694v-150.89v-374.999v-26.2559l-18.751 -18.3789
c-105.599 -103.501 -294.4 -103.511 -399.999 0.000976562c-49.001 48.0312 -195.574 59.5635 -268.75 14.4453v0zM187.5 343.562c114.317 36.9209 268.235 24.8447 356.25 -61.4268c47.335 -46.3994 146.186 -54.1914 206.25 -14.9873v246.614
c-92.793 -22.2881 -222.635 -17.0176 -294.194 54.5439c-36.4121 36.4121 -171.981 87.2051 -268.306 63.3672v-288.111z" />
  </g>

</svg>
