<?xml version="1.0" standalone="no"?>
<!DOCTYPE svg PUBLIC "-//W3C//DTD SVG 1.1//EN" "http://www.w3.org/Graphics/SVG/1.1/DTD/svg11.dtd" >
<svg xmlns="http://www.w3.org/2000/svg" xmlns:xlink="http://www.w3.org/1999/xlink" version="1.1" viewBox="-10 0 1010 1000">
  <g transform="matrix(1 0 0 -1 0 800)">
   <path fill="currentColor"
d="M448.213 334.991c23.1562 34.2705 26.0771 89.7041 11.457 150.263c-28.7354 -70.7041 -66.1426 -129.161 -102.375 -166.339c-39.5518 -40.6494 -44.7949 -54.8828 -44.7949 -143.915c0 -90.6182 88.6025 -187.5 187.5 -187.5c101.321 0 187.5 86.1777 187.5 187.5
c0 25.2383 -5.55957 75.873 -15.3623 120.409c-53.7852 -60.7012 -138.468 -104.368 -211.973 -43.5693l-43.708 36.1523zM593.442 396.433c11.9834 15.6426 26.0361 36.4883 40.3545 60.5391l43.6416 73.3066l56.7373 -63.7129
c63.6045 -71.4258 78.3242 -219.098 78.3242 -291.564c0 -171.017 -141.484 -312.5 -312.5 -312.5c-173.438 0 -312.5 153.118 -312.5 312.5c0 98.4746 17.5732 166.716 80.2227 231.104c39.3047 40.3291 107.276 164.767 107.276 268.896v150.889l106.694 -106.694
c47.9678 -47.9678 118.929 -183.517 111.748 -322.762z" />
  </g>

</svg>
