<?xml version="1.0" standalone="no"?>
<!DOCTYPE svg PUBLIC "-//W3C//DTD SVG 1.1//EN" "http://www.w3.org/Graphics/SVG/1.1/DTD/svg11.dtd" >
<svg xmlns="http://www.w3.org/2000/svg" xmlns:xlink="http://www.w3.org/1999/xlink" version="1.1" viewBox="-10 0 1010 1000">
  <g transform="matrix(1 0 0 -1 0 800)">
   <path fill="currentColor"
d="M406.25 675l-62.0176 7.75195l-31.25 -250l62.0176 -7.75195l62.0176 -7.75195l31.25 250zM406.25 675v-62.5h187.5v62.5v62.5h-187.5v-62.5zM406.25 675v-62.5h-93.75v62.5v62.5h93.75v-62.5zM620.889 423.505l-54.624 -19.8643
c10.9424 -30.0918 74.0137 -287.77 104.65 -416.141h-341.828c30.2373 126.695 93.833 386.39 104.651 416.142l-58.7373 21.3584l-58.7373 21.3584c-24.4023 -67.1035 -126.477 -504.396 -127.093 -507.009l-18.1289 -76.8496h78.959h500h78.959l-18.1289 76.8496
c-0.615234 2.61133 -102.691 439.906 -127.095 507.01l-58.7363 -21.3594zM375 425v62.5h250v-62.5v-62.5h-250v62.5zM625 425l-62.0176 -7.75195l-31.25 250l62.0176 7.75195l62.0176 7.75195l31.25 -250zM593.75 675v62.5h93.75v-62.5v-62.5h-93.75v62.5zM406.25 675v62.5
h187.5v-62.5v-62.5h-187.5v62.5zM406.25 675v-62.5h-93.75v62.5v62.5h93.75v-62.5zM620.889 423.505l4.11035 1.49512l58.7363 21.3594c24.4043 -67.1035 126.479 -504.399 127.095 -507.01l18.1289 -76.8496h-78.96h-500h-78.959l18.1289 76.8496
c0.616211 2.61328 102.692 439.905 127.094 507.009l58.7373 -21.3584l58.7373 -21.3584c-10.8184 -29.752 -74.4141 -289.447 -104.651 -416.142h341.828c-30.6367 128.371 -93.708 386.049 -104.65 416.141zM375 425v62.5h250v-62.5v-62.5h-250v62.5zM625 425
l62.0176 7.75195l-31.25 250l-62.0176 -7.75195l-62.0176 -7.75195l31.25 -250zM593.75 675v-62.5h93.75v62.5v62.5h-93.75v-62.5zM406.25 675v62.5h-93.75v-62.5v-62.5h93.75v62.5zM620.889 423.505l4.11133 1.49512l58.7363 21.3594
c24.4033 -67.1035 126.479 -504.398 127.095 -507.01l18.1289 -76.8496h-78.959h-500h-78.959l18.1289 76.8496c0.616211 2.6123 102.69 439.905 127.093 507.009l58.7373 -21.3584l58.7373 -21.3584c-10.8184 -29.752 -74.4141 -289.446 -104.651 -416.142h341.828
c-30.6367 128.371 -93.708 386.049 -104.65 416.141zM375 425v-62.5h250v62.5v62.5h-250v-62.5zM625 425l-62.0176 -7.75195l-31.25 250l62.0176 7.75195l62.0176 7.75195l31.25 -250zM593.75 675v62.5h93.75v-62.5v-62.5h-93.75v62.5zM620.889 423.505l-54.625 -19.8643
c10.9424 -30.0918 74.0137 -287.77 104.65 -416.141h-341.828c30.2373 126.694 93.833 386.39 104.651 416.142l-58.7373 21.3584l-58.7373 21.3584c-24.4014 -67.1035 -126.478 -504.396 -127.094 -507.009l-18.1289 -76.8496h78.959h500h78.96l-18.1289 76.8496
c-0.615234 2.61035 -102.69 439.906 -127.095 507.01l-58.7363 -21.3594zM375 425v62.5h250v-62.5v-62.5h-250v62.5zM625 425l62.0176 7.75195l-31.25 250l-62.0176 -7.75195l-62.0176 -7.75195l31.25 -250zM593.75 675v-62.5h93.75v62.5v62.5h-93.75v-62.5zM375 425v-62.5
h250v62.5v62.5h-250v-62.5zM625 425l-62.0176 -7.75195l-31.25 250l62.0176 7.75195l62.0176 7.75195l31.25 -250zM593.75 675v62.5h93.75v-62.5v-62.5h-93.75v62.5zM625 425l62.0176 7.75195l-31.25 250l-62.0176 -7.75195l-62.0176 -7.75195l31.25 -250zM593.75 675v-62.5
h93.75v62.5v62.5h-93.75v-62.5zM593.75 675v62.5h93.75v-62.5v-62.5h-93.75v62.5z" />
  </g>

</svg>
