<?xml version="1.0" standalone="no"?>
<!DOCTYPE svg PUBLIC "-//W3C//DTD SVG 1.1//EN" "http://www.w3.org/Graphics/SVG/1.1/DTD/svg11.dtd" >
<svg xmlns="http://www.w3.org/2000/svg" xmlns:xlink="http://www.w3.org/1999/xlink" version="1.1" viewBox="-10 0 1010 1000">
  <g transform="matrix(1 0 0 -1 0 800)">
   <path fill="currentColor"
d="M375 675v-62.5h-187.5v-625h625v481.076l-95.9492 143.924h-29.0508v62.5v62.5h62.5h33.4492l18.5537 -27.8311l125 -187.5l10.4971 -15.7451v-18.9238v-562.5v-62.5h-62.5h-750h-62.5v62.5v750v62.5h62.5h250v-62.5zM375 675h62.5v-125h187.5v125h62.5h62.5v-187.5
v-62.5h-62.5h-312.5h-62.5v62.5v187.5h62.5zM375 675v62.5h312.5v-62.5v-62.5h-312.5v62.5zM687.497 206.25c0 -86.2842 -69.9619 -156.25 -156.25 -156.25c-86.2861 0 -156.25 69.9639 -156.25 156.25s69.9639 156.25 156.25 156.25s156.25 -69.9629 156.25 -156.25z
M562.497 206.25c0 -17.2676 -13.9844 -31.25 -31.25 -31.25c-17.2666 0 -31.25 13.9854 -31.25 31.25c0 17.2686 13.9834 31.25 31.25 31.25c17.2686 0 31.25 -13.9824 31.25 -31.25zM375 675h-62.5v-187.5v-62.5h62.5h312.5h62.5v62.5v187.5h-62.5h-62.5v-125h-187.5v125
h-62.5zM375 675v-62.5h312.5v62.5v62.5h-312.5v-62.5zM687.497 206.25c0 86.2871 -69.9639 156.25 -156.25 156.25s-156.25 -69.9639 -156.25 -156.25s69.9639 -156.25 156.25 -156.25c86.2881 0 156.25 69.9658 156.25 156.25zM562.497 206.25
c0 17.2676 -13.9814 31.25 -31.25 31.25c-17.2666 0 -31.25 -13.9814 -31.25 -31.25c0 -17.2646 13.9834 -31.25 31.25 -31.25c17.2656 0 31.25 13.9824 31.25 31.25zM375 675v62.5h312.5v-62.5v-62.5h-312.5v62.5zM687.497 206.25
c0 -86.2842 -69.9619 -156.25 -156.25 -156.25c-86.2861 0 -156.25 69.9639 -156.25 156.25s69.9639 156.25 156.25 156.25s156.25 -69.9629 156.25 -156.25zM562.497 206.25c0 -17.2676 -13.9844 -31.25 -31.25 -31.25c-17.2666 0 -31.25 13.9854 -31.25 31.25
c0 17.2686 13.9834 31.25 31.25 31.25c17.2686 0 31.25 -13.9824 31.25 -31.25zM687.497 206.25c0 86.2871 -69.9639 156.25 -156.25 156.25s-156.25 -69.9639 -156.25 -156.25s69.9639 -156.25 156.25 -156.25c86.2881 0 156.25 69.9658 156.25 156.25zM562.497 206.25
c0 17.2676 -13.9814 31.25 -31.25 31.25c-17.2666 0 -31.25 -13.9814 -31.25 -31.25c0 -17.2646 13.9834 -31.25 31.25 -31.25c17.2656 0 31.25 13.9824 31.25 31.25z" />
  </g>

</svg>
