<?xml version="1.0" standalone="no"?>
<!DOCTYPE svg PUBLIC "-//W3C//DTD SVG 1.1//EN" "http://www.w3.org/Graphics/SVG/1.1/DTD/svg11.dtd" >
<svg xmlns="http://www.w3.org/2000/svg" xmlns:xlink="http://www.w3.org/1999/xlink" version="1.1" viewBox="-10 0 1010 1000">
  <g transform="matrix(1 0 0 -1 0 800)">
   <path fill="currentColor"
d="M576.916 -3.90527c71.8184 15.9492 133.09 52.4111 158.667 107.811c-71.8184 -15.9492 -133.091 -52.4102 -158.667 -107.811zM499.999 -137.5h-62.5v62.5c0 242.747 240.675 312.5 375.001 312.5h62.5v-62.5c0 -242.747 -240.675 -312.5 -375.001 -312.5z
M423.081 -3.90527c-70.9707 15.7607 -132.816 51.8242 -158.664 107.811c70.9727 -15.7598 132.817 -51.8242 158.664 -107.811zM562.499 -75v-62.5h-62.5c-134.323 0 -374.999 69.7559 -374.999 312.5v62.5h62.5c134.324 0 374.999 -69.7559 374.999 -312.5z
M423.081 -3.90527c-25.8467 55.9863 -87.6914 92.0498 -158.664 107.811c25.8477 -55.9863 87.6934 -92.0498 158.664 -107.811zM562.499 -75c0 242.744 -240.675 312.5 -374.999 312.5h-62.5v-62.5c0 -242.744 240.676 -312.5 374.999 -312.5h62.5v62.5zM500 -75h-62.5v375
h62.5h62.5v-375h-62.5zM312.5 550l25 -18.75l37.5 -28.125l37.5 28.125l87.499 65.625l87.501 -65.625l37.5 -28.125l37.5 28.125l25.001 18.75c-0.263672 -74.5703 -112.72 -187.5 -187.502 -187.5c-74.584 0 -187.499 112.915 -187.499 187.5zM187.5 675v-125
c0 -152.36 160.139 -312.5 312.499 -312.5s312.501 160.139 312.501 312.5v125v125l-100 -75l-87.5 -65.625l-87.501 65.625l-37.501 28.125l-37.499 -28.125l-87.499 -65.625l-87.5 65.625l-100 75v-125z" />
  </g>

</svg>
