<?xml version="1.0" standalone="no"?>
<!DOCTYPE svg PUBLIC "-//W3C//DTD SVG 1.1//EN" "http://www.w3.org/Graphics/SVG/1.1/DTD/svg11.dtd" >
<svg xmlns="http://www.w3.org/2000/svg" xmlns:xlink="http://www.w3.org/1999/xlink" version="1.1" viewBox="-10 0 1010 1000">
  <g transform="matrix(1 0 0 -1 0 800)">
   <path fill="currentColor"
d="M500 175c-69.0283 0 -125 55.9736 -125 125c0 69.0283 55.9736 125 125 125c69.0283 0 125 -55.9736 125 -125c0 -69.0283 -55.9736 -125 -125 -125zM500 50c-138.08 0 -250 111.921 -250 250c0 138.08 111.92 250 250 250c138.079 0 250 -111.92 250 -250
c0 -138.079 -111.921 -250 -250 -250zM500 -75c207.097 0 375 167.903 375 375c0 207.098 -167.903 375 -375 375c-207.098 0 -375 -167.902 -375 -375c0 -207.097 167.902 -375 375 -375zM500 675h62.5v-62.5h-62.5h-62.5v62.5h62.5zM500 -12.5h62.5v-62.5h-62.5h-62.5
v62.5h62.5zM812.5 300v62.5h62.5v-62.5v-62.5h-62.5v62.5zM125 300v62.5h62.5v-62.5v-62.5h-62.5v62.5z" />
  </g>

</svg>
