<?xml version="1.0" standalone="no"?>
<!DOCTYPE svg PUBLIC "-//W3C//DTD SVG 1.1//EN" "http://www.w3.org/Graphics/SVG/1.1/DTD/svg11.dtd" >
<svg xmlns="http://www.w3.org/2000/svg" xmlns:xlink="http://www.w3.org/1999/xlink" version="1.1" viewBox="-10 0 1010 1000">
  <g transform="matrix(1 0 0 -1 0 800)">
   <path fill="currentColor"
d="M374.997 695.833h125h25.8887l18.3057 -18.3057l65.0283 -65.0283h182.442c38.6719 0 75.7783 -15.3662 103.114 -42.708c27.3545 -27.3486 42.7227 -64.4443 42.7227 -103.125v-291.666c0 -38.6709 -15.3818 -75.793 -42.708 -103.108
c-27.3594 -27.3721 -64.4658 -42.7227 -103.13 -42.7227h-416.665c-38.6621 0 -75.7783 15.3643 -103.112 42.7061c-27.3594 27.3525 -42.7197 64.4512 -42.7197 103.125v374.999c0 38.6758 15.3662 75.7764 42.7139 103.12
c27.3486 27.3477 64.4404 42.7139 103.119 42.7139v0zM374.997 570.833c-5.52148 0 -10.8223 -2.19434 -14.7305 -6.10254c-3.91016 -3.91016 -6.10254 -9.20215 -6.10254 -14.7314v-374.999c0 -5.52539 2.19824 -10.8271 6.09668 -14.7246
c3.92188 -3.92285 9.19824 -6.10645 14.7363 -6.10645h416.665c5.54102 0 10.8213 2.18848 14.7305 6.09961c3.91895 3.91699 6.10742 9.20703 6.10742 14.7314v291.666c0 5.52246 -2.19336 10.8203 -6.10254 14.7275c-3.91211 3.91309 -9.20508 6.10547 -14.7354 6.10547
h-208.331h-25.8877l-18.3066 18.3057l-65.0283 65.0283h-99.1113zM708.331 91.6689h62.5v-83.3379c0 -38.667 -15.3574 -75.7666 -42.7119 -103.119c-27.3496 -27.3486 -64.4414 -42.7119 -103.119 -42.7119h-416.667c-38.6836 0 -75.7598 15.3574 -103.126 42.7178
c-27.3389 27.3467 -42.707 64.4336 -42.707 103.113v375.003c0 38.6797 15.3633 75.7666 42.7129 103.12c27.3496 27.3496 64.4434 42.7129 103.12 42.7129h83.334v-62.5v-62.5h-83.334c-5.52637 0 -10.8252 -2.19531 -14.7314 -6.10156
c-3.9043 -3.9043 -6.10156 -9.20996 -6.10156 -14.7314v-375.003c0 -5.51953 2.19238 -10.8213 6.10742 -14.7363c3.88965 -3.88965 9.20605 -6.09473 14.7256 -6.09473h416.667c5.52148 0 10.8291 2.19922 14.7305 6.10059
c3.91016 3.90918 6.10059 9.19824 6.10059 14.7305v83.3379h62.5v0z" />
  </g>

</svg>
