<?xml version="1.0" standalone="no"?>
<!DOCTYPE svg PUBLIC "-//W3C//DTD SVG 1.1//EN" "http://www.w3.org/Graphics/SVG/1.1/DTD/svg11.dtd" >
<svg xmlns="http://www.w3.org/2000/svg" xmlns:xlink="http://www.w3.org/1999/xlink" version="1.1" viewBox="-10 0 1010 1000">
  <g transform="matrix(1 0 0 -1 0 800)">
   <path fill="currentColor"
d="M208.333 695.833h166.667h25.8887l18.3057 -18.3057l106.694 -106.694h265.779c38.6816 0 75.7617 -15.3623 103.122 -42.7168c27.3428 -27.3467 42.709 -64.4375 42.709 -103.117v-333.329c0 -38.6826 -15.3682 -75.7754 -42.7109 -103.118
c-27.3477 -27.3486 -64.4395 -42.7197 -103.119 -42.7197h-583.337c-38.6768 0 -75.7832 15.376 -103.116 42.7168c-27.3486 27.3457 -42.7158 64.4395 -42.7158 103.121v458.33c0 38.6787 15.3652 75.7715 42.7129 103.119c27.3486 27.3486 64.4414 42.7148 103.12 42.7148
v-0.000976562zM208.333 570.833c-5.52344 0 -10.8232 -2.19434 -14.7314 -6.10254c-3.90527 -3.90527 -6.10156 -9.20508 -6.10156 -14.7314v-458.33c0 -5.53125 2.19434 -10.8242 6.09863 -14.7285c3.92188 -3.92285 9.20898 -6.10938 14.7344 -6.10938h583.336
c5.51758 0 10.8145 2.19141 14.7295 6.10645c3.90723 3.90723 6.10156 9.20117 6.10156 14.7314v333.33c0 5.52441 -2.19629 10.8271 -6.10254 14.7344c-3.90234 3.90137 -9.21191 6.09961 -14.7285 6.09961h-291.669h-25.8887l-18.3057 18.3057l-106.694 106.694h-140.777
h-0.000976562zM583.331 341.667l44.1943 -44.1943l-166.668 -166.666l-44.1934 44.1943l-44.1943 44.1943l166.668 166.666zM470.582 376.138c-0.0625 0.0625 -0.107422 0.107422 -0.139648 0.138672zM471.025 375.693l-0.441406 0.442383l-0.00195312 0.00195312z
M466.163 380.557l-5.30566 5.30469l-88.3877 -88.3887l96.376 -96.374c0.441406 -0.442383 0 -0.000976562 0.441406 -0.442383l51.7246 -51.7236c0.442383 -0.442383 0 -0.000976562 0.883789 -0.884766l17.2422 -17.2412l88.3877 88.3887l-56.3662 56.3662z
M470.582 376.138c-0.0625 0.0625 -0.107422 0.107422 -0.139648 0.138672zM471.025 375.693l-0.441406 0.442383l-0.00195312 0.00195312zM466.163 380.557l104.996 -104.995l56.3662 -56.3662l-88.3877 -88.3887l-17.2422 17.2412
c-0.883789 0.883789 -0.441406 0.442383 -0.883789 0.884766l-51.7246 51.7236c-0.441406 0.441406 0 0 -0.441406 0.442383l-96.376 96.374l88.3877 88.3887z" />
  </g>

</svg>
