<?xml version="1.0" standalone="no"?>
<!DOCTYPE svg PUBLIC "-//W3C//DTD SVG 1.1//EN" "http://www.w3.org/Graphics/SVG/1.1/DTD/svg11.dtd" >
<svg xmlns="http://www.w3.org/2000/svg" xmlns:xlink="http://www.w3.org/1999/xlink" version="1.1" viewBox="-10 0 1010 1000">
  <g transform="matrix(1 0 0 -1 0 800)">
   <path fill="currentColor"
d="M125 675l44.1943 44.1943l750 -750l-44.1943 -44.1943l-44.1943 -44.1943l-750 750zM333.333 614.896v18.4375v62.5h41.667h25.8887l18.3057 -18.3066l106.694 -106.693h265.779c38.6816 0 75.7617 -15.3623 103.122 -42.7168
c27.3428 -27.3467 42.709 -64.4375 42.709 -103.117v-333.33h-62.5h-62.5v333.33c0 5.52441 -2.19629 10.8271 -6.10254 14.7344c-3.90234 3.90137 -9.21191 6.09961 -14.7285 6.09961h-291.669h-25.8887l-18.3057 18.3057l-106.693 106.694h-15.7783v44.0625v0z
M791.669 -54.1689h-583.336c-38.6777 0 -75.7832 15.376 -103.117 42.7168c-27.3486 27.3457 -42.7158 64.4395 -42.7158 103.121v458.315c-0.00683594 28.002 8.04883 55.4121 23.2021 78.958c15.1543 23.5479 36.7676 42.2334 62.2588 53.8252l39.4248 17.9268
l30.6309 -30.6162l617.836 -617.543l106.755 -106.704h-150.938h-0.000976562zM640.729 70.8311h-432.396c-5.52539 0 -10.8125 2.18652 -14.7344 6.10938c-3.9043 3.9043 -6.09863 9.19727 -6.09863 14.7285v432.177zM791.669 -54.1689h150.938l-106.756 106.705
l-617.836 617.543l-30.6309 30.6162l-39.4248 -17.9277c-25.4912 -11.5918 -47.1045 -30.2773 -62.2588 -53.8252c-15.1533 -23.5459 -23.209 -50.9561 -23.2021 -78.958v-458.315c0 -38.6807 15.3672 -75.7754 42.7158 -103.12
c27.334 -27.3408 64.4395 -42.7168 103.117 -42.7168h583.336zM640.729 70.8311l-453.229 453.015v-432.177c0 -5.53125 2.19434 -10.8242 6.09863 -14.7285c3.92188 -3.92285 9.20898 -6.10938 14.7344 -6.10938h432.396h-0.000976562z" />
  </g>

</svg>
