<?xml version="1.0" standalone="no"?>
<!DOCTYPE svg PUBLIC "-//W3C//DTD SVG 1.1//EN" "http://www.w3.org/Graphics/SVG/1.1/DTD/svg11.dtd" >
<svg xmlns="http://www.w3.org/2000/svg" xmlns:xlink="http://www.w3.org/1999/xlink" version="1.1" viewBox="-10 0 1010 1000">
  <g transform="matrix(1 0 0 -1 0 800)">
   <path fill="currentColor"
d="M458.333 633.333v-62.5h-166.666c-16.5781 0 -32.4736 -6.58398 -44.1943 -18.3057c-11.7217 -11.7207 -18.3057 -27.6162 -18.3057 -44.1943v-500.002h-62.5h-62.5v500.002c0 49.7275 19.7539 97.4199 54.917 132.583s82.8555 54.917 132.583 54.917h166.666v-62.5z
M416.667 341.667v62.5h-250v-62.5v-62.5h250v62.5zM666.669 633.333h62.5v-541.664c0 -5.5498 2.17578 -10.8076 6.11035 -14.7402c3.89844 -3.90039 9.19922 -6.09766 14.7207 -6.09766h83.3311v-62.5v-62.5h-83.3311c-38.6738 0 -75.7871 15.375 -103.118 42.7188
c-27.3496 27.3359 -42.7129 64.4531 -42.7129 103.119v541.664h62.5zM791.669 425v-62.5h-208.336v62.5v62.5h208.336v-62.5z" />
  </g>

</svg>
