<?xml version="1.0" standalone="no"?>
<!DOCTYPE svg PUBLIC "-//W3C//DTD SVG 1.1//EN" "http://www.w3.org/Graphics/SVG/1.1/DTD/svg11.dtd" >
<svg xmlns="http://www.w3.org/2000/svg" xmlns:xlink="http://www.w3.org/1999/xlink" version="1.1" viewBox="-10 0 1010 1000">
  <g transform="matrix(1 0 0 -1 0 800)">
   <path fill="currentColor"
d="M208.333 70.8311c11.5127 0 20.834 9.32812 20.834 20.8379c0 11.5088 -9.3291 20.8311 -20.834 20.8311c-11.5137 0 -20.833 -9.33105 -20.833 -20.8311c0 -11.5195 9.33008 -20.8379 20.833 -20.8379zM208.333 -54.1689c-80.5439 0 -145.833 65.3066 -145.833 145.838
c0 80.5371 65.2998 145.831 145.833 145.831c80.542 0 145.834 -65.3027 145.834 -145.831c0 -80.541 -65.2988 -145.838 -145.834 -145.838zM583.333 70.8311c11.5137 0 20.8359 9.3291 20.8359 20.8379c0 11.5068 -9.3291 20.8311 -20.8359 20.8311
c-11.5137 0 -20.833 -9.33105 -20.833 -20.8311c0 -11.5195 9.33008 -20.8379 20.833 -20.8379zM583.333 -54.1689c-80.5439 0 -145.833 65.3066 -145.833 145.838c0 80.5371 65.2998 145.831 145.833 145.831c80.541 0 145.836 -65.3008 145.836 -145.831
c0 -80.543 -65.3018 -145.838 -145.836 -145.838zM291.667 91.6689v-62.5h208.334v62.5v62.5h-208.334v-62.5zM125 91.6689h-62.5v249.998v62.5h62.5h541.669h62.5v-62.5v-249.998h-62.5h-62.5v187.498h-416.669v-187.498h-62.5zM208.333 341.667h62.5v104.166h104.166v62.5
v62.5h-166.666h-62.5v-62.5v-166.666h62.5zM375 341.667h62.5v187.5h65.54l107.728 -215.451l55.9014 27.9512l55.9014 27.9512l-125.002 250l-17.2744 34.5488h-38.627h-166.667h-62.5v-62.5v-250h62.5v0zM916.669 175v-62.5h-125h-62.5v62.5v416.667h62.5h62.5v-354.167
h62.5v-62.5zM666.669 258.333v-62.5h125v62.5v62.5h-125v-62.5z" />
  </g>

</svg>
