<?xml version="1.0" standalone="no"?>
<!DOCTYPE svg PUBLIC "-//W3C//DTD SVG 1.1//EN" "http://www.w3.org/Graphics/SVG/1.1/DTD/svg11.dtd" >
<svg xmlns="http://www.w3.org/2000/svg" xmlns:xlink="http://www.w3.org/1999/xlink" version="1.1" viewBox="-10 0 1010 1000">
  <g transform="matrix(1 0 0 -1 0 800)">
   <path fill="currentColor"
d="M375 550h62.5v-500h-62.5h-62.5v500h62.5zM250 675v62.5c102.93 0 187.5 -84.5693 187.5 -187.5h-125c0 33.2354 -29.2637 62.5 -62.5 62.5v62.5zM500 643.125v-30.625c-33.2363 0 -62.5 -29.2646 -62.5 -62.5h-125c0 102.931 84.5703 187.5 187.5 187.5v-94.375z
M500 -75v62.5c-33.2354 0 -62.5 29.2666 -62.5 62.5h-125c0 -102.929 84.5693 -187.5 187.5 -187.5v62.5zM250 -43.125v30.625c33.2354 0 62.5 29.2666 62.5 62.5h125c0 -102.929 -84.5693 -187.5 -187.5 -187.5v94.375zM562.495 487.501v-62.5h249.999v-250.001h-249.999
v-62.5v-62.5h312.499h62.5v62.5v375.001v62.5h-62.5h-312.499v-62.5zM187.5 487.501v-62.5v-250.001v-62.5v-62.5h-62.5h-62.5v62.5v375.001v62.5h62.5h62.5v-62.5zM250 675v-62.5c33.2363 0 62.5 -29.2646 62.5 -62.5h125c0 102.931 -84.5703 187.5 -187.5 187.5v-62.5z
M500 643.125v94.375c-102.93 0 -187.5 -84.5693 -187.5 -187.5h125c0 33.2354 29.2637 62.5 62.5 62.5v30.625zM500 -75v-62.5c-102.931 0 -187.5 84.5713 -187.5 187.5h125c0 -33.2334 29.2646 -62.5 62.5 -62.5v-62.5zM250 -43.125v30.625
c33.2354 0 62.5 29.2666 62.5 62.5h125c0 -102.929 -84.5693 -187.5 -187.5 -187.5v94.375zM562.495 487.501v62.5h312.499h62.5v-62.5v-375.001v-62.5h-62.5h-312.499v62.5v62.5h249.999v250.001h-249.999v62.5zM187.5 487.501v-62.5v-250.001v-62.5v-62.5h-62.5h-62.5
v62.5v375.001v62.5h62.5h62.5v-62.5zM500 643.125v-30.625c-33.2363 0 -62.5 -29.2646 -62.5 -62.5h-125c0 102.931 84.5703 187.5 187.5 187.5v-94.375zM500 -75v62.5c-33.2354 0 -62.5 29.2666 -62.5 62.5h-125c0 -102.929 84.5693 -187.5 187.5 -187.5v62.5zM250 -43.125
v-94.375c102.931 0 187.5 84.5713 187.5 187.5h-125c0 -33.2334 -29.2646 -62.5 -62.5 -62.5v-30.625zM562.495 487.501v-62.5h249.999v-250.001h-249.999v-62.5v-62.5h312.499h62.5v62.5v375.001v62.5h-62.5h-312.499v-62.5zM187.5 487.501v62.5h-62.5h-62.5v-62.5
v-375.001v-62.5h62.5h62.5v62.5v62.5v250.001v62.5zM500 -75v-62.5c-102.931 0 -187.5 84.5713 -187.5 187.5h125c0 -33.2334 29.2646 -62.5 62.5 -62.5v-62.5zM250 -43.125v30.625c33.2354 0 62.5 29.2666 62.5 62.5h125c0 -102.929 -84.5693 -187.5 -187.5 -187.5v94.375z
M562.495 487.501v62.5h312.499h62.5v-62.5v-375.001v-62.5h-62.5h-312.499v62.5v62.5h249.999v250.001h-249.999v62.5zM187.5 487.501v-62.5v-250.001v-62.5v-62.5h-62.5h-62.5v62.5v375.001v62.5h62.5h62.5v-62.5zM250 -43.125v-94.375
c102.931 0 187.5 84.5713 187.5 187.5h-125c0 -33.2334 -29.2646 -62.5 -62.5 -62.5v-30.625zM562.495 487.501v-62.5h249.999v-250.001h-249.999v-62.5v-62.5h312.499h62.5v62.5v375.001v62.5h-62.5h-312.499v-62.5zM187.5 487.501v62.5h-62.5h-62.5v-62.5v-375.001v-62.5
h62.5h62.5v62.5v62.5v250.001v62.5zM562.495 487.501v62.5h312.499h62.5v-62.5v-375.001v-62.5h-62.5h-312.499v62.5v62.5h249.999v250.001h-249.999v62.5zM187.5 487.501v-62.5v-250.001v-62.5v-62.5h-62.5h-62.5v62.5v375.001v62.5h62.5h62.5v-62.5zM187.5 487.501v62.5
h-62.5h-62.5v-62.5v-375.001v-62.5h62.5h62.5v62.5v62.5v250.001v62.5z" />
  </g>

</svg>
