<?xml version="1.0" standalone="no"?>
<!DOCTYPE svg PUBLIC "-//W3C//DTD SVG 1.1//EN" "http://www.w3.org/Graphics/SVG/1.1/DTD/svg11.dtd" >
<svg xmlns="http://www.w3.org/2000/svg" xmlns:xlink="http://www.w3.org/1999/xlink" version="1.1" viewBox="-10 0 1010 1000">
  <g transform="matrix(1 0 0 -1 0 800)">
   <path fill="currentColor"
d="M687.5 -12.5l-44.1943 44.1943l187.5 187.5l44.1943 -44.1943l44.1943 -44.1943l-187.5 -187.5zM875 175l44.1943 44.1943l-187.5 187.5l-44.1943 -44.1943l-44.1943 -44.1943l187.5 -187.5zM875 175v62.5h-531.25c-86.3037 0 -156.25 69.9473 -156.25 156.25
c0 86.3037 69.9473 156.25 156.25 156.25h93.75v62.5v62.5h-93.75c-155.321 0 -281.25 -125.929 -281.25 -281.25s125.929 -281.25 281.25 -281.25h531.25v62.5zM875 175l44.1943 44.1943l-187.5 187.5l-44.1943 -44.1943l-44.1943 -44.1943l187.5 -187.5zM875 175v-62.5
h-531.25c-155.321 0 -281.25 125.929 -281.25 281.25s125.929 281.25 281.25 281.25h93.75v-62.5v-62.5h-93.75c-86.3027 0 -156.25 -69.9463 -156.25 -156.25c0 -86.3027 69.9463 -156.25 156.25 -156.25h531.25v-62.5zM875 175v-62.5h-531.25
c-155.321 0 -281.25 125.929 -281.25 281.25s125.929 281.25 281.25 281.25h93.75v-62.5v-62.5h-93.75c-86.3027 0 -156.25 -69.9463 -156.25 -156.25c0 -86.3027 69.9463 -156.25 156.25 -156.25h531.25v-62.5z" />
  </g>

</svg>
