<?xml version="1.0" standalone="no"?>
<!DOCTYPE svg PUBLIC "-//W3C//DTD SVG 1.1//EN" "http://www.w3.org/Graphics/SVG/1.1/DTD/svg11.dtd" >
<svg xmlns="http://www.w3.org/2000/svg" xmlns:xlink="http://www.w3.org/1999/xlink" version="1.1" viewBox="-10 0 1010 1000">
  <g transform="matrix(1 0 0 -1 0 800)">
   <path fill="currentColor"
d="M281.254 300v62.5h187.5v-62.5v-62.5h-187.5v62.5zM375.004 393.75h62.5v-187.5h-62.5h-62.5v187.5h62.5zM125 612.5h750h62.5v-62.5v-500v-62.5h-62.5h-750h-62.5v62.5v500v62.5h62.5zM187.5 487.5v-375h625v375h-625zM375.004 393.75h-62.5v-187.5h62.5h62.5v187.5
h-62.5zM125 612.5h750h62.5v-62.5v-500v-62.5h-62.5h-750h-62.5v62.5v500v62.5h62.5zM187.5 487.5v-375h625v375h-625zM125 612.5h-62.5v-62.5v-500v-62.5h62.5h750h62.5v62.5v500v62.5h-62.5h-750zM187.5 487.5h625v-375h-625v375zM125 612.5h750h62.5v-62.5v-500v-62.5
h-62.5h-750h-62.5v62.5v500v62.5h62.5zM187.5 487.5v-375h625v375h-625zM125 612.5h-62.5v-62.5v-500v-62.5h62.5h750h62.5v62.5v500v62.5h-62.5h-750zM187.5 487.5h625v-375h-625v375z" />
  </g>

</svg>
