<?xml version="1.0" standalone="no"?>
<!DOCTYPE svg PUBLIC "-//W3C//DTD SVG 1.1//EN" "http://www.w3.org/Graphics/SVG/1.1/DTD/svg11.dtd" >
<svg xmlns="http://www.w3.org/2000/svg" xmlns:xlink="http://www.w3.org/1999/xlink" version="1.1" viewBox="-10 0 1010 1000">
  <g transform="matrix(1 0 0 -1 0 800)">
   <path fill="currentColor"
d="M229.167 -75l-56.4287 26.8711l208.333 437.5l56.4287 -26.8711l56.4287 -26.8711l-208.333 -437.5zM562.5 362.5l55.9014 27.9512l218.75 -437.5l-55.9014 -27.9512l-55.9014 -27.9512l-218.75 437.5zM562.5 362.5l-55.9014 -27.9512l218.75 -437.5l55.9014 27.9512
l55.9014 27.9512l-218.75 437.5zM500 425c34.5264 0 62.5 27.9736 62.5 62.5s-27.9736 62.5 -62.5 62.5s-62.5 -27.9736 -62.5 -62.5s27.9736 -62.5 62.5 -62.5zM500 300c-103.544 0 -187.5 83.9561 -187.5 187.5s83.9561 187.5 187.5 187.5s187.5 -83.9561 187.5 -187.5
s-83.9561 -187.5 -187.5 -187.5zM125 300l55.5322 28.6777c28.0723 -54.3604 72.6934 -95.9375 128.202 -124.721c173.919 -90.1826 425.928 -39.2295 510.753 124.758l55.5127 -28.7148l55.5127 -28.7148c-125.695 -243.002 -457.583 -293.274 -679.319 -178.297
c-75.001 38.8906 -140.408 98.3252 -181.726 178.334zM500 612.5h62.5v62.5h-62.5h-62.5v-62.5h62.5z" />
  </g>

</svg>
