<?xml version="1.0" standalone="no"?>
<!DOCTYPE svg PUBLIC "-//W3C//DTD SVG 1.1//EN" "http://www.w3.org/Graphics/SVG/1.1/DTD/svg11.dtd" >
<svg xmlns="http://www.w3.org/2000/svg" xmlns:xlink="http://www.w3.org/1999/xlink" version="1.1" viewBox="-10 0 1010 1000">
  <g transform="matrix(1 0 0 -1 0 800)">
   <path fill="currentColor"
d="M145.833 341.667c0 93.9307 37.3145 184.015 103.733 250.434c66.418 66.4189 156.502 103.733 250.434 103.733c93.9297 0 184.021 -37.3164 250.431 -103.732c66.4209 -66.4189 103.738 -156.503 103.738 -250.435v-288.361
c2.5293 -27.6172 -3.33496 -55.2002 -16.8818 -79.3545c-14.2764 -25.4668 -36.3564 -45.7168 -62.9551 -57.7207c-26.6182 -12.0264 -56.3857 -15.2031 -84.9336 -9.07617c-28.5625 6.12988 -54.3965 21.249 -73.7314 43.127l-1.24414 1.40723l-1.15723 1.48047
c-0.598633 0.765625 -1.33496 1.35938 -2.19629 1.7793c-0.854492 0.416992 -1.7959 0.632812 -2.73633 0.632812c-0.936523 0 -1.87988 -0.214844 -2.74414 -0.636719c-0.834961 -0.40625 -1.60742 -1.0332 -2.1709 -1.75391
c-12.2705 -15.7061 -28.041 -28.4541 -45.8633 -37.1396c-17.9473 -8.7627 -37.6357 -13.2949 -57.5547 -13.2949c-19.8965 0 -39.6572 4.55566 -57.5098 13.2734c-17.9092 8.72754 -33.6377 21.4551 -45.8965 37.1465c-0.587891 0.751953 -1.3418 1.35938 -2.18066 1.76855
c-0.868164 0.422852 -1.80859 0.636719 -2.74609 0.636719c-0.938477 0 -1.88184 -0.214844 -2.74414 -0.635742c-0.844727 -0.412109 -1.59668 -1.01953 -2.18164 -1.76758l-1.16113 -1.48438l-1.24707 -1.41211c-19.332 -21.876 -45.166 -36.9971 -73.7305 -43.127
c-28.5459 -6.12598 -58.3291 -2.94531 -84.916 9.06641c-26.6309 12.0205 -48.7002 32.2686 -62.9668 57.7188c-13.7119 24.4482 -19.2832 53.2061 -16.8867 79.3672v288.36zM270.833 341.667v-291.667v-3.89941l-0.484375 -3.86816
c-0.310547 -2.47754 0.183594 -4.9873 1.39453 -7.14551c1.23633 -2.20605 3.10254 -3.91113 5.37695 -4.93848c2.2832 -1.03125 4.81348 -1.30078 7.25391 -0.777344c2.14941 0.461914 4.10449 1.50684 5.70215 3.06348c11.5059 13.918 27.002 26.5488 44.0703 34.8701
c17.9102 8.72949 37.5732 13.2764 57.5205 13.2764c19.9443 0 39.6123 -4.54785 57.5166 -13.2754c17.9307 -8.74121 33.6172 -21.4453 45.8887 -37.1436c0.610352 -0.780273 1.28711 -1.33203 2.19824 -1.77637c0.870117 -0.424805 1.75488 -0.629883 2.72949 -0.629883
c0.975586 0 1.8584 0.205078 2.72949 0.629883c0.901367 0.44043 1.60254 1.01367 2.18555 1.76074c12.2979 15.7305 27.9639 28.415 45.9004 37.1582c17.9072 8.72949 37.5723 13.2764 57.5176 13.2764c19.9443 0 39.6143 -4.5459 57.5244 -13.2793
c17.1465 -8.35742 31.2061 -19.3154 44.0645 -34.8652c1.49707 -1.45801 3.54102 -2.60059 5.70508 -3.06543c2.44434 -0.524414 4.95996 -0.257812 7.25195 0.77832c2.27051 1.02441 4.14746 2.74219 5.37109 4.9248c1.22363 2.18066 1.71289 4.68262 1.40332 7.16016
l-0.484375 3.86816v3.89746v291.667c0 60.7773 -24.1455 119.066 -67.125 162.045c-42.9756 42.9795 -101.263 67.1221 -162.044 67.1221c-60.7793 0 -119.067 -24.1445 -162.045 -67.1221c-42.9785 -42.9775 -67.1221 -101.267 -67.1221 -162.045zM565.477 242.312
l17.8564 -25.6455l35.7139 -51.29c-34.9326 -24.3232 -76.4775 -37.3643 -119.047 -37.3643s-84.1143 13.041 -119.047 37.3643l35.7139 51.29l5.53516 7.95117l30.1777 43.3418c13.9746 -9.73047 30.5938 -14.9473 47.6201 -14.9473s33.6455 5.21582 47.6201 14.9473z" />
  </g>

</svg>
