<?xml version="1.0" standalone="no"?>
<!DOCTYPE svg PUBLIC "-//W3C//DTD SVG 1.1//EN" "http://www.w3.org/Graphics/SVG/1.1/DTD/svg11.dtd" >
<svg xmlns="http://www.w3.org/2000/svg" xmlns:xlink="http://www.w3.org/1999/xlink" version="1.1" viewBox="-10 0 1010 1000">
  <g transform="matrix(1 0 0 -1 0 800)">
   <path fill="currentColor"
d="M812.5 404.166v-41.666h-625v41.666h625zM833.331 529.166h-666.664c-28.6299 0 -54.9189 -11.7715 -73.6562 -30.5088c-18.7422 -18.7412 -30.5107 -45.0176 -30.5107 -73.6572v-83.334c0 -28.6299 11.7725 -54.9199 30.5107 -73.6572
c18.7422 -18.7412 45.0176 -30.5088 73.6562 -30.5088h666.664c28.6289 0 54.9189 11.7705 73.6572 30.5078c18.7422 18.7412 30.5117 45.0176 30.5117 73.6582v83.334c0 57.5234 -46.623 104.166 -104.169 104.166zM500 466.666h-62.5v-541.666h62.5h62.5v541.666h-62.5z
M791.669 300h62.5v-291.669c0 -38.6807 -15.3721 -75.7734 -42.7188 -103.119c-27.3447 -27.3447 -64.4365 -42.7119 -103.119 -42.7119h-416.664c-38.6826 0 -75.7617 15.3584 -103.124 42.7158c-27.3428 27.3477 -42.71 64.4365 -42.71 103.115v291.669h62.5h62.5
v-291.669c0 -5.52051 2.19238 -10.8203 6.10645 -14.7354c3.89355 -3.89258 9.20703 -6.0957 14.7275 -6.0957h416.664c5.53027 0 10.8252 2.19434 14.7305 6.10059c3.91699 3.91602 6.10742 9.21191 6.10742 14.7305v291.669h62.5zM687.5 504.166v25
c11.0527 0 21.6543 4.39355 29.458 12.1982c7.82715 7.82715 12.2109 18.417 12.2109 29.4678c0 11.0498 -4.38965 21.6465 -12.2041 29.46c-7.93066 7.93164 -17.8721 12.207 -30.0098 12.207c-19.3047 0.335938 -41.3008 -7.79883 -66.0303 -35.2754
c-24.4961 -27.2188 -47.0225 -71.0459 -60.1875 -125.297l-60.7373 -250.278l-60.7373 250.278c-13.166 54.2529 -35.6904 98.0771 -60.1885 125.298c-24.7314 27.4785 -46.7148 35.6113 -66.0293 35.2744c-12.1289 0 -22.085 -4.28125 -30.0068 -12.2031
c-7.81445 -7.81445 -12.2051 -18.4141 -12.2051 -29.4639c0 -11.0479 4.38965 -21.6484 12.2061 -29.4648c7.80859 -7.80859 18.4082 -12.2012 29.4609 -12.2012v-125c-44.2012 0 -86.5918 17.5557 -117.854 48.8164c-31.252 31.2559 -48.8135 73.6465 -48.8135 117.85
c0 44.2041 17.5605 86.5957 48.8145 117.852c31.2881 31.2881 74.0498 48.5615 117.345 48.8164c62.3477 0.797852 117.891 -29.873 159.995 -76.6553c10.0371 -11.1523 20.0439 -24.249 28.0137 -36.1475c8.65625 12.9248 17.8975 24.9082 28.0146 36.1494
c42.2988 46.9971 98.875 77.4355 159.993 76.6533c44.7832 -0.263672 86.2295 -17.6973 117.34 -48.8125c31.2598 -31.2568 48.8213 -73.6504 48.8213 -117.854c0 -44.2012 -17.5674 -86.6025 -48.8154 -117.848c-31.2588 -31.2646 -73.6553 -48.8184 -117.854 -48.8184v100
v-0.000976562z" />
  </g>

</svg>
