<?xml version="1.0" standalone="no"?>
<!DOCTYPE svg PUBLIC "-//W3C//DTD SVG 1.1//EN" "http://www.w3.org/Graphics/SVG/1.1/DTD/svg11.dtd" >
<svg xmlns="http://www.w3.org/2000/svg" xmlns:xlink="http://www.w3.org/1999/xlink" version="1.1" viewBox="-10 0 1010 1000">
  <g transform="matrix(1 0 0 -1 0 800)">
   <path fill="currentColor"
d="M218.75 -12.5c17.2676 0 31.25 13.9844 31.25 31.25c0 17.2676 -13.9834 31.25 -31.25 31.25c-17.2676 0 -31.25 -13.9844 -31.25 -31.25c0 -17.2676 13.9834 -31.25 31.25 -31.25zM218.75 -137.5c-86.2881 0 -156.25 69.9658 -156.25 156.25
c0 86.2852 69.9629 156.25 156.25 156.25c86.2881 0 156.25 -69.9658 156.25 -156.25c0 -86.2852 -69.9629 -156.25 -156.25 -156.25zM218.75 550c17.2686 0 31.25 13.9824 31.25 31.25c0 17.2686 -13.9824 31.25 -31.25 31.25c-17.2686 0 -31.25 -13.9824 -31.25 -31.25
c0 -17.2686 13.9824 -31.25 31.25 -31.25zM218.75 425c-86.2871 0 -156.25 69.9639 -156.25 156.25c0 86.2871 69.9639 156.25 156.25 156.25c86.2871 0 156.25 -69.9639 156.25 -156.25c0 -86.2871 -69.9639 -156.25 -156.25 -156.25zM718.75 268.75
c17.2676 0 31.25 13.9834 31.25 31.25c0 17.2676 -13.9844 31.25 -31.25 31.25c-17.2676 0 -31.25 -13.9834 -31.25 -31.25c0 -17.2676 13.9844 -31.25 31.25 -31.25zM718.75 143.75c-86.2852 0 -156.25 69.9629 -156.25 156.25c0 86.2881 69.9658 156.25 156.25 156.25
c86.2852 0 156.25 -69.9629 156.25 -156.25c0 -86.2881 -69.9658 -156.25 -156.25 -156.25zM218.75 487.5h-62.5v-333.331h62.5h62.5v333.331h-62.5zM218.75 487.5l48.0137 40.0117l62.5479 -75.0576c47.498 -56.998 117.861 -89.9541 192.056 -89.9541h103.634v-62.5v-62.5
h-103.634c-111.292 0 -216.836 49.4346 -288.083 134.931l-62.5479 75.0576z" />
  </g>

</svg>
