<?xml version="1.0" standalone="no"?>
<!DOCTYPE svg PUBLIC "-//W3C//DTD SVG 1.1//EN" "http://www.w3.org/Graphics/SVG/1.1/DTD/svg11.dtd" >
<svg xmlns="http://www.w3.org/2000/svg" xmlns:xlink="http://www.w3.org/1999/xlink" version="1.1" viewBox="-10 0 1010 1000">
  <g transform="matrix(1 0 0 -1 0 800)">
   <path fill="currentColor"
d="M218.75 550c-17.2676 0 -31.25 13.9814 -31.25 31.25c0 17.2676 13.9814 31.25 31.25 31.25c17.2676 0 31.25 -13.9814 31.25 -31.25c0 -17.2676 -13.9814 -31.25 -31.25 -31.25zM218.75 425c86.2861 0 156.25 69.9629 156.25 156.25
c0 86.2861 -69.9629 156.25 -156.25 156.25c-86.2861 0 -156.25 -69.9629 -156.25 -156.25c0 -86.2861 69.9629 -156.25 156.25 -156.25zM781.25 -12.5c17.2666 0 31.25 13.9854 31.25 31.25c0 17.2666 -13.9854 31.25 -31.25 31.25
c-17.2666 0 -31.25 -13.9854 -31.25 -31.25c0 -17.2666 13.9854 -31.25 31.25 -31.25zM781.25 -137.5c-86.2861 0 -156.25 69.9648 -156.25 156.25c0 86.2861 69.9648 156.25 156.25 156.25c86.2861 0 156.25 -69.9648 156.25 -156.25
c0 -86.2861 -69.9648 -156.25 -156.25 -156.25zM531.25 81.25v-62.5h-312.5h-62.5v62.5v385.416h62.5h62.5v-322.916h250v-62.5zM531.25 81.25l44.1943 44.1943l-156.249 156.25l-44.1943 -44.1943l-44.1943 -44.1943l156.249 -156.25zM531.25 81.25l44.1943 -44.1943
l-156.249 -156.25l-44.1943 44.1943l-44.1943 44.1943l156.249 156.25zM531.25 81.25l44.1943 44.1943l-156.249 156.25l-44.1943 -44.1943l-44.1943 -44.1943l156.249 -156.25zM531.25 81.25l44.1943 -44.1943l-156.249 -156.25l-44.1943 44.1943l-44.1943 44.1943
l156.249 156.25zM531.25 81.25l-44.1943 44.1943l-156.249 -156.25l44.1943 -44.1943l44.1943 -44.1943l156.249 156.25zM468.75 518.75v-62.5h250v-343.75h62.5h62.5v406.25v62.5h-62.5h-312.5v-62.5zM468.75 518.75l44.1943 44.1943l156.249 -156.25l-44.1943 -44.1943
l-44.1943 -44.1943l-156.249 156.25zM468.75 518.75l44.1943 -44.1943l156.249 156.25l-44.1943 44.1943l-44.1943 44.1943l-156.249 -156.25zM468.75 518.75l-44.1943 -44.1943l156.249 -156.25l44.1943 44.1943l44.1943 44.1943l-156.249 156.25zM468.75 518.75
l-44.1943 44.1943l156.249 156.25l44.1943 -44.1943l44.1943 -44.1943l-156.249 -156.25zM468.75 518.75l-44.1943 44.1943l156.249 156.25l44.1943 -44.1943l44.1943 -44.1943l-156.249 -156.25z" />
  </g>

</svg>
