<?xml version="1.0" standalone="no"?>
<!DOCTYPE svg PUBLIC "-//W3C//DTD SVG 1.1//EN" "http://www.w3.org/Graphics/SVG/1.1/DTD/svg11.dtd" >
<svg xmlns="http://www.w3.org/2000/svg" xmlns:xlink="http://www.w3.org/1999/xlink" version="1.1" viewBox="-10 0 1010 1000">
  <g transform="matrix(1 0 0 -1 0 800)">
   <path fill="currentColor"
d="M500 -12.5c17.2676 0 31.25 13.9844 31.25 31.25c0 17.2676 -13.9834 31.25 -31.25 31.25c-17.2676 0 -31.25 -13.9844 -31.25 -31.25c0 -17.2676 13.9834 -31.25 31.25 -31.25zM500 -137.5c-86.2881 0 -156.25 69.9658 -156.25 156.25
c0 86.2852 69.9629 156.25 156.25 156.25c86.2881 0 156.25 -69.9658 156.25 -156.25c0 -86.2852 -69.9629 -156.25 -156.25 -156.25zM218.75 550c-17.2676 0 -31.25 13.9814 -31.25 31.25c0 17.2676 13.9814 31.25 31.25 31.25c17.2676 0 31.25 -13.9814 31.25 -31.25
c0 -17.2676 -13.9814 -31.25 -31.25 -31.25zM218.75 425c86.2861 0 156.25 69.9629 156.25 156.25c0 86.2861 -69.9629 156.25 -156.25 156.25c-86.2861 0 -156.25 -69.9629 -156.25 -156.25c0 -86.2861 69.9629 -156.25 156.25 -156.25zM781.25 550
c-17.2656 0 -31.25 13.9824 -31.25 31.25c0 17.2666 13.9824 31.25 31.25 31.25c17.2656 0 31.25 -13.9824 31.25 -31.25c0 -17.2666 -13.9824 -31.25 -31.25 -31.25zM781.25 425c86.2842 0 156.25 69.9619 156.25 156.25c0 86.2871 -69.9648 156.25 -156.25 156.25
c-86.2842 0 -156.25 -69.9619 -156.25 -156.25c0 -86.2871 69.9648 -156.25 156.25 -156.25zM218.75 487.5h62.5v-125h437.5v125h62.5h62.5v-187.5v-62.5h-62.5h-562.5h-62.5v62.5v187.5h62.5zM500 300h-62.5v-187.5h62.5h62.5v187.5h-62.5zM500 300h62.5v-187.5h-62.5
h-62.5v187.5h62.5z" />
  </g>

</svg>
