<?xml version="1.0" standalone="no"?>
<!DOCTYPE svg PUBLIC "-//W3C//DTD SVG 1.1//EN" "http://www.w3.org/Graphics/SVG/1.1/DTD/svg11.dtd" >
<svg xmlns="http://www.w3.org/2000/svg" xmlns:xlink="http://www.w3.org/1999/xlink" version="1.1" viewBox="-10 0 1010 1000">
  <g transform="matrix(1 0 0 -1 0 800)">
   <path fill="currentColor"
d="M312.5 -75v62.5h375v-62.5v-62.5h-375v62.5zM500 175h62.5v-250h-62.5h-62.5v250h62.5zM500 237.5h0.000976562c-122.178 0 -184.43 48.0273 -187.391 119.357l51.1279 255.643h272.524l51.1279 -255.643c-2.94238 -70.8896 -64.8945 -119.357 -187.391 -119.357z
M500 112.5c-151.253 0 -312.5 74.375 -312.5 250v6.18848l1.21387 6.06836l62.5 312.5l10.0488 50.2432h51.2373h375h51.2373l10.0488 -50.2432l62.5 -312.5l1.21387 -6.06836v-6.18848c0 -175.625 -161.249 -250 -312.5 -250zM500 175h-62.5v-250h62.5h62.5v250h-62.5z
M500 237.5c122.496 0 184.448 48.4678 187.391 119.357l-51.1279 255.643h-272.524l-51.1279 -255.643c2.96094 -71.3301 65.2129 -119.357 187.391 -119.357h-0.000976562zM500 112.5c151.251 0 312.5 74.375 312.5 250v6.18848l-1.21387 6.06836l-62.5 312.5
l-10.0488 50.2432h-51.2373h-375h-51.2373l-10.0488 -50.2432l-62.5 -312.5l-1.21387 -6.06836v-6.18848c0 -175.625 161.247 -250 312.5 -250zM500 237.5h-0.000976562c122.496 0 184.448 48.4678 187.391 119.357l-51.1279 255.643h-272.524l-51.1279 -255.643
c2.96094 -71.3301 65.2129 -119.357 187.391 -119.357zM500 112.5c-151.253 0 -312.5 74.375 -312.5 250v6.18848l1.21387 6.06836l62.5 312.5l10.0488 50.2432h51.2373h375h51.2373l10.0488 -50.2432l62.5 -312.5l1.21387 -6.06836v-6.18848
c0 -175.625 -161.249 -250 -312.5 -250z" />
  </g>

</svg>
