<?xml version="1.0" standalone="no"?>
<!DOCTYPE svg PUBLIC "-//W3C//DTD SVG 1.1//EN" "http://www.w3.org/Graphics/SVG/1.1/DTD/svg11.dtd" >
<svg xmlns="http://www.w3.org/2000/svg" xmlns:xlink="http://www.w3.org/1999/xlink" version="1.1" viewBox="-10 0 1010 1000">
  <g transform="matrix(1 0 0 -1 0 800)">
   <path fill="currentColor"
d="M500 362.5c34.5264 0 62.5 27.9736 62.5 62.5s-27.9736 62.5 -62.5 62.5s-62.5 -27.9736 -62.5 -62.5s27.9736 -62.5 62.5 -62.5zM500 237.5c-103.544 0 -187.5 83.9561 -187.5 187.5s83.9561 187.5 187.5 187.5s187.5 -83.9561 187.5 -187.5
s-83.9561 -187.5 -187.5 -187.5zM312.47 175l37.542 49.9688c41.8428 -31.4375 93.5225 -49.9688 149.988 -49.9688c138.079 0 250 111.92 250 250c0 81.8643 -39.1592 154.322 -100.037 200.051l37.5371 49.9727l37.5371 49.9717
c90.9229 -68.2979 149.963 -177.384 149.963 -299.995c0 -207.098 -167.902 -375 -375 -375c-84.2637 0 -162.445 27.9795 -225.072 75.0312zM500 50h-62.5v-125h62.5h62.5v125h-62.5zM312.5 -75v62.5h375v-62.5v-62.5h-375v62.5z" />
  </g>

</svg>
