<?xml version="1.0" standalone="no"?>
<!DOCTYPE svg PUBLIC "-//W3C//DTD SVG 1.1//EN" "http://www.w3.org/Graphics/SVG/1.1/DTD/svg11.dtd" >
<svg xmlns="http://www.w3.org/2000/svg" xmlns:xlink="http://www.w3.org/1999/xlink" version="1.1" viewBox="-10 0 1010 1000">
  <g transform="matrix(1 0 0 -1 0 800)">
   <path fill="currentColor"
d="M520.833 320.833h-62.5h-62.5v41.667c0 33.1543 13.1689 64.9443 36.6133 88.3896c23.4414 23.4404 55.2344 36.6104 88.3867 36.6104s64.9463 -13.1689 88.3887 -36.6113c23.4434 -23.4434 36.6113 -55.2393 36.6113 -88.3887v-62.5h-62.5h-62.5v20.833z
M209.275 277.677c0.114258 0.0683594 0.192383 0.116211 -0.0449219 -0.0263672c-0.268555 -0.161133 -0.134766 -0.0810547 0 0c77.8203 -138.33 124.721 -219.725 134.828 -235.242c2.67383 -4.11719 5.34961 -8.20703 7.99707 -12.2412
c17.0273 -25.8506 40.3223 -47.1865 67.6445 -61.9072c27.3359 -14.7266 57.9014 -22.4326 88.957 -22.4287c0 -0.609375 0.00878906 -118.363 0.00878906 -124.733l0.00878906 -0.265625l0.0957031 125h74.5615c49.7295 0 97.418 19.7529 132.585 54.9199
c35.1602 35.1592 54.9131 82.8486 54.9131 132.58v166.668h-125v270.833c0 33.165 13.165 64.9336 36.6201 88.3965c23.4365 23.4277 55.2246 36.6035 88.3799 36.6035c33.1465 0 64.9541 -13.1738 88.3838 -36.6074c23.4531 -23.4473 36.6162 -55.249 36.6162 -88.3926
v-437.501c0 -82.8799 -32.9209 -162.366 -91.5244 -220.969c-58.6084 -58.6074 -138.094 -91.5312 -220.974 -91.5312h-74.666h-8.1543h-0.512695c0 0.00878906 0.000976562 0.0185547 0.000976562 0.0273438c-50.1035 2.67188 -98.6123 15.2803 -139.587 37.3564
c-45.5771 24.5537 -84.2861 59.9805 -112.805 103.279c-2.81641 4.29102 -5.58691 8.52734 -8.33496 12.7588c-15.8916 24.3955 -60.2314 102.093 -138.996 242.101c-15.9619 28.373 -20.2256 61.8496 -11.8838 93.3213c8.3418 31.4658 28.6396 58.4443 56.5322 75.167
c26.8154 16.0889 58.2451 22.7588 89.2793 18.9473c31.0547 -3.8125 59.8955 -17.8613 82.0713 -40.0127l61.25 -61.25l-88.3887 -88.3887l-61.2373 61.2383c-2.38672 2.38281 -5.55176 3.93066 -8.92676 4.34473c-3.37305 0.414062 -6.78418 -0.307617 -9.69922 -2.04395z
M209.275 277.677c-0.0146484 -0.00878906 -0.0302734 -0.0175781 -0.0449219 -0.0263672v0c0.0146484 0.00878906 0.0292969 0.0175781 0.0449219 0.0263672zM645.831 361.875v-61.875h125v62.5c0 33.1436 -13.1631 64.9453 -36.6162 88.3936
c-23.4297 23.4326 -55.2373 36.6064 -88.3838 36.6064c-17.1846 0 -34.0215 -3.54395 -49.499 -10.2188c-14.373 -6.19922 -27.6045 -15.1104 -38.8857 -26.3916c-23.4443 -23.4453 -36.6133 -55.2354 -36.6133 -88.3896h71.25zM333.333 258.333h62.5v41.667h62.5h62.5
v312.5c0 33.1494 -13.168 64.9453 -36.6113 88.3887c-23.4424 23.4424 -55.2363 36.6113 -88.3887 36.6113s-64.9453 -13.1699 -88.3867 -36.6104c-23.4443 -23.4453 -36.6133 -55.2354 -36.6133 -88.3896v-354.167h62.5z" />
  </g>

</svg>
