<?xml version="1.0" standalone="no"?>
<!DOCTYPE svg PUBLIC "-//W3C//DTD SVG 1.1//EN" "http://www.w3.org/Graphics/SVG/1.1/DTD/svg11.dtd" >
<svg xmlns="http://www.w3.org/2000/svg" xmlns:xlink="http://www.w3.org/1999/xlink" version="1.1" viewBox="-10 0 1010 1000">
  <g transform="matrix(1 0 0 -1 0 800)">
   <path fill="currentColor"
d="M250 18.75v93.75c0 14.6309 -5.96387 22.5244 -29.6758 22.5508c-25.7031 0.0292969 -32.8242 -10.9287 -32.8242 -22.5508v-93.75c0 -11.6191 7.04004 -22.4883 32.6348 -22.5508c23.8408 -0.0576172 29.8652 7.91895 29.8652 22.5508zM375 18.75
c0 -100.184 -86.0879 -147.717 -155.168 -147.55c-68.9707 0.166992 -157.332 47.252 -157.332 147.55v93.75c0 100.621 88.835 147.629 157.965 147.551c68.9287 -0.0771484 154.535 -47.7051 154.535 -147.551v-93.75zM812.5 18.75v93.75
c0 14.6309 -5.96387 22.5244 -29.6758 22.5508c-25.7031 0.0292969 -32.8242 -10.9287 -32.8242 -22.5508v-93.75c0 -11.6191 7.04004 -22.4883 32.6348 -22.5508c23.8408 -0.0576172 29.8652 7.91895 29.8652 22.5508zM937.5 18.75
c0 -100.184 -86.0879 -147.717 -155.168 -147.55c-68.9707 0.166992 -157.332 47.252 -157.332 147.55v93.75c0 100.621 88.835 147.629 157.965 147.551c68.9287 -0.0771484 154.535 -47.7051 154.535 -147.551v-93.75zM125 112.5h-62.5v187.5
c0 208.583 148.091 437.5 437.5 437.5c289.408 0 437.5 -228.917 437.5 -437.5v-187.5h-62.5h-62.5v187.5c0 154.528 -101.908 312.5 -312.5 312.5c-210.591 0 -312.5 -157.972 -312.5 -312.5v-187.5h-62.5z" />
  </g>

</svg>
