<?xml version="1.0" standalone="no"?>
<!DOCTYPE svg PUBLIC "-//W3C//DTD SVG 1.1//EN" "http://www.w3.org/Graphics/SVG/1.1/DTD/svg11.dtd" >
<svg xmlns="http://www.w3.org/2000/svg" xmlns:xlink="http://www.w3.org/1999/xlink" version="1.1" viewBox="-10 0 1010 1000">
  <g transform="matrix(1 0 0 -1 0 800)">
   <path fill="currentColor"
d="M506.676 20.0645l258.326 258.326c76.7852 106.078 40.0332 218.841 -27.0264 271.759c-53.0039 41.8262 -119.752 49.1514 -184.294 -32.8545c-129.647 -277.551 -83.252 -429.269 -47.0059 -497.229v-0.000976562zM544.194 -119.194l-40.6943 -40.6943
l-43.4346 36.8066c-16.7148 14.165 -240.494 227.406 -16.542 699.854l2.69824 5.69043l3.77832 5.03809c104.095 138.793 256.823 142.403 359.977 64.96c120.707 -90.624 177.261 -286.145 52.5234 -452.46l-2.66504 -3.55371l-3.14062 -3.14062z" />
  </g>

</svg>
