<?xml version="1.0" standalone="no"?>
<!DOCTYPE svg PUBLIC "-//W3C//DTD SVG 1.1//EN" "http://www.w3.org/Graphics/SVG/1.1/DTD/svg11.dtd" >
<svg xmlns="http://www.w3.org/2000/svg" xmlns:xlink="http://www.w3.org/1999/xlink" version="1.1" viewBox="-10 0 1010 1000">
  <g transform="matrix(1 0 0 -1 0 800)">
   <path fill="currentColor"
d="M125 383.333l55.9014 27.9512l24.3926 -48.7842h211.373v-62.5v-62.5h-250h-38.627l-17.2744 34.5488l-41.667 83.333zM500 362.5c-5.52344 0 -10.8271 -2.19727 -14.7314 -6.10156c-3.90723 -3.90723 -6.10254 -9.20605 -6.10254 -14.7314v-125
c0 -11.2266 9.61621 -20.8359 20.834 -20.8359h291.669c5.51855 0 10.8145 2.19043 14.7305 6.10742c3.9043 3.90332 6.10059 9.20508 6.10059 14.7285c0 85.5156 -79.0615 145.833 -229.167 145.833h-83.333zM500 487.5h83.333
c172.392 0 354.167 -80.5166 354.167 -270.833c0 -38.6797 -15.3652 -75.7705 -42.7119 -103.117c-27.3457 -27.3467 -64.4385 -42.7188 -103.119 -42.7188h-291.669c-80.4492 0 -145.834 65.3906 -145.834 145.836v125c0 38.6777 15.3652 75.7705 42.7139 103.12
c27.3516 27.3486 64.4404 42.7129 103.12 42.7129zM541.666 425h62.5v125h-62.5h-62.5v-125h62.5zM208.334 550v62.5h624.997v-62.5v-62.5h-624.997v62.5zM625 420.832h62.5v-99.999h166.669v-62.5v-62.5h-229.169h-62.5v62.5v162.499h62.5zM625 8.33105h62.5v125h-62.5
h-62.5v-125h62.5zM791.669 8.33105v-62.5h-333.335v62.5v62.5h333.335v-62.5z" />
  </g>

</svg>
