<?xml version="1.0" standalone="no"?>
<!DOCTYPE svg PUBLIC "-//W3C//DTD SVG 1.1//EN" "http://www.w3.org/Graphics/SVG/1.1/DTD/svg11.dtd" >
<svg xmlns="http://www.w3.org/2000/svg" xmlns:xlink="http://www.w3.org/1999/xlink" version="1.1" viewBox="-10 0 1010 1000">
  <g transform="matrix(1 0 0 -1 0 800)">
   <path fill="currentColor"
d="M500 -12.5c172.598 0 312.5 139.902 312.5 312.5s-139.902 312.5 -312.5 312.5s-312.5 -139.902 -312.5 -312.5s139.902 -312.5 312.5 -312.5zM500 -137.5c-241.615 0 -437.5 195.885 -437.5 437.5s195.885 437.5 437.5 437.5s437.5 -195.885 437.5 -437.5
s-195.885 -437.5 -437.5 -437.5zM500 81.25h-62.5v12.9375h62.5h62.5v-12.9375h-62.5zM510.608 238.104l-73.0078 -4.14453c-1.53613 27.0537 5.76367 53.8779 20.793 76.4189c11.6143 17.4209 27.3584 31.5605 45.709 41.2363
c4.78027 2.52051 12.4053 5.75 15.7578 6.96582c6.81934 2.74219 12.1299 6.45215 16.8574 11.5938c4.80273 5.22559 8.31836 11.4775 10.2891 18.3066c1.9668 6.8125 2.3252 13.9902 1.04688 20.9678c-1.27832 6.97852 -4.15918 13.5635 -8.41602 19.2402
c-4.25684 5.67578 -9.77246 10.2852 -16.1113 13.4648c-6.34473 3.18359 -13.332 4.84766 -20.4277 4.86719c-7.02148 0.0195312 -14.2773 -1.74023 -20.2705 -4.66309c-3.53906 -2.02441 -24.3213 -20.6338 -26.7871 -23.8838l-99.582 75.5527
c17.4453 22.9941 40.2324 45.1748 70.748 60.2754c23.7031 11.7285 49.7969 17.791 76.2373 17.7188c26.4395 -0.0722656 52.5068 -6.28516 76.1367 -18.1396c23.6357 -11.8604 44.1924 -29.04 60.0557 -50.1914c15.8662 -21.1533 26.6035 -45.7021 31.3691 -71.707
c4.7666 -26.0088 3.43066 -52.7686 -3.9043 -78.1738c-7.32715 -25.3916 -20.4648 -48.7617 -38.3564 -68.2266c-18.1592 -19.7578 -39.1494 -34.166 -65.5459 -44.2598c0 0 -0.301758 -0.0947266 -0.798828 -0.280273z" />
  </g>

</svg>
