<?xml version="1.0" standalone="no"?>
<!DOCTYPE svg PUBLIC "-//W3C//DTD SVG 1.1//EN" "http://www.w3.org/Graphics/SVG/1.1/DTD/svg11.dtd" >
<svg xmlns="http://www.w3.org/2000/svg" xmlns:xlink="http://www.w3.org/1999/xlink" version="1.1" viewBox="-10 0 1010 1000">
  <g transform="matrix(1 0 0 -1 0 800)">
   <path fill="currentColor"
d="M501.164 601.666c-80.5068 -46.8193 -223.688 -140.334 -282.413 -179.022v-301.091l282.366 -127.898l280.133 127.781v301.369c-59.8945 39.7959 -201.682 133.063 -280.086 178.861zM471.94 728.539l29.2705 15.5137l29.2705 -15.5166
c97.1943 -51.5244 346.896 -219.585 348.077 -220.377l27.6904 -18.5684v-33.3408v-375v-40.1855l-36.5615 -16.6777l-342.542 -156.25l-25.8477 -11.79l-25.8789 11.7217l-344.956 156.25l-36.7129 16.6289v40.3027v375v33.5049l27.9043 18.5469
c1.13867 0.756836 252.649 168.491 350.286 220.237z" />
  </g>

</svg>
