<?xml version="1.0" standalone="no"?>
<!DOCTYPE svg PUBLIC "-//W3C//DTD SVG 1.1//EN" "http://www.w3.org/Graphics/SVG/1.1/DTD/svg11.dtd" >
<svg xmlns="http://www.w3.org/2000/svg" xmlns:xlink="http://www.w3.org/1999/xlink" version="1.1" viewBox="-10 0 1010 1000">
  <g transform="matrix(1 0 0 -1 0 800)">
   <path fill="currentColor"
d="M500 549.999v62.5c355.961 0 433.687 -289.576 435.771 -297.886l3.6709 -14.6436l-3.83301 -15.2295c-1.29785 -5.15723 -13.3115 -51.4551 -50.5898 -107.384l-52.0059 34.665l-52.0068 34.6641c14.0986 21.1514 22.7119 39.7354 28.0791 53.3145
c-19.459 49.4287 -88.1865 187.499 -309.086 187.499v62.5zM437.5 299.999l62.5 -55.625v-69.375c-36.3184 0 -69.3389 15.708 -92.0664 40.4492c-20.3516 22.1553 -32.9336 52.0986 -32.9336 84.5508h62.5zM687.5 87.7002l26.1152 -56.7822
c-57.8281 -26.5957 -128.824 -43.418 -213.615 -43.418c-355.49 0 -433.636 289.372 -435.623 297.298l-3.81348 15.21l3.6709 14.623c1.89258 7.54004 36.7686 148.357 185.453 235.351l31.5625 -53.9453l31.5625 -53.9453
c-75.3398 -44.0801 -109.486 -110.661 -121.897 -142.092c19.6914 -50.0186 88.502 -187.499 309.086 -187.499c68.4102 0 120.575 13.2139 161.385 31.9824zM125.001 675l44.1943 44.1943l749.999 -750l-44.1943 -44.1943l-44.1943 -44.1943l-749.999 750zM437.5 299.999
h-62.5c0 -32.4521 12.582 -62.3955 32.9336 -84.5508c22.7275 -24.7412 55.748 -40.4492 92.0664 -40.4492v69.375zM687.5 87.7002l-26.1143 56.7822c-40.8096 -18.7686 -92.9746 -31.9824 -161.385 -31.9824c-220.584 0 -289.395 137.48 -309.086 187.499
c12.4111 31.4307 46.5576 98.0117 121.897 142.092l-31.5625 53.9453l-31.5625 53.9453c-148.685 -86.9932 -183.561 -227.811 -185.453 -235.351l-3.6709 -14.623l3.81348 -15.21c1.9873 -7.92578 80.1328 -297.298 435.623 -297.298
c84.791 0 155.787 16.8223 213.615 43.418zM125.001 675l-44.1943 -44.1943l749.999 -750l44.1943 44.1943l44.1943 44.1943l-749.999 750zM687.5 87.7002l26.1143 -56.7822c-57.8281 -26.5957 -128.824 -43.418 -213.615 -43.418
c-355.49 0 -433.636 289.372 -435.623 297.298l-3.81348 15.21l3.6709 14.623c1.89258 7.54004 36.7686 148.357 185.453 235.35l31.5625 -53.9453l31.5625 -53.9453c-75.3389 -44.0801 -109.485 -110.661 -121.897 -142.091
c19.6904 -50.0186 88.502 -187.499 309.086 -187.499c68.4102 0 120.576 13.2139 161.385 31.9824zM125.001 675l44.1943 44.1943l749.999 -750l-44.1943 -44.1943l-44.1943 -44.1943l-749.999 750zM125.001 675l-44.1943 -44.1943l749.999 -750l44.1943 44.1943
l44.1943 44.1943l-749.999 750z" />
  </g>

</svg>
