<?xml version="1.0" standalone="no"?>
<!DOCTYPE svg PUBLIC "-//W3C//DTD SVG 1.1//EN" "http://www.w3.org/Graphics/SVG/1.1/DTD/svg11.dtd" >
<svg xmlns="http://www.w3.org/2000/svg" xmlns:xlink="http://www.w3.org/1999/xlink" version="1.1" viewBox="-10 0 1010 1000">
  <g transform="matrix(1 0 0 -1 0 800)">
   <path fill="currentColor"
d="M500 487.5c-34.5264 0 -62.5 27.9736 -62.5 62.5s27.9736 62.5 62.5 62.5s62.5 -27.9736 62.5 -62.5s-27.9736 -62.5 -62.5 -62.5zM500 362.5c103.544 0 187.5 83.9561 187.5 187.5s-83.9561 187.5 -187.5 187.5s-187.5 -83.9561 -187.5 -187.5
s83.9561 -187.5 187.5 -187.5zM250 -12.5c34.5273 0 62.5 27.9727 62.5 62.5s-27.9727 62.5 -62.5 62.5s-62.5 -27.9727 -62.5 -62.5s27.9727 -62.5 62.5 -62.5zM250 -137.5c-103.543 0 -187.5 83.9541 -187.5 187.5s83.957 187.5 187.5 187.5s187.5 -83.9541 187.5 -187.5
s-83.957 -187.5 -187.5 -187.5zM750 -12.5c34.5283 0 62.5 27.9717 62.5 62.5s-27.9717 62.5 -62.5 62.5s-62.5 -27.9717 -62.5 -62.5s27.9717 -62.5 62.5 -62.5zM750 -137.5c-103.545 0 -187.5 83.9551 -187.5 187.5s83.9551 187.5 187.5 187.5
s187.5 -83.9551 187.5 -187.5s-83.9551 -187.5 -187.5 -187.5zM375 175l34.6689 -52.0029l90.3301 60.2207l90.332 -60.2207l34.6689 52.0029l34.6689 52.0029l-125.002 83.334l-34.6689 23.1113l-34.668 -23.1123l-124.999 -83.333zM500 425h62.5v-166.667h-62.5h-62.5
v166.667h62.5z" />
  </g>

</svg>
