<?xml version="1.0" standalone="no"?>
<!DOCTYPE svg PUBLIC "-//W3C//DTD SVG 1.1//EN" "http://www.w3.org/Graphics/SVG/1.1/DTD/svg11.dtd" >
<svg xmlns="http://www.w3.org/2000/svg" xmlns:xlink="http://www.w3.org/1999/xlink" version="1.1" viewBox="-10 0 1010 1000">
  <g transform="matrix(1 0 0 -1 0 800)">
   <path fill="currentColor"
d="M500 487.5h62.5v-161.611l106.694 -106.693l-44.1943 -44.1943l-44.1943 -44.1943l-125 125l-18.3057 18.3057v25.8887v187.5h62.5v-0.000976562zM127.083 175h62.5v-187.5h-62.5h-62.5v187.5h62.5zM127.083 175v-62.5h185.417v62.5v62.5h-185.417v-62.5zM127.083 175
l-44.5635 -43.8223c114.443 -116.383 224.265 -271.383 418.354 -268.673c234.644 3.27832 438.293 199.21 436.625 437.931c-1.58301 226.559 -184.827 439.954 -438.212 437.06c-148.183 -1.69141 -284.948 -93.7549 -364.054 -214.408l52.2676 -34.2686l52.2676 -34.2695
c60.1914 91.8047 164.738 156.855 260.946 157.954c177.477 2.02832 310.646 -149.738 311.788 -312.939c1.15625 -165.705 -145.431 -309.723 -313.375 -312.069c-118.297 -1.65137 -196.09 97.71 -327.479 231.327zM127.083 175v-62.5h185.417v62.5v62.5h-185.417v-62.5z
M127.083 175l44.5645 43.8213c131.39 -133.617 209.183 -232.979 327.479 -231.327c167.944 2.34668 314.531 146.364 313.375 312.069c-1.1416 163.201 -134.312 314.968 -311.788 312.939c-96.208 -1.09863 -200.755 -66.1494 -260.946 -157.954l-52.2676 34.2695
l-52.2676 34.2686c79.1055 120.653 215.871 212.717 364.054 214.408c253.385 2.89453 436.629 -210.501 438.212 -437.06c1.66797 -238.721 -201.981 -434.652 -436.625 -437.931c-194.089 -2.70996 -303.91 152.29 -418.354 268.673zM127.083 175l44.5645 43.8223
c131.39 -133.617 209.183 -232.979 327.479 -231.327c167.944 2.34668 314.532 146.364 313.375 312.069c-1.14258 163.201 -134.311 314.968 -311.788 312.94c-96.208 -1.09961 -200.755 -66.1494 -260.946 -157.954l-52.2676 34.2686l-52.2676 34.2686
c79.1064 120.654 215.871 212.717 364.054 214.409c253.386 2.89355 436.629 -210.501 438.212 -437.061c1.66797 -238.721 -201.981 -434.652 -436.625 -437.931c-194.089 -2.70996 -303.91 152.29 -418.354 268.673z" />
  </g>

</svg>
