<?xml version="1.0" standalone="no"?>
<!DOCTYPE svg PUBLIC "-//W3C//DTD SVG 1.1//EN" "http://www.w3.org/Graphics/SVG/1.1/DTD/svg11.dtd" >
<svg xmlns="http://www.w3.org/2000/svg" xmlns:xlink="http://www.w3.org/1999/xlink" version="1.1" viewBox="-36 0 1072 1000">
  <g transform="matrix(1 0 0 -1 0 800)">
   <path fill="currentColor"
d="M254.984 341.596h490.031l-245.016 245.017zM791.669 300h-583.336v-62.5h-234.222l525.889 525.889l525.889 -525.889h-234.22v62.5zM208.334 300h62.5v-291.669c0 -5.51855 2.2002 -10.8291 6.09668 -14.7266c3.91016 -3.90918 9.21387 -6.10449 14.7363 -6.10449
h416.664c5.53027 0 10.8242 2.19434 14.7314 6.10156c3.91504 3.91504 6.10645 9.21191 6.10645 14.7295v291.669h62.5h62.5v-291.669c0 -38.6807 -15.3711 -75.7725 -42.7197 -103.12c-27.3428 -27.3428 -64.4355 -42.7109 -103.118 -42.7109h-416.664
c-38.6807 0 -75.7695 15.3662 -103.116 42.708c-27.3584 27.3643 -42.7168 64.4434 -42.7168 103.123v291.669h62.5v0zM375 -75h62.5v250.001c0 5.52246 2.19629 10.8252 6.10254 14.7314s9.2041 6.10156 14.7305 6.10156h83.334
c5.52637 0 10.8252 -2.19629 14.7295 -6.10059c3.9082 -3.9082 6.10352 -9.20996 6.10352 -14.7324v-250.001h62.5h62.5v250.001c0 38.6787 -15.3662 75.7695 -42.7119 103.117c-27.3516 27.3525 -64.4443 42.7158 -103.121 42.7158h-83.334
c-38.6768 0 -75.7705 -15.3643 -103.121 -42.7148c-27.3467 -27.3496 -42.7119 -64.4395 -42.7119 -103.118v-250.001h62.5z" />
  </g>

</svg>
