<?xml version="1.0" standalone="no"?>
<!DOCTYPE svg PUBLIC "-//W3C//DTD SVG 1.1//EN" "http://www.w3.org/Graphics/SVG/1.1/DTD/svg11.dtd" >
<svg xmlns="http://www.w3.org/2000/svg" xmlns:xlink="http://www.w3.org/1999/xlink" version="1.1" viewBox="-10 0 1010 1000">
  <g transform="matrix(1 0 0 -1 0 800)">
   <path fill="currentColor"
d="M150 425v-62.5h700v62.5v62.5h-700v-62.5zM150 175v-62.5h700v62.5v62.5h-700v-62.5zM479.167 675l-53.0225 33.0879c-76.3887 -122.408 -116.886 -263.8 -116.886 -408.088c0 -144.287 40.4971 -285.681 116.886 -408.089l53.0225 33.0889l53.0225 33.0889
c-64 102.556 -97.9307 221.021 -97.9307 341.911c0 120.891 33.9307 239.354 97.9307 341.912zM520.833 675l53.0225 33.0879c76.3877 -122.407 116.889 -263.799 116.889 -408.088c0 -144.288 -40.501 -285.682 -116.889 -408.089l-53.0225 33.0889l-53.0225 33.0889
c64 102.557 97.9336 221.022 97.9336 341.911c0 120.89 -33.9326 239.353 -97.9336 341.912zM937.5 300c0 241.615 -195.885 437.5 -437.5 437.5s-437.5 -195.885 -437.5 -437.5s195.885 -437.5 437.5 -437.5s437.5 195.885 437.5 437.5zM812.5 300
c0 -172.598 -139.902 -312.5 -312.5 -312.5s-312.5 139.902 -312.5 312.5s139.902 312.5 312.5 312.5s312.5 -139.902 312.5 -312.5zM150 175v62.5h700v-62.5v-62.5h-700v62.5zM479.167 675l-53.0225 33.0879c-76.3887 -122.408 -116.886 -263.8 -116.886 -408.088
c0 -144.287 40.4971 -285.681 116.886 -408.089l53.0225 33.0889l53.0225 33.0889c-64 102.556 -97.9307 221.021 -97.9307 341.911c0 120.891 33.9307 239.354 97.9307 341.912zM520.833 675l-53.0225 -33.0879c64.001 -102.56 97.9336 -221.022 97.9336 -341.912
c0 -120.888 -33.9336 -239.354 -97.9336 -341.911l53.0225 -33.0889l53.0225 -33.0889c76.3877 122.407 116.889 263.801 116.889 408.089c0 144.289 -40.501 285.682 -116.889 408.088zM937.5 300c0 -241.615 -195.885 -437.5 -437.5 -437.5s-437.5 195.885 -437.5 437.5
s195.885 437.5 437.5 437.5s437.5 -195.885 437.5 -437.5zM812.5 300c0 -172.598 -139.902 -312.5 -312.5 -312.5s-312.5 139.902 -312.5 312.5s139.902 312.5 312.5 312.5s312.5 -139.902 312.5 -312.5zM479.167 675l53.0225 -33.0879
c-64 -102.559 -97.9307 -221.021 -97.9307 -341.912c0 -120.889 33.9307 -239.354 97.9307 -341.911l-53.0225 -33.0889l-53.0225 -33.0889c-76.3887 122.408 -116.886 263.802 -116.886 408.089c0 144.288 40.4971 285.681 116.886 408.088zM520.833 675l53.0225 33.0879
c76.3877 -122.407 116.889 -263.799 116.889 -408.088c0 -144.288 -40.501 -285.682 -116.889 -408.089l-53.0225 33.0889l-53.0225 33.0889c64 102.557 97.9336 221.022 97.9336 341.911c0 120.89 -33.9326 239.353 -97.9336 341.912zM937.5 300
c0 -241.615 -195.885 -437.5 -437.5 -437.5s-437.5 195.885 -437.5 437.5s195.885 437.5 437.5 437.5s437.5 -195.885 437.5 -437.5zM812.5 300c0 172.598 -139.902 312.5 -312.5 312.5s-312.5 -139.902 -312.5 -312.5s139.902 -312.5 312.5 -312.5
s312.5 139.902 312.5 312.5zM520.833 675l-53.0225 -33.0879c64.001 -102.56 97.9336 -221.022 97.9336 -341.912c0 -120.888 -33.9336 -239.354 -97.9336 -341.911l53.0225 -33.0889l53.0225 -33.0889c76.3877 122.407 116.889 263.801 116.889 408.089
c0 144.289 -40.501 285.682 -116.889 408.088zM937.5 300c0 241.615 -195.885 437.5 -437.5 437.5s-437.5 -195.885 -437.5 -437.5s195.885 -437.5 437.5 -437.5s437.5 195.885 437.5 437.5zM812.5 300c0 -172.598 -139.902 -312.5 -312.5 -312.5
s-312.5 139.902 -312.5 312.5s139.902 312.5 312.5 312.5s312.5 -139.902 312.5 -312.5zM937.5 300c0 -241.615 -195.885 -437.5 -437.5 -437.5s-437.5 195.885 -437.5 437.5s195.885 437.5 437.5 437.5s437.5 -195.885 437.5 -437.5zM812.5 300
c0 172.598 -139.902 312.5 -312.5 312.5s-312.5 -139.902 -312.5 -312.5s139.902 -312.5 312.5 -312.5s312.5 139.902 312.5 312.5z" />
  </g>

</svg>
