<?xml version="1.0" standalone="no"?>
<!DOCTYPE svg PUBLIC "-//W3C//DTD SVG 1.1//EN" "http://www.w3.org/Graphics/SVG/1.1/DTD/svg11.dtd" >
<svg xmlns="http://www.w3.org/2000/svg" xmlns:xlink="http://www.w3.org/1999/xlink" version="1.1" viewBox="-10 0 1010 1000">
  <g transform="matrix(1 0 0 -1 0 800)">
   <path fill="currentColor"
d="M650.156 549.999h-25.1562c0 40.7451 -43.5205 78.0576 -124.816 78.126c-81.458 0.0683594 -125.184 -37.3389 -125.184 -78.125v-187.501h-62.5h-62.5v187.501c0 146.871 144.09 203.214 250.289 203.125c106.046 -0.0898438 249.711 -56.5283 249.711 -203.126h-62.5
h-12.1875h-25.1562zM687.5 549.999l27.9512 -55.9023l-375 -187.5l-27.9512 55.9023l-27.9512 55.9014l375 187.5zM687.5 549.999h62.5v-187.5h-62.5h-62.5v187.5h62.5zM312.5 362.499h62.5v-187.499h-62.5h-62.5v187.499h62.5zM687.5 362.499h-62.5v-249.999h-125v-62.5
v-62.5h187.5h62.5v62.5v312.499h-62.5zM687.5 362.499l-27.9512 55.9014l-375 -187.499l27.9512 -55.9014l27.9512 -55.9014l375 187.498zM312.5 175h62.5v-62.5h125v-62.5v-62.5h-187.5h-62.5v62.5v125h62.5zM500 50h62.5v-125h-62.5h-62.5v125h62.5zM687.5 549.999
l-27.9512 55.9014l-375 -187.5l27.9512 -55.9014l27.9512 -55.9023l375 187.5zM687.5 549.999h-62.5v-187.5h62.5h62.5v187.5h-62.5zM312.5 362.499h-62.5v-187.499h62.5h62.5v187.499h-62.5zM687.5 362.499h62.5v-312.499v-62.5h-62.5h-187.5v62.5v62.5h125v249.999h62.5z
M687.5 362.499l27.9512 -55.9023l-375 -187.498l-27.9512 55.9014l-27.9512 55.9014l375 187.499zM312.5 175h62.5v-62.5h125v-62.5v-62.5h-187.5h-62.5v62.5v125h62.5zM500 50h-62.5v-125h62.5h62.5v125h-62.5zM687.5 549.999h62.5v-187.5h-62.5h-62.5v187.5h62.5z
M312.5 362.499h62.5v-187.499h-62.5h-62.5v187.499h62.5zM687.5 362.499h-62.5v-249.999h-125v-62.5v-62.5h187.5h62.5v62.5v312.499h-62.5zM687.5 362.499l-27.9512 55.9014l-375 -187.499l27.9512 -55.9014l27.9512 -55.9014l375 187.498zM312.5 175h-62.5v-125v-62.5
h62.5h187.5v62.5v62.5h-125v62.5h-62.5zM500 50h62.5v-125h-62.5h-62.5v125h62.5zM312.5 362.499h-62.5v-187.499h62.5h62.5v187.499h-62.5zM687.5 362.499h62.5v-312.499v-62.5h-62.5h-187.5v62.5v62.5h125v249.999h62.5zM687.5 362.499l27.9512 -55.9023l-375 -187.498
l-27.9512 55.9014l-27.9512 55.9014l375 187.499zM312.5 175h62.5v-62.5h125v-62.5v-62.5h-187.5h-62.5v62.5v125h62.5zM500 50h-62.5v-125h62.5h62.5v125h-62.5zM687.5 362.499h-62.5v-249.999h-125v-62.5v-62.5h187.5h62.5v62.5v312.499h-62.5zM687.5 362.499
l-27.9512 55.9014l-375 -187.499l27.9512 -55.9014l27.9512 -55.9014l375 187.498zM312.5 175h-62.5v-125v-62.5h62.5h187.5v62.5v62.5h-125v62.5h-62.5zM500 50h62.5v-125h-62.5h-62.5v125h62.5zM687.5 362.499l27.9512 -55.9023l-375 -187.498l-27.9512 55.9014
l-27.9512 55.9014l375 187.499zM312.5 175h62.5v-62.5h125v-62.5v-62.5h-187.5h-62.5v62.5v125h62.5zM500 50h-62.5v-125h62.5h62.5v125h-62.5zM312.5 175h-62.5v-125v-62.5h62.5h187.5v62.5v62.5h-125v62.5h-62.5zM500 50h62.5v-125h-62.5h-62.5v125h62.5zM500 50h-62.5
v-125h62.5h62.5v125h-62.5z" />
  </g>

</svg>
