<?xml version="1.0" standalone="no"?>
<!DOCTYPE svg PUBLIC "-//W3C//DTD SVG 1.1//EN" "http://www.w3.org/Graphics/SVG/1.1/DTD/svg11.dtd" >
<svg xmlns="http://www.w3.org/2000/svg" xmlns:xlink="http://www.w3.org/1999/xlink" version="1.1" viewBox="-10 0 1010 1000">
  <g transform="matrix(1 0 0 -1 0 800)">
   <path fill="currentColor"
d="M420.408 300c-71.4395 85.4619 -107.193 93.75 -139.158 93.75c-36.2158 0 -93.7852 -33.6094 -93.7852 -93.7266c0.0185547 -50.8906 61.4688 -93.7734 93.7852 -93.7734c31.9219 0 68.2744 8.95312 139.158 93.75zM550 337.5l28.125 -37.5l-28.125 -37.5
c-97.4229 -129.897 -178.95 -181.25 -268.75 -181.25c-92.6836 0 -218.733 82.1064 -218.785 218.738c0 147.225 130.001 218.762 218.785 218.762c89.8076 0 171.324 -51.3486 268.75 -181.25zM449.19 336.396l-0.000976562 -0.000976562
c94.3652 131.732 180.465 182.354 269.561 182.354c79.7246 0 218.786 -48.7891 218.786 -218.75c0 -169.952 -139.062 -218.75 -218.786 -218.75c-89.8008 0 -171.327 51.3535 -268.75 181.25l-27.4883 36.6523zM579.013 300.694
c71.334 -85.5234 107.73 -94.4443 139.737 -94.4443c45.2764 0 93.7871 13.7031 93.7871 93.75c0 80.04 -48.5117 93.75 -93.7871 93.75c-32.6816 0 -70.9893 -8.625 -139.737 -93.0557zM449.19 336.396l-26.6787 -37.2451l27.4883 -36.6514
c97.4229 -129.897 178.95 -181.25 268.75 -181.25c79.7236 0 218.787 48.7969 218.787 218.75c0 169.96 -139.062 218.75 -218.787 218.75c-89.0957 0 -175.195 -50.6221 -269.56 -182.354zM579.013 300.694c68.748 84.4307 107.057 93.0557 139.737 93.0557
c45.2754 0 93.7871 -13.71 93.7871 -93.75c0 -80.0469 -48.5107 -93.75 -93.7871 -93.75c-32.0068 0 -68.4033 8.9209 -139.737 94.4443z" />
  </g>

</svg>
