<?xml version="1.0" standalone="no"?>
<!DOCTYPE svg PUBLIC "-//W3C//DTD SVG 1.1//EN" "http://www.w3.org/Graphics/SVG/1.1/DTD/svg11.dtd" >
<svg xmlns="http://www.w3.org/2000/svg" xmlns:xlink="http://www.w3.org/1999/xlink" version="1.1" viewBox="-10 0 1010 1000">
  <g transform="matrix(1 0 0 -1 0 800)">
   <path fill="currentColor"
d="M312.5 -12.5c69.0449 0 125 55.9521 125 125c0 69.0439 -55.9561 125 -125 125s-125 -55.9561 -125 -125c0 -69.0479 55.9551 -125 125 -125zM312.5 -137.5c-138.061 0 -250 111.935 -250 250c0 138.062 111.938 250 250 250s250 -111.938 250 -250
c0 -138.065 -111.939 -250 -250 -250zM437.5 300l40.6748 -47.4531l437.5 375l-40.6748 47.4531l-40.6748 47.4531l-437.5 -375zM875 487.5l-44.1943 -44.1943l-62.5 62.5l44.1943 44.1943l44.1943 44.1943l62.5 -62.5zM625 425l44.1943 44.1943l62.5 -62.5
l-44.1943 -44.1943l-44.1943 -44.1943l-62.5 62.5z" />
  </g>

</svg>
