<?xml version="1.0" standalone="no"?>
<!DOCTYPE svg PUBLIC "-//W3C//DTD SVG 1.1//EN" "http://www.w3.org/Graphics/SVG/1.1/DTD/svg11.dtd" >
<svg xmlns="http://www.w3.org/2000/svg" xmlns:xlink="http://www.w3.org/1999/xlink" version="1.1" viewBox="-10 0 1010 1000">
  <g transform="matrix(1 0 0 -1 0 800)">
   <path fill="currentColor"
d="M437.5 237.5v62.5h125v-62.5v-62.5h-125v62.5zM125.001 612.5h749.999h62.5v-62.5v-500v-62.5h-62.5h-750h-62.5v62.5l0.000976562 500v62.5h62.5zM187.501 487.5h624.999v-375h-625zM437.5 237.5v62.5h125v-62.5v-62.5h-125v62.5zM125.001 612.5h-62.5v-62.5
l-0.000976562 -500v-62.5h62.5h750h62.5v62.5v500v62.5h-62.5h-749.999zM187.501 487.5l-0.000976562 -375h625v375h-624.999zM437.5 237.5v-62.5h125v62.5v62.5h-125v-62.5zM125.001 612.5h749.999h62.5v-62.5v-500v-62.5h-62.5h-750h-62.5v62.5l0.000976562 500v62.5h62.5
zM187.501 487.5h624.999v-375h-625zM125.001 612.5h-62.5v-62.5l-0.000976562 -500v-62.5h62.5h750h62.5v62.5v500v62.5h-62.5h-749.999zM187.501 487.5l-0.000976562 -375h625v375h-624.999z" />
  </g>

</svg>
