<?xml version="1.0" standalone="no"?>
<!DOCTYPE svg PUBLIC "-//W3C//DTD SVG 1.1//EN" "http://www.w3.org/Graphics/SVG/1.1/DTD/svg11.dtd" >
<svg xmlns="http://www.w3.org/2000/svg" xmlns:xlink="http://www.w3.org/1999/xlink" version="1.1" viewBox="-10 0 1010 1000">
  <g transform="matrix(1 0 0 -1 0 800)">
   <path fill="currentColor"
d="M208.334 550h62.5v-500h-62.5h-62.5v500h62.5zM427.084 550h-31.25c0 -92.8184 -79.3389 -187.5 -187.5 -187.5v-62.5v-62.5c183.505 0 312.5 155.318 312.5 312.5h-62.5h-31.25zM427.084 50h-31.25c0 92.8184 -79.3389 187.5 -187.5 187.5v62.5v62.5
c183.505 0 312.5 -155.318 312.5 -312.5h-62.5h-31.25zM625 383.333h62.5v-333.333h-62.5h-62.5v333.333h62.5zM656.25 216.667h31.25c0 27.623 10.9766 54.123 30.5107 73.6621c19.5234 19.5225 46.0293 30.5039 73.6582 30.5039v62.5v62.5
c-60.7832 0 -119.066 -24.1377 -162.056 -67.125c-42.9658 -42.9746 -67.1133 -101.26 -67.1133 -162.041h62.5h31.25z" />
  </g>

</svg>
