<?xml version="1.0" standalone="no"?>
<!DOCTYPE svg PUBLIC "-//W3C//DTD SVG 1.1//EN" "http://www.w3.org/Graphics/SVG/1.1/DTD/svg11.dtd" >
<svg xmlns="http://www.w3.org/2000/svg" xmlns:xlink="http://www.w3.org/1999/xlink" version="1.1" viewBox="-10 0 1010 1000">
  <g transform="matrix(1 0 0 -1 0 800)">
   <path fill="currentColor"
d="M208.333 550h62.5v-500h-62.5h-62.5v500h62.5zM427.083 550h-31.25c0 -92.8184 -79.3379 -187.5 -187.5 -187.5v-62.5v-62.5c183.506 0 312.5 155.318 312.5 312.5h-62.5h-31.25zM427.083 50h-31.25c0 92.8184 -79.3379 187.5 -187.5 187.5v62.5v62.5
c183.506 0 312.5 -155.318 312.5 -312.5h-62.5h-31.25zM791.669 550l44.1924 -44.1953l-83.3369 -83.333l-44.1943 -44.1924l-44.1934 44.1943l-83.3311 83.333l44.1943 44.1934l44.1943 44.1934l39.1387 -39.1387l39.1426 39.1406zM791.669 300v-62.5h-83.3379
c-16.5742 0 -32.4678 -6.58203 -44.1934 -18.3076c-11.7197 -11.7197 -18.3047 -27.6152 -18.3047 -44.1924c0 -16.5732 6.58398 -32.4697 18.3076 -44.1943c11.7207 -11.7217 27.6172 -18.3057 44.1904 -18.3057h83.3379v-62.5v-62.5h-83.3379
c-49.7256 0 -97.418 19.7539 -132.581 54.9199c-35.1611 35.1641 -54.917 82.8525 -54.917 132.58c0 49.7285 19.7549 97.4199 54.9189 132.583c35.1592 35.1611 82.8545 54.917 132.579 54.917h83.3379v-62.5z" />
  </g>

</svg>
