<?xml version="1.0" standalone="no"?>
<!DOCTYPE svg PUBLIC "-//W3C//DTD SVG 1.1//EN" "http://www.w3.org/Graphics/SVG/1.1/DTD/svg11.dtd" >
<svg xmlns="http://www.w3.org/2000/svg" xmlns:xlink="http://www.w3.org/1999/xlink" version="1.1" viewBox="-11 0 1021 1000">
  <g transform="matrix(1 0 0 -1 0 800)">
   <path fill="currentColor"
d="M362.024 752.987l143.027 -559.211c10.1104 -39.5264 -19.75 -77.9893 -60.5498 -77.9893h-144.503l-192.188 -202.301c-38.8848 -40.9307 -107.812 -13.4121 -107.812 43.0439v738.206c0 27.917 10.5352 54.6914 29.2891 74.4316
c18.7539 19.7412 44.1895 30.8311 70.7109 30.8311h201.475c28.5537 0 53.4756 -19.3506 60.5508 -47.0117zM302 365.789l23 -78.9473h50l-100 342.104h-50l-100 -342.104h50l23.125 78.9473h103.875zM213.501 418.425l36.5 125.132l36.625 -125.132h-73.125zM480.498 800
h419.502c26.5254 0 51.9561 -11.0898 70.7129 -30.8311c18.75 -19.7402 29.2871 -46.5146 29.2871 -74.4316v-473.685c0 -27.918 -10.5371 -54.6904 -29.2871 -74.4336c-18.7568 -19.7383 -44.1875 -30.832 -70.7129 -30.832h-276.473
c-28.5537 0 -53.4766 19.3506 -60.5508 47.0127l-143.029 559.213c-10.1104 39.5283 19.75 77.9873 60.5508 77.9873zM775 628.947h-50v-52.6318h-100v-52.6309h200c-0.668945 -30.3379 -8.69336 -59.9932 -23.3066 -86.1523
c-14.6123 -26.1582 -35.3311 -47.9551 -60.1934 -63.3213c-40.5 24.3418 -66.5 58.9473 -66.5 96.8418h-50c0 -47.5 23.875 -90 62.5 -122.368c-20.3125 -6.16309 -41.3564 -9.26465 -62.5 -9.21094v-52.6318c40.4688 -0.0517578 80.4375 9.38672 117 27.6318
c42.0811 -18.6514 87.3438 -28.0547 133 -27.6318v52.6318c-26.9189 -0.0683594 -53.7129 3.7832 -79.625 11.4473c24.5254 20.8604 44.375 47.1592 58.1436 77.0215c13.7627 29.8623 21.0938 62.5537 21.4814 95.7422v52.6309h-100v52.6318z" />
  </g>

</svg>
