<?xml version="1.0" standalone="no"?>
<!DOCTYPE svg PUBLIC "-//W3C//DTD SVG 1.1//EN" "http://www.w3.org/Graphics/SVG/1.1/DTD/svg11.dtd" >
<svg xmlns="http://www.w3.org/2000/svg" xmlns:xlink="http://www.w3.org/1999/xlink" version="1.1" viewBox="-10 0 1010 1000">
  <g transform="matrix(1 0 0 -1 0 800)">
   <path fill="currentColor"
d="M312.5 487.5v125h-125v-125h125zM437.5 425v-62.5h-62.5h-250h-62.5v62.5v250v62.5h62.5h250h62.5v-62.5v-250zM812.5 487.5v125h-125v-125h125zM937.5 425v-62.5h-62.5h-250h-62.5v62.5v250v62.5h62.5h250h62.5v-62.5v-250zM812.5 -12.5v125h-125v-125h125zM937.5 -75
v-62.5h-62.5h-250h-62.5v62.5v250v62.5h62.5h250h62.5v-62.5v-250zM312.5 -12.5v125h-125v-125h125zM437.5 -75v-62.5h-62.5h-250h-62.5v62.5v250v62.5h62.5h250h62.5v-62.5v-250z" />
  </g>

</svg>
