<?xml version="1.0" standalone="no"?>
<!DOCTYPE svg PUBLIC "-//W3C//DTD SVG 1.1//EN" "http://www.w3.org/Graphics/SVG/1.1/DTD/svg11.dtd" >
<svg xmlns="http://www.w3.org/2000/svg" xmlns:xlink="http://www.w3.org/1999/xlink" version="1.1" viewBox="-10 0 1010 1000">
  <g transform="matrix(1 0 0 -1 0 800)">
   <path fill="currentColor"
d="M187.5 737.5h625c16.3379 0 32.209 -3.20215 46.6699 -9.02637c31.5879 -12.7236 56.5801 -37.7158 69.3037 -69.3037c5.82422 -14.4609 9.02637 -30.332 9.02637 -46.6699v-125c0 -16.3379 -3.20215 -32.209 -9.02637 -46.6699
c-12.7236 -31.5879 -37.7158 -56.5801 -69.3037 -69.3037c-14.4609 -5.82422 -30.332 -9.02637 -46.6699 -9.02637h-625c-16.3379 0 -32.209 3.20215 -46.6699 9.02637c-31.5879 12.7236 -56.5801 37.7158 -69.3037 69.3037
c-5.82422 14.4609 -9.02637 30.332 -9.02637 46.6699v125c0 16.3379 3.20215 32.209 9.02637 46.6699c18.4756 45.8701 63.4092 78.3301 115.974 78.3301v0zM187.5 612.486l0.0136719 -124.986l624.986 0.0136719l-0.0136719 124.986zM187.5 237.5h625
c16.3379 0 32.209 -3.20215 46.6699 -9.02637c31.5879 -12.7236 56.5801 -37.7158 69.3037 -69.3037c5.82422 -14.4609 9.02637 -30.332 9.02637 -46.6699v-125c0 -16.3379 -3.20215 -32.209 -9.02637 -46.6699c-12.7236 -31.5879 -37.7158 -56.5801 -69.3037 -69.3037
c-14.4609 -5.82422 -30.332 -9.02637 -46.6699 -9.02637h-625c-16.3379 0 -32.209 3.20215 -46.6699 9.02637c-31.5879 12.7236 -56.5801 37.7158 -69.3037 69.3037c-5.82422 14.4609 -9.02637 30.332 -9.02637 46.6699v125c0 16.3379 3.20215 32.209 9.02637 46.6699
c18.4756 45.8701 63.4092 78.3301 115.974 78.3301v0zM187.5 112.486l0.0136719 -124.986l624.986 0.0136719l-0.0136719 124.986z" />
  </g>

</svg>
