<?xml version="1.0" standalone="no"?>
<!DOCTYPE svg PUBLIC "-//W3C//DTD SVG 1.1//EN" "http://www.w3.org/Graphics/SVG/1.1/DTD/svg11.dtd" >
<svg xmlns="http://www.w3.org/2000/svg" xmlns:xlink="http://www.w3.org/1999/xlink" version="1.1" viewBox="-10 0 1010 1000">
  <g transform="matrix(1 0 0 -1 0 800)">
   <path fill="currentColor"
d="M125 -75l-62.1182 6.90234c24.4023 219.62 211.586 398.756 411.734 487.711l25.3838 -57.1133l25.3838 -57.1133c-174.853 -77.7119 -321.002 -231.909 -338.267 -387.289zM809.356 610.688c-30.2158 -300.573 -271.912 -481.562 -579.946 -497.14
c-85.959 239.053 43.1855 360.833 246.227 433.841c107.102 38.5098 229.73 57.6846 333.721 63.2979zM875 737.5c-140.995 0 -333.437 -23.0947 -496.626 -94.2734c-219.417 -95.7031 -388.205 -297.258 -248.158 -618.222l16.3643 -37.5049h40.9199
c397.27 0 750 250.729 750 687.5v62.5h-62.5z" />
  </g>

</svg>
