<?xml version="1.0" standalone="no"?>
<!DOCTYPE svg PUBLIC "-//W3C//DTD SVG 1.1//EN" "http://www.w3.org/Graphics/SVG/1.1/DTD/svg11.dtd" >
<svg xmlns="http://www.w3.org/2000/svg" xmlns:xlink="http://www.w3.org/1999/xlink" version="1.1" viewBox="-10 0 1010 1000">
  <g transform="matrix(1 0 0 -1 0 800)">
   <path fill="currentColor"
d="M250 112.5h62.5v500h463.1v62.5v62.5h-525.6h-62.5v-62.5v-562.5h62.5zM687.5 487.5h62.5v-562.5v-62.5h-62.5h-187.5v62.5v62.5h125v500h62.5zM773.092 639.463l-1.89062 -26.8076c-9.35742 0.660156 -17.2744 -1.00781 -21.2012 -2.69141v-122.464h-125v124.999
c0 24.6543 7.39062 48.9209 20.8623 68.4014c33.3135 48.1738 89.2568 59.6113 134.136 56.4443zM775.6 675l-4.39844 -62.3457c29.6992 -2.0957 41.2988 -16.5586 41.2988 -31.4053c0 -14.2363 -29.8359 -32.5791 -94.8047 -32.5205
c-13.7607 0.0126953 -23.6201 0.924805 -23.793 0.941406l-6.40234 -62.1709l-6.40234 -62.1709c1.47949 -0.152344 15.6133 -1.58008 36.4834 -1.59961c41.043 -0.0371094 219.919 2.875 219.919 157.521c0 102.892 -89.8389 151.321 -157.502 156.095zM500 -137.5h-312.5
c-34.7656 0 -66.5674 14.4111 -89.1338 37.3594c-22.0732 22.4482 -35.8662 53.6367 -35.8662 87.6348v125.006v62.5h62.5h375h62.5v-62.5v-187.5v-62.5h-62.5v0zM437.5 -12.5v62.5h-250v-62.5h250zM687.5 487.5h-62.5v-500h-125v-62.5v-62.5h187.5h62.5v62.5v562.5h-62.5z
M773.092 639.463l-1.89062 -26.8076c-9.35742 0.660156 -17.2744 -1.00781 -21.2012 -2.69141v-122.464h-125v124.999c0 24.6543 7.39062 48.9209 20.8623 68.4014c33.3135 48.1738 89.2568 59.6113 134.136 56.4443zM775.6 675l4.39844 62.3457
c67.6631 -4.77441 157.502 -53.2031 157.502 -156.095c0 -154.646 -178.876 -157.559 -219.919 -157.521c-20.8701 0.0195312 -35.0039 1.44727 -36.4834 1.59961l6.40234 62.1709l6.40234 62.1709c0.172852 -0.0166016 10.0322 -0.928711 23.793 -0.941406
c64.9688 -0.0585938 94.8047 18.2842 94.8047 32.5205c0 14.8467 -11.5996 29.3096 -41.2988 31.4053zM500 -137.5h-312.5c-34.7656 0 -66.5674 14.4111 -89.1338 37.3594c-22.0732 22.4482 -35.8662 53.6367 -35.8662 87.6348v125.006v62.5h62.5h375h62.5v-62.5v-187.5
v-62.5h-62.5v0zM437.5 -12.5h-250v62.5h250v-62.5zM773.092 639.463l6.90625 97.8818c-44.8789 3.16699 -100.822 -8.27051 -134.136 -56.4443c-13.4717 -19.4805 -20.8623 -43.7471 -20.8623 -68.4014v-124.999h125v122.464
c3.92676 1.68359 11.8438 3.35156 21.2012 2.69141zM775.6 675l4.39844 62.3447c67.6631 -4.77344 157.502 -53.2031 157.502 -156.095c0 -154.646 -178.876 -157.559 -219.919 -157.521c-20.8701 0.0195312 -35.0039 1.44727 -36.4834 1.59961l6.40234 62.1709
l6.40234 62.1709c0.172852 -0.0166016 10.0322 -0.928711 23.793 -0.941406c64.9688 -0.0585938 94.8047 18.2842 94.8047 32.5205c0 14.8467 -11.5996 29.3096 -41.2988 31.4053zM500 -137.5h62.5v62.5v187.5v62.5h-62.5h-375h-62.5v-62.5v-125.006
c0 -33.998 13.793 -65.1865 35.8662 -87.6348c22.5664 -22.9482 54.3682 -37.3594 89.1338 -37.3594h312.5v0zM437.5 -12.5v62.5h-250v-62.5h250zM775.6 675l-4.39844 -62.3447c29.6992 -2.0957 41.2988 -16.5586 41.2988 -31.4053
c0 -14.2363 -29.8359 -32.5791 -94.8047 -32.5205c-13.7607 0.0126953 -23.6201 0.924805 -23.793 0.941406l-6.40234 -62.1709l-6.40234 -62.1709c1.47949 -0.152344 15.6133 -1.58008 36.4834 -1.59961c41.043 -0.0371094 219.919 2.875 219.919 157.521
c0 102.892 -89.8389 151.32 -157.502 156.095zM500 -137.5h-312.5c-34.7656 0 -66.5674 14.4111 -89.1338 37.3594c-22.0732 22.4482 -35.8662 53.6367 -35.8662 87.6348v125.006v62.5h62.5h375h62.5v-62.5v-187.5v-62.5h-62.5v0zM437.5 -12.5h-250v62.5h250v-62.5z
M500 -137.5h62.5v62.5v187.5v62.5h-62.5h-375h-62.5v-62.5v-125.006c0 -33.998 13.793 -65.1865 35.8662 -87.6348c22.5664 -22.9482 54.3682 -37.3594 89.1338 -37.3594h312.5v0zM437.5 -12.5v62.5h-250v-62.5h250zM437.5 487.5v62.5h62.5v-62.5v-62.5h-62.5v62.5z
M437.5 300v62.5h62.5v-62.5v-62.5h-62.5v62.5z" />
  </g>

</svg>
