<?xml version="1.0" standalone="no"?>
<!DOCTYPE svg PUBLIC "-//W3C//DTD SVG 1.1//EN" "http://www.w3.org/Graphics/SVG/1.1/DTD/svg11.dtd" >
<svg xmlns="http://www.w3.org/2000/svg" xmlns:xlink="http://www.w3.org/1999/xlink" version="1.1" viewBox="-10 0 1010 1000">
  <g transform="matrix(1 0 0 -1 0 800)">
   <path fill="currentColor"
d="M500 237.5c34.5264 0 62.5 27.9736 62.5 62.5s-27.9736 62.5 -62.5 62.5s-62.5 -27.9736 -62.5 -62.5s27.9736 -62.5 62.5 -62.5zM500 112.5c-103.544 0 -187.5 83.9561 -187.5 187.5s83.9561 187.5 187.5 187.5s187.5 -83.9561 187.5 -187.5
s-83.9561 -187.5 -187.5 -187.5zM500 -12.5c172.598 0 312.5 139.902 312.5 312.5s-139.902 312.5 -312.5 312.5s-312.5 -139.902 -312.5 -312.5s139.902 -312.5 312.5 -312.5zM500 -137.5c-241.615 0 -437.5 195.885 -437.5 437.5s195.885 437.5 437.5 437.5
s437.5 -195.885 437.5 -437.5s-195.885 -437.5 -437.5 -437.5zM625 175l-44.1943 -44.1943l125 -125l44.1943 44.1943l44.1943 44.1943l-125 125zM375 175l-44.1943 44.1943l-125 -125l44.1943 -44.1943l44.1943 -44.1943l125 125zM250 550l44.1943 44.1943l125 -125
l-44.1943 -44.1943l-44.1943 -44.1943l-125 125zM750 550l-44.1943 44.1943l-125 -125l44.1943 -44.1943l44.1943 -44.1943l125 125z" />
  </g>

</svg>
