<?xml version="1.0" standalone="no"?>
<!DOCTYPE svg PUBLIC "-//W3C//DTD SVG 1.1//EN" "http://www.w3.org/Graphics/SVG/1.1/DTD/svg11.dtd" >
<svg xmlns="http://www.w3.org/2000/svg" xmlns:xlink="http://www.w3.org/1999/xlink" version="1.1" viewBox="-10 0 1010 1000">
  <g transform="matrix(1 0 0 -1 0 800)">
   <path fill="currentColor"
d="M500 675l44.1943 -44.1943l-336.671 -336.671l192.477 -256.635c7.52148 -10.0283 15.9746 -18.3691 25.1445 -25.2559c53.1504 -39.915 132.246 -31.5566 174.855 25.2559l193.281 257.709l-41.1885 43.2822l-204.924 -235.744l-49.1621 -56.5557l-46.8125 58.5156
l-125 156.25l-34.9453 43.6816l39.5557 39.5557l250 250l44.1943 -44.1943l44.1943 -44.1943l-210.443 -210.444l43.2422 -54.0527l200.838 231.046l45.0771 51.8574l47.3682 -49.7744l88.5566 -93.0566c21.1328 -22.208 32.7051 -50.6309 34.2666 -79.4014
c1.54102 -28.3906 -6.67383 -57.583 -24.8193 -81.7734l-193.279 -257.706c-85.2598 -113.679 -243.036 -130.476 -349.919 -50.208c-18.5273 13.9141 -35.4717 30.7285 -50.0811 50.208l-225 300l-32.5234 43.3652l38.3291 38.3291l375 375z" />
  </g>

</svg>
