<?xml version="1.0" standalone="no"?>
<!DOCTYPE svg PUBLIC "-//W3C//DTD SVG 1.1//EN" "http://www.w3.org/Graphics/SVG/1.1/DTD/svg11.dtd" >
<svg xmlns="http://www.w3.org/2000/svg" xmlns:xlink="http://www.w3.org/1999/xlink" version="1.1" viewBox="-10 0 1010 1000">
  <g transform="matrix(1 0 0 -1 0 800)">
   <path fill="currentColor"
d="M218.75 -12.5c17.2676 0 31.25 13.9844 31.25 31.25c0 17.2676 -13.9834 31.25 -31.25 31.25c-17.2676 0 -31.25 -13.9844 -31.25 -31.25c0 -17.2676 13.9834 -31.25 31.25 -31.25zM218.75 -137.5c-86.2881 0 -156.25 69.9658 -156.25 156.25
c0 86.2852 69.9629 156.25 156.25 156.25c86.2881 0 156.25 -69.9658 156.25 -156.25c0 -86.2852 -69.9629 -156.25 -156.25 -156.25zM781.25 550c17.2676 0 31.25 13.9834 31.25 31.25c0 17.2676 -13.9844 31.25 -31.25 31.25c-17.2676 0 -31.25 -13.9834 -31.25 -31.25
c0 -17.2676 13.9844 -31.25 31.25 -31.25zM781.25 425c-86.2852 0 -156.25 69.9629 -156.25 156.25c0 86.2881 69.9658 156.25 156.25 156.25c86.2852 0 156.25 -69.9629 156.25 -156.25c0 -86.2881 -69.9658 -156.25 -156.25 -156.25zM312.5 112.5l44.1943 -44.1943
l375 375l-44.1943 44.1943l-44.1943 44.1943l-375 -375z" />
  </g>

</svg>
