<?xml version="1.0" standalone="no"?>
<!DOCTYPE svg PUBLIC "-//W3C//DTD SVG 1.1//EN" "http://www.w3.org/Graphics/SVG/1.1/DTD/svg11.dtd" >
<svg xmlns="http://www.w3.org/2000/svg" xmlns:xlink="http://www.w3.org/1999/xlink" version="1.1" viewBox="-10 0 1010 1000">
  <g transform="matrix(1 0 0 -1 0 800)">
   <path fill="currentColor"
d="M125 550l-44.1943 44.1943l125 125l44.1943 -44.1943l44.1943 -44.1943l-125 -125zM250 675l-44.1943 -44.1943l125 -125l44.1943 44.1943l44.1943 44.1943l-125 125zM250 675h62.5v-750h-62.5h-62.5v750h62.5zM125 50l44.1943 44.1943l125 -125l-44.1943 -44.1943
l-44.1943 -44.1943l-125 125zM250 -75l-44.1943 44.1943l125 125l44.1943 -44.1943l44.1943 -44.1943l-125 -125zM250 675l44.1943 44.1943l125 -125l-44.1943 -44.1943l-44.1943 -44.1943l-125 125zM250 675h62.5v-750h-62.5h-62.5v750h62.5zM125 50l-44.1943 -44.1943
l125 -125l44.1943 44.1943l44.1943 44.1943l-125 125zM250 -75l44.1943 -44.1943l125 125l-44.1943 44.1943l-44.1943 44.1943l-125 -125zM250 675h-62.5v-750h62.5h62.5v750h-62.5zM125 50l44.1943 44.1943l125 -125l-44.1943 -44.1943l-44.1943 -44.1943l-125 125z
M250 -75l-44.1943 44.1943l125 125l44.1943 -44.1943l44.1943 -44.1943l-125 -125zM125 50l-44.1943 -44.1943l125 -125l44.1943 44.1943l44.1943 44.1943l-125 125zM250 -75l44.1943 -44.1943l125 125l-44.1943 44.1943l-44.1943 44.1943l-125 -125zM250 -75
l-44.1943 44.1943l125 125l44.1943 -44.1943l44.1943 -44.1943l-125 -125zM562.5 550v62.5h312.5v-62.5v-62.5h-312.5v62.5zM562.5 300v62.5h312.5v-62.5v-62.5h-312.5v62.5zM562.5 50v62.5h312.5v-62.5v-62.5h-312.5v62.5z" />
  </g>

</svg>
