<?xml version="1.0" standalone="no"?>
<!DOCTYPE svg PUBLIC "-//W3C//DTD SVG 1.1//EN" "http://www.w3.org/Graphics/SVG/1.1/DTD/svg11.dtd" >
<svg xmlns="http://www.w3.org/2000/svg" xmlns:xlink="http://www.w3.org/1999/xlink" version="1.1" viewBox="-10 0 1010 1000">
  <g transform="matrix(1 0 0 -1 0 800)">
   <path fill="currentColor"
d="M565.15 568.182l-2.65137 2.65234l-44.1943 44.1943l20.833 20.833c39.3486 39.3486 92.7178 61.4531 148.361 61.4531c55.6465 0 109.011 -22.1074 148.359 -61.4492c39.3555 -39.3594 61.4531 -92.7188 61.4531 -148.364
c0 -55.6445 -22.1025 -109.012 -61.4482 -148.359l-166.381 -166.377c-19.168 -19.3975 -42.4355 -35.3818 -67.9463 -46.1006c-25.541 -10.7344 -52.9873 -16.2695 -80.7051 -16.2695c-27.7188 0 -55.1572 5.5332 -80.709 16.2715
c-25.5449 10.7334 -48.7041 26.4658 -68.0996 46.2607l44.6426 43.7412l44.6436 43.7402c7.75977 -7.91992 17.0146 -14.208 27.2432 -18.5049c10.2217 -4.2959 21.1973 -6.50879 32.2793 -6.50879c11.0869 0 22.0527 2.20996 32.2852 6.51074
c10.3633 4.35352 19.2217 10.3213 27.4619 18.7314l166.895 166.892c15.9033 15.9043 24.8389 37.4766 24.8389 59.9727c0 22.4941 -8.94043 44.0742 -24.834 59.9688c-15.9141 15.9121 -37.4873 24.8457 -59.9785 24.8457c-22.4922 0 -44.0693 -8.93652 -59.9736 -24.8418
l-20.833 -20.833zM434.848 31.8203l2.65234 -2.65137l44.1982 -44.1904l-20.834 -20.8379c-39.3574 -39.3555 -92.7188 -61.4531 -148.363 -61.4531s-109.012 22.1025 -148.359 61.4482c-39.3516 39.3486 -61.4551 92.7207 -61.4551 148.364
c0 55.6455 22.1055 109.013 61.4531 148.359l166.376 166.375c19.168 19.3975 42.4385 35.3828 67.9463 46.1006c25.5488 10.7363 52.9912 16.2676 80.7051 16.2676c27.7158 0 55.1543 -5.53027 80.709 -16.2686c25.5479 -10.7354 48.7051 -26.4658 68.1016 -46.2627
l-44.6436 -43.7402l-44.6426 -43.7412c-7.76074 7.9209 -17.0176 14.209 -27.2432 18.5059c-10.2188 4.29492 -21.1924 6.50684 -32.2812 6.50684s-22.0586 -2.21094 -32.2822 -6.50781c-10.3662 -4.35547 -19.2236 -10.3213 -27.4639 -18.7314l-166.893 -166.893
c-15.9062 -15.9053 -24.8418 -37.4795 -24.8418 -59.9717c0 -22.4941 8.93848 -44.0723 24.8389 -59.9727c15.9062 -15.9043 37.4785 -24.8398 59.9746 -24.8398c22.4951 0 44.0732 8.93945 59.9678 24.834l20.834 20.8379z" />
  </g>

</svg>
