<?xml version="1.0" standalone="no"?>
<!DOCTYPE svg PUBLIC "-//W3C//DTD SVG 1.1//EN" "http://www.w3.org/Graphics/SVG/1.1/DTD/svg11.dtd" >
<svg xmlns="http://www.w3.org/2000/svg" xmlns:xlink="http://www.w3.org/1999/xlink" version="1.1" viewBox="-10 0 1010 1000">
  <g transform="matrix(1 0 0 -1 0 800)">
   <path fill="currentColor"
d="M701.456 258.333h6.875h62.5c0 -93.9287 -37.3096 -184.012 -103.73 -250.434c-66.4199 -66.4219 -156.506 -103.73 -250.435 -103.73h-62.5v62.5v624.998h62.5h62.5v-553.812c37.8369 10.7812 71.6211 30.5078 99.5459 58.4326
c42.9785 42.9795 67.1191 101.266 67.1191 162.046h55.625v-0.000976562zM250 175l-27.9512 55.9014l333.333 166.667l27.9512 -55.9014l27.9512 -55.9014l-333.333 -166.667zM583.333 508.333l27.9512 -55.9014l-333.333 -166.666l-27.9512 55.9014l-27.9512 55.9014
l333.333 166.666z" />
  </g>

</svg>
