<?xml version="1.0" standalone="no"?>
<!DOCTYPE svg PUBLIC "-//W3C//DTD SVG 1.1//EN" "http://www.w3.org/Graphics/SVG/1.1/DTD/svg11.dtd" >
<svg xmlns="http://www.w3.org/2000/svg" xmlns:xlink="http://www.w3.org/1999/xlink" version="1.1" viewBox="-10 0 1010 1000">
  <g transform="matrix(1 0 0 -1 0 800)">
   <path fill="currentColor"
d="M562.5 112.5c69.0488 0 125 55.9512 125 125c0 69.0449 -55.9521 125 -125 125c-69.0439 0 -125 -55.9561 -125 -125c0 -69.0479 55.9551 -125 125 -125zM562.5 -12.5c-138.061 0 -250 111.935 -250 250c0 138.062 111.938 250 250 250c138.065 0 250 -111.939 250 -250
c0 -138.064 -111.936 -250 -250 -250zM750 50l44.1943 44.1943l125 -125l-44.1943 -44.1943l-44.1943 -44.1943l-125 125zM125.312 612.5l-0.3125 62.5h0.625zM125.312 612.5l0.3125 -62.5h-0.625zM125.312 300l-0.3125 62.5h0.625zM125.312 300l0.3125 -62.5h-0.625z
M125.312 -12.5l-0.3125 62.5h0.625zM125.312 -12.5l0.3125 -62.5h-0.625zM312.5 612.5v62.5h562.5v-62.5v-62.5h-562.5v62.5z" />
  </g>

</svg>
