<?xml version="1.0" standalone="no"?>
<!DOCTYPE svg PUBLIC "-//W3C//DTD SVG 1.1//EN" "http://www.w3.org/Graphics/SVG/1.1/DTD/svg11.dtd" >
<svg xmlns="http://www.w3.org/2000/svg" xmlns:xlink="http://www.w3.org/1999/xlink" version="1.1" viewBox="-10 0 1010 1000">
  <g transform="matrix(1 0 0 -1 0 800)">
   <path fill="currentColor"
d="M165.347 50l47.5166 40.6006l9.49121 -11.1074l77.2012 77.2012l44.1943 -44.1943l44.1943 -44.1943l-125 -125l-47.7988 -47.7988l-43.9121 51.3926l-53.4033 62.5zM156.25 331.25l44.1943 44.1943l18.3057 -18.3057l80.8057 80.8057l44.1943 -44.1943l44.1943 -44.1943
l-125 -125l-0.4375 -0.4375l-43.7568 -43.7568l-44.1943 44.1943l-62.5 62.5zM156.25 643.75l44.1943 44.1943l18.3057 -18.3057l80.8057 80.8057l44.1943 -44.1943l44.1943 -44.1943l-125 -125l-44.1943 -44.1943l-44.1943 44.1943l-62.5 62.5zM500 612.5v62.5h375v-62.5
v-62.5h-375v62.5zM500 300v62.5h375v-62.5v-62.5h-375v62.5zM500 -12.5v62.5h375v-62.5v-62.5h-375v62.5z" />
  </g>

</svg>
