<?xml version="1.0" standalone="no"?>
<!DOCTYPE svg PUBLIC "-//W3C//DTD SVG 1.1//EN" "http://www.w3.org/Graphics/SVG/1.1/DTD/svg11.dtd" >
<svg xmlns="http://www.w3.org/2000/svg" xmlns:xlink="http://www.w3.org/1999/xlink" version="1.1" viewBox="-10 0 1010 1000">
  <g transform="matrix(1 0 0 -1 0 800)">
   <path fill="currentColor"
d="M750 8.33105v-62.5h-341.417c-20.9062 0 -41.5508 4.49707 -60.5469 13.1641c-18.9971 8.66797 -35.9551 21.3486 -49.626 37.1201c-13.6914 15.7832 -23.833 34.3311 -29.7324 54.3789c-5.89551 20.0371 -7.42285 41.1221 -4.4668 61.8008l69.75 488.212
l61.8721 -8.83984l61.8721 -8.83984l-69.751 -488.211c-0.422852 -2.95703 -0.206055 -5.95996 0.639648 -8.83496c0.844727 -2.87012 2.27832 -5.49512 4.24902 -7.7666c1.96094 -2.2627 4.35645 -4.05469 7.08008 -5.29688
c2.72949 -1.24512 5.6875 -1.88672 8.66016 -1.88672h341.417v-62.5v0zM583.334 425l25.3838 -57.1133l-375 -166.667l-25.3838 57.1133l-25.3838 57.1133l375 166.667z" />
  </g>

</svg>
