<?xml version="1.0" standalone="no"?>
<!DOCTYPE svg PUBLIC "-//W3C//DTD SVG 1.1//EN" "http://www.w3.org/Graphics/SVG/1.1/DTD/svg11.dtd" >
<svg xmlns="http://www.w3.org/2000/svg" xmlns:xlink="http://www.w3.org/1999/xlink" version="1.1" viewBox="-10 0 1010 1000">
  <g transform="matrix(1 0 0 -1 0 800)">
   <path fill="currentColor"
d="M448.797 14.1582l-145.833 208.332l-1.88965 2.7002l-1.5957 2.88379c-19.1689 34.6455 -27.7949 72.3223 -27.8711 108.809c-0.251953 119.772 91.8994 244.367 228.393 244.367c37.3428 0 72.3779 -9.9043 102.44 -26.459
c108.945 -59.9902 163.368 -208.71 98.0791 -326.716l-1.5957 -2.88477l-1.89062 -2.7002l-145.832 -208.332l-51.2021 -73.1455zM499.999 158.987l92.4971 132.139c26.2354 51.4375 -1.00488 129.064 -52.9883 155.567c-12.1855 6.21191 -25.083 9.55664 -39.5088 9.55664
c-52.2129 0 -103.524 -55.9609 -103.392 -119.104c0.0341797 -16.3066 3.52051 -31.6924 10.8857 -46.0088zM125 487.5h-62.5v125c0 34.3838 14.1025 65.8799 36.6113 88.3887s54.0049 36.6113 88.3887 36.6113h125v-62.5v-62.5h-125v-125h-62.5zM125 112.5h62.5v-125h125
v-62.5v-62.5h-125c-34.3838 0 -65.8789 14.1025 -88.3887 36.6113c-22.5088 22.5088 -36.6113 54.0049 -36.6113 88.3887v125h62.5zM875 487.5h-62.5v125h-125v62.5v62.5h125c34.3838 0 65.8799 -14.1025 88.3887 -36.6113
c22.5088 -22.5098 36.6113 -54.0049 36.6113 -88.3887v-125h-62.5zM875 112.5h62.5v-125c0 -34.3838 -14.1025 -65.8789 -36.6113 -88.3887c-22.5098 -22.5088 -54.0049 -36.6113 -88.3887 -36.6113h-125v62.5v62.5h125v125h62.5z" />
  </g>

</svg>
