<?xml version="1.0" standalone="no"?>
<!DOCTYPE svg PUBLIC "-//W3C//DTD SVG 1.1//EN" "http://www.w3.org/Graphics/SVG/1.1/DTD/svg11.dtd" >
<svg xmlns="http://www.w3.org/2000/svg" xmlns:xlink="http://www.w3.org/1999/xlink" version="1.1" viewBox="-49 0 1049 1000">
  <g transform="matrix(1 0 0 -1 0 800)">
   <path fill="currentColor"
d="M933.784 653.771c-34.0371 -94.252 -313.239 -751.981 -313.745 -753.176l-60.5361 -142.735l-55.3799 144.814s-80.0957 209.166 -113.177 286.132l-289.158 115.662l-140.363 56.1455l139.032 59.3643c1.06445 0.455078 630.463 269.44 753.314 313.806l125.24 45.2275
zM762.671 563.085c-137.088 -56.251 -339.372 -141.721 -473.846 -198.8l171.888 -68.7559l22.0625 -8.8252l10.627 -21.2539c14.7559 -29.5137 42.7549 -100.425 71.6396 -174.042c56.8408 134.57 141.127 334.711 197.629 471.677z" />
  </g>

</svg>
