<?xml version="1.0" standalone="no"?>
<!DOCTYPE svg PUBLIC "-//W3C//DTD SVG 1.1//EN" "http://www.w3.org/Graphics/SVG/1.1/DTD/svg11.dtd" >
<svg xmlns="http://www.w3.org/2000/svg" xmlns:xlink="http://www.w3.org/1999/xlink" version="1.1" viewBox="-10 0 1010 1000">
  <g transform="matrix(1 0 0 -1 0 800)">
   <path fill="currentColor"
d="M750 300h-500v-312.5h500v312.5zM812.5 425h62.5v-62.5v-437.5v-62.5h-62.5h-625h-62.5v62.5v437.5v62.5h62.5h625zM500 50c-51.7734 0 -93.75 41.9863 -93.75 93.75s41.9766 93.75 93.75 93.75s93.75 -41.9863 93.75 -93.75s-41.9766 -93.75 -93.75 -93.75z
M343.75 362.5h62.5v187.5c0 44.9961 16.7217 62.5 93.75 62.5c77.0264 0 93.75 -17.5264 93.75 -62.5v-187.5h62.5h62.5v187.5c0 136.583 -114.221 187.5 -218.75 187.5c-104.526 0 -218.75 -50.9395 -218.75 -187.5v-187.5h62.5z" />
  </g>

</svg>
