<?xml version="1.0" standalone="no"?>
<!DOCTYPE svg PUBLIC "-//W3C//DTD SVG 1.1//EN" "http://www.w3.org/Graphics/SVG/1.1/DTD/svg11.dtd" >
<svg xmlns="http://www.w3.org/2000/svg" xmlns:xlink="http://www.w3.org/1999/xlink" version="1.1" viewBox="-10 0 1010 1000">
  <g transform="matrix(1 0 0 -1 0 800)">
   <path fill="currentColor"
d="M625 550h-62.5v62.5h-375v-625h375v62.5h62.5h62.5v-125v-62.5h-62.5h-500h-62.5v62.5v750v62.5h62.5h500h62.5v-62.5v-125h-62.5zM875 300v-62.5h-562.5v62.5v62.5h562.5v-62.5zM875 300l-44.1943 -44.1943l-125 125l44.1943 44.1943l44.1943 44.1943l125 -125zM875 300
l44.1943 -44.1943l-125 -125l-44.1943 44.1943l-44.1943 44.1943l125 125zM875 300v62.5h-562.5v-62.5v-62.5h562.5v62.5zM875 300l-44.1943 -44.1943l-125 125l44.1943 44.1943l44.1943 44.1943l125 -125zM875 300l-44.1943 44.1943l-125 -125l44.1943 -44.1943
l44.1943 -44.1943l125 125zM875 300l44.1943 44.1943l-125 125l-44.1943 -44.1943l-44.1943 -44.1943l125 -125zM875 300l44.1943 -44.1943l-125 -125l-44.1943 44.1943l-44.1943 44.1943l125 125zM875 300l-44.1943 44.1943l-125 -125l44.1943 -44.1943l44.1943 -44.1943
l125 125z" />
  </g>

</svg>
