<?xml version="1.0" standalone="no"?>
<!DOCTYPE svg PUBLIC "-//W3C//DTD SVG 1.1//EN" "http://www.w3.org/Graphics/SVG/1.1/DTD/svg11.dtd" >
<svg xmlns="http://www.w3.org/2000/svg" xmlns:xlink="http://www.w3.org/1999/xlink" version="1.1" viewBox="-10 0 1010 1000">
  <g transform="matrix(1 0 0 -1 0 800)">
   <path fill="currentColor"
d="M500 -75h-62.5c0 125.535 47.3232 266.631 140.345 359.654l44.1943 -44.1934l44.1943 -44.1934c-63.2598 -63.2627 -103.732 -175.791 -103.732 -271.269h-62.5zM500 -75v-62.5c-271.893 0 -437.5 250.129 -437.5 500v62.5h62.5
c129.989 0 215.92 -59.1094 297.155 -140.346l-44.1943 -44.1934l-44.1943 -44.1943c-52.8047 52.8047 -92.5928 81.9746 -140.748 95.2793c27.1006 -172.45 145.954 -304.046 306.98 -304.046v-62.5h0.000976562zM500 -75v0v62.5c161.038 0 279.851 131.402 307.018 304.28
c-48.2305 -13.1025 -87.0312 -41.7617 -140.785 -95.5137l-44.1934 44.1943l-44.1934 44.1943c81.7725 81.7715 166.367 140.345 297.154 140.345h62.5v-62.5c0 -249.871 -165.608 -500 -437.5 -500v62.5zM377.961 240.461l-44.1924 -44.1943
c62.333 -62.3311 103.731 -177.105 103.731 -271.267h62.5h62.5c0 124.713 -47.9141 267.228 -140.346 359.656zM383.529 241.254c-5.56836 -0.792969 -4.9502 -0.705078 -5.56836 -0.792969l-61.876 -8.80859c-20.0449 140.801 33.248 344.257 140.76 446.89
l43.1572 41.1982l43.1562 -41.1992c107.51 -102.633 160.801 -306.088 140.757 -446.889l-61.876 8.80859l-61.876 8.80859c10.585 74.3574 -14.6367 199.363 -60.1621 280.633c-45.9814 -82.083 -70.7412 -206.332 -60.1641 -280.633zM500 -75v62.5
c-161.027 0 -279.881 131.596 -306.981 304.046c48.1553 -13.3047 87.9434 -42.4746 140.748 -95.2793l44.1943 44.1943l44.1943 44.1934c-81.2354 81.2363 -167.166 140.346 -297.154 140.346h-62.5v-62.5c0 -249.87 165.606 -500 437.5 -500v62.5h-0.000976562zM500 -75
v-62.5c271.892 0 437.5 250.129 437.5 500v62.5h-62.5c-130.787 0 -215.382 -58.5732 -297.154 -140.345l44.1934 -44.1943l44.1934 -44.1943c53.7539 53.752 92.5547 82.4111 140.785 95.5137c-27.167 -172.878 -145.979 -304.28 -307.018 -304.28v-62.5v0z
M377.961 240.461l44.1924 44.1943c92.4326 -92.4277 140.347 -234.942 140.347 -359.655h-62.5h-62.5c0 94.1621 -41.3984 208.935 -103.732 271.266zM383.529 241.254l56.3076 8.01562c-10.5771 74.3008 14.1826 198.55 60.1641 280.633
c45.5254 -81.2695 70.7471 -206.275 60.1621 -280.633l61.876 -8.80859l61.876 -8.80859c20.0439 140.801 -33.2471 344.256 -140.757 446.889l-43.1562 41.1992l-43.1572 -41.1982c-107.512 -102.633 -160.805 -306.089 -140.76 -446.89l61.876 8.80859
c0.618164 0.0878906 0 0 5.56836 0.792969zM500 -75v62.5c161.037 0 279.851 131.402 307.018 304.28c-48.2305 -13.1025 -87.0312 -41.7617 -140.784 -95.5137l-44.1934 44.1943l-44.1934 44.1943c81.7725 81.7715 166.366 140.345 297.153 140.345h62.5v-62.5
c0 -249.871 -165.607 -500 -437.5 -500v62.5v0zM377.961 240.461l44.1934 44.1953c92.4316 -92.4287 140.346 -234.943 140.346 -359.656h-62.5h-62.5c0 94.1611 -41.3984 208.936 -103.731 271.267zM383.529 241.254l56.3076 8.01562
c-10.5771 74.3008 14.1826 198.55 60.1641 280.633c45.5254 -81.2695 70.7471 -206.274 60.1621 -280.633l61.876 -8.80859l61.876 -8.80859c20.0439 140.801 -33.2471 344.256 -140.757 446.889l-43.1562 41.1992l-43.1572 -41.1982
c-107.513 -102.633 -160.806 -306.089 -140.761 -446.89l61.876 8.80859c0.618164 0.0878906 0 0 5.56934 0.792969zM377.961 240.461l-44.1934 -44.1953c62.334 -62.3311 103.732 -177.104 103.732 -271.266h62.5h62.5c0 124.713 -47.9141 267.228 -140.347 359.655z
M383.529 241.254c-5.56836 -0.792969 -4.9502 -0.705078 -5.56836 -0.792969l-61.876 -8.80859c-20.0449 140.801 33.248 344.257 140.76 446.89l43.1572 41.1982l43.1562 -41.1992c107.51 -102.633 160.801 -306.088 140.757 -446.889l-61.876 8.80859l-61.876 8.80859
c10.585 74.3574 -14.6367 199.363 -60.1621 280.633c-45.9814 -82.083 -70.7412 -206.332 -60.1641 -280.633zM383.529 241.254c-5.56934 -0.792969 -4.95117 -0.705078 -5.56934 -0.792969l-61.876 -8.80859c-20.0449 140.801 33.248 344.257 140.761 446.89
l43.1572 41.1982l43.1562 -41.1992c107.51 -102.633 160.801 -306.088 140.757 -446.889l-61.876 8.80859l-61.876 8.80859c10.585 74.3584 -14.6367 199.363 -60.1621 280.633c-45.9814 -82.083 -70.7412 -206.332 -60.1641 -280.633z" />
  </g>

</svg>
