<?xml version="1.0" standalone="no"?>
<!DOCTYPE svg PUBLIC "-//W3C//DTD SVG 1.1//EN" "http://www.w3.org/Graphics/SVG/1.1/DTD/svg11.dtd" >
<svg xmlns="http://www.w3.org/2000/svg" xmlns:xlink="http://www.w3.org/1999/xlink" version="1.1" viewBox="-10 0 1010 1000">
  <g transform="matrix(1 0 0 -1 0 800)">
   <path fill="currentColor"
d="M875 482.734h-62.5v129.765c0 0.0117188 -7.58691 23.0186 -62.0156 23.0352c-54.9883 0.015625 -62.9844 -23.0352 -62.9844 -23.0352v-129.765h-62.5h-62.5v129.765c0 114.459 117.675 148.056 188.021 148.035c70.2354 -0.0214844 186.979 -33.7715 186.979 -148.035
v-129.765h-62.5zM875 482.734h62.5v-245.233c0 -256.37 -237.414 -379.65 -445.465 -379.793c-203.998 -0.138672 -429.535 119.281 -429.535 379.793v250.732h62.5h62.5v-250.732c0 -168.814 138.861 -254.906 304.45 -254.793
c172.21 0.118164 320.55 94.9199 320.55 254.793v245.233h62.5zM875 482.734v-62.5h-250v62.5v62.5h250v-62.5zM625 482.734h62.5v-245.233c0 -120.846 -99.6309 -183.161 -187.5 -183.161c-87.873 0 -187.5 62.2891 -187.5 183.161v250.732h62.5h62.5v-250.732
c0 -40.0098 25.373 -58.1611 62.5 -58.1611c37.1309 0 62.5 18.125 62.5 58.1611v245.233h62.5zM375 488.233h-62.5v124.266s-8.23926 22.1182 -64.6299 22.2158c-53.9395 0.0947266 -60.3701 -21.7959 -60.3701 -22.2148v-124.267h-62.5h-62.5v124.267
c0 114.14 115.888 147.336 185.587 147.215c69.9463 -0.12207 189.413 -32.8779 189.413 -147.216v-124.266h-62.5zM375 488.233v-62.5h-250v62.5v62.5h250v-62.5zM875 482.734h-62.5v-245.233c0 -159.873 -148.34 -254.675 -320.55 -254.793
c-165.589 -0.113281 -304.45 85.9785 -304.45 254.793v250.732h-62.5h-62.5v-250.732c0 -260.512 225.537 -379.932 429.535 -379.793c208.051 0.142578 445.465 123.423 445.465 379.793v245.233h-62.5zM875 482.734v-62.5h-250v62.5v62.5h250v-62.5zM625 482.734h-62.5
v-245.233c0 -40.0361 -25.3691 -58.1611 -62.5 -58.1611c-37.127 0 -62.5 18.1514 -62.5 58.1611v250.732h-62.5h-62.5v-250.732c0 -120.872 99.627 -183.161 187.5 -183.161c87.8691 0 187.5 62.3154 187.5 183.161v245.233h-62.5zM375 488.233h-62.5v124.266
s-8.23926 22.1182 -64.6299 22.2158c-53.9395 0.0947266 -60.3701 -21.7959 -60.3701 -22.2148v-124.267h-62.5h-62.5v124.267c0 114.14 115.888 147.336 185.587 147.215c69.9463 -0.12207 189.413 -32.8779 189.413 -147.216v-124.266h-62.5zM375 488.233v62.5h-250v-62.5
v-62.5h250v62.5zM875 482.734v62.5h-250v-62.5v-62.5h250v62.5zM625 482.734h62.5v-245.233c0 -120.846 -99.6309 -183.161 -187.5 -183.161c-87.873 0 -187.5 62.2891 -187.5 183.161v250.732h62.5h62.5v-250.732c0 -40.0098 25.373 -58.1611 62.5 -58.1611
c37.1309 0 62.5 18.125 62.5 58.1611v245.233h62.5zM375 488.233h62.5v124.266c0 114.338 -119.467 147.094 -189.413 147.216c-69.6992 0.121094 -185.587 -33.0752 -185.587 -147.215v-124.267h62.5h62.5v124.267c0 0.418945 6.43066 22.3096 60.3701 22.2148
c56.3906 -0.0976562 64.6299 -22.2158 64.6299 -22.2158v-124.266h62.5zM375 488.233v-62.5h-250v62.5v62.5h250v-62.5zM625 482.734h-62.5v-245.233c0 -40.0361 -25.3691 -58.1611 -62.5 -58.1611c-37.127 0 -62.5 18.1514 -62.5 58.1611v250.732h-62.5h-62.5v-250.732
c0 -120.872 99.627 -183.161 187.5 -183.161c87.8691 0 187.5 62.3154 187.5 183.161v245.233h-62.5zM375 488.233h-62.5v124.266s-8.23926 22.1182 -64.6299 22.2158c-53.9395 0.0947266 -60.3701 -21.7959 -60.3701 -22.2148v-124.267h-62.5h-62.5v124.267
c0 114.14 115.888 147.336 185.587 147.215c69.9463 -0.12207 189.413 -32.8779 189.413 -147.216v-124.266h-62.5zM375 488.233v62.5h-250v-62.5v-62.5h250v62.5zM375 488.233h62.5v124.266c0 114.338 -119.467 147.094 -189.413 147.216
c-69.6992 0.121094 -185.587 -33.0752 -185.587 -147.215v-124.267h62.5h62.5v124.267c0 0.418945 6.43066 22.3096 60.3701 22.2148c56.3906 -0.0976562 64.6299 -22.2158 64.6299 -22.2158v-124.266h62.5zM375 488.233v-62.5h-250v62.5v62.5h250v-62.5zM375 488.233v62.5
h-250v-62.5v-62.5h250v62.5z" />
  </g>

</svg>
