<?xml version="1.0" standalone="no"?>
<!DOCTYPE svg PUBLIC "-//W3C//DTD SVG 1.1//EN" "http://www.w3.org/Graphics/SVG/1.1/DTD/svg11.dtd" >
<svg xmlns="http://www.w3.org/2000/svg" xmlns:xlink="http://www.w3.org/1999/xlink" version="1.1" viewBox="-10 0 1010 1000">
  <g transform="matrix(1 0 0 -1 0 800)">
   <path fill="currentColor"
d="M500 362.5c17.2686 0 31.25 13.9824 31.25 31.25c0 17.2686 -13.9824 31.25 -31.25 31.25c-17.2686 0 -31.25 -13.9824 -31.25 -31.25c0 -17.2686 13.9824 -31.25 31.25 -31.25zM500 237.5c-86.2871 0 -156.25 69.9639 -156.25 156.25
c0 86.2871 69.9639 156.25 156.25 156.25c86.2871 0 156.25 -69.9639 156.25 -156.25c0 -86.2871 -69.9639 -156.25 -156.25 -156.25zM274.275 300c50.5352 -91.0781 163.458 -218.688 225.725 -284.915c63.1191 67.1338 175.824 194.982 225.725 284.915h-451.448
h-0.000976562zM125 362.5v62.5h62.5h625h62.5v-62.5c0 -180.303 -330.8 -481.688 -330.8 -481.688l-44.2002 -44.21l-43.7617 43.7715s-331.238 301.598 -331.238 482.128v-0.000976562z" />
  </g>

</svg>
