<?xml version="1.0" standalone="no"?>
<!DOCTYPE svg PUBLIC "-//W3C//DTD SVG 1.1//EN" "http://www.w3.org/Graphics/SVG/1.1/DTD/svg11.dtd" >
<svg xmlns="http://www.w3.org/2000/svg" xmlns:xlink="http://www.w3.org/1999/xlink" version="1.1" viewBox="-10 0 1010 1000">
  <g transform="matrix(1 0 0 -1 0 800)">
   <path fill="currentColor"
d="M375 612.5l27.9512 -55.9014l-215.451 -107.726v-422.746l159.549 79.7744l27.9512 -55.9014l27.9512 -55.9014l-250 -125l-90.4512 -45.2256v101.127v562.5v38.627l34.5488 17.2744l250 125zM375 612.5l-27.9512 -55.9014l250 -125l27.9512 55.9014l27.9512 55.9014
l-250 125zM375 612.5h-62.5v-562.5h62.5h62.5v562.5h-62.5zM625 487.5l-37.5 50l250 187.5l100 75v-125v-562.5v-38.627l-34.5488 -17.2744l-250 -125l-27.9512 55.9014l-27.9512 55.9014l215.451 107.726v398.873l-150 -112.5zM625 487.5h62.5v-500h-62.5h-62.5v500h62.5z
M625 -12.5l-15.1582 -60.6338l-250 62.5l15.1582 60.6338l15.1582 60.6338l250 -62.5zM375 612.5l27.9512 55.9014l250 -125l-27.9512 -55.9014l-27.9512 -55.9014l-250 125zM375 612.5h-62.5v-562.5h62.5h62.5v562.5h-62.5zM625 487.5l37.5 -50l150 112.5v-398.873
l-215.451 -107.726l27.9512 -55.9014l27.9512 -55.9014l250 125l34.5488 17.2744v38.627v562.5v125l-100 -75l-250 -187.5zM625 487.5h62.5v-500h-62.5h-62.5v500h62.5zM625 -12.5l15.1582 60.6338l-250 62.5l-15.1582 -60.6338l-15.1582 -60.6338l250 -62.5zM375 612.5
h62.5v-562.5h-62.5h-62.5v562.5h62.5zM625 487.5l-37.5 50l250 187.5l100 75v-125v-562.5v-38.627l-34.5488 -17.2744l-250 -125l-27.9512 55.9014l-27.9512 55.9014l215.451 107.726v398.873l-150 -112.5zM625 487.5h-62.5v-500h62.5h62.5v500h-62.5zM625 -12.5
l-15.1582 -60.6338l-250 62.5l15.1582 60.6338l15.1582 60.6338l250 -62.5zM625 487.5l37.5 -50l150 112.5v-398.873l-215.451 -107.726l27.9512 -55.9014l27.9512 -55.9014l250 125l34.5488 17.2744v38.627v562.5v125l-100 -75l-250 -187.5zM625 487.5h62.5v-500h-62.5
h-62.5v500h62.5zM625 -12.5l15.1582 60.6338l-250 62.5l-15.1582 -60.6338l-15.1582 -60.6338l250 -62.5zM625 487.5h-62.5v-500h62.5h62.5v500h-62.5zM625 -12.5l-15.1582 -60.6338l-250 62.5l15.1582 60.6338l15.1582 60.6338l250 -62.5zM625 -12.5l15.1582 60.6338
l-250 62.5l-15.1582 -60.6338l-15.1582 -60.6338l250 -62.5z" />
  </g>

</svg>
