<?xml version="1.0" standalone="no"?>
<!DOCTYPE svg PUBLIC "-//W3C//DTD SVG 1.1//EN" "http://www.w3.org/Graphics/SVG/1.1/DTD/svg11.dtd" >
<svg xmlns="http://www.w3.org/2000/svg" xmlns:xlink="http://www.w3.org/1999/xlink" version="1.1" viewBox="-10 0 1010 1000">
  <g transform="matrix(1 0 0 -1 0 800)">
   <path fill="currentColor"
d="M343.75 -12.5c86.3037 0 156.25 69.9473 156.25 156.25c0 86.3037 -69.9473 156.25 -156.25 156.25c-86.3037 0 -156.25 -69.9473 -156.25 -156.25c0 -86.3037 69.9473 -156.25 156.25 -156.25zM343.75 -137.5c-155.321 0 -281.25 125.929 -281.25 281.25
s125.929 281.25 281.25 281.25s281.25 -125.929 281.25 -281.25s-125.929 -281.25 -281.25 -281.25zM812.5 612.5l-44.1943 44.1943l-312.5 -312.5l44.1943 -44.1943l44.1943 -44.1943l312.5 312.5zM812.5 612.5v-62.5h-312.5v62.5v62.5h312.5v-62.5zM812.5 612.5h62.5v-250
h-62.5h-62.5v250h62.5zM812.5 612.5v62.5h-312.5v-62.5v-62.5h312.5v62.5zM812.5 612.5h62.5v-250h-62.5h-62.5v250h62.5zM812.5 612.5h-62.5v-250h62.5h62.5v250h-62.5z" />
  </g>

</svg>
