<?xml version="1.0" standalone="no"?>
<!DOCTYPE svg PUBLIC "-//W3C//DTD SVG 1.1//EN" "http://www.w3.org/Graphics/SVG/1.1/DTD/svg11.dtd" >
<svg xmlns="http://www.w3.org/2000/svg" xmlns:xlink="http://www.w3.org/1999/xlink" version="1.1" viewBox="-10 0 1010 1000">
  <g transform="matrix(1 0 0 -1 0 800)">
   <path fill="currentColor"
d="M843.75 127.812v-77.8125c-251.069 0 -164.488 250 -250 250v45.9375v16.5625v62.5c251.275 0 165.07 -250 250 -250v-47.1875zM875 320.625v-20.7705c-21.3086 -3.92773 -121.441 -85.2441 -140.568 -103.86c-11.3057 -14.5508 -94.5264 -145.993 -203.182 -145.993v125
c20.666 5.3125 104.611 97.8262 106.278 100.037l2.65332 3.53418l3.1416 3.13965s118.163 143.288 231.677 143.288v-104.375v0zM125 8.33105l44.1904 44.1982l18.665 -18.6621c26.8799 66.9785 61.8359 166.613 84.1914 278.39l61.2861 -12.2568l61.2861 -12.2568
c-25.2148 -126.075 -64.5879 -236.061 -93.4199 -307.023c-15.791 -38.8682 -49.4756 -64.6377 -86.1514 -72.3926c-23.6846 -5.00781 -48.7373 -2.86719 -71.8203 6.70508c-14.7383 6.11035 -28.583 15.2695 -40.4062 27.0947l-22.0117 22.0078zM333.333 300
l-61.2861 12.2578c27.5127 137.562 71.8691 256.007 101.03 325.446c2.22363 5.29688 4.80273 10.4014 7.70215 15.2666c14.9814 25.1338 38.1445 43.042 63.834 51.9453c33.3379 11.5547 71.4688 8.32227 103.75 -11.0469l46.292 -27.7754l-32.1553 -53.5938
l-32.1553 -53.5938l-43.7529 26.251c-26.9199 -64.666 -67.3535 -174.323 -91.9727 -297.415zM333.333 300v62.5h104.167v-62.5v-62.5h-104.167v62.5zM333.333 300v-62.5h-145.833v62.5v62.5h145.833v-62.5zM333.333 300l61.2861 -12.2578
c24.6191 123.092 65.0527 232.749 91.9727 297.415l43.7529 -26.251l32.1553 53.5938l32.1553 53.5938l-46.292 27.7754c-32.2812 19.3691 -70.4121 22.6016 -103.75 11.0469c-25.6895 -8.90332 -48.8525 -26.8115 -63.834 -51.9453
c-2.89941 -4.86523 -5.47852 -9.96973 -7.70215 -15.2666c-29.1611 -69.4395 -73.5176 -187.885 -101.03 -325.446zM333.333 300v-62.5h104.167v62.5v62.5h-104.167v-62.5zM333.333 300v62.5h-145.833v-62.5v-62.5h145.833v62.5zM333.333 300v-62.5h104.167v62.5v62.5
h-104.167v-62.5zM333.333 300v-62.5h-145.833v62.5v62.5h145.833v-62.5zM333.333 300v62.5h-145.833v-62.5v-62.5h145.833v62.5z" />
  </g>

</svg>
