<?xml version="1.0" standalone="no"?>
<!DOCTYPE svg PUBLIC "-//W3C//DTD SVG 1.1//EN" "http://www.w3.org/Graphics/SVG/1.1/DTD/svg11.dtd" >
<svg xmlns="http://www.w3.org/2000/svg" xmlns:xlink="http://www.w3.org/1999/xlink" version="1.1" viewBox="-10 0 1010 1000">
  <g transform="matrix(1 0 0 -1 0 800)">
   <path fill="currentColor"
d="M625 175l44.1943 44.1943l250 -250l-44.1943 -44.1943l-44.1943 -44.1943l-250 250zM875 175l44.1943 -44.1943l-250 -250l-44.1943 44.1943l-44.1943 44.1943l250 250zM875 175l-44.1943 44.1943l-250 -250l44.1943 -44.1943l44.1943 -44.1943l250 250zM875 675v-62.5
h-263.701l-175.665 -702.658l-46.8789 -187.516l-71.7852 179.462l-109.284 273.212h-82.6855v62.5v62.5h125h42.3145l15.7158 -39.2881l53.2148 -133.038l140.621 562.484l11.835 47.3418h48.7988h312.5v-62.5z" />
  </g>

</svg>
