<?xml version="1.0" standalone="no"?>
<!DOCTYPE svg PUBLIC "-//W3C//DTD SVG 1.1//EN" "http://www.w3.org/Graphics/SVG/1.1/DTD/svg11.dtd" >
<svg xmlns="http://www.w3.org/2000/svg" xmlns:xlink="http://www.w3.org/1999/xlink" version="1.1" viewBox="-10 0 1010 1000">
  <g transform="matrix(1 0 0 -1 0 800)">
   <path fill="currentColor"
d="M125 300v62.5h750v-62.5v-62.5h-750v62.5zM500 675h62.5v-750h-62.5h-62.5v750h62.5zM687.5 675l44.1943 44.1943l187.5 -187.5l-44.1943 -44.1943l-44.1943 -44.1943l-187.5 187.5zM875 675l44.1943 -44.1943l-187.5 -187.5l-44.1943 44.1943l-44.1943 44.1943
l187.5 187.5zM218.75 675h62.5v-187.5h-62.5h-62.5v187.5h62.5zM125 581.25v62.5h187.5v-62.5v-62.5h-187.5v62.5zM125 50v62.5h187.5v-62.5v-62.5h-187.5v62.5z" />
  </g>

</svg>
