<?xml version="1.0" standalone="no"?>
<!DOCTYPE svg PUBLIC "-//W3C//DTD SVG 1.1//EN" "http://www.w3.org/Graphics/SVG/1.1/DTD/svg11.dtd" >
<svg xmlns="http://www.w3.org/2000/svg" xmlns:xlink="http://www.w3.org/1999/xlink" version="1.1" viewBox="-10 0 1010 1000">
  <g transform="matrix(1 0 0 -1 0 800)">
   <path fill="currentColor"
d="M239.576 113.134l-21.3711 -80.5498l78.1553 33.2568l26.1758 11.1387l25.5908 -12.4238c39.3682 -19.1123 84.7334 -28.6064 132.02 -28.665c171.491 -0.209961 332.354 118.354 332.354 265.699c0 158.497 -100.988 310.91 -312.501 310.91
c-210.639 0 -309.36 -152.967 -312.514 -312.146c-0.84668 -42.8525 11.0859 -88.3066 43.457 -136.187l15.9238 -23.5527zM111.808 119c-34.3047 59.3115 -50.499 123.038 -49.2969 183.825c4.15527 209.822 148.125 434.675 437.488 434.675
c288.489 0 437.501 -222.587 437.501 -435.91c0 -243.468 -243.014 -390.962 -457.507 -390.699c-54.1943 0.0664062 -107.438 8.91113 -159.494 29.376l-171.028 -72.7764l-117.678 -50.0742l32.7959 123.611z" />
  </g>

</svg>
