<?xml version="1.0" standalone="no"?>
<!DOCTYPE svg PUBLIC "-//W3C//DTD SVG 1.1//EN" "http://www.w3.org/Graphics/SVG/1.1/DTD/svg11.dtd" >
<svg xmlns="http://www.w3.org/2000/svg" xmlns:xlink="http://www.w3.org/1999/xlink" version="1.1" viewBox="-10 0 1010 1000">
  <g transform="matrix(1 0 0 -1 0 800)">
   <path fill="currentColor"
d="M562.5 550c0 34.5264 -27.9736 62.5 -62.5 62.5s-62.5 -27.9736 -62.5 -62.5v-187.5c0 -34.5264 27.9736 -62.5 62.5 -62.5s62.5 27.9736 62.5 62.5v187.5zM687.5 550v-187.5c0 -103.544 -83.9561 -187.5 -187.5 -187.5s-187.5 83.9561 -187.5 187.5v187.5
c0 103.544 83.9561 187.5 187.5 187.5s187.5 -83.9561 187.5 -187.5zM187.5 362.5h-62.5c0 -201.521 188.527 -343.75 375 -343.75v62.5v62.5c-131.25 0 -250 102.55 -250 218.75h-62.5zM781.25 362.5h-31.25c0 -116.2 -118.749 -218.75 -250 -218.75v-62.5v-62.5
c186.474 0 375 142.229 375 343.75h-62.5h-31.25zM500 81.25h62.5v-156.25h-62.5h-62.5v156.25h62.5zM312.5 -75v62.5h187.5v-62.5v-62.5h-187.5v62.5zM687.5 -75v62.5h-187.5v-62.5v-62.5h187.5v62.5zM781.25 362.5h31.25h62.5c0 -201.521 -188.526 -343.75 -375 -343.75
v62.5v62.5c131.251 0 250 102.55 250 218.75h31.25zM500 81.25h-62.5v-156.25h62.5h62.5v156.25h-62.5zM312.5 -75v-62.5h187.5v62.5v62.5h-187.5v-62.5zM687.5 -75v-62.5h-187.5v62.5v62.5h187.5v-62.5zM500 81.25h62.5v-156.25h-62.5h-62.5v156.25h62.5zM312.5 -75v62.5
h187.5v-62.5v-62.5h-187.5v62.5zM687.5 -75v62.5h-187.5v-62.5v-62.5h187.5v62.5zM312.5 -75v-62.5h187.5v62.5v62.5h-187.5v-62.5zM687.5 -75v62.5h-187.5v-62.5v-62.5h187.5v62.5zM687.5 -75v-62.5h-187.5v62.5v62.5h187.5v-62.5z" />
  </g>

</svg>
