<?xml version="1.0" standalone="no"?>
<!DOCTYPE svg PUBLIC "-//W3C//DTD SVG 1.1//EN" "http://www.w3.org/Graphics/SVG/1.1/DTD/svg11.dtd" >
<svg xmlns="http://www.w3.org/2000/svg" xmlns:xlink="http://www.w3.org/1999/xlink" version="1.1" viewBox="-10 0 1010 1000">
  <g transform="matrix(1 0 0 -1 0 800)">
   <path fill="currentColor"
d="M453.147 631.228l-15.6484 27.0498l-31.2939 54.1006c27.584 15.957 59.8252 25.123 93.7939 25.123c103.545 0 187.5 -83.957 187.5 -187.5v-125h-62.5h-62.5v125c0 34.5264 -27.9727 62.5 -62.5 62.5c-11.5674 0 -22.0176 -3.00879 -31.2051 -8.32324zM500 245.625
v-8.125v-62.5c-103.544 0 -187.5 83.9561 -187.5 187.5v62.5h62.5h62.5v-62.5c0 -34.5264 27.9736 -62.5 62.5 -62.5v-54.375zM500 245.625v54.375c-34.5264 0 -62.5 27.9736 -62.5 62.5v62.5h-62.5h-62.5v-62.5c0 -103.544 83.9561 -187.5 187.5 -187.5v62.5v8.125z
M187.5 362.5h62.5c0 -116.2 118.75 -218.75 250 -218.75v-62.5v-62.5c-186.473 0 -375 142.229 -375 343.75h62.5zM500 81.25h62.5v-156.25h-62.5h-62.5v156.25h62.5zM500 81.25h-0.000976562v62.5c39.8213 0 80.1016 9.73535 116.269 27.293l27.2949 -56.2246
l27.2949 -56.2256c-52.3799 -25.4277 -110.873 -39.8428 -170.857 -39.8428v62.5zM772.356 301.592l-29.9502 8.91895c4.95312 16.6338 7.59375 33.9229 7.59375 51.9893h62.5h62.5c0 -30.3848 -4.51074 -59.8516 -12.793 -87.665l-59.9014 17.8379zM312.5 -75v62.5h187.5
v-62.5v-62.5h-187.5v62.5zM687.5 -75v-62.5h-187.5v62.5v62.5h187.5v-62.5zM500 81.25h-62.5v-156.25h62.5h62.5v156.25h-62.5zM500 81.25v62.5c39.8203 0 80.1006 9.73535 116.268 27.293l27.2949 -56.2246l27.2949 -56.2256
c-52.3799 -25.4277 -110.873 -39.8428 -170.856 -39.8428v62.5h-0.000976562zM772.356 301.592l29.9502 -8.91895l59.9004 -17.8379c8.28223 27.8135 12.793 57.2803 12.793 87.665h-62.5h-62.5c0 -18.0664 -2.64062 -35.3555 -7.59375 -51.9893zM312.5 -75v62.5h187.5
v-62.5v-62.5h-187.5v62.5zM687.5 -75v62.5h-187.5v-62.5v-62.5h187.5v62.5zM500 81.25v-62.5c59.9844 0 118.478 14.415 170.857 39.8428l-27.2949 56.2256l-27.2949 56.2246c-36.167 -17.5576 -76.4473 -27.293 -116.269 -27.293v-62.5h0.000976562zM772.356 301.592
l29.9492 -8.91895l59.9014 -17.8379c8.28223 27.8135 12.793 57.2803 12.793 87.665h-62.5h-62.5c0 -18.0664 -2.64062 -35.3555 -7.59375 -51.9893zM312.5 -75v-62.5h187.5v62.5v62.5h-187.5v-62.5zM687.5 -75v-62.5h-187.5v62.5v62.5h187.5v-62.5zM772.356 301.592
l-29.9502 8.91895c4.95312 16.6338 7.59375 33.9229 7.59375 51.9893h62.5h62.5c0 -30.3848 -4.51074 -59.8516 -12.793 -87.665l-59.9004 17.8379zM312.5 -75v62.5h187.5v-62.5v-62.5h-187.5v62.5zM687.5 -75v62.5h-187.5v-62.5v-62.5h187.5v62.5zM312.5 -75v-62.5h187.5
v62.5v62.5h-187.5v-62.5zM687.5 -75v-62.5h-187.5v62.5v62.5h187.5v-62.5zM687.5 -75v62.5h-187.5v-62.5v-62.5h187.5v62.5zM125 675l44.1943 44.1943l750 -750l-44.1943 -44.1943l-44.1943 -44.1943l-750 750z" />
  </g>

</svg>
