<?xml version="1.0" standalone="no"?>
<!DOCTYPE svg PUBLIC "-//W3C//DTD SVG 1.1//EN" "http://www.w3.org/Graphics/SVG/1.1/DTD/svg11.dtd" >
<svg xmlns="http://www.w3.org/2000/svg" xmlns:xlink="http://www.w3.org/1999/xlink" version="1.1" viewBox="-10 0 1010 1000">
  <g transform="matrix(1 0 0 -1 0 800)">
   <path fill="currentColor"
d="M187.5 675v62.5h125v-62.5v-62.5h-125v62.5zM500 675v-62.5h375v62.5v62.5h-375v-62.5zM500 675v62.5h375v-62.5v-62.5h-375v62.5zM125 425v62.5h437.5v-62.5v-62.5h-437.5v62.5zM750 425v-62.5h62.5v62.5v62.5h-62.5v-62.5zM750 425v62.5h62.5v-62.5v-62.5h-62.5v62.5z
M187.5 175v62.5h187.5v-62.5v-62.5h-187.5v62.5zM562.5 175v-62.5h312.5v62.5v62.5h-312.5v-62.5zM562.5 175v62.5h312.5v-62.5v-62.5h-312.5v62.5zM125 -75v62.5h375v-62.5v-62.5h-375v62.5zM687.5 -75v-62.5h125v62.5v62.5h-125v-62.5zM687.5 -75v62.5h125v-62.5v-62.5
h-125v62.5z" />
  </g>

</svg>
