<?xml version="1.0" standalone="no"?>
<!DOCTYPE svg PUBLIC "-//W3C//DTD SVG 1.1//EN" "http://www.w3.org/Graphics/SVG/1.1/DTD/svg11.dtd" >
<svg xmlns="http://www.w3.org/2000/svg" xmlns:xlink="http://www.w3.org/1999/xlink" version="1.1" viewBox="-10 0 1010 1000">
  <g transform="matrix(1 0 0 -1 0 800)">
   <path fill="currentColor"
d="M187.5 237.497h62.5v125h-62.5h-62.5v-125h62.5zM62.5 50.0059v499.997v62.5h62.5h750h62.5v-62.5v-500.003v-62.501l-62.501 0.000976562l-750 0.00585938l-62.499 0.000976562v62.499v0zM187.5 112.506l625 -0.00488281v375.002h-625v-374.997v0zM62.5 50.0059v499.997
v62.5h62.5h750h62.5v-62.5v-500.003v-62.501l-62.501 0.000976562l-750 0.00585938l-62.499 0.000976562v62.499v0zM187.5 112.506l625 -0.00488281v375.002h-625v-374.997v0zM62.5 50.0059v-62.499l62.499 -0.000976562l750 -0.00585938l62.501 -0.000976562v62.501
v500.003v62.5h-62.5h-750h-62.5v-62.5v-499.997v0zM187.5 112.506v374.997h625v-375.002z" />
  </g>

</svg>
