<?xml version="1.0" standalone="no"?>
<!DOCTYPE svg PUBLIC "-//W3C//DTD SVG 1.1//EN" "http://www.w3.org/Graphics/SVG/1.1/DTD/svg11.dtd" >
<svg xmlns="http://www.w3.org/2000/svg" xmlns:xlink="http://www.w3.org/1999/xlink" version="1.1" viewBox="-10 0 1010 1000">
  <g transform="matrix(1 0 0 -1 0 800)">
   <path fill="currentColor"
d="M437.503 612.5v62.5h125v-62.5v-62.5h-125v62.5zM250.006 737.5h500h62.5v-62.5v-750v-62.5h-62.5h-500.006h-62.501l0.000976562 62.501l0.00585938 750l0.000976562 62.499h62.499zM312.506 612.5l-0.00488281 -625h375.005v625h-375zM250.006 737.5h500h62.5v-62.5
v-750v-62.5h-62.5h-500.006h-62.501l0.000976562 62.501l0.00585938 750l0.000976562 62.499h62.499zM312.506 612.5l-0.00488281 -625h375.005v625h-375zM250.006 737.5h-62.499l-0.000976562 -62.499l-0.00585938 -750l-0.000976562 -62.501h62.501h500.006h62.5v62.5v750
v62.5h-62.5h-500zM312.506 612.5h375v-625h-375.005z" />
  </g>

</svg>
