<?xml version="1.0" standalone="no"?>
<!DOCTYPE svg PUBLIC "-//W3C//DTD SVG 1.1//EN" "http://www.w3.org/Graphics/SVG/1.1/DTD/svg11.dtd" >
<svg xmlns="http://www.w3.org/2000/svg" xmlns:xlink="http://www.w3.org/1999/xlink" version="1.1" viewBox="-10 0 1010 1000">
  <g transform="matrix(1 0 0 -1 0 800)">
   <path fill="currentColor"
d="M500 -12.5c172.598 0 312.5 139.902 312.5 312.5s-139.902 312.5 -312.5 312.5s-312.5 -139.902 -312.5 -312.5s139.902 -312.5 312.5 -312.5zM500 -137.5c-241.615 0 -437.5 195.885 -437.5 437.5s195.885 437.5 437.5 437.5s437.5 -195.885 437.5 -437.5
s-195.885 -437.5 -437.5 -437.5zM500 143.75c17.2676 0 31.25 13.9844 31.25 31.25c0 17.2686 -13.9824 31.25 -31.25 31.25c-17.2686 0 -31.25 -13.9824 -31.25 -31.25s13.9834 -31.25 31.25 -31.25zM500 18.75c-86.2881 0 -156.25 69.9658 -156.25 156.25
c0 86.2871 69.9639 156.25 156.25 156.25c86.2871 0 156.25 -69.9639 156.25 -156.25c0 -86.2852 -69.9629 -156.25 -156.25 -156.25z" />
  </g>

</svg>
