<?xml version="1.0" standalone="no"?>
<!DOCTYPE svg PUBLIC "-//W3C//DTD SVG 1.1//EN" "http://www.w3.org/Graphics/SVG/1.1/DTD/svg11.dtd" >
<svg xmlns="http://www.w3.org/2000/svg" xmlns:xlink="http://www.w3.org/1999/xlink" version="1.1" viewBox="-10 0 1025 1000">
  <g transform="matrix(1 0 0 -1 0 800)">
   <path fill="currentColor"
d="M239.483 84.6982c7.36328 -11.0312 15.5967 -21.2246 24.6406 -30.627c102.255 -106.302 320.219 -112.602 468.444 30.0283c-119.172 -1.68457 -246.71 41.3447 -316.549 151.096c-67.2275 105.646 -75.9238 240.349 -39.5039 351.269
c-14.8564 -6.7168 -28.7217 -14.4512 -42.0586 -23.3457c-145.617 -97.1143 -200.687 -320.048 -94.9746 -478.419zM135.517 15.3018c-146.343 219.242 -72.5254 517.019 129.586 651.812c65.9736 43.998 146.15 70.3877 234.898 70.3877h150.89l-106.694 -106.694
c-69.5957 -69.5947 -87.4297 -226.808 -22.7158 -328.501c57.1475 -89.8076 210.173 -117.916 330.063 -69.373l153.343 62.0869l-73.9854 -147.97c-138.958 -277.916 -447.44 -357.839 -657.019 -252.713c-54.7266 27.4521 -103.022 68.0156 -138.366 120.966v-0.000976562
z" />
  </g>

</svg>
