<?xml version="1.0" standalone="no"?>
<!DOCTYPE svg PUBLIC "-//W3C//DTD SVG 1.1//EN" "http://www.w3.org/Graphics/SVG/1.1/DTD/svg11.dtd" >
<svg xmlns="http://www.w3.org/2000/svg" xmlns:xlink="http://www.w3.org/1999/xlink" version="1.1" viewBox="-10 0 1010 1000">
  <g transform="matrix(1 0 0 -1 0 800)">
   <path fill="currentColor"
d="M750 70.8311c11.5117 0 20.8311 9.32422 20.8311 20.8379c0 11.5117 -9.32617 20.8311 -20.8311 20.8311c-11.5137 0 -20.8311 -9.32812 -20.8311 -20.8311c0 -11.5225 9.32812 -20.8379 20.8311 -20.8379zM750 -54.1689c-80.5479 0 -145.831 65.3096 -145.831 145.838
c0 80.5332 65.2939 145.831 145.831 145.831c80.5459 0 145.831 -65.3066 145.831 -145.831c0 -80.5371 -65.292 -145.838 -145.831 -145.838zM436.005 70.8311c-4.56348 -30.9541 -18.9355 -60.002 -41.2207 -82.2832
c-27.334 -27.3408 -64.4395 -42.7168 -103.117 -42.7168c-38.6807 0 -75.7764 15.3691 -103.125 42.7236c-22.5479 22.5439 -36.3525 49.2998 -41.2139 82.2764h-22.3281h-62.5v62.5v41.6689c0 49.7275 19.7539 97.4209 54.9209 132.584
c35.1553 35.1572 82.8516 54.916 132.579 54.916h125h62.5v-62.5v-104.169h63.2109c20.3623 39.0156 47.833 72.4297 81.9883 99.7539c31.2549 25.0039 67.7598 43.8945 104.801 55.1123v157.636c0 5.52051 -2.20312 10.834 -6.0957 14.7275
c-3.91406 3.91309 -9.21387 6.10547 -14.7354 6.10547h-41.6689v62.5v62.5h41.6689c38.6768 0 75.7666 -15.3662 103.115 -42.709c27.3574 -27.3623 42.7158 -64.4414 42.7158 -103.124v-208.333v-55.8701l-55.5205 -6.23926
c-35.1885 -3.9541 -68.541 -17.793 -96.1943 -39.915c-27.6504 -22.1201 -48.4727 -51.6201 -60.0557 -85.0859l-14.5566 -42.0586h-44.5059h-105.662v0zM312.5 195.831v41.6689h-62.5c-16.5771 0 -32.4688 -6.58105 -44.1953 -18.3086
c-6.66406 -6.66309 -11.7051 -14.8711 -14.7314 -23.3604h100.343h21.084v0zM250 425v62.5h125v-62.5v-62.5h-125v62.5z" />
  </g>

</svg>
