<?xml version="1.0" standalone="no"?>
<!DOCTYPE svg PUBLIC "-//W3C//DTD SVG 1.1//EN" "http://www.w3.org/Graphics/SVG/1.1/DTD/svg11.dtd" >
<svg xmlns="http://www.w3.org/2000/svg" xmlns:xlink="http://www.w3.org/1999/xlink" version="1.1" viewBox="-10 0 1010 1000">
  <g transform="matrix(1 0 0 -1 0 800)">
   <path fill="currentColor"
d="M208.334 70.8311c34.5244 0 62.5 27.9775 62.5 62.5c0 34.5303 -27.9736 62.5029 -62.5 62.5029s-62.5 -27.9727 -62.5 -62.5029c0 -34.5225 27.9746 -62.5 62.5 -62.5zM208.334 -54.1689c-103.547 0 -187.5 83.9609 -187.5 187.5
c0 103.546 83.9551 187.503 187.5 187.503s187.5 -83.957 187.5 -187.503c0 -103.539 -83.9541 -187.5 -187.5 -187.5zM791.669 70.8311c34.5205 0 62.5 27.9795 62.5 62.5c0 34.5283 -27.9775 62.5029 -62.5 62.5029c-34.5293 0 -62.5 -27.9717 -62.5 -62.5029
c0 -34.5234 27.9727 -62.5 62.5 -62.5zM791.669 -54.1689c-103.549 0 -187.5 83.9619 -187.5 187.5c0 103.545 83.9521 187.503 187.5 187.503c103.54 0 187.5 -83.9551 187.5 -187.503c0 -103.541 -83.959 -187.5 -187.5 -187.5zM312.5 216.667l44.1943 -44.1943
l166.667 166.667l-44.1943 44.1943l-44.1943 44.1943l-166.667 -166.667zM355.812 279.167l-15.625 41.667h196.425l-41.667 -41.667h-139.133zM312.5 154.167h208.333h25.8887l18.3057 18.3057l166.667 166.667l106.694 106.694h-150.89h-437.5h-90.1875l31.667 -84.4453
l62.5 -166.667l15.208 -40.5547h43.3125h0.000976562zM355.812 279.167l-15.625 41.667h196.425l-41.667 -41.667h-139.133zM312.5 154.167h-43.3125l-15.208 40.5547l-62.5 166.667l-31.667 84.4453h90.1875h437.5h150.889l-106.693 -106.694l-166.667 -166.667
l-18.3057 -18.3057h-25.8887h-208.333h-0.000976562zM541.666 550v-62.5h44.707l45.2246 -90.4502l83.332 -166.667l55.9014 27.9502l55.9023 27.9502l-83.3311 166.667l-62.501 125.001l-17.2744 34.5488h-38.627h-83.334v-62.5z" />
  </g>

</svg>
