<?xml version="1.0" standalone="no"?>
<!DOCTYPE svg PUBLIC "-//W3C//DTD SVG 1.1//EN" "http://www.w3.org/Graphics/SVG/1.1/DTD/svg11.dtd" >
<svg xmlns="http://www.w3.org/2000/svg" xmlns:xlink="http://www.w3.org/1999/xlink" version="1.1" viewBox="-10 0 1010 1000">
  <g transform="matrix(1 0 0 -1 0 800)">
   <path fill="currentColor"
d="M500 487.5h62.5v-125h-62.5h-62.5v125h62.5zM375 737.5h250c103.546 0 187.5 -83.957 187.5 -187.5v-500c0 -103.545 -83.9551 -187.5 -187.5 -187.5h-250c-103.543 0 -187.5 83.9541 -187.5 187.5v500c0 103.544 83.9561 187.5 187.5 187.5zM375 612.5h250
c34.5273 0 62.5 -27.9727 62.5 -62.5v-500c0 -34.5283 -27.9717 -62.5 -62.5 -62.5h-250c-34.5273 0 -62.5 27.9727 -62.5 62.5v500c0 34.5264 27.9736 62.5 62.5 62.5zM375 737.5c-103.544 0 -187.5 -83.9561 -187.5 -187.5v-500c0 -103.546 83.957 -187.5 187.5 -187.5
h250c103.545 0 187.5 83.9551 187.5 187.5v500c0 103.543 -83.9541 187.5 -187.5 187.5h-250zM375 612.5c-34.5264 0 -62.5 -27.9736 -62.5 -62.5v-500c0 -34.5273 27.9727 -62.5 62.5 -62.5h250c34.5283 0 62.5 27.9717 62.5 62.5v500c0 34.5273 -27.9727 62.5 -62.5 62.5
h-250z" />
  </g>

</svg>
