<?xml version="1.0" standalone="no"?>
<!DOCTYPE svg PUBLIC "-//W3C//DTD SVG 1.1//EN" "http://www.w3.org/Graphics/SVG/1.1/DTD/svg11.dtd" >
<svg xmlns="http://www.w3.org/2000/svg" xmlns:xlink="http://www.w3.org/1999/xlink" version="1.1" viewBox="-10 0 1010 1000">
  <g transform="matrix(1 0 0 -1 0 800)">
   <path fill="currentColor"
d="M687.5 425h-62.5v125h-437.5v-500c0 -34.5273 27.9727 -62.5 62.5 -62.5h312.5c34.5283 0 62.5 27.9717 62.5 62.5v62.5h62.5h62.5v-62.5c0 -103.545 -83.9551 -187.5 -187.5 -187.5h-312.5c-103.543 0 -187.5 83.9541 -187.5 187.5v562.5v62.5h62.5h562.5h62.5v-62.5
v-187.5h-62.5zM687.5 425v62.5h187.5h62.5v-62.5v-312.5v-62.5h-62.5h-187.5v62.5v62.5h125v187.5h-125v62.5zM687.5 425h62.5v-312.5h-62.5h-62.5v312.5h62.5zM687.5 425v-62.5h125v-187.5h-125v-62.5v-62.5h187.5h62.5v62.5v312.5v62.5h-62.5h-187.5v-62.5zM687.5 425
h62.5v-312.5h-62.5h-62.5v312.5h62.5zM687.5 425h-62.5v-312.5h62.5h62.5v312.5h-62.5z" />
  </g>

</svg>
