<?xml version="1.0" standalone="no"?>
<!DOCTYPE svg PUBLIC "-//W3C//DTD SVG 1.1//EN" "http://www.w3.org/Graphics/SVG/1.1/DTD/svg11.dtd" >
<svg xmlns="http://www.w3.org/2000/svg" xmlns:xlink="http://www.w3.org/1999/xlink" version="1.1" viewBox="-10 0 1010 1000">
  <g transform="matrix(1 0 0 -1 0 800)">
   <path fill="currentColor"
d="M250 -12.5c34.5273 0 62.5 27.9727 62.5 62.5s-27.9727 62.5 -62.5 62.5s-62.5 -27.9727 -62.5 -62.5s27.9727 -62.5 62.5 -62.5zM250 -137.5c-103.543 0 -187.5 83.9541 -187.5 187.5s83.957 187.5 187.5 187.5s187.5 -83.9541 187.5 -187.5
s-83.957 -187.5 -187.5 -187.5zM687.5 -12.5c34.5283 0 62.5 27.9717 62.5 62.5s-27.9717 62.5 -62.5 62.5c-34.5273 0 -62.5 -27.9727 -62.5 -62.5s27.9727 -62.5 62.5 -62.5zM687.5 -137.5c-103.543 0 -187.5 83.9541 -187.5 187.5s83.957 187.5 187.5 187.5
c103.545 0 187.5 -83.9551 187.5 -187.5s-83.9551 -187.5 -187.5 -187.5zM375 50h62.5v437.5h-62.5h-62.5v-437.5h62.5zM812.5 50h-62.5v437.5h62.5h62.5v-437.5h-62.5zM375 487.5h-62.5v187.5v62.5h62.5h437.5h62.5v-62.5v-187.5h-62.5h-62.5v125h-312.5v-125h-62.5z
M375 487.5v62.5h437.5v-62.5v-62.5h-437.5v62.5zM812.5 50h62.5v437.5h-62.5h-62.5v-437.5h62.5zM375 487.5h-62.5v187.5v62.5h62.5h437.5h62.5v-62.5v-187.5h-62.5h-62.5v125h-312.5v-125h-62.5zM375 487.5v62.5h437.5v-62.5v-62.5h-437.5v62.5zM375 487.5h62.5v125h312.5
v-125h62.5h62.5v187.5v62.5h-62.5h-437.5h-62.5v-62.5v-187.5h62.5zM375 487.5v-62.5h437.5v62.5v62.5h-437.5v-62.5zM375 487.5v62.5h437.5v-62.5v-62.5h-437.5v62.5z" />
  </g>

</svg>
