<?xml version="1.0" standalone="no"?>
<!DOCTYPE svg PUBLIC "-//W3C//DTD SVG 1.1//EN" "http://www.w3.org/Graphics/SVG/1.1/DTD/svg11.dtd" >
<svg xmlns="http://www.w3.org/2000/svg" xmlns:xlink="http://www.w3.org/1999/xlink" version="1.1" viewBox="-10 0 1010 1000">
  <g transform="matrix(1 0 0 -1 0 800)">
   <path fill="currentColor"
d="M291.666 50h-62.5v456.151c-0.00585938 23.542 7.80762 46.4209 22.2139 65.043c14.4092 18.624 34.584 31.9287 57.3848 37.8389c22.7949 5.90625 46.8877 4.07715 68.54 -5.20801c21.625 -9.27832 39.5859 -25.501 50.9971 -46.0576l217.529 -391.586v383.817h62.5
h62.5v-456.146c0.0166016 -23.5264 -7.81641 -46.4365 -22.2051 -65.04c-14.415 -18.6348 -34.5977 -31.9414 -57.3955 -37.8467c-22.7969 -5.90918 -46.8838 -4.07324 -68.5322 5.20801c-21.6357 9.28613 -39.5713 25.4697 -51.0088 46.0664l-217.523 391.575v-383.815
h-62.5zM208.334 383.333v62.5h583.335v-62.5v-62.5h-583.335v62.5zM208.334 216.667v62.5h583.335v-62.5v-62.5h-583.335v62.5z" />
  </g>

</svg>
