<?xml version="1.0" standalone="no"?>
<!DOCTYPE svg PUBLIC "-//W3C//DTD SVG 1.1//EN" "http://www.w3.org/Graphics/SVG/1.1/DTD/svg11.dtd" >
<svg xmlns="http://www.w3.org/2000/svg" xmlns:xlink="http://www.w3.org/1999/xlink" version="1.1" viewBox="-10 0 1010 1000">
  <g transform="matrix(1 0 0 -1 0 800)">
   <path fill="currentColor"
d="M187.5 425v62.5h625v-62.5v-62.5h-625v62.5zM187.5 175v62.5h625v-62.5v-62.5h-625v62.5zM187.5 -12.5l-44.1943 44.1943l625 625l44.1943 -44.1943l44.1943 -44.1943l-625 -625zM187.5 175v-62.5h625v62.5v62.5h-625v-62.5zM187.5 -12.5l-44.1943 44.1943l625 625
l44.1943 -44.1943l44.1943 -44.1943l-625 -625zM187.5 -12.5l44.1943 -44.1943l625 625l-44.1943 44.1943l-44.1943 44.1943l-625 -625z" />
  </g>

</svg>
