<?xml version="1.0" standalone="no"?>
<!DOCTYPE svg PUBLIC "-//W3C//DTD SVG 1.1//EN" "http://www.w3.org/Graphics/SVG/1.1/DTD/svg11.dtd" >
<svg xmlns="http://www.w3.org/2000/svg" xmlns:xlink="http://www.w3.org/1999/xlink" version="1.1" viewBox="-10 0 1010 1000">
  <g transform="matrix(1 0 0 -1 0 800)">
   <path fill="currentColor"
d="M562.5 -75h-62.5v312.5v62.5h62.5h312.5v-62.5v-62.5h-250v-250h-62.5zM562.5 -75v-62.5h-437.5h-62.5v62.5v750v62.5h62.5h750h62.5v-62.5v-437.5h-62.5h-62.5v375h-625v-625h375v-62.5zM562.5 -75l-44.1943 44.1943l312.5 312.5l44.1943 -44.1943l44.1943 -44.1943
l-312.5 -312.5zM562.5 -75v62.5h-375v625h625v-375h62.5h62.5v437.5v62.5h-62.5h-750h-62.5v-62.5v-750v-62.5h62.5h437.5v62.5zM562.5 -75l-44.1943 44.1943l312.5 312.5l44.1943 -44.1943l44.1943 -44.1943l-312.5 -312.5zM562.5 -75l44.1943 -44.1943l312.5 312.5
l-44.1943 44.1943l-44.1943 44.1943l-312.5 -312.5z" />
  </g>

</svg>
