<?xml version="1.0" standalone="no"?>
<!DOCTYPE svg PUBLIC "-//W3C//DTD SVG 1.1//EN" "http://www.w3.org/Graphics/SVG/1.1/DTD/svg11.dtd" >
<svg xmlns="http://www.w3.org/2000/svg" xmlns:xlink="http://www.w3.org/1999/xlink" version="1.1" viewBox="-10 0 1010 1000">
  <g transform="matrix(1 0 0 -1 0 800)">
   <path fill="currentColor"
d="M375 550v-62.5h-187.5v-500h500v187.5h62.5h62.5v-250v-62.5h-62.5h-625h-62.5v62.5v625v62.5h62.5h250v-62.5zM718.75 425c51.7852 0 93.75 41.9648 93.75 93.75s-41.9648 93.75 -93.75 93.75s-93.75 -41.9648 -93.75 -93.75s41.9648 -93.75 93.75 -93.75zM718.75 300
c-120.803 0 -218.75 97.9473 -218.75 218.75s97.9473 218.75 218.75 218.75s218.75 -97.9473 218.75 -218.75s-97.9473 -218.75 -218.75 -218.75z" />
  </g>

</svg>
