<?xml version="1.0" standalone="no"?>
<!DOCTYPE svg PUBLIC "-//W3C//DTD SVG 1.1//EN" "http://www.w3.org/Graphics/SVG/1.1/DTD/svg11.dtd" >
<svg xmlns="http://www.w3.org/2000/svg" xmlns:xlink="http://www.w3.org/1999/xlink" version="1.1" viewBox="-10 0 1010 1000">
  <g transform="matrix(1 0 0 -1 0 800)">
   <path fill="currentColor"
d="M125 -75v62.5h137.513c-108.312 82.8613 -137.513 177.49 -137.513 312.501c0 187.467 149.648 375 375 375s375 -187.533 375 -375c0 -135.257 -29.9082 -230.183 -137.513 -312.501h137.513v-62.5v-62.5h-250h-62.5v62.5v62.5v35.3867l30.3438 18.207
c145.138 87.082 157.156 117.37 157.156 258.907c0 125.033 -100.353 250 -250 250c-149.648 0 -250 -124.967 -250 -250c0 -141.536 12.0186 -171.825 157.156 -258.907l30.3438 -18.207v-35.3867v-62.5v-62.5h-62.5h-250v62.5v0z" />
  </g>

</svg>
