<?xml version="1.0" standalone="no"?>
<!DOCTYPE svg PUBLIC "-//W3C//DTD SVG 1.1//EN" "http://www.w3.org/Graphics/SVG/1.1/DTD/svg11.dtd" >
<svg xmlns="http://www.w3.org/2000/svg" xmlns:xlink="http://www.w3.org/1999/xlink" version="1.1" viewBox="-10 0 1010 1000">
  <g transform="matrix(1 0 0 -1 0 800)">
   <path fill="currentColor"
d="M375 675v-62.5h-187.5v-625h625v187.5h62.5h62.5v-250v-62.5h-62.5h-750h-62.5v62.5v750v62.5h62.5h250v-62.5zM562.5 362.5l-44.1943 44.1943l312.5 312.5l44.1943 -44.1943l44.1943 -44.1943l-312.5 -312.5zM875 675h62.5v-250h-62.5h-62.5v250h62.5zM875 675v62.5
h-250v-62.5v-62.5h250v62.5zM562.5 362.5l44.1943 -44.1943l312.5 312.5l-44.1943 44.1943l-44.1943 44.1943l-312.5 -312.5zM875 675h62.5v-250h-62.5h-62.5v250h62.5zM875 675v-62.5h-250v62.5v62.5h250v-62.5zM875 675h-62.5v-250h62.5h62.5v250h-62.5zM875 675v62.5
h-250v-62.5v-62.5h250v62.5zM875 675v-62.5h-250v62.5v62.5h250v-62.5z" />
  </g>

</svg>
