<?xml version="1.0" standalone="no"?>
<!DOCTYPE svg PUBLIC "-//W3C//DTD SVG 1.1//EN" "http://www.w3.org/Graphics/SVG/1.1/DTD/svg11.dtd" >
<svg xmlns="http://www.w3.org/2000/svg" xmlns:xlink="http://www.w3.org/1999/xlink" version="1.1" viewBox="-10 0 1010 1000">
  <g transform="matrix(1 0 0 -1 0 800)">
   <path fill="currentColor"
d="M812.5 50h62.5v-125v-62.5h-62.5h-562.5h-62.5v62.5v125h62.5h62.5v-62.5h437.5v62.5h62.5zM125 237.5v62.5h125v-62.5v-62.5h-125v62.5zM437.5 237.5v-62.5h125v62.5v62.5h-125v-62.5zM750 237.5v62.5h125v-62.5v-62.5h-125v62.5zM437.5 237.5v62.5h125v-62.5v-62.5
h-125v62.5zM750 237.5v-62.5h125v62.5v62.5h-125v-62.5zM750 237.5v62.5h125v-62.5v-62.5h-125v62.5zM500 612.5h-187.5v-187.5h-62.5h-62.5v250v62.5h62.5h375h25.8887l18.3057 -18.3057l187.5 -187.5l18.3057 -18.3057v-25.8887v-62.5v-62.5h-62.5h-250h-62.5v62.5v187.5z
M625 586.611v-99.1113h99.1113z" />
  </g>

</svg>
