<?xml version="1.0" standalone="no"?>
<!DOCTYPE svg PUBLIC "-//W3C//DTD SVG 1.1//EN" "http://www.w3.org/Graphics/SVG/1.1/DTD/svg11.dtd" >
<svg xmlns="http://www.w3.org/2000/svg" xmlns:xlink="http://www.w3.org/1999/xlink" version="1.1" viewBox="-10 0 1010 1000">
  <g transform="matrix(1 0 0 -1 0 800)">
   <path fill="currentColor"
d="M625 550v62.5l-437.5 -0.000976562v-62.499h437.5zM750 487.5v-62.5h-62.5h-562.5h-62.5v62.5v187.499v62.5h62.5l562.5 0.000976562h62.5v-62.5v-187.5zM750 527.5v-40c34.5273 0 62.5 -27.9727 62.5 -62.5v-62.5c0 -34.5283 -27.9746 -62.5 -62.4941 -62.5h-250.006
h-62.5v-62.5v-62.5h62.5h62.5h187.506c103.542 0 187.494 83.958 187.494 187.5v62.5c0 103.543 -83.9541 187.5 -187.5 187.5v-62.5v-22.5zM500.001 -12.5v125h-62.501l0.000976562 -125h62.5zM625.001 -75v-62.5h-62.5h-187.5h-62.499l-0.000976562 62.5l-0.000976562 250
v62.5h62.5h187.501h62.5v-62.5v-250z" />
  </g>

</svg>
