<?xml version="1.0" standalone="no"?>
<!DOCTYPE svg PUBLIC "-//W3C//DTD SVG 1.1//EN" "http://www.w3.org/Graphics/SVG/1.1/DTD/svg11.dtd" >
<svg xmlns="http://www.w3.org/2000/svg" xmlns:xlink="http://www.w3.org/1999/xlink" version="1.1" viewBox="-10 0 1010 1000">
  <g transform="matrix(1 0 0 -1 0 800)">
   <path fill="currentColor"
d="M625 487.499l44.1943 -44.1943l-250 -250c-9.40137 -9.40039 -9.40332 -27.207 0.000976562 -36.6123c9.22168 -9.22168 26.5371 -9.33398 35.9893 -0.597656l249.737 270.548c46.6172 46.6191 45.8711 96.6748 0.882812 141.664
c-43.4385 43.4414 -118.167 43.4414 -161.61 -0.000976562l-250 -250c-77.4844 -77.4834 -77.4844 -209.128 0 -286.611c77.4834 -77.4844 209.128 -77.4844 286.611 0l250 249.999l44.1943 -44.1943l44.1943 -44.1943l-250 -249.998
c-126.768 -126.768 -336.622 -126.768 -463.39 0c-126.767 126.767 -126.767 336.621 0 463.389l250 250c92.7246 92.7227 245.666 92.7266 338.391 -0.000976562c90.75 -90.7529 91.3779 -225.131 0.935547 -316.614l-250.054 -270.889
c-60.2979 -60.3037 -155.592 -59.5693 -214.272 -0.882812c-58.6797 58.6836 -58.6816 154.702 0.000976562 213.386l250 250z" />
  </g>

</svg>
