<?xml version="1.0" standalone="no"?>
<!DOCTYPE svg PUBLIC "-//W3C//DTD SVG 1.1//EN" "http://www.w3.org/Graphics/SVG/1.1/DTD/svg11.dtd" >
<svg xmlns="http://www.w3.org/2000/svg" xmlns:xlink="http://www.w3.org/1999/xlink" version="1.1" viewBox="-10 0 1010 1000">
  <g transform="matrix(1 0 0 -1 0 800)">
   <path fill="currentColor"
d="M218.75 -12.5c17.2676 0 31.25 13.9844 31.25 31.25c0 17.2676 -13.9834 31.25 -31.25 31.25c-17.2676 0 -31.25 -13.9844 -31.25 -31.25c0 -17.2676 13.9834 -31.25 31.25 -31.25zM218.75 -137.5c-86.2881 0 -156.25 69.9658 -156.25 156.25
c0 86.2852 69.9629 156.25 156.25 156.25c86.2881 0 156.25 -69.9658 156.25 -156.25c0 -86.2852 -69.9629 -156.25 -156.25 -156.25zM218.75 550c17.2686 0 31.25 13.9824 31.25 31.25c0 17.2686 -13.9824 31.25 -31.25 31.25c-17.2686 0 -31.25 -13.9824 -31.25 -31.25
c0 -17.2686 13.9824 -31.25 31.25 -31.25zM218.75 425c-86.2871 0 -156.25 69.9639 -156.25 156.25c0 86.2871 69.9639 156.25 156.25 156.25c86.2871 0 156.25 -69.9639 156.25 -156.25c0 -86.2871 -69.9639 -156.25 -156.25 -156.25zM718.75 -12.5
c17.2666 0 31.25 13.9854 31.25 31.25c0 17.2666 -13.9854 31.25 -31.25 31.25c-17.2666 0 -31.25 -13.9854 -31.25 -31.25c0 -17.2666 13.9854 -31.25 31.25 -31.25zM718.75 -137.5c-86.2861 0 -156.25 69.9648 -156.25 156.25c0 86.2861 69.9648 156.25 156.25 156.25
c86.2861 0 156.25 -69.9648 156.25 -156.25c0 -86.2861 -69.9648 -156.25 -156.25 -156.25zM218.75 487.5h-62.5v-333.331h62.5h62.5v333.331h-62.5zM218.75 487.5l-61.6494 -10.2744l13.8418 -83.0508c15.0684 -90.4053 93.2939 -156.675 184.948 -156.675h237.858
c34.5273 0 62.5 -27.9727 62.5 -62.5v-62.5h62.5h62.5v62.5c0 103.543 -83.9541 187.5 -187.5 187.5h-237.858c-30.5547 0 -56.625 22.083 -61.6494 52.2256l-13.8418 83.0488z" />
  </g>

</svg>
