<?xml version="1.0" standalone="no"?>
<!DOCTYPE svg PUBLIC "-//W3C//DTD SVG 1.1//EN" "http://www.w3.org/Graphics/SVG/1.1/DTD/svg11.dtd" >
<svg xmlns="http://www.w3.org/2000/svg" xmlns:xlink="http://www.w3.org/1999/xlink" version="1.1" viewBox="-10 0 1010 1000">
  <g transform="matrix(1 0 0 -1 0 800)">
   <path fill="currentColor"
d="M500 -12.5c-172.598 0 -312.5 139.902 -312.5 312.5s139.902 312.5 312.5 312.5s312.5 -139.902 312.5 -312.5s-139.902 -312.5 -312.5 -312.5zM500 -137.5c-241.615 0 -437.5 195.885 -437.5 437.5s195.885 437.5 437.5 437.5s437.5 -195.885 437.5 -437.5
s-195.885 -437.5 -437.5 -437.5zM500 675h-62.5v-750h62.5h62.5v750h-62.5zM762.5 37.5l-44.1934 -44.1943l-218.307 218.306l-218.306 -218.306l-44.1943 44.1943l-44.1943 44.1943l262.5 262.5l44.1943 44.1943l44.1943 -44.1943l262.5 -262.5zM762.5 37.5
l44.1934 44.1943l-262.5 262.5l-44.1943 44.1943l-44.1943 -44.1943l-262.5 -262.5l44.1943 -44.1943l44.1943 -44.1943l218.307 218.306l218.306 -218.306z" />
  </g>

</svg>
