<?xml version="1.0" standalone="no"?>
<!DOCTYPE svg PUBLIC "-//W3C//DTD SVG 1.1//EN" "http://www.w3.org/Graphics/SVG/1.1/DTD/svg11.dtd" >
<svg xmlns="http://www.w3.org/2000/svg" xmlns:xlink="http://www.w3.org/1999/xlink" version="1.1" viewBox="-10 0 1010 1000">
  <g transform="matrix(1 0 0 -1 0 800)">
   <path fill="currentColor"
d="M558.334 581.25l-42.7471 45.5957l66.667 62.5l4.86816 4.56445l5.72168 3.43262c103.205 61.9248 215.159 24.3887 281.297 -41.7383c73.6758 -73.6641 111.784 -208.066 13.8027 -306.048l-46.2559 -46.2549l-44.1934 44.1953l-44.1934 44.1953l46.2559 46.2539
c34.8086 34.8086 29.375 86.0977 -13.7979 129.263c-35.6357 35.6309 -81.9316 47.7246 -123.432 25.8643l-61.2471 -57.4189zM558.334 581.25l42.7461 -45.5957l-413.58 -387.731v-160.423h161.611l404.188 404.191l44.1943 -44.1943l44.1943 -44.1943l-422.494 -422.497
l-18.3057 -18.3057h-25.8887h-250h-62.5v62.5v250v27.0771l19.7539 18.5186l433.334 406.25zM558.334 581.25l43.6855 44.6963l239.16 -233.753l-43.6855 -44.6963l-43.6865 -44.6963l-239.16 233.753zM558.334 581.25l-42.7461 45.5957l-433.334 -406.25l-19.7539 -18.5186
v-27.0771v-250v-62.5h62.5h250h25.8887l18.3057 18.3057l422.494 422.497l-44.1943 44.1943l-44.1943 44.1943l-404.188 -404.191h-161.61v160.423l413.58 387.731zM558.334 581.25l43.6855 44.6963l239.16 -233.753l-43.6855 -44.6963l-43.6865 -44.6963l-239.16 233.753z
M558.334 581.25l-43.6865 -44.6963l239.16 -233.753l43.6865 44.6963l43.6855 44.6963l-239.16 233.753z" />
  </g>

</svg>
