<?xml version="1.0" standalone="no"?>
<!DOCTYPE svg PUBLIC "-//W3C//DTD SVG 1.1//EN" "http://www.w3.org/Graphics/SVG/1.1/DTD/svg11.dtd" >
<svg xmlns="http://www.w3.org/2000/svg" xmlns:xlink="http://www.w3.org/1999/xlink" version="1.1" viewBox="-10 0 1010 1000">
  <g transform="matrix(1 0 0 -1 0 800)">
   <path fill="currentColor"
d="M312.5 -75v62.5h125v-62.5v-62.5h-125v62.5zM437.5 -75v62.5h125v-62.5v-62.5h-125v62.5zM437.5 -75h62.5v375h-62.5h-62.5v-375h62.5zM437.5 675h62.5v-62.5h-62.5h-62.5v62.5h62.5zM437.5 300l27.9521 -55.9014l375 187.501l134.958 67.4795l-143.146 47.7148
l-375 124.999l-19.7637 -59.293l-19.7646 -59.293l231.854 -77.2842l-240.042 -120.021zM437.5 300h-62.5v312.5h62.5h62.5v-312.5h-62.5zM437.5 -75v-62.5h125v62.5v62.5h-125v-62.5zM437.5 -75h-62.5v375h62.5h62.5v-375h-62.5zM437.5 675h-62.5v-62.5h62.5h62.5v62.5
h-62.5zM437.5 300l-27.9521 55.9014l240.042 120.021l-231.854 77.2842l19.7637 59.293l19.7646 59.293l375 -124.999l143.146 -47.7148l-134.958 -67.4795l-375 -187.501zM437.5 300h62.5v312.5h-62.5h-62.5v-312.5h62.5zM437.5 -75h62.5v375h-62.5h-62.5v-375h62.5z
M437.5 675h62.5v-62.5h-62.5h-62.5v62.5h62.5zM437.5 300l-27.9512 55.9014l240.042 120.021l-231.854 77.2842l19.7646 59.293l19.7637 59.293l375 -124.999l143.146 -47.7148l-134.958 -67.4795l-375 -187.501zM437.5 300h-62.5v312.5h62.5h62.5v-312.5h-62.5zM437.5 675
h-62.5v-62.5h62.5h62.5v62.5h-62.5zM437.5 300l-27.9521 55.9014l240.042 120.021l-231.854 77.2842l19.7637 59.293l19.7646 59.293l375 -124.999l143.146 -47.7148l-134.958 -67.4795l-375 -187.501zM437.5 300h62.5v312.5h-62.5h-62.5v-312.5h62.5zM437.5 300
l27.9521 -55.9014l375 187.501l134.958 67.4795l-143.146 47.7148l-375 124.999l-19.7637 -59.293l-19.7646 -59.293l231.854 -77.2842l-240.042 -120.021zM437.5 300h-62.5v312.5h62.5h62.5v-312.5h-62.5zM437.5 300h62.5v312.5h-62.5h-62.5v-312.5h62.5z" />
  </g>

</svg>
