<?xml version="1.0" standalone="no"?>
<!DOCTYPE svg PUBLIC "-//W3C//DTD SVG 1.1//EN" "http://www.w3.org/Graphics/SVG/1.1/DTD/svg11.dtd" >
<svg xmlns="http://www.w3.org/2000/svg" xmlns:xlink="http://www.w3.org/1999/xlink" version="1.1" viewBox="-10 0 1010 1000">
  <g transform="matrix(1 0 0 -1 0 800)">
   <path fill="currentColor"
d="M416.147 452.951l-79.7744 159.549h-146.789c24.3008 -358.382 251.68 -601.258 574.526 -623.362l35.0967 140.388l-155.036 38.7588l-37.4775 -37.4775l-18.3057 -18.3057h-25.8887c-106.814 0 -250 143.294 -250 250v38.627l34.5488 17.2744zM555.901 452.951
l27.9512 -55.9023l-55.9014 -27.9502l-74.2393 -37.1201c21.9346 -31.8721 62.3691 -69.9561 91.0537 -86.3242l36.04 36.04l25.0225 25.0225l34.3301 -8.58301l250 -62.5l0.600586 -0.150391l60.0332 -15.0078l-15.1582 -60.6338l-62.5 -250l-11.835 -47.3418h-48.7988
c-443.978 0 -750 346.832 -750 812.5v62.5h62.5h250h38.627l17.2744 -34.5488z" />
  </g>

</svg>
