<?xml version="1.0" standalone="no"?>
<!DOCTYPE svg PUBLIC "-//W3C//DTD SVG 1.1//EN" "http://www.w3.org/Graphics/SVG/1.1/DTD/svg11.dtd" >
<svg xmlns="http://www.w3.org/2000/svg" xmlns:xlink="http://www.w3.org/1999/xlink" version="1.1" viewBox="-10 0 1010 1000">
  <g transform="matrix(1 0 0 -1 0 800)">
   <path fill="currentColor"
d="M812.5 -12.5v625h-625v-625h625zM937.5 -75v-62.5h-62.5h-750h-62.5v62.5v750v62.5h62.5h750h62.5v-62.5v-750zM166.666 175l-44.1943 44.1943c52.4736 52.4736 238.396 248.778 238.396 248.778l47.1963 49.8428l45.2129 -51.6484s79.2744 -90.5596 155.797 -176.066
l-46.5732 -41.6797l-46.5732 -41.6797c-40.4785 45.2314 -80.8281 90.8545 -111.442 125.594c-58.752 -61.834 -155.785 -163.69 -193.623 -201.528zM687.5 112.5l44.1943 44.1953c-22.2031 22.2031 -72.2246 77.0908 -122.623 133.406l-46.5723 -41.6797l-46.5732 -41.6797
c51.21 -57.2217 100.407 -111.463 127.38 -138.437zM875 175l34.6689 52.0029l-187.5 125l-27.7158 18.4775l-30.793 -12.7061l-125.001 -51.5781l23.8398 -57.7754l23.8389 -57.7744l94.209 38.873l159.784 -106.522zM687.5 112.5l-44.1943 -44.1953
c-26.9727 26.9746 -76.1699 81.2158 -127.38 138.437l46.5732 41.6797l46.5723 41.6797c50.3984 -56.3145 100.42 -111.203 122.623 -133.406zM875 175l34.6689 52.0029l-187.5 125l-27.7158 18.4775l-30.793 -12.7061l-125.001 -51.5781l23.8398 -57.7754l23.8389 -57.7744
l94.209 38.873l159.784 -106.522zM875 175l-34.6689 -52.0029l-159.784 106.522l-94.209 -38.873l-23.8389 57.7744l-23.8398 57.7754l125.001 51.5781l30.793 12.7061l27.7158 -18.4775l187.5 -125z" />
  </g>

</svg>
