<?xml version="1.0" standalone="no"?>
<!DOCTYPE svg PUBLIC "-//W3C//DTD SVG 1.1//EN" "http://www.w3.org/Graphics/SVG/1.1/DTD/svg11.dtd" >
<svg xmlns="http://www.w3.org/2000/svg" xmlns:xlink="http://www.w3.org/1999/xlink" version="1.1" viewBox="-10 0 1010 1000">
  <g transform="matrix(1 0 0 -1 0 800)">
   <path fill="currentColor"
d="M645.831 154.169l-44.1934 44.1943l166.668 166.664c61.166 61.166 46.708 142.517 -10.2441 199.487c-53.9385 53.9561 -127.371 69.4561 -193.034 3.79199l-166.667 -166.667l-44.1943 44.1943l-44.1943 44.1943l166.667 166.667
c122.075 122.073 280.131 85.917 369.825 -3.80664c90.9717 -91 131.257 -255.223 10.2305 -376.249l-166.669 -166.666zM645.831 154.169l44.1953 -44.1943l-166.666 -166.669c-121.982 -121.981 -279.955 -86.0322 -369.708 3.55078
c-91.1494 90.9795 -131.523 255.327 -10.3467 376.506l166.666 166.666l44.1943 -44.1943l44.1943 -44.1943l-166.666 -166.666c-61.3096 -61.3105 -46.7617 -142.728 10.2637 -199.646c53.9443 -53.8428 127.369 -69.2783 193.015 -3.63379l166.664 166.668z
M645.831 154.169l-44.1943 -44.1943l-291.665 291.665l44.1943 44.1943l44.1943 44.1943l291.665 -291.665zM645.831 154.169l-44.1943 44.1934l-166.664 -166.668c-65.6455 -65.6445 -139.07 -50.209 -193.015 3.63379c-57.0254 56.918 -71.5732 138.335 -10.2637 199.646
l166.666 166.666l-44.1943 44.1943l-44.1943 44.1934l-166.666 -166.666c-121.178 -121.179 -80.8027 -285.525 10.3467 -376.506c89.7529 -89.583 247.726 -125.531 369.708 -3.55078l166.666 166.669zM645.831 154.169l-44.1943 -44.1943l-291.665 291.665
l44.1943 44.1943l44.1943 44.1943l291.665 -291.665zM645.831 154.169l44.1943 44.1943l-291.665 291.665l-44.1943 -44.1943l-44.1943 -44.1943l291.665 -291.665z" />
  </g>

</svg>
