<?xml version="1.0" standalone="no"?>
<!DOCTYPE svg PUBLIC "-//W3C//DTD SVG 1.1//EN" "http://www.w3.org/Graphics/SVG/1.1/DTD/svg11.dtd" >
<svg xmlns="http://www.w3.org/2000/svg" xmlns:xlink="http://www.w3.org/1999/xlink" version="1.1" viewBox="-10 0 1010 1000">
  <g transform="matrix(1 0 0 -1 0 800)">
   <path fill="currentColor"
d="M654.682 600.207l44.1934 -44.1943l-176.776 -176.775l-18.3057 -18.3057h-25.8887l-150.89 -0.000976562l-25.8887 -25.8887l132.583 -132.585l-44.1943 -44.1943l-44.1943 -44.1934l-176.775 176.779l-44.1943 44.1943l44.1943 44.1943l88.3887 88.3877
l18.3057 18.3057h25.8887l150.889 0.000976562l158.473 158.47zM654.682 600.207l44.1934 44.1943l-44.1943 44.1943l-44.1943 -44.1943l-44.1934 -44.1943l44.1943 -44.1943zM654.682 600.207l44.1943 44.1943l176.774 -176.776l-44.1943 -44.1943l-44.1943 -44.1943
l-176.774 176.776zM831.456 423.431l44.1943 -44.1934l-158.469 -158.472v-150.891v-25.8887l-18.3066 -18.3057l-88.3896 -88.3877l-44.1934 -44.1943l-44.1934 44.1943l-176.777 176.774l44.1934 44.1943l44.1943 44.1943l132.583 -132.582l25.8896 25.8887v150.891
v25.8877l18.3057 18.3066l176.774 176.776zM831.456 423.431l44.1943 44.1943l44.1943 -44.1943l-44.1943 -44.1943l-44.1943 -44.1943l-44.1943 44.1943zM389.515 158.263l44.1943 -44.1943l-132.583 -132.581l-44.1934 44.1943l-44.1943 44.1943l132.582 132.581z
M654.682 600.207l-44.1943 -44.1943l-44.1943 44.1943l44.1934 44.1943l44.1943 44.1943l44.1943 -44.1943zM654.682 600.207l-44.1943 -44.1943l176.774 -176.776l44.1943 44.1943l44.1943 44.1943l-176.774 176.776zM831.456 423.431l-44.1943 44.1943l-176.774 -176.776
l-18.3057 -18.3057v-25.8877v-150.892l-25.8896 -25.8887l-132.583 132.582l-44.1943 -44.1943l-44.1934 -44.1943l176.777 -176.774l44.1934 -44.1934l44.1934 44.1934l88.3896 88.3877l18.3066 18.3057v25.8887v150.891l158.469 158.472zM831.456 423.431
l-44.1943 -44.1943l44.1943 -44.1943l44.1943 44.1943l44.1943 44.1943l-44.1943 44.1943zM389.515 158.263l-44.1943 44.1943l-132.582 -132.581l44.1943 -44.1943l44.1934 -44.1943l132.583 132.581zM654.682 600.207l44.1943 44.1943l176.774 -176.776l-44.1943 -44.1943
l-44.1943 -44.1943l-176.774 176.776zM831.456 423.431l-44.1943 44.1934l-176.774 -176.776l-18.3057 -18.3066v-25.8877v-150.891l-25.8896 -25.8887l-132.583 132.582l-44.1943 -44.1943l-44.1934 -44.1943l176.777 -176.774l44.1934 -44.1943l44.1934 44.1943
l88.3896 88.3877l18.3066 18.3057v25.8887v150.891l158.469 158.472zM831.456 423.431l44.1943 44.1943l44.1943 -44.1943l-44.1943 -44.1943l-44.1943 -44.1943l-44.1943 44.1943zM389.515 158.263l44.1943 -44.1943l-132.583 -132.581l-44.1934 44.1943l-44.1943 44.1943
l132.582 132.581zM831.456 423.431l44.1943 -44.1924l-158.469 -158.472v-150.891v-25.8887l-18.3066 -18.3057l-88.3896 -88.3877l-44.1934 -44.1934l-44.1934 44.1934l-176.777 176.774l44.1934 44.1943l44.1943 44.1943l132.583 -132.582l25.8896 25.8887v150.892
v25.8877l18.3057 18.3057l176.774 176.776zM831.456 423.431l-44.1943 -44.1943l44.1943 -44.1943l44.1943 44.1943l44.1943 44.1943l-44.1943 44.1943zM389.515 158.263l-44.1943 44.1943l-132.582 -132.581l44.1943 -44.1943l44.1934 -44.1943l132.583 132.581z
M831.456 423.431l44.1943 44.1943l44.1943 -44.1943l-44.1943 -44.1943l-44.1943 -44.1943l-44.1943 44.1943zM389.515 158.263l44.1943 -44.1943l-132.583 -132.581l-44.1934 44.1943l-44.1943 44.1943l132.582 132.581zM389.515 158.263l-44.1943 44.1943
l-132.582 -132.581l44.1943 -44.1943l44.1934 -44.1943l132.583 132.581z" />
  </g>

</svg>
