<?xml version="1.0" standalone="no"?>
<!DOCTYPE svg PUBLIC "-//W3C//DTD SVG 1.1//EN" "http://www.w3.org/Graphics/SVG/1.1/DTD/svg11.dtd" >
<svg xmlns="http://www.w3.org/2000/svg" xmlns:xlink="http://www.w3.org/1999/xlink" version="1.1" viewBox="-10 0 1010 1000">
  <g transform="matrix(1 0 0 -1 0 800)">
   <path fill="currentColor"
d="M374.999 612.5h62.5v-250v-25.8877l-18.3057 -18.3066l-106.693 -106.693v-36.6123h187.5v-62.5v-62.5h-250h-62.5v62.5v125v25.8877l18.3057 18.3066l106.693 106.693v224.112h62.5zM374.999 612.5v62.5h-62.499v-62.5v-62.5h62.499v62.5zM374.999 612.5v62.5h250.001
v-62.5v-62.5h-250.001v62.5zM625 612.5h62.5l-0.000976562 -224.111l106.695 -106.693l18.3057 -18.3057v-25.8887v-125v-62.5h-62.5h-250v62.5v62.5h187.5v36.6113l-106.695 106.693l-18.3057 18.3057v25.8887l0.000976562 250h62.5zM625 612.5v62.5h62.5v-62.5v-62.5
h-62.5v62.5zM500 112.5h62.5v-187.5h-62.5h-62.5v187.5h62.5zM374.999 612.5v-62.5h-62.499v62.5v62.5h62.499v-62.5zM374.999 612.5v62.5h250.001v-62.5v-62.5h-250.001v62.5zM625 612.5h62.5l-0.000976562 -224.111l106.695 -106.694l18.3057 -18.3057v-25.8887v-125
v-62.5h-62.5h-250v62.5v62.5h187.5v36.6113l-106.695 106.694l-18.3057 18.3057v25.8887l0.000976562 250h62.5zM625 612.5v-62.5h62.5v62.5v62.5h-62.5v-62.5zM500 112.5h-62.5v-187.5h62.5h62.5v187.5h-62.5zM374.999 612.5v-62.5h250.001v62.5v62.5h-250.001v-62.5z
M625 612.5h-62.5l-0.000976562 -250v-25.8887l18.3057 -18.3057l106.695 -106.693v-36.6113h-187.5v-62.5v-62.5h250h62.5v62.5v125v25.8887l-18.3057 18.3057l-106.695 106.693l0.000976562 224.111h-62.5zM625 612.5v-62.5h62.5v62.5v62.5h-62.5v-62.5zM500 112.5h62.5
v-187.5h-62.5h-62.5v187.5h62.5zM625 612.5h-62.5l-0.000976562 -250v-25.8887l18.3057 -18.3057l106.695 -106.694v-36.6113h-187.5v-62.5v-62.5h250h62.5v62.5v125v25.8887l-18.3057 18.3057l-106.695 106.694l0.000976562 224.111h-62.5zM625 612.5v62.5h62.5v-62.5
v-62.5h-62.5v62.5zM500 112.5h-62.5v-187.5h62.5h62.5v187.5h-62.5zM625 612.5v-62.5h62.5v62.5v62.5h-62.5v-62.5zM500 112.5h62.5v-187.5h-62.5h-62.5v187.5h62.5zM500 112.5h-62.5v-187.5h62.5h62.5v187.5h-62.5z" />
  </g>

</svg>
