<?xml version="1.0" standalone="no"?>
<!DOCTYPE svg PUBLIC "-//W3C//DTD SVG 1.1//EN" "http://www.w3.org/Graphics/SVG/1.1/DTD/svg11.dtd" >
<svg xmlns="http://www.w3.org/2000/svg" xmlns:xlink="http://www.w3.org/1999/xlink" version="1.1" viewBox="-10 0 1010 1000">
  <g transform="matrix(1 0 0 -1 0 800)">
   <path fill="currentColor"
d="M218.75 143.75l53.6572 -32.0498l-57.2529 -95.8525c174.809 -64.7627 395.578 -63.6826 569.511 0.732422l-57.0088 95.0137l53.5938 32.1562l53.5938 32.1562l93.75 -156.25l34.8564 -58.0957l-60.7119 -30.0684
c-239.508 -118.617 -565.671 -120.142 -805.602 -0.643555l-60.3887 30.0762l34.5947 57.918l93.75 156.957zM218.75 143.75l-55.2354 29.2432l281.251 531.25l55.2363 104.336l55.2373 -104.336l281.248 -531.25l-55.2363 -29.2432l-55.2363 -29.2432l-226.014 426.914
l-226.015 -426.914zM218.75 143.75l24.4883 57.5029c209.184 -89.082 318.081 -94.6641 510.748 -1.2627l27.2637 -56.2402l27.2637 -56.2402c-221.255 -107.26 -386.604 -98.2061 -614.252 -1.2627zM218.75 143.75l55.2354 -29.2432l226.016 426.914l226.013 -426.914
l55.2363 29.2432l55.2363 29.2432l-281.248 531.25l-55.2373 104.336l-55.2363 -104.336l-281.251 -531.25zM218.75 143.75l-24.4883 -57.5029c227.647 -96.9434 392.997 -105.997 614.252 1.2627l-27.2637 56.2402l-27.2637 56.2402
c-192.667 -93.4014 -301.564 -87.8193 -510.748 1.2627zM218.75 143.75l24.4883 57.5029c209.184 -89.082 318.081 -94.6641 510.748 -1.2627l27.2637 -56.2402l27.2637 -56.2402c-221.255 -107.26 -386.606 -98.2061 -614.252 -1.2627z" />
  </g>

</svg>
