<?xml version="1.0" standalone="no"?>
<!DOCTYPE svg PUBLIC "-//W3C//DTD SVG 1.1//EN" "http://www.w3.org/Graphics/SVG/1.1/DTD/svg11.dtd" >
<svg xmlns="http://www.w3.org/2000/svg" xmlns:xlink="http://www.w3.org/1999/xlink" version="1.1" viewBox="-10 0 1010 1000">
  <g transform="matrix(1 0 0 -1 0 800)">
   <path fill="currentColor"
d="M720.949 456.25h91.5508c101.38 0 155.687 -88.25 155.743 -162.512c0.0566406 -73.7402 -55.9961 -149.988 -155.743 -149.988h-91.5508l-168.946 -253.419l-18.5537 -27.8311h-33.4492h-125h-77.9131l16.9014 76.0586l45.5986 205.19h-26.2539l-108.333 -81.25
l-16.667 -12.5h-20.833h-62.5h-86.7139l27.4209 82.2646l55.9121 167.735l-55.9121 167.735l-27.4209 82.2646h86.7139h62.5h20.833l16.667 -12.5l108.333 -81.25h26.2539l-45.5986 205.19l-16.9014 76.0586h77.9131h125h33.4492l18.5537 -27.8311zM687.5 331.25h-33.4492
l-18.5537 27.8311l-168.946 253.419h-13.6377l45.5986 -205.19l16.9014 -76.0586h-77.9131h-125h-20.833l-16.667 12.5l-48.2705 36.2012l20.0635 -60.1875l6.58789 -19.7637l-6.58789 -19.7646l-20.0635 -60.1875l48.2705 36.2021l16.667 12.5h20.833h125h77.9131
l-16.9014 -76.0586l-45.5986 -205.191h13.6377l168.946 253.419l18.5537 27.8311h33.4492h125c29.5918 0 30.7549 9.27246 30.7432 24.8926c-0.0175781 23.5 -14.3496 37.6074 -30.7432 37.6074h-125v-0.000976562z" />
  </g>

</svg>
