<?xml version="1.0" standalone="no"?>
<!DOCTYPE svg PUBLIC "-//W3C//DTD SVG 1.1//EN" "http://www.w3.org/Graphics/SVG/1.1/DTD/svg11.dtd" >
<svg xmlns="http://www.w3.org/2000/svg" xmlns:xlink="http://www.w3.org/1999/xlink" version="1.1" viewBox="-10 0 1010 1000">
  <g transform="matrix(1 0 0 -1 0 800)">
   <path fill="currentColor"
d="M847.61 314.697c91.2139 -24.4404 118.753 -113.201 101.442 -177.762c-17.1816 -64.085 -83.0928 -128.137 -174.806 -104.532l-601.334 144.321l-38.8623 9.32715l-7.83789 39.1904l-62.499 312.5l-25.0615 125.309l114.299 -57.1494l125 -62.5l14.8457 -7.42285
l9.20605 -13.8096l49.0977 -73.6455l23.8994 -5.97461l-0.000976562 232.452v101.129l90.4512 -45.2275l125 -62.501l27.3408 -13.6699l5.99414 -29.9746l54.5098 -272.549zM817.597 193.315l-206.114 45.6641l-39.7773 8.8125l-7.99023 39.9512l-56.5059 282.524
l-7.20801 3.60449l0.000976562 -211.373l0.000976562 -80.0488l-77.6592 19.415l-125 31.25l-23.4414 5.86035l-13.4033 20.1045l-47.9658 71.9482l28.416 -142.082l564.061 -135.378c13.3662 -3.58105 18.3535 -0.679688 22.999 14.6523
c4.91016 16.2051 0.921875 21.6963 -10.4111 25.0938zM125 -75v62.5h750v-62.5v-62.5h-750v62.5z" />
  </g>

</svg>
