<?xml version="1.0" standalone="no"?>
<!DOCTYPE svg PUBLIC "-//W3C//DTD SVG 1.1//EN" "http://www.w3.org/Graphics/SVG/1.1/DTD/svg11.dtd" >
<svg xmlns="http://www.w3.org/2000/svg" xmlns:xlink="http://www.w3.org/1999/xlink" version="1.1" viewBox="-10 0 1010 1000">
  <g transform="matrix(1 0 0 -1 0 800)">
   <path fill="currentColor"
d="M812.5 237.5l42.6318 45.7031c104.145 -97.1445 146.935 -213.289 106.854 -292.734c-1.59961 -3.13477 -3.06445 -5.66895 -4.84863 -8.43066c-4.46484 -6.91211 -9.83008 -13.1748 -15.6836 -18.5244c-102.967 -94.1143 -335.61 26.7002 -538.173 159.188
c-215.859 141.236 -433.034 353.934 -365.21 486.938c56.0146 109.86 202.354 39.7881 299.319 -2.30957l-24.8896 -57.3301l-24.8896 -57.3301c-54.335 23.5889 -98.8857 38.7676 -127.424 44.1572c31.6709 -69.418 149.516 -203.521 311.533 -309.526
c163.657 -107.041 318.937 -166.645 378.523 -168.238c-2.49902 25.9727 -21.9658 78.251 -80.376 132.735zM500 50c138.079 0 250 111.921 250 250c0 138.08 -111.921 250 -250 250c-138.08 0 -250 -111.92 -250 -250c0 -138.079 111.92 -250 250 -250zM500 -75
c-207.098 0 -375 167.903 -375 375c0 207.098 167.902 375 375 375c207.097 0 375 -167.902 375 -375c0 -207.097 -167.903 -375 -375 -375z" />
  </g>

</svg>
