<?xml version="1.0" standalone="no"?>
<!DOCTYPE svg PUBLIC "-//W3C//DTD SVG 1.1//EN" "http://www.w3.org/Graphics/SVG/1.1/DTD/svg11.dtd" >
<svg xmlns="http://www.w3.org/2000/svg" xmlns:xlink="http://www.w3.org/1999/xlink" version="1.1" viewBox="-10 0 1010 1000">
  <g transform="matrix(1 0 0 -1 0 800)">
   <path fill="currentColor"
d="M500 175h62.5c0 41.9404 1.91406 84.4316 -0.0644531 127.846l-62.4355 -2.8457l-62.4355 -2.8457c1.625 -35.6553 -0.0644531 -76.7822 -0.0644531 -122.153h62.5v-0.000976562zM500 331.25l-62.168 6.44824c0.000976562 1.72656 0.0078125 3.97754 0.0517578 6.58984
c1.23633 72.5986 47.3604 299.462 437.116 299.462h62.5v-62.5c0 -277.873 -236.281 -343.75 -437.5 -343.75v93.75zM564.825 364.934c134.682 10.8076 216.962 53.1162 240.589 150.979c-212.593 -18.5947 -234.098 -110.48 -240.589 -150.979zM500 300l62.4355 2.84375
c-0.262695 5.75684 1.63867 10.9697 -0.129883 33.333l-62.3057 -4.92676l-62.3057 -4.92676c0.379883 -4.80859 -1.16016 -6.53906 -0.129883 -29.167zM428.667 397.581c-22.7822 123.009 -71.1631 194.716 -237.062 211.76
c19.377 -143.091 96.3604 -196.178 237.062 -211.76zM562.306 336.173l5.35156 -67.7285l-67.9395 0.306641c-241.785 1.09082 -437.218 108.364 -437.218 406.249v62.5h62.5c320.055 0 420.005 -182.359 437.306 -401.327zM312.5 237.5h375h62.5v-62.5v-125
c0 -103.545 -83.9551 -187.5 -187.5 -187.5h-125c-103.543 0 -187.5 83.9541 -187.5 187.5v125v62.5h62.5zM375 112.5v-62.5c0 -34.5273 27.9727 -62.5 62.5 -62.5h125c34.5283 0 62.5 27.9717 62.5 62.5v62.5h-250zM500 331.25l-62.168 6.44824
c0.000976562 1.72656 0.0078125 3.97754 0.0517578 6.58984c1.23633 72.5986 47.3604 299.462 437.116 299.462h62.5v-62.5c0 -277.873 -236.281 -343.75 -437.5 -343.75v93.75zM564.825 364.934c134.682 10.8076 216.962 53.1162 240.589 150.979
c-212.593 -18.5947 -234.098 -110.48 -240.589 -150.979zM500 300l-62.4355 -2.84375c-1.03027 22.6279 0.509766 24.3584 0.129883 29.167l62.3057 4.92676l62.3057 4.92676c1.76855 -22.3633 -0.132812 -27.5762 0.129883 -33.333zM428.667 397.581
c-22.7822 123.009 -71.1631 194.716 -237.062 211.76c19.377 -143.091 96.3604 -196.178 237.062 -211.76zM562.306 336.173l5.35156 -67.7285l-67.9395 0.306641c-241.785 1.09082 -437.218 108.364 -437.218 406.249v62.5h62.5
c320.055 0 420.005 -182.359 437.306 -401.327zM312.5 237.5h375h62.5v-62.5v-125c0 -103.545 -83.9551 -187.5 -187.5 -187.5h-125c-103.543 0 -187.5 83.9541 -187.5 187.5v125v62.5h62.5zM375 112.5v-62.5c0 -34.5273 27.9727 -62.5 62.5 -62.5h125
c34.5283 0 62.5 27.9717 62.5 62.5v62.5h-250zM500 300l62.4355 2.84375c-0.262695 5.75684 1.63867 10.9697 -0.129883 33.333l-62.3057 -4.92676l-62.3057 -4.92676c0.379883 -4.80859 -1.16016 -6.53906 -0.129883 -29.167zM428.667 397.581
c-140.701 15.582 -217.685 68.6689 -237.062 211.76c165.897 -17.0439 214.278 -88.751 237.062 -211.76zM562.306 336.173c-17.3008 218.967 -117.251 401.327 -437.306 401.327h-62.5v-62.5c0 -297.885 195.433 -405.158 437.218 -406.249l67.9395 -0.306641zM312.5 237.5
h-62.5v-62.5v-125c0 -103.546 83.957 -187.5 187.5 -187.5h125c103.545 0 187.5 83.9551 187.5 187.5v125v62.5h-62.5h-375zM375 112.5h250v-62.5c0 -34.5283 -27.9717 -62.5 -62.5 -62.5h-125c-34.5273 0 -62.5 27.9727 -62.5 62.5v62.5zM428.667 397.581
c-22.7822 123.009 -71.1631 194.716 -237.062 211.76c19.377 -143.091 96.3604 -196.178 237.062 -211.76zM562.306 336.173l5.35156 -67.7285l-67.9395 0.306641c-241.785 1.09082 -437.218 108.364 -437.218 406.249v62.5h62.5
c320.055 0 420.005 -182.359 437.306 -401.327zM312.5 237.5h375h62.5v-62.5v-125c0 -103.545 -83.9551 -187.5 -187.5 -187.5h-125c-103.543 0 -187.5 83.9541 -187.5 187.5v125v62.5h62.5zM375 112.5v-62.5c0 -34.5273 27.9727 -62.5 62.5 -62.5h125
c34.5283 0 62.5 27.9717 62.5 62.5v62.5h-250zM312.5 237.5h-62.5v-62.5v-125c0 -103.546 83.957 -187.5 187.5 -187.5h125c103.545 0 187.5 83.9551 187.5 187.5v125v62.5h-62.5h-375zM375 112.5h250v-62.5c0 -34.5283 -27.9717 -62.5 -62.5 -62.5h-125
c-34.5273 0 -62.5 27.9727 -62.5 62.5v62.5z" />
  </g>

</svg>
