<?xml version="1.0" standalone="no"?>
<!DOCTYPE svg PUBLIC "-//W3C//DTD SVG 1.1//EN" "http://www.w3.org/Graphics/SVG/1.1/DTD/svg11.dtd" >
<svg xmlns="http://www.w3.org/2000/svg" xmlns:xlink="http://www.w3.org/1999/xlink" version="1.1" viewBox="-39 0 1039 1000">
  <g transform="matrix(1 0 0 -1 0 800)">
   <path fill="currentColor"
d="M125 -75v62.5h750v-62.5v-62.5h-750v62.5zM821.736 370.45l-134.559 -61.334l-42.2314 -19.251l-30.6387 34.8633l-190.194 216.422l-8.04492 -0.483398l105.687 -183.054l40.0244 -69.3232l-76.9609 -22.0166l-123.877 -35.4375l-23.2314 -6.64551l-21.6602 10.71
l-77.5127 38.3252l94.7168 -107.774l491.93 162.897l1.7207 0.569336l1.75 0.46875c11.8203 3.16797 14.3535 7.31152 12.3496 21.0898c-2.61035 17.9443 -11.0225 21.1836 -19.2676 19.9736zM775.777 486.874l4.72754 2.15527l5.01855 1.34473
c90.7871 24.3281 158.119 -39.0176 175.404 -103.582c17.0996 -63.8633 -7.95801 -152.049 -97.9746 -177.611l-529.686 -175.399l-39.2793 -13.0068l-27.3145 31.0801l-210.376 239.38l-84.3584 95.9893l127.561 7.65723l139.503 8.37402l16.5684 0.994141
l14.8789 -7.35645l79.3418 -39.2305l23.6855 6.77539l-116.227 201.31l-50.5645 87.5781l100.946 6.05957l139.504 8.37305l30.5127 1.83203l20.1787 -22.9619l179.735 -204.52z" />
  </g>

</svg>
