<?xml version="1.0" standalone="no"?>
<!DOCTYPE svg PUBLIC "-//W3C//DTD SVG 1.1//EN" "http://www.w3.org/Graphics/SVG/1.1/DTD/svg11.dtd" >
<svg xmlns="http://www.w3.org/2000/svg" xmlns:xlink="http://www.w3.org/1999/xlink" version="1.1" viewBox="-10 0 1010 1000">
  <g transform="matrix(1 0 0 -1 0 800)">
   <path fill="currentColor"
d="M729.169 8.33105v583.336c0 11.5117 -9.32715 20.833 -20.8379 20.833h-416.664c-11.5146 0 -20.833 -9.32715 -20.833 -20.833v-583.336c0 -11.5088 9.32812 -20.8311 20.833 -20.8311h416.664c11.5186 0 20.8379 9.33398 20.8379 20.8311zM854.169 8.33105
c0 -80.54 -65.3047 -145.831 -145.838 -145.831h-416.664c-80.543 0 -145.833 65.3027 -145.833 145.831v583.336c0 80.541 65.3008 145.833 145.833 145.833h416.664c80.54 0 145.838 -65.2979 145.838 -145.833v-583.336zM450 95.832l-125 166.668l-28.125 37.5
l28.125 37.5l125 166.666l50 66.667l50 -66.667l125 -166.666l28.125 -37.5l-28.125 -37.5l-125 -166.668l-50 -66.668zM500 237.499l46.875 62.501l-46.875 62.5l-46.875 -62.5z" />
  </g>

</svg>
