<?xml version="1.0" standalone="no"?>
<!DOCTYPE svg PUBLIC "-//W3C//DTD SVG 1.1//EN" "http://www.w3.org/Graphics/SVG/1.1/DTD/svg11.dtd" >
<svg xmlns="http://www.w3.org/2000/svg" xmlns:xlink="http://www.w3.org/1999/xlink" version="1.1" viewBox="-10 0 1010 1000">
  <g transform="matrix(1 0 0 -1 0 800)">
   <path fill="currentColor"
d="M500.001 112.5v-62.5h124.999c103.545 0 187.5 83.9551 187.5 187.5v250v62.5h-62.5h-125v-62.5v-62.5h62.5v-187.5c0 -34.5283 -27.9717 -62.5 -62.5 -62.5h-124.999v-62.5zM500.001 112.5v-62.5h-125.011c-103.542 0 -187.488 83.9551 -187.49 187.493
l0.000976562 250.007l0.000976562 62.5h62.499h125v-62.5v-62.5h-62.5l-0.000976562 -187.507c0.000976562 -34.5225 27.9717 -62.4932 62.4902 -62.4932h125.011v-62.5v0zM500.001 112.5h62.5v-62.5c0 -34.5283 27.9727 -62.5 62.499 -62.5h125v-62.5v-62.5h-125
c-103.544 0 -187.499 83.9551 -187.499 187.5v62.5h62.5zM375.001 487.5h62.5v187.5h-62.5h-62.5v-187.5h62.5zM375.001 487.5v-62.5h249.999v62.5v62.5h-249.999v-62.5zM625 487.5h-62.5v187.5h62.5h62.5v-187.5h-62.5zM500.001 112.5v62.5h-125.011
c-34.5186 0 -62.4893 27.9707 -62.4902 62.4932l0.000976562 187.507h62.5v62.5v62.5h-125h-62.499l-0.000976562 -62.5l-0.000976562 -250.007c0.00195312 -103.538 83.9482 -187.493 187.49 -187.493h125.011v62.5v0zM500.001 112.5h62.5v-62.5
c0 -34.5283 27.9727 -62.5 62.499 -62.5h125v-62.5v-62.5h-125c-103.544 0 -187.499 83.9551 -187.499 187.5v62.5h62.5zM375.001 487.5h-62.5v187.5h62.5h62.5v-187.5h-62.5zM375.001 487.5v62.5h249.999v-62.5v-62.5h-249.999v62.5zM625 487.5h62.5v187.5h-62.5h-62.5
v-187.5h62.5zM500.001 112.5h-62.5v-62.5c0 -103.545 83.9551 -187.5 187.499 -187.5h125v62.5v62.5h-125c-34.5264 0 -62.499 27.9717 -62.499 62.5v62.5h-62.5zM375.001 487.5h62.5v187.5h-62.5h-62.5v-187.5h62.5zM375.001 487.5v-62.5h249.999v62.5v62.5h-249.999v-62.5
zM625 487.5h-62.5v187.5h62.5h62.5v-187.5h-62.5zM375.001 487.5h-62.5v187.5h62.5h62.5v-187.5h-62.5zM375.001 487.5v62.5h249.999v-62.5v-62.5h-249.999v62.5zM625 487.5h62.5v187.5h-62.5h-62.5v-187.5h62.5zM375.001 487.5v62.5h249.999v-62.5v-62.5h-249.999v62.5z
M625 487.5h-62.5v187.5h62.5h62.5v-187.5h-62.5zM625 487.5h62.5v187.5h-62.5h-62.5v-187.5h62.5z" />
  </g>

</svg>
