<?xml version="1.0" standalone="no"?>
<!DOCTYPE svg PUBLIC "-//W3C//DTD SVG 1.1//EN" "http://www.w3.org/Graphics/SVG/1.1/DTD/svg11.dtd" >
<svg xmlns="http://www.w3.org/2000/svg" xmlns:xlink="http://www.w3.org/1999/xlink" version="1.1" viewBox="-10 0 1010 1000">
  <g transform="matrix(1 0 0 -1 0 800)">
   <path fill="currentColor"
d="M658.466 492.517l-26.9521 -15.8154c-11.5518 19.6865 -29.2334 35.0264 -50.3438 43.6787c-21.1123 8.65234 -44.4795 10.1348 -66.5166 4.21875c-22.0293 -5.91406 -41.5156 -18.9014 -55.4551 -36.9629c-13.9023 -18.0146 -21.4746 -39.7471 -21.6982 -62.8232
v-312.312v-3.50098l-0.472656 -4.20215c28.3311 -1.75391 56.6172 -7.31641 83.377 -16.5596l2.86914 -0.990234l2.75977 -1.26465c24.5186 -11.2334 51.1709 -17.0508 78.1338 -17.0508s53.6162 5.81738 78.1299 17.0498l26.0342 -56.8193l26.0352 -56.8193
c-40.8477 -18.7168 -85.2578 -28.4111 -130.198 -28.4111c-43.8145 0 -87.5381 9.47656 -127.086 27.0039c-25.1533 8.26758 -51.1787 11.0967 -77.3193 8.48047c-4.95996 -0.495117 -9.88867 -1.1875 -14.7764 -2.07324
c-11.7607 -2.13184 -23.5029 -5.4668 -34.7363 -9.82715c-11.9512 -7.41992 -24.9268 -13.6709 -38.1309 -18.2432l-52.1387 112.931c9.62207 5.66016 19.668 10.8545 29.8682 15.4688c3.56641 2.87598 6.90137 6.19531 9.73535 9.7373
c1.4248 1.78125 2.74512 3.63184 3.95898 5.54297c4.56055 7.18262 7.61719 15.4189 8.95801 23.6494v308.585c0.304688 50.5791 17.0332 99.0283 47.7402 138.821c30.668 39.7344 73.5264 68.3008 122.007 81.3174c48.4746 13.0117 99.8828 9.75195 146.324 -9.28223
c46.4482 -19.0361 85.3525 -52.7959 110.751 -96.0801l-53.9043 -31.6309zM579.167 258.332v-62.5h-291.667v62.5v62.5h291.667v-62.5zM579.167 258.332v62.5h-291.667v-62.5v-62.5h291.667v62.5z" />
  </g>

</svg>
