<?xml version="1.0" standalone="no"?>
<!DOCTYPE svg PUBLIC "-//W3C//DTD SVG 1.1//EN" "http://www.w3.org/Graphics/SVG/1.1/DTD/svg11.dtd" >
<svg xmlns="http://www.w3.org/2000/svg" xmlns:xlink="http://www.w3.org/1999/xlink" version="1.1" viewBox="-10 0 1010 1000">
  <g transform="matrix(1 0 0 -1 0 800)">
   <path fill="currentColor"
d="M688.17 526.122l20.1611 23.877l40.3223 47.7529c175.273 -147.998 162.493 -398.301 35.4082 -548.6c-65.8496 -77.8789 -164.894 -131.29 -284.062 -131.29c-229.398 0 -381.119 199.486 -380.989 396.312c0.0683594 101.987 41.2832 206.694 132.334 283.577
l40.3223 -47.7529l40.3223 -47.7529c-61.8359 -52.2148 -87.9326 -119.249 -87.9785 -188.154c-0.0917969 -138.583 106.826 -271.229 255.989 -271.229c80.9326 0 144.12 34.3818 188.609 86.999c89.4795 105.825 93.3682 276.149 -20.6016 372.384zM500 633.333h62.5
v-333.333h-62.5h-62.5v333.333h62.5zM500 633.333h-62.5v-333.333h62.5h62.5v333.333h-62.5z" />
  </g>

</svg>
