<?xml version="1.0" standalone="no"?>
<!DOCTYPE svg PUBLIC "-//W3C//DTD SVG 1.1//EN" "http://www.w3.org/Graphics/SVG/1.1/DTD/svg11.dtd" >
<svg xmlns="http://www.w3.org/2000/svg" xmlns:xlink="http://www.w3.org/1999/xlink" version="1.1" viewBox="-10 0 1010 1000">
  <g transform="matrix(1 0 0 -1 0 800)">
   <path fill="currentColor"
d="M250 50v-62.5h-125h-62.5v62.5v375v62.5h62.5h750h62.5v-62.5v-375v-62.5h-62.5h-125v62.5v62.5h62.5v250h-625v-250h62.5v-62.5zM687.5 425h62.5v250v62.5h-62.5h-374.997h-62.498l-0.00195312 -62.498l-0.00585938 -250l62.5 -0.00195312l62.5 -0.00195312
l0.00488281 187.502h249.998v-187.5h62.5zM750 175v-250v-62.5h-62.5h-375h-62.5v62.5v250v62.5h62.5h375h62.5v-62.5zM625 112.5h-250v-125h250v125zM687.5 425h-62.5v187.5h-249.998l-0.00488281 -187.502l-62.5 0.00195312l-62.5 0.00195312l0.00585938 250
l0.00195312 62.498h62.498h374.997h62.5v-62.5v-250h-62.5zM750 175v-250v-62.5h-62.5h-375h-62.5v62.5v250v62.5h62.5h375h62.5v-62.5zM625 112.5v-125h-250v125h250zM750 175v62.5h-62.5h-375h-62.5v-62.5v-250v-62.5h62.5h375h62.5v62.5v250zM625 112.5h-250v-125h250
v125z" />
  </g>

</svg>
