<?xml version="1.0" standalone="no"?>
<!DOCTYPE svg PUBLIC "-//W3C//DTD SVG 1.1//EN" "http://www.w3.org/Graphics/SVG/1.1/DTD/svg11.dtd" >
<svg xmlns="http://www.w3.org/2000/svg" xmlns:xlink="http://www.w3.org/1999/xlink" version="1.1" viewBox="-10 0 1010 1000">
  <g transform="matrix(1 0 0 -1 0 800)">
   <path fill="currentColor"
d="M540.534 322.066l13.5342 28.167l27.0684 56.334c62.8535 -30.2002 106.363 -94.5693 106.363 -169.067h-62.5h-6.875h-6.875h-48.75c0 24.8379 -14.4258 46.2734 -35.499 56.3984zM625 237.5v-62.5c54.7832 0 111.492 -14.2139 164.388 -39.8809
c3.81445 -1.68359 3.16992 -1.40234 5.05859 -2.41309c14.1992 -7.60059 37.1543 -20.6875 -1.86523 -93.3799c-7.28711 -13.5762 -14.4092 -24.0322 -20.79 -31.7021c-25.5098 -30.6602 -29.8926 -25.0566 -47.6074 -10.3115
c-52.3447 40.498 -89.0371 94.7705 -135.191 158.054l-50.4961 -36.8291l-50.4961 -36.8291c43.2119 -59.248 86.9756 -126.609 157.984 -181.937c64.79 -53.1553 159.619 -48.501 223.501 29.8525c12.0693 14.8047 23.0605 31.6338 33.2334 50.5869
c57.8232 107.724 39.0918 215.396 -49.2842 262.7c-3.80566 2.03809 -7.22754 3.72168 -11.4287 5.61426c-65.585 31.6113 -141.128 51.4746 -217.006 51.4746v-62.5v0zM528.881 148.271l-9.61426 29.7344c25.0625 8.10352 43.2334 31.708 43.2334 59.4932h62.5h62.5
c0 -83.4209 -54.4404 -154.071 -129.775 -178.432l-19.2285 59.4688c-0.192383 0.594727 0 0 -9.61426 29.7344zM459.466 322.066l-13.5342 28.166l-27.0684 56.334c-62.8535 -30.2002 -106.363 -94.5684 -106.363 -169.066h62.5h6.875h6.875h48.75
c0 24.8379 14.4258 46.2734 35.499 56.3984zM467.024 149.702l-10.9941 -29.252l-21.9883 -58.5039c-71.002 26.6855 -121.542 95.1982 -121.542 175.554h62.5h3.125h59.375c0 -26.7676 16.8359 -49.6436 40.5186 -58.5449zM453.271 121.918l-52.4209 27.8838
c-32.1348 -60.4092 -71.7656 -111.27 -125.043 -152.49c-17.7363 -14.7422 -22.1826 -20.4795 -47.876 10.6201c-6.30957 7.63672 -13.332 17.9893 -20.5166 31.376c-39.0225 72.7109 -16.0459 85.7959 -1.8584 93.374c1.91309 1.02148 1.19434 0.706055 5.09863 2.42578
c52.9326 25.7061 109.56 39.8916 164.345 39.8916v62.5v62.5c-75.8418 0 -151.426 -19.8701 -216.929 -51.4688c-4.11328 -1.84766 -7.61719 -3.56738 -11.4033 -5.58887c-88.498 -47.2656 -107.206 -155.021 -49.3955 -262.738
c10.1709 -18.9531 21.1592 -35.7822 33.2266 -50.5869c63.8848 -78.373 158.671 -82.9639 223.474 -29.8721c68.0996 52.9893 118.834 119.165 157.235 191.354l-55.1777 29.3525zM540.533 322.066l-13.5342 -28.167c-8.14355 3.91309 -17.1406 6.10059 -26.999 6.10059
s-18.8555 -2.1875 -26.999 -6.10059l-13.5342 28.167l-13.5352 28.167l-27.0703 56.333c24.5811 11.8125 52.2627 18.4336 81.1387 18.4336s56.5576 -6.62109 81.1387 -18.4336l-27.0703 -56.333zM445.932 350.233l51.5059 35.4023
c-40.2002 58.4873 -87.2471 128.051 -91.6045 171.656c-0.648438 4.79785 -0.59668 4.84668 -0.604492 7.52441c-0.0380859 15.082 7.74219 47.6836 94.7715 47.6836c11.0781 0 21.0713 -0.679688 29.9648 -1.86621c63.5391 -8.47656 67.0938 -31.9277 64.2021 -53.3428
c-4.3584 -43.6074 -51.4043 -113.167 -91.6055 -171.656l51.5068 -35.4014l51.5068 -35.4023c36.2666 52.7646 102.491 132.703 112.761 227.916c12.6875 99.9814 -63.8359 178.281 -174.366 192.116c-14.0635 1.75977 -28.7168 2.63672 -43.9688 2.63672
c-122.188 0 -220.052 -65.6006 -219.771 -173.01c0.0195312 -7.37109 0.443359 -13.9219 1.43652 -21.7441c10.1348 -93.9971 76.4824 -175.137 112.759 -227.915zM467.02 149.705l-10.9893 -29.2549l-21.9775 -58.5078c20.5576 -7.72266 42.8857 -11.9424 65.9473 -11.9424
c20.0127 0 39.4834 3.1748 57.71 9.06445l-19.2148 59.4727l-19.2148 59.4727c-6.02441 -1.94629 -12.4297 -3.00977 -19.2793 -3.00977c-7.8877 0 -15.1953 1.40527 -21.9932 3.95898zM625 237.5v62.5c75.8779 0 151.421 -19.8633 217.006 -51.4746
c4.20117 -1.89258 7.62305 -3.57617 11.4287 -5.61426c88.376 -47.3037 107.107 -154.977 49.2842 -262.7c-10.1729 -18.9531 -21.1641 -35.7822 -33.2334 -50.5869c-63.8818 -78.3535 -158.711 -83.0078 -223.501 -29.8525
c-71.0098 55.3262 -114.772 122.688 -157.985 181.938l50.4961 36.8291l50.4971 36.8291c46.1553 -63.2832 82.8477 -117.557 135.191 -158.055c17.7148 -14.7451 22.0977 -20.3486 47.6074 10.3115c6.38086 7.66992 13.5029 18.126 20.79 31.7021
c39.0195 72.6924 16.0645 85.7793 1.86523 93.3799c-1.88867 1.01074 -1.24414 0.729492 -5.05859 2.41309c-52.8955 25.667 -109.604 39.8809 -164.388 39.8809v62.5v0zM528.881 148.271l-9.61426 29.7344c25.0625 8.10352 43.2334 31.708 43.2334 59.4941h62.5h62.5
c0 -83.4219 -54.4404 -154.073 -129.776 -178.433l-19.2285 59.4688c-0.192383 0.595703 0 0 -9.61426 29.7354zM459.466 322.066l13.5332 -28.168c-21.0732 -10.125 -35.499 -31.5605 -35.499 -56.3984h-48.75h-6.875h-6.875h-62.5
c0 74.498 43.5098 138.867 106.363 169.067l27.0684 -56.334zM467.024 149.702l10.9941 29.2529c-23.6826 8.90137 -40.5186 31.7773 -40.5186 58.5449h-59.375h-3.125h-62.5c0 -80.3555 50.54 -148.868 121.542 -175.554l21.9883 58.5039zM453.271 121.918
l-52.4199 27.8848c-32.1357 -60.4092 -71.7656 -111.27 -125.044 -152.49c-17.7354 -14.7422 -22.1816 -20.4795 -47.876 10.6201c-6.30957 7.63672 -13.3311 17.9893 -20.5166 31.376c-39.0225 72.7109 -16.0459 85.7959 -1.8584 93.374
c1.91309 1.02148 1.19434 0.706055 5.09863 2.42578c52.9316 25.7061 109.56 39.8916 164.345 39.8916v62.5v62.5c-75.8408 0 -151.425 -19.8701 -216.929 -51.4688c-4.11328 -1.84766 -7.61719 -3.56738 -11.4033 -5.58887
c-88.4971 -47.2666 -107.205 -155.021 -49.3955 -262.739c10.1709 -18.9521 21.1602 -35.7812 33.2275 -50.5859c63.8838 -78.373 158.67 -82.9648 223.473 -29.873c68.0996 52.9902 118.835 119.165 157.236 191.354l-55.1787 29.3525zM540.533 322.066l13.5352 28.167
l27.0703 56.333c-24.5811 11.8125 -52.2627 18.4336 -81.1387 18.4336s-56.5576 -6.62109 -81.1387 -18.4336l27.0703 -56.333l13.5352 -28.167l13.5342 -28.167c8.14355 3.91309 17.1406 6.10059 26.999 6.10059s18.8555 -2.1875 26.999 -6.10059zM445.932 350.233
l-51.5068 -35.4033c-36.2764 52.7783 -102.624 133.918 -112.759 227.915c-0.993164 7.82227 -1.41699 14.373 -1.43652 21.7441c-0.280273 107.41 97.583 173.01 219.771 173.01c15.252 0 29.9053 -0.876953 43.9688 -2.63672
c110.53 -13.835 187.053 -92.1348 174.365 -192.115c-10.2695 -95.2139 -76.4932 -175.152 -112.76 -227.916l-51.5068 35.4014l-51.5068 35.4023c40.2012 58.4883 87.2471 128.048 91.6055 171.655c2.8916 21.415 -0.663086 44.8662 -64.2021 53.3428
c-8.89355 1.18652 -18.8867 1.86621 -29.9648 1.86621c-87.0293 0 -94.8105 -32.6016 -94.7715 -47.6836c0.0078125 -2.67773 -0.0439453 -2.72656 0.604492 -7.52441c4.35742 -43.6045 51.4043 -113.168 91.6045 -171.655zM467.02 149.705l10.9883 29.2539
c6.79785 -2.55371 14.1055 -3.95898 21.9932 -3.95898c6.84961 0 13.2549 1.06348 19.2793 3.00977l19.2148 -59.4727l19.2148 -59.4727c-18.2266 -5.88965 -37.6973 -9.06445 -57.71 -9.06445c-23.0615 0 -45.3896 4.21973 -65.9473 11.9424l21.9775 58.5078z
M528.881 148.271l0.000976562 -0.000976562c9.61426 -29.7344 9.42188 -29.1396 9.61426 -29.7344l19.2285 -59.4688c75.335 24.3604 129.775 95.0107 129.775 178.432h-62.5h-62.5c0 -27.7852 -18.1709 -51.3896 -43.2334 -59.4932zM459.466 322.066l13.5332 -28.168
c-21.0732 -10.125 -35.499 -31.5605 -35.499 -56.3984h-48.75h-6.875h-6.875h-62.5c0 74.498 43.5098 138.866 106.363 169.066l27.0684 -56.334zM467.024 149.702l-10.9941 -29.2529l-21.9893 -58.5039c-71.002 26.6865 -121.542 95.1992 -121.542 175.555h62.5h3.125
h59.375c0 -26.7676 16.8369 -49.6436 40.5195 -58.5449zM453.271 121.918l2.75879 -1.46777l55.1777 -29.3525c-38.4014 -72.1885 -89.1357 -138.364 -157.235 -191.354c-64.8027 -53.0918 -159.589 -48.501 -223.474 29.8721
c-12.0674 14.8047 -23.0557 31.6338 -33.2266 50.5869c-57.8105 107.718 -39.1025 215.473 49.3955 262.738c3.78613 2.02148 7.29004 3.74121 11.4033 5.58887c65.5029 31.5986 141.087 51.4688 216.929 51.4688v-62.5v-62.5
c-54.7852 0 -111.412 -14.1855 -164.345 -39.8916c-3.9043 -1.71973 -3.18555 -1.4043 -5.09863 -2.42578c-14.1875 -7.57812 -37.1641 -20.6631 1.8584 -93.374c7.18457 -13.3867 14.207 -23.7393 20.5166 -31.376c25.6934 -31.0996 30.1396 -25.3623 47.876 -10.6201
c53.2773 41.2207 92.9082 92.0811 125.043 152.49zM540.533 322.066l-13.5342 -28.167c-8.14355 3.91309 -17.1406 6.10059 -26.999 6.10059s-18.8555 -2.1875 -26.999 -6.10059l-13.5342 28.167l-13.5352 28.167l-27.0703 56.333
c24.5811 11.8125 52.2627 18.4336 81.1387 18.4336s56.5576 -6.62109 81.1387 -18.4336l-27.0703 -56.333zM445.932 350.233l51.5059 35.4023c-40.2002 58.4873 -87.2471 128.051 -91.6045 171.656c-0.648438 4.79785 -0.59668 4.84668 -0.604492 7.52441
c-0.0380859 15.082 7.74219 47.6836 94.7715 47.6836c11.0781 0 21.0713 -0.679688 29.9648 -1.86621c63.5391 -8.47656 67.0938 -31.9277 64.2021 -53.3428c-4.3584 -43.6074 -51.4043 -113.167 -91.6055 -171.656l51.5068 -35.4014l51.5068 -35.4023
c36.2666 52.7646 102.491 132.703 112.761 227.916c12.6875 99.9814 -63.8359 178.281 -174.366 192.116c-14.0635 1.75977 -28.7168 2.63672 -43.9688 2.63672c-122.188 0 -220.052 -65.6006 -219.771 -173.01c0.0195312 -7.37109 0.443359 -13.9219 1.43652 -21.7441
c10.1348 -93.9971 76.4824 -175.137 112.759 -227.915zM467.02 149.705l10.9893 29.2539c6.79785 -2.55371 14.1045 -3.95898 21.9922 -3.95898c6.84961 0 13.2549 1.06348 19.2793 3.00977l19.2158 -59.4727l19.2148 -59.4727
c-18.2266 -5.88965 -37.6973 -9.06445 -57.71 -9.06445c-23.0625 0 -45.3906 4.21973 -65.9482 11.9424l21.9775 58.5078zM459.466 322.066l-13.5342 28.167l-27.0684 56.334c-62.8535 -30.2002 -106.363 -94.5693 -106.363 -169.067h62.5h6.875h6.875h48.75
c0 24.8379 14.4258 46.2734 35.499 56.3984zM467.024 149.702l-10.9941 -29.252l-21.9883 -58.5039c-71.002 26.6855 -121.542 95.1982 -121.542 175.554h62.5h3.125h59.375c0 -26.7676 16.8359 -49.6436 40.5186 -58.5449zM453.271 121.918l-52.4199 27.8848
c-32.1357 -60.4092 -71.7656 -111.27 -125.044 -152.49c-17.7354 -14.7422 -22.1816 -20.4795 -47.876 10.6201c-6.30957 7.63672 -13.3311 17.9893 -20.5166 31.376c-39.0225 72.7109 -16.0459 85.7959 -1.8584 93.374c1.91309 1.02148 1.19434 0.706055 5.09863 2.42578
c52.9316 25.7061 109.56 39.8916 164.345 39.8916v62.5v62.5c-75.8408 0 -151.425 -19.8701 -216.929 -51.4688c-4.11328 -1.84766 -7.61719 -3.56738 -11.4033 -5.58887c-88.4971 -47.2666 -107.205 -155.021 -49.3955 -262.739
c10.1709 -18.9521 21.1602 -35.7812 33.2275 -50.5859c63.8838 -78.373 158.67 -82.9648 223.473 -29.873c68.0996 52.9902 118.835 119.165 157.236 191.354l-55.1787 29.3525zM540.533 322.066l13.5352 28.167l27.0703 56.333
c-24.5811 11.8125 -52.2627 18.4336 -81.1387 18.4336s-56.5576 -6.62109 -81.1387 -18.4336l27.0703 -56.333l13.5352 -28.167l13.5342 -28.167c8.14355 3.91309 17.1406 6.10059 26.999 6.10059s18.8555 -2.1875 26.999 -6.10059zM445.932 350.233l-51.5068 -35.4033
c-36.2764 52.7783 -102.624 133.918 -112.759 227.915c-0.993164 7.82227 -1.41699 14.373 -1.43652 21.7441c-0.280273 107.41 97.583 173.01 219.771 173.01c15.252 0 29.9053 -0.876953 43.9688 -2.63672c110.53 -13.835 187.053 -92.1348 174.365 -192.115
c-10.2695 -95.2139 -76.4932 -175.152 -112.76 -227.916l-51.5068 35.4014l-51.5068 35.4023c40.2012 58.4883 87.2471 128.048 91.6055 171.655c2.8916 21.415 -0.663086 44.8662 -64.2021 53.3428c-8.89355 1.18652 -18.8867 1.86621 -29.9648 1.86621
c-87.0293 0 -94.8105 -32.6016 -94.7715 -47.6836c0.0078125 -2.67773 -0.0439453 -2.72656 0.604492 -7.52441c4.35742 -43.6045 51.4043 -113.168 91.6045 -171.655zM467.02 149.705l10.9883 29.2539c6.79785 -2.55371 14.1055 -3.95898 21.9932 -3.95898
c6.84961 0 13.2549 1.06348 19.2793 3.00977l19.2148 -59.4727l19.2148 -59.4727c-18.2266 -5.88965 -37.6973 -9.06445 -57.71 -9.06445c-23.0615 0 -45.3896 4.21973 -65.9473 11.9424l21.9775 58.5078zM467.024 149.702l10.9941 29.2529
c-23.6826 8.90137 -40.5195 31.7773 -40.5195 58.5449h-59.375h-3.125h-62.5c0 -80.3555 50.54 -148.868 121.542 -175.555l21.9893 58.5039zM453.271 121.918l2.75879 -1.46777l55.1777 -29.3525c-38.4014 -72.1885 -89.1357 -138.364 -157.235 -191.354
c-64.8027 -53.0918 -159.589 -48.501 -223.474 29.8721c-12.0674 14.8047 -23.0557 31.6338 -33.2266 50.5869c-57.8105 107.718 -39.1025 215.473 49.3955 262.738c3.78613 2.02148 7.29004 3.74121 11.4033 5.58887c65.5029 31.5986 141.087 51.4688 216.929 51.4688
v-62.5v-62.5c-54.7852 0 -111.412 -14.1855 -164.345 -39.8916c-3.9043 -1.71973 -3.18555 -1.4043 -5.09863 -2.42578c-14.1875 -7.57812 -37.1641 -20.6631 1.8584 -93.374c7.18457 -13.3867 14.207 -23.7393 20.5166 -31.376
c25.6934 -31.0996 30.1396 -25.3623 47.876 -10.6201c53.2773 41.2207 92.9082 92.0811 125.043 152.49zM540.533 322.066l-13.5342 -28.167c-8.14355 3.91309 -17.1406 6.10059 -26.999 6.10059s-18.8555 -2.1875 -26.999 -6.10059l-13.5342 28.167l-13.5352 28.167
l-27.0703 56.333c24.5811 11.8125 52.2627 18.4336 81.1387 18.4336s56.5576 -6.62109 81.1387 -18.4336l-27.0703 -56.333zM445.932 350.233l-51.5068 -35.4023c-36.2764 52.7783 -102.624 133.918 -112.759 227.915c-0.993164 7.82227 -1.41699 14.373 -1.43652 21.7441
c-0.280273 107.409 97.583 173.01 219.771 173.01c15.252 0 29.9053 -0.876953 43.9688 -2.63672c110.53 -13.835 187.054 -92.1348 174.366 -192.116c-10.2695 -95.2129 -76.4941 -175.151 -112.761 -227.916l-51.5068 35.4023l-51.5068 35.4014
c40.2012 58.4893 87.2471 128.049 91.6055 171.656c2.8916 21.415 -0.663086 44.8662 -64.2021 53.3428c-8.89355 1.18652 -18.8867 1.86621 -29.9648 1.86621c-87.0293 0 -94.8096 -32.6016 -94.7715 -47.6836c0.0078125 -2.67773 -0.0439453 -2.72656 0.604492 -7.52441
c4.35742 -43.6055 51.4043 -113.169 91.6045 -171.656zM467.02 149.705l-10.9893 -29.2549l-21.9775 -58.5078c20.5576 -7.72266 42.8857 -11.9424 65.9482 -11.9424c20.0127 0 39.4834 3.1748 57.71 9.06445l-19.2148 59.4727l-19.2158 59.4727
c-6.02441 -1.94629 -12.4297 -3.00977 -19.2793 -3.00977c-7.8877 0 -15.1943 1.40527 -21.9922 3.95898zM453.271 121.918l2.75879 -1.4668l55.1787 -29.3525c-38.4014 -72.1895 -89.1367 -138.364 -157.236 -191.354c-64.8027 -53.0918 -159.589 -48.5 -223.473 29.873
c-12.0674 14.8047 -23.0566 31.6338 -33.2275 50.5859c-57.8096 107.719 -39.1016 215.473 49.3955 262.739c3.78613 2.02148 7.29004 3.74121 11.4033 5.58887c65.5039 31.5986 141.088 51.4688 216.929 51.4688v-62.5v-62.5
c-54.7852 0 -111.413 -14.1855 -164.345 -39.8916c-3.9043 -1.71973 -3.18555 -1.4043 -5.09863 -2.42578c-14.1875 -7.57812 -37.1641 -20.6631 1.8584 -93.374c7.18555 -13.3867 14.207 -23.7393 20.5166 -31.376c25.6943 -31.0996 30.1406 -25.3623 47.876 -10.6201
c53.2783 41.2207 92.9082 92.0811 125.044 152.49zM540.533 322.066l13.5352 28.167l27.0703 56.333c-24.5811 11.8125 -52.2627 18.4336 -81.1387 18.4336s-56.5576 -6.62109 -81.1387 -18.4336l27.0703 -56.333l13.5352 -28.167l13.5342 -28.167
c8.14355 3.91309 17.1406 6.10059 26.999 6.10059s18.8555 -2.1875 26.999 -6.10059zM445.932 350.233l51.5059 35.4023c-40.2002 58.4873 -87.2471 128.051 -91.6045 171.655c-0.648438 4.79785 -0.59668 4.84668 -0.604492 7.52441
c-0.0390625 15.082 7.74219 47.6836 94.7715 47.6836c11.0781 0 21.0713 -0.679688 29.9648 -1.86621c63.5391 -8.47656 67.0938 -31.9277 64.2021 -53.3428c-4.3584 -43.6074 -51.4043 -113.167 -91.6055 -171.655l51.5068 -35.4023l51.5068 -35.4014
c36.2666 52.7637 102.49 132.702 112.76 227.916c12.6875 99.9805 -63.835 178.28 -174.365 192.115c-14.0635 1.75977 -28.7168 2.63672 -43.9688 2.63672c-122.188 0 -220.052 -65.5996 -219.771 -173.01c0.0195312 -7.37109 0.443359 -13.9219 1.43652 -21.7441
c10.1348 -93.9971 76.4824 -175.137 112.759 -227.915zM467.02 149.705l10.9883 29.2539c6.79785 -2.55371 14.1055 -3.95898 21.9932 -3.95898c6.84961 0 13.2549 1.06348 19.2793 3.00977l19.2148 -59.4727l19.2148 -59.4727
c-18.2266 -5.88965 -37.6973 -9.06445 -57.71 -9.06445c-23.0615 0 -45.3896 4.21973 -65.9473 11.9424l21.9775 58.5078zM540.533 322.066l-13.5342 -28.167c-8.14355 3.91309 -17.1406 6.10059 -26.999 6.10059s-18.8555 -2.1875 -26.999 -6.10059l-13.5342 28.167
l-13.5352 28.167l-27.0703 56.333c24.5811 11.8125 52.2627 18.4336 81.1387 18.4336s56.5576 -6.62109 81.1387 -18.4336l-27.0703 -56.333zM445.932 350.233l-51.5068 -35.4023c-36.2764 52.7783 -102.624 133.918 -112.759 227.915
c-0.993164 7.82227 -1.41699 14.373 -1.43652 21.7441c-0.280273 107.409 97.583 173.01 219.771 173.01c15.252 0 29.9053 -0.876953 43.9688 -2.63672c110.53 -13.835 187.054 -92.1348 174.366 -192.116c-10.2695 -95.2129 -76.4941 -175.151 -112.761 -227.916
l-51.5068 35.4023l-51.5068 35.4014c40.2012 58.4893 87.2471 128.049 91.6055 171.656c2.8916 21.415 -0.663086 44.8662 -64.2021 53.3428c-8.89355 1.18652 -18.8867 1.86621 -29.9648 1.86621c-87.0293 0 -94.8096 -32.6016 -94.7715 -47.6836
c0.0078125 -2.67773 -0.0439453 -2.72656 0.604492 -7.52441c4.35742 -43.6055 51.4043 -113.169 91.6045 -171.656zM467.02 149.705l10.9893 29.2539c6.79785 -2.55371 14.1045 -3.95898 21.9922 -3.95898c6.84961 0 13.2549 1.06348 19.2793 3.00977l19.2158 -59.4727
l19.2148 -59.4727c-18.2266 -5.88965 -37.6973 -9.06445 -57.71 -9.06445c-23.0625 0 -45.3906 4.21973 -65.9482 11.9424l21.9775 58.5078zM445.932 350.233l51.5059 35.4023c-40.2002 58.4873 -87.2471 128.051 -91.6045 171.655
c-0.648438 4.79785 -0.59668 4.84668 -0.604492 7.52441c-0.0390625 15.082 7.74219 47.6836 94.7715 47.6836c11.0781 0 21.0713 -0.679688 29.9648 -1.86621c63.5391 -8.47656 67.0938 -31.9277 64.2021 -53.3428c-4.3584 -43.6074 -51.4043 -113.167 -91.6055 -171.655
l51.5068 -35.4023l51.5068 -35.4014c36.2666 52.7637 102.49 132.702 112.76 227.916c12.6875 99.9805 -63.835 178.28 -174.365 192.115c-14.0635 1.75977 -28.7168 2.63672 -43.9688 2.63672c-122.188 0 -220.052 -65.5996 -219.771 -173.01
c0.0195312 -7.37109 0.443359 -13.9219 1.43652 -21.7441c10.1348 -93.9971 76.4824 -175.137 112.759 -227.915zM467.02 149.705l-10.9893 -29.2549l-21.9775 -58.5078c20.5576 -7.72266 42.8857 -11.9424 65.9473 -11.9424c20.0127 0 39.4834 3.1748 57.71 9.06445
l-19.2148 59.4727l-19.2148 59.4727c-6.02441 -1.94629 -12.4297 -3.00977 -19.2793 -3.00977c-7.8877 0 -15.1953 1.40527 -21.9932 3.95898zM467.02 149.705l-10.9893 -29.2549l-21.9775 -58.5078c20.5576 -7.72266 42.8857 -11.9424 65.9482 -11.9424
c20.0127 0 39.4834 3.1748 57.71 9.06445l-19.2148 59.4727l-19.2158 59.4727c-6.02441 -1.94629 -12.4297 -3.00977 -19.2793 -3.00977c-7.8877 0 -15.1943 1.40527 -21.9922 3.95898z" />
  </g>

</svg>
