<?xml version="1.0" standalone="no"?>
<!DOCTYPE svg PUBLIC "-//W3C//DTD SVG 1.1//EN" "http://www.w3.org/Graphics/SVG/1.1/DTD/svg11.dtd" >
<svg xmlns="http://www.w3.org/2000/svg" xmlns:xlink="http://www.w3.org/1999/xlink" version="1.1" viewBox="-10 0 1010 1000">
  <g transform="matrix(1 0 0 -1 0 800)">
   <path fill="currentColor"
d="M500 112.5h-62.5c0 226.227 185.575 265.327 187.55 314.982c3.75977 94.5928 -34.4229 120.335 -88.2695 122.411c-1.80859 0.0703125 -3.65234 0.105469 -5.53027 0.105469c-61.3643 0 -93.75 -32.3848 -93.75 -93.75h-49.375h-13.125h-62.5
c0 126.136 92.6143 218.75 218.75 218.75c3.45898 0 6.90918 -0.0654297 10.3496 -0.198242c125.337 -4.83594 214.246 -103.992 208.352 -252.283c-7.96387 -200.346 -187.45 -181.81 -187.45 -310.019h-62.5z" />
  </g>

</svg>
