<?xml version="1.0" standalone="no"?>
<!DOCTYPE svg PUBLIC "-//W3C//DTD SVG 1.1//EN" "http://www.w3.org/Graphics/SVG/1.1/DTD/svg11.dtd" >
<svg xmlns="http://www.w3.org/2000/svg" xmlns:xlink="http://www.w3.org/1999/xlink" version="1.1" viewBox="-10 0 1010 1000">
  <g transform="matrix(1 0 0 -1 0 800)">
   <path fill="currentColor"
d="M875 550v-62.5h-166.669c-16.5742 0 -32.4678 -6.58203 -44.1934 -18.3076c-11.7197 -11.7197 -18.3047 -27.6152 -18.3047 -44.1924c0 -16.5781 6.58203 -32.4697 18.3076 -44.1943c11.7207 -11.7217 27.6172 -18.3057 44.1904 -18.3057h41.6689
c49.7266 0 97.4189 -19.7568 132.579 -54.916c35.167 -35.1631 54.9209 -82.8564 54.9209 -132.584s-19.7539 -97.416 -54.9189 -132.582c-35.1641 -35.1631 -82.8545 -54.918 -132.581 -54.918h-166.667v62.5v62.5h166.667c16.5742 0 32.4688 6.58301 44.1943 18.3076
c11.7217 11.7227 18.3057 27.6182 18.3057 44.1924c0 16.5781 -6.58398 32.4717 -18.3047 44.1914c-11.7275 11.7275 -27.6201 18.3086 -44.1953 18.3086h-41.6689c-49.7256 0 -97.418 19.7539 -132.581 54.9199c-35.1602 35.1572 -54.917 82.8525 -54.917 132.58
c0 49.7285 19.7549 97.4199 54.9189 132.583c35.1592 35.1611 82.8545 54.917 132.579 54.917h166.669v-62.5zM444.617 63.9756l-27.9502 -13.9756l-55.9014 -27.9512c-55.04 110.076 -26.1016 185.232 -131.6 209.342v-181.391h-62.5h-62.5v246.875v253.125v62.5h62.5h125
c49.7246 0 97.4229 -19.7559 132.581 -54.917c35.1641 -35.1631 54.9189 -82.8545 54.9189 -132.583c0 -49.7266 -19.7578 -97.4229 -54.916 -132.58c-8.69141 -8.69141 -19.915 -17.668 -28.7754 -23.5615c58.0996 -74.916 63.3262 -163.376 77.0928 -190.907z
M229.167 362.5h62.5c16.5762 0 32.4727 6.58496 44.1924 18.3047c11.7256 11.7256 18.3076 27.6172 18.3076 44.1953c0 16.5771 -6.58496 32.4727 -18.3047 44.1924c-11.7256 11.7256 -27.6182 18.3076 -44.1953 18.3076h-62.5v-125zM750 550h62.5v83.333h-62.5h-62.5
v-83.333h62.5zM708.331 -33.3311h-62.5v83.3311h62.5h62.5v-83.3311h-62.5z" />
  </g>

</svg>
