<?xml version="1.0" standalone="no"?>
<!DOCTYPE svg PUBLIC "-//W3C//DTD SVG 1.1//EN" "http://www.w3.org/Graphics/SVG/1.1/DTD/svg11.dtd" >
<svg xmlns="http://www.w3.org/2000/svg" xmlns:xlink="http://www.w3.org/1999/xlink" version="1.1" viewBox="-10 0 1010 1000">
  <g transform="matrix(1 0 0 -1 0 800)">
   <path fill="currentColor"
d="M531.251 81.25l-39.5977 48.3555l-114.584 -93.8311l39.5977 -48.3555l39.5977 -48.3555l114.584 93.8311zM416.667 -12.5811l39.5566 48.3887l114.583 -93.6689l-39.5566 -48.3887l-39.5566 -48.3887l-114.583 93.668zM416.667 -12.5811l-0.0107422 62.5
l371.635 0.0654297l-35.084 105.251l59.293 19.7646l59.293 19.7646l62.5 -187.5l27.416 -82.249l-86.6982 -0.015625l-458.333 -0.0810547zM416.667 -12.5811l-39.5566 -48.3896l114.583 -93.668l39.5566 48.3887l39.5566 48.3887l-114.583 93.6689zM416.667 -12.5811
l-0.0107422 62.5l371.635 0.0654297l-35.084 105.251l59.293 19.7646l59.293 19.7646l62.5 -187.5l27.416 -82.249l-86.6982 -0.015625l-458.333 -0.0810547zM416.667 -12.5811l0.0107422 -62.5l458.333 0.0810547l86.6982 0.015625l-27.416 82.249l-62.5 187.5
l-59.293 -19.7646l-59.293 -19.7646l35.084 -105.251l-371.635 -0.0654297zM375 331.249l60.6338 15.1582l-31.25 125l-60.6338 -15.1582l-60.6338 -15.1592l31.25 -125zM343.75 456.249l-27.9502 55.9014l-125 -62.498l27.9502 -55.9023l27.9502 -55.9023l125 62.499z
M343.75 456.249l56.6367 -26.4307l-177.249 -379.818h26.8633v-62.5v-62.5h-125.001h-98.1377l41.501 88.9307l218.75 468.748zM343.75 456.249l27.9502 -55.9023l-125 -62.499l-27.9502 55.9023l-27.9502 55.9023l125 62.498zM343.75 456.249l56.6367 -26.4307
l-177.249 -379.818h26.8633v-62.5v-62.5h-125.001h-98.1377l41.501 88.9307l218.75 468.748zM343.75 456.249l-56.6367 26.4297l-218.75 -468.748l-41.501 -88.9307h98.1377h125.001v62.5v62.5h-26.8633l177.249 379.818zM625 362.5l10.2764 61.6494l125 -20.8359
l-10.2764 -61.6494l-10.2764 -61.6494l-125 20.8359zM750 341.664l-60.2979 16.4443l31.25 114.586l60.2979 -16.4443l60.2979 -16.4443l-31.25 -114.586zM750 341.664l50 37.499l-249.999 333.337l-53.002 70.6699l-49.001 -73.501l-62.501 -93.751l52.0029 -34.6689
l52.0029 -34.6689l13.5 20.25l196.997 -262.666zM750 341.664l60.2979 -16.4443l31.25 114.586l-60.2979 16.4443l-60.2979 16.4443l-31.25 -114.586zM750 341.664l50 37.499l-249.999 333.337l-53.002 70.6699l-49.001 -73.501l-62.501 -93.751l52.0029 -34.6689
l52.0029 -34.6689l13.5 20.25l196.997 -262.666zM750 341.664l-50 -37.5l-196.997 262.666l-13.5 -20.25l-52.0029 34.6689l-52.0029 34.6689l62.501 93.751l49.001 73.501l53.002 -70.6699l249.999 -333.337z" />
  </g>

</svg>
