<?xml version="1.0" standalone="no"?>
<!DOCTYPE svg PUBLIC "-//W3C//DTD SVG 1.1//EN" "http://www.w3.org/Graphics/SVG/1.1/DTD/svg11.dtd" >
<svg xmlns="http://www.w3.org/2000/svg" xmlns:xlink="http://www.w3.org/1999/xlink" version="1.1" viewBox="-10 0 1010 1000">
  <g transform="matrix(1 0 0 -1 0 800)">
   <path fill="currentColor"
d="M806.005 111.078l6.49512 -2.25293l59.0479 -20.4854c-41.2285 -118.837 -176.074 -225.84 -371.548 -225.84c-206.465 0 -375 165.622 -375 371.323c0 205.698 168.534 371.322 375 371.322h223.213v-62.5v-62.5h-223.213c-138.713 0 -250 -110.905 -250 -246.322
c0 -135.421 111.287 -246.323 250 -246.323c149.702 0 232.181 80.4971 253.452 141.811zM723.213 542.646l43.9326 44.4551l-133.928 132.354l-43.9326 -44.4551l-43.9316 -44.4551l133.927 -132.354zM723.213 542.646l43.9316 -44.4561l-133.928 -132.353
l-43.9316 44.4551l-43.9316 44.4551l133.928 132.354zM723.213 542.646l43.9326 44.4551l-133.928 132.354l-43.9326 -44.4551l-43.9316 -44.4551l133.927 -132.354zM723.213 542.646l43.9316 -44.4561l-133.928 -132.353l-43.9316 44.4551l-43.9316 44.4551
l133.928 132.354zM723.213 542.646l-43.9316 44.4551l-133.928 -132.354l43.9316 -44.4551l43.9316 -44.4551l133.928 132.353z" />
  </g>

</svg>
