<?xml version="1.0" standalone="no"?>
<!DOCTYPE svg PUBLIC "-//W3C//DTD SVG 1.1//EN" "http://www.w3.org/Graphics/SVG/1.1/DTD/svg11.dtd" >
<svg xmlns="http://www.w3.org/2000/svg" xmlns:xlink="http://www.w3.org/1999/xlink" version="1.1" viewBox="-10 0 1010 1000">
  <g transform="matrix(1 0 0 -1 0 800)">
   <path fill="currentColor"
d="M791.669 91.6689h62.5c0 -38.6797 -15.3799 -75.791 -42.7188 -103.119c-27.3291 -27.3398 -64.4395 -42.7188 -103.119 -42.7188c-38.6807 0 -75.7725 15.3711 -103.12 42.7197c-27.3428 27.3428 -42.7109 64.4355 -42.7109 103.118v333.331h125v-333.331
c0 -5.53027 2.19434 -10.8242 6.10156 -14.7314c3.91504 -3.91504 9.21191 -6.10645 14.7295 -6.10645c5.53613 0 10.8008 2.17578 14.7402 6.11719c3.90527 3.90332 6.09766 9.19043 6.09766 14.7207h62.5zM791.669 425v-62.5h-583.336v62.5v62.5h583.336v-62.5z
M791.669 591.667v-62.5h-583.336v62.5v62.5h583.336v-62.5zM375 425h62.5v-166.667c0 -116.944 -35.6074 -197.311 -93.8252 -284.663l-52.0078 34.6611l-52.0078 34.6621c52.8643 79.3213 72.8408 123.956 72.8408 215.34v166.667h62.5z" />
  </g>

</svg>
