<?xml version="1.0" standalone="no"?>
<!DOCTYPE svg PUBLIC "-//W3C//DTD SVG 1.1//EN" "http://www.w3.org/Graphics/SVG/1.1/DTD/svg11.dtd" >
<svg xmlns="http://www.w3.org/2000/svg" xmlns:xlink="http://www.w3.org/1999/xlink" version="1.1" viewBox="-10 0 1010 1000">
  <g transform="matrix(1 0 0 -1 0 800)">
   <path fill="currentColor"
d="M291.667 237.5c34.5264 0 62.5 27.9736 62.5 62.5s-27.9736 62.5 -62.5 62.5c-34.5273 0 -62.5 -27.9736 -62.5 -62.5s27.9727 -62.5 62.5 -62.5zM291.667 112.5c-103.546 0 -187.5 83.957 -187.5 187.5s83.9541 187.5 187.5 187.5
c103.544 0 187.5 -83.9561 187.5 -187.5s-83.9561 -187.5 -187.5 -187.5zM708.331 445.833c34.5293 0 62.5 27.9727 62.5 62.5c0 34.5283 -27.9707 62.5 -62.5 62.5c-34.5225 0 -62.498 -27.9727 -62.498 -62.5c0 -34.5254 27.9766 -62.5 62.498 -62.5zM708.331 320.833
c-103.541 0 -187.498 83.9561 -187.498 187.5c0 103.546 83.958 187.5 187.498 187.5c103.547 0 187.5 -83.9561 187.5 -187.5c0 -103.543 -83.9521 -187.5 -187.5 -187.5zM708.331 29.1689c34.5303 0 62.5 27.9697 62.5 62.5c0 34.5234 -27.9717 62.498 -62.5 62.498
c-34.5215 0 -62.498 -27.9766 -62.498 -62.498c0 -34.5283 27.9746 -62.5 62.498 -62.5zM708.331 -95.8311c-103.539 0 -187.498 83.9521 -187.498 187.5c0 103.541 83.957 187.498 187.498 187.498c103.548 0 187.5 -83.959 187.5 -187.498
c0 -103.546 -83.9541 -187.5 -187.5 -187.5zM416.667 300v-62.5h125h30.0391l18.7656 23.457l83.333 104.166l-48.8047 39.0439l-48.8047 39.043l-64.5674 -80.71h-94.9609v-62.5zM625 195.833l48.8047 39.0439l-83.333 104.166l-48.8047 -39.043l-48.8047 -39.043
l83.333 -104.167z" />
  </g>

</svg>
