<?xml version="1.0" standalone="no"?>
<!DOCTYPE svg PUBLIC "-//W3C//DTD SVG 1.1//EN" "http://www.w3.org/Graphics/SVG/1.1/DTD/svg11.dtd" >
<svg xmlns="http://www.w3.org/2000/svg" xmlns:xlink="http://www.w3.org/1999/xlink" version="1.1" viewBox="-10 0 1010 1000">
  <g transform="matrix(1 0 0 -1 0 800)">
   <path fill="currentColor"
d="M520.833 341.667v41.666c-0.625 0 -125 0.625 -125 0v-41.666c0 -0.625 125 0 125 0zM354.167 341.979v41.3535c-0.625 0 -125 0.625 -125 0v-41.666c0 -0.625 125 0.3125 125 0.3125zM625 425h62.5v-83.333c0 -38.6797 -15.3643 -75.7686 -42.7129 -103.12
c-27.3496 -27.3486 -64.4424 -42.7139 -103.12 -42.7139c-29.7246 0 -58.9678 9.3877 -83.334 26.1523c-25.9717 -17.8701 -53.1875 -26.1523 -83.333 -26.1523c-7.1582 0 -14.8193 0.608398 -22.0957 1.68066c-4.19043 -31.6055 -18.6689 -61.1865 -41.4463 -83.959
c-27.3486 -27.3545 -64.4443 -42.7236 -103.125 -42.7236c-38.6777 0 -75.7832 15.376 -103.117 42.7168c-27.3506 27.3467 -42.7158 64.4404 -42.7158 103.119v83.333h62.5h62.5v-83.333c0 -5.52441 2.19629 -10.8232 6.09863 -14.7266
c3.92188 -3.92285 9.20898 -6.10938 14.7344 -6.10938c5.52246 0 10.8193 2.19336 14.7266 6.10254c3.91992 3.91895 6.10742 9.2041 6.10742 14.7334v57.0176v109.648h125v-41.666c0 -5.52637 2.19531 -10.8252 6.10156 -14.7314
c3.90723 -3.90723 9.20605 -6.10254 14.7314 -6.10254s10.8242 2.19531 14.7314 6.10254c1.48828 1.4873 2.71777 3.16309 3.68164 4.98535c1.57812 2.98145 2.41992 6.31445 2.41992 9.74609v41.666h125v-41.666c0 -3.43066 0.842773 -6.76367 2.41992 -9.74512
c0.963867 -1.82324 2.19434 -3.49902 3.68262 -4.98633c3.90723 -3.90723 9.20605 -6.10254 14.7314 -6.10254s10.8242 2.19531 14.7314 6.10254c3.9043 3.9043 6.10156 9.20801 6.10156 14.7314v83.332h62.5v0.000976562zM708.331 142.394v53.4375
c38.6797 0 75.7705 15.3633 103.128 42.7178c27.3408 27.3438 42.71 64.4434 42.71 103.118v41.666h62.5h62.5v-41.666c0 -71.832 -28.5322 -140.713 -79.3262 -191.511c-50.7939 -50.7881 -119.679 -79.3252 -191.512 -79.3252v71.5625v0z" />
  </g>

</svg>
