<?xml version="1.0" standalone="no"?>
<!DOCTYPE svg PUBLIC "-//W3C//DTD SVG 1.1//EN" "http://www.w3.org/Graphics/SVG/1.1/DTD/svg11.dtd" >
<svg xmlns="http://www.w3.org/2000/svg" xmlns:xlink="http://www.w3.org/1999/xlink" version="1.1" viewBox="-10 0 1010 1000">
  <g transform="matrix(1 0 0 -1 0 800)">
   <path fill="currentColor"
d="M282.388 291.528c47.6094 -20.333 88.5986 -48.0625 124.84 -84.3037c36.0771 -36.0781 64.7207 -78.9902 84.3027 -124.838c0.996094 1.5625 1.82617 2.90527 2.71973 4.39355c16.4043 27.3418 25.5664 58.418 26.6182 90.2832l1.41016 42.7119l40.3145 14.1826
c58.2998 20.5098 109.214 57.8496 146.296 107.289c36.7354 48.9814 58.2324 108.136 61.9258 168.572c-0.391602 16.0967 -6.9248 31.3477 -18.2803 42.7051c-11.4385 11.4375 -27.0273 17.9082 -42.7148 18.29c-61.2568 -3.74414 -119.63 -25.2217 -168.567 -61.9248
c-49.4443 -37.084 -86.7822 -87.9961 -107.293 -146.299l-14.1826 -40.3145l-42.7129 -1.41016c-31.8643 -1.05273 -62.9414 -10.2148 -90.2773 -26.6162c-1.45996 -0.875977 -2.94531 -1.7959 -4.39746 -2.72266zM166.667 258.333l-54.1455 31.2168
c6.18359 10.7266 12.9824 21.0449 20.3486 30.9092c24.2471 32.4668 54.6523 60.0059 89.5996 80.9766c33.624 20.1738 69.5879 33.501 108.763 40.1738c30.1074 65.3613 76.6035 123.469 135.018 167.28c69.2227 51.916 152.279 82.1396 238.68 86.8506l1.7002 0.0927734
h1.70215c49.7314 0 97.4229 -19.7559 132.586 -54.915c35.1689 -35.1758 54.9141 -82.8545 54.9141 -132.585v-1.70215l-0.0927734 -1.7002c-4.70996 -86.3984 -34.9346 -169.46 -86.8496 -238.683c-43.8174 -58.4199 -100.807 -104.396 -167.278 -135.016
c-6.44531 -37.834 -20.041 -75.208 -40.1738 -108.764c-27.3438 -45.5684 -65.8467 -83.4062 -111.889 -109.948l-82.0938 -47.3252l-11.1836 94.0957c-7.17383 60.3643 -34.4473 116.559 -77.4336 159.546c-39.8027 39.8037 -90.9404 66.1377 -146.221 75.5117
c-4.41602 0.749023 -8.8584 1.38965 -13.3252 1.91992zM409.863 95.5088l6.80371 -3.83984l54.4268 -30.7246c-30.6035 -54.2129 -76.6992 -98.041 -132.371 -125.881c-55.6846 -27.8418 -118.402 -38.418 -180.135 -30.3701l-47.6846 6.21582l-6.21289 47.6846
c-8.04199 61.7275 2.53516 124.447 30.3721 180.124c27.8389 55.6826 71.6738 101.772 125.878 132.374l30.7266 -54.4248l30.7266 -54.4258c-32.5264 -18.3633 -58.8242 -46.0166 -75.5264 -79.4219c-8.4082 -16.8184 -14.3301 -35.4844 -17.2773 -53.2305
c18.5957 3.08789 36.3389 8.83203 53.2236 17.2744c33.4111 16.708 61.0654 43.0039 79.4268 75.5303zM625 320.834c-57.5469 0 -104.167 46.6455 -104.167 104.167c0 57.5479 46.6475 104.166 104.167 104.166c57.5459 0 104.169 -46.6426 104.169 -104.166
c0 -57.5508 -46.6494 -104.167 -104.169 -104.167z" />
  </g>

</svg>
