<?xml version="1.0" standalone="no"?>
<!DOCTYPE svg PUBLIC "-//W3C//DTD SVG 1.1//EN" "http://www.w3.org/Graphics/SVG/1.1/DTD/svg11.dtd" >
<svg xmlns="http://www.w3.org/2000/svg" xmlns:xlink="http://www.w3.org/1999/xlink" version="1.1" viewBox="-10 0 1010 1000">
  <g transform="matrix(1 0 0 -1 0 800)">
   <path fill="currentColor"
d="M625 258.333h-62.5v83.334h62.5h62.5v-83.334h-62.5zM750 456.25l-27.9434 -55.9053l-13.2002 6.59766c-52.7998 26.4004 -114.923 26.3984 -167.711 0.00390625l-13.2012 -6.59961l-27.9473 55.9033l-27.9482 55.9033l13.1943 6.5957
c87.9756 43.9883 191.539 43.9863 279.5 0.00390625l13.2002 -6.59766zM381.398 543.586l-6.40234 6.41406l-44.1533 44.2354c4.86328 4.85352 112.165 112.015 294.152 112.015c181.986 0 289.289 -107.161 294.151 -112.015l-44.1533 -44.2354l-44.1533 -44.2354
c-2.1377 2.05859 -81.2627 75.4854 -205.845 75.4854c-124.601 0 -203.692 -73.4229 -205.844 -75.4893zM937.5 237.5v-312.5v-62.5h-62.5h-750h-62.5v62.5v312.5v62.5h62.5h750h62.5v-62.5zM812.5 175v-187.5h-625v187.5h625zM625 258.333h-62.5v83.334h62.5h62.5v-83.334
h-62.5zM750 456.25l27.9434 55.9053l-13.2002 6.59766c-87.9609 43.9824 -191.524 43.9844 -279.5 -0.00390625l-13.1943 -6.5957l27.9482 -55.9033l27.9473 -55.9033l13.2012 6.59961c52.7881 26.3945 114.911 26.3965 167.711 -0.00390625l13.2002 -6.59766z
M381.398 543.586l-6.40234 6.41406l-44.1533 44.2354c4.86328 4.85352 112.165 112.015 294.152 112.015c181.986 0 289.289 -107.161 294.151 -112.015l-44.1533 -44.2354l-44.1533 -44.2354c-2.1377 2.05859 -81.2627 75.4854 -205.845 75.4854
c-124.601 0 -203.692 -73.4229 -205.844 -75.4893zM937.5 237.5v62.5h-62.5h-750h-62.5v-62.5v-312.5v-62.5h62.5h750h62.5v62.5v312.5zM812.5 175h-625v-187.5h625v187.5zM625 258.333h62.5v83.334h-62.5h-62.5v-83.334h62.5zM750 456.25l-27.9434 -55.9053
l-13.2002 6.59766c-52.7998 26.4004 -114.923 26.3984 -167.711 0.00390625l-13.2012 -6.59961l-27.9473 55.9033l-27.9482 55.9033l13.1943 6.5957c87.9756 43.9883 191.539 43.9863 279.5 0.00390625l13.2002 -6.59766zM381.398 543.586l-6.40137 6.41406
l-44.1533 44.2354c4.8623 4.85449 112.165 112.016 294.152 112.016c181.986 0 289.289 -107.163 294.151 -112.016l-44.1533 -44.2354l-44.1533 -44.2354c-2.1377 2.05859 -81.2627 75.4854 -205.845 75.4854c-124.6 0 -203.692 -73.4229 -205.843 -75.4893zM937.5 237.5
v-312.5v-62.5h-62.5h-750h-62.5v62.5v312.5v62.5h62.5h750h62.5v-62.5zM812.5 175v-187.5h-625v187.5h625zM750 456.25l27.9434 55.9053l-13.2002 6.59766c-87.9609 43.9824 -191.524 43.9844 -279.5 -0.00390625l-13.1943 -6.5957l27.9482 -55.9033l27.9473 -55.9033
l13.2012 6.59961c52.7881 26.3945 114.911 26.3965 167.711 -0.00390625l13.2002 -6.59766zM381.398 543.586l37.7529 -37.8252c2.15137 2.06641 81.2432 75.4893 205.844 75.4893c124.582 0 203.707 -73.4268 205.845 -75.4854l44.1533 44.2354l44.1533 44.2354
c-4.8623 4.85352 -112.165 112.015 -294.151 112.015c-181.987 0 -289.289 -107.161 -294.152 -112.015l44.1533 -44.2354zM937.5 237.5v62.5h-62.5h-750h-62.5v-62.5v-312.5v-62.5h62.5h750h62.5v62.5v312.5zM812.5 175h-625v-187.5h625v187.5zM381.398 543.586
l37.7549 -37.8252c2.15039 2.06641 81.2432 75.4893 205.843 75.4893c124.582 0 203.707 -73.4268 205.845 -75.4854l44.1533 44.2354l44.1533 44.2354c-4.8623 4.85254 -112.165 112.016 -294.151 112.016c-181.987 0 -289.29 -107.161 -294.152 -112.016l44.1533 -44.2354
zM937.5 237.5v-312.5v-62.5h-62.5h-750h-62.5v62.5v312.5v62.5h62.5h750h62.5v-62.5zM812.5 175v-187.5h-625v187.5h625zM937.5 237.5v62.5h-62.5h-750h-62.5v-62.5v-312.5v-62.5h62.5h750h62.5v62.5v312.5zM812.5 175h-625v-187.5h625v187.5z" />
  </g>

</svg>
