<?xml version="1.0" standalone="no"?>
<!DOCTYPE svg PUBLIC "-//W3C//DTD SVG 1.1//EN" "http://www.w3.org/Graphics/SVG/1.1/DTD/svg11.dtd" >
<svg xmlns="http://www.w3.org/2000/svg" xmlns:xlink="http://www.w3.org/1999/xlink" version="1.1" viewBox="-10 0 1010 1000">
  <g transform="matrix(1 0 0 -1 0 800)">
   <path fill="currentColor"
d="M270.833 404.167v187.5v62.5h62.5h250c49.7246 0 97.4287 -19.7598 132.578 -54.916c35.167 -35.1641 54.9199 -82.8574 54.9199 -132.584c0 -49.7246 -19.7598 -97.4268 -54.9131 -132.578c-35.1631 -35.1699 -82.8584 -54.9219 -132.585 -54.9219h-187.5v-270.836
h-62.5h-62.5v270.836h-20.833v62.5v62.5h20.833zM395.833 404.167h187.5c16.5791 0 32.4746 6.58594 44.1865 18.3008c11.7334 11.7324 18.3115 27.6191 18.3115 44.1992c0 16.5762 -6.58398 32.4727 -18.3047 44.1924c-11.7256 11.7275 -27.6123 18.3076 -44.1934 18.3076
h-187.5v-125zM583.333 175v-62.5h-333.333v62.5v62.5h333.333v-62.5z" />
  </g>

</svg>
