<?xml version="1.0" standalone="no"?>
<!DOCTYPE svg PUBLIC "-//W3C//DTD SVG 1.1//EN" "http://www.w3.org/Graphics/SVG/1.1/DTD/svg11.dtd" >
<svg xmlns="http://www.w3.org/2000/svg" xmlns:xlink="http://www.w3.org/1999/xlink" version="1.1" viewBox="-10 0 1010 1000">
  <g transform="matrix(1 0 0 -1 0 800)">
   <path fill="currentColor"
d="M416.666 654.167c0 0 0.682617 -125 0.0576172 -125h-125.058c-0.625 0 0 124.375 0 125h125zM750 591.667v-62.5h-129.209c16.9893 -33.4443 25.042 -67.3682 25.042 -104.167c0 -60.7793 -24.1436 -119.067 -67.1211 -162.046
c-37.2471 -37.2471 -86.2607 -60.1748 -137.478 -65.8018l144.626 -144.627l-44.1943 -44.1943l-44.1943 -44.1934l-250 250.001l-106.693 106.693h150.888h125c27.6279 0 54.123 10.9746 73.6572 30.5107c19.5342 19.5342 30.5098 46.0303 30.5098 73.6562
c0 27.627 -10.9746 54.123 -30.5098 73.6582c-5.85254 5.85254 -12.3262 10.9336 -19.2695 15.1836c-16.2422 9.94141 -35.0352 15.3252 -54.3877 15.3252h-125v125h227.604h230.729v-62.499zM291.666 425v62.5h458.334v-62.5v-62.5h-458.334v62.5z" />
  </g>

</svg>
