<?xml version="1.0" standalone="no"?>
<!DOCTYPE svg PUBLIC "-//W3C//DTD SVG 1.1//EN" "http://www.w3.org/Graphics/SVG/1.1/DTD/svg11.dtd" >
<svg xmlns="http://www.w3.org/2000/svg" xmlns:xlink="http://www.w3.org/1999/xlink" version="1.1" viewBox="-10 0 1010 1000">
  <g transform="matrix(1 0 0 -1 0 800)">
   <path fill="currentColor"
d="M916.669 -33.3311l50.7686 -36.4521c-15.376 -21.415 -35.7363 -38.7852 -59.3438 -50.585c-23.3496 -11.6787 -47.4883 -17.3701 -74.7627 -17.1416c-25.6104 -0.214844 -51.4277 5.47266 -74.7715 17.1494c-23.5742 11.7832 -43.957 29.1553 -59.3389 50.5908
c-3.53711 4.92676 -8.24512 8.94434 -13.7002 11.6729c-5.42383 2.71094 -12.3564 4.05176 -18.8516 3.91406c-6.50781 0.137695 -13.4229 -1.19727 -18.874 -3.92285c-5.43262 -2.7168 -10.1426 -6.73242 -13.6875 -11.6709
c-15.3799 -21.4248 -35.7432 -38.793 -59.3486 -50.5918c-23.3486 -11.6787 -47.4863 -17.3701 -74.7588 -17.1416c-25.6133 -0.214844 -51.4316 5.47363 -74.7734 17.1484c-23.582 11.7871 -43.958 29.1621 -59.335 50.5859
c-3.54688 4.94043 -8.24316 8.94629 -13.7021 11.6777c-5.42773 2.71289 -12.3555 4.05273 -18.8564 3.91504c-6.49902 0.137695 -13.4287 -1.20215 -18.8633 -3.91895c-5.44727 -2.72461 -10.1523 -6.7373 -13.6963 -11.6748
c-15.376 -21.4229 -35.7441 -38.7939 -59.3496 -50.5928c-23.3457 -11.6768 -47.4854 -17.3691 -74.7578 -17.1406c-25.6123 -0.214844 -51.4316 5.47363 -74.7744 17.1494c-23.5801 11.7861 -43.9561 29.1621 -59.332 50.583l101.547 72.8916
c3.55566 -4.95312 8.24609 -8.95215 13.7031 -11.6797c5.43262 -2.71777 12.3301 -4.05664 18.8564 -3.9209c6.53027 -0.135742 13.4111 1.19727 18.873 3.92969c5.43359 2.71582 10.1318 6.71875 13.6855 11.6699c15.3887 21.4395 35.7451 38.7842 59.3496 50.5918
c23.3203 11.6562 49.1523 17.3584 74.7588 17.1367c27.2627 0.236328 51.4033 -5.46191 74.7744 -17.1445c23.5801 -11.7939 43.9482 -29.1494 59.334 -50.584c3.55273 -4.95117 8.24414 -8.95117 13.6992 -11.6777c5.4375 -2.71875 12.332 -4.05762 18.8594 -3.92188
c6.5293 -0.135742 13.4121 1.19824 18.8721 3.92871c5.43262 2.71582 10.1348 6.72168 13.6865 11.6709c15.3877 21.4375 35.7432 38.7832 59.3477 50.5918c23.3223 11.6572 49.1562 17.3584 74.7627 17.1367c27.2598 0.236328 51.3984 -5.46094 74.7734 -17.1455
c23.582 -11.7969 43.9365 -29.1406 59.3369 -50.5898c3.54395 -4.93848 8.23535 -8.94141 13.6982 -11.6719c5.43262 -2.71777 12.333 -4.05664 18.8535 -3.9209c6.5332 -0.135742 13.417 1.19824 18.876 3.92871c5.42969 2.71484 10.1318 6.71875 13.6924 11.6787z
M166.667 50l-59.293 -19.7646l-41.667 125l-27.4209 82.2646h86.7139h750h86.7158l-27.4238 -82.2646l-41.668 -125l-59.293 19.7646l-59.292 19.7646l14.2451 42.7354h-576.57l14.2461 -42.7354zM520.833 362.5h101.377l-101.377 130.342v-130.342zM458.333 237.5h-62.5
v62.5v375v182.158l111.835 -143.787l291.667 -375l78.4551 -100.871h-127.79h-291.667zM333.333 508.333l58.0303 -23.2119l-83.333 -208.334l-58.0303 23.2119l-58.0303 23.2119l83.334 208.334z" />
  </g>

</svg>
