<?xml version="1.0" standalone="no"?>
<!DOCTYPE svg PUBLIC "-//W3C//DTD SVG 1.1//EN" "http://www.w3.org/Graphics/SVG/1.1/DTD/svg11.dtd" >
<svg xmlns="http://www.w3.org/2000/svg" xmlns:xlink="http://www.w3.org/1999/xlink" version="1.1" viewBox="-10 0 1010 1000">
  <g transform="matrix(1 0 0 -1 0 800)">
   <path fill="currentColor"
d="M750 70.8311c11.5117 0 20.8311 9.32422 20.8311 20.8379c0 11.5117 -9.32617 20.8311 -20.8311 20.8311c-11.5137 0 -20.8311 -9.32812 -20.8311 -20.8311c0 -11.5225 9.32812 -20.8379 20.8311 -20.8379zM750 -54.1689c-80.5479 0 -145.831 65.3096 -145.831 145.838
c0 80.5332 65.2939 145.831 145.831 145.831c80.5459 0 145.831 -65.3066 145.831 -145.831c0 -80.5371 -65.292 -145.838 -145.831 -145.838zM250 70.8311c11.5117 0 20.833 9.32715 20.833 20.8379c0 11.5088 -9.32812 20.8311 -20.833 20.8311
c-11.5137 0 -20.834 -9.33105 -20.834 -20.8311c0 -11.5195 9.33105 -20.8379 20.834 -20.8379zM250 -54.1689c-80.5439 0 -145.834 65.3057 -145.834 145.838c0 80.5371 65.3008 145.831 145.834 145.831c80.543 0 145.833 -65.3027 145.833 -145.831
c0 -80.54 -65.2979 -145.838 -145.833 -145.838zM333.334 91.6689v-62.5h208.333h53.4775l8.27051 52.834c6.1416 39.2344 24.5811 75.5059 52.6621 103.587c28.082 28.0811 64.3545 46.5215 103.587 52.6621l52.8359 8.26855v53.4795v208.334
c0 38.6826 -15.3584 75.7598 -42.7158 103.124c-27.3486 27.3428 -64.4385 42.709 -103.115 42.709h-41.6689v-62.5v-62.5h41.6689c5.52148 0 10.8213 -2.19238 14.7354 -6.10645c3.8916 -3.89258 6.0957 -9.20801 6.0957 -14.7266v-159.652
c-44.6328 -15.3662 -85.8906 -40.7842 -119.811 -74.7031c-33.9463 -33.9463 -58.9043 -73.918 -74.7041 -119.81h-159.651v-62.5z" />
  </g>

</svg>
