<?xml version="1.0" standalone="no"?>
<!DOCTYPE svg PUBLIC "-//W3C//DTD SVG 1.1//EN" "http://www.w3.org/Graphics/SVG/1.1/DTD/svg11.dtd" >
<svg xmlns="http://www.w3.org/2000/svg" xmlns:xlink="http://www.w3.org/1999/xlink" version="1.1" viewBox="-10 0 1010 1000">
  <g transform="matrix(1 0 0 -1 0 800)">
   <path fill="currentColor"
d="M875 -75l-43.7412 -44.6426l-218.75 214.331l43.7412 44.6426l43.7412 44.6426l218.75 -214.331zM812.5 362.5c0 -207.098 -167.902 -375 -375 -375s-375 167.902 -375 375s167.902 375 375 375s375 -167.902 375 -375zM687.5 362.5c0 -138.08 -111.92 -250 -250 -250
s-250 111.92 -250 250s111.92 250 250 250s250 -111.92 250 -250zM812.5 362.5c0 207.098 -167.902 375 -375 375s-375 -167.902 -375 -375s167.902 -375 375 -375s375 167.902 375 375zM687.5 362.5c0 138.08 -111.92 250 -250 250s-250 -111.92 -250 -250
s111.92 -250 250 -250s250 111.92 250 250z" />
  </g>

</svg>
