<?xml version="1.0" standalone="no"?>
<!DOCTYPE svg PUBLIC "-//W3C//DTD SVG 1.1//EN" "http://www.w3.org/Graphics/SVG/1.1/DTD/svg11.dtd" >
<svg xmlns="http://www.w3.org/2000/svg" xmlns:xlink="http://www.w3.org/1999/xlink" version="1.1" viewBox="-10 0 1010 1000">
  <g transform="matrix(1 0 0 -1 0 800)">
   <path fill="currentColor"
d="M250 50h-62.5v500v62.5h62.5h166.667c60.7793 0 119.066 -24.1436 162.046 -67.1221c42.9756 -42.9766 67.1201 -101.266 67.1201 -162.045v-166.666h-62.5h-62.5v166.666c0 27.627 -10.9746 54.1221 -30.5098 73.6582
c-19.5332 19.5322 -46.0312 30.5088 -73.6562 30.5088h-104.167v-437.5h-62.5v0zM750 550h62.5v-500v-62.5h-62.5h-166.667c-60.7832 0 -119.061 24.1426 -162.047 67.1191c-42.9756 42.9766 -67.1201 101.268 -67.1201 162.048v166.666h62.5h62.5v-166.666
c0 -27.6279 10.9766 -54.126 30.5107 -73.6611c19.5273 -19.5234 46.0352 -30.5059 73.6562 -30.5059h104.167v437.5h62.5z" />
  </g>

</svg>
