<?xml version="1.0" standalone="no"?>
<!DOCTYPE svg PUBLIC "-//W3C//DTD SVG 1.1//EN" "http://www.w3.org/Graphics/SVG/1.1/DTD/svg11.dtd" >
<svg xmlns="http://www.w3.org/2000/svg" xmlns:xlink="http://www.w3.org/1999/xlink" version="1.1" viewBox="-10 0 1010 1000">
  <g transform="matrix(1 0 0 -1 0 800)">
   <path fill="currentColor"
d="M312.5 487.5l-44.1943 44.1943l187.5 187.5l44.1943 44.1943l44.1943 -44.1943l187.5 -187.5l-44.1943 -44.1943l-44.1943 -44.1943l-143.306 143.306l-143.307 -143.306zM687.5 112.5l-44.1934 44.1943l-143.307 -143.306l-143.306 143.306l-44.1943 -44.1943
l-44.1943 -44.1943l187.5 -187.5l44.1943 -44.1943l44.1943 44.1943l187.5 187.5zM687.5 112.5l44.1934 -44.1943l-187.5 -187.5l-44.1943 -44.1943l-44.1943 44.1943l-187.5 187.5l44.1943 44.1943l44.1943 44.1943l143.307 -143.306l143.306 143.306z" />
  </g>

</svg>
