<?xml version="1.0" standalone="no"?>
<!DOCTYPE svg PUBLIC "-//W3C//DTD SVG 1.1//EN" "http://www.w3.org/Graphics/SVG/1.1/DTD/svg11.dtd" >
<svg xmlns="http://www.w3.org/2000/svg" xmlns:xlink="http://www.w3.org/1999/xlink" version="1.1" viewBox="-10 0 1010 1000">
  <g transform="matrix(1 0 0 -1 0 800)">
   <path fill="currentColor"
d="M875 675v-750v-62.5h-62.5h-625h-62.5v62.5v750v62.5h62.5h625h62.5v-62.5zM750 612.5v-625h-500v625h500zM687.5 206.25c0 103.542 -83.9512 187.5 -187.497 187.5c-103.545 0 -187.5 -83.957 -187.5 -187.5c0 -103.546 83.9561 -187.5 187.5 -187.5
c103.545 0 187.497 83.9561 187.497 187.5zM562.5 206.25c0 34.5283 -27.9727 62.5 -62.4971 62.5c-34.5273 0 -62.5 -27.9736 -62.5 -62.5c0 -34.5283 27.9717 -62.5 62.5 -62.5c34.5254 0 62.4971 27.9697 62.4971 62.5zM875 675v62.5h-62.5h-625h-62.5v-62.5v-750v-62.5
h62.5h625h62.5v62.5v750zM750 612.5h-500v-625h500v625zM687.5 206.25c0 -103.544 -83.9521 -187.5 -187.497 -187.5c-103.544 0 -187.5 83.9541 -187.5 187.5c0 103.543 83.9551 187.5 187.5 187.5c103.546 0 187.497 -83.958 187.497 -187.5zM562.5 206.25
c0 34.5283 -27.9727 62.5 -62.4971 62.5c-34.5273 0 -62.5 -27.9736 -62.5 -62.5c0 -34.5283 27.9717 -62.5 62.5 -62.5c34.5254 0 62.4971 27.9697 62.4971 62.5zM687.5 206.25c0 -103.544 -83.9521 -187.5 -187.497 -187.5c-103.544 0 -187.5 83.9541 -187.5 187.5
c0 103.543 83.9551 187.5 187.5 187.5c103.546 0 187.497 -83.958 187.497 -187.5zM562.5 206.25c0 -34.5303 -27.9717 -62.5 -62.4971 -62.5c-34.5283 0 -62.5 27.9717 -62.5 62.5c0 34.5264 27.9727 62.5 62.5 62.5c34.5244 0 62.4971 -27.9717 62.4971 -62.5z" />
  </g>

</svg>
