<?xml version="1.0" standalone="no"?>
<!DOCTYPE svg PUBLIC "-//W3C//DTD SVG 1.1//EN" "http://www.w3.org/Graphics/SVG/1.1/DTD/svg11.dtd" >
<svg xmlns="http://www.w3.org/2000/svg" xmlns:xlink="http://www.w3.org/1999/xlink" version="1.1" viewBox="-10 0 1054 1000">
  <g transform="matrix(1 0 0 -1 0 800)">
   <path fill="currentColor"
d="M683.35 154.169c10.2959 0 20.4736 2.54492 29.5527 7.40918c9.09863 4.87793 16.8115 11.8877 22.5605 20.5391l64.5615 97.0498h-142.901c-13.2617 -0.0175781 -26.3213 -2.53906 -38.8623 -7.59375l-148.334 -59.167
c-26.9248 -10.8516 -56.0137 -16.5332 -85.3008 -16.5723h-153.812l-15.625 -41.665h468.161zM683.312 29.1689h-558.312h-90.1875l31.667 84.4453l62.5 166.665l15.208 40.5547h43.3125h41.667h155.374c13.2656 0.0175781 26.3252 2.53906 38.8662 7.59375l148.333 59.167
c26.9258 10.8525 56.0127 16.5332 85.2998 16.5723h259.629h116.646l-64.6074 -97.1182l-129.16 -194.152c-17.0947 -25.7266 -40.3271 -46.875 -67.585 -61.4863c-27.2646 -14.6084 -57.7266 -22.2412 -88.6484 -22.2412h-0.00195312zM250 258.334l59.8643 -17.96
l62.5 208.334l-59.8643 17.959l-59.8643 17.959l-62.5 -208.333zM250 466.667v-62.5h299.885l64.7812 -97.1699l52.0029 34.6699l52.0029 34.6689l-83.3359 125l-18.5547 27.8311h-33.4482h-333.333v-62.5z" />
  </g>

</svg>
