<?xml version="1.0" standalone="no"?>
<!DOCTYPE svg PUBLIC "-//W3C//DTD SVG 1.1//EN" "http://www.w3.org/Graphics/SVG/1.1/DTD/svg11.dtd" >
<svg xmlns="http://www.w3.org/2000/svg" xmlns:xlink="http://www.w3.org/1999/xlink" version="1.1" viewBox="-10 0 1010 1000">
  <g transform="matrix(1 0 0 -1 0 800)">
   <path fill="currentColor"
d="M324.805 32.4014l147.28 73.5186l27.9141 13.9346l27.9141 -13.9346l147.282 -73.5195l-18.5625 166.942l-2.64355 23.7715l13.9023 19.4629l95.3516 133.491l-142.752 17.9619l-30.5537 3.84473l-15.5684 26.5684l-74.4922 127.135l-74.8896 -127.239l-15.5762 -26.4639
l-30.4658 -3.84277l-142.208 -17.9346l95.3711 -133.521l13.9023 -19.4629l-2.64355 -23.7715zM277.914 -130.714l-102.719 -51.2744l12.6875 114.102l28.6064 257.272l-142.349 199.287l-60.8789 85.2295l103.917 13.1064l215.658 27.1992l113.298 192.494l53.9844 91.7197
l53.8037 -91.8252l112.728 -192.39l216.151 -27.1973l103.954 -13.0791l-60.8984 -85.2588l-142.348 -199.287l28.6064 -257.271l12.6875 -114.103l-102.719 51.2744l-222.087 110.859z" />
  </g>

</svg>
