<?xml version="1.0" standalone="no"?>
<!DOCTYPE svg PUBLIC "-//W3C//DTD SVG 1.1//EN" "http://www.w3.org/Graphics/SVG/1.1/DTD/svg11.dtd" >
<svg xmlns="http://www.w3.org/2000/svg" xmlns:xlink="http://www.w3.org/1999/xlink" version="1.1" viewBox="-10 0 1010 1000">
  <g transform="matrix(1 0 0 -1 0 800)">
   <path fill="currentColor"
d="M187.883 -67.8867l28.6064 257.272l-142.348 199.286l-60.8789 85.2295l103.917 13.1064l215.658 27.1992l113.298 192.494l53.9844 91.7197l53.8037 -91.8252l112.727 -192.389l216.152 -27.1973l103.954 -13.0791l-60.8984 -85.2588l-142.349 -199.287
l28.6064 -257.272l12.6875 -114.102l-102.719 51.2744l-222.087 110.859l-222.085 -110.859l-102.719 -51.2744zM324.805 32.4014l18.5625 166.941l2.64355 23.7715l-13.9023 19.4629l-95.3711 133.521l142.208 17.9346l30.4658 3.84277l15.5762 26.4639l74.8896 127.239
l74.4922 -127.134l15.5684 -26.5693l30.5537 -3.84473l142.752 -17.9619l-95.3516 -133.491l-13.9023 -19.4629l2.64355 -23.7715l18.5625 -166.942l-147.281 73.5195l-27.9141 13.9346l-27.9141 -13.9346zM250 -74.7939l249.999 124.794l250.001 -124.794l-31.25 281.044
l156.25 218.75l-246.706 31.041l-128.295 218.959l-128.875 -218.959l-246.124 -31.041l156.25 -218.75z" />
  </g>

</svg>
