<?xml version="1.0" standalone="no"?>
<!DOCTYPE svg PUBLIC "-//W3C//DTD SVG 1.1//EN" "http://www.w3.org/Graphics/SVG/1.1/DTD/svg11.dtd" >
<svg xmlns="http://www.w3.org/2000/svg" xmlns:xlink="http://www.w3.org/1999/xlink" version="1.1" viewBox="-10 0 1010 1000">
  <g transform="matrix(1 0 0 -1 0 800)">
   <path fill="currentColor"
d="M437.5 550v62.5h437.5v-62.5v-62.5h-437.5v62.5zM875 550l44.1943 44.1943l-187.5 187.5l-44.1943 -44.1943l-44.1943 -44.1943l187.5 -187.5zM875 550l44.1943 -44.1943l-187.5 -187.5l-44.1943 44.1943l-44.1943 44.1943l187.5 187.5zM125 50v62.5h500v-62.5v-62.5
h-500v62.5zM125 50l-44.1943 44.1943l187.5 187.5l44.1943 -44.1943l44.1943 -44.1943l-187.5 -187.5zM125 50l44.1943 44.1943l187.5 -187.5l-44.1943 -44.1943l-44.1943 -44.1943l-187.5 187.5zM875 550l44.1943 44.1943l-187.5 187.5l-44.1943 -44.1943
l-44.1943 -44.1943l187.5 -187.5zM875 550l44.1943 -44.1943l-187.5 -187.5l-44.1943 44.1943l-44.1943 44.1943l187.5 187.5zM125 50v-62.5h500v62.5v62.5h-500v-62.5zM125 50l44.1943 -44.1943l187.5 187.5l-44.1943 44.1943l-44.1943 44.1943l-187.5 -187.5zM125 50
l-44.1943 -44.1943l187.5 -187.5l44.1943 44.1943l44.1943 44.1943l-187.5 187.5zM875 550l-44.1943 44.1943l-187.5 -187.5l44.1943 -44.1943l44.1943 -44.1943l187.5 187.5zM125 50v62.5h500v-62.5v-62.5h-500v62.5zM125 50l-44.1943 44.1943l187.5 187.5
l44.1943 -44.1943l44.1943 -44.1943l-187.5 -187.5zM125 50l44.1943 44.1943l187.5 -187.5l-44.1943 -44.1943l-44.1943 -44.1943l-187.5 187.5zM125 50v-62.5h500v62.5v62.5h-500v-62.5zM125 50l44.1943 -44.1943l187.5 187.5l-44.1943 44.1943l-44.1943 44.1943
l-187.5 -187.5zM125 50l-44.1943 -44.1943l187.5 -187.5l44.1943 44.1943l44.1943 44.1943l-187.5 187.5zM125 50l-44.1943 44.1943l187.5 187.5l44.1943 -44.1943l44.1943 -44.1943l-187.5 -187.5zM125 50l44.1943 44.1943l187.5 -187.5l-44.1943 -44.1943
l-44.1943 -44.1943l-187.5 187.5zM125 50l-44.1943 -44.1943l187.5 -187.5l44.1943 44.1943l44.1943 44.1943l-187.5 187.5z" />
  </g>

</svg>
