<?xml version="1.0" standalone="no"?>
<!DOCTYPE svg PUBLIC "-//W3C//DTD SVG 1.1//EN" "http://www.w3.org/Graphics/SVG/1.1/DTD/svg11.dtd" >
<svg xmlns="http://www.w3.org/2000/svg" xmlns:xlink="http://www.w3.org/1999/xlink" version="1.1" viewBox="-10 0 1010 1000">
  <g transform="matrix(1 0 0 -1 0 800)">
   <path fill="currentColor"
d="M187.5 425h-62.5v214.285h62.5h62.5v-214.285h-62.5zM187.5 425v62.5h183.823v-62.5v-62.5h-183.823v62.5zM807.214 493.725l-50.3555 -25.7607c-43.8125 85.6426 -132.522 144.536 -238.476 144.536c-130.217 0 -243.804 -89.4756 -270.021 -201.717l-60.8613 14.2168
l-60.8613 14.2168c40.6543 174.041 207.019 298.283 391.744 298.283c153.882 0 285.284 -86.5752 349.759 -212.606l-55.6416 -28.4648zM187.5 425v-62.5h183.823v62.5v62.5h-183.823v-62.5zM807.214 493.725l-50.3555 -25.7607
c-43.8125 85.6426 -132.522 144.536 -238.476 144.536c-130.217 0 -243.804 -89.4756 -270.021 -201.717l-60.8613 14.2168l-60.8613 14.2168c40.6543 174.041 207.019 298.283 391.744 298.283c153.882 0 285.284 -86.5752 349.759 -212.606l-55.6416 -28.4648z
M807.214 493.725l5.28613 2.7041l55.6416 28.4648c-64.4746 126.031 -195.877 212.606 -349.759 212.606c-184.728 0 -351.09 -124.242 -391.744 -298.283l60.8613 -14.2168l60.8613 -14.2168c26.2188 112.241 139.806 201.717 270.021 201.717
c105.951 0 194.662 -58.8936 238.476 -144.536zM812.5 175h-62.5v-178.568h62.5h62.5v178.568h-62.5zM812.5 175v-62.5h-147.057v62.5v62.5h147.057v-62.5zM215.32 117.801l-27.8213 -14.2314l-55.6396 -28.4668c64.4746 -126.023 195.877 -212.602 349.758 -212.602
c184.725 0 351.089 124.24 391.744 298.283l-60.8613 14.2168l-60.8613 14.2168c-26.2197 -112.245 -139.806 -201.718 -270.021 -201.718c-105.95 0 -194.664 58.8975 -238.477 144.534zM812.5 175v62.5h-147.057v-62.5v-62.5h147.057v62.5zM215.32 117.801
l27.8203 14.2334c43.8125 -85.6367 132.526 -144.534 238.477 -144.534c130.216 0 243.802 89.4727 270.021 201.718l60.8613 -14.2168l60.8613 -14.2168c-40.6553 -174.043 -207.02 -298.283 -391.744 -298.283c-153.881 0 -285.283 86.5781 -349.758 212.602
l55.6396 28.4668zM215.32 117.801l27.8203 14.2324c43.8125 -85.6367 132.528 -144.534 238.477 -144.534c130.215 0 243.802 89.4736 270.021 201.718l60.8613 -14.2168l60.8613 -14.2168c-40.6553 -174.043 -207.019 -298.283 -391.744 -298.283
c-153.881 0 -285.283 86.5791 -349.758 212.602l55.6406 28.4668z" />
  </g>

</svg>
