<?xml version="1.0" standalone="no"?>
<!DOCTYPE svg PUBLIC "-//W3C//DTD SVG 1.1//EN" "http://www.w3.org/Graphics/SVG/1.1/DTD/svg11.dtd" >
<svg xmlns="http://www.w3.org/2000/svg" xmlns:xlink="http://www.w3.org/1999/xlink" version="1.1" viewBox="-10 0 1010 1000">
  <g transform="matrix(1 0 0 -1 0 800)">
   <path fill="currentColor"
d="M687.5 50c57.5215 0 104.169 46.6201 104.169 104.169c0 57.5244 -46.626 104.164 -104.169 104.164c-57.5166 0 -104.169 -46.6123 -104.169 -104.164c0 -57.5225 46.6201 -104.169 104.169 -104.169zM326.822 508.333h-27.3438h-7.8125h-62.5
c0 38.6777 15.3652 75.7715 42.7139 103.12s64.4424 42.7139 103.12 42.7139c38.6787 0 75.7695 -15.3633 103.122 -42.7158c27.3457 -27.3477 42.71 -64.4395 42.71 -103.118v-375.002c0 -16.5723 6.58496 -32.4717 18.3076 -44.1943
c11.7197 -11.7207 27.6162 -18.3057 44.1924 -18.3057c16.582 0 32.4697 6.58203 44.1914 18.3057c11.7236 11.7236 18.3066 27.6211 18.3066 44.1943v20.8379h31.25h31.25h62.5v-20.8379c0 -49.7256 -19.7539 -97.417 -54.918 -132.581
c-35.1533 -35.1621 -82.8555 -54.9189 -132.58 -54.9189c-49.7266 0 -97.418 19.7539 -132.583 54.9189c-35.1621 35.165 -54.917 82.8545 -54.917 132.581v375.002c0 5.52441 -2.19531 10.8252 -6.10352 14.7334c-3.90332 3.9043 -9.20508 6.10059 -14.7295 6.10059
c-5.52539 0 -10.8242 -2.19531 -14.7305 -6.10254c-3.90723 -3.90723 -6.10254 -9.20605 -6.10254 -14.7314h-27.3438zM333.334 341.667v62.5h250v-62.5v-62.5h-250v62.5z" />
  </g>

</svg>
