<?xml version="1.0" standalone="no"?>
<!DOCTYPE svg PUBLIC "-//W3C//DTD SVG 1.1//EN" "http://www.w3.org/Graphics/SVG/1.1/DTD/svg11.dtd" >
<svg xmlns="http://www.w3.org/2000/svg" xmlns:xlink="http://www.w3.org/1999/xlink" version="1.1" viewBox="-10 0 1010 1000">
  <g transform="matrix(1 0 0 -1 0 800)">
   <path fill="currentColor"
d="M937.5 300c0 -241.521 -195.979 -437.5 -437.5 -437.5s-437.5 195.979 -437.5 437.5s195.979 437.5 437.5 437.5s437.5 -195.979 437.5 -437.5zM812.5 300c0 -172.479 -140.021 -312.5 -312.5 -312.5s-312.5 140.021 -312.5 312.5s140.021 312.5 312.5 312.5
s312.5 -140.021 312.5 -312.5zM687.5 300c0 103.521 -83.9785 187.5 -187.5 187.5s-187.5 -83.9785 -187.5 -187.5s83.9785 -187.5 187.5 -187.5s187.5 83.9785 187.5 187.5zM562.5 300c0 34.4785 -28.0215 62.5 -62.5 62.5s-62.5 -28.0215 -62.5 -62.5
s28.0215 -62.5 62.5 -62.5s62.5 28.0215 62.5 62.5zM500 675h-62.5v-93.75h62.5h62.5v93.75h-62.5zM875 300v62.5h-93.75v-62.5v-62.5h93.75v62.5zM500 -75h62.5v93.75h-62.5h-62.5v-93.75h62.5zM125 300v-62.5h93.75v62.5v62.5h-93.75v-62.5zM875 300v62.5h-93.75v-62.5
v-62.5h93.75v62.5zM500 -75h62.5v93.75h-62.5h-62.5v-93.75h62.5zM125 300v62.5h93.75v-62.5v-62.5h-93.75v62.5zM500 -75h-62.5v93.75h62.5h62.5v-93.75h-62.5zM125 300v-62.5h93.75v62.5v62.5h-93.75v-62.5zM125 300v62.5h93.75v-62.5v-62.5h-93.75v62.5z" />
  </g>

</svg>
