<?xml version="1.0" standalone="no"?>
<!DOCTYPE svg PUBLIC "-//W3C//DTD SVG 1.1//EN" "http://www.w3.org/Graphics/SVG/1.1/DTD/svg11.dtd" >
<svg xmlns="http://www.w3.org/2000/svg" xmlns:xlink="http://www.w3.org/1999/xlink" version="1.1" viewBox="-10 0 1010 1000">
  <g transform="matrix(1 0 0 -1 0 800)">
   <path fill="currentColor"
d="M125 487.5v62.5h250v-62.5v-62.5h-250v62.5zM875 487.5v-62.5h-250v62.5v62.5h250v-62.5zM406.25 331.25h62.5v-250h-62.5h-62.5v250h62.5zM593.749 331.25h-62.5v-250h62.5h62.5v250h-62.5zM781.25 487.499l-62.3672 4.06836
c-5.51758 -84.5918 -21.3428 -377.635 -28.127 -504.066h-381.521c-6.96875 129.413 -23.0283 426.025 -28.1182 504.065l-62.3672 -4.06738l-62.3682 -4.06836c6.37988 -97.8037 31.21 -561.77 31.21 -561.77l3.16504 -59.1611h59.2451h499.999h59.2598l3.15137 59.1758
s24.2354 454.899 31.2061 561.754zM375 487.5v62.5h250v-62.5v-62.5h-250v62.5zM375 487.5h62.5v125h125v-125h62.5h62.5v187.5v62.5h-62.5h-250h-62.5v-62.5v-187.5h62.5zM875 487.5v62.5h-250v-62.5v-62.5h250v62.5zM406.25 331.25h62.5v-250h-62.5h-62.5v250h62.5z
M593.749 331.25h62.5v-250h-62.5h-62.5v250h62.5zM781.25 487.499l62.3672 -4.06934c-6.9707 -106.854 -31.2061 -561.754 -31.2061 -561.754l-3.15137 -59.1758h-59.2598h-499.999h-59.2451l-3.16504 59.1611s-24.8301 463.966 -31.21 561.77l62.3682 4.06836
l62.3672 4.06738c5.08984 -78.04 21.1494 -374.652 28.1182 -504.065h381.521c6.78418 126.432 22.6094 419.475 28.127 504.066zM375 487.5v-62.5h250v62.5v62.5h-250v-62.5zM375 487.5h-62.5v187.5v62.5h62.5h250h62.5v-62.5v-187.5h-62.5h-62.5v125h-125v-125h-62.5z
M406.25 331.25h-62.5v-250h62.5h62.5v250h-62.5zM593.749 331.25h-62.5v-250h62.5h62.5v250h-62.5zM781.25 487.499l62.3672 -4.06934c-6.9707 -106.855 -31.207 -561.754 -31.207 -561.754l-3.15137 -59.1758h-59.2598h-499.999h-59.2451l-3.16504 59.1602
s-24.8301 463.967 -31.21 561.771l62.3682 4.06836l62.3672 4.06738c5.09082 -78.04 21.1504 -374.653 28.1191 -504.066h381.521c6.78418 126.432 22.6094 419.475 28.1279 504.067zM375 487.5v62.5h250v-62.5v-62.5h-250v62.5zM375 487.5h62.5v125h125v-125h62.5h62.5
v187.5v62.5h-62.5h-250h-62.5v-62.5v-187.5h62.5zM593.749 331.25h62.5v-250h-62.5h-62.5v250h62.5zM781.25 487.499l62.3672 -4.06934c-6.9707 -106.854 -31.2061 -561.754 -31.2061 -561.754l-3.15137 -59.1758h-59.2598h-499.999h-59.2451l-3.16504 59.1611
s-24.8301 463.966 -31.21 561.77l62.3682 4.06836l62.3672 4.06738c5.08984 -78.04 21.1494 -374.652 28.1182 -504.065h381.521c6.78418 126.432 22.6094 419.475 28.127 504.066zM375 487.5v-62.5h250v62.5v62.5h-250v-62.5zM375 487.5h-62.5v187.5v62.5h62.5h250h62.5
v-62.5v-187.5h-62.5h-62.5v125h-125v-125h-62.5zM781.25 487.499l-62.3672 4.06836c-5.51855 -84.5928 -21.3438 -377.636 -28.1279 -504.067h-381.521c-6.96875 129.413 -23.0283 426.026 -28.1191 504.066l-62.3672 -4.06738l-62.3682 -4.06836
c6.37988 -97.8037 31.21 -561.771 31.21 -561.771l3.16504 -59.1602h59.2451h499.999h59.2598l3.15137 59.1758s24.2363 454.898 31.207 561.754zM375 487.5v62.5h250v-62.5v-62.5h-250v62.5zM375 487.5h62.5v125h125v-125h62.5h62.5v187.5v62.5h-62.5h-250h-62.5v-62.5
v-187.5h62.5zM375 487.5v-62.5h250v62.5v62.5h-250v-62.5zM375 487.5h-62.5v187.5v62.5h62.5h250h62.5v-62.5v-187.5h-62.5h-62.5v125h-125v-125h-62.5zM375 487.5h62.5v125h125v-125h62.5h62.5v187.5v62.5h-62.5h-250h-62.5v-62.5v-187.5h62.5z" />
  </g>

</svg>
