<?xml version="1.0" standalone="no"?>
<!DOCTYPE svg PUBLIC "-//W3C//DTD SVG 1.1//EN" "http://www.w3.org/Graphics/SVG/1.1/DTD/svg11.dtd" >
<svg xmlns="http://www.w3.org/2000/svg" xmlns:xlink="http://www.w3.org/1999/xlink" version="1.1" viewBox="-10 0 1010 1000">
  <g transform="matrix(1 0 0 -1 0 800)">
   <path fill="currentColor"
d="M193.995 111.078l52.5527 18.2324c21.2715 -61.3135 103.749 -141.812 253.452 -141.812c138.712 0 250 110.903 250 246.324c0 135.416 -111.288 246.322 -250 246.322h-223.215v62.5v62.5h223.215c206.464 0 375 -165.624 375 -371.322
c0 -205.702 -168.536 -371.324 -375 -371.324c-195.477 0 -330.319 107.003 -371.548 225.841l59.0479 20.4854zM276.785 542.646l43.9316 -44.4561l133.93 132.354l-43.9316 44.4551l-43.9316 44.4551l-133.93 -132.354zM276.785 542.646l43.9316 44.4551l133.93 -132.354
l-43.9316 -44.4551l-43.9316 -44.4551l-133.93 132.353zM276.785 542.646l43.9316 -44.4561l133.93 132.354l-43.9316 44.4551l-43.9316 44.4551l-133.93 -132.354zM276.785 542.646l43.9316 44.4551l133.93 -132.354l-43.9316 -44.4551l-43.9316 -44.4551l-133.93 132.353z
M276.785 542.646l-43.9316 -44.4561l133.93 -132.353l43.9316 44.4551l43.9316 44.4551l-133.93 132.354z" />
  </g>

</svg>
