<?xml version="1.0" standalone="no"?>
<!DOCTYPE svg PUBLIC "-//W3C//DTD SVG 1.1//EN" "http://www.w3.org/Graphics/SVG/1.1/DTD/svg11.dtd" >
<svg xmlns="http://www.w3.org/2000/svg" xmlns:xlink="http://www.w3.org/1999/xlink" version="1.1" viewBox="-10 0 1010 1000">
  <g transform="matrix(1 0 0 -1 0 800)">
   <path fill="currentColor"
d="M125 50h62.5v-62.5h625v62.5h62.5h62.5v-125v-62.5h-62.5h-750h-62.5v62.5v125h62.5zM500 175h-62.5v500h62.5h62.5v-500h-62.5zM500 675l44.1943 -44.1943l-187.5 -187.5l-44.1943 44.1943l-44.1943 44.1943l187.5 187.5zM500 675l-44.1943 -44.1943l187.5 -187.5
l44.1943 44.1943l44.1943 44.1943l-187.5 187.5zM500 175h62.5v500h-62.5h-62.5v-500h62.5zM500 675l44.1943 -44.1943l-187.5 -187.5l-44.1943 44.1943l-44.1943 44.1943l187.5 187.5zM500 675l44.1943 44.1943l187.5 -187.5l-44.1943 -44.1943l-44.1943 -44.1943
l-187.5 187.5zM500 675l-44.1943 44.1943l-187.5 -187.5l44.1943 -44.1943l44.1943 -44.1943l187.5 187.5zM500 675l-44.1943 -44.1943l187.5 -187.5l44.1943 44.1943l44.1943 44.1943l-187.5 187.5zM500 675l44.1943 44.1943l187.5 -187.5l-44.1943 -44.1943
l-44.1943 -44.1943l-187.5 187.5z" />
  </g>

</svg>
