<?xml version="1.0" standalone="no"?>
<!DOCTYPE svg PUBLIC "-//W3C//DTD SVG 1.1//EN" "http://www.w3.org/Graphics/SVG/1.1/DTD/svg11.dtd" >
<svg xmlns="http://www.w3.org/2000/svg" xmlns:xlink="http://www.w3.org/1999/xlink" version="1.1" viewBox="-10 0 1010 1000">
  <g transform="matrix(1 0 0 -1 0 800)">
   <path fill="currentColor"
d="M750 -75h-62.5v125c0 34.5332 -27.9668 62.5 -62.4941 62.5h-250.069c-34.5049 0 -62.4365 -27.9229 -62.4365 -62.4873v-125.013h-62.5h-62.5v125.013c0 103.51 83.8721 187.487 187.438 187.487h250.069c103.55 0 187.493 -83.96 187.493 -187.5v-125h-62.5v0z
M687.5 487.5c0 -103.544 -83.9561 -187.5 -187.5 -187.5s-187.5 83.9561 -187.5 187.5s83.9561 187.5 187.5 187.5s187.5 -83.9561 187.5 -187.5zM562.5 487.5c0 -34.5264 -27.9736 -62.5 -62.5 -62.5s-62.5 27.9736 -62.5 62.5s27.9736 62.5 62.5 62.5
s62.5 -27.9736 62.5 -62.5zM687.5 487.5c0 103.544 -83.9561 187.5 -187.5 187.5s-187.5 -83.9561 -187.5 -187.5s83.9561 -187.5 187.5 -187.5s187.5 83.9561 187.5 187.5zM562.5 487.5c0 34.5264 -27.9736 62.5 -62.5 62.5s-62.5 -27.9736 -62.5 -62.5
s27.9736 -62.5 62.5 -62.5s62.5 27.9736 62.5 62.5z" />
  </g>

</svg>
