<?xml version="1.0" standalone="no"?>
<!DOCTYPE svg PUBLIC "-//W3C//DTD SVG 1.1//EN" "http://www.w3.org/Graphics/SVG/1.1/DTD/svg11.dtd" >
<svg xmlns="http://www.w3.org/2000/svg" xmlns:xlink="http://www.w3.org/1999/xlink" version="1.1" viewBox="-10 0 1010 1000">
  <g transform="matrix(1 0 0 -1 0 800)">
   <path fill="currentColor"
d="M500 237.5c-103.562 0 -187.5 83.9375 -187.5 187.5s83.9375 187.5 187.5 187.5c103.56 0 187.5 -83.9385 187.5 -187.5s-83.9404 -187.5 -187.5 -187.5zM500 112.5c172.577 0 312.5 139.919 312.5 312.5s-139.923 312.5 -312.5 312.5
c-172.58 0 -312.5 -139.92 -312.5 -312.5s139.92 -312.5 312.5 -312.5zM500.08 174.862l54.127 31.249l83.2734 -144.236l14.8252 29.9834l18.4678 37.3506l41.5801 -2.68164l33.3809 -2.15332l-83.2734 144.238l54.127 31.249l54.127 31.249l141.662 -245.374
l58.3887 -101.137l-116.538 7.5166l-108.339 6.9873l-48.1191 -97.3193l-51.7607 -104.686l-58.3916 101.138l-141.664 245.375zM283.413 299.861l54.127 -31.25l-83.2754 -144.237l33.3799 2.15332l41.5801 2.68164l18.4678 -37.3506l14.8252 -29.9844l83.2754 144.238
l54.127 -31.25l54.127 -31.25l-141.667 -245.375l-58.3916 -101.138l-51.7607 104.687l-48.1182 97.3184l-108.34 -6.9873l-116.54 -7.5166l58.3906 101.137l141.666 245.374z" />
  </g>

</svg>
