<?xml version="1.0" standalone="no"?>
<!DOCTYPE svg PUBLIC "-//W3C//DTD SVG 1.1//EN" "http://www.w3.org/Graphics/SVG/1.1/DTD/svg11.dtd" >
<svg xmlns="http://www.w3.org/2000/svg" xmlns:xlink="http://www.w3.org/1999/xlink" version="1.1" viewBox="-10 0 1010 1000">
  <g transform="matrix(1 0 0 -1 0 800)">
   <path fill="currentColor"
d="M500 487.5c-220.899 0 -289.626 -138.069 -309.086 -187.5c19.6914 -50.0186 88.5029 -187.5 309.086 -187.5c220.899 0 289.626 138.069 309.086 187.5c-19.6914 50.0186 -88.5029 187.5 -309.086 187.5zM500 612.5c355.49 0 433.636 -289.373 435.623 -297.299
l3.81152 -15.2012l-3.66406 -14.6152c-2.08301 -8.30762 -79.8096 -297.885 -435.771 -297.885c-355.489 0 -433.636 289.373 -435.623 297.299l-3.81152 15.2012l3.66406 14.6152c2.08301 8.30762 79.8105 297.885 435.771 297.885zM500 175
c-69.0283 0 -125 55.9736 -125 125c0 69.0283 55.9736 125 125 125c69.0283 0 125 -55.9736 125 -125c0 -69.0283 -55.9736 -125 -125 -125z" />
  </g>

</svg>
