<?xml version="1.0" standalone="no"?>
<!DOCTYPE svg PUBLIC "-//W3C//DTD SVG 1.1//EN" "http://www.w3.org/Graphics/SVG/1.1/DTD/svg11.dtd" >
<svg xmlns="http://www.w3.org/2000/svg" xmlns:xlink="http://www.w3.org/1999/xlink" version="1.1" viewBox="-10 0 1010 1000">
  <g transform="matrix(1 0 0 -1 0 800)">
   <path fill="currentColor"
d="M375 487.5h-62.5v125c0 34.3838 14.1025 65.8799 36.6113 88.3887s54.0049 36.6113 88.3887 36.6113h125c34.3838 0 65.8799 -14.1025 88.3887 -36.6113s36.6113 -54.0049 36.6113 -88.3887v-125h-62.5h-62.5v125h-125v-125h-62.5zM375 487.5v62.5h250v-62.5v-62.5h-250
v62.5zM375 112.5v62.5c-34.5273 0 -62.5 27.9727 -62.5 62.5v125c0 34.5264 27.9736 62.5 62.5 62.5v125c-103.544 0 -187.5 -83.9561 -187.5 -187.5v-125c0 -103.546 83.957 -187.5 187.5 -187.5v62.5zM625 143.75v31.25c34.5283 0 62.5 27.9717 62.5 62.5v125
c0 34.5273 -27.9727 62.5 -62.5 62.5v125c103.546 0 187.5 -83.957 187.5 -187.5v-125c0 -103.545 -83.9551 -187.5 -187.5 -187.5v93.75zM375 112.5h62.5v-125h125v125h62.5h62.5v-125c0 -34.3838 -14.1025 -65.8799 -36.6113 -88.3887
c-22.5098 -22.5088 -54.0049 -36.6113 -88.3887 -36.6113h-125c-34.3838 0 -65.8789 14.1025 -88.3887 36.6113c-22.5088 22.5088 -36.6113 54.0049 -36.6113 88.3887v125h62.5zM375 112.5v62.5h250v-62.5v-62.5h-250v62.5zM375 487.5v62.5h250v-62.5v-62.5h-250v62.5z
M375 112.5v-62.5c-103.543 0 -187.5 83.9541 -187.5 187.5v125c0 103.544 83.9561 187.5 187.5 187.5v-125c-34.5264 0 -62.5 -27.9736 -62.5 -62.5v-125c0 -34.5273 27.9727 -62.5 62.5 -62.5v-62.5zM625 143.75v-93.75c103.545 0 187.5 83.9551 187.5 187.5v125
c0 103.543 -83.9541 187.5 -187.5 187.5v-125c34.5273 0 62.5 -27.9727 62.5 -62.5v-125c0 -34.5283 -27.9717 -62.5 -62.5 -62.5v-31.25zM375 112.5h62.5v-125h125v125h62.5h62.5v-125c0 -34.3838 -14.1025 -65.8799 -36.6113 -88.3887
c-22.5098 -22.5088 -54.0049 -36.6113 -88.3887 -36.6113h-125c-34.3838 0 -65.8789 14.1025 -88.3887 36.6113c-22.5088 22.5088 -36.6113 54.0049 -36.6113 88.3887v125h62.5zM375 112.5v-62.5h250v62.5v62.5h-250v-62.5zM375 112.5v62.5
c-34.5273 0 -62.5 27.9727 -62.5 62.5v125c0 34.5264 27.9736 62.5 62.5 62.5v125c-103.544 0 -187.5 -83.9561 -187.5 -187.5v-125c0 -103.546 83.957 -187.5 187.5 -187.5v62.5zM625 143.75v-93.75c103.545 0 187.5 83.9551 187.5 187.5v125
c0 103.543 -83.9541 187.5 -187.5 187.5v-125c34.5273 0 62.5 -27.9727 62.5 -62.5v-125c0 -34.5283 -27.9717 -62.5 -62.5 -62.5v-31.25zM375 112.5h-62.5v-125c0 -34.3838 14.1025 -65.8799 36.6113 -88.3887c22.5098 -22.5088 54.0049 -36.6113 88.3887 -36.6113h125
c34.3838 0 65.8789 14.1025 88.3887 36.6113c22.5088 22.5088 36.6113 54.0049 36.6113 88.3887v125h-62.5h-62.5v-125h-125v125h-62.5zM375 112.5v-62.5h250v62.5v62.5h-250v-62.5zM625 143.75v31.25c34.5283 0 62.5 27.9717 62.5 62.5v125
c0 34.5273 -27.9727 62.5 -62.5 62.5v125c103.546 0 187.5 -83.957 187.5 -187.5v-125c0 -103.545 -83.9551 -187.5 -187.5 -187.5v93.75zM375 112.5h62.5v-125h125v125h62.5h62.5v-125c0 -34.3838 -14.1025 -65.8799 -36.6113 -88.3887
c-22.5098 -22.5088 -54.0049 -36.6113 -88.3887 -36.6113h-125c-34.3838 0 -65.8789 14.1025 -88.3887 36.6113c-22.5088 22.5088 -36.6113 54.0049 -36.6113 88.3887v125h62.5zM375 112.5v62.5h250v-62.5v-62.5h-250v62.5zM375 112.5h-62.5v-125
c0 -34.3838 14.1025 -65.8799 36.6113 -88.3887c22.5098 -22.5088 54.0049 -36.6113 88.3887 -36.6113h125c34.3838 0 65.8789 14.1025 88.3887 36.6113c22.5088 22.5088 36.6113 54.0049 36.6113 88.3887v125h-62.5h-62.5v-125h-125v125h-62.5zM375 112.5v-62.5h250v62.5
v62.5h-250v-62.5zM375 112.5v62.5h250v-62.5v-62.5h-250v62.5z" />
  </g>

</svg>
