<?xml version="1.0" standalone="no"?>
<!DOCTYPE svg PUBLIC "-//W3C//DTD SVG 1.1//EN" "http://www.w3.org/Graphics/SVG/1.1/DTD/svg11.dtd" >
<svg xmlns="http://www.w3.org/2000/svg" xmlns:xlink="http://www.w3.org/1999/xlink" version="1.1" viewBox="-10 0 1010 1000">
  <g transform="matrix(1 0 0 -1 0 800)">
   <path fill="currentColor"
d="M166.667 550l60.0957 17.1689l111.162 -389.085l102.782 308.347l59.293 177.88l59.293 -177.88l102.78 -308.349l111.161 389.087l60.0957 -17.1689l60.0957 -17.1689l-135.2 -473.23c-5.73535 -20.123 -17.7803 -37.8652 -34.3232 -50.6445
c-16.6074 -12.8154 -36.8105 -19.9355 -57.7305 -20.3838c-20.8955 -0.450195 -41.4229 5.80566 -58.5273 17.8643c-17.1152 12.0684 -29.9053 29.3154 -36.4893 49.1182l-71.1562 213.47l-71.1592 -213.476c-6.58594 -19.8018 -19.375 -37.043 -36.4727 -49.1035
c-17.123 -12.0752 -37.6396 -18.3232 -58.5439 -17.873c-20.9043 0.448242 -41.1416 7.58301 -57.7188 20.377c-16.5439 12.7705 -28.6016 30.5488 -34.3311 50.6514l-135.203 473.23zM875 383.333v-62.5h-750v62.5v62.5h750v-62.5zM875 216.667v-62.5h-750v62.5v62.5h750
v-62.5z" />
  </g>

</svg>
