<?xml version="1.0" standalone="no"?>
<!DOCTYPE svg PUBLIC "-//W3C//DTD SVG 1.1//EN" "http://www.w3.org/Graphics/SVG/1.1/DTD/svg11.dtd" >
<svg xmlns="http://www.w3.org/2000/svg" xmlns:xlink="http://www.w3.org/1999/xlink" version="1.1" viewBox="-10 0 1010 1000">
  <g transform="matrix(1 0 0 -1 0 800)">
   <path fill="currentColor"
d="M937.5 518.75c0 -120.771 -97.9785 -218.75 -218.75 -218.75s-218.75 97.9785 -218.75 218.75s97.9785 218.75 218.75 218.75s218.75 -97.9785 218.75 -218.75zM812.5 518.75c0 51.7285 -42.0215 93.75 -93.75 93.75s-93.75 -42.0215 -93.75 -93.75
s42.0215 -93.75 93.75 -93.75s93.75 42.0215 93.75 93.75zM500 81.25c0 -120.771 -97.9785 -218.75 -218.75 -218.75s-218.75 97.9785 -218.75 218.75s97.9785 218.75 218.75 218.75s218.75 -97.9785 218.75 -218.75zM375 81.25c0 51.7285 -42.0215 93.75 -93.75 93.75
s-93.75 -42.0215 -93.75 -93.75s42.0215 -93.75 93.75 -93.75s93.75 42.0215 93.75 93.75zM875 237.5h-62.5v-125h-250v-62.5v-62.5h312.5h62.5v62.5v187.5h-62.5zM562.5 50l44.1943 -44.1943l125 125l-44.1943 44.1943l-44.1943 44.1943l-125 -125zM562.5 50
l44.1943 44.1943l125 -125l-44.1943 -44.1943l-44.1943 -44.1943l-125 125zM562.5 50l-44.1943 44.1943l125 125l44.1943 -44.1943l44.1943 -44.1943l-125 -125zM562.5 50l44.1943 44.1943l125 -125l-44.1943 -44.1943l-44.1943 -44.1943l-125 125zM562.5 50
l-44.1943 -44.1943l125 -125l44.1943 44.1943l44.1943 44.1943l-125 125zM125 362.5h-62.5v187.5v62.5h62.5h312.5v-62.5v-62.5h-250v-125h-62.5zM437.5 550l44.1943 -44.1943l-125 -125l-44.1943 44.1943l-44.1943 44.1943l125 125zM437.5 550l44.1943 44.1943l-125 125
l-44.1943 -44.1943l-44.1943 -44.1943l125 -125zM437.5 550l-44.1943 44.1943l-125 -125l44.1943 -44.1943l44.1943 -44.1943l125 125zM437.5 550l44.1943 44.1943l-125 125l-44.1943 -44.1943l-44.1943 -44.1943l125 -125zM437.5 550l-44.1943 -44.1943l-125 125
l44.1943 44.1943l44.1943 44.1943l125 -125z" />
  </g>

</svg>
