<?xml version="1.0" standalone="no"?>
<!DOCTYPE svg PUBLIC "-//W3C//DTD SVG 1.1//EN" "http://www.w3.org/Graphics/SVG/1.1/DTD/svg11.dtd" >
<svg xmlns="http://www.w3.org/2000/svg" xmlns:xlink="http://www.w3.org/1999/xlink" version="1.1" viewBox="-10 0 1010 1000">
  <g transform="matrix(1 0 0 -1 0 800)">
   <path fill="currentColor"
d="M300 738c28 0 81 -31 118 -68c48 -48 105 -45 199 14c112 70 146 67 234 -21c57 -57 86 -148 65 -203s-82 -117 -136 -138s-147 8 -208 63c-88 79 -127 85 -188 24s-89 -57 -136 17c-50 79 -59 76 -60 -17c0 -60 -29 -109 -63 -109s-63 70 -63 156c0 97 36 156 94 156
c52 0 94 29 94 63s22 63 50 63zM719 612c-52 0 -94 -41 -94 -93s42 -94 94 -94s93 42 93 94s-41 93 -93 93zM286 300c40 0 109 -42 152 -94c62 -75 98 -79 169 -20s102 56 147 -15c47 -74 57 -70 58 20c0 60 29 109 63 109s63 -70 63 -156c0 -93 -36 -156 -89 -156
c-49 0 -101 -36 -115 -79c-21 -62 -47 -60 -125 4c-80 66 -124 67 -224 4s-144 -62 -224 4c-54 45 -99 115 -99 155s35 108 76 149s108 75 148 75zM281 175c-52 0 -93 -42 -93 -94s41 -93 93 -93s94 41 94 93s-42 94 -94 94z" />
  </g>

</svg>
