<?xml version="1.0" standalone="no"?>
<!DOCTYPE svg PUBLIC "-//W3C//DTD SVG 1.1//EN" "http://www.w3.org/Graphics/SVG/1.1/DTD/svg11.dtd" >
<svg xmlns="http://www.w3.org/2000/svg" xmlns:xlink="http://www.w3.org/1999/xlink" version="1.1" viewBox="-10 0 1010 1000">
  <g transform="matrix(1 0 0 -1 0 800)">
   <path fill="currentColor"
d="M708.331 591.667l-50.8584 36.3271l-208.331 -291.667l50.8584 -36.3271l50.8584 -36.3271l208.331 291.667zM562.5 8.33105v-360.827l-121.359 339.808l-208.333 583.335l-150.679 421.903l260.396 -364.556l208.333 -291.667l11.6416 -16.2979v-20.0293v-291.669v0z
M562.5 8.33105v291.669v20.0293l-11.6416 16.2979l-208.333 291.667l-260.396 364.556l150.679 -421.903l208.333 -583.335l121.358 -339.808v360.827v0zM333.333 91.6689v62.5h333.336v-62.5v-62.5h-333.336v62.5zM333.333 258.333v62.5h333.336v-62.5v-62.5h-333.336v62.5
z" />
  </g>

</svg>
