<?xml version="1.0" standalone="no"?>
<!DOCTYPE svg PUBLIC "-//W3C//DTD SVG 1.1//EN" "http://www.w3.org/Graphics/SVG/1.1/DTD/svg11.dtd" >
<svg xmlns="http://www.w3.org/2000/svg" xmlns:xlink="http://www.w3.org/1999/xlink" version="1.1" viewBox="-10 0 1010 1000">
  <g transform="matrix(1 0 0 -1 0 800)">
   <path fill="currentColor"
d="M742 571c13 -63 54 -135 93 -159c51 -32 49 -66 -7 -122c-43 -43 -78 -128 -78 -190s-21 -112 -47 -112s-82 55 -124 122c-48 77 -53 136 -15 160c34 21 61 102 61 180s21 163 47 189s57 -5 70 -68zM379 425c101 0 183 -19 183 -42s-46 -93 -103 -156
c-96 -106 -96 -115 0 -115c57 0 103 -28 103 -62s-98 -62 -218 -62s-219 18 -219 41s46 94 103 157c96 106 97 114 -3 114c-59 0 -90 28 -69 62s122 63 223 63z" />
  </g>

</svg>
