<svg width="16" height="16" viewBox="0 0 16 16" fill="none" xmlns="http://www.w3.org/2000/svg">
<path d="M2 11V8M5 11V8M2 8H5M2 8C2 7 1.98646 5 3.5 5C5.01354 5 5 7 5 8" stroke="#24282B" stroke-width="2" stroke-linecap="round" stroke-linejoin="round"/>
<path d="M8 4V12" stroke="#24282B" stroke-width="2" stroke-linecap="round" stroke-linejoin="round"/>
<path d="M11 11V5H12.6667C13.3929 5 14 5.77378 14 6.5C14 7.22622 13.3929 8 12.6667 8M11 11V8H12.6667M11 11H12.6667C13.3929 11 14 10.2262 14 9.5C14 8.77378 13.3929 8 12.6667 8" stroke="#24282B" stroke-width="2" stroke-linecap="round" stroke-linejoin="round"/>
</svg>
