<svg width="16" height="16" viewBox="0 0 16 16" fill="none" xmlns="http://www.w3.org/2000/svg">
<path d="M8 6V8M8 10.9933V11M3.3497 14H12.683C12.9006 13.9985 13.1144 13.9437 13.306 13.8406C13.4975 13.7374 13.6609 13.589 13.7818 13.4082C13.9028 13.2274 13.9777 13.0197 14 12.8033C14.0223 12.5869 13.9913 12.3683 13.9097 12.1667L9.16 2.66666C9.04469 2.45826 8.87567 2.28455 8.6705 2.16359C8.46533 2.04263 8.23151 1.97883 7.99333 1.97883C7.75516 1.97883 7.52133 2.04263 7.31616 2.16359C7.11099 2.28455 6.94197 2.45826 6.82667 2.66666L2.1097 12.1667C2.02966 12.3637 1.99792 12.5771 2.01714 12.7889C2.03635 13.0007 2.10595 13.2048 2.22014 13.3843C2.33432 13.5637 2.48978 13.7132 2.67352 13.8203C2.85726 13.9274 3.06397 13.989 3.27637 14" stroke="#24282B" stroke-width="2" stroke-linecap="round" stroke-linejoin="round"/>
</svg>
