<svg width="16" height="16" viewBox="0 0 16 16" fill="none" xmlns="http://www.w3.org/2000/svg">
<path d="M8 8L8.70711 7.29289C9.09763 7.68342 9.09763 8.31658 8.70711 8.70711L8 8ZM2.29289 3.70711C1.90237 3.31658 1.90237 2.68342 2.29289 2.29289C2.68342 1.90237 3.31658 1.90237 3.70711 2.29289L2.29289 3.70711ZM3.70711 13.7071C3.31658 14.0976 2.68342 14.0976 2.29289 13.7071C1.90237 13.3166 1.90237 12.6834 2.29289 12.2929L3.70711 13.7071ZM7.29289 8.70711L2.29289 3.70711L3.70711 2.29289L8.70711 7.29289L7.29289 8.70711ZM8.70711 8.70711L3.70711 13.7071L2.29289 12.2929L7.29289 7.29289L8.70711 8.70711Z" fill="#24282B"/>
<path d="M13 8L13.7071 7.29289C14.0976 7.68342 14.0976 8.31658 13.7071 8.70711L13 8ZM7.29289 3.70711C6.90237 3.31658 6.90237 2.68342 7.29289 2.29289C7.68342 1.90237 8.31658 1.90237 8.70711 2.29289L7.29289 3.70711ZM8.70711 13.7071C8.31658 14.0976 7.68342 14.0976 7.29289 13.7071C6.90237 13.3166 6.90237 12.6834 7.29289 12.2929L8.70711 13.7071ZM12.2929 8.70711L7.29289 3.70711L8.70711 2.29289L13.7071 7.29289L12.2929 8.70711ZM13.7071 8.70711L8.70711 13.7071L7.29289 12.2929L12.2929 7.29289L13.7071 8.70711Z" fill="#24282B"/>
</svg>
