<svg width="16" height="16" viewBox="0 0 16 16" fill="none" xmlns="http://www.w3.org/2000/svg">
<path d="M2 8L1.29289 7.29289C0.902369 7.68342 0.902369 8.31658 1.29289 8.70711L2 8ZM7.70711 3.70711C8.09763 3.31658 8.09763 2.68342 7.70711 2.29289C7.31658 1.90237 6.68342 1.90237 6.29289 2.29289L7.70711 3.70711ZM6.29289 13.7071C6.68342 14.0976 7.31658 14.0976 7.70711 13.7071C8.09763 13.3166 8.09763 12.6834 7.70711 12.2929L6.29289 13.7071ZM2.70711 8.70711L7.70711 3.70711L6.29289 2.29289L1.29289 7.29289L2.70711 8.70711ZM1.29289 8.70711L6.29289 13.7071L7.70711 12.2929L2.70711 7.29289L1.29289 8.70711Z" fill="#24282B"/>
</svg>
