<svg width="16" height="16" viewBox="0 0 16 16" fill="none" xmlns="http://www.w3.org/2000/svg">
<path d="M14 8L14.7071 7.29289C15.0976 7.68342 15.0976 8.31658 14.7071 8.70711L14 8ZM8.29289 3.70711C7.90237 3.31658 7.90237 2.68342 8.29289 2.29289C8.68342 1.90237 9.31658 1.90237 9.70711 2.29289L8.29289 3.70711ZM9.70711 13.7071C9.31658 14.0976 8.68342 14.0976 8.29289 13.7071C7.90237 13.3166 7.90237 12.6834 8.29289 12.2929L9.70711 13.7071ZM13.2929 8.70711L8.29289 3.70711L9.70711 2.29289L14.7071 7.29289L13.2929 8.70711ZM14.7071 8.70711L9.70711 13.7071L8.29289 12.2929L13.2929 7.29289L14.7071 8.70711Z" fill="#24282B"/>
</svg>
