<svg width="16" height="16" viewBox="0 0 16 16" fill="none" xmlns="http://www.w3.org/2000/svg">
<path d="M8 14L7.29289 14.7071C7.68342 15.0976 8.31658 15.0976 8.70711 14.7071L8 14ZM3.70711 8.29289C3.31658 7.90237 2.68342 7.90237 2.29289 8.29289C1.90237 8.68342 1.90237 9.31658 2.29289 9.70711L3.70711 8.29289ZM13.7071 9.70711C14.0976 9.31658 14.0976 8.68342 13.7071 8.29289C13.3166 7.90237 12.6834 7.90237 12.2929 8.29289L13.7071 9.70711ZM8.70711 13.2929L3.70711 8.29289L2.29289 9.70711L7.29289 14.7071L8.70711 13.2929ZM8.70711 14.7071L13.7071 9.70711L12.2929 8.29289L7.29289 13.2929L8.70711 14.7071Z" fill="#24282B"/>
</svg>
