<svg width="16" height="16" viewBox="0 0 16 16" fill="none" xmlns="http://www.w3.org/2000/svg">
<path d="M12.6667 2.66666H3.33333C2.59695 2.66666 2 3.26362 2 4C2 4.73638 2.59695 5.33333 3.33333 5.33333H12.6667C13.403 5.33333 14 4.73638 14 4C14 3.26362 13.403 2.66666 12.6667 2.66666Z" stroke="#24282B" stroke-width="2" stroke-linecap="round" stroke-linejoin="round"/>
<path d="M3.33337 5.33334V12C3.33337 12.3536 3.47385 12.6928 3.7239 12.9428C3.97395 13.1929 4.31309 13.3333 4.66671 13.3333H11.3334C11.687 13.3333 12.0261 13.1929 12.2762 12.9428C12.5262 12.6928 12.6667 12.3536 12.6667 12V5.33334" stroke="#24282B" stroke-width="2" stroke-linecap="round" stroke-linejoin="round"/>
<path d="M6.66663 8H9.33329" stroke="#24282B" stroke-width="2" stroke-linecap="round" stroke-linejoin="round"/>
</svg>
