<svg width="16" height="16" viewBox="0 0 16 16" fill="none" xmlns="http://www.w3.org/2000/svg">
<path d="M13.3333 10H8.00001V12.3907C7.99998 12.5225 7.96087 12.6514 7.88761 12.761C7.81436 12.8706 7.71025 12.956 7.58845 13.0065C7.46665 13.0569 7.33263 13.0701 7.20332 13.0444C7.07402 13.0187 6.95525 12.9552 6.86201 12.862L2.47134 8.47133C2.34636 8.34632 2.27615 8.17678 2.27615 8C2.27615 7.82323 2.34636 7.65369 2.47134 7.52867L6.86201 3.138C6.95525 3.04479 7.07402 2.98132 7.20332 2.95561C7.33263 2.9299 7.46665 2.9431 7.58845 2.99355C7.71025 3.044 7.81436 3.12942 7.88761 3.23903C7.96087 3.34864 7.99998 3.4775 8.00001 3.60933V6H13.3333C13.5102 6 13.6797 6.07024 13.8048 6.19526C13.9298 6.32029 14 6.48986 14 6.66667V9.33333C14 9.51015 13.9298 9.67971 13.8048 9.80474C13.6797 9.92976 13.5102 10 13.3333 10V10Z" stroke="#24282B" stroke-width="2" stroke-linecap="round" stroke-linejoin="round"/>
</svg>
