<svg width="16" height="16" viewBox="0 0 16 16" fill="none" xmlns="http://www.w3.org/2000/svg">
<path d="M10 7C10.5523 7 11 7.44772 11 8C11 8.55228 10.5523 9 10 9V7ZM2 8L1.29289 8.70711C0.902369 8.31658 0.902369 7.68342 1.29289 7.29289L2 8ZM4.29289 4.29289C4.68342 3.90237 5.31658 3.90237 5.70711 4.29289C6.09763 4.68342 6.09763 5.31658 5.70711 5.70711L4.29289 4.29289ZM5.70711 10.2929C6.09763 10.6834 6.09763 11.3166 5.70711 11.7071C5.31658 12.0976 4.68342 12.0976 4.29289 11.7071L5.70711 10.2929ZM10 9H2V7H10V9ZM1.29289 7.29289L4.29289 4.29289L5.70711 5.70711L2.70711 8.70711L1.29289 7.29289ZM2.70711 7.29289L5.70711 10.2929L4.29289 11.7071L1.29289 8.70711L2.70711 7.29289Z" fill="#24282B"/>
<path d="M14 2L14 14" stroke="#24282B" stroke-width="2" stroke-linecap="round"/>
</svg>
