<svg width="16" height="16" viewBox="0 0 16 16" fill="none" xmlns="http://www.w3.org/2000/svg">
<path d="M10 2.66667V8H12.3907C12.5225 8.00003 12.6514 8.03914 12.761 8.1124C12.8706 8.18566 12.956 8.28976 13.0065 8.41156C13.0569 8.53336 13.0701 8.66739 13.0444 8.79669C13.0187 8.92599 12.9552 9.04477 12.862 9.138L8.47133 13.5287C8.34632 13.6536 8.17678 13.7239 8 13.7239C7.82322 13.7239 7.65369 13.6536 7.52867 13.5287L3.138 9.138C3.04479 9.04477 2.98132 8.92599 2.95561 8.79669C2.9299 8.66739 2.9431 8.53336 2.99355 8.41156C3.044 8.28976 3.12942 8.18566 3.23903 8.1124C3.34864 8.03914 3.4775 8.00003 3.60933 8H6V2.66667C6 2.48986 6.07024 2.32029 6.19526 2.19526C6.32029 2.07024 6.48986 2 6.66667 2H9.33333C9.51015 2 9.67971 2.07024 9.80474 2.19526C9.92976 2.32029 10 2.48986 10 2.66667V2.66667Z" stroke="#24282B" stroke-width="2" stroke-linecap="round" stroke-linejoin="round"/>
</svg>
