<svg width="16" height="16" viewBox="0 0 16 16" fill="none" xmlns="http://www.w3.org/2000/svg">
<path d="M2 7C1.44772 7 1 7.44772 1 8C1 8.55228 1.44772 9 2 9V7ZM14 8L14.7071 8.70711C15.0976 8.31658 15.0976 7.68342 14.7071 7.29289L14 8ZM9.70711 2.29289C9.31658 1.90237 8.68342 1.90237 8.29289 2.29289C7.90237 2.68342 7.90237 3.31658 8.29289 3.70711L9.70711 2.29289ZM8.29289 12.2929C7.90237 12.6834 7.90237 13.3166 8.29289 13.7071C8.68342 14.0976 9.31658 14.0976 9.70711 13.7071L8.29289 12.2929ZM2 9H14V7H2V9ZM14.7071 7.29289L9.70711 2.29289L8.29289 3.70711L13.2929 8.70711L14.7071 7.29289ZM13.2929 7.29289L8.29289 12.2929L9.70711 13.7071L14.7071 8.70711L13.2929 7.29289Z" fill="#24282B"/>
</svg>
