<svg width="16" height="16" viewBox="0 0 16 16" fill="none" xmlns="http://www.w3.org/2000/svg">
<path d="M6 7C5.44772 7 5 7.44772 5 8C5 8.55228 5.44772 9 6 9V7ZM14 8L14.7071 8.70711C15.0976 8.31658 15.0976 7.68342 14.7071 7.29289L14 8ZM11.7071 4.29289C11.3166 3.90237 10.6834 3.90237 10.2929 4.29289C9.90237 4.68342 9.90237 5.31658 10.2929 5.70711L11.7071 4.29289ZM10.2929 10.2929C9.90237 10.6834 9.90237 11.3166 10.2929 11.7071C10.6834 12.0976 11.3166 12.0976 11.7071 11.7071L10.2929 10.2929ZM6 9H14V7H6V9ZM14.7071 7.29289L11.7071 4.29289L10.2929 5.70711L13.2929 8.70711L14.7071 7.29289ZM13.2929 7.29289L10.2929 10.2929L11.7071 11.7071L14.7071 8.70711L13.2929 7.29289Z" fill="#24282B"/>
<path d="M2 2L2 14" stroke="#24282B" stroke-width="2" stroke-linecap="round"/>
</svg>
