<svg width="16" height="16" viewBox="0 0 16 16" fill="none" xmlns="http://www.w3.org/2000/svg">
<path d="M2.66667 6H8V3.60933C8.00003 3.4775 8.03914 3.34864 8.1124 3.23903C8.18566 3.12942 8.28976 3.044 8.41156 2.99355C8.53336 2.9431 8.66739 2.9299 8.79669 2.95561C8.92599 2.98132 9.04477 3.04479 9.138 3.138L13.5287 7.52867C13.6536 7.65369 13.7239 7.82323 13.7239 8C13.7239 8.17678 13.6536 8.34632 13.5287 8.47133L9.138 12.862C9.04477 12.9552 8.92599 13.0187 8.79669 13.0444C8.66739 13.0701 8.53336 13.0569 8.41156 13.0065C8.28976 12.956 8.18566 12.8706 8.1124 12.761C8.03914 12.6514 8.00003 12.5225 8 12.3907V10H2.66667C2.48986 10 2.32029 9.92976 2.19526 9.80474C2.07024 9.67971 2 9.51015 2 9.33333V6.66667C2 6.48986 2.07024 6.32029 2.19526 6.19526C2.32029 6.07024 2.48986 6 2.66667 6V6Z" stroke="#24282B" stroke-width="2" stroke-linecap="round" stroke-linejoin="round"/>
</svg>
