<svg width="16" height="16" viewBox="0 0 16 16" fill="none" xmlns="http://www.w3.org/2000/svg">
<path d="M9 2C9 1.44772 8.55228 1 8 1C7.44772 1 7 1.44772 7 2H9ZM8 10L7.29289 10.7071C7.68342 11.0976 8.31658 11.0976 8.70711 10.7071L8 10ZM11.7071 7.70711C12.0976 7.31658 12.0976 6.68342 11.7071 6.29289C11.3166 5.90237 10.6834 5.90237 10.2929 6.29289L11.7071 7.70711ZM5.70711 6.29289C5.31658 5.90237 4.68342 5.90237 4.29289 6.29289C3.90237 6.68342 3.90237 7.31658 4.29289 7.70711L5.70711 6.29289ZM7 2V10H9V2H7ZM8.70711 10.7071L11.7071 7.70711L10.2929 6.29289L7.29289 9.29289L8.70711 10.7071ZM8.70711 9.29289L5.70711 6.29289L4.29289 7.70711L7.29289 10.7071L8.70711 9.29289Z" fill="#24282B"/>
<path d="M2 14H14" stroke="#24282B" stroke-width="2" stroke-linecap="round"/>
</svg>
