<svg width="16" height="16" viewBox="0 0 16 16" fill="none" xmlns="http://www.w3.org/2000/svg">
<path d="M8 2L8.70711 1.29289C8.31658 0.902369 7.68342 0.902369 7.29289 1.29289L8 2ZM8 14L7.29289 14.7071C7.48043 14.8946 7.73478 15 8 15C8.26522 15 8.51957 14.8946 8.70711 14.7071L8 14ZM11.7071 11.7071C12.0976 11.3166 12.0976 10.6834 11.7071 10.2929C11.3166 9.90237 10.6834 9.90237 10.2929 10.2929L11.7071 11.7071ZM5.70711 10.2929C5.31658 9.90237 4.68342 9.90237 4.29289 10.2929C3.90237 10.6834 3.90237 11.3166 4.29289 11.7071L5.70711 10.2929ZM10.2929 5.70711C10.6834 6.09763 11.3166 6.09763 11.7071 5.70711C12.0976 5.31658 12.0976 4.68342 11.7071 4.29289L10.2929 5.70711ZM4.29289 4.29289C3.90237 4.68342 3.90237 5.31658 4.29289 5.70711C4.68342 6.09763 5.31658 6.09763 5.70711 5.70711L4.29289 4.29289ZM7 2L7 14H9L9 2L7 2ZM8.70711 14.7071L11.7071 11.7071L10.2929 10.2929L7.29289 13.2929L8.70711 14.7071ZM8.70711 13.2929L5.70711 10.2929L4.29289 11.7071L7.29289 14.7071L8.70711 13.2929ZM7.29289 2.70711L10.2929 5.70711L11.7071 4.29289L8.70711 1.29289L7.29289 2.70711ZM7.29289 1.29289L4.29289 4.29289L5.70711 5.70711L8.70711 2.70711L7.29289 1.29289Z" fill="#24282B"/>
</svg>
