<svg width="16" height="16" viewBox="0 0 16 16" fill="none" xmlns="http://www.w3.org/2000/svg">
<path d="M12.2929 13.7071C12.6834 14.0976 13.3166 14.0976 13.7071 13.7071C14.0976 13.3166 14.0976 12.6834 13.7071 12.2929L12.2929 13.7071ZM2 2V1C1.44771 1 0.999999 1.44772 0.999999 2H2ZM9 3C9.55228 3 10 2.55228 10 2C10 1.44772 9.55228 1 9 1V3ZM0.999999 9C0.999999 9.55229 1.44771 10 2 10C2.55228 10 3 9.55229 3 9H0.999999ZM13.7071 12.2929L2.70711 1.29289L1.29289 2.70711L12.2929 13.7071L13.7071 12.2929ZM2 3H9V1H2V3ZM0.999999 2V9H3V2H0.999999Z" fill="#24282B"/>
</svg>
