<svg width="16" height="16" viewBox="0 0 16 16" fill="none" xmlns="http://www.w3.org/2000/svg">
<path d="M8 14V5.33333C8 4.80592 7.8436 4.29034 7.55058 3.85181C7.25757 3.41328 6.84109 3.07149 6.35382 2.86965C5.86655 2.66782 5.33037 2.61501 4.81309 2.7179C4.29581 2.8208 3.82065 3.07477 3.44771 3.44771C3.07477 3.82065 2.8208 4.29581 2.7179 4.81309C2.61501 5.33037 2.66782 5.86655 2.86965 6.35382C3.07149 6.84109 3.41328 7.25757 3.85181 7.55058C4.29034 7.8436 4.80592 8 5.33333 8H14M14 8L11 11M14 8L11 5" stroke="#24282B" stroke-width="2" stroke-linecap="round" stroke-linejoin="round"/>
</svg>
