<svg width="16" height="16" viewBox="0 0 16 16" fill="none" xmlns="http://www.w3.org/2000/svg">
<path d="M13.7071 3.70711C14.0976 3.31658 14.0976 2.68342 13.7071 2.29289C13.3166 1.90237 12.6834 1.90237 12.2929 2.29289L13.7071 3.70711ZM2 14H1C1 14.2652 1.10536 14.5196 1.29289 14.7071C1.48043 14.8946 1.73478 15 2 15L2 14ZM9 15C9.55228 15 10 14.5523 10 14C10 13.4477 9.55228 13 9 13V15ZM3 7C3 6.44772 2.55228 6 2 6C1.44772 6 1 6.44772 1 7H3ZM12.2929 2.29289L1.29289 13.2929L2.70711 14.7071L13.7071 3.70711L12.2929 2.29289ZM2 15L9 15V13L2 13L2 15ZM3 14V7H1V14H3Z" fill="#24282B"/>
</svg>
