<svg width="16" height="16" viewBox="0 0 16 16" fill="none" xmlns="http://www.w3.org/2000/svg">
<path d="M6 13.3333V8.00001H3.60933C3.4775 7.99998 3.34864 7.96087 3.23903 7.88761C3.12942 7.81436 3.044 7.71025 2.99355 7.58845C2.9431 7.46665 2.9299 7.33263 2.95561 7.20332C2.98132 7.07402 3.04479 6.95525 3.138 6.86201L7.52867 2.47134C7.65369 2.34636 7.82323 2.27615 8 2.27615C8.17678 2.27615 8.34632 2.34636 8.47133 2.47134L12.862 6.86201C12.9552 6.95525 13.0187 7.07402 13.0444 7.20332C13.0701 7.33263 13.0569 7.46665 13.0065 7.58845C12.956 7.71025 12.8706 7.81436 12.761 7.88761C12.6514 7.96087 12.5225 7.99998 12.3907 8.00001H10V13.3333C10 13.5102 9.92976 13.6797 9.80474 13.8048C9.67971 13.9298 9.51015 14 9.33333 14H6.66667C6.48986 14 6.32029 13.9298 6.19526 13.8048C6.07024 13.6797 6 13.5102 6 13.3333V13.3333Z" stroke="#24282B" stroke-width="2" stroke-linecap="round" stroke-linejoin="round"/>
</svg>
