<svg width="16" height="16" viewBox="0 0 16 16" fill="none" xmlns="http://www.w3.org/2000/svg">
<path d="M7 14C7 14.5523 7.44772 15 8 15C8.55228 15 9 14.5523 9 14H7ZM8 7L8.70711 6.29289C8.31658 5.90237 7.68342 5.90237 7.29289 6.29289L8 7ZM10.2929 10.7071C10.6834 11.0976 11.3166 11.0976 11.7071 10.7071C12.0976 10.3166 12.0976 9.68342 11.7071 9.29289L10.2929 10.7071ZM4.29289 9.29289C3.90237 9.68342 3.90237 10.3166 4.29289 10.7071C4.68342 11.0976 5.31658 11.0976 5.70711 10.7071L4.29289 9.29289ZM9 14V7H7V14H9ZM7.29289 7.70711L10.2929 10.7071L11.7071 9.29289L8.70711 6.29289L7.29289 7.70711ZM7.29289 6.29289L4.29289 9.29289L5.70711 10.7071L8.70711 7.70711L7.29289 6.29289Z" fill="#24282B"/>
<path d="M2 2H14" stroke="#24282B" stroke-width="2" stroke-linecap="round"/>
</svg>
