<svg width="16" height="16" viewBox="0 0 16 16" fill="none" xmlns="http://www.w3.org/2000/svg">
<path d="M8.66667 14V5.33333C8.66667 4.80592 8.82307 4.29034 9.11608 3.85181C9.4091 3.41328 9.82558 3.07149 10.3128 2.86965C10.8001 2.66782 11.3363 2.61501 11.8536 2.7179C12.3709 2.8208 12.846 3.07477 13.219 3.44771C13.5919 3.82065 13.8459 4.29581 13.9488 4.81309C14.0517 5.33037 13.9988 5.86655 13.797 6.35382C13.5952 6.84109 13.2534 7.25757 12.8149 7.55058C12.3763 7.8436 11.8608 8 11.3333 8H2.66667M2.66667 8L5.66667 11M2.66667 8L5.66667 5" stroke="#24282B" stroke-width="2" stroke-linecap="round" stroke-linejoin="round"/>
</svg>
