<svg width="16" height="16" viewBox="0 0 16 16" fill="none" xmlns="http://www.w3.org/2000/svg">
<path d="M2 6L1.29289 5.29289C0.902369 5.68342 0.902369 6.31658 1.29289 6.70711L2 6ZM4.29289 9.70711C4.68342 10.0976 5.31658 10.0976 5.70711 9.70711C6.09763 9.31658 6.09763 8.68342 5.70711 8.29289L4.29289 9.70711ZM5.70711 3.70711C6.09763 3.31658 6.09763 2.68342 5.70711 2.29289C5.31658 1.90237 4.68342 1.90237 4.29289 2.29289L5.70711 3.70711ZM9 12C8.44772 12 8 12.4477 8 13C8 13.5523 8.44772 14 9 14V12ZM10.5 5H2V7H10.5V5ZM1.29289 6.70711L4.29289 9.70711L5.70711 8.29289L2.70711 5.29289L1.29289 6.70711ZM2.70711 6.70711L5.70711 3.70711L4.29289 2.29289L1.29289 5.29289L2.70711 6.70711ZM10.5 12H9V14H10.5V12ZM13 9.5C13 10.8807 11.8807 12 10.5 12V14C12.9853 14 15 11.9853 15 9.5H13ZM10.5 7C11.8807 7 13 8.11929 13 9.5H15C15 7.01472 12.9853 5 10.5 5V7Z" fill="#24282B"/>
</svg>
