<svg width="16" height="16" viewBox="0 0 16 16" fill="none" xmlns="http://www.w3.org/2000/svg">
<path d="M2 6.66667V7.33333C2 8.04058 2.28095 8.71885 2.78105 9.21895C3.28115 9.71905 3.95942 10 4.66667 10H6C6.35362 10 6.69276 9.85952 6.94281 9.60947C7.19286 9.35943 7.33333 9.02029 7.33333 8.66667V6.66667" stroke="#24282B" stroke-width="2" stroke-linecap="round" stroke-linejoin="round"/>
<path d="M4.66666 12.6733V12.6667" stroke="#24282B" stroke-width="2" stroke-linecap="round" stroke-linejoin="round"/>
<path d="M9.33334 10.0067V10" stroke="#24282B" stroke-width="2" stroke-linecap="round" stroke-linejoin="round"/>
<path d="M11.3333 10H12.6693C12.9121 9.99994 13.1503 9.93359 13.3581 9.80812C13.566 9.68264 13.7356 9.5028 13.8487 9.28799C13.9619 9.07318 14.0142 8.83156 14.0001 8.58919C13.986 8.34682 13.906 8.1129 13.7687 7.91267L12 5.33333" stroke="#24282B" stroke-width="2" stroke-linecap="round" stroke-linejoin="round"/>
</svg>
