<svg width="16" height="16" viewBox="0 0 16 16" fill="none" xmlns="http://www.w3.org/2000/svg">
<path d="M8 14C11.3137 14 14 11.3137 14 8C14 4.68629 11.3137 2 8 2C4.68629 2 2 4.68629 2 8C2 11.3137 4.68629 14 8 14Z" stroke="#24282B" stroke-width="2" stroke-linecap="round" stroke-linejoin="round"/>
<path d="M7.99999 4.66667L11.1733 6.96667L9.99999 10.6667H5.99999L4.82666 6.96667L7.99999 4.66667Z" stroke="#24282B" stroke-width="2" stroke-linecap="round" stroke-linejoin="round"/>
<path d="M4.82668 6.96667L2.33334 6M8.00001 4.66667V2V4.66667ZM10 10.6667L11.6667 12.6667L10 10.6667ZM11.1733 6.96667L13.6667 6L11.1733 6.96667ZM6.04001 10.7L4.33334 12.6667L6.04001 10.7Z" stroke="#24282B" stroke-width="2" stroke-linecap="round" stroke-linejoin="round"/>
</svg>
