<svg width="16" height="16" viewBox="0 0 16 16" fill="none" xmlns="http://www.w3.org/2000/svg">
<path d="M8 6L7.2 5.4C6.97274 5.70302 6.93618 6.10843 7.10557 6.44721C7.27497 6.786 7.62123 7 8 7V6ZM7 9L7.9856 9.16909C8.03712 8.86879 7.94892 8.56137 7.74601 8.33406C7.5431 8.10676 7.24763 7.98436 6.94342 8.0016L7 9ZM6.59952 14.2416L5.81478 13.6218L6.59952 14.2416ZM6.15829 14.0462L5.17179 13.8825L6.15829 14.0462ZM4.31618 9.00437L4.32892 8.00445L4.31618 9.00437ZM4.07877 8.69519L3.11087 8.44386L4.07877 8.69519ZM5.94182 2.16467L4.99719 1.8365L5.94182 2.16467ZM10.7 2.4L9.9 1.8L10.7 2.4ZM10.5 1H6.17573V3H10.5V1ZM8.8 6.6L11.5 3L9.9 1.8L7.2 5.4L8.8 6.6ZM12.528 5H8V7H12.528V5ZM7.38427 14.8614C8.80723 13.0598 12.3911 8.51269 13.5309 6.97393L11.9237 5.78353C10.8075 7.29049 7.24955 11.8052 5.81478 13.6218L7.38427 14.8614ZM6.0144 8.83091C5.90747 9.45416 5.42553 12.3541 5.17179 13.8825L7.14478 14.21C7.39925 12.6773 7.87986 9.78541 7.9856 9.16909L6.0144 8.83091ZM4.30344 10.0043C4.94648 10.0125 6.51333 10.0292 7.05658 9.9984L6.94342 8.0016C6.4886 8.02738 5.01448 8.01319 4.32892 8.00445L4.30344 10.0043ZM4.99719 1.8365C4.36569 3.6543 3.38789 7.37706 3.11087 8.44386L5.04667 8.94653C5.3309 7.85193 6.28717 4.21784 6.88644 2.49283L4.99719 1.8365ZM5.81478 13.6218C6.29655 13.0118 7.27145 13.4471 7.14478 14.21L5.17179 13.8825C4.96054 15.1548 6.58241 15.8767 7.38427 14.8614L5.81478 13.6218ZM4.32892 8.00445C4.80798 8.01055 5.17126 8.46673 5.04667 8.94653L3.11087 8.44386C2.90502 9.23656 3.50112 9.99406 4.30344 10.0043L4.32892 8.00445ZM6.17573 1C5.65587 1 5.17522 1.32406 4.99719 1.8365L6.88644 2.49283C6.77761 2.80609 6.48472 3 6.17573 3V1ZM10.5 3C9.88197 3 9.52918 2.29443 9.9 1.8L11.5 3C12.118 2.17596 11.5301 1 10.5 1V3ZM12.528 7C11.9746 7 11.5147 6.33571 11.9237 5.78353L13.5309 6.97393C14.1787 6.09927 13.4827 5 12.528 5V7Z" fill="#24282B"/>
</svg>
