<svg width="16" height="16" viewBox="0 0 16 16" fill="none" xmlns="http://www.w3.org/2000/svg">
<path d="M4.00001 4.66667H12C12.3536 4.66667 12.6928 4.80715 12.9428 5.0572C13.1929 5.30724 13.3333 5.64638 13.3333 6.00001V12C13.3333 12.1768 13.2631 12.3464 13.1381 12.4714C13.0131 12.5964 12.8435 12.6667 12.6667 12.6667H11.3333C11.1565 12.6667 10.987 12.5964 10.8619 12.4714C10.7369 12.3464 10.6667 12.1768 10.6667 12V10.6667C10.6667 9.95943 10.3857 9.28115 9.88562 8.78105C9.38553 8.28096 8.70725 8.00001 8 8.00001C7.29276 8.00001 6.61448 8.28096 6.11439 8.78105C5.61429 9.28115 5.33334 9.95943 5.33334 10.6667V12C5.33334 12.1768 5.2631 12.3464 5.13808 12.4714C5.01305 12.5964 4.84348 12.6667 4.66667 12.6667H3.33334C3.15653 12.6667 2.98696 12.5964 2.86193 12.4714C2.73691 12.3464 2.66667 12.1768 2.66667 12V6.00001C2.66667 5.64638 2.80715 5.30724 3.0572 5.0572C3.30724 4.80715 3.64638 4.66667 4.00001 4.66667" stroke="#24282B" stroke-width="2" stroke-linecap="round" stroke-linejoin="round"/>
</svg>
