<svg width="16" height="16" viewBox="0 0 16 16" fill="none" xmlns="http://www.w3.org/2000/svg">
<path d="M10 12.6667V13.3333C10 13.5101 10.0702 13.6797 10.1953 13.8047C10.3203 13.9298 10.4899 14 10.6667 14H12M4.66667 14H5.33334C5.51015 14 5.67972 13.9298 5.80474 13.8047C5.92977 13.6797 6 13.5101 6 13.3333V12.6667C6 12.1362 6.21072 11.6275 6.58579 11.2525C6.96086 10.8774 7.46957 10.6667 8 10.6667C8.53044 10.6667 9.03915 10.8774 9.41422 11.2525C9.78929 11.6275 10 12.1362 10 12.6667L4.66667 14ZM12 14H12.6667C12.8435 14 13.0131 13.9298 13.1381 13.8047C13.2631 13.6797 13.3333 13.5101 13.3333 13.3333V3.33333L11.3333 2L9.33334 3.33333V7.33333H6.66667V3.33333L4.66667 2L2.66667 3.33333V13.3333C2.66667 13.5101 2.73691 13.6797 2.86193 13.8047C2.98696 13.9298 3.15653 14 3.33334 14H4.66667H12Z" stroke="#24282B" stroke-width="2" stroke-linecap="round" stroke-linejoin="round"/>
<path d="M4.66667 4.66667V4.67334" stroke="#24282B" stroke-width="2" stroke-linecap="round" stroke-linejoin="round"/>
<path d="M4.66667 6.66667V6.67334" stroke="#24282B" stroke-width="2" stroke-linecap="round" stroke-linejoin="round"/>
<path d="M4.66667 8.66667V8.67334" stroke="#24282B" stroke-width="2" stroke-linecap="round" stroke-linejoin="round"/>
<path d="M11.3333 4.66667V4.67334" stroke="#24282B" stroke-width="2" stroke-linecap="round" stroke-linejoin="round"/>
<path d="M11.3333 6.66667V6.67334" stroke="#24282B" stroke-width="2" stroke-linecap="round" stroke-linejoin="round"/>
<path d="M11.3333 8.66667V8.67334" stroke="#24282B" stroke-width="2" stroke-linecap="round" stroke-linejoin="round"/>
</svg>
