<svg width="16" height="16" viewBox="0 0 16 16" fill="none" xmlns="http://www.w3.org/2000/svg">
<path d="M2 14H14" stroke="#24282B" stroke-width="2" stroke-linecap="round" stroke-linejoin="round"/>
<path d="M3.33333 14V3.33333C3.33333 2.97971 3.4738 2.64057 3.72385 2.39052C3.9739 2.14048 4.31304 2 4.66666 2H11.3333C11.687 2 12.0261 2.14048 12.2761 2.39052C12.5262 2.64057 12.6667 2.97971 12.6667 3.33333V14" stroke="#24282B" stroke-width="2" stroke-linecap="round" stroke-linejoin="round"/>
<path d="M6 14V11.3333C6 10.9797 6.14048 10.6406 6.39052 10.3905C6.64057 10.1405 6.97971 10 7.33333 10H8.66667C9.02029 10 9.35943 10.1405 9.60948 10.3905C9.85952 10.6406 10 10.9797 10 11.3333V14" stroke="#24282B" stroke-width="2" stroke-linecap="round" stroke-linejoin="round"/>
<path d="M6.66667 6H9.33334" stroke="#24282B" stroke-width="2" stroke-linecap="round" stroke-linejoin="round"/>
<path d="M8 4.66667V7.33334" stroke="#24282B" stroke-width="2" stroke-linecap="round" stroke-linejoin="round"/>
</svg>
