<svg width="16" height="16" viewBox="0 0 16 16" fill="none" xmlns="http://www.w3.org/2000/svg">
<path d="M8 12C10.2091 12 12 10.2091 12 8C12 5.79086 10.2091 4 8 4C5.79086 4 4 5.79086 4 8C4 10.2091 5.79086 12 8 12Z" stroke="#24282B" stroke-width="2" stroke-linecap="round" stroke-linejoin="round"/>
<path d="M3.33333 6.66667C4.06971 6.66667 4.66667 6.06971 4.66667 5.33333C4.66667 4.59695 4.06971 4 3.33333 4C2.59695 4 2 4.59695 2 5.33333C2 6.06971 2.59695 6.66667 3.33333 6.66667Z" stroke="#24282B" stroke-width="2" stroke-linecap="round" stroke-linejoin="round"/>
<path d="M8 3.99999C8.73638 3.99999 9.33333 3.40304 9.33333 2.66666C9.33333 1.93028 8.73638 1.33333 8 1.33333C7.26362 1.33333 6.66667 1.93028 6.66667 2.66666C6.66667 3.40304 7.26362 3.99999 8 3.99999Z" stroke="#24282B" stroke-width="2" stroke-linecap="round" stroke-linejoin="round"/>
<path d="M12.6667 6.66667C13.403 6.66667 14 6.06971 14 5.33333C14 4.59695 13.403 4 12.6667 4C11.9303 4 11.3333 4.59695 11.3333 5.33333C11.3333 6.06971 11.9303 6.66667 12.6667 6.66667Z" stroke="#24282B" stroke-width="2" stroke-linecap="round" stroke-linejoin="round"/>
<path d="M3.33333 12C4.06971 12 4.66667 11.403 4.66667 10.6667C4.66667 9.93028 4.06971 9.33333 3.33333 9.33333C2.59695 9.33333 2 9.93028 2 10.6667C2 11.403 2.59695 12 3.33333 12Z" stroke="#24282B" stroke-width="2" stroke-linecap="round" stroke-linejoin="round"/>
<path d="M12.6667 12C13.403 12 14 11.403 14 10.6667C14 9.93028 13.403 9.33333 12.6667 9.33333C11.9303 9.33333 11.3333 9.93028 11.3333 10.6667C11.3333 11.403 11.9303 12 12.6667 12Z" stroke="#24282B" stroke-width="2" stroke-linecap="round" stroke-linejoin="round"/>
<path d="M5.33333 14.6667L8 8L10.6667 14.6667" stroke="#24282B" stroke-width="2" stroke-linecap="round" stroke-linejoin="round"/>
</svg>
