<svg width="16" height="16" viewBox="0 0 16 16" fill="none" xmlns="http://www.w3.org/2000/svg">
<path d="M2 14H14" stroke="#24282B" stroke-width="2" stroke-linecap="round" stroke-linejoin="round"/>
<path d="M2.66667 14V4.00001C2.66667 3.64638 2.80715 3.30724 3.0572 3.0572C3.30724 2.80715 3.64638 2.66667 4.00001 2.66667H12C12.3536 2.66667 12.6928 2.80715 12.9428 3.0572C13.1929 3.30724 13.3333 3.64638 13.3333 4.00001V14" stroke="#24282B" stroke-width="2" stroke-linecap="round" stroke-linejoin="round"/>
<path d="M6 14V8.66667C6 8.13624 6.21071 7.62753 6.58579 7.25246C6.96086 6.87739 7.46957 6.66667 8 6.66667C8.53043 6.66667 9.03914 6.87739 9.41421 7.25246C9.78929 7.62753 10 8.13624 10 8.66667V14" stroke="#24282B" stroke-width="2" stroke-linecap="round" stroke-linejoin="round"/>
</svg>
