<svg width="16" height="16" viewBox="0 0 16 16" fill="none" xmlns="http://www.w3.org/2000/svg">
<path d="M2 14H14" stroke="#24282B" stroke-width="2" stroke-linecap="round" stroke-linejoin="round"/>
<path d="M2.66666 14V6.66667L4.33333 3.66667L8 2L11.6667 3.66667L13.3333 6.66667V14" stroke="#24282B" stroke-width="2" stroke-linecap="round" stroke-linejoin="round"/>
<path d="M8 7.33334C8.73638 7.33334 9.33333 6.73639 9.33333 6.00001C9.33333 5.26363 8.73638 4.66667 8 4.66667C7.26362 4.66667 6.66666 5.26363 6.66666 6.00001C6.66666 6.73639 7.26362 7.33334 8 7.33334Z" stroke="#24282B" stroke-width="2" stroke-linecap="round" stroke-linejoin="round"/>
<path d="M6 14V10.6667C6 10.4899 6.07024 10.3203 6.19526 10.1953C6.32029 10.0702 6.48986 10 6.66667 10H9.33333C9.51014 10 9.67971 10.0702 9.80474 10.1953C9.92976 10.3203 10 10.4899 10 10.6667V14" stroke="#24282B" stroke-width="2" stroke-linecap="round" stroke-linejoin="round"/>
</svg>
