<svg width="16" height="16" viewBox="0 0 16 16" fill="none" xmlns="http://www.w3.org/2000/svg">
<path d="M2 2V14H14" stroke="#24282B" stroke-width="2" stroke-linecap="round" stroke-linejoin="round"/>
<path d="M6 7.33332C6.73638 7.33332 7.33333 6.73637 7.33333 5.99999C7.33333 5.26361 6.73638 4.66666 6 4.66666C5.26362 4.66666 4.66666 5.26361 4.66666 5.99999C4.66666 6.73637 5.26362 7.33332 6 7.33332Z" stroke="#24282B" stroke-width="2" stroke-linecap="round" stroke-linejoin="round"/>
<path d="M12.6667 6.00001C13.403 6.00001 14 5.40306 14 4.66668C14 3.9303 13.403 3.33334 12.6667 3.33334C11.9303 3.33334 11.3333 3.9303 11.3333 4.66668C11.3333 5.40306 11.9303 6.00001 12.6667 6.00001Z" stroke="#24282B" stroke-width="2" stroke-linecap="round" stroke-linejoin="round"/>
<path d="M9.33333 11.3333C10.0697 11.3333 10.6667 10.7364 10.6667 9.99999C10.6667 9.26361 10.0697 8.66666 9.33333 8.66666C8.59695 8.66666 8 9.26361 8 9.99999C8 10.7364 8.59695 11.3333 9.33333 11.3333Z" stroke="#24282B" stroke-width="2" stroke-linecap="round" stroke-linejoin="round"/>
<path d="M6.77333 7.07999L8.33333 8.99999" stroke="#24282B" stroke-width="2" stroke-linecap="round" stroke-linejoin="round"/>
<path d="M10.0587 8.88534L11.95 5.828" stroke="#24282B" stroke-width="2" stroke-linecap="round" stroke-linejoin="round"/>
</svg>
