<svg width="16" height="16" viewBox="0 0 16 16" fill="none" xmlns="http://www.w3.org/2000/svg">
<path d="M6.66667 2.13333C5.62381 2.37509 4.66462 2.89146 3.88859 3.62889C3.11256 4.36631 2.54796 5.29793 2.25336 6.32712C1.95875 7.3563 1.94486 8.44556 2.21313 9.48192C2.4814 10.5183 3.02206 11.464 3.77903 12.221C4.53601 12.9779 5.48172 13.5186 6.51808 13.7869C7.55444 14.0551 8.6437 14.0413 9.67289 13.7466C10.7021 13.452 11.6337 12.8874 12.3711 12.1114C13.1085 11.3354 13.6249 10.3762 13.8667 9.33333C13.8667 9.15652 13.7964 8.98695 13.6714 8.86193C13.5464 8.7369 13.3768 8.66667 13.2 8.66667H8.66667C8.31305 8.66667 7.97391 8.52619 7.72386 8.27614C7.47381 8.02609 7.33334 7.68695 7.33334 7.33333V2.66667C7.32505 2.58768 7.30117 2.51113 7.26308 2.44144C7.22499 2.37176 7.17344 2.31033 7.11143 2.26072C7.04941 2.21111 6.97817 2.1743 6.90182 2.15244C6.82547 2.13057 6.74554 2.12407 6.66667 2.13333Z" stroke="#24282B" stroke-width="2" stroke-linecap="round" stroke-linejoin="round"/>
<path d="M10 2.33334C10.8465 2.6314 11.6153 3.11554 12.2499 3.75012C12.8845 4.38469 13.3686 5.15353 13.6667 6.00001H10.6667C10.4899 6.00001 10.3203 5.92977 10.1953 5.80475C10.0702 5.67972 10 5.51015 10 5.33334V2.33334Z" stroke="#24282B" stroke-width="2" stroke-linecap="round" stroke-linejoin="round"/>
</svg>
