<svg width="16" height="16" viewBox="0 0 16 16" fill="none" xmlns="http://www.w3.org/2000/svg">
<path d="M6.66667 2.13333C5.6238 2.37509 4.66461 2.89146 3.88859 3.62889C3.11256 4.36631 2.54796 5.29793 2.25335 6.32712C1.95874 7.3563 1.94485 8.44556 2.21313 9.48192C2.4814 10.5183 3.02206 11.464 3.77903 12.221C4.536 12.9779 5.48171 13.5186 6.51808 13.7869C7.55444 14.0551 8.6437 14.0413 9.67288 13.7466C10.7021 13.452 11.6337 12.8874 12.3711 12.1114C13.1085 11.3354 13.6249 10.3762 13.8667 9.33333C13.8667 9.15652 13.7964 8.98695 13.6714 8.86193C13.5464 8.7369 13.3768 8.66667 13.2 8.66667H10.6667C10.5455 9.13267 10.3033 9.55838 9.96473 9.90073C9.62613 10.2431 9.20312 10.4899 8.73848 10.6162C8.27384 10.7426 7.78408 10.7439 7.31875 10.6202C6.85343 10.4964 6.42905 10.2519 6.08858 9.91142C5.7481 9.57094 5.50361 9.14657 5.37984 8.68124C5.25608 8.21592 5.25743 7.72616 5.38376 7.26152C5.51009 6.79688 5.75692 6.37386 6.09927 6.03527C6.44162 5.69668 6.86733 5.45453 7.33333 5.33333V2.66667C7.32505 2.58768 7.30117 2.51113 7.26308 2.44144C7.22498 2.37176 7.17344 2.31033 7.11142 2.26072C7.04941 2.21111 6.97816 2.1743 6.90182 2.15244C6.82547 2.13057 6.74554 2.12407 6.66667 2.13333Z" stroke="#24282B" stroke-width="2" stroke-linecap="round" stroke-linejoin="round"/>
<path d="M10 2.33334C10.8465 2.6314 11.6153 3.11554 12.2499 3.75012C12.8845 4.38469 13.3686 5.15353 13.6667 6.00001H10.6667C10.4623 5.76065 10.2394 5.53774 10 5.33334V2.33334Z" stroke="#24282B" stroke-width="2" stroke-linecap="round" stroke-linejoin="round"/>
</svg>
