<svg width="16" height="16" viewBox="0 0 16 16" fill="none" xmlns="http://www.w3.org/2000/svg">
<path d="M4.66667 4H3.33333C2.96514 4 2.66667 4.29848 2.66667 4.66667V6.66667C2.66667 7.03486 2.96514 7.33333 3.33333 7.33333H4.66667C5.03486 7.33333 5.33333 7.03486 5.33333 6.66667V4.66667C5.33333 4.29848 5.03486 4 4.66667 4Z" stroke="#24282B" stroke-width="2" stroke-linecap="round" stroke-linejoin="round"/>
<path d="M4 2.66666V3.99999" stroke="#24282B" stroke-width="2" stroke-linecap="round" stroke-linejoin="round"/>
<path d="M4 7.33334V13.3333" stroke="#24282B" stroke-width="2" stroke-linecap="round" stroke-linejoin="round"/>
<path d="M8.66667 9.33334H7.33333C6.96514 9.33334 6.66667 9.63182 6.66667 10V12C6.66667 12.3682 6.96514 12.6667 7.33333 12.6667H8.66667C9.03486 12.6667 9.33333 12.3682 9.33333 12V10C9.33333 9.63182 9.03486 9.33334 8.66667 9.33334Z" stroke="#24282B" stroke-width="2" stroke-linecap="round" stroke-linejoin="round"/>
<path d="M8 2.66666V9.33332" stroke="#24282B" stroke-width="2" stroke-linecap="round" stroke-linejoin="round"/>
<path d="M8 12.6667V13.3333" stroke="#24282B" stroke-width="2" stroke-linecap="round" stroke-linejoin="round"/>
<path d="M12.6667 3.33334H11.3333C10.9651 3.33334 10.6667 3.63182 10.6667 4.00001V6.66668C10.6667 7.03487 10.9651 7.33334 11.3333 7.33334H12.6667C13.0349 7.33334 13.3333 7.03487 13.3333 6.66668V4.00001C13.3333 3.63182 13.0349 3.33334 12.6667 3.33334Z" stroke="#24282B" stroke-width="2" stroke-linecap="round" stroke-linejoin="round"/>
<path d="M12 2.66666V3.33332" stroke="#24282B" stroke-width="2" stroke-linecap="round" stroke-linejoin="round"/>
<path d="M12 7.33334V13.3333" stroke="#24282B" stroke-width="2" stroke-linecap="round" stroke-linejoin="round"/>
</svg>
