<svg width="16" height="16" viewBox="0 0 16 16" fill="none" xmlns="http://www.w3.org/2000/svg">
<path d="M8 8.66668C8.36819 8.66668 8.66667 8.3682 8.66667 8.00001C8.66667 7.63182 8.36819 7.33334 8 7.33334C7.63181 7.33334 7.33333 7.63182 7.33333 8.00001C7.33333 8.3682 7.63181 8.66668 8 8.66668Z" stroke="#24282B" stroke-width="2" stroke-linecap="round" stroke-linejoin="round"/>
<path d="M11.2827 7.42134C11.1682 6.77207 10.8638 6.17132 10.408 5.69506C9.95208 5.21879 9.36522 4.88841 8.72158 4.74568C8.07794 4.60295 7.40643 4.65429 6.79197 4.89321C6.1775 5.13212 5.64769 5.54788 5.26952 6.08791C4.89135 6.62794 4.68181 7.26799 4.6674 7.9271C4.65299 8.58622 4.83436 9.23481 5.18856 9.79085C5.54277 10.3469 6.05391 10.7854 6.65734 11.051C7.26078 11.3165 7.9294 11.3971 8.57867 11.2827" stroke="#24282B" stroke-width="2" stroke-linecap="round" stroke-linejoin="round"/>
<path d="M2 8C2 9.18669 2.35189 10.3467 3.01118 11.3334C3.67047 12.3201 4.60754 13.0892 5.7039 13.5433C6.80026 13.9974 8.00666 14.1162 9.17054 13.8847C10.3344 13.6532 11.4035 13.0818 12.2426 12.2426C13.0818 11.4035 13.6532 10.3344 13.8847 9.17054C14.1162 8.00666 13.9974 6.80026 13.5433 5.7039C13.0892 4.60754 12.3201 3.67047 11.3334 3.01118C10.3467 2.35189 9.18669 2 8 2" stroke="#24282B" stroke-width="2" stroke-linecap="round" stroke-linejoin="round"/>
</svg>
