<svg width="16" height="16" viewBox="0 0 16 16" fill="none" xmlns="http://www.w3.org/2000/svg">
<path d="M4 12.6667C5.10457 12.6667 6 11.7712 6 10.6667C6 9.56209 5.10457 8.66666 4 8.66666C2.89543 8.66666 2 9.56209 2 10.6667C2 11.7712 2.89543 12.6667 4 12.6667Z" stroke="#24282B" stroke-width="2" stroke-linecap="round" stroke-linejoin="round"/>
<path d="M10.6667 14C11.403 14 12 13.4031 12 12.6667C12 11.9303 11.403 11.3333 10.6667 11.3333C9.93029 11.3333 9.33333 11.9303 9.33333 12.6667C9.33333 13.4031 9.93029 14 10.6667 14Z" stroke="#24282B" stroke-width="2" stroke-linecap="round" stroke-linejoin="round"/>
<path d="M9.66667 8C11.3235 8 12.6667 6.65685 12.6667 5C12.6667 3.34315 11.3235 2 9.66667 2C8.00981 2 6.66667 3.34315 6.66667 5C6.66667 6.65685 8.00981 8 9.66667 8Z" stroke="#24282B" stroke-width="2" stroke-linecap="round" stroke-linejoin="round"/>
</svg>
