<svg width="16" height="16" viewBox="0 0 16 16" fill="none" xmlns="http://www.w3.org/2000/svg">
<path d="M5.33333 8H2.66667C2.29848 8 2 8.29848 2 8.66667V12.6667C2 13.0349 2.29848 13.3333 2.66667 13.3333H5.33333C5.70152 13.3333 6 13.0349 6 12.6667V8.66667C6 8.29848 5.70152 8 5.33333 8Z" stroke="#24282B" stroke-width="2" stroke-linecap="round" stroke-linejoin="round"/>
<path d="M9.33333 5.33334H6.66667C6.29848 5.33334 6 5.63182 6 6.00001V12.6667C6 13.0349 6.29848 13.3333 6.66667 13.3333H9.33333C9.70152 13.3333 10 13.0349 10 12.6667V6.00001C10 5.63182 9.70152 5.33334 9.33333 5.33334Z" stroke="#24282B" stroke-width="2" stroke-linecap="round" stroke-linejoin="round"/>
<path d="M13.3333 2.66666H10.6667C10.2985 2.66666 10 2.96513 10 3.33332V12.6667C10 13.0348 10.2985 13.3333 10.6667 13.3333H13.3333C13.7015 13.3333 14 13.0348 14 12.6667V3.33332C14 2.96513 13.7015 2.66666 13.3333 2.66666Z" stroke="#24282B" stroke-width="2" stroke-linecap="round" stroke-linejoin="round"/>
<path d="M2.66667 13.3333H12" stroke="#24282B" stroke-width="2" stroke-linecap="round" stroke-linejoin="round"/>
</svg>
