<svg width="16" height="16" viewBox="0 0 16 16" fill="none" xmlns="http://www.w3.org/2000/svg">
<path d="M4.66667 12C3.83485 12 3.03711 11.6839 2.44892 11.1213C1.86074 10.5587 1.5303 9.79564 1.5303 9C1.5303 8.20435 1.86074 7.44128 2.44892 6.87868C3.03711 6.31607 3.83485 6 4.66667 6C4.86312 5.12478 5.43784 4.35565 6.26439 3.86181C6.67366 3.61728 7.13243 3.44769 7.61452 3.36274C8.0966 3.27778 8.59256 3.27911 9.07408 3.36666C9.55559 3.45421 10.0132 3.62626 10.4209 3.87298C10.8285 4.11971 11.1781 4.43628 11.4498 4.80461C11.7215 5.17295 11.91 5.58585 12.0044 6.01973C12.0988 6.4536 12.0973 6.89997 12 7.33333H12.6667C13.2855 7.33333 13.879 7.57916 14.3166 8.01675C14.7542 8.45433 15 9.04782 15 9.66666C15 10.2855 14.7542 10.879 14.3166 11.3166C13.879 11.7542 13.2855 12 12.6667 12H4.66667Z" stroke="#24282B" stroke-width="2" stroke-linecap="round" stroke-linejoin="round"/>
</svg>
