<svg width="16" height="16" viewBox="0 0 16 16" fill="none" xmlns="http://www.w3.org/2000/svg">
<path d="M2.69415 6.17938L1.63374 7.31895C1.27658 7.70278 1.2765 8.29729 1.63358 8.68121L2.6936 9.82094C2.85668 9.99627 2.95142 10.2243 2.96062 10.4636L3.02068 12.0262C3.04081 12.5501 3.46203 12.9694 3.98593 12.9873L5.5337 13.0399C5.77461 13.0481 6.00445 13.1431 6.18091 13.3073L7.31895 14.3663C7.70278 14.7234 8.29729 14.7235 8.68121 14.3664L9.81925 13.308C9.9956 13.1439 10.2252 13.0491 10.4659 13.0408L12.0141 12.9876C12.538 12.9696 12.9591 12.5501 12.979 12.0262L13.0385 10.4639C13.0476 10.2245 13.1424 9.99622 13.3057 9.82078L14.3663 8.68105C14.7234 8.29722 14.7235 7.70271 14.3664 7.31879L13.2928 6.1644C13.138 5.99798 13.0445 5.78379 13.0277 5.55713L12.9032 3.87359C12.8646 3.35135 12.4296 2.94736 11.9059 2.94736H10.486C10.2333 2.94736 9.98985 2.85163 9.8048 2.67943L8.6812 1.63388C8.29731 1.27666 7.70268 1.27665 7.31878 1.63386L6.18074 2.69279C6.00438 2.85689 5.77471 2.95181 5.53395 2.9601L3.98511 3.01344C3.4611 3.03148 3.04 3.4512 3.02024 3.97515L2.96137 5.53585C2.95233 5.77545 2.8575 6.00384 2.69415 6.17938Z" stroke="#24282B" stroke-width="2" stroke-linecap="round" stroke-linejoin="round"/>
<path d="M8 10C9.10457 10 10 9.10457 10 8C10 6.89543 9.10457 6 8 6C6.89543 6 6 6.89543 6 8C6 9.10457 6.89543 10 8 10Z" stroke="#24282B" stroke-width="2" stroke-linecap="round" stroke-linejoin="round"/>
</svg>
