<svg width="16" height="16" viewBox="0 0 16 16" fill="none" xmlns="http://www.w3.org/2000/svg">
<path d="M12.6667 2H10C9.64638 2 9.30724 2.14048 9.05719 2.39052C8.80714 2.64057 8.66667 2.97971 8.66667 3.33333V11.3333C8.66667 12.0406 8.94762 12.7189 9.44772 13.219C9.94781 13.719 10.6261 14 11.3333 14C12.0406 14 12.7189 13.719 13.219 13.219C13.719 12.7189 14 12.0406 14 11.3333V3.33333C14 2.97971 13.8595 2.64057 13.6095 2.39052C13.3594 2.14048 13.0203 2 12.6667 2Z" stroke="#24282B" stroke-width="2" stroke-linecap="round" stroke-linejoin="round"/>
<path d="M8.66667 4.90001L7.33333 3.56667C7.0833 3.31671 6.74422 3.17629 6.39067 3.17629C6.03711 3.17629 5.69804 3.31671 5.448 3.56667L3.56267 5.45201C3.3127 5.70204 3.17228 6.04112 3.17228 6.39467C3.17228 6.74823 3.3127 7.0873 3.56267 7.33734L9.56267 13.3373" stroke="#24282B" stroke-width="2" stroke-linecap="round" stroke-linejoin="round"/>
<path d="M4.86667 8.66666H3.33333C2.97971 8.66666 2.64057 8.80714 2.39052 9.05719C2.14048 9.30724 2 9.64638 2 10V12.6667C2 13.0203 2.14048 13.3594 2.39052 13.6095C2.64057 13.8595 2.97971 14 3.33333 14H11.3333" stroke="#24282B" stroke-width="2" stroke-linecap="round" stroke-linejoin="round"/>
<path d="M11.3333 11.3333V11.34" stroke="#24282B" stroke-width="2" stroke-linecap="round" stroke-linejoin="round"/>
</svg>
