<svg width="16" height="16" viewBox="0 0 16 16" fill="none" xmlns="http://www.w3.org/2000/svg">
<path d="M4 2.66667H6.66667C6.84348 2.66667 7.01305 2.73691 7.13807 2.86193C7.2631 2.98696 7.33333 3.15653 7.33333 3.33334V12.6667C7.33333 12.8435 7.2631 13.0131 7.13807 13.1381C7.01305 13.2631 6.84348 13.3333 6.66667 13.3333H4C3.82319 13.3333 3.65362 13.2631 3.5286 13.1381C3.40357 13.0131 3.33333 12.8435 3.33333 12.6667V3.33334C3.33333 3.15653 3.40357 2.98696 3.5286 2.86193C3.65362 2.73691 3.82319 2.66667 4 2.66667V2.66667Z" stroke="#24282B" stroke-width="2" stroke-linecap="round" stroke-linejoin="round"/>
<path d="M10 8H12.6667" stroke="#24282B" stroke-width="2" stroke-linecap="round" stroke-linejoin="round"/>
<path d="M11.3333 6.66667V9.33334" stroke="#24282B" stroke-width="2" stroke-linecap="round" stroke-linejoin="round"/>
</svg>
