<svg width="16" height="16" viewBox="0 0 16 16" fill="none" xmlns="http://www.w3.org/2000/svg">
<path d="M9.33333 2.66667H12C12.1768 2.66667 12.3464 2.73691 12.4714 2.86193C12.5964 2.98696 12.6667 3.15653 12.6667 3.33334V12.6667C12.6667 12.8435 12.5964 13.0131 12.4714 13.1381C12.3464 13.2631 12.1768 13.3333 12 13.3333H9.33333C9.15652 13.3333 8.98695 13.2631 8.86193 13.1381C8.73691 13.0131 8.66667 12.8435 8.66667 12.6667V3.33334C8.66667 3.15653 8.73691 2.98696 8.86193 2.86193C8.98695 2.73691 9.15652 2.66667 9.33333 2.66667V2.66667Z" stroke="#24282B" stroke-width="2" stroke-linecap="round" stroke-linejoin="round"/>
<path d="M3.33333 8H6" stroke="#24282B" stroke-width="2" stroke-linecap="round" stroke-linejoin="round"/>
<path d="M4.66667 6.66667V9.33334" stroke="#24282B" stroke-width="2" stroke-linecap="round" stroke-linejoin="round"/>
</svg>
