<svg width="16" height="16" viewBox="0 0 16 16" fill="none" xmlns="http://www.w3.org/2000/svg">
<path d="M3.71429 5.42857C3.37523 5.42857 3.04379 5.32803 2.76188 5.13966C2.47997 4.95129 2.26024 4.68356 2.13049 4.37032C2.00074 4.05707 1.96679 3.71238 2.03294 3.37985C2.09909 3.04731 2.26236 2.74185 2.5021 2.5021C2.74185 2.26236 3.04731 2.09909 3.37985 2.03294C3.71238 1.96679 4.05707 2.00074 4.37032 2.13049C4.68356 2.26024 4.95129 2.47997 5.13966 2.76188C5.32803 3.04379 5.42857 3.37523 5.42857 3.71429V12.2857C5.42857 12.6248 5.32803 12.9562 5.13966 13.2381C4.95129 13.52 4.68356 13.7398 4.37032 13.8695C4.05707 13.9993 3.71238 14.0332 3.37985 13.9671C3.04731 13.9009 2.74185 13.7376 2.5021 13.4979C2.26236 13.2581 2.09909 12.9527 2.03294 12.6202C1.96679 12.2876 2.00074 11.9429 2.13049 11.6297C2.26024 11.3164 2.47997 11.0487 2.76188 10.8603C3.04379 10.672 3.37523 10.5714 3.71429 10.5714H12.2857C12.6248 10.5714 12.9562 10.672 13.2381 10.8603C13.52 11.0487 13.7398 11.3164 13.8695 11.6297C13.9993 11.9429 14.0332 12.2876 13.9671 12.6202C13.9009 12.9527 13.7376 13.2581 13.4979 13.4979C13.2581 13.7376 12.9527 13.9009 12.6202 13.9671C12.2876 14.0332 11.9429 13.9993 11.6297 13.8695C11.3164 13.7398 11.0487 13.52 10.8603 13.2381C10.672 12.9562 10.5714 12.6248 10.5714 12.2857V3.71429C10.5714 3.37523 10.672 3.04379 10.8603 2.76188C11.0487 2.47997 11.3164 2.26024 11.6297 2.13049C11.9429 2.00074 12.2876 1.96679 12.6202 2.03294C12.9527 2.09909 13.2581 2.26236 13.4979 2.5021C13.7376 2.74185 13.9009 3.04731 13.9671 3.37985C14.0332 3.71238 13.9993 4.05707 13.8695 4.37032C13.7398 4.68356 13.52 4.95129 13.2381 5.13966C12.9562 5.32803 12.6248 5.42857 12.2857 5.42857H3.71429Z" stroke="#24282B" stroke-width="2" stroke-linecap="round" stroke-linejoin="round"/>
</svg>
