<svg width="16" height="16" viewBox="0 0 16 16" fill="none" xmlns="http://www.w3.org/2000/svg">
<path d="M14 5.33334C11.3333 5.33334 9.33333 6.66667 9.33333 8.66667C9.33333 9.1971 9.54405 9.70581 9.91912 10.0809C10.2942 10.456 10.8029 10.6667 11.3333 10.6667C11.8638 10.6667 12.3725 10.456 12.7475 10.0809C13.1226 9.70581 13.3333 9.1971 13.3333 8.66667C13.3333 6.66667 11.6667 5.33334 8 5.33334C4.33333 5.33334 2.66667 6.66667 2.66667 8.66667C2.66667 9.1971 2.87738 9.70581 3.25245 10.0809C3.62753 10.456 4.13623 10.6667 4.66667 10.6667C5.1971 10.6667 5.70581 10.456 6.08088 10.0809C6.45595 9.70581 6.66667 9.1971 6.66667 8.66667C6.66667 6.66667 4.66667 5.33334 2 5.33334" stroke="#24282B" stroke-width="2" stroke-linecap="round" stroke-linejoin="round"/>
</svg>
