<svg width="16" height="16" viewBox="0 0 16 16" fill="none" xmlns="http://www.w3.org/2000/svg">
<path d="M12 12.6667C12.7364 12.6667 13.3333 12.0697 13.3333 11.3333C13.3333 10.597 12.7364 10 12 10C11.2636 10 10.6667 10.597 10.6667 11.3333C10.6667 12.0697 11.2636 12.6667 12 12.6667Z" stroke="#24282B" stroke-width="2" stroke-linecap="round" stroke-linejoin="round"/>
<path d="M3.33333 10.6667V11.3333C3.33333 11.687 3.47381 12.0261 3.72386 12.2761C3.97391 12.5262 4.31304 12.6667 4.66667 12.6667C5.02029 12.6667 5.35943 12.5262 5.60948 12.2761C5.85952 12.0261 6 11.687 6 11.3333V8H4C3.46957 8 2.96086 8.21072 2.58579 8.58579C2.21071 8.96086 2 9.46957 2 10V10.6667H8.66667C8.91376 9.95277 9.35797 9.32344 9.94787 8.85151C10.5378 8.37959 11.2493 8.08436 12 8V4.66667C12 4.31305 11.8595 3.97391 11.6095 3.72386C11.3594 3.47381 11.0203 3.33334 10.6667 3.33334H10" stroke="#24282B" stroke-width="2" stroke-linecap="round" stroke-linejoin="round"/>
<path d="M4 6H6" stroke="#24282B" stroke-width="2" stroke-linecap="round" stroke-linejoin="round"/>
</svg>
