<svg width="16" height="16" viewBox="0 0 16 16" fill="none" xmlns="http://www.w3.org/2000/svg">
<path d="M9.33333 13.34V13.3333" stroke="#24282B" stroke-width="2" stroke-linecap="round" stroke-linejoin="round"/>
<path d="M4 8.66667L5.59067 8.06667C5.7228 8.01687 5.83571 7.92641 5.91312 7.80832C5.99054 7.69022 6.02845 7.5506 6.02141 7.40957C6.01437 7.26854 5.96272 7.13339 5.87393 7.0236C5.78513 6.91381 5.66377 6.83505 5.52733 6.79867L4.518 6.52933C4.38182 6.49318 4.26059 6.4148 4.17173 6.30546C4.08286 6.19611 4.03092 6.06143 4.02337 5.92073C4.01581 5.78003 4.05303 5.64056 4.12968 5.52233C4.20633 5.4041 4.31847 5.3132 4.45 5.26267L6 4.66667" stroke="#24282B" stroke-width="2" stroke-linecap="round" stroke-linejoin="round"/>
<path d="M2 9.33333V10C2 10.5304 2.21071 11.0391 2.58579 11.4142C2.96086 11.7893 3.46957 12 4 12H6.774C7.05465 12 7.33215 11.941 7.58848 11.8267C7.84481 11.7124 8.07421 11.5454 8.26178 11.3367C8.44935 11.1279 8.59088 10.882 8.67718 10.615C8.76347 10.3479 8.7926 10.0657 8.76267 9.78667L8 2.66667" stroke="#24282B" stroke-width="2" stroke-linecap="round" stroke-linejoin="round"/>
<path d="M10.6667 11.3333L11.3333 12H12.6693C12.9121 11.9999 13.1503 11.9336 13.3581 11.8081C13.566 11.6826 13.7356 11.5028 13.8487 11.288C13.9619 11.0732 14.0142 10.8316 14.0001 10.5892C13.986 10.3468 13.906 10.1129 13.7687 9.91267L12 7.33333" stroke="#24282B" stroke-width="2" stroke-linecap="round" stroke-linejoin="round"/>
</svg>
