<svg width="16" height="16" viewBox="0 0 16 16" fill="none" xmlns="http://www.w3.org/2000/svg">
<path d="M5.66667 12.6667H3.33333" stroke="#24282B" stroke-width="2" stroke-linecap="round" stroke-linejoin="round"/>
<path d="M5.73267 10.986C5.61967 10.8644 5.47818 10.7728 5.32096 10.7196C5.16374 10.6663 4.99573 10.653 4.83209 10.6809C4.66844 10.7088 4.51432 10.777 4.38361 10.8793C4.2529 10.9816 4.14973 11.1149 4.08339 11.2671C4.01705 11.4192 3.98964 11.5855 4.00363 11.7509C4.01762 11.9163 4.07256 12.0757 4.16351 12.2145C4.25445 12.3534 4.37854 12.4675 4.52458 12.5464C4.67061 12.6253 4.834 12.6667 5 12.6667" stroke="#24282B" stroke-width="2" stroke-linecap="round" stroke-linejoin="round"/>
<path d="M4.66667 2.66667V8.66667" stroke="#24282B" stroke-width="2" stroke-linecap="round" stroke-linejoin="round"/>
<path d="M10 8.66667H11.2587C11.4346 8.66672 11.6075 8.62034 11.7598 8.53222C11.9121 8.44411 12.0384 8.31736 12.1261 8.16479C12.2137 8.01222 12.2596 7.83922 12.259 7.66327C12.2584 7.48732 12.2113 7.31464 12.1227 7.16267L10.6667 4.66667" stroke="#24282B" stroke-width="2" stroke-linecap="round" stroke-linejoin="round"/>
<path d="M7.33333 8.67333V8.66667" stroke="#24282B" stroke-width="2" stroke-linecap="round" stroke-linejoin="round"/>
</svg>
