<svg width="16" height="16" viewBox="0 0 16 16" fill="none" xmlns="http://www.w3.org/2000/svg">
<path d="M4 6.66665C3.99943 5.94724 4.1652 5.23743 4.48435 4.59269C4.8035 3.94794 5.2674 3.38571 5.8398 2.94992C6.4122 2.51413 7.0776 2.21658 7.78403 2.08051C8.49046 1.94445 9.21878 1.97355 9.9121 2.16554C10.6054 2.35754 11.245 2.70723 11.7808 3.1873C12.3166 3.66737 12.7341 4.26482 13.0008 4.93298C13.2675 5.60113 13.3761 6.3219 13.3182 7.03897C13.2602 7.75605 13.0372 8.45001 12.6667 9.06665C12.2876 9.57202 11.8387 10.021 11.3333 10.4C10.7425 10.9565 10.2865 11.6405 10 12.4C9.79312 12.7909 9.50236 13.1313 9.14853 13.3967C8.7947 13.6621 8.38655 13.846 7.95333 13.9352C7.5201 14.0244 7.07252 14.0167 6.64262 13.9126C6.21272 13.8086 5.81115 13.6107 5.46667 13.3333" stroke="#24282B" stroke-width="2" stroke-linecap="round" stroke-linejoin="round"/>
<path d="M6.66668 6.66667C6.66268 6.33208 6.74269 6.00183 6.89939 5.70617C7.05609 5.41051 7.28446 5.15889 7.5636 4.97436C7.84273 4.78983 8.16371 4.67829 8.49712 4.64994C8.83053 4.6216 9.16573 4.67736 9.47201 4.81212C9.77829 4.94689 10.0459 5.15634 10.2502 5.42131C10.4546 5.68627 10.5892 5.99828 10.6417 6.32874C10.6943 6.65921 10.663 6.99758 10.5509 7.31285C10.4388 7.62813 10.2494 7.91024 10 8.13334" stroke="#24282B" stroke-width="2" stroke-linecap="round" stroke-linejoin="round"/>
</svg>
