<svg width="16" height="16" viewBox="0 0 16 16" fill="none" xmlns="http://www.w3.org/2000/svg">
<path d="M6 4.66667H4C3.64638 4.66667 3.30724 4.80715 3.05719 5.0572C2.80714 5.30724 2.66667 5.64638 2.66667 6.00001V12C2.66667 12.3536 2.80714 12.6928 3.05719 12.9428C3.30724 13.1929 3.64638 13.3333 4 13.3333H10C10.3536 13.3333 10.6928 13.1929 10.9428 12.9428C11.1929 12.6928 11.3333 12.3536 11.3333 12V10" stroke="#24282B" stroke-width="2" stroke-linecap="round" stroke-linejoin="round"/>
<path d="M6 10H8L13.6667 4.33334C13.9319 4.06813 14.0809 3.70841 14.0809 3.33334C14.0809 2.95827 13.9319 2.59856 13.6667 2.33334C13.4014 2.06813 13.0417 1.91913 12.6667 1.91913C12.2916 1.91913 11.9319 2.06813 11.6667 2.33334L6 8.00001V10Z" stroke="#24282B" stroke-width="2" stroke-linecap="round" stroke-linejoin="round"/>
<path d="M10.6667 3.33333L12.6667 5.33333" stroke="#24282B" stroke-width="2" stroke-linecap="round" stroke-linejoin="round"/>
</svg>
