<svg width="16" height="16" viewBox="0 0 16 16" fill="none" xmlns="http://www.w3.org/2000/svg">
<path d="M11.3333 14C12.8061 14 14 12.8061 14 11.3333C14 9.86057 12.8061 8.66666 11.3333 8.66666C9.86053 8.66666 8.66663 9.86057 8.66663 11.3333C8.66663 12.8061 9.86053 14 11.3333 14Z" stroke="#24282B" stroke-width="2" stroke-linecap="round" stroke-linejoin="round"/>
<path d="M11.3334 8.66666V11.3333H14" stroke="#24282B" stroke-width="2" stroke-linecap="round" stroke-linejoin="round"/>
<path d="M8 2V4.66667C8 4.84348 8.07024 5.01305 8.19526 5.13807C8.32029 5.2631 8.48986 5.33333 8.66667 5.33333H11.3333" stroke="#24282B" stroke-width="2" stroke-linecap="round" stroke-linejoin="round"/>
<path d="M11.3333 8.66667V11.3333M7.66667 14H3.33333C2.97971 14 2.64057 13.8595 2.39052 13.6095C2.14048 13.3594 2 13.0203 2 12.6667V3.33333C2 2.97971 2.14048 2.64057 2.39052 2.39052C2.64057 2.14048 2.97971 2 3.33333 2H8L11.3333 5.33333V6.66667L7.66667 14Z" stroke="#24282B" stroke-width="2" stroke-linecap="round" stroke-linejoin="round"/>
</svg>
