<svg width="16" height="16" viewBox="0 0 16 16" fill="none" xmlns="http://www.w3.org/2000/svg">
<path d="M9.33337 2V4.66667C9.33337 4.84348 9.40361 5.01305 9.52864 5.13807C9.65366 5.2631 9.82323 5.33333 10 5.33333H12.6667" stroke="#24282B" stroke-width="2" stroke-linecap="round" stroke-linejoin="round"/>
<path d="M11.3334 14H4.66671C4.31309 14 3.97395 13.8595 3.7239 13.6095C3.47385 13.3594 3.33337 13.0203 3.33337 12.6667V3.33333C3.33337 2.97971 3.47385 2.64057 3.7239 2.39052C3.97395 2.14048 4.31309 2 4.66671 2H9.33337L12.6667 5.33333V12.6667C12.6667 13.0203 12.5262 13.3594 12.2762 13.6095C12.0261 13.8595 11.687 14 11.3334 14Z" stroke="#24282B" stroke-width="2" stroke-linecap="round" stroke-linejoin="round"/>
<path d="M6 8C6 8.08841 6.03512 8.17319 6.09763 8.2357C6.16014 8.29821 6.24493 8.33333 6.33333 8.33333C6.42174 8.33333 6.50652 8.29821 6.56904 8.2357C6.63155 8.17319 6.66667 8.08841 6.66667 8V7.33333C6.66667 7.24493 6.63155 7.16014 6.56904 7.09763C6.50652 7.03512 6.42174 7 6.33333 7C6.24493 7 6.16014 7.03512 6.09763 7.09763C6.03512 7.16014 6 7.24493 6 7.33333V8ZM6 8C6 8.88405 6.35119 9.7319 6.97631 10.357C7.60143 10.9821 8.44928 11.3333 9.33333 11.3333H10C10.0884 11.3333 10.1732 11.2982 10.2357 11.2357C10.2982 11.1732 10.3333 11.0884 10.3333 11C10.3333 10.9116 10.2982 10.8268 10.2357 10.7643C10.1732 10.7018 10.0884 10.6667 10 10.6667H9.33333C9.24493 10.6667 9.16014 10.7018 9.09763 10.7643C9.03512 10.8268 9 10.9116 9 11C9 11.0884 9.03512 11.1732 9.09763 11.2357C9.16014 11.2982 9.24493 11.3333 9.33333 11.3333" stroke="#24282B" stroke-width="2" stroke-linecap="round" stroke-linejoin="round"/>
</svg>
