<svg width="16" height="16" viewBox="0 0 16 16" fill="none" xmlns="http://www.w3.org/2000/svg">
<path d="M9.33337 2V4.66667C9.33337 4.84348 9.40361 5.01305 9.52864 5.13807C9.65366 5.2631 9.82323 5.33333 10 5.33333H12.6667" stroke="#24282B" stroke-width="2" stroke-linecap="round" stroke-linejoin="round"/>
<path d="M3.33337 5.33333V3.33333C3.33337 2.97971 3.47385 2.64057 3.7239 2.39052C3.97395 2.14048 4.31309 2 4.66671 2H9.33337L12.6667 5.33333V12.6667C12.6667 13.0203 12.5262 13.3594 12.2762 13.6095C12.0261 13.8595 11.687 14 11.3334 14H8.00004" stroke="#24282B" stroke-width="2" stroke-linecap="round" stroke-linejoin="round"/>
<path d="M4 11.3333C5.10457 11.3333 6 10.4379 6 9.33333C6 8.22876 5.10457 7.33333 4 7.33333C2.89543 7.33333 2 8.22876 2 9.33333C2 10.4379 2.89543 11.3333 4 11.3333Z" stroke="#24282B" stroke-width="2" stroke-linecap="round" stroke-linejoin="round"/>
<path d="M3 11.3333L2 14.6667L4 13.6667L6 14.6667L5 11.3333" stroke="#24282B" stroke-width="2" stroke-linecap="round" stroke-linejoin="round"/>
</svg>
