<svg width="16" height="16" viewBox="0 0 16 16" fill="none" xmlns="http://www.w3.org/2000/svg">
<path d="M2.66675 14V11.3333C2.66675 10.8029 2.87746 10.2942 3.25253 9.91912C3.62761 9.54405 4.13631 9.33334 4.66675 9.33334H8.00008" stroke="#24282B" stroke-width="2" stroke-linecap="round" stroke-linejoin="round"/>
<path d="M6 11.3333L8 9.33334L6 7.33334" stroke="#24282B" stroke-width="2" stroke-linecap="round" stroke-linejoin="round"/>
<path d="M9.33325 2V4.66667C9.33325 4.84348 9.40349 5.01305 9.52851 5.13807C9.65354 5.2631 9.82311 5.33333 9.99992 5.33333H12.6666" stroke="#24282B" stroke-width="2" stroke-linecap="round" stroke-linejoin="round"/>
<path d="M3.33325 7.33333V3.33333C3.33325 2.97971 3.47373 2.64057 3.72378 2.39052C3.97382 2.14048 4.31296 2 4.66659 2H9.33325L12.6666 5.33333V12.6667C12.6666 13.0203 12.5261 13.3594 12.2761 13.6095C12.026 13.8595 11.6869 14 11.3333 14H4.99992" stroke="#24282B" stroke-width="2" stroke-linecap="round" stroke-linejoin="round"/>
</svg>
