<svg width="16" height="16" viewBox="0 0 16 16" fill="none" xmlns="http://www.w3.org/2000/svg">
<path d="M10.6666 3.33334V6C10.6666 6.17681 10.7369 6.34638 10.8619 6.47141C10.9869 6.59643 11.1565 6.66667 11.3333 6.66667H14" stroke="#24282B" stroke-width="2" stroke-linecap="round" stroke-linejoin="round"/>
<path d="M2 4.66667V11.3333C2 11.687 2.14048 12.0261 2.39052 12.2761C2.64057 12.5262 2.97971 12.6667 3.33333 12.6667H12.6667C13.0203 12.6667 13.3594 12.5262 13.6095 12.2761C13.8595 12.0261 14 11.687 14 11.3333V6.66667L10.6667 3.33334H3.33333C2.97971 3.33334 2.64057 3.47381 2.39052 3.72386C2.14048 3.97391 2 4.31305 2 4.66667V4.66667Z" stroke="#24282B" stroke-width="2" stroke-linecap="round" stroke-linejoin="round"/>
</svg>
