<svg width="16" height="16" viewBox="0 0 16 16" fill="none" xmlns="http://www.w3.org/2000/svg">
<path d="M4.00004 13.8233C3.79706 13.7061 3.62856 13.5375 3.51152 13.3344C3.39447 13.1314 3.33303 12.901 3.33338 12.6667V3.33333C3.33338 2.97971 3.47385 2.64057 3.7239 2.39052C3.97395 2.14048 4.31309 2 4.66671 2H9.33338L12.6667 5.33333V12.6667C12.6667 13.0203 12.5262 13.3594 12.2762 13.6095C12.0261 13.8595 11.687 14 11.3334 14H10.6667" stroke="#24282B" stroke-width="2" stroke-linecap="round" stroke-linejoin="round"/>
<path d="M7.33333 11.3333C7.68696 11.3333 8.02609 11.4738 8.27614 11.7239C8.52619 11.9739 8.66667 12.313 8.66667 12.6667V14C8.66667 14.1768 8.59643 14.3464 8.4714 14.4714C8.34638 14.5964 8.17681 14.6667 8 14.6667H6.66667C6.48986 14.6667 6.32029 14.5964 6.19526 14.4714C6.07024 14.3464 6 14.1768 6 14V12.6667C6 12.313 6.14048 11.9739 6.39052 11.7239C6.64057 11.4738 6.97971 11.3333 7.33333 11.3333Z" stroke="#24282B" stroke-width="2" stroke-linecap="round" stroke-linejoin="round"/>
<path d="M7.33329 3.33334H6.66663" stroke="#24282B" stroke-width="2" stroke-linecap="round" stroke-linejoin="round"/>
<path d="M8.66667 4.66666H8" stroke="#24282B" stroke-width="2" stroke-linecap="round" stroke-linejoin="round"/>
<path d="M7.33329 6H6.66663" stroke="#24282B" stroke-width="2" stroke-linecap="round" stroke-linejoin="round"/>
<path d="M8.66667 7.33334H8" stroke="#24282B" stroke-width="2" stroke-linecap="round" stroke-linejoin="round"/>
<path d="M7.33329 8.66666H6.66663" stroke="#24282B" stroke-width="2" stroke-linecap="round" stroke-linejoin="round"/>
<path d="M8.66667 10H8" stroke="#24282B" stroke-width="2" stroke-linecap="round" stroke-linejoin="round"/>
</svg>
