<svg width="16" height="17" viewBox="0 0 16 17" fill="none" xmlns="http://www.w3.org/2000/svg">
<path d="M3.33333 9.33333H2.66667C2.29848 9.33333 2 9.63181 2 10V12C2 12.3682 2.29848 12.6667 2.66667 12.6667H3.33333C3.70152 12.6667 4 12.3682 4 12V10C4 9.63181 3.70152 9.33333 3.33333 9.33333Z" stroke="#24282B" stroke-width="2" stroke-linecap="round" stroke-linejoin="round"/>
<path d="M4 10C4 9.82319 4.07024 9.65362 4.19526 9.52859C4.32029 9.40357 4.48986 9.33333 4.66667 9.33333H7.17067C7.31409 9.33332 7.45369 9.37957 7.56874 9.4652C7.6838 9.55083 7.76817 9.67128 7.80933 9.80867L8.60933 11.8087C8.66933 12.0107 8.698 12.2287 8.572 12.398C8.44667 12.5673 8.21067 12.6667 8 12.6667H6.66667V14.3113C6.66659 14.4687 6.61591 14.6218 6.52212 14.7481C6.42833 14.8744 6.2964 14.9673 6.14581 15.0128C5.99523 15.0584 5.83397 15.0544 5.68587 15.0013C5.53776 14.9482 5.41066 14.8489 5.32333 14.718L4 12.6667V10V10Z" stroke="#24282B" stroke-width="2" stroke-linecap="round" stroke-linejoin="round"/>
<path d="M9.33337 2V4.66667C9.33337 4.84348 9.40361 5.01305 9.52864 5.13807C9.65366 5.2631 9.82323 5.33333 10 5.33333H12.6667" stroke="#24282B" stroke-width="2" stroke-linecap="round" stroke-linejoin="round"/>
<path d="M3.33337 7.33333V3.33333C3.33337 2.97971 3.47385 2.64057 3.7239 2.39052C3.97395 2.14048 4.31309 2 4.66671 2H9.33337L12.6667 5.33333V12.6667C12.6667 13.0203 12.5262 13.3594 12.2762 13.6095C12.0261 13.8595 11.687 14 11.3334 14H9.66671" stroke="#24282B" stroke-width="2" stroke-linecap="round" stroke-linejoin="round"/>
</svg>
