<svg width="16" height="16" viewBox="0 0 16 16" fill="none" xmlns="http://www.w3.org/2000/svg">
<path d="M3.33333 10.6667H2.66667C2.29848 10.6667 2 10.9651 2 11.3333V13.3333C2 13.7015 2.29848 14 2.66667 14H3.33333C3.70152 14 4 13.7015 4 13.3333V11.3333C4 10.9651 3.70152 10.6667 3.33333 10.6667Z" stroke="#24282B" stroke-width="2" stroke-linecap="round" stroke-linejoin="round"/>
<path d="M4 13.3333C4 13.5101 4.07024 13.6797 4.19526 13.8047C4.32029 13.9298 4.48986 14 4.66667 14H7.17067C7.31409 14 7.45369 13.9538 7.56874 13.8681C7.6838 13.7825 7.76817 13.662 7.80933 13.5247L8.60933 11.5247C8.66933 11.3227 8.698 11.1047 8.572 10.9353C8.44667 10.766 8.21067 10.6667 8 10.6667H6.66667V9.02199C6.66659 8.86466 6.61591 8.71152 6.52212 8.5852C6.42833 8.45888 6.2964 8.36607 6.14581 8.32048C5.99523 8.27489 5.83397 8.27895 5.68587 8.33204C5.53776 8.38513 5.41066 8.48445 5.32333 8.61532L4 10.6667V13.3333V13.3333Z" stroke="#24282B" stroke-width="2" stroke-linecap="round" stroke-linejoin="round"/>
<path d="M9.33325 2V4.66667C9.33325 4.84348 9.40349 5.01305 9.52851 5.13807C9.65354 5.2631 9.82311 5.33333 9.99992 5.33333H12.6666" stroke="#24282B" stroke-width="2" stroke-linecap="round" stroke-linejoin="round"/>
<path d="M3.33325 8.06667V3.33333C3.33325 2.97971 3.47373 2.64057 3.72378 2.39052C3.97382 2.14048 4.31296 2 4.66659 2H9.33325L12.6666 5.33333V12.6667C12.6666 13.0203 12.5261 13.3594 12.2761 13.6095C12.026 13.8595 11.6869 14 11.3333 14H9.79992" stroke="#24282B" stroke-width="2" stroke-linecap="round" stroke-linejoin="round"/>
</svg>
