<svg width="16" height="16" viewBox="0 0 16 16" fill="none" xmlns="http://www.w3.org/2000/svg">
<path d="M9.33337 2V4.66667C9.33337 4.84348 9.40361 5.01305 9.52864 5.13807C9.65366 5.2631 9.82323 5.33333 10 5.33333H12.6667" stroke="#24282B" stroke-width="2" stroke-linecap="round" stroke-linejoin="round"/>
<path d="M4.00004 10.6667L6.00004 12.6667L4.00004 14.6667M3.33337 8.66667V3.33333C3.33337 2.97971 3.47385 2.64057 3.7239 2.39052C3.97395 2.14048 4.31309 2 4.66671 2H9.33337L12.6667 5.33333V12.6667C12.6667 13.0203 12.5262 13.3594 12.2762 13.6095C12.0261 13.8595 11.687 14 11.3334 14H7.66671L3.33337 8.66667ZM1.33337 12.6667H6.00004H1.33337Z" stroke="#24282B" stroke-width="2" stroke-linecap="round" stroke-linejoin="round"/>
</svg>
