<svg width="16" height="16" viewBox="0 0 16 16" fill="none" xmlns="http://www.w3.org/2000/svg">
<path d="M5.99996 2.66667H7.99996L9.33329 4.00001H12.6666C13.0202 4.00001 13.3594 4.14048 13.6094 4.39053C13.8595 4.64058 14 4.97972 14 5.33334V10C14 10.3536 13.8595 10.6928 13.6094 10.9428C13.3594 11.1929 13.0202 11.3333 12.6666 11.3333H5.99996C5.64634 11.3333 5.3072 11.1929 5.05715 10.9428C4.8071 10.6928 4.66663 10.3536 4.66663 10V4.00001C4.66663 3.64638 4.8071 3.30724 5.05715 3.0572C5.3072 2.80715 5.64634 2.66667 5.99996 2.66667Z" stroke="#24282B" stroke-width="2" stroke-linecap="round" stroke-linejoin="round"/>
<path d="M11.3333 11.3333V12.6667C11.3333 13.0203 11.1929 13.3594 10.9428 13.6095C10.6928 13.8595 10.3536 14 10 14H3.33333C2.97971 14 2.64057 13.8595 2.39052 13.6095C2.14048 13.3594 2 13.0203 2 12.6667V6.66666C2 6.31304 2.14048 5.9739 2.39052 5.72385C2.64057 5.4738 2.97971 5.33333 3.33333 5.33333H4.66667" stroke="#24282B" stroke-width="2" stroke-linecap="round" stroke-linejoin="round"/>
</svg>
