<svg width="16" height="16" viewBox="0 0 16 16" fill="none" xmlns="http://www.w3.org/2000/svg">
<path d="M3.33333 7.33333C3.33333 6.09565 3.825 4.90867 4.70017 4.0335C5.57534 3.15833 6.76232 2.66666 8 2.66666C9.23768 2.66666 10.4247 3.15833 11.2998 4.0335C12.175 4.90867 12.6667 6.09565 12.6667 7.33333V12C12.6982 12.2516 12.6483 12.5067 12.5243 12.7278C12.4003 12.949 12.2087 13.1247 11.9776 13.229C11.7465 13.3334 11.4881 13.361 11.2402 13.3078C10.9923 13.2546 10.7679 13.1233 10.6 12.9333C10.4971 12.8017 10.3656 12.6952 10.2154 12.622C10.0653 12.5488 9.9004 12.5107 9.73333 12.5107C9.56627 12.5107 9.4014 12.5488 9.25123 12.622C9.10106 12.6952 8.96955 12.8017 8.86667 12.9333C8.76378 13.065 8.63227 13.1714 8.4821 13.2446C8.33194 13.3179 8.16707 13.3559 8 13.3559C7.83293 13.3559 7.66806 13.3179 7.5179 13.2446C7.36773 13.1714 7.23622 13.065 7.13333 12.9333C7.03045 12.8017 6.89893 12.6952 6.74877 12.622C6.5986 12.5488 6.43373 12.5107 6.26667 12.5107C6.0996 12.5107 5.93473 12.5488 5.78456 12.622C5.6344 12.6952 5.50288 12.8017 5.4 12.9333C5.23209 13.1233 5.00774 13.2546 4.75982 13.3078C4.51191 13.361 4.25347 13.3334 4.02238 13.229C3.79129 13.1247 3.5997 12.949 3.4757 12.7278C3.3517 12.5067 3.30181 12.2516 3.33333 12V7.33333" stroke="#24282B" stroke-width="2" stroke-linecap="round" stroke-linejoin="round"/>
<path d="M6.66667 6.66666H6.67333" stroke="#24282B" stroke-width="2" stroke-linecap="round" stroke-linejoin="round"/>
<path d="M9.33333 6.66666H9.34" stroke="#24282B" stroke-width="2" stroke-linecap="round" stroke-linejoin="round"/>
<path d="M6.66667 9.33334C7.05792 9.60577 7.52324 9.75181 8 9.75181C8.47676 9.75181 8.94208 9.60577 9.33333 9.33334" stroke="#24282B" stroke-width="2" stroke-linecap="round" stroke-linejoin="round"/>
</svg>
