<svg width="16" height="16" viewBox="0 0 16 16" fill="none" xmlns="http://www.w3.org/2000/svg">
<path d="M13.3333 5.33334H2.66667C2.29848 5.33334 2 5.63181 2 6V7.33334C2 7.70153 2.29848 8 2.66667 8H13.3333C13.7015 8 14 7.70153 14 7.33334V6C14 5.63181 13.7015 5.33334 13.3333 5.33334Z" stroke="#24282B" stroke-width="2" stroke-linecap="round" stroke-linejoin="round"/>
<path d="M8 5.33334V14" stroke="#24282B" stroke-width="2" stroke-linecap="round" stroke-linejoin="round"/>
<path d="M12.6667 8V12.6667C12.6667 13.0203 12.5262 13.3594 12.2761 13.6095C12.0261 13.8595 11.687 14 11.3333 14H4.66667C4.31305 14 3.97391 13.8595 3.72386 13.6095C3.47381 13.3594 3.33333 13.0203 3.33333 12.6667V8" stroke="#24282B" stroke-width="2" stroke-linecap="round" stroke-linejoin="round"/>
<path d="M5 5.33335C4.55797 5.33335 4.13405 5.15776 3.82149 4.8452C3.50893 4.53263 3.33333 4.10871 3.33333 3.66668C3.33333 3.22466 3.50893 2.80073 3.82149 2.48817C4.13405 2.17561 4.55797 2.00002 5 2.00002C5.64312 1.98881 6.27335 2.30086 6.80849 2.89546C7.34363 3.49006 7.75885 4.33962 8 5.33335C8.24115 4.33962 8.65637 3.49006 9.19151 2.89546C9.72665 2.30086 10.3569 1.98881 11 2.00002C11.442 2.00002 11.866 2.17561 12.1785 2.48817C12.4911 2.80073 12.6667 3.22466 12.6667 3.66668C12.6667 4.10871 12.4911 4.53263 12.1785 4.8452C11.866 5.15776 11.442 5.33335 11 5.33335" stroke="#24282B" stroke-width="2" stroke-linecap="round" stroke-linejoin="round"/>
</svg>
