<svg width="16" height="16" viewBox="0 0 16 16" fill="none" xmlns="http://www.w3.org/2000/svg">
<path d="M3 7C3.55228 7 4 6.55228 4 6C4 5.44772 3.55228 5 3 5C2.44772 5 2 5.44772 2 6C2 6.55228 2.44772 7 3 7Z" stroke="#24282B" stroke-width="2" stroke-linecap="round" stroke-linejoin="round"/>
<path d="M3 12C3.55228 12 4 11.5523 4 11C4 10.4477 3.55228 10 3 10C2.44772 10 2 10.4477 2 11C2 11.5523 2.44772 12 3 12Z" stroke="#24282B" stroke-width="2" stroke-linecap="round" stroke-linejoin="round"/>
<path d="M8 7C8.55228 7 9 6.55228 9 6C9 5.44772 8.55228 5 8 5C7.44772 5 7 5.44772 7 6C7 6.55228 7.44772 7 8 7Z" stroke="#24282B" stroke-width="2" stroke-linecap="round" stroke-linejoin="round"/>
<path d="M8 12C8.55228 12 9 11.5523 9 11C9 10.4477 8.55228 10 8 10C7.44772 10 7 10.4477 7 11C7 11.5523 7.44772 12 8 12Z" stroke="#24282B" stroke-width="2" stroke-linecap="round" stroke-linejoin="round"/>
<path d="M13 7C13.5523 7 14 6.55228 14 6C14 5.44772 13.5523 5 13 5C12.4477 5 12 5.44772 12 6C12 6.55228 12.4477 7 13 7Z" stroke="#24282B" stroke-width="2" stroke-linecap="round" stroke-linejoin="round"/>
<path d="M13 12C13.5523 12 14 11.5523 14 11C14 10.4477 13.5523 10 13 10C12.4477 10 12 10.4477 12 11C12 11.5523 12.4477 12 13 12Z" stroke="#24282B" stroke-width="2" stroke-linecap="round" stroke-linejoin="round"/>
</svg>
