<svg width="16" height="16" viewBox="0 0 16 16" fill="none" xmlns="http://www.w3.org/2000/svg">
<path d="M7.33333 7.66667V7C7.33333 6.73478 7.43869 6.48043 7.62623 6.29289C7.81376 6.10536 8.06812 6 8.33333 6C8.59855 6 8.8529 6.10536 9.04044 6.29289C9.22798 6.48043 9.33333 6.73478 9.33333 7V8" stroke="#24282B" stroke-width="2" stroke-linecap="round" stroke-linejoin="round"/>
<path d="M11.3333 8.00002V3.66669C11.3333 3.40147 11.4387 3.14712 11.6262 2.95958C11.8138 2.77204 12.0681 2.66669 12.3333 2.66669C12.5985 2.66669 12.8529 2.77204 13.0404 2.95958C13.228 3.14712 13.3333 3.40147 13.3333 3.66669V10.6667C13.3333 11.7276 12.9119 12.745 12.1618 13.4951C11.4116 14.2453 10.3942 14.6667 9.33333 14.6667H8H8.13867C7.47622 14.6668 6.82412 14.5024 6.24092 14.1882C5.65772 13.874 5.16168 13.4199 4.79733 12.8667C4.75361 12.8001 4.71005 12.7335 4.66667 12.6667C4.45867 12.3474 3.72867 11.0747 2.476 8.84802C2.3483 8.62104 2.31419 8.3532 2.38092 8.10146C2.44765 7.84971 2.60997 7.63394 2.83333 7.50002C3.07125 7.35726 3.35005 7.2981 3.62544 7.33192C3.90083 7.36574 4.15703 7.49061 4.35333 7.68669L5.33333 8.66669" stroke="#24282B" stroke-width="2" stroke-linecap="round" stroke-linejoin="round"/>
<path d="M9.33333 7C9.33333 6.73478 9.43869 6.48043 9.62623 6.29289C9.81376 6.10536 10.0681 6 10.3333 6C10.5985 6 10.8529 6.10536 11.0404 6.29289C11.228 6.48043 11.3333 6.73478 11.3333 7V8" stroke="#24282B" stroke-width="2" stroke-linecap="round" stroke-linejoin="round"/>
<path d="M5.33333 8.66667V3C5.33333 2.73478 5.43869 2.48043 5.62623 2.29289C5.81376 2.10536 6.06812 2 6.33333 2C6.59855 2 6.8529 2.10536 7.04044 2.29289C7.22798 2.48043 7.33333 2.73478 7.33333 3V8" stroke="#24282B" stroke-width="2" stroke-linecap="round" stroke-linejoin="round"/>
</svg>
