<svg width="16" height="16" viewBox="0 0 16 16" fill="none" xmlns="http://www.w3.org/2000/svg">
<path d="M2 6.66667L2.66667 8H6.66667" stroke="#24282B" stroke-width="2" stroke-linecap="round" stroke-linejoin="round"/>
<path d="M8 6C7.64638 6 7.30724 6.14048 7.05719 6.39052C6.80714 6.64057 6.66666 6.97971 6.66666 7.33333V9.33333C6.66666 10.0667 7.26666 10.6667 8 10.6667H12.6667C13.0203 10.6667 13.3594 10.5262 13.6095 10.2761C13.8595 10.0261 14 9.68696 14 9.33333C14 7.12667 11.9133 6 9.33333 6H8Z" stroke="#24282B" stroke-width="2" stroke-linecap="round" stroke-linejoin="round"/>
<path d="M8.66666 6V4" stroke="#24282B" stroke-width="2" stroke-linecap="round" stroke-linejoin="round"/>
<path d="M3.33334 4H13.3333" stroke="#24282B" stroke-width="2" stroke-linecap="round" stroke-linejoin="round"/>
<path d="M10 6.06668V8.66667H13.6667" stroke="#24282B" stroke-width="2" stroke-linecap="round" stroke-linejoin="round"/>
<path d="M10 12.6667V10.6667" stroke="#24282B" stroke-width="2" stroke-linecap="round" stroke-linejoin="round"/>
<path d="M12.6667 12.6667H7.33334" stroke="#24282B" stroke-width="2" stroke-linecap="round" stroke-linejoin="round"/>
</svg>
