<svg width="16" height="16" viewBox="0 0 16 16" fill="none" xmlns="http://www.w3.org/2000/svg">
<path d="M8 14C11.3137 14 14 11.3137 14 8C14 4.68629 11.3137 2 8 2C4.68629 2 2 4.68629 2 8C2 11.3137 4.68629 14 8 14Z" stroke="#24282B" stroke-width="2" stroke-linecap="round" stroke-linejoin="round"/>
<path d="M8 11.5V11.293" stroke="#24282B" stroke-width="2" stroke-linecap="round" stroke-linejoin="round"/>
<path d="M8 8.99999C7.98772 8.78357 8.0461 8.56902 8.16634 8.38866C8.28658 8.2083 8.46217 8.07189 8.66666 7.99999C8.91725 7.90416 9.14216 7.75148 9.32371 7.55396C9.50526 7.35643 9.63848 7.11947 9.71288 6.86171C9.78728 6.60396 9.80084 6.33245 9.75248 6.06856C9.70413 5.80468 9.59517 5.55562 9.43421 5.341C9.27324 5.12637 9.06465 4.95204 8.82486 4.83173C8.58507 4.71142 8.32063 4.64841 8.05235 4.64767C7.78407 4.64693 7.51928 4.70847 7.27883 4.82744C7.03837 4.94642 6.66216 5.28627 6.5 5.5" stroke="#24282B" stroke-width="2" stroke-linecap="round" stroke-linejoin="round"/>
</svg>
