<svg width="16" height="16" viewBox="0 0 16 16" fill="none" xmlns="http://www.w3.org/2000/svg">
<g clip-path="url(#clip0)">
<path fill-rule="evenodd" clip-rule="evenodd" d="M5.79239 0.752207C5.67919 0.309608 5.28043 0 4.82358 0H1.6C1.17565 0 0.768687 0.177443 0.468629 0.493294C0.168571 0.809144 0 1.23753 0 1.68421V13.4955C0 14.3988 1.10284 14.8391 1.725 14.1842L4.8 10.9474H7.11204C7.76485 10.9474 8.24261 10.332 8.08085 9.69958L5.79239 0.752207ZM4.832 6.94737H3.17L2.8 8.21053H2L3.6 2.73684H4.4L6 8.21053H5.2L4.832 6.94737ZM3.41602 6.10521H4.58602L4.00002 4.1031L3.41602 6.10521ZM7.68797 0H14.4C14.8244 0 15.2313 0.177443 15.5314 0.493294C15.8314 0.809144 16 1.23753 16 1.68421V9.26316C16 9.70984 15.8314 10.1382 15.5314 10.4541C15.2313 10.7699 14.8244 10.9474 14.4 10.9474H9.97643C9.51958 10.9474 9.12082 10.6378 9.00762 10.1952L6.71915 1.24779C6.55739 0.615341 7.03516 0 7.68797 0ZM12.4 2.73684H11.6V3.57895H10V4.42105H13.2C13.1893 4.90646 13.0609 5.38094 12.8271 5.79948C12.5933 6.21802 12.2618 6.56676 11.864 6.81263C11.216 6.42316 10.8 5.86947 10.8 5.26316H10C10 6.02316 10.382 6.70316 11 7.22105C10.675 7.31966 10.3383 7.36928 10 7.36842V8.21053C10.6475 8.21136 11.287 8.06034 11.872 7.76842C12.5453 8.06685 13.2695 8.2173 14 8.21053V7.36842C13.5693 7.36952 13.1406 7.30789 12.726 7.18526C13.1184 6.8515 13.436 6.43072 13.6563 5.95292C13.8765 5.47512 13.9938 4.95207 14 4.42105V3.57895H12.4V2.73684Z" fill="#24282B"/>
</g>
<defs>
<clipPath id="clip0">
<rect width="16" height="16" fill="white"/>
</clipPath>
</defs>
</svg>
