<svg width="16" height="16" viewBox="0 0 16 16" fill="none" xmlns="http://www.w3.org/2000/svg">
<path d="M4 11L4 2L12.4096 2M11 5V14C11 14 8.74958 14 8 14M11 5V3.00001C11 2.28016 11.6909 1.9493 12.4096 2M11 5C11 5 14 5.31098 14 3.5C14 2.5581 13.1885 2.05495 12.4096 2M8 14H3C2.44772 14 2 13.5524 2 13.0001C2 12.4207 2 11.6744 2 11H8V14Z" stroke="#24282B" stroke-width="2" stroke-linecap="round" stroke-linejoin="round"/>
<path d="M7 5L8 5" stroke="#24282B" stroke-width="2" stroke-linecap="round" stroke-linejoin="round"/>
<path d="M7 8H8" stroke="#24282B" stroke-width="2" stroke-linecap="round" stroke-linejoin="round"/>
</svg>
