<svg width="16" height="16" viewBox="0 0 16 16" fill="none" xmlns="http://www.w3.org/2000/svg">
<path d="M8 7.5V7.50667" stroke="#24282B" stroke-width="2" stroke-linecap="round" stroke-linejoin="round"/>
<path d="M7.99999 12L5.66665 8.66668C4.69928 6.91825 6.04665 4.5 7.99998 4.5C9.99762 4.5 11.2787 6.95794 10.3333 8.66668L7.99999 12Z" stroke="#24282B" stroke-width="2" stroke-linecap="round" stroke-linejoin="round"/>
<path d="M2 5V3C2 2.44772 2.44772 2 3 2H5" stroke="#24282B" stroke-width="2" stroke-linecap="round" stroke-linejoin="round"/>
<path d="M2 11V13C2 13.5523 2.44772 14 3 14H5" stroke="#24282B" stroke-width="2" stroke-linecap="round" stroke-linejoin="round"/>
<path d="M14 5V3C14 2.44772 13.5523 2 13 2H11" stroke="#24282B" stroke-width="2" stroke-linecap="round" stroke-linejoin="round"/>
<path d="M14 11V13C14 13.5523 13.5523 14 13 14H11" stroke="#24282B" stroke-width="2" stroke-linecap="round" stroke-linejoin="round"/>
</svg>
