<svg width="16" height="16" viewBox="0 0 16 16" fill="none" xmlns="http://www.w3.org/2000/svg">
<path d="M14 8L14.7071 8.70711C15.0976 8.31658 15.0976 7.68342 14.7071 7.29289L14 8ZM6 7C5.44771 7 5 7.44771 5 8C5 8.55228 5.44771 9 6 9L6 7ZM11.2929 9.29289C10.9024 9.68342 10.9024 10.3166 11.2929 10.7071C11.6834 11.0976 12.3166 11.0976 12.7071 10.7071L11.2929 9.29289ZM12.7071 5.29289C12.3166 4.90237 11.6834 4.90237 11.2929 5.29289C10.9024 5.68342 10.9024 6.31658 11.2929 6.70711L12.7071 5.29289ZM14 7L6 7L6 9L14 9L14 7ZM13.2929 7.29289L11.2929 9.29289L12.7071 10.7071L14.7071 8.70711L13.2929 7.29289ZM14.7071 7.29289L12.7071 5.29289L11.2929 6.70711L13.2929 8.70711L14.7071 7.29289Z" fill="#24282B"/>
<path d="M10 12C10 11.4477 9.55228 11 9 11C8.44771 11 8 11.4477 8 12L10 12ZM8 4C8 4.55228 8.44771 5 9 5C9.55228 5 10 4.55228 10 4L8 4ZM8 1L3 1L3 3L8 3L8 1ZM1 3L1 13L3 13L3 3L1 3ZM3 15L8 15L8 13L3 13L3 15ZM10 13L10 12L8 12L8 13L10 13ZM8 3L8 4L10 4L10 3L8 3ZM8 15C9.10457 15 10 14.1046 10 13L8 13L8 13L8 15ZM1 13C0.999999 14.1046 1.89543 15 3 15L3 13L1 13ZM3 1C1.89543 1 1 1.89543 1 3L3 3L3 3L3 1ZM8 3L10 3C10 1.89543 9.10457 1 8 1L8 3Z" fill="#24282B"/>
</svg>
