<svg width="16" height="16" viewBox="0 0 16 16" fill="none" xmlns="http://www.w3.org/2000/svg">
<path d="M8 14C8 12.2319 8.70238 10.2029 9.95263 8.95262M8 14C4.36889 14 2 10.6311 2 7C3.75096 7 4.80927 7.7145 6.04738 8.95262M8 14C11.6311 14 14 10.6311 14 7C12.2319 7 11.2029 7.70238 9.95263 8.95262M8 14C8 12.249 7.2855 10.1907 6.04738 8.95262M9.95263 8.95262C10.227 7.0252 9.38945 3.99307 8.00001 2.66666C6.61056 3.99307 5.77298 7.0252 6.04738 8.95262" stroke="#24282B" stroke-width="2" stroke-linecap="round" stroke-linejoin="round"/>
</svg>
