<svg width="16" height="16" viewBox="0 0 16 16" fill="none" xmlns="http://www.w3.org/2000/svg">
<path d="M9.5 7C12.1943 7 10.812 11 13.5 11" stroke="#24282B" stroke-width="2" stroke-linecap="round" stroke-linejoin="round"/>
<path d="M8.5 11C9.5 11 11 9 11 9C11 9 13 7 14 7" stroke="#24282B" stroke-width="2" stroke-linecap="round" stroke-linejoin="round"/>
<path d="M2 12.6667L2.35227 13.0189C2.83492 13.5016 3.63581 13.3645 3.89273 12.7321C4.33754 11.6373 4.94724 9.93047 5.33333 8M5.33333 8C5.75464 5.89348 6.44219 4.05321 6.89122 2.98394C7.11676 2.44687 7.75982 2.25589 8.25932 2.55559L9 3M5.33333 8H7M5.33333 8H3" stroke="#24282B" stroke-width="2" stroke-linecap="round" stroke-linejoin="round"/>
</svg>
