<svg width="16" height="16" viewBox="0 0 16 16" fill="none" xmlns="http://www.w3.org/2000/svg">
<path d="M10.7071 9.29289C10.3166 8.90237 9.68342 8.90237 9.29289 9.29289C8.90237 9.68342 8.90237 10.3166 9.29289 10.7071L10.7071 9.29289ZM14 14L14 15C14.2652 15 14.5196 14.8946 14.7071 14.7071C14.8946 14.5196 15 14.2652 15 14H14ZM10 13C9.44772 13 9 13.4477 9 14C9 14.5523 9.44771 15 10 15L10 13ZM15 10C15 9.44772 14.5523 9 14 9C13.4477 9 13 9.44772 13 10H15ZM9.29289 10.7071L13.2929 14.7071L14.7071 13.2929L10.7071 9.29289L9.29289 10.7071ZM14 13L10 13L10 15L14 15L14 13ZM15 14V10H13V14H15Z" fill="#24282B"/>
<path d="M5.70711 11.7071C6.09763 11.3166 6.09763 10.6834 5.70711 10.2929C5.31658 9.90237 4.68342 9.90237 4.29289 10.2929L5.70711 11.7071ZM2 14H1C1 14.2652 1.10536 14.5196 1.29289 14.7071C1.48043 14.8946 1.73478 15 2 15L2 14ZM6 15C6.55229 15 7 14.5523 7 14C7 13.4477 6.55228 13 6 13L6 15ZM3 10C3 9.44772 2.55228 9 2 9C1.44772 9 1 9.44772 1 10H3ZM4.29289 10.2929L1.29289 13.2929L2.70711 14.7071L5.70711 11.7071L4.29289 10.2929ZM2 15L6 15L6 13L2 13L2 15ZM3 14V10H1V14H3Z" fill="#24282B"/>
<path d="M10.2929 4.29289C9.90237 4.68342 9.90237 5.31658 10.2929 5.70711C10.6834 6.09763 11.3166 6.09763 11.7071 5.70711L10.2929 4.29289ZM14 2H15C15 1.44772 14.5523 1 14 1V2ZM10 1C9.44772 1 9 1.44772 9 2C9 2.55228 9.44772 3 10 3V1ZM13 6C13 6.55229 13.4477 7 14 7C14.5523 7 15 6.55229 15 6H13ZM11.7071 5.70711L14.7071 2.70711L13.2929 1.29289L10.2929 4.29289L11.7071 5.70711ZM14 1H10V3H14V1ZM13 2V6H15V2H13Z" fill="#24282B"/>
<path d="M5.29289 6.70711C5.68342 7.09763 6.31658 7.09763 6.70711 6.70711C7.09763 6.31658 7.09763 5.68342 6.70711 5.29289L5.29289 6.70711ZM2 2V1C1.44772 1 1 1.44772 1 2H2ZM6 3C6.55228 3 7 2.55228 7 2C7 1.44772 6.55228 1 6 1V3ZM1 6C1 6.55229 1.44772 7 2 7C2.55228 7 3 6.55229 3 6H1ZM6.70711 5.29289L2.70711 1.29289L1.29289 2.70711L5.29289 6.70711L6.70711 5.29289ZM2 3H6V1H2V3ZM1 2V6H3V2H1Z" fill="#24282B"/>
</svg>
