<svg width="16" height="16" viewBox="0 0 16 16" fill="none" xmlns="http://www.w3.org/2000/svg">
<path d="M10 6V4C10 2.89543 9.10457 2 8 2C7.63571 2 7.29417 2.09739 7 2.26756M8 9C6.89543 9 6 8.10457 6 7V6" stroke="#24282B" stroke-width="2" stroke-linecap="round" stroke-linejoin="round"/>
<path d="M3 7C3 9.54178 5.45822 11.5 8 11.5M8 11.5L8 14M8 11.5C8.79843 11.5 9.58862 11.3068 10.297 10.9629M13 7C13 7.38761 12.9428 7.76165 12.8369 8.11724M5 14H8M11 14H8" stroke="#24282B" stroke-width="2" stroke-linecap="round" stroke-linejoin="round"/>
<path d="M2 2L14 14" stroke="#24282B" stroke-width="2" stroke-linecap="round" stroke-linejoin="round"/>
</svg>
