<svg width="16" height="16" viewBox="0 0 16 16" fill="none" xmlns="http://www.w3.org/2000/svg">
<path d="M3 1C1.89543 1 1 1.89543 1 3V13C1 14.1046 1.89543 15 3 15H13C14.1046 15 15 14.1046 15 13V10C15 9.44772 14.5523 9 14 9C13.4477 9 13 9.44772 13 10V13H3V3L6 3C6.55228 3 7 2.55228 7 2C7 1.44772 6.55228 1 6 1H3Z" fill="#24282B"/>
<path d="M10 1C9.44771 1 9 1.44772 9 2C9 2.55228 9.44771 3 10 3H11.5858L7.79289 6.79289C7.40237 7.18342 7.40237 7.81658 7.79289 8.20711C8.18342 8.59763 8.81658 8.59763 9.20711 8.20711L13 4.41421V6C13 6.55228 13.4477 7 14 7C14.5523 7 15 6.55228 15 6V2C15 1.44772 14.5523 1 14 1H10Z" fill="#24282B"/>
</svg>
