<svg width="16" height="16" viewBox="0 0 16 16" fill="none" xmlns="http://www.w3.org/2000/svg">
<path d="M11.3333 12.3334C10.8104 12.573 10.2419 12.6971 9.66667 12.6971C9.09142 12.6971 8.52293 12.573 8 12.3334C7.45332 12.1446 6.87222 12.0767 6.29676 12.1343C5.72129 12.1918 5.16515 12.3735 4.66667 12.6667C5.02361 12.5431 5.33828 12.321 5.57424 12.0261C5.81021 11.7311 5.95782 11.3754 6 11V6.00002C6.00352 5.41597 6.19869 4.84923 6.55552 4.38686C6.91236 3.92448 7.41113 3.59204 7.97521 3.44061C8.5393 3.28918 9.1375 3.32713 9.67793 3.54863C10.2184 3.77013 10.6711 4.16292 10.9667 4.66669M9.26667 8.66669H4.6" stroke="#24282B" stroke-width="2" stroke-linecap="round" stroke-linejoin="round"/>
</svg>
