<svg width="16" height="16" viewBox="0 0 16 16" fill="none" xmlns="http://www.w3.org/2000/svg">
<path d="M10 9C10 8.20531 9.53651 7.51887 8.8651 7.19627M10 9C11.0442 9 12.1135 9.27586 13.0506 9.73056C13.9658 10.1347 14.3776 11.125 13.5624 12.6437C12.7472 14.1625 11.7436 14.2745 10.9609 13.623C9.99074 12.8724 9.32848 11.8804 8.61592 10.9034M10 9C10 9.88966 9.41911 10.6437 8.61592 10.9034M6 9C6 8.20531 6.46349 7.51887 7.1349 7.19627M6 9C6 9.85698 6.539 10.5881 7.29649 10.8728M6 9C4.95609 9 3.88709 9.2757 2.9504 9.7306C2.03417 10.1341 1.62241 11.1251 2.43751 12.6439C3.2526 14.1628 4.25552 14.2742 5.03871 13.6232C5.99359 12.8844 6.7333 11.9315 7.29649 10.8728M7.1349 7.19627C7.39671 7.07047 7.69012 7 8 7C8.30988 7 8.60329 7.07047 8.8651 7.19627M7.1349 7.19627C6.52525 6.3093 5.60877 5.08847 5.5 4C5.35333 2.914 6.19467 2 8 2C9.80533 2 10.6467 2.91333 10.5 4C10.3912 5.08847 9.47474 6.30929 8.8651 7.19627M8.61592 10.9034C8.4219 10.9661 8.21491 11 8 11C7.75241 11 7.51533 10.955 7.29649 10.8728" stroke="#24282B" stroke-width="2" stroke-linecap="round" stroke-linejoin="round"/>
</svg>
