<svg width="16" height="16" viewBox="0 0 16 16" fill="none" xmlns="http://www.w3.org/2000/svg">
<path d="M14 4H11.3333C10.8029 4 10.2942 4.21071 9.91912 4.58579C9.54405 4.96086 9.33333 5.46957 9.33333 6C9.33333 6.53043 9.54405 7.03914 9.91912 7.41421C10.2942 7.78929 10.8029 8 11.3333 8H12C12.5304 8 13.0391 8.21071 13.4142 8.58579C13.7893 8.96086 14 9.46957 14 10C14 10.5304 13.7893 11.0391 13.4142 11.4142C13.0391 11.7893 12.5304 12 12 12H9.33333" stroke="#24282B" stroke-width="2" stroke-linecap="round" stroke-linejoin="round"/>
<path d="M2.66667 12V4H4.66667C5.1971 4 5.70581 4.21071 6.08088 4.58579C6.45595 4.96086 6.66667 5.46957 6.66667 6C6.66667 6.53043 6.45595 7.03914 6.08088 7.41421C5.70581 7.78929 5.1971 8 4.66667 8H2.66667C6.33333 8 6 10.6667 6.66667 12" stroke="#24282B" stroke-width="2" stroke-linecap="round" stroke-linejoin="round"/>
<path d="M12 4V2.66667" stroke="#24282B" stroke-width="2" stroke-linecap="round" stroke-linejoin="round"/>
<path d="M11.3333 13.3333V12" stroke="#24282B" stroke-width="2" stroke-linecap="round" stroke-linejoin="round"/>
</svg>
