<svg width="16" height="16" viewBox="0 0 16 16" fill="none" xmlns="http://www.w3.org/2000/svg">
<path d="M4.66667 10C5.77124 10 6.66667 9.10457 6.66667 8C6.66667 6.89543 5.77124 6 4.66667 6C3.5621 6 2.66667 6.89543 2.66667 8C2.66667 9.10457 3.5621 10 4.66667 10Z" stroke="#24282B" stroke-width="2" stroke-linecap="round" stroke-linejoin="round"/>
<path d="M11.3333 6.66667C12.4379 6.66667 13.3333 5.77124 13.3333 4.66667C13.3333 3.5621 12.4379 2.66667 11.3333 2.66667C10.2288 2.66667 9.33333 3.5621 9.33333 4.66667C9.33333 5.77124 10.2288 6.66667 11.3333 6.66667Z" stroke="#24282B" stroke-width="2" stroke-linecap="round" stroke-linejoin="round"/>
<path d="M11.3333 13.3333C12.4379 13.3333 13.3333 12.4379 13.3333 11.3333C13.3333 10.2288 12.4379 9.33333 11.3333 9.33333C10.2288 9.33333 9.33333 10.2288 9.33333 11.3333C9.33333 12.4379 10.2288 13.3333 11.3333 13.3333Z" stroke="#24282B" stroke-width="2" stroke-linecap="round" stroke-linejoin="round"/>
<path d="M6.66667 8H8.66667L10 6.33333" stroke="#24282B" stroke-width="2" stroke-linecap="round" stroke-linejoin="round"/>
<path d="M10 9.66667L8.66667 8" stroke="#24282B" stroke-width="2" stroke-linecap="round" stroke-linejoin="round"/>
</svg>
