<svg width="16" height="16" viewBox="0 0 16 16" fill="none" xmlns="http://www.w3.org/2000/svg">
<path d="M10 6V7.33333C10 7.68696 9.85952 8.02609 9.60948 8.27614C9.35943 8.52619 9.02029 8.66667 8.66667 8.66667C8.31304 8.66667 7.97391 8.52619 7.72386 8.27614C7.47381 8.02609 7.33333 7.68696 7.33333 7.33333V6.66667V7.33333C7.33333 7.68696 7.19286 8.02609 6.94281 8.27614C6.69276 8.52619 6.35362 8.66667 6 8.66667C5.64638 8.66667 5.30724 8.52619 5.05719 8.27614C4.80714 8.02609 4.66667 7.68696 4.66667 7.33333V6.66667V9.33333C4.66667 9.68696 4.52619 10.0261 4.27614 10.2761C4.02609 10.5262 3.68696 10.6667 3.33333 10.6667C2.97971 10.6667 2.64057 10.5262 2.39052 10.2761C2.14048 10.0261 2 9.68696 2 9.33333V8" stroke="#24282B" stroke-width="2" stroke-linecap="round" stroke-linejoin="round"/>
<path d="M12 8.00667V8" stroke="#24282B" stroke-width="2" stroke-linecap="round" stroke-linejoin="round"/>
<path d="M14.6667 6.66667V7.33333C14.6667 8.21739 14.3155 9.06523 13.6904 9.69036C13.0652 10.3155 12.2174 10.6667 11.3333 10.6667" stroke="#24282B" stroke-width="2" stroke-linecap="round" stroke-linejoin="round"/>
</svg>
