<svg width="16" height="16" viewBox="0 0 16 16" fill="none" xmlns="http://www.w3.org/2000/svg">
<path d="M2.66667 8.66667C3.8554 8.80794 4.96204 9.34503 5.80851 10.1915C6.65498 11.038 7.19207 12.1446 7.33334 13.3333C7.92262 12.9936 8.41553 12.5092 8.76549 11.926C9.11545 11.3427 9.31089 10.6798 9.33334 10C10.4527 9.60621 11.4302 8.88933 12.1422 7.94001C12.8542 6.99069 13.2687 5.85156 13.3333 4.66667C13.3333 4.13624 13.1226 3.62753 12.7476 3.25246C12.3725 2.87739 11.8638 2.66667 11.3333 2.66667C10.1484 2.73128 9.00932 3.14578 8.06 3.85777C7.11068 4.56976 6.3938 5.54726 6 6.66667C5.32018 6.68912 4.65731 6.88456 4.07405 7.23452C3.49079 7.58448 3.0064 8.07739 2.66667 8.66667" stroke="#24282B" stroke-width="2" stroke-linecap="round" stroke-linejoin="round"/>
<path d="M4.66667 9.33333C3.97283 9.72504 3.41177 10.315 3.05544 11.0277C2.69911 11.7404 2.56374 12.5432 2.66667 13.3333C3.45678 13.4363 4.25962 13.3009 4.97229 12.9446C5.68495 12.5882 6.27496 12.0272 6.66667 11.3333" stroke="#24282B" stroke-width="2" stroke-linecap="round" stroke-linejoin="round"/>
<path d="M10 6.66666C10.3682 6.66666 10.6667 6.36818 10.6667 5.99999C10.6667 5.63181 10.3682 5.33333 10 5.33333C9.63181 5.33333 9.33333 5.63181 9.33333 5.99999C9.33333 6.36818 9.63181 6.66666 10 6.66666Z" stroke="#24282B" stroke-width="2" stroke-linecap="round" stroke-linejoin="round"/>
</svg>
