<svg width="16" height="16" viewBox="0 0 16 16" fill="none" xmlns="http://www.w3.org/2000/svg">
<path d="M12 12.6667C12.7364 12.6667 13.3333 12.0697 13.3333 11.3333C13.3333 10.597 12.7364 10 12 10C11.2636 10 10.6667 10.597 10.6667 11.3333C10.6667 12.0697 11.2636 12.6667 12 12.6667Z" stroke="#24282B" stroke-width="2" stroke-linecap="round" stroke-linejoin="round"/>
<path d="M4 12.6667C4.73638 12.6667 5.33333 12.0697 5.33333 11.3333C5.33333 10.597 4.73638 10 4 10C3.26362 10 2.66666 10.597 2.66666 11.3333C2.66666 12.0697 3.26362 12.6667 4 12.6667Z" stroke="#24282B" stroke-width="2" stroke-linecap="round" stroke-linejoin="round"/>
<path d="M5.33334 11.3333H8.66667C8.79768 10.4963 9.19106 9.72252 9.79013 9.12345C10.3892 8.52439 11.163 8.131 12 8V4.66666C12 4.31304 11.8595 3.9739 11.6095 3.72385C11.3594 3.4738 11.0203 3.33333 10.6667 3.33333H10" stroke="#24282B" stroke-width="2" stroke-linecap="round" stroke-linejoin="round"/>
</svg>
