<svg width="16" height="16" viewBox="0 0 16 16" fill="none" xmlns="http://www.w3.org/2000/svg">
<path d="M2 12L1.29289 11.2929C0.902369 11.6834 0.902369 12.3166 1.29289 12.7071L2 12ZM10 13C10.5523 13 11 12.5523 11 12C11 11.4477 10.5523 11 10 11V13ZM5.70711 9.70711C6.09763 9.31658 6.09763 8.68342 5.70711 8.29289C5.31658 7.90237 4.68342 7.90237 4.29289 8.29289L5.70711 9.70711ZM4.29289 15.7071C4.68342 16.0976 5.31658 16.0976 5.70711 15.7071C6.09763 15.3166 6.09763 14.6834 5.70711 14.2929L4.29289 15.7071ZM2 13H10V11H2V13ZM2.70711 12.7071L5.70711 9.70711L4.29289 8.29289L1.29289 11.2929L2.70711 12.7071ZM1.29289 12.7071L4.29289 15.7071L5.70711 14.2929L2.70711 11.2929L1.29289 12.7071Z" fill="#24282B"/>
<path d="M7 3C6.44772 3 6 3.44772 6 4C6 4.55228 6.44772 5 7 5V3ZM14 4L14.7071 4.70711C15.0976 4.31658 15.0976 3.68342 14.7071 3.29289L14 4ZM11.7071 0.292893C11.3166 -0.0976311 10.6834 -0.0976311 10.2929 0.292893C9.90237 0.683417 9.90237 1.31658 10.2929 1.70711L11.7071 0.292893ZM10.2929 6.29289C9.90237 6.68342 9.90237 7.31658 10.2929 7.70711C10.6834 8.09763 11.3166 8.09763 11.7071 7.70711L10.2929 6.29289ZM7 5H14V3H7V5ZM14.7071 3.29289L11.7071 0.292893L10.2929 1.70711L13.2929 4.70711L14.7071 3.29289ZM13.2929 3.29289L10.2929 6.29289L11.7071 7.70711L14.7071 4.70711L13.2929 3.29289Z" fill="#24282B"/>
</svg>
