<svg width="16" height="16" viewBox="0 0 16 16" fill="none" xmlns="http://www.w3.org/2000/svg">
<path d="M11 11C11.3682 11 11.6667 10.7015 11.6667 10.3333C11.6667 9.96514 11.3682 9.66667 11 9.66667C10.6318 9.66667 10.3333 9.96514 10.3333 10.3333C10.3333 10.7015 10.6318 11 11 11Z" stroke="#24282B" stroke-width="2" stroke-linecap="round" stroke-linejoin="round"/>
<path d="M4.66666 4.66667C4.66666 4.31304 4.80714 3.9739 5.05719 3.72386C5.30724 3.47381 5.64638 3.33333 6 3.33333C6.35362 3.33333 6.69276 3.47381 6.94281 3.72386C7.19285 3.9739 7.33333 4.31304 7.33333 4.66667V10.6667C7.33333 11.1971 7.54404 11.7058 7.91912 12.0809C8.29419 12.456 8.8029 12.6667 9.33333 12.6667C9.86376 12.6667 10.3725 12.456 10.7475 12.0809C11.1226 11.7058 11.3333 11.1971 11.3333 10.6667V10.3333" stroke="#24282B" stroke-width="2" stroke-linecap="round" stroke-linejoin="round"/>
<path d="M5.33334 7.33333H9.33334" stroke="#24282B" stroke-width="2" stroke-linecap="round" stroke-linejoin="round"/>
</svg>
