<svg width="16" height="16" viewBox="0 0 16 16" fill="none" xmlns="http://www.w3.org/2000/svg">
<path d="M6.66666 9.33333C6.88391 9.55506 7.14322 9.73122 7.42941 9.85147C7.71559 9.97173 8.0229 10.0337 8.33332 10.0337C8.64375 10.0337 8.95105 9.97173 9.23724 9.85147C9.52342 9.73122 9.78274 9.55506 9.99999 9.33333L12.6667 6.66666C13.1087 6.22464 13.357 5.62512 13.357 5C13.357 4.37488 13.1087 3.77536 12.6667 3.33333C12.2246 2.8913 11.6251 2.64297 11 2.64297C10.3749 2.64297 9.77535 2.8913 9.33332 3.33333L8.99999 3.66666" stroke="#24282B" stroke-width="2" stroke-linecap="round" stroke-linejoin="round"/>
<path d="M9.33333 6.66668C9.11608 6.44495 8.85677 6.26879 8.57058 6.14854C8.28439 6.02828 7.97709 5.96634 7.66666 5.96634C7.35624 5.96634 7.04893 6.02828 6.76275 6.14854C6.47656 6.26879 6.21725 6.44495 6 6.66668L3.33333 9.33335C2.8913 9.77537 2.64297 10.3749 2.64297 11C2.64297 11.6251 2.8913 12.2247 3.33333 12.6667C3.77536 13.1087 4.37488 13.357 5 13.357C5.62512 13.357 6.22464 13.1087 6.66666 12.6667L7 12.3333" stroke="#24282B" stroke-width="2" stroke-linecap="round" stroke-linejoin="round"/>
<path d="M10.6667 14V12.6667" stroke="#24282B" stroke-width="2" stroke-linecap="round" stroke-linejoin="round"/>
<path d="M12.6667 10.6667H14" stroke="#24282B" stroke-width="2" stroke-linecap="round" stroke-linejoin="round"/>
<path d="M2 5.33334H3.33333" stroke="#24282B" stroke-width="2" stroke-linecap="round" stroke-linejoin="round"/>
<path d="M5.33334 2V3.33333" stroke="#24282B" stroke-width="2" stroke-linecap="round" stroke-linejoin="round"/>
</svg>
