<svg width="16" height="16" viewBox="0 0 16 16" fill="none" xmlns="http://www.w3.org/2000/svg">
<path d="M8 2L8.70711 1.29289C8.31658 0.902369 7.68342 0.902369 7.29289 1.29289L8 2ZM7 10C7 10.5523 7.44772 11 8 11C8.55228 11 9 10.5523 9 10H7ZM10.2929 5.70711C10.6834 6.09763 11.3166 6.09763 11.7071 5.70711C12.0976 5.31658 12.0976 4.68342 11.7071 4.29289L10.2929 5.70711ZM4.29289 4.29289C3.90237 4.68342 3.90237 5.31658 4.29289 5.70711C4.68342 6.09763 5.31658 6.09763 5.70711 5.70711L4.29289 4.29289ZM7 2V10H9V2H7ZM7.29289 2.70711L10.2929 5.70711L11.7071 4.29289L8.70711 1.29289L7.29289 2.70711ZM7.29289 1.29289L4.29289 4.29289L5.70711 5.70711L8.70711 2.70711L7.29289 1.29289Z" fill="#24282B"/>
<path d="M3 12C3 11.4477 2.55228 11 2 11C1.44772 11 1 11.4477 1 12H3ZM15 12C15 11.4477 14.5523 11 14 11C13.4477 11 13 11.4477 13 12H15ZM1 12V13H3V12H1ZM3 15H13V13H3V15ZM15 13V12H13V13H15ZM13 15C14.1046 15 15 14.1046 15 13H13V15ZM1 13C1 14.1046 1.89543 15 3 15V13H1Z" fill="#24282B"/>
</svg>
