<svg width="16" height="16" viewBox="0 0 16 16" fill="none" xmlns="http://www.w3.org/2000/svg">
<path d="M11 7C12.1046 7 13 6.10457 13 5C13 3.89543 12.1046 3 11 3M14 14V11C14 10.4477 13.5523 10 13 10C12.6015 10 12.1922 10 12 10" stroke="#24282B" stroke-width="2" stroke-linecap="round" stroke-linejoin="round"/>
<path d="M10 14C10 13.3333 10 12.6667 10 12C10 10.8954 9.10466 10 8.00009 10C6.81027 10 5.2866 10 3.99899 10C2.89442 10 2 10.8952 2 11.9998C2 12.6705 2 13.3999 2 14M8 5C8 6.10457 7.10457 7 6 7C4.89543 7 4 6.10457 4 5C4 3.89543 4.89543 3 6 3C7.10457 3 8 3.89543 8 5Z" stroke="#24282B" stroke-width="2" stroke-linecap="round" stroke-linejoin="round"/>
</svg>
