<svg width="16" height="16" viewBox="0 0 16 16" fill="none" xmlns="http://www.w3.org/2000/svg">
<path d="M8 13H8.00667M5.5 11L6.33627 10.4427C7.13394 9.91105 8.12272 9.80032 9 10.1105C9.2308 10.1921 9.45388 10.3028 9.66374 10.4427L10.5 11M4 8.5L4.82001 7.9875C5.29893 7.68817 5.80955 7.46252 6.33627 7.31056M11.18 7.9875L12 8.5M2 6L2.453 5.698C2.9487 5.36753 3.46654 5.08584 4 4.85291M14 6L13.547 5.698C11.8694 4.57962 9.9382 4.01979 8.00667 4.0185" stroke="#24282B" stroke-width="2" stroke-linecap="round" stroke-linejoin="round"/>
<path d="M2 2L14 14" stroke="#24282B" stroke-width="2" stroke-linecap="round" stroke-linejoin="round"/>
</svg>
dth="2" stroke-linecap="round" stroke-linejoin="round"/>
</svg>
