<?xml version="1.0" standalone="no"?>
<!DOCTYPE svg PUBLIC "-//W3C//DTD SVG 1.1//EN" "http://www.w3.org/Graphics/SVG/1.1/DTD/svg11.dtd" >
<svg xmlns="http://www.w3.org/2000/svg" xmlns:xlink="http://www.w3.org/1999/xlink" version="1.1" viewBox="-10 0 1010 1000">
  <g transform="matrix(1 0 0 -1 0 800)">
   <path fill="currentColor"
d="M91 501c27.8208 33.385 63.845 55.165 121 47c46 -6 82 -26 107 -60c35 -47 42 -111 17 -168c-7 -16 -6 -15 -66 -104l-27 -41h79c24.8168 -8.27227 45.0522 -21.8297 51 -48c1 -3 2 -6 2 -7v377l2 5c7 25 25 43 50 47c5 1 16 1 76 1h69
c25.9421 -8.64736 43.8666 -20.6553 51 -48c9.97194 -39.8877 -17.7005 -67.8784 -45 -75l-6 -2h-72v-62l20 -1c20 0 21 0 27 -2c24.9909 -6.81571 46 -27.3496 46 -60c0 -32.752 -20.9969 -53.181 -46 -60c-6 -2 -7 -2 -27 -2l-20 -1v-67c0 -67 -1 -67 -2 -72
c-7 -28 -30 -47 -58 -48c-30 -1 -56 19 -63 48c-1 3 -1 6 -1 7s-1 1 -1 1s-1 0 -1 -1c0 -30.7764 -27.0378 -46.6793 -52 -55h-101c-88 0 -101 0 -106 1c-27.9168 4.9265 -52 27.6188 -52 61c0 12 2 23 8 32c1 2 25 38 54 81c97 144 95 141 97 147c3 7 4 12 4 19
c0 20 -11 32 -32 34c-5 1 -6 -1 -7 -6c-2 -15 -8 -28 -18 -38c-28 -28 -75 -23 -96 10c-22.334 35.7344 -4.00933 82.9116 18 110zM672 499c29.4 34.3 70.6654 56.6668 132 49c87.3003 -13.095 121.913 -86.1046 131 -180c2 -22 2 -45 2 -156v-109
c-6.18489 -30.9244 -29.5986 -51.95 -59 -53c-30 -1 -56 18 -64 48c-1 5 -1 5 -1 72l-1 68h-62v-68c0 -67 -1 -67 -2 -72c-15.7027 -62.8107 -104.28 -62.6984 -121 0l-2 5v110c0 111 0 133 2 155c5.44542 56.2694 17.3095 98.2749 45 131zM774 424c-9 -2 -18 -25 -22 -59
v-3h58v5c-3 26 -10 46 -17 54c-1 1 -3 3 -5 3c-3 1 -11 1 -14 0z" />
  </g>

</svg>
