<?xml version="1.0" standalone="no"?>
<!DOCTYPE svg PUBLIC "-//W3C//DTD SVG 1.1//EN" "http://www.w3.org/Graphics/SVG/1.1/DTD/svg11.dtd" >
<svg xmlns="http://www.w3.org/2000/svg" xmlns:xlink="http://www.w3.org/1999/xlink" version="1.1" viewBox="-10 0 1010 1000">
  <g transform="matrix(1 0 0 -1 0 800)">
   <path fill="currentColor"
d="M312 50h-304c70 104 139 208 209 312c24 36 1 59 -23 63h-132c0 68 58 125 126 125c150 0 199 -157 134 -257l-80 -118h70v-125zM375 112v438h187v-125h-62v-313h-125zM438 362v-124h93v124h-93zM438 362h93v-124h-93v124zM625 112v188h125v-188h-125zM812 112h126v188
h-126v-188zM688 362v-124h187v124h-187zM625 300c0 38 -15 250 156 250s157 -212 157 -250h-126c0 87 -13 125 -31 125s-31 -38 -31 -125h-125zM812 112v188h126v-188h-126zM688 362h187v-124h-187v124zM625 300h125c0 87 13 125 31 125s31 -38 31 -125h126
c0 38 14 250 -157 250s-156 -212 -156 -250zM688 362v-124h187v124h-187zM625 300c0 38 -15 250 156 250s157 -212 157 -250h-126c0 87 -13 125 -31 125s-31 -38 -31 -125h-125zM625 300h125c0 87 13 125 31 125s31 -38 31 -125h126c0 38 14 250 -157 250
s-156 -212 -156 -250z" />
  </g>

</svg>
