<?xml version="1.0" standalone="no"?>
<!DOCTYPE svg PUBLIC "-//W3C//DTD SVG 1.1//EN" "http://www.w3.org/Graphics/SVG/1.1/DTD/svg11.dtd" >
<svg xmlns="http://www.w3.org/2000/svg" xmlns:xlink="http://www.w3.org/1999/xlink" version="1.1" viewBox="-10 0 1010 1000">
  <g transform="matrix(1 0 0 -1 0 800)">
   <path fill="currentColor"
d="M62 112v188h126v-188h-126zM250 112h125v188h-125v-188zM125 362v-124h187v124h-187zM62 300c0 38 -14 250 157 250s156 -212 156 -250h-125c0 87 -13 125 -31 125s-31 -38 -31 -125h-126zM250 112v188h125v-188h-125zM125 362v-124h187v124h-187zM62 300h126
c0 87 13 125 31 125s31 -38 31 -125h125c0 38 15 250 -156 250s-157 -212 -157 -250zM125 362h187v-124h-187v124zM62 300c0 38 -14 250 157 250s156 -212 156 -250h-125c0 87 -13 125 -31 125s-31 -38 -31 -125h-126zM62 300h126c0 87 13 125 31 125s31 -38 31 -125h125
c0 38 15 250 -156 250s-157 -212 -157 -250zM562 550v-500h-124v500h124zM750 238l-62 -126h-63v438h167c90 0 146 -83 146 -156s-56 -156 -146 -156v124c1 0 20 14 20 32s-19 31 -20 31h-42v-187zM625 112h125v126h42v124h-167v-250zM688 175h104c1 0 20 13 20 31
s-19 32 -20 32v124c90 0 146 -83 146 -156s-56 -156 -146 -156h-104v125zM625 112v250h167v-124h-42v-126h-125zM688 175v-125h104c90 0 146 83 146 156s-56 156 -146 156v-124c1 0 20 -14 20 -32s-19 -31 -20 -31h-104zM688 175h104c1 0 20 13 20 31s-19 32 -20 32v124
c90 0 146 -83 146 -156s-56 -156 -146 -156h-104v125z" />
  </g>

</svg>
