<?xml version="1.0" standalone="no"?>
<!DOCTYPE svg PUBLIC "-//W3C//DTD SVG 1.1//EN" "http://www.w3.org/Graphics/SVG/1.1/DTD/svg11.dtd" >
<svg xmlns="http://www.w3.org/2000/svg" xmlns:xlink="http://www.w3.org/1999/xlink" version="1.1" viewBox="-10 0 1010 1000">
  <g transform="matrix(1 0 0 -1 0 800)">
   <path fill="currentColor"
d="M439 563c7.62288 31.762 36.0921 57.227 77 47c23 -6 40 -24 45 -47c1 -5 1 -13 1 -263s0 -258 -1 -263c-6 -28 -30 -48 -58 -49c-30 -2 -57 19 -64 49c-1 5 -1 13 -1 263s0 258 1 263zM82 450c22.1121 62.6509 75.2923 108.463 159 98
c87.7361 -13.1604 122.864 -85.5981 132 -180c2 -22 2 -45 2 -156v-109l-2 -5c-8 -28 -30 -47 -58 -48c-30 -1 -55 18 -63 48c-1 5 -2 5 -2 72v68h-62l-1 -68c0 -67 0 -67 -1 -72c-16.634 -66.5361 -109.989 -60.0548 -123 5v110c0 111 0 133 2 155c3 31 9 60 17 82z
M677 549c4 1 16 1 63 1c35 0 61 -1 64 -1c72.7779 -9.09724 122.228 -66.595 132 -135c2 -10 2 -31 0 -41c-4.47018 -26.8211 -15.7681 -51.6522 -30 -73c15.4654 -19.3318 25.7111 -47.2663 30 -73c2 -10 2 -31 0 -41c-11.3844 -68.3062 -58.2103 -125.776 -132 -135
c-3 0 -29 -1 -63 -1c-49 0 -59 0 -64 1c-25.1565 3.87023 -45.0099 24.0395 -51 48c-1 5 -1 12 -1 201s0 196 1 201c6 25 26 44 51 48zM212 424c-9 -2 -18 -25 -22 -59v-3h58c-5.25143 26.2572 -9.84892 49.6845 -18 59c-1 1 -3 3 -5 3c-3 1 -10 1 -13 0zM812 394
c0 14.9508 -10.206 25.1373 -19 31h-43v-63h43c9.21667 6.14445 19 16.2811 19 32zM750 206v-31h43c8.73158 5.82106 19 16.0825 19 31c0 14.8984 -10.3189 26.2126 -19 32h-43v-32z" />
  </g>

</svg>
