<?xml version="1.0" standalone="no"?>
<!DOCTYPE svg PUBLIC "-//W3C//DTD SVG 1.1//EN" "http://www.w3.org/Graphics/SVG/1.1/DTD/svg11.dtd" >
<svg xmlns="http://www.w3.org/2000/svg" xmlns:xlink="http://www.w3.org/1999/xlink" version="1.1" viewBox="-10 0 1010 1000">
  <g transform="matrix(1 0 0 -1 0 800)">
   <path fill="currentColor"
d="M671 467l-92 -84c3 -3 46 -56 46 -83s-43 -80 -46 -83l92 -84s79 66 79 167s-79 167 -79 167zM789 599l-78 -98s101 -78 101 -201s-101 -201 -101 -201l78 -98s149 109 149 299s-149 299 -149 299zM289 501c0 0 -101 -78 -101 -201s101 -201 101 -201l-78 -98
s-149 109 -149 299s149 299 149 299zM341 123c0 0 -91 50 -91 177s91 177 91 177l68 -104c-2 -1 -34 -11 -34 -73s32 -72 34 -73zM671 467c0 0 79 -66 79 -167s-79 -167 -79 -167l-92 84c3 3 46 56 46 83s-43 80 -46 83zM789 599c0 0 149 -109 149 -299s-149 -299 -149 -299
l-78 98s101 78 101 201s-101 201 -101 201zM289 501l-78 98s-149 -109 -149 -299s149 -299 149 -299l78 98s-101 78 -101 201s101 201 101 201zM341 123c0 0 -91 50 -91 177s91 177 91 177l68 -104c-2 -1 -34 -11 -34 -73s32 -72 34 -73zM789 599l-78 -98s101 -78 101 -201
s-101 -201 -101 -201l78 -98s149 109 149 299s-149 299 -149 299zM289 501c0 0 -101 -78 -101 -201s101 -201 101 -201l-78 -98s-149 109 -149 299s149 299 149 299zM341 123l68 104c-2 1 -34 11 -34 73s32 72 34 73l-68 104s-91 -50 -91 -177s91 -177 91 -177zM289 501
l-78 98s-149 -109 -149 -299s149 -299 149 -299l78 98s-101 78 -101 201s101 201 101 201zM341 123c0 0 -91 50 -91 177s91 177 91 177l68 -104c-2 -1 -34 -11 -34 -73s32 -72 34 -73zM341 123l68 104c-2 1 -34 11 -34 73s32 72 34 73l-68 104s-91 -50 -91 -177
s91 -177 91 -177zM232 657l625 -625c-30 -29 -60 -59 -89 -89l-625 625c30 29 60 59 89 89z" />
  </g>

</svg>
