<?xml version="1.0" standalone="no"?>
<!DOCTYPE svg PUBLIC "-//W3C//DTD SVG 1.1//EN" "http://www.w3.org/Graphics/SVG/1.1/DTD/svg11.dtd" >
<svg xmlns="http://www.w3.org/2000/svg" xmlns:xlink="http://www.w3.org/1999/xlink" version="1.1" viewBox="-10 0 1010 1000">
  <g transform="matrix(1 0 0 -1 0 800)">
   <path fill="currentColor"
d="M177 674c-25.862 -4.56388 -42.7831 -21.7407 -50 -47c-2 -8 -2 -21 0 -29c4 -14 8 -21 23 -36c8 -8 10 -11 10 -12c0 0 -3 -4 -6 -7c-12 -15 -28 -37 -38 -54c-100.614 -167.691 -47.6621 -349.264 66 -461c26 -26 39 -35 55 -39c8 -2 21 -1 29 1
c26.1585 7.13414 54.8648 34.5409 45 74c-5.44198 19.0469 -11.397 26.4157 -28 40c-60.2092 50.1744 -117.589 150.491 -86 260c10 33 27 64 52 96l1 2c12.262 -12.0714 24.2533 -24.4133 36 -37c-20.4235 -35.7412 -36 -71.0214 -36 -125
c0 -79.8075 33.9527 -140.109 86 -174c41.9183 -27.9455 101 -7.56564 101 49c0 27.0493 -12.541 42.9246 -31 54c-25.0494 15.6559 -36.0441 55.7794 -28 96c1 3 1 7 1 7l196 -196c108 -108 197 -197 199 -198c44.438 -31.7414 114.414 2.34329 99 64c-4 14 -8 21 -23 36
c-8 8 -10 11 -10 12c0 0 3 4 6 7c22 26 43 60 57 90c47 102 46 212 -4 313c-20 41 -47 79 -81 113c-18 18 -31 28 -41 33c-37.8806 18.9403 -79.2527 -7.01067 -88 -42c-8.10677 -32.4271 9.27373 -53.019 28 -68c42.3354 -37.0435 80.6683 -97.7588 91 -152
c3 -17 4 -25 4 -44c0 -70.8528 -27.5499 -118.187 -61 -160l-1 -2c-13.9236 13.7431 -27.6051 27.7282 -41 42l4 7c19 30 30 60 35 90c1 7 2 11 2 23s-1 16 -2 23c-5 33 -18 65 -40 98c-14 21 -35 46 -45 54c-37.5262 28.4682 -87.3358 4.82464 -99 -36
c-6.7408 -26.9632 5.36718 -44.9635 18 -59c20 -22 36 -48 41 -68c3.79799 -13.293 -0.841688 -31.6834 -5 -40c0 -1 -41 39 -196 194c-107 107 -196 195 -198 197c-11.6351 7.75671 -27.611 13.7699 -47 11z" />
  </g>

</svg>
