<?xml version="1.0" standalone="no"?>
<!DOCTYPE svg PUBLIC "-//W3C//DTD SVG 1.1//EN" "http://www.w3.org/Graphics/SVG/1.1/DTD/svg11.dtd" >
<svg xmlns="http://www.w3.org/2000/svg" xmlns:xlink="http://www.w3.org/1999/xlink" version="1.1" viewBox="-10 0 1010 1000">
  <g transform="matrix(1 0 0 -1 0 800)">
   <path fill="currentColor"
d="M207 595c17.11 13.9991 31.3719 21.907 59 15c22 -6 39 -23 45 -46c8.15382 -28.5384 -7.86248 -51.8969 -24 -64c-9 -7 -27 -26 -34 -35c-52.7035 -62.4634 -89.7124 -156.667 -46 -258c16 -37 46 -78 76 -103c16.6636 -13.6338 22.5392 -20.8871 28 -40
c9.85321 -39.4129 -18.8736 -66.8746 -45 -74c-8 -2 -21 -3 -29 -1c-16 4 -29 13 -55 39c-111.57 109.679 -165.283 286.255 -70 453c25 43 59 84 95 114zM688 550c0 41.7983 34.7654 70.8086 78 60c7 -2 15 -5 20 -9c12 -9 37 -32 51 -48c66 -75 100 -163 100 -253
c0 -84 -31 -168 -88 -239c-19 -23 -46 -50 -63 -62c-38.5399 -29.9755 -98 0.305919 -98 51c0 27.7819 9.03585 38.3139 29 54c49.9836 43.7357 95 107.071 95 196c0 19 -1 27 -4 44c-10.3512 54.3439 -48.5483 114.855 -91 152c-19.9748 15.6945 -29 26.2247 -29 54z
M336 474c17.4958 11.1337 29.6487 17.3378 55 11c26.1585 -7.13414 54.8648 -34.5409 45 -74c-4 -17 -15 -31 -30 -40c-21.7431 -12.4246 -36.2781 -51.9702 -29 -92c4 -22 15 -42 29 -50c18.428 -11.0568 31 -27.041 31 -54c0 -37.5269 -27.9001 -60.8893 -59 -62
c-15 -1 -27 3 -42 13c-52.0029 33.8623 -86 94.3377 -86 174c0 81.2064 33.5247 138.61 86 174zM563 425c0 42.6952 35.4994 70.6252 78 60c16 -4 25 -11 44 -33c35 -42 56 -87 63 -129c2 -13 2 -33 0 -46c-5 -33 -18 -65 -40 -98c-14 -21 -35 -46 -45 -54
c-38.7319 -30.9855 -100 -2.09414 -100 50c0 22.3927 6.97223 31.6358 19 45c20 22 36 48 41 68c2 7 2 17 0 24c-5 20 -21 46 -41 68c-11.9972 13.3302 -19 22.685 -19 45zM489 362c-17 -3 -32 -14 -41 -28c-19 -29 -11 -67 17 -86c25 -17 57 -14 79 8
c44.8335 44.8335 1.20263 116.538 -55 106z" />
  </g>

</svg>
