<?xml version="1.0" standalone="no"?>
<!DOCTYPE svg PUBLIC "-//W3C//DTD SVG 1.1//EN" "http://www.w3.org/Graphics/SVG/1.1/DTD/svg11.dtd" >
<svg xmlns="http://www.w3.org/2000/svg" xmlns:xlink="http://www.w3.org/1999/xlink" version="1.1" viewBox="-10 0 1010 1000">
  <g transform="matrix(1 0 0 -1 0 800)">
   <path fill="currentColor"
d="M552 737c-23.766 -3.65631 -43.6117 -24.7058 -50 -46c0 -4.99571 -0.555677 -1.34464 -85 -506c-30.4917 83.1597 -40.5219 127.044 -47 140c-7.39265 18.4816 -25.7736 33.2956 -48 37h-101c-88 0 -101 1 -106 0c-29.7595 -4.57838 -61.211 -35.1559 -51 -76
c5.9845 -23.938 25.9528 -44.1466 51 -48c5 -1 16 0 79 0h73l56 -167c31 -92 56 -169 57 -171c14.5124 -36.2811 74.0806 -51.0508 103 -18c7 7 13 18 15 27c0 4.99571 0.555677 1.34464 85 506c30.4917 -83.1597 40.5219 -127.044 47 -140
c6.47984 -16.1996 22.0214 -27.6086 38 -34c10 -3 7 -3 116 -3h101c29.812 4.96866 52 27.3286 52 62c0 34.7769 -22.1989 57.0332 -52 62h-76l-76 1l-56 166c-31 92 -56 169 -57 171c-9.03916 21.9522 -36.0046 41.5708 -68 37z" />
  </g>

</svg>
