<?xml version="1.0" standalone="no"?>
<!DOCTYPE svg PUBLIC "-//W3C//DTD SVG 1.1//EN" "http://www.w3.org/Graphics/SVG/1.1/DTD/svg11.dtd" >
<svg xmlns="http://www.w3.org/2000/svg" xmlns:xlink="http://www.w3.org/1999/xlink" version="1.1" viewBox="-10 0 1010 1000">
  <g transform="matrix(1 0 0 -1 0 800)">
   <path fill="currentColor"
d="M158 690c8.74835 31.2441 36.3962 55.1509 77 45c22 -6 39 -22 45 -45c1 -5 1 -6 1 -79l1 -74l7 -4c48.9755 -25.085 86 -71.9761 86 -139c0 -69.222 -39.8804 -120.234 -93 -143l-1 -168v-168c-6.1938 -30.969 -29.5563 -50.9484 -59 -52
c-31.9346 -1.06449 -58.3952 18.9762 -65 52l-1 168v167c-46.8385 23.4192 -82.5278 62.799 -92 122c-2 10 -2 33 0 43c9.70632 58.2379 43.6456 97.8228 92 122v74c0 73 1 74 2 79zM561 225c53.1369 -23.6164 95 -72.2889 95 -143c0 -14 0 -20 -3 -33
c-9 -45 -41 -86 -83 -107l-7 -4l-1 -11c0 -84.5941 -124 -84.2529 -124 0l-1 11c-46.8059 23.403 -83.9679 61.7594 -92 122c-2 10 -2 32 0 42c9.57958 57.4775 44.6427 101.063 94 123l-1 3v229c0 218 0 226 1 231c7.62288 31.762 36.0921 57.227 77 47
c23 -6 40 -24 45 -47c1 -5 1 -13 1 -231v-229zM844 662c52.4588 -26.2294 93 -71.0772 93 -143c0 -14 0 -20 -3 -33c-9.31785 -46.5893 -43.18 -92.4425 -90 -110v-231l-1 -230c-6.1938 -30.969 -29.5563 -50.9484 -59 -52c-31.9346 -1.06449 -58.3952 18.9762 -65 52v230
l-1 230l-7 4c-49.8138 24.9069 -86 73.2395 -86 140c0 68.4577 38.0654 113.435 86 139l7 4l1 11c0 42.1524 32.7906 73.3023 78 62c26.0731 -7.11085 47 -28.1258 47 -62v-11zM774 549c-14 -3 -24 -16 -24 -30c0 -17 14 -31 31 -31s31 14 31 31s-14 31 -31 31
c-2 0 -5 -1 -7 -1zM211 424c-14 -3 -23 -16 -23 -30c0 -17 14 -32 31 -32s31 15 31 32s-15 31 -32 31c-2 0 -5 -1 -7 -1zM493 112c-14 -3 -24 -17 -24 -31c0 -17 14 -31 31 -31s31 14 31 31s-14 31 -31 31h-7z" />
  </g>

</svg>
