<?xml version="1.0" standalone="no"?>
<!DOCTYPE svg PUBLIC "-//W3C//DTD SVG 1.1//EN" "http://www.w3.org/Graphics/SVG/1.1/DTD/svg11.dtd" >
<svg xmlns="http://www.w3.org/2000/svg" xmlns:xlink="http://www.w3.org/1999/xlink" version="1.1" viewBox="-10 0 1010 1000">
  <g transform="matrix(1 0 0 -1 0 800)">
   <path fill="currentColor"
d="M219 362c-17 0 -31 15 -31 32s14 31 31 31s31 -14 31 -31s-14 -32 -31 -32zM219 238c86 0 156 70 156 156s-70 156 -156 156s-157 -70 -157 -156s71 -156 157 -156zM281 675v-167h-125v167h125zM281 300v-375h-125v375h125zM500 50c-17 0 -31 14 -31 31s14 31 31 31
s31 -14 31 -31s-14 -31 -31 -31zM500 -75c86 0 156 70 156 156s-70 157 -156 157s-156 -71 -156 -157s70 -156 156 -156zM562 675v-437h-124v437h124zM562 -12v-63h-124v63h124zM781 488c-17 0 -31 14 -31 31s14 31 31 31s31 -14 31 -31s-14 -31 -31 -31zM781 362
c86 0 157 71 157 157s-71 156 -157 156s-156 -70 -156 -156s70 -157 156 -157zM844 425v-500h-125v500h125z" />
  </g>

</svg>
