<?xml version="1.0" standalone="no"?>
<!DOCTYPE svg PUBLIC "-//W3C//DTD SVG 1.1//EN" "http://www.w3.org/Graphics/SVG/1.1/DTD/svg11.dtd" >
<svg xmlns="http://www.w3.org/2000/svg" xmlns:xlink="http://www.w3.org/1999/xlink" version="1.1" viewBox="-10 0 1010 1000">
  <g transform="matrix(1 0 0 -1 0 800)">
   <path fill="currentColor"
d="M562 581c0 -17 15 -31 32 -31s31 14 31 31s-14 31 -31 31s-32 -14 -32 -31zM438 581c0 86 70 157 156 157s156 -71 156 -157s-70 -156 -156 -156s-156 70 -156 156zM875 519v125h-167v-125h167zM500 519h-375v125h375v-125zM250 300c0 -17 14 -31 31 -31s31 14 31 31
s-14 31 -31 31s-31 -14 -31 -31zM125 300c0 86 70 156 156 156s157 -70 157 -156s-71 -156 -157 -156s-156 70 -156 156zM875 238h-437v124h437v-124zM188 238h-63v124h63v-124zM688 19c0 -17 14 -31 31 -31s31 14 31 31s-14 31 -31 31s-31 -14 -31 -31zM562 19
c0 86 71 156 157 156s156 -70 156 -156s-70 -157 -156 -157s-157 71 -157 157zM625 -44h-500v125h500v-125z" />
  </g>

</svg>
