<?xml version="1.0" standalone="no"?>
<!DOCTYPE svg PUBLIC "-//W3C//DTD SVG 1.1//EN" "http://www.w3.org/Graphics/SVG/1.1/DTD/svg11.dtd" >
<svg xmlns="http://www.w3.org/2000/svg" xmlns:xlink="http://www.w3.org/1999/xlink" version="1.1" viewBox="-10 0 1010 1000">
  <g transform="matrix(1 0 0 -1 0 800)">
   <path fill="currentColor"
d="M594 425c-72.5985 0 -117.254 40.5072 -144 94h-165c-145 0 -165 0 -170 1c-30.5151 4.69463 -61.468 34.1279 -51 76c6.0896 24.3584 25.4417 43.068 51 47c5 1 25 1 170 1h165c15.2733 26.7282 31.7861 52.2717 58 68c22 14 45 22 74 25c4 0 27 0 32 -1
c56.4418 -7.59793 98.1613 -42.3226 123 -92h74l74 -1c30.3727 -5.06212 52 -26.5448 52 -62c0 -37.6465 -23.5396 -52.5132 -52 -62h-74l-74 -1c-20.8929 -41.7858 -53.1618 -72.8766 -98 -86c-15 -5 -27 -7 -45 -7zM586 612c-14 -3 -24 -17 -24 -31c0 -17 15 -31 32 -31
s31 14 31 31s-15 31 -32 31h-7zM138 362c25.0782 50.1563 65.3449 87.1046 132 94c79.303 0 127.993 -34.2332 155 -95l3 1h457c27.0471 -4.50784 44.4776 -22.9976 51 -48c10.3258 -41.3033 -19.9215 -70.8203 -51 -76h-457l-3 1c-23.8127 -53.5785 -70.5662 -95 -144 -95
c-72.6705 0 -116.244 40.4886 -143 94h-9c-37.7905 0 -66 23.0833 -66 62c0 38.9326 28.2163 62 66 62h9zM274 330c-14 -3 -24 -16 -24 -30c0 -17 14 -31 31 -31s31 14 31 31s-14 31 -31 31c-2 0 -5 -1 -7 -1zM575 81c25.0782 50.1563 65.3449 87.1046 132 94
c4 0 27 0 32 -1c52 -7 95 -39 119 -85l4 -7l11 -1c34.2948 0 55.7594 -20.2443 63 -48c11.2584 -45.0338 -23.2894 -77 -63 -77h-11c-26.2058 -52.4116 -69.0843 -93 -143 -93c-67.112 0 -114.345 35.8561 -140 86l-4 7h-227c-201 0 -228 0 -233 1
c-30.5151 4.69463 -61.468 34.1279 -51 76c6.0896 24.3584 25.4417 43.068 51 47c5 1 32 1 233 1h227zM711 49c-14 -3 -23 -16 -23 -30c0 -17 14 -31 31 -31s31 14 31 31s-15 31 -32 31c-2 0 -5 -1 -7 -1z" />
  </g>

</svg>
