<?xml version="1.0" standalone="no"?>
<!DOCTYPE svg PUBLIC "-//W3C//DTD SVG 1.1//EN" "http://www.w3.org/Graphics/SVG/1.1/DTD/svg11.dtd" >
<svg xmlns="http://www.w3.org/2000/svg" xmlns:xlink="http://www.w3.org/1999/xlink" version="1.1" viewBox="-10 0 1010 1000">
  <g transform="matrix(1 0 0 -1 0 800)">
   <path fill="currentColor"
d="M124 550c-33.5926 0 -61 25.9955 -61 62c0 34.6247 22.1463 55.1622 49 61c5.46324 1.82108 748.068 64 765 64c31.68 0 52.3925 -22.8915 59 -48c9.85321 -39.4129 -18.8736 -66.8746 -45 -74c-7.68747 -1.53749 -65.567 -6.17974 -328 -29c0 0 -1 -12 -1 -28v-29h78
c77 0 84 0 92 -2c15 -4 25 -11 37 -26c67.6117 -88.4153 110.673 -255.129 82 -420c-14 -80 -42 -147 -83 -195c-11.9732 -13.1705 -23.0339 -18.1526 -40 -23h-227c-219 0 -228 0 -233 1c-14 3 -27 10 -37 23c-53.9986 65.7375 -88 167.59 -88 291
c0 140.412 33.7683 252.74 95 327c10.8068 13.2083 23.1547 18.3849 40 24h160v24c0 21 0 23 -1 23c-7.825 0 -297.35 -26 -313 -26zM319 404c-28.4378 -42.6567 -41.1321 -97.1226 -49 -164l-1 -2h169v166h-119zM562 404v-166h86c81 0 84 0 84 1s0 5 -1 11
c-7.26308 60.1798 -22.721 113.535 -47 154h-122zM273 110c5.85661 -46.8528 24.1181 -90.2363 40 -122h375c15.2202 26.6354 28.1884 57.4056 36 92c2.42386 12.1193 3.79959 25.3988 6 32h-458l1 -2z" />
  </g>

</svg>
