<?xml version="1.0" standalone="no"?>
<!DOCTYPE svg PUBLIC "-//W3C//DTD SVG 1.1//EN" "http://www.w3.org/Graphics/SVG/1.1/DTD/svg11.dtd" >
<svg xmlns="http://www.w3.org/2000/svg" xmlns:xlink="http://www.w3.org/1999/xlink" version="1.1" viewBox="-10 0 1010 1000">
  <g transform="matrix(1 0 0 -1 0 800)">
   <path fill="currentColor"
d="M562 644h-124v-177h124v177zM505 581l-375 -31c-3.37281 41.6272 -6.70459 83.2954 -10 125l375 31c3.37281 -41.6272 6.70459 -83.2954 10 -125zM495 706c3.37226 -41.6277 6.70514 -83.2949 10 -125l375 32l-10 124zM562 467v-292h-124v292h124zM500 404h-181
c-33 -53 -54 -141 -52 -228c-41.6583 -0.675066 -83.3253 -1.34139 -125 -2c-2 121 26 248 98 333l18 22h242v-125zM500 529v-125h185c42 -79 52 -142 50 -228c41.6584 -0.674949 83.3252 -1.34151 125 -2c2 121 -26 248 -95 332l-19 23h-246zM500 112v126h-295v-126h295z
M500 238v-126h297v126h-297zM860 174c-2 -106 -27 -215 -94 -290l-19 -22h-495l-18 23c-64 75 -90 183 -92 289c41.6748 0.658493 83.3416 1.32505 125 2c1 -74 17 -140 46 -188h375c16 25 45 110 47 188c41.6583 -0.675066 83.3253 -1.34139 125 -2zM505 581
c-3.29541 41.7046 -6.62719 83.3728 -10 125l-375 -31c3.29541 -41.7046 6.62719 -83.3728 10 -125zM495 706l375 31l10 -124l-375 -32c-3.29486 41.7051 -6.62774 83.3723 -10 125zM562 467v-292h-124v292h124zM500 404h-181c-33 -53 -54 -141 -52 -228
c-41.6583 -0.675066 -83.3253 -1.34139 -125 -2c-2 121 26 248 98 333l18 22h242v-125zM500 529h246l19 -23c69 -84 97 -211 95 -332c-41.6748 0.658493 -83.3416 1.32505 -125 2c2 86 -8 149 -50 228h-185v125zM500 112v126h-295v-126h295zM500 238h297v-126h-297v126z
M860 174c-2 -106 -27 -215 -94 -290l-19 -22h-495l-18 23c-64 75 -90 183 -92 289c41.6748 0.658493 83.3416 1.32505 125 2c1 -74 17 -140 46 -188h375c16 25 45 110 47 188c41.6583 -0.675066 83.3253 -1.34139 125 -2zM495 706l375 31l10 -124l-375 -32
c-3.29486 41.7051 -6.62774 83.3723 -10 125zM562 467h-124v-292h124v292zM500 404v125h-242l-18 -22c-72 -85 -100 -212 -98 -333c41.6747 0.658611 83.3417 1.32493 125 2c-2 87 19 175 52 228h181zM500 529v-125h185c42 -79 52 -142 50 -228
c41.6584 -0.674949 83.3252 -1.34151 125 -2c2 121 -26 248 -95 332l-19 23h-246zM500 112h-295v126h295v-126zM500 238v-126h297v126h-297zM860 174c-41.6747 0.658611 -83.3417 1.32493 -125 2c-2 -78 -31 -163 -47 -188h-375c-29 48 -45 114 -46 188
c-41.6584 -0.674949 -83.3252 -1.34151 -125 -2c2 -106 28 -214 92 -289l18 -23h495l19 22c67 75 92 184 94 290zM562 467v-292h-124v292h124zM500 404h-181c-33 -53 -54 -141 -52 -228c-41.6583 -0.675066 -83.3253 -1.34139 -125 -2c-2 121 26 248 98 333l18 22h242v-125z
M500 529h246l19 -23c69 -84 97 -211 95 -332c-41.6748 0.658493 -83.3416 1.32505 -125 2c2 86 -8 149 -50 228h-185v125zM500 112v126h-295v-126h295zM500 238h297v-126h-297v126zM860 174c-2 -106 -27 -215 -94 -290l-19 -22h-495l-18 23c-64 75 -90 183 -92 289
c41.6748 0.658493 83.3416 1.32505 125 2c1 -74 17 -140 46 -188h375c16 25 45 110 47 188c41.6583 -0.675066 83.3253 -1.34139 125 -2zM500 404v125h-242l-18 -22c-72 -85 -100 -212 -98 -333c41.6747 0.658611 83.3417 1.32493 125 2c-2 87 19 175 52 228h181zM500 529
v-125h185c42 -79 52 -142 50 -228c41.6584 -0.674949 83.3252 -1.34151 125 -2c2 121 -26 248 -95 332l-19 23h-246zM500 112h-295v126h295v-126zM500 238v-126h297v126h-297zM860 174c-41.6747 0.658611 -83.3417 1.32493 -125 2c-2 -78 -31 -163 -47 -188h-375
c-29 48 -45 114 -46 188c-41.6584 -0.674949 -83.3252 -1.34151 -125 -2c2 -106 28 -214 92 -289l18 -23h495l19 22c67 75 92 184 94 290zM500 529v-125h185c42 -79 52 -142 50 -228c41.6584 -0.674949 83.3252 -1.34151 125 -2c2 121 -26 248 -95 332l-19 23h-246zM500 112
v126h-295v-126h295zM500 238h297v-126h-297v126zM860 174c-2 -106 -27 -215 -94 -290l-19 -22h-495l-18 23c-64 75 -90 183 -92 289c41.6748 0.658493 83.3416 1.32505 125 2c1 -74 17 -140 46 -188h375c16 25 45 110 47 188c41.6583 -0.675066 83.3253 -1.34139 125 -2z
M500 112h-295v126h295v-126zM500 238h297v-126h-297v126zM860 174c-41.6747 0.658611 -83.3417 1.32493 -125 2c-2 -78 -31 -163 -47 -188h-375c-29 48 -45 114 -46 188c-41.6584 -0.674949 -83.3252 -1.34151 -125 -2c2 -106 28 -214 92 -289l18 -23h495l19 22
c67 75 92 184 94 290zM500 238h297v-126h-297v126zM860 174c-2 -106 -27 -215 -94 -290l-19 -22h-495l-18 23c-64 75 -90 183 -92 289c41.6748 0.658493 83.3416 1.32505 125 2c1 -74 17 -140 46 -188h375c16 25 45 110 47 188c41.6583 -0.675066 83.3253 -1.34139 125 -2z
M860 174c-41.6747 0.658611 -83.3417 1.32493 -125 2c-2 -78 -31 -163 -47 -188h-375c-29 48 -45 114 -46 188c-41.6584 -0.674949 -83.3252 -1.34151 -125 -2c2 -106 28 -214 92 -289l18 -23h495l19 22c67 75 92 184 94 290z" />
  </g>

</svg>
