<?xml version="1.0" standalone="no"?>
<!DOCTYPE svg PUBLIC "-//W3C//DTD SVG 1.1//EN" "http://www.w3.org/Graphics/SVG/1.1/DTD/svg11.dtd" >
<svg xmlns="http://www.w3.org/2000/svg" xmlns:xlink="http://www.w3.org/1999/xlink" version="1.1" viewBox="-10 0 1010 1000">
  <g transform="matrix(1 0 0 -1 0 800)">
   <path fill="currentColor"
d="M500 -12c138 0 250 112 250 250s-112 250 -250 250s-250 -112 -250 -250s112 -250 250 -250zM500 -138c-207 0 -375 169 -375 376s168 374 375 374s375 -167 375 -374s-168 -376 -375 -376zM562 394v-94h32v-125h-156v219h124zM278 619l-125 -62
c-18.8449 36.8217 -37.5054 73.8279 -56 111l125 63zM778 731l125 -63c-18.492 -37.1746 -37.1576 -74.1758 -56 -111l-125 62z" />
  </g>

</svg>
