<?xml version="1.0" standalone="no"?>
<!DOCTYPE svg PUBLIC "-//W3C//DTD SVG 1.1//EN" "http://www.w3.org/Graphics/SVG/1.1/DTD/svg11.dtd" >
<svg xmlns="http://www.w3.org/2000/svg" xmlns:xlink="http://www.w3.org/1999/xlink" version="1.1" viewBox="-10 0 1010 1000">
  <g transform="matrix(1 0 0 -1 0 800)">
   <path fill="currentColor"
d="M239 737c37.8982 5.41403 64.544 -19.4189 72 -48c6.02105 -24.0842 -4.41435 -44.9021 -15 -57c-7 -8 -9 -9 -81 -45c-75 -38 -73 -36 -87 -37c-35.2322 -1.17441 -75.986 29.0561 -64 77c4 15 14 29 26 37c6 4 135 68 140 70c2 1 6 3 9 3zM937 612
c0 -37.5269 -27.9001 -60.8893 -59 -62c-8 0 -16 1 -23 3c-5 2 -134 66 -140 70c-15.6255 10.417 -27 27.1596 -27 52c0 41.8237 34.717 70.8208 78 60c6.86417 -1.14403 142.469 -65.6794 155 -80c9.47057 -11.8382 16 -22.2814 16 -43zM478 612h20
c190.453 1.52362 358.233 -145.598 376 -344c2.98318 -35.7981 -1.27792 -75.6675 -6 -104c-34.6942 -173.471 -202.397 -327.782 -423 -297c-137.93 19.8937 -256.531 119.593 -301 253c-41 123 -15 258 68 357c66 80 162 129 266 135zM604 465
c-73.1662 33.6169 -158.76 27.7767 -224 -8c-21 -12 -40 -26 -57 -43c-89.8917 -89.8917 -99.7781 -249.608 -4 -349c60 -63 148 -90 234 -72c95.0719 20.5561 170.339 96.4419 191 192c16 75 -1 150 -49 209c-23.4287 28.6351 -56.6294 55.7242 -91 71zM489 455
c-25 -5 -44 -23 -50 -48c-1 -5 -1 -9 -1 -91s0 -87 1 -92c6.23698 -24.9479 24.8128 -43.9712 51 -48c5 -1 13 -1 59 -1h54c29.8044 8.51554 53 24.7088 53 63c0 32.752 -20.9969 53.181 -46 60c-6 2 -7 2 -27 2h-20l-1 52c0 51 0 51 -1 56
c-7.58702 29.0836 -32.8175 52.5975 -72 47z" />
  </g>

</svg>
