<?xml version="1.0" standalone="no"?>
<!DOCTYPE svg PUBLIC "-//W3C//DTD SVG 1.1//EN" "http://www.w3.org/Graphics/SVG/1.1/DTD/svg11.dtd" >
<svg xmlns="http://www.w3.org/2000/svg" xmlns:xlink="http://www.w3.org/1999/xlink" version="1.1" viewBox="-10 0 1010 1000">
  <g transform="matrix(1 0 0 -1 0 800)">
   <path fill="currentColor"
d="M562 488v-188h-124v188h124zM680 738l258 -258v-360l-258 -258h-360l-258 258v360l258 258h360zM372 612l-184 -184v-256l184 -184h256l184 184v256l-184 184h-256zM680 738l258 -258v-360l-258 -258h-360l-258 258v360l258 258h360zM372 612l-184 -184v-256l184 -184
h256l184 184v256l-184 184h-256zM680 738h-360l-258 -258v-360l258 -258h360l258 258v360zM372 612h256l184 -184v-256l-184 -184h-256l-184 184v256z" />
  </g>

</svg>
