<?xml version="1.0" standalone="no"?>
<!DOCTYPE svg PUBLIC "-//W3C//DTD SVG 1.1//EN" "http://www.w3.org/Graphics/SVG/1.1/DTD/svg11.dtd" >
<svg xmlns="http://www.w3.org/2000/svg" xmlns:xlink="http://www.w3.org/1999/xlink" version="1.1" viewBox="-10 0 1010 1000">
  <g transform="matrix(1 0 0 -1 0 800)">
   <path fill="currentColor"
d="M435 723c22.6768 10.6714 51.3005 19.7832 86 14c45.9768 -7.35629 83.0778 -34.1297 104 -69c1.3705 -2.05575 303.418 -604.962 306 -614c24.2904 -74.4904 -18.3724 -148.686 -75 -177c-14 -7 -28 -10 -44 -13c-7 -1 -21 -1 -312 -1h-306
c-62.6351 7.82938 -107.513 49.04 -124 100c-10 32 -8 69 4 99c3 8 297 599 301 606c14 24 35 43 60 55zM501 614c-8.84049 0 -11.0603 -2.0603 -16 -7c-3 -3 -295 -590 -296 -595c-2 -9 5 -21 14 -24c3 -1 33 0 297 0c261 0 295 -1 298 0c6 2 12 8 14 14c0 1 1 5 1 7v4
c-99.0997 197.53 -198.098 395.196 -297 593c-3 4 -9 8 -15 8zM439 438c7.62288 31.762 36.0921 57.227 77 47c23 -6 40 -24 45 -47c1 -5 1 -9 1 -76s0 -70 -1 -75c-6 -28 -30 -48 -58 -49c-30 -2 -57 19 -64 49c-1 5 -1 8 -1 75s0 71 1 76zM494 175
c-32.3658 -3.73451 -66.8449 -33.5686 -55 -77c7 -29 34 -49 64 -48c28 1 51 20 58 48c11.5924 46.3696 -26.3175 75.8328 -59 77h-8z" />
  </g>

</svg>
