<?xml version="1.0" standalone="no"?>
<!DOCTYPE svg PUBLIC "-//W3C//DTD SVG 1.1//EN" "http://www.w3.org/Graphics/SVG/1.1/DTD/svg11.dtd" >
<svg xmlns="http://www.w3.org/2000/svg" xmlns:xlink="http://www.w3.org/1999/xlink" version="1.1" viewBox="-10 0 1048 1000">
  <g transform="matrix(1 0 0 -1 0 800)">
   <path fill="currentColor"
d="M562 425v-125h-124v125h124zM188 12l-112 55l423 853l529 -1058h-819v126h584c62 0 20 24 20 24l-296 593c-28 56 -34 1 -34 1zM188 12l-112 55l423 853l529 -1058h-819v126h584c62 0 20 24 20 24l-296 593c-28 56 -34 1 -34 1zM188 12l295 594s6 55 34 -1l296 -593
s42 -24 -20 -24h-584v-126h819l-529 1058l-423 -853z" />
  </g>

</svg>
