<?xml version="1.0" standalone="no"?>
<!DOCTYPE svg PUBLIC "-//W3C//DTD SVG 1.1//EN" "http://www.w3.org/Graphics/SVG/1.1/DTD/svg11.dtd" >
<svg xmlns="http://www.w3.org/2000/svg" xmlns:xlink="http://www.w3.org/1999/xlink" version="1.1" viewBox="-10 0 1010 1000">
  <g transform="matrix(1 0 0 -1 0 800)">
   <path fill="currentColor"
d="M350 737c7 1 292 1 300 0c19 -2 36 -9 52 -22c6 -5 208 -207 213 -213c13 -16 20 -33 22 -53c1 -8 1 -290 0 -298c-2 -20 -9 -37 -22 -53c-5 -6 -207 -208 -213 -213c-16 -13 -34 -20 -53 -22c-8 -1 -290 -1 -298 0c-20 2 -37 9 -53 22c-6 5 -208 207 -213 213
c-13 16 -20 33 -22 53c-1 8 -1 290 0 298c2 20 9 37 22 53c5 6 207 208 213 213c15 12 33 20 52 22zM372 612l-184 -184v-256l184 -184h256l184 184v256l-184 184h-256zM439 501c7.18713 29.9464 35.9287 57.2678 77 47c23 -6 40 -24 45 -47c1 -5 1 -10 1 -107
s0 -102 -1 -107c-6 -28 -30 -48 -58 -49c-30 -2 -57 19 -64 49c-1 5 -1 10 -1 107s0 102 1 107zM489 174c-28.0669 -4.95298 -51 -27.3346 -51 -62c0 -44.8968 42.5769 -70.3846 81 -59c40 13 56 59 33 94c-14 20 -39 31 -63 27z" />
  </g>

</svg>
