<?xml version="1.0" standalone="no"?>
<!DOCTYPE svg PUBLIC "-//W3C//DTD SVG 1.1//EN" "http://www.w3.org/Graphics/SVG/1.1/DTD/svg11.dtd" >
<svg xmlns="http://www.w3.org/2000/svg" xmlns:xlink="http://www.w3.org/1999/xlink" version="1.1" viewBox="-10 0 1010 1000">
  <g transform="matrix(1 0 0 -1 0 800)">
   <path fill="currentColor"
d="M476 737c102 6 204 -25 285 -86c48 -36 89 -81 119 -133c66 -114 75 -255 27 -378c-33.1228 -83.9112 -89.8359 -153.592 -160 -201c-86 -58 -188 -84 -291 -74c-89 9 -174 45 -242 104c-102.104 83.5396 -162.888 233.809 -149 375c9 92 47 179 109 248
c72.3508 80.3898 185.342 138.987 302 145zM483 612c-79 -5 -150 -36 -205 -92c-83 -83 -111 -207 -74 -319c24 -72 74 -134 140 -172s143 -50 218 -35c101.357 20.0356 190.883 92.8954 229 192c41 104 23 222 -47 309c-60 75 -151 118 -246 117h-15zM439 501
c7.18713 29.9464 35.9287 57.2678 77 47c23 -6 40 -24 45 -47c1 -5 1 -10 1 -107s0 -102 -1 -107c-6 -28 -30 -48 -58 -49c-30 -2 -57 19 -64 49c-1 5 -1 10 -1 107s0 102 1 107zM489 174c-28.0669 -4.95298 -51 -27.3346 -51 -62c0 -44.8968 42.5769 -70.3846 81 -59
c40 13 56 59 33 94c-14 20 -39 31 -63 27z" />
  </g>

</svg>
