<?xml version="1.0" standalone="no"?>
<!DOCTYPE svg PUBLIC "-//W3C//DTD SVG 1.1//EN" "http://www.w3.org/Graphics/SVG/1.1/DTD/svg11.dtd" >
<svg xmlns="http://www.w3.org/2000/svg" xmlns:xlink="http://www.w3.org/1999/xlink" version="1.1" viewBox="-10 0 1010 1000">
  <g transform="matrix(1 0 0 -1 0 800)">
   <path fill="currentColor"
d="M527 165l53 -113c-51 -24 -109 -24 -160 0l53 113c17 -8 37 -8 54 0zM357 407l62 -63l-88 -88l-63 62zM732 318l-63 -62l-88 88l62 63zM500 612c165 0 236 -88 251 -196c28 -182 -77 -429 -251 -429c-173 0 -279 249 -251 429c16 109 86 196 251 196zM500 738
c224 0 351 -140 374 -304c31 -206 -73 -572 -374 -572s-406 367 -374 572c23 163 150 304 374 304zM357 407l-89 -89l63 -62l88 88zM732 318l-89 89l-62 -63l88 -88zM500 612c-165 0 -235 -87 -251 -196c-28 -180 78 -429 251 -429c174 0 279 247 251 429
c-15 108 -86 196 -251 196zM500 738c-224 0 -351 -141 -374 -304c-32 -205 73 -572 374 -572s405 366 374 572c-23 164 -150 304 -374 304zM732 318l-63 -62l-88 88l62 63zM500 612c165 0 236 -88 251 -196c28 -182 -77 -429 -251 -429c-173 0 -279 249 -251 429
c16 109 86 196 251 196zM500 738c224 0 351 -140 374 -304c31 -206 -73 -572 -374 -572s-406 367 -374 572c23 163 150 304 374 304zM500 612c-165 0 -235 -87 -251 -196c-28 -180 78 -429 251 -429c174 0 279 247 251 429c-15 108 -86 196 -251 196zM500 738
c-224 0 -351 -141 -374 -304c-32 -205 73 -572 374 -572s405 366 374 572c-23 164 -150 304 -374 304z" />
  </g>

</svg>
