<?xml version="1.0" standalone="no"?>
<!DOCTYPE svg PUBLIC "-//W3C//DTD SVG 1.1//EN" "http://www.w3.org/Graphics/SVG/1.1/DTD/svg11.dtd" >
<svg xmlns="http://www.w3.org/2000/svg" xmlns:xlink="http://www.w3.org/1999/xlink" version="1.1" viewBox="-10 0 1010 1000">
  <g transform="matrix(1 0 0 -1 0 800)">
   <path fill="currentColor"
d="M478 737h20c286.236 3.32832 440.295 -220.458 363 -533c-18 -74 -50 -141 -89 -195c-58 -80 -134 -128 -220 -142c-19 -3 -29 -4 -51 -4c-27 0 -42 1 -66 6c-116 24 -213 115 -269 254c-36.3372 90.1163 -62.4566 218.445 -37 333
c33.3628 164.431 164.112 272.279 349 281zM536 611c-206.396 17.1997 -314.059 -103.038 -287 -315c11 -89 45 -172 93 -230c7 -9 27 -27 35 -34c37 -30 78 -44 123 -44c76.5965 0 135.606 45.9582 172 96c50.1157 69.2074 83 162.575 83 273
c0 153.835 -78.679 241.244 -219 254zM260 397c13.839 21.5273 47.9803 37.5099 79 22c10 -5 12 -6 49 -43c31 -31 36 -37 39 -42c24.6604 -36.9906 1.05182 -83.895 -36 -94c-21.7956 -5.4489 -42.3682 0.172768 -55 11l-38 38c-29 29 -35 34 -38 39
c-11.6019 17.4028 -12.6204 50.0694 0 69zM652 414c48.4343 30.2714 110.23 -9.08148 96 -66c-2 -7 -4 -14 -8 -20c-5.47326 -9.1221 -32 -32 -80 -80c-36.9212 -25.8448 -86.8209 -1.33888 -96 38c-4.78938 19.1575 1.56921 36.8538 9 48c3 5 8 11 39 42c22 22 38 37 40 38
zM427 174c-28.0989 -4.95864 -52 -27.6316 -52 -62c0 -36.9478 23.7087 -50.8705 51 -63c71.1659 -30.4997 179.197 -13.3093 197 49c10.6716 42.6865 -21.7709 74.7357 -58 77c-12 1 -20 -2 -35 -9c-13 -6 -18 -7 -30 -7c-17.9082 0 -43.0893 16 -61 16c-5 0 -9 0 -12 -1z
" />
  </g>

</svg>
