<?xml version="1.0" standalone="no"?>
<!DOCTYPE svg PUBLIC "-//W3C//DTD SVG 1.1//EN" "http://www.w3.org/Graphics/SVG/1.1/DTD/svg11.dtd" >
<svg xmlns="http://www.w3.org/2000/svg" xmlns:xlink="http://www.w3.org/1999/xlink" version="1.1" viewBox="-10 0 1010 1000">
  <g transform="matrix(1 0 0 -1 0 800)">
   <path fill="currentColor"
d="M114 612c4 1 63 0 388 0h383c25.4064 -5.08128 44.9205 -22.6818 51 -47c7.43668 -26.0284 -5.38111 -47.3811 -17 -59c-9.30304 -9.30304 -19.1223 -15.0245 -34 -18h-770c-25.4064 5.08128 -44.9205 22.6818 -51 47c-2 7 -2 23 0 30c7 24 26 43 50 47zM303 238
c-29.4627 5.89254 -53 26.875 -53 62c0 33.2367 24.5381 57.5897 51 62c4 1 36 0 201 0h196c25.8304 -5.16609 43.7979 -22.1914 50 -47c11.8697 -41.5441 -18.8787 -70.5757 -51 -77h-394zM239 112c-27.1659 -4.52764 -51 -27.5758 -51 -62
c0 -22.5215 6.62121 -32.6212 18 -44c9.30304 -9.30304 19.1223 -15.0245 34 -18h520c25.4064 5.08128 44.9205 22.6818 51 47c7.43668 26.0284 -5.38111 47.3811 -17 59c-9.30304 9.30304 -19.1223 15.0245 -34 18h-258c-218 0 -259 1 -263 0z" />
  </g>

</svg>
