<?xml version="1.0" standalone="no"?>
<!DOCTYPE svg PUBLIC "-//W3C//DTD SVG 1.1//EN" "http://www.w3.org/Graphics/SVG/1.1/DTD/svg11.dtd" >
<svg xmlns="http://www.w3.org/2000/svg" xmlns:xlink="http://www.w3.org/1999/xlink" version="1.1" viewBox="-10 0 1010 1000">
  <g transform="matrix(1 0 0 -1 0 800)">
   <path fill="currentColor"
d="M114 612c4 1 63 0 388 0h383c25.4064 -5.08128 44.9205 -22.6818 51 -47c7.43668 -26.0284 -5.38111 -47.3811 -17 -59c-9.30304 -9.30304 -19.1223 -15.0245 -34 -18h-770c-25.4064 5.08128 -44.9205 22.6818 -51 47c-2 7 -2 23 0 30c7 24 26 43 50 47zM426 362
c4 1 40 0 232 0h227c25.4064 -5.08128 44.9205 -22.6818 51 -47c7.43668 -26.0284 -5.38111 -47.3811 -17 -59c-9.30304 -9.30304 -19.1223 -15.0245 -34 -18h-457c-26.3471 5.26941 -44.6726 21.6904 -51 47c-2 7 -2 23 0 30c7 24 25 43 49 47zM239 112
c-27.1659 -4.52764 -51 -27.5758 -51 -62c0 -22.5215 6.62121 -32.6212 18 -44c9.30304 -9.30304 19.1223 -15.0245 34 -18h645c25.4064 5.08128 44.9205 22.6818 51 47c7.43668 26.0284 -5.38111 47.3811 -17 59c-9.30304 9.30304 -19.1223 15.0245 -34 18h-321
c-271 0 -321 1 -325 0z" />
  </g>

</svg>
