<?xml version="1.0" standalone="no"?>
<!DOCTYPE svg PUBLIC "-//W3C//DTD SVG 1.1//EN" "http://www.w3.org/Graphics/SVG/1.1/DTD/svg11.dtd" >
<svg xmlns="http://www.w3.org/2000/svg" xmlns:xlink="http://www.w3.org/1999/xlink" version="1.1" viewBox="-10 0 1010 1000">
  <g transform="matrix(1 0 0 -1 0 800)">
   <path fill="currentColor"
d="M250 -12h125v-126h-125v126zM750 -138h-125v126h125v-126zM375 50h-313v688h876v-688h-313v125h187v437h-624v-437h187v-125zM438 112h-126v-187h126v187zM375 175h250v-125h-250v125zM375 -12h250v-126h-250v126zM688 112v-187h-126v187h126zM268 344l157 157
c41 -21 83 -41 125 -62l93 93c30 -29 60 -59 89 -89l-157 -157c-41 22 -83 42 -125 63l-93 -93c-30 29 -60 58 -89 88zM750 -138v126h-125v-126h125zM375 50h-313v688h876v-688h-313v125h187v437h-624v-437h187v-125zM438 112v-187h-126v187h126zM375 175v-125h250v125h-250
zM375 -12v-126h250v126h-250zM688 112h-126v-187h126v187zM268 344c29 -30 59 -59 89 -88l93 93c42 -21 84 -41 125 -63l157 157c-29 30 -59 60 -89 89l-93 -93c-42 21 -84 41 -125 62zM375 50v125h-187v437h624v-437h-187v-125h313v688h-876v-688h313zM438 112h-126v-187
h126v187zM375 175v-125h250v125h-250zM375 -12h250v-126h-250v126zM688 112v-187h-126v187h126zM268 344l157 157c41 -21 83 -41 125 -62l93 93c30 -29 60 -59 89 -89l-157 -157c-41 22 -83 42 -125 63l-93 -93c-30 29 -60 58 -89 88zM438 112v-187h-126v187h126zM375 175
h250v-125h-250v125zM375 -12v-126h250v126h-250zM688 112h-126v-187h126v187zM268 344c29 -30 59 -59 89 -88l93 93c42 -21 84 -41 125 -63l157 157c-29 30 -59 60 -89 89l-93 -93c-42 21 -84 41 -125 62zM375 175v-125h250v125h-250zM375 -12h250v-126h-250v126zM688 112
v-187h-126v187h126zM268 344l157 157c41 -21 83 -41 125 -62l93 93c30 -29 60 -59 89 -89l-157 -157c-41 22 -83 42 -125 63l-93 -93c-30 29 -60 58 -89 88zM375 -12v-126h250v126h-250zM688 112h-126v-187h126v187zM268 344c29 -30 59 -59 89 -88l93 93
c42 -21 84 -41 125 -63l157 157c-29 30 -59 60 -89 89l-93 -93c-42 21 -84 41 -125 62zM688 112v-187h-126v187h126zM268 344l157 157c41 -21 83 -41 125 -62l93 93c30 -29 60 -59 89 -89l-157 -157c-41 22 -83 42 -125 63l-93 -93c-30 29 -60 58 -89 88zM268 344
c29 -30 59 -59 89 -88l93 93c42 -21 84 -41 125 -63l157 157c-29 30 -59 60 -89 89l-93 -93c-42 21 -84 41 -125 62z" />
  </g>

</svg>
