<?xml version="1.0" standalone="no"?>
<!DOCTYPE svg PUBLIC "-//W3C//DTD SVG 1.1//EN" "http://www.w3.org/Graphics/SVG/1.1/DTD/svg11.dtd" >
<svg xmlns="http://www.w3.org/2000/svg" xmlns:xlink="http://www.w3.org/1999/xlink" version="1.1" viewBox="-10 0 1010 1000">
  <g transform="matrix(1 0 0 -1 0 800)">
   <path fill="currentColor"
d="M250 -12h125v-126h-125v126zM750 -138h-125v126h125v-126zM375 50h-313v688h876v-688h-313v125h187v437h-624v-437h187v-125zM438 112h-126v-187h126v187zM375 175h250v-125h-250v125zM375 -12h250v-126h-250v126zM688 112v-187h-126v187h126zM268 344l157 157
c41.481 -20.8523 83.3008 -41.3658 125 -62l93 93c30.1929 -29.1405 59.8521 -58.8146 89 -89l-157 -157c-40.7023 21.9644 -83.1569 42.1764 -125 63l-93 -93c-29.9257 29.0743 -59.5938 58.4062 -89 88zM750 -138v126h-125v-126h125zM375 50h-313v688h876v-688h-313v125
h187v437h-624v-437h187v-125zM438 112v-187h-126v187h126zM375 175h250v-125h-250v125zM375 -12v-126h250v126h-250zM688 112h-126v-187h126v187zM268 344c29.4062 -29.5938 59.0743 -58.9257 89 -88l93 93c41.8431 -20.8236 84.2977 -41.0356 125 -63l157 157
c-29.1479 30.1854 -58.8071 59.8595 -89 89l-93 -93c-41.6992 20.6342 -83.519 41.1477 -125 62zM375 50v125h-187v437h624v-437h-187v-125h313v688h-876v-688h313zM438 112h-126v-187h126v187zM375 175v-125h250v125h-250zM375 -12h250v-126h-250v126zM688 112v-187h-126
v187h126zM268 344l157 157c41.481 -20.8523 83.3008 -41.3658 125 -62l93 93c30.1929 -29.1405 59.8521 -58.8146 89 -89l-157 -157c-40.7023 21.9644 -83.1569 42.1764 -125 63l-93 -93c-29.9257 29.0743 -59.5938 58.4062 -89 88zM438 112v-187h-126v187h126zM375 175h250
v-125h-250v125zM375 -12v-126h250v126h-250zM688 112h-126v-187h126v187zM268 344c29.4062 -29.5938 59.0743 -58.9257 89 -88l93 93c41.8431 -20.8236 84.2977 -41.0356 125 -63l157 157c-29.1479 30.1854 -58.8071 59.8595 -89 89l-93 -93
c-41.6992 20.6342 -83.519 41.1477 -125 62zM375 175v-125h250v125h-250zM375 -12h250v-126h-250v126zM688 112v-187h-126v187h126zM268 344l157 157c41.481 -20.8523 83.3008 -41.3658 125 -62l93 93c30.1929 -29.1405 59.8521 -58.8146 89 -89l-157 -157
c-40.7023 21.9644 -83.1569 42.1764 -125 63l-93 -93c-29.9257 29.0743 -59.5938 58.4062 -89 88zM375 -12v-126h250v126h-250zM688 112h-126v-187h126v187zM268 344c29.4062 -29.5938 59.0743 -58.9257 89 -88l93 93c41.8431 -20.8236 84.2977 -41.0356 125 -63l157 157
c-29.1479 30.1854 -58.8071 59.8595 -89 89l-93 -93c-41.6992 20.6342 -83.519 41.1477 -125 62zM688 112v-187h-126v187h126zM268 344l157 157c41.481 -20.8523 83.3008 -41.3658 125 -62l93 93c30.1929 -29.1405 59.8521 -58.8146 89 -89l-157 -157
c-40.7023 21.9644 -83.1569 42.1764 -125 63l-93 -93c-29.9257 29.0743 -59.5938 58.4062 -89 88zM268 344c29.4062 -29.5938 59.0743 -58.9257 89 -88l93 93c41.8431 -20.8236 84.2977 -41.0356 125 -63l157 157c-29.1479 30.1854 -58.8071 59.8595 -89 89l-93 -93
c-41.6992 20.6342 -83.519 41.1477 -125 62z" />
  </g>

</svg>
