<?xml version="1.0" standalone="no"?>
<!DOCTYPE svg PUBLIC "-//W3C//DTD SVG 1.1//EN" "http://www.w3.org/Graphics/SVG/1.1/DTD/svg11.dtd" >
<svg xmlns="http://www.w3.org/2000/svg" xmlns:xlink="http://www.w3.org/1999/xlink" version="1.1" viewBox="-10 0 1010 1000">
  <g transform="matrix(1 0 0 -1 0 800)">
   <path fill="currentColor"
d="M114 737c4 1 62 0 388 0h383c26.9752 -4.49587 45.5523 -23.9407 51 -49c1 -5 1 -14 1 -294s0 -290 -1 -295c-5.95755 -27.4047 -25.1979 -40.3993 -51 -49h-197v-62l36 -1h36c25.9421 -8.64736 43.8666 -20.6553 51 -48c10.3258 -41.3033 -19.9215 -70.8203 -51 -76
h-258c-228 0 -257 -1 -262 0c-29.7595 4.57838 -61.211 35.1559 -51 76c5.9845 23.938 25.9528 44.1466 51 48c4 1 12 1 39 1h33v62h-96c-83 0 -96 0 -101 1c-26.177 4.02724 -44.7633 23.0534 -51 48c-1 5 -1 15 -1 295s0 289 1 294c6 25 25 44 50 49zM188 612v-437h624
v437h-624zM652 539c38.5456 24.091 85.5799 2.94389 96 -37c4.574 -18.296 -0.854014 -37.281 -8 -48c-8.58357 -14.3059 -137.406 -139.271 -140 -141c-16 -12 -37 -16 -57 -10c-2 1 -25 12 -49 24l-44 22l-49 -49c-27 -27 -50 -49 -52 -51c-9 -7 -22 -10 -34 -11
c-30 -1 -56 18 -63 48c-4.49667 17.9867 0.82221 37.2333 8 48c4.10477 6.84129 136.76 139.38 138 140c11.8566 8.89247 21.3989 13 40 13c15 0 14 0 67 -26l45 -22l49 49c30 30 51 50 53 51zM438 19v-31h124v62h-124v-31z" />
  </g>

</svg>
