<?xml version="1.0" standalone="no"?>
<!DOCTYPE svg PUBLIC "-//W3C//DTD SVG 1.1//EN" "http://www.w3.org/Graphics/SVG/1.1/DTD/svg11.dtd" >
<svg xmlns="http://www.w3.org/2000/svg" xmlns:xlink="http://www.w3.org/1999/xlink" version="1.1" viewBox="-10 0 1010 1000">
  <g transform="matrix(1 0 0 -1 0 800)">
   <path fill="currentColor"
d="M464 664c20.5875 12.8672 52.8805 14.7663 73 -2c6.29188 -4.19459 322.648 -319.08 328 -328c7.19965 -10.7995 12.5076 -29.9698 8 -48c-10.2727 -41.0906 -57.3531 -62.7646 -96 -37c-2 1 -52 50 -140 138l-137 137l-136 -136c-75 -75 -138 -137 -140 -139
c-9 -7 -22 -10 -34 -11c-30 -1 -56 18 -63 48c-4.49667 17.9867 0.82221 37.2333 8 48c4.98082 8.30137 325.803 328.402 329 330zM489 362c-9 -2 -17 -6 -25 -11c-3.26056 -1.63028 -325.526 -323.21 -329 -329c-7.24214 -10.8632 -12.5813 -30.6747 -8 -49
c9.57799 -41.0485 60.9294 -64.0549 97 -36c2 2 65 64 140 139l136 136l137 -137c88 -88 138 -138 140 -139c38.6332 -25.7554 85.7266 -4.09359 96 37c4.574 18.296 -0.854014 37.281 -8 48c-5.39058 8.9843 -326.489 327.993 -328 329
c-10.1158 8.42987 -30.1729 14.5467 -48 12z" />
  </g>

</svg>
