<?xml version="1.0" standalone="no"?>
<!DOCTYPE svg PUBLIC "-//W3C//DTD SVG 1.1//EN" "http://www.w3.org/Graphics/SVG/1.1/DTD/svg11.dtd" >
<svg xmlns="http://www.w3.org/2000/svg" xmlns:xlink="http://www.w3.org/1999/xlink" version="1.1" viewBox="-10 0 1010 1000">
  <g transform="matrix(1 0 0 -1 0 800)">
   <path fill="currentColor"
d="M135 579c-37 58 32 122 89 84c2 -2 65 -64 140 -139l136 -136l137 137c88 88 138 138 140 139c56 36 124 -28 88 -85c-5 -9 -326 -328 -328 -329c-19 -16 -56 -16 -76 1l-163 163c-142 142 -160 160 -163 165zM177 362c17 2 36 -4 47 -11c2 -2 65 -64 140 -139l136 -136
l137 137c88 88 138 137 140 138c56 36 124 -28 88 -85c-5 -9 -322 -324 -328 -328c-21 -18 -57 -16 -76 1c-4 4 -318 314 -326 327c-7 11 -12 30 -8 48c7 25 24 43 50 48z" />
  </g>

</svg>
