<?xml version="1.0" standalone="no"?>
<!DOCTYPE svg PUBLIC "-//W3C//DTD SVG 1.1//EN" "http://www.w3.org/Graphics/SVG/1.1/DTD/svg11.dtd" >
<svg xmlns="http://www.w3.org/2000/svg" xmlns:xlink="http://www.w3.org/1999/xlink" version="1.1" viewBox="-10 0 1010 1000">
  <g transform="matrix(1 0 0 -1 0 800)">
   <path fill="currentColor"
d="M489 737c-9 -2 -17 -6 -25 -11c-3.26056 -1.63028 -325.526 -323.21 -329 -329c-7.24214 -10.8632 -12.5813 -30.6747 -8 -49c9.57799 -41.0485 60.9294 -64.0549 97 -36c2 2 65 64 140 139l136 136l137 -137c88 -88 138 -138 140 -139
c38.6332 -25.7554 85.7266 -4.09359 96 37c4.574 18.296 -0.854014 37.281 -8 48c-5.39058 8.9843 -326.489 327.993 -328 329c-10.1158 8.42987 -30.1729 14.5467 -48 12z" />
  </g>

</svg>
