<?xml version="1.0" standalone="no"?>
<!DOCTYPE svg PUBLIC "-//W3C//DTD SVG 1.1//EN" "http://www.w3.org/Graphics/SVG/1.1/DTD/svg11.dtd" >
<svg xmlns="http://www.w3.org/2000/svg" xmlns:xlink="http://www.w3.org/1999/xlink" version="1.1" viewBox="-10 0 1010 1000">
  <g transform="matrix(1 0 0 -1 0 800)">
   <path fill="currentColor"
d="M464 664c38.7771 24.2357 86.5146 3.19408 97 -37c4.86762 -19.4705 -1.59631 -36.8945 -9 -48c-3 -5 -18 -21 -139 -142l-137 -137l137 -137c121 -121 136 -137 139 -142c24.5669 -36.8503 0.830041 -83.9554 -36 -94c-22.826 -5.70651 -42.0013 0.858291 -55 12
c-321.447 321.447 -323.535 319.085 -331 337c-3 8 -5 14 -5 24s2 16 5 24c5 12 -5 2 170 177c105 105 162 162 164 163zM802 674c-9 -2 -17 -5 -25 -10c-2 -1 -60 -58 -165 -163c-175 -175 -165 -165 -170 -177c-3 -8 -4 -14 -4 -24s1 -16 4 -24c5 -12 -5 -2 168 -175
c88 -88 161 -160 163 -162c42.9822 -36.8419 115.017 2.93227 100 63c-2 7 -4 13 -8 19c-3 5 -19 21 -140 142l-137 137l137 137c121 121 137 137 140 142c30.1884 45.2825 -9.88781 102.587 -63 95z" />
  </g>

</svg>
