<?xml version="1.0" standalone="no"?>
<!DOCTYPE svg PUBLIC "-//W3C//DTD SVG 1.1//EN" "http://www.w3.org/Graphics/SVG/1.1/DTD/svg11.dtd" >
<svg xmlns="http://www.w3.org/2000/svg" xmlns:xlink="http://www.w3.org/1999/xlink" version="1.1" viewBox="-10 0 1010 1000">
  <g transform="matrix(1 0 0 -1 0 800)">
   <path fill="currentColor"
d="M864 424c40 6 66 -19 72 -48c1 -5 1 -13 1 -232s0 -227 -1 -232c-5 -25 -24 -45 -51 -49h-226c-200 0 -227 -1 -232 0c-24 4 -44 25 -50 48c-10 40 21 72 50 76c5 1 29 1 196 1h189l1 192v192c6 28 25 47 51 52z" />
  </g>

</svg>
