<?xml version="1.0" standalone="no"?>
<!DOCTYPE svg PUBLIC "-//W3C//DTD SVG 1.1//EN" "http://www.w3.org/Graphics/SVG/1.1/DTD/svg11.dtd" >
<svg xmlns="http://www.w3.org/2000/svg" xmlns:xlink="http://www.w3.org/1999/xlink" version="1.1" viewBox="-10 0 1010 1000">
  <g transform="matrix(1 0 0 -1 0 800)">
   <path fill="currentColor"
d="M114 424c-25 -5 -44 -23 -50 -48c-1 -5 -1 -13 -1 -232s0 -227 1 -232c6.14342 -24.5737 25.3196 -45.0492 51 -49c5 -1 31 0 231 0h226c29.2533 4.87554 53 28.4809 53 62c0 33.6038 -23.8337 57.139 -53 62h-192l-192 1l-1 192v192
c-6.42613 32.1306 -31.6311 57.9098 -73 52z" />
  </g>

</svg>
