<?xml version="1.0" standalone="no"?>
<!DOCTYPE svg PUBLIC "-//W3C//DTD SVG 1.1//EN" "http://www.w3.org/Graphics/SVG/1.1/DTD/svg11.dtd" >
<svg xmlns="http://www.w3.org/2000/svg" xmlns:xlink="http://www.w3.org/1999/xlink" version="1.1" viewBox="-10 0 1010 1000">
  <g transform="matrix(1 0 0 -1 0 800)">
   <path fill="currentColor"
d="M177 299c19 3 35 -3 47 -11c2 -2 65 -64 140 -139l136 -136l137 137c88 88 138 138 140 139c56.3249 35.7182 124.424 -27.7623 88 -85c-5 -9 -326 -328 -328 -329c-20 -17 -58 -15 -76 1l-163 163c-142 142 -160 160 -163 165c-7 11 -13 30 -8 48c7 25 24 42 50 47z" />
  </g>

</svg>
