<?xml version="1.0" standalone="no"?>
<!DOCTYPE svg PUBLIC "-//W3C//DTD SVG 1.1//EN" "http://www.w3.org/Graphics/SVG/1.1/DTD/svg11.dtd" >
<svg xmlns="http://www.w3.org/2000/svg" xmlns:xlink="http://www.w3.org/1999/xlink" version="1.1" viewBox="-10 0 1010 1000">
  <g transform="matrix(1 0 0 -1 0 800)">
   <path fill="currentColor"
d="M127 627c8.85273 30.9846 35.3889 56.1528 76 46c8 -2 16 -6 22 -11c3 -2 71 -70 164 -163c173 -173 164 -163 169 -175c3 -8 4 -14 4 -24s-1 -16 -4 -24c-5 -12 4 -2 -169 -175c-93 -93 -161 -161 -164 -163c-40.1249 -28.0874 -100 -5.68605 -100 50c0 10 2 16 5 24
c5 12 -3 3 145 151l137 137l-137 137c-121 121 -137 137 -140 142c-7.17594 10.7639 -12.5875 29.6501 -8 48zM489 674c-28.0669 -4.95298 -51 -27.3346 -51 -62c0 -10 1 -16 4 -24c5 -12 -3 -3 145 -151l137 -137l-137 -137c-121 -121 -136 -137 -139 -142
c-7.43159 -11.1474 -13.8824 -28.4703 -9 -48c10.3267 -44.2574 61.4294 -60.5995 98 -35c3 2 72 70 165 163c173 173 163 163 168 175c3 8 5 14 5 24s-2 16 -5 24c-5 12 5 2 -168 175c-93 93 -162 161 -165 163c-10.8843 9.07023 -27.9304 14.8671 -48 12z" />
  </g>

</svg>
