<?xml version="1.0" standalone="no"?>
<!DOCTYPE svg PUBLIC "-//W3C//DTD SVG 1.1//EN" "http://www.w3.org/Graphics/SVG/1.1/DTD/svg11.dtd" >
<svg xmlns="http://www.w3.org/2000/svg" xmlns:xlink="http://www.w3.org/1999/xlink" version="1.1" viewBox="-10 0 1010 1000">
  <g transform="matrix(1 0 0 -1 0 800)">
   <path fill="currentColor"
d="M364 674c4 1 40 1 232 1h227c14 -5 24 -8 34 -18s13 -22 18 -35v-457l-2 -5c-6 -23 -22 -40 -45 -46c-27 -8 -48 5 -60 17c-10 10 -13 20 -18 34v385h-385l-5 2c-27 7 -47 26 -47 60c0 35 23 57 51 62z" />
  </g>

</svg>
