<?xml version="1.0" standalone="no"?>
<!DOCTYPE svg PUBLIC "-//W3C//DTD SVG 1.1//EN" "http://www.w3.org/Graphics/SVG/1.1/DTD/svg11.dtd" >
<svg xmlns="http://www.w3.org/2000/svg" xmlns:xlink="http://www.w3.org/1999/xlink" version="1.1" viewBox="-10 0 1010 1000">
  <g transform="matrix(1 0 0 -1 0 800)">
   <path fill="currentColor"
d="M552 674c-28.0989 -4.95864 -52 -27.6316 -52 -62c0 -10 2 -16 5 -24c5 -12 -3 -3 145 -151l137 -137l-137 -137c-121 -121 -137 -137 -140 -142c-7.17594 -10.7639 -12.5875 -29.6501 -8 -48c10.3525 -44.368 60.9373 -60.9439 98 -35c3 2 71 70 164 163
c173 173 164 163 169 175c3 8 4 14 4 24s-1 16 -4 24c-5 12 4 2 -169 175c-93 93 -161 161 -164 163c-10.7997 8.99979 -28.3288 14.8102 -48 12z" />
  </g>

</svg>
