<?xml version="1.0" standalone="no"?>
<!DOCTYPE svg PUBLIC "-//W3C//DTD SVG 1.1//EN" "http://www.w3.org/Graphics/SVG/1.1/DTD/svg11.dtd" >
<svg xmlns="http://www.w3.org/2000/svg" xmlns:xlink="http://www.w3.org/1999/xlink" version="1.1" viewBox="-10 0 1010 1000">
  <g transform="matrix(1 0 0 -1 0 800)">
   <path fill="currentColor"
d="M127 627c8.85273 30.9846 35.3889 56.1528 76 46c7 -2 15 -6 21 -10c2 -2 65 -64 140 -139l136 -136l137 137c88 88 138 138 140 139c40.8953 25.5596 85.7898 2.13901 96 -37c4.574 -18.296 -0.854014 -37.281 -8 -48c-5.39058 -8.9843 -326.489 -327.993 -328 -329
c-18.9354 -15.7795 -56.272 -15.9097 -76 1l-163 163c-142 142 -160 160 -163 165c-7.17594 10.7639 -12.5875 29.6501 -8 48zM177 362c-25.6019 -4.51798 -42.8505 -22.9769 -50 -48c-4.49667 -17.9867 0.82221 -37.2333 8 -48c7.50767 -12.5128 322.259 -323.259 326 -327
c19.3804 -16.6117 54.6843 -18.7631 76 -1c6.29188 4.19459 322.648 319.08 328 328c7.19965 10.7995 12.5076 29.9698 8 48c-10.2089 39.134 -55.0761 62.5775 -96 37c-2 -1 -52 -50 -140 -138l-137 -137l-136 136c-75 75 -138 137 -140 139
c-10.8336 7.22241 -29.9464 13.4362 -47 11z" />
  </g>

</svg>
