<?xml version="1.0" standalone="no"?>
<!DOCTYPE svg PUBLIC "-//W3C//DTD SVG 1.1//EN" "http://www.w3.org/Graphics/SVG/1.1/DTD/svg11.dtd" >
<svg xmlns="http://www.w3.org/2000/svg" xmlns:xlink="http://www.w3.org/1999/xlink" version="1.1" viewBox="-10 0 1010 1000">
  <g transform="matrix(1 0 0 -1 0 800)">
   <path fill="currentColor"
d="M135 579c-30.6188 48.1153 12.8856 107.443 68 94c8 -2 16 -6 22 -11c3 -2 71 -70 164 -163c173 -173 164 -163 169 -175c3 -8 4 -14 4 -24s-1 -16 -4 -24c-5 -12 4 -2 -169 -175c-93 -93 -161 -161 -164 -163c-40 -28 -100 -6 -100 50c0 10 2 16 5 24c5 12 -3 3 145 151
l137 137l-137 137c-121 121 -137 137 -140 142zM489 674c20 3 37 -3 48 -12c3 -2 72 -70 165 -163c173 -173 163 -163 168 -175c3 -8 5 -14 5 -24s-2 -16 -5 -24c-5 -12 5 -2 -168 -175c-93 -93 -162 -161 -165 -163c-37 -26 -88 -9 -98 35c-5 20 2 37 9 48
c3 5 18 21 139 142l137 137l-137 137c-148 148 -140 139 -145 151c-3 8 -4 14 -4 24c0 35 23 57 51 62z" />
  </g>

</svg>
