<?xml version="1.0" standalone="no"?>
<!DOCTYPE svg PUBLIC "-//W3C//DTD SVG 1.1//EN" "http://www.w3.org/Graphics/SVG/1.1/DTD/svg11.dtd" >
<svg xmlns="http://www.w3.org/2000/svg" xmlns:xlink="http://www.w3.org/1999/xlink" version="1.1" viewBox="-10 0 1010 1000">
  <g transform="matrix(1 0 0 -1 0 800)">
   <path fill="currentColor"
d="M464 664c21 13 53 15 73 -2c6 -4 323 -319 328 -328c7 -11 13 -30 8 -48c-10 -41 -57 -63 -96 -37c-2 1 -52 50 -140 138l-137 137l-136 -136c-75 -75 -138 -137 -140 -139c-9 -7 -22 -10 -34 -11c-30 -1 -56 18 -63 48c-4 18 1 37 8 48c5 8 326 328 329 330zM489 362
c18 3 38 -4 48 -12c2 -1 323 -320 328 -329c7 -11 13 -30 8 -48c-10 -41 -57 -63 -96 -37c-2 1 -52 51 -140 139l-137 137l-136 -136c-75 -75 -138 -137 -140 -139c-36 -28 -87 -5 -97 36c-5 18 1 38 8 49c3 6 326 327 329 329c8 5 16 9 25 11z" />
  </g>

</svg>
