<?xml version="1.0" standalone="no"?>
<!DOCTYPE svg PUBLIC "-//W3C//DTD SVG 1.1//EN" "http://www.w3.org/Graphics/SVG/1.1/DTD/svg11.dtd" >
<svg xmlns="http://www.w3.org/2000/svg" xmlns:xlink="http://www.w3.org/1999/xlink" version="1.1" viewBox="-10 0 1010 1000">
  <g transform="matrix(1 0 0 -1 0 800)">
   <path fill="currentColor"
d="M500 612c0 51.1622 60.7562 82.1086 100 50c3 -2 71 -70 164 -163c173 -173 164 -163 169 -175c3 -8 4 -14 4 -24s-1 -16 -4 -24c-5 -12 4 -2 -169 -175c-93 -93 -161 -161 -164 -163c-37 -26 -88 -9 -98 35c-5 18 1 37 8 48c3 5 19 21 140 142l137 137l-137 137
c-148 148 -140 139 -145 151c-3 8 -5 14 -5 24z" />
  </g>

</svg>
