<?xml version="1.0" standalone="no"?>
<!DOCTYPE svg PUBLIC "-//W3C//DTD SVG 1.1//EN" "http://www.w3.org/Graphics/SVG/1.1/DTD/svg11.dtd" >
<svg xmlns="http://www.w3.org/2000/svg" xmlns:xlink="http://www.w3.org/1999/xlink" version="1.1" viewBox="-10 0 1010 1000">
  <g transform="matrix(1 0 0 -1 0 800)">
   <path fill="currentColor"
d="M864 424c-26.4791 -5.29581 -45.3878 -23.9388 -51 -52v-192l-1 -192h-189c-167 0 -191 0 -196 -1c-29.2486 -4.49979 -60.0465 -35.814 -50 -76c5.86748 -23.4699 25.5328 -44.2358 50 -48c5 -1 32 0 232 0h226c26.9752 4.49587 45.5523 23.9407 51 49c1 5 1 13 1 232
s0 227 -1 232c-6.35702 29.2423 -32.2598 53.6772 -72 48z" />
  </g>

</svg>
