<?xml version="1.0" standalone="no"?>
<!DOCTYPE svg PUBLIC "-//W3C//DTD SVG 1.1//EN" "http://www.w3.org/Graphics/SVG/1.1/DTD/svg11.dtd" >
<svg xmlns="http://www.w3.org/2000/svg" xmlns:xlink="http://www.w3.org/1999/xlink" version="1.1" viewBox="-10 0 1010 1000">
  <g transform="matrix(1 0 0 -1 0 800)">
   <path fill="currentColor"
d="M464 664c39 24 87 3 97 -37c5 -19 -2 -37 -9 -48c-3 -5 -18 -21 -139 -142l-137 -137l137 -137c121 -121 136 -137 139 -142c25 -37 1 -84 -36 -94c-23 -6 -42 1 -55 12c-321 321 -324 319 -331 337c-3 8 -5 14 -5 24s2 16 5 24c5 12 -5 2 170 177
c105 105 162 162 164 163zM777 664c58 36 125 -30 88 -85c-3 -5 -19 -21 -140 -142l-137 -137l137 -137c121 -121 137 -137 140 -142c4 -6 6 -12 8 -19c15 -60 -57 -100 -100 -63c-321 321 -324 319 -331 337c-3 8 -4 14 -4 24s1 16 4 24c5 12 -5 2 170 177
c105 105 163 162 165 163z" />
  </g>

</svg>
