<?xml version="1.0" standalone="no"?>
<!DOCTYPE svg PUBLIC "-//W3C//DTD SVG 1.1//EN" "http://www.w3.org/Graphics/SVG/1.1/DTD/svg11.dtd" >
<svg xmlns="http://www.w3.org/2000/svg" xmlns:xlink="http://www.w3.org/1999/xlink" version="1.1" viewBox="-10 0 1010 1000">
  <g transform="matrix(1 0 0 -1 0 800)">
   <path fill="currentColor"
d="M177 299c-25.862 -4.56388 -42.7831 -21.7407 -50 -47c-4.574 -18.296 0.854014 -37.281 8 -48c3 -5 21 -23 163 -165l163 -163c18.2867 -15.6743 55.9481 -17.7099 76 -1c1.5107 1.00713 322.609 320.016 328 329c7.17594 10.7639 12.5875 29.6501 8 48
c-10.2089 39.134 -55.0761 62.5775 -96 37c-2 -1 -52 -51 -140 -139l-137 -137l-136 136c-75 75 -138 137 -140 139c-11.6351 7.75671 -27.611 13.7699 -47 11z" />
  </g>

</svg>
