<?xml version="1.0" standalone="no"?>
<!DOCTYPE svg PUBLIC "-//W3C//DTD SVG 1.1//EN" "http://www.w3.org/Graphics/SVG/1.1/DTD/svg11.dtd" >
<svg xmlns="http://www.w3.org/2000/svg" xmlns:xlink="http://www.w3.org/1999/xlink" version="1.1" viewBox="-10 0 1010 1000">
  <g transform="matrix(1 0 0 -1 0 800)">
   <path fill="currentColor"
d="M64 63c7.62288 31.762 36.0921 57.227 77 47c23 -6 40 -24 45 -47c1 -5 1 -8 1 -75s0 -71 -1 -76c-6 -25 -26 -45 -51 -49c-33.8333 -5.63888 -61.9603 17.3612 -71 49c-1 5 -1 9 -1 76s0 70 1 75zM331 -31c14.5823 14.5823 32.7564 22.8109 60 16
c32.404 -8.83746 60.3947 -47.2106 40 -88c-19 -39 -69 -47 -100 -16c-24 24 -25 64 0 88zM581 -31c14.5823 14.5823 32.7564 22.8109 60 16c32.404 -8.83746 60.3947 -47.2106 40 -88c-19 -39 -69 -47 -100 -16c-24 24 -25 64 0 88zM864 -13c-13 -2 -24 -9 -33 -18
c-25 -24 -24 -64 0 -88c42.6185 -42.6185 119.031 -6.4784 105 59c-7.50804 27.5295 -34.3278 52.3817 -72 47z" />
  </g>

</svg>
