<?xml version="1.0" standalone="no"?>
<!DOCTYPE svg PUBLIC "-//W3C//DTD SVG 1.1//EN" "http://www.w3.org/Graphics/SVG/1.1/DTD/svg11.dtd" >
<svg xmlns="http://www.w3.org/2000/svg" xmlns:xlink="http://www.w3.org/1999/xlink" version="1.1" viewBox="-10 0 1010 1000">
  <g transform="matrix(1 0 0 -1 0 800)">
   <path fill="currentColor"
d="M814 438c7.62288 31.762 36.0921 57.227 77 47c23 -6 40 -24 45 -47c1 -5 1 -13 1 -263s0 -258 -1 -263c-6 -28 -30 -48 -58 -49c-30 -2 -57 19 -64 49c-1 5 -1 13 -1 263s0 258 1 263zM564 313c7.62288 31.762 36.0921 57.227 77 47c23 -6 40 -24 45 -47
c1 -5 1 -12 1 -201s0 -195 -1 -200c-6 -28 -30 -48 -58 -49c-30 -2 -57 19 -64 49c-1 5 -1 11 -1 200s0 196 1 201zM314 188c7.62288 31.762 36.0921 57.227 77 47c23 -6 40 -24 45 -47c1 -5 1 -10 1 -138s0 -133 -1 -138c-6 -28 -30 -48 -58 -49c-30 -2 -57 19 -64 49
c-1 5 -1 10 -1 138s0 133 1 138zM114 112c-25 -5 -44 -24 -50 -49c-1 -5 -1 -8 -1 -75s0 -71 1 -76c7 -30 34 -51 64 -49c28 1 52 21 58 49c1 5 1 9 1 76s0 70 -1 75c-6.2553 28.7744 -33.4682 54.5045 -72 49z" />
  </g>

</svg>
