<?xml version="1.0" standalone="no"?>
<!DOCTYPE svg PUBLIC "-//W3C//DTD SVG 1.1//EN" "http://www.w3.org/Graphics/SVG/1.1/DTD/svg11.dtd" >
<svg xmlns="http://www.w3.org/2000/svg" xmlns:xlink="http://www.w3.org/1999/xlink" version="1.1" viewBox="-10 0 1010 1000">
  <g transform="matrix(1 0 0 -1 0 800)">
   <path fill="currentColor"
d="M81 -31c14.5823 14.5823 32.7564 22.8109 60 16c22 -6 39 -23 45 -46c2 -7 2 -22 0 -29c-8.85777 -30.3695 -32.2861 -52.9591 -74 -47c-40.2134 6.70224 -69.4868 69.0526 -31 106zM331 -31c14.5823 14.5823 32.7564 22.8109 60 16c22 -6 39 -23 45 -46
c2 -7 2 -22 0 -29c-8.85777 -30.3695 -32.2861 -52.9591 -74 -47c-40.2134 6.70224 -69.4868 69.0526 -31 106zM581 -31c14.5823 14.5823 32.7564 22.8109 60 16c22 -6 39 -23 45 -46c2 -7 2 -22 0 -29c-8.85777 -30.3695 -32.2861 -52.9591 -74 -47
c-40.2134 6.70224 -69.4868 69.0526 -31 106zM864 -13c-13 -2 -24 -9 -33 -18c-38.454 -36.9159 -9.23881 -99.2935 31 -106c41.6496 -5.94994 65.1453 16.6412 74 47c2 7 2 22 0 29c-7.46271 28.607 -34.0332 53.4238 -72 48z" />
  </g>

</svg>
