<?xml version="1.0" standalone="no"?>
<!DOCTYPE svg PUBLIC "-//W3C//DTD SVG 1.1//EN" "http://www.w3.org/Graphics/SVG/1.1/DTD/svg11.dtd" >
<svg xmlns="http://www.w3.org/2000/svg" xmlns:xlink="http://www.w3.org/1999/xlink" version="1.1" viewBox="-10 0 1010 1000">
  <g transform="matrix(1 0 0 -1 0 800)">
   <path fill="currentColor"
d="M153 737c5 1 24 0 96 0c98 0 97 1 111 -3c35 -9 63 -36 73 -71c4 -15 4 -8 4 -110c0 -101 1 -99 -3 -113c-9 -36 -38 -65 -74 -74c-13 -3 -13 -4 -110 -4s-97 1 -110 4c-41 11 -71 46 -77 88c-1 11 -1 181 0 192c6 47 43 85 90 91zM937 550
c0 -37.6465 -23.5396 -52.5132 -52 -62h-36l-36 -1l-1 -36c0 -34 0 -36 -1 -41c-15.4465 -61.786 -105.571 -61.61 -122 0c-1 5 -1 7 -1 41l-1 37h-33c-48.9493 0 -43.349 -1.99062 -65 11c-14.4747 10.856 -26 26.1102 -26 51c0 32.2429 18.7358 49.6943 42 59
c9 3 13 3 49 3h33l1 37c0 34 0 36 1 41c8.74835 31.2441 36.3962 55.1509 77 45c22 -6 39 -22 45 -45c1 -5 1 -7 1 -41l1 -36l36 -1h36c28.4533 -9.48443 52 -24.3889 52 -62zM188 612v-124h124v124h-124zM153 237c5 1 24 0 96 0c98 0 97 1 111 -3c35 -9 63 -36 73 -71
c4 -15 4 -8 4 -110c0 -101 1 -99 -3 -113c-9 -36 -38 -65 -74 -74c-13 -3 -13 -4 -110 -4s-97 1 -110 4c-41 11 -71 46 -77 88c-1 11 -1 181 0 192c6 47 43 85 90 91zM653 237c5 1 24 0 96 0c98 0 97 1 111 -3c35 -9 63 -36 73 -71c4 -15 4 -8 4 -110c0 -101 1 -99 -3 -113
c-9 -36 -38 -65 -74 -74c-13 -3 -13 -4 -110 -4s-97 1 -110 4c-41 11 -71 46 -77 88c-1 11 -1 181 0 192c6 47 43 85 90 91zM188 112v-124h124v124h-124zM688 50v-62h124v124h-124v-62z" />
  </g>

</svg>
