<?xml version="1.0" standalone="no"?>
<!DOCTYPE svg PUBLIC "-//W3C//DTD SVG 1.1//EN" "http://www.w3.org/Graphics/SVG/1.1/DTD/svg11.dtd" >
<svg xmlns="http://www.w3.org/2000/svg" xmlns:xlink="http://www.w3.org/1999/xlink" version="1.1" viewBox="-10 0 1010 1000">
  <g transform="matrix(1 0 0 -1 0 800)">
   <path fill="currentColor"
d="M312 612h-124v-124h124v124zM333 738c58 0 105 -47 105 -105v-166c0 -58 -47 -105 -105 -105h-166c-58 0 -105 47 -105 105v166c0 58 47 105 105 105h166zM312 112h-124v-124h124v124zM333 238c58 0 105 -47 105 -105v-166c0 -58 -47 -105 -105 -105h-166
c-58 0 -105 47 -105 105v166c0 58 47 105 105 105h166zM812 112h-124v-124h124v124zM833 238c58 0 105 -47 105 -105v-166c0 -58 -47 -105 -105 -105h-166c-58 0 -105 47 -105 105v166c0 58 47 105 105 105h166zM625 612h250v-124h-250v124zM812 675v-250h-124v250h124z
M812 675h-124v-250h124v250z" />
  </g>

</svg>
