<?xml version="1.0" standalone="no"?>
<!DOCTYPE svg PUBLIC "-//W3C//DTD SVG 1.1//EN" "http://www.w3.org/Graphics/SVG/1.1/DTD/svg11.dtd" >
<svg xmlns="http://www.w3.org/2000/svg" xmlns:xlink="http://www.w3.org/1999/xlink" version="1.1" viewBox="-10 0 1010 1000">
  <g transform="matrix(1 0 0 -1 0 800)">
   <path fill="currentColor"
d="M792 529v-125c81 0 146 65 146 146s-65 146 -146 146h-584c-81 0 -146 -65 -146 -146s65 -146 146 -146v125c-12 0 -20 9 -20 21s8 21 20 21h584c12 0 20 -9 20 -21s-8 -21 -20 -21zM792 404v125h-584v-125h584zM708 -96h-416c-79 0 -146 67 -146 146v417h125v-417
c0 -11 9 -21 21 -21h416c12 0 21 9 21 21v417h125v-417c0 -81 -66 -146 -146 -146zM417 362h166v-124h-166v124zM792 404h-584v125h584v-125zM708 -96h-416c-79 0 -146 67 -146 146v417h125v-417c0 -11 9 -21 21 -21h416c12 0 21 9 21 21v417h125v-417
c0 -81 -66 -146 -146 -146zM417 362v-124h166v124h-166zM708 -96c80 0 146 65 146 146v417h-125v-417c0 -12 -9 -21 -21 -21h-416c-12 0 -21 10 -21 21v417h-125v-417c0 -79 67 -146 146 -146h416zM417 362h166v-124h-166v124zM417 362v-124h166v124h-166z" />
  </g>

</svg>
