<?xml version="1.0" standalone="no"?>
<!DOCTYPE svg PUBLIC "-//W3C//DTD SVG 1.1//EN" "http://www.w3.org/Graphics/SVG/1.1/DTD/svg11.dtd" >
<svg xmlns="http://www.w3.org/2000/svg" xmlns:xlink="http://www.w3.org/1999/xlink" version="1.1" viewBox="-10 0 1010 1000">
  <g transform="matrix(1 0 0 -1 0 800)">
   <path fill="currentColor"
d="M277 -95c-69.8134 6.34667 -122.055 60.4367 -131 132v381l-6 4c-40 21 -69 60 -76 107c-2 10 -2 32 0 42c9.79042 64.6168 60.7266 115.578 126 124c5 1 60 1 309 1c208 0 304 -1 308 -1c66.6116 -6.44629 119.299 -59.972 129 -124c2 -10 2 -32 0 -42
c-6 -42 -29 -77 -64 -100l-12 -8l-6 -3v-381c-10.2666 -73.5469 -59.4938 -121.639 -129 -132h-448zM188 550c0 -11.0728 5.84432 -17.2814 14 -20h596c17.2349 5.74497 19.2603 33.5799 0 40h-596c-7.82563 -3.13025 -14 -8.86578 -14 -20zM271 404v-359
c3.33608 -6.67216 5.83937 -11.1357 13 -14c3 -1 4 -2 216 -2s213 1 216 2c7.15743 2.86297 9.66061 7.32121 13 14v359h-229c-183 0 -229 1 -229 0zM407 362c-28.0271 -5.3385 -52 -26.7453 -52 -62c0 -35.49 21.8321 -56.972 52 -62h90c99 0 97 -1 107 3
c23.7586 8.31552 41 27.6733 41 59c0 31.4955 -17.2071 50.6725 -41 59c-10 4 -8 3 -105 3c-69 0 -89 1 -92 0z" />
  </g>

</svg>
