<?xml version="1.0" standalone="no"?>
<!DOCTYPE svg PUBLIC "-//W3C//DTD SVG 1.1//EN" "http://www.w3.org/Graphics/SVG/1.1/DTD/svg11.dtd" >
<svg xmlns="http://www.w3.org/2000/svg" xmlns:xlink="http://www.w3.org/1999/xlink" version="1.1" viewBox="-10 0 1010 1000">
  <g transform="matrix(1 0 0 -1 0 800)">
   <path fill="currentColor"
d="M937 675c0 -35 -22 -57 -52 -62h-383c-339 0 -382 -1 -387 0c-38 6 -70 54 -42 96c9 14 24 25 41 28c4 1 62 0 388 0h383c30 -5 52 -27 52 -62zM464 414c22 14 54 13 73 -2c3 -2 200 -197 203 -203c7 -11 12 -30 8 -48c-10 -41 -57 -63 -96 -37c-2 1 -21 19 -47 45
l-42 43l-1 -149v-148c-13 -69 -110 -68 -124 0v148l-1 149l-42 -43c-23 -23 -44 -43 -46 -45c-9 -7 -22 -10 -34 -11c-30 -1 -56 18 -63 48c-5 18 1 37 8 48c4 7 202 204 204 205z" />
  </g>

</svg>
