<?xml version="1.0" standalone="no"?>
<!DOCTYPE svg PUBLIC "-//W3C//DTD SVG 1.1//EN" "http://www.w3.org/Graphics/SVG/1.1/DTD/svg11.dtd" >
<svg xmlns="http://www.w3.org/2000/svg" xmlns:xlink="http://www.w3.org/1999/xlink" version="1.1" viewBox="-10 0 1010 1000">
  <g transform="matrix(1 0 0 -1 0 800)">
   <path fill="currentColor"
d="M302 737c17 2 38 -4 48 -12c1 -1 195 -192 202 -204c7 -11 14 -29 9 -48c-10 -41 -58 -63 -97 -37c-2 1 -20 19 -46 45l-43 43v-349h349l-43 43c-46 46 -47 47 -51 58c-3 8 -5 14 -5 24c0 47 59 83 100 50c3 -2 47 -46 102 -101c105 -105 101 -100 106 -112
c3 -8 4 -15 4 -25s-1 -16 -4 -24c-5 -12 -1 -7 -106 -112c-55 -55 -99 -99 -102 -101c-37 -26 -88 -7 -98 36c-5 18 1 37 8 48c3 5 10 12 46 48l43 43h-208c-184 0 -209 0 -214 1c-29.2045 4.493 -42.9316 26.6086 -52 52v421l-42 -42c-23 -23 -45 -43 -47 -45
c-36 -28 -87 -5 -97 36c-5 20 1 38 9 49c4 7 199 201 204 204c8 5 16 9 25 11z" />
  </g>

</svg>
