<?xml version="1.0" standalone="no"?>
<!DOCTYPE svg PUBLIC "-//W3C//DTD SVG 1.1//EN" "http://www.w3.org/Graphics/SVG/1.1/DTD/svg11.dtd" >
<svg xmlns="http://www.w3.org/2000/svg" xmlns:xlink="http://www.w3.org/1999/xlink" version="1.1" viewBox="-10 0 1010 1000">
  <g transform="matrix(1 0 0 -1 0 800)">
   <path fill="currentColor"
d="M302 737c-9 -2 -17 -6 -25 -11c-2 -1 -39 -37 -102 -100c-107 -107 -103 -102 -108 -114c-3 -8 -4 -14 -4 -24s1 -17 4 -25c5 -12 1 -7 106 -112l100 -100c38.6307 -33.1121 102 -1.23243 102 49c0 10 -2 16 -5 24c-4 11 -5 12 -51 58l-43 43h349v-349l-42 42
c-23 23 -45 43 -47 45c-24 18 -58 15 -80 -6c-11.1916 -11.1916 -18 -23.1448 -18 -45c0 -10 1 -16 4 -24c5 -12 1 -7 106 -112l100 -100c18.2456 -15.6391 56.7961 -17.8366 77 -1c3 2 47 46 102 101c105 105 101 100 106 112c3 8 4 14 4 24
c0 52.0946 -53.7777 79.639 -98 52c-2 -1 -20 -19 -46 -45l-43 -43v421l-2 5c-7.07667 27.1272 -25.9792 39.6597 -51 48h-421l43 43c36 36 43 43 46 48c30.1579 45.2369 -10.9467 103.436 -63 96z" />
  </g>

</svg>
