<?xml version="1.0" standalone="no"?>
<!DOCTYPE svg PUBLIC "-//W3C//DTD SVG 1.1//EN" "http://www.w3.org/Graphics/SVG/1.1/DTD/svg11.dtd" >
<svg xmlns="http://www.w3.org/2000/svg" xmlns:xlink="http://www.w3.org/1999/xlink" version="1.1" viewBox="-10 0 1010 1000">
  <g transform="matrix(1 0 0 -1 0 800)">
   <path fill="currentColor"
d="M937 675c0 -35 -22 -57 -52 -62h-383c-339 0 -382 -1 -387 0c-38 6 -70 54 -42 96c9 14 24 25 41 28c4 1 62 0 388 0h383c30 -5 52 -27 52 -62zM489 424c41 6 67 -20 73 -52v-148l1 -148l42 43c26 26 45 44 47 45c56 36 124 -28 88 -85c-7 -12 -202 -203 -203 -204
c-20 -17 -58 -15 -76 1c-43 43 -194 192 -201 203c-18 26 -8 61 9 78c22 21 56 24 80 6c2 -2 23 -22 46 -45l42 -42l1 148v148c6 28 25 47 51 52z" />
  </g>

</svg>
