<?xml version="1.0" standalone="no"?>
<!DOCTYPE svg PUBLIC "-//W3C//DTD SVG 1.1//EN" "http://www.w3.org/Graphics/SVG/1.1/DTD/svg11.dtd" >
<svg xmlns="http://www.w3.org/2000/svg" xmlns:xlink="http://www.w3.org/1999/xlink" version="1.1" viewBox="-10 0 1010 1000">
  <g transform="matrix(1 0 0 -1 0 800)">
   <path fill="currentColor"
d="M364 737c18 3 36 -4 47 -11c2 -2 24 -22 47 -45l42 -43l43 43c26 26 44 44 46 45c44 27 98 1 98 -51c0 -10 -1 -16 -4 -24c-5 -11 -5 -11 -65 -71l-56 -56v-448l43 43c26 26 45 44 47 45c44 27 98 -1 98 -52c0 -10 -2 -16 -5 -24c-5 -12 -1 -7 -106 -112
c-55 -55 -99 -99 -102 -101c-20 -17 -58 -15 -76 1c-43 43 -194 192 -201 203c-18 26 -8 61 9 78c22 21 56 24 80 6c2 -2 23 -22 46 -45l43 -42v448l-56 56c-48 48 -56 56 -59 61c-25 38 1 89 41 96z" />
  </g>

</svg>
