<?xml version="1.0" standalone="no"?>
<!DOCTYPE svg PUBLIC "-//W3C//DTD SVG 1.1//EN" "http://www.w3.org/Graphics/SVG/1.1/DTD/svg11.dtd" >
<svg xmlns="http://www.w3.org/2000/svg" xmlns:xlink="http://www.w3.org/1999/xlink" version="1.1" viewBox="-10 0 1010 1000">
  <g transform="matrix(1 0 0 -1 0 800)">
   <path fill="currentColor"
d="M355 675c0 51.2264 55.8205 81.1282 98 51c3 -2 67 -66 182 -181l177 -177l1 44c0 43 0 44 1 49c6.90842 26.4823 28.7877 47 61 47c34.4152 0 53.8542 -21.2032 61 -48c1 -4 1 -13 1 -129s0 -124 -1 -128c-6.49632 -24.9026 -24.9126 -43.6521 -51 -48h-250
c-40.2601 6.71002 -66.412 53.8652 -43 94c7.47299 12.455 20.1055 20.5528 33 27c10 3 10 3 56 3h43l-178 179c-124 124 -179 179 -181 182c-7.61497 9.51871 -10 18.0332 -10 35zM113 445c-24 -5 -43 -23 -49 -48c-1 -4 -1 -12 -1 -128s0 -125 1 -129
c6.94442 -26.6203 27.7134 -48 61 -48c32.5274 0 54.1937 21.1361 61 47c1 5 1 6 1 49l1 44l177 -177c115 -115 179 -179 182 -181c41.8904 -29.9217 98 1.2502 98 51c0 17.0617 -2.33845 25.4231 -10 35c-2 3 -57 58 -181 182l-178 179h85
c30.8362 4.1115 58.6681 34.9868 55 68c-3.13701 27.1874 -21.0029 51.0005 -51 56h-124c-100 0 -125 1 -128 0z" />
  </g>

</svg>
