<?xml version="1.0" standalone="no"?>
<!DOCTYPE svg PUBLIC "-//W3C//DTD SVG 1.1//EN" "http://www.w3.org/Graphics/SVG/1.1/DTD/svg11.dtd" >
<svg xmlns="http://www.w3.org/2000/svg" xmlns:xlink="http://www.w3.org/1999/xlink" version="1.1" viewBox="-10 0 1010 1000">
  <g transform="matrix(1 0 0 -1 0 800)">
   <path fill="currentColor"
d="M355 103c6 32 30 51 68 51l15 1v369l-43 -42c-23 -23 -44 -43 -46 -45c-36 -28 -87 -5 -97 36c-5 18 1 38 8 49c4 7 199 201 204 204c15 9 29 15 52 9c8 -2 15 -5 21 -10c1 -1 196 -192 203 -204c7 -11 13 -30 8 -48c-10 -41 -57 -63 -96 -37c-2 1 -21 19 -47 45l-43 43
v-369l15 -1c38 0 62 -19 68 -51v-188c-5 -27 -25 -48 -52 -52c-6 -1 -15 0 -96 0h-90c-28 5 -47 24 -52 52v188zM479 29v-41h42v41h-42z" />
  </g>

</svg>
