<?xml version="1.0" standalone="no"?>
<!DOCTYPE svg PUBLIC "-//W3C//DTD SVG 1.1//EN" "http://www.w3.org/Graphics/SVG/1.1/DTD/svg11.dtd" >
<svg xmlns="http://www.w3.org/2000/svg" xmlns:xlink="http://www.w3.org/1999/xlink" version="1.1" viewBox="-10 0 1010 1000">
  <g transform="matrix(1 0 0 -1 0 800)">
   <path fill="currentColor"
d="M252 690c9 31 36 55 76 45c22 -6 39 -22 45 -45l2 -5v-609l43 43c26 26 44 44 46 45c57 36 126 -28 88 -85c-7 -12 -201 -203 -202 -204c-19 -16 -57 -16 -77 1l-100 100c-85 86 -97 98 -100 103c-7 11 -14 28 -9 48c3 12 9 22 17 30c22 21 56 24 80 6
c2 -2 24 -22 47 -45l42 -42v609zM677 737c17 2 38 -4 48 -12c1 -1 195 -192 202 -204c7 -11 14 -29 9 -48c-10 -41 -58 -63 -97 -37c-2 1 -20 19 -46 45l-43 43v-609l-2 -5c-8 -28 -30 -46 -58 -47c-30 -1 -55 17 -63 47l-2 5v609l-42 -42c-23 -23 -45 -43 -47 -45
c-36 -28 -87 -5 -97 36c-5 20 1 38 9 49c4 7 199 201 204 204c8 5 16 9 25 11z" />
  </g>

</svg>
