<?xml version="1.0" standalone="no"?>
<!DOCTYPE svg PUBLIC "-//W3C//DTD SVG 1.1//EN" "http://www.w3.org/Graphics/SVG/1.1/DTD/svg11.dtd" >
<svg xmlns="http://www.w3.org/2000/svg" xmlns:xlink="http://www.w3.org/1999/xlink" version="1.1" viewBox="-10 0 1010 1000">
  <g transform="matrix(1 0 0 -1 0 800)">
   <path fill="currentColor"
d="M423 446c-38 0 -62 19 -68 51v188c5 28 25 47 52 52c3 1 23 0 92 0c97 0 95 1 105 -3c21 -7 37 -25 41 -49v-188c-6 -32 -30 -51 -68 -51l-15 -1v-369l43 43c26 26 45 44 47 45c43 27 98 -1 98 -52c0 -10 -2 -16 -5 -24c-5 -12 -1 -7 -106 -112
c-55 -55 -99 -99 -102 -101c-19 -16 -56 -16 -76 1c-43 43 -194 192 -201 203s-13 30 -8 48c3 12 9 22 17 30c22 21 56 24 80 6c2 -2 23 -22 46 -45l43 -42v369zM479 612v-41h42v41h-42z" />
  </g>

</svg>
