<?xml version="1.0" standalone="no"?>
<!DOCTYPE svg PUBLIC "-//W3C//DTD SVG 1.1//EN" "http://www.w3.org/Graphics/SVG/1.1/DTD/svg11.dtd" >
<svg xmlns="http://www.w3.org/2000/svg" xmlns:xlink="http://www.w3.org/1999/xlink" version="1.1" viewBox="-10 0 1010 1000">
  <g transform="matrix(1 0 0 -1 0 800)">
   <path fill="currentColor"
d="M625 675c0 41 35 71 78 60c8 -2 16 -5 22 -10c3 -2 47 -46 102 -101c105 -105 101 -100 106 -112c3 -8 4 -14 4 -24s-1 -17 -4 -25c-5 -12 -1 -7 -106 -112c-55 -55 -99 -99 -102 -101c-40 -28 -100 -4 -100 50c0 10 2 16 5 24c4 11 5 12 51 58l43 43h-302
c-268 0 -302 0 -307 1c-31 5 -61 34 -51 76c6 24 25 43 51 47c5 1 39 1 307 1h302l-43 43c-46 46 -47 47 -51 58c-3 8 -5 14 -5 24zM302 362c52 7 93 -51 63 -96c-3 -5 -10 -12 -46 -48l-43 -43h609l6 -2c27 -7 55 -35 45 -75c-7 -27 -25 -39 -51 -48h-609l43 -43
c46 -46 47 -47 51 -58c3 -8 5 -14 5 -24c0 -50 -63 -82 -102 -49l-100 100c-105 105 -101 100 -106 112c-3 8 -4 14 -4 24s1 17 4 25c5 12 1 7 108 114c63 63 100 99 102 100c8 5 16 9 25 11z" />
  </g>

</svg>
