<?xml version="1.0" standalone="no"?>
<!DOCTYPE svg PUBLIC "-//W3C//DTD SVG 1.1//EN" "http://www.w3.org/Graphics/SVG/1.1/DTD/svg11.dtd" >
<svg xmlns="http://www.w3.org/2000/svg" xmlns:xlink="http://www.w3.org/1999/xlink" version="1.1" viewBox="-10 0 1010 1000">
  <g transform="matrix(1 0 0 -1 0 800)">
   <path fill="currentColor"
d="M302 737c-9 -2 -17 -6 -25 -11c-5.15096 -2.57548 -199.843 -197.071 -204 -204c-7.54295 -11.3144 -13.8865 -29.454 -9 -49c9.55337 -40.943 61.3986 -63.69 97 -36c2 2 24 22 47 45l42 42v-421c5.46395 -13.6599 9.15296 -25.153 19 -35c9 -9 20 -15 33 -17
c5 -1 30 -1 214 -1h208l-43 -43c-36 -36 -43 -43 -46 -48c-7.19965 -10.7995 -12.5076 -29.9698 -8 -48c9.99975 -42.8561 60.6676 -62.1327 98 -36c3 2 47 46 102 101c105 105 101 100 106 112c3 8 4 14 4 24s-1 17 -4 25c-5 12 -1 7 -106 112c-55 55 -99 99 -102 101
c-41.2574 32.6621 -100 -2.84124 -100 -50c0 -10 2 -16 5 -24c4 -11 5 -12 51 -58l43 -43h-349v349l43 -43c26 -26 44 -44 46 -45c39.0163 -26.0109 86.697 -4.2119 97 37c4.86762 19.4705 -1.59631 36.8945 -9 48c-6.99014 11.6502 -201.209 203.473 -202 204
c-9.98275 8.31896 -30.6496 14.4786 -48 12z" />
  </g>

</svg>
