<?xml version="1.0" standalone="no"?>
<!DOCTYPE svg PUBLIC "-//W3C//DTD SVG 1.1//EN" "http://www.w3.org/Graphics/SVG/1.1/DTD/svg11.dtd" >
<svg xmlns="http://www.w3.org/2000/svg" xmlns:xlink="http://www.w3.org/1999/xlink" version="1.1" viewBox="-10 0 1010 1000">
  <g transform="matrix(1 0 0 -1 0 800)">
   <path fill="currentColor"
d="M114 737c-25 -5 -44 -24 -50 -49c-1 -5 -1 -10 -1 -138s0 -133 1 -138c7 -30 34 -51 64 -49c28 1 51 19 58 47c1 5 1 7 1 60l1 54l536 -536h-52c-44 0 -52 0 -57 -1c-29.7595 -4.57838 -61.211 -35.1559 -51 -76c5.9845 -23.938 25.9528 -44.1466 51 -48c5 -1 22 0 138 0
h132c26.9752 4.49587 45.5523 23.9407 51 49c1 5 1 10 1 138s0 133 -1 138c-13.5264 63.1231 -105.337 64.4868 -122 2c-1 -5 -1 -7 -1 -60l-1 -54l-536 536l54 1h55c27.0471 4.50784 44.4776 22.9976 51 48c10.3258 41.3033 -19.9215 70.8203 -51 76h-133
c-112 0 -134 1 -138 0z" />
  </g>

</svg>
