<?xml version="1.0" standalone="no"?>
<!DOCTYPE svg PUBLIC "-//W3C//DTD SVG 1.1//EN" "http://www.w3.org/Graphics/SVG/1.1/DTD/svg11.dtd" >
<svg xmlns="http://www.w3.org/2000/svg" xmlns:xlink="http://www.w3.org/1999/xlink" version="1.1" viewBox="-10 0 1010 1000">
  <g transform="matrix(1 0 0 -1 0 800)">
   <path fill="currentColor"
d="M489 737c18 3 38 -4 48 -12c0 0 196 -192 203 -204c7 -11 13 -30 8 -48c-10 -41 -57 -63 -96 -37c-2 1 -21 19 -47 45l-43 43v-536l37 -1h36l6 -2c27 -7 55 -35 45 -74c-7 -25 -24 -43 -51 -48h-132c-116 0 -133 -1 -138 0c-25 4 -45 24 -51 48c-10 41 21 71 51 76
c4 1 12 1 39 1h34v536l-43 -42c-23 -23 -44 -43 -46 -45c-36 -28 -87 -5 -97 36c-5 18 1 38 8 49c4 7 199 201 204 204c8 5 16 9 25 11z" />
  </g>

</svg>
