<?xml version="1.0" standalone="no"?>
<!DOCTYPE svg PUBLIC "-//W3C//DTD SVG 1.1//EN" "http://www.w3.org/Graphics/SVG/1.1/DTD/svg11.dtd" >
<svg xmlns="http://www.w3.org/2000/svg" xmlns:xlink="http://www.w3.org/1999/xlink" version="1.1" viewBox="-10 0 1010 1000">
  <g transform="matrix(1 0 0 -1 0 800)">
   <path fill="currentColor"
d="M677 737c-27.2973 -4.81717 -52 -28.688 -52 -62c0 -10 2 -16 5 -24c4 -11 5 -12 51 -58l43 -43h-302c-268 0 -302 0 -307 -1c-30.5151 -4.69463 -61.468 -34.1279 -51 -76c6.0896 -24.3584 25.4417 -43.068 51 -47c5 -1 39 -1 307 -1h302l-43 -43
c-46 -46 -47 -47 -51 -58c-3 -8 -5 -14 -5 -24s2 -16 5 -24c4 -11 5 -12 51 -58l43 -43h-302c-268 0 -302 0 -307 -1c-29.4228 -4.52658 -52 -27.1195 -52 -62c0 -34.3868 22.9871 -56.5365 52 -61c5 -1 39 -1 307 -1h302l-43 -43c-36 -36 -43 -43 -46 -48
c-7.19965 -10.7995 -12.5076 -29.9698 -8 -48c9.99975 -42.8561 60.6676 -62.1327 98 -36c3 2 47 46 102 101c105 105 101 100 106 112c3 8 4 14 4 24s-1 17 -4 25c-5 11 -3 9 -83 89l-74 74l74 74c80 80 78 78 83 89c3 8 4 15 4 25s-1 16 -4 24c-5 12 -1 7 -106 112
c-55 55 -99 99 -102 101c-9.98275 8.31896 -30.6496 14.4786 -48 12z" />
  </g>

</svg>
