<?xml version="1.0" standalone="no"?>
<!DOCTYPE svg PUBLIC "-//W3C//DTD SVG 1.1//EN" "http://www.w3.org/Graphics/SVG/1.1/DTD/svg11.dtd" >
<svg xmlns="http://www.w3.org/2000/svg" xmlns:xlink="http://www.w3.org/1999/xlink" version="1.1" viewBox="-10 0 1010 1000">
  <g transform="matrix(1 0 0 -1 0 800)">
   <path fill="currentColor"
d="M677 737c17 2 38 -4 48 -12c1 -1 195 -192 202 -204c7 -11 14 -29 9 -48c-10 -41 -58 -63 -97 -37c-2 1 -20 19 -46 45l-43 43v-421l-2 -5c-7 -27 -26 -40 -51 -48h-421l43 -43c36 -36 43 -43 46 -48c4 -6 6 -13 8 -20c14 -58 -57 -100 -100 -63l-100 100
c-105 105 -101 100 -106 112c-3 8 -4 14 -4 24s1 17 4 25c5 12 1 7 106 112l100 100c13 11 33 16 55 11c35.9529 -9.80535 61.1143 -56.106 37 -94c-3 -5 -10 -12 -46 -48l-43 -43h349v349l-42 -42c-23 -23 -45 -43 -47 -45c-36 -28 -87 -5 -97 36c-5 20 1 38 9 49
c4 7 199 201 204 204c8 5 16 9 25 11z" />
  </g>

</svg>
