<?xml version="1.0" standalone="no"?>
<!DOCTYPE svg PUBLIC "-//W3C//DTD SVG 1.1//EN" "http://www.w3.org/Graphics/SVG/1.1/DTD/svg11.dtd" >
<svg xmlns="http://www.w3.org/2000/svg" xmlns:xlink="http://www.w3.org/1999/xlink" version="1.1" viewBox="-10 0 1010 1000">
  <g transform="matrix(1 0 0 -1 0 800)">
   <path fill="currentColor"
d="M135 579c-27 42 5 96 54 96c12 0 24 -4 34 -11c3 -2 84 -82 297 -295l292 -293l1 148v148c7 33 33 54 65 53c28 -1 52 -21 58 -49c1 -5 1 -13 1 -232s0 -227 -1 -232c-5 -25 -24 -45 -51 -49h-226c-200 0 -227 -1 -232 0c-24 4 -44 25 -50 48c-10 40 21 72 50 76
c5 1 23 1 151 1h146l-293 292c-262 262 -293 294 -296 299z" />
  </g>

</svg>
