<?xml version="1.0" standalone="no"?>
<!DOCTYPE svg PUBLIC "-//W3C//DTD SVG 1.1//EN" "http://www.w3.org/Graphics/SVG/1.1/DTD/svg11.dtd" >
<svg xmlns="http://www.w3.org/2000/svg" xmlns:xlink="http://www.w3.org/1999/xlink" version="1.1" viewBox="-10 0 1010 1000">
  <g transform="matrix(1 0 0 -1 0 800)">
   <path fill="currentColor"
d="M277 539c58 36 125 -30 88 -86c-3 -5 -10 -12 -46 -48l-43 -43h448l56 56c35 35 57 57 59 58c59 37 125 -30 88 -85c-3 -5 -10 -12 -46 -48l-43 -43l43 -43c36 -36 43 -43 46 -48c7 -11 14 -29 9 -48c-10 -41 -58 -63 -97 -37c-2 1 -24 23 -59 58l-56 56h-448l43 -43
c46 -46 47 -47 51 -58c3 -8 5 -15 5 -25c0 -52 -64 -81 -102 -48l-100 100c-105 105 -101 100 -106 112c-3 8 -4 14 -4 24s1 16 4 24c5 12 1 7 108 114c63 63 100 100 102 101z" />
  </g>

</svg>
