<?xml version="1.0" standalone="no"?>
<!DOCTYPE svg PUBLIC "-//W3C//DTD SVG 1.1//EN" "http://www.w3.org/Graphics/SVG/1.1/DTD/svg11.dtd" >
<svg xmlns="http://www.w3.org/2000/svg" xmlns:xlink="http://www.w3.org/1999/xlink" version="1.1" viewBox="-10 0 1010 1000">
  <g transform="matrix(1 0 0 -1 0 800)">
   <path fill="currentColor"
d="M489 737c18 3 38 -4 48 -12c2 -1 323 -320 328 -329c7 -11 13 -30 8 -48c-10 -41 -57 -63 -96 -37c-2 1 -41 41 -109 108l-105 105l-1 -304v-305c-13 -69 -110 -68 -124 0v305l-1 304l-104 -105c-58 -58 -107 -105 -109 -107c-36 -28 -87 -5 -97 36c-5 18 1 38 8 49
c3 6 326 327 329 329c8 5 16 9 25 11z" />
  </g>

</svg>
