<?xml version="1.0" standalone="no"?>
<!DOCTYPE svg PUBLIC "-//W3C//DTD SVG 1.1//EN" "http://www.w3.org/Graphics/SVG/1.1/DTD/svg11.dtd" >
<svg xmlns="http://www.w3.org/2000/svg" xmlns:xlink="http://www.w3.org/1999/xlink" version="1.1" viewBox="-10 0 1010 1000">
  <g transform="matrix(1 0 0 -1 0 800)">
   <path fill="currentColor"
d="M437 238c0 -38 -23 -53 -52 -63h-132c-116 0 -133 0 -138 1c-26 4 -45 23 -51 48c-1 5 -1 10 -1 138s0 134 1 139c8 35 43 56 77 47c22 -6 39 -23 45 -46c1 -5 1 -6 1 -59l1 -55l168 168c126 126 169 168 173 170c16 10 37 17 59 7c25 -11 51 -44 34 -83
c-5 -11 3 -2 -177 -182l-168 -168h108c28 -9 52 -24 52 -62zM614 424c4 1 26 1 138 1h133c26 -9 45 -22 51 -49c1 -5 1 -10 1 -138s0 -134 -1 -139c-6 -28 -30 -48 -58 -49c-30 -1 -56 18 -64 48c-1 5 -1 6 -1 59l-1 55l-167 -168c-92 -92 -169 -168 -171 -170
c-9 -7 -22 -10 -34 -11c-33 -1 -65 23 -65 62c0 10 2 16 5 24c5 12 -6 1 176 183l168 168h-52c-56 0 -58 0 -67 3c-23 9 -42 27 -42 59c0 35 23 57 51 62z" />
  </g>

</svg>
