<?xml version="1.0" standalone="no"?>
<!DOCTYPE svg PUBLIC "-//W3C//DTD SVG 1.1//EN" "http://www.w3.org/Graphics/SVG/1.1/DTD/svg11.dtd" >
<svg xmlns="http://www.w3.org/2000/svg" xmlns:xlink="http://www.w3.org/1999/xlink" version="1.1" viewBox="-10 0 1010 1000">
  <g transform="matrix(1 0 0 -1 0 800)">
   <path fill="currentColor"
d="M437 238c0 -38.4636 -22.997 -53.3323 -52 -63h-132c-116 0 -133 0 -138 1c-26.177 4.02724 -44.7633 23.0534 -51 48c-1 5 -1 10 -1 138s0 134 1 139c8 35 43 56 77 47c22 -6 39 -23 45 -46c1 -5 1 -6 1 -59l1 -55l168 168c126 126 169 168 173 170
c15.6166 9.76039 36.5162 16.9928 59 7c25.0378 -10.7305 51.0567 -44.0132 34 -83c-5 -11 3 -2 -177 -182l-168 -168h108c28.4533 -9.48443 52 -24.3889 52 -62zM614 424c-28.0669 -4.95298 -51 -27.3346 -51 -62c0 -32.2429 18.7358 -49.6943 42 -59c9 -3 11 -3 67 -3h52
l-168 -168c-182 -182 -171 -171 -176 -183c-3 -8 -5 -14 -5 -24c0 -38.6573 32.0376 -63.0987 65 -62c12 1 25 4 34 11c2 2 79 78 171 170l167 168l1 -55c0 -53 0 -54 1 -59c8 -30 34 -49 64 -48c28 1 52 21 58 49c1 5 1 11 1 139s0 133 -1 138
c-5.95755 27.4047 -25.1979 40.3993 -51 49h-133c-112 0 -134 0 -138 -1z" />
  </g>

</svg>
