<?xml version="1.0" standalone="no"?>
<!DOCTYPE svg PUBLIC "-//W3C//DTD SVG 1.1//EN" "http://www.w3.org/Graphics/SVG/1.1/DTD/svg11.dtd" >
<svg xmlns="http://www.w3.org/2000/svg" xmlns:xlink="http://www.w3.org/1999/xlink" version="1.1" viewBox="-10 0 1010 1000">
  <g transform="matrix(1 0 0 -1 0 800)">
   <path fill="currentColor"
d="M277 726c15 9 29 15 51 9c8 -2 16 -5 22 -10c1 -1 195 -192 202 -204c7 -11 14 -28 9 -48c-10 -41 -58 -63 -97 -37c-2 1 -20 19 -46 45l-43 43v-609l-2 -5c-8 -28 -30 -46 -58 -47c-30 -1 -55 17 -63 47l-2 5v609l-42 -42c-23 -23 -45 -43 -47 -45
c-36 -28 -87 -5 -97 36c-5 19 1 38 9 49c4 7 199 201 204 204zM677 737c37 5 64 -19 71 -47l2 -5v-609l43 43c26 26 44 44 46 45c59 37 124 -30 88 -85c-7 -12 -201 -203 -202 -204c-20 -17 -59 -15 -77 1l-100 100c-85 86 -97 98 -100 103c-38 57 34 125 88 84
c2 -2 24 -22 47 -45l42 -42v609l2 5c7 25 25 42 50 47z" />
  </g>

</svg>
