<?xml version="1.0" standalone="no"?>
<!DOCTYPE svg PUBLIC "-//W3C//DTD SVG 1.1//EN" "http://www.w3.org/Graphics/SVG/1.1/DTD/svg11.dtd" >
<svg xmlns="http://www.w3.org/2000/svg" xmlns:xlink="http://www.w3.org/1999/xlink" version="1.1" viewBox="-10 0 1010 1000">
  <g transform="matrix(1 0 0 -1 0 800)">
   <path fill="currentColor"
d="M277 726c14.6183 9.13642 28.6756 14.5811 51 9c26.1585 -7.13414 54.8648 -34.5409 45 -74c-2 -7 -4 -14 -8 -20c-3 -5 -10 -12 -46 -48l-43 -43h609c25.9421 -8.64736 43.8666 -20.6553 51 -48c9.97194 -39.8877 -17.7005 -67.8784 -45 -75l-6 -2h-609l43 -43
c46 -46 47 -47 51 -58c3 -8 5 -14 5 -24c0 -50.2599 -63.2913 -82.1789 -102 -49l-100 100c-105 105 -101 100 -106 112c-3 8 -4 15 -4 25s1 16 4 24c5 12 1 7 108 114c63 63 100 99 102 100zM677 362c-27.2973 -4.81717 -52 -28.688 -52 -62c0 -10 2 -16 5 -24
c4 -11 5 -12 51 -58l43 -43h-302c-268 0 -302 0 -307 -1c-30.5151 -4.69463 -61.468 -34.1279 -51 -76c6.0896 -24.3584 25.4417 -43.068 51 -47c5 -1 39 -1 307 -1h302l-43 -43c-46 -46 -47 -47 -51 -58c-3 -8 -5 -14 -5 -24c0 -53.6384 60.0665 -77.9535 100 -50
c3 2 47 46 102 101c105 105 101 100 106 112c3 8 4 14 4 24s-1 17 -4 25c-5 12 -1 7 -106 112c-55 55 -99 99 -102 101c-9.98275 8.31896 -30.6496 14.4786 -48 12z" />
  </g>

</svg>
