<?xml version="1.0" standalone="no"?>
<!DOCTYPE svg PUBLIC "-//W3C//DTD SVG 1.1//EN" "http://www.w3.org/Graphics/SVG/1.1/DTD/svg11.dtd" >
<svg xmlns="http://www.w3.org/2000/svg" xmlns:xlink="http://www.w3.org/1999/xlink" version="1.1" viewBox="-10 0 1010 1000">
  <g transform="matrix(1 0 0 -1 0 800)">
   <path fill="currentColor"
d="M114 737c4 1 40 0 232 0h226c29 -5 53 -28 53 -62s-24 -57 -53 -62h-148l-148 -1l293 -292c262 -262 293 -294 296 -299c6 -9 10 -19 10 -33c0 -53 -57 -80 -98 -52c-2 1 -105 103 -297 295l-292 293l-1 -148v-148c-6 -31 -30 -52 -59 -53c-30 -2 -57 19 -64 49
c-1 5 -1 13 -1 232s0 227 1 232c6 25 25 44 50 49z" />
  </g>

</svg>
