<?xml version="1.0" standalone="no"?>
<!DOCTYPE svg PUBLIC "-//W3C//DTD SVG 1.1//EN" "http://www.w3.org/Graphics/SVG/1.1/DTD/svg11.dtd" >
<svg xmlns="http://www.w3.org/2000/svg" xmlns:xlink="http://www.w3.org/1999/xlink" version="1.1" viewBox="-10 0 1010 1000">
  <g transform="matrix(1 0 0 -1 0 800)">
   <path fill="currentColor"
d="M489 737c18 3 38 -4 48 -12c0 0 196 -192 203 -204c7 -11 13 -30 8 -48c-10 -41 -57 -63 -96 -37c-2 1 -21 19 -47 45l-43 43v-448l43 43c26 26 45 44 47 45c56 36 124 -28 88 -85c-7 -12 -202 -203 -203 -204c-20 -17 -58 -15 -76 1c-43 43 -194 192 -201 203
c-18 26 -8 61 9 78c22 21 56 24 80 6c2 -2 23 -22 46 -45l43 -42v448l-43 -42c-23 -23 -44 -43 -46 -45c-36 -28 -87 -5 -97 36c-5 18 1 38 8 49c4 7 199 201 204 204c8 5 16 9 25 11z" />
  </g>

</svg>
