<?xml version="1.0" standalone="no"?>
<!DOCTYPE svg PUBLIC "-//W3C//DTD SVG 1.1//EN" "http://www.w3.org/Graphics/SVG/1.1/DTD/svg11.dtd" >
<svg xmlns="http://www.w3.org/2000/svg" xmlns:xlink="http://www.w3.org/1999/xlink" version="1.1" viewBox="-10 0 1010 1000">
  <g transform="matrix(1 0 0 -1 0 800)">
   <path fill="currentColor"
d="M937 675c0 -34.6641 -22.2278 -57.038 -52 -62h-383c-339 0 -382 -1 -387 0c-37.9737 5.84211 -70.2495 53.6258 -42 96c9 14 24 25 41 28c4 1 62 0 388 0h383c29.7764 -4.96273 52 -27.3788 52 -62zM489 424c-26.4791 -5.29581 -45.3878 -23.9388 -51 -52v-148l-1 -148
l-42 42c-23 23 -44 43 -46 45c-24 18 -58 15 -80 -6c-16.6016 -16.6016 -26.5822 -51.6267 -9 -78c6.50645 -10.8441 158.285 -160.285 201 -203c18.2867 -15.6743 55.9481 -17.7099 76 -1c0.896569 0.597713 196.021 192.369 203 204c7.17594 10.7639 12.5875 29.6501 8 48
c-10.2089 39.134 -55.0761 62.5775 -96 37c-2 -1 -21 -19 -47 -45l-42 -43l-1 148v148c-6.42613 32.1306 -31.6311 57.9098 -73 52z" />
  </g>

</svg>
