<?xml version="1.0" standalone="no"?>
<!DOCTYPE svg PUBLIC "-//W3C//DTD SVG 1.1//EN" "http://www.w3.org/Graphics/SVG/1.1/DTD/svg11.dtd" >
<svg xmlns="http://www.w3.org/2000/svg" xmlns:xlink="http://www.w3.org/1999/xlink" version="1.1" viewBox="-10 0 1010 1000">
  <g transform="matrix(1 0 0 -1 0 800)">
   <path fill="currentColor"
d="M268 675h12c110.446 0 201.576 -81.7433 217 -182c3 -16 3 -16 3 -74v-57h224l-43 43c-46 46 -47 47 -51 58c-3 8 -5 15 -5 25c0 48.6643 55.9945 81.4251 100 49c2 -2 49 -47 102 -101c105 -105 101 -100 106 -112c3 -8 4 -14 4 -24s-1 -16 -4 -24
c-5 -12 -1 -7 -106 -112c-55 -55 -99 -99 -102 -101c-37.0207 -25.9145 -87.6407 -9.39687 -98 35c-4.56953 18.2781 0.784753 38.1771 8 49c3 5 10 12 46 48l43 43h-224v-323l-2 -5c-8 -28 -30 -46 -58 -47c-30 -1 -55 17 -63 47l-2 5v322l-56 1c-58 0 -58 0 -74 3
c-96.5255 15.0821 -169.564 91.9352 -181 192c-1 9 -1 37 0 46c12.4585 107.143 92.5167 187.424 204 196zM268 549c-59.0818 -8.6161 -102.12 -76.3477 -70 -136c13 -25 36 -43 65 -49c6 -1 8 -1 59 -1l53 -1v53c0 51 -1 53 -2 59c-8 38 -37 66 -74 74c-8 2 -23 2 -31 1z
" />
  </g>

</svg>
