<?xml version="1.0" standalone="no"?>
<!DOCTYPE svg PUBLIC "-//W3C//DTD SVG 1.1//EN" "http://www.w3.org/Graphics/SVG/1.1/DTD/svg11.dtd" >
<svg xmlns="http://www.w3.org/2000/svg" xmlns:xlink="http://www.w3.org/1999/xlink" version="1.1" viewBox="-10 0 1010 1000">
  <g transform="matrix(1 0 0 -1 0 800)">
   <path fill="currentColor"
d="M114 549c6 1 20 1 36 0c79 -4 145 -24 212 -64c20 -12 36 -23 71 -48c45 -33 59 -42 81 -53c25 -12 50 -19 76 -21h71l63 -1l-43 43c-46 46 -47 47 -51 58c-3 8 -5 15 -5 25c0 48 57 83 100 49c3 -2 47 -46 102 -101c105 -105 101 -100 106 -112c3 -8 4 -14 4 -24
s-1 -16 -4 -24c-5 -12 -1 -7 -106 -112c-55 -55 -99 -99 -102 -101c-37 -26 -88 -9 -98 35c-5 18 1 38 8 49c3 5 10 12 46 48l43 43h-63c-38 0 -66 -1 -71 -1c-37 -3 -67 -14 -106 -39c-23 -14 -98 -69 -116 -80c-70 -43 -136 -63 -218 -67c-30 -2 -40 -1 -53 5
c-21 10 -41 37 -33 71c7 28 31 48 64 48c75 0 123 17 182 54c17 11 86 61 101 71c-13 6 -90 64 -101 71c-59 37 -107 54 -182 54c-33 0 -57 20 -64 48c-10 42 21 71 50 76z" />
  </g>

</svg>
