<?xml version="1.0" standalone="no"?>
<!DOCTYPE svg PUBLIC "-//W3C//DTD SVG 1.1//EN" "http://www.w3.org/Graphics/SVG/1.1/DTD/svg11.dtd" >
<svg xmlns="http://www.w3.org/2000/svg" xmlns:xlink="http://www.w3.org/1999/xlink" version="1.1" viewBox="-10 0 1010 1000">
  <g transform="matrix(1 0 0 -1 0 800)">
   <path fill="currentColor"
d="M500 612c0 51 61 82 100 50c3 -2 71 -70 164 -163c173 -173 164 -163 169 -175c3 -8 4 -14 4 -24s-1 -16 -4 -24c-5 -12 4 -2 -169 -175c-93 -93 -161 -161 -164 -163c-37 -26 -88 -9 -98 35c-5 18 1 37 8 48c3 5 16 18 109 111l105 106h-302c-268 0 -302 -1 -307 0
c-25 4 -45 24 -51 48c-10 41 21 71 51 76c5 1 39 0 307 0h302l-105 106c-114 114 -109 108 -114 120c-3 8 -5 14 -5 24z" />
  </g>

</svg>
