<?xml version="1.0" standalone="no"?>
<!DOCTYPE svg PUBLIC "-//W3C//DTD SVG 1.1//EN" "http://www.w3.org/Graphics/SVG/1.1/DTD/svg11.dtd" >
<svg xmlns="http://www.w3.org/2000/svg" xmlns:xlink="http://www.w3.org/1999/xlink" version="1.1" viewBox="-10 0 1010 1000">
  <g transform="matrix(1 0 0 -1 0 800)">
   <path fill="currentColor"
d="M266 445h29c25 0 32 -1 49 -4c69 -14 127 -52 163 -102c24 -34 58 -59 113 -59c42 0 67 16 101 40l-42 1c-36 0 -42 0 -46 1c-35 7 -63 49 -44 88c8 18 23 31 46 35h250c27 -5 44 -23 51 -48c1 -4 1 -12 1 -128s0 -125 -1 -129c-7 -26 -28 -48 -61 -48
c-32 0 -54 21 -61 47c-1 5 -1 6 -1 50l-1 45l-1 -2c-47 -38 -105 -71 -165 -77c-12 -1 -45 -1 -57 1c-55 7 -103 29 -143 64c-15 13 -24 24 -40 46c-7 9 -12 16 -20 22c-21 17 -49 29 -76 32c-64 6 -106 -18 -133 -54c-3 -4 -7 -9 -9 -11c-37 -37 -105 -12 -105 45
c0 10 1 16 4 24c4 10 17 27 32 42c40 40 98 72 167 79z" />
  </g>

</svg>
