<?xml version="1.0" standalone="no"?>
<!DOCTYPE svg PUBLIC "-//W3C//DTD SVG 1.1//EN" "http://www.w3.org/Graphics/SVG/1.1/DTD/svg11.dtd" >
<svg xmlns="http://www.w3.org/2000/svg" xmlns:xlink="http://www.w3.org/1999/xlink" version="1.1" viewBox="-10 0 1010 1000">
  <g transform="matrix(1 0 0 -1 0 800)">
   <path fill="currentColor"
d="M614 737c-27.2531 -4.80938 -51 -28.3986 -51 -62c0 -32.2429 18.7358 -49.6943 42 -59c9 -3 11 -4 67 -4h52l-536 -536l-1 54c0 53 0 55 -1 60c-6 23 -23 39 -45 45c-34 9 -69 -12 -77 -47c-1 -5 -1 -10 -1 -138s0 -133 1 -138
c6.14342 -24.5737 25.3196 -45.0492 51 -49c5 -1 22 0 138 0h132c27.0471 4.50784 44.4776 22.9976 51 48c10.3258 41.3033 -19.9215 70.8203 -51 76h-55l-54 1l536 536l1 -54c0 -53 0 -55 1 -60c16.6293 -62.3598 108.445 -61.2589 122 2c1 5 1 10 1 138s0 133 -1 138
c-5.44627 25.0528 -24.0371 44.5062 -51 49h-133c-112 0 -134 1 -138 0z" />
  </g>

</svg>
