<?xml version="1.0" standalone="no"?>
<!DOCTYPE svg PUBLIC "-//W3C//DTD SVG 1.1//EN" "http://www.w3.org/Graphics/SVG/1.1/DTD/svg11.dtd" >
<svg xmlns="http://www.w3.org/2000/svg" xmlns:xlink="http://www.w3.org/1999/xlink" version="1.1" viewBox="-10 0 1010 1000">
  <g transform="matrix(1 0 0 -1 0 800)">
   <path fill="currentColor"
d="M364 737c4 1 26 0 138 0h133c30 -5 52 -27 52 -62c0 -38 -24 -53 -52 -62h-36l-37 -1v-536l43 43c26 26 45 44 47 45c44 27 98 -1 98 -52c0 -10 -2 -16 -5 -24c-5 -12 -1 -7 -106 -112c-55 -55 -99 -99 -102 -101c-20 -17 -58 -15 -76 1c-43 43 -194 192 -201 203
c-18 26 -8 61 9 78c22 21 56 24 80 6c2 -2 23 -22 46 -45l43 -42v536h-34c-27 0 -35 0 -39 1c-32 5 -61 37 -51 76c7 24 25 44 50 48z" />
  </g>

</svg>
