<?xml version="1.0" standalone="no"?>
<!DOCTYPE svg PUBLIC "-//W3C//DTD SVG 1.1//EN" "http://www.w3.org/Graphics/SVG/1.1/DTD/svg11.dtd" >
<svg xmlns="http://www.w3.org/2000/svg" xmlns:xlink="http://www.w3.org/1999/xlink" version="1.1" viewBox="-10 0 1010 1000">
  <g transform="matrix(1 0 0 -1 0 800)">
   <path fill="currentColor"
d="M277 539c58 36 125 -30 88 -86c-3 -5 -10 -12 -46 -48l-43 -43h536l1 37c0 34 0 36 1 41c17 62 108 61 122 -2c1 -5 1 -10 1 -138s0 -133 -1 -138c-14 -63 -105 -64 -122 -2c-1 5 -1 7 -1 41l-1 37h-536l43 -43c46 -46 47 -47 51 -58c3 -8 5 -15 5 -25
c0 -52 -64 -81 -102 -48l-100 100c-105 105 -101 100 -106 112c-3 8 -4 14 -4 24s1 16 4 24c5 12 1 7 108 114c63 63 100 100 102 101z" />
  </g>

</svg>
