<?xml version="1.0" standalone="no"?>
<!DOCTYPE svg PUBLIC "-//W3C//DTD SVG 1.1//EN" "http://www.w3.org/Graphics/SVG/1.1/DTD/svg11.dtd" >
<svg xmlns="http://www.w3.org/2000/svg" xmlns:xlink="http://www.w3.org/1999/xlink" version="1.1" viewBox="-10 0 1010 1000">
  <g transform="matrix(1 0 0 -1 0 800)">
   <path fill="currentColor"
d="M625 488c0 50.9932 61.2657 80.6917 100 49c3 -2 47 -46 102 -101c105 -105 101 -100 106 -112c3 -8 4 -14 4 -24s-1 -16 -4 -24c-5 -12 -1 -7 -106 -112c-55 -55 -99 -99 -102 -101c-10 -7 -22 -12 -35 -13c-33 -1 -65 23 -65 62c0 10 2 17 5 25c4 11 5 12 51 58l43 43
h-536l-1 -37c0 -34 0 -36 -1 -41c-7 -28 -30 -46 -58 -47c-30 -2 -57 19 -64 49c-1 5 -1 10 -1 138s0 133 1 138c8 35 43 56 77 47c22 -6 39 -22 45 -45c1 -5 1 -7 1 -41l1 -37h536l-43 43c-46 46 -47 47 -51 58c-3 8 -5 15 -5 25z" />
  </g>

</svg>
