<?xml version="1.0" standalone="no"?>
<!DOCTYPE svg PUBLIC "-//W3C//DTD SVG 1.1//EN" "http://www.w3.org/Graphics/SVG/1.1/DTD/svg11.dtd" >
<svg xmlns="http://www.w3.org/2000/svg" xmlns:xlink="http://www.w3.org/1999/xlink" version="1.1" viewBox="-10 0 1010 1000">
  <g transform="matrix(1 0 0 -1 0 800)">
   <path fill="currentColor"
d="M277 726c15 9 29 15 51 9c26 -7 55 -35 45 -74c-2 -7 -4 -14 -8 -20c-3 -5 -10 -12 -46 -48l-43 -43h609c26 -9 44 -21 51 -48c10 -40 -18 -68 -45 -75l-6 -2h-609l43 -43c46 -46 47 -47 51 -58c3 -8 5 -14 5 -24c0 -50 -63 -82 -102 -49l-100 100
c-105 105 -101 100 -106 112c-3 8 -4 15 -4 25s1 16 4 24c5 12 1 7 108 114c63 63 100 99 102 100zM677 362c17 2 38 -4 48 -12c3 -2 47 -46 102 -101c105 -105 101 -100 106 -112c3 -8 4 -15 4 -25s-1 -16 -4 -24c-5 -12 -1 -7 -106 -112c-55 -55 -99 -99 -102 -101
c-40 -28 -100 -4 -100 50c0 10 2 16 5 24c4 11 5 12 51 58l43 43h-302c-268 0 -302 0 -307 1c-26 4 -45 23 -51 47c-10 42 20 71 51 76c5 1 39 1 307 1h302l-43 43c-46 46 -47 47 -51 58c-3 8 -5 14 -5 24c0 33 25 57 52 62z" />
  </g>

</svg>
