<?xml version="1.0" standalone="no"?>
<!DOCTYPE svg PUBLIC "-//W3C//DTD SVG 1.1//EN" "http://www.w3.org/Graphics/SVG/1.1/DTD/svg11.dtd" >
<svg xmlns="http://www.w3.org/2000/svg" xmlns:xlink="http://www.w3.org/1999/xlink" version="1.1" viewBox="-10 0 1010 1000">
  <g transform="matrix(1 0 0 -1 0 800)">
   <path fill="currentColor"
d="M802 674c-9 -2 -17 -5 -25 -10c-2 -1 -105 -103 -297 -295l-292 -293l-1 148v148c-5.21029 26.0514 -22.1995 44.509 -46 51c-34 9 -69 -12 -77 -47c-1 -5 -1 -13 -1 -232s0 -227 1 -232c6.14342 -24.5737 25.3196 -45.0492 51 -49c5 -1 31 0 231 0h226
c27.0471 4.50784 44.4776 22.9976 51 48c10.3258 41.3033 -19.9215 70.8203 -51 76h-148l-148 1l293 292c262 262 293 294 296 299c30.1884 45.2825 -9.88781 102.587 -63 95z" />
  </g>

</svg>
