<?xml version="1.0" standalone="no"?>
<!DOCTYPE svg PUBLIC "-//W3C//DTD SVG 1.1//EN" "http://www.w3.org/Graphics/SVG/1.1/DTD/svg11.dtd" >
<svg xmlns="http://www.w3.org/2000/svg" xmlns:xlink="http://www.w3.org/1999/xlink" version="1.1" viewBox="-10 0 1010 1000">
  <g transform="matrix(1 0 0 -1 0 800)">
   <path fill="currentColor"
d="M303 445c28 -6 48 -28 51 -55v-28h370l-43 43c-46 46 -47 47 -51 58c-3 8 -5 15 -5 25c0 40 35 71 78 60c8 -2 16 -6 22 -11c3 -2 47 -46 102 -101c105 -105 101 -100 106 -112c3 -8 4 -14 4 -24s-1 -16 -4 -24c-5 -12 -1 -7 -106 -112c-55 -55 -99 -99 -102 -101
c-39 -28 -100 -6 -100 49c0 10 2 17 5 25c4 11 5 12 51 58l43 43h-370v-28c-3 -27 -23 -49 -51 -55h-188c-27 5 -44 23 -51 48c-1 4 -1 11 -1 97s0 93 1 97c7 25 24 43 51 48h188zM188 321v-42h41v42h-41z" />
  </g>

</svg>
