<?xml version="1.0" standalone="no"?>
<!DOCTYPE svg PUBLIC "-//W3C//DTD SVG 1.1//EN" "http://www.w3.org/Graphics/SVG/1.1/DTD/svg11.dtd" >
<svg xmlns="http://www.w3.org/2000/svg" xmlns:xlink="http://www.w3.org/1999/xlink" version="1.1" viewBox="-10 0 1010 1000">
  <g transform="matrix(1 0 0 -1 0 800)">
   <path fill="currentColor"
d="M364 737c-24.6628 -4.35226 -43.1443 -24.0051 -50 -48c-9.85757 -39.4303 19.4245 -71.1422 51 -76c4 -1 12 -1 39 -1h34v-536l-43 42c-23 23 -44 43 -46 45c-24 18 -58 15 -80 -6c-16.6016 -16.6016 -26.5822 -51.6267 -9 -78
c6.50645 -10.8441 158.285 -160.285 201 -203c18.2867 -15.6743 55.9481 -17.7099 76 -1c3 2 47 46 102 101c105 105 101 100 106 112c3 8 5 14 5 24c0 51.0855 -54.3983 79.2511 -98 52c-2 -1 -21 -19 -47 -45l-43 -43v536l37 1h36c28.3281 9.44271 52 24.3278 52 62
c0 34.7769 -22.1989 57.0332 -52 62h-133c-112 0 -134 1 -138 0z" />
  </g>

</svg>
