<?xml version="1.0" standalone="no"?>
<!DOCTYPE svg PUBLIC "-//W3C//DTD SVG 1.1//EN" "http://www.w3.org/Graphics/SVG/1.1/DTD/svg11.dtd" >
<svg xmlns="http://www.w3.org/2000/svg" xmlns:xlink="http://www.w3.org/1999/xlink" version="1.1" viewBox="-10 0 1010 1000">
  <g transform="matrix(1 0 0 -1 0 800)">
   <path fill="currentColor"
d="M885 175c28.5647 -9.52156 52 -25.0348 52 -63c0 -38 -24 -53 -52 -62h-609l43 -43c36 -36 43 -43 46 -48c4 -6 6 -13 8 -20c14 -58 -57 -100 -100 -63l-100 100c-105 105 -101 100 -106 112c-3 8 -4 14 -4 24s1 17 4 25c5 11 3 9 83 89l74 74l-74 74
c-80 80 -78 78 -83 89c-3 8 -4 15 -4 25s1 16 4 24c5 12 1 7 108 114c63 63 100 99 102 100c8 5 16 9 25 11c52 7 93 -51 63 -96c-3 -5 -10 -12 -46 -48l-43 -43h609l6 -2c27 -7 55 -35 45 -75c-7 -27 -25 -39 -51 -48h-609l43 -43c46 -46 47 -47 51 -58c3 -8 5 -14 5 -24
s-2 -16 -5 -24c-4 -11 -5 -12 -51 -58l-43 -43h609z" />
  </g>

</svg>
