<?xml version="1.0" standalone="no"?>
<!DOCTYPE svg PUBLIC "-//W3C//DTD SVG 1.1//EN" "http://www.w3.org/Graphics/SVG/1.1/DTD/svg11.dtd" >
<svg xmlns="http://www.w3.org/2000/svg" xmlns:xlink="http://www.w3.org/1999/xlink" version="1.1" viewBox="-10 0 1010 1000">
  <g transform="matrix(1 0 0 -1 0 800)">
   <path fill="currentColor"
d="M464 726c15 9 29 15 52 9c8 -2 15 -5 21 -10c1 -1 196 -192 203 -204c7 -11 13 -30 8 -48c-10 -41 -57 -63 -96 -37c-2 1 -21 19 -47 45l-42 43l-1 -148v-148c-6 -31 -30 -52 -59 -53c-32 -1 -58 20 -65 53v148l-1 148l-42 -42c-23 -23 -44 -43 -46 -45
c-36 -28 -87 -5 -97 36c-5 18 1 38 8 49c4 7 199 201 204 204zM114 -13c4 1 62 0 388 0h383c30 -5 52 -27 52 -62s-22 -57 -52 -62h-383c-339 0 -382 -1 -387 0c-32 5 -61 37 -51 76c7 24 25 44 50 48z" />
  </g>

</svg>
