<?xml version="1.0" standalone="no"?>
<!DOCTYPE svg PUBLIC "-//W3C//DTD SVG 1.1//EN" "http://www.w3.org/Graphics/SVG/1.1/DTD/svg11.dtd" >
<svg xmlns="http://www.w3.org/2000/svg" xmlns:xlink="http://www.w3.org/1999/xlink" version="1.1" viewBox="-10 0 1010 1000">
  <g transform="matrix(1 0 0 -1 0 800)">
   <path fill="currentColor"
d="M266 445c-69.4758 -6.51336 -126.993 -38.9926 -167 -79c-15 -15 -28 -32 -32 -42c-3 -8 -4 -14 -4 -24c0 -56.7466 68.2739 -81.7261 105 -45c2 2 6 7 9 11c27.1861 36.2481 69.2258 60.3774 133 54c27 -3 55 -15 76 -32c8 -6 13 -13 20 -22c16 -22 25 -33 40 -46
c40 -35 88 -57 143 -64c12 -2 45 -2 57 -1c59.9555 5.71005 118.061 39.4485 165 77l1 2l1 -45c0 -44 0 -45 1 -50c6.90842 -26.4823 28.7877 -47 61 -47c32.9789 0 54.1032 21.792 61 48c1 4 1 13 1 129s0 124 -1 128c-6.52092 24.9968 -23.9635 43.4939 -51 48h-250
c-22.6985 -3.78309 -37.5162 -16.972 -46 -35c-18.5906 -38.8712 9.2105 -80.5451 44 -88c4 -1 10 -1 46 -1l42 -1c-33.6384 -24.0274 -58.6409 -40 -101 -40c-54.9791 0 -88.9985 24.7122 -113 59c-36.2018 50.2803 -93.6495 87.722 -163 102c-17 3 -24 4 -49 4h-29z" />
  </g>

</svg>
