<?xml version="1.0" standalone="no"?>
<!DOCTYPE svg PUBLIC "-//W3C//DTD SVG 1.1//EN" "http://www.w3.org/Graphics/SVG/1.1/DTD/svg11.dtd" >
<svg xmlns="http://www.w3.org/2000/svg" xmlns:xlink="http://www.w3.org/1999/xlink" version="1.1" viewBox="-10 0 1010 1000">
  <g transform="matrix(1 0 0 -1 0 800)">
   <path fill="currentColor"
d="M252 690c8.65613 30.9147 36.0148 54.9963 76 45c22 -6 39 -22 45 -45l2 -5v-609l43 43c26 26 44 44 46 45c57.3253 35.8283 125.68 -28.4799 88 -85c-6.99014 -11.6502 -201.209 -203.473 -202 -204c-19.1188 -15.9323 -57.3436 -15.8484 -77 1l-100 100
c-85 86 -97 98 -100 103c-7.43159 11.1474 -13.8824 28.4703 -9 48c3 12 9 22 17 30c22 21 56 24 80 6c2 -2 24 -22 47 -45l42 -42v609zM677 737c-9 -2 -17 -6 -25 -11c-5.15096 -2.57548 -199.843 -197.071 -204 -204c-7.54295 -11.3144 -13.8865 -29.454 -9 -49
c9.55337 -40.943 61.3986 -63.69 97 -36c2 2 24 22 47 45l42 42v-609l2 -5c8 -30 33 -48 63 -47c28 1 50 19 58 47l2 5v609l43 -43c26 -26 44 -44 46 -45c39.0163 -26.0109 86.697 -4.2119 97 37c4.86762 19.4705 -1.59631 36.8945 -9 48
c-6.99014 11.6502 -201.209 203.473 -202 204c-9.98275 8.31896 -30.6496 14.4786 -48 12z" />
  </g>

</svg>
