<?xml version="1.0" standalone="no"?>
<!DOCTYPE svg PUBLIC "-//W3C//DTD SVG 1.1//EN" "http://www.w3.org/Graphics/SVG/1.1/DTD/svg11.dtd" >
<svg xmlns="http://www.w3.org/2000/svg" xmlns:xlink="http://www.w3.org/1999/xlink" version="1.1" viewBox="-10 0 1010 1000">
  <g transform="matrix(1 0 0 -1 0 800)">
   <path fill="currentColor"
d="M114 737c-25 -5 -44 -24 -50 -49c-1 -5 -1 -13 -1 -232s0 -227 1 -232c7 -30 34 -51 64 -49c29.4029 1.0501 52.8153 22.0766 59 53v148l1 148l292 -293c192 -192 295 -294 297 -295c41.2883 -27.5255 98 -0.556646 98 52c0 14.2426 -3.97369 23.9605 -10 33
c-3 5 -34 37 -296 299l-293 292l148 1h148c29.2533 4.87554 53 28.4809 53 62c0 33.6038 -23.8337 57.139 -53 62h-226c-192 0 -228 1 -232 0z" />
  </g>

</svg>
