<?xml version="1.0" standalone="no"?>
<!DOCTYPE svg PUBLIC "-//W3C//DTD SVG 1.1//EN" "http://www.w3.org/Graphics/SVG/1.1/DTD/svg11.dtd" >
<svg xmlns="http://www.w3.org/2000/svg" xmlns:xlink="http://www.w3.org/1999/xlink" version="1.1" viewBox="-10 0 1010 1000">
  <g transform="matrix(1 0 0 -1 0 800)">
   <path fill="currentColor"
d="M750 675c0 -33.5162 -23.7874 -57.1312 -53 -62h-54l-55 -1l168 -167c182 -182 172 -171 177 -183c3 -8 4 -14 4 -24c0 -53.6135 -55.934 -80.044 -98 -52c-2 1 -62 61 -171 170l-168 168v-54c0 -53 -1 -55 -2 -60c-7 -28 -30 -46 -58 -47c-30 -2 -57 19 -64 49
c-1 5 -1 10 -1 138s0 133 1 138c6 25 26 44 51 49c4 1 25 0 137 0h133c29.2192 -4.86987 53 -28.5254 53 -62zM114 424c-29.1368 -5.14179 -60.394 -34.4241 -50 -76c2 -7 5 -13 9 -19c3 -5 21 -24 171 -174l168 -167h-52c-44 0 -53 0 -58 -1
c-29.2486 -4.49979 -60.0465 -35.814 -50 -76c5.86748 -23.4699 25.5328 -44.2358 50 -48c5 -1 22 0 138 0h132c26.912 4.48533 46.5624 23.9869 52 49c1 5 1 10 1 138s0 133 -1 138c-6 28 -31 48 -59 49c-30 1 -55 -17 -63 -47c-1 -5 -2 -7 -2 -60v-54l-167 167
c-92 92 -170 168 -172 170c-11.6791 7.78605 -27.2393 13.823 -47 11z" />
  </g>

</svg>
