<?xml version="1.0" standalone="no"?>
<!DOCTYPE svg PUBLIC "-//W3C//DTD SVG 1.1//EN" "http://www.w3.org/Graphics/SVG/1.1/DTD/svg11.dtd" >
<svg xmlns="http://www.w3.org/2000/svg" xmlns:xlink="http://www.w3.org/1999/xlink" version="1.1" viewBox="-10 0 1010 1000">
  <g transform="matrix(1 0 0 -1 0 800)">
   <path fill="currentColor"
d="M614 737c4 1 26 0 138 0h133c27 -4 46 -24 51 -49c1 -5 1 -10 1 -138s0 -133 -1 -138c-14 -63 -105 -64 -122 -2c-1 5 -1 7 -1 60l-1 54l-536 -536l54 -1h55c31 -5 61 -35 51 -76c-7 -25 -24 -43 -51 -48h-132c-116 0 -133 -1 -138 0c-26 4 -45 24 -51 49
c-1 5 -1 10 -1 138s0 133 1 138c8 35 43 56 77 47c22 -6 39 -22 45 -45c1 -5 1 -7 1 -60l1 -54l536 536h-52c-56 0 -58 1 -67 4c-23 9 -42 27 -42 59c0 34 24 57 51 62z" />
  </g>

</svg>
