<?xml version="1.0" standalone="no"?>
<!DOCTYPE svg PUBLIC "-//W3C//DTD SVG 1.1//EN" "http://www.w3.org/Graphics/SVG/1.1/DTD/svg11.dtd" >
<svg xmlns="http://www.w3.org/2000/svg" xmlns:xlink="http://www.w3.org/1999/xlink" version="1.1" viewBox="-10 0 1010 1000">
  <g transform="matrix(1 0 0 -1 0 800)">
   <path fill="currentColor"
d="M705 675h13c76 1 148 -44 185 -101c18 -29 29 -60 33 -95c1 -9 1 -37 0 -46c-12 -96 -82 -174 -178 -192c-17 -3 -18 -3 -77 -3l-56 -1v-322l-2 -5c-8 -28 -30 -46 -58 -47c-30 -1 -55 17 -63 47l-2 5v323h-224l43 -43c36 -36 43 -43 46 -48c24 -38 -1 -85 -37 -95
c-23 -6 -42 1 -55 12l-100 100c-105 105 -101 100 -106 112c-3 8 -4 14 -4 24s1 16 4 24c5 12 1 7 106 112l100 100c45 35 102 -2 102 -48c0 -10 -2 -17 -5 -25c-4 -11 -5 -12 -51 -58l-43 -43h224v57c0 58 0 58 3 74c16 98 97 174 202 182zM706 549c-37 -6 -69 -33 -78 -69
c-3 -11 -3 -15 -3 -68v-50l53 1c51 0 53 0 59 1c40 9 66 38 74 76c2 8 2 25 0 33c-8 44 -47 83 -105 76z" />
  </g>

</svg>
