<?xml version="1.0" standalone="no"?>
<!DOCTYPE svg PUBLIC "-//W3C//DTD SVG 1.1//EN" "http://www.w3.org/Graphics/SVG/1.1/DTD/svg11.dtd" >
<svg xmlns="http://www.w3.org/2000/svg" xmlns:xlink="http://www.w3.org/1999/xlink" version="1.1" viewBox="-10 0 1010 1000">
  <g transform="matrix(1 0 0 -1 0 800)">
   <path fill="currentColor"
d="M812 302c-6 -29 -27 -52 -62 -52c-19 0 -24 4 -35 11c-13 10 -23 22 -27 41v111l-1 111l-11 -11c-15 -15 -24 -23 -48 -25c-34 -1 -65 22 -65 62c0 10 1 16 4 24c5 11 4 10 77 83c42 42 68 68 70 69c15 9 29 15 52 9c8 -2 15 -5 21 -10c3 -2 34 -33 71 -70
c71 -71 70 -70 75 -81c3 -8 4 -14 4 -24c0 -53 -57 -79 -98 -51c-2 1 -9 7 -15 13l-11 12l-1 -111v-111zM302 612c52 7 93 -51 63 -96c-4 -7 -98 -100 -97 -100c22 0 50 -7 74 -13c90 -20 170 -54 232 -101c85 -64 149 -165 168 -283c7 -42 10 -94 6 -109
c-7 -27 -30 -46 -58 -47c-38 -1 -65 25 -65 69c-1 26 -2 41 -5 60c-24 161 -135 247 -291 285c-10 2 -36 9 -38 9c0 0 16 -16 35 -36c38 -38 40 -40 44 -51c3 -8 5 -14 5 -24c0 -50 -63 -82 -102 -49l-100 100c-105 105 -101 100 -106 112c-3 8 -4 14 -4 24s1 17 4 25
c5 12 1 7 108 114c63 63 100 99 102 100c8 5 16 9 25 11z" />
  </g>

</svg>
