<?xml version="1.0" standalone="no"?>
<!DOCTYPE svg PUBLIC "-//W3C//DTD SVG 1.1//EN" "http://www.w3.org/Graphics/SVG/1.1/DTD/svg11.dtd" >
<svg xmlns="http://www.w3.org/2000/svg" xmlns:xlink="http://www.w3.org/1999/xlink" version="1.1" viewBox="-10 0 1010 1000">
  <g transform="matrix(1 0 0 -1 0 800)">
   <path fill="currentColor"
d="M113 507c-27.2495 -4.54158 -44.7824 -25.9119 -50 -52v-248c4.6559 -27.9354 24.5728 -45.7027 50 -51c6 -1 10 -1 129 -1h123c20.303 5.07575 36.2311 16.4623 45 34c12 24 7 52 -11 71c-9.79723 11.0219 -21.5474 14.1825 -36 19h-42l-42 1
c27.4202 18.2801 53.8296 35.6225 79 40c62.2318 8.89026 105.228 -20.2927 133 -56c40.6981 -56.3512 101.915 -97.6144 185 -108c13 -2 52 -2 65 0c69.1247 9.30525 136.286 44.2242 175 94c15.6441 19.5551 21 25.4088 21 50c0 32.2928 -20.5147 54.0908 -47 61
c-31.7751 9.0786 -54.5861 -8.62053 -67 -26c-26.0079 -39.0119 -75.3076 -62.0865 -140 -54c-37.7185 6.73544 -71.4945 27.7065 -92 57c-39.8013 53.0684 -102.941 96.7073 -181 106c-17 2 -51 2 -66 0c-46 -7 -89 -26 -134 -60
c-8.45011 -6.76009 -15.0936 -12.2446 -22 -18l-1 45c0 43 0 45 -1 50c-6.73927 24.7106 -27.9828 47 -59 47c-7 0 -11 0 -14 -1z" />
  </g>

</svg>
