<?xml version="1.0" standalone="no"?>
<!DOCTYPE svg PUBLIC "-//W3C//DTD SVG 1.1//EN" "http://www.w3.org/Graphics/SVG/1.1/DTD/svg11.dtd" >
<svg xmlns="http://www.w3.org/2000/svg" xmlns:xlink="http://www.w3.org/1999/xlink" version="1.1" viewBox="-10 0 1010 1000">
  <g transform="matrix(1 0 0 -1 0 800)">
   <path fill="currentColor"
d="M687 -44c-6.04664 -51.3964 -45.5159 -87.0645 -93 -93h-188c-49 5 -87 43 -93 91c-1 6 -1 26 -1 145v139h-98c-45.2037 5.42445 -81.3398 38.6989 -90 82c-7 32 1 64 22 89l146 146c101 101 141 141 145 144c14 10 30 17 47 20c24.9613 3.12016 46.4037 -2.62389 63 -10
c16 -8 6 2 161 -153c78 -78 143 -144 146 -147c30 -36 33 -86 7 -126c-13.0894 -19.6341 -37.1396 -35.7849 -62 -42c-11 -3 -16 -3 -65 -3h-46l-1 -138v-144zM388 474l-112 -111l54 -1h55c27.8888 -4.64813 46.4217 -24.1087 52 -52v-161l1 -161h124l1 161v161
c5.28709 26.4355 25.4042 47.9083 52 52c5 1 13 0 57 0h52l-224 224l-112 -112z" />
  </g>

</svg>
