<?xml version="1.0" standalone="no"?>
<!DOCTYPE svg PUBLIC "-//W3C//DTD SVG 1.1//EN" "http://www.w3.org/Graphics/SVG/1.1/DTD/svg11.dtd" >
<svg xmlns="http://www.w3.org/2000/svg" xmlns:xlink="http://www.w3.org/1999/xlink" version="1.1" viewBox="-10 0 1010 1000">
  <g transform="matrix(1 0 0 -1 0 800)">
   <path fill="currentColor"
d="M423 446c-37.7903 0 -61.5685 18.8427 -68 51v188c4.66258 27.9755 24.582 46.5164 52 52c3 1 23 0 92 0c97 0 95 1 105 -3c21.3799 -7.48296 37.0211 -25.1267 41 -49v-188c-6.42988 -32.1494 -30.2842 -51 -68 -51l-15 -1v-369l43 43c26 26 45 44 47 45
c43.4111 27.132 98 -1.08899 98 -52c0 -10 -2 -16 -5 -24c-5 -12 -1 -7 -106 -112c-55 -55 -99 -99 -102 -101c-18.9354 -15.7795 -56.272 -15.9097 -76 1c-42.7155 42.7155 -194.494 192.156 -201 203c-7.17594 10.7639 -12.5875 29.6501 -8 48c3 12 9 22 17 30
c22 21 56 24 80 6c2 -2 23 -22 46 -45l43 -42v369zM479 592v-21h42v41h-42v-20z" />
  </g>

</svg>
