<?xml version="1.0" standalone="no"?>
<!DOCTYPE svg PUBLIC "-//W3C//DTD SVG 1.1//EN" "http://www.w3.org/Graphics/SVG/1.1/DTD/svg11.dtd" >
<svg xmlns="http://www.w3.org/2000/svg" xmlns:xlink="http://www.w3.org/1999/xlink" version="1.1" viewBox="-10 0 1010 1000">
  <g transform="matrix(1 0 0 -1 0 800)">
   <path fill="currentColor"
d="M302 549c-9 -2 -17 -5 -25 -10c-2 -1 -39 -38 -102 -101c-107 -107 -103 -102 -108 -114c-3 -8 -4 -14 -4 -24s1 -16 4 -24c5 -12 1 -7 106 -112l100 -100c38.0042 -32.575 102 -4.14063 102 48c0 10 -2 17 -5 25c-4 11 -5 12 -51 58l-43 43h448l56 -56
c35 -35 57 -57 59 -58c39.0163 -26.0109 86.697 -4.2119 97 37c4.78938 19.1575 -1.56921 36.8538 -9 48c-3 5 -10 12 -46 48l-43 43l43 43c36 36 43 43 46 48c36.5621 54.8432 -29.358 121.651 -88 85c-2 -1 -24 -23 -59 -58l-56 -56h-448l43 43c36 36 43 43 46 48
c30.4873 45.731 -9.66476 103.619 -63 96z" />
  </g>

</svg>
