<?xml version="1.0" standalone="no"?>
<!DOCTYPE svg PUBLIC "-//W3C//DTD SVG 1.1//EN" "http://www.w3.org/Graphics/SVG/1.1/DTD/svg11.dtd" >
<svg xmlns="http://www.w3.org/2000/svg" xmlns:xlink="http://www.w3.org/1999/xlink" version="1.1" viewBox="-10 0 1010 1000">
  <g transform="matrix(1 0 0 -1 0 800)">
   <path fill="currentColor"
d="M312 302c-6 -29 -27 -52 -62 -52c-19 0 -24 4 -35 11c-13 10 -23 22 -27 41v111l-1 111l-11 -11c-15 -15 -24 -23 -48 -25c-35 -1 -76 29 -64 76c2 7 5 14 9 20c4 7 137 140 141 142c15 9 29 15 52 9c8 -2 15 -5 21 -10c3 -2 34 -33 71 -70c71 -71 70 -70 75 -81
c3 -8 4 -14 4 -24c0 -53 -57 -79 -98 -51c-2 1 -9 7 -15 13l-11 12l-1 -111v-111zM677 612c17 2 38 -4 48 -12c3 -2 47 -46 102 -101c105 -105 101 -100 106 -112c3 -8 4 -15 4 -25s-1 -16 -4 -24c-5 -12 -1 -7 -108 -114c-73 -73 -100 -99 -103 -101c-40 -28 -97 2 -97 52
c0 10 2 16 5 24c4 11 6 13 44 51c19 20 35 36 35 36s-6 -2 -13 -3c-173 -35 -303 -133 -319 -312c-1 -13 -1 -19 -2 -39c0 -42 -25 -68 -60 -69c-30 -1 -56 18 -63 47c-4 15 -1 68 6 109c6 37 15 71 29 105c68 164 229 266 439 291c3 0 6 1 6 1c1 0 -16 17 -46 47
c-50 51 -51 52 -56 63c-3 8 -5 14 -5 24c0 33 25 57 52 62z" />
  </g>

</svg>
