<?xml version="1.0" standalone="no"?>
<!DOCTYPE svg PUBLIC "-//W3C//DTD SVG 1.1//EN" "http://www.w3.org/Graphics/SVG/1.1/DTD/svg11.dtd" >
<svg xmlns="http://www.w3.org/2000/svg" xmlns:xlink="http://www.w3.org/1999/xlink" version="1.1" viewBox="-10 0 1010 1000">
  <g transform="matrix(1 0 0 -1 0 800)">
   <path fill="currentColor"
d="M64 688c7.62288 31.762 36.0921 57.227 77 47c23 -6 40 -24 45 -47c1 -5 1 -16 1 -388s0 -383 -1 -388c-6 -28 -30 -48 -58 -49c-30 -2 -57 19 -64 49c-1 5 -1 16 -1 388s0 383 1 388zM677 549c-27.554 -4.86248 -52 -27.3678 -52 -61c0 -10 2 -17 5 -25
c4 -11 5 -12 51 -58l43 -43h-146c-128 0 -146 1 -151 0c-29.2486 -4.49979 -60.0465 -35.814 -50 -76c5.86748 -23.4699 25.5328 -44.2358 50 -48c5 -1 23 0 151 0h146l-43 -43c-46 -46 -47 -47 -51 -58c-3 -8 -5 -15 -5 -25c0 -38.6573 32.0376 -63.0987 65 -62
c13 1 25 6 35 13c3 2 47 46 102 101c105 105 101 100 106 112c3 8 4 14 4 24s-1 16 -4 24c-5 12 -1 7 -106 112c-55 55 -99 99 -102 101c-10.7997 8.99979 -28.3288 14.8102 -48 12z" />
  </g>

</svg>
