<?xml version="1.0" standalone="no"?>
<!DOCTYPE svg PUBLIC "-//W3C//DTD SVG 1.1//EN" "http://www.w3.org/Graphics/SVG/1.1/DTD/svg11.dtd" >
<svg xmlns="http://www.w3.org/2000/svg" xmlns:xlink="http://www.w3.org/1999/xlink" version="1.1" viewBox="-10 0 1010 1000">
  <g transform="matrix(1 0 0 -1 0 800)">
   <path fill="currentColor"
d="M277 539c58 36 125 -30 88 -86c-3 -5 -10 -12 -46 -48l-43 -43h448l-43 43c-36 36 -43 43 -46 48c-18 27 -8 62 9 79c22 22 57 24 81 5c3 -2 47 -46 102 -101c105 -105 101 -100 106 -112c3 -8 4 -14 4 -24s-1 -16 -4 -24c-5 -12 -1 -7 -106 -112
c-55 -55 -99 -99 -102 -101c-10 -7 -22 -12 -35 -13c-33 -1 -65 23 -65 62c0 10 2 17 5 25c4 11 5 12 51 58l43 43h-448l43 -43c46 -46 47 -47 51 -58c3 -8 5 -15 5 -25c0 -52 -64 -81 -102 -48l-100 100c-105 105 -101 100 -106 112c-3 8 -4 14 -4 24s1 16 4 24
c5 12 1 7 108 114c63 63 100 100 102 101z" />
  </g>

</svg>
