<?xml version="1.0" standalone="no"?>
<!DOCTYPE svg PUBLIC "-//W3C//DTD SVG 1.1//EN" "http://www.w3.org/Graphics/SVG/1.1/DTD/svg11.dtd" >
<svg xmlns="http://www.w3.org/2000/svg" xmlns:xlink="http://www.w3.org/1999/xlink" version="1.1" viewBox="-10 0 1010 1000">
  <g transform="matrix(1 0 0 -1 0 800)">
   <path fill="currentColor"
d="M697 155c-28.1415 5.62831 -47.8922 28.0654 -51 55v28h-370l43 -43c46 -46 47 -47 51 -58c3 -8 5 -15 5 -25c0 -52.1522 -63.9191 -80.6408 -102 -48l-100 100c-105 105 -101 100 -106 112c-3 8 -4 14 -4 24s1 16 4 24c5 12 1 7 108 114c63 63 100 100 102 101
c38.5456 24.091 85.5799 2.94389 96 -37c4.56953 -18.2781 -0.784753 -38.1771 -8 -49c-3 -5 -10 -12 -46 -48l-43 -43h370v28c3.10841 26.9395 22.8631 49.3726 51 55h188c23.9801 -3.99669 40.2817 -19.7043 48 -39c4 -11 4 -3 4 -106c0 -86 0 -93 -1 -97
c-6.49632 -24.9026 -24.9126 -43.6521 -51 -48h-188zM771 300v-21h41v42h-41v-21z" />
  </g>

</svg>
