<?xml version="1.0" standalone="no"?>
<!DOCTYPE svg PUBLIC "-//W3C//DTD SVG 1.1//EN" "http://www.w3.org/Graphics/SVG/1.1/DTD/svg11.dtd" >
<svg xmlns="http://www.w3.org/2000/svg" xmlns:xlink="http://www.w3.org/1999/xlink" version="1.1" viewBox="-10 0 1010 1000">
  <g transform="matrix(1 0 0 -1 0 800)">
   <path fill="currentColor"
d="M302 737c-9 -2 -17 -6 -25 -11c-3.41212 -2.27474 -200.671 -198.452 -204 -204c-7.54295 -11.3144 -13.8865 -29.454 -9 -49c9.55337 -40.943 61.3986 -63.69 97 -36c2 2 24 22 47 45l42 42v-609l2 -5c8 -30 33 -48 63 -47c28 1 50 19 58 47l2 5v609l43 -43
c26 -26 44 -44 46 -45c22.5452 -15.0302 51.8466 -14.6749 72 1c2 2 24 22 47 45l42 42v-609l2 -5c8 -30 33 -48 63 -47c28 1 50 19 58 47l2 5v609l43 -43c26 -26 44 -44 46 -45c39.0163 -26.0109 86.697 -4.2119 97 37c4.86762 19.4705 -1.59631 36.8945 -9 48
c-6.99014 11.6502 -201.209 203.473 -202 204c-21.3853 14.9697 -49.8969 16.4021 -73 1c-2 -1 -31 -29 -78 -76l-74 -74c-50.5106 49.828 -100.831 99.8313 -151 150c-10.8336 7.22241 -29.9464 13.4362 -47 11z" />
  </g>

</svg>
