<?xml version="1.0" standalone="no"?>
<!DOCTYPE svg PUBLIC "-//W3C//DTD SVG 1.1//EN" "http://www.w3.org/Graphics/SVG/1.1/DTD/svg11.dtd" >
<svg xmlns="http://www.w3.org/2000/svg" xmlns:xlink="http://www.w3.org/1999/xlink" version="1.1" viewBox="-10 0 1010 1000">
  <g transform="matrix(1 0 0 -1 0 800)">
   <path fill="currentColor"
d="M863 507c-25.3267 -4.22112 -42.7731 -22.3376 -49 -46c-1 -5 -1 -7 -1 -50l-1 -45l-7 7c-51 42 -105 67 -157 72c-9 1 -40 1 -49 0c-77 -7 -147 -46 -191 -108c-21.2293 -30.3276 -57.5811 -52.5623 -99 -57c-63.8455 -5.80414 -104.073 17.7638 -132 55
c-10 14 -21 22 -37 26c-7 2 -23 2 -30 0c-26.4768 -6.907 -47 -28.8231 -47 -61c0 -11 1 -17 5 -26c5 -10 17 -25 31 -40c42 -43 97 -70 159 -78c117.711 -11.7711 201.091 38.8957 251 108c22 31 56 50 95 56c45.883 5.09811 66.7662 -5.1775 98 -26c7 -5 17 -13 18 -14
c0 0 -17 -1 -41 -1h-42c-14.4485 -4.81616 -26.2001 -7.97508 -36 -19c-21 -22 -24 -56 -5 -81c8 -11 21 -19 35 -23c4 -1 12 -1 127 -1c119 0 123 0 129 1c25.4288 5.29766 45.3452 23.071 50 51v248c-5.66247 28.3124 -26.3907 53 -60 53c-7 0 -11 0 -14 -1z" />
  </g>

</svg>
