<?xml version="1.0" standalone="no"?>
<!DOCTYPE svg PUBLIC "-//W3C//DTD SVG 1.1//EN" "http://www.w3.org/Graphics/SVG/1.1/DTD/svg11.dtd" >
<svg xmlns="http://www.w3.org/2000/svg" xmlns:xlink="http://www.w3.org/1999/xlink" version="1.1" viewBox="-10 0 1010 1000">
  <g transform="matrix(1 0 0 -1 0 800)">
   <path fill="currentColor"
d="M391 654c22.9907 20.1168 51.767 28.7696 89 22c36 -7 66 -35 77 -70c5 -15 5 -18 5 -72v-46h139c150 0 145 0 159 -4c42 -11 72 -46 77 -90c1 -8 1 -180 0 -188c-6.04664 -51.3964 -45.5159 -87.0645 -93 -93h-144l-138 -1v-46c0 -46 0 -52 -2 -62
c-9.51847 -44.4195 -45.5328 -77.5939 -94 -82c-26 -2 -54 6 -75 24c-3 3 -69 68 -147 146c-155 155 -145 145 -153 161c-6.77261 15.2384 -11 24.9897 -11 47c0 22.1575 4.18317 31.6621 11 47c8 16 -2 6 153 161c78 78 144 143 147 146zM325 412l-112 -112l224 -224l1 54
c0 53 0 55 1 60c5.83397 23.3359 26.5823 43.2434 51 47c5 1 25 1 164 1h158v124h-158c-139 0 -159 0 -164 1c-25 4 -44 22 -51 47c-1 5 -1 7 -1 60l-1 54l-112 -112z" />
  </g>

</svg>
