<?xml version="1.0" standalone="no"?>
<!DOCTYPE svg PUBLIC "-//W3C//DTD SVG 1.1//EN" "http://www.w3.org/Graphics/SVG/1.1/DTD/svg11.dtd" >
<svg xmlns="http://www.w3.org/2000/svg" xmlns:xlink="http://www.w3.org/1999/xlink" version="1.1" viewBox="-10 0 1010 1000">
  <g transform="matrix(1 0 0 -1 0 800)">
   <path fill="currentColor"
d="M64 688c7.62288 31.762 36.0921 57.227 77 47c23 -6 40 -24 45 -47c1 -5 1 -16 1 -388s0 -383 -1 -388c-6 -28 -30 -48 -58 -49c-30 -2 -57 19 -64 49c-1 5 -1 16 -1 388s0 383 1 388zM614 549c-9 -2 -17 -5 -25 -10c-2 -1 -39 -38 -102 -101
c-107 -107 -102 -102 -107 -114c-3 -8 -5 -14 -5 -24s2 -16 5 -24c5 -12 0 -7 105 -112c53 -53 99 -98 101 -100c38.1504 -32.7003 101 -4.92753 101 48c0 10 -1 17 -4 25c-4 11 -6 12 -52 58l-43 42l149 1h148c27.0471 4.50784 44.4776 22.9976 51 48
c10.3258 41.3033 -19.9215 70.8203 -51 76h-148l-149 1l43 42c36 36 43 43 46 48c30.2352 45.3528 -7.07341 103.99 -63 96z" />
  </g>

</svg>
