<?xml version="1.0" standalone="no"?>
<!DOCTYPE svg PUBLIC "-//W3C//DTD SVG 1.1//EN" "http://www.w3.org/Graphics/SVG/1.1/DTD/svg11.dtd" >
<svg xmlns="http://www.w3.org/2000/svg" xmlns:xlink="http://www.w3.org/1999/xlink" version="1.1" viewBox="-10 0 1010 1000">
  <g transform="matrix(1 0 0 -1 0 800)">
   <path fill="currentColor"
d="M489 737c18 3 38 -4 48 -12c0 0 196 -192 203 -204c7 -11 13 -30 8 -48c-10 -41 -57 -63 -96 -37c-2 1 -21 19 -47 45l-43 43v-448l56 -56c48 -48 56 -56 59 -61c7 -11 14 -29 9 -48c-10 -41 -58 -63 -97 -37c-2 1 -20 19 -46 45l-43 43l-42 -43c-23 -23 -45 -43 -47 -45
c-36 -28 -88 -2 -97 37c-5 19 2 37 9 48c3 5 11 13 59 61l56 56v448l-43 -42c-23 -23 -44 -43 -46 -45c-36 -28 -87 -5 -97 36c-5 18 1 38 8 49c4 7 199 201 204 204c8 5 16 9 25 11z" />
  </g>

</svg>
