<?xml version="1.0" standalone="no"?>
<!DOCTYPE svg PUBLIC "-//W3C//DTD SVG 1.1//EN" "http://www.w3.org/Graphics/SVG/1.1/DTD/svg11.dtd" >
<svg xmlns="http://www.w3.org/2000/svg" xmlns:xlink="http://www.w3.org/1999/xlink" version="1.1" viewBox="-10 0 1010 1000">
  <g transform="matrix(1 0 0 -1 0 800)">
   <path fill="currentColor"
d="M814 688c8 32 36 57 77 47c23 -6 40 -24 45 -47c1 -5 1 -16 1 -388s0 -383 -1 -388c-6 -28 -30 -48 -58 -49c-30 -2 -57 19 -64 49c-1 5 -1 16 -1 388s0 383 1 388zM323 453c-40.6246 60.9369 37.9474 125.77 89 84c3 -2 47 -46 102 -101c105 -105 101 -100 106 -112
c3 -8 5 -14 5 -24s-2 -16 -5 -24c-5 -12 -1 -7 -106 -112c-55 -55 -99 -99 -102 -101c-39.4411 -27.6087 -99 -6.93839 -99 49c0 10 1 17 4 25c4 11 6 12 52 58l43 43h-146c-128 0 -146 -1 -151 0c-25 4 -45 24 -51 48c-10 41 21 71 51 76c5 1 23 0 151 0h146l-43 43
c-36 36 -43 43 -46 48z" />
  </g>

</svg>
