<?xml version="1.0" standalone="no"?>
<!DOCTYPE svg PUBLIC "-//W3C//DTD SVG 1.1//EN" "http://www.w3.org/Graphics/SVG/1.1/DTD/svg11.dtd" >
<svg xmlns="http://www.w3.org/2000/svg" xmlns:xlink="http://www.w3.org/1999/xlink" version="1.1" viewBox="-10 0 1010 1000">
  <g transform="matrix(1 0 0 -1 0 800)">
   <path fill="currentColor"
d="M403 737c5 1 25 0 96 0c98 0 98 0 111 -3c42 -11 72 -46 77 -90v-144l1 -138h46c36 0 49 1 54 0c30 -4 56 -21 73 -46c26 -39 23 -89 -7 -125c-3 -3 -68 -69 -146 -147c-155 -155 -145 -145 -161 -153c-15.2384 -6.77261 -24.9897 -11 -47 -11
c-21.496 0 -32.5671 2.98173 -47 11c-16 8 -6 -2 -161 153c-78 78 -143 144 -146 147c-38 45 -31 111 15 149c11 9 28 17 43 20c10 2 16 2 62 2h46v139c0 150 0 145 4 159c11 41 45 71 87 77zM437 451v-161c-6.08606 -30.4303 -25.2118 -43.0706 -52 -52h-55l-54 -1
l224 -224c74.9265 74.7402 149.595 149.738 224 225h-52c-44 0 -52 -1 -57 0c-26.5237 4.24379 -46.3986 23.9928 -52 52v161l-1 161h-124l-1 -161z" />
  </g>

</svg>
