<?xml version="1.0" standalone="no"?>
<!DOCTYPE svg PUBLIC "-//W3C//DTD SVG 1.1//EN" "http://www.w3.org/Graphics/SVG/1.1/DTD/svg11.dtd" >
<svg xmlns="http://www.w3.org/2000/svg" xmlns:xlink="http://www.w3.org/1999/xlink" version="1.1" viewBox="-10 0 1010 1000">
  <g transform="matrix(1 0 0 -1 0 800)">
   <path fill="currentColor"
d="M302 737c52 7 93 -51 63 -96c-3 -5 -10 -12 -46 -48l-43 -43h421c25 -8 44 -21 51 -48l2 -5v-421l43 43c26 26 44 44 46 45c44 28 98 0 98 -52c0 -10 -1 -16 -4 -24c-5 -12 -1 -7 -106 -112c-55 -55 -99 -99 -102 -101c-20 -17 -59 -15 -77 1l-100 100
c-105 105 -101 100 -106 112c-3 8 -4 14 -4 24c0 22 7 34 18 45c22 21 56 24 80 6c2 -2 24 -22 47 -45l42 -42v349h-349l43 -43c46 -46 47 -47 51 -58c3 -8 5 -14 5 -24c0 -50 -63 -82 -102 -49l-100 100c-105 105 -101 100 -106 112c-3 8 -4 15 -4 25s1 16 4 24
c5 12 1 7 108 114c63 63 100 99 102 100c8 5 16 9 25 11z" />
  </g>

</svg>
