<?xml version="1.0" standalone="no"?>
<!DOCTYPE svg PUBLIC "-//W3C//DTD SVG 1.1//EN" "http://www.w3.org/Graphics/SVG/1.1/DTD/svg11.dtd" >
<svg xmlns="http://www.w3.org/2000/svg" xmlns:xlink="http://www.w3.org/1999/xlink" version="1.1" viewBox="-10 0 1010 1000">
  <g transform="matrix(1 0 0 -1 0 800)">
   <path fill="currentColor"
d="M625 488c0 50.9932 61.2657 80.6917 100 49c3 -2 47 -46 102 -101c105 -105 101 -100 106 -112c3 -8 4 -14 4 -24s-1 -16 -4 -24c-5 -12 -1 -7 -106 -112c-55 -55 -99 -99 -102 -101c-10 -7 -22 -12 -35 -13c-33 -1 -65 23 -65 62c0 10 2 17 5 25c4 11 5 12 51 58l43 43
h-448l-54 -55c-30 -30 -57 -56 -60 -58c-37 -26 -88 -7 -98 36c-5 19 2 37 9 48c3 5 10 12 46 48l43 43l-43 43c-36 36 -43 43 -46 48c-38 57 35 126 89 84c3 -2 30 -28 60 -58l54 -55h448l-43 43c-46 46 -47 47 -51 58c-3 8 -5 15 -5 25z" />
  </g>

</svg>
