<?xml version="1.0" standalone="no"?>
<!DOCTYPE svg PUBLIC "-//W3C//DTD SVG 1.1//EN" "http://www.w3.org/Graphics/SVG/1.1/DTD/svg11.dtd" >
<svg xmlns="http://www.w3.org/2000/svg" xmlns:xlink="http://www.w3.org/1999/xlink" version="1.1" viewBox="-10 0 1010 1000">
  <g transform="matrix(1 0 0 -1 0 800)">
   <path fill="currentColor"
d="M812 302c-5.89328 -29.4664 -26.7095 -52 -62 -52c-18.5972 0 -23.9455 4.3673 -35 11c-12.6155 10.0924 -23.1527 21.7633 -27 41v111l-1 111l-11 -11c-14.7805 -14.7805 -24.458 -23.0382 -48 -25c-33.5345 -1.11782 -65 22.2819 -65 62c0 10 1 16 4 24
c5 11 4 10 77 83c42 42 68 68 70 69c14.7495 9.21845 29.2658 14.6836 52 9c8 -2 15 -5 21 -10c3 -2 34 -33 71 -70c71 -71 70 -70 75 -81c3 -8 4 -14 4 -24c0 -52.9614 -56.5999 -78.6001 -98 -51c-2 1 -9 7 -15 13l-11 12l-1 -111v-111zM302 612c-9 -2 -17 -6 -25 -11
c-2 -1 -39 -37 -102 -100c-107 -107 -103 -102 -108 -114c-3 -8 -4 -15 -4 -25s1 -16 4 -24c5 -12 1 -7 106 -112l100 -100c38.6307 -33.1121 102 -1.23243 102 49c0 10 -2 16 -5 24c-4 11 -6 13 -44 51c-19 20 -35 36 -35 36c2 0 28 -7 38 -9
c155.541 -38.3803 266.922 -124.481 291 -285c3 -19 4 -34 5 -60c0 -44.1672 27.0899 -70.2637 65 -69c28 1 51 20 58 47c4 15 1 67 -6 109c-19.4248 117.844 -83.0787 219.309 -168 283c-62 47 -142 81 -232 101c-24.1839 5.75807 -51.6912 13 -74 13
c-0.8 0 92.6365 92.7275 97 100c30.1579 45.2369 -10.9467 103.436 -63 96z" />
  </g>

</svg>
