<?xml version="1.0" standalone="no"?>
<!DOCTYPE svg PUBLIC "-//W3C//DTD SVG 1.1//EN" "http://www.w3.org/Graphics/SVG/1.1/DTD/svg11.dtd" >
<svg xmlns="http://www.w3.org/2000/svg" xmlns:xlink="http://www.w3.org/1999/xlink" version="1.1" viewBox="-10 0 1010 1000">
  <g transform="matrix(1 0 0 -1 0 800)">
   <path fill="currentColor"
d="M814 461c7 28 29 47 63 47s54 -25 60 -53v-248c-5 -28 -25 -46 -50 -51c-6 -1 -10 -1 -129 -1c-115 0 -123 0 -127 1c-14 4 -27 12 -35 23c-19 25 -16 59 5 81c10 11 22 14 36 19h42c24 0 41 1 41 1c-1 1 -11 9 -18 14c-31 21 -52 31 -98 26c-39 -6 -73 -25 -95 -56
c-50 -69 -133 -120 -251 -108c-62 8 -117 35 -159 78c-14 15 -26 30 -31 40c-4 9 -5 15 -5 26c0 32 21 54 47 61c32 9 55 -9 67 -26c28 -37 68 -61 132 -55c41 4 78 27 99 57c44 62 114 101 191 108c9 1 40 1 49 0c52 -5 106 -30 157 -72l7 -7l1 45c0 43 0 45 1 50z" />
  </g>

</svg>
