<?xml version="1.0" standalone="no"?>
<!DOCTYPE svg PUBLIC "-//W3C//DTD SVG 1.1//EN" "http://www.w3.org/Graphics/SVG/1.1/DTD/svg11.dtd" >
<svg xmlns="http://www.w3.org/2000/svg" xmlns:xlink="http://www.w3.org/1999/xlink" version="1.1" viewBox="-10 0 1010 1000">
  <g transform="matrix(1 0 0 -1 0 800)">
   <path fill="currentColor"
d="M114 549c-29.1368 -5.14179 -60.394 -34.4241 -50 -76c7.05112 -28.2045 31.1696 -48 64 -48c75.3859 0 123.469 -16.9704 182 -54c11.2318 -7.48785 88.0204 -64.5102 101 -71c0 0 -1 -1 -3 -2c-14.4596 -8.67577 -82.6247 -58.7498 -98 -69
c-58.5867 -37.065 -106.504 -54 -182 -54c-32.8434 0 -56.9492 -19.7967 -64 -48c-8.49796 -33.9918 11.7565 -61.0031 33 -71c13 -6 23 -7 53 -5c82 4 148 24 218 67c18.4382 11.2678 93.4608 65.6569 116 80c39 25 69 36 106 39c5 0 33 1 71 1h63l-43 -43
c-36 -36 -43 -43 -46 -48c-7.24214 -10.8632 -12.5813 -30.6747 -8 -49c10.3525 -44.368 60.9373 -60.9439 98 -35c3 2 47 46 102 101c105 105 101 100 106 112c3 8 4 14 4 24s-1 16 -4 24c-5 12 -1 7 -106 112c-55 55 -99 99 -102 101
c-43.1164 33.535 -100 -1.20158 -100 -49c0 -10 2 -17 5 -25c4 -11 5 -12 51 -58l43 -43l-63 1h-71c-26 2 -51 9 -76 21c-22 11 -36 20 -81 53c-35 25 -51 36 -71 48c-67 40 -133 60 -212 64c-16 1 -30 1 -36 0z" />
  </g>

</svg>
