<?xml version="1.0" standalone="no"?>
<!DOCTYPE svg PUBLIC "-//W3C//DTD SVG 1.1//EN" "http://www.w3.org/Graphics/SVG/1.1/DTD/svg11.dtd" >
<svg xmlns="http://www.w3.org/2000/svg" xmlns:xlink="http://www.w3.org/1999/xlink" version="1.1" viewBox="-10 0 1010 1000">
  <g transform="matrix(1 0 0 -1 0 800)">
   <path fill="currentColor"
d="M177 674c-25.862 -4.56388 -42.7831 -21.7407 -50 -47c-4.574 -18.296 0.854014 -37.281 8 -48c3 -5 34 -37 296 -299l293 -292h-146c-128 0 -146 0 -151 -1c-29.2486 -4.49979 -60.0465 -35.814 -50 -76c5.86748 -23.4699 25.5328 -44.2358 50 -48c5 -1 32 0 232 0h226
c26.9752 4.49587 45.5523 23.9407 51 49c1 5 1 13 1 232s0 227 -1 232c-6 28 -30 48 -58 49c-31.8922 1.06307 -58.4037 -20.0187 -65 -53v-148l-1 -148l-292 293c-213 213 -294 293 -297 295c-10 7 -22 11 -34 11c-5 0 -9 0 -12 -1z" />
  </g>

</svg>
