<?xml version="1.0" standalone="no"?>
<!DOCTYPE svg PUBLIC "-//W3C//DTD SVG 1.1//EN" "http://www.w3.org/Graphics/SVG/1.1/DTD/svg11.dtd" >
<svg xmlns="http://www.w3.org/2000/svg" xmlns:xlink="http://www.w3.org/1999/xlink" version="1.1" viewBox="-10 0 1010 1000">
  <g transform="matrix(1 0 0 -1 0 800)">
   <path fill="currentColor"
d="M697 155c-28 6 -48 28 -51 55v28h-370l43 -43c46 -46 47 -47 51 -58c3 -8 5 -15 5 -25c0 -52 -64 -81 -102 -48l-100 100c-105 105 -101 100 -106 112c-3 8 -4 14 -4 24s1 16 4 24c5 12 1 7 108 114c63 63 100 100 102 101c39 24 86 3 96 -37c5 -18 -1 -38 -8 -49
c-3 -5 -10 -12 -46 -48l-43 -43h370v28c3 27 23 49 51 55h188c24 -4 40 -20 48 -39c4 -11 4 -3 4 -106c0 -86 0 -93 -1 -97c-6 -25 -25 -44 -51 -48h-188zM771 321v-42h41v42h-41z" />
  </g>

</svg>
