<?xml version="1.0" standalone="no"?>
<!DOCTYPE svg PUBLIC "-//W3C//DTD SVG 1.1//EN" "http://www.w3.org/Graphics/SVG/1.1/DTD/svg11.dtd" >
<svg xmlns="http://www.w3.org/2000/svg" xmlns:xlink="http://www.w3.org/1999/xlink" version="1.1" viewBox="-10 0 1010 1000">
  <g transform="matrix(1 0 0 -1 0 800)">
   <path fill="currentColor"
d="M646 8c0 -78 -62 -145 -146 -145c-77 0 -126 49 -142 113c-4 18 -4 40 -1 59c8 45 39 87 81 105v384l-43 -42c-23 -23 -44 -43 -46 -45c-36 -28 -87 -5 -97 36c-5 18 1 38 8 49c4 7 199 201 204 204c15 9 29 15 52 9c8 -2 15 -5 21 -10c1 -1 196 -192 203 -204
c7 -11 13 -30 8 -48c-10 -41 -57 -63 -96 -37c-2 1 -21 19 -47 45l-43 43v-384c23 -12 45 -28 60 -51c16 -24 24 -52 24 -81zM495 29c-18 -5 -22 -31 -3 -40c16 -6 35 8 27 27c-4 10 -15 16 -24 13z" />
  </g>

</svg>
