<?xml version="1.0" standalone="no"?>
<!DOCTYPE svg PUBLIC "-//W3C//DTD SVG 1.1//EN" "http://www.w3.org/Graphics/SVG/1.1/DTD/svg11.dtd" >
<svg xmlns="http://www.w3.org/2000/svg" xmlns:xlink="http://www.w3.org/1999/xlink" version="1.1" viewBox="-10 0 1010 1000">
  <g transform="matrix(1 0 0 -1 0 800)">
   <path fill="currentColor"
d="M302 737c37 5 64 -19 71 -47l2 -5v-609l43 43c27 27 44 43 46 45c22 15 52 15 72 -1c2 -2 24 -22 47 -45l42 -42v609l2 5c16 64 105 60 121 0l2 -5v-609l43 43c26 26 44 44 46 45c44 28 98 0 98 -52c0 -10 -1 -16 -4 -24c-5 -12 -1 -7 -106 -112
c-55 -55 -99 -99 -102 -101c-21 -15 -50 -16 -73 -1c-2 1 -31 29 -78 76l-74 74c-51 -50 -101 -100 -151 -150c-20 -16 -59 -13 -76 2l-100 100c-85 86 -97 98 -100 103c-7 11 -14 29 -9 48c12 44 61 60 97 36c2 -2 24 -22 47 -45l42 -42v609l2 5c7 25 25 42 50 47z" />
  </g>

</svg>
