<?xml version="1.0" standalone="no"?>
<!DOCTYPE svg PUBLIC "-//W3C//DTD SVG 1.1//EN" "http://www.w3.org/Graphics/SVG/1.1/DTD/svg11.dtd" >
<svg xmlns="http://www.w3.org/2000/svg" xmlns:xlink="http://www.w3.org/1999/xlink" version="1.1" viewBox="-10 0 1010 1000">
  <g transform="matrix(1 0 0 -1 0 800)">
   <path fill="currentColor"
d="M268 675h12c110 0 202 -82 217 -182c3 -16 3 -16 3 -74v-57h224l-43 43c-46 46 -47 47 -51 58c-3 8 -5 15 -5 25c0 49 56 81 100 49c2 -2 49 -47 102 -101c105 -105 101 -100 106 -112c3 -8 4 -14 4 -24s-1 -16 -4 -24c-5 -12 -1 -7 -106 -112c-55 -55 -99 -99 -102 -101
c-37 -26 -88 -9 -98 35c-5 18 1 38 8 49c3 5 10 12 46 48l43 43h-224v-323l-2 -5c-8 -28 -30 -46 -58 -47c-30 -1 -55 17 -63 47l-2 5v322l-56 1c-58 0 -58 0 -74 3c-97 15 -170 92 -181 192c-1 9 -1 37 0 46c12 107 93 187 204 196zM268 549c-59 -9 -102 -76 -70 -136
c13 -25 36 -43 65 -49c6 -1 8 -1 59 -1l53 -1v53c0 51 -1 53 -2 59c-8 38 -37 66 -74 74c-8 2 -23 2 -31 1z" />
  </g>

</svg>
