<?xml version="1.0" standalone="no"?>
<!DOCTYPE svg PUBLIC "-//W3C//DTD SVG 1.1//EN" "http://www.w3.org/Graphics/SVG/1.1/DTD/svg11.dtd" >
<svg xmlns="http://www.w3.org/2000/svg" xmlns:xlink="http://www.w3.org/1999/xlink" version="1.1" viewBox="-10 0 1010 1000">
  <g transform="matrix(1 0 0 -1 0 800)">
   <path fill="currentColor"
d="M438 685c7 34 36 61 78 50c24 -6 41 -24 46 -50v-148l1 -149l42 43c26 26 45 44 47 45c41 26 86 2 96 -37c4 -18 -1 -37 -8 -48c-3 -6 -200 -201 -203 -203c-20 -17 -55 -17 -76 1c-52 52 -195 191 -201 202c-7 11 -13 30 -8 48c3 12 9 22 17 30c22 21 56 25 80 7
c2 -2 23 -22 46 -45l42 -43l1 149v148zM114 -13c4 1 62 0 388 0h383c30 -5 52 -27 52 -62s-22 -57 -52 -62h-383c-339 0 -382 -1 -387 0c-32 5 -61 37 -51 76c7 24 25 44 50 48z" />
  </g>

</svg>
