<?xml version="1.0" standalone="no"?>
<!DOCTYPE svg PUBLIC "-//W3C//DTD SVG 1.1//EN" "http://www.w3.org/Graphics/SVG/1.1/DTD/svg11.dtd" >
<svg xmlns="http://www.w3.org/2000/svg" xmlns:xlink="http://www.w3.org/1999/xlink" version="1.1" viewBox="-10 0 1010 1000">
  <g transform="matrix(1 0 0 -1 0 800)">
   <path fill="currentColor"
d="M312 302c-5.89328 -29.4664 -26.7095 -52 -62 -52c-18.5972 0 -23.9455 4.3673 -35 11c-12.6155 10.0924 -23.1527 21.7633 -27 41v111l-1 111l-11 -11c-14.7805 -14.7805 -24.458 -23.0382 -48 -25c-34.7761 -1.1592 -75.8351 28.6594 -64 76c2 7 5 14 9 20
c4.14095 6.90159 137.494 140.247 141 142c14.7495 9.21845 29.2658 14.6836 52 9c8 -2 15 -5 21 -10c3 -2 34 -33 71 -70c71 -71 70 -70 75 -81c3 -8 4 -14 4 -24c0 -52.9614 -56.5999 -78.6001 -98 -51c-2 1 -9 7 -15 13l-11 12l-1 -111v-111zM677 612
c-27.2973 -4.81717 -52 -28.688 -52 -62c0 -10 2 -16 5 -24c5 -11 6 -12 56 -63c30 -30 47 -47 46 -47c0 0 -3 -1 -6 -1c-210.32 -24.7435 -370.576 -126.782 -439 -291c-14 -34 -23 -68 -29 -105c-7 -41 -10 -94 -6 -109c7 -29 33 -48 63 -47
c35.4149 1.26482 60 27.1443 60 69c1 20 1 26 2 39c16.4464 179.083 145.545 276.87 319 312c7 1 13 3 13 3s-16 -16 -35 -36c-38 -38 -40 -40 -44 -51c-3 -8 -5 -14 -5 -24c0 -49.6846 57.1484 -79.8961 97 -52c3 2 30 28 103 101c107 107 103 102 108 114c3 8 4 14 4 24
s-1 17 -4 25c-5 12 -1 7 -106 112c-55 55 -99 99 -102 101c-9.98275 8.31896 -30.6496 14.4786 -48 12z" />
  </g>

</svg>
