<?xml version="1.0" standalone="no"?>
<!DOCTYPE svg PUBLIC "-//W3C//DTD SVG 1.1//EN" "http://www.w3.org/Graphics/SVG/1.1/DTD/svg11.dtd" >
<svg xmlns="http://www.w3.org/2000/svg" xmlns:xlink="http://www.w3.org/1999/xlink" version="1.1" viewBox="-10 0 1010 1000">
  <g transform="matrix(1 0 0 -1 0 800)">
   <path fill="currentColor"
d="M677 737c-27.2973 -4.81717 -52 -28.688 -52 -62c0 -10 2 -16 5 -24c4 -11 5 -12 51 -58l43 -43h-208c-184 0 -209 0 -214 -1c-25 -4 -43 -22 -50 -47l-2 -5v-421l-42 42c-23 23 -45 43 -47 45c-24 18 -58 15 -80 -6c-11.1916 -11.1916 -18 -23.1448 -18 -45
c0 -10 1 -16 4 -24c5 -12 1 -7 106 -112l100 -100c18.2456 -15.6391 56.7961 -17.8366 77 -1c0.79088 0.527254 195.01 192.35 202 204c36.4783 54.7174 -29.3025 121.686 -88 85c-2 -1 -20 -19 -46 -45l-43 -43v349h349l-43 -43c-46 -46 -47 -47 -51 -58
c-3 -8 -5 -14 -5 -24c0 -53.6384 60.0665 -77.9535 100 -50c3 2 47 46 102 101c105 105 101 100 106 112c3 8 4 15 4 25s-1 16 -4 24c-5 12 -1 7 -106 112c-55 55 -99 99 -102 101c-9.98275 8.31896 -30.6496 14.4786 -48 12z" />
  </g>

</svg>
