<?xml version="1.0" standalone="no"?>
<!DOCTYPE svg PUBLIC "-//W3C//DTD SVG 1.1//EN" "http://www.w3.org/Graphics/SVG/1.1/DTD/svg11.dtd" >
<svg xmlns="http://www.w3.org/2000/svg" xmlns:xlink="http://www.w3.org/1999/xlink" version="1.1" viewBox="-10 0 1010 1000">
  <g transform="matrix(1 0 0 -1 0 800)">
   <path fill="currentColor"
d="M646 8c0 -78.2616 -62.0392 -145 -146 -145c-76.849 0 -126.077 49.3095 -142 113c-4 18 -4 40 -1 59c8.40095 45.1551 38.8788 86.9481 81 105v384l-43 -42c-23 -23 -44 -43 -46 -45c-36.0258 -28.0201 -87.4213 -5.05172 -97 36
c-4.56953 18.2781 0.784753 38.1771 8 49c4.15741 6.92902 198.849 201.425 204 204c14.7495 9.21845 29.2658 14.6836 52 9c8 -2 15 -5 21 -10c0.896569 -0.597713 196.021 -192.369 203 -204c7.17594 -10.7639 12.5875 -29.6501 8 -48
c-10.2727 -41.0906 -57.3531 -62.7646 -96 -37c-2 1 -21 19 -47 45l-43 43v-384c23.0058 -11.5029 45.2596 -28.3225 60 -51c16 -24 24 -52 24 -81zM495 29c-17.5169 -5.00484 -21.8298 -30.5851 -3 -40c15.5489 -6.21956 34.7183 7.70414 27 27c-4 10 -15 16 -24 13z" />
  </g>

</svg>
