<?xml version="1.0" standalone="no"?>
<!DOCTYPE svg PUBLIC "-//W3C//DTD SVG 1.1//EN" "http://www.w3.org/Graphics/SVG/1.1/DTD/svg11.dtd" >
<svg xmlns="http://www.w3.org/2000/svg" xmlns:xlink="http://www.w3.org/1999/xlink" version="1.1" viewBox="-10 0 1010 1000">
  <g transform="matrix(1 0 0 -1 0 800)">
   <path fill="currentColor"
d="M402 664c57.6338 36.0211 124.737 -29.8944 88 -85c-3 -5 -16 -18 -109 -111l-105 -105l304 -1h305c31 -5 61 -35 51 -76c-7 -25 -24 -43 -51 -48h-305l-304 -1l105 -105c93 -93 106 -106 109 -111c4 -6 6 -12 8 -19c15 -60 -57 -100 -100 -63
c-321.447 321.447 -323.535 319.085 -331 337c-3 8 -4 14 -4 24s1 16 4 24c5 12 -5 2 170 177c105 105 163 162 165 163z" />
  </g>

</svg>
