<?xml version="1.0" standalone="no"?>
<!DOCTYPE svg PUBLIC "-//W3C//DTD SVG 1.1//EN" "http://www.w3.org/Graphics/SVG/1.1/DTD/svg11.dtd" >
<svg xmlns="http://www.w3.org/2000/svg" xmlns:xlink="http://www.w3.org/1999/xlink" version="1.1" viewBox="-10 0 1010 1000">
  <g transform="matrix(1 0 0 -1 0 800)">
   <path fill="currentColor"
d="M118 446c-26.8003 -3.15297 -51.8073 -25.2657 -55 -54v-247c4.93065 -29.5839 27.7911 -53 62 -53c32.5527 0 54.2109 21.975 61 48c1 5 1 6 1 49l1 45c45.4817 -37.9014 95.7832 -66.5663 144 -76c16 -3 21 -3 44 -3s32 1 49 4c37 7 74 21 105 43c25 17 44 37 63 63
c22 30 54 49 93 55c10 2 35 2 45 0c27 -4 52 -15 72 -32c7 -6 12 -13 19 -22c12.8983 -17.5885 27.7753 -28 53 -28c53.6619 0 78.8349 60.352 50 100c-39 56 -105 95 -175 105c-65.1733 10.5118 -120.779 -4.85066 -165 -26c-38 -19 -69 -45 -93 -79
c-10 -13 -18 -22 -30 -31c-20 -15 -46 -24 -71 -27c-10 -1 -29 -1 -37 1c-21 5 -44 17 -68 35l-8 5h44c48 0 46 1 56 5c21.1808 8.4723 41.9124 35.613 38 63c-3 30 -26 54 -56 57c-7 1 -235 1 -242 0z" />
  </g>

</svg>
