<?xml version="1.0" standalone="no"?>
<!DOCTYPE svg PUBLIC "-//W3C//DTD SVG 1.1//EN" "http://www.w3.org/Graphics/SVG/1.1/DTD/svg11.dtd" >
<svg xmlns="http://www.w3.org/2000/svg" xmlns:xlink="http://www.w3.org/1999/xlink" version="1.1" viewBox="-10 0 1010 1000">
  <g transform="matrix(1 0 0 -1 0 800)">
   <path fill="currentColor"
d="M625 488c0 39.4063 34.5886 70.8529 78 60c8 -2 16 -6 22 -11c3 -2 47 -46 102 -101c105 -105 101 -100 106 -112c3 -8 4 -14 4 -24s-1 -16 -4 -24c-5 -12 -1 -7 -106 -112c-55 -55 -99 -99 -102 -101c-39.4886 -27.642 -100 -6.1171 -100 49c0 10 2 17 5 25
c4 11 5 12 51 58l43 43h-384c-22.6145 -52.7672 -83.6493 -96.2105 -162 -80c-60.6445 12.1289 -104.33 61.3703 -114 121c-2 10 -2 32 0 42c7.84625 54.9238 45.1266 99.3755 98 117c69.4596 23.4937 149.259 -8.93737 178 -76h384l-43 43c-46 46 -47 47 -51 58
c-3 8 -5 15 -5 25zM202 320c-7.82563 -3.13025 -14 -8.86578 -14 -20c0 -11.4379 7.75075 -20 19 -20c13.5373 0 22 7.05003 22 20c0 12.8632 -10.6866 21 -21 21c-2 0 -5 -1 -6 -1z" />
  </g>

</svg>
