<?xml version="1.0" standalone="no"?>
<!DOCTYPE svg PUBLIC "-//W3C//DTD SVG 1.1//EN" "http://www.w3.org/Graphics/SVG/1.1/DTD/svg11.dtd" >
<svg xmlns="http://www.w3.org/2000/svg" xmlns:xlink="http://www.w3.org/1999/xlink" version="1.1" viewBox="-10 0 1010 1000">
  <g transform="matrix(1 0 0 -1 0 800)">
   <path fill="currentColor"
d="M364 737c-39.8741 -7.03661 -66.4014 -57.8979 -41 -96c3 -5 11 -13 59 -61l56 -56v-448l-43 42c-23 23 -44 43 -46 45c-24 18 -58 15 -80 -6c-16.6016 -16.6016 -26.5822 -51.6267 -9 -78c6.50645 -10.8441 158.285 -160.285 201 -203
c18.2867 -15.6743 55.9481 -17.7099 76 -1c3 2 47 46 102 101c105 105 101 100 106 112c3 8 5 14 5 24c0 51.0855 -54.3983 79.2511 -98 52c-2 -1 -21 -19 -47 -45l-43 -43v448l56 56c60 60 60 60 65 71c3 8 4 14 4 24c0 51.5058 -54.4313 78.2305 -98 51
c-2 -1 -20 -19 -46 -45l-43 -43l-42 43c-23 23 -45 43 -47 45c-10.9356 7.29041 -29.4832 13.5024 -47 11z" />
  </g>

</svg>
