<?xml version="1.0" standalone="no"?>
<!DOCTYPE svg PUBLIC "-//W3C//DTD SVG 1.1//EN" "http://www.w3.org/Graphics/SVG/1.1/DTD/svg11.dtd" >
<svg xmlns="http://www.w3.org/2000/svg" xmlns:xlink="http://www.w3.org/1999/xlink" version="1.1" viewBox="-10 0 1010 1000">
  <g transform="matrix(1 0 0 -1 0 800)">
   <path fill="currentColor"
d="M688 612c0 40.714 33.3723 72.1569 78 61c8 -2 15 -6 21 -11c3 -2 34 -32 71 -69c71 -71 70 -70 75 -81c3 -8 4 -14 4 -24s-1 -17 -4 -25c-5 -11 -4 -9 -77 -82c-49 -49 -68 -68 -71 -70c-8 -5 -16 -9 -24 -10c-3 0 -5 -1 -5 -1s2 -1 5 -1c8 -1 16 -5 24 -10
c3 -2 22 -21 71 -70c73 -73 72 -71 77 -82c3 -8 4 -15 4 -25s-1 -16 -4 -24c-5 -11 -4 -10 -75 -81c-37 -37 -68 -67 -71 -69c-39.8045 -27.8631 -99 -6.38311 -99 50c0 25.6763 7.13604 33.136 25 51l11 11h-59c-63 0 -64 1 -83 4c-36 6 -69 21 -101 45
c-19 15 -34 29 -71 67c-27 29 -42 42 -57 52c-14 9 -29 15 -44 18c-7 1 -8 1 -100 1c-93 0 -94 1 -99 2c-27.703 6.15622 -55.8135 35.7458 -46 75c6 23 23 41 46 47c5 1 6 2 99 2c92 0 93 0 100 1c15 3 30 9 44 18c16 11 29 23 56 51c24 25 44 45 54 54c43 37 84 56 136 62
c4 1 26 1 66 1h59l-11 11c-17.8403 17.8403 -25 25.4136 -25 51zM612 424c-17 -2 -33 -8 -48 -18c-16 -11 -30 -23 -60 -54c-24.9224 -26.1092 -34.2875 -34.2875 -52 -52c14.4831 -14.4831 27.7757 -26.6145 51 -51l31 -31c29 -28 51 -39 79 -42c4 0 25 -1 58 -1h53l-11 11
c-18.1635 18.1635 -25 25.5299 -25 52c0 32.9872 22.4759 57.4345 51 61c3 0 5 1 5 1s-2 1 -5 1c-28.4778 5.33959 -60.4304 34.2783 -50 76c4 14 9 22 24 37l11 11h-54c-30 0 -55 -1 -58 -1z" />
  </g>

</svg>
