<?xml version="1.0" standalone="no"?>
<!DOCTYPE svg PUBLIC "-//W3C//DTD SVG 1.1//EN" "http://www.w3.org/Graphics/SVG/1.1/DTD/svg11.dtd" >
<svg xmlns="http://www.w3.org/2000/svg" xmlns:xlink="http://www.w3.org/1999/xlink" version="1.1" viewBox="-10 0 1010 1000">
  <g transform="matrix(1 0 0 -1 0 800)">
   <path fill="currentColor"
d="M302 737c4 1 25 0 137 0h133c27 -4 47 -24 52 -49c1 -5 1 -10 1 -138s0 -133 -1 -138c-6 -28 -31 -48 -59 -49c-30 -1 -55 17 -63 47c-1 5 -2 6 -2 59v54l-168 -168c-180 -180 -171 -172 -182 -177c-34 -15 -72 3 -84 38c-5 14 -4 30 2 44c5 12 -5 2 176 184l168 168
l-55 1c-53 0 -54 0 -59 1c-28 6 -56 35 -46 75c7 25 24 43 50 48zM864 424c57 8 91 -52 63 -95c-3 -5 -22 -24 -171 -174l-168 -167l55 -1h54c31 -5 61 -35 51 -76c-7 -25 -24 -43 -51 -48h-132c-116 0 -133 -1 -138 0c-25 4 -45 25 -51 49c-1 5 -1 10 -1 138s0 133 1 138
c8 35 43 56 77 47c22 -6 39 -22 45 -45c1 -5 2 -7 2 -60v-54l168 168c109 109 169 169 171 170c8 5 16 8 25 10z" />
  </g>

</svg>
