<?xml version="1.0" standalone="no"?>
<!DOCTYPE svg PUBLIC "-//W3C//DTD SVG 1.1//EN" "http://www.w3.org/Graphics/SVG/1.1/DTD/svg11.dtd" >
<svg xmlns="http://www.w3.org/2000/svg" xmlns:xlink="http://www.w3.org/1999/xlink" version="1.1" viewBox="-10 0 1010 1000">
  <g transform="matrix(1 0 0 -1 0 800)">
   <path fill="currentColor"
d="M114 737c4 1 26 0 138 0h133c31 -5 61 -35 51 -76c-7 -25 -24 -43 -51 -48h-55l-54 -1l536 -536l1 54c0 53 0 55 1 60c17 62 108 61 122 -2c1 -5 1 -10 1 -138s0 -133 -1 -138c-5 -25 -24 -45 -51 -49h-132c-116 0 -133 -1 -138 0c-25 4 -45 24 -51 48
c-10 41 21 71 51 76c5 1 13 1 57 1h52l-536 536l-1 -54c0 -53 0 -55 -1 -60c-7 -28 -30 -46 -58 -47c-30 -2 -57 19 -64 49c-1 5 -1 10 -1 138s0 133 1 138c6 25 25 44 50 49z" />
  </g>

</svg>
