<?xml version="1.0" standalone="no"?>
<!DOCTYPE svg PUBLIC "-//W3C//DTD SVG 1.1//EN" "http://www.w3.org/Graphics/SVG/1.1/DTD/svg11.dtd" >
<svg xmlns="http://www.w3.org/2000/svg" xmlns:xlink="http://www.w3.org/1999/xlink" version="1.1" viewBox="-10 0 1010 1000">
  <g transform="matrix(1 0 0 -1 0 800)">
   <path fill="currentColor"
d="M464 726c14.7495 9.21845 29.2658 14.6836 52 9c8 -2 15 -5 21 -10c0.896569 -0.597713 196.021 -192.369 203 -204c7.17594 -10.7639 12.5875 -29.6501 8 -48c-10.2727 -41.0906 -57.3531 -62.7646 -96 -37c-2 1 -21 19 -47 45l-42 43l-1 -148v-148
c-6.18489 -30.9244 -29.5986 -51.95 -59 -53c-31.8922 -1.06307 -58.4037 20.0187 -65 53v148l-1 148l-42 -42c-23 -23 -44 -43 -46 -45c-36.0258 -28.0201 -87.4213 -5.05172 -97 36c-4.56953 18.2781 0.784753 38.1771 8 49c4.15741 6.92902 198.849 201.425 204 204z
M114 -13c-24.6628 -4.35226 -43.1443 -24.0051 -50 -48c-9.85757 -39.4303 19.4245 -71.1422 51 -76c5 -1 48 0 387 0h383c29.812 4.96866 52 27.3286 52 62c0 34.7769 -22.1989 57.0332 -52 62h-383c-326 0 -384 1 -388 0z" />
  </g>

</svg>
