<?xml version="1.0" standalone="no"?>
<!DOCTYPE svg PUBLIC "-//W3C//DTD SVG 1.1//EN" "http://www.w3.org/Graphics/SVG/1.1/DTD/svg11.dtd" >
<svg xmlns="http://www.w3.org/2000/svg" xmlns:xlink="http://www.w3.org/1999/xlink" version="1.1" viewBox="-10 0 1010 1000">
  <g transform="matrix(1 0 0 -1 0 800)">
   <path fill="currentColor"
d="M625 675c0 41.1245 35.3162 70.671 78 60c8 -2 16 -5 22 -10c3 -2 47 -46 102 -101c105 -105 101 -100 106 -112c3 -8 4 -14 4 -24s-1 -17 -4 -25c-5 -12 -1 -7 -106 -112c-55 -55 -99 -99 -102 -101c-39.8067 -27.8647 -100 -3.57531 -100 50c0 10 2 16 5 24
c4 11 5 12 51 58l43 43h-302c-268 0 -302 0 -307 1c-30.5151 4.69463 -61.468 34.1279 -51 76c6.0896 24.3584 25.4417 43.068 51 47c5 1 39 1 307 1h302l-43 43c-46 46 -47 47 -51 58c-3 8 -5 14 -5 24zM302 362c-9 -2 -17 -6 -25 -11c-2 -1 -39 -37 -102 -100
c-107 -107 -103 -102 -108 -114c-3 -8 -4 -15 -4 -25s1 -16 4 -24c5 -12 1 -7 106 -112l100 -100c38.6307 -33.1121 102 -1.23243 102 49c0 10 -2 16 -5 24c-4 11 -5 12 -51 58l-43 43h609c25.9421 8.64736 43.8666 20.6553 51 48c9.97194 39.8877 -17.7005 67.8784 -45 75
l-6 2h-609l43 43c36 36 43 43 46 48c30.1579 45.2369 -10.9467 103.436 -63 96z" />
  </g>

</svg>
