<?xml version="1.0" standalone="no"?>
<!DOCTYPE svg PUBLIC "-//W3C//DTD SVG 1.1//EN" "http://www.w3.org/Graphics/SVG/1.1/DTD/svg11.dtd" >
<svg xmlns="http://www.w3.org/2000/svg" xmlns:xlink="http://www.w3.org/1999/xlink" version="1.1" viewBox="-10 0 1010 1000">
  <g transform="matrix(1 0 0 -1 0 800)">
   <path fill="currentColor"
d="M302 737c17 2 36 -4 47 -11c50 -50 100 -100 151 -150l74 74c47 47 76 75 78 76c23 15 52 14 73 -1c1 -1 195 -192 202 -204c7 -11 14 -29 9 -48c-10 -41 -58 -63 -97 -37c-2 1 -20 19 -46 45l-43 43v-609l-2 -5c-8 -28 -30 -46 -58 -47c-30 -1 -55 17 -63 47l-2 5v609
l-42 -42c-23 -23 -45 -43 -47 -45c-20 -16 -49 -16 -72 -1c-2 1 -20 19 -46 45l-43 43v-609l-2 -5c-8 -28 -30 -46 -58 -47c-30 -1 -55 17 -63 47l-2 5v609l-42 -42c-23 -23 -45 -43 -47 -45c-36 -28 -87 -5 -97 36c-5 20 1 38 9 49c3 6 201 202 204 204c8 5 16 9 25 11z
" />
  </g>

</svg>
