<?xml version="1.0" standalone="no"?>
<!DOCTYPE svg PUBLIC "-//W3C//DTD SVG 1.1//EN" "http://www.w3.org/Graphics/SVG/1.1/DTD/svg11.dtd" >
<svg xmlns="http://www.w3.org/2000/svg" xmlns:xlink="http://www.w3.org/1999/xlink" version="1.1" viewBox="-10 0 1010 1000">
  <g transform="matrix(1 0 0 -1 0 800)">
   <path fill="currentColor"
d="M118 446c7 1 235 1 242 0c30 -3 53 -27 56 -57c4 -27 -17 -55 -38 -63c-10 -4 -8 -5 -56 -5h-44l8 -5c24 -18 47 -30 68 -35c8 -2 27 -2 37 -1c25 3 51 12 71 27c12 9 20 18 30 31c24 34 55 60 93 79c44 21 100 37 165 26c70 -10 136 -49 175 -105
c29 -40 4 -100 -50 -100c-25 0 -40 10 -53 28c-7 9 -12 16 -19 22c-20 17 -45 28 -72 32c-10 2 -35 2 -45 0c-39 -6 -71 -25 -93 -55c-39 -53 -95 -92 -168 -106c-17 -3 -26 -4 -49 -4s-28 0 -44 3c-48 9 -99 38 -144 76l-1 -45c0 -43 0 -44 -1 -49c-7 -26 -28 -48 -61 -48
c-34 0 -57 23 -62 53v247c3 29 28 51 55 54z" />
  </g>

</svg>
