<?xml version="1.0" standalone="no"?>
<!DOCTYPE svg PUBLIC "-//W3C//DTD SVG 1.1//EN" "http://www.w3.org/Graphics/SVG/1.1/DTD/svg11.dtd" >
<svg xmlns="http://www.w3.org/2000/svg" xmlns:xlink="http://www.w3.org/1999/xlink" version="1.1" viewBox="-10 0 1010 1000">
  <g transform="matrix(1 0 0 -1 0 800)">
   <path fill="currentColor"
d="M677 737c17 2 38 -4 48 -12c3 -2 47 -46 102 -101c105 -105 101 -100 106 -112c3 -8 4 -14 4 -24s-1 -17 -4 -25c-5 -11 -3 -9 -83 -89l-74 -74l74 -74c80 -80 78 -78 83 -89c3 -8 4 -15 4 -25s-1 -16 -4 -24c-5 -12 -1 -7 -106 -112c-55 -55 -99 -99 -102 -101
c-37 -26 -88 -7 -98 36c-5 18 1 37 8 48c3 5 10 12 46 48l43 43h-302c-268 0 -302 0 -307 1c-29 4 -52 27 -52 61c0 35 23 57 52 62c5 1 39 1 307 1h302l-43 43c-46 46 -47 47 -51 58c-3 8 -5 14 -5 24s2 16 5 24c4 11 5 12 51 58l43 43h-302c-268 0 -302 0 -307 1
c-26 4 -45 23 -51 47c-10 42 20 71 51 76c5 1 39 1 307 1h302l-43 43c-46 46 -47 47 -51 58c-3 8 -5 14 -5 24c0 33 25 57 52 62z" />
  </g>

</svg>
