<?xml version="1.0" standalone="no"?>
<!DOCTYPE svg PUBLIC "-//W3C//DTD SVG 1.1//EN" "http://www.w3.org/Graphics/SVG/1.1/DTD/svg11.dtd" >
<svg xmlns="http://www.w3.org/2000/svg" xmlns:xlink="http://www.w3.org/1999/xlink" version="1.1" viewBox="-10 0 1010 1000">
  <g transform="matrix(1 0 0 -1 0 800)">
   <path fill="currentColor"
d="M532 678c27 3 56 -6 77 -24c3 -2 68 -68 146 -146c155 -155 146 -145 154 -161c7 -15 11 -25 11 -47s-4 -32 -11 -47c-8 -16 2 -6 -156 -164s-148 -148 -164 -156c-45 -22 -98 -8 -125 23c-14 16 -23 36 -26 58v98l-138 1h-144c-49 5 -87 43 -93 91c-1 11 -1 181 0 192
c6 46 42 85 91 91c6 1 26 1 145 1h139v98c6 50 45 87 94 92zM562 470c0 -53 0 -55 -1 -60c-7 -25 -26 -43 -51 -47c-5 -1 -25 -1 -164 -1h-158v-124h158c139 0 159 0 164 -1c25 -4 44 -22 51 -47c1 -5 1 -7 1 -60l1 -54l224 224l-224 224z" />
  </g>

</svg>
