<?xml version="1.0" standalone="no"?>
<!DOCTYPE svg PUBLIC "-//W3C//DTD SVG 1.1//EN" "http://www.w3.org/Graphics/SVG/1.1/DTD/svg11.dtd" >
<svg xmlns="http://www.w3.org/2000/svg" xmlns:xlink="http://www.w3.org/1999/xlink" version="1.1" viewBox="-10 0 1010 1000">
  <g transform="matrix(1 0 0 -1 0 800)">
   <path fill="currentColor"
d="M489 737c40 6 67 -21 73 -52v-305l1 -304l105 105c68 67 107 107 109 108c43 27 98 -1 98 -51c0 -10 -2 -17 -5 -25c-5 -12 5 -1 -168 -174c-93 -93 -162 -162 -165 -164c-20 -17 -58 -15 -76 1l-163 163c-142 142 -160 160 -163 165c-18 26 -8 61 9 78c22 21 56 24 80 6
c2 -2 51 -49 109 -107l104 -105l1 304v305c6 28 25 47 51 52z" />
  </g>

</svg>
