<?xml version="1.0" standalone="no"?>
<!DOCTYPE svg PUBLIC "-//W3C//DTD SVG 1.1//EN" "http://www.w3.org/Graphics/SVG/1.1/DTD/svg11.dtd" >
<svg xmlns="http://www.w3.org/2000/svg" xmlns:xlink="http://www.w3.org/1999/xlink" version="1.1" viewBox="-10 0 1010 1000">
  <g transform="matrix(1 0 0 -1 0 800)">
   <path fill="currentColor"
d="M489 737c-9 -2 -17 -6 -25 -11c-5.15096 -2.57548 -199.843 -197.071 -204 -204c-7.24214 -10.8632 -12.5813 -30.6747 -8 -49c9.57799 -41.0485 60.9294 -64.0549 97 -36c2 2 23 22 46 45l43 42v-448l-56 -56c-48 -48 -56 -56 -59 -61
c-7.4516 -11.1774 -13.8021 -28.7915 -9 -48c9.19412 -39.4034 61.1773 -64.8621 97 -37c2 2 24 22 47 45l42 43l43 -43c26 -26 44 -44 46 -45c39.0163 -26.0109 86.697 -4.2119 97 37c4.78938 19.1575 -1.56921 36.8538 -9 48c-3 5 -11 13 -59 61l-56 56v448l43 -43
c26 -26 45 -44 47 -45c38.6332 -25.7554 85.7266 -4.09359 96 37c4.574 18.296 -0.854014 37.281 -8 48c-6.97887 11.6314 -202.552 203.701 -203 204c-10.1158 8.42987 -30.1729 14.5467 -48 12z" />
  </g>

</svg>
