<?xml version="1.0" standalone="no"?>
<!DOCTYPE svg PUBLIC "-//W3C//DTD SVG 1.1//EN" "http://www.w3.org/Graphics/SVG/1.1/DTD/svg11.dtd" >
<svg xmlns="http://www.w3.org/2000/svg" xmlns:xlink="http://www.w3.org/1999/xlink" version="1.1" viewBox="-10 0 1010 1000">
  <g transform="matrix(1 0 0 -1 0 800)">
   <path fill="currentColor"
d="M302 737c-25 -5 -43 -22 -50 -47l-2 -5v-609l-42 42c-23 23 -45 43 -47 45c-36.3816 24.2544 -85.3389 8.05302 -97 -36c-4.86762 -19.4705 1.59631 -36.8945 9 -48c3 -5 15 -17 100 -103l100 -100c17.4753 -14.9788 55.7776 -18.1779 76 -2
c50.0788 50.2545 100.387 100.28 151 150l74 -74c47 -47 76 -75 78 -76c23.1074 -15.405 51.606 -13.9758 73 1c3 2 47 46 102 101c105 105 101 100 106 112c3 8 4 14 4 24c0 52.0946 -53.7777 79.639 -98 52c-2 -1 -20 -19 -46 -45l-43 -43v609l-2 5
c-15.5449 59.5886 -104.597 63.7906 -121 0l-2 -5v-609l-42 42c-23 23 -45 43 -47 45c-20.2581 15.7563 -49.8724 15.7518 -72 1c-2 -2 -19 -18 -46 -45l-43 -43v609l-2 5c-7.29119 27.9496 -34.0803 52.2742 -71 47z" />
  </g>

</svg>
