<?xml version="1.0" standalone="no"?>
<!DOCTYPE svg PUBLIC "-//W3C//DTD SVG 1.1//EN" "http://www.w3.org/Graphics/SVG/1.1/DTD/svg11.dtd" >
<svg xmlns="http://www.w3.org/2000/svg" xmlns:xlink="http://www.w3.org/1999/xlink" version="1.1" viewBox="-10 0 1010 1000">
  <g transform="matrix(1 0 0 -1 0 800)">
   <path fill="currentColor"
d="M750 675c0 -34 -24 -57 -53 -62h-54l-55 -1l168 -167c182 -182 172 -171 177 -183c3 -8 4 -14 4 -24c0 -54 -56 -80 -98 -52c-2 1 -62 61 -171 170l-168 168v-54c0 -53 -1 -55 -2 -60c-7 -28 -30 -46 -58 -47c-30 -2 -57 19 -64 49c-1 5 -1 10 -1 138s0 133 1 138
c6 25 26 44 51 49c4 1 25 0 137 0h133c29 -5 53 -29 53 -62zM64 348c-14 61 52 95 97 65c2 -2 80 -78 172 -170l167 -167v54c0 53 1 55 2 60c8 30 33 48 63 47c28 -1 53 -21 59 -49c1 -5 1 -10 1 -138s0 -133 -1 -138c-5 -25 -25 -45 -52 -49h-132c-116 0 -133 -1 -138 0
c-24 4 -44 25 -50 48c-10 40 21 72 50 76c5 1 14 1 58 1h52l-168 167c-150 150 -168 169 -171 174c-4 6 -7 12 -9 19z" />
  </g>

</svg>
