<?xml version="1.0" standalone="no"?>
<!DOCTYPE svg PUBLIC "-//W3C//DTD SVG 1.1//EN" "http://www.w3.org/Graphics/SVG/1.1/DTD/svg11.dtd" >
<svg xmlns="http://www.w3.org/2000/svg" xmlns:xlink="http://www.w3.org/1999/xlink" version="1.1" viewBox="-10 0 1010 1000">
  <g transform="matrix(1 0 0 -1 0 800)">
   <path fill="currentColor"
d="M489 737c-9 -2 -17 -6 -25 -11c-5.15096 -2.57548 -199.843 -197.071 -204 -204c-7.24214 -10.8632 -12.5813 -30.6747 -8 -49c9.57799 -41.0485 60.9294 -64.0549 97 -36c2 2 23 22 46 45l43 42v-536h-34c-27 0 -35 0 -39 -1
c-29.7595 -4.57838 -61.211 -35.1559 -51 -76c5.9845 -23.938 25.9528 -44.1466 51 -48c5 -1 22 0 138 0h132c27.0471 4.50784 44.4776 22.9976 51 48c9.82512 39.3005 -18.0495 66.9694 -45 74l-6 2h-36l-37 1v536l43 -43c26 -26 45 -44 47 -45
c38.6332 -25.7554 85.7266 -4.09359 96 37c4.574 18.296 -0.854014 37.281 -8 48c-6.97887 11.6314 -202.552 203.701 -203 204c-10.1158 8.42987 -30.1729 14.5467 -48 12z" />
  </g>

</svg>
