<?xml version="1.0" standalone="no"?>
<!DOCTYPE svg PUBLIC "-//W3C//DTD SVG 1.1//EN" "http://www.w3.org/Graphics/SVG/1.1/DTD/svg11.dtd" >
<svg xmlns="http://www.w3.org/2000/svg" xmlns:xlink="http://www.w3.org/1999/xlink" version="1.1" viewBox="-10 0 1010 1000">
  <g transform="matrix(1 0 0 -1 0 800)">
   <path fill="currentColor"
d="M677 737c-9 -2 -17 -6 -25 -11c-5.15096 -2.57548 -199.843 -197.071 -204 -204c-7.54295 -11.3144 -13.8865 -29.454 -9 -49c9.55337 -40.943 61.3986 -63.69 97 -36c2 2 24 22 47 45l42 42v-349h-349l43 43c36 36 43 43 46 48c7.19965 10.7995 12.5076 29.9698 8 48
c-6 23 -23 40 -45 46c-21.7956 5.4489 -42.3682 -0.172768 -55 -11l-100 -100c-105 -105 -101 -100 -106 -112c-3 -8 -4 -15 -4 -25s1 -16 4 -24c5 -12 1 -7 106 -112l100 -100c43.2012 -37.0296 114.428 5.28872 100 63c-2 7 -4 14 -8 20c-3 5 -10 12 -46 48l-43 43h421
c25.0298 8.34327 43.9165 20.8467 51 48l2 5v421l43 -43c26 -26 44 -44 46 -45c39.0163 -26.0109 86.697 -4.2119 97 37c4.86762 19.4705 -1.59631 36.8945 -9 48c-6.99014 11.6502 -201.209 203.473 -202 204c-9.98275 8.31896 -30.6496 14.4786 -48 12z" />
  </g>

</svg>
