<?xml version="1.0" standalone="no"?>
<!DOCTYPE svg PUBLIC "-//W3C//DTD SVG 1.1//EN" "http://www.w3.org/Graphics/SVG/1.1/DTD/svg11.dtd" >
<svg xmlns="http://www.w3.org/2000/svg" xmlns:xlink="http://www.w3.org/1999/xlink" version="1.1" viewBox="-10 0 1010 1000">
  <g transform="matrix(1 0 0 -1 0 800)">
   <path fill="currentColor"
d="M438 685c6.88798 34.4399 35.692 60.577 78 50c23.8344 -6.50028 40.7796 -23.8981 46 -50v-148l1 -149l42 43c26 26 45 44 47 45c40.8953 25.5596 85.7898 2.13901 96 -37c4.49667 -17.9867 -0.82221 -37.2333 -8 -48c-3.31254 -5.52091 -199.605 -200.736 -203 -203
c-19.9347 -16.6122 -54.9098 -17.0773 -76 1c-52.4383 52.4383 -194.527 191.212 -201 202c-7.19965 10.7995 -12.5076 29.9698 -8 48c3 12 9 22 17 30c22 21 56 25 80 7c2 -2 23 -22 46 -45l42 -43l1 149v148zM114 -13c-24.6628 -4.35226 -43.1443 -24.0051 -50 -48
c-9.85757 -39.4303 19.4245 -71.1422 51 -76c5 -1 48 0 387 0h383c29.812 4.96866 52 27.3286 52 62c0 34.7769 -22.1989 57.0332 -52 62h-383c-326 0 -384 1 -388 0z" />
  </g>

</svg>
