<?xml version="1.0" standalone="no"?>
<!DOCTYPE svg PUBLIC "-//W3C//DTD SVG 1.1//EN" "http://www.w3.org/Graphics/SVG/1.1/DTD/svg11.dtd" >
<svg xmlns="http://www.w3.org/2000/svg" xmlns:xlink="http://www.w3.org/1999/xlink" version="1.1" viewBox="-10 0 1010 1000">
  <g transform="matrix(1 0 0 -1 0 800)">
   <path fill="currentColor"
d="M64 688c8 32 36 57 77 47c23 -6 40 -24 45 -47c1 -5 1 -16 1 -388s0 -383 -1 -388c-6 -28 -30 -48 -58 -49c-30 -2 -57 19 -64 49c-1 5 -1 16 -1 388s0 383 1 388zM589 539c60 37 125 -31 88 -86c-3 -5 -10 -12 -46 -48l-43 -42l149 -1h148c31 -5 61 -35 51 -76
c-7 -25 -24 -43 -51 -48h-148l-149 -1l43 -42c46 -46 48 -47 52 -58c3 -8 4 -15 4 -25c0 -53 -63 -81 -101 -48c-2 2 -48 47 -101 100c-105 105 -100 100 -105 112c-3 8 -5 14 -5 24s2 16 5 24c5 12 0 7 107 114c63 63 100 100 102 101z" />
  </g>

</svg>
