<?xml version="1.0" standalone="no"?>
<!DOCTYPE svg PUBLIC "-//W3C//DTD SVG 1.1//EN" "http://www.w3.org/Graphics/SVG/1.1/DTD/svg11.dtd" >
<svg xmlns="http://www.w3.org/2000/svg" xmlns:xlink="http://www.w3.org/1999/xlink" version="1.1" viewBox="-10 0 1010 1000">
  <g transform="matrix(1 0 0 -1 0 800)">
   <path fill="currentColor"
d="M420 713c26 17 59 30 101 23c59 -10 109 -54 121 -114c15 -73 -26 -139 -80 -162v-384l43 43c26 26 45 44 47 45c56 36 124 -28 88 -85c-7 -12 -203 -204 -203 -204c-19 -16 -56 -16 -76 1c-43 43 -194 192 -201 203s-13 30 -8 48c3 12 9 22 17 30c22 21 56 24 80 6
c2 -2 23 -22 46 -45l43 -42v384c-38 16 -67 53 -78 92c-17 62 7 126 60 161zM508 611c-15 8 -28 -6 -28 -18c0 -14 7 -22 20 -22c22 0 28 30 8 40z" />
  </g>

</svg>
