<?xml version="1.0" standalone="no"?>
<!DOCTYPE svg PUBLIC "-//W3C//DTD SVG 1.1//EN" "http://www.w3.org/Graphics/SVG/1.1/DTD/svg11.dtd" >
<svg xmlns="http://www.w3.org/2000/svg" xmlns:xlink="http://www.w3.org/1999/xlink" version="1.1" viewBox="-10 0 1010 1000">
  <g transform="matrix(1 0 0 -1 0 800)">
   <path fill="currentColor"
d="M63 455c5.77029 30.0055 27.2529 53 64 53c31 0 52 -22 59 -47c1 -5 1 -7 1 -50l1 -45c7 6 14 11 22 18c45 34 88 53 134 60c15 2 49 2 66 0c78 -9 141 -53 181 -106c21 -29 54 -50 92 -57c65 -8 114 15 140 54c12 17 35 35 67 26c26 -7 47 -29 47 -61
c0 -25 -5 -30 -21 -50c-39 -50 -106 -85 -175 -94c-13 -2 -52 -2 -65 0c-83 10 -144 52 -185 108c-28 36 -71 65 -133 56c-25 -4 -52 -22 -79 -40l42 -1h42c14 -5 26 -8 36 -19c18 -19 23 -47 11 -71c-9 -18 -25 -29 -45 -34h-123c-119 0 -123 0 -129 1c-25 5 -45 23 -50 51
v248z" />
  </g>

</svg>
