<?xml version="1.0" standalone="no"?>
<!DOCTYPE svg PUBLIC "-//W3C//DTD SVG 1.1//EN" "http://www.w3.org/Graphics/SVG/1.1/DTD/svg11.dtd" >
<svg xmlns="http://www.w3.org/2000/svg" xmlns:xlink="http://www.w3.org/1999/xlink" version="1.1" viewBox="-10 0 1010 1000">
  <g transform="matrix(1 0 0 -1 0 800)">
   <path fill="currentColor"
d="M355 675c0 51 56 81 98 51c3 -2 67 -66 182 -181l177 -177l1 44c0 43 0 44 1 49c7 26 29 47 61 47c34 0 54 -21 61 -48c1 -4 1 -13 1 -129s0 -124 -1 -128c-6 -25 -25 -44 -51 -48h-250c-40 7 -66 54 -43 94c7 12 20 21 33 27c10 3 10 3 56 3h43l-178 179
c-124 124 -179 179 -181 182c-8 10 -10 18 -10 35zM113 445c3 1 28 0 128 0h124c30 -5 48 -29 51 -56c4 -33 -24 -64 -55 -68h-85l178 -179c124 -124 179 -179 181 -182c8 -10 10 -18 10 -35c0 -50 -56 -81 -98 -51c-3 2 -67 66 -182 181l-177 177l-1 -44
c0 -43 0 -44 -1 -49c-7 -26 -28 -47 -61 -47s-54 21 -61 48c-1 4 -1 13 -1 129s0 124 1 128c6 25 25 43 49 48z" />
  </g>

</svg>
