<?xml version="1.0" standalone="no"?>
<!DOCTYPE svg PUBLIC "-//W3C//DTD SVG 1.1//EN" "http://www.w3.org/Graphics/SVG/1.1/DTD/svg11.dtd" >
<svg xmlns="http://www.w3.org/2000/svg" xmlns:xlink="http://www.w3.org/1999/xlink" version="1.1" viewBox="-10 0 1010 1000">
  <g transform="matrix(1 0 0 -1 0 800)">
   <path fill="currentColor"
d="M302 737c4 1 25 0 137 0h133c26.912 -4.48533 46.5624 -23.9869 52 -49c1 -5 1 -10 1 -138s0 -133 -1 -138c-6 -28 -31 -48 -59 -49c-30 -1 -55 17 -63 47c-1 5 -2 6 -2 59v54l-168 -168c-180 -180 -171 -172 -182 -177c-34 -15 -72 3 -84 38c-5 14 -4 30 2 44
c5 12 -5 2 176 184l168 168l-55 1c-53 0 -54 0 -59 1c-28.1845 6.26323 -55.971 35.1158 -46 75c7.14999 25.025 24.3783 43.4785 50 48zM864 424c-9 -2 -17 -5 -25 -10c-2 -1 -62 -61 -171 -170l-168 -168v54c0 53 -1 55 -2 60c-6 23 -23 39 -45 45c-34 9 -69 -12 -77 -47
c-1 -5 -1 -10 -1 -138s0 -133 1 -138c5.89395 -23.5758 26.3683 -45.2105 51 -49c5 -1 22 0 138 0h132c27.0471 4.50784 44.4776 22.9976 51 48c10.3258 41.3033 -19.9215 70.8203 -51 76h-54l-55 1l168 167c149 150 168 169 171 174
c28.3624 42.5436 -5.58539 103.202 -63 95z" />
  </g>

</svg>
