<?xml version="1.0" standalone="no"?>
<!DOCTYPE svg PUBLIC "-//W3C//DTD SVG 1.1//EN" "http://www.w3.org/Graphics/SVG/1.1/DTD/svg11.dtd" >
<svg xmlns="http://www.w3.org/2000/svg" xmlns:xlink="http://www.w3.org/1999/xlink" version="1.1" viewBox="-10 0 1010 1000">
  <g transform="matrix(1 0 0 -1 0 800)">
   <path fill="currentColor"
d="M427 674c-9 -2 -17 -5 -25 -10c-2 -1 -60 -58 -165 -163c-175 -175 -165 -165 -170 -177c-3 -8 -4 -14 -4 -24s1 -16 4 -24c5 -12 -5 -2 168 -175c88 -88 161 -160 163 -162c42.9822 -36.8419 115.017 2.93227 100 63c-2 7 -4 13 -8 19c-3 5 -16 18 -109 111l-105 105
l304 1h305c27.0471 4.50784 44.4776 22.9976 51 48c10.3258 41.3033 -19.9215 70.8203 -51 76h-305l-304 1l105 105c93 93 106 106 109 111c30.1884 45.2825 -9.88781 102.587 -63 95z" />
  </g>

</svg>
