<?xml version="1.0" standalone="no"?>
<!DOCTYPE svg PUBLIC "-//W3C//DTD SVG 1.1//EN" "http://www.w3.org/Graphics/SVG/1.1/DTD/svg11.dtd" >
<svg xmlns="http://www.w3.org/2000/svg" xmlns:xlink="http://www.w3.org/1999/xlink" version="1.1" viewBox="-10 0 1010 1000">
  <g transform="matrix(1 0 0 -1 0 800)">
   <path fill="currentColor"
d="M814 688c7.62288 31.762 36.0921 57.227 77 47c23 -6 40 -24 45 -47c1 -5 1 -16 1 -388s0 -383 -1 -388c-6 -28 -30 -48 -58 -49c-30 -2 -57 19 -64 49c-1 5 -1 16 -1 388s0 383 1 388zM364 549c-29.1368 -5.14179 -60.394 -34.4241 -50 -76c2 -7 5 -14 9 -20
c3 -5 10 -12 46 -48l43 -43h-146c-128 0 -146 1 -151 0c-29.7595 -4.57838 -61.211 -35.1559 -51 -76c5.9845 -23.938 25.9528 -44.1466 51 -48c5 -1 23 0 151 0h146l-43 -43c-46 -46 -48 -47 -52 -58c-3 -8 -4 -15 -4 -25c0 -39.8361 31.4713 -63.1176 65 -62
c13 1 24 6 34 13c3 2 47 46 102 101c105 105 101 100 106 112c3 8 5 14 5 24s-2 16 -5 24c-5 12 -1 7 -106 112c-55 55 -99 99 -102 101c-10.8843 9.07023 -27.9304 14.8671 -48 12z" />
  </g>

</svg>
