<?xml version="1.0" standalone="no"?>
<!DOCTYPE svg PUBLIC "-//W3C//DTD SVG 1.1//EN" "http://www.w3.org/Graphics/SVG/1.1/DTD/svg11.dtd" >
<svg xmlns="http://www.w3.org/2000/svg" xmlns:xlink="http://www.w3.org/1999/xlink" version="1.1" viewBox="-10 0 1010 1000">
  <g transform="matrix(1 0 0 -1 0 800)">
   <path fill="currentColor"
d="M687 -44c-6 -51 -46 -87 -93 -93h-188c-49 5 -87 43 -93 91c-1 6 -1 26 -1 145v139h-98c-76 8 -124 104 -68 171l146 146c101 101 141 141 145 144c14 10 30 17 47 20c25 3 46 -3 63 -10c16 -8 6 2 161 -153c78 -78 143 -144 146 -147c30 -36 33 -86 7 -126
c-13 -20 -37 -36 -62 -42c-11 -3 -16 -3 -65 -3h-46l-1 -138v-144zM500 586c-74 -75 -149 -149 -224 -223l54 -1h55c28 -5 46 -24 52 -52v-161l1 -161h124l1 161v161c5 26 25 48 52 52c5 1 13 0 57 0h52z" />
  </g>

</svg>
