<?xml version="1.0" standalone="no"?>
<!DOCTYPE svg PUBLIC "-//W3C//DTD SVG 1.1//EN" "http://www.w3.org/Graphics/SVG/1.1/DTD/svg11.dtd" >
<svg xmlns="http://www.w3.org/2000/svg" xmlns:xlink="http://www.w3.org/1999/xlink" version="1.1" viewBox="-10 0 1010 1000">
  <g transform="matrix(1 0 0 -1 0 800)">
   <path fill="currentColor"
d="M427 737c4 1 39 0 231 0h227c27 -4 46 -24 51 -49c1 -5 1 -13 1 -232s0 -227 -1 -232c-6 -28 -30 -48 -58 -49c-32 -1 -58 20 -65 53v148l-1 148l-292 -293c-213 -213 -294 -293 -297 -295c-54 -37 -126 29 -88 85c3 5 34 37 296 299l293 292h-146c-157 0 -150 1 -160 4
c-23 9 -43 28 -43 59c0 33 25 57 52 62z" />
  </g>

</svg>
