<?xml version="1.0" standalone="no"?>
<!DOCTYPE svg PUBLIC "-//W3C//DTD SVG 1.1//EN" "http://www.w3.org/Graphics/SVG/1.1/DTD/svg11.dtd" >
<svg xmlns="http://www.w3.org/2000/svg" xmlns:xlink="http://www.w3.org/1999/xlink" version="1.1" viewBox="-10 0 1010 1000">
  <g transform="matrix(1 0 0 -1 0 800)">
   <path fill="currentColor"
d="M777 664c58 36 125 -30 88 -85c-3 -5 -34 -37 -296 -299l-293 -292l148 -1h148c31 -5 61 -35 51 -76c-7 -25 -24 -43 -51 -48h-226c-200 0 -226 -1 -231 0c-26 4 -45 24 -51 49c-1 5 -1 13 -1 232s0 227 1 232c8 35 43 56 77 47c24 -6 41 -25 46 -51v-148l1 -148l292 293
c192 192 295 294 297 295z" />
  </g>

</svg>
