<?xml version="1.0" standalone="no"?>
<!DOCTYPE svg PUBLIC "-//W3C//DTD SVG 1.1//EN" "http://www.w3.org/Graphics/SVG/1.1/DTD/svg11.dtd" >
<svg xmlns="http://www.w3.org/2000/svg" xmlns:xlink="http://www.w3.org/1999/xlink" version="1.1" viewBox="-10 0 1010 1000">
  <g transform="matrix(1 0 0 -1 0 800)">
   <path fill="currentColor"
d="M355 103c6.42988 32.1494 30.2842 51 68 51l15 1v369l-43 -42c-23 -23 -44 -43 -46 -45c-36.0258 -28.0201 -87.4213 -5.05172 -97 36c-4.56953 18.2781 0.784753 38.1771 8 49c4.15741 6.92902 198.849 201.425 204 204c14.7495 9.21845 29.2658 14.6836 52 9
c8 -2 15 -5 21 -10c0.896569 -0.597713 196.021 -192.369 203 -204c7.17594 -10.7639 12.5875 -29.6501 8 -48c-10.2727 -41.0906 -57.3531 -62.7646 -96 -37c-2 1 -21 19 -47 45l-43 43v-369l15 -1c37.7903 0 61.5685 -18.8427 68 -51v-188
c-4.56647 -27.3988 -24.5283 -48.0755 -52 -52c-6 -1 -15 0 -96 0h-90c-27.9374 4.94401 -47.0394 24.0828 -52 52v188zM479 8v-20h42v41h-42v-21z" />
  </g>

</svg>
