<?xml version="1.0" standalone="no"?>
<!DOCTYPE svg PUBLIC "-//W3C//DTD SVG 1.1//EN" "http://www.w3.org/Graphics/SVG/1.1/DTD/svg11.dtd" >
<svg xmlns="http://www.w3.org/2000/svg" xmlns:xlink="http://www.w3.org/1999/xlink" version="1.1" viewBox="-10 0 1010 1000">
  <g transform="matrix(1 0 0 -1 0 800)">
   <path fill="currentColor"
d="M489 737c-9 -2 -17 -6 -25 -11c-5.15096 -2.57548 -199.843 -197.071 -204 -204c-7.24214 -10.8632 -12.5813 -30.6747 -8 -49c9.57799 -41.0485 60.9294 -64.0549 97 -36c2 2 23 22 46 45l43 42v-448l-43 42c-23 23 -44 43 -46 45c-24 18 -58 15 -80 -6
c-16.6016 -16.6016 -26.5822 -51.6267 -9 -78c6.50645 -10.8441 158.285 -160.285 201 -203c18.2867 -15.6743 55.9481 -17.7099 76 -1c0.896569 0.597713 196.021 192.369 203 204c7.17594 10.7639 12.5875 29.6501 8 48c-10.2089 39.134 -55.0761 62.5775 -96 37
c-2 -1 -21 -19 -47 -45l-43 -43v448l43 -43c26 -26 45 -44 47 -45c38.6332 -25.7554 85.7266 -4.09359 96 37c4.574 18.296 -0.854014 37.281 -8 48c-6.97887 11.6314 -202.552 203.701 -203 204c-10.1158 8.42987 -30.1729 14.5467 -48 12z" />
  </g>

</svg>
