<?xml version="1.0" standalone="no"?>
<!DOCTYPE svg PUBLIC "-//W3C//DTD SVG 1.1//EN" "http://www.w3.org/Graphics/SVG/1.1/DTD/svg11.dtd" >
<svg xmlns="http://www.w3.org/2000/svg" xmlns:xlink="http://www.w3.org/1999/xlink" version="1.1" viewBox="-10 0 1010 1000">
  <g transform="matrix(1 0 0 -1 0 800)">
   <path fill="currentColor"
d="M277 539c38.5456 24.091 85.5799 2.94389 96 -37c4.56953 -18.2781 -0.784753 -38.1771 -8 -49c-3 -5 -10 -12 -46 -48l-43 -43h384c34.988 81.6386 156.659 115.269 232 44c24 -23 39 -52 44 -85c2 -10 2 -32 0 -42c-8.32765 -58.2936 -53.0021 -110.563 -114 -122
c-72.5881 -14.8899 -138.791 26.846 -162 81h-384l43 -43c46 -46 47 -47 51 -58c3 -8 5 -15 5 -25c0 -52.1522 -63.9191 -80.6408 -102 -48l-100 100c-105 105 -101 100 -106 112c-3 8 -4 14 -4 24s1 16 4 24c5 12 1 7 108 114c63 63 100 100 102 101zM784 319
c-7.39652 -2.95861 -13 -9.20992 -13 -19c0 -20.3262 28.7832 -29.4337 39 -9c6.53016 16.3254 -5.16745 36.333 -26 28z" />
  </g>

</svg>
