<?xml version="1.0" standalone="no"?>
<!DOCTYPE svg PUBLIC "-//W3C//DTD SVG 1.1//EN" "http://www.w3.org/Graphics/SVG/1.1/DTD/svg11.dtd" >
<svg xmlns="http://www.w3.org/2000/svg" xmlns:xlink="http://www.w3.org/1999/xlink" version="1.1" viewBox="-10 0 1010 1000">
  <g transform="matrix(1 0 0 -1 0 800)">
   <path fill="currentColor"
d="M277 539c39 24 86 3 96 -37c5 -18 -1 -38 -8 -49c-3 -5 -10 -12 -46 -48l-43 -43h384c35 82 157 115 232 44c24 -23 39 -52 44 -85c2 -10 2 -32 0 -42c-8 -58 -53 -111 -114 -122c-73 -15 -139 27 -162 81h-384l43 -43c46 -46 47 -47 51 -58c3 -8 5 -15 5 -25
c0 -52 -64 -81 -102 -48l-100 100c-105 105 -101 100 -106 112c-3 8 -4 14 -4 24s1 16 4 24c5 12 1 7 108 114c63 63 100 100 102 101zM784 319c-7 -3 -13 -9 -13 -19c0 -20 29 -29 39 -9c7 16 -5 36 -26 28z" />
  </g>

</svg>
