<?xml version="1.0" standalone="no"?>
<!DOCTYPE svg PUBLIC "-//W3C//DTD SVG 1.1//EN" "http://www.w3.org/Graphics/SVG/1.1/DTD/svg11.dtd" >
<svg xmlns="http://www.w3.org/2000/svg" xmlns:xlink="http://www.w3.org/1999/xlink" version="1.1" viewBox="-10 0 1010 1000">
  <g transform="matrix(1 0 0 -1 0 800)">
   <path fill="currentColor"
d="M625 488c0 39 35 71 78 60c8 -2 16 -6 22 -11c3 -2 47 -46 102 -101c105 -105 101 -100 106 -112c3 -8 4 -14 4 -24s-1 -16 -4 -24c-5 -12 -1 -7 -106 -112c-55 -55 -99 -99 -102 -101c-39 -28 -100 -6 -100 49c0 10 2 17 5 25c4 11 5 12 51 58l43 43h-384
c-23 -53 -84 -96 -162 -80c-61 12 -104 61 -114 121c-2 10 -2 32 0 42c8 55 45 99 98 117c69 23 149 -9 178 -76h384l-43 43c-46 46 -47 47 -51 58c-3 8 -5 15 -5 25zM202 320c-8 -3 -14 -9 -14 -20s8 -20 19 -20c14 0 22 7 22 20s-11 21 -21 21c-2 0 -5 -1 -6 -1z" />
  </g>

</svg>
