<?xml version="1.0" standalone="no"?>
<!DOCTYPE svg PUBLIC "-//W3C//DTD SVG 1.1//EN" "http://www.w3.org/Graphics/SVG/1.1/DTD/svg11.dtd" >
<svg xmlns="http://www.w3.org/2000/svg" xmlns:xlink="http://www.w3.org/1999/xlink" version="1.1" viewBox="-10 0 1010 1000">
  <g transform="matrix(1 0 0 -1 0 800)">
   <path fill="currentColor"
d="M937 675c0 -34.6641 -22.2278 -57.038 -52 -62h-383c-339 0 -382 -1 -387 0c-37.9737 5.84211 -70.2495 53.6258 -42 96c9 14 24 25 41 28c4 1 62 0 388 0h383c29.7764 -4.96273 52 -27.3788 52 -62zM489 424c-9 -2 -17 -5 -25 -10
c-1.95794 -0.978968 -199.795 -197.991 -204 -205c-7.19965 -10.7995 -12.5076 -29.9698 -8 -48c7 -30 33 -49 63 -48c12 1 25 4 34 11c2 2 23 22 46 45l42 43l1 -149v-148c6.60482 -33.0241 33.062 -53.0646 65 -52c29.4451 1.05161 52.8062 21.031 59 52v148l1 149l42 -43
c26 -26 45 -44 47 -45c38.6332 -25.7554 85.7266 -4.09359 96 37c4.49667 17.9867 -0.82221 37.2333 -8 48c-3.31254 5.52091 -199.605 200.736 -203 203c-10.8843 9.07023 -27.9304 14.8671 -48 12z" />
  </g>

</svg>
