<?xml version="1.0" standalone="no"?>
<!DOCTYPE svg PUBLIC "-//W3C//DTD SVG 1.1//EN" "http://www.w3.org/Graphics/SVG/1.1/DTD/svg11.dtd" >
<svg xmlns="http://www.w3.org/2000/svg" xmlns:xlink="http://www.w3.org/1999/xlink" version="1.1" viewBox="-10 0 1010 1000">
  <g transform="matrix(1 0 0 -1 0 800)">
   <path fill="currentColor"
d="M277 726c14.6183 9.13642 28.6756 14.5811 51 9c8 -2 16 -5 22 -10c0.79088 -0.527254 195.01 -192.35 202 -204c7.43159 -11.1474 13.8824 -28.4703 9 -48c-10.3021 -41.2083 -57.9618 -63.0255 -97 -37c-2 1 -20 19 -46 45l-43 43v-609l-2 -5c-8 -28 -30 -46 -58 -47
c-30 -1 -55 17 -63 47l-2 5v609l-42 -42c-23 -23 -45 -43 -47 -45c-35.5672 -27.6634 -87.4461 -4.94519 -97 36c-4.87142 19.4857 1.48046 37.7207 9 49c4.15741 6.92902 198.849 201.425 204 204zM677 737c-25 -5 -43 -22 -50 -47l-2 -5v-609l-42 42c-23 23 -45 43 -47 45
c-54.2595 40.6947 -125.805 -27.2927 -88 -84c3 -5 15 -17 100 -103l100 -100c18.2456 -15.6391 56.7961 -17.8366 77 -1c0.79088 0.527254 195.01 192.35 202 204c36.4783 54.7174 -29.3025 121.686 -88 85c-2 -1 -20 -19 -46 -45l-43 -43v609l-2 5
c-7.29119 27.9496 -34.0803 52.2742 -71 47z" />
  </g>

</svg>
