<?xml version="1.0" standalone="no"?>
<!DOCTYPE svg PUBLIC "-//W3C//DTD SVG 1.1//EN" "http://www.w3.org/Graphics/SVG/1.1/DTD/svg11.dtd" >
<svg xmlns="http://www.w3.org/2000/svg" xmlns:xlink="http://www.w3.org/1999/xlink" version="1.1" viewBox="-10 0 1010 1000">
  <g transform="matrix(1 0 0 -1 0 800)">
   <path fill="currentColor"
d="M403 737c5 1 25 0 96 0c98 0 98 0 111 -3c42 -11 72 -46 77 -90v-144l1 -138h46c36 0 49 1 54 0c30 -4 56 -21 73 -46c26 -39 23 -89 -7 -125c-3 -3 -68 -69 -146 -147c-155 -155 -145 -145 -161 -153c-15 -7 -25 -11 -47 -11c-21 0 -33 3 -47 11c-16 8 -6 -2 -161 153
c-78 78 -143 144 -146 147c-38 45 -31 111 15 149c11 9 28 17 43 20c10 2 16 2 62 2h46v139c0 150 0 145 4 159c11 41 45 71 87 77zM437 451v-161c-6 -30 -25 -43 -52 -52h-55l-54 -1l224 -224c75 75 150 150 224 225h-52c-44 0 -52 -1 -57 0c-27 4 -46 24 -52 52v161
l-1 161h-124z" />
  </g>

</svg>
