<?xml version="1.0" standalone="no"?>
<!DOCTYPE svg PUBLIC "-//W3C//DTD SVG 1.1//EN" "http://www.w3.org/Graphics/SVG/1.1/DTD/svg11.dtd" >
<svg xmlns="http://www.w3.org/2000/svg" xmlns:xlink="http://www.w3.org/1999/xlink" version="1.1" viewBox="-10 0 1010 1000">
  <g transform="matrix(1 0 0 -1 0 800)">
   <path fill="currentColor"
d="M420 713c26.194 17.0261 59.1783 29.9703 101 23c58.9772 -9.82953 108.93 -53.6491 121 -114c15.0308 -73.2752 -25.5137 -138.649 -80 -162v-384l43 43c26 26 45 44 47 45c40.8953 25.5596 85.7898 2.13901 96 -37c4.574 -18.296 -0.854014 -37.281 -8 -48
c-6.97887 -11.6314 -202.552 -203.701 -203 -204c-18.9354 -15.7795 -56.272 -15.9097 -76 1c-42.7155 42.7155 -194.494 192.156 -201 203c-7.17594 10.7639 -12.5875 29.6501 -8 48c3 12 9 22 17 30c22 21 56 24 80 6c2 -2 23 -22 46 -45l43 -42v384
c-38.0287 16.298 -67.4361 52.9136 -78 92c-17 62 7 126 60 161zM494 612c-7.65219 -1.91305 -14 -10.1816 -14 -19c0 -13.5373 7.05003 -22 20 -22c21.9512 0 27.9606 30.0197 8 40c-4 2 -11 2 -14 1z" />
  </g>

</svg>
