<?xml version="1.0" standalone="no"?>
<!DOCTYPE svg PUBLIC "-//W3C//DTD SVG 1.1//EN" "http://www.w3.org/Graphics/SVG/1.1/DTD/svg11.dtd" >
<svg xmlns="http://www.w3.org/2000/svg" xmlns:xlink="http://www.w3.org/1999/xlink" version="1.1" viewBox="-10 0 1010 1000">
  <g transform="matrix(1 0 0 -1 0 800)">
   <path fill="currentColor"
d="M677 737c17 2 38 -4 48 -12c3 -2 47 -46 102 -101c105 -105 101 -100 106 -112c3 -8 4 -14 4 -24s-1 -17 -4 -25c-5 -12 -1 -7 -106 -112c-55 -55 -99 -99 -102 -101c-40 -28 -100 -4 -100 50c0 10 2 16 5 24c4 11 5 12 51 58l43 43h-349v-349l43 43c26 26 44 44 46 45
c59 37 124 -30 88 -85c-7 -12 -201 -203 -202 -204c-20 -17 -59 -15 -77 1l-100 100c-105 105 -101 100 -106 112c-3 8 -4 14 -4 24c0 22 7 34 18 45c22 21 56 24 80 6c2 -2 24 -22 47 -45l42 -42v421l2 5c7 25 25 43 50 47c5 1 30 1 214 1h208l-43 43c-46 46 -47 47 -51 58
c-3 8 -5 14 -5 24c0 33 25 57 52 62z" />
  </g>

</svg>
