<?xml version="1.0" standalone="no"?>
<!DOCTYPE svg PUBLIC "-//W3C//DTD SVG 1.1//EN" "http://www.w3.org/Graphics/SVG/1.1/DTD/svg11.dtd" >
<svg xmlns="http://www.w3.org/2000/svg" xmlns:xlink="http://www.w3.org/1999/xlink" version="1.1" viewBox="-10 0 1010 1000">
  <g transform="matrix(1 0 0 -1 0 800)">
   <path fill="currentColor"
d="M283 688c8 32 36 57 77 47c23 -6 40 -24 45 -47c1 -5 1 -8 1 -44s0 -40 -1 -45c-6 -28 -30 -48 -58 -49c-30 -2 -57 19 -64 49c-1 5 -1 9 -1 45s0 39 1 44zM595 688c8 32 36 57 77 47c23 -6 40 -24 45 -47c1 -5 1 -8 1 -44s0 -40 -1 -45c-6 -28 -30 -48 -58 -49
c-30 -2 -57 19 -64 49c-1 5 -1 9 -1 45s0 39 1 44zM114 518c4 1 12 1 44 1l39 -1c27 -4 44 -22 51 -47c10 -40 -18 -68 -45 -75l-6 -2h-38c-33 0 -39 0 -44 1c-31 5 -61 34 -51 76c7 23 26 43 50 47zM333 518c4 1 30 1 169 1l164 -1c27 -4 46 -23 51 -48c1 -5 1 -12 1 -170
s0 -165 -1 -170c-5 -25 -24 -44 -51 -48l-163 -1c-144 0 -164 0 -169 1c-26 4 -45 23 -51 48c-1 5 -1 12 -1 170s0 165 1 170c6 25 25 43 50 48zM750 456c0 34 24 57 52 62c4 1 12 1 44 1l39 -1c27 -4 44 -22 51 -47c10 -40 -18 -68 -45 -75l-6 -2h-39c-33 0 -39 0 -44 1
c-28 4 -52 29 -52 61zM406 394v-188h188v188h-188zM114 205c4 1 12 1 44 1h39c26 -9 44 -21 51 -48c10 -42 -19 -71 -51 -76l-38 -1c-33 0 -39 0 -44 1c-31 5 -61 34 -51 76c7 24 25 43 50 47zM750 144c0 34 24 56 52 61c4 1 12 1 44 1h39c26 -9 44 -21 51 -48
c10 -42 -19 -71 -51 -76l-39 -1c-33 0 -39 0 -44 1c-28 4 -52 29 -52 62zM283 1c7 30 36 57 77 47c23 -6 40 -24 45 -47c1 -5 1 -9 1 -45s0 -39 -1 -44c-6 -28 -30 -48 -58 -49c-30 -2 -57 19 -64 49c-1 5 -1 8 -1 44s0 40 1 45zM645 49c40 6 66 -19 72 -48c1 -5 1 -9 1 -45
s0 -39 -1 -44c-6 -28 -30 -48 -58 -49c-30 -2 -57 19 -64 49c-1 5 -1 8 -1 44s0 40 1 45c6 25 25 43 50 48z" />
  </g>

</svg>
