<?xml version="1.0" standalone="no"?>
<!DOCTYPE svg PUBLIC "-//W3C//DTD SVG 1.1//EN" "http://www.w3.org/Graphics/SVG/1.1/DTD/svg11.dtd" >
<svg xmlns="http://www.w3.org/2000/svg" xmlns:xlink="http://www.w3.org/1999/xlink" version="1.1" viewBox="-10 0 1010 1000">
  <g transform="matrix(1 0 0 -1 0 800)">
   <path fill="currentColor"
d="M283 688c7.62288 31.762 36.0921 57.227 77 47c23 -6 40 -24 45 -47c1 -5 1 -8 1 -44s0 -40 -1 -45c-6 -28 -30 -48 -58 -49c-30 -2 -57 19 -64 49c-1 5 -1 9 -1 45s0 39 1 44zM595 688c7.62288 31.762 36.0921 57.227 77 47c23 -6 40 -24 45 -47c1 -5 1 -8 1 -44
s0 -40 -1 -45c-6 -28 -30 -48 -58 -49c-30 -2 -57 19 -64 49c-1 5 -1 9 -1 45s0 39 1 44zM114 518c4 1 12 1 44 1l39 -1c26.957 -4.49284 44.4988 -22.0788 51 -47c9.97194 -39.8877 -17.7005 -67.8784 -45 -75l-6 -2h-38c-33 0 -39 0 -44 1
c-30.5151 4.69463 -61.468 34.1279 -51 76c6.65111 23.2789 26.0684 42.7768 50 47zM333 518c4 1 30 1 169 1l164 -1c26.8887 -4.48144 45.5696 -23.0203 51 -48c1 -5 1 -12 1 -170s0 -165 -1 -170c-5.42924 -24.9745 -24.1224 -43.5204 -51 -48l-163 -1
c-144 0 -164 0 -169 1c-26.177 4.02724 -44.7633 23.0534 -51 48c-1 5 -1 12 -1 170s0 165 1 170c6 25 25 43 50 48zM750 456c0 33.8125 24.4008 57.1296 52 62c4 1 12 1 44 1l39 -1c26.957 -4.49284 44.4988 -22.0788 51 -47c9.97194 -39.8877 -17.7005 -67.8784 -45 -75
l-6 -2h-39c-33 0 -39 0 -44 1c-27.7612 4.27095 -52 28.6273 -52 61zM406 394v-188h188v188h-188zM114 205c4 1 12 1 44 1h39c25.9421 -8.64736 43.8666 -20.6553 51 -48c10.4998 -41.9994 -19.4834 -70.7472 -51 -76l-38 -1c-33 0 -39 0 -44 1
c-30.5151 4.69463 -61.468 34.1279 -51 76c6.92495 24.2373 25.0625 42.5993 50 47zM750 144c0 33.9289 24.169 56.0886 52 61c4 1 12 1 44 1h39c25.9421 -8.64736 43.8666 -20.6553 51 -48c10.4998 -41.9994 -19.4834 -70.7472 -51 -76l-39 -1c-33 0 -39 0 -44 1
c-28.3145 4.35607 -52 28.897 -52 62zM283 1c7.18713 29.9464 35.9287 57.2678 77 47c23 -6 40 -24 45 -47c1 -5 1 -9 1 -45s0 -39 -1 -44c-6 -28 -30 -48 -58 -49c-30 -2 -57 19 -64 49c-1 5 -1 8 -1 44s0 40 1 45zM645 49c-25 -5 -44 -23 -50 -48c-1 -5 -1 -9 -1 -45
s0 -39 1 -44c7 -30 34 -51 64 -49c28 1 52 21 58 49c1 5 1 8 1 44s0 40 -1 45c-6.35702 29.2423 -32.2598 53.6772 -72 48z" />
  </g>

</svg>
