<?xml version="1.0" standalone="no"?>
<!DOCTYPE svg PUBLIC "-//W3C//DTD SVG 1.1//EN" "http://www.w3.org/Graphics/SVG/1.1/DTD/svg11.dtd" >
<svg xmlns="http://www.w3.org/2000/svg" xmlns:xlink="http://www.w3.org/1999/xlink" version="1.1" viewBox="-10 0 1010 1000">
  <g transform="matrix(1 0 0 -1 0 800)">
   <path fill="currentColor"
d="M114 674c4 1 62 1 388 1h383c26 -9 45 -22 51 -49c1 -5 1 -15 1 -326s0 -321 -1 -326c-6 -27 -25 -40 -51 -49h-383c-339 0 -382 0 -387 1c-26 4 -45 23 -51 48c-1 5 -1 15 -1 326s0 321 1 326c6 25 25 43 50 48zM188 550v-500h624v500h-624zM270 518c4 1 19 1 78 1
c49 0 74 -1 77 -1c17 -2 33 -13 43 -27c23 -35 7 -81 -33 -94c-9 -3 -12 -3 -53 -3h-38v-36c0 -34 -1 -36 -2 -41c-7 -28 -30 -47 -58 -48c-30 -2 -57 19 -64 49c-1 5 -1 9 -1 76s0 71 1 76c6 25 25 44 50 48zM708 330c40 6 66 -19 72 -48c1 -5 1 -9 1 -76s0 -71 -1 -76
c-5 -25 -24 -44 -52 -48l-69 -1c-60 0 -70 0 -75 1c-30 5 -52 27 -52 62c0 25 12 40 26 51c22 13 16 11 65 11h33v36c0 34 1 36 2 41c7 25 25 42 50 47z" />
  </g>

</svg>
