<?xml version="1.0" standalone="no"?>
<!DOCTYPE svg PUBLIC "-//W3C//DTD SVG 1.1//EN" "http://www.w3.org/Graphics/SVG/1.1/DTD/svg11.dtd" >
<svg xmlns="http://www.w3.org/2000/svg" xmlns:xlink="http://www.w3.org/1999/xlink" version="1.1" viewBox="-10 0 1010 1000">
  <g transform="matrix(1 0 0 -1 0 800)">
   <path fill="currentColor"
d="M114 674c4 1 62 1 388 1h383c25.8068 -8.60225 45.0365 -21.5678 51 -49c1 -5 1 -15 1 -326s0 -321 -1 -326c-5.95755 -27.4047 -25.1979 -40.3993 -51 -49h-383c-339 0 -382 0 -387 1c-26.177 4.02724 -44.7633 23.0534 -51 48c-1 5 -1 15 -1 326s0 321 1 326
c6 25 25 43 50 48zM188 550v-500h624v500h-624zM270 518c4 1 19 1 78 1c49 0 74 -1 77 -1c17 -2 33 -13 43 -27c23 -35 7 -81 -33 -94c-9 -3 -12 -3 -53 -3h-38v-36c0 -34 -1 -36 -2 -41c-7 -28 -30 -47 -58 -48c-30 -2 -57 19 -64 49c-1 5 -1 9 -1 76s0 71 1 76
c6 25 25 44 50 48zM708 330c-25 -5 -43 -22 -50 -47c-1 -5 -2 -7 -2 -41v-36h-33c-48.9493 0 -43.349 1.99062 -65 -11c-14.4747 -10.856 -26 -26.1102 -26 -51c0 -35.103 22.4259 -57.4501 52 -62c5 -1 15 -1 75 -1l69 1c27.6659 3.95228 46.5268 22.8233 52 48
c1 5 1 9 1 76s0 71 -1 76c-6.35702 29.2423 -32.2598 53.6772 -72 48z" />
  </g>

</svg>
