<?xml version="1.0" standalone="no"?>
<!DOCTYPE svg PUBLIC "-//W3C//DTD SVG 1.1//EN" "http://www.w3.org/Graphics/SVG/1.1/DTD/svg11.dtd" >
<svg xmlns="http://www.w3.org/2000/svg" xmlns:xlink="http://www.w3.org/1999/xlink" version="1.1" viewBox="-10 0 1010 1000">
  <g transform="matrix(1 0 0 -1 0 800)">
   <path fill="currentColor"
d="M489 737c-26.4791 -5.29581 -45.3878 -23.9388 -51 -52v-137l-1 -137l-110 66c-60 36 -112 67 -114 68c-6 3 -15 5 -23 5c-33.3667 1.51667 -65 -24.008 -65 -62c0 -22.5244 10.5928 -39.0742 23 -49c3.64522 -3.64522 2.41709 -2.04745 230 -139
c-185.166 -112.552 -226.355 -135.355 -230 -139c-13.2927 -9.6674 -23 -27.1014 -23 -49c0 -38.6573 32.0376 -63.0987 65 -62c8 0 17 2 23 5c2 1 54 32 114 68l110 66l1 -137v-137c6.60482 -33.0241 33.062 -53.0646 65 -52c29.4451 1.05161 52.8062 21.031 59 52v137
l1 137l108 -65c60 -36 110 -66 113 -67c40.8973 -20.4486 91 6.61828 91 55c0 22.5244 -10.5928 39.0742 -23 49c-3.64522 3.64522 -2.41709 2.04745 -230 139c185.166 112.552 226.355 135.355 230 139c14.7916 10.7575 27.9217 35.3131 21 63
c-8.96813 34.3778 -47.7019 61.6491 -89 41c-3 -1 -53 -31 -113 -67l-108 -65l-1 137v137c-6.29245 31.4622 -33.1669 57.6904 -73 52z" />
  </g>

</svg>
