<?xml version="1.0" standalone="no"?>
<!DOCTYPE svg PUBLIC "-//W3C//DTD SVG 1.1//EN" "http://www.w3.org/Graphics/SVG/1.1/DTD/svg11.dtd" >
<svg xmlns="http://www.w3.org/2000/svg" xmlns:xlink="http://www.w3.org/1999/xlink" version="1.1" viewBox="-10 0 1010 1000">
  <g transform="matrix(1 0 0 -1 0 800)">
   <path fill="currentColor"
d="M489 737c40 6 67 -21 73 -52v-137l1 -137l108 65c60 36 110 66 113 67c41 21 80 -7 89 -41c7 -28 -6 -52 -21 -63c-4 -4 -45 -26 -230 -139c228 -137 226 -135 230 -139c12 -10 23 -26 23 -49c0 -48 -50 -75 -91 -55c-3 1 -53 31 -113 67l-108 65l-1 -137v-137
c-13.3136 -68.7869 -109.637 -67.7091 -124 0v137l-1 137l-110 -66c-60 -36 -112 -67 -114 -68c-6 -3 -15 -5 -23 -5c-33 -1 -65 23 -65 62c0 22 10 39 23 49c4 4 45 26 230 139c-228 137 -226 135 -230 139c-12 10 -23 26 -23 49c0 38 32 64 65 62c8 0 17 -2 23 -5
c2 -1 54 -32 114 -68l110 -66l1 137v137c6 28 25 47 51 52z" />
  </g>

</svg>
