<svg width="16" height="16" viewBox="0 0 16 16" fill="none" xmlns="http://www.w3.org/2000/svg">
<path d="M10.6667 8C10.6667 9.47276 9.47276 10.6667 8 10.6667C6.52724 10.6667 5.33333 9.47276 5.33333 8C5.33333 6.52724 6.52724 5.33333 8 5.33333C9.47276 5.33333 10.6667 6.52724 10.6667 8ZM10.6667 8L10.6667 9C10.6667 9.44203 10.8423 9.86595 11.1548 10.1785C11.4674 10.4911 11.8913 10.6667 12.3333 10.6667C12.7754 10.6667 13.1993 10.4911 13.5118 10.1785C13.8244 9.86595 14 9.44203 14 9V8C14.0017 6.71073 13.588 5.45522 12.8203 4.41946C12.0525 3.38369 10.9716 2.62277 9.73759 2.2494C8.50357 1.87603 7.18211 1.91008 5.96896 2.34651C4.7558 2.78293 3.7155 3.59852 3.00214 4.67245C2.28878 5.74638 1.94031 7.02153 2.00837 8.30899C2.07642 9.59646 2.55737 10.8278 3.37997 11.8205C4.20257 12.8133 5.32306 13.5146 6.57546 13.8207C7.82786 14.1268 9.14555 14.0214 10.3333 13.52" stroke="#24282B" stroke-width="2" stroke-linecap="round" stroke-linejoin="round"/>
</svg>
