<?xml version="1.0" standalone="no"?>
<!DOCTYPE svg PUBLIC "-//W3C//DTD SVG 1.1//EN" "http://www.w3.org/Graphics/SVG/1.1/DTD/svg11.dtd" >
<svg xmlns="http://www.w3.org/2000/svg" xmlns:xlink="http://www.w3.org/1999/xlink" version="1.1" viewBox="-10 0 1010 1000">
  <g transform="matrix(1 0 0 -1 0 800)">
   <path fill="currentColor"
d="M771 196c24 0 35 16 41 34v39c0 57 -1 74 -9 106c-30 123 -133 219 -265 236c-57 7 -118 -2 -170 -27c-82 -39 -148 -115 -171 -207c-18 -72 -10 -149 23 -216c46 -92 133 -155 235 -170c16 -2 24 -3 45 -3c49 0 78 8 116 22c15 6 18 7 29 7c37 0 63 -25 63 -62
c0 -33 -19 -49 -44 -60c-62 -25 -142 -40 -226 -27c-89 13 -171 51 -237 113c-52 48 -92 111 -115 179c-36 105 -30 219 15 320c46 103 130 184 235 226c202 81 407 -1 513 -142c48 -64 78 -140 86 -220c2 -19 2 -35 2 -79c0 -46 0 -46 -3 -62c-8 -39 -31 -75 -63 -99
c-65 -49 -157 -44 -216 13l-7 8c-15 -13 -34 -25 -53 -33c-59 -27 -125 -28 -185 -3c-54 23 -98 68 -121 122c-27 63 -24 134 8 195c27 52 73 91 128 110c47 16 98 18 146 2c81 -26 141 -96 155 -180c3 -17 3 -21 3 -66c0 -48 0 -45 5 -54c6 -12 20 -22 37 -22zM493 404
c-51 -6 -88 -40 -96 -89c-5 -27 3 -51 13 -67c16 -28 43 -46 75 -51c6 -1 24 -1 30 0c45 7 80 40 88 88c1 6 1 24 0 30c-8 54 -48 89 -110 89z" />
  </g>

</svg>
