<?xml version="1.0" standalone="no"?>
<!DOCTYPE svg PUBLIC "-//W3C//DTD SVG 1.1//EN" "http://www.w3.org/Graphics/SVG/1.1/DTD/svg11.dtd" >
<svg xmlns="http://www.w3.org/2000/svg" xmlns:xlink="http://www.w3.org/1999/xlink" version="1.1" viewBox="-10 0 1010 1000">
  <g transform="matrix(1 0 0 -1 0 800)">
   <path fill="currentColor"
d="M105 680c33.038 39.6456 78.4649 58.5039 146 51c20 -3 42 -8 63 -16c52 -19 113 -55 177 -103l9 -7l11 9c15 11 33 24 50 35c73 48 133 75 188 82c99.5426 9.04933 166.969 -42.0089 181 -129c2 -11 2 -37 0 -49c-4 -32 -14 -63 -31 -99c-20 -43 -51 -94 -89 -144
l-7 -10c10.2583 -13.6777 32.3104 -44.3888 45 -64c49 -75 75 -135 82 -192c6.17401 -61.7401 -11.0295 -101.03 -42 -132c-111.126 -111.126 -297.771 17.3281 -388 85l-9 -7c-45 -34 -92 -63 -132 -83c-70.8969 -34.624 -159.953 -57.506 -225 -13
c-57.6825 38.455 -82.9292 111.279 -52 206c18 55 55 121 108 191l7 9c-10.1938 13.5917 -33.2767 45.4934 -46 64c-39 60 -63 111 -75 157c-16 64 -6 119 29 159zM279 399c34.3334 42.9167 84.8139 86.8139 122 124c0 1 -35 24 -52 35
c-35.3155 21.862 -71.1127 42.7096 -112 49c-20.8822 3.48037 -37.0617 -2.83119 -42 -16c-2 -6 -1 -22 1 -32c8 -39 35 -92 77 -151zM762 607c-34 -5 -78 -27 -131 -62c-15 -10 -32 -22 -32 -23c0 0 4 -4 10 -9c37 -34 71 -68 101 -101c5 -6 9 -11 10 -12s1 0 7 8
c32 45 56 89 69 123c11 31 13 56 5 66c-3 3 -7 8 -11 9c-5 2 -20 2 -28 1zM488 432c-31 -28 -72 -68 -95 -93c-16 -17 -35 -38 -35 -39l12 -14c37 -41 74 -78 114 -114c7.96355 -7.96355 12.6207 -10.6207 16 -14l10 8c33 29 72 68 97 95c16 17 35 38 35 39s-19 21 -35 39
s-56 57 -76 75c-19 17 -30 28 -31 28c0 0 -6 -4 -12 -10zM448 334c13.1765 20.4967 35.8901 34.0275 68 26c22 -6 39 -23 45 -46c2 -7 2 -22 0 -29c-9.07781 -31.1239 -41.1269 -60.7493 -83 -44c-38 14 -52 59 -30 93zM273 192c-41 -58 -69 -112 -77 -151
c-1 -7 -2 -9 -2 -18c0 -22.2562 6.78159 -27.1782 25 -29c36 -2 100 27 173 79l9 6l-5 4c-42 38 -72 68 -106 105l-10 12c-1 1 -2 -1 -7 -8zM711 190c-34 -37 -69 -73 -107 -107l-5 -4l9 -6c73 -52 137 -81 173 -79c17 1 24 8 25 25c2 33 -21 88 -65 154
c-7 11 -20 28 -20 28s-4 -5 -10 -11z" />
  </g>

</svg>
