<?xml version="1.0" standalone="no"?>
<!DOCTYPE svg PUBLIC "-//W3C//DTD SVG 1.1//EN" "http://www.w3.org/Graphics/SVG/1.1/DTD/svg11.dtd" >
<svg xmlns="http://www.w3.org/2000/svg" xmlns:xlink="http://www.w3.org/1999/xlink" version="1.1" viewBox="-10 0 1010 1000">
  <g transform="matrix(1 0 0 -1 0 800)">
   <path fill="currentColor"
d="M484 737c6 1 39 0 47 -1c55.1318 -5.51318 104.155 -24.9818 142 -51c67 -45 115 -115 132 -193c13 -60 9 -122 -13 -179l-5 -11l63 -108c34 -60 63 -110 64 -112c4.22894 -10.5723 10.2619 -27.2144 5 -43c-7 -26 -28 -44 -54 -47c-10.9997 -1.83329 -105.026 7 -117 7
h-2l-7 -14c-24 -50 -44 -89 -47 -93c-17.3596 -23.1462 -55.4313 -35.016 -86 -14c-5 3 -12 12 -16 17c-2.32782 2.32782 -0.332728 1.15806 -90 154c-89.2535 -151.731 -87.6721 -151.672 -90 -154c-20.3602 -33.9337 -75.005 -38.9933 -102 -3c-3 4 -24 47 -47 94l-7 13
h-7c-4 0 -14 -1 -22 -2c-79 -5 -84 -6 -90 -5c-30.4041 4.34345 -55 26.8166 -55 63c0 14.2464 0.576729 17.1535 5 26c1 2 31 53 65 113l63 108l-4 8c-42 106 -22 227 51 315c53 64 130 104 212 111c5 0 10 1 12 1zM587 591c-118.367 61.0928 -243.82 -13.8849 -269 -123
c-25.3182 -107.603 50.0584 -225.335 176 -230c82 -3 156 49 183 126c30 88 -7 184 -90 227zM274 158c-11 -18 -19 -33 -19 -33s9 0 19 1c59.8429 2.99215 68.7524 -23.0989 88 -64l39 66l-10 4c-36.5946 13.992 -68.4001 34.3334 -98 59zM706 190c-1 -1 -20 -16 -27 -21
c-24.1945 -17.2818 -52.2042 -28.6463 -80 -41l39 -66c1.27731 2.71429 17.1682 36.1682 19 38c18.896 27.2942 43.5704 27.3384 88 25c0 0 -37 65 -38 65h-1z" />
  </g>

</svg>
