<?xml version="1.0" standalone="no"?>
<!DOCTYPE svg PUBLIC "-//W3C//DTD SVG 1.1//EN" "http://www.w3.org/Graphics/SVG/1.1/DTD/svg11.dtd" >
<svg xmlns="http://www.w3.org/2000/svg" xmlns:xlink="http://www.w3.org/1999/xlink" version="1.1" viewBox="-10 0 1010 1000">
  <g transform="matrix(1 0 0 -1 0 800)">
   <path fill="currentColor"
d="M364 674c4 1 44 1 263 1h258c26 -9 45 -22 51 -49c1 -5 1 -15 1 -326s0 -321 -1 -326c-6 -27 -25 -40 -51 -49h-257c-279 0 -263 0 -273 3c-5 2 -11 5 -16 8s-282 280 -287 287c-19 24 -30 53 -25 93c3 22 11 43 25 61c5 7 282 284 287 287c8 5 16 8 25 10zM401 550
l-250 -250l250 -250h411v500h-411zM427 487c17 2 36 -4 47 -11c2 -2 23 -22 46 -45l42 -43l43 43c26 26 45 44 47 45c43 27 98 -1 98 -51c0 -10 -2 -16 -5 -24c-4 -11 -5 -12 -51 -58l-43 -43l43 -43c46 -46 47 -47 51 -58c3 -8 5 -14 5 -24
c0 -51.9146 -56.8723 -78.4185 -98 -51c-2 1 -21 19 -47 45l-43 43l-42 -43c-23 -23 -44 -43 -46 -45c-9 -7 -22 -10 -34 -11c-33 -1 -65 23 -65 62c0 10 2 16 5 24c4 11 5 12 51 58l43 43l-43 43c-46 46 -47 47 -51 58c-3 8 -5 14 -5 24c0 33 25 57 52 62z" />
  </g>

</svg>
