<?xml version="1.0" standalone="no"?>
<!DOCTYPE svg PUBLIC "-//W3C//DTD SVG 1.1//EN" "http://www.w3.org/Graphics/SVG/1.1/DTD/svg11.dtd" >
<svg xmlns="http://www.w3.org/2000/svg" xmlns:xlink="http://www.w3.org/1999/xlink" version="1.1" viewBox="-10 0 1010 1000">
  <g transform="matrix(1 0 0 -1 0 800)">
   <path fill="currentColor"
d="M552 674c4 1 14 1 65 1c40 0 62 -1 66 -1c40 -5 68 -13 99 -29c15 -8 29 -15 42 -25c25 -19 49 -44 66 -70c76 -116 56 -264 -35 -355c-48 -48 -111 -77 -180 -82h-204l-195 -1l43 -42c36 -36 43 -43 46 -48c4 -6 6 -13 8 -20c15 -60 -57 -100 -100 -63l-100 100
c-105 105 -101 100 -106 112c-3 8 -4 14 -4 24s1 16 4 24c5 12 1 7 106 112l100 100c10 8 23 14 40 14c36 0 62 -27 62 -63c0 -10 -2 -16 -5 -24c-4 -11 -5 -12 -51 -58l-43 -43l198 1c218 0 200 0 218 4c68 16 120 72 120 152c0 16 -1 21 -4 35c-6 26 -21 59 -42 76
c-24 24 -52 38 -87 44c-6 1 -14 1 -67 1c-58 0 -59 1 -64 2c-27 7 -48 28 -48 60c0 33 24 58 52 62z" />
  </g>

</svg>
