<?xml version="1.0" standalone="no"?>
<!DOCTYPE svg PUBLIC "-//W3C//DTD SVG 1.1//EN" "http://www.w3.org/Graphics/SVG/1.1/DTD/svg11.dtd" >
<svg xmlns="http://www.w3.org/2000/svg" xmlns:xlink="http://www.w3.org/1999/xlink" version="1.1" viewBox="-10 0 1010 1000">
  <g transform="matrix(1 0 0 -1 0 800)">
   <path fill="currentColor"
d="M552 674c-28.3145 -4.35607 -52 -28.897 -52 -62c0 -32.3995 21.4866 -53.3717 48 -60c5 -1 6 -2 64 -2c53 0 61 0 67 -1c35 -6 63 -20 87 -44c20.7257 -16.5806 35.8456 -50.1515 42 -76c3 -14 4 -19 4 -35c0 -79.7966 -52.2313 -135.865 -120 -152c-18 -4 0 -4 -218 -4
l-198 -1l43 43c46 46 47 47 51 58c3 8 5 14 5 24c0 35.6376 -25.7779 63 -62 63c-16.5511 0 -30.1064 -6.08509 -40 -14l-100 -100c-105 -105 -101 -100 -106 -112c-3 -8 -4 -14 -4 -24s1 -16 4 -24c5 -12 1 -7 106 -112l100 -100c42.9822 -36.8419 115.017 2.93227 100 63
c-2 7 -4 14 -8 20c-3 5 -10 12 -46 48l-43 42l195 1h204c69 5 132 34 180 82c91.2061 91.2061 110.532 239.342 35 355c-17 26 -41 51 -66 70c-13 10 -27 17 -42 25c-31 16 -59 24 -99 29c-4 0 -26 1 -66 1c-51 0 -61 0 -65 -1z" />
  </g>

</svg>
