<?xml version="1.0" standalone="no"?>
<!DOCTYPE svg PUBLIC "-//W3C//DTD SVG 1.1//EN" "http://www.w3.org/Graphics/SVG/1.1/DTD/svg11.dtd" >
<svg xmlns="http://www.w3.org/2000/svg" xmlns:xlink="http://www.w3.org/1999/xlink" version="1.1" viewBox="-10 0 1010 1000">
  <g transform="matrix(1 0 0 -1 0 800)">
   <path fill="currentColor"
d="M302 674c-9 -2 -17 -5 -25 -10c-2 -1 -39 -38 -102 -101c-107 -107 -103 -102 -108 -114c-3 -8 -4 -14 -4 -24s1 -16 4 -24c5 -12 1 -7 106 -112l100 -100c14.372 -10.779 31.2738 -17.9315 55 -12c24.9423 6.80245 47 28.7979 47 61c0 10 -2 16 -5 24
c-4 11 -5 12 -51 58l-43 43l198 -1c187 0 199 0 205 -1c69.8788 -11.9792 119.899 -60.3923 132 -133c1 -9 1 -34 0 -43c-9.44949 -62.9966 -56.0767 -116.699 -119 -131c-17 -4 -16 -4 -80 -4c-58 0 -59 -1 -64 -2c-25.4801 -6.64699 -48 -28.3758 -48 -60
c0 -33.4373 23.5801 -57.6277 52 -62c5 -1 14 -1 60 -1c61 0 71 0 92 4c120.01 20.5281 215.488 115.904 232 248c2 14 2 46 0 61c-7.99024 69.9146 -40.045 126.045 -81 167c-44.8009 44.8009 -97.1398 73.12 -172 81c-4 1 -58 1 -206 1l-201 1l43 42c36 36 43 43 46 48
c30.4873 45.731 -9.66476 103.619 -63 96z" />
  </g>

</svg>
