<?xml version="1.0" standalone="no"?>
<!DOCTYPE svg PUBLIC "-//W3C//DTD SVG 1.1//EN" "http://www.w3.org/Graphics/SVG/1.1/DTD/svg11.dtd" >
<svg xmlns="http://www.w3.org/2000/svg" xmlns:xlink="http://www.w3.org/1999/xlink" version="1.1" viewBox="-10 0 1010 1000">
  <g transform="matrix(1 0 0 -1 0 800)">
   <path fill="currentColor"
d="M277 664c58 36 125 -30 88 -86c-3 -5 -10 -12 -46 -48l-43 -42l201 -1c148 0 202 0 206 -1c75 -8 127 -36 172 -81c41 -41 73 -97 81 -167c2 -15 2 -47 0 -61c-17 -132 -112 -227 -232 -248c-21 -4 -31 -4 -92 -4c-46 0 -55 0 -60 1c-28 4 -52 29 -52 62
c0 32 23 53 48 60c5 1 6 2 64 2c64 0 63 0 80 4c63 14 110 68 119 131c1 9 1 34 0 43c-12 73 -62 121 -132 133c-6 1 -18 1 -205 1l-198 1l43 -43c46 -46 47 -47 51 -58c3 -8 5 -14 5 -24c0 -54 -63 -80 -102 -49l-100 100c-105 105 -101 100 -106 112c-3 8 -4 14 -4 24
s1 16 4 24c5 12 1 7 108 114c63 63 100 100 102 101z" />
  </g>

</svg>
