<?xml version="1.0" standalone="no"?>
<!DOCTYPE svg PUBLIC "-//W3C//DTD SVG 1.1//EN" "http://www.w3.org/Graphics/SVG/1.1/DTD/svg11.dtd" >
<svg xmlns="http://www.w3.org/2000/svg" xmlns:xlink="http://www.w3.org/1999/xlink" version="1.1" viewBox="-10 0 1010 1000">
  <g transform="matrix(1 0 0 -1 0 800)">
   <path fill="currentColor"
d="M488 737c5 1 30 0 36 -1c93.7375 -13.3911 159.154 -89.5317 163 -178l1 -8h134c25.7416 -8.58054 46.0491 -21.6259 52 -49c1 -5 1 -15 1 -295s0 -289 -1 -294c-5.43619 -25.0065 -25.102 -44.517 -52 -49h-320c-284 0 -320 -1 -325 0
c-24.6383 3.79051 -45.108 25.432 -51 49c-1 5 -1 14 -1 294s0 290 1 295c5 22 21 39 42 46c9 3 10 3 79 3h65l1 8c4.03941 87.5206 69.1227 169.576 166 178c4 0 8 1 9 1zM516 610c-20.2571 6.75236 -38.2898 -0.681156 -50 -8c-18.913 -13.0027 -24.5672 -29.8358 -29 -52
h126l-1 5c-2 27 -20 48 -46 55zM250 206v-218h500v437h-62l-1 -36c0 -34 0 -36 -1 -41c-6 -23 -23 -40 -45 -46c-34 -9 -68 12 -77 46c-1 5 -1 7 -1 41l-1 36h-124l-1 -36c0 -34 0 -36 -1 -41c-6 -23 -23 -40 -45 -46c-34 -9 -68 12 -77 46c-1 5 -1 7 -1 41l-1 36h-62v-219z
" />
  </g>

</svg>
