<?xml version="1.0" standalone="no"?>
<!DOCTYPE svg PUBLIC "-//W3C//DTD SVG 1.1//EN" "http://www.w3.org/Graphics/SVG/1.1/DTD/svg11.dtd" >
<svg xmlns="http://www.w3.org/2000/svg" xmlns:xlink="http://www.w3.org/1999/xlink" version="1.1" viewBox="-10 0 1010 1000">
  <g transform="matrix(1 0 0 -1 0 800)">
   <path fill="currentColor"
d="M488 737c5 1 30 0 36 -1c94 -13 159 -90 163 -178l1 -8h134c26 -9 46 -22 52 -49c1 -5 1 -15 1 -295s0 -289 -1 -294c-5 -25 -25 -45 -52 -49h-320c-284 0 -320 -1 -325 0c-25 4 -45 25 -51 49c-1 5 -1 14 -1 294s0 290 1 295c5 22 21 39 42 46c9 3 10 3 79 3h65l1 8
c4 88 69 170 166 178c4 0 8 1 9 1zM516 610c-20 7 -38 -1 -50 -8c-19 -13 -25 -30 -29 -52h126l-1 5c-2 27 -20 48 -46 55zM250 425v-437h500v437h-62l-1 -36c0 -34 0 -36 -1 -41c-6 -23 -23 -40 -45 -46c-34 -9 -68 12 -77 46c-1 5 -1 7 -1 41l-1 36h-124l-1 -36
c0 -34 0 -36 -1 -41c-6 -23 -23 -40 -45 -46c-34 -9 -68 12 -77 46c-1 5 -1 7 -1 41l-1 36h-62z" />
  </g>

</svg>
