<?xml version="1.0" standalone="no"?>
<!DOCTYPE svg PUBLIC "-//W3C//DTD SVG 1.1//EN" "http://www.w3.org/Graphics/SVG/1.1/DTD/svg11.dtd" >
<svg xmlns="http://www.w3.org/2000/svg" xmlns:xlink="http://www.w3.org/1999/xlink" version="1.1" viewBox="-10 0 1010 1000">
  <g transform="matrix(1 0 0 -1 0 800)">
   <path fill="currentColor"
d="M695 437c-22 45 11 101 68 91c13 -3 26 -11 34 -21c4 -4 115 -166 120 -174c56 -95 -8 -210 -112 -220c-9 -1 -99 -1 -105 0c-31 5 -48 28 -54 58c-4 -16 -8 -31 -20 -42c-36 -32 -89 -11 -101 22c-14 34 5 73 40 84c40 13 75 -20 81 -56v4c2 28 25 46 50 53
c2 1 16 1 52 1l49 1c8 4 21 14 14 29c0 1 -111 161 -116 170zM113 445c38 6 65 -19 73 -47c1 -4 1 -7 1 -37s1 -33 2 -39c9 -43 41 -74 84 -83c7 -1 7 -1 57 -1h50c7 3 12 6 15 14l1 70c0 64 0 70 1 74c6 24 22 40 45 47c41 10 70 -14 77 -47c1 -5 2 -10 2 -77
c0 -74 0 -77 -3 -90c-10 -56 -56 -99 -108 -112c-16 -4 -16 -4 -78 -4c-42 0 -59 0 -64 1c-112 12 -192 97 -204 204c-1 5 -1 17 -1 41c0 30 0 34 1 38c6 25 25 43 49 48zM279 69c8 2 21 1 29 -1c25 -8 43 -28 46 -54c5 -32 -20 -59 -46 -66c-37 -9 -64 11 -75 37
c-16 44 15 78 46 84z" />
  </g>

</svg>
