<?xml version="1.0" standalone="no"?>
<!DOCTYPE svg PUBLIC "-//W3C//DTD SVG 1.1//EN" "http://www.w3.org/Graphics/SVG/1.1/DTD/svg11.dtd" >
<svg xmlns="http://www.w3.org/2000/svg" xmlns:xlink="http://www.w3.org/1999/xlink" version="1.1" viewBox="-10 0 1010 1000">
  <g transform="matrix(1 0 0 -1 0 800)">
   <path fill="currentColor"
d="M695 437c-22.2695 44.539 10.8281 100.529 68 91c13 -3 26 -11 34 -21c4 -4 115 -166 120 -174c55.7052 -94.6989 -8.37572 -209.766 -112 -220c-9 -1 -99 -1 -105 0c-30.8998 4.57775 -48.0458 28.2289 -54 58c-4.0158 -16.0632 -8.08071 -31.2726 -20 -42
c-35.7541 -31.7814 -88.6572 -10.9141 -101 22c-14 34 5 73 40 84c40.3611 13.4537 74.9339 -19.6035 81 -56v4c2.29862 27.5834 24.8545 45.8156 50 53c2 1 16 1 52 1l49 1c7.946 3.973 21.29 14.4199 14 29c-0.320836 0.641671 -111.32 160.64 -116 170zM113 445
c38.3572 6.39286 65.0237 -19.0828 73 -47c1 -4 1 -7 1 -37s1 -33 2 -39c9 -43 41 -74 84 -83c7 -1 7 -1 57 -1h50c6.82627 3.41313 12.4083 6.22491 15 14l1 70c0 64 0 70 1 74c6 24 22 40 45 47c40.74 10.185 70.2131 -14.4229 77 -47c1 -5 2 -10 2 -77
c0 -74 0 -77 -3 -90c-10.2678 -56.4732 -55.857 -98.5438 -108 -112c-16 -4 -16 -4 -78 -4c-42 0 -59 0 -64 1c-111.612 12.4013 -192.345 97.4386 -204 204c-1 5 -1 17 -1 41c0 30 0 34 1 38c6 25 25 43 49 48zM279 69c-31.2386 -5.9502 -61.7427 -39.9204 -46 -84
c10.511 -26.2776 38.0895 -46.2276 75 -37c25.7125 6.85667 50.5138 34.4034 46 66c-3 26 -21 46 -46 54c-8 2 -21 3 -29 1z" />
  </g>

</svg>
