<svg width="16" height="16" viewBox="0 0 16 16" fill="none" xmlns="http://www.w3.org/2000/svg">
<path d="M10 6L6 10M6.66667 8L8 9.33333M8 6.66667L9.33333 8M5.33333 14C5.33333 13.1159 4.98214 12.2681 4.35702 11.643C3.7319 11.0179 2.88406 10.6667 2 10.6667M5.33333 14C4.44928 14 3.60143 13.6488 2.97631 13.0237C2.35119 12.3986 2 11.5507 2 10.6667M5.33333 14C10.12 14 14 10.12 14 5.33333M2 10.6667C2 5.88 5.88 2 10.6667 2M10.6667 2C11.5507 2 12.3986 2.35119 13.0237 2.97631C13.6488 3.60143 14 4.44928 14 5.33333M10.6667 2C10.6667 2.88406 11.0179 3.7319 11.643 4.35702C12.2681 4.98214 13.1159 5.33333 14 5.33333" stroke="#24282B" stroke-width="2" stroke-linecap="round" stroke-linejoin="round"/>
</svg>
