<svg width="16" height="16" viewBox="0 0 16 16" fill="none" xmlns="http://www.w3.org/2000/svg">
<path d="M8 2C4.68629 2 2 4.68629 2 8C2 11.3137 4.68629 14 8 14C11.3137 14 14 11.3137 14 8C14 4.68629 11.3137 2 8 2ZM8 2L8 4.66667M8 4.66667L11.1733 6.96667M8 4.66667L4.82667 6.96667M11.1733 6.96667L10 10.6667M11.1733 6.96667L13.6667 6M10 10.6667H6L4.82667 6.96667M10 10.6667L11.6667 12.6667M4.82667 6.96667L2.33333 6M6.04 10.7L4.33333 12.6667" stroke="#24282B" stroke-width="2" stroke-linecap="round" stroke-linejoin="round"/>
</svg>
