<?xml version="1.0" standalone="no"?>
<!DOCTYPE svg PUBLIC "-//W3C//DTD SVG 1.1//EN" "http://www.w3.org/Graphics/SVG/1.1/DTD/svg11.dtd" >
<svg xmlns="http://www.w3.org/2000/svg" xmlns:xlink="http://www.w3.org/1999/xlink" version="1.1" viewBox="-10 0 1010 1000">
  <g transform="matrix(1 0 0 -1 0 800)">
   <path fill="currentColor"
d="M476 737c102 6 204 -25 285 -86c48 -36 89 -81 119 -133c66 -114 75 -255 27 -378c-33.1228 -83.9112 -89.8359 -153.592 -160 -201c-86 -58 -188 -84 -291 -74c-89 9 -174 45 -242 104c-102.104 83.5396 -162.888 233.809 -149 375c9 92 47 179 109 248
c72.3508 80.3898 185.342 138.987 302 145zM483 612c-191.405 -15.6249 -314.235 -177.142 -293 -351c12 -96 69 -183 154 -232c66 -38 143 -50 218 -35c106.176 20.9884 202.306 101.02 235 210c44 139 -12 290 -137 365c-39 23 -82 37 -129 42c-8 1 -41 2 -48 1zM618 529
c52.1703 8.69506 96.0663 -63.7363 51 -107c-28 -28 -75 -23 -96 10c-24.2915 40.4859 -0.568034 91.4766 45 97zM449 487c40.5736 6.76227 71 -23.3446 71 -63c0 -10 1 -11 -1 -16c-7.73625 -24.3139 -29.4008 -46 -60 -46c-27.8494 0 -51.4881 17.9667 -59 39
c-14 34 5 73 40 84c3 1 7 2 9 2zM574 362c-2 0 -6 -1 -9 -2c-35 -11 -54 -50 -40 -84c7.51438 -21.0403 31.1655 -39 59 -39c30.6854 0 52.2634 21.6851 60 46c2 5 1 6 1 16c0 39.505 -29.6897 69.8851 -71 63z" />
  </g>

</svg>
