<?xml version="1.0" standalone="no"?>
<!DOCTYPE svg PUBLIC "-//W3C//DTD SVG 1.1//EN" "http://www.w3.org/Graphics/SVG/1.1/DTD/svg11.dtd" >
<svg xmlns="http://www.w3.org/2000/svg" xmlns:xlink="http://www.w3.org/1999/xlink" version="1.1" viewBox="-10 0 1010 1000">
  <g transform="matrix(1 0 0 -1 0 800)">
   <path fill="currentColor"
d="M476 737c102 6 204 -25 285 -86c48 -36 89 -81 119 -133c66 -114 75 -255 27 -378c-36.9006 -92.2515 -98.2602 -162.595 -177 -212c-87 -54 -191 -76 -294 -61c-101.591 14.867 -196.855 69.3401 -262 141c-82 92 -121 214 -109 336c9 92 47 179 109 248
c72.3508 80.3898 185.342 138.987 302 145zM531 611c-60.2589 5.47808 -105.169 -3.78066 -151 -23c-10 -4 -35 -16 -36 -17c0 0 2 -4 7 -10c46 -61 74 -132 83 -209c2 -18 3 -26 3 -52c0 -30 -1 -42 -5 -68c-11.3015 -71.9185 -42.1305 -146.957 -88 -202
c3.13742 -3.13742 25.1114 -13.6446 36 -18c77 -32 164 -32 241 0c10 4 34 16 35 17c0 0 -2 4 -7 10c-45 61 -74 134 -83 209c-2 19 -3 26 -3 52c0 30 1 44 5 68c11 70 39 136 81 193c5 6 7 10 7 10c-1 1 -25 13 -35 17c-29 12 -58 20 -90 23zM250 487
c-11.1638 -13.9548 -19.9944 -29.1146 -29 -46c-41 -81 -44 -177 -9 -261c9.29712 -22.0806 24.3559 -47.8983 38 -67l1 2c1 1 5 7 9 12c26 39 42 83 49 130c2 15 3 26 3 43s-1 28 -3 43c-7 47 -23 91 -49 130c-4 5 -8 11 -9 12zM747 482c-24 -33 -44 -78 -53 -120
c-4 -22 -6 -35 -6 -62c0 -23 1 -29 3 -46c7 -45 23 -89 49 -127c4 -5 8 -11 9 -12l1 -2c18.828 26.3592 37.0895 60.1672 47 91c30 93 15 194 -40 274c-3 5 -6 9 -6 9s-2 -2 -4 -5z" />
  </g>

</svg>
