<?xml version="1.0" standalone="no"?>
<!DOCTYPE svg PUBLIC "-//W3C//DTD SVG 1.1//EN" "http://www.w3.org/Graphics/SVG/1.1/DTD/svg11.dtd" >
<svg xmlns="http://www.w3.org/2000/svg" xmlns:xlink="http://www.w3.org/1999/xlink" version="1.1" viewBox="-10 0 1010 1000">
  <g transform="matrix(1 0 0 -1 0 800)">
   <path fill="currentColor"
d="M476 737c102 6 204 -25 285 -86c48 -36 89 -81 119 -133c66 -114 75 -255 27 -378c-33 -84 -90 -154 -160 -201c-86 -58 -188 -84 -291 -74c-89 9 -174 45 -242 104c-102 84 -163 234 -149 375c21 210 195 382 411 393zM483 612c-191 -16 -314 -177 -293 -351
c12 -96 69 -183 154 -232c66 -38 143 -50 218 -35c106 21 202 101 235 210c44 139 -12 290 -137 365c-39 23 -82 37 -129 42c-8 1 -41 2 -48 1zM618 529c52 9 96 -64 51 -107c-28 -28 -75 -23 -96 10c-24 40 -1 91 45 97zM449 487c41 7 71 -23 71 -63c0 -10 1 -11 -1 -16
c-8 -24 -29 -46 -60 -46c-28 0 -51 18 -59 39c-14 34 5 73 40 84c3 1 7 2 9 2zM574 362c41 7 71 -23 71 -63c0 -10 1 -11 -1 -16c-8 -24 -29 -46 -60 -46c-28 0 -51 18 -59 39c-14 34 5 73 40 84c3 1 7 2 9 2z" />
  </g>

</svg>
