<?xml version="1.0" standalone="no"?>
<!DOCTYPE svg PUBLIC "-//W3C//DTD SVG 1.1//EN" "http://www.w3.org/Graphics/SVG/1.1/DTD/svg11.dtd" >
<svg xmlns="http://www.w3.org/2000/svg" xmlns:xlink="http://www.w3.org/1999/xlink" version="1.1" viewBox="-10 0 1010 1000">
  <g transform="matrix(1 0 0 -1 0 800)">
   <path fill="currentColor"
d="M476 737c11 1 46 0 57 -1c140 -12 243 -80 312 -167c39 -50 68 -107 84 -182c43 -212 -74 -380 -199 -459c-87 -54 -191 -76 -294 -61c-162 24 -290 138 -344 274c-48 120 -32 261 17 355c63 129 204 231 367 241zM437 606c-45 -6 -88 -29 -123 -55
c-34 -24 -60 -57 -83 -92c0 0 14 -5 31 -12l31 -12c48 36 96 71 145 105v33c0 18 -1 33 -1 33zM562 606v-66l13 -9c30 -22 58 -41 95 -68l37 -28l31 12c17 6 31 12 31 12s-8 14 -14 22c-39 54 -94 95 -157 116c-10 3 -26 8 -33 9h-3zM478 415c-12 -9 -40 -29 -62 -45
s-40 -29 -40 -29c-1 -1 3 -15 22 -73c13 -40 23 -72 23 -72h158c1 4 45 145 45 145c-2 2 -123 90 -124 90c0 0 -10 -7 -22 -16zM264 96c17 19 5 5 42 49c0 0 -13 39 -28 86l-27 86l-29 12c-16 6 -30 11 -31 11h-1c-1 -8 -2 -20 -2 -32c-2 -73 22 -146 68 -203
c4 -5 6 -7 8 -9zM779 329l-30 -12l-27 -84c-15 -46 -27 -84 -27 -85s41 -51 42 -51s14 16 20 25c38 55 63 129 53 218v1s-14 -6 -31 -12zM408 71c-15 -17 -30 -34 -45 -52c8 -5 25 -10 38 -15c69 -23 148 -22 215 6c12 5 22 9 22 10c0 0 -9 12 -21 26l-21 25h-188z" />
  </g>

</svg>
