<?xml version="1.0" standalone="no"?>
<!DOCTYPE svg PUBLIC "-//W3C//DTD SVG 1.1//EN" "http://www.w3.org/Graphics/SVG/1.1/DTD/svg11.dtd" >
<svg xmlns="http://www.w3.org/2000/svg" xmlns:xlink="http://www.w3.org/1999/xlink" version="1.1" viewBox="-10 0 1010 1000">
  <g transform="matrix(1 0 0 -1 0 800)">
   <path fill="currentColor"
d="M638 737c15 1 47 0 57 -1c63 -7 119 -34 163 -78c52 -52 79 -119 79 -193c0 -64 -11 -131 -32 -193c-66 -194 -227 -343 -426 -392c-46 -11 -98 -17 -144 -17c-38 0 -74 6 -108 21c-80 34 -146 106 -161 205c-8 48 -2 124 14 190c61 245 278 445 558 458zM191 188
c98 -28 173 -101 197 -197c99 12 181 47 253 108c20 17 43 40 60 60c61 73 96 153 108 253c0 0 -3 2 -8 3c-93 26 -159 95 -186 186c-2 7 -3 8 -4 8h-6c-130 -16 -244 -90 -314 -178c-56 -71 -89 -148 -100 -243zM645 300c0 -49 -43 -73 -88 -57c18 -46 -11 -88 -57 -88
c-21 0 -30 6 -42 15l-22 -22c-22 -22 -26 -25 -34 -29c-48 -23 -89 15 -89 56c0 10 1 16 4 24c4 10 8 15 31 38l22 21c-9 12 -15 21 -15 42c0 52 49 70 88 57c-18 46 11 88 57 88c21 0 30 -6 42 -15l22 22c23 23 24 29 50 35c10 2 22 0 31 -3c24 -8 42 -28 42 -59
c0 -10 -1 -16 -4 -24c-4 -10 -8 -15 -31 -38l-22 -21c9 -12 15 -21 15 -42z" />
  </g>

</svg>
