<?xml version="1.0" standalone="no"?>
<!DOCTYPE svg PUBLIC "-//W3C//DTD SVG 1.1//EN" "http://www.w3.org/Graphics/SVG/1.1/DTD/svg11.dtd" >
<svg xmlns="http://www.w3.org/2000/svg" xmlns:xlink="http://www.w3.org/1999/xlink" version="1.1" viewBox="-10 0 1010 1000">
  <g transform="matrix(1 0 0 -1 0 800)">
   <path fill="currentColor"
d="M638 737c15 1 47 0 57 -1c63 -7 119 -34 163 -78c52 -52 79 -119 79 -193c0 -64 -11 -131 -32 -193c-66 -194 -227 -343 -426 -392c-46 -11 -98 -17 -144 -17c-38 0 -74 6 -108 21c-79.5264 34.2786 -145.827 106.378 -161 205c-8 48 -2 124 14 190
c61.1647 244.659 278.302 444.681 558 458zM191 188c97.7803 -28.0284 172.631 -100.827 197 -197c99.3128 11.9175 181.3 47.3304 253 108c20 17 43 40 60 60c60.7675 72.9209 96.0283 153.236 108 253c0 0 -3 2 -8 3c-92.7473 26.4992 -159.057 95.0681 -186 186
c-2 7 -3 8 -4 8h-6c-130.127 -16.2658 -244.071 -90.0249 -314 -178c-56.2981 -70.6486 -88.5606 -147.672 -100 -243zM614 487c-26.1669 -5.81487 -26.5682 -11.5682 -50 -35l-22 -22c-11.5156 8.63668 -20.9877 15 -42 15c-45.5441 0 -75.2674 -42.3316 -57 -88
c-39.4316 13.1439 -88 -4.65044 -88 -57c0 -21.3846 6.04717 -30.0629 15 -42l-22 -21c-23 -23 -27 -28 -31 -38c-3 -8 -4 -14 -4 -24c0 -41.4639 41.0763 -78.5523 89 -56c8 4 12 7 34 29l22 22c11.5156 -8.63668 20.9877 -15 42 -15c45.5441 0 75.2674 42.3316 57 88
c11.0768 -3.69226 23.7078 -7.41677 37 -5c27.8005 4.63342 51 26.7886 51 62c0 21.3846 -6.04717 30.0629 -15 42l22 21c23 23 27 28 31 38c3 8 4 14 4 24c0 30.8508 -17.5757 50.8586 -42 59c-9 3 -21 5 -31 3z" />
  </g>

</svg>
