<?xml version="1.0" standalone="no"?>
<!DOCTYPE svg PUBLIC "-//W3C//DTD SVG 1.1//EN" "http://www.w3.org/Graphics/SVG/1.1/DTD/svg11.dtd" >
<svg xmlns="http://www.w3.org/2000/svg" xmlns:xlink="http://www.w3.org/1999/xlink" version="1.1" viewBox="-10 0 1010 1000">
  <g transform="matrix(1 0 0 -1 0 800)">
   <path fill="currentColor"
d="M476 737c102 6 204 -25 285 -86c48 -36 89 -81 119 -133c66 -114 75 -255 27 -378c-37 -92 -98 -163 -177 -212c-87 -54 -191 -76 -294 -61c-102 15 -197 69 -262 141c-82 92 -121 214 -109 336c20.549 210.056 195.029 381.925 411 393zM531 611c-60 5 -105 -4 -151 -23
c-10 -4 -35 -16 -36 -17c0 0 2 -4 7 -10c46 -61 74 -132 83 -209c2 -18 3 -26 3 -52c0 -30 -1 -42 -5 -68c-11 -72 -42 -147 -88 -202c3 -3 25 -14 36 -18c77 -32 164 -32 241 0c10 4 34 16 35 17c0 0 -2 4 -7 10c-45 61 -74 134 -83 209c-2 19 -3 26 -3 52c0 30 1 44 5 68
c11.7575 74.8204 44.2016 143.553 88 203c-1 1 -25 13 -35 17c-29 12 -58 20 -90 23zM250 487c-11 -14 -20 -29 -29 -46c-41 -81 -44 -177 -9 -261c9 -22 24 -48 38 -67l1 2c1 1 5 7 9 12c26 39 42 83 49 130c2 15 3 26 3 43s-1 28 -3 43c-7 47 -23 91 -49 130
c-4 5 -8 11 -9 12zM751 487c-26.2336 -32.792 -47.6002 -81.1344 -57 -125c-4 -22 -6 -35 -6 -62c0 -23 1 -29 3 -46c7 -45 23 -89 49 -127c4 -5 8 -11 9 -12l1 -2c19 26 37 60 47 91c30 93 15 194 -40 274c-3 5 -6 9 -6 9z" />
  </g>

</svg>
