<?xml version="1.0" standalone="no"?>
<!DOCTYPE svg PUBLIC "-//W3C//DTD SVG 1.1//EN" "http://www.w3.org/Graphics/SVG/1.1/DTD/svg11.dtd" >
<svg xmlns="http://www.w3.org/2000/svg" xmlns:xlink="http://www.w3.org/1999/xlink" version="1.1" viewBox="-10 0 1010 1000">
  <g transform="matrix(1 0 0 -1 0 800)">
   <path fill="currentColor"
d="M476 737c11 1 46 0 57 -1c140.354 -11.6962 242.772 -79.5536 312 -167c39.0408 -49.9722 67.8364 -106.57 84 -182c43.4494 -212.135 -73.6645 -380.358 -199 -459c-87 -54 -191 -76 -294 -61c-161.917 24.0687 -289.87 137.743 -344 274
c-47.771 120.11 -32.1084 261.248 17 355c62.6755 129.038 203.887 231.014 367 241zM437 606c-44.9385 -6.41978 -87.8511 -29.1552 -123 -55c-33.6616 -24.3757 -60.402 -56.8476 -83 -92c0 0 14 -5 31 -12l31 -12c47.8146 35.5187 96.1405 70.5262 145 105v33
c0 18 -1 33 -1 33zM562 606v-66l13 -9c30.2186 -21.5847 57.6491 -41.3208 95 -68l37 -28l31 12c17 6 31 12 31 12s-8 14 -14 22c-39 54 -94 95 -157 116c-10 3 -26 8 -33 9h-3zM478 415c-12 -9 -40 -29 -62 -45s-40 -29 -40 -29c-1 -1 3 -15 22 -73c13 -40 23 -72 23 -72
h158c1.26085 3.947 45 145 45 145c-2 2 -123 90 -124 90c0 0 -10 -7 -22 -16zM264 96c16.9982 19.4265 4.64326 4.52769 42 49c0 0 -13 39 -28 86l-27 86l-29 12c-16 6 -30 11 -31 11h-1c-0.844705 -7.60234 -2 -20.4266 -2 -32c-2 -73 22 -146 68 -203
c3.70545 -4.9406 5.99437 -6.99437 8 -9zM779 329l-30 -12l-27 -84c-15 -46 -27 -84 -27 -85s41 -51 42 -51s14 16 20 25c38.1753 55.1422 62.8456 129.389 53 218v1s-14 -6 -31 -12zM385 45l-22 -26c7.69605 -5.1307 25.1095 -10.3125 38 -15
c68.6852 -22.8951 147.673 -21.6215 215 6c12 5 22 9 22 10c0 0 -9 12 -21 26l-21 25h-188l-23 -26z" />
  </g>

</svg>
