<?xml version="1.0" standalone="no"?>
<!DOCTYPE svg PUBLIC "-//W3C//DTD SVG 1.1//EN" "http://www.w3.org/Graphics/SVG/1.1/DTD/svg11.dtd" >
<svg xmlns="http://www.w3.org/2000/svg" xmlns:xlink="http://www.w3.org/1999/xlink" version="1.1" viewBox="-10 0 1010 1000">
  <g transform="matrix(1 0 0 -1 0 800)">
   <path fill="currentColor"
d="M476 737c102 6 204 -25 285 -86c48 -36 89 -81 119 -133c66 -114 75 -255 27 -378c-33 -84 -90 -154 -160 -201c-86 -58 -188 -84 -291 -74c-89 9 -174 45 -242 104c-102 84 -163 234 -149 375c21 210 195 382 411 393zM328 561c0 -3 433 -433 433 -433c2 2 14 23 19 34
c74 148 17 325 -120 407c-39 23 -82 37 -129 42c-8 1 -41 2 -48 1c-49 -4 -86 -14 -125 -34c-12 -6 -30 -16 -30 -17zM239 472c-104 -155 -43 -367 119 -450c94 -49 213 -45 303 10c5 3 11 7 11 7c-259 260 -42 44 -433 433z" />
  </g>

</svg>
