<?xml version="1.0" standalone="no"?>
<!DOCTYPE svg PUBLIC "-//W3C//DTD SVG 1.1//EN" "http://www.w3.org/Graphics/SVG/1.1/DTD/svg11.dtd" >
<svg xmlns="http://www.w3.org/2000/svg" xmlns:xlink="http://www.w3.org/1999/xlink" version="1.1" viewBox="-10 0 1010 1000">
  <g transform="matrix(1 0 0 -1 0 800)">
   <path fill="currentColor"
d="M476 737c102 6 204 -25 285 -86c48 -36 89 -81 119 -133c66 -114 75 -255 27 -378c-33.1228 -83.9112 -89.8359 -153.592 -160 -201c-86 -58 -188 -84 -291 -74c-89 9 -174 45 -242 104c-102.104 83.5396 -162.888 233.809 -149 375c9 92 47 179 109 248
c72.3508 80.3898 185.342 138.987 302 145zM328 561c0 -3.10106 433 -433 433 -433c2 2 14 23 19 34c74.0723 148.145 16.9404 324.593 -120 407c-39 23 -82 37 -129 42c-8 1 -41 2 -48 1c-49 -4 -86 -14 -125 -34c-12 -6 -30 -16 -30 -17zM235 466
c-97.1896 -157.355 -37.2625 -361.946 123 -444c94.3398 -49.4161 212.741 -44.863 303 10c5 3 11 7 11 7c-259.199 260.399 -42.4021 44.2021 -433 433l-4 -6z" />
  </g>

</svg>
