<?xml version="1.0" standalone="no"?>
<!DOCTYPE svg PUBLIC "-//W3C//DTD SVG 1.1//EN" "http://www.w3.org/Graphics/SVG/1.1/DTD/svg11.dtd" >
<svg xmlns="http://www.w3.org/2000/svg" xmlns:xlink="http://www.w3.org/1999/xlink" version="1.1" viewBox="-10 0 1010 1000">
  <g transform="matrix(1 0 0 -1 0 800)">
   <path fill="currentColor"
d="M584 724c132 44 246 -39 300 -117c22 -34 41 -79 47 -125c8 -83 -15 -137 -61 -191c-6 -7 -329 -331 -349 -350c-13 -12 -24 -21 -34 -29c-88 -63 -199 -62 -288 -2c-65 42 -118 118 -130 208c-7 86 19 143 61 191c6 7 330 332 350 351c34 32 66 52 104 64zM645 610
c-1 0 -5 0 -9 -1c-19 -4 -39 -13 -57 -28c-9 -7 -352 -350 -359 -359c-50 -62 -29 -146 34 -198c45 -38 112 -50 167 -5c8 7 353 351 359 359c36 45 38 105 1 159c-27 40 -68 68 -110 73c-6 1 -20 1 -26 0zM488 445c55 9 86 -42 70 -88c35 18 77 -6 86 -41c1 -5 1 -7 1 -17
c0 -45 -43 -76 -85 -57c-2 1 -3 0 -3 0l2 -6c13 -39 -15 -80 -56 -82c-39 -1 -84 40 -60 88c0 0 -1 1 -3 0c-46 -17 -85 16 -85 57c0 45 43 78 87 58c0 0 0 3 -1 6c-3 8 -3 16 -3 24c2 28 22 52 50 58zM474 325c4 -9 5 -16 5 -26s-3 -17 -5 -25c0 0 2 0 4 1c16 6 33 3 48 -1
c0 0 0 2 -1 4c-3 7 -4 13 -4 21c0 10 1 17 5 26c0 0 -20 -4 -26 -4s-26 4 -26 4z" />
  </g>

</svg>
