<?xml version="1.0" standalone="no"?>
<!DOCTYPE svg PUBLIC "-//W3C//DTD SVG 1.1//EN" "http://www.w3.org/Graphics/SVG/1.1/DTD/svg11.dtd" >
<svg xmlns="http://www.w3.org/2000/svg" xmlns:xlink="http://www.w3.org/1999/xlink" version="1.1" viewBox="-10 0 1010 1000">
  <g transform="matrix(1 0 0 -1 0 800)">
   <path fill="currentColor"
d="M584 724c131.509 43.8364 246.446 -38.7295 300 -117c22.1678 -34.4833 41.0486 -78.8768 47 -125c7.55124 -83.0637 -15.4483 -136.83 -61 -191c-6 -7 -329 -331 -349 -350c-13 -12 -24 -21 -34 -29c-87.6507 -62.8799 -199.348 -61.7889 -288 -2
c-64.5937 42.3896 -117.978 117.838 -130 208c-7.18895 86.2673 18.7645 143.485 61 191c6 7 330 332 350 351c34 32 66 52 104 64zM645 610c-1 0 -5 0 -9 -1c-19 -4 -39 -13 -57 -28c-9 -7 -352 -350 -359 -359c-49.9341 -62.4176 -28.6868 -145.518 34 -198
c44.9858 -38.0649 112.038 -49.5634 167 -5c8 7 353 351 359 359c36.365 45.4562 37.7436 104.759 1 159c-27 40 -68 68 -110 73c-6 1 -20 1 -26 0zM488 445c54.6338 9.10563 86.0712 -41.5403 70 -88c35.4012 17.7006 76.9087 -5.77103 86 -41c1 -5 1 -7 1 -17
c0 -44.7396 -43.2869 -75.5392 -85 -57c-2 1 -3 0 -3 0l2 -6c13 -39 -15 -80 -56 -82c-38.9634 -1.29878 -83.8371 40.3259 -60 88c0 0 -1 1 -3 0c-42.6876 -16.0078 -74.4029 12.2086 -84 41c-2 5 -1 6 -1 16c0 45.305 43.0901 77.5155 87 58c0 0 0 3 -1 6
c-3 8 -3 16 -3 24c2 28 22 52 50 58zM474 325c4 -9 5 -16 5 -26c0 -9.5856 -2.87546 -16.5018 -5 -25c0 0 2 0 4 1c15.7803 6.06936 33.1612 2.70971 48 -1c0 0 0 2 -1 4c-3 7 -4 13 -4 21c0 10 1 17 5 26c0 0 -19.8284 -4 -26 -4c-6.24019 0 -26 4 -26 4z" />
  </g>

</svg>
