<svg width="16" height="16" viewBox="0 0 16 16" fill="none" xmlns="http://www.w3.org/2000/svg">
<path d="M8.85725 8C9.42554 8 9.97056 7.79933 10.3724 7.44214C10.7742 7.08494 11 6.60048 11 6.09533V6C11 5.46957 10.7629 4.96086 10.341 4.58579C9.91903 4.21071 9.34674 4 8.75 4H5V12H8.85725C9.42554 12 9.97056 11.7993 10.3724 11.4421C10.7742 11.0849 11 10.6005 11 10.0953V10C11 9.46957 10.7629 8.96086 10.341 8.58579C9.91903 8.21071 9.34674 8 8.75 8H5M8 2V4M8 12V14" stroke="#24282B" stroke-width="2" stroke-linecap="round" stroke-linejoin="round"/>
</svg>
