<?xml version="1.0" standalone="no"?>
<!DOCTYPE svg PUBLIC "-//W3C//DTD SVG 1.1//EN" "http://www.w3.org/Graphics/SVG/1.1/DTD/svg11.dtd" >
<svg xmlns="http://www.w3.org/2000/svg" xmlns:xlink="http://www.w3.org/1999/xlink" version="1.1" viewBox="-10 0 1010 1000">
  <g transform="matrix(1 0 0 -1 0 800)">
   <path fill="currentColor"
d="M700 298c30 -30 50 -72 50 -126c0 -18 -1 -24 -4 -37c-16 -76 -84 -138 -172 -146c-4 0 -8 -1 -9 -1l-2 -1l-1 -36c0 -34 0 -36 -1 -41c-15 -62 -106 -62 -122 0c-1 5 -1 7 -1 41l-1 37h-64c-70 0 -71 0 -80 3c-21 7 -37 24 -42 46c-1 5 -1 13 -1 263s0 258 1 263
c5 22 21 39 42 46c9 3 10 3 80 3h64l1 37c0 34 0 36 1 41c9 31 36 55 77 45c22 -6 39 -22 45 -45c1 -5 1 -7 1 -42l1 -36c39 -4 72 -14 103 -35c42 -28 72 -72 81 -120c2 -13 3 -18 3 -35c0 -18 -1 -24 -4 -37c-6 -31 -21 -62 -46 -87zM375 488v-126l95 1c94 0 95 0 101 1
c27 6 45 22 52 43c2 6 2 20 1 27c-5 29 -30 46 -59 52c-6 1 -7 1 -98 1zM375 238v-126l95 1c94 0 95 0 101 1c27 6 45 22 52 43c2 6 2 20 1 27c-5 29 -30 46 -59 52c-6 1 -7 1 -98 1z" />
  </g>

</svg>
