<?xml version="1.0" standalone="no"?>
<!DOCTYPE svg PUBLIC "-//W3C//DTD SVG 1.1//EN" "http://www.w3.org/Graphics/SVG/1.1/DTD/svg11.dtd" >
<svg xmlns="http://www.w3.org/2000/svg" xmlns:xlink="http://www.w3.org/1999/xlink" version="1.1" viewBox="-10 0 1010 1000">
  <g transform="matrix(1 0 0 -1 0 800)">
   <path fill="currentColor"
d="M322 112c30.0449 -5.00748 61.2924 -34.8306 51 -76c-5.86748 -23.4699 -25.5328 -44.2358 -50 -48c-5 -1 -15 0 -73 0c-71 0 -75 -1 -88 2c-51.272 10.7941 -94.2976 54.5713 -99 111c-1 9 -1 327 0 336c0 4 1 10 2 14c10.6594 49.7436 52.9564 93.0397 110 98
c3 0 36 1 74 1c74 0 73 0 83 -3c25.8672 -8.62239 50.502 -35.992 41 -74c-7.12679 -27.3193 -25.0598 -39.3533 -51 -48h-134v-312l67 -1h67zM812 335c-36.6166 7.32332 -56.9764 39.7816 -61 77c0 4 -1 8 -1 10v3h-34c-27 0 -35 0 -39 1
c-28.3145 4.35607 -52 28.897 -52 62c0 34.1867 24.0589 56.0692 52 61c4 1 12 1 46 1c45 0 46 0 61 -4c43.8627 -10.1222 74.6822 -44.5583 86 -87c1 -5 2 -6 3 -6s4 -1 7 -2c32 -10 53 -37 57 -75c1 -9 1 -205 0 -214c-3.16574 -41.1546 -29.3949 -70.679 -66 -78
c-8.40431 -50.4258 -48.3066 -87.246 -100 -95c-10 -2 -85 -2 -94 -1c-27.3023 4.20036 -52 30.0714 -52 62c0 32.3089 24.6359 57.7901 52 62c4 1 12 0 39 0h34v4c0 43.6078 23.6155 73.8718 57 85l5 2v132zM489 487c-17 -3 -32 -14 -41 -28c-4 -7 -68 -133 -70 -139
c-11.115 -33.345 8.33721 -64.1686 32 -76c11 -5 18 -6 37 -6h14l-9 -20c-9.59684 -21.1131 -19.887 -32.7478 -13 -58c12.4735 -51.6758 84.4034 -63.1947 113 -19c4 7 68 133 70 139c10.8484 35.2573 -9.88348 71.4709 -44 80c-6 2 -7 2 -22 2l-17 1l9 19
c5 11 10 21 11 23c12.88 41.8599 -17.6774 89.4747 -70 82z" />
  </g>

</svg>
