<?xml version="1.0" standalone="no"?>
<!DOCTYPE svg PUBLIC "-//W3C//DTD SVG 1.1//EN" "http://www.w3.org/Graphics/SVG/1.1/DTD/svg11.dtd" >
<svg xmlns="http://www.w3.org/2000/svg" xmlns:xlink="http://www.w3.org/1999/xlink" version="1.1" viewBox="-10 0 1010 1000">
  <g transform="matrix(1 0 0 -1 0 800)">
   <path fill="currentColor"
d="M174 550h296c280 0 295 0 301 -1c52 -8 87 -43 99 -90c1 -5 2 -6 3 -6c37 -9 60 -37 64 -77c1 -9 1 -205 0 -214c-3 -41 -29 -71 -66 -78c-8 -51 -48 -87 -100 -95c-7 -1 -21 -1 -304 -1c-282 0 -297 0 -304 1c-54 7 -87 39 -97 87c-3 16 -3 8 -3 193s0 177 3 193
c11 53 50 82 108 88zM188 425v-313h562v4c0 2 1 6 1 10c4 37 23 64 56 75l5 2v132c-34 7 -50 33 -59 65c-1 6 -3 17 -3 22v3h-562zM302 362c38 5 66 -21 72 -49c1 -5 1 -8 1 -44s0 -40 -1 -45c-5 -23 -23 -41 -46 -47c-34 -9 -69 12 -77 47c-1 5 -1 9 -1 45s0 39 1 44
c6 25 26 44 51 49z" />
  </g>

</svg>
