<?xml version="1.0" standalone="no"?>
<!DOCTYPE svg PUBLIC "-//W3C//DTD SVG 1.1//EN" "http://www.w3.org/Graphics/SVG/1.1/DTD/svg11.dtd" >
<svg xmlns="http://www.w3.org/2000/svg" xmlns:xlink="http://www.w3.org/1999/xlink" version="1.1" viewBox="-10 0 1010 1000">
  <g transform="matrix(1 0 0 -1 0 800)">
   <path fill="currentColor"
d="M174 550h296c280 0 295 0 301 -1c51.6711 -7.75066 86.5081 -43.1556 99 -90c1 -5 2 -6 3 -6c36.8091 -9.20228 59.9923 -36.9231 64 -77c1 -9 1 -205 0 -214c-3.16574 -41.1546 -29.3949 -70.679 -66 -78c-8.42665 -50.5599 -48.3398 -87.251 -100 -95
c-7 -1 -21 -1 -304 -1c-282 0 -297 0 -304 1c-53.9204 6.74005 -87.3258 38.629 -97 87c-3 16 -3 8 -3 193s0 177 3 193c10.6554 53.2768 49.8889 82.1889 108 88zM188 269v-157h562v4c0 2 1 6 1 10c4 37 23 64 56 75l5 2v132c-33.9589 6.79177 -49.7394 32.588 -59 65
c-1 6 -3 17 -3 22v3h-562v-156z" />
  </g>

</svg>
