<?xml version="1.0" standalone="no"?>
<!DOCTYPE svg PUBLIC "-//W3C//DTD SVG 1.1//EN" "http://www.w3.org/Graphics/SVG/1.1/DTD/svg11.dtd" >
<svg xmlns="http://www.w3.org/2000/svg" xmlns:xlink="http://www.w3.org/1999/xlink" version="1.1" viewBox="-10 0 1010 1000">
  <g transform="matrix(1 0 0 -1 0 800)">
   <path fill="currentColor"
d="M322 112c30 -5 61 -35 51 -76c-6 -23 -26 -44 -50 -48c-5 -1 -15 0 -73 0c-71 0 -75 -1 -88 2c-51 11 -94 55 -99 111c-1 9 -1 327 0 336c0 4 1 10 2 14c11 50 53 93 110 98c3 0 36 1 74 1c74 0 73 0 83 -3c26 -9 51 -36 41 -74c-7 -27 -25 -39 -51 -48h-134v-312l67 -1
h67zM812 335c-37 7 -57 40 -61 77c0 4 -1 8 -1 10v3h-34c-27 0 -35 0 -39 1c-28 4 -52 29 -52 62c0 34 24 56 52 61c4 1 12 1 46 1c45 0 46 0 61 -4c44 -10 75 -45 86 -87c1 -5 2 -6 3 -6s4 -1 7 -2c32 -10 53 -37 57 -75c1 -9 1 -205 0 -214c-3 -41 -29 -71 -66 -78
c-8 -50 -48 -87 -100 -95c-10 -2 -85 -2 -94 -1c-27 4 -52 30 -52 62s25 58 52 62c4 1 12 0 39 0h34v4c0 44 24 74 57 85l5 2v132zM489 487c52 7 83 -40 70 -82c-1 -2 -6 -12 -11 -23l-9 -19l17 -1c15 0 16 0 22 -2c34 -9 55 -45 44 -80c-2 -6 -66 -132 -70 -139
c-29 -44 -101 -33 -113 19c-7 25 3 37 13 58l9 20h-14c-19 0 -26 1 -37 6c-24 12 -43 43 -32 76c2 6 66 132 70 139c9 14 24 25 41 28z" />
  </g>

</svg>
