<?xml version="1.0" standalone="no"?>
<!DOCTYPE svg PUBLIC "-//W3C//DTD SVG 1.1//EN" "http://www.w3.org/Graphics/SVG/1.1/DTD/svg11.dtd" >
<svg xmlns="http://www.w3.org/2000/svg" xmlns:xlink="http://www.w3.org/1999/xlink" version="1.1" viewBox="-10 0 1010 1000">
  <g transform="matrix(1 0 0 -1 0 800)">
   <path fill="currentColor"
d="M238 695c39 7 65 -19 73 -47c1 -4 1 -7 1 -20l1 -16h416v14c0 46 31 79 79 67c25 -7 43 -27 46 -53v-42h2c5 -2 17 -10 24 -15c33 -25 54 -63 57 -104v-226c0 -206 0 -218 -1 -224c-12 -67 -64 -118 -129 -124c-9 -1 -605 -1 -614 0c-70 8 -119 59 -129 124
c-1 7 -1 18 -1 229c0 246 0 226 4 244c13 54 59 100 120 109l1 16c0 14 0 17 1 21c6 24 25 42 49 47zM812 472c-2 7 -8 13 -15 15h-296c-268 0 -296 0 -299 -1c-6 -2 -12 -7 -14 -13c-1 -3 0 -24 0 -216v-212c2 -7 7 -13 14 -15h596c8 2 11 9 14 15v427zM735 196
c-6 0 -6 0 -6 -6c-2 -20 -14 -38 -29 -47c-24 -15 -55 -12 -76 7c-14 12 -17 28 -20 46h-4c-27 2 -48 20 -56 46c-11 43 20 77 55 79h5v5c3 34 36 66 79 55c25 -7 43 -27 46 -53v-6s3 -2 6 -2c32 -2 61 -32 56 -68c-4 -29 -27 -52 -56 -56zM260 320c2 0 35 1 73 1
c66 0 71 -1 76 -2c31 -6 58 -37 47 -77c-7 -26 -25 -37 -51 -46h-71c-56 0 -71 0 -74 1c-22 5 -39 19 -47 38c-15 37 8 77 47 85z" />
  </g>

</svg>
