<?xml version="1.0" standalone="no"?>
<!DOCTYPE svg PUBLIC "-//W3C//DTD SVG 1.1//EN" "http://www.w3.org/Graphics/SVG/1.1/DTD/svg11.dtd" >
<svg xmlns="http://www.w3.org/2000/svg" xmlns:xlink="http://www.w3.org/1999/xlink" version="1.1" viewBox="-10 0 1010 1000">
  <g transform="matrix(1 0 0 -1 0 800)">
   <path fill="currentColor"
d="M238 695c39.2318 6.53863 64.8638 -18.5234 73 -47c1 -4 1 -7 1 -20l1 -16h416v14c0 46.029 30.5861 79.1035 79 67c25 -7 43 -27 46 -53v-42h2c5 -2 17 -10 24 -15c33 -25 54 -63 57 -104v-226c0 -206 0 -218 -1 -224c-12.2716 -67.4941 -64.2735 -117.979 -129 -124
c-9 -1 -605 -1 -614 0c-70.0621 8.2426 -119.084 58.5525 -129 124c-1 7 -1 18 -1 229c0 246 0 226 4 244c12.7211 54.3539 58.937 100.277 120 109l1 16c0 14 0 17 1 21c6 24 25 42 49 47zM812 472c-2.08653 6.94866 -8.0544 12.9123 -15 15h-296c-268 0 -296 0 -299 -1
c-6 -2 -12 -7 -14 -13c-1 -3 0 -24 0 -216v-212c2.19773 -6.75189 6.96687 -13.085 14 -15h596c7.65032 1.81811 10.9132 8.62914 14 15v427zM735 196c-5.76051 0 -6 -0.243243 -6 -6c-1.99848 -19.9848 -13.6697 -38.2398 -29 -47c-24 -15 -55 -12 -76 7
c-13.603 12.3664 -17.0482 28.289 -20 46h-4c-27 2 -48 20 -56 46c-10.8121 43.2483 20.28 76.52 55 79h5v5c2.51085 33.8964 35.6417 65.8396 79 55c25 -7 43 -27 46 -53v-6s3 -2 6 -2c31.7742 -1.76523 61.1961 -31.6273 56 -68
c-3.67661 -29.4129 -26.7136 -52.3392 -56 -56zM260 320c-39.0136 -7.80273 -61.8602 -47.8494 -47 -85c8 -19 25 -33 47 -38c3 -1 18 -1 74 -1h71c25.765 8.58833 43.8628 19.8304 51 46c11.4208 39.9729 -16.0268 70.8054 -47 77c-5 1 -10 2 -76 2c-38 0 -71 -1 -73 -1z
" />
  </g>

</svg>
