<?xml version="1.0" standalone="no"?>
<!DOCTYPE svg PUBLIC "-//W3C//DTD SVG 1.1//EN" "http://www.w3.org/Graphics/SVG/1.1/DTD/svg11.dtd" >
<svg xmlns="http://www.w3.org/2000/svg" xmlns:xlink="http://www.w3.org/1999/xlink" version="1.1" viewBox="-10 0 1010 1000">
  <g transform="matrix(1 0 0 -1 0 800)">
   <path fill="currentColor"
d="M64 563c8 32 36 57 77 47c24 -6 41 -24 46 -50v-111c0 -61 1 -106 1 -106c4 43 45 80 89 82c41 2 80 -24 93 -63c2 -6 4 -18 4 -22c0 0 1 6 1 15c0 40 20 64 52 69c5 1 32 1 232 1h226c26 -9 45 -22 51 -49c1 -5 1 -12 1 -170s0 -164 -1 -169c-14 -63 -105 -64 -122 -2
c-1 5 -1 7 -1 41l-1 36h-624l-1 -36c0 -34 0 -36 -1 -41c-7 -28 -30 -46 -58 -47c-30 -2 -57 19 -64 49c-1 5 -1 13 -1 263s0 258 1 263zM303 353c-14 14 -32 12 -44 0c-34 -34 36 -81 53 -29c3 10 -1 21 -9 29zM188 322v-84h43s42 -1 37 0c-35 5 -64 30 -75 63
c-2 5 -5 16 -5 21zM374 320c-4 -41 -39 -77 -82 -82h83v86s-1 -2 -1 -4zM500 300v-62h312v62h-312z" />
  </g>

</svg>
