<?xml version="1.0" standalone="no"?>
<!DOCTYPE svg PUBLIC "-//W3C//DTD SVG 1.1//EN" "http://www.w3.org/Graphics/SVG/1.1/DTD/svg11.dtd" >
<svg xmlns="http://www.w3.org/2000/svg" xmlns:xlink="http://www.w3.org/1999/xlink" version="1.1" viewBox="-10 0 1010 1000">
  <g transform="matrix(1 0 0 -1 0 800)">
   <path fill="currentColor"
d="M365 665c33.3327 44.4436 82.8896 78.9012 154 71c48.461 -7.85854 95.8631 -37.4385 119 -76l10 -5c44 -23 79 -45 107 -69c11 -10 34 -31 42 -41c49.975 -59.2297 78 -136.901 78 -242c0 -47 7 -100 17 -126l1 -5c26.7587 -8.91956 52.9166 -34.3336 43 -74
c-6 -25 -26 -43 -51 -47c-5 -1 -18 -1 -103 -1h-99v-2c-16.2944 -92.3351 -57.7267 -159.932 -138 -180c-16 -4 -25 -5 -45 -5c-18 0 -28 1 -42 4c-75.6717 18.3077 -127.63 87.4068 -141 181v2h-99c-85 0 -98 0 -103 1c-30.5151 4.69463 -61.468 34.1279 -51 76
c5.58761 22.3504 20.6164 37.5388 43 45l2 7c10 27 15 68 16 124c0 14 1 30 1 35c7.71362 110.562 50.7532 191.294 120 249c27 23 59 43 102 66l14 7zM505 611c-27.3159 4.55265 -41.9041 -26.2055 -53 -41c-6 -7 -11 -10 -31 -20c-57 -29 -87 -50 -113 -76
c-35 -35 -52 -77 -57 -140c0 -4 -1 -20 -1 -34c-1 -46 -5 -84 -11 -115c-1 -5 -1 -10 -1 -10h524s0 5 -1 10c-6 31 -10 69 -11 115c0 14 -1 30 -1 34c-5 63 -22 104 -57 140c-25.4834 26.5027 -79.0879 59.5439 -134 87c-2 1 -6 5 -9 8c-5 5 -8 9 -14 20
c-6 10 -17 19 -30 22zM446 43c7 -26 19 -44 32 -51c7 -4 11 -4 22 -4s15 0 22 4c15.116 8.13936 26.1068 30.374 34 58h-112l2 -7z" />
  </g>

</svg>
