<?xml version="1.0" standalone="no"?>
<!DOCTYPE svg PUBLIC "-//W3C//DTD SVG 1.1//EN" "http://www.w3.org/Graphics/SVG/1.1/DTD/svg11.dtd" >
<svg xmlns="http://www.w3.org/2000/svg" xmlns:xlink="http://www.w3.org/1999/xlink" version="1.1" viewBox="-10 0 1010 1000">
  <g transform="matrix(1 0 0 -1 0 800)">
   <path fill="currentColor"
d="M365 665c33 44 83 79 154 71c48 -8 96 -37 119 -76l10 -5c44 -23 79 -45 107 -69c11 -10 34 -31 42 -41c50 -59 78 -137 78 -242c0 -47 7 -100 17 -126c2 -5 1 -5 4 -6c25 -10 50 -35 40 -73c-6 -24 -25 -43 -51 -47c-5 -1 -18 -1 -103 -1h-99v-2
c-16 -92 -58 -160 -138 -180c-16 -4 -25 -5 -45 -5c-18 0 -28 1 -42 4c-76 18 -128 87 -141 181v2h-99c-85 0 -98 0 -103 1c-31 5 -61 34 -51 76c6 22 21 38 43 45l1 5c10 26 17 79 17 126c0 132 45 221 121 284c27 23 59 43 102 66l14 7zM505 611c-27 5 -42 -26 -53 -41
c-6 -7 -11 -10 -31 -20c-55 -28 -84 -47 -109 -72c-45 -45 -60 -90 -62 -178c-1 -46 -5 -84 -11 -115c-1 -5 -1 -10 -1 -10h524s0 5 -1 10c-6 31 -10 69 -11 115c0 14 -1 30 -1 34c-5 63 -22 104 -57 140c-25 27 -79 60 -134 87c-2 1 -6 5 -9 8c-5 5 -8 9 -14 20
c-6 10 -17 19 -30 22zM375 425c0 47 46 76 90 56c8 -4 12 -7 24 -19l11 -11l12 12c12 12 15 14 23 18c48 25 100 -21 88 -70c-4 -14 -8 -22 -23 -37l-11 -12l11 -11c15 -15 19 -23 23 -37c1 -4 2 -7 2 -14c0 -52 -57 -78 -98 -51c-2 1 -9 7 -15 13l-12 12l-11 -11
c-15 -15 -25 -23 -49 -25c-33 -1 -65 23 -65 62c0 7 1 10 2 14c4 14 8 22 23 37l11 11l-11 12c-15 15 -19 23 -23 37c-1 4 -2 7 -2 14zM444 50c8 -28 19 -50 34 -58c7 -4 11 -4 22 -4s15 0 22 4c15 8 26 30 34 58h-112z" />
  </g>

</svg>
