<?xml version="1.0" standalone="no"?>
<!DOCTYPE svg PUBLIC "-//W3C//DTD SVG 1.1//EN" "http://www.w3.org/Graphics/SVG/1.1/DTD/svg11.dtd" >
<svg xmlns="http://www.w3.org/2000/svg" xmlns:xlink="http://www.w3.org/1999/xlink" version="1.1" viewBox="-10 0 1010 1000">
  <g transform="matrix(1 0 0 -1 0 800)">
   <path fill="currentColor"
d="M693 695c83 10 148 -73 108 -151c-30 -58 -111 -77 -164 -28c-20 19 -32 39 -32 76s13 58 34 78c14 13 33 22 54 25zM727 583c9 23 -19 37 -33 23c-23 -23 21 -50 33 -23zM562 -1c-7 -34 -32 -58 -75 -52c-22 5 -39 20 -46 41c-3 10 -3 9 -3 88v73l-56 56
c-48 48 -56 56 -59 61c-7 11 -14 29 -9 48c3 11 9 21 16 29c5 5 217 175 222 178c22 11 46 11 67 -3c9 -6 11 -9 47 -63l34 -51h98c31 -4 60 -34 56 -68c-3 -27 -22 -50 -51 -56l-71 -1c-74 0 -75 0 -84 3c-5 2 -13 6 -18 9c-9 6 -10 10 -36 48c-13 20 -25 36 -25 36
s-22 -18 -50 -40l-50 -40l40 -40c43 -44 44 -45 49 -56c5 -12 4 -5 4 -108v-92zM195 237h12c107 1 201 -88 187 -212c-11 -70 -56 -124 -116 -149c-71 -29 -153 -8 -203 42c-27 27 -44 60 -51 97c-4 22 -4 48 0 70c14 78 80 145 171 152zM779 237c5 1 31 0 37 -1
c65 -8 116 -49 142 -99c14 -28 21 -55 21 -87c0 -96 -65 -166 -147 -183c-14 -3 -23 -4 -40 -4s-24 1 -39 4c-81 17 -141 85 -148 167c-1 10 0 32 1 41c12 85 79 151 165 161c4 0 7 1 8 1zM198 112c-41 -8 -64 -52 -46 -89c22 -44 83 -45 108 -8c6 11 10 17 10 35
c0 34 -21 54 -47 61c-6 2 -19 2 -25 1zM836 94c-38 38 -106 14 -106 -44c0 -21 6 -32 17 -43c24 -25 65 -26 89 -1s25 63 0 88z" />
  </g>

</svg>
