<?xml version="1.0" standalone="no"?>
<!DOCTYPE svg PUBLIC "-//W3C//DTD SVG 1.1//EN" "http://www.w3.org/Graphics/SVG/1.1/DTD/svg11.dtd" >
<svg xmlns="http://www.w3.org/2000/svg" xmlns:xlink="http://www.w3.org/1999/xlink" version="1.1" viewBox="-10 0 1010 1000">
  <g transform="matrix(1 0 0 -1 0 800)">
   <path fill="currentColor"
d="M693 695c82.5157 10.3145 147.815 -73.3613 108 -151c-30.0545 -58.2305 -110.561 -76.7917 -164 -28c-20.4624 19.1835 -32 39.4011 -32 76c0 37.2695 12.6893 57.9428 34 78c14 13 33 22 54 25zM727 583c9.29396 23.2349 -18.7866 37.2134 -33 23
c-23.0803 -23.0803 20.9555 -50.1002 33 -23zM562 -1c-6.70993 -33.5496 -31.928 -58.1531 -75 -52c-22 5 -39 20 -46 41c-3 10 -3 9 -3 88v73l-56 56c-48 48 -56 56 -59 61c-7.4516 11.1774 -13.8021 28.7915 -9 48c3 11 9 21 16 29c5 5 217 175 222 178
c21.8467 10.9234 45.5718 11.2855 67 -3c9 -6 11 -9 47 -63l34 -51h98c31.3544 -4.18058 59.741 -34.3308 56 -68c-3.13087 -27.1342 -21.8514 -50.1703 -51 -56l-71 -1c-74 0 -75 0 -84 3c-5 2 -13 6 -18 9c-9 6 -10 10 -36 48c-13 20 -25 36 -25 36s-22 -18 -50 -40
l-50 -40l40 -40c43 -44 44 -45 49 -56c5 -12 4 -5 4 -108v-92zM195 237h12c107.108 1.10421 200.772 -88.056 187 -212c-11.081 -70.1795 -55.6255 -124.403 -116 -149c-71.2728 -28.739 -153.157 -7.84348 -203 42c-27 27 -44 60 -51 97c-4 22 -4 48 0 70
c14.1408 77.7743 80.3694 145.287 171 152zM779 237c5 1 31 0 37 -1c65.0367 -8.39183 116.022 -49.0425 142 -99c14 -28 21 -55 21 -87c0 -96.2576 -65.3877 -165.997 -147 -183c-14 -3 -23 -4 -40 -4s-24 1 -39 4c-81 17 -141 85 -148 167c-1 10 0 32 1 41
c12.4299 84.5235 78.6824 150.845 165 161c4 0 7 1 8 1zM198 112c-41 -8 -64 -52 -46 -89c22.1708 -44.3417 83.0404 -45.4394 108 -8c6.36389 10.6065 10 17.2319 10 35c0 33.8421 -20.6349 53.8095 -47 61c-6 2 -19 2 -25 1zM782 112
c-28.473 -4.38046 -52 -28.0778 -52 -62c0 -21.041 5.99544 -31.9954 17 -43c24 -25 65 -26 89 -1s25 63 0 88c-14 14 -34 21 -54 18z" />
  </g>

</svg>
