<svg width="16" height="16" viewBox="0 0 16 16" fill="none" xmlns="http://www.w3.org/2000/svg">
<path d="M8.00001 12.6667V10L6.00001 8L9.33334 5.33333L10.6667 7.33333H12.6667M5.33334 12C5.33334 13.1046 4.43791 14 3.33334 14C2.22877 14 1.33334 13.1046 1.33334 12C1.33334 10.8954 2.22877 10 3.33334 10C4.43791 10 5.33334 10.8954 5.33334 12ZM14.6667 12C14.6667 13.1046 13.7712 14 12.6667 14C11.5621 14 10.6667 13.1046 10.6667 12C10.6667 10.8954 11.5621 10 12.6667 10C13.7712 10 14.6667 10.8954 14.6667 12ZM12 3.33333C12 3.70152 11.7015 4 11.3333 4C10.9652 4 10.6667 3.70152 10.6667 3.33333C10.6667 2.96514 10.9652 2.66667 11.3333 2.66667C11.7015 2.66667 12 2.96514 12 3.33333Z" stroke="#24282B" stroke-width="2" stroke-linecap="round" stroke-linejoin="round"/>
</svg>
