<?xml version="1.0" standalone="no"?>
<!DOCTYPE svg PUBLIC "-//W3C//DTD SVG 1.1//EN" "http://www.w3.org/Graphics/SVG/1.1/DTD/svg11.dtd" >
<svg xmlns="http://www.w3.org/2000/svg" xmlns:xlink="http://www.w3.org/1999/xlink" version="1.1" viewBox="-10 0 1010 1000">
  <g transform="matrix(1 0 0 -1 0 800)">
   <path fill="currentColor"
d="M252 690c9 31 36 55 76 45c22 -6 39 -22 45 -45c1 -5 2 -7 2 -41v-37h125v37c0 34 1 36 2 41c9 34 42 54 76 45c22 -6 39 -22 45 -45c1 -5 2 -7 2 -42v-37l10 -2c89 -15 174 -78 177 -178c2 -50 -19 -96 -54 -131c81 -81 68 -209 -29 -273c-27 -18 -61 -30 -94 -36
l-10 -2v-37c0 -35 -1 -37 -2 -42c-15 -62 -105 -62 -121 0c-1 5 -2 7 -2 41v37h-125v-37c0 -34 -1 -36 -2 -41c-15 -62 -105 -62 -121 0c-1 5 -2 7 -2 41v37h-34c-27 0 -35 -1 -39 0c-29 4 -60 36 -50 76c6 23 26 44 50 48c4 1 12 0 39 0h34v376h-34c-27 0 -35 -1 -39 0
c-29 4 -60 36 -50 76c6 23 26 44 50 48c4 1 12 0 39 0h34v37c0 34 1 36 2 41zM375 488v-126h113c76 0 116 1 120 1c30 3 59 18 72 37c14 21 5 45 -8 58c-15 15 -39 26 -64 29c-4 0 -45 1 -120 1h-113zM375 238v-126h113c76 0 116 1 120 1c30 3 59 18 72 37c14 21 5 45 -8 58
c-15 15 -39 26 -64 29c-4 0 -45 1 -120 1h-113z" />
  </g>

</svg>
