<?xml version="1.0" standalone="no"?>
<!DOCTYPE svg PUBLIC "-//W3C//DTD SVG 1.1//EN" "http://www.w3.org/Graphics/SVG/1.1/DTD/svg11.dtd" >
<svg xmlns="http://www.w3.org/2000/svg" xmlns:xlink="http://www.w3.org/1999/xlink" version="1.1" viewBox="-10 0 1010 1000">
  <g transform="matrix(1 0 0 -1 0 800)">
   <path fill="currentColor"
d="M141 735c8 -2 15 -5 21 -10c4 -2 756 -751 765 -766c7 -10 10 -18 10 -34c0 -53 -57 -79 -98 -51c-2 1 -22 21 -52 51l-49 49l-108 -54c-120 -60 -112 -56 -127 -57c-32 -1 -58 19 -65 52v117l-1 117l-73 -73c-40 -40 -76 -75 -78 -77c-39 -30 -98 0 -98 51
c0 10 1 16 4 24c5 12 0 7 114 121l106 105l-168 168c-150 150 -168 168 -171 173c-32 48 13 108 68 94zM439 688c8 32 36 57 77 47c6 -1 17 -7 136 -66c139 -69 136 -67 144 -76c17 -18 23 -52 6 -77c-3 -5 -10 -13 -53 -56c-28 -28 -52 -52 -55 -54
c-40 -28 -100 -4 -100 50c0 10 2 16 5 24c4 10 7 14 27 34l18 19l-41 20c-23 11 -41 21 -41 21c-4 -27 -21 -46 -46 -53c-34 -9 -69 12 -77 47c-1 5 -1 8 -1 60s0 55 1 60zM562 149v-123l41 21c22 11 41 20 41 20s-18 19 -41 41z" />
  </g>

</svg>
