<?xml version="1.0" standalone="no"?>
<!DOCTYPE svg PUBLIC "-//W3C//DTD SVG 1.1//EN" "http://www.w3.org/Graphics/SVG/1.1/DTD/svg11.dtd" >
<svg xmlns="http://www.w3.org/2000/svg" xmlns:xlink="http://www.w3.org/1999/xlink" version="1.1" viewBox="-10 0 1010 1000">
  <g transform="matrix(1 0 0 -1 0 800)">
   <path fill="currentColor"
d="M438 685c6.88798 34.4399 35.692 60.577 78 50c6 -1 17 -7 136 -66c139 -69 136 -67 144 -76c10.6122 -12.1282 21.0347 -32.8614 15 -57c-2 -7 -5 -14 -9 -20c-3 -5 -15 -18 -108 -111l-106 -105l106 -105c114 -114 109 -109 114 -121c3 -8 4 -14 4 -24
c0 -20.0335 -6.69586 -31.3698 -16 -43c-8 -9 -5 -7 -144 -76c-145 -72 -134 -67 -149 -68c-31.9346 -1.06449 -58.3952 18.9762 -65 52v117l-1 117l-73 -73c-40 -40 -76 -75 -78 -77c-35.7943 -27.84 -87.8092 -2.38902 -97 37c-4.78938 19.1575 1.56921 36.8538 9 48
c3 5 15 18 108 111l106 105l-106 105c-93 93 -105 106 -108 111c-7.4516 11.1774 -13.8021 28.7915 -9 48c3 12 9 22 17 30c22 21 56 25 80 7c2 -2 38 -37 78 -77l73 -73l1 117v117zM562 574v-123l41 41c23 22 41 41 41 41s-19 9 -41 20zM114 362c4 1 12 0 44 0h39
c25.9421 -8.64736 43.8666 -20.6553 51 -48c9.82512 -39.3005 -18.0495 -66.9694 -45 -74l-6 -2h-38c-33 0 -39 -1 -44 0c-37.9737 5.84211 -70.2495 53.6258 -42 96c9 14 24 25 41 28zM750 300c0 33.617 24.4606 57.1401 52 62c4 1 12 0 44 0h39
c25.9421 -8.64736 43.8666 -20.6553 51 -48c9.82512 -39.3005 -18.0495 -66.9694 -45 -74l-6 -2h-39c-33 0 -39 -1 -44 0c-27.3023 4.20036 -52 30.0714 -52 62zM562 88v-62l41 21c22 11 41 20 41 20s-18 19 -41 41l-41 41v-61z" />
  </g>

</svg>
