<?xml version="1.0" standalone="no"?>
<!DOCTYPE svg PUBLIC "-//W3C//DTD SVG 1.1//EN" "http://www.w3.org/Graphics/SVG/1.1/DTD/svg11.dtd" >
<svg xmlns="http://www.w3.org/2000/svg" xmlns:xlink="http://www.w3.org/1999/xlink" version="1.1" viewBox="-10 0 1010 1000">
  <g transform="matrix(1 0 0 -1 0 800)">
   <path fill="currentColor"
d="M438 685c7 34 36 61 78 50c6 -1 17 -7 136 -66c139 -69 136 -67 144 -76c16.6124 -18.1226 22.6788 -51.9817 6 -77c-3 -5 -15 -18 -108 -111l-106 -105l106 -105c114 -114 109 -109 114 -121c3 -8 4 -14 4 -24c0 -20 -7 -31 -16 -43c-8 -9 -5 -7 -144 -76
c-145 -72 -134 -67 -149 -68c-32 -1 -58 19 -65 52v117l-1 117l-73 -73c-40 -40 -76 -75 -78 -77c-36 -28 -88 -2 -97 37c-5 19 2 37 9 48c3 5 15 18 108 111l106 105l-106 105c-93 93 -105 106 -108 111c-7 11 -14 29 -9 48c3 12 9 22 17 30c22 21 56 25 80 7
c2 -2 38 -37 78 -77l73 -73l1 117v117zM562 574v-123l41 41c23 22 41 41 41 41s-19 9 -41 20zM562 149v-123l41 21c22 11 41 20 41 20s-18 19 -41 41z" />
  </g>

</svg>
