<?xml version="1.0" standalone="no"?>
<!DOCTYPE svg PUBLIC "-//W3C//DTD SVG 1.1//EN" "http://www.w3.org/Graphics/SVG/1.1/DTD/svg11.dtd" >
<svg xmlns="http://www.w3.org/2000/svg" xmlns:xlink="http://www.w3.org/1999/xlink" version="1.1" viewBox="-10 0 1010 1000">
  <g transform="matrix(1 0 0 -1 0 800)">
   <path fill="currentColor"
d="M141 735c8 -2 15 -5 21 -10c3.65769 -2.43846 755.892 -750.819 765 -766c6.63016 -9.94524 10 -17.7625 10 -34c0 -52.9614 -56.5999 -78.6001 -98 -51c-2 1 -22 21 -52 51l-49 49l-108 -54c-120 -60 -112 -56 -127 -57c-31.9346 -1.06449 -58.3952 18.9762 -65 52v117
l-1 117l-73 -73c-40 -40 -76 -75 -78 -77c-38.5399 -29.9755 -98 0.305919 -98 51c0 10 1 16 4 24c5 12 0 7 114 121l106 105l-168 168c-150 150 -168 168 -171 173c-32.0124 48.0186 12.5572 107.861 68 94zM439 688c7.62288 31.762 36.0921 57.227 77 47
c6 -1 17 -7 136 -66c139 -69 136 -67 144 -76c10.6122 -12.1282 21.0347 -32.8614 15 -57c-2 -7 -5 -14 -9 -20c-3 -5 -10 -13 -53 -56c-28 -28 -52 -52 -55 -54c-39.8541 -27.8979 -100 -4.42021 -100 50c0 10 2 16 5 24c4 10 7 14 27 34l18 19l-41 20
c-23 11 -41 21 -41 21c-4.45857 -26.7514 -20.5053 -46.3492 -46 -53c-34 -9 -69 12 -77 47c-1 5 -1 8 -1 60s0 55 1 60zM562 88v-62l41 21c22 11 41 20 41 20s-18 19 -41 41l-41 41v-61z" />
  </g>

</svg>
