<svg width="16" height="16" viewBox="0 0 16 16" fill="none" xmlns="http://www.w3.org/2000/svg">
<path d="M2 2L14 14" stroke="#24282B" stroke-width="2" stroke-linecap="round" stroke-linejoin="round"/>
<path d="M7.99999 6L7.19999 5.4C6.97273 5.70302 6.93618 6.10843 7.10557 6.44721C7.27496 6.786 7.62122 7 7.99999 7V6ZM10.7 2.4L9.89999 1.8L9.89999 1.8L10.7 2.4ZM6.59952 14.2416L7.38426 14.8614L7.38426 14.8614L6.59952 14.2416ZM12.7273 6.37873L11.9237 5.78353L11.9237 5.78353L12.7273 6.37873ZM6.99999 9L7.98559 9.1691C8.03712 8.86879 7.94891 8.56137 7.746 8.33406C7.5431 8.10676 7.24762 7.98436 6.94342 8.0016L6.99999 9ZM6.15828 14.0462L7.14478 14.21H7.14478L6.15828 14.0462ZM4.31618 9.00437L4.30343 10.0043H4.30343L4.31618 9.00437ZM5.94181 2.16467L4.99719 1.8365L4.99719 1.8365L5.94181 2.16467ZM4.07876 8.69519L5.04666 8.94653V8.94653L4.07876 8.69519ZM10.5 1H6.17572V3H10.5V1ZM8.79999 6.6L11.5 3L9.89999 1.8L7.19999 5.4L8.79999 6.6ZM12.528 5H7.99999V7H12.528V5ZM7.38426 14.8614C8.80723 13.0598 12.3911 8.51269 13.5309 6.97393L11.9237 5.78353C10.8075 7.29049 7.24955 11.8052 5.81477 13.6218L7.38426 14.8614ZM6.01439 8.8309C5.90747 9.45416 5.42553 12.3541 5.17178 13.8825L7.14478 14.21C7.39925 12.6773 7.87986 9.78541 7.98559 9.1691L6.01439 8.8309ZM4.30343 10.0043C4.94647 10.0125 6.51332 10.0292 7.05657 9.9984L6.94342 8.0016C6.4886 8.02738 5.01447 8.01319 4.32892 8.00445L4.30343 10.0043ZM4.99719 1.8365C4.36569 3.6543 3.38788 7.37706 3.11086 8.44386L5.04666 8.94653C5.3309 7.85193 6.28716 4.21784 6.88643 2.49283L4.99719 1.8365ZM5.81477 13.6218C6.29654 13.0118 7.27144 13.4471 7.14478 14.21L5.17178 13.8825C4.96053 15.1548 6.58241 15.8766 7.38426 14.8614L5.81477 13.6218ZM4.32892 8.00445C4.80798 8.01055 5.17125 8.46673 5.04666 8.94653L3.11086 8.44386C2.90502 9.23657 3.50112 9.99406 4.30343 10.0043L4.32892 8.00445ZM6.17572 1C5.65586 1 5.17521 1.32406 4.99719 1.8365L6.88643 2.49283C6.77761 2.80609 6.48472 3 6.17572 3V1ZM10.5 3C9.88196 3 9.52917 2.29443 9.89999 1.8L11.5 3C12.118 2.17595 11.53 1 10.5 1V3ZM12.528 7C11.9746 7 11.5147 6.3357 11.9237 5.78353L13.5309 6.97393C14.1787 6.09927 13.4826 5 12.528 5V7Z" fill="#24282B"/>
</svg>
