<?xml version="1.0" standalone="no"?>
<!DOCTYPE svg PUBLIC "-//W3C//DTD SVG 1.1//EN" "http://www.w3.org/Graphics/SVG/1.1/DTD/svg11.dtd" >
<svg xmlns="http://www.w3.org/2000/svg" xmlns:xlink="http://www.w3.org/1999/xlink" version="1.1" viewBox="-10 0 1010 1000">
  <g transform="matrix(1 0 0 -1 0 800)">
   <path fill="currentColor"
d="M322 -82c0 12.3107 -0.17907 0.689766 41 256h-51c-55 1 -56 1 -67 5c-29.3488 10.2721 -49.7112 33.8231 -53 70c-1 12 -1 13 15 72c10 36 23 88 32 119l7 25l-85 86c-75 75 -85 85 -88 90c-12.358 18.537 -13.5394 47.6909 0 68c16.858 26.2235 55.5173 38.6552 88 17
c12.3996 -12.3996 99.9951 -98.405 125 -123c7.84888 23.5468 27.3014 84.6028 30 90c11 22 30 38 55 43c5 1 10 1 150 1s146 0 151 -1c34.78 -8.695 62 -33.9374 62 -77c0 -17.4355 -3.14093 -28.7114 -10 -39c-2 -3 -25 -34 -51 -69l-48 -63l85 -1c84 0 84 0 89 -1
c15 -4 28 -11 38 -21c22 -21 30 -53 20 -80c-4 -12 -9 -18 -50 -72c-21 -28 -94 -122 -100 -130c-1 -1 24 -26 108 -110c118 -118 113 -112 118 -124c3 -8 4 -14 4 -24c0 -52.9614 -56.5999 -78.6001 -98 -51c-2 1 -41 39 -107 105l-104 104l-37 -48
c-141 -179 -137 -174 -149 -182c-23 -15 -52 -16 -77 -3c-24.6806 12.3403 -43 35.9746 -43 68zM419 611c-3 -9 -32 -107 -32 -109c0 -1 53 -54 54 -54c0 0 2 1 2 2c2 6 9 16 62 86l57 76h-142zM348 363c-2.02345 -7.22662 -15.0531 -57.1593 -17 -63l13 -1
c17 -1 36 -1 54 0l14 1c-21.5984 20.735 -42.9282 41.7384 -64 63zM571 317c25 -25 46 -45 46 -45s23 29 57 73l13 17h-161zM497 214l-20 -120s57 71 62 77c1 1 -3 4 -21 22l-21 21z" />
  </g>

</svg>
