<?xml version="1.0" standalone="no"?>
<!DOCTYPE svg PUBLIC "-//W3C//DTD SVG 1.1//EN" "http://www.w3.org/Graphics/SVG/1.1/DTD/svg11.dtd" >
<svg xmlns="http://www.w3.org/2000/svg" xmlns:xlink="http://www.w3.org/1999/xlink" version="1.1" viewBox="-10 0 1010 1000">
  <g transform="matrix(1 0 0 -1 0 800)">
   <path fill="currentColor"
d="M322 -82c0 12 0 1 41 256h-51c-55 1 -56 1 -67 5c-29 10 -50 34 -53 70c-1 13 -1 13 16 77c33 126 62 228 85 301c9 30 20 60 23 66c12 24 35 41 62 44h290c37 -7 66 -34 66 -78c0 -17 -3 -29 -10 -39c-2 -3 -25 -34 -51 -69l-48 -63l85 -1c84 0 84 0 89 -1
c32 -9 55 -32 61 -64c1 -8 2 -18 0 -26c-3 -15 -7 -23 -25 -47c-53 -71 -151 -195 -333 -427c-44 -56 -50 -62 -60 -69c-23 -15 -52 -16 -77 -3c-25 12 -43 36 -43 68zM419 611c-28 -84 -48 -161 -77 -271c-5 -20 -9 -31 -11 -40l18 -1h56c33 1 39 1 43 0
c28 -5 52 -27 52 -62c0 -7 0 0 -23 -143c0 0 2 1 4 4s19 23 37 46c58 74 120 155 159 205l10 13l-98 1h-99c-42 8 -66 54 -44 93c1 2 28 38 59 80l57 76h-142z" />
  </g>

</svg>
