<?xml version="1.0" standalone="no"?>
<!DOCTYPE svg PUBLIC "-//W3C//DTD SVG 1.1//EN" "http://www.w3.org/Graphics/SVG/1.1/DTD/svg11.dtd" >
<svg xmlns="http://www.w3.org/2000/svg" xmlns:xlink="http://www.w3.org/1999/xlink" version="1.1" viewBox="-10 0 1010 1000">
  <g transform="matrix(1 0 0 -1 0 800)">
   <path fill="currentColor"
d="M322 -82c0 12 0 1 41 256h-51c-55 1 -56 1 -67 5c-29 10 -50 34 -53 70c-1 12 -1 13 15 72c10 36 23 88 32 119l7 25l-85 86c-75 75 -85 85 -88 90c-38 61 36 121 88 85c12 -12 100 -98 125 -123c8 24 27 85 30 90c11 22 30 38 55 43c5 1 10 1 150 1s146 0 151 -1
c35 -9 62 -34 62 -77c0 -17 -3 -29 -10 -39c-2 -3 -25 -34 -51 -69l-48 -63l85 -1c84 0 84 0 89 -1c15 -4 28 -11 38 -21c22 -21 30 -53 20 -80c-4 -12 -9 -18 -50 -72c-21 -28 -94 -122 -100 -130c-1 -1 24 -26 108 -110c118 -118 113 -112 118 -124c3 -8 4 -14 4 -24
c0 -53 -57 -79 -98 -51c-2 1 -41 39 -107 105l-104 104l-37 -48c-141 -179 -137 -174 -149 -182c-23 -15 -52 -16 -77 -3c-25 12 -43 36 -43 68zM419 611c-3 -9 -32 -107 -32 -109c0 -1 53 -54 54 -54c0 0 2 1 2 2c2 6 9 16 62 86l57 76h-142zM348 363
c-2 -7 -15 -57 -17 -63l13 -1c17 -1 36 -1 54 0l14 1c-22 21 -43 42 -64 63zM571 317c25 -25 46 -45 46 -45s23 29 57 73l13 17h-161zM497 214l-20 -120s57 71 62 77c1 1 -3 4 -21 22z" />
  </g>

</svg>
