<?xml version="1.0" standalone="no"?>
<!DOCTYPE svg PUBLIC "-//W3C//DTD SVG 1.1//EN" "http://www.w3.org/Graphics/SVG/1.1/DTD/svg11.dtd" >
<svg xmlns="http://www.w3.org/2000/svg" xmlns:xlink="http://www.w3.org/1999/xlink" version="1.1" viewBox="-10 0 1010 1000">
  <g transform="matrix(1 0 0 -1 0 800)">
   <path fill="currentColor"
d="M322 -82c0 12.3107 -0.17907 0.689766 41 256h-51c-55 1 -56 1 -67 5c-29.3488 10.2721 -49.7112 33.8231 -53 70c-1 13 -1 13 16 77c33 126 62 228 85 301c9 30 20 60 23 66c12 24 35 41 62 44h290c37.4877 -7.49754 66 -33.935 66 -78
c0 -17.4355 -3.14093 -28.7114 -10 -39c-2 -3 -25 -34 -51 -69l-48 -63l85 -1c84 0 84 0 89 -1c32.3842 -8.83204 54.6583 -32.2915 61 -64c1 -8 2 -18 0 -26c-3 -15 -7 -23 -25 -47c-53 -71 -151 -195 -333 -427c-44 -56 -50 -62 -60 -69c-23 -15 -52 -16 -77 -3
c-24.6806 12.3403 -43 35.9746 -43 68zM419 611c-27.886 -83.658 -48.1308 -160.772 -77 -271c-5.12304 -20.4922 -9.22727 -31.1363 -11 -40l18 -1h56c33 1 39 1 43 0c28.3753 -4.93483 52 -27.3564 52 -62c0 -6.87434 -0.255732 -0.331413 -23 -143c0 0 2 1 4 4
s19 23 37 46c58 74 120 155 159 205l10 13l-98 1h-99c-41.8185 8.36369 -65.9047 53.5716 -44 93c1 2 28 38 59 80l57 76h-142l-1 -1z" />
  </g>

</svg>
