<?xml version="1.0" standalone="no"?>
<!DOCTYPE svg PUBLIC "-//W3C//DTD SVG 1.1//EN" "http://www.w3.org/Graphics/SVG/1.1/DTD/svg11.dtd" >
<svg xmlns="http://www.w3.org/2000/svg" xmlns:xlink="http://www.w3.org/1999/xlink" version="1.1" viewBox="-10 0 1010 1000">
  <g transform="matrix(1 0 0 -1 0 800)">
   <path fill="currentColor"
d="M545 132c12 -22 18 -46 18 -72c0 -61 -32 -104 -70 -134c-38 -31 -81 -51 -142 -51c-86 0 -136 49 -156 120c-16 5 -37 12 -52 23c-38 26 -61 64 -67 113c-1 12 -1 36 1 48c16 112 127 230 255 166l122 122l-5 9c-2 5 -5 12 -6 15c-48 128 79 227 189 234
c73 0 123 -25 154 -74c7 -12 15 -28 18 -40c1 -5 2 -4 4 -5c6 -1 19 -6 25 -9c56 -23 94 -74 94 -146c0 -15 -2 -26 -4 -39c-16 -81 -73 -149 -141 -169c-16 -5 -28 -6 -46 -6c-21 1 -39 5 -59 14c-4 2 -7 3 -8 3s-22 -21 -62 -61zM636 600c-27 -3 -50 -14 -66 -30
c-23 -25 -11 -40 10 -63c11 -11 19 -25 19 -45c0 -15 -5 -26 -11 -36c-4 -6 -207 -210 -213 -214c-10 -6 -22 -11 -37 -11c-21 0 -31 7 -44 19c-11 10 -19 15 -28 17c-29 7 -66 -42 -66 -83c0 -33 12 -38 50 -41c37 -3 60 -25 63 -63c2 -27 5 -45 27 -49c33 -6 63 11 80 28
c21 19 25 37 0 65c-6 7 -10 11 -13 18c-8 16 -7 36 0 52c9 20 44 50 215 221c19 15 44 18 66 8c7 -3 11 -7 18 -13c20 -18 33 -23 48 -15c19 10 38 36 45 63c11 42 -2 57 -46 59c-42 3 -62 24 -65 65c-1 38 -16 52 -52 48z" />
  </g>

</svg>
