<?xml version="1.0" standalone="no"?>
<!DOCTYPE svg PUBLIC "-//W3C//DTD SVG 1.1//EN" "http://www.w3.org/Graphics/SVG/1.1/DTD/svg11.dtd" >
<svg xmlns="http://www.w3.org/2000/svg" xmlns:xlink="http://www.w3.org/1999/xlink" version="1.1" viewBox="-10 0 1010 1000">
  <g transform="matrix(1 0 0 -1 0 800)">
   <path fill="currentColor"
d="M545 132c12.3907 -21.6837 18 -46.2756 18 -72c0 -60.9663 -31.95 -103.877 -70 -134c-37.9091 -31.1396 -81.4135 -51 -142 -51c-85.8112 0 -135.693 48.9242 -156 120c-16.4204 5.47346 -36.546 11.9615 -52 23c-38 26 -61 64 -67 113c-1 12 -1 36 1 48
c16.0229 112.161 127.228 229.886 255 166l122 122l-5 9c-2 5 -5 12 -6 15c-48.3637 128.164 79.2452 227.28 189 234c73.2577 0 123.108 -24.5732 154 -74c7 -12 15 -28 18 -40c1 -5 2 -4 4 -5c6 -1 19 -6 25 -9c55.913 -23.2971 94 -73.8272 94 -146c0 -15 -2 -26 -4 -39
c-16 -81 -73 -149 -141 -169c-16 -5 -28 -6 -46 -6c-21 1 -39 5 -59 14c-4 2 -7 3 -8 3s-22 -21 -62 -61zM636 600c-27 -3 -50 -14 -66 -30c-22.6762 -24.9438 -10.8684 -40.3926 10 -63c11.1978 -11.1978 19 -24.5946 19 -45c0 -14.9467 -4.57564 -26.3635 -11 -36
c-4 -6 -207 -210 -213 -214c-9.6522 -6.4348 -22.2252 -11 -37 -11c-20.6502 0 -30.998 7.29822 -44 19c-11 10 -19 15 -28 17c-29.3785 7.34462 -66 -42.338 -66 -83c0 -32.7497 11.9006 -38.1778 50 -41c37.4722 -3.40656 60.4752 -25.128 63 -63
c1.67681 -26.829 5.07238 -44.6145 27 -49c33.3841 -5.56401 63.3197 11.3197 80 28c21.2809 18.6208 25.0775 37.1362 0 65c-6 7 -10 11 -13 18c-8 16 -7 36 0 52c9.06352 19.9397 43.8065 49.8065 215 221c19 15 44 18 66 8c7 -3 11 -7 18 -13c20 -18 33 -23 48 -15
c19 10 38 36 45 63c10.6159 42.4634 -2.17685 57.4349 -46 59c-41.5531 3.19639 -62.4094 23.5496 -65 65c-1.35323 37.8903 -15.85 52.0167 -52 48z" />
  </g>

</svg>
