<?xml version="1.0" standalone="no"?>
<!DOCTYPE svg PUBLIC "-//W3C//DTD SVG 1.1//EN" "http://www.w3.org/Graphics/SVG/1.1/DTD/svg11.dtd" >
<svg xmlns="http://www.w3.org/2000/svg" xmlns:xlink="http://www.w3.org/1999/xlink" version="1.1" viewBox="-10 0 1010 1000">
  <g transform="matrix(1 0 0 -1 0 800)">
   <path fill="currentColor"
d="M239 737c4 1 44 0 263 0h258c27 -4 46 -24 51 -49c1 -5 1 -16 1 -388s0 -383 -1 -388c-5 -23 -22 -41 -45 -47c-18 -4 -36 -1 -48 6c-2 1 -52 39 -111 83l-107 80l-109 -81c-118 -88 -113 -85 -125 -88c-34 -9 -69 12 -77 47c-1 5 -1 16 -1 388s0 383 1 388
c6 25 25 44 50 49zM312 612v-562l77 57c42 31 77 58 79 59c12 7 29 12 48 7c12 -3 10 -2 94 -65l78 -58v562h-376z" />
  </g>

</svg>
