<?xml version="1.0" standalone="no"?>
<!DOCTYPE svg PUBLIC "-//W3C//DTD SVG 1.1//EN" "http://www.w3.org/Graphics/SVG/1.1/DTD/svg11.dtd" >
<svg xmlns="http://www.w3.org/2000/svg" xmlns:xlink="http://www.w3.org/1999/xlink" version="1.1" viewBox="-10 0 1010 1000">
  <g transform="matrix(1 0 0 -1 0 800)">
   <path fill="currentColor"
d="M141 735c8 -2 15 -5 21 -10c3.65769 -2.43846 755.892 -750.819 765 -766c6.63016 -9.94524 10 -17.7625 10 -34c0 -52.9614 -56.5999 -78.6001 -98 -51c-2.37952 1.18976 -29.1283 26.262 -31 28c0 0 -9.97124 -17.9712 -12 -20
c-15.4156 -17.6178 -52.1742 -26.4955 -78 -11c-2 1 -52 39 -111 83l-107 80l-109 -81c-118 -88 -113 -85 -125 -88c-36.4959 -10.4274 -71.1637 15.8184 -78 50v305l-1 304l-55 56c-48 48 -56 56 -59 61c-32.0124 48.0186 12.5572 107.861 68 94zM438 675
c0 33.7148 23.7213 57.1861 51 62c4 1 26 0 138 0h133c26.9752 -4.49587 45.5523 -23.9407 51 -49c1 -5 1 -11 1 -169s0 -165 -1 -170c-6 -28 -30 -48 -58 -49c-31.8922 -1.06307 -58.4037 20.0187 -65 53v130l-1 129h-96c-103 0 -101 1 -111 4
c-23.1312 9.25248 -42 26.5941 -42 59zM312 224v-174l77 57c42 31 77 58 79 59c12.4391 7.46344 29.0153 11.7462 48 7c11 -3 15 -6 42 -26l25 -18l-270 270s-1 -79 -1 -175z" />
  </g>

</svg>
