<?xml version="1.0" standalone="no"?>
<!DOCTYPE svg PUBLIC "-//W3C//DTD SVG 1.1//EN" "http://www.w3.org/Graphics/SVG/1.1/DTD/svg11.dtd" >
<svg xmlns="http://www.w3.org/2000/svg" xmlns:xlink="http://www.w3.org/1999/xlink" version="1.1" viewBox="-10 0 1010 1000">
  <g transform="matrix(1 0 0 -1 0 800)">
   <path fill="currentColor"
d="M684 728h18c35 -1 61 -6 116 -24c56 -18 91 -35 103 -49c7 -8 13 -19 15 -29c1 -5 1 -15 1 -326s0 -321 -1 -326c-6.00129 -28.5061 -33.7127 -54.2145 -71 -48c0 0 -130.779 42.1947 -134 43c-16 4 -23 4 -43 4s-28 0 -44 -4c-4 -1 -35 -11 -68 -22
c-62 -21 -66 -22 -76 -22s-14 1 -76 22c-33 11 -64 21 -68 22c-16 4 -24 4 -44 4s-27 0 -43 -4c-2.80081 -0.700203 -133.857 -42.9643 -134 -43c-33 -6 -63 15 -71 48c-1 5 -1 15 -1 326s0 321 1 326c4 19 16 33 33 42c7 3 124 42 139 46
c83.855 19.3512 127.222 9.7796 215 -19l49 -17l53 18c29 10 58 18 63 20c21 6 42 10 68 12zM812 573c-45.7772 17.1664 -97.7713 39.8072 -157 25c-3 -1 -25 -8 -49 -16l-44 -15v-246c0 -199 0 -246 1 -246c0 0 9 2 18 5c30 10 47 14 74 17c15 2 53 2 68 0
c24 -3 43 -7 70 -16c10 -3 19 -6 19 -6c1 0 0 47 0 249v249zM296 598c-32.5384 -3.25384 -34.1453 -4.75086 -72 -18l-36 -13v-246c0 -199 -1 -246 0 -246c0 0 9 3 19 6c28 9 48 13 73 16c15 2 53 2 68 0c24 -3 43 -7 70 -16c10 -3 19 -6 19 -6c1 0 1 47 1 246v246l-37 13
c-52 17 -58 18 -86 18h-19z" />
  </g>

</svg>
