<?xml version="1.0" standalone="no"?>
<!DOCTYPE svg PUBLIC "-//W3C//DTD SVG 1.1//EN" "http://www.w3.org/Graphics/SVG/1.1/DTD/svg11.dtd" >
<svg xmlns="http://www.w3.org/2000/svg" xmlns:xlink="http://www.w3.org/1999/xlink" version="1.1" viewBox="-10 0 1010 1000">
  <g transform="matrix(1 0 0 -1 0 800)">
   <path fill="currentColor"
d="M141 735c8 -2 15 -5 21 -10c4 -2 756 -751 765 -766c7 -10 10 -18 10 -34c0 -53 -57 -79 -98 -51c-2 1 -29 26 -31 28c0 0 -10 -18 -12 -20c-15 -18 -52 -26 -78 -11c-2 1 -52 39 -111 83l-107 80l-109 -81c-118 -88 -113 -85 -125 -88c-36 -10 -71 16 -78 50v305l-1 304
l-55 56c-48 48 -56 56 -59 61c-32 48 13 108 68 94zM438 675c0 34 24 57 51 62c4 1 26 0 138 0h133c27 -4 46 -24 51 -49c1 -5 1 -11 1 -169s0 -165 -1 -170c-6 -28 -30 -48 -58 -49c-32 -1 -58 20 -65 53v130l-1 129h-96c-103 0 -101 1 -111 4c-23 9 -42 27 -42 59z
M312 224v-174l77 57c42 31 77 58 79 59c12 7 29 12 48 7c11 -3 15 -6 42 -26l25 -18l-270 270s-1 -79 -1 -175z" />
  </g>

</svg>
