<?xml version="1.0" standalone="no"?>
<!DOCTYPE svg PUBLIC "-//W3C//DTD SVG 1.1//EN" "http://www.w3.org/Graphics/SVG/1.1/DTD/svg11.dtd" >
<svg xmlns="http://www.w3.org/2000/svg" xmlns:xlink="http://www.w3.org/1999/xlink" version="1.1" viewBox="-10 0 1010 1000">
  <g transform="matrix(1 0 0 -1 0 800)">
   <path fill="currentColor"
d="M489 737c4 1 34 0 200 0h196c26.9752 -4.49587 45.5523 -23.9407 51 -49c1 -5 1 -14 1 -294s0 -290 -1 -295c-5.95755 -27.4047 -25.1979 -40.3993 -51 -49h-54c-46 0 -55 0 -60 1c-28.8629 4.44044 -52 26.8554 -52 61c0 31.9698 19.815 50.726 43 60c8 3 13 3 32 3h18
v437h-258c-8.8505 -13.2758 -21.2 -24.52 -38 -29c-34 -9 -69 12 -77 47c-1 4 -1 8 -1 29s0 25 1 29c6 25 25 44 50 49zM239 549c4 1 34 1 200 1h196c25.8068 -8.60225 45.0365 -21.5678 51 -49c1 -5 1 -15 1 -295s0 -289 -1 -294c-5 -23 -22 -41 -45 -47
c-17.7276 -4.43189 -35.9621 -1.22276 -48 6c-2 1 -37 28 -79 59l-76 57l-78 -57c-84 -63 -82 -62 -94 -65c-34 -9 -69 12 -77 47c-1 5 -1 14 -1 294s0 290 1 295c6 25 25 43 50 48zM312 237v-187l45 34c25 18 47 34 49 35c12.2941 7.37644 27.9873 11.7532 47 7
c12 -3 13 -4 63 -41l46 -35v375h-250v-188z" />
  </g>

</svg>
