<?xml version="1.0" standalone="no"?>
<!DOCTYPE svg PUBLIC "-//W3C//DTD SVG 1.1//EN" "http://www.w3.org/Graphics/SVG/1.1/DTD/svg11.dtd" >
<svg xmlns="http://www.w3.org/2000/svg" xmlns:xlink="http://www.w3.org/1999/xlink" version="1.1" viewBox="-10 0 1010 1000">
  <g transform="matrix(1 0 0 -1 0 800)">
   <path fill="currentColor"
d="M375 675c0 -33.5162 -23.7874 -57.1312 -53 -62h-67l-67 -1v-624l67 -1h67c27.0471 -4.50784 44.4776 -22.9976 51 -48c10.3258 -41.3033 -19.9215 -70.8203 -51 -76h-101c-88 0 -101 -1 -106 0c-25.6715 3.94946 -44.8583 24.4332 -51 49c-1 5 -1 16 -1 388s0 383 1 388
c6 25 25 44 50 49c4 1 22 0 107 0h101c29.2192 -4.86987 53 -28.5254 53 -62zM677 737c-27.2973 -4.81717 -52 -28.688 -52 -62c0 -31.2212 20.3021 -49.9209 43 -59c9 -3 10 -4 80 -4h64v-624h-64c-55 0 -66 0 -71 -1c-29.2486 -4.49979 -60.0465 -35.814 -50 -76
c5.86748 -23.4699 25.5328 -44.2358 50 -48c5 -1 19 0 107 0h101c26.9752 4.49587 45.5523 23.9407 51 49c1 5 1 16 1 388s0 383 -1 388c-5.44627 25.0528 -24.0371 44.5062 -51 49h-102c-85 0 -102 1 -106 0z" />
  </g>

</svg>
