<?xml version="1.0" standalone="no"?>
<!DOCTYPE svg PUBLIC "-//W3C//DTD SVG 1.1//EN" "http://www.w3.org/Graphics/SVG/1.1/DTD/svg11.dtd" >
<svg xmlns="http://www.w3.org/2000/svg" xmlns:xlink="http://www.w3.org/1999/xlink" version="1.1" viewBox="-10 0 1010 1000">
  <g transform="matrix(1 0 0 -1 0 800)">
   <path fill="currentColor"
d="M375 675c0 -34 -24 -57 -53 -62h-67l-67 -1v-624l67 -1h67c27 -5 44 -23 51 -48c10 -41 -20 -71 -51 -76h-101c-88 0 -101 -1 -106 0c-26 4 -45 24 -51 49c-1 5 -1 16 -1 388s0 383 1 388c6 25 25 44 50 49c4 1 22 0 107 0h101c29 -5 53 -29 53 -62zM677 737
c4 1 21 0 106 0h102c27 -4 46 -24 51 -49c1 -5 1 -16 1 -388s0 -383 -1 -388c-5 -25 -24 -45 -51 -49h-101c-88 0 -102 -1 -107 0c-24 4 -44 25 -50 48c-10 40 21 72 50 76c5 1 16 1 71 1h64v624h-64c-70 0 -71 1 -80 4c-23 9 -43 28 -43 59c0 33 25 57 52 62z" />
  </g>

</svg>
