<?xml version="1.0" standalone="no"?>
<!DOCTYPE svg PUBLIC "-//W3C//DTD SVG 1.1//EN" "http://www.w3.org/Graphics/SVG/1.1/DTD/svg11.dtd" >
<svg xmlns="http://www.w3.org/2000/svg" xmlns:xlink="http://www.w3.org/1999/xlink" version="1.1" viewBox="-10 0 1010 1000">
  <g transform="matrix(1 0 0 -1 0 800)">
   <path fill="currentColor"
d="M354 737h19c34 0 56 -20 63 -48c8 -34 -12 -60 -33 -70c-25 -14 -74 1 -84 -27c-5 -10 -6 -19 -7 -46c-1 -22 0 -32 -2 -46c-10 -86 -49 -142 -104 -190c-6 -5 -11 -10 -11 -10s5 -5 11 -10c56 -49 95 -105 104 -193c2 -17 1 -55 8 -68c10 -21 30 -39 58 -42
c35 0 61 -26 61 -62c0 -57 -52 -70 -103 -57c-79 23 -141 86 -146 185c-1 40 -7 65 -18 88c-9 19 -20 32 -50 58c-32.7457 28.3796 -57 49.1435 -57 101c0 49 28 76 59 103c43 37 66 70 66 147c1 29 2 45 6 62c19 75 75 119 160 125zM614 737c12 2 42 0 64 -4
c72 -14 118 -63 131 -136c2 -13 2 -25 3 -47c0 -77 23 -110 66 -147c23 -20 36 -34 44 -48c11 -18 20 -45 14 -74c-8 -38 -26 -56 -56 -82c-30 -27 -41 -39 -50 -58c-11 -23 -17 -48 -18 -88c-3 -61 -22 -101 -61 -138c-35 -33 -78 -50 -121 -52c-13 0 -23 1 -33 6
c-21 10 -41 37 -33 70c7 27 28 46 60 49c20 2 31 8 43 20c14 14 21 23 21 50c1 19 0 24 2 39c7 62 27 110 63 153c9 12 39 37 52 50c-23 21 -47 45 -61 62c-38 50 -53 104 -56 184c-2 53 -11 66 -62 66c-34 0 -63 26 -63 63c0 34 24 57 51 62z" />
  </g>

</svg>
