<?xml version="1.0" standalone="no"?>
<!DOCTYPE svg PUBLIC "-//W3C//DTD SVG 1.1//EN" "http://www.w3.org/Graphics/SVG/1.1/DTD/svg11.dtd" >
<svg xmlns="http://www.w3.org/2000/svg" xmlns:xlink="http://www.w3.org/1999/xlink" version="1.1" viewBox="-10 0 1010 1000">
  <g transform="matrix(1 0 0 -1 0 800)">
   <path fill="currentColor"
d="M354 737h19c34.4033 0 55.7548 -20.2268 63 -48c8.49478 -33.9791 -12.26 -60.24 -33 -70c-24.8975 -13.8319 -73.6381 0.631846 -84 -27c-5 -10 -6 -19 -7 -46c-1 -22 0 -32 -2 -46c-9.54989 -85.949 -48.8092 -142.008 -104 -190c-6 -5 -11 -10 -11 -10s5 -5 11 -10
c56.4432 -49.081 94.5388 -104.695 104 -193c2.49628 -17.474 0.506204 -54.5112 8 -68c9.86469 -21.1386 30.2725 -39.2273 58 -42c34.8459 0 61 -26.2493 61 -62c0 -56.9253 -52.1067 -69.7233 -103 -57c-79.2978 22.6565 -141.491 85.7942 -146 185c-1 40 -7 65 -18 88
c-9 19 -20 32 -50 58c-29.762 26.0417 -47.5062 43.7778 -56 82c-1 6 -1 9 -1 19c0 48.7043 27.7608 76.2236 59 103c42.7343 36.6294 66 69.8679 66 147c1 29 2 45 6 62c19 75 75 119 160 125zM614 737c-27.2531 -4.80938 -51 -28.3986 -51 -62
c0 -37.1434 28.5897 -63 63 -63c50.6971 0 60.0249 -12.6724 62 -66c3.49864 -80.4687 17.5979 -133.68 56 -184c14.1024 -17.3568 38.2474 -41.3158 61 -62c-13.3928 -13.3927 -42.6636 -38.3295 -52 -50c-36 -43 -56 -91 -63 -153c-2 -15 -1 -20 -2 -39
c0 -27.0116 -6.59292 -35.5929 -21 -50c-11.8469 -11.8469 -22.659 -17.7399 -43 -20c-32.4061 -3.24061 -53.2434 -21.9736 -60 -49c-8.36088 -33.4435 12.0321 -60.1328 33 -70c10 -5 20 -6 33 -6c43 2 86 19 121 52c39.4638 36.8329 57.7754 76.7334 61 138
c1 40 7 65 18 88c9 19 20 31 50 58c29.762 26.0417 47.5062 43.7778 56 82c6.48962 29.2033 -2.84405 56.4692 -14 74c-8 14 -21 28 -44 48c-42.7343 36.6294 -66 69.8679 -66 147c-1 22 -1 34 -3 47c-13 73 -59 122 -131 136c-22 4 -52 6 -64 4z" />
  </g>

</svg>
