<?xml version="1.0" standalone="no"?>
<!DOCTYPE svg PUBLIC "-//W3C//DTD SVG 1.1//EN" "http://www.w3.org/Graphics/SVG/1.1/DTD/svg11.dtd" >
<svg xmlns="http://www.w3.org/2000/svg" xmlns:xlink="http://www.w3.org/1999/xlink" version="1.1" viewBox="-10 0 1010 1000">
  <g transform="matrix(1 0 0 -1 0 800)">
   <path fill="currentColor"
d="M302 674c4 1 34 1 200 1h195c25 -8 44 -21 51 -48c1 -5 2 -5 2 -72v-67l67 -1h68c27 -4 46 -24 51 -49c1 -5 1 -13 1 -263s0 -258 -1 -263c-5 -25 -24 -45 -51 -49h-383c-339 0 -382 -1 -387 0c-26 4 -45 24 -51 49c-1 5 -1 13 -1 263s0 258 1 263c5 22 20 39 41 46
c9 3 10 4 80 4h65v67c0 67 1 67 2 72c7 25 26 43 50 47zM375 550v-62h250v62h-250zM188 320c0 -40 0 -43 1 -43s5 -2 10 -4c106 -42 220 -66 367 -56c82 6 161 25 234 55l12 5v85h-153c-127 0 -153 1 -149 0c26 -4 45 -25 51 -48c2 -7 2 -22 0 -29c-9 -30 -32 -53 -74 -47
c-42 8 -62 58 -39 96c9 14 24 25 41 28c4 1 -14 0 -148 0h-153v-42zM812 142c-193 -71 -437 -66 -624 0v-154h624v154z" />
  </g>

</svg>
