<?xml version="1.0" standalone="no"?>
<!DOCTYPE svg PUBLIC "-//W3C//DTD SVG 1.1//EN" "http://www.w3.org/Graphics/SVG/1.1/DTD/svg11.dtd" >
<svg xmlns="http://www.w3.org/2000/svg" xmlns:xlink="http://www.w3.org/1999/xlink" version="1.1" viewBox="-10 0 1010 1000">
  <g transform="matrix(1 0 0 -1 0 800)">
   <path fill="currentColor"
d="M302 674c4 1 34 1 200 1h195c25.0298 -8.34327 43.9165 -20.8467 51 -48c1 -5 2 -5 2 -72v-67l67 -1h68c26.9752 -4.49587 45.5523 -23.9407 51 -49c1 -5 1 -13 1 -263s0 -258 -1 -263c-5.44627 -25.0528 -24.0371 -44.5062 -51 -49h-383c-339 0 -382 -1 -387 0
c-25.6715 3.94946 -44.8583 24.4332 -51 49c-1 5 -1 13 -1 263s0 258 1 263c5 22 20 39 41 46c9 3 10 4 80 4h65v67c0 67 1 67 2 72c7 25 26 43 50 47zM375 550v-62h250v62h-250zM188 320c0 -40 0 -43 1 -43s5 -2 10 -4c105.954 -42.3815 220.002 -66.2557 367 -56
c82 6 161 25 234 55l12 5v85h-153c-127 0 -153 1 -149 0c26.1013 -3.72876 44.8352 -24.5737 51 -48c2 -7 2 -22 0 -29c-8.85777 -30.3695 -32.2861 -52.9591 -74 -47c-42.0737 8.41473 -62.0722 57.5463 -39 96c9 14 24 25 41 28c4 1 -14 0 -148 0h-153v-42zM188 65v-77
h624v154s-5 -2 -12 -4c-187.921 -64.9821 -408.618 -61.9242 -593 -2c-10 3 -19 6 -19 6v-77z" />
  </g>

</svg>
