<?xml version="1.0" standalone="no"?>
<!DOCTYPE svg PUBLIC "-//W3C//DTD SVG 1.1//EN" "http://www.w3.org/Graphics/SVG/1.1/DTD/svg11.dtd" >
<svg xmlns="http://www.w3.org/2000/svg" xmlns:xlink="http://www.w3.org/1999/xlink" version="1.1" viewBox="-10 0 1010 1000">
  <g transform="matrix(1 0 0 -1 0 800)">
   <path fill="currentColor"
d="M439 688c7.62288 31.762 36.0921 57.227 77 47c23 -6 40 -24 45 -47c1 -5 1 -8 1 -44s0 -40 -1 -45c-6 -28 -30 -48 -58 -49c-30 -2 -57 19 -64 49c-1 5 -1 9 -1 45s0 39 1 44zM127 627c8.85273 30.9846 35.3889 56.1528 76 46c8 -2 16 -6 22 -11c3 -2 20 -19 39 -38
c29 -29 35 -35 38 -40c24.6703 -37.0054 0.725052 -83.9841 -36 -94c-21.7956 -5.4489 -42.3682 0.172768 -55 11l-38 38c-29 29 -35 34 -38 39c-7.24214 10.8632 -12.5813 30.6747 -8 49zM777 664c38.5456 24.091 85.5799 2.94389 96 -37
c4.56953 -18.2781 -0.784753 -38.1771 -8 -49c-3 -5 -9 -11 -38 -40c-19 -19 -37 -36 -40 -38c-39.4916 -27.6441 -99 -4.25801 -99 50c0 10 1 16 4 24c4 11 6 13 45 52c22 22 38 37 40 38zM488 487c5 1 30 0 36 -1c82.9246 -11.0566 150.927 -72.7249 162 -165
c5.04787 -45.4308 -4.70142 -84.169 -22 -113c-23 -41 -60 -71 -105 -86c-59 -20 -125 -8 -174 30c-40 31 -64 75 -71 127c-1 8 -1 34 0 42c11.7053 90.7164 80.7726 155.641 165 165c4 0 8 1 9 1zM114 362c4 1 12 0 44 0h39c25.9421 -8.64736 43.8666 -20.6553 51 -48
c9.82512 -39.3005 -18.0495 -66.9694 -45 -74l-6 -2h-38c-33 0 -39 -1 -44 0c-37.9737 5.84211 -70.2495 53.6258 -42 96c9 14 24 25 41 28zM492 362c-31.6234 -5.7497 -54 -27.5216 -54 -62c0 -40.2982 33.4612 -71.1347 78 -60c29.0037 7.91009 54.0591 35.7636 44 76
c-7 27 -30 45 -58 46h-10zM750 300c0 33.617 24.4606 57.1401 52 62c4 1 12 0 44 0h39c25.9421 -8.64736 43.8666 -20.6553 51 -48c9.82512 -39.3005 -18.0495 -66.9694 -45 -74l-6 -2h-39c-33 0 -39 -1 -44 0c-27.3023 4.20036 -52 30.0714 -52 62zM214 101
c38.7848 24.2405 86.4405 3.47813 97 -37c4.78938 -19.1575 -1.56921 -36.8538 -9 -48c-3 -5 -9 -11 -38 -40c-19 -19 -36 -36 -39 -38c-37.0207 -25.9145 -87.6407 -9.39687 -98 35c-4.56953 18.2781 0.784753 38.1771 8 49c3 5 9 10 40 41c22 22 37 37 39 38zM688 50
c0 41.7983 34.7654 70.8086 78 60c8 -2 15 -5 21 -10c3 -2 21 -19 40 -38c37 -37 39 -39 43 -50c3 -8 5 -14 5 -24c0 -52.6847 -63.3065 -82.1659 -102 -49l-37 37c-37 37 -40 39 -44 50c-3 8 -4 14 -4 24zM489 49c-25 -5 -44 -23 -50 -48c-1 -5 -1 -9 -1 -45s0 -39 1 -44
c7 -30 34 -51 64 -49c28 1 52 21 58 49c1 5 1 8 1 44s0 40 -1 45c-6.35702 29.2423 -32.2598 53.6772 -72 48z" />
  </g>

</svg>
