<?xml version="1.0" standalone="no"?>
<!DOCTYPE svg PUBLIC "-//W3C//DTD SVG 1.1//EN" "http://www.w3.org/Graphics/SVG/1.1/DTD/svg11.dtd" >
<svg xmlns="http://www.w3.org/2000/svg" xmlns:xlink="http://www.w3.org/1999/xlink" version="1.1" viewBox="-10 0 1010 1000">
  <g transform="matrix(1 0 0 -1 0 800)">
   <path fill="currentColor"
d="M456 657c13 13 34 23 60 16c22 -6 39 -23 45 -46c2 -7 2 -23 0 -30c-9 -30 -33 -52 -74 -46c-11 2 -23 9 -31 17c-24 24 -25 65 0 89zM237 563c13 13 34 23 60 16c22 -6 39 -23 45 -46c2 -7 2 -22 0 -29c-9 -30 -32 -53 -74 -47c-11 2 -23 9 -31 17c-24 24 -25 65 0 89z
M675 563c40 40 123 6 104 -59c-9 -30 -31 -53 -73 -47c-11 2 -24 9 -32 17c-24 24 -24 65 1 89zM488 487c5 1 30 0 36 -1c83 -11 151 -73 162 -165c5 -45 -5 -84 -22 -113c-23 -41 -60 -71 -105 -86c-59 -20 -125 -8 -174 30c-40 31 -64 75 -71 127c-1 8 -1 34 0 42
c12 91 81 156 165 165c4 0 8 1 9 1zM144 344c14 14 32 23 59 16c22 -6 39 -23 45 -46c2 -7 2 -22 0 -29c-9 -30 -32 -53 -73 -47c-11 2 -24 10 -32 18c-24 24 -24 64 1 88zM492 362c-32 -6 -54 -28 -54 -62c0 -40 33 -71 78 -60c29 8 54 36 44 76c-7 27 -30 45 -58 46h-10z
M769 344c14 14 32 23 59 16c22 -6 39 -23 45 -46c2 -7 2 -22 0 -29c-9 -30 -32 -53 -73 -47c-11 2 -24 10 -32 18c-24 24 -24 64 1 88zM237 126c13 13 34 23 60 16c22 -6 39 -23 45 -46c2 -7 2 -23 0 -30c-9 -30 -33 -52 -74 -46c-12 2 -23 9 -31 17c-24 24 -25 65 0 89z
M675 126c41 41 123 5 104 -60c-9 -30 -31 -52 -73 -46c-12 2 -24 9 -32 17c-24 24 -24 65 1 89zM489 49c39 6 64 -18 72 -47c2 -7 2 -23 0 -30c-7 -24 -24 -41 -48 -46c-27 -4 -44 4 -57 17c-24 24 -25 65 0 89c9 9 20 15 33 17z" />
  </g>

</svg>
