<?xml version="1.0" standalone="no"?>
<!DOCTYPE svg PUBLIC "-//W3C//DTD SVG 1.1//EN" "http://www.w3.org/Graphics/SVG/1.1/DTD/svg11.dtd" >
<svg xmlns="http://www.w3.org/2000/svg" xmlns:xlink="http://www.w3.org/1999/xlink" version="1.1" viewBox="-10 0 1010 1000">
  <g transform="matrix(1 0 0 -1 0 800)">
   <path fill="currentColor"
d="M439 688c8 32 36 57 77 47c23 -6 40 -24 45 -47c1 -5 1 -8 1 -44s0 -40 -1 -45c-6 -28 -30 -48 -58 -49c-30 -2 -57 19 -64 49c-1 5 -1 9 -1 45s0 39 1 44zM135 578c-31 49 13 109 68 95c8 -2 16 -6 22 -11c3 -2 20 -19 39 -38c29 -29 35 -35 38 -40
c25 -37 1 -84 -36 -94c-22 -5 -42 0 -55 11l-38 38c-29 29 -35 34 -38 39zM777 664c39 24 86 3 96 -37c5 -18 -1 -38 -8 -49c-3 -5 -9 -11 -38 -40c-19 -19 -37 -36 -40 -38c-39 -28 -99 -4 -99 50c0 10 1 16 4 24c4 11 6 13 45 52c22 22 38 37 40 38zM488 487
c5 1 30 0 36 -1c83 -11 151 -73 162 -165c5 -45 -5 -84 -22 -113c-23 -41 -60 -71 -105 -86c-59 -20 -125 -8 -174 30c-40 31 -64 75 -71 127c-1 8 -1 34 0 42c12 91 81 156 165 165c4 0 8 1 9 1zM114 362c4 1 12 0 44 0h39c26 -9 44 -21 51 -48c10 -39 -18 -67 -45 -74
l-6 -2h-38c-33 0 -39 -1 -44 0c-38 6 -70 54 -42 96c9 14 24 25 41 28zM492 362c-32 -6 -54 -28 -54 -62c0 -40 33 -71 78 -60c29 8 54 36 44 76c-7 27 -30 45 -58 46h-10zM750 300c0 34 24 57 52 62c4 1 12 0 44 0h39c26 -9 44 -21 51 -48c10 -39 -18 -67 -45 -74l-6 -2
h-39c-33 0 -39 -1 -44 0c-27 4 -52 30 -52 62zM214 101c39 24 86 3 97 -37c5 -19 -2 -37 -9 -48c-3 -5 -9 -11 -38 -40c-19 -19 -36 -36 -39 -38c-37 -26 -88 -9 -98 35c-5 18 1 38 8 49c3 5 9 10 40 41c22 22 37 37 39 38zM688 50c0 42 35 71 78 60c8 -2 15 -5 21 -10
c3 -2 21 -19 40 -38c37 -37 39 -39 43 -50c3 -8 5 -14 5 -24c0 -53 -63 -82 -102 -49l-37 37c-37 37 -40 39 -44 50c-3 8 -4 14 -4 24zM489 49c40 6 66 -19 72 -48c1 -5 1 -9 1 -45s0 -39 -1 -44c-6 -28 -30 -48 -58 -49c-30 -2 -57 19 -64 49c-1 5 -1 8 -1 44s0 40 1 45
c6 25 25 43 50 48z" />
  </g>

</svg>
