<?xml version="1.0" standalone="no"?>
<!DOCTYPE svg PUBLIC "-//W3C//DTD SVG 1.1//EN" "http://www.w3.org/Graphics/SVG/1.1/DTD/svg11.dtd" >
<svg xmlns="http://www.w3.org/2000/svg" xmlns:xlink="http://www.w3.org/1999/xlink" version="1.1" viewBox="-10 0 1010 1000">
  <g transform="matrix(1 0 0 -1 0 800)">
   <path fill="currentColor"
d="M456 657c13.2988 13.2988 33.5807 22.6048 60 16c22 -6 39 -23 45 -46c2 -7 2 -23 0 -30c-8.7916 -30.1426 -32.6562 -51.9063 -74 -46c-11 2 -23 9 -31 17c-24 24 -25 65 0 89zM237 563c13.2988 13.2988 33.5807 22.6048 60 16c22 -6 39 -23 45 -46c2 -7 2 -22 0 -29
c-8.85777 -30.3695 -32.2861 -52.9591 -74 -47c-11 2 -23 9 -31 17c-24 24 -25 65 0 89zM675 563c40.0979 40.0979 122.558 5.95416 104 -59c-8.88346 -30.4576 -31.11 -52.9843 -73 -47c-11 2 -24 9 -32 17c-24 24 -24 65 1 89zM488 487c5 1 30 0 36 -1
c82.9246 -11.0566 150.927 -72.7249 162 -165c5.04787 -45.4308 -4.70142 -84.169 -22 -113c-23 -41 -60 -71 -105 -86c-59 -20 -125 -8 -174 30c-40 31 -64 75 -71 127c-1 8 -1 34 0 42c11.7053 90.7164 80.7726 155.641 165 165c4 0 8 1 9 1zM144 344
c14.434 14.434 32.2467 22.6883 59 16c22 -6 39 -23 45 -46c2 -7 2 -22 0 -29c-8.74046 -29.9673 -31.9458 -52.8649 -73 -47c-11 2 -24 10 -32 18c-24 24 -24 64 1 88zM492 362c-31.6234 -5.7497 -54 -27.5216 -54 -62c0 -40.2982 33.4612 -71.1347 78 -60
c29.0037 7.91009 54.0591 35.7636 44 76c-7 27 -30 45 -58 46h-10zM769 344c14.434 14.434 32.2467 22.6883 59 16c22 -6 39 -23 45 -46c2 -7 2 -22 0 -29c-8.74046 -29.9673 -31.9458 -52.8649 -73 -47c-11 2 -24 10 -32 18c-24 24 -24 64 1 88zM237 126
c13.2988 13.2988 33.5807 22.6048 60 16c22 -6 39 -23 45 -46c2 -7 2 -23 0 -30c-8.7916 -30.1426 -32.6562 -51.9063 -74 -46c-12 2 -23 9 -31 17c-24 24 -25 65 0 89zM675 126c40.5745 40.5745 122.705 5.46894 104 -60c-8.81693 -30.2295 -31.4813 -51.9312 -73 -46
c-12 2 -24 9 -32 17c-24 24 -24 65 1 89zM489 49c-13 -2 -24 -8 -33 -17c-25 -24 -24 -65 0 -89c13.0223 -13.0223 30.1569 -20.8347 57 -17c24 5 41 22 48 46c2 7 2 23 0 30c-7.58702 29.0836 -32.8175 52.5975 -72 47z" />
  </g>

</svg>
