<?xml version="1.0" standalone="no"?>
<!DOCTYPE svg PUBLIC "-//W3C//DTD SVG 1.1//EN" "http://www.w3.org/Graphics/SVG/1.1/DTD/svg11.dtd" >
<svg xmlns="http://www.w3.org/2000/svg" xmlns:xlink="http://www.w3.org/1999/xlink" version="1.1" viewBox="-10 0 1010 1000">
  <g transform="matrix(1 0 0 -1 0 800)">
   <path fill="currentColor"
d="M865 737c25 5 45 -7 56 -19c14 -15 19 -33 15 -56c-4 -27 -9 -50 -14 -72c-52 -209 -192 -384 -385 -479l-16 -8l-1 -16c0 -16 0 -23 -3 -37c-10 -51 -42 -106 -81 -137c-30 -24 -65 -39 -102 -46c-20 -4 -15 -4 -119 -4c-84 0 -95 -1 -100 0c-26 4 -45 24 -51 49
c-1 5 -1 9 -1 100c0 88 0 98 1 106c3 42 20 78 41 106c32 45 78 77 131 90c19 5 30 6 51 6l16 1l8 16c97 197 294 359 542 398c5 1 10 2 12 2zM775 588c-83 -28 -156 -71 -220 -130l-17 -17c3 -3 15 -11 22 -17c26 -21 53 -49 74 -77c4 -5 7 -9 7 -9c1 0 14 14 25 26
c54 61 96 132 122 211c3 10 6 18 6 18c0 1 -1 1 -19 -5zM422 280c22 -15 42 -36 58 -58l9 5c19 10 41 22 55 32c-3 6 -14 19 -21 27c-11 14 -26 28 -41 40c-5 4 -18 16 -23 18c-9 -16 -21 -35 -31 -54zM276 195c-39 -6 -71 -34 -83 -71c-5 -16 -5 -17 -5 -81v-56l58 1h59
l7 2c44 9 83 44 83 98c0 13 0 23 -3 32c-1 3 -3 7 -3 9c-5 18 -26 39 -40 49c-7 5 -15 10 -20 11c-2 0 -6 2 -9 3c-11 4 -30 5 -44 3z" />
  </g>

</svg>
