<?xml version="1.0" standalone="no"?>
<!DOCTYPE svg PUBLIC "-//W3C//DTD SVG 1.1//EN" "http://www.w3.org/Graphics/SVG/1.1/DTD/svg11.dtd" >
<svg xmlns="http://www.w3.org/2000/svg" xmlns:xlink="http://www.w3.org/1999/xlink" version="1.1" viewBox="-10 0 1010 1000">
  <g transform="matrix(1 0 0 -1 0 800)">
   <path fill="currentColor"
d="M865 737c24.8157 4.96313 44.7613 -6.51251 56 -19c14 -15 19 -33 15 -56c-4 -27 -9 -50 -14 -72c-52 -209 -192 -384 -385 -479l-16 -8l-1 -16c0 -16 0 -23 -3 -37c-9.70694 -51.3081 -41.75 -106.472 -81 -137c-30 -24 -65 -39 -102 -46c-20 -4 -15 -4 -119 -4
c-84 0 -95 -1 -100 0c-25.6715 3.94946 -44.8583 24.4332 -51 49c-1 5 -1 9 -1 100c0 88 0 98 1 106c3.49449 41.9339 20.2372 77.8219 41 106c32 45 78 77 131 90c19 5 30 6 51 6l16 1l8 16c96.8751 197.338 293.945 359.312 542 398c5 1 10 2 12 2zM775 588
c-83 -28 -156 -71 -220 -130l-17 -17c3.21466 -3.21466 15.2331 -11.3609 22 -17c26 -21 53 -49 74 -77c4 -5 7 -9 7 -9c1 0 14 14 25 26c54 61 96 132 122 211c3 10 6 18 6 18c0 1 -1 1 -19 -5zM422 280c22.4302 -14.8629 42.3033 -35.5379 58 -58l9 5
c18.9462 10.0303 41.1454 21.609 55 32c-2.91152 5.82303 -14.1234 18.9773 -21 27c-11 14 -26 28 -41 40c-5.16411 3.87308 -18.4989 15.7494 -23 18c-9.34275 -15.5712 -20.6789 -34.5045 -31 -54zM276 195c-39 -6 -71 -34 -83 -71c-5 -16 -5 -17 -5 -81v-56l58 1h59l7 2
c43.6134 9.25132 83 43.5134 83 98c0 13 0 23 -3 32c-1 3 -3 7 -3 9c-4.56299 18.2519 -25.6136 38.5371 -40 49c-7 5 -15 10 -20 11c-2 0 -6 2 -9 3c-10.5471 3.51571 -29.5788 4.80265 -44 3z" />
  </g>

</svg>
