<?xml version="1.0" standalone="no"?>
<!DOCTYPE svg PUBLIC "-//W3C//DTD SVG 1.1//EN" "http://www.w3.org/Graphics/SVG/1.1/DTD/svg11.dtd" >
<svg xmlns="http://www.w3.org/2000/svg" xmlns:xlink="http://www.w3.org/1999/xlink" version="1.1" viewBox="-10 0 1010 1000">
  <g transform="matrix(1 0 0 -1 0 800)">
   <path fill="currentColor"
d="M281 446c4.08198 165.32 56.8487 279.548 200 291c85.9456 9.54951 148.334 -29.1126 185 -78c35 -50 51 -114 53 -213v-21h103c29.1365 -9.71217 57.9456 -29.3807 52 -71c-1 -5 -98 -347 -103 -363c-21 -63 -74 -110 -139 -124c-19 -4 -12 -4 -126 -4
c-109 0 -114 -1 -130 2c-69 11 -125 60 -147 126c-5 16 -102 358 -103 363c-5.01889 35.1322 17.3738 59.3808 42 68c9 3 11 3 64 3h49v21zM488 612c-14 -1 -26 -5 -34 -10c-23 -13 -38 -46 -44 -99c-2 -20 -4 -45 -4 -66v-12h188v20c-2 77 -13 124 -35 147
c-13 14 -29 20 -56 20h-15zM271 298c3 -11 77 -270 78 -273c7.7567 -18.8377 25.2254 -33.2042 48 -37h206c22.7924 3.79873 40.2393 18.1525 48 37c1.31429 3.94286 73.9646 264.929 79 275h-460l1 -2z" />
  </g>

</svg>
