<?xml version="1.0" standalone="no"?>
<!DOCTYPE svg PUBLIC "-//W3C//DTD SVG 1.1//EN" "http://www.w3.org/Graphics/SVG/1.1/DTD/svg11.dtd" >
<svg xmlns="http://www.w3.org/2000/svg" xmlns:xlink="http://www.w3.org/1999/xlink" version="1.1" viewBox="-10 0 1010 1000">
  <g transform="matrix(1 0 0 -1 0 800)">
   <path fill="currentColor"
d="M281 446c4 165 57 280 200 291c86 10 148 -29 185 -78c35 -50 51 -114 53 -213v-21h103c29 -10 58 -29 52 -71c-1 -5 -98 -347 -103 -363c-21 -63 -74 -110 -139 -124c-19 -4 -12 -4 -126 -4c-109 0 -114 -1 -130 2c-69 11 -125 60 -147 126c-5 16 -102 358 -103 363
c-5 35 17 59 42 68c9 3 11 3 64 3h49v21zM488 612c-14 -1 -26 -5 -34 -10c-23 -13 -38 -46 -44 -99c-2 -20 -4 -45 -4 -66v-12h188v20c-2 77 -13 124 -35 147c-13 14 -29 20 -56 20h-15zM270 300c5.04878 -10.0976 77.6758 -271.027 79 -275c8 -19 25 -33 48 -37h206
c23 4 40 18 48 37c1 4 74 265 79 275h-460z" />
  </g>

</svg>
