<?xml version="1.0" standalone="no"?>
<!DOCTYPE svg PUBLIC "-//W3C//DTD SVG 1.1//EN" "http://www.w3.org/Graphics/SVG/1.1/DTD/svg11.dtd" >
<svg xmlns="http://www.w3.org/2000/svg" xmlns:xlink="http://www.w3.org/1999/xlink" version="1.1" viewBox="-10 0 1010 1000">
  <g transform="matrix(1 0 0 -1 0 800)">
   <path fill="currentColor"
d="M207 300c4.17603 37.5843 14.9667 70.8778 24 104c0 0 -33 23 -73 49c-79 53 -78 52 -85 63c-7.4516 11.1774 -13.8021 28.7915 -9 48c3 12 9 22 17 30c19 18 48 24 71 13c3.4193 -1.13977 14.5926 -9.06174 166 -110c0 0 2 3 3 9c22 100 80 160 163 168
c23.5071 2.93839 50.4829 0.193923 67 -6c66 -20 111 -77 129 -164c1 -4 1 -8 1 -8c148.756 99.1709 157.357 105.679 166 110c43.6826 22.8814 90 -12.264 90 -56c0 -16.303 -3.34204 -24.0131 -10 -34c-7 -11 -6 -11 -86 -64c-57 -38 -72 -48 -72 -49
c9.29877 -23.2469 20.3015 -70.8232 22 -98v-5h94c28.4533 -9.48443 52 -24.3889 52 -62c0 -38.4636 -22.997 -53.3323 -52 -63h-97l-1 -1c0 -1 -1 -6 -2 -12c-4 -25 -11 -52 -19 -74c-2 -6 -4 -10 -4 -11s14 -11 76 -52c83 -56 82 -55 89 -66
c35.319 -52.9785 -24.6315 -117.684 -80 -90c-7.54895 3.77447 -0.418765 0.291295 -145 96l-7 -7c-38 -46 -85 -75 -136 -88c-21 -5 -36 -7 -60 -7c-20 0 -28 1 -45 4c-59 10 -112 42 -154 91l-5 5c-138.561 -92.3741 -138.542 -93.5142 -143 -95c-7 -3 -16 -5 -24 -5
c-34.7761 -1.1592 -75.8351 28.6594 -64 76c2 7 5 14 9 20c7 11 6 10 87 64c41 27 74 50 74 50c-9.38767 25.0338 -18.5178 57.7455 -23 88c-1 5 -2 11 -2 12v2h-45c-37 0 -44 0 -49 1c-30.5151 4.69463 -61.468 34.1279 -51 76c6.0896 24.3584 25.4417 43.068 51 47
c5 1 12 1 48 1h44zM513 548c-32.7578 6.55156 -49.1881 -7.81392 -61 -38c-2 -5 -7 -21 -7 -22h110c0 1 -4 15 -6 20c-9 23 -21 36 -36 40zM347 357c-21 -55 -24 -127 -9 -194c16 -73 51 -130 95 -157l4 -3l1 91v91c6.60482 33.0241 33.062 53.0646 65 52
c28 -1 50 -19 58 -47c1 -5 1 -6 1 -95l1 -89c14.5968 7.29841 28.1005 21.9206 39 35c37 46 60 111 66 186c4.3801 52.5613 -4.3463 100.866 -18 135h-150l-150 1l-3 -6z" />
  </g>

</svg>
