<?xml version="1.0" standalone="no"?>
<!DOCTYPE svg PUBLIC "-//W3C//DTD SVG 1.1//EN" "http://www.w3.org/Graphics/SVG/1.1/DTD/svg11.dtd" >
<svg xmlns="http://www.w3.org/2000/svg" xmlns:xlink="http://www.w3.org/1999/xlink" version="1.1" viewBox="-10 0 1010 1000">
  <g transform="matrix(1 0 0 -1 0 800)">
   <path fill="currentColor"
d="M207 300c4 38 15 71 24 104c0 0 -33 23 -73 49c-79 53 -78 52 -85 63s-14 29 -9 48c3 12 9 22 17 30c19 18 48 24 71 13c3 -1 15 -9 166 -110c0 0 2 3 3 9c22 100 80 160 163 168c24 3 50 0 67 -6c66 -20 111 -77 129 -164c1 -4 1 -8 1 -8c149 99 157 106 166 110
c44 23 90 -12 90 -56c0 -16 -3 -24 -10 -34c-7 -11 -6 -11 -86 -64c-57 -38 -72 -48 -72 -49c9 -23 20 -71 22 -98v-5h94c28 -9 52 -24 52 -62s-23 -53 -52 -63h-97l-1 -1c0 -1 -1 -6 -2 -12c-4 -25 -11 -52 -19 -74c-2 -6 -4 -10 -4 -11s14 -11 76 -52
c83 -56 82 -55 89 -66c35 -53 -25 -118 -80 -90c-8 4 -145 96 -145 96l-7 -7c-38 -46 -85 -75 -136 -88c-21 -5 -36 -7 -60 -7c-20 0 -28 1 -45 4c-59 10 -112 42 -154 91l-5 5c-139 -92 -139 -94 -143 -95c-7 -3 -16 -5 -24 -5c-35 -1 -76 29 -64 76c2 7 5 14 9 20
c7 11 6 10 87 64c41 27 74 50 74 50c-9 25 -19 58 -23 88c-1 5 -2 11 -2 12v2h-45c-37 0 -44 0 -49 1c-31 5 -61 34 -51 76c6 24 25 43 51 47c5 1 12 1 48 1h44zM513 548c-33 7 -49 -8 -61 -38c-2 -5 -7 -21 -7 -22h110c0 1 -4 15 -6 20c-9 23 -21 36 -36 40zM350 363
c-26 -52 -27 -133 -12 -200c16 -73 51 -130 95 -157l4 -3l1 91v91c14 66 105 69 123 5c1 -5 1 -6 1 -95l1 -89c15 7 28 22 39 35c37 46 60 111 66 186c4 53 -4 101 -18 135h-150z" />
  </g>

</svg>
