<?xml version="1.0" standalone="no"?>
<!DOCTYPE svg PUBLIC "-//W3C//DTD SVG 1.1//EN" "http://www.w3.org/Graphics/SVG/1.1/DTD/svg11.dtd" >
<svg xmlns="http://www.w3.org/2000/svg" xmlns:xlink="http://www.w3.org/1999/xlink" version="1.1" viewBox="-10 0 1010 1000">
  <g transform="matrix(1 0 0 -1 0 800)">
   <path fill="currentColor"
d="M439 690c7.51897 31.329 36.8656 55.0336 77 45c22 -6 39 -22 45 -45c1 -4 1 -8 1 -26l1 -20h20c20 0 21 0 27 -2c25.517 -6.95918 46 -27.5968 46 -61c0 -27.2207 -16.4307 -46.0011 -35 -56c-11 -5 -17 -6 -40 -6h-19l1 -11v-11l176 -137c105 -82 179 -140 181 -142
c11.82 -11.82 22.1253 -32.499 16 -57c-6 -25 -26 -44 -51 -48c-4 -1 -12 -1 -39 -1h-34v-124l37 -1h36c25.9421 -8.64736 43.8666 -20.6553 51 -48c10.3258 -41.3033 -19.9215 -70.8203 -51 -76h-383c-339 0 -382 -1 -387 0c-29.7595 4.57838 -61.211 35.1559 -51 76
c5.9845 23.938 25.9528 44.1466 51 48c4 1 12 1 39 1h34v124h-34c-36 0 -40 1 -49 4c-23.1312 9.25248 -42 26.5941 -42 59c0 20.2789 6.11772 32.1177 17 43c2 2 78 62 181 142l176 137v11l1 11h-19c-44.8239 0 -65.0418 15.7504 -74 48
c-8.32357 33.2943 10.9305 60.5416 33 70c11 6 18 7 41 7h18l1 20c0 18 0 22 1 26zM404 313l-96 -75h385l-97 74c-53 41 -96 75 -96 75s-43 -33 -96 -74zM344 43c0 50.1209 -1.76626 65.2337 2 69h-34v-124h32v55zM531 93c-13.9733 20.96 -39.3642 25.6358 -57 8
c-6 -6 -5 -1 -5 -61v-52h62v105zM655 111c1 -5 1 -18 1 -68v-55h32v124h-34l1 -1z" />
  </g>

</svg>
