<?xml version="1.0" standalone="no"?>
<!DOCTYPE svg PUBLIC "-//W3C//DTD SVG 1.1//EN" "http://www.w3.org/Graphics/SVG/1.1/DTD/svg11.dtd" >
<svg xmlns="http://www.w3.org/2000/svg" xmlns:xlink="http://www.w3.org/1999/xlink" version="1.1" viewBox="-10 0 1010 1000">
  <g transform="matrix(1 0 0 -1 0 800)">
   <path fill="currentColor"
d="M937 175c0 -38 -24 -53 -52 -62h-36l-36 -1l-1 -67c0 -67 0 -67 -1 -72c-16 -63 -105 -63 -122 0c-1 5 -1 5 -1 72l-1 67h-374l-1 -67c0 -67 0 -67 -1 -72c-16 -63 -105 -63 -122 0c-1 5 -1 5 -1 72l-1 67h-33c-27 0 -35 0 -39 1c-30 5 -61 35 -51 76c6 24 26 44 51 48
c4 1 12 1 39 1h34v102c0 56 -1 102 -1 102c-25 -13 -61 -25 -90 -11c-21 10 -42 37 -33 71c5 25 29 46 55 48c5 1 11 4 21 13c17 17 36 44 52 74c13 23 28 38 60 38c21 -1 39 -11 51 -29c4 -6 6 -12 10 -26c19 -67 62 -141 115 -174c21 -12 41 -21 72 -21c57 0 92 31 121 66
c27 34 52 82 66 130c9 32 32 56 66 54c22 -1 40 -12 51 -31c21 -32 38 -71 68 -91c4 -3 5 -3 9 -3c2 0 7 -1 10 -2c25 -7 46 -27 46 -60c0 -39 -26 -63 -66 -63c-21 1 -40 8 -58 17c0 0 -1 -46 -1 -102v-102l37 -1h36c28 -9 52 -24 52 -62zM312 378v-140h126v69
c-52 13 -89 40 -126 71zM687 378c-37 -31 -75 -58 -125 -71v-69h126v70c0 39 -1 70 -1 70z" />
  </g>

</svg>
