<?xml version="1.0" standalone="no"?>
<!DOCTYPE svg PUBLIC "-//W3C//DTD SVG 1.1//EN" "http://www.w3.org/Graphics/SVG/1.1/DTD/svg11.dtd" >
<svg xmlns="http://www.w3.org/2000/svg" xmlns:xlink="http://www.w3.org/1999/xlink" version="1.1" viewBox="-10 0 1010 1000">
  <g transform="matrix(1 0 0 -1 0 800)">
   <path fill="currentColor"
d="M489 737c7 1 19 0 27 -2c6 -1 22 -9 199 -97c206 -103 198 -99 206 -108c7 -8 13 -18 15 -29c1 -5 1 -15 1 -295s0 -289 -1 -294c-14.3178 -66.8163 -110.007 -61.9637 -123 3v267l-1 267l-312 156l-312 -156l-1 -267v-267c-6.1938 -30.969 -29.5563 -50.9484 -59 -52
c-30 -2 -57 19 -64 49c-1 5 -1 14 -1 294s0 290 1 295c4 15 14 30 26 38c10.003 6.66866 390.122 198 399 198zM364 393c4 1 19 1 91 1l86 -1c29.828 -4.97133 50.8612 -28.1267 53 -57v-5h134c26.6507 -7.61448 46.0643 -21.6959 52 -49c1 -5 1 -11 1 -185s0 -180 -1 -185
c-5.49108 -25.259 -24.2508 -45.0358 -52 -49h-226c-200 0 -226 -1 -231 0c-25.6715 3.94946 -44.8583 24.4332 -51 49c-1 5 -1 10 -1 138s0 133 1 138c7.41465 32.6244 31.5734 50 74 50h18l1 51c0 51 0 52 1 57c7 25 25 43 50 47zM438 269v-31h31v31h-31zM594 206v-218h62
v218h-62zM344 50v-62h125v124h-125v-62z" />
  </g>

</svg>
