<?xml version="1.0" standalone="no"?>
<!DOCTYPE svg PUBLIC "-//W3C//DTD SVG 1.1//EN" "http://www.w3.org/Graphics/SVG/1.1/DTD/svg11.dtd" >
<svg xmlns="http://www.w3.org/2000/svg" xmlns:xlink="http://www.w3.org/1999/xlink" version="1.1" viewBox="-10 0 1010 1000">
  <g transform="matrix(1 0 0 -1 0 800)">
   <path fill="currentColor"
d="M156 305c-59 35 -93 117 -93 207c0 18 0 21 4 31c2 4 93 156 100 167c10 13 23 23 41 27c4 1 48 0 294 0h289c19 -3 32 -12 42 -27c2 -2 100 -168 100 -168c4 -11 4 -11 4 -53c0 -37 0 -39 -1 -48c-8 -56 -45 -113 -92 -136v-317l20 -1c20 0 21 0 27 -2
c25 -7 46 -27 46 -60c0 -35 -22 -57 -52 -62h-383c-339 0 -382 -1 -387 0c-30 5 -61 35 -51 76c8 33 30 49 74 49h18v317zM254 612l-18 -30l132 -1h264l132 1l-18 30h-492zM196 456c0 -2 4 -14 7 -20c11 -22 19 -31 47 -31s45 14 55 33c2 4 6 15 6 17v1h-115zM439 455
c0 -2 4 -14 6 -18c12 -21 37 -40 70 -31c16 4 32 17 40 32c2 4 6 15 6 17v1h-122v-1zM689 455c0 -2 4 -13 6 -17c12 -22 37 -41 70 -32c16 4 32 17 40 32c2 4 6 15 6 17v1h-122v-1zM375 328c-23 -23 -59 -37 -94 -46v-294h31v66c0 72 1 74 4 89c15 77 92 121 186 121
c96 0 164 -47 181 -116c4 -17 4 -14 4 -91l1 -69h31v294c-36 7 -69 23 -94 46c-26 -26 -63 -42 -100 -47c-11 -2 -39 -2 -50 0c-39 6 -71 23 -100 47zM505 139c-29 0 -62 -8 -67 -24v-127h124v130c-4 16 -36 21 -57 21z" />
  </g>

</svg>
