<?xml version="1.0" standalone="no"?>
<!DOCTYPE svg PUBLIC "-//W3C//DTD SVG 1.1//EN" "http://www.w3.org/Graphics/SVG/1.1/DTD/svg11.dtd" >
<svg xmlns="http://www.w3.org/2000/svg" xmlns:xlink="http://www.w3.org/1999/xlink" version="1.1" viewBox="-10 0 1010 1000">
  <g transform="matrix(1 0 0 -1 0 800)">
   <path fill="currentColor"
d="M489 737c3 1 8 0 13 0c15 0 4 5 150 -68c139 -69 136 -67 144 -76c7.8489 -7.8489 102.749 -198.247 107 -211c3 -11 3 1 3 -209v-194c18.3089 -9.15443 37.9112 -36.3554 30 -68c-6.52092 -24.9968 -23.9635 -43.4939 -51 -48h-383c-339 0 -382 -1 -387 0
c-37.9737 5.84211 -70.2495 53.6258 -42 96c5.44034 8.16051 13.2414 16.1207 21 20v194c0 210 0 198 3 209c2 6 97 195 101 202c4 6 11 14 17 18s260 130 265 132c2 1 6 3 9 3zM635 237c27.8673 -4.70107 46.3968 -24.0969 52 -52v-99l1 -98h93v359l-78 156
c-67.531 34.0998 -135.196 68.0979 -203 102c-67.8391 -33.8275 -135.51 -67.823 -203 -102c-26.175 -51.4917 -52.1748 -103.158 -78 -155v-360h93l1 98v99c5.28709 26.4355 25.4042 47.9083 52 52c5 1 22 0 138 0h132zM365 479c21.087 50.9603 74.1032 101.842 150 91
c73.1731 -7.31731 123.015 -64.6413 130 -131c7.86844 -78.6844 -41.4625 -133.762 -98 -152c-86.0202 -28.6734 -164.934 23.7825 -186 93c-9.80218 31.367 -8.06228 69.7059 4 99zM500 405c13.2916 0 20 6.71384 20 20c0 24.7836 -32.8416 27.4753 -40 6
c-3.76103 -15.0441 5.2094 -26 20 -26zM438 50v-62h124v124h-124v-62z" />
  </g>

</svg>
