<?xml version="1.0" standalone="no"?>
<!DOCTYPE svg PUBLIC "-//W3C//DTD SVG 1.1//EN" "http://www.w3.org/Graphics/SVG/1.1/DTD/svg11.dtd" >
<svg xmlns="http://www.w3.org/2000/svg" xmlns:xlink="http://www.w3.org/1999/xlink" version="1.1" viewBox="-10 0 1010 1000">
  <g transform="matrix(1 0 0 -1 0 800)">
   <path fill="currentColor"
d="M363 666c38.2925 26.6383 96.5045 40.8108 152 20c29.7934 -11.9173 55.0617 -29.6507 74 -54c9.74712 -12.532 18.6897 -19 36 -19c15 0 24 4 35 18c26 34 64 56 106 63c47.4229 5.26921 83.6679 -3.28416 114 -23c20 -13 42 -35 50 -51
c19.9708 -38.6935 -5.11853 -90 -55 -90c-26.4621 0 -36.7083 9.04997 -50 25c-7.87224 9.44669 -17.1844 16 -33 16c-16.7538 0 -27.2037 -8.27163 -36 -20c-22.0145 -29.3527 -60.6433 -55.0212 -101 -61c-56 -10 -110 8 -149 48c-14.7319 14.7319 -21.2391 33 -48 33
c-15.8263 0 -25.1362 -6.56339 -33 -16c-13.2554 -15.9065 -23.6482 -25 -50 -25c-48.3269 0 -75.2269 50.991 -55 90c7 14 26 35 43 46zM937 -75c0 -34.6641 -22.2278 -57.038 -52 -62h-383c-339 0 -382 -1 -387 0c-29.7595 4.57838 -61.211 35.1559 -51 76
c6.82158 27.2863 28.1507 48 64 48l12 1l1 7c24 98 38 201 44 318c1 24 1 57 2 93c0 26 1 30 2 34c6 24 26 43 50 47c4 1 26 0 138 0h133c26.0143 -4.33571 44.5231 -22.1721 51 -47c1 -4 2 -9 2 -27c1 -31 3 -78 4 -81c0 -1 18 -1 81 -1h80
c30.0996 -8.59988 53 -27.4816 53 -66c1 -17 1 -27 3 -40c7.33903 -58.7123 36.2152 -152.538 70 -237l16 -1c39.7356 0 67 -22.48 67 -62zM501 -12c-34.0419 132.808 -55.5573 259.063 -62 374h-127s-1 -4 -1 -8c0 -13 -2 -49 -4 -83
c-6.31514 -98.9372 -19.0785 -196.673 -39 -283h233zM582 205c0 -2 7 -39 11 -60c9 -45 23 -101 36 -151l2 -6h90c-30.9044 77.261 -51.0246 153.169 -59 208c-1 4 -1 8 -1 9v1h-39c-38 0 -40 0 -40 -1z" />
  </g>

</svg>
