<?xml version="1.0" standalone="no"?>
<!DOCTYPE svg PUBLIC "-//W3C//DTD SVG 1.1//EN" "http://www.w3.org/Graphics/SVG/1.1/DTD/svg11.dtd" >
<svg xmlns="http://www.w3.org/2000/svg" xmlns:xlink="http://www.w3.org/1999/xlink" version="1.1" viewBox="-10 0 1010 1000">
  <g transform="matrix(1 0 0 -1 0 800)">
   <path fill="currentColor"
d="M492 737c4 1 18 0 23 -1c6 -2 322 -128 328 -131c19 -11 38 -36 30 -69c-7 -27 -29 -48 -61 -48c-8 0 -10 0 -14 1c-3 1 -70 28 -151 60l-147 59l-146 -59c-83 -33 -149 -59 -152 -60s-8 -1 -12 -1c-30 -2 -56 18 -63 48c-7.69678 32.0699 11.4615 59.7308 32 70
c12 6 328 131 333 131zM937 394c0 -37 -26 -61 -57 -63h-5v-343c9 -2 19 -3 27 -7c21 -10 43 -35 34 -70c-7 -25 -24 -43 -51 -48h-383c-339 0 -382 -1 -387 0c-38 6 -70 54 -42 96c7 12 19 21 32 25c4 1 14 4 18 4h2v343h-2c-31 0 -52 23 -59 48c-10 40 19 71 50 76
c4 1 62 1 388 1h383c28 -9 52 -24 52 -62zM250 331v-343h500v343h-500zM283 251c7 30 36 57 77 47c23 -6 40 -24 45 -47c1 -5 1 -10 1 -92s0 -86 -1 -91c-6 -28 -30 -48 -58 -49c-30 -2 -57 19 -64 49c-1 5 -1 9 -1 91s0 87 1 92zM439 251c7 30 36 57 77 47
c23 -6 40 -24 45 -47c1 -5 1 -10 1 -92s0 -86 -1 -91c-6 -28 -30 -48 -58 -49c-30 -2 -57 19 -64 49c-1 5 -1 9 -1 91s0 87 1 92zM645 299c40 6 66 -19 72 -48c1 -5 1 -10 1 -92s0 -86 -1 -91c-6 -28 -30 -48 -58 -49c-30 -2 -57 19 -64 49c-1 5 -1 9 -1 91s0 87 1 92
c6 25 25 43 50 48z" />
  </g>

</svg>
