<?xml version="1.0" standalone="no"?>
<!DOCTYPE svg PUBLIC "-//W3C//DTD SVG 1.1//EN" "http://www.w3.org/Graphics/SVG/1.1/DTD/svg11.dtd" >
<svg xmlns="http://www.w3.org/2000/svg" xmlns:xlink="http://www.w3.org/1999/xlink" version="1.1" viewBox="-10 0 1010 1000">
  <g transform="matrix(1 0 0 -1 0 800)">
   <path fill="currentColor"
d="M316 369c-15 8 -34 27 -34 48c0 1 -1 2 -1 2v-2c0 -3 -3 -11 -5 -16c-5 -11 -5 -12 -59 -66c-28 -28 -52 -52 -55 -54c-37 -26 -88 -7 -98 36c-5 19 2 37 9 48c3 4 8 11 30 33l27 27l-27 27c-29 29 -32 33 -36 43c-3 8 -4 14 -4 24c0 47 51 81 97 52c3 -2 19 -18 56 -55
c56 -56 55 -56 60 -67c2 -5 5 -13 5 -16v-2s1 1 1 2c0 13 9 25 16 34c8 9 20 17 31 19c2 0 5 1 5 1c0 2 11 76 11 77c1 6 4 13 7 18c2 4 103 136 106 139c15 13 32 21 58 14c11 -3 22 -9 29 -17c4 -4 100 -131 103 -136c11 -18 8 -24 13 -59c3 -20 5 -36 5 -36
c21 -7 41 -16 48 -38c2 -5 4 -13 4 -16c0 -1 1 -2 1 -2v2c0 3 3 11 5 16c5 11 4 12 58 66c27 27 52 50 54 52c11 9 21 14 40 14c35 0 61 -27 61 -62c0 -10 -1 -16 -4 -24c-4 -10 -7 -14 -36 -43l-27 -27l27 -27c29 -29 32 -33 36 -43c3 -8 4 -14 4 -24
c0 -53 -63 -81 -101 -48c-2 2 -27 25 -54 52c-54 54 -53 55 -58 66c-2 5 -5 13 -5 16v2s-1 -1 -1 -2c0 -23 -19 -38 -34 -48l1 -3c0 -11 65 -422 65 -444c-1 -30 -22 -54 -53 -59h-194c-172 0 -196 -1 -201 0c-28 5 -49 28 -52 59c0 22 65 433 65 444zM483 548l-17 -23
l-3 -17c-1 -9 -3 -18 -3 -19v-1h80v1c0 1 -2 10 -3 19l-3 17l-17 23c-9 12 -17 23 -17 23s-8 -11 -17 -23zM441 362c0 -1 -56 -372 -56 -373v-1h230v1c0 1 -56 372 -56 373h-118z" />
  </g>

</svg>
