<?xml version="1.0" standalone="no"?>
<!DOCTYPE svg PUBLIC "-//W3C//DTD SVG 1.1//EN" "http://www.w3.org/Graphics/SVG/1.1/DTD/svg11.dtd" >
<svg xmlns="http://www.w3.org/2000/svg" xmlns:xlink="http://www.w3.org/1999/xlink" version="1.1" viewBox="-10 0 1010 1000">
  <g transform="matrix(1 0 0 -1 0 800)">
   <path fill="currentColor"
d="M937 -75c0 -34.6641 -22.2278 -57.038 -52 -62h-383c-339 0 -382 -1 -387 0c-37.9737 5.84211 -70.2495 53.6258 -42 96c7 12 19 21 32 25c4 1 14 4 18 4h2v697l2 5c7 25 26 43 50 47c4 1 52 0 325 0h320c28.645 -4.25907 45.6995 -25.4785 53 -52v-697
c8.93935 -1.78787 19.2473 -3.12367 27 -7c19.9162 -9.37234 35 -27.6489 35 -56zM250 612v-624h500v624h-500zM687 456c0 -37.6465 -23.5396 -52.5132 -52 -62h-39c-33 0 -39 0 -44 1c-21.3561 4.74581 -39.3133 17.7832 -47 37c-2 5 -4 13 -4 16c0 1 -1 2 -1 2
s-1 -1 -1 -2c0 -29.6558 -28.4997 -46.1666 -52 -54h-38c-33 0 -39 0 -44 1c-30.5151 4.69463 -61.468 34.1279 -51 76c6.65111 23.2789 26.0684 42.7768 50 47c4 1 12 1 44 1l39 -1c25.6382 -4.27303 52 -25.7713 52 -54c0 -1 1 -2 1 -2s1 1 1 2
c0 24.9927 22.2238 45.0783 42 52c9 3 12 3 53 3l39 -1c30.3727 -5.06212 52 -26.5448 52 -62zM687 300c0 -37.6465 -23.5396 -52.5132 -52 -62h-39c-51.749 0 -43.709 -4.80687 -69 11c-11.1079 8.33091 -26 24.8555 -26 43c0 1 -1 2 -1 2s-1 -1 -1 -2
c0 -30.5501 -27.9125 -45.9708 -52 -54h-38c-33 0 -39 -1 -44 0c-37.9737 5.84211 -70.2495 53.6258 -42 96c9 14 24 25 41 28c4 1 12 0 44 0h39c24.724 -8.24134 45.0755 -20.9322 51 -47c1 -3 1 -6 1 -7s1 -2 1 -2s1 1 1 2c0 25.0727 22.1838 44.0643 42 51c9 3 12 3 53 3
h39c28.4533 -9.48443 52 -24.3889 52 -62zM364 205c-29.1368 -5.14179 -60.394 -34.4241 -50 -76c6.0896 -24.3584 25.4417 -43.068 51 -47c5 -1 11 -1 44 -1l38 1c25.6382 4.27303 52 25.7713 52 54c0 1 1 2 1 2s1 -1 1 -2c0 -17.8649 14.9919 -35.7439 26 -44
c8 -5 16 -8 25 -10c5 -1 11 -1 44 -1l39 1c30.3727 5.06212 52 26.5448 52 62c0 32.7067 -20.0927 53.2416 -46 60l-6 2h-39c-41 0 -44 0 -53 -3c-20 -7 -36 -24 -41 -45c-1 -3 -1 -5 -1 -6s-1 -2 -1 -2s-1 1 -1 2c0 29.6558 -28.4997 46.1666 -52 54h-39
c-32 0 -40 0 -44 -1z" />
  </g>

</svg>
