<?xml version="1.0" standalone="no"?>
<!DOCTYPE svg PUBLIC "-//W3C//DTD SVG 1.1//EN" "http://www.w3.org/Graphics/SVG/1.1/DTD/svg11.dtd" >
<svg xmlns="http://www.w3.org/2000/svg" xmlns:xlink="http://www.w3.org/1999/xlink" version="1.1" viewBox="-10 0 1010 1000">
  <g transform="matrix(1 0 0 -1 0 800)">
   <path fill="currentColor"
d="M156 305c-59.1317 35.479 -93 116.844 -93 207c0 18 0 21 4 31c2 4 93 156 100 167c10.2773 12.8467 23.3386 23.0752 41 27c4 1 48 0 294 0h289c18.9969 -3.16615 31.8107 -12.2821 42 -27c1.89312 -1.89312 100 -168 100 -168c4 -11 4 -11 4 -53c0 -37 0 -39 -1 -48
c-8.03337 -56.2336 -45.2805 -112.64 -92 -136v-317l20 -1c20 0 21 0 27 -2c24.9909 -6.81571 46 -27.3496 46 -60c0 -34.6641 -22.2278 -57.038 -52 -62h-383c-339 0 -382 -1 -387 0c-29.7595 4.57838 -61.211 35.1559 -51 76c8.32885 33.3154 30.0939 49 74 49h18v317z
M254 612l-18 -30l132 -1h264l132 1l-18 30h-492zM196 456c0 -2 4 -14 7 -20c11.0392 -22.0785 18.9655 -31 47 -31c28.0024 0 45.0604 14.3633 55 33c2 4 6 15 6 17v1h-115zM439 455c0 -2 4 -14 6 -18c11.6078 -20.6361 37.2591 -40.3545 70 -31c16 4 32 17 40 32
c2 4 6 15 6 17v1h-122v-1zM689 455c0 -2 4 -13 6 -17c11.575 -21.8639 37.4172 -41.3094 70 -32c16 4 32 17 40 32c2 4 6 15 6 17v1h-122v-1zM375 328c-22.9214 -22.9214 -58.5191 -37.1298 -94 -46v-294h31v66c0 72 1 74 4 89c15.3084 76.5419 91.5604 121 186 121
c96.344 0 164.001 -46.7905 181 -116c4 -17 4 -14 4 -91l1 -69h31v294c-35.9461 6.54404 -68.5234 22.5551 -94 46c-26.4265 -26.4265 -63.0615 -41.8696 -100 -47c-11 -2 -39 -2 -50 0c-39.2301 5.60431 -70.9872 23.3624 -100 47zM485 138
c-21.8468 -3.12097 -42.9343 -10.8028 -47 -23v-127h124v130c-3.90492 15.6197 -35.7271 21 -57 21c-10 0 -16 0 -20 -1z" />
  </g>

</svg>
