<?xml version="1.0" standalone="no"?>
<!DOCTYPE svg PUBLIC "-//W3C//DTD SVG 1.1//EN" "http://www.w3.org/Graphics/SVG/1.1/DTD/svg11.dtd" >
<svg xmlns="http://www.w3.org/2000/svg" xmlns:xlink="http://www.w3.org/1999/xlink" version="1.1" viewBox="-10 0 1010 1000">
  <g transform="matrix(1 0 0 -1 0 800)">
   <path fill="currentColor"
d="M492 737c4 1 18 0 23 -1c6 -2 322 -128 328 -131c18.521 -11.1126 38.1946 -36.2217 30 -69c-6.95446 -26.6588 -28.5777 -48 -61 -48c-8 0 -10 0 -14 1c-3 1 -70 28 -151 60l-147 59l-146 -59c-83 -33 -149 -59 -152 -60s-8 -1 -12 -1c-30 -2 -56 18 -63 48
c-6.36148 25.4459 5.17576 46.1758 17 58c5 5 9 9 15 12c11.7643 5.88214 328.443 131 333 131zM937 394c0 -37.4088 -26.4458 -60.7367 -57 -63h-5v-343c8.93935 -1.78787 19.2473 -3.12367 27 -7c21.0414 -9.90186 42.6392 -35.4432 34 -70
c-6.52092 -24.9968 -23.9635 -43.4939 -51 -48h-383c-339 0 -382 -1 -387 0c-37.9737 5.84211 -70.2495 53.6258 -42 96c7 12 19 21 32 25c4 1 14 4 18 4h2v343h-2c-31.4002 0 -51.7829 22.74 -59 48c-10.0167 40.0668 19.365 70.5938 50 76c4 1 62 1 388 1h383
c28.4533 -9.48443 52 -24.3889 52 -62zM250 331v-343h500v343h-500zM283 251c7.18713 29.9464 35.9287 57.2678 77 47c23 -6 40 -24 45 -47c1 -5 1 -10 1 -92s0 -86 -1 -91c-6 -28 -30 -48 -58 -49c-30 -2 -57 19 -64 49c-1 5 -1 9 -1 91s0 87 1 92zM439 251
c7.18713 29.9464 35.9287 57.2678 77 47c23 -6 40 -24 45 -47c1 -5 1 -10 1 -92s0 -86 -1 -91c-6 -28 -30 -48 -58 -49c-30 -2 -57 19 -64 49c-1 5 -1 9 -1 91s0 87 1 92zM645 299c-25 -5 -44 -23 -50 -48c-1 -5 -1 -10 -1 -92s0 -86 1 -91c7 -30 34 -51 64 -49
c28 1 52 21 58 49c1 5 1 9 1 91s0 87 -1 92c-6.35702 29.2423 -32.2598 53.6772 -72 48z" />
  </g>

</svg>
