<?xml version="1.0" standalone="no"?>
<!DOCTYPE svg PUBLIC "-//W3C//DTD SVG 1.1//EN" "http://www.w3.org/Graphics/SVG/1.1/DTD/svg11.dtd" >
<svg xmlns="http://www.w3.org/2000/svg" xmlns:xlink="http://www.w3.org/1999/xlink" version="1.1" viewBox="-10 0 1010 1000">
  <g transform="matrix(1 0 0 -1 0 800)">
   <path fill="currentColor"
d="M937 -75c0 -34.6641 -22.2278 -57.038 -52 -62h-383c-339 0 -382 -1 -387 0c-37.9737 5.84211 -70.2495 53.6258 -42 96c7 12 19 21 32 25c4 1 14 4 18 4h2v697l2 5c7 25 26 43 50 47c4 1 52 0 325 0h320c28.645 -4.25907 45.6995 -25.4785 53 -52v-697
c8.93935 -1.78787 19.2473 -3.12367 27 -7c19.9162 -9.37234 35 -27.6489 35 -56zM250 612v-624h94v118c4 42 21 78 51 103c43 37 105 47 161 27c52 -19 89 -63 98 -116c2 -13 2 -20 2 -77v-55h94v624h-500zM438 492c2.47458 37.1186 35.4138 66.6465 78 56
c26 -7 44 -29 46 -56l1 -4c8.93935 -1.78787 19.2473 -3.12367 27 -7c20.7777 -9.77776 41.506 -35.976 33 -70c-7 -27 -28 -46 -55 -48l-5 -1l-1 -4c-3 -32 -27 -56 -59 -58c-33 -2 -62 24 -65 58l-1 4h-2c-3 0 -13 3 -17 4c-21.3766 6.57741 -34.5405 22.3917 -41 45
c-9.27205 37.0882 14.9609 64.988 41 73c4 1 14 4 17 4h2zM490 120c-12 -2 -19 -9 -21 -20v-112h62v111c-2 13 -14 21 -31 22c-3 0 -7 0 -10 -1z" />
  </g>

</svg>
