<?xml version="1.0" standalone="no"?>
<!DOCTYPE svg PUBLIC "-//W3C//DTD SVG 1.1//EN" "http://www.w3.org/Graphics/SVG/1.1/DTD/svg11.dtd" >
<svg xmlns="http://www.w3.org/2000/svg" xmlns:xlink="http://www.w3.org/1999/xlink" version="1.1" viewBox="-10 0 1010 1000">
  <g transform="matrix(1 0 0 -1 0 800)">
   <path fill="currentColor"
d="M464 726c14.7495 9.21845 29.2658 14.6836 52 9c8 -2 15 -5 21 -10c3 -2 25 -24 50 -49c47 -47 49 -49 53 -58c7.48625 -14.9725 18.1914 -99.2834 43 -260l37 -246h80c24 -3 46 -22 52 -45c2 -8 2 -14 2 -47v-32l16 -1c36.9122 0 58.3404 -18.6383 66 -48
c10.3258 -41.3033 -19.9215 -70.8203 -51 -76h-383c-339 0 -382 -1 -387 0c-29.7595 4.57838 -61.211 35.1559 -51 76c7.67464 30.6986 29.6799 49 69 49h13v31c0 33 0 40 2 48c7 24 28 42 52 45h80l37 246c23 151 39 248 40 251c2 7 6 14 10 20c5 7 92 94 97 97zM487 574
l-12 -12l-34 -223c-19 -123 -35 -224 -35 -225v-2h188v2c0 1 -16 102 -35 225l-34 223l-12 12c-7 7 -13 12 -13 12s-6 -5 -13 -12z" />
  </g>

</svg>
