<?xml version="1.0" standalone="no"?>
<!DOCTYPE svg PUBLIC "-//W3C//DTD SVG 1.1//EN" "http://www.w3.org/Graphics/SVG/1.1/DTD/svg11.dtd" >
<svg xmlns="http://www.w3.org/2000/svg" xmlns:xlink="http://www.w3.org/1999/xlink" version="1.1" viewBox="-10 0 1010 1000">
  <g transform="matrix(1 0 0 -1 0 800)">
   <path fill="currentColor"
d="M333 737c4 1 45 0 278 0h274c27 -4 46 -24 51 -49c1 -5 1 -16 1 -388s0 -383 -1 -388c-5 -25 -24 -45 -51 -49h-383c-339 0 -382 -1 -387 0c-26 4 -45 24 -51 49c-1 5 -1 10 -1 159v155c2 12 7 23 14 31c2 2 49 47 104 99l100 96v116l1 117c6 28 26 48 51 52zM406 612
v-162l92 -96c50 -53 92 -98 94 -100c5 -7 9 -15 11 -25c1 -4 1 -15 1 -123v-118h208v624h-406zM497 464c-43 46 -2 120 61 104c18 -5 32 -16 40 -33c17 -37 -6 -89 -53 -89c-19 -1 -35 5 -48 18zM698 570c2 0 6 1 10 1c35 0 63 -28 63 -63c0 -37 -34 -71 -79 -60
c-18 5 -32 16 -40 33c-17 37 6 81 46 89zM652 315c-23.7319 51.4191 23.2858 101.101 72 87c22 -6 38 -22 45 -44c2 -5 1 -6 1 -16c0 -71 -92 -83 -118 -27zM234 234l-46 -44v-202h93v291s-21 -21 -47 -45zM406 128v-140h73v204l-35 37c-19 20 -36 37 -37 38s-1 0 -1 -139z
M699 237c41 7 71 -23 71 -63c0 -10 1 -11 -1 -16c-10 -29 -41 -57 -84 -41c-50 19 -54 99 5 118c3 1 7 2 9 2z" />
  </g>

</svg>
