<?xml version="1.0" standalone="no"?>
<!DOCTYPE svg PUBLIC "-//W3C//DTD SVG 1.1//EN" "http://www.w3.org/Graphics/SVG/1.1/DTD/svg11.dtd" >
<svg xmlns="http://www.w3.org/2000/svg" xmlns:xlink="http://www.w3.org/1999/xlink" version="1.1" viewBox="-10 0 1010 1000">
  <g transform="matrix(1 0 0 -1 0 800)">
   <path fill="currentColor"
d="M521 737c36.8621 5.26602 63.7167 -19.0807 71 -47c1 -5 2 -6 2 -85v-79l110 -55c117 -59 115 -58 123 -66c8.0877 -9.24309 13.2514 -19.2568 16 -33l1 -192v-192l20 -1c20 0 21 0 27 -2c26.1585 -7.13414 54.8648 -34.5409 45 -74
c-6.52092 -24.9968 -23.9635 -43.4939 -51 -48h-383c-339 0 -382 -1 -387 0c-29.7595 4.57838 -61.211 35.1559 -51 76c8.32885 33.3154 30.0939 49 74 49h18v270l1 270c3.58534 17.9267 13.4933 33.9955 27 43c9.9947 6.66313 328.095 166 337 166zM375 527l-94 -47v-492
h43c39 0 42 0 38 1c-35.0519 6.37307 -60.3517 48.1559 -45 85c7.88272 19.7068 27.8346 34.1391 51 38c-32.6906 6.53811 -57.2144 31.6764 -55 66c1.51127 31.7366 22.9604 53.6601 55 59c-32.6906 6.53811 -57.2144 31.6764 -55 66
c1.51127 31.7366 22.9604 53.6601 55 59c-25.1562 5.03124 -45.0521 19.021 -53 44c-13 41 20 83 63 81c32 -2 57 -27 59 -59s-20 -60 -51 -65l-4 -1c27.0379 -5.40758 47.3391 -21.3563 54 -48c2 -7 2 -22 0 -29c-7.77017 -26.6406 -26.8167 -42.5633 -54 -48
c27.8679 -4.64465 47.327 -21.308 54 -48c2 -7 2 -22 0 -29c-7.77017 -26.6406 -26.8167 -42.5633 -54 -48c27.8679 -4.64465 47.327 -21.308 54 -48c2 -7 2 -22 0 -29c-6 -24 -25 -41 -48 -46c-4 -1 -1 -1 38 -1h43v586s-43 -21 -94 -47zM594 187v-199h125v336
c-41.837 20.4963 -83.5094 41.1573 -125 62v-199z" />
  </g>

</svg>
