<?xml version="1.0" standalone="no"?>
<!DOCTYPE svg PUBLIC "-//W3C//DTD SVG 1.1//EN" "http://www.w3.org/Graphics/SVG/1.1/DTD/svg11.dtd" >
<svg xmlns="http://www.w3.org/2000/svg" xmlns:xlink="http://www.w3.org/1999/xlink" version="1.1" viewBox="-10 0 1010 1000">
  <g transform="matrix(1 0 0 -1 0 800)">
   <path fill="currentColor"
d="M937 175c0 -37.6465 -23.5396 -52.5132 -52 -62h-36l-36 -1l-1 -67c0 -67 0 -67 -1 -72c-15.7148 -62.8591 -105.283 -62.6896 -122 0c-1 5 -1 5 -1 72l-1 67h-374l-1 -67c0 -67 0 -67 -1 -72c-15.7148 -62.8591 -105.283 -62.6896 -122 0c-1 5 -1 5 -1 72l-1 67h-33
c-27 0 -35 0 -39 1c-29.7595 4.57838 -61.211 35.1559 -51 76c5.9845 23.938 25.9528 44.1466 51 48c4 1 12 1 39 1h34v102c0 56 -1 102 -1 102c-25.4344 -12.7172 -61.0353 -25.4824 -90 -11c-21.2784 10.0133 -41.5102 36.9591 -33 71
c5.26476 24.5689 28.9548 45.8296 55 48c5 1 11 4 21 13c17 17 36 44 52 74c12.5527 23.0133 27.5532 38 60 38c21 -1 39 -11 51 -29c4 -6 6 -12 10 -26c19.4465 -67.1788 62.1939 -141.31 115 -174c21.0515 -12.28 41.0246 -21 72 -21c57.4951 0 92.2716 30.8875 121 66
c27 34 52 82 66 130c9.18561 32.1496 32.3511 55.5295 66 54c22 -1 40 -12 51 -31c21.1794 -31.7691 37.9191 -70.946 68 -91c4 -3 5 -3 9 -3c2 0 7 -1 10 -2c24.9909 -6.81571 46 -27.3496 46 -60c0 -39.0143 -25.6383 -63 -66 -63
c-21.1469 1.17483 -40.0863 8.04313 -58 17c0 0 -1 -46 -1 -102v-102l37 -1h36c28.4533 -9.48443 52 -24.3889 52 -62zM312 378v-140h126v69c-52.2569 13.0642 -89.3907 39.6206 -126 71zM680 372c-34.0574 -30.2732 -71.87 -53.4675 -118 -65v-69h126v70c0 39 -1 70 -1 70
s-3 -2 -7 -6z" />
  </g>

</svg>
