<?xml version="1.0" standalone="no"?>
<!DOCTYPE svg PUBLIC "-//W3C//DTD SVG 1.1//EN" "http://www.w3.org/Graphics/SVG/1.1/DTD/svg11.dtd" >
<svg xmlns="http://www.w3.org/2000/svg" xmlns:xlink="http://www.w3.org/1999/xlink" version="1.1" viewBox="-10 0 1010 1000">
  <g transform="matrix(1 0 0 -1 0 800)">
   <path fill="currentColor"
d="M521 737c37 5 64 -19 71 -47c1 -5 2 -6 2 -85v-79l110 -55c117 -59 115 -58 123 -66c8 -9 13 -19 16 -33l1 -192v-192l20 -1c20 0 21 0 27 -2c26 -7 55 -35 45 -74c-7 -25 -24 -43 -51 -48h-383c-339 0 -382 -1 -387 0c-30 5 -61 35 -51 76c8 33 30 49 74 49h18v270
l1 270c4 18 13 34 27 43c10 7 328 166 337 166zM375 527l-94 -47v-492h43c39 0 42 0 38 1c-35 6 -60 48 -45 85c8 20 28 34 51 38c-33 7 -57 32 -55 66c2 32 23 54 55 59c-33 7 -57 32 -55 66c2 32 23 54 55 59c-25 5 -45 19 -53 44c-13 41 20 83 63 81c32 -2 57 -27 59 -59
s-20 -60 -51 -65l-4 -1c27 -5 47 -21 54 -48c2 -7 2 -22 0 -29c-8 -27 -27 -43 -54 -48c28 -5 47 -21 54 -48c2 -7 2 -22 0 -29c-8 -27 -27 -43 -54 -48c28 -5 47 -21 54 -48c2 -7 2 -22 0 -29c-6 -24 -25 -41 -48 -46c-4 -1 -1 -1 38 -1h43v586s-43 -21 -94 -47zM594 386
v-398h125v336c-42 20 -84 41 -125 62z" />
  </g>

</svg>
