<svg width="16" height="16" viewBox="0 0 16 16" fill="none" xmlns="http://www.w3.org/2000/svg">
<path d="M3 14C3.76467 11.32 3.98867 8.64867 4 6H8C8.00356 6.83125 8.06089 7.66473 8.16153 8.5M9.33333 14C8.80865 12.1611 8.38158 10.3262 8.16153 8.5M13 14C12.2627 12.1973 11.5167 10.2413 11.5 8.5H8.16153M6 3.33334C6.30289 2.91135 6.81401 2.6558 7.33333 2.66668C7.85266 2.6558 8.36377 2.91135 8.66667 3.33334C8.96956 3.75533 9.48067 4.01089 10 4.00001C10.5193 4.01089 11.0304 3.75533 11.3333 3.33334C11.6362 2.91135 12.1473 2.6558 12.6667 2.66668C13.186 2.6558 13.6971 2.91135 14 3.33334M2 14L14 14" stroke="#24282B" stroke-width="2" stroke-linecap="round" stroke-linejoin="round"/>
</svg>
