<?xml version="1.0" standalone="no"?>
<!DOCTYPE svg PUBLIC "-//W3C//DTD SVG 1.1//EN" "http://www.w3.org/Graphics/SVG/1.1/DTD/svg11.dtd" >
<svg xmlns="http://www.w3.org/2000/svg" xmlns:xlink="http://www.w3.org/1999/xlink" version="1.1" viewBox="-10 0 1010 1000">
  <g transform="matrix(1 0 0 -1 0 800)">
   <path fill="currentColor"
d="M937 -75c0 -35 -22 -57 -52 -62h-383c-339 0 -382 -1 -387 0c-38 6 -70 54 -42 96c7 12 19 21 32 25c4 1 14 4 18 4h2v697l2 5c7 25 26 43 50 47c4 1 52 0 325 0h320c29 -4 46 -25 53 -52v-697c9 -2 19 -3 27 -7c20 -9 35 -28 35 -56zM250 612v-624h500v624h-500z
M687 456c0 -38 -24 -53 -52 -62h-39c-33 0 -39 0 -44 1c-23 6 -51 24 -51 53c0 1 -1 2 -1 2s-1 -1 -1 -2c0 -30 -28 -46 -52 -54h-38c-33 0 -39 0 -44 1c-31 5 -61 34 -51 76c7 23 26 43 50 47c4 1 12 1 44 1l39 -1c26 -4 52 -26 52 -54c0 -1 1 -2 1 -2s1 1 1 2
c0 25 22 45 42 52c9 3 12 3 53 3l39 -1c30 -5 52 -27 52 -62zM687 300c0 -38 -24 -53 -52 -62h-39c-52 0 -44 -5 -69 11c-11 8 -26 25 -26 43c0 1 -1 2 -1 2s-1 -1 -1 -2c0 -31 -28 -46 -52 -54h-38c-33 0 -39 -1 -44 0c-38 6 -70 54 -42 96c9 14 24 25 41 28c4 1 12 0 44 0
h39c25 -8 45 -21 51 -47c1 -3 1 -6 1 -7s1 -2 1 -2s1 1 1 2c0 25 22 44 42 51c9 3 12 3 53 3h39c28 -9 52 -24 52 -62zM635 206c29 -10 52 -24 52 -62c0 -35 -22 -57 -52 -62l-39 -1c-33 0 -39 0 -44 1c-9 2 -17 5 -25 10c-11 8 -26 26 -26 44c0 1 -1 2 -1 2s-1 -1 -1 -2
c0 -28 -26 -50 -52 -54l-38 -1c-33 0 -39 0 -44 1c-26 4 -45 23 -51 47c-10 42 21 71 50 76c4 1 12 1 44 1h39c24 -8 52 -24 52 -54c0 -1 1 -2 1 -2s1 1 1 2s0 3 1 6c5 21 21 38 41 45c9 3 12 3 53 3h39z" />
  </g>

</svg>
