<svg width="16" height="16" viewBox="0 0 16 16" fill="none" xmlns="http://www.w3.org/2000/svg">
<path d="M2 14H14M10 5.33333V4.5M10 5.33333C10 6.42267 9.08933 7.33333 8 7.33333C6.91067 7.33333 6 6.42267 6 5.33333M10 5.33333C10 6.42267 10.9107 7.33333 12 7.33333C13.0893 7.33333 14 6.42267 14 5.33333V4.5M10 4.5H14M10 4.5H6M14 4.5L12.5 2H3.5L2 4.5M2 4.5C2 5.77561 2.43881 7.33333 4 7.33333C5.08933 7.33333 6 6.42267 6 5.33333M2 4.5H6M6 5.33333V4.5M3.5 14V7.27308M12.5 14V7.26804M6 14V11C6 9.1469 10 9.02947 10 11V14" stroke="#24282B" stroke-width="2" stroke-linecap="round" stroke-linejoin="round"/>
</svg>
