<?xml version="1.0" standalone="no"?>
<!DOCTYPE svg PUBLIC "-//W3C//DTD SVG 1.1//EN" "http://www.w3.org/Graphics/SVG/1.1/DTD/svg11.dtd" >
<svg xmlns="http://www.w3.org/2000/svg" xmlns:xlink="http://www.w3.org/1999/xlink" version="1.1" viewBox="-10 0 1010 1000">
  <g transform="matrix(1 0 0 -1 0 800)">
   <path fill="currentColor"
d="M438 686c12 34 34 60 78 49c24 -6 38 -23 46 -49c35 -111 146 -185 271 -197c4 0 17 -1 29 -1c24 -1 27 -1 37 -5c23 -10 38 -29 38 -61c0 -13 -1 -19 -3 -32c-12 -60 -54 -118 -116 -139l-5 -3v-130l-1 -130l37 -1h36c26 -9 44 -21 51 -48c10 -41 -20 -71 -51 -76h-148
c-130 0 -148 -1 -153 0c-24 4 -45 24 -51 47c-1 5 -2 6 -2 74v69c-5 13 -17 24 -28 28c-13 3 -31 -18 -34 -28v-69c0 -68 -1 -69 -2 -74c-6 -25 -25 -43 -51 -47h-148c-130 0 -148 -1 -153 0c-30 5 -61 35 -51 76c6 24 26 44 51 48c4 1 12 1 39 1h34v260l-4 2
c-64 25 -121 86 -121 172c0 46 27 66 75 66c12 0 25 1 29 1c126 13 236 87 271 197zM500 537c-2 -3 -4 -5 -8 -10c-61 -77 -153 -134 -260 -155l-10 -2c-1 -1 13 -6 19 -7h518c5 2 21 6 19 7c-1 0 -7 2 -14 3c-104 22 -201 82 -259 157c-3 3 -5 7 -5 7zM312 238v-250h32v37
c0 41 0 43 4 58c5 20 17 42 31 60c25 34 63 59 116 63c75 2 143 -60 158 -127c3 -12 3 -15 3 -54v-37h32v250h-376z" />
  </g>

</svg>
