<?xml version="1.0" standalone="no"?>
<!DOCTYPE svg PUBLIC "-//W3C//DTD SVG 1.1//EN" "http://www.w3.org/Graphics/SVG/1.1/DTD/svg11.dtd" >
<svg xmlns="http://www.w3.org/2000/svg" xmlns:xlink="http://www.w3.org/1999/xlink" version="1.1" viewBox="-10 0 1010 1000">
  <g transform="matrix(1 0 0 -1 0 800)">
   <path fill="currentColor"
d="M937 -75c0 -35 -22 -57 -52 -62h-383c-339 0 -382 -1 -387 0c-38 6 -70 54 -42 96c7 12 19 21 32 25c4 1 14 4 18 4h2v697l2 5c7 25 26 43 50 47c4 1 52 0 325 0h320c29 -4 46 -25 53 -52v-697c9 -2 19 -3 27 -7c20 -9 35 -28 35 -56zM250 612v-624h94v118
c4 42 21 78 51 103c43 37 105 47 161 27c52 -19 89 -63 98 -116c2 -13 2 -20 2 -77v-55h94v624h-500zM438 492c2 37 35 67 78 56c26 -7 44 -29 46 -56l1 -4c9 -2 19 -3 27 -7c21 -10 42 -36 33 -70c-7 -27 -28 -46 -55 -48l-5 -1l-1 -4c-3 -32 -27 -56 -59 -58
c-33 -2 -62 24 -65 58l-1 4h-2c-3 0 -13 3 -17 4c-21 7 -35 22 -41 45c-9 37 15 65 41 73c4 1 14 4 17 4h2zM500 121c-17 0 -28 -7 -31 -21v-112h62v111c-2 13 -14 21 -31 22z" />
  </g>

</svg>
