<?xml version="1.0" standalone="no"?>
<!DOCTYPE svg PUBLIC "-//W3C//DTD SVG 1.1//EN" "http://www.w3.org/Graphics/SVG/1.1/DTD/svg11.dtd" >
<svg xmlns="http://www.w3.org/2000/svg" xmlns:xlink="http://www.w3.org/1999/xlink" version="1.1" viewBox="-10 0 1010 1000">
  <g transform="matrix(1 0 0 -1 0 800)">
   <path fill="currentColor"
d="M439 690c8 31 37 55 77 45c22 -6 39 -22 45 -45c1 -4 1 -8 1 -26l1 -20h20c20 0 21 0 27 -2c26 -7 46 -28 46 -61c0 -27 -16 -46 -35 -56c-11 -5 -17 -6 -40 -6h-19l1 -11v-11l176 -137c105 -82 179 -140 181 -142c12 -12 22 -32 16 -57s-26 -44 -51 -48
c-4 -1 -12 -1 -39 -1h-34v-124l37 -1h36c26 -9 44 -21 51 -48c10 -41 -20 -71 -51 -76h-383c-339 0 -382 -1 -387 0c-30 5 -61 35 -51 76c6 24 26 44 51 48c4 1 12 1 39 1h34v124h-34c-36 0 -40 1 -49 4c-23 9 -42 27 -42 59c0 20 6 32 17 43c2 2 78 62 181 142l176 137v11
l1 11h-19c-45 0 -65 16 -74 48c-8 33 11 61 33 70c11 6 18 7 41 7h18l1 20c0 18 0 22 1 26zM404 313l-96 -75h385l-97 74c-53 41 -96 75 -96 75s-43 -33 -96 -74zM344 43c0 50 -2 65 2 69h-34v-124h32v55zM531 93c-14 21 -39 26 -57 8c-6 -6 -5 -1 -5 -61v-52h62v105z
M655 111c1 -5 1 -18 1 -68v-55h32v124h-34z" />
  </g>

</svg>
