<?xml version="1.0" standalone="no"?>
<!DOCTYPE svg PUBLIC "-//W3C//DTD SVG 1.1//EN" "http://www.w3.org/Graphics/SVG/1.1/DTD/svg11.dtd" >
<svg xmlns="http://www.w3.org/2000/svg" xmlns:xlink="http://www.w3.org/1999/xlink" version="1.1" viewBox="-10 0 1010 1000">
  <g transform="matrix(1 0 0 -1 0 800)">
   <path fill="currentColor"
d="M375 -8c0 -40 -22 -57 -53 -67h-101c-88 0 -101 0 -106 1c-26 4 -45 23 -51 48c-1 5 -1 15 -1 295s0 289 1 294c6 25 25 44 50 49c4 1 62 0 388 0h383c27 -4 46 -24 51 -49c1 -5 1 -14 1 -294s0 -290 -1 -295c-6 -27 -25 -40 -51 -49h-101c-88 0 -102 0 -107 1
c-17 3 -33 12 -42 27c-8 12 -9 20 -10 39c-5 81 -22 165 -56 209c-24 33 -66 48 -105 28c-35 -17 -63 -68 -78 -142c-6 -32 -9 -60 -11 -95zM188 488v-438h66l1 11c18 151 84 282 219 300c6 1 13 1 25 1c18 0 25 0 40 -3c72 -13 129 -62 165 -143c19 -43 34 -98 41 -155
l1 -11h66v438h-624z" />
  </g>

</svg>
