<?xml version="1.0" standalone="no"?>
<!DOCTYPE svg PUBLIC "-//W3C//DTD SVG 1.1//EN" "http://www.w3.org/Graphics/SVG/1.1/DTD/svg11.dtd" >
<svg xmlns="http://www.w3.org/2000/svg" xmlns:xlink="http://www.w3.org/1999/xlink" version="1.1" viewBox="-10 0 1010 1000">
  <g transform="matrix(1 0 0 -1 0 800)">
   <path fill="currentColor"
d="M489 737c7 1 19 0 27 -2c6 -1 22 -9 199 -97c206 -103 198 -99 206 -108c7 -8 13 -18 15 -29c1 -5 1 -15 1 -295s0 -289 -1 -294c-14 -67 -110 -62 -123 3v267l-1 267l-312 156l-312 -156l-1 -267v-267c-13.0446 -67.3972 -107.767 -68.2848 -123 -3c-1 5 -1 14 -1 294
s0 290 1 295c4 15 14 30 26 38c10 7 390 198 399 198zM364 393c4 1 19 1 91 1l86 -1c30 -5 51 -28 53 -57v-5h134c27 -8 46 -22 52 -49c1 -5 1 -11 1 -185s0 -180 -1 -185c-5 -25 -24 -45 -52 -49h-226c-200 0 -226 -1 -231 0c-26 4 -45 24 -51 49c-1 5 -1 10 -1 138
s0 133 1 138c7 33 32 50 74 50h18l1 51c0 51 0 52 1 57c7 25 25 43 50 47zM438 269v-31h31v31h-31zM594 206v-218h62v218h-62zM344 112v-124h125v124h-125z" />
  </g>

</svg>
