<?xml version="1.0" standalone="no"?>
<!DOCTYPE svg PUBLIC "-//W3C//DTD SVG 1.1//EN" "http://www.w3.org/Graphics/SVG/1.1/DTD/svg11.dtd" >
<svg xmlns="http://www.w3.org/2000/svg" xmlns:xlink="http://www.w3.org/1999/xlink" version="1.1" viewBox="-10 0 1010 1000">
  <g transform="matrix(1 0 0 -1 0 800)">
   <path fill="currentColor"
d="M489 737c3 1 8 0 13 0c15 0 4 5 150 -68c139 -69 136 -67 144 -76c8 -8 103 -198 107 -211c3 -11 3 1 3 -209v-194c18 -9 38 -36 30 -68c-7 -25 -24 -43 -51 -48h-383c-339 0 -382 -1 -387 0c-38 6 -70 54 -42 96c5 8 13 16 21 20v194c0 210 0 198 3 209
c2 6 97 195 101 202c4 6 11 14 17 18s260 130 265 132c2 1 6 3 9 3zM635 237c28 -5 46 -24 52 -52v-99l1 -98h93v359l-78 156c-68 34 -135 68 -203 102c-68 -34 -136 -68 -203 -102c-26 -51 -52 -103 -78 -155v-360h93l1 98v99c5 26 25 48 52 52c5 1 22 0 138 0h132z
M365 479c21 51 74 102 150 91c73 -7 123 -65 130 -131c8 -79 -41 -134 -98 -152c-86 -29 -165 24 -186 93c-10 31 -8 70 4 99zM500 405c13 0 20 7 20 20c0 25 -33 27 -40 6c-4 -15 5 -26 20 -26zM438 112v-124h124v124h-124z" />
  </g>

</svg>
