<?xml version="1.0" standalone="no"?>
<!DOCTYPE svg PUBLIC "-//W3C//DTD SVG 1.1//EN" "http://www.w3.org/Graphics/SVG/1.1/DTD/svg11.dtd" >
<svg xmlns="http://www.w3.org/2000/svg" xmlns:xlink="http://www.w3.org/1999/xlink" version="1.1" viewBox="-10 0 1010 1000">
  <g transform="matrix(1 0 0 -1 0 800)">
   <path fill="currentColor"
d="M438 686c12.1153 33.9227 33.8554 60.0361 78 49c24.181 -6.44826 37.9424 -22.8128 46 -49c35.1579 -111.333 145.765 -185.185 271 -197c4 0 17 -1 29 -1c24 -1 27 -1 37 -5c22.6417 -10.063 38 -28.7822 38 -61c0 -13 -1 -19 -3 -32
c-11.6576 -60.4077 -54.4965 -118.499 -116 -139l-5 -3v-130l-1 -130l37 -1h36c25.9421 -8.64736 43.8666 -20.6553 51 -48c10.3258 -41.3033 -19.9215 -70.8203 -51 -76h-148c-130 0 -148 -1 -153 0c-24.412 3.7557 -45.1722 23.6889 -51 47c-1 5 -2 6 -2 74v69
c-5.03771 12.5943 -16.707 24.2357 -28 28c-12.7164 3.1791 -30.7708 -18.3125 -34 -28v-69c0 -68 -1 -69 -2 -74c-6.47558 -24.823 -25.0005 -42.6668 -51 -47h-148c-130 0 -148 -1 -153 0c-29.7595 4.57838 -61.211 35.1559 -51 76c5.9845 23.938 25.9528 44.1466 51 48
c4 1 12 1 39 1h34v260l-4 2c-64.0278 24.9864 -121 86.2822 -121 172c0 45.9652 27.3546 66 75 66c12 0 25 1 29 1c125.601 12.5601 236.233 87.3496 271 197zM500 537c-1.64167 -3.28333 -3.97397 -4.63195 -8 -10c-61.4024 -77.2824 -153.023 -133.605 -260 -155l-10 -2
c-1.26608 -1.26608 13.3636 -5.87272 19 -7h518c5.03961 1.67987 21.4045 5.79777 19 7c-1 0 -7 2 -14 3c-104.439 22.4945 -200.781 82.1468 -259 157c-3 3 -5 7 -5 7zM312 112v-124h32v37c0 41 0 43 4 58c5 20 17 42 31 60c24.5243 34.334 63.022 59.4681 116 63
c74.7296 2.26453 142.869 -60.4248 158 -127c3 -12 3 -15 3 -54v-37h32v250h-376v-126z" />
  </g>

</svg>
