<?xml version="1.0" standalone="no"?>
<!DOCTYPE svg PUBLIC "-//W3C//DTD SVG 1.1//EN" "http://www.w3.org/Graphics/SVG/1.1/DTD/svg11.dtd" >
<svg xmlns="http://www.w3.org/2000/svg" xmlns:xlink="http://www.w3.org/1999/xlink" version="1.1" viewBox="-10 0 1010 1000">
  <g transform="matrix(1 0 0 -1 0 800)">
   <path fill="currentColor"
d="M316 369c-15.1994 7.59968 -34 27.1255 -34 48c0 1 -1 2 -1 2v-2c0 -3 -3 -11 -5 -16c-5 -11 -5 -12 -59 -66c-28 -28 -52 -52 -55 -54c-36.8147 -25.7703 -88.0249 -6.75061 -98 36c-4.86762 19.4705 1.59631 36.8945 9 48c3 4 8 11 30 33l27 27l-27 27
c-29 29 -32 33 -36 43c-3 8 -4 14 -4 24c0 47.0747 51.051 81.0204 97 52c3 -2 19 -18 56 -55c56 -56 55 -56 60 -67c2 -5 5 -13 5 -16v-2s1 1 1 2c0 13.1681 8.94287 25.1786 16 34c8 9 20 17 31 19c2 0 5 1 5 1c0.244214 1.75834 10.6174 75.8523 11 77c1 6 4 13 7 18
c1.80173 3.60347 102.537 135.537 106 139c14.8262 13.1788 31.9278 20.5181 58 14c11 -3 22 -9 29 -17c4 -4 100 -131 103 -136c10.8473 -18.0789 7.72623 -23.8415 13 -59c3 -20 5 -36 5 -36c21.4665 -7.15549 40.7872 -16.3616 48 -38c2 -5 4 -13 4 -16c0 -1 1 -2 1 -2v2
c0 3 3 11 5 16c5 11 4 12 58 66c27 27 52 50 54 52c10.8457 8.67655 20.9051 14 40 14c35.422 0 61 -27.3879 61 -62c0 -10 -1 -16 -4 -24c-4 -10 -7 -14 -36 -43l-27 -27l27 -27c29 -29 32 -33 36 -43c3 -8 4 -14 4 -24c0 -52.952 -62.7705 -80.7682 -101 -48
c-2 2 -27 25 -54 52c-54 54 -53 55 -58 66c-2 5 -5 13 -5 16v2s-1 -1 -1 -2c0 -22.5291 -19.0088 -38.0059 -34 -48l1 -3c0 -11.1 65 -421.8 65 -444c-1.07361 -30.061 -22.2332 -53.8722 -53 -59h-194c-172 0 -196 -1 -201 0c-27.808 4.9073 -49.4142 27.9706 -52 59
c0 22.2 65 432.9 65 444zM483 548l-17 -23l-3 -17c-1 -9 -3 -18 -3 -19v-1h80v1c0 1 -2 10 -3 19l-3 17l-17 23c-9 12 -17 23 -17 23s-8 -11 -17 -23zM441 362c0 -1 -56 -372 -56 -373v-1h230v1c0 1 -56 372 -56 373h-118z" />
  </g>

</svg>
