<?xml version="1.0" standalone="no"?>
<!DOCTYPE svg PUBLIC "-//W3C//DTD SVG 1.1//EN" "http://www.w3.org/Graphics/SVG/1.1/DTD/svg11.dtd" >
<svg xmlns="http://www.w3.org/2000/svg" xmlns:xlink="http://www.w3.org/1999/xlink" version="1.1" viewBox="-10 0 1010 1000">
  <g transform="matrix(1 0 0 -1 0 800)">
   <path fill="currentColor"
d="M363 666c38 27 97 41 152 20c30 -12 55 -30 74 -54c10 -13 19 -19 36 -19c15 0 24 4 35 18c26 34 64 56 106 63c47 5 84 -3 114 -23c20 -13 42 -35 50 -51c20 -39 -5 -90 -55 -90c-26 0 -37 9 -50 25c-8 9 -17 16 -33 16c-17 0 -27 -8 -36 -20c-22 -29 -61 -55 -101 -61
c-56 -10 -110 8 -149 48c-15 15 -21 33 -48 33c-16 0 -25 -7 -33 -16c-13 -16 -24 -25 -50 -25c-48 0 -75 51 -55 90c7 14 26 35 43 46zM510 487c35.7934 -5.50668 53 -29.7326 53 -74c1 -31 3 -78 4 -81c0 -1 18 -1 81 -1h80c30 -9 53 -27 53 -66
c5.42518 -92.228 30.7438 -172.602 73 -277l16 -1c40 0 67 -22 67 -62c0 -35 -22 -57 -52 -62h-383c-339 0 -382 -1 -387 0c-30 5 -61 35 -51 76c7 27 28 48 64 48l12 1l1 7c24 98 38 201 44 318c1 24 1 57 2 93c0 26 1 30 2 34c6 24 26 43 50 47c4 1 26 0 138 0h133z
M501 -12c-34 133 -56 259 -62 374h-127s-1 -4 -1 -8c0 -13 -2 -49 -4 -83c-6 -99 -19 -197 -39 -283h233zM582 205c0 -2 7 -39 11 -60c9 -45 23 -101 36 -151l2 -6h90c-31 77 -51 153 -59 208c-1 4 -1 8 -1 9v1h-39c-38 0 -40 0 -40 -1z" />
  </g>

</svg>
