<?xml version="1.0" standalone="no"?>
<!DOCTYPE svg PUBLIC "-//W3C//DTD SVG 1.1//EN" "http://www.w3.org/Graphics/SVG/1.1/DTD/svg11.dtd" >
<svg xmlns="http://www.w3.org/2000/svg" xmlns:xlink="http://www.w3.org/1999/xlink" version="1.1" viewBox="-10 0 1010 1000">
  <g transform="matrix(1 0 0 -1 0 800)">
   <path fill="currentColor"
d="M464 726c15 9 29 15 52 9c8 -2 15 -5 21 -10c3 -2 25 -24 50 -49c47 -47 49 -49 53 -58c7 -15 18 -99 43 -260l37 -246h80c24 -3 46 -22 52 -45c2 -8 2 -14 2 -47v-32l16 -1c37 0 58 -19 66 -48c10 -41 -20 -71 -51 -76h-383c-339 0 -382 -1 -387 0c-30 5 -61 35 -51 76
c8 31 30 49 69 49h13v31c0 33 0 40 2 48c7 24 28 42 52 45h80l37 246c23 151 39 248 40 251c2 7 6 14 10 20c5 7 92 94 97 97zM487 574l-12 -12l-34 -223c-19 -123 -35 -224 -35 -225v-2h188v2c0 1 -16 102 -35 225l-34 223l-12 12c-7 7 -13 12 -13 12s-6 -5 -13 -12z" />
  </g>

</svg>
