<?xml version="1.0" standalone="no"?>
<!DOCTYPE svg PUBLIC "-//W3C//DTD SVG 1.1//EN" "http://www.w3.org/Graphics/SVG/1.1/DTD/svg11.dtd" >
<svg xmlns="http://www.w3.org/2000/svg" xmlns:xlink="http://www.w3.org/1999/xlink" version="1.1" viewBox="-10 0 1010 1000">
  <g transform="matrix(1 0 0 -1 0 800)">
   <path fill="currentColor"
d="M375 -8c0 -39.9897 -22.339 -56.7797 -53 -67h-101c-88 0 -101 0 -106 1c-26.177 4.02724 -44.7633 23.0534 -51 48c-1 5 -1 15 -1 295s0 289 1 294c6 25 25 44 50 49c4 1 62 0 388 0h383c26.9752 -4.49587 45.5523 -23.9407 51 -49c1 -5 1 -14 1 -294s0 -290 -1 -295
c-5.95755 -27.4047 -25.1979 -40.3993 -51 -49h-101c-88 0 -102 0 -107 1c-17 3 -33 12 -42 27c-8 12 -9 20 -10 39c-4.61198 80.7096 -22.3172 165.212 -56 209c-23.7636 32.5186 -65.8108 47.5946 -105 28c-35 -17 -63 -68 -78 -142c-6 -32 -9 -60 -11 -95zM188 269v-219
h66l1 11c18.1198 150.998 83.5902 282.078 219 300c6 1 13 1 25 1c18 0 25 0 40 -3c72 -13 129 -62 165 -143c19 -43 34 -98 41 -155l1 -11h66v438h-624v-219z" />
  </g>

</svg>
