<?xml version="1.0" standalone="no"?>
<!DOCTYPE svg PUBLIC "-//W3C//DTD SVG 1.1//EN" "http://www.w3.org/Graphics/SVG/1.1/DTD/svg11.dtd" >
<svg xmlns="http://www.w3.org/2000/svg" xmlns:xlink="http://www.w3.org/1999/xlink" version="1.1" viewBox="-10 0 1010 1000">
  <g transform="matrix(1 0 0 -1 0 800)">
   <path fill="currentColor"
d="M937 -75c0 -35 -22 -57 -52 -62h-383c-339 0 -382 -1 -387 0c-38 6 -70 54 -42 96c7 12 19 21 32 25c4 1 14 4 18 4h2v697l2 5c7 25 26 43 50 47c4 1 52 0 325 0h320c29 -4 46 -25 53 -52v-697c9 -2 19 -3 27 -7c20 -9 35 -28 35 -56zM250 612v-624h62l1 128v136
c8 88 71 177 162 192c9 2 30 2 40 1c21 -2 43 -9 62 -19c60 -33 104 -102 110 -174v-136l1 -128h62v624h-500zM491 319c-26 -8 -47 -40 -53 -71v-130l-1 -130h126l-1 130v130c-6 31 -27 63 -54 72c-4 1 -13 0 -17 -1z" />
  </g>

</svg>
