<?xml version="1.0" standalone="no"?>
<!DOCTYPE svg PUBLIC "-//W3C//DTD SVG 1.1//EN" "http://www.w3.org/Graphics/SVG/1.1/DTD/svg11.dtd" >
<svg xmlns="http://www.w3.org/2000/svg" xmlns:xlink="http://www.w3.org/1999/xlink" version="1.1" viewBox="-10 0 1010 1000">
  <g transform="matrix(1 0 0 -1 0 800)">
   <path fill="currentColor"
d="M333 737c4 1 45 0 278 0h274c26.9752 -4.49587 45.5523 -23.9407 51 -49c1 -5 1 -16 1 -388s0 -383 -1 -388c-5.44627 -25.0528 -24.0371 -44.5062 -51 -49h-383c-339 0 -382 -1 -387 0c-25.6715 3.94946 -44.8583 24.4332 -51 49c-1 5 -1 10 -1 159v155
c2.48192 12.4096 7.10712 22.9583 14 31c2 2 49 47 104 99l100 96v116l1 117c5.58912 27.9456 25.5094 47.7516 51 52zM406 612v-162l92 -96c50 -53 92 -98 94 -100c5 -7 9 -15 11 -25c1 -4 1 -15 1 -123v-118h208v624h-406zM497 464
c-42.9502 46.0181 -1.61256 119.653 61 104c18 -5 32 -16 40 -33c16.5309 -36.6041 -5.57044 -89 -53 -89c-19 -1 -35 5 -48 18zM698 570c2 0 6 1 10 1c35 0 63 -28 63 -63c0 -37.2856 -33.8089 -71.2978 -79 -60c-18 5 -32 16 -40 33
c-17.2396 36.9419 5.59422 80.9188 46 89zM648 357c8.41119 30.04 37.6622 55.9536 76 45c22 -6 38 -22 45 -44c2 -5 1 -6 1 -16c0 -70.8781 -91.9383 -83.4671 -118 -27c-6 13 -8 29 -4 42zM234 234l-46 -44v-202h93v291s-21 -21 -47 -45zM406 128v-140h73v204l-35 37
c-19 20 -36 37 -37 38s-1 0 -1 -139zM699 237c-2 0 -6 -1 -9 -2c-59.0259 -18.551 -54.588 -99.4045 -5 -118c42.6876 -16.0078 74.4029 12.2086 84 41c2 5 1 6 1 16c0 39.505 -29.6897 69.8851 -71 63z" />
  </g>

</svg>
