<?xml version="1.0" standalone="no"?>
<!DOCTYPE svg PUBLIC "-//W3C//DTD SVG 1.1//EN" "http://www.w3.org/Graphics/SVG/1.1/DTD/svg11.dtd" >
<svg xmlns="http://www.w3.org/2000/svg" xmlns:xlink="http://www.w3.org/1999/xlink" version="1.1" viewBox="-10 0 1010 1000">
  <g transform="matrix(1 0 0 -1 0 800)">
   <path fill="currentColor"
d="M479 549c149 9 264 -89 284 -213c12 -72 -8 -144 -56 -201c-8 -9 -25 -25 -33 -32c-6 -5 -7 -6 -9 -11c-4 -9 -8 -23 -13 -50c-9 -52 -15 -73 -24 -94c-17 -39 -44 -66 -80 -78s-81 -10 -112 7c-33 18 -55 47 -69 91c-4 13 -25 111 -29 120c-3 7 -4 8 -11 14
c-47 39 -80 92 -90 150c-3 16 -3 26 -3 44c0 29 4 54 13 81c34 99 123 165 232 172zM488 425c-1 0 -6 -1 -9 -1c-88 -10 -144 -98 -111 -175c8 -18 20 -36 36 -49c11 -10 45 -24 65 -30c12 -3 19 -4 32 -4c31 0 46 10 76 24c14 7 19 9 29 20s18 21 24 34
c22 46 12 101 -24 139c-22 23 -49 35 -82 40c-7 1 -31 3 -36 2zM516 41h-21c-14 0 -17 0 -17 -1s1 -4 2 -8c3 -17 8 -33 12 -40c2 -4 3 -5 11 -4c11 0 13 14 18 32c2 7 4 20 4 21s-2 1 -9 0z" />
  </g>

</svg>
