<?xml version="1.0" standalone="no"?>
<!DOCTYPE svg PUBLIC "-//W3C//DTD SVG 1.1//EN" "http://www.w3.org/Graphics/SVG/1.1/DTD/svg11.dtd" >
<svg xmlns="http://www.w3.org/2000/svg" xmlns:xlink="http://www.w3.org/1999/xlink" version="1.1" viewBox="-10 0 1010 1000">
  <g transform="matrix(1 0 0 -1 0 800)">
   <path fill="currentColor"
d="M439 688c7.62288 31.762 36.0921 57.227 77 47c23 -6 40 -24 45 -47c1 -4 1 -8 1 -29s0 -25 -1 -29c-5 -23 -22 -41 -45 -47c-34 -9 -69 12 -77 47c-1 4 -1 8 -1 29s0 25 1 29zM777 664c47.2743 29.5464 110.552 -7.79377 96 -66c-2 -7 -4 -14 -8 -20
c-3 -5 -9 -11 -37 -39c-18 -18 -36 -35 -38 -37c-45.4018 -36.3214 -114.176 12.0003 -98 67c2 6 6 16 10 21c5 6 71 71 75 74zM140 572c-38.312 47.8899 9.63359 114.819 65 99c7 -2 17 -7 23 -11l37 -37c28 -28 34 -34 37 -39c7.4516 -11.1774 13.8021 -28.7915 9 -48
c-5 -18 -17 -34 -33 -42c-21 -10 -44 -8 -64 5c-4 3 -69 67 -74 73zM479 549c148.618 9.2886 264.223 -88.9433 284 -213c12 -72 -8 -144 -56 -201c-8 -9 -25 -25 -33 -32c-6 -5 -7 -6 -9 -11c-4 -9 -8 -23 -13 -50c-9 -52 -15 -73 -24 -94c-17 -39 -44 -66 -80 -78
s-81 -10 -112 7c-33 18 -55 47 -69 91c-3.77075 13.1976 -25.0324 111.271 -29 120c-3 7 -4 8 -11 14c-47 39 -80 92 -90 150c-3 16 -3 26 -3 44c0 29 4 54 13 81c34 99 123 165 232 172zM488 425c-1 0 -6 -1 -9 -1c-87.9374 -10.3456 -144.403 -97.9152 -111 -175
c8 -18 20 -36 36 -49c11 -10 45 -24 65 -30c12 -3 19 -4 32 -4c31.1156 0 45.681 9.49962 76 24c14 7 19 9 29 20s18 21 24 34c22 46 12 101 -24 139c-22 23 -49 35 -82 40c-7 1 -31 3 -36 2zM114 362c4 1 10 0 28 0c23 0 24 0 30 -2c24.9909 -6.81571 46 -27.3496 46 -60
c0 -32.752 -20.9969 -53.181 -46 -60c-6 -2 -7 -2 -29 -2c-35.9519 0 -44.0325 0.0324941 -62 18c-11.8521 11.8521 -23.375 32.4999 -17 58c6.85556 23.9945 25.3323 43.6469 50 48zM782 300c0 33.7148 23.7213 57.1861 51 62c4 1 10 0 28 0c23 0 24 0 30 -2
c24.9909 -6.81571 46 -27.3496 46 -60c0 -32.752 -20.9969 -53.181 -46 -60c-6 -2 -7 -2 -29 -2c-35.9519 0 -44.0325 0.0324941 -62 18c-10.8933 10.8933 -18 22.8521 -18 44zM516 41h-21c-14 0 -17 0 -17 -1s1 -4 2 -8c3 -17 8 -33 12 -40c2 -4 3 -5 11 -4
c11.1324 0 13.2584 14.2189 18 32c2 7 4 20 4 21s-2 1 -9 0z" />
  </g>

</svg>
