<?xml version="1.0" standalone="no"?>
<!DOCTYPE svg PUBLIC "-//W3C//DTD SVG 1.1//EN" "http://www.w3.org/Graphics/SVG/1.1/DTD/svg11.dtd" >
<svg xmlns="http://www.w3.org/2000/svg" xmlns:xlink="http://www.w3.org/1999/xlink" version="1.1" viewBox="-10 0 1010 1000">
  <g transform="matrix(1 0 0 -1 0 800)">
   <path fill="currentColor"
d="M146 248c0 66 39 108 93 114h32v153c3 25 20 44 43 52c3 1 7 3 9 3h58c53 0 55 0 63 -1c83 -16 142 -73 157 -150c3 -17 3 -14 3 -108v-88h2c1 0 5 -3 9 -5c25 -14 46 -36 58 -64h14l1 57c0 56 0 57 1 62c7 27 27 47 61 47c36 0 56 -23 62 -52v-98l1 -99l36 -1
c36 0 37 0 42 -1c23 -7 39 -24 45 -47c2 -6 2 -22 0 -28c-7 -24 -25 -42 -49 -47c-5 -1 -10 -1 -75 -1s-69 0 -74 1c-32 7 -50 29 -50 69v13h-15c-20 -39 -54 -68 -97 -79c-18 -4 0 -4 -222 -4h-200c-50 6 -88 33 -112 70c-26 43 -29 98 -5 143c19 36 54 64 93 74
c5 1 10 2 12 2l4 1v12zM396 446v-84h83v28c-3 26 -21 46 -46 54c-5 2 -6 1 -21 1zM186 83c11 27 -28 39 -39 17c-5 -11 3 -23 10 -27c3 -1 4 -1 10 -1c10 0 15 3 19 11zM311 112c2 -11 2 -31 0 -41h43c33 0 43 0 43 1c0 0 -1 5 -1 10c-1 9 0 26 1 29c0 1 -2 1 -43 1h-43z
M535 111c-9 -3 -19 -12 -13 -26c2 -8 8 -13 20 -13c23 0 28 29 8 39c-4 2 -11 2 -15 0z" />
  </g>

</svg>
