<?xml version="1.0" standalone="no"?>
<!DOCTYPE svg PUBLIC "-//W3C//DTD SVG 1.1//EN" "http://www.w3.org/Graphics/SVG/1.1/DTD/svg11.dtd" >
<svg xmlns="http://www.w3.org/2000/svg" xmlns:xlink="http://www.w3.org/1999/xlink" version="1.1" viewBox="-10 0 1010 1000">
  <g transform="matrix(1 0 0 -1 0 800)">
   <path fill="currentColor"
d="M500 -75c0 -34 -24 -57 -53 -62h-69c-75 0 -75 0 -85 3c-16 7 -31 18 -38 35c-1 2 -53 208 -53 209l-1 2h-40c-43 0 -47 1 -56 4c-21 7 -36 24 -41 46c-1 5 -1 11 -1 169s0 165 1 170c5 22 20 39 41 46c10 3 -2 3 228 3h212l149 89c82 49 151 91 153 92
c40 20 82 -9 89 -43c1 -5 1 -15 1 -341s0 -337 -1 -342c-6 -32 -43 -58 -81 -46c-2 1 -73 36 -156 78l-152 75h-46c-44 0 -46 0 -46 -1s11 -41 23 -89l22 -87v-10zM702 498c-60 -36 -112 -67 -114 -68c-4 -2 -11 -3 -16 -5h-384v-187l192 -1h192c17 -6 19 -6 127 -60
l113 -57v444z" />
  </g>

</svg>
