<?xml version="1.0" standalone="no"?>
<!DOCTYPE svg PUBLIC "-//W3C//DTD SVG 1.1//EN" "http://www.w3.org/Graphics/SVG/1.1/DTD/svg11.dtd" >
<svg xmlns="http://www.w3.org/2000/svg" xmlns:xlink="http://www.w3.org/1999/xlink" version="1.1" viewBox="-10 0 1010 1000">
  <g transform="matrix(1 0 0 -1 0 800)">
   <path fill="currentColor"
d="M146 248c0 66.0271 38.9794 108.16 93 114h32v153c3 25 20 44 43 52c3 1 7 3 9 3h58c53 0 55 0 63 -1c83.4384 -15.6447 142.124 -73.1419 157 -150c3 -17 3 -14 3 -108v-88h2c1 0 5 -3 9 -5c24.7622 -13.996 46.1112 -36.2596 58 -64h14l1 57c0 56 0 57 1 62
c7.10343 27.2298 27.3757 47 61 47c36.1625 0 56.1167 -22.5833 62 -52v-98l1 -99l36 -1c36 0 37 0 42 -1c23.2858 -6.6531 38.8516 -23.9433 45 -47c2 -6 2 -22 0 -28c-7 -24 -25 -42 -49 -47c-5 -1 -10 -1 -75 -1s-69 0 -74 1c-31.5405 7.16829 -50 28.7703 -50 69v13h-15
c-19.5045 -39.0089 -53.9799 -68.245 -97 -79c-18 -4 0 -4 -222 -4h-200c-50.0759 6.25949 -88.1674 32.5488 -112 70c-26 43 -29 98 -5 143c19 36 54 64 93 74c5 1 10 2 12 2l4 1v12zM396 446v-84h83v28c-3 26 -21 46 -46 54c-5 2 -6 1 -21 1zM186 83
c10.9334 27.3335 -28.1413 38.7174 -39 17c-5.38706 -10.7741 2.98766 -23.4938 10 -27c3 -1 4 -1 10 -1c10.4067 0 15.239 3.47796 19 11zM311 112c2.18557 -10.9279 2.05216 -30.7392 0 -41h43c33 0 43 0 43 1c0 0 -1 5 -1 10c-1 9 0 26 1 29c0 1 -2 1 -43 1h-43zM535 111
c-8.5789 -2.85963 -18.628 -11.93 -13 -26c2.05773 -8.23091 8.35351 -13 20 -13c22.6209 0 27.8724 29.0638 8 39c-4 2 -11 2 -15 0z" />
  </g>

</svg>
