<?xml version="1.0" standalone="no"?>
<!DOCTYPE svg PUBLIC "-//W3C//DTD SVG 1.1//EN" "http://www.w3.org/Graphics/SVG/1.1/DTD/svg11.dtd" >
<svg xmlns="http://www.w3.org/2000/svg" xmlns:xlink="http://www.w3.org/1999/xlink" version="1.1" viewBox="-10 0 1010 1000">
  <g transform="matrix(1 0 0 -1 0 800)">
   <path fill="currentColor"
d="M115 654h307c326 0 304 0 323 -3c37 -6 74 -24 106 -49c76 -61 123 -166 128 -284c1 -20 1 -226 0 -233c-3 -26 -21 -46 -46 -54c-6 -2 -5 -1 -28 -1l-23 -1c-24.5415 -49.0831 -82.3011 -93.2831 -156 -81c-47.2125 7.51108 -86.5692 38.1383 -108 81h-236
c-24.5415 -49.0831 -82.3011 -93.2831 -156 -81c-47.2125 7.51108 -86.5692 38.1383 -108 81l-23 1c-23 0 -22 -1 -28 1c-25 8 -43 28 -46 54c-1 7 -1 464 0 474c5 51 44 90 94 95zM146 529v-83h83v83h-41c-33 0 -42 1 -42 0zM354 529v-83h84v83h-84zM634 446
c0 3.86063 0 1 -18 83h-54v-83h36c27 0 36 -1 36 0zM747 521c-1.29397 0 8.61429 -48.7302 17 -86l16 -73h34c32 0 34 1 34 2s-1 5 -2 10c-14 60 -43 109 -81 136c-5 3 -17 11 -18 11zM146 321v-127l5 4c21 20 48 33 78 38c10 2 32 2 42 0c47 -7 86 -36 107 -76l4 -6h237
c1.41573 5.6629 2.93878 6.87756 6 13c22 37 61 63 104 69c4 1 7 1 9 1c0 0 -2 1 -8 1c-28.0243 0 -48.4243 15.6516 -58 36c-3 6 -2 6 -7 28l-4 18h-258zM762 237c33 -3 64 -17 87 -39l5 -4v44l-47 -1h-45z" />
  </g>

</svg>
