<?xml version="1.0" standalone="no"?>
<!DOCTYPE svg PUBLIC "-//W3C//DTD SVG 1.1//EN" "http://www.w3.org/Graphics/SVG/1.1/DTD/svg11.dtd" >
<svg xmlns="http://www.w3.org/2000/svg" xmlns:xlink="http://www.w3.org/1999/xlink" version="1.1" viewBox="-10 0 1010 1000">
  <g transform="matrix(1 0 0 -1 0 800)">
   <path fill="currentColor"
d="M145 737c4 1 57 0 357 0h351c27.7664 -3.96664 46.5073 -23.7335 52 -49c1 -5 1 -16 1 -388s0 -383 -1 -388c-5.49108 -25.259 -24.2508 -45.0358 -52 -49h-351c-312 0 -351 -1 -356 0c-25.6715 3.94946 -44.8583 24.4332 -51 49c-1 5 -1 16 -1 388s0 383 1 388
c6 25 25 44 50 49zM219 612v-624h562v624h-562zM302 549c4 1 34 1 200 1h195c25.7416 -8.58054 46.0491 -21.6259 52 -49c1 -5 1 -9 1 -45s0 -39 -1 -44c-5.43619 -25.0065 -25.102 -44.517 -52 -49h-194c-172 0 -196 -1 -201 0c-24.6383 3.79051 -45.108 25.432 -51 49
c-1 5 -1 8 -1 44s0 40 1 45c6 25 26 43 51 48zM331 313c13.2988 13.2988 33.5807 22.6048 60 16c22 -6 39 -23 45 -46c2 -7 2 -22 0 -29c-8.85777 -30.3695 -32.2861 -52.9591 -74 -47c-11 2 -23 9 -31 17c-24 24 -25 65 0 89zM581 313
c13.2988 13.2988 33.5807 22.6048 60 16c22 -6 39 -23 45 -46c2 -7 2 -22 0 -29c-8.85777 -30.3695 -32.2861 -52.9591 -74 -47c-11 2 -23 9 -31 17c-24 24 -25 65 0 89zM331 157c13.2988 13.2988 33.5807 22.6048 60 16c22 -6 39 -23 45 -46c2 -7 2 -23 0 -30
c-8.7916 -30.1426 -32.6562 -51.9063 -74 -46c-12 2 -23 9 -31 17c-24 24 -25 65 0 89zM614 174c-13 -2 -24 -8 -33 -17c-25 -24 -24 -65 0 -89c13.0223 -13.0223 30.1569 -20.8347 57 -17c24 5 41 22 48 46c2 7 2 23 0 30c-7.58702 29.0836 -32.8175 52.5975 -72 47z" />
  </g>

</svg>
