<?xml version="1.0" standalone="no"?>
<!DOCTYPE svg PUBLIC "-//W3C//DTD SVG 1.1//EN" "http://www.w3.org/Graphics/SVG/1.1/DTD/svg11.dtd" >
<svg xmlns="http://www.w3.org/2000/svg" xmlns:xlink="http://www.w3.org/1999/xlink" version="1.1" viewBox="-10 0 1010 1000">
  <g transform="matrix(1 0 0 -1 0 800)">
   <path fill="currentColor"
d="M145 737c4 1 57 0 357 0h351c28 -4 47 -24 52 -49c1 -5 1 -16 1 -388s0 -383 -1 -388c-5 -25 -24 -45 -52 -49h-351c-312 0 -351 -1 -356 0c-26 4 -45 24 -51 49c-1 5 -1 16 -1 388s0 383 1 388c6 25 25 44 50 49zM219 612v-624h562v624h-562zM302 549c4 1 34 1 200 1
h195c26 -9 46 -22 52 -49c1 -5 1 -9 1 -45s0 -39 -1 -44c-5 -25 -25 -45 -52 -49h-194c-172 0 -196 -1 -201 0c-25 4 -45 25 -51 49c-1 5 -1 8 -1 44s0 40 1 45c6 25 26 43 51 48zM331 313c13 13 34 23 60 16c22 -6 39 -23 45 -46c2 -7 2 -22 0 -29c-9 -30 -32 -53 -74 -47
c-11 2 -23 9 -31 17c-24 24 -25 65 0 89zM581 313c13 13 34 23 60 16c22 -6 39 -23 45 -46c2 -7 2 -22 0 -29c-9 -30 -32 -53 -74 -47c-11 2 -23 9 -31 17c-24 24 -25 65 0 89zM331 157c13 13 34 23 60 16c22 -6 39 -23 45 -46c2 -7 2 -23 0 -30c-9 -30 -33 -52 -74 -46
c-12 2 -23 9 -31 17c-24 24 -25 65 0 89zM614 174c39 6 64 -18 72 -47c2 -7 2 -23 0 -30c-7 -24 -24 -41 -48 -46c-27 -4 -44 4 -57 17c-24 24 -25 65 0 89c9 9 20 15 33 17z" />
  </g>

</svg>
