<?xml version="1.0" standalone="no"?>
<!DOCTYPE svg PUBLIC "-//W3C//DTD SVG 1.1//EN" "http://www.w3.org/Graphics/SVG/1.1/DTD/svg11.dtd" >
<svg xmlns="http://www.w3.org/2000/svg" xmlns:xlink="http://www.w3.org/1999/xlink" version="1.1" viewBox="-10 0 1010 1000">
  <g transform="matrix(1 0 0 -1 0 800)">
   <path fill="currentColor"
d="M252 690c9 31 36 55 76 45c22 -6 39 -22 45 -45c1 -5 2 -7 2 -41v-37h250v37c0 34 1 36 2 41c9 34 42 54 76 45c22 -6 39 -22 45 -45c1 -5 2 -7 2 -41v-36l67 -1h68c27 -4 46 -24 51 -49c1 -5 1 -14 1 -325s0 -321 -1 -326c-5 -25 -24 -45 -51 -49h-383
c-339 0 -382 -1 -387 0c-26 4 -45 24 -51 49c-1 5 -1 15 -1 326s0 320 1 325c5 22 20 39 41 46c9 3 10 3 80 3h65v37c0 34 1 36 2 41zM188 488v-126h624v126h-624zM188 238v-250h624v250h-624z" />
  </g>

</svg>
