<?xml version="1.0" standalone="no"?>
<!DOCTYPE svg PUBLIC "-//W3C//DTD SVG 1.1//EN" "http://www.w3.org/Graphics/SVG/1.1/DTD/svg11.dtd" >
<svg xmlns="http://www.w3.org/2000/svg" xmlns:xlink="http://www.w3.org/1999/xlink" version="1.1" viewBox="-10 0 1010 1000">
  <g transform="matrix(1 0 0 -1 0 800)">
   <path fill="currentColor"
d="M250 559c5 58 50 110 112 115c8 1 267 1 275 0c44 -4 81 -30 100 -69c7 -14 12 -29 13 -46v-9h135c26 -9 45 -22 51 -49c1 -5 1 -15 1 -295s0 -289 -1 -294c-5 -25 -24 -45 -51 -49h-383c-339 0 -382 -1 -387 0c-26 4 -45 24 -51 49c-1 5 -1 14 -1 294s0 290 1 295
c5 22 20 39 41 46c9 3 11 3 80 3h65v9zM375 514c0 -34 -1 -36 -2 -41c-7 -27 -26 -40 -51 -48h-134v-437h624v437h-64c-55 0 -66 0 -71 1c-25 4 -43 22 -50 47c-1 5 -2 7 -2 41v36h-250v-36zM488 425c5 1 30 -1 36 -2c82 -11 151 -72 162 -164c4 -34 -2 -65 -11 -89
c-16 -42 -47 -78 -88 -99c-64 -34 -145 -27 -202 18c-40 31 -64 75 -71 127c-1 8 -1 35 0 43c12 91 81 156 165 165c4 0 8 1 9 1zM492 300c-30 -6 -54 -29 -54 -62s21 -54 47 -61c43 -11 77 20 77 61c0 36 -29 61 -60 62h-10z" />
  </g>

</svg>
