<?xml version="1.0" standalone="no"?>
<!DOCTYPE svg PUBLIC "-//W3C//DTD SVG 1.1//EN" "http://www.w3.org/Graphics/SVG/1.1/DTD/svg11.dtd" >
<svg xmlns="http://www.w3.org/2000/svg" xmlns:xlink="http://www.w3.org/1999/xlink" version="1.1" viewBox="-10 0 1010 1000">
  <g transform="matrix(1 0 0 -1 0 800)">
   <path fill="currentColor"
d="M250 559c4.98093 58.1109 50.3643 109.64 112 115c8 1 267 1 275 0c44 -4 81 -30 100 -69c7 -14 12 -29 13 -46v-9h135c25.8068 -8.60225 45.0365 -21.5678 51 -49c1 -5 1 -15 1 -295s0 -289 -1 -294c-5.44627 -25.0528 -24.0371 -44.5062 -51 -49h-383
c-339 0 -382 -1 -387 0c-25.6715 3.94946 -44.8583 24.4332 -51 49c-1 5 -1 14 -1 294s0 290 1 295c5 22 20 39 41 46c9 3 11 3 80 3h65v9zM375 514c0 -34 -1 -36 -2 -41c-7.07667 -27.1272 -25.9792 -39.6597 -51 -48h-134v-437h624v437h-64c-55 0 -66 0 -71 1
c-25 4 -43 22 -50 47c-1 5 -2 7 -2 41v36h-250v-36zM488 425c5 1 30 -1 36 -2c82.2752 -10.97 151.013 -72.4406 162 -164c3.83106 -34.4795 -2.37626 -64.8535 -11 -89c-16 -42 -47 -78 -88 -99c-64 -34 -145 -27 -202 18c-40 31 -64 75 -71 127c-1 8 -1 35 0 43
c11.7053 90.7164 80.7726 155.641 165 165c4 0 8 1 9 1zM492 300c-30.4238 -5.5316 -54 -28.8842 -54 -62c0 -32.6171 21.3084 -53.9932 47 -61c43.2957 -10.8239 77 20.2977 77 61c0 36.4755 -28.6959 60.882 -60 62h-10z" />
  </g>

</svg>
