<?xml version="1.0" standalone="no"?>
<!DOCTYPE svg PUBLIC "-//W3C//DTD SVG 1.1//EN" "http://www.w3.org/Graphics/SVG/1.1/DTD/svg11.dtd" >
<svg xmlns="http://www.w3.org/2000/svg" xmlns:xlink="http://www.w3.org/1999/xlink" version="1.1" viewBox="-10 0 1010 1000">
  <g transform="matrix(1 0 0 -1 0 800)">
   <path fill="currentColor"
d="M175 737h74c74 0 73 0 83 -3c25.544 -8.51468 50.3534 -35.5864 41 -73c-6.52092 -24.9968 -23.9635 -43.4939 -51 -48h-67l-67 -1l-1 -67c0 -67 0 -67 -1 -72c-15.7148 -62.8591 -105.283 -62.6896 -122 0c-1 5 -1 6 -1 74c0 73 -1 78 2 91c11 53 56 93 110 99zM824 737
c59.8377 -6.41118 107.236 -54.4366 113 -114v-76c0 -68 0 -69 -1 -74c-15.7148 -62.8591 -105.283 -62.6896 -122 0c-1 5 -1 5 -1 72l-1 67h-64c-70 0 -71 1 -80 4c-22.5972 9.03889 -43 27.6767 -43 59c0 33.8898 24.3532 57.1212 52 62c4 1 17 0 73 0h74zM488 487
c5 1 30 0 36 -1c82.9246 -11.0566 150.927 -72.7249 162 -165c5.04787 -45.4308 -4.70142 -84.169 -22 -113c-23 -41 -60 -71 -105 -86c-59 -20 -125 -8 -174 30c-40 31 -64 75 -71 127c-1 8 -1 34 0 42c11.7053 90.7164 80.7726 155.641 165 165c4 0 8 1 9 1zM492 362
c-31.6234 -5.7497 -54 -27.5216 -54 -62c0 -40.2982 33.4612 -71.1347 78 -60c29.0037 7.91009 54.0591 35.7636 44 76c-7 27 -30 45 -58 46h-10zM64 127c8.30826 29.6724 35.8939 56.2765 77 46c22 -6 39 -23 45 -46c1 -5 1 -5 1 -72l1 -67l67 -1h67
c27.0471 -4.50784 44.4776 -22.9976 51 -48c6.36148 -25.4459 -5.17576 -46.1758 -17 -58c-9 -9 -20 -16 -33 -18c-5 -1 -15 -1 -73 -1c-42 0 -70 1 -74 1c-54.0525 4.76934 -99.6325 45.0044 -111 99c-3 13 -2 18 -2 91c0 68 0 69 1 74zM864 174c-25 -5 -43 -22 -50 -47
c-1 -5 -1 -5 -1 -72l-1 -67h-64c-55 0 -66 0 -71 -1c-29.2486 -4.49979 -60.0465 -35.814 -50 -76c5.86748 -23.4699 25.5328 -44.2358 50 -48c5 -1 15 -1 73 -1c42 0 70 1 74 1c59.2959 5.92959 106.856 54.6072 113 114v76c0 68 0 69 -1 74
c-7.58702 29.0836 -32.8175 52.5975 -72 47z" />
  </g>

</svg>
