<?xml version="1.0" standalone="no"?>
<!DOCTYPE svg PUBLIC "-//W3C//DTD SVG 1.1//EN" "http://www.w3.org/Graphics/SVG/1.1/DTD/svg11.dtd" >
<svg xmlns="http://www.w3.org/2000/svg" xmlns:xlink="http://www.w3.org/1999/xlink" version="1.1" viewBox="-10 0 1010 1000">
  <g transform="matrix(1 0 0 -1 0 800)">
   <path fill="currentColor"
d="M199 612h196c175 0 194 0 199 -1c14 -2 25 -8 34 -18c3 -3 38 -46 78 -97l74 -92h6c49 0 85 -17 110 -44c22 -22 35 -49 40 -81c1 -7 1 -14 1 -102s0 -95 -1 -99c-5 -19 -17 -34 -34 -42c-11 -6 -13 -6 -39 -6l-23 -1l-1 -2c-1 -1 -3 -5 -5 -9c-41 -70 -137 -94 -206 -48
c-21 14 -38 33 -50 56l-1 3h-154c-21 -41 -61 -76 -112 -82c-11 -2 -29 -2 -40 0c-47 7 -90 40 -110 79l-1 3l-23 1c-21 0 -23 0 -28 1c-23 6 -39 24 -45 47c-1 4 -1 14 -1 139v134c2 9 85 220 90 229c9 17 27 29 46 32zM250 486c0 -4 -32 -79 -32 -81c0 -1 21 -1 109 -1
h111v84h-187zM562 440v-36h29c23 0 28 0 28 1s-55 69 -56 70c0 0 -1 -15 -1 -35zM188 279v-85c22 22 51 37 83 42c10 2 31 2 41 0c49 -7 92 -37 111 -82h154c5 14 18 31 28 41c22 22 51 36 83 41c10 2 31 2 41 0c32 -5 62 -21 83 -42v33c0 37 1 37 -3 43c-2 4 -7 7 -12 8
c-3 1 -36 1 -307 1h-302z" />
  </g>

</svg>
