<?xml version="1.0" standalone="no"?>
<!DOCTYPE svg PUBLIC "-//W3C//DTD SVG 1.1//EN" "http://www.w3.org/Graphics/SVG/1.1/DTD/svg11.dtd" >
<svg xmlns="http://www.w3.org/2000/svg" xmlns:xlink="http://www.w3.org/1999/xlink" version="1.1" viewBox="-10 0 1010 1000">
  <g transform="matrix(1 0 0 -1 0 800)">
   <path fill="currentColor"
d="M198 654c10 1 427 1 434 0c11 -1 19 -5 28 -11c7 -4 179 -176 183 -183c6 -9 10 -18 11 -28v-277l15 -1c40 0 58 -18 67 -48c2 -6 2 -22 0 -28c-6 -25 -25 -43 -50 -48c-4 -1 -27 -1 -150 -1h-146l-1 -2c-1 -1 -3 -5 -5 -9c-41 -70 -137 -94 -206 -48
c-21 14 -38 33 -50 56l-1 3h-88l-87 1c-48 8 -83 45 -89 93v203c0 213 0 199 3 214c14 63 68 109 132 114zM203 528c-5 -1 -10 -4 -12 -8c-4 -6 -3 -5 -3 -48v-35c5 52 47 85 97 92h-39c-32 0 -40 0 -43 -1zM471 528c49 -6 85 -43 91 -92v-53c0 -51 0 -56 -3 -68
c-11 -41 -45 -71 -87 -77c-7 -1 -6 -1 4 -2c53 -6 94 -41 114 -82h139v245l-130 130h-67c-59 0 -67 0 -61 -1zM312 404v-42h126v42h-126zM188 244v-90h139c2 5 3 6 6 12c23 37 62 66 114 71h-79c-89 0 -90 1 -103 4c-41 11 -71 45 -77 87c-1 5 0 -6 0 -84zM459 112
c-13 0 -22 -11 -21 -22c1 -18 22 -25 35 -13c4 4 5 7 5 15c0 12 -8 20 -19 20z" />
  </g>

</svg>
