<svg width="16" height="16" viewBox="0 0 16 16" fill="none" xmlns="http://www.w3.org/2000/svg">
<path d="M7.33333 12.6667C8.06971 12.6667 8.66667 12.0697 8.66667 11.3333C8.66667 10.597 8.06971 10 7.33333 10C6.59695 10 6 10.597 6 11.3333C6 12.0697 6.59695 12.6667 7.33333 12.6667Z" stroke="#24282B" stroke-width="2" stroke-linecap="round" stroke-linejoin="round"/>
<path d="M14 11.3333H8.66667" stroke="#24282B" stroke-width="2" stroke-linecap="round" stroke-linejoin="round"/>
<path d="M6 11.3333H2.66667C2.48986 11.3333 2.32029 11.2631 2.19526 11.1381C2.07024 11.013 2 10.8435 2 10.6667V4.66667C2 4.31304 2.14048 3.9739 2.39052 3.72386C2.64057 3.47381 2.97971 3.33333 3.33333 3.33333H10L12.6667 6V11.3333" stroke="#24282B" stroke-width="2" stroke-linecap="round" stroke-linejoin="round"/>
<path d="M7.33333 5.33333H4.66667C4.29848 5.33333 4 5.63181 4 6V7.33333C4 7.70152 4.29848 8 4.66667 8H7.33333C7.70152 8 8 7.70152 8 7.33333V6C8 5.63181 7.70152 5.33333 7.33333 5.33333Z" stroke="#24282B" stroke-width="2" stroke-linecap="round" stroke-linejoin="round"/>
</svg>
