<?xml version="1.0" standalone="no"?>
<!DOCTYPE svg PUBLIC "-//W3C//DTD SVG 1.1//EN" "http://www.w3.org/Graphics/SVG/1.1/DTD/svg11.dtd" >
<svg xmlns="http://www.w3.org/2000/svg" xmlns:xlink="http://www.w3.org/1999/xlink" version="1.1" viewBox="-10 0 1010 1000">
  <g transform="matrix(1 0 0 -1 0 800)">
   <path fill="currentColor"
d="M239 424c4 1 44 1 263 1h258c26 -9 44 -21 51 -48c5 -19 -2 -37 -9 -48c-9 -15 -261 -263 -265 -266c-20 -17 -55 -17 -76 1c-133 133 -255 251 -263 265c-12 18 -14 48 0 68c9 14 24 24 41 27zM401 300c32 -34 65 -67 99 -99c34 32 67 65 99 99h-198z" />
  </g>

</svg>
