<?xml version="1.0" standalone="no"?>
<!DOCTYPE svg PUBLIC "-//W3C//DTD SVG 1.1//EN" "http://www.w3.org/Graphics/SVG/1.1/DTD/svg11.dtd" >
<svg xmlns="http://www.w3.org/2000/svg" xmlns:xlink="http://www.w3.org/1999/xlink" version="1.1" viewBox="-10 0 1010 1000">
  <g transform="matrix(1 0 0 -1 0 800)">
   <path fill="currentColor"
d="M812 112c0 -38 -24 -53 -52 -62h-258c-228 0 -257 0 -262 1c-29 4 -52 27 -52 61c0 10 1 17 4 25c5 12 -2 4 139 145c84 84 131 131 133 132c21 13 53 15 73 -2c3 -2 60 -58 134 -132c139 -139 132 -131 137 -143c3 -8 4 -15 4 -25zM500 274l-99 -99h198z" />
  </g>

</svg>
