<?xml version="1.0" standalone="no"?>
<!DOCTYPE svg PUBLIC "-//W3C//DTD SVG 1.1//EN" "http://www.w3.org/Graphics/SVG/1.1/DTD/svg11.dtd" >
<svg xmlns="http://www.w3.org/2000/svg" xmlns:xlink="http://www.w3.org/1999/xlink" version="1.1" viewBox="-10 0 1010 1000">
  <g transform="matrix(1 0 0 -1 0 800)">
   <path fill="currentColor"
d="M314 563c7.62288 31.762 36.0921 57.227 77 47c8 -2 15 -5 21 -10c3 -2 60 -58 134 -132c139 -139 132 -132 137 -144c3 -8 4 -14 4 -24s-1 -16 -4 -24c-5 -12 2 -5 -137 -144c-74 -74 -131 -130 -134 -132c-37.725 -26.4075 -87.8891 -6.33255 -98 37c-1 5 -1 13 -1 263
s0 258 1 263zM438 300v-99l99 99l-99 99v-99z" />
  </g>

</svg>
