<?xml version="1.0" standalone="no"?>
<!DOCTYPE svg PUBLIC "-//W3C//DTD SVG 1.1//EN" "http://www.w3.org/Graphics/SVG/1.1/DTD/svg11.dtd" >
<svg xmlns="http://www.w3.org/2000/svg" xmlns:xlink="http://www.w3.org/1999/xlink" version="1.1" viewBox="-10 0 1010 1000">
  <g transform="matrix(1 0 0 -1 0 800)">
   <path fill="currentColor"
d="M812 112c0 -37.6465 -23.5396 -52.5132 -52 -62h-258c-228 0 -257 0 -262 1c-28.8629 4.44044 -52 26.8554 -52 61c0 10 1 17 4 25c5 12 -2 4 139 145c84 84 131 131 133 132c20.5875 12.8672 52.8805 14.7663 73 -2c3 -2 60 -58 134 -132c139 -139 132 -131 137 -143
c3 -8 4 -15 4 -25zM450 224l-49 -49h198l-99 99l-50 -50z" />
  </g>

</svg>
