<?xml version="1.0" standalone="no"?>
<!DOCTYPE svg PUBLIC "-//W3C//DTD SVG 1.1//EN" "http://www.w3.org/Graphics/SVG/1.1/DTD/svg11.dtd" >
<svg xmlns="http://www.w3.org/2000/svg" xmlns:xlink="http://www.w3.org/1999/xlink" version="1.1" viewBox="-10 0 1010 1000">
  <g transform="matrix(1 0 0 -1 0 800)">
   <path fill="currentColor"
d="M760 737c27.8673 -4.70107 46.3968 -24.0969 52 -52v-130l1 -130h72c25.8068 -8.60225 45.0365 -21.5678 51 -49c1 -5 1 -13 1 -232s0 -227 -1 -232c-5.44627 -25.0528 -24.0371 -44.5062 -51 -49h-289c-256 0 -289 -1 -294 0c-23.8526 3.66964 -44.3008 24.2032 -50 47
l-2 5v260h-65c-55 0 -65 0 -70 1c-26.177 4.02724 -44.7633 23.0534 -51 48c-1 5 -1 13 -1 232s0 227 1 232c6 25 25 44 50 49c4 1 52 0 325 0h321zM188 612v-312h62v36c0 34 1 36 2 41c5.96081 23.8432 25.0256 43.1578 50 47c5 1 29 1 196 1h190v187h-500zM375 300v-312
h437v312h-437zM581 268c-44.605 -3.87869 -82.6352 -35.2248 -99 -70c-30 -62 -5 -136 57 -166c39 -19 84 -17 121 6c68.1568 42.598 78.0053 140.631 20 196c-26 25 -63 38 -99 34z" />
  </g>

</svg>
