<?xml version="1.0" standalone="no"?>
<!DOCTYPE svg PUBLIC "-//W3C//DTD SVG 1.1//EN" "http://www.w3.org/Graphics/SVG/1.1/DTD/svg11.dtd" >
<svg xmlns="http://www.w3.org/2000/svg" xmlns:xlink="http://www.w3.org/1999/xlink" version="1.1" viewBox="-10 0 1010 1000">
  <g transform="matrix(1 0 0 -1 0 800)">
   <path fill="currentColor"
d="M760 737c28 -5 46 -24 52 -52v-130l1 -130h72c26 -9 45 -22 51 -49c1 -5 1 -13 1 -232s0 -227 -1 -232c-5 -25 -24 -45 -51 -49h-289c-256 0 -289 -1 -294 0c-24 4 -44 24 -50 47l-2 5v260h-65c-55 0 -65 0 -70 1c-26 4 -45 23 -51 48c-1 5 -1 13 -1 232s0 227 1 232
c6 25 25 44 50 49c4 1 52 0 325 0h321zM188 612v-312h62v36c0 34 1 36 2 41c6 24 25 43 50 47c5 1 29 1 196 1h190v187h-500zM375 300v-312h437v312h-437zM581 268c36 4 73 -9 99 -34c58 -55 48 -153 -20 -196c-37 -23 -82 -25 -121 -6c-62 30 -87 104 -57 166
c16 35 54 66 99 70z" />
  </g>

</svg>
