<?xml version="1.0" standalone="no"?>
<!DOCTYPE svg PUBLIC "-//W3C//DTD SVG 1.1//EN" "http://www.w3.org/Graphics/SVG/1.1/DTD/svg11.dtd" >
<svg xmlns="http://www.w3.org/2000/svg" xmlns:xlink="http://www.w3.org/1999/xlink" version="1.1" viewBox="-10 0 1010 1000">
  <g transform="matrix(1 0 0 -1 0 800)">
   <path fill="currentColor"
d="M812 560c-5 28 -24 47 -52 52h-253c-223 0 -254 1 -259 0c-25 -4 -45 -24 -51 -49c-1 -4 -1 -9 -1 -35l-1 -31c-6 -28 -29 -51 -61 -51s-54 22 -61 47c-2 8 -2 16 -2 44c0 27 0 32 2 44c13 79 80 149 172 156h263c285 0 261 1 279 -3c73 -15 132 -74 147 -147
c4 -19 3 1 3 -287s1 -268 -3 -287c-16 -76 -77 -134 -148 -147c-16 -3 -17 -3 -61 -3c-36 0 -42 -1 -47 0c-30 5 -61 35 -51 76c6 23 23 41 46 47c5 1 7 1 46 1l41 1c27 4 48 25 52 52v520zM64 314c15 51 53 53 118 43c84 -14 172 -62 242 -132c66 -66 112 -144 130 -224
c8 -33 11 -75 7 -91c-7 -27 -30 -46 -58 -47c-36 -1 -66 24 -66 66c-1 29 -5 51 -15 78c-37 99 -140 202 -255 226c-17 4 -52 3 -66 9c-23 10 -46 36 -37 72zM132 175c130 -3 243 -100 243 -244c0 -41 -26 -67 -60 -68c-36 -1 -65 24 -65 65c-4 77 -46 118 -123 122
c-34 2 -56 19 -63 48c-12 47 24 77 68 77zM114 -13c24 4 49 -7 63 -27c23 -35 7 -82 -33 -95c-41 -12 -93 23 -80 74c7 24 25 44 50 48z" />
  </g>

</svg>
