<?xml version="1.0" standalone="no"?>
<!DOCTYPE svg PUBLIC "-//W3C//DTD SVG 1.1//EN" "http://www.w3.org/Graphics/SVG/1.1/DTD/svg11.dtd" >
<svg xmlns="http://www.w3.org/2000/svg" xmlns:xlink="http://www.w3.org/1999/xlink" version="1.1" viewBox="-10 0 1010 1000">
  <g transform="matrix(1 0 0 -1 0 800)">
   <path fill="currentColor"
d="M812 560c-4.94401 27.9374 -24.0828 47.0394 -52 52h-253c-223 0 -254 1 -259 0c-25 -4 -45 -24 -51 -49c-1 -4 -1 -9 -1 -35l-1 -31c-5.52174 -27.6087 -29.2513 -51 -61 -51c-32.3962 0 -53.6642 22.0582 -61 47c-2 8 -2 16 -2 44c0 27 0 32 2 44
c12.6505 78.7142 80.0968 149.435 172 156h263c285 0 261 1 279 -3c73 -15 132 -74 147 -147c4 -19 3 1 3 -287s1 -268 -3 -287c-15.8212 -75.9419 -76.7608 -133.643 -148 -147c-16 -3 -17 -3 -61 -3c-36 0 -42 -1 -47 0c-29.7595 4.57838 -61.211 35.1559 -51 76
c6 23 23 41 46 47c5 1 7 1 46 1l41 1c26.773 4.46217 47.5407 25.2442 52 52v520zM64 314c14.7041 51.4645 53.2575 52.9604 118 43c84 -14 172 -62 242 -132c66 -66 112 -144 130 -224c8 -33 11 -75 7 -91c-7 -27 -30 -46 -58 -47c-36.2764 -1.20921 -66 24.4056 -66 66
c-1 29 -5 51 -15 78c-36.6517 98.8002 -140.188 201.97 -255 226c-17.3861 4.01218 -51.6532 2.85137 -66 9c-23.1298 9.73887 -45.975 36.1001 -37 72zM132 175c130.044 -2.95555 243 -100.443 243 -244c0 -40.9191 -25.8575 -66.7806 -60 -68
c-35.5184 -1.18395 -65 24.2965 -65 65c-3.67964 77.2725 -46.2795 117.962 -123 122c-33.9214 2.12009 -56.243 19.2827 -63 48c-11.6982 46.7928 23.7292 77 68 77zM114 -13c-24.6628 -4.35226 -43.1443 -24.0051 -50 -48c-12.7186 -50.8743 38.6497 -86.2519 80 -74
c40 13 56 60 33 95c-14 20 -39 31 -63 27z" />
  </g>

</svg>
