<?xml version="1.0" standalone="no"?>
<!DOCTYPE svg PUBLIC "-//W3C//DTD SVG 1.1//EN" "http://www.w3.org/Graphics/SVG/1.1/DTD/svg11.dtd" >
<svg xmlns="http://www.w3.org/2000/svg" xmlns:xlink="http://www.w3.org/1999/xlink" version="1.1" viewBox="-10 0 1010 1000">
  <g transform="matrix(1 0 0 -1 0 800)">
   <path fill="currentColor"
d="M488 695c6 1 22 1 28 -1c31 -10 46 -28 46 -69c0 -18 1 -19 2 -19c42 -10 75 -24 108 -46c21 -14 41 -30 47 -39c8 -11 11 -24 10 -38c0 -26 -16 -44 -34 -53c-27 -13 -53 -6 -71 10c-15 13 -30 24 -47 31c-70 31 -152 17 -207 -36c-35 -33 -57 -74 -57 -135
c0 -124 117 -212 234 -182c28 7 53 21 75 40c13 11 25 18 45 18c38 0 72 -33 61 -76c-4 -16 -11 -26 -28 -40c-40 -33 -82 -54 -136 -66c-1 0 -2 -1 -2 -19c0 -16 0 -19 -1 -23c-7 -26 -28 -47 -61 -47c-34 0 -54 20 -61 47c-1 4 -1 7 -1 23c0 18 -1 19 -2 19
c-60 13 -111 41 -154 83c-49 46 -87 118 -93 199c-1 10 -1 38 0 48c3 41 13 77 31 114c41 84 114 145 216 168c1 0 2 1 2 19c0 16 0 19 1 23c7 24 25 42 49 47z" />
  </g>

</svg>
