<?xml version="1.0" standalone="no"?>
<!DOCTYPE svg PUBLIC "-//W3C//DTD SVG 1.1//EN" "http://www.w3.org/Graphics/SVG/1.1/DTD/svg11.dtd" >
<svg xmlns="http://www.w3.org/2000/svg" xmlns:xlink="http://www.w3.org/1999/xlink" version="1.1" viewBox="-10 0 1010 1000">
  <g transform="matrix(1 0 0 -1 0 800)">
   <path fill="currentColor"
d="M488 695c-24 -5 -42 -23 -49 -47c-1 -4 -1 -7 -1 -23c0 -18 -1 -19 -2 -19c-102.131 -23.0619 -175.144 -83.7347 -216 -168c-18 -37 -28 -73 -31 -114c-1 -10 -1 -38 0 -48c6.46038 -80.7547 44.232 -152.67 93 -199c43 -42 94 -70 154 -83c1 0 2 -1 2 -19
c0 -16 0 -19 1 -23c7.10343 -27.2298 27.3757 -47 61 -47c32.5274 0 54.1937 21.1361 61 47c1 4 1 7 1 23c0 18 1 19 2 19c54 12 96 33 136 66c17 14 24 24 28 40c10.744 42.976 -23.3011 76 -61 76c-20.4782 0 -32.225 -6.82191 -45 -18c-22 -19 -47 -33 -75 -40
c-117.343 -29.8015 -234 57.7876 -234 182c0 60.7165 22.4155 101.746 57 135c55 53 137 67 207 36c17 -7 32 -18 47 -31c18.0482 -16.0429 44.1303 -23.4348 71 -10c17.5672 8.78362 34 26.982 34 53c1 14 -2 27 -10 38c-6 9 -26 25 -47 39c-33 22 -66 36 -108 46
c-1 0 -2 1 -2 19c0 41.3719 -15.1802 58.7267 -46 69c-6 2 -22 2 -28 1z" />
  </g>

</svg>
