<?xml version="1.0" standalone="no"?>
<!DOCTYPE svg PUBLIC "-//W3C//DTD SVG 1.1//EN" "http://www.w3.org/Graphics/SVG/1.1/DTD/svg11.dtd" >
<svg xmlns="http://www.w3.org/2000/svg" xmlns:xlink="http://www.w3.org/1999/xlink" version="1.1" viewBox="-10 0 1010 1000">
  <g transform="matrix(1 0 0 -1 0 800)">
   <path fill="currentColor"
d="M624 596c20.3639 18.1012 52.3608 24.028 79 5c4 -3 167 -166 176 -176c13.9759 -15.7228 20.5412 -31.8354 14 -58c-7.75957 -24.3872 -28.2645 -46 -59 -46c-14.4098 0 -28.2231 4.41731 -37 11c-2.36078 1.18039 -1.98827 3.00486 -125 124
c-78.9147 -95.2421 -115.577 -145.577 -130 -160c-10.6144 -10.6144 -21.0362 -16 -42 -16c-9 0 -12 0 -16 1s-17 7 -67 32l-62 31c-141.739 -210.584 -139.144 -208.144 -143 -212c-37.2648 -38.4669 -107 -15.9356 -107 43c0 12 1 17 5 27c2 4 32 48 89 134
c91 136 88 132 98 139s24 13 37 13c6 0 15 -2 20 -4l66 -33c34 -17 62 -30 62 -30c143.109 173.775 134.203 167.203 142 175zM154 69c-32.5562 -6.78254 -57.2528 -35.9887 -47 -77c8.32089 -26.1514 25.0067 -37.3356 51 -46h684c25.765 8.58833 43.8628 19.8304 51 46
c11.4208 39.9729 -16.0268 70.8054 -47 77c-6 1 -15 2 -346 2c-325 0 -341 -1 -346 -2z" />
  </g>

</svg>
