<?xml version="1.0" standalone="no"?>
<!DOCTYPE svg PUBLIC "-//W3C//DTD SVG 1.1//EN" "http://www.w3.org/Graphics/SVG/1.1/DTD/svg11.dtd" >
<svg xmlns="http://www.w3.org/2000/svg" xmlns:xlink="http://www.w3.org/1999/xlink" version="1.1" viewBox="-10 0 1010 1000">
  <g transform="matrix(1 0 0 -1 0 800)">
   <path fill="currentColor"
d="M250 -95c-35.0954 0 -55.9356 21.6779 -62 52v162l-1 162l-2 1c-43.6019 10.2593 -73.5928 43.1496 -80 88v152c6.46414 45.249 38.6145 79.3229 82 88l1 17c0 14 0 17 1 21c7 24 25 42 49 47c34.8056 5.80094 59.7619 -13.9643 70 -37c4 -10 4 -13 4 -31l1 -17h3
c40.7161 -10.44 72.4988 -42.4914 79 -88v-152c-6.42093 -44.9465 -36.5871 -77.7852 -80 -88l-2 -1l-1 -162v-162c-5.80323 -29.0162 -27.4476 -52 -62 -52zM438 643c5.40914 27.0457 24.6822 46.7255 50 52c40.845 6.80749 67.548 -19.7399 74 -52v-183l1 -183
c7.21907 -2.40636 17.493 -5.24651 25 -9c30.8165 -15.9396 51.6415 -42.4908 57 -80v-151c-6.52821 -45.6975 -39.0593 -82.1765 -86 -90c-6.02092 -24.0837 -27.7707 -42 -59 -42c-28.9939 0 -50.6374 17.3846 -58 38l-2 4c-7.26118 2.42039 -20.3734 6.18672 -28 10
c-30.8165 15.9396 -51.6415 42.4908 -57 80v151c6.65777 46.6044 37.7327 77.9332 82 89l1 183v183zM750 -95c-35.0954 0 -55.9356 21.6779 -62 52v162l-1 162l-2 1c-43.6019 10.2593 -73.5928 43.1496 -80 88v193c5.36044 37.5231 26.178 64.0576 57 80
c7.44128 3.72064 20.0884 7.36279 28 10l2 4c7 19 25 34 46 38c35.4201 5.90334 64.2974 -15.1898 71 -42c46.7608 -7.79347 79.4817 -44.3718 86 -90v-193c-6.63532 -46.4472 -36.0255 -75.4359 -80 -88l-2 -1l-1 -162v-162c-5.80323 -29.0162 -27.4476 -52 -62 -52z
M729 529v-125h42v125h-42zM229 488v-84h42v84h-42zM479 112v-41h42v83h-42v-42z" />
  </g>

</svg>
