<?xml version="1.0" standalone="no"?>
<!DOCTYPE svg PUBLIC "-//W3C//DTD SVG 1.1//EN" "http://www.w3.org/Graphics/SVG/1.1/DTD/svg11.dtd" >
<svg xmlns="http://www.w3.org/2000/svg" xmlns:xlink="http://www.w3.org/1999/xlink" version="1.1" viewBox="-10 0 1010 1000">
  <g transform="matrix(1 0 0 -1 0 800)">
   <path fill="currentColor"
d="M409 729h12c51 0 89 -37 98 -82c1 -7 2 -9 2 -97c0 -85 -1 -91 -2 -96c-5 -25 -22 -40 -46 -48c-44 -13 -83 -52 -80 -109c3 -49 34 -84 73 -98c68 -24 124 21 140 73c8 24 25 44 51 48c3 1 27 1 93 1l89 -1c49 -8 84 -43 90 -96c1 -12 0 -18 -6 -39
c-32 -116 -112 -212 -209 -266c-116 -64 -255 -73 -377 -23c-137 56 -236 175 -265 320c-20 104 2 211 38 282c46 92 125 165 219 205c27 11 64 24 80 26zM563 663c5 34 35 59 75 52c13 -3 53 -19 77 -33c77 -44 139 -108 178 -188c9 -17 20 -44 22 -53
c9 -36 -16 -73 -53 -78h-205c-17 3 -26 10 -37 21c-16 18 -51 42 -57 73v100c0 73 -1 102 0 106zM385 592c-120 -49 -229 -190 -187 -365c11 -46 33 -88 63 -125c44 -55 117 -102 202 -111c150 -18 270 71 320 174c5 11 12 28 12 30c0 1 -11 1 -43 1h-42
c-15 -23 -27 -43 -46 -61c-37 -37 -83 -58 -136 -65c-12 -2 -42 -2 -54 0c-109 14 -190 94 -204 204c-1 11 -2 42 -1 52c10 80 57 144 119 179l8 5v43c0 24 -1 43 -1 43zM688 494c2.27733 -2.056 4.20433 -4.46234 6 -7l28 1h29c-18 21 -38 46 -61 61l-2 2v-57z" />
  </g>

</svg>
