<?xml version="1.0" standalone="no"?>
<!DOCTYPE svg PUBLIC "-//W3C//DTD SVG 1.1//EN" "http://www.w3.org/Graphics/SVG/1.1/DTD/svg11.dtd" >
<svg xmlns="http://www.w3.org/2000/svg" xmlns:xlink="http://www.w3.org/1999/xlink" version="1.1" viewBox="-10 0 1010 1000">
  <g transform="matrix(1 0 0 -1 0 800)">
   <path fill="currentColor"
d="M377 695c7 1 43 0 51 -1c75 -9 132 -41 176 -86c32 -33 56 -72 70 -115c2 -5 3 -11 3 -12c0 -3 1 -3 6 -4c117 -33 213 -143 213 -281c0 -20 -2 -34 -5 -53c-22 -118 -116 -212 -234 -234c-141 -27 -266 58 -314 158c-8 17 -17 38 -20 51c-1 4 -1 5 -4 5
c-84 21 -152 83 -186 155c-22 44 -32 89 -27 155c6 51 23 97 51 138c49 70 127 115 210 123c4 0 9 1 10 1zM420 569c-71 9 -120 -20 -154 -60c-25 -32 -41 -70 -35 -127c9 -56 40 -99 83 -123l5 -3v2c24 112 113 197 218 222c4 1 6 1 6 1s-8 15 -12 20
c-26 37 -65 61 -111 68zM547 352c-41 -15 -73 -46 -92 -83c-5 -9 -11 -23 -10 -24s15 5 24 10c34 16 60 43 76 76c4 8 10 22 10 24c0 0 -1 -1 -8 -3zM681 342c-24 -102 -91 -175 -179 -210c-13 -5 -30 -10 -46 -13c0 0 10 -16 13 -20c26 -37 65 -61 111 -68
c64 -7 109 14 142 47c36 36 54 79 47 142c-9 57 -41 97 -85 122l-3 2v-2z" />
  </g>

</svg>
