<?xml version="1.0" standalone="no"?>
<!DOCTYPE svg PUBLIC "-//W3C//DTD SVG 1.1//EN" "http://www.w3.org/Graphics/SVG/1.1/DTD/svg11.dtd" >
<svg xmlns="http://www.w3.org/2000/svg" xmlns:xlink="http://www.w3.org/1999/xlink" version="1.1" viewBox="-10 0 1010 1000">
  <g transform="matrix(1 0 0 -1 0 800)">
   <path fill="currentColor"
d="M220 726c145.959 48.6529 276.337 -54.0213 298 -184c11.7035 -83.2248 -25.3294 -167.145 -83 -212c-42.2628 -32.871 -93.6057 -56.0358 -171 -49c-104.112 14.0151 -183.405 91.1321 -200 199c-7.44412 52.1088 5.63799 92.3011 22 128c27 55 76 99 134 118zM283 446
c-27.1437 6.6243 -47.1324 23.0855 -53 51v47c0 26 -1 47 -1 47c-37.0591 -30.8826 -54.2094 -82.5813 -31 -129c15.7246 -31.4493 46.7476 -57 93 -57c39.5238 0 65.2868 13.4302 83 40c0 0 -20 1 -45 1h-46zM375 571c-2.04331 4.08661 -15.8972 18.4486 -19 20h-2v-20h21z
M814 313c7.62288 31.762 36.0921 57.227 77 47c23 -6 40 -24 45 -47c1 -5 1 -12 1 -201s0 -195 -1 -200c-6 -28 -30 -48 -58 -49c-30 -2 -57 19 -64 49c-1 5 -1 11 -1 200s0 196 1 201zM481 271c6.43754 30.9002 36.492 57.127 77 47c25 -7 43 -27 46 -53
c1 -7 1 -339 0 -347c-4 -38 -41 -62 -78 -53c-23.7568 6.47912 -40.9591 23.7953 -46 49v176c0 170 0 175 1 181zM646 223c4.42146 44.2146 56.0866 72.9422 98 45c12.8387 -8.55912 22.4485 -22.2423 26 -40v-313c-4.5618 -27.3708 -24.1016 -46.8618 -51 -51
c-35 -6 -69 18 -73 54c-1 7 -1 298 0 305zM369 154c-30 -4 -52 -25 -56 -54c-1 -4 0 -30 0 -95v-90c6.60482 -33.0241 33.062 -53.0646 65 -52c28 1 52 21 58 49c1 5 1 9 1 97v92c-6.19592 30.9796 -30.5415 51.9479 -60 53h-8z" />
  </g>

</svg>
