<?xml version="1.0" standalone="no"?>
<!DOCTYPE svg PUBLIC "-//W3C//DTD SVG 1.1//EN" "http://www.w3.org/Graphics/SVG/1.1/DTD/svg11.dtd" >
<svg xmlns="http://www.w3.org/2000/svg" xmlns:xlink="http://www.w3.org/1999/xlink" version="1.1" viewBox="-10 0 1010 1000">
  <g transform="matrix(1 0 0 -1 0 800)">
   <path fill="currentColor"
d="M521 337c3 -8 8 -13 16 -16h151l152 -1c49 -8 84 -44 89 -96c1 -12 0 -18 -6 -39c-32 -116 -112 -212 -209 -266c-116 -64 -255 -73 -377 -23c-137 56 -236 175 -265 320c-20 104 2 211 38 282c46 92 125 165 219 205c27 11 64 24 80 26h12c50 0 88 -35 98 -79
c1 -6 2 -6 2 -159v-154zM563 664c6 33 35 58 75 51c13 -3 53 -19 77 -33c77 -44 139 -108 178 -188c9 -17 20 -44 22 -53c9 -36 -15 -73 -52 -78c-6 -1 -199 -1 -207 0c-49 5 -87 43 -93 91c-1 11 -1 202 0 210zM385 592c-93 -37 -161 -116 -186 -213
c-30 -115 10 -213 62 -277c44 -55 117 -102 202 -111c150 -18 270 71 320 174c5 11 12 28 12 30c0 1 -34 1 -133 1c-124 0 -134 0 -140 1c-67 12 -114 58 -125 125c-1 6 -1 16 -1 140l-1 133zM688 551v-63h31c25 0 31 -1 31 0c-10 14 -22 27 -33 38c-9 8 -23 19 -29 25z" />
  </g>

</svg>
