<?xml version="1.0" standalone="no"?>
<!DOCTYPE svg PUBLIC "-//W3C//DTD SVG 1.1//EN" "http://www.w3.org/Graphics/SVG/1.1/DTD/svg11.dtd" >
<svg xmlns="http://www.w3.org/2000/svg" xmlns:xlink="http://www.w3.org/1999/xlink" version="1.1" viewBox="-10 0 1010 1000">
  <g transform="matrix(1 0 0 -1 0 800)">
   <path fill="currentColor"
d="M157 113c-30 5 -52 27 -52 62c0 12 1 17 5 27c2 4 32 48 89 134c91 136 88 132 98 139s24 13 37 13c6 0 15 -2 20 -4l66 -33c34 -17 62 -30 62 -30c143 174 134 167 142 175c20 18 52 24 79 5c4 -3 167 -166 176 -176c8 -9 13 -18 15 -29c1 -6 1 -10 1 -119v-113
c-5 -27 -27 -47 -52 -51c-6 -1 -34 0 -346 0h-340zM672 456c-1 -2 -126 -157 -126 -157c-9 -11 -27 -19 -46 -19c-9 0 -12 0 -16 1s-17 7 -67 32l-62 31s-71 -105 -71 -106s48 0 243 0h244v120c-33 32 -66 65 -99 98zM154 69c5 1 21 2 346 2c331 0 340 -1 346 -2
c31 -6 58 -37 47 -77c-7 -26 -25 -37 -51 -46h-684c-26 9 -43 20 -51 46c-10 41 14 70 47 77z" />
  </g>

</svg>
