<?xml version="1.0" standalone="no"?>
<!DOCTYPE svg PUBLIC "-//W3C//DTD SVG 1.1//EN" "http://www.w3.org/Graphics/SVG/1.1/DTD/svg11.dtd" >
<svg xmlns="http://www.w3.org/2000/svg" xmlns:xlink="http://www.w3.org/1999/xlink" version="1.1" viewBox="-10 0 1010 1000">
  <g transform="matrix(1 0 0 -1 0 800)">
   <path fill="currentColor"
d="M409 729h12c50.9243 0 89.3637 -36.6594 98 -82c1 -7 2 -9 2 -97c0 -85 -1 -91 -2 -96c-4.61273 -24.6012 -21.765 -39.9217 -46 -48c-43.5918 -13.0775 -82.8418 -52.1634 -80 -109c3.0795 -49.272 33.5363 -83.9058 73 -98c67.9045 -23.9663 123.631 21.1653 140 73
c7.51613 24.4274 24.9375 43.9904 51 48c3 1 27 1 93 1l89 -1c48.979 -8.16317 84.4567 -43.339 90 -96c1 -12 0 -18 -6 -39c-31.9858 -115.948 -111.669 -212.158 -209 -266c-116 -64 -255 -73 -377 -23c-137 56 -236 175 -265 320c-20.4694 104.208 1.5784 211.18 38 282
c46 92 125 165 219 205c27 11 64 24 80 26zM563 663c4.85446 33.9812 35.4627 58.5896 75 52c13 -3 53 -19 77 -33c77 -44 139 -108 178 -188c9 -17 20 -44 22 -53c9 -36 -16 -73 -53 -78h-205c-17.0158 2.83596 -25.7535 9.75354 -37 21
c-16.0764 18.373 -50.8661 42.3303 -57 73v100c0 73 -1 102 0 106zM385 592c-120.181 -49.3896 -228.988 -189.64 -187 -365c11 -46 33 -88 63 -125c44.1284 -55.1605 116.774 -101.53 202 -111c150.388 -18.2288 270.476 71.4136 320 174c5 11 12 28 12 30c0 1 -11 1 -43 1
h-42c-14.5806 -23.3289 -26.6304 -42.7698 -46 -61c-37 -37 -83 -58 -136 -65c-12 -2 -42 -2 -54 0c-109.406 14.2703 -189.691 94.3008 -204 204c-1 11 -2 42 -1 52c10.3076 79.5155 57.1861 143.678 119 179l8 5v43c0 24 -1 43 -1 43zM688 522v-28l3 -3l3 -4l28 1h29
c-17.7881 20.7528 -38.3973 45.9315 -61 61l-2 2v-29z" />
  </g>

</svg>
