<?xml version="1.0" standalone="no"?>
<!DOCTYPE svg PUBLIC "-//W3C//DTD SVG 1.1//EN" "http://www.w3.org/Graphics/SVG/1.1/DTD/svg11.dtd" >
<svg xmlns="http://www.w3.org/2000/svg" xmlns:xlink="http://www.w3.org/1999/xlink" version="1.1" viewBox="-10 0 1010 1000">
  <g transform="matrix(1 0 0 -1 0 800)">
   <path fill="currentColor"
d="M521 337c2.79254 -8.05927 7.93117 -13.2167 16 -16h151l152 -1c48.5704 -8.09507 83.5053 -43.8007 89 -96c1 -12 0 -18 -6 -39c-31.9858 -115.948 -111.669 -212.158 -209 -266c-116 -64 -255 -73 -377 -23c-137 56 -236 175 -265 320
c-20.4694 104.208 1.5784 211.18 38 282c46 92 125 165 219 205c27 11 64 24 80 26h12c50.1275 0 87.6308 -35.4494 98 -79c1 -6 2 -6 2 -159v-154zM563 664c6.09069 32.8897 35.2794 57.6201 75 51c13 -3 53 -19 77 -33c77 -44 139 -108 178 -188c9 -17 20 -44 22 -53
c9 -36 -15 -73 -52 -78c-6 -1 -199 -1 -207 0c-49 5 -87 43 -93 91c-1 11 -1 202 0 210zM385 592c-93 -37 -161 -116 -186 -213c-29.9068 -115.026 10.1829 -213.092 62 -277c44.1284 -55.1605 116.774 -101.53 202 -111c150.388 -18.2288 270.476 71.4136 320 174
c5 11 12 28 12 30c0 1 -34 1 -133 1c-124 0 -134 0 -140 1c-67.0412 12.1893 -113.501 57.9225 -125 125c-1 6 -1 16 -1 140l-1 133zM688 519v-31h31c25 0 31 -1 31 0c-10 14 -22 27 -33 38c-9.1598 8.01483 -22.9042 18.9042 -29 25v-32z" />
  </g>

</svg>
