<?xml version="1.0" standalone="no"?>
<!DOCTYPE svg PUBLIC "-//W3C//DTD SVG 1.1//EN" "http://www.w3.org/Graphics/SVG/1.1/DTD/svg11.dtd" >
<svg xmlns="http://www.w3.org/2000/svg" xmlns:xlink="http://www.w3.org/1999/xlink" version="1.1" viewBox="-10 0 1010 1000">
  <g transform="matrix(1 0 0 -1 0 800)">
   <path fill="currentColor"
d="M624 596c20 18 52 24 79 5c4 -3 167 -166 176 -176c14 -16 21 -32 14 -58c-8 -24 -28 -46 -59 -46c-14 0 -28 4 -37 11c-2 1 -2 3 -125 124c-79 -95 -116 -146 -130 -160c-11 -11 -21 -16 -42 -16c-9 0 -12 0 -16 1s-17 7 -67 32l-62 31c-142 -211 -139 -208 -143 -212
c-37 -38 -107 -16 -107 43c0 12 1 17 5 27c2 4 32 48 89 134c91 136 88 132 98 139s24 13 37 13c6 0 15 -2 20 -4l66 -33c34 -17 62 -30 62 -30c143 174 134 167 142 175zM154 69c5 1 21 2 346 2c331 0 340 -1 346 -2c31 -6 58 -37 47 -77c-7 -26 -25 -37 -51 -46h-684
c-26 9 -43 20 -51 46c-10 41 14 70 47 77z" />
  </g>

</svg>
