<?xml version="1.0" standalone="no"?>
<!DOCTYPE svg PUBLIC "-//W3C//DTD SVG 1.1//EN" "http://www.w3.org/Graphics/SVG/1.1/DTD/svg11.dtd" >
<svg xmlns="http://www.w3.org/2000/svg" xmlns:xlink="http://www.w3.org/1999/xlink" version="1.1" viewBox="-10 0 1010 1000">
  <g transform="matrix(1 0 0 -1 0 800)">
   <path fill="currentColor"
d="M585 737c10 1 37 0 47 -1c99 -11 190 -84 214 -186c19 -76 3 -157 -46 -218c-42 -53 -100 -85 -168 -93c-12 -1 -42 -1 -53 0c-114 13 -201 94 -221 206c-12 73 8 149 56 205c44 51 104 82 171 87zM591 612c-52 -6 -96 -44 -108 -95c-16 -74 25 -129 83 -148
c40 -13 84 -5 116 21c37 30 54 77 45 123c-12 58 -64 100 -124 99h-12zM232 320c51 5 89 -8 121 -30c41 -27 70 -70 80 -118c3 -15 4 -22 4 -39s-1 -26 -4 -41c-11 -50 -43 -94 -87 -120c-60 -36 -137 -35 -196 2c-49 30 -87 85 -87 159c0 16 0 25 3 38
c17 81 84 141 166 149zM238 195c-26 -5 -50 -27 -50 -59c-2 -42 38 -74 79 -63c16 5 31 17 39 32c18 38 -6 79 -40 89c-6 2 -22 2 -28 1zM521 17c8 99 112 171 208 123c44 -21 75 -63 82 -111c11 -77 -42 -153 -124 -165c-10 -2 -31 -2 -41 0c-71 11 -129 73 -125 153z
M661 28c-17 -4 -22 -30 -3 -39c3 -1 5 -1 9 -1c11 0 20 9 20 20c0 16 -13 24 -26 20z" />
  </g>

</svg>
