<?xml version="1.0" standalone="no"?>
<!DOCTYPE svg PUBLIC "-//W3C//DTD SVG 1.1//EN" "http://www.w3.org/Graphics/SVG/1.1/DTD/svg11.dtd" >
<svg xmlns="http://www.w3.org/2000/svg" xmlns:xlink="http://www.w3.org/1999/xlink" version="1.1" viewBox="-10 0 1010 1000">
  <g transform="matrix(1 0 0 -1 0 800)">
   <path fill="currentColor"
d="M250 -95c-35 0 -56 22 -62 52v162l-1 162l-2 1c-44 10 -74 43 -80 88v152c6 45 39 79 82 88l1 17c0 14 0 17 1 21c7 24 25 42 49 47c35 6 60 -14 70 -37c4 -10 4 -13 4 -31l1 -17h3c41 -10 72 -42 79 -88v-152c-6 -45 -37 -78 -80 -88l-2 -1l-1 -162v-162
c-6 -29 -27 -52 -62 -52zM438 643c5 27 25 47 50 52c41 7 68 -20 74 -52v-183l1 -183c44.3268 -12.6648 75.7328 -41.3691 82 -89v-151c-7 -46 -39 -82 -86 -90c-6 -24 -28 -42 -59 -42c-29 0 -51 17 -58 38l-2 4c-45.7274 13.065 -78.52 40.7519 -85 90v151
c7 47 38 78 82 89l1 183v183zM750 -95c-35 0 -56 22 -62 52v162l-1 162l-2 1c-44 10 -74 43 -80 88v193c5 38 26 64 57 80c7 4 20 7 28 10l2 4c7 19 25 34 46 38c35 6 64 -15 71 -42c47 -8 79 -44 86 -90v-193c-7 -46 -36 -75 -80 -88l-2 -1l-1 -162v-162
c-6 -29 -27 -52 -62 -52zM729 529v-125h42v125h-42zM229 488v-84h42v84h-42zM479 154v-83h42v83h-42z" />
  </g>

</svg>
