<?xml version="1.0" standalone="no"?>
<!DOCTYPE svg PUBLIC "-//W3C//DTD SVG 1.1//EN" "http://www.w3.org/Graphics/SVG/1.1/DTD/svg11.dtd" >
<svg xmlns="http://www.w3.org/2000/svg" xmlns:xlink="http://www.w3.org/1999/xlink" version="1.1" viewBox="-10 0 1010 1000">
  <g transform="matrix(1 0 0 -1 0 800)">
   <path fill="currentColor"
d="M623 678c18.0578 18.0578 57.7414 24.3822 81 5c3 -2 38 -36 92 -90c91 -91 90 -90 94 -100c18.6089 -40.9396 -8.57441 -81.1874 -44 -88c-5 -1 -8 0 -15 0c-10 0 -16 1 -24 5c-10 4 -11 5 -75 69l-61 62l-84 -101c-47 -56 -86 -102 -88 -104
c-10.0915 -8.83005 -23.0224 -15 -40 -15c-9 0 -13 0 -21 3c-3 1 -31 15 -66 33l-62 30l-48 -64c-26 -35 -49 -65 -51 -67c-36.4328 -36.4328 -93.8915 -12.7312 -105 28c-1 5 -1 7 -1 16s0 11 1 16c3 12 3 10 74 105c46 61 66 89 69 91c10.6316 9.30264 24.1883 17 42 17
c9 0 13 0 21 -3c6.62037 -2.20679 0.226553 -0.143225 130 -64c136.876 160.829 171.19 206.19 181 216zM895 -3c-5.87134 -28.8469 -25.8493 -44.3616 -53 -51h-684c-30.2629 10.0876 -51.8398 26.514 -53 59c-1 12 1 21 6 31c3 6 172 261 176 265
c11.4545 13.0908 40.7693 26.1748 66 17c3 -1 29 -14 67 -33c60 -30 63 -31 64 -30c3.9 3.9 131.2 165.2 139 173c18.0578 18.0578 57.7414 24.3822 81 5c10.4308 -6.95385 175.706 -174.059 181 -182c4.96783 -7.45174 8.03324 -13.1662 10 -23v-231zM609 211
c-35 -43 -64 -80 -66 -81c-17 -16 -41 -21 -63 -14c-0.0195604 0.0097802 -125.996 61.0045 -126 61c-1 -1 -70 -106 -70 -106h487v120c-33.1689 32.5055 -66.1638 65.1638 -99 98c0 0 -28 -35 -63 -78z" />
  </g>

</svg>
