<?xml version="1.0" standalone="no"?>
<!DOCTYPE svg PUBLIC "-//W3C//DTD SVG 1.1//EN" "http://www.w3.org/Graphics/SVG/1.1/DTD/svg11.dtd" >
<svg xmlns="http://www.w3.org/2000/svg" xmlns:xlink="http://www.w3.org/1999/xlink" version="1.1" viewBox="-10 0 1010 1000">
  <g transform="matrix(1 0 0 -1 0 800)">
   <path fill="currentColor"
d="M502 612c-35.565 0 -64 25.6193 -64 63c0 21.2304 7.07345 33.0735 18 44c15.2272 15.2272 24.4529 18 53 18c110.844 -3.46387 189.201 -37.8703 259 -92c24 -19 51 -43 70 -67c78.0169 -96.5924 129.602 -247.192 79 -410
c-31.1885 -100.763 -95.7775 -181.029 -177 -234c-47 -31 -99 -52 -154 -63c-37 -8 -81 -10 -119 -7c-115.551 9.52996 -230.051 66.951 -298 150c-50 58 -83 126 -98 200c-7 37 -11 85 -7 101c9 34 43 54 77 45c28.2447 -7.7031 47 -29.4411 47 -66c1 -16 0 -24 2 -36
c18 -134 122 -241 255 -265c146 -26 290 53 345 190c33 82 29 173 -9 253c-43 89 -127 153 -224 171c-18 3 -39 5 -55 5zM230 299c0 156.219 115.545 258.385 248 271h26c43.2997 0 68.0264 -6.09841 100 -20c75 -31 134 -97 156 -175c6 -20 7 -31 7 -42
c0 -38.128 -33.3153 -60.2186 -65 -59c-29.6319 1.18528 -52.8618 23.309 -59 54c-13.9378 61.7247 -61.391 108.887 -129 117c-58.4938 5.84938 -98.5247 -19.0296 -126 -52c-23.6504 -27.5921 -38.2533 -63.7204 -33 -111c4 -32 19 -60 41 -83
c23.369 -26.2901 55.4904 -44 104 -44c20.1568 0 30.0038 4.14231 45 2c30.8132 -4.10842 62.545 -34.82 52 -77c-8.57329 -32.5785 -30.2068 -45.8112 -70 -50c-48.7621 -4.43292 -92.1129 5.09063 -126 18c-87.58 34.4064 -156.573 115.419 -170 219c-1 9 -1 13 -1 32z
M428 375c22.2963 20.9847 48.7242 33.468 87 28c31 -4 59 -24 75 -52c28 -50 11 -114 -39 -142c-41 -23 -93 -15 -126 19c-40 42 -39 107 3 147zM494 320c-9.05661 -3.01887 -14 -8.9911 -14 -20c0 -13.4402 6.94298 -20 20 -20c13.4402 0 20 6.94298 20 20
c0 12.5143 -7.65339 20 -19 20h-7z" />
  </g>

</svg>
