<?xml version="1.0" standalone="no"?>
<!DOCTYPE svg PUBLIC "-//W3C//DTD SVG 1.1//EN" "http://www.w3.org/Graphics/SVG/1.1/DTD/svg11.dtd" >
<svg xmlns="http://www.w3.org/2000/svg" xmlns:xlink="http://www.w3.org/1999/xlink" version="1.1" viewBox="-10 0 1010 1000">
  <g transform="matrix(1 0 0 -1 0 800)">
   <path fill="currentColor"
d="M157 113c-30.0618 5.01029 -52 26.7132 -52 62c0 12 1 17 5 27c2 4 32 48 89 134c91 136 88 132 98 139s24 13 37 13c6 0 15 -2 20 -4l66 -33c34 -17 62 -30 62 -30c143.109 173.775 134.203 167.203 142 175c20.3639 18.1012 52.3608 24.028 79 5
c4 -3 167 -166 176 -176c8 -9 13 -18 15 -29c1 -6 1 -10 1 -119v-113c-5.42283 -27.1141 -26.532 -46.7553 -52 -51c-6 -1 -34 0 -346 0h-340zM672 456c-1.3386 -1.66776 -125.884 -156.884 -126 -157c-9.18791 -11.0255 -27.3882 -19 -46 -19c-9 0 -12 0 -16 1
s-17 7 -67 32l-62 31s-71 -105 -71 -106s48 0 243 0h244v120c-33.2557 32.4109 -66.2641 65.0693 -99 98zM154 69c-32.5562 -6.78254 -57.2528 -35.9887 -47 -77c8.32089 -26.1514 25.0067 -37.3356 51 -46h684c25.765 8.58833 43.8628 19.8304 51 46
c11.4208 39.9729 -16.0268 70.8054 -47 77c-6 1 -15 2 -346 2c-325 0 -341 -1 -346 -2z" />
  </g>

</svg>
