<?xml version="1.0" standalone="no"?>
<!DOCTYPE svg PUBLIC "-//W3C//DTD SVG 1.1//EN" "http://www.w3.org/Graphics/SVG/1.1/DTD/svg11.dtd" >
<svg xmlns="http://www.w3.org/2000/svg" xmlns:xlink="http://www.w3.org/1999/xlink" version="1.1" viewBox="-10 0 1010 1000">
  <g transform="matrix(1 0 0 -1 0 800)">
   <path fill="currentColor"
d="M502 612c-36 0 -64 26 -64 63c0 21 7 33 18 44c15 15 24 18 53 18c111 -3 189 -38 259 -92c24 -19 51 -43 70 -67c78 -97 130 -247 79 -410c-31 -101 -96 -181 -177 -234c-47 -31 -99 -52 -154 -63c-37 -8 -81 -10 -119 -7c-116 10 -230 67 -298 150
c-50 58 -83 126 -98 200c-7 37 -11 85 -7 101c9 34 43 54 77 45c28 -8 47 -29 47 -66c1 -16 0 -24 2 -36c18 -134 122 -241 255 -265c146 -26 290 53 345 190c33 82 29 173 -9 253c-43 89 -127 153 -224 171c-18 3 -39 5 -55 5zM230 299c0 156 116 258 248 271h26
c43 0 68 -6 100 -20c75 -31 134 -97 156 -175c6 -20 7 -31 7 -42c0 -38 -33 -60 -65 -59c-30 1 -53 23 -59 54c-14 62 -61 109 -129 117c-58 6 -99 -19 -126 -52c-24 -28 -38 -64 -33 -111c4 -32 19 -60 41 -83c23 -26 55 -44 104 -44c20 0 30 4 45 2c31 -4 63 -35 52 -77
c-9 -33 -30 -46 -70 -50c-49 -4 -92 5 -126 18c-88 34 -157 115 -170 219c-1 9 -1 13 -1 32zM428 375c22 21 49 33 87 28c31 -4 59 -24 75 -52c28 -50 11 -114 -39 -142c-41 -23 -93 -15 -126 19c-40 42 -39 107 3 147zM494 320c-9 -3 -14 -9 -14 -20c0 -13 7 -20 20 -20
s20 7 20 20s-8 20 -19 20h-7z" />
  </g>

</svg>
