<?xml version="1.0" standalone="no"?>
<!DOCTYPE svg PUBLIC "-//W3C//DTD SVG 1.1//EN" "http://www.w3.org/Graphics/SVG/1.1/DTD/svg11.dtd" >
<svg xmlns="http://www.w3.org/2000/svg" xmlns:xlink="http://www.w3.org/1999/xlink" version="1.1" viewBox="-10 0 1010 1000">
  <g transform="matrix(1 0 0 -1 0 800)">
   <path fill="currentColor"
d="M937 -75c0 -35 -22 -57 -52 -62h-383c-339 0 -382 -1 -387 0c-28 4 -52 28 -52 62c0 32 19 50 42 59c9 3 13 4 49 4h34v536l-12 -11c-15 -15 -24 -23 -48 -25c-35 -1 -76 29 -64 76c2 7 5 14 9 20c5 8 136 139 144 144c20 13 51 13 71 -3c16 -16 129 -125 139 -141
c7 -11 14 -29 9 -48c-10 -41 -58 -63 -97 -37c-2 1 -9 7 -15 13l-12 12l1 -172v-170c2 10 5 19 10 27s136 139 144 144c22 14 51 12 71 -3c16 -16 129 -125 139 -141c5 -8 8 -17 10 -27v87l1 88l-12 -11c-6 -6 -13 -12 -16 -14c-25 -17 -57 -14 -79 8c-18 18 -24 45 -14 68
c5 11 3 8 77 82c64 64 69 69 74 72c10 6 20 9 32 9s23 -3 33 -9c5 -3 140 -138 145 -146c29 -43 -8 -102 -66 -94c-14 3 -22 9 -38 24l-12 11v-369l37 -1h36c28 -9 52 -24 52 -62zM313 78l-1 -90h126v161l-12 -11c-12 -12 -16 -15 -24 -19c-28 -14 -62 -4 -79 22
c-5 8 -8 17 -10 27v-90zM687 167c0 -39 -51 -68 -90 -48c-8 4 -11 6 -23 18l-12 12v-161h126v90c0 44 -1 80 -1 89z" />
  </g>

</svg>
