<?xml version="1.0" standalone="no"?>
<!DOCTYPE svg PUBLIC "-//W3C//DTD SVG 1.1//EN" "http://www.w3.org/Graphics/SVG/1.1/DTD/svg11.dtd" >
<svg xmlns="http://www.w3.org/2000/svg" xmlns:xlink="http://www.w3.org/1999/xlink" version="1.1" viewBox="-10 0 1010 1000">
  <g transform="matrix(1 0 0 -1 0 800)">
   <path fill="currentColor"
d="M377 695c7 1 43 0 51 -1c75.1702 -8.59089 132.456 -40.7143 176 -86c32 -33 56 -72 70 -115c2 -5 3 -11 3 -12c0 -3 1 -3 6 -4c116.923 -33.4065 213 -143.323 213 -281c0 -20 -2 -34 -5 -53c-22 -118 -116 -212 -234 -234c-140.528 -26.5864 -265.78 58.1163 -314 158
c-8 17 -17 38 -20 51c-1 4 -1 5 -4 5c-84.2293 21.0573 -152.118 82.7183 -186 155c-21.9502 43.9004 -32.4859 89.1688 -27 155c6 51 23 97 51 138c49 70 127 115 210 123c4 0 9 1 10 1zM420 569c-71.4779 8.93474 -119.674 -19.9528 -154 -60
c-25.157 -32.1451 -41.3198 -70.1217 -35 -127c8.75135 -56.0087 39.5874 -98.8819 83 -123l5 -3v2c24.3048 112.41 112.787 197.158 218 222c4 1 6 1 6 1s-8 15 -12 20c-26 37 -65 61 -111 68zM547 352c-41.3495 -14.594 -72.8385 -46.419 -92 -83c-5 -9 -11 -23 -10 -24
s15 5 24 10c34 16 60 43 76 76c4 8 10 22 10 24c0 0 -1 -1 -8 -3zM681 342c-23.9328 -101.714 -90.6663 -174.667 -179 -210c-13.0032 -4.72844 -30.0973 -10.3495 -46 -13c0 0 10 -16 13 -20c26 -37 65 -61 111 -68c63.5869 -7.06521 109.326 14.3263 142 47
c35.8292 35.8292 53.9767 79.21 47 142c-9.06636 56.6647 -41.3799 96.8346 -85 122l-3 2v-2z" />
  </g>

</svg>
