<?xml version="1.0" standalone="no"?>
<!DOCTYPE svg PUBLIC "-//W3C//DTD SVG 1.1//EN" "http://www.w3.org/Graphics/SVG/1.1/DTD/svg11.dtd" >
<svg xmlns="http://www.w3.org/2000/svg" xmlns:xlink="http://www.w3.org/1999/xlink" version="1.1" viewBox="-10 0 1010 1000">
  <g transform="matrix(1 0 0 -1 0 800)">
   <path fill="currentColor"
d="M623 678c18 18 58 24 81 5c3 -2 38 -36 92 -90c91 -91 90 -90 94 -100c19 -41 -9 -81 -44 -88c-5 -1 -8 0 -15 0c-10 0 -16 1 -24 5c-10 4 -11 5 -75 69l-61 62l-84 -101c-47 -56 -86 -102 -88 -104c-10 -9 -23 -15 -40 -15c-9 0 -13 0 -21 3c-3 1 -31 15 -66 33l-62 30
l-48 -64c-26 -35 -49 -65 -51 -67c-36 -36 -94 -13 -105 28c-1 5 -1 7 -1 16s0 11 1 16c3 12 3 10 74 105c46 61 66 89 69 91c11 9 24 17 42 17c9 0 13 0 21 -3c7 -2 0 0 130 -64c137 161 171 206 181 216zM895 -3c-6 -29 -26 -44 -53 -51h-684c-30 10 -52 27 -53 59
c-1 12 1 21 6 31c3 6 172 261 176 265c11 13 41 26 66 17c3 -1 29 -14 67 -33c60 -30 63 -31 64 -30c4 4 131 165 139 173c18 18 58 24 81 5c10 -7 176 -174 181 -182c5 -7 8 -13 10 -23v-231zM672 289c-1 -1 -128 -158 -129 -159c-17 -16 -41 -21 -63 -14l-126 61
c-1 -1 -70 -106 -70 -106h487v120c-33 33 -66 65 -99 98z" />
  </g>

</svg>
