<?xml version="1.0" standalone="no"?>
<!DOCTYPE svg PUBLIC "-//W3C//DTD SVG 1.1//EN" "http://www.w3.org/Graphics/SVG/1.1/DTD/svg11.dtd" >
<svg xmlns="http://www.w3.org/2000/svg" xmlns:xlink="http://www.w3.org/1999/xlink" version="1.1" viewBox="-10 0 1010 1000">
  <g transform="matrix(1 0 0 -1 0 800)">
   <path fill="currentColor"
d="M585 737c10 1 37 0 47 -1c99.2775 -11.1687 189.681 -83.8601 214 -186c19 -76 3 -157 -46 -218c-42 -53 -100 -85 -168 -93c-12 -1 -42 -1 -53 0c-113.897 13.2879 -200.707 94.3869 -221 206c-12 73 8 149 56 205c44 51 104 82 171 87zM591 612
c-52 -6 -96 -44 -108 -95c-15.8847 -74.1287 24.8196 -129.028 83 -148c40 -13 84 -5 116 21c37 30 54 77 45 123c-12 58 -64 100 -124 99h-12zM232 320c51.3298 5.13298 89.4326 -8.47678 121 -30c41 -27 70 -70 80 -118c3 -15 4 -22 4 -39s-1 -26 -4 -41
c-11 -50 -43 -94 -87 -120c-60 -36 -137 -35 -196 2c-48.5882 30.3676 -87 84.6788 -87 159c0 16 0 25 3 38c17 81 84 141 166 149zM238 195c-26.1339 -5.44455 -50 -26.8657 -50 -59c-2 -42 38 -74 79 -63c16 5 31 17 39 32c18.2189 37.9561 -6.04096 78.8123 -40 89
c-6 2 -22 2 -28 1zM521 17c7.61258 98.9636 111.632 171.184 208 123c44 -21 75 -63 82 -111c10.6365 -77.1146 -42.3154 -152.747 -124 -165c-10 -2 -31 -2 -41 0c-71.4413 11.4306 -129.425 73.3581 -125 153zM661 28c-16.7485 -4.18712 -21.7436 -30.3491 -3 -39
c3 -1 5 -1 9 -1c10.8958 0 20 9.11394 20 20c0 15.6945 -12.8265 23.9521 -26 20z" />
  </g>

</svg>
