<?xml version="1.0" standalone="no"?>
<!DOCTYPE svg PUBLIC "-//W3C//DTD SVG 1.1//EN" "http://www.w3.org/Graphics/SVG/1.1/DTD/svg11.dtd" >
<svg xmlns="http://www.w3.org/2000/svg" xmlns:xlink="http://www.w3.org/1999/xlink" version="1.1" viewBox="-10 0 1010 1000">
  <g transform="matrix(1 0 0 -1 0 800)">
   <path fill="currentColor"
d="M220 726c146 49 276 -54 298 -184c12 -83 -25 -167 -83 -212c-42 -33 -94 -56 -171 -49c-104 14 -183 91 -200 199c-7 52 6 92 22 128c27 55 76 99 134 118zM283 446c-27 7 -47 23 -53 51v47c0 26 -1 47 -1 47c-37 -31 -54 -83 -31 -129c16 -31 47 -57 93 -57
c40 0 65 13 83 40c0 0 -20 1 -45 1h-46zM375 571c-2 4 -16 18 -19 20h-2v-20h21zM814 313c8 32 36 57 77 47c23 -6 40 -24 45 -47c1 -5 1 -12 1 -201s0 -195 -1 -200c-6 -28 -30 -48 -58 -49c-30 -2 -57 19 -64 49c-1 5 -1 11 -1 200s0 196 1 201zM481 271c6 31 36 57 77 47
c25 -7 43 -27 46 -53c1 -7 1 -339 0 -347c-4 -38 -41 -62 -78 -53c-24 6 -41 24 -46 49v176c0 170 0 175 1 181zM646 223c4 44 56 73 98 45c13 -9 22 -22 26 -40v-313c-5 -27 -24 -47 -51 -51c-35 -6 -69 18 -73 54c-1 7 -1 298 0 305zM369 154h8c29 -1 54 -22 60 -53v-92
c0 -88 0 -92 -1 -97c-6 -28 -30 -48 -58 -49c-32 -1 -58 19 -65 52v90c0 65 -1 91 0 95c4 29 26 50 56 54z" />
  </g>

</svg>
