<?xml version="1.0" standalone="no"?>
<!DOCTYPE svg PUBLIC "-//W3C//DTD SVG 1.1//EN" "http://www.w3.org/Graphics/SVG/1.1/DTD/svg11.dtd" >
<svg xmlns="http://www.w3.org/2000/svg" xmlns:xlink="http://www.w3.org/1999/xlink" version="1.1" viewBox="-10 0 1010 1000">
  <g transform="matrix(1 0 0 -1 0 800)">
   <path fill="currentColor"
d="M64 688c7.62288 31.762 36.0921 57.227 77 47c22 -6 39 -22 45 -45c1 -5 1 -7 1 -41l1 -37h536l-11 12c-17.8403 17.8403 -25 25.4136 -25 51c0 21.2304 7.07345 33.0735 18 44c22 22 57 25 81 6c3 -2 34 -33 71 -70c71 -71 70 -69 74 -80c4 -9 5 -14 5 -25
s-1 -16 -5 -25c-4 -11 -3 -9 -74 -80c-37 -37 -68 -68 -71 -70c-39.4916 -27.6441 -99 -4.25801 -99 50c0 25.6763 7.13604 33.136 25 51l11 12l-172 -1c-141 0 -171 1 -167 0c10 -2 19 -6 27 -12c3 -2 34 -33 71 -70c71 -71 70 -69 74 -80c4 -9 5 -14 5 -25s-1 -16 -5 -25
c-4 -11 -3 -9 -74 -80c-37 -37 -68 -68 -71 -70c-8 -6 -17 -10 -27 -12c-4 -1 10 0 84 0l88 -1l-11 12c-18.4189 18.4189 -33.0277 45.8274 -19 77c16 35 60 47 92 25c3 -2 26 -25 72 -71c72 -72 71 -70 75 -80c7 -16 7 -34 0 -50c-4 -10 -3 -8 -75 -80
c-67 -68 -71 -72 -79 -76c-14 -7 -32 -9 -47 -4c-40 13 -56 60 -33 95c2 3 8 10 14 16l11 12h-369l-1 -37c0 -34 0 -36 -1 -41c-7 -28 -30 -46 -58 -47c-30 -2 -57 19 -64 49c-1 5 -1 16 -1 388s0 383 1 388zM188 488v-126h161l-11 12c-15 15 -20 23 -24 37
c-9.77609 39.1044 19.9137 70.6906 50 76c4 1 -6 0 -86 0zM188 175v-63l90 1c80 0 90 -1 86 0c-24.6628 4.35226 -43.1443 24.0051 -50 48c-2 8 -2 20 0 28c4 14 9 22 24 37l11 12h-161v-63z" />
  </g>

</svg>
