<?xml version="1.0" standalone="no"?>
<!DOCTYPE svg PUBLIC "-//W3C//DTD SVG 1.1//EN" "http://www.w3.org/Graphics/SVG/1.1/DTD/svg11.dtd" >
<svg xmlns="http://www.w3.org/2000/svg" xmlns:xlink="http://www.w3.org/1999/xlink" version="1.1" viewBox="-10 0 1010 1000">
  <g transform="matrix(1 0 0 -1 0 800)">
   <path fill="currentColor"
d="M937 -75c0 -34.6641 -22.2278 -57.038 -52 -62h-383c-339 0 -382 -1 -387 0c-28.4124 4.37114 -52 28.337 -52 62c0 32.2429 18.7358 49.6943 42 59c9 3 13 4 49 4h34v536l-12 -11c-14.7805 -14.7805 -24.458 -23.0382 -48 -25c-34.7761 -1.1592 -75.8351 28.6594 -64 76
c2 7 5 14 9 20c5.08235 8.47059 135.529 138.918 144 144c19.9002 13.2668 50.8511 12.8313 71 -3c15.9688 -15.9688 129.386 -124.977 139 -141c7.4516 -11.1774 13.8021 -28.7915 9 -48c-10.3021 -41.2083 -57.9618 -63.0255 -97 -37c-2 1 -9 7 -15 13l-12 12l1 -172v-170
c2 10 5 19 10 27c5.08235 8.47059 135.529 138.918 144 144c22 14 51 12 71 -3c15.9688 -15.9688 129.386 -124.977 139 -141c5 -8 8 -17 10 -27v87l1 88l-12 -11c-6 -6 -13 -12 -16 -14c-25 -17 -57 -14 -79 8c-18 18 -24 45 -14 68c5 11 3 8 77 82c64 64 69 69 74 72
c10 6 20 9 32 9s23 -3 33 -9c5.29504 -3.17702 140.4 -138.333 145 -146c28.872 -43.308 -8.4812 -102.217 -66 -94c-14 3 -22 9 -38 24l-12 11v-369l37 -1h36c28.4533 -9.48443 52 -24.3889 52 -62zM313 78l-1 -90h126v161l-12 -11c-12 -12 -16 -15 -24 -19
c-28 -14 -62 -4 -79 22c-5 8 -8 17 -10 27v-90zM687 167c0 -38.7275 -51.4482 -68.1938 -90 -48c-8 4 -11 6 -23 18l-12 12v-161h126v90c0 43.5138 -0.8035 80.2112 -1 89z" />
  </g>

</svg>
