<?xml version="1.0" standalone="no"?>
<!DOCTYPE svg PUBLIC "-//W3C//DTD SVG 1.1//EN" "http://www.w3.org/Graphics/SVG/1.1/DTD/svg11.dtd" >
<svg xmlns="http://www.w3.org/2000/svg" xmlns:xlink="http://www.w3.org/1999/xlink" version="1.1" viewBox="-10 0 1010 1000">
  <g transform="matrix(1 0 0 -1 0 800)">
   <path fill="currentColor"
d="M937 -75c0 -34.6641 -22.2278 -57.038 -52 -62h-383c-339 0 -382 -1 -387 0c-25.6715 3.94946 -44.8583 24.4332 -51 49c-1 5 -1 16 -1 388s0 383 1 388c7.62288 31.762 36.0921 57.227 77 47c23.8344 -6.50028 40.7796 -23.8981 46 -50v-349l1 -348l348 -1h349
c29.7764 -4.96273 52 -27.3788 52 -62zM691 614c45.2788 41.6565 115.907 55.0561 176 19c13 -8 28 -21 38 -33c34 -42 42 -99 21 -149c-20.5961 -48.0576 -66.309 -88 -136 -88h-15c-22.8657 -36.801 -45.5313 -73.802 -68 -111c17.1107 -25.666 27.5069 -68.1695 18 -110
c-12 -52 -52 -94 -103 -108c-77.8031 -19.4508 -142.159 20.0524 -170 77c-14.1987 28.3973 -20.77 74.28 -7 111c1 4 2 7 2 7c-2 3 -42 53 -43 53c-9.65866 0 -30.8036 -3.35516 -43 -2c-72.9727 8.10807 -132 66.2752 -132 145c0 47.2905 19.5278 79.5278 45 105
c23.8593 23.8593 56.4855 41 101 41c81.5619 0 137.764 -63.46 145 -131c4.05074 -32.4059 -3.75319 -61.5681 -16 -83l17 -20c9 -11 16 -21 17 -22s1 -1 9 1c14 4 19 4 38 4h17l33 54c18 30 34 55 34 55c-19.1016 31.836 -29.0104 74.4051 -18 116c7 26 20 50 40 69z
M811 500c9.44371 23.6093 -22.3855 38.8194 -35 22c-12.5708 -13.9675 0.422283 -42.4311 24 -33c4 2 9 7 11 11zM395 425c0 27.437 -33.7893 24.632 -40 6c-7.39293 -29.5717 40 -38.016 40 -6zM578 195c-8.92533 -2.97511 -15 -8.65926 -15 -20
c0 -11.4379 7.75075 -20 19 -20c13.5373 0 22 7.05003 22 20c0 11.6211 -7.17006 20 -20 20h-6z" />
  </g>

</svg>
