<?xml version="1.0" standalone="no"?>
<!DOCTYPE svg PUBLIC "-//W3C//DTD SVG 1.1//EN" "http://www.w3.org/Graphics/SVG/1.1/DTD/svg11.dtd" >
<svg xmlns="http://www.w3.org/2000/svg" xmlns:xlink="http://www.w3.org/1999/xlink" version="1.1" viewBox="-10 0 1010 1000">
  <g transform="matrix(1 0 0 -1 0 800)">
   <path fill="currentColor"
d="M937 -75c0 -35 -22 -57 -52 -62h-383c-339 0 -382 -1 -387 0c-26 4 -45 24 -51 49c-1 5 -1 16 -1 388s0 383 1 388c8 32 36 57 77 47c24 -6 41 -24 46 -50v-349l1 -348l348 -1h349c30 -5 52 -27 52 -62zM691 614c45 42 116 55 176 19c13 -8 28 -21 38 -33
c34 -42 42 -99 21 -149c-21 -48 -66 -88 -136 -88h-15c-23 -37 -46 -74 -68 -111c17 -26 28 -68 18 -110c-12 -52 -52 -94 -103 -108c-78 -19 -142 20 -170 77c-16 31 -20 79 -5 118c-2 3 -42 53 -43 53c-10 0 -31 -3 -43 -2c-73 8 -132 66 -132 145c0 47 20 80 45 105
c24 24 56 41 101 41c82 0 138 -63 145 -131c4 -32 -4 -62 -16 -83l17 -20c9 -11 16 -21 17 -22s1 -1 9 1c14 4 19 4 38 4h17l33 54c18 30 34 55 34 55c-19 32 -29 74 -18 116c7 26 20 50 40 69zM811 500c9 24 -22 39 -35 22c-13 -14 0 -42 24 -33c4 2 9 7 11 11zM395 425
c0 27 -34 25 -40 6c-7 -30 40 -38 40 -6zM578 195c-9 -3 -15 -9 -15 -20s8 -20 19 -20c14 0 22 7 22 20c0 12 -7 20 -20 20h-6z" />
  </g>

</svg>
