<?xml version="1.0" standalone="no"?>
<!DOCTYPE svg PUBLIC "-//W3C//DTD SVG 1.1//EN" "http://www.w3.org/Graphics/SVG/1.1/DTD/svg11.dtd" >
<svg xmlns="http://www.w3.org/2000/svg" xmlns:xlink="http://www.w3.org/1999/xlink" version="1.1" viewBox="-10 0 1010 1000">
  <g transform="matrix(1 0 0 -1 0 800)">
   <path fill="currentColor"
d="M114 737c4 1 44 0 263 0h258c27.0471 -4.50784 44.4776 -22.9976 51 -48c10.3258 -41.3033 -19.9215 -70.8203 -51 -76h-224l-223 -1v-624h624l1 161v161c6.60482 33.0241 33.062 53.0646 65 52c28 -1 52 -21 58 -49c1 -5 1 -12 1 -201s0 -195 -1 -200
c-5.44627 -25.0528 -24.0371 -44.5062 -51 -49h-383c-339 0 -382 -1 -387 0c-25.6715 3.94946 -44.8583 24.4332 -51 49c-1 5 -1 16 -1 388s0 383 1 388c6 25 25 44 50 49zM805 612c-14 -3 -24 -6 -33 -14c-3 -3 -39 -46 -140 -167l-136 -163l-71 70c-39 39 -72 72 -75 74
c-24 19 -59 17 -81 -5c-16.6016 -16.6016 -26.5822 -51.6267 -9 -78c6.50645 -10.8441 158.285 -160.285 201 -203c10.4665 -8.97132 22.0581 -13 40 -13c11 0 18 1 27 6c13 6 0 -8 175 202c87 105 160 192 162 195c7.19965 10.7995 12.5076 29.9698 8 48
c-6 23 -23 40 -45 46c-6 2 -19 3 -23 2z" />
  </g>

</svg>
