<?xml version="1.0" standalone="no"?>
<!DOCTYPE svg PUBLIC "-//W3C//DTD SVG 1.1//EN" "http://www.w3.org/Graphics/SVG/1.1/DTD/svg11.dtd" >
<svg xmlns="http://www.w3.org/2000/svg" xmlns:xlink="http://www.w3.org/1999/xlink" version="1.1" viewBox="-10 0 1010 1000">
  <g transform="matrix(1 0 0 -1 0 800)">
   <path fill="currentColor"
d="M114 737c4 1 44 0 263 0h258c27 -5 44 -23 51 -48c10 -41 -20 -71 -51 -76h-224l-223 -1v-624h624l1 161v161c7 33 33 53 65 52c28 -1 52 -21 58 -49c1 -5 1 -12 1 -201s0 -195 -1 -200c-5 -25 -24 -45 -51 -49h-383c-339 0 -382 -1 -387 0c-26 4 -45 24 -51 49
c-1 5 -1 16 -1 388s0 383 1 388c6 25 25 44 50 49zM772 598c12 10 34 19 56 12c36 -10 61 -56 37 -94c-2 -3 -75 -90 -162 -195c-175 -210 -162 -196 -175 -202c-9 -5 -16 -6 -27 -6c-18 0 -30 4 -40 13c-43 43 -194 192 -201 203c-18 26 -8 61 9 78c22 22 57 24 81 5
c3 -2 36 -35 75 -74l71 -70l136 163c101 121 137 164 140 167z" />
  </g>

</svg>
