<?xml version="1.0" standalone="no"?>
<!DOCTYPE svg PUBLIC "-//W3C//DTD SVG 1.1//EN" "http://www.w3.org/Graphics/SVG/1.1/DTD/svg11.dtd" >
<svg xmlns="http://www.w3.org/2000/svg" xmlns:xlink="http://www.w3.org/1999/xlink" version="1.1" viewBox="-10 0 1010 1000">
  <g transform="matrix(1 0 0 -1 0 800)">
   <path fill="currentColor"
d="M679 598c12.2114 9.49777 33.0336 19.6555 56 12c26.1585 -7.13414 54.8648 -34.5409 45 -74c-2 -7 -5 -14 -9 -20c-0.962621 -1.44393 -226.699 -260.275 -233 -265c-38.4655 -30.7724 -100 -4.64654 -100 49c0 16.303 3.34204 24.0131 10 34c5 7 226 260 231 264z
M835 536c49.0957 43.6406 133.893 -19.1607 92 -82c-2 -3 -86 -102 -193 -227c-207 -242 -194 -227 -206 -233c-23 -11 -51 -8 -70 10c-6.38841 6.38841 -195.542 257.085 -199 264c-6 10 -9 20 -9 32c0 56.7556 73.1236 82.8587 108 43c2 -2 35 -46 74 -98
c59 -79 71 -95 72 -94c8.95 8.95 322.05 376.05 331 385zM114 362c-27.2642 -4.81133 -51 -29.8672 -51 -62c0 -12 2 -22 8 -32c1.62748 -3.25495 195.485 -260.485 199 -264c37.1854 -31.4646 91.6326 -13.4696 103 32c5.13347 17.9671 0.0327169 34.2788 -7 46
c-3 5 -192 257 -196 261c-10.8145 12.3594 -32.9043 22.2994 -56 19z" />
  </g>

</svg>
