<?xml version="1.0" standalone="no"?>
<!DOCTYPE svg PUBLIC "-//W3C//DTD SVG 1.1//EN" "http://www.w3.org/Graphics/SVG/1.1/DTD/svg11.dtd" >
<svg xmlns="http://www.w3.org/2000/svg" xmlns:xlink="http://www.w3.org/1999/xlink" version="1.1" viewBox="-10 0 1010 1000">
  <g transform="matrix(1 0 0 -1 0 800)">
   <path fill="currentColor"
d="M710 535c11.9891 10.657 32.6623 20.7792 56 13c35.9529 -9.80535 61.1143 -56.106 37 -94c-2 -3 -76 -91 -163 -196c-175 -210 -162 -195 -175 -201c-9 -5 -16 -7 -27 -7c-19 0 -29 5 -40 14l-100 100c-85 86 -97 97 -100 102c-38 57 35 126 89 84c3 -2 37 -35 76 -74
l70 -71l136 163c101 121 138 164 141 167z" />
  </g>

</svg>
