<?xml version="1.0" standalone="no"?>
<!DOCTYPE svg PUBLIC "-//W3C//DTD SVG 1.1//EN" "http://www.w3.org/Graphics/SVG/1.1/DTD/svg11.dtd" >
<svg xmlns="http://www.w3.org/2000/svg" xmlns:xlink="http://www.w3.org/1999/xlink" version="1.1" viewBox="-10 0 1010 1000">
  <g transform="matrix(1 0 0 -1 0 800)">
   <path fill="currentColor"
d="M679 598c12 9 33 20 56 12c26 -7 55 -35 45 -74c-2 -7 -5 -14 -9 -20c-1 -1 -227 -260 -233 -265c-38 -31 -100 -5 -100 49c0 16 3 24 10 34c5 7 226 260 231 264zM835 536c49 44 134 -19 92 -82c-2 -3 -86 -102 -193 -227c-207 -242 -194 -227 -206 -233
c-23 -11 -51 -8 -70 10c-6 6 -196 257 -199 264c-6 10 -9 20 -9 32c0 57 73 83 108 43c2 -2 35 -46 74 -98c59 -79 71 -95 72 -94c9 9 322 376 331 385zM114 362c23 3 45 -7 56 -19c4 -4 193 -256 196 -261c7 -12 12 -28 7 -46c-11 -45 -66 -63 -103 -32
c-4 4 -197 261 -199 264c-6 10 -8 20 -8 32c0 32 24 57 51 62z" />
  </g>

</svg>
