<?xml version="1.0" standalone="no"?>
<!DOCTYPE svg PUBLIC "-//W3C//DTD SVG 1.1//EN" "http://www.w3.org/Graphics/SVG/1.1/DTD/svg11.dtd" >
<svg xmlns="http://www.w3.org/2000/svg" xmlns:xlink="http://www.w3.org/1999/xlink" version="1.1" viewBox="-10 0 1010 1000">
  <g transform="matrix(1 0 0 -1 0 800)">
   <path fill="currentColor"
d="M308 467c-14 14 -26 25 -26 52c0 10 1 16 4 24c5 11 2 8 92 98c53 53 84 84 86 85c15 9 29 15 52 9c8 -2 15 -5 21 -10c3 -2 41 -39 87 -85c88 -88 85 -86 90 -97c3 -8 4 -14 4 -24c0 -27 -12 -38 -26 -52l53 -64c29 -35 55 -66 57 -69c7 -10 10 -18 10 -34
c0 -37 -24 -53 -52 -62c39 -35 91 -76 100 -85c30 -35 10 -90 -32 -101l-6 -2h-166v-67c0 -67 0 -68 -1 -73c-7 -25 -25 -43 -52 -47h-100c-88 0 -102 -1 -107 0c-24 4 -45 24 -51 47c-1 5 -1 6 -1 73v67h-81c-69 0 -81 0 -86 1c-25 4 -44 23 -50 47c-7 23 2 42 13 55
c9 9 20 16 99 85c0 0 -2 1 -4 1s-6 2 -9 3c-23 10 -46 36 -37 72c2 7 5 14 9 20c2 3 28 34 57 69zM500 586l-52 -52c13 -10 26 -35 19 -60c-2 -7 -4 -13 -7 -19l-97 -118c-2 -2 34 -8 47 -16c16 -10 27 -27 27 -52c0 -19 -6 -32 -16 -42c-1 -2 -15 -14 -31 -27l-30 -25h280
l-30 25c-16 13 -30 25 -31 27c-10 10 -16 23 -16 42c0 24 9 37 23 48c19 15 53 18 51 20l-97 118c-5 11 -12 30 -7 47c3 13 9 25 19 32zM469 50v-62h62v62h-62z" />
  </g>

</svg>
