<?xml version="1.0" standalone="no"?>
<!DOCTYPE svg PUBLIC "-//W3C//DTD SVG 1.1//EN" "http://www.w3.org/Graphics/SVG/1.1/DTD/svg11.dtd" >
<svg xmlns="http://www.w3.org/2000/svg" xmlns:xlink="http://www.w3.org/1999/xlink" version="1.1" viewBox="-10 0 1010 1000">
  <g transform="matrix(1 0 0 -1 0 800)">
   <path fill="currentColor"
d="M308 467c-13.6519 13.6519 -26 25.385 -26 52c0 10 1 16 4 24c5 11 2 8 92 98c53 53 84 84 86 85c14.7495 9.21845 29.2658 14.6836 52 9c8 -2 15 -5 21 -10c3 -2 41 -39 87 -85c88 -88 85 -86 90 -97c3 -8 4 -14 4 -24c0 -26.6199 -12.345 -38.345 -26 -52l53 -64
c29 -35 55 -66 57 -69c6.63016 -9.94524 10 -17.7625 10 -34c0 -37.4375 -24.3761 -52.792 -52 -62c38.9103 -35.2044 90.7759 -75.7759 100 -85c30.2935 -34.6211 9.57957 -90.1532 -32 -101l-6 -2h-166v-67c0 -67 0 -68 -1 -73
c-6.52968 -25.0304 -25.2128 -43.1733 -52 -47h-100c-88 0 -102 -1 -107 0c-24.412 3.7557 -45.1722 23.6889 -51 47c-1 5 -1 6 -1 73v67h-81c-69 0 -81 0 -86 1c-24.9742 3.84219 -44.0413 23.1651 -50 47c-6.61817 23.1636 1.64804 42.0263 13 55
c9.17369 9.17369 20.3396 16.3814 99 85c0 0 -2 1 -4 1s-6 2 -9 3c-23.1298 9.73887 -45.975 36.1001 -37 72c2 7 5 14 9 20c2 3 28 34 57 69zM500 586l-52 -52c13.1723 -9.87921 26.216 -34.7441 19 -60c-2 -7 -4 -13 -7 -19c-0.00159307 -0.0023896 -97 -117.612 -97 -118
c-1.67789 -1.67789 34.1058 -7.9411 47 -16c15.6255 -10.417 27 -27.1596 27 -52c0 -18.9419 -5.90336 -31.9034 -16 -42c-1 -2 -15 -14 -31 -27l-30 -25h280l-30 25c-16 13 -30 25 -31 27c-10.0597 10.0597 -16 23.0984 -16 42c0 23.5972 9.49702 37.1976 23 48
c18.7226 14.5621 53.4574 17.5426 51 20c0 0.400714 -97 118 -97 118c-5.40812 10.8162 -11.9708 29.6021 -7 47c3.42237 12.5487 9.34052 24.7554 19 32zM469 19v-31h62v62h-62v-31z" />
  </g>

</svg>
