<?xml version="1.0" standalone="no"?>
<!DOCTYPE svg PUBLIC "-//W3C//DTD SVG 1.1//EN" "http://www.w3.org/Graphics/SVG/1.1/DTD/svg11.dtd" >
<svg xmlns="http://www.w3.org/2000/svg" xmlns:xlink="http://www.w3.org/1999/xlink" version="1.1" viewBox="-10 0 1010 1000">
  <g transform="matrix(1 0 0 -1 0 800)">
   <path fill="currentColor"
d="M359 737c6 1 39 0 47 -1c93 -10 165 -56 212 -115c42 -53 66 -117 69 -185l1 -11h61c54 0 62 0 67 -1c63 -11 110 -57 120 -121c1 -7 1 -15 1 -159s0 -153 -1 -160c-10 -64 -55 -108 -120 -120c-7 -1 -16 -1 -160 -1s-152 0 -159 1c-9 1 -19 4 -27 7c-7 3 -23 9 -30 14
c-27 19 -53 50 -61 87c-3 15 -4 13 -4 79v61l-11 1c-91 4 -175 45 -232 116c-77 95 -91 225 -37 335c48 97 146 163 253 172c5 0 9 1 11 1zM562 429c0 107 -93 193 -204 183c-80 -7 -147 -66 -165 -144c-20 -85 21 -172 100 -211c27 -13 51 -17 82 -20v31c0 27 1 30 2 37
c12 63 57 108 119 118c5 1 13 2 37 2h29v4zM512 299c-7 -2 -9 -7 -12 -14c4 4 16 15 14 15c0 0 -1 -1 -2 -1zM657 290c-30 -63 -81 -113 -143 -145l-14 -7v-138c3 -5 7 -9 12 -12h144c139 0 144 0 146 1c4 3 8 6 10 11v288c-3 5 -7 9 -12 12h-138z" />
  </g>

</svg>
