<?xml version="1.0" standalone="no"?>
<!DOCTYPE svg PUBLIC "-//W3C//DTD SVG 1.1//EN" "http://www.w3.org/Graphics/SVG/1.1/DTD/svg11.dtd" >
<svg xmlns="http://www.w3.org/2000/svg" xmlns:xlink="http://www.w3.org/1999/xlink" version="1.1" viewBox="-10 0 1010 1000">
  <g transform="matrix(1 0 0 -1 0 800)">
   <path fill="currentColor"
d="M359 737c6 1 39 0 47 -1c92.7923 -9.51716 164.585 -56.1403 212 -115c42 -53 66 -117 69 -185l1 -11h61c54 0 62 0 67 -1c62.7744 -11.4135 109.751 -57.4588 120 -121c1 -7 1 -15 1 -159s0 -153 -1 -160c-9.95149 -63.6896 -54.9294 -107.799 -120 -120
c-7 -1 -16 -1 -160 -1s-152 0 -159 1c-9 1 -19 4 -27 7c-7 3 -23 9 -30 14c-27.2549 18.7377 -52.9707 49.53 -61 87c-3 15 -4 13 -4 79v61l-11 1c-91 4 -175 45 -232 116c-77 95 -91 225 -37 335c48 97 146 163 253 172c5 0 9 1 11 1zM562 429
c0 106.998 -92.8585 192.664 -204 183c-80 -7 -147 -66 -165 -144c-20 -85 21 -172 100 -211c26.8122 -12.8232 51.0844 -16.5649 82 -20v31c0 27 1 30 2 37c11.7816 62.8353 57.3435 108.366 119 118c5 1 13 2 37 2h29v4zM512 299
c-7.3375 -2.44583 -8.73055 -7.46111 -12 -14c3.71335 3.71335 15.6023 15 14 15c0 0 -1 -1 -2 -1zM657 290c-29.8926 -62.7744 -81.3288 -112.696 -143 -145l-14 -7v-138c3.23047 -4.84571 6.57538 -9.28769 12 -12h144c139 0 144 0 146 1
c4.19644 2.79763 8.24379 5.73138 10 11v288c-2.71606 5.43212 -7.12083 8.74722 -12 12h-138l-5 -10z" />
  </g>

</svg>
