<?xml version="1.0" standalone="no"?>
<!DOCTYPE svg PUBLIC "-//W3C//DTD SVG 1.1//EN" "http://www.w3.org/Graphics/SVG/1.1/DTD/svg11.dtd" >
<svg xmlns="http://www.w3.org/2000/svg" xmlns:xlink="http://www.w3.org/1999/xlink" version="1.1" viewBox="-10 0 1010 1000">
  <g transform="matrix(1 0 0 -1 0 800)">
   <path fill="currentColor"
d="M476 737c102 6 204 -25 285 -86c48 -36 89 -81 119 -133c66 -114 75 -255 27 -378c-33.1228 -83.9112 -89.8359 -153.592 -160 -201c-86 -58 -188 -84 -291 -74c-89 9 -174 45 -242 104c-102.104 83.5396 -162.888 233.809 -149 375c9 92 47 179 109 248
c72.3508 80.3898 185.342 138.987 302 145zM430 605c-119 -27 -212 -123 -236 -243c-17 -87 3 -177 55 -248c38 -52 92 -91 153 -111c10 -3 26 -8 33 -9h3v306c0 168 -1 306 -1 306s-3 0 -7 -1zM562 300v-306h3c7 1 23 6 33 9c90.3831 30.552 169.637 103.125 199 201
c25 79 19 165 -19 238s-102 129 -180 155c-10 3 -26 8 -33 9h-3v-306z" />
  </g>

</svg>
