<?xml version="1.0" standalone="no"?>
<!DOCTYPE svg PUBLIC "-//W3C//DTD SVG 1.1//EN" "http://www.w3.org/Graphics/SVG/1.1/DTD/svg11.dtd" >
<svg xmlns="http://www.w3.org/2000/svg" xmlns:xlink="http://www.w3.org/1999/xlink" version="1.1" viewBox="-10 0 1010 1000">
  <g transform="matrix(1 0 0 -1 0 800)">
   <path fill="currentColor"
d="M488 737c5 1 30 0 36 -1c82.9246 -11.0566 150.927 -72.7249 162 -165c5.04787 -45.4308 -4.70142 -84.169 -22 -113c-23 -41 -60 -71 -105 -86c-59 -20 -125 -8 -174 30c-40 31 -64 75 -71 127c-1 8 -1 34 0 42c11.7053 90.7164 80.7726 155.641 165 165c4 0 8 1 9 1z
M492 612c-31.6234 -5.7497 -54 -27.5216 -54 -62c0 -40.2982 33.4612 -71.1347 78 -60c29.0037 7.91009 54.0591 35.7636 44 76c-7 27 -30 45 -58 46h-10zM238 237c5 1 30 0 36 -1c82.9246 -11.0566 150.927 -72.7249 162 -165c3.79201 -34.1281 -2.44467 -64.0451 -11 -88
c-16 -42 -47 -78 -88 -99c-64 -34 -145 -27 -202 18c-40 31 -64 75 -71 127c-1 8 -1 34 0 42c11.7053 90.7164 80.7726 155.641 165 165c4 0 8 1 9 1zM738 237c5 1 30 0 36 -1c82.9246 -11.0566 150.927 -72.7249 162 -165c3.79201 -34.1281 -2.44467 -64.0451 -11 -88
c-16 -42 -47 -78 -88 -99c-64 -34 -145 -27 -202 18c-40 31 -64 75 -71 127c-1 8 -1 34 0 42c11.7053 90.7164 80.7726 155.641 165 165c4 0 8 1 9 1zM312 50c0 37.2901 -27.9945 60.8569 -60 62h-10c-31.6234 -5.7497 -54 -27.5216 -54 -62
c0 -40.2982 33.4612 -71.1347 78 -60c25.3005 6.90015 46 28.1169 46 60zM742 112c-31.6165 -5.74846 -54 -27.5213 -54 -62c0 -40.2982 33.4612 -71.1347 78 -60c25.3005 6.90015 46 28.1169 46 60c0 37.2901 -27.9945 60.8569 -60 62h-10z" />
  </g>

</svg>
