<?xml version="1.0" standalone="no"?>
<!DOCTYPE svg PUBLIC "-//W3C//DTD SVG 1.1//EN" "http://www.w3.org/Graphics/SVG/1.1/DTD/svg11.dtd" >
<svg xmlns="http://www.w3.org/2000/svg" xmlns:xlink="http://www.w3.org/1999/xlink" version="1.1" viewBox="-10 0 1010 1000">
  <g transform="matrix(1 0 0 -1 0 800)">
   <path fill="currentColor"
d="M476 737c102 6 204 -25 285 -86c48 -36 89 -81 119 -133c66 -114 75 -255 27 -378c-33.1228 -83.9112 -89.8359 -153.592 -160 -201c-86 -58 -188 -84 -291 -74c-89 9 -174 45 -242 104c-102.104 83.5396 -162.888 233.809 -149 375c9 92 47 179 109 248
c72.3508 80.3898 185.342 138.987 302 145zM483 612c-141.989 -9.4659 -242.349 -101.046 -280 -214c-3 -10 -8 -26 -9 -33v-3h612v3c-1 7 -6 23 -9 33c-31 92 -103 166 -195 198c-36.5038 13.1414 -72.9197 16 -119 16zM194 235c1 -7 6 -23 9 -33
c41.8656 -127.207 180.757 -244.697 359 -208c106.176 20.9884 202.306 101.02 235 210c2 7 8 26 9 31v3h-612v-3z" />
  </g>

</svg>
