<?xml version="1.0" standalone="no"?>
<!DOCTYPE svg PUBLIC "-//W3C//DTD SVG 1.1//EN" "http://www.w3.org/Graphics/SVG/1.1/DTD/svg11.dtd" >
<svg xmlns="http://www.w3.org/2000/svg" xmlns:xlink="http://www.w3.org/1999/xlink" version="1.1" viewBox="-10 0 1010 1000">
  <g transform="matrix(1 0 0 -1 0 800)">
   <path fill="currentColor"
d="M439 688c8 32 36 57 77 47c23 -6 40 -24 45 -47c1 -5 1 -9 1 -76s0 -70 -1 -75c-6 -28 -30 -48 -58 -49c-30 -2 -57 19 -64 49c-1 5 -1 8 -1 75s0 71 1 76zM135 579c-31 48 13 107 68 94c8 -2 16 -6 22 -11c3 -2 34 -32 71 -69c71 -71 69 -70 74 -81c3 -8 5 -14 5 -24
c0 -53 -63 -82 -102 -49l-69 69c-57 57 -66 66 -69 71zM714 601c39 24 86 3 97 -37c5 -19 -2 -37 -9 -48c-3 -5 -9 -11 -38 -40c-19 -19 -36 -36 -39 -38c-37 -26 -88 -9 -98 35c-5 18 1 38 8 49c3 5 9 10 40 41c22 22 37 37 39 38zM114 362c4 1 17 0 75 0h71
c27 -5 44 -23 51 -48c10 -41 -20 -71 -51 -76h-70c-60 0 -70 -1 -75 0c-38 6 -70 54 -42 96c9 14 24 25 41 28zM438 290c-7 46 28 78 72 72c8 -1 386 -127 393 -131c20 -10 41 -36 33 -70c-5 -18 -17 -34 -33 -42c-3 -2 -32 -11 -85 -29l-81 -27l-26 -79
c-15 -44 -28 -82 -29 -84c-13 -33 -57 -49 -93 -26c-8 6 -17 16 -21 26c-2 4 -130 389 -130 390zM612 162c7 -21 13 -38 13 -38s1 1 2 3c9 26 22 39 49 48c0 0 -17 6 -38 13l-39 13zM277 164c58 36 125 -30 88 -86c-3 -5 -9 -11 -38 -40c-19 -19 -37 -36 -40 -38
c-37 -26 -88 -7 -98 36c-5 19 2 37 9 48c3 5 8 11 39 42c22 22 38 37 40 38z" />
  </g>

</svg>
