<?xml version="1.0" standalone="no"?>
<!DOCTYPE svg PUBLIC "-//W3C//DTD SVG 1.1//EN" "http://www.w3.org/Graphics/SVG/1.1/DTD/svg11.dtd" >
<svg xmlns="http://www.w3.org/2000/svg" xmlns:xlink="http://www.w3.org/1999/xlink" version="1.1" viewBox="-10 0 1010 1000">
  <g transform="matrix(1 0 0 -1 0 800)">
   <path fill="currentColor"
d="M439 688c7.62288 31.762 36.0921 57.227 77 47c23 -6 40 -24 45 -47c1 -5 1 -9 1 -76s0 -70 -1 -75c-6 -28 -30 -48 -58 -49c-30 -2 -57 19 -64 49c-1 5 -1 8 -1 75s0 71 1 76zM127 627c8.85273 30.9846 35.3889 56.1528 76 46c8 -2 16 -6 22 -11c3 -2 34 -32 71 -69
c71 -71 69 -70 74 -81c3 -8 5 -14 5 -24c0 -52.6847 -63.3065 -82.1659 -102 -49l-69 69c-57 57 -66 66 -69 71c-7.17594 10.7639 -12.5875 29.6501 -8 48zM714 601c38.7848 24.2405 86.4405 3.47813 97 -37c4.78938 -19.1575 -1.56921 -36.8538 -9 -48
c-3 -5 -9 -11 -38 -40c-19 -19 -36 -36 -39 -38c-37.0207 -25.9145 -87.6407 -9.39687 -98 35c-4.56953 18.2781 0.784753 38.1771 8 49c3 5 9 10 40 41c22 22 37 37 39 38zM114 362c4 1 17 0 75 0h71c27.0471 -4.50784 44.4776 -22.9976 51 -48
c10.3258 -41.3033 -19.9215 -70.8203 -51 -76h-70c-60 0 -70 -1 -75 0c-37.9737 5.84211 -70.2495 53.6258 -42 96c9 14 24 25 41 28zM439 315c7.23745 28.9498 33.1513 52.407 71 47c8 -1 386 -127 393 -131c20.1904 -10.0952 41.4215 -36.3141 33 -70
c-5 -18 -17 -34 -33 -42c-3 -2 -32 -11 -85 -29l-81 -27l-26 -79c-15 -44 -28 -82 -29 -84c-13.4336 -32.6245 -56.737 -48.6644 -93 -26c-8 6 -17 16 -21 26c-2.03008 4.06016 -129.717 388.867 -130 390c-1 7 -1 18 1 25zM612 162c7 -21 13 -38 13 -38s1 1 2 3
c8.68315 26.0494 22.2928 39.0976 49 48c0 0 -17 6 -38 13l-39 13zM302 174c-9 -2 -17 -5 -25 -10c-2 -1 -18 -16 -40 -38c-31 -31 -36 -37 -39 -42c-7.4516 -11.1774 -13.8021 -28.7915 -9 -48c9.97182 -42.7364 61.1588 -61.7889 98 -36c3 2 21 19 40 38
c29 29 35 35 38 40c30.4873 45.731 -9.66476 103.619 -63 96z" />
  </g>

</svg>
