<?xml version="1.0" standalone="no"?>
<!DOCTYPE svg PUBLIC "-//W3C//DTD SVG 1.1//EN" "http://www.w3.org/Graphics/SVG/1.1/DTD/svg11.dtd" >
<svg xmlns="http://www.w3.org/2000/svg" xmlns:xlink="http://www.w3.org/1999/xlink" version="1.1" viewBox="-10 0 1010 1000">
  <g transform="matrix(1 0 0 -1 0 800)">
   <path fill="currentColor"
d="M486 737h12c79.3864 1.5566 166.32 -34.9497 200 -87l4 -6h60l60 -1c26.8257 -4.47095 46.5796 -23.0662 52 -48c1 -5 1 -16 1 -342s0 -336 -1 -341c-5.43619 -25.0065 -25.102 -44.517 -52 -49h-320c-284 0 -320 -1 -325 0c-24.6383 3.79051 -45.108 25.432 -51 49
c-1 5 -1 15 -1 341s0 337 1 342c5 22 21 39 42 46c9 3 11 3 73 3h57c13.4169 16.7711 26.1524 33.9434 47 49c30 20 72 36 116 42c6 1 16 1 25 2zM407 581c15.8396 -15.8396 52.9001 -31 93 -31c37.4202 0 81.9962 14.4943 93 31c-9.41734 14.126 -39.9962 25.8615 -70 30
c-8 1 -29 2 -34 1c-1 0 -5 -1 -8 -1c-32.3414 -3.46515 -59.6681 -15.6681 -74 -30zM250 253v-265h500v531h-48c-35.2351 -61.6614 -139.786 -102.409 -230 -92c-72.9388 7.59779 -138.575 37.1167 -170 86l-4 6h-48v-266z" />
  </g>

</svg>
