<?xml version="1.0" standalone="no"?>
<!DOCTYPE svg PUBLIC "-//W3C//DTD SVG 1.1//EN" "http://www.w3.org/Graphics/SVG/1.1/DTD/svg11.dtd" >
<svg xmlns="http://www.w3.org/2000/svg" xmlns:xlink="http://www.w3.org/1999/xlink" version="1.1" viewBox="-10 0 1010 1000">
  <g transform="matrix(1 0 0 -1 0 800)">
   <path fill="currentColor"
d="M486 737h12c79 2 166 -35 200 -87l4 -6h60l60 -1c27 -4 47 -23 52 -48c1 -5 1 -16 1 -342s0 -336 -1 -341c-5 -25 -25 -45 -52 -49h-320c-284 0 -320 -1 -325 0c-25 4 -45 25 -51 49c-1 5 -1 15 -1 341s0 337 1 342c5 22 21 39 42 46c9 3 11 3 73 3h57c13 17 26 34 47 49
c30 20 72 36 116 42c6 1 16 1 25 2zM407 581c16 -16 53 -31 93 -31c37 0 82 14 93 31c-9 14 -40 26 -70 30c-8 1 -29 2 -34 1c-1 0 -5 -1 -8 -1c-32 -3 -60 -16 -74 -30zM250 519v-531h500v531h-48c-35 -62 -140 -102 -230 -92c-73 8 -139 37 -170 86l-4 6h-48z" />
  </g>

</svg>
