<?xml version="1.0" standalone="no"?>
<!DOCTYPE svg PUBLIC "-//W3C//DTD SVG 1.1//EN" "http://www.w3.org/Graphics/SVG/1.1/DTD/svg11.dtd" >
<svg xmlns="http://www.w3.org/2000/svg" xmlns:xlink="http://www.w3.org/1999/xlink" version="1.1" viewBox="-10 0 1021 1000">
  <g transform="matrix(1 0 0 -1 0 800)">
   <path fill="currentColor"
d="M34 261c12 114 98 200 207 222h4c9 23 24 44 40 65c8 9 26 29 36 37c43 35 93 58 149 67c9 1 25 4 33 4c67 3 134 -14 189 -50c64 -42 115 -107 124 -199v-4c25 -6 49 -10 72 -22c60 -31 100 -89 110 -155c13 -90 -34 -178 -116 -218c-20 -10 -39 -15 -65 -19
c-6 -1 -32 -1 -270 -1c-268 0 -272 0 -290 2c-105 13 -192 89 -217 189c-5 20 -7 37 -7 59c0 9 1 19 1 23zM504 531c-73 -7 -134 -51 -151 -118c-5 -26 -25 -43 -49 -49c-2 0 -7 -1 -14 -1c-74 -4 -124 -52 -131 -114c-4 -43 18 -87 49 -109c19 -14 41 -22 65 -26
c5 -1 57 -1 268 -1c252 0 261 0 266 1c34 8 59 32 67 66c8 53 -25 88 -66 98c-5 1 -10 1 -38 1c-30 0 -31 1 -36 2c-26 7 -55 36 -45 76c2 10 3 15 3 26c0 21 -5 39 -14 58c-23 48 -72 81 -132 89c-8 1 -34 2 -42 1z" />
  </g>

</svg>
