<?xml version="1.0" standalone="no"?>
<!DOCTYPE svg PUBLIC "-//W3C//DTD SVG 1.1//EN" "http://www.w3.org/Graphics/SVG/1.1/DTD/svg11.dtd" >
<svg xmlns="http://www.w3.org/2000/svg" xmlns:xlink="http://www.w3.org/1999/xlink" version="1.1" viewBox="-10 0 1021 1000">
  <g transform="matrix(1 0 0 -1 0 800)">
   <path fill="currentColor"
d="M34 261c11.9029 114.268 98.0812 200.216 207 222h4c9.14767 22.8692 23.7023 44.3563 40 65c8 9 26 29 36 37c43 35 93 58 149 67c9 1 25 4 33 4c67 3 134 -14 189 -50c63.5997 -42.3998 114.814 -107.137 124 -199v-4c24.9685 -5.54855 49.416 -10.1137 72 -22
c60 -31 100 -89 110 -155c13 -90 -34 -178 -116 -218c-20 -10 -39 -15 -65 -19c-6 -1 -32 -1 -270 -1c-268 0 -272 0 -290 2c-105 13 -192 89 -217 189c-5 20 -7 37 -7 59c0 9 1 19 1 23zM504 531c-72.9747 -6.63407 -134.234 -50.9341 -151 -118
c-5.23832 -26.1916 -24.5677 -42.8919 -49 -49c-2 0 -7 -1 -14 -1c-73.8828 -3.69414 -124.289 -52.2556 -131 -114c-4.27442 -42.7442 18.0574 -86.8981 49 -109c19 -14 41 -22 65 -26c5 -1 57 -1 268 -1c252 0 261 0 266 1c33.9114 7.53587 59.1119 32.4758 67 66
c7.59561 53.1693 -24.5575 88.2488 -66 98c-5 1 -10 1 -38 1c-30 0 -31 1 -36 2c-26.4118 7.20321 -55.0217 35.9132 -45 76c2 10 3 15 3 26c0 21 -5 39 -14 58c-23 48 -72 81 -132 89c-8 1 -34 2 -42 1z" />
  </g>

</svg>
