<svg width="16" height="16" viewBox="0 0 16 16" fill="none" xmlns="http://www.w3.org/2000/svg">
<path d="M2.44892 11.1213C3.03711 11.6839 3.83485 12 4.66667 12H12.6667C13.2855 12 13.879 11.7542 14.3166 11.3166C14.7542 10.879 15 10.2855 15 9.66666C15 9.04782 14.7542 8.45433 14.3166 8.01675C13.879 7.57916 13.2855 7.33333 12.6667 7.33333H12C12.0973 6.89997 12.0988 6.4536 12.0044 6.01973C11.91 5.58585 11.7215 5.17295 11.4498 4.80461C11.1781 4.43628 10.8285 4.11971 10.4209 3.87298C10.0132 3.62626 9.55559 3.45421 9.07408 3.36666C8.59256 3.27911 8.0966 3.27778 7.61452 3.36274C7.13243 3.44769 6.67366 3.61728 6.26439 3.86181C5.43784 4.35565 4.86312 5.12478 4.66667 6C3.83485 6 3.03711 6.31607 2.44892 6.87868C1.86074 7.44128 1.5303 8.20435 1.5303 9C1.5303 9.79564 1.86074 10.5587 2.44892 11.1213Z" stroke="#24282B" stroke-width="2" stroke-linecap="round" stroke-linejoin="round"/>
</svg>
