<?xml version="1.0" standalone="no"?>
<!DOCTYPE svg PUBLIC "-//W3C//DTD SVG 1.1//EN" "http://www.w3.org/Graphics/SVG/1.1/DTD/svg11.dtd" >
<svg xmlns="http://www.w3.org/2000/svg" xmlns:xlink="http://www.w3.org/1999/xlink" version="1.1" viewBox="-10 0 1010 1000">
  <g transform="matrix(1 0 0 -1 0 800)">
   <path fill="currentColor"
d="M502 691c8 29 37 54 76 44c23 -6 47 -28 47 -57v-8l-63 -379c-35 -208 -64 -380 -64 -382c-8 -33 -49 -58 -88 -40c-21 10 -34 30 -35 53v8l63 379c35 208 64 380 64 382zM214 476c39 24 86 3 97 -37c5 -19 -2 -37 -9 -48c-3 -5 -10 -12 -46 -48l-43 -43l43 -43
c46 -46 48 -47 52 -58c3 -8 4 -14 4 -24c0 -33 -21 -53 -46 -60c-22 -5 -42 0 -55 11l-69 69c-71 71 -70 70 -75 81c-3 8 -4 14 -4 24s1 16 4 24c5 11 4 10 77 83c42 42 68 68 70 69zM688 425c0 51.7466 59.5914 81.5269 99 50c3 -2 34 -33 71 -70c71 -71 70 -70 75 -81
c3 -8 4 -14 4 -24s-1 -16 -4 -24c-5 -11 -4 -10 -75 -81c-37 -37 -68 -68 -71 -70c-40 -28 -99 -4 -99 50c0 10 1 16 4 24c4 11 6 12 52 58l43 43l-43 43c-46 46 -48 47 -52 58c-3 8 -4 14 -4 24z" />
  </g>

</svg>
