<?xml version="1.0" standalone="no"?>
<!DOCTYPE svg PUBLIC "-//W3C//DTD SVG 1.1//EN" "http://www.w3.org/Graphics/SVG/1.1/DTD/svg11.dtd" >
<svg xmlns="http://www.w3.org/2000/svg" xmlns:xlink="http://www.w3.org/1999/xlink" version="1.1" viewBox="-10 0 1010 1000">
  <g transform="matrix(1 0 0 -1 0 800)">
   <path fill="currentColor"
d="M502 691c7.63689 29.2747 37.2805 53.6799 76 44c23.4526 -6.39618 47 -27.8689 47 -57v-8l-63 -379c-35 -208 -64 -380 -64 -382c-7.50193 -32.5084 -49.347 -58.4062 -88 -40c-21 10 -34 30 -35 53v8l63 379c35 208 64 380 64 382zM214 476
c38.7848 24.2405 86.4405 3.47813 97 -37c4.78938 -19.1575 -1.56921 -36.8538 -9 -48c-3 -5 -10 -12 -46 -48l-43 -43l43 -43c46 -46 48 -47 52 -58c3 -8 4 -14 4 -24c0 -32.752 -20.9969 -53.181 -46 -60c-21.7956 -5.4489 -42.3682 0.172768 -55 11l-69 69
c-71 71 -70 70 -75 81c-3 8 -4 14 -4 24s1 16 4 24c5 11 4 10 77 83c42 42 68 68 70 69zM739 487c-27.2531 -4.80938 -51 -28.3986 -51 -62c0 -10 1 -16 4 -24c4 -11 6 -12 52 -58l43 -43l-43 -43c-46 -46 -48 -47 -52 -58c-3 -8 -4 -14 -4 -24
c0 -54.3158 59.2577 -77.8196 99 -50c3 2 34 33 71 70c71 71 70 70 75 81c3 8 4 14 4 24s-1 16 -4 24c-5 11 -4 10 -75 81c-37 37 -68 68 -71 70c-10.1158 8.42987 -30.1729 14.5467 -48 12z" />
  </g>

</svg>
