<?xml version="1.0" standalone="no"?>
<!DOCTYPE svg PUBLIC "-//W3C//DTD SVG 1.1//EN" "http://www.w3.org/Graphics/SVG/1.1/DTD/svg11.dtd" >
<svg xmlns="http://www.w3.org/2000/svg" xmlns:xlink="http://www.w3.org/1999/xlink" version="1.1" viewBox="-10 0 1010 1000">
  <g transform="matrix(1 0 0 -1 0 800)">
   <path fill="currentColor"
d="M127 42c0 5.62566 -4 89.1922 -4 95l-1 7l-34 37c-19 20 -36 38 -38 41c-17.3772 21.3873 -27 42.3608 -27 78c0 35.8145 10.2543 58.5242 28 79c2 2 19 21 38 41l34 36l1 48c1 26 3 51 3 54c3.78203 56.7304 45.8899 105.752 106 115c4 1 23 2 58 3l53 1l36 34
c20 19 39 36 41 38c17 14 40 24 63 27c2 0 10 1 18 1c35.2924 0 59.6099 -13.1587 80 -31c4 -3 22 -20 40 -37l33 -31h49c53 0 56 0 70 -4c49 -12 87 -53 94 -103c1 -4 3 -30 5 -60l4 -54l34 -37c19 -20 37 -39 39 -42c17.3772 -21.3873 27 -42.3608 27 -78
c0 -35.8145 -10.2543 -58.5242 -28 -79c-2 -2 -19 -21 -38 -41l-34 -36l-1 -47c-1 -26 -3 -51 -3 -54c-4 -62 -53 -112 -115 -117c-8.26677 0 -83.2764 -3 -93 -3l-9 -1l-36 -33c-20 -18 -38 -35 -40 -37c-20.6185 -17.8693 -44.016 -29 -80 -29
c-35.9074 0 -56.4948 9.52704 -78 27c-4 3 -25 22 -66 61l-12 12l-53 1c-34 1 -54 2 -58 3c-58 9 -102 56 -106 115zM500 652c-1.7264 -1.58253 -74.2798 -68.8532 -76 -70c-18 -16 -42 -26 -67 -29c-1.56775 0 -104.111 -3.92442 -106 -4
c-0.355318 -0.0142127 -4 -104.617 -4 -105c-2 -23 -12 -48 -27 -66c-0.391201 -0.391201 -71.514 -77.4862 -72 -78c-0.212176 -0.224301 73 -79 73 -79c14 -18 24 -42 26 -65c0 -2.10884 3.90717 -102.726 4 -105c0.106445 -2.6079 95.9435 0.0161515 124 -8
c17 -4 34 -12 47 -23c0.391201 -0.391201 77.4862 -71.514 78 -72c1.39499 -1.31958 66.955 64.6367 87 78c18 12 39 19 61 21c1.20303 0 99.7553 3.94814 101 4c0.302515 0.0126048 4 105.854 4 106c2 23 13 47 27 65c0.391201 0.391201 71.514 77.4862 72 78
c0 0 -16 17 -35 37s-35 40 -37 42c-14 17 -24 39 -27 61c-1 6 -9 106 -9 111v2h-46c-49 0 -55 0 -68 3c-20 4 -40 14 -55 27c-0.436118 0.290746 -75 69 -75 69zM488 487c5 1 30 0 36 -1c82.9246 -11.0566 150.927 -72.7249 162 -165
c5.04787 -45.4308 -4.70142 -84.169 -22 -113c-23 -41 -60 -71 -105 -86c-59 -20 -125 -8 -174 30c-40 31 -64 75 -71 127c-1 8 -1 34 0 42c11.7053 90.7164 80.7726 155.641 165 165c4 0 8 1 9 1zM492 362c-31.6165 -5.74846 -54 -27.5213 -54 -62
c0 -40.2982 33.4612 -71.1347 78 -60c29.0037 7.91009 54.0591 35.7636 44 76c-7 27 -30 45 -58 46h-10z" />
  </g>

</svg>
