<?xml version="1.0" standalone="no"?>
<!DOCTYPE svg PUBLIC "-//W3C//DTD SVG 1.1//EN" "http://www.w3.org/Graphics/SVG/1.1/DTD/svg11.dtd" >
<svg xmlns="http://www.w3.org/2000/svg" xmlns:xlink="http://www.w3.org/1999/xlink" version="1.1" viewBox="-10 0 1010 1000">
  <g transform="matrix(1 0 0 -1 0 800)">
   <path fill="currentColor"
d="M127 42c0 6 -4 89 -4 95l-1 7l-34 37c-19 20 -36 38 -38 41c-17 21 -27 42 -27 78s10 59 28 79c2 2 19 21 38 41l34 36l1 48c1 26 3 51 3 54c4 57 46 106 106 115c4 1 23 2 58 3l53 1l36 34c20 19 39 36 41 38c17 14 40 24 63 27c2 0 10 1 18 1c35 0 60 -13 80 -31
c4 -3 22 -20 40 -37l33 -31h49c53 0 56 0 70 -4c49 -12 87 -53 94 -103c1 -4 3 -30 5 -60l4 -54l34 -37c19 -20 37 -39 39 -42c17 -21 27 -42 27 -78s-10 -59 -28 -79c-2 -2 -19 -21 -38 -41l-34 -36l-1 -47c-1 -26 -3 -51 -3 -54c-4 -62 -53 -112 -115 -117
c-8 0 -83 -3 -93 -3l-9 -1l-36 -33c-20 -18 -38 -35 -40 -37c-21 -18 -44 -29 -80 -29s-56 10 -78 27c-4 3 -25 22 -66 61l-12 12l-53 1c-34 1 -54 2 -58 3c-58 9 -102 56 -106 115zM500 652c-2 -2 -74 -69 -76 -70c-18 -16 -42 -26 -67 -29c-2 0 -104 -4 -106 -4l-4 -105
c-2 -23 -12 -48 -27 -66c0 0 -72 -77 -72 -78l73 -79c14 -18 24 -42 26 -65c0 -2 4 -103 4 -105c0 -3 96 0 124 -8c17 -4 34 -12 47 -23c0 0 77 -72 78 -72c1 -1 67 65 87 78c18 12 39 19 61 21c1 0 100 4 101 4l4 106c2 23 13 47 27 65c0 0 72 77 72 78c0 0 -16 17 -35 37
s-35 40 -37 42c-14 17 -24 39 -27 61c-1 6 -9 106 -9 111v2h-46c-49 0 -55 0 -68 3c-20 4 -40 14 -55 27zM488 487c5 1 30 0 36 -1c83 -11 151 -73 162 -165c5 -45 -5 -84 -22 -113c-23 -41 -60 -71 -105 -86c-59 -20 -125 -8 -174 30c-40 31 -64 75 -71 127
c-1 8 -1 34 0 42c12 91 81 156 165 165c4 0 8 1 9 1zM492 362c-32 -6 -54 -28 -54 -62c0 -40 33 -71 78 -60c29 8 54 36 44 76c-7 27 -30 45 -58 46h-10z" />
  </g>

</svg>
