<?xml version="1.0" standalone="no"?>
<!DOCTYPE svg PUBLIC "-//W3C//DTD SVG 1.1//EN" "http://www.w3.org/Graphics/SVG/1.1/DTD/svg11.dtd" >
<svg xmlns="http://www.w3.org/2000/svg" xmlns:xlink="http://www.w3.org/1999/xlink" version="1.1" viewBox="-10 0 1010 1000">
  <g transform="matrix(1 0 0 -1 0 800)">
   <path fill="currentColor"
d="M697 197c-11.2541 2.50092 -21.8159 7.86194 -30 14l-147 -146c-160 -160 -151 -151 -163 -156s-6 -5 -107 -5c-86 0 -91 1 -96 2c-24 5 -43 24 -48 48c-1 5 -2 10 -2 96s1 91 2 96c2 9 4 16 10 24c2 3 52 53 149 150l146 147c-9.62543 14.4382 -17.3107 29.6699 -15 47
c3.2875 28.4917 26.0856 56 60 56c17.0097 0 34.3096 -5.30957 43 -14c1.1204 -1.1204 113.652 110.652 119 116c16 12 33 20 53 23h14c25.086 0 43.3319 -7.60501 59 -19c14.151 -10.6133 77 -76 128 -127c14.5667 -17.2151 23 -36.7482 23 -66
c0 -32.4191 -10.3104 -52.0468 -28 -71c-3 -4 -30 -30 -59 -59l-53 -53c36.5826 -36.5826 4.38886 -104 -46 -104c-4 0 -10 1 -12 1zM683 561c-31.503 -31.503 -63.1643 -62.8276 -95 -94c26.8521 -25.8146 53.1929 -52.1405 79 -79c31.1479 32.1854 62.8071 63.8595 95 95
l-39 39c-21 21 -40 39 -40 39zM365 243l-136 -135v-79h79c89.742 90.5914 179.737 180.93 270 271l-78 78l-135 -135z" />
  </g>

</svg>
