<?xml version="1.0" standalone="no"?>
<!DOCTYPE svg PUBLIC "-//W3C//DTD SVG 1.1//EN" "http://www.w3.org/Graphics/SVG/1.1/DTD/svg11.dtd" >
<svg xmlns="http://www.w3.org/2000/svg" xmlns:xlink="http://www.w3.org/1999/xlink" version="1.1" viewBox="-10 0 1010 1000">
  <g transform="matrix(1 0 0 -1 0 800)">
   <path fill="currentColor"
d="M164 314c-15.646 21.9044 -28 49.4559 -28 86c0 40.0774 13.0714 67.2472 32 92c3 3 35 36 71 72c71 71 72 71 87 80c24.857 14.6218 53.4444 23.1728 91 19c26.5799 -3.32248 47.1308 -13.8785 69 -27c6.08239 15.206 14.522 34.1936 25 47c24 31 63 51 103 54h98
c106 0 98 1 116 -4c59.7009 -15.7108 103.159 -67.6673 109 -129v-270c0 -236 0 -262 -1 -268c-14.8898 -115.396 -103.826 -194.962 -211 -203c-12 -1 -520 -1 -530 0c-66.1505 6.01368 -113.157 54.0794 -128 109c-5 18 -4 12 -4 120c0 90 0 97 1 104
c9.22351 55.3411 46.5206 100.174 100 118zM812 597c-2.08653 6.94866 -8.0544 12.9123 -15 15h-88c-69 0 -88 1 -90 0c-1 0 -3 -2 -4 -2c-4.10415 -2.7361 -8.29905 -6.89716 -10 -12v-520c8.45859 -59.2101 67.4779 -102.381 129 -87c37 10 65 38 75 75c4 14 3 -2 3 276
v255zM408 537c-8.17091 4.08545 -15.3589 0.820561 -21 -2c-2 -1 -30 -30 -63 -63c-67 -68 -63 -62 -63 -72s-10 1 110 -119c59 -59 108 -107 108 -107v294l-34 34c-27 27 -35 34 -37 35zM188 3c2.08653 -6.94866 8.0544 -12.9123 15 -15h143l142 -1
c-69.0757 69.9243 -138.403 139.597 -208 209h-38c-21 0 -39 -1 -40 -1c-6.57381 -2.62952 -11.7049 -8.11476 -14 -15v-177zM701 154c-36.1614 -4.82152 -70.0707 -43.8485 -49 -89c26.0552 -56.4529 118 -43.8183 118 27c0 10 1 11 -1 16c-7 22 -23 38 -45 44
c-7 2 -17 3 -23 2z" />
  </g>

</svg>
