<?xml version="1.0" standalone="no"?>
<!DOCTYPE svg PUBLIC "-//W3C//DTD SVG 1.1//EN" "http://www.w3.org/Graphics/SVG/1.1/DTD/svg11.dtd" >
<svg xmlns="http://www.w3.org/2000/svg" xmlns:xlink="http://www.w3.org/1999/xlink" version="1.1" viewBox="-10 0 1010 1000">
  <g transform="matrix(1 0 0 -1 0 800)">
   <path fill="currentColor"
d="M697 197c-11 3 -22 8 -30 14l-147 -146c-160 -160 -151 -151 -163 -156s-6 -5 -107 -5c-86 0 -91 1 -96 2c-24 5 -43 24 -48 48c-1 5 -2 10 -2 96s1 91 2 96c2 9 4 16 10 24c2 3 52 53 149 150l146 147c-10 14 -17 30 -15 47c3 28 26 56 60 56c17 0 34 -5 43 -14
c1 -1 114 111 119 116c16 12 33 20 53 23h14c25 0 43 -8 59 -19c14 -11 77 -76 128 -127c15 -17 23 -37 23 -66c0 -32 -10 -52 -28 -71c-3 -4 -30 -30 -59 -59l-53 -53c37 -37 4 -104 -46 -104c-4 0 -10 1 -12 1zM683 561c-32 -32 -63 -63 -95 -94c27 -26 53 -52 79 -79
c31 32 63 64 95 95l-39 39c-21 21 -40 39 -40 39zM500 378c-90 -90 -180 -180 -271 -270v-79h79c90 91 180 181 270 271z" />
  </g>

</svg>
