<?xml version="1.0" standalone="no"?>
<!DOCTYPE svg PUBLIC "-//W3C//DTD SVG 1.1//EN" "http://www.w3.org/Graphics/SVG/1.1/DTD/svg11.dtd" >
<svg xmlns="http://www.w3.org/2000/svg" xmlns:xlink="http://www.w3.org/1999/xlink" version="1.1" viewBox="-10 0 1010 1000">
  <g transform="matrix(1 0 0 -1 0 800)">
   <path fill="currentColor"
d="M164 314c-16 22 -28 49 -28 86c0 40 13 67 32 92c3 3 35 36 71 72c71 71 72 71 87 80c25 15 53 23 91 19c27 -3 47 -14 69 -27c6 15 15 34 25 47c24 31 63 51 103 54h98c106 0 98 1 116 -4c60 -16 103 -68 109 -129v-270c0 -236 0 -262 -1 -268
c-15 -115 -104 -195 -211 -203c-12 -1 -520 -1 -530 0c-66 6 -113 54 -128 109c-5 18 -4 12 -4 120c0 90 0 97 1 104c9 55 47 100 100 118zM812 597c-2 7 -8 13 -15 15h-88c-69 0 -88 1 -90 0c-1 0 -3 -2 -4 -2c-4 -3 -8 -7 -10 -12v-520c8 -59 67 -102 129 -87
c37 10 65 38 75 75c4 14 3 -2 3 276v255zM408 537c-8 4 -15 1 -21 -2c-2 -1 -30 -30 -63 -63c-67 -68 -63 -62 -63 -72s-10 1 110 -119c59 -59 108 -107 108 -107v294l-34 34c-27 27 -35 34 -37 35zM188 3c2 -7 8 -13 15 -15h143l142 -1c-69 70 -138 140 -208 209h-38
c-21 0 -39 -1 -40 -1c-7 -3 -12 -8 -14 -15v-177zM701 154c6 1 16 0 23 -2c22 -6 38 -22 45 -44c2 -5 1 -6 1 -16c0 -71 -92 -83 -118 -27c-21 45 13 84 49 89z" />
  </g>

</svg>
