<?xml version="1.0" standalone="no"?>
<!DOCTYPE svg PUBLIC "-//W3C//DTD SVG 1.1//EN" "http://www.w3.org/Graphics/SVG/1.1/DTD/svg11.dtd" >
<svg xmlns="http://www.w3.org/2000/svg" xmlns:xlink="http://www.w3.org/1999/xlink" version="1.1" viewBox="-10 0 1010 1000">
  <g transform="matrix(1 0 0 -1 0 800)">
   <path fill="currentColor"
d="M146 602c7.21113 50.4779 42.7777 86.5797 92 93h193c46.5265 -8.01918 81.523 -41.1445 89 -90v-610c-7.11559 -47.3201 -40.751 -82.0823 -90 -90h-193c-50.9918 7.55235 -84.2117 43.1485 -91 93v604zM271 571v-542h125v542h-125zM698 445c-2 0 -6 -2 -9 -3
c-23 -8 -40 -27 -43 -52v-28h-13c-21 0 -31 -2 -44 -11c-14.4747 -10.856 -26 -26.1102 -26 -51c0 -24.9275 11.4954 -40.1215 26 -51c13 -9 23 -11 44 -11h13v-28c3 -26 21 -46 46 -53c47.4319 -11.858 79 20.6099 79 67v14h12c14 0 20 0 27 2c40 13 56 60 33 95
c-10 14 -26 25 -43 27h-29v14c0 37.4045 -19.4972 61.6453 -50 68c-6 1 -17 2 -23 1z" />
  </g>

</svg>
