<?xml version="1.0" standalone="no"?>
<!DOCTYPE svg PUBLIC "-//W3C//DTD SVG 1.1//EN" "http://www.w3.org/Graphics/SVG/1.1/DTD/svg11.dtd" >
<svg xmlns="http://www.w3.org/2000/svg" xmlns:xlink="http://www.w3.org/1999/xlink" version="1.1" viewBox="-10 0 1010 1000">
  <g transform="matrix(1 0 0 -1 0 800)">
   <path fill="currentColor"
d="M480 605c7 49 40 82 92 90h192c49 -7 86 -47 90 -95c1 -10 1 -590 0 -600c-4 -48 -41 -88 -91 -95h-193c-49 8 -82 41 -90 90v610zM604 571v-542h125v542h-125zM229 376c0 44.3096 31.0478 78.988 79 67c25 -7 43 -27 46 -53v-27l16 -1c40 0 67 -22 67 -62
s-27 -62 -67 -62l-16 -1v-27c-3 -26 -21 -46 -46 -53c-48 -14 -79 23 -79 67v14h-29c-24 3 -45 21 -52 45c-9 33 10 67 42 77c7 2 13 2 27 2h12v14z" />
  </g>

</svg>
