<?xml version="1.0" standalone="no"?>
<!DOCTYPE svg PUBLIC "-//W3C//DTD SVG 1.1//EN" "http://www.w3.org/Graphics/SVG/1.1/DTD/svg11.dtd" >
<svg xmlns="http://www.w3.org/2000/svg" xmlns:xlink="http://www.w3.org/1999/xlink" version="1.1" viewBox="-10 0 1010 1000">
  <g transform="matrix(1 0 0 -1 0 800)">
   <path fill="currentColor"
d="M146 602c7 50 43 87 92 93h193c47 -8 82 -41 89 -90v-610c-7 -47 -41 -82 -90 -90h-193c-51 8 -84 43 -91 93v604zM271 571v-542h125v542h-125zM633 238c-41.7538 0 -70 20.9109 -70 62c0 25 12 40 26 51c13 9 23 11 44 11h13v28c3 25 20 44 43 52c3 1 7 3 9 3
c6 1 17 0 23 -1c31 -6 50 -31 50 -68v-14h29c17 -2 33 -13 43 -27c23 -35 7 -82 -33 -95c-7 -2 -13 -2 -27 -2h-12v-14c0 -46 -32 -79 -79 -67c-25 7 -43 27 -46 53v28h-13z" />
  </g>

</svg>
