<?xml version="1.0" standalone="no"?>
<!DOCTYPE svg PUBLIC "-//W3C//DTD SVG 1.1//EN" "http://www.w3.org/Graphics/SVG/1.1/DTD/svg11.dtd" >
<svg xmlns="http://www.w3.org/2000/svg" xmlns:xlink="http://www.w3.org/1999/xlink" version="1.1" viewBox="-10 0 1010 1000">
  <g transform="matrix(1 0 0 -1 0 800)">
   <path fill="currentColor"
d="M480 605c6.97848 48.8494 40.4147 82.2622 92 90h192c48.9347 -6.99068 86.1796 -47.2451 90 -95c1 -10 1 -590 0 -600c-3.87525 -48.4406 -41.4729 -87.9247 -91 -95h-193c-48.9521 7.62878 -82.3577 41.0646 -90 90v610zM604 571v-542h125v542h-125zM279 444
c-30.4704 -6.348 -50 -30.7555 -50 -68v-14h-12c-14 0 -20 0 -27 -2c-32 -10 -51 -44 -42 -77c7 -24 28 -42 52 -45h29v-14c0 -44.0045 31.091 -80.6883 79 -67c25 7 43 27 46 53v27l16 1c39.7356 0 67 22.48 67 62c0 39.6145 -27.4744 62 -67 62l-16 1v27
c-3 26 -21 46 -46 53c-8 2 -21 3 -29 1z" />
  </g>

</svg>
