<?xml version="1.0" standalone="no"?>
<!DOCTYPE svg PUBLIC "-//W3C//DTD SVG 1.1//EN" "http://www.w3.org/Graphics/SVG/1.1/DTD/svg11.dtd" >
<svg xmlns="http://www.w3.org/2000/svg" xmlns:xlink="http://www.w3.org/1999/xlink" version="1.1" viewBox="-10 0 1010 1000">
  <g transform="matrix(1 0 0 -1 0 800)">
   <path fill="currentColor"
d="M117 596c-33 50 7 112 66 97c7 -2 15 -5 21 -10c3 -2 60 -59 154 -153c157 -157 152 -152 157 -162c22 -49 -19 -99 -73 -86c-7 2 -12 4 -18 8c-7 4 -306 304 -307 306zM363 695c19 3 36 -3 47 -10c5 -3 158 -156 162 -162c7 -10 11 -19 11 -35c0 -55 -60 -79 -99 -51
c-4 3 -146 144 -155 154c-10 11 -23 33 -15 56c6 24 25 43 49 48zM105 425c0 36 23 56 52 62c23 4 40 -6 52 -16c2 -2 146 -143 155 -156c26 -39 2 -98 -52 -98c-14 0 -27 3 -35 10c-6 4 -157 156 -161 162c-7 11 -11 17 -11 36zM594 376c20 30 64 39 94 11
c19 -17 59 -114 64 -114c1 0 98 -17 99 -17c31 -9 56 -45 39 -86c-4 -9 -7 -13 -41 -47l-33 -33l9 -58c9 -64 9 -67 7 -78c-5 -24 -24 -44 -49 -49c-5 -1 -8 0 -15 0c-14 1 -13 0 -71 29l-51 25l-49 -24c-27 -13 -50 -25 -53 -26c-8 -3 -16 -4 -26 -4c-34 0 -56 27 -59 56
c-1 8 -2 7 8 74l8 55l-33 34c-36 37 -38 38 -42 49c-12 30 1 63 29 78c8 5 13 5 64 14c27 4 49 8 49 8s10 23 24 50s27 51 28 53zM646 202c-12.0308 -24.0617 -25.1886 -42.3648 -53 -47c-8 -2 -4 -1 0 -7c13 -20 13 -28 8 -60c-1 -7 -1 -12 -1 -12s5 3 11 6c17 8 23 9 36 9
c12 0 17 -1 32 -9c7 -3 13 -6 13 -6c0 3 -4 36 -4 39c1 14 4 25 14 38c1 1 1 2 -2 2c-16 2 -34 13 -43 26c-1 2 -3 7 -6 12z" />
  </g>

</svg>
