<?xml version="1.0" standalone="no"?>
<!DOCTYPE svg PUBLIC "-//W3C//DTD SVG 1.1//EN" "http://www.w3.org/Graphics/SVG/1.1/DTD/svg11.dtd" >
<svg xmlns="http://www.w3.org/2000/svg" xmlns:xlink="http://www.w3.org/1999/xlink" version="1.1" viewBox="-10 0 1010 1000">
  <g transform="matrix(1 0 0 -1 0 800)">
   <path fill="currentColor"
d="M117 596c-33.4027 50.104 6.69026 111.827 66 97c7 -2 15 -5 21 -10c3 -2 60 -59 154 -153c157 -157 152 -152 157 -162c22.4524 -49.3952 -19.0359 -99.491 -73 -86c-7 2 -12 4 -18 8c-7.09258 3.54629 -305.506 303.759 -307 306zM363 695
c19.4938 3.24897 35.7391 -3.24346 47 -10c5 -3 158 -156 162 -162c6.59275 -9.88912 11 -19.1741 11 -35c0 -55.3852 -59.6878 -79.2557 -99 -51c-4 3 -146 144 -155 154c-9.60524 10.9774 -22.7568 32.7296 -15 56c6 24 25 43 49 48zM105 425
c0 35.6292 23.0147 55.7889 52 62c22.5446 3.75744 40.0482 -5.54217 52 -16c1.75299 -1.75299 146.31 -142.964 155 -156c25.9157 -38.8735 1.89431 -98 -52 -98c-14.2526 0 -26.5289 3.22311 -35 10c-6 4 -157 156 -161 162c-7.36395 11.0459 -11 17.3955 -11 36zM594 376
c20.3318 30.4977 64.1013 38.5988 94 11c19.1131 -16.724 58.517 -114 64 -114c1.47798 0 98.4413 -16.7206 99 -17c30.7897 -9.23691 56.4125 -45.3708 39 -86c-4 -9 -7 -13 -41 -47l-33 -33l9 -58c9 -64 9 -67 7 -78c-5 -24 -24 -44 -49 -49c-5 -1 -8 0 -15 0
c-14 1 -13 0 -71 29l-51 25l-49 -24c-27 -13 -50 -25 -53 -26c-8 -3 -16 -4 -26 -4c-34.1232 0 -55.7035 27.4303 -59 56c-1 8 -2 7 8 74l8 55l-33 34c-36 37 -38 38 -42 49c-12 30 1 63 29 78c8 5 13 5 64 14c27 4 49 8 49 8s10 23 24 50s27 51 28 53zM642 194
c-10.5251 -21.0501 -24.8757 -35.2886 -49 -39c-7.66781 -1.91695 -3.69297 -1.46055 0 -7c13.4475 -20.1713 12.8506 -27.6624 8 -60c-1 -7 -1 -12 -1 -12s5 3 11 6c17 8 23 9 36 9c12 0 17 -1 32 -9c7 -3 13 -6 13 -6c-0.378889 3.22056 -4 36.177 -4 39c1 14 4 25 14 38
c1 1 1 2 -2 2c-16 2 -34 13 -43 26c-1 2 -3 7 -6 12l-5 9l-4 -8z" />
  </g>

</svg>
