<?xml version="1.0" standalone="no"?>
<!DOCTYPE svg PUBLIC "-//W3C//DTD SVG 1.1//EN" "http://www.w3.org/Graphics/SVG/1.1/DTD/svg11.dtd" >
<svg xmlns="http://www.w3.org/2000/svg" xmlns:xlink="http://www.w3.org/1999/xlink" version="1.1" viewBox="-10 0 1010 1000">
  <g transform="matrix(1 0 0 -1 0 800)">
   <path fill="currentColor"
d="M217 737c8 1 22 1 30 0c92.5005 -9.25005 155 -80.3827 155 -184v-30h196v30c0 63 14 97 48 132c27 28 62 45 102 51c55 6 91 -10 124 -35c7 -6 22 -18 28 -26c20 -24 31 -53 36 -85c1 -9 1 -33 0 -42c-11 -72 -59 -126 -126 -144c-18 -5 -29 -6 -62 -6h-25v-196h25
c33 0 44 -1 62 -6c68 -18 115 -73 126 -144c8 -71 -22 -117 -61 -151c-33 -26 -70 -43 -127 -37c-89.2241 12.7463 -150 80.0833 -150 183v30h-196v-30c0 -63 -14 -98 -48 -133c-27 -28 -60 -44 -99 -50c-10 -2 -34 -2 -45 0c-32 5 -61 16 -85 36c-8 6 -20 21 -26 28
c-25 32 -41 69 -35 124c12.7463 89.2241 80.0833 150 183 150h30v196h-30c-63 0 -98 14 -133 48c-28 27 -44 62 -50 102c-12 107 66 181 153 189zM272 588c-15 30 -66 32 -80 -1c-12 -25 1 -54 29 -62c3 -1 8 -2 30 -2h26v26c0 29 0 29 -5 39zM795 603c-24 18 -56 7 -67 -15
c-5 -9 -5 -10 -5 -39v-26h26c29 0 29 0 39 5c26 13 33 56 7 75zM402 398v-196h196v196h-196zM224 76c-23 -5 -48 -31 -32 -63c9 -18 34 -34 61 -20c7 3 16 12 19 19c5 10 5 10 5 39v26h-25c-18 0 -25 0 -28 -1zM723 51c0 -22 1 -27 2 -30c12 -41 66 -42 83 -8
c11 24 -2 51 -20 59c-10 5 -10 5 -39 5h-26v-26z" />
  </g>

</svg>
