<?xml version="1.0" standalone="no"?>
<!DOCTYPE svg PUBLIC "-//W3C//DTD SVG 1.1//EN" "http://www.w3.org/Graphics/SVG/1.1/DTD/svg11.dtd" >
<svg xmlns="http://www.w3.org/2000/svg" xmlns:xlink="http://www.w3.org/1999/xlink" version="1.1" viewBox="-10 0 1010 1000">
  <g transform="matrix(1 0 0 -1 0 800)">
   <path fill="currentColor"
d="M217 737c8 1 22 1 30 0c79.6099 -7.58189 142.345 -68.1532 153 -147c1 -6 2 -14 2 -37v-30h196v30c0 62.7407 14.0731 96.716 48 132c27 28 62 45 102 51c55.2265 5.52265 90.6508 -9.9881 124 -35c7 -6 22 -18 28 -26c20 -24 31 -53 36 -85c1 -9 1 -33 0 -42
c-10.7397 -71.598 -58.814 -125.677 -126 -144c-18 -5 -29 -6 -62 -6h-25v-196h25c33 0 44 -1 62 -6c67.5545 -17.6229 115.331 -72.875 126 -144c7.88438 -70.9594 -21.6616 -117.281 -61 -151c-33.3331 -26.3887 -70.4673 -42.6533 -127 -37
c-76.5193 11.4779 -137.489 68.2217 -148 146c-1 6 -2 14 -2 37v30h-196v-30c0 -62.6199 -14.0776 -97.7207 -48 -133c-27 -28 -60 -44 -99 -50c-10 -2 -34 -2 -45 0c-32 5 -61 16 -85 36c-8 6 -20 21 -26 28c-25.1198 31.7303 -41.1194 68.925 -35 124
c11.4779 76.5193 68.2217 137.489 146 148c6 1 14 2 37 2h30v196h-30c-62.6199 0 -97.7207 14.0776 -133 48c-28 27 -44 62 -50 102c-11.8868 106.982 66.3086 180.501 153 189zM272 588c-15.1406 30.2812 -65.8718 31.9658 -80 -1c-12 -25 1 -54 29 -62c3 -1 8 -2 30 -2h26
v26c0 29 0 29 -5 39zM795 603c-24.2674 17.649 -55.8045 7.39101 -67 -15c-5 -9 -5 -10 -5 -39v-26h26c29 0 29 0 39 5c26.1137 13.0569 33.4229 55.7833 7 75zM402 398v-196h196v196h-196zM224 76c-22.5094 -4.82343 -47.968 -31.0641 -32 -63
c9.08908 -18.1782 33.5151 -33.7425 61 -20c7 3 16 12 19 19c5 10 5 10 5 39v26h-25c-18 0 -25 0 -28 -1zM723 51c0 -22 1 -27 2 -30c12.2651 -41.3946 65.7631 -42.4738 83 -8c11.2417 24.3569 -2.263 51.3984 -20 59c-10 5 -10 5 -39 5h-26v-26z" />
  </g>

</svg>
