<?xml version="1.0" standalone="no"?>
<!DOCTYPE svg PUBLIC "-//W3C//DTD SVG 1.1//EN" "http://www.w3.org/Graphics/SVG/1.1/DTD/svg11.dtd" >
<svg xmlns="http://www.w3.org/2000/svg" xmlns:xlink="http://www.w3.org/1999/xlink" version="1.1" viewBox="-10 0 1010 1000">
  <g transform="matrix(1 0 0 -1 0 800)">
   <path fill="currentColor"
d="M476 737c102 6 204 -25 285 -86c48 -36 89 -81 119 -133c66 -114 75 -255 27 -378c-33.1228 -83.9112 -89.8359 -153.592 -160 -201c-86 -58 -188 -84 -291 -74c-89 9 -174 45 -242 104c-102.104 83.5396 -162.888 233.809 -149 375c9 92 47 179 109 248
c72.3508 80.3898 185.342 138.987 302 145zM430 605c-98 -22 -179 -92 -218 -185c-7 -17 -16 -43 -18 -56c0 -2 0 -2 2 -2c4 0 14 -3 19 -6c20.7777 -9.77776 41.506 -35.976 33 -70c-5 -19 -16 -34 -33 -42c-5 -3 -15 -6 -19 -6c-2 0 -2 0 -2 -2c1 -7 6 -23 9 -34
c30.4188 -93.7914 108.241 -169.297 199 -199c11 -3 27 -8 34 -9c2 0 2 -1 2 1c0 1 0 4 1 7c7 29 34 49 64 48c28 -1 51 -21 58 -48c1 -3 1 -6 1 -7c0 -2 0 -1 2 -1c7 1 24 6 34 9c99.8989 33.7687 184.88 117.399 208 233v2c-18.312 4.57799 -35.5993 11.8211 -46 28
c-11.5707 17.356 -12.5388 49.1918 0 68c10.3876 16.1586 27.7083 23.4271 46 28v2c-1 6 -6 24 -9 34c-31 94 -105 168 -199 199c-10 3 -27 8 -34 9c-2 0 -2 1 -2 -1c0 -26.1818 -24.0941 -47.0257 -46 -53c-34 -9 -69 12 -77 46c-1 3 -1 6 -1 7c0 2 0 2 -8 0zM347 81
c-33.3662 -1.11221 -65 22.5794 -65 63v9l32 130c20 78 34 132 35 135c6 15 17 26 33 33c4 2 253 65 264 67c42.0319 6.00456 72 -22.1293 72 -62v-9l-32 -130c-20 -78 -34 -132 -35 -135c-6 -14 -16 -25 -30 -32c-5.26557 -3.15934 -270.544 -69 -274 -69zM513 356l-55 -14
l-14 -56c-8 -31 -14 -56 -14 -56s25 6 56 14l56 14l14 55c8 30 14 55 14 56s0 1 -1 1s-26 -6 -56 -14z" />
  </g>

</svg>
