<?xml version="1.0" standalone="no"?>
<!DOCTYPE svg PUBLIC "-//W3C//DTD SVG 1.1//EN" "http://www.w3.org/Graphics/SVG/1.1/DTD/svg11.dtd" >
<svg xmlns="http://www.w3.org/2000/svg" xmlns:xlink="http://www.w3.org/1999/xlink" version="1.1" viewBox="-10 0 1010 1000">
  <g transform="matrix(1 0 0 -1 0 800)">
   <path fill="currentColor"
d="M476 737c102 6 204 -25 285 -86c48 -36 89 -81 119 -133c66 -114 75 -255 27 -378c-33.1228 -83.9112 -89.8359 -153.592 -160 -201c-86 -58 -188 -84 -291 -74c-89 9 -174 45 -242 104c-102.104 83.5396 -162.888 233.809 -149 375c9 92 47 179 109 248
c72.3508 80.3898 185.342 138.987 302 145zM483 612c-79 -5 -150 -36 -205 -92c-83 -83 -111 -207 -74 -319c24 -72 74 -134 140 -172s143 -50 218 -35c101.357 20.0356 190.883 92.8954 229 192c41 104 23 222 -47 309c-60 75 -151 118 -246 117h-15zM439 532
c11.5943 48.3096 52.5854 54.8027 112 44c116.582 -21.5892 203.376 -121.527 218 -244c1 -7 1 -15 1 -32s0 -25 -1 -32c-11.6703 -99.1978 -69.4856 -181.743 -150 -222c-35 -17 -78 -27 -117 -27c-32.5738 0 -55.9219 20.6874 -63 49c-1 5 -1 13 -1 232s0 227 1 232z
M562 300c0 -78 1 -142 1 -142c51.3902 29.3658 103.376 98.7475 76 190c-10.7562 35.854 -31.4264 64.6985 -59 84c-4 3 -16 10 -17 10c0 0 -1 -64 -1 -142z" />
  </g>

</svg>
