<?xml version="1.0" standalone="no"?>
<!DOCTYPE svg PUBLIC "-//W3C//DTD SVG 1.1//EN" "http://www.w3.org/Graphics/SVG/1.1/DTD/svg11.dtd" >
<svg xmlns="http://www.w3.org/2000/svg" xmlns:xlink="http://www.w3.org/1999/xlink" version="1.1" viewBox="-10 0 1010 1000">
  <g transform="matrix(1 0 0 -1 0 800)">
   <path fill="currentColor"
d="M476 737c102 6 204 -25 285 -86c48 -36 89 -81 119 -133c66 -114 75 -255 27 -378c-33 -84 -90 -154 -160 -201c-86 -58 -188 -84 -291 -74c-89 9 -174 45 -242 104c-102 84 -163 234 -149 375c20.549 210.056 195.029 381.925 411 393zM483 612
c-79 -5 -150 -36 -205 -92c-83 -83 -111 -207 -74 -319c24 -72 74 -134 140 -172s143 -50 218 -35c101 20 191 93 229 192c41 104 23 222 -47 309c-60 75 -151 118 -246 117h-15zM439 532c12 48 53 55 112 44c117 -22 203 -122 218 -244c1 -7 1 -15 1 -32s0 -25 -1 -32
c-12 -99 -69 -182 -150 -222c-35 -17 -78 -27 -117 -27c-33 0 -56 21 -63 49c-1 5 -1 13 -1 232s0 227 1 232zM562 300c0 -78 1 -142 1 -142c51 29 103 99 76 190c-11 36 -31 65 -59 84c-4 3 -16 10 -17 10c0 0 -1 -64 -1 -142z" />
  </g>

</svg>
