<?xml version="1.0" standalone="no"?>
<!DOCTYPE svg PUBLIC "-//W3C//DTD SVG 1.1//EN" "http://www.w3.org/Graphics/SVG/1.1/DTD/svg11.dtd" >
<svg xmlns="http://www.w3.org/2000/svg" xmlns:xlink="http://www.w3.org/1999/xlink" version="1.1" viewBox="-10 0 1010 1000">
  <g transform="matrix(1 0 0 -1 0 800)">
   <path fill="currentColor"
d="M114 737c4 1 44 0 263 0h258c26.0143 -4.33571 44.5231 -22.1721 51 -47c1 -5 1 -6 1 -73l1 -67h197c25.8068 -8.60225 45.0365 -21.5678 51 -49c1 -5 1 -15 1 -295s0 -289 -1 -294c-5.44627 -25.0528 -24.0371 -44.5062 -51 -49h-257c-228 0 -258 -1 -263 0
c-26.6197 4.09533 -46.724 25.6201 -52 52v99l-1 98h-96c-83 0 -96 0 -101 1c-25.6715 3.94946 -44.8583 24.4332 -51 49c-1 5 -1 13 -1 263s0 258 1 263c6 25 25 44 50 49zM188 612v-374h124l1 129v130c5.47493 27.3746 24.3278 47.7427 52 52c5 1 18 1 101 1h96v62h-374z
M438 206v-218h374v437h-374v-219z" />
  </g>

</svg>
