<?xml version="1.0" standalone="no"?>
<!DOCTYPE svg PUBLIC "-//W3C//DTD SVG 1.1//EN" "http://www.w3.org/Graphics/SVG/1.1/DTD/svg11.dtd" >
<svg xmlns="http://www.w3.org/2000/svg" xmlns:xlink="http://www.w3.org/1999/xlink" version="1.1" viewBox="-10 0 1010 1000">
  <g transform="matrix(1 0 0 -1 0 800)">
   <path fill="currentColor"
d="M589 726c14.7495 9.21845 29.2658 14.6836 52 9c8 -2 15 -5 21 -10c0.896569 -0.597713 196.021 -192.369 203 -204c7.17594 -10.7639 12.5875 -29.6501 8 -48c-10.2727 -41.0906 -57.3531 -62.7646 -96 -37c-2 1 -31 29 -78 76l-74 75l-74 -74c-40 -40 -75 -74 -77 -76
c-36.0258 -28.0201 -87.4213 -5.05172 -97 36c-4.56953 18.2781 0.784753 38.1771 8 49c4.15741 6.92902 198.849 201.425 204 204zM614 487c-9 -2 -17 -6 -25 -11c-5.15096 -2.57548 -199.843 -197.071 -204 -204c-7.24214 -10.8632 -12.5813 -30.6747 -8 -49
c9.57799 -41.0485 60.9294 -64.0549 97 -36c2 2 23 22 46 45l42 42v-286h-221c-195 0 -221 0 -226 -1c-29.7595 -4.57838 -61.211 -35.1559 -51 -76c5.9845 -23.938 25.9528 -44.1466 51 -48c5 -1 35 0 263 0h257c27.8888 4.64813 46.4217 24.1087 52 52v180l1 179l42 -43
c26 -26 45 -44 47 -45c38.6332 -25.7554 85.7266 -4.09359 96 37c4.574 18.296 -0.854014 37.281 -8 48c-6.97887 11.6314 -202.552 203.701 -203 204c-10.1158 8.42987 -30.1729 14.5467 -48 12z" />
  </g>

</svg>
