<?xml version="1.0" standalone="no"?>
<!DOCTYPE svg PUBLIC "-//W3C//DTD SVG 1.1//EN" "http://www.w3.org/Graphics/SVG/1.1/DTD/svg11.dtd" >
<svg xmlns="http://www.w3.org/2000/svg" xmlns:xlink="http://www.w3.org/1999/xlink" version="1.1" viewBox="-10 0 1010 1000">
  <g transform="matrix(1 0 0 -1 0 800)">
   <path fill="currentColor"
d="M277 726c15 9 29 15 51 9c7 -2 16 -5 22 -10c1 -1 195 -192 202 -204c7 -11 14 -28 9 -48c-10 -41 -58 -63 -97 -37c-2 1 -30 29 -77 76l-75 75l-73 -74c-40 -40 -76 -74 -78 -76c-36 -28 -87 -5 -97 36c-5 19 1 38 9 49c4 7 199 201 204 204zM302 487c17 2 38 -4 48 -12
c1 -1 195 -192 202 -204c7 -11 14 -29 9 -48c-10 -41 -58 -63 -97 -37c-2 1 -20 19 -46 45l-43 43v-286l224 -1h223c31 -5 61 -35 51 -76c-7 -25 -24 -43 -51 -48h-257c-228 0 -258 -1 -263 0c-29 4 -42 28 -52 52v359l-42 -42c-23 -23 -45 -43 -47 -45
c-36 -28 -87 -5 -97 36c-5 20 1 38 9 49c4 7 199 201 204 204c8 5 16 9 25 11z" />
  </g>

</svg>
