<?xml version="1.0" standalone="no"?>
<!DOCTYPE svg PUBLIC "-//W3C//DTD SVG 1.1//EN" "http://www.w3.org/Graphics/SVG/1.1/DTD/svg11.dtd" >
<svg xmlns="http://www.w3.org/2000/svg" xmlns:xlink="http://www.w3.org/1999/xlink" version="1.1" viewBox="-10 0 1010 1000">
  <g transform="matrix(1 0 0 -1 0 800)">
   <path fill="currentColor"
d="M114 737c4 1 44 0 263 0h258c28 -5 46 -24 52 -52v-305l1 -304l74 74c47 47 75 75 77 76c59 37 125 -30 88 -85c-9 -15 -261 -263 -265 -266c-20 -17 -58 -15 -76 1l-132 132c-139 139 -132 131 -137 143c-3 8 -4 14 -4 24c0 48 57 81 99 51c2 -1 37 -37 77 -77l73 -73
v536h-221c-195 0 -221 0 -226 1c-32 5 -61 37 -51 76c7 24 25 44 50 48z" />
  </g>

</svg>
