<?xml version="1.0" standalone="no"?>
<!DOCTYPE svg PUBLIC "-//W3C//DTD SVG 1.1//EN" "http://www.w3.org/Graphics/SVG/1.1/DTD/svg11.dtd" >
<svg xmlns="http://www.w3.org/2000/svg" xmlns:xlink="http://www.w3.org/1999/xlink" version="1.1" viewBox="-10 0 1010 1000">
  <g transform="matrix(1 0 0 -1 0 800)">
   <path fill="currentColor"
d="M64 688c8 32 36 57 77 47c24 -6 41 -24 46 -50v-255l1 -255h286l-43 43c-46 46 -47 47 -51 58c-3 8 -5 14 -5 24c0 47 59 83 100 50c3 -2 47 -46 102 -101c105 -105 101 -100 106 -112c3 -8 4 -15 4 -25s-1 -16 -4 -24c-5 -12 -1 -7 -106 -112c-55 -55 -99 -99 -102 -101
c-37 -26 -88 -7 -98 36c-4 18 1 37 8 48c3 5 10 12 46 48l43 43h-177c-156 0 -177 0 -182 1c-26 4 -45 23 -51 48c-1 5 -1 15 -1 295s0 289 1 294zM677 362c17 2 38 -4 48 -12c3 -2 47 -46 102 -101c105 -105 101 -100 106 -112c3 -8 4 -15 4 -25s-1 -16 -4 -24
c-5 -12 -1 -7 -106 -112c-55 -55 -99 -99 -102 -101c-40 -28 -100 -4 -100 50c0 10 2 16 5 24c5 11 2 9 82 89l75 74l-75 75c-80 80 -77 78 -82 89c-3 8 -5 14 -5 24c0 33 25 57 52 62z" />
  </g>

</svg>
