<?xml version="1.0" standalone="no"?>
<!DOCTYPE svg PUBLIC "-//W3C//DTD SVG 1.1//EN" "http://www.w3.org/Graphics/SVG/1.1/DTD/svg11.dtd" >
<svg xmlns="http://www.w3.org/2000/svg" xmlns:xlink="http://www.w3.org/1999/xlink" version="1.1" viewBox="-10 0 1010 1000">
  <g transform="matrix(1 0 0 -1 0 800)">
   <path fill="currentColor"
d="M635 737c28 -5 46 -24 52 -52v-180l1 -179l42 43c26 26 45 44 47 45c56.3249 35.7182 124.424 -27.7623 88 -85c-7 -12 -203 -204 -203 -204c-19 -16 -56 -16 -76 1c-43 43 -194 192 -201 203s-13 30 -8 48c3 12 9 22 17 30c22 21 56 24 80 6c2 -2 23 -22 46 -45l42 -42
v286h-221c-195 0 -221 0 -226 1c-38 6 -70 54 -42 96c9 14 24 25 41 28c4 1 44 0 263 0h258zM375 112c0 52.7819 57.7291 78.5139 99 51c2 -2 37 -36 77 -76l74 -74l74 75c47 47 76 75 78 76c56.3249 35.7182 124.424 -27.7623 88 -85c-7 -12 -202 -203 -203 -204
c-20 -17 -58 -15 -76 1c-2 2 -48 47 -101 100c-105 105 -100 100 -105 112c-3 8 -5 14 -5 24z" />
  </g>

</svg>
