<?xml version="1.0" standalone="no"?>
<!DOCTYPE svg PUBLIC "-//W3C//DTD SVG 1.1//EN" "http://www.w3.org/Graphics/SVG/1.1/DTD/svg11.dtd" >
<svg xmlns="http://www.w3.org/2000/svg" xmlns:xlink="http://www.w3.org/1999/xlink" version="1.1" viewBox="-10 0 1010 1000">
  <g transform="matrix(1 0 0 -1 0 800)">
   <path fill="currentColor"
d="M114 737c-25 -5 -44 -24 -50 -49c-1 -5 -1 -13 -1 -263s0 -258 1 -263c6.14342 -24.5737 25.3196 -45.0492 51 -49c5 -1 39 -1 307 -1h302l-74 -74c-65 -65 -74 -74 -77 -79c-7.4516 -11.1774 -13.8021 -28.7915 -9 -48c9.97182 -42.7364 61.1588 -61.7889 98 -36
c3 2 60 58 134 132c139 139 132 132 137 144c3 8 4 14 4 24s-1 16 -4 24c-5 12 2 5 -137 144c-74 74 -131 130 -134 132c-53.6064 42.4384 -127.145 -26.7819 -89 -84c3 -5 12 -14 77 -79l74 -74h-536l-1 223v224c-6.29245 31.4622 -33.1669 57.6904 -73 52z" />
  </g>

</svg>
