<?xml version="1.0" standalone="no"?>
<!DOCTYPE svg PUBLIC "-//W3C//DTD SVG 1.1//EN" "http://www.w3.org/Graphics/SVG/1.1/DTD/svg11.dtd" >
<svg xmlns="http://www.w3.org/2000/svg" xmlns:xlink="http://www.w3.org/1999/xlink" version="1.1" viewBox="-10 0 1010 1000">
  <g transform="matrix(1 0 0 -1 0 800)">
   <path fill="currentColor"
d="M589 726c15 9 29 15 52 9c8 -2 15 -5 21 -10c1 -1 196 -192 203 -204c7 -11 13 -30 8 -48c-10 -41 -57 -63 -96 -37c-2 1 -31 29 -78 76l-74 75l-74 -74c-40 -40 -75 -74 -77 -76c-36 -28 -87 -5 -97 36c-5 18 1 38 8 49c4 7 199 201 204 204zM614 487c18 3 38 -4 48 -12
c0 0 196 -192 203 -204c7 -11 13 -30 8 -48c-10 -41 -57 -63 -96 -37c-2 1 -21 19 -47 45l-42 43l-1 -179v-180c-6 -28 -24 -47 -52 -52h-257c-228 0 -258 -1 -263 0c-25 4 -45 24 -51 48c-10 41 21 71 51 76c5 1 31 1 226 1h221v286l-42 -42c-23 -23 -44 -43 -46 -45
c-36 -28 -87 -5 -97 36c-5 18 1 38 8 49c4 7 199 201 204 204c8 5 16 9 25 11z" />
  </g>

</svg>
