<?xml version="1.0" standalone="no"?>
<!DOCTYPE svg PUBLIC "-//W3C//DTD SVG 1.1//EN" "http://www.w3.org/Graphics/SVG/1.1/DTD/svg11.dtd" >
<svg xmlns="http://www.w3.org/2000/svg" xmlns:xlink="http://www.w3.org/1999/xlink" version="1.1" viewBox="-10 0 1010 1000">
  <g transform="matrix(1 0 0 -1 0 800)">
   <path fill="currentColor"
d="M277 726c14.6183 9.13642 28.6756 14.5811 51 9c7 -2 16 -5 22 -10c0.79088 -0.527254 195.01 -192.35 202 -204c7.43159 -11.1474 13.8824 -28.4703 9 -48c-10.3021 -41.2083 -57.9618 -63.0255 -97 -37c-2 1 -30 29 -77 76l-75 75l-73 -74c-40 -40 -76 -74 -78 -76
c-35.5672 -27.6634 -87.4461 -4.94519 -97 36c-4.87142 19.4857 1.48046 37.7207 9 49c4.15741 6.92902 198.849 201.425 204 204zM302 487c-9 -2 -17 -6 -25 -11c-5.15096 -2.57548 -199.843 -197.071 -204 -204c-7.54295 -11.3144 -13.8865 -29.454 -9 -49
c9.55337 -40.943 61.3986 -63.69 97 -36c2 2 24 22 47 45l42 42v-359c9.76166 -24.4041 23.2984 -47.5844 52 -52c5 -1 35 0 263 0h257c27.0471 4.50784 44.4776 22.9976 51 48c10.3258 41.3033 -19.9215 70.8203 -51 76h-223l-224 1v286l43 -43c26 -26 44 -44 46 -45
c39.0163 -26.0109 86.697 -4.2119 97 37c4.86762 19.4705 -1.59631 36.8945 -9 48c-6.99014 11.6502 -201.209 203.473 -202 204c-9.98275 8.31896 -30.6496 14.4786 -48 12z" />
  </g>

</svg>
