<?xml version="1.0" standalone="no"?>
<!DOCTYPE svg PUBLIC "-//W3C//DTD SVG 1.1//EN" "http://www.w3.org/Graphics/SVG/1.1/DTD/svg11.dtd" >
<svg xmlns="http://www.w3.org/2000/svg" xmlns:xlink="http://www.w3.org/1999/xlink" version="1.1" viewBox="-10 0 1010 1000">
  <g transform="matrix(1 0 0 -1 0 800)">
   <path fill="currentColor"
d="M813 685c6.88798 34.4399 35.692 60.577 78 50c23 -6 40 -24 45 -47c1 -5 1 -14 1 -294s0 -290 -1 -295c-5.95755 -27.4047 -25.1979 -40.3993 -51 -49h-359l43 -43c46 -46 47 -47 51 -58c3 -8 5 -14 5 -24c0 -50.2599 -63.2913 -82.1789 -102 -49l-100 100
c-105 105 -101 100 -106 112c-3 8 -4 14 -4 24s1 17 4 25c5 12 1 7 106 112l100 100c43.2012 37.0296 114.428 -5.28872 100 -63c-2 -7 -4 -14 -8 -20c-3 -5 -10 -12 -46 -48l-43 -43h286l1 255v255zM302 362c-9 -2 -17 -6 -25 -11c-2 -1 -39 -37 -102 -100
c-107 -107 -103 -102 -108 -114c-3 -8 -4 -15 -4 -25s1 -16 4 -24c5 -12 1 -7 106 -112l100 -100c38.6307 -33.1121 102 -1.23243 102 49c0 10 -2 16 -5 24c-5 11 -2 9 -82 89l-75 74l75 75c65 65 74 74 77 79c30.1579 45.2369 -10.9467 103.436 -63 96z" />
  </g>

</svg>
