<?xml version="1.0" standalone="no"?>
<!DOCTYPE svg PUBLIC "-//W3C//DTD SVG 1.1//EN" "http://www.w3.org/Graphics/SVG/1.1/DTD/svg11.dtd" >
<svg xmlns="http://www.w3.org/2000/svg" xmlns:xlink="http://www.w3.org/1999/xlink" version="1.1" viewBox="-10 0 1010 1000">
  <g transform="matrix(1 0 0 -1 0 800)">
   <path fill="currentColor"
d="M302 737c4 1 43 0 262 0h258c27 -5 44 -23 51 -48c10 -41 -20 -71 -51 -76h-223l-224 -1v-286l43 43c26 26 44 44 46 45c57 36 126 -28 88 -85c-7 -12 -201 -203 -202 -204c-19 -16 -57 -16 -77 1l-100 100c-85 86 -97 98 -100 103c-7 11 -14 28 -9 48c3 12 9 22 17 30
c22 21 56 24 80 6c2 -2 24 -22 47 -45l42 -42v359l2 5c7 25 26 43 50 47zM64 98c-14.489 60.8537 51.9177 95.0549 97 65c2 -2 38 -36 78 -76l73 -74l75 75c47 47 75 75 77 76c44 28 98 0 98 -52c0 -10 -1 -16 -4 -24c-5 -12 -1 -7 -106 -112c-54 -54 -99 -99 -102 -101
c-20 -17 -59 -15 -77 1l-100 100c-85 86 -97 98 -100 103c-4 6 -7 12 -9 19z" />
  </g>

</svg>
