<?xml version="1.0" standalone="no"?>
<!DOCTYPE svg PUBLIC "-//W3C//DTD SVG 1.1//EN" "http://www.w3.org/Graphics/SVG/1.1/DTD/svg11.dtd" >
<svg xmlns="http://www.w3.org/2000/svg" xmlns:xlink="http://www.w3.org/1999/xlink" version="1.1" viewBox="-10 0 1010 1000">
  <g transform="matrix(1 0 0 -1 0 800)">
   <path fill="currentColor"
d="M364 737c-25.4895 -4.24825 -45.4116 -24.0581 -51 -52v-305l-1 -304l-73 73c-40 40 -76 75 -78 77c-53.3723 40.0293 -126.01 -27.9849 -88 -85c3 -5 17 -19 131 -133l132 -132c18.2251 -15.6215 56.6239 -17.9801 77 -1c3 2 61 60 133 132c139 139 132 132 137 144
c3 8 4 14 4 24c0 51.5058 -54.4313 78.2305 -98 51c-2 -1 -30 -29 -77 -76l-74 -74v536l223 1h224c27.0471 4.50784 44.4776 22.9976 51 48c10.3258 41.3033 -19.9215 70.8203 -51 76h-258c-219 0 -259 1 -263 0z" />
  </g>

</svg>
