<?xml version="1.0" standalone="no"?>
<!DOCTYPE svg PUBLIC "-//W3C//DTD SVG 1.1//EN" "http://www.w3.org/Graphics/SVG/1.1/DTD/svg11.dtd" >
<svg xmlns="http://www.w3.org/2000/svg" xmlns:xlink="http://www.w3.org/1999/xlink" version="1.1" viewBox="-10 0 1010 1000">
  <g transform="matrix(1 0 0 -1 0 800)">
   <path fill="currentColor"
d="M302 737c4 1 43 0 262 0h258c27.0471 -4.50784 44.4776 -22.9976 51 -48c10.3258 -41.3033 -19.9215 -70.8203 -51 -76h-223l-224 -1v-286l43 43c26 26 44 44 46 45c57.3253 35.8283 125.68 -28.4799 88 -85c-6.99014 -11.6502 -201.209 -203.473 -202 -204
c-19.1188 -15.9323 -57.3436 -15.8484 -77 1l-100 100c-85 86 -97 98 -100 103c-7.43159 11.1474 -13.8824 28.4703 -9 48c3 12 9 22 17 30c22 21 56 24 80 6c2 -2 24 -22 47 -45l42 -42v359l2 5c7 25 26 43 50 47zM114 174c-29.1368 -5.14179 -60.394 -34.4241 -50 -76
c2 -7 5 -13 9 -19c3 -5 15 -17 100 -103l100 -100c18.2251 -15.6215 56.6239 -17.9801 77 -1c3 2 48 47 102 101c105 105 101 100 106 112c3 8 4 14 4 24c0 52.0946 -53.7777 79.639 -98 52c-2 -1 -30 -29 -77 -76l-75 -75l-73 74c-40 40 -76 74 -78 76
c-11.6791 7.78605 -27.2393 13.823 -47 11z" />
  </g>

</svg>
