<?xml version="1.0" standalone="no"?>
<!DOCTYPE svg PUBLIC "-//W3C//DTD SVG 1.1//EN" "http://www.w3.org/Graphics/SVG/1.1/DTD/svg11.dtd" >
<svg xmlns="http://www.w3.org/2000/svg" xmlns:xlink="http://www.w3.org/1999/xlink" version="1.1" viewBox="-10 0 1010 1000">
  <g transform="matrix(1 0 0 -1 0 800)">
   <path fill="currentColor"
d="M64 688c7.62288 31.762 36.0921 57.227 77 47c23.8344 -6.50028 40.7796 -23.8981 46 -50v-255l1 -255h286l-43 43c-46 46 -47 47 -51 58c-3 8 -5 14 -5 24c0 47.2277 58.7367 82.6668 100 50c3 -2 47 -46 102 -101c105 -105 101 -100 106 -112c3 -8 4 -15 4 -25
s-1 -16 -4 -24c-5 -12 -1 -7 -106 -112c-55 -55 -99 -99 -102 -101c-37.2953 -26.1067 -87.9969 -6.87063 -98 36c-4.49667 17.9867 0.82221 37.2333 8 48c3 5 10 12 46 48l43 43h-177c-156 0 -177 0 -182 1c-26.177 4.02724 -44.7633 23.0534 -51 48c-1 5 -1 15 -1 295
s0 289 1 294zM677 362c-27.2973 -4.81717 -52 -28.688 -52 -62c0 -10 2 -16 5 -24c5 -11 2 -9 82 -89l75 -75l-75 -74c-80 -80 -77 -78 -82 -89c-3 -8 -5 -14 -5 -24c0 -53.6384 60.0665 -77.9535 100 -50c3 2 47 46 102 101c105 105 101 100 106 112c3 8 4 14 4 24
s-1 17 -4 25c-5 12 -1 7 -106 112c-55 55 -99 99 -102 101c-9.98275 8.31896 -30.6496 14.4786 -48 12z" />
  </g>

</svg>
