<?xml version="1.0" standalone="no"?>
<!DOCTYPE svg PUBLIC "-//W3C//DTD SVG 1.1//EN" "http://www.w3.org/Graphics/SVG/1.1/DTD/svg11.dtd" >
<svg xmlns="http://www.w3.org/2000/svg" xmlns:xlink="http://www.w3.org/1999/xlink" version="1.1" viewBox="-10 0 1010 1000">
  <g transform="matrix(1 0 0 -1 0 800)">
   <path fill="currentColor"
d="M364 737c4 1 44 0 263 0h258c31 -5 61 -35 51 -76c-7 -25 -24 -43 -51 -48h-224l-223 -1v-536l74 74c47 47 75 75 77 76c44 27 98 1 98 -51c0 -10 -1 -16 -4 -24c-5 -12 2 -5 -137 -144c-72 -72 -130 -130 -133 -132c-20 -17 -59 -15 -77 1l-132 132
c-114 114 -128 128 -131 133c-38 57 35 125 88 85c2 -2 38 -37 78 -77l73 -73l1 304v305c6 28 26 48 51 52z" />
  </g>

</svg>
