<?xml version="1.0" standalone="no"?>
<!DOCTYPE svg PUBLIC "-//W3C//DTD SVG 1.1//EN" "http://www.w3.org/Graphics/SVG/1.1/DTD/svg11.dtd" >
<svg xmlns="http://www.w3.org/2000/svg" xmlns:xlink="http://www.w3.org/1999/xlink" version="1.1" viewBox="-10 0 1010 1000">
  <g transform="matrix(1 0 0 -1 0 800)">
   <path fill="currentColor"
d="M114 737c-24.6628 -4.35226 -43.1443 -24.0051 -50 -48c-9.85757 -39.4303 19.4245 -71.1422 51 -76c5 -1 31 -1 226 -1h221v-536l-73 73c-40 40 -75 76 -77 77c-42.0893 30.3043 -99 -2.73289 -99 -51c0 -10 1 -16 4 -24c5 -12 -2 -4 137 -143l132 -132
c18.2867 -15.6743 55.9481 -17.7099 76 -1c4.39094 2.92729 255.904 250.839 265 266c36.5621 54.8432 -29.358 121.651 -88 85c-2 -1 -30 -29 -77 -76l-74 -74l-1 304v305c-5.5761 27.8805 -24.1185 47.3531 -52 52h-258c-219 0 -259 1 -263 0z" />
  </g>

</svg>
