<?xml version="1.0" standalone="no"?>
<!DOCTYPE svg PUBLIC "-//W3C//DTD SVG 1.1//EN" "http://www.w3.org/Graphics/SVG/1.1/DTD/svg11.dtd" >
<svg xmlns="http://www.w3.org/2000/svg" xmlns:xlink="http://www.w3.org/1999/xlink" version="1.1" viewBox="-10 0 1010 1000">
  <g transform="matrix(1 0 0 -1 0 800)">
   <path fill="currentColor"
d="M635 737c27.8673 -4.70107 46.3968 -24.0969 52 -52v-180l1 -179l42 43c26 26 45 44 47 45c40.8953 25.5596 85.7898 2.13901 96 -37c4.574 -18.296 -0.854014 -37.281 -8 -48c-6.97887 -11.6314 -202.552 -203.701 -203 -204c-18.9354 -15.7795 -56.272 -15.9097 -76 1
c-42.7155 42.7155 -194.494 192.156 -201 203c-7.17594 10.7639 -12.5875 29.6501 -8 48c3 12 9 22 17 30c22 21 56 24 80 6c2 -2 23 -22 46 -45l42 -42v286h-221c-195 0 -221 0 -226 1c-37.9737 5.84211 -70.2495 53.6258 -42 96c9 14 24 25 41 28c4 1 44 0 263 0h258z
M427 174c-28.0989 -4.95864 -52 -27.6316 -52 -62c0 -10 2 -16 5 -24c5 -12 0 -7 105 -112c53 -53 99 -98 101 -100c18.2867 -15.6743 55.9481 -17.7099 76 -1c0.896569 0.597713 196.021 192.369 203 204c7.17594 10.7639 12.5875 29.6501 8 48
c-10.2089 39.134 -55.0761 62.5775 -96 37c-2 -1 -31 -29 -78 -76l-74 -75l-74 74c-40 40 -75 74 -77 76c-11.6351 7.75671 -27.611 13.7699 -47 11z" />
  </g>

</svg>
