<?xml version="1.0" standalone="no"?>
<!DOCTYPE svg PUBLIC "-//W3C//DTD SVG 1.1//EN" "http://www.w3.org/Graphics/SVG/1.1/DTD/svg11.dtd" >
<svg xmlns="http://www.w3.org/2000/svg" xmlns:xlink="http://www.w3.org/1999/xlink" version="1.1" viewBox="-10 0 1010 1000">
  <g transform="matrix(1 0 0 -1 0 800)">
   <path fill="currentColor"
d="M864 737c39 6 66 -20 72 -49c1 -5 1 -13 1 -263s0 -258 -1 -263c-5 -25 -24 -45 -51 -49h-305l-304 -1l74 -74c65 -65 74 -74 77 -79c41 -61 -40 -126 -91 -83l-132 132c-139 139 -132 131 -137 143c-3 8 -4 14 -4 24s1 16 4 24c5 12 -2 4 137 143l132 132
c13 11 33 16 55 11c37 -10 61 -57 36 -94c-3 -5 -12 -14 -77 -79l-74 -74h536l1 223v224c6 28 25 47 51 52z" />
  </g>

</svg>
