<?xml version="1.0" standalone="no"?>
<!DOCTYPE svg PUBLIC "-//W3C//DTD SVG 1.1//EN" "http://www.w3.org/Graphics/SVG/1.1/DTD/svg11.dtd" >
<svg xmlns="http://www.w3.org/2000/svg" xmlns:xlink="http://www.w3.org/1999/xlink" version="1.1" viewBox="-10 0 1010 1000">
  <g transform="matrix(1 0 0 -1 0 800)">
   <path fill="currentColor"
d="M277 726c15 9 29 15 51 9c26 -7 55 -35 45 -74c-2 -7 -4 -14 -8 -20c-3 -5 -12 -14 -77 -79l-75 -74l75 -75c80 -80 77 -78 82 -89c3 -8 5 -14 5 -24c0 -50 -63 -82 -102 -49l-100 100c-105 105 -101 100 -106 112c-3 8 -4 15 -4 25s1 16 4 24c5 12 1 7 108 114
c63 63 100 99 102 100zM552 737c52 7 93 -51 63 -96c-3 -5 -10 -12 -46 -48l-43 -43h359c26 -9 45 -22 51 -49c1 -5 1 -15 1 -295s0 -289 -1 -294c-6 -28 -30 -48 -58 -49c-32 -1 -58 19 -65 52v255l-1 255h-286l43 -43c46 -46 47 -47 51 -58c3 -8 5 -14 5 -24
c0 -50 -63 -82 -102 -49l-100 100c-105 105 -101 100 -106 112c-3 8 -4 15 -4 25s1 16 4 24c5 12 1 7 108 114c63 63 100 99 102 100c8 5 16 9 25 11z" />
  </g>

</svg>
