<?xml version="1.0" standalone="no"?>
<!DOCTYPE svg PUBLIC "-//W3C//DTD SVG 1.1//EN" "http://www.w3.org/Graphics/SVG/1.1/DTD/svg11.dtd" >
<svg xmlns="http://www.w3.org/2000/svg" xmlns:xlink="http://www.w3.org/1999/xlink" version="1.1" viewBox="-10 0 1010 1000">
  <g transform="matrix(1 0 0 -1 0 800)">
   <path fill="currentColor"
d="M375 675c0 41 35 71 78 60c8 -2 16 -5 22 -10c3 -2 47 -46 102 -101c105 -105 101 -100 106 -112c3 -8 4 -14 4 -24s-1 -17 -4 -25c-5 -12 -1 -7 -106 -112c-55 -55 -99 -99 -102 -101c-40 -28 -100 -4 -100 50c0 10 2 16 5 24c4 11 5 12 51 58l43 43h-286l-1 -255v-255
c-13 -67 -108 -68 -123 -3c-1 5 -1 14 -1 294s0 290 1 295c5 22 20 39 41 46c10 3 1 3 192 3h177l-43 43c-46 46 -47 47 -51 58c-3 8 -5 14 -5 24zM677 737c17 2 38 -4 48 -12c3 -2 47 -46 102 -101c105 -105 101 -100 106 -112c3 -8 4 -14 4 -24s-1 -17 -4 -25
c-5 -12 -1 -7 -106 -112c-55 -55 -99 -99 -102 -101c-40 -28 -100 -4 -100 50c0 10 2 16 5 24c5 11 2 9 82 89l75 75l-75 74c-80 80 -77 78 -82 89c-3 8 -5 14 -5 24c0 33 25 57 52 62z" />
  </g>

</svg>
