<?xml version="1.0" standalone="no"?>
<!DOCTYPE svg PUBLIC "-//W3C//DTD SVG 1.1//EN" "http://www.w3.org/Graphics/SVG/1.1/DTD/svg11.dtd" >
<svg xmlns="http://www.w3.org/2000/svg" xmlns:xlink="http://www.w3.org/1999/xlink" version="1.1" viewBox="-10 0 1010 1000">
  <g transform="matrix(1 0 0 -1 0 800)">
   <path fill="currentColor"
d="M364 737c56 8 91 -53 63 -96c-3 -5 -12 -14 -77 -79l-74 -74l304 -1h305c27 -4 46 -24 51 -49c1 -5 1 -13 1 -263s0 -258 -1 -263c-6 -28 -30 -48 -58 -49c-32 -1 -58 19 -65 52v224l-1 223h-536l74 -74c80 -80 78 -78 83 -89c3 -8 4 -14 4 -24c0 -33 -21 -53 -46 -60
c-22 -5 -42 0 -55 11l-132 132c-139 139 -132 131 -137 143c-3 8 -4 14 -4 24s1 16 4 24c5 12 -2 4 139 145c84 84 131 131 133 132c8 5 16 9 25 11z" />
  </g>

</svg>
