<?xml version="1.0" standalone="no"?>
<!DOCTYPE svg PUBLIC "-//W3C//DTD SVG 1.1//EN" "http://www.w3.org/Graphics/SVG/1.1/DTD/svg11.dtd" >
<svg xmlns="http://www.w3.org/2000/svg" xmlns:xlink="http://www.w3.org/1999/xlink" version="1.1" viewBox="-10 0 1010 1000">
  <g transform="matrix(1 0 0 -1 0 800)">
   <path fill="currentColor"
d="M614 737c18 3 38 -4 48 -12c3 -2 60 -58 134 -132c139 -139 132 -132 137 -144c3 -8 4 -14 4 -24c0 -53 -57 -78 -98 -51c-2 1 -30 29 -77 76l-74 74l-1 -304v-305c-6 -28 -24 -47 -52 -52h-257c-228 0 -258 -1 -263 0c-25 4 -45 24 -51 48c-10 41 21 71 51 76
c5 1 31 1 226 1h221v536l-73 -73c-40 -40 -75 -76 -77 -77c-40 -28 -99 -2 -99 51c0 10 1 16 4 24c5 12 -2 4 139 145c84 84 131 131 133 132c8 5 16 9 25 11z" />
  </g>

</svg>
