<?xml version="1.0" standalone="no"?>
<!DOCTYPE svg PUBLIC "-//W3C//DTD SVG 1.1//EN" "http://www.w3.org/Graphics/SVG/1.1/DTD/svg11.dtd" >
<svg xmlns="http://www.w3.org/2000/svg" xmlns:xlink="http://www.w3.org/1999/xlink" version="1.1" viewBox="-10 0 1010 1000">
  <g transform="matrix(1 0 0 -1 0 800)">
   <path fill="currentColor"
d="M864 737c-26.4791 -5.29581 -45.3878 -23.9388 -51 -52v-224l-1 -223h-536l74 74c65 65 74 74 77 79c24.6703 37.0054 0.725052 83.9841 -36 94c-21.7956 5.4489 -42.3682 -0.172768 -55 -11l-132 -132c-139 -139 -132 -131 -137 -143c-3 -8 -4 -14 -4 -24s1 -16 4 -24
c5 -12 -2 -4 137 -143l132 -132c50.6964 -43.454 131.512 22.2324 91 83c-3 5 -12 14 -77 79l-74 74l304 1h305c26.9752 4.49587 45.5523 23.9407 51 49c1 5 1 13 1 263s0 258 -1 263c-6.2553 28.7744 -33.4682 54.5045 -72 49z" />
  </g>

</svg>
