<?xml version="1.0" standalone="no"?>
<!DOCTYPE svg PUBLIC "-//W3C//DTD SVG 1.1//EN" "http://www.w3.org/Graphics/SVG/1.1/DTD/svg11.dtd" >
<svg xmlns="http://www.w3.org/2000/svg" xmlns:xlink="http://www.w3.org/1999/xlink" version="1.1" viewBox="-10 0 1010 1000">
  <g transform="matrix(1 0 0 -1 0 800)">
   <path fill="currentColor"
d="M114 737c40 6 67 -21 73 -52v-224l1 -223h536l-74 74c-65 65 -74 74 -77 79c-38 57 35 126 89 84c3 -2 60 -58 134 -132c139 -139 132 -132 137 -144c3 -8 4 -14 4 -24s-1 -16 -4 -24c-5 -12 2 -5 -137 -144c-74 -74 -131 -130 -134 -132c-37 -26 -88 -7 -98 36
c-5 19 2 37 9 48c3 5 12 14 77 79l74 74h-302c-268 0 -302 0 -307 1c-26 4 -45 24 -51 49c-1 5 -1 13 -1 263s0 258 1 263c6 25 25 44 50 49z" />
  </g>

</svg>
