<?xml version="1.0" standalone="no"?>
<!DOCTYPE svg PUBLIC "-//W3C//DTD SVG 1.1//EN" "http://www.w3.org/Graphics/SVG/1.1/DTD/svg11.dtd" >
<svg xmlns="http://www.w3.org/2000/svg" xmlns:xlink="http://www.w3.org/1999/xlink" version="1.1" viewBox="-10 0 1010 1000">
  <g transform="matrix(1 0 0 -1 0 800)">
   <path fill="currentColor"
d="M375 675c0 41.1245 35.3162 70.671 78 60c8 -2 16 -5 22 -10c3 -2 47 -46 102 -101c105 -105 101 -100 106 -112c3 -8 4 -14 4 -24s-1 -17 -4 -25c-5 -12 -1 -7 -106 -112c-55 -55 -99 -99 -102 -101c-39.8067 -27.8647 -100 -3.57531 -100 50c0 10 2 16 5 24
c4 11 5 12 51 58l43 43h-286l-1 -255v-255c-6.1938 -30.969 -29.5563 -50.9484 -59 -52c-30 -2 -57 19 -64 49c-1 5 -1 14 -1 294s0 290 1 295c5 22 20 39 41 46c10 3 1 3 192 3h177l-43 43c-46 46 -47 47 -51 58c-3 8 -5 14 -5 24zM677 737
c-27.2973 -4.81717 -52 -28.688 -52 -62c0 -10 2 -16 5 -24c5 -11 2 -9 82 -89l75 -74l-75 -75c-80 -80 -77 -78 -82 -89c-3 -8 -5 -14 -5 -24c0 -53.6384 60.0665 -77.9535 100 -50c3 2 47 46 102 101c105 105 101 100 106 112c3 8 4 15 4 25s-1 16 -4 24
c-5 12 -1 7 -106 112c-55 55 -99 99 -102 101c-9.98275 8.31896 -30.6496 14.4786 -48 12z" />
  </g>

</svg>
