<?xml version="1.0" standalone="no"?>
<!DOCTYPE svg PUBLIC "-//W3C//DTD SVG 1.1//EN" "http://www.w3.org/Graphics/SVG/1.1/DTD/svg11.dtd" >
<svg xmlns="http://www.w3.org/2000/svg" xmlns:xlink="http://www.w3.org/1999/xlink" version="1.1" viewBox="-10 0 1010 1000">
  <g transform="matrix(1 0 0 -1 0 800)">
   <path fill="currentColor"
d="M813 685c7 34 36 61 78 50c23 -6 40 -24 45 -47c1 -5 1 -14 1 -294s0 -290 -1 -295c-6 -27 -25 -40 -51 -49h-359l43 -43c46 -46 47 -47 51 -58c3 -8 5 -14 5 -24c0 -50 -63 -82 -102 -49l-100 100c-105 105 -101 100 -106 112c-3 8 -4 14 -4 24s1 17 4 25
c5 12 1 7 106 112l100 100c43 37 114 -5 100 -63c-2 -7 -4 -14 -8 -20c-3 -5 -10 -12 -46 -48l-43 -43h286l1 255v255zM302 362c52 7 93 -51 63 -96c-3 -5 -12 -14 -77 -79l-75 -75l75 -74c80 -80 77 -78 82 -89c3 -8 5 -14 5 -24c0 -50 -63 -82 -102 -49l-100 100
c-105 105 -101 100 -106 112c-3 8 -4 14 -4 24s1 17 4 25c5 12 1 7 108 114c63 63 100 99 102 100c8 5 16 9 25 11z" />
  </g>

</svg>
