<?xml version="1.0" standalone="no"?>
<!DOCTYPE svg PUBLIC "-//W3C//DTD SVG 1.1//EN" "http://www.w3.org/Graphics/SVG/1.1/DTD/svg11.dtd" >
<svg xmlns="http://www.w3.org/2000/svg" xmlns:xlink="http://www.w3.org/1999/xlink" version="1.1" viewBox="-10 0 1010 1000">
  <g transform="matrix(1 0 0 -1 0 800)">
   <path fill="currentColor"
d="M114 674c4 1 62 1 388 1h383c26 -9 45 -22 51 -49c1 -5 1 -15 1 -326s0 -321 -1 -326c-6 -27 -25 -40 -51 -49h-383c-339 0 -382 0 -387 1c-26 4 -45 23 -51 48c-1 5 -1 15 -1 326s0 321 1 326c6 25 25 43 50 48zM188 550v-104h624v104h-624zM188 321v-271h624v271h-624z
M260 209c23 36 79 39 105 1c23 -35 7 -82 -33 -95c-27 -8 -57 3 -72 26c-12 17 -13 49 0 68zM489 237c4 1 17 0 75 0h71c31 -5 61 -35 51 -76c-7 -25 -24 -43 -51 -48h-70c-60 0 -70 -1 -75 0c-29 4 -52 28 -52 62s24 57 51 62z" />
  </g>

</svg>
