<?xml version="1.0" standalone="no"?>
<!DOCTYPE svg PUBLIC "-//W3C//DTD SVG 1.1//EN" "http://www.w3.org/Graphics/SVG/1.1/DTD/svg11.dtd" >
<svg xmlns="http://www.w3.org/2000/svg" xmlns:xlink="http://www.w3.org/1999/xlink" version="1.1" viewBox="-10 0 1010 1000">
  <g transform="matrix(1 0 0 -1 0 800)">
   <path fill="currentColor"
d="M114 674c4 1 62 1 388 1h383c25.8068 -8.60225 45.0365 -21.5678 51 -49c1 -5 1 -15 1 -326s0 -321 -1 -326c-5.95755 -27.4047 -25.1979 -40.3993 -51 -49h-383c-339 0 -382 0 -387 1c-26.177 4.02724 -44.7633 23.0534 -51 48c-1 5 -1 15 -1 326s0 321 1 326
c6 25 25 43 50 48zM188 550v-104h624v104h-624zM188 321v-271h624v271h-624zM260 209c23.089 35.9162 78.5905 38.7279 105 1c23 -35 7 -82 -33 -95c-27 -8 -57 3 -72 26c-11.5707 17.356 -12.5388 49.1918 0 68zM489 237c-27.2531 -4.80938 -51 -28.3986 -51 -62
c0 -33.9752 23.477 -57.6118 52 -62c5 -1 15 0 75 0h70c27.0471 4.50784 44.4776 22.9976 51 48c10.3258 41.3033 -19.9215 70.8203 -51 76h-71c-58 0 -71 1 -75 0z" />
  </g>

</svg>
