<?xml version="1.0" standalone="no"?>
<!DOCTYPE svg PUBLIC "-//W3C//DTD SVG 1.1//EN" "http://www.w3.org/Graphics/SVG/1.1/DTD/svg11.dtd" >
<svg xmlns="http://www.w3.org/2000/svg" xmlns:xlink="http://www.w3.org/1999/xlink" version="1.1" viewBox="-10 0 1010 1000">
  <g transform="matrix(1 0 0 -1 0 800)">
   <path fill="currentColor"
d="M937 112c0 -37.6465 -23.5396 -52.5132 -52 -62h-135v-67c0 -67 -1 -68 -2 -73c-15.4344 -61.7374 -104.568 -61.6191 -121 0c-1 5 -2 6 -2 73v67h-159c-139 0 -159 0 -164 1c-24.9742 3.84219 -44.0413 23.1651 -50 47l-2 5v322h-65c-55 0 -65 0 -70 1
c-30.5151 4.69463 -61.468 34.1279 -51 76c6.0896 24.3584 25.4417 43.068 51 47c5 1 15 1 70 1h65v67c0 67 1 68 2 73c8.65613 30.9147 36.0148 54.9963 76 45c22 -6 39 -22 45 -45c1 -5 2 -6 2 -73v-67h322c27.2904 -5.97491 46.1302 -25.6778 53 -53v-322h135
c28.9956 -9.66519 52 -24.5685 52 -63zM375 300v-125h250v250h-250v-125z" />
  </g>

</svg>
