<?xml version="1.0" standalone="no"?>
<!DOCTYPE svg PUBLIC "-//W3C//DTD SVG 1.1//EN" "http://www.w3.org/Graphics/SVG/1.1/DTD/svg11.dtd" >
<svg xmlns="http://www.w3.org/2000/svg" xmlns:xlink="http://www.w3.org/1999/xlink" version="1.1" viewBox="-10 0 1010 1000">
  <g transform="matrix(1 0 0 -1 0 800)">
   <path fill="currentColor"
d="M937 112c0 -38 -24 -53 -52 -62h-135v-67c0 -67 -1 -68 -2 -73c-15 -62 -105 -62 -121 0c-1 5 -2 6 -2 73v67h-159c-139 0 -159 0 -164 1c-25 4 -44 23 -50 47l-2 5v322h-65c-55 0 -65 0 -70 1c-31 5 -61 34 -51 76c6 24 25 43 51 47c5 1 15 1 70 1h65v67c0 67 1 68 2 73
c9 31 36 55 76 45c22 -6 39 -22 45 -45c1 -5 2 -6 2 -73v-67h322c27 -6 46 -26 53 -53v-322h135c29 -10 52 -25 52 -63zM375 425v-250h250v250h-250z" />
  </g>

</svg>
