<?xml version="1.0" standalone="no"?>
<!DOCTYPE svg PUBLIC "-//W3C//DTD SVG 1.1//EN" "http://www.w3.org/Graphics/SVG/1.1/DTD/svg11.dtd" >
<svg xmlns="http://www.w3.org/2000/svg" xmlns:xlink="http://www.w3.org/1999/xlink" version="1.1" viewBox="-10 0 1010 1000">
  <g transform="matrix(1 0 0 -1 0 800)">
   <path fill="currentColor"
d="M175 737h74c74 0 73 0 83 -3c25.544 -8.51468 50.3534 -35.5864 41 -73c-6.52092 -24.9968 -23.9635 -43.4939 -51 -48h-67l-67 -1l-1 -67c0 -67 0 -67 -1 -72c-15.7148 -62.8591 -105.283 -62.6896 -122 0c-1 5 -1 6 -1 74c0 73 -1 78 2 91c11 53 56 93 110 99zM824 737
c59.8377 -6.41118 107.236 -54.4366 113 -114v-76c0 -68 0 -69 -1 -74c-15.7148 -62.8591 -105.283 -62.6896 -122 0c-1 5 -1 5 -1 72l-1 67h-64c-70 0 -71 1 -80 4c-22.5972 9.03889 -43 27.6767 -43 59c0 33.8898 24.3532 57.1212 52 62c4 1 17 0 73 0h74zM687 300
c0 -37.6465 -23.5396 -52.5132 -52 -62h-36l-37 -1v-57c-1.47301 -26.5142 -4.84682 -34.8468 -18 -48c-19 -20 -49 -25 -74 -12c-13 7 -24 20 -29 33c-4 11 -4 10 -4 49l1 36h-34c-48.9493 0 -43.349 -1.99062 -65 11c-14.4747 10.856 -26 26.1102 -26 51
c0 32.2429 18.7358 49.6943 42 59c9 3 13 3 49 3h34v22c0 52.9751 -2.62002 53.3 11 76c11.7114 19.519 35.8334 31.0278 66 26c19.3098 -4.82744 37.3921 -21.3788 44 -39c4 -11 4 -12 4 -50l-1 -34l37 -1h36c28.4533 -9.48443 52 -24.3889 52 -62zM64 127
c8.30826 29.6724 35.8939 56.2765 77 46c22 -6 39 -23 45 -46c1 -5 1 -5 1 -72l1 -67l67 -1h67c27.0471 -4.50784 44.4776 -22.9976 51 -48c6.36148 -25.4459 -5.17576 -46.1758 -17 -58c-9 -9 -20 -16 -33 -18c-5 -1 -15 -1 -73 -1c-42 0 -70 1 -74 1
c-54.0525 4.76934 -99.6325 45.0044 -111 99c-3 13 -2 18 -2 91c0 68 0 69 1 74zM864 174c-25 -5 -43 -22 -50 -47c-1 -5 -1 -5 -1 -72l-1 -67h-64c-55 0 -66 0 -71 -1c-29.2486 -4.49979 -60.0465 -35.814 -50 -76c5.86748 -23.4699 25.5328 -44.2358 50 -48
c5 -1 15 -1 73 -1c42 0 70 1 74 1c59.2959 5.92959 106.856 54.6072 113 114v76c0 68 0 69 -1 74c-7.58702 29.0836 -32.8175 52.5975 -72 47z" />
  </g>

</svg>
