<?xml version="1.0" standalone="no"?>
<!DOCTYPE svg PUBLIC "-//W3C//DTD SVG 1.1//EN" "http://www.w3.org/Graphics/SVG/1.1/DTD/svg11.dtd" >
<svg xmlns="http://www.w3.org/2000/svg" xmlns:xlink="http://www.w3.org/1999/xlink" version="1.1" viewBox="-10 0 1010 1000">
  <g transform="matrix(1 0 0 -1 0 800)">
   <path fill="currentColor"
d="M114 737c-39.8741 -7.03661 -66.4014 -57.8979 -41 -96c3 -5 21 -23 171 -173l168 -168l-168 -168c-150 -150 -168 -168 -171 -173c-7.4516 -11.1774 -13.8021 -28.7915 -9 -48c9.19412 -39.4034 61.1773 -64.8621 97 -37c2 2 80 78 172 170l167 168l168 -168
c109 -109 169 -169 171 -170c41.2013 -27.4675 98 -1.95807 98 51c0 10 -1 16 -4 24c-5 12 5 1 -177 183l-168 168l168 168c182 182 172 171 177 183c3 8 4 14 4 24c0 51.5058 -54.4313 78.2305 -98 51c-2 -1 -62 -61 -171 -170l-168 -168l-167 168
c-92 92 -170 168 -172 170c-10.9356 7.29041 -29.4832 13.5024 -47 11z" />
  </g>

</svg>
