<?xml version="1.0" standalone="no"?>
<!DOCTYPE svg PUBLIC "-//W3C//DTD SVG 1.1//EN" "http://www.w3.org/Graphics/SVG/1.1/DTD/svg11.dtd" >
<svg xmlns="http://www.w3.org/2000/svg" xmlns:xlink="http://www.w3.org/1999/xlink" version="1.1" viewBox="-10 0 1010 1000">
  <g transform="matrix(1 0 0 -1 0 800)">
   <path fill="currentColor"
d="M114 737c18 3 36 -4 47 -11c2 -2 80 -78 172 -170l167 -168l168 168c109 109 169 169 171 170c44 27 98 1 98 -51c0 -10 -1 -16 -4 -24c-5 -12 5 -1 -177 -183l-168 -168l168 -168c182 -182 172 -171 177 -183c3 -8 4 -14 4 -24c0 -53 -57 -78 -98 -51
c-2 1 -62 61 -171 170l-168 168l-167 -168c-92 -92 -170 -168 -172 -170c-36 -28 -88 -2 -97 37c-5 19 2 37 9 48c3 5 21 23 171 173l168 168l-168 168c-150 150 -168 168 -171 173c-25 38 1 89 41 96z" />
  </g>

</svg>
