<?xml version="1.0" standalone="no"?>
<!DOCTYPE svg PUBLIC "-//W3C//DTD SVG 1.1//EN" "http://www.w3.org/Graphics/SVG/1.1/DTD/svg11.dtd" >
<svg xmlns="http://www.w3.org/2000/svg" xmlns:xlink="http://www.w3.org/1999/xlink" version="1.1" viewBox="-10 0 1010 1000">
  <g transform="matrix(1 0 0 -1 0 800)">
   <path fill="currentColor"
d="M63 491c0 49.8497 61.2901 75.5522 98 47c2 -1 37 -33 79 -70l76 -68c9.26144 18.5229 130.304 243.956 133 248c10.8554 18.0923 36.3116 32.6721 67 25c15 -4 29 -14 37 -28c3.70789 -5.56183 13.5179 -24.721 131 -245c131.812 116.305 147.952 134.976 156 139
c43.6357 29.0905 95.3806 -4.27588 97 -48c0 -8.90071 -60.3107 -505.932 -64 -517c-5 -22 -22 -41 -45 -47l-6 -2h-320c-284 0 -320 0 -325 1c-24.3937 3.75288 -45.6581 24.1195 -50 48c-3.68929 11.0679 -64 508.099 -64 517zM444 375c-31 -57 -57 -107 -59 -110
c-15 -23 -44 -33 -70 -25c-6 2 -15 6 -19 10c0 0 -88 79.5533 -88 77c0 -3.05882 0.0510164 -0.414133 34 -276c0 0 84 -1 258 -1s258 1 258 1c33.949 275.586 34 272.941 34 276c0 1.94963 -88.9767 -76.9767 -89 -77c-29.7493 -23.3745 -72.1644 -9.73279 -88 16
c-3.24091 4.86136 -0.436628 0.239452 -115 213c0 0 -25 -47 -56 -104z" />
  </g>

</svg>
