<?xml version="1.0" standalone="no"?>
<!DOCTYPE svg PUBLIC "-//W3C//DTD SVG 1.1//EN" "http://www.w3.org/Graphics/SVG/1.1/DTD/svg11.dtd" >
<svg xmlns="http://www.w3.org/2000/svg" xmlns:xlink="http://www.w3.org/1999/xlink" version="1.1" viewBox="-10 0 1010 1000">
  <g transform="matrix(1 0 0 -1 0 800)">
   <path fill="currentColor"
d="M63 491c0 50 61 76 98 47c2 -1 37 -33 79 -70l76 -68c9 19 130 244 133 248c11 18 36 33 67 25c15 -4 29 -14 37 -28c4 -6 14 -25 131 -245c132 116 148 135 156 139c44 29 95 -4 97 -48c0 -9 -60 -506 -64 -517c-5 -22 -22 -41 -45 -47l-6 -2h-320c-284 0 -320 0 -325 1
c-24 4 -46 24 -50 48c-4 11 -64 508 -64 517zM500 479c-1 -2 -115 -213 -115 -214c-15 -23 -44 -33 -70 -25c-6 2 -15 6 -19 10c0 0 -88 80 -88 77s0 0 34 -276c0 0 84 -1 258 -1s258 1 258 1c34 276 34 273 34 276c0 2 -89 -77 -89 -77c-30 -23 -72 -10 -88 16
c-3 5 0 0 -115 213z" />
  </g>

</svg>
