<?xml version="1.0" standalone="no"?>
<!DOCTYPE svg PUBLIC "-//W3C//DTD SVG 1.1//EN" "http://www.w3.org/Graphics/SVG/1.1/DTD/svg11.dtd" >
<svg xmlns="http://www.w3.org/2000/svg" xmlns:xlink="http://www.w3.org/1999/xlink" version="1.1" viewBox="-10 0 1010 1000">
  <g transform="matrix(1 0 0 -1 0 800)">
   <path fill="currentColor"
d="M850 403c26.3758 -39.5637 45 -80.8985 45 -143c0 -21 0 -26 -3 -41c-14.182 -67.7583 -72.2614 -129.852 -143 -144c-111.354 -23.8616 -217.833 57.0496 -227 164c-5 54 10 112 42 156l4 6c-1 1 -25 2 -46 3c-16 1 -28 1 -44 0c-21 -1 -45 -2 -46 -3
c21.5197 -32.2796 39.5165 -71.4222 45 -112c16.0278 -116.774 -67.2315 -206.418 -166 -217c-15 -2 -39 -1 -54 2c-79 15 -139 77 -151 157c-3 17 -2 43 1 64c5.52928 40.9167 21.7698 76.1547 43 108c0 0 -8 1 -18 1c-32.8126 2.1875 -46.8934 7.70169 -60 29
c-25.1816 39.1714 1.80836 92.4468 48 96c6 1 40 0 58 -2c39.129 -4.23016 84.0297 -14.6119 115 -27c110.044 37.6503 305.096 38.9801 414 0l6 3c45 16 102 26 155 26c25.0583 0 31.0449 -3.03209 45 -13c37 -28 31 -85 -11 -105c-10 -5 -13 -6 -34 -7
c-10 0 -18 -1 -18 -1zM291 362c-36.3933 -18.1966 -62.4299 -56.8135 -61 -104c0 -57.777 66.3767 -79.8609 104 -46c28.2136 26.3327 23.2196 72.9673 4 105c-9 15 -24 31 -41 42c-3 2 -6 3 -6 3zM703 359c-16 -11 -31 -27 -40 -42
c-17.4604 -29.1007 -26.3281 -73.9833 -1 -101c11.0491 -11.0491 26.8246 -20 47 -20c30.8179 0 51.2403 21.6122 59 46c9.09452 30.3151 -5.25881 69.2052 -19 86c-9.79989 11.9776 -23.963 27.5852 -40 34c0 0 -3 -1 -6 -3z" />
  </g>

</svg>
