<?xml version="1.0" standalone="no"?>
<!DOCTYPE svg PUBLIC "-//W3C//DTD SVG 1.1//EN" "http://www.w3.org/Graphics/SVG/1.1/DTD/svg11.dtd" >
<svg xmlns="http://www.w3.org/2000/svg" xmlns:xlink="http://www.w3.org/1999/xlink" version="1.1" viewBox="-10 0 1010 1000">
  <g transform="matrix(1 0 0 -1 0 800)">
   <path fill="currentColor"
d="M850 403c26 -40 45 -81 45 -143c0 -21 0 -26 -3 -41c-14 -68 -72 -130 -143 -144c-111 -24 -218 57 -227 164c-5 54 10 112 42 156l4 6c-1 1 -25 2 -46 3c-16 1 -28 1 -44 0c-21 -1 -45 -2 -46 -3c22 -32 40 -71 45 -112c16 -117 -67 -206 -166 -217c-15 -2 -39 -1 -54 2
c-79 15 -139 77 -151 157c-3 17 -2 43 1 64c6 41 22 76 43 108c0 0 -8 1 -18 1c-33 2 -47 8 -60 29c-25 39 2 92 48 96c6 1 40 0 58 -2c39 -4 84 -15 115 -27c110 38 305 39 414 0l6 3c45 16 102 26 155 26c25 0 31 -3 45 -13c37 -28 31 -85 -11 -105c-10 -5 -13 -6 -34 -7
c-10 0 -18 -1 -18 -1zM291 362c-36 -18 -62 -57 -61 -104c0 -58 66 -80 104 -46c28 26 23 73 4 105c-9 15 -24 31 -41 42c-3 2 -6 3 -6 3zM703 359c-16 -11 -31 -27 -40 -42c-17 -29 -26 -74 -1 -101c11 -11 27 -20 47 -20c31 0 51 22 59 46c9 30 -5 69 -19 86
c-10 12 -24 28 -40 34c0 0 -3 -1 -6 -3z" />
  </g>

</svg>
