<?xml version="1.0" standalone="no"?>
<!DOCTYPE svg PUBLIC "-//W3C//DTD SVG 1.1//EN" "http://www.w3.org/Graphics/SVG/1.1/DTD/svg11.dtd" >
<svg xmlns="http://www.w3.org/2000/svg" xmlns:xlink="http://www.w3.org/1999/xlink" version="1.1" viewBox="-10 0 1010 1000">
  <g transform="matrix(1 0 0 -1 0 800)">
   <path fill="currentColor"
d="M500 222c3.45864 4.36422 -24.5446 -27.4631 -81 -91c13.2734 -26.5469 21.5244 -61.2808 17 -102c-8.58212 -68.6569 -45.499 -117.597 -99 -145c-47 -25 -104 -28 -154 -9c-60 23 -105 75 -117 138c-3 15 -3 21 -3 37s0 22 3 36
c16.9266 88.8646 105.887 172.97 226 147c11.9535 -2.65634 28.0237 -9.34124 39 -13c2 2 84 96 85 97s-16 20 -138 160c-86 98 -141 161 -143 164c-11.5707 17.356 -12.5388 49.1918 0 68c14.3943 22.3912 48.4914 39.1865 80 22
c15.4398 -7.7199 5.86349 -0.625196 285 -318c202.84 231.388 266.731 305.821 273 310c14.372 10.779 31.2738 17.9315 55 12c26.1585 -7.13414 54.8648 -34.5409 45 -74c-2 -7 -4 -14 -8 -20c-2 -3 -57 -66 -143 -164c-122 -140 -139 -159 -138 -160s84 -96 85 -97
c0 0 2 0 4 1c21.9723 9.98743 46.5906 16 78 16c16 0 24 -1 38 -4c73 -15 131 -73 145 -146c3 -15 3 -21 3 -37c0 -20 -2 -37 -7 -54c-15 -49 -48 -88 -93 -112c-64 -34 -145 -27 -202 18c-40 31 -64 75 -71 127c-5.20299 41.6239 6.058 74.645 17 102
c-56.2346 63.2589 -84.658 95.6153 -81 91zM312 50c0 37.2901 -27.9945 60.8569 -60 62h-10c-31.6234 -5.7497 -54 -27.5216 -54 -62c0 -40.2982 33.4612 -71.1347 78 -60c25.3005 6.90015 46 28.1169 46 60zM742 112c-31.6165 -5.74846 -54 -27.5213 -54 -62
c0 -40.2982 33.4612 -71.1347 78 -60c25.3005 6.90015 46 28.1169 46 60c0 37.2901 -27.9945 60.8569 -60 62h-10z" />
  </g>

</svg>
