<?xml version="1.0" standalone="no"?>
<!DOCTYPE svg PUBLIC "-//W3C//DTD SVG 1.1//EN" "http://www.w3.org/Graphics/SVG/1.1/DTD/svg11.dtd" >
<svg xmlns="http://www.w3.org/2000/svg" xmlns:xlink="http://www.w3.org/1999/xlink" version="1.1" viewBox="-10 0 1010 1000">
  <g transform="matrix(1 0 0 -1 0 800)">
   <path fill="currentColor"
d="M500 222c0 0 -25 -27 -81 -91c13 -27 22 -61 17 -102c-9 -69 -45 -118 -99 -145c-47 -25 -104 -28 -154 -9c-60 23 -105 75 -117 138c-3 15 -3 21 -3 37s0 22 3 36c17 89 106 173 226 147c12 -3 28 -9 39 -13c2 2 84 96 85 97s-16 20 -138 160c-86 98 -141 161 -143 164
c-12 17 -13 49 0 68c14 22 48 39 80 22c15 -8 6 -1 285 -318c203 231 267 306 273 310c14 11 31 18 55 12c26 -7 55 -35 45 -74c-2 -7 -4 -14 -8 -20c-2 -3 -57 -66 -143 -164c-122 -140 -139 -159 -138 -160s84 -96 85 -97c0 0 2 0 4 1c22 10 47 16 78 16c16 0 24 -1 38 -4
c73 -15 131 -73 145 -146c3 -15 3 -21 3 -37c0 -20 -2 -37 -7 -54c-15 -49 -48 -88 -93 -112c-64 -34 -145 -27 -202 18c-40 31 -64 75 -71 127c-5 42 6 75 17 102c-56 63 -81 91 -81 91zM312 50c0 37 -28 61 -60 62h-10c-32 -6 -54 -28 -54 -62c0 -40 33 -71 78 -60
c25 7 46 28 46 60zM742 112c-32 -6 -54 -28 -54 -62c0 -40 33 -71 78 -60c25 7 46 28 46 60c0 37 -28 61 -60 62h-10z" />
  </g>

</svg>
