<?xml version="1.0" standalone="no"?>
<!DOCTYPE svg PUBLIC "-//W3C//DTD SVG 1.1//EN" "http://www.w3.org/Graphics/SVG/1.1/DTD/svg11.dtd" >
<svg xmlns="http://www.w3.org/2000/svg" xmlns:xlink="http://www.w3.org/1999/xlink" version="1.1" viewBox="-10 0 1010 1000">
  <g transform="matrix(1 0 0 -1 0 800)">
   <path fill="currentColor"
d="M473 674c11 1 53 1 64 0c219 -17 373 -165 400 -354c3 -22 3 -31 3 -58s0 -36 -3 -58c-11 -77 -43 -151 -94 -216c-31 -40 -68 -76 -112 -109c-14 -10 -21 -12 -34 -16h-196c-189 0 -197 0 -202 1c-10 2 -18 6 -31 16c-108 81 -176 184 -200 298c-12 60 -11 127 4 185
c35 136 137 243 275 288c39 13 80 20 126 23zM545 547c-109 10 -188 -14 -255 -66c-54 -43 -91 -104 -102 -172c-3 -20 -4 -47 -3 -67c7 -93 56 -179 142 -249l6 -5h334l6 4c63 51 105 111 127 176c25 74 19 153 -15 221c-45 89 -132 146 -240 158zM589 414
c41.825 26.1406 98 0.145259 98 -52c0 -10 -1 -16 -4 -24c-4 -10 -8 -14 -36 -42l-26 -26c3 -20 6 -37 1 -58c-7 -33 -28 -62 -56 -80c-37 -23 -82 -26 -121 -7c-60 29 -94 113 -50 180c25 39 76 70 137 53l27 27c15 15 28 28 30 29z" />
  </g>

</svg>
