<?xml version="1.0" standalone="no"?>
<!DOCTYPE svg PUBLIC "-//W3C//DTD SVG 1.1//EN" "http://www.w3.org/Graphics/SVG/1.1/DTD/svg11.dtd" >
<svg xmlns="http://www.w3.org/2000/svg" xmlns:xlink="http://www.w3.org/1999/xlink" version="1.1" viewBox="-10 0 1010 1000">
  <g transform="matrix(1 0 0 -1 0 800)">
   <path fill="currentColor"
d="M473 674c11 1 53 1 64 0c219.177 -16.5417 372.686 -165.4 400 -354c3 -22 3 -31 3 -58s0 -36 -3 -58c-11 -77 -43 -151 -94 -216c-31 -40 -68 -76 -112 -109c-13.8004 -10.0367 -21.0829 -11.6943 -34 -16h-196c-189 0 -197 0 -202 1c-10 2 -18 6 -31 16
c-108 81 -176 184 -200 298c-12.0637 60.3187 -10.8885 127.307 4 185c35 136 137 243 275 288c39 13 80 20 126 23zM545 547c-108.634 9.87579 -188.378 -13.7472 -255 -66c-54 -43 -91 -104 -102 -172c-3 -20 -4 -47 -3 -67c7 -93 56 -179 142 -249l6 -5h334l6 4
c63 51 105 111 127 176c25 74 19 153 -15 221c-45 89 -132 146 -240 158zM614 424c-9 -2 -17 -5 -25 -10c-2 -1 -15 -14 -30 -29l-27 -27c-61.0311 17.4375 -112.033 -14.1622 -137 -53c-43.8937 -67.3036 -10.162 -150.69 50 -180c39 -19 84 -16 121 7c28 18 49 47 56 80
c4.71504 21.2177 1.80555 38.3611 -1 58l26 26c28 28 32 32 36 42c3 8 4 14 4 24c0 34.1742 -20.0116 52.3372 -46 61c-8 2 -20 2 -27 1z" />
  </g>

</svg>
