<?xml version="1.0" standalone="no"?>
<!DOCTYPE svg PUBLIC "-//W3C//DTD SVG 1.1//EN" "http://www.w3.org/Graphics/SVG/1.1/DTD/svg11.dtd" >
<svg xmlns="http://www.w3.org/2000/svg" xmlns:xlink="http://www.w3.org/1999/xlink" version="1.1" viewBox="-10 0 1010 1000">
  <g transform="matrix(1 0 0 -1 0 800)">
   <path fill="currentColor"
d="M218 696c91 30 208 48 332 40c68 -4 131 -13 187 -27c124 -32 191 -81 200 -146c1 -6 1 -40 1 -263c0 -173 -1 -259 -1 -263c-5 -47 -33 -82 -67 -104c-61 -41 -159 -62 -308 -69c-115 -5 -247 6 -324 25c-52 13 -91 31 -121 54c-28 21 -49 56 -54 94v263
c0 271 -1 261 2 273c3 11 9 27 16 37c24 35 69 63 137 86zM466 612c-96 -4 -192 -24 -248 -51c-9 -5 -20 -10 -20 -11s10 -6 17 -10c63 -31 178 -52 285 -52c115 0 238 23 297 58c3 2 5 4 5 4c0 1 -11 7 -20 11c-70 34 -200 56 -316 51zM188 415v-117c16 -22 63 -36 127 -47
c104 -17 254 -18 360 -2c70 10 120 26 137 49v59c0 55 0 58 -1 58s-4 -2 -9 -4c-86 -33 -219 -52 -334 -48c-101 4 -197 20 -270 48zM188 154v-106c16 -21 62 -36 125 -47c121 -20 299 -17 405 6c47 11 80 23 94 41v106l-13 -4c-80 -27 -228 -42 -361 -36
c-104 5 -179 16 -239 36z" />
  </g>

</svg>
