<?xml version="1.0" standalone="no"?>
<!DOCTYPE svg PUBLIC "-//W3C//DTD SVG 1.1//EN" "http://www.w3.org/Graphics/SVG/1.1/DTD/svg11.dtd" >
<svg xmlns="http://www.w3.org/2000/svg" xmlns:xlink="http://www.w3.org/1999/xlink" version="1.1" viewBox="-10 0 1010 1000">
  <g transform="matrix(1 0 0 -1 0 800)">
   <path fill="currentColor"
d="M114 737c-25 -5 -44 -24 -50 -49c-1 -5 -1 -14 -1 -294s0 -290 1 -295c7 -30 34 -51 64 -49c29.4029 1.0501 52.8153 22.0766 59 53v210l1 211l292 -293c192 -192 295 -294 297 -295c41.2883 -27.5255 98 -0.556646 98 52c0 10 -2 16 -5 24c-5 12 10 -5 -227 233
l-218 219c2.74857 -1.57061 268.081 -127.041 274 -130c7 -2 15 -3 23 -3c31.7085 1.13245 59 24.7524 59 63c0 29.0461 -14.9277 46.5447 -37 57c-7 4 -569 269 -587 278c-13 6 -19 8 -30 8c-5 0 -10 1 -13 0z" />
  </g>

</svg>
