<?xml version="1.0" standalone="no"?>
<!DOCTYPE svg PUBLIC "-//W3C//DTD SVG 1.1//EN" "http://www.w3.org/Graphics/SVG/1.1/DTD/svg11.dtd" >
<svg xmlns="http://www.w3.org/2000/svg" xmlns:xlink="http://www.w3.org/1999/xlink" version="1.1" viewBox="-10 0 1010 1000">
  <g transform="matrix(1 0 0 -1 0 800)">
   <path fill="currentColor"
d="M114 737c3 1 8 0 13 0c11 0 17 -2 30 -8c18 -9 580 -274 587 -278c22 -10 37 -28 37 -57c0 -38 -27 -62 -59 -63c-8 0 -16 1 -23 3c-6 3 -271 128 -274 130l218 -219c237 -238 222 -221 227 -233c3 -8 5 -14 5 -24c0 -53 -57 -80 -98 -52c-2 1 -105 103 -297 295
l-292 293l-1 -211v-210c-6 -31 -30 -52 -59 -53c-30 -2 -57 19 -64 49c-1 5 -1 15 -1 295s0 289 1 294c6 25 25 44 50 49z" />
  </g>

</svg>
