<?xml version="1.0" standalone="no"?>
<!DOCTYPE svg PUBLIC "-//W3C//DTD SVG 1.1//EN" "http://www.w3.org/Graphics/SVG/1.1/DTD/svg11.dtd" >
<svg xmlns="http://www.w3.org/2000/svg" xmlns:xlink="http://www.w3.org/1999/xlink" version="1.1" viewBox="-10 0 1010 1000">
  <g transform="matrix(1 0 0 -1 0 800)">
   <path fill="currentColor"
d="M385 487c30 -5 52 -27 52 -62c0 -28 -15 -47 -35 -56c-5 -3 -16 -6 -19 -6c-1 0 -2 -1 -2 -1h2c4 0 14 -3 20 -6c17 -8 28 -22 33 -41c1 -5 1 -6 1 -62l1 -57h62l6 9c37 66 99 119 174 143l8 3v80c0 88 0 83 -4 89c-1 2 -3 4 -5 5c-6 4 -6 4 -37 4c-27 0 -28 1 -33 2
c-26 7 -44 30 -46 57c-2 33 22 62 55 66c6 1 48 1 58 0c73 -4 125 -59 135 -125c1 -7 1 -14 1 -122c0 -110 0 -115 -1 -120c-4 -19 -17 -35 -34 -43c-5 -3 -15 -6 -19 -6c-2 0 -2 -1 0 -1c1 0 5 -1 9 -1c66 -7 121 -61 128 -130c7 -71 -31 -122 -81 -145
c-80 -40 -161 2 -193 63c-12 23 -17 45 -16 72c0 14 2 26 6 40c0 0 -6 -12 -9 -19c-11 -26 -24 -42 -54 -46h-112v-2c0 -3 -3 -14 -6 -23c-16 -51 -63 -92 -121 -99c-91 -10 -147 49 -162 124h-12c-42 0 -67 21 -72 54c-1 8 0 65 1 74c14 96 82 153 175 163l5 1
c-28 6 -47 21 -55 48c-10 39 19 71 51 76c5 1 15 0 75 0h70zM239 237c-17 -3 -32 -14 -41 -28c-3 -5 -7 -12 -7 -13h121v42l-34 -1c-26 0 -35 1 -39 0zM758 111c-15.1991 7.59953 -28 -5.73069 -28 -18c0 -14 7 -22 20 -22c22 0 28 30 8 40z" />
  </g>

</svg>
