<?xml version="1.0" standalone="no"?>
<!DOCTYPE svg PUBLIC "-//W3C//DTD SVG 1.1//EN" "http://www.w3.org/Graphics/SVG/1.1/DTD/svg11.dtd" >
<svg xmlns="http://www.w3.org/2000/svg" xmlns:xlink="http://www.w3.org/1999/xlink" version="1.1" viewBox="-10 0 1010 1000">
  <g transform="matrix(1 0 0 -1 0 800)">
   <path fill="currentColor"
d="M385 487c29.7764 -4.96273 52 -27.3788 52 -62c0 -28.4695 -15.0555 -46.6144 -35 -56c-5 -3 -16 -6 -19 -6c-1 0 -2 -1 -2 -1h2c4 0 14 -3 20 -6c17 -8 28 -22 33 -41c1 -5 1 -6 1 -62l1 -57h62l6 9c36.9554 65.6985 98.8849 118.588 174 143l8 3v80c0 88 0 83 -4 89
c-1 2 -3 4 -5 5c-6 4 -6 4 -37 4c-27 0 -28 1 -33 2c-26 7 -44 30 -46 57c-2 33 22 62 55 66c6 1 48 1 58 0c73.4879 -3.67439 124.695 -59.0512 135 -125c1 -7 1 -14 1 -122c0 -110 0 -115 -1 -120c-4 -19 -17 -35 -34 -43c-5 -3 -15 -6 -19 -6c-2 0 -2 -1 0 -1
c1 0 5 -1 9 -1c66.425 -7.18108 120.566 -60.6166 128 -130c7.11962 -71.1962 -31.0499 -121.69 -81 -145c-79.8805 -39.9402 -161.122 2.27923 -193 63c-12 23 -17 45 -16 72c0 14 2 26 6 40c0 0 -6 -12 -9 -19c-10.5761 -26.4402 -24.1687 -41.7384 -54 -46h-112v-2
c0 -3 -3 -14 -6 -23c-16.1364 -50.7144 -63.3958 -92.0177 -121 -99c-91.4438 -10.1604 -147.064 49.3182 -162 124h-12c-42.0163 0 -67.231 20.6169 -72 54c-1 8 0 65 1 74c13.6885 95.8194 81.9231 152.658 175 163l5 1c-27.9286 5.58571 -47.1629 20.5703 -55 48
c-9.85757 39.4303 19.4245 71.1422 51 76c5 1 15 0 75 0h70zM239 237c-17 -3 -32 -14 -41 -28c-3 -5 -7 -12 -7 -13h121v42l-34 -1c-26 0 -35 1 -39 0zM744 112c-7.65219 -1.91305 -14 -10.1816 -14 -19c0 -13.5373 7.05003 -22 20 -22c21.9512 0 27.9606 30.0197 8 40
c-4 2 -11 2 -14 1z" />
  </g>

</svg>
