<?xml version="1.0" standalone="no"?>
<!DOCTYPE svg PUBLIC "-//W3C//DTD SVG 1.1//EN" "http://www.w3.org/Graphics/SVG/1.1/DTD/svg11.dtd" >
<svg xmlns="http://www.w3.org/2000/svg" xmlns:xlink="http://www.w3.org/1999/xlink" version="1.1" viewBox="-10 0 1010 1000">
  <g transform="matrix(1 0 0 -1 0 800)">
   <path fill="currentColor"
d="M114 737c4 1 62 0 388 0h383c27 -4 46 -24 51 -49c1 -5 1 -14 1 -294s0 -290 -1 -295c-6 -27 -25 -40 -51 -49h-197v-62l36 -1h36c26 -9 44 -21 51 -48c10 -41 -20 -71 -51 -76h-258c-228 0 -257 -1 -262 0c-30 5 -61 35 -51 76c6 24 26 44 51 48c4 1 12 1 39 1h33v62
h-96c-83 0 -96 0 -101 1c-26 4 -45 23 -51 48c-1 5 -1 15 -1 295s0 289 1 294c6 25 25 44 50 49zM188 612v-437h624v437h-624zM438 50v-62h124v62h-124z" />
  </g>

</svg>
