<?xml version="1.0" standalone="no"?>
<!DOCTYPE svg PUBLIC "-//W3C//DTD SVG 1.1//EN" "http://www.w3.org/Graphics/SVG/1.1/DTD/svg11.dtd" >
<svg xmlns="http://www.w3.org/2000/svg" xmlns:xlink="http://www.w3.org/1999/xlink" version="1.1" viewBox="-10 0 1010 1000">
  <g transform="matrix(1 0 0 -1 0 800)">
   <path fill="currentColor"
d="M239 674c4 1 44 1 263 1h258c18.1645 -6.05482 31.0581 -12.1951 42 -28c4 -6 130 -259 132 -265c2 -7 3 -14 3 -22c-1 -17 -6 -29 -19 -43c-44 -46 -130 -134 -279 -286c-40 -40 -77 -79 -84 -86s-14 -14 -17 -16c-19 -14 -45 -16 -66 -6c-11 5 -3 -2 -103 100
c-157 160 -255 260 -287 294c-13 14 -18 26 -19 43c0 8 1 15 3 22c2 6 128 258 132 265c9 14 24 24 41 27zM289 550l-88 -176l24 -25c71 -73 274 -281 275 -281c0 0 209.313 212.284 258 263c12 12 25 26 31 32l10 11l-88 176h-422zM364 518c-17 -3 -32 -13 -41 -27
c-4 -7 -37 -71 -39 -77c-5 -14 -4 -30 2 -44c5 -11 5 -12 59 -66l53 -53c38.6307 -33.1121 102 -1.23243 102 49c0 10 -2 16 -5 24c-4 11 -7 13 -42 49l-33 33l6 13c9.42039 18.8408 16.7117 28.509 10 52c-7.7052 28.2524 -32.7036 52.6138 -72 47z" />
  </g>

</svg>
