<?xml version="1.0" standalone="no"?>
<!DOCTYPE svg PUBLIC "-//W3C//DTD SVG 1.1//EN" "http://www.w3.org/Graphics/SVG/1.1/DTD/svg11.dtd" >
<svg xmlns="http://www.w3.org/2000/svg" xmlns:xlink="http://www.w3.org/1999/xlink" version="1.1" viewBox="-10 0 1010 1000">
  <g transform="matrix(1 0 0 -1 0 800)">
   <path fill="currentColor"
d="M239 674c4 1 44 1 263 1h258c18 -6 31 -12 42 -28c4 -6 130 -259 132 -265c2 -7 3 -14 3 -22c-1 -17 -6 -29 -19 -43c-44 -46 -130 -134 -279 -286c-40 -40 -77 -79 -84 -86s-14 -14 -17 -16c-19 -14 -45 -16 -66 -6c-11 5 -3 -2 -103 100c-157 160 -255 260 -287 294
c-13 14 -18 26 -19 43c0 8 1 15 3 22c2 6 128 258 132 265c9 14 24 24 41 27zM289 550l-88 -176l24 -25c71 -73 274 -281 275 -281c0 0 209 212 258 263c12 12 25 26 31 32l10 11l-88 176h-422zM364 518c39 6 64 -19 72 -47c7 -23 -1 -33 -10 -52l-6 -13l33 -33
c35 -36 38 -38 42 -49c3 -8 5 -14 5 -24c0 -50 -63 -82 -102 -49l-53 53c-54 54 -54 55 -59 66c-6 14 -7 30 -2 44c2 6 35 70 39 77c9 14 24 24 41 27z" />
  </g>

</svg>
