<?xml version="1.0" standalone="no"?>
<!DOCTYPE svg PUBLIC "-//W3C//DTD SVG 1.1//EN" "http://www.w3.org/Graphics/SVG/1.1/DTD/svg11.dtd" >
<svg xmlns="http://www.w3.org/2000/svg" xmlns:xlink="http://www.w3.org/1999/xlink" version="1.1" viewBox="-10 0 1010 1000">
  <g transform="matrix(1 0 0 -1 0 800)">
   <path fill="currentColor"
d="M488 695c38.5971 6.43285 66.7304 -18.7418 73 -48c0.059053 -0.118106 52.5462 -455.311 49 -489c-7.92812 -87.2094 -74.2537 -162.18 -172 -170c-10 -1 -193 -1 -203 0c-87.5373 7.09762 -153.274 73.1191 -169 150c-3 15 -3 18 -3 51c0 34 -1 37 2 46
c9.09046 27.2714 33.6128 48.6267 73 43c24 -5 41 -23 48 -47c1 -5 2 -6 2 -35c0 -28 0 -31 1 -36c6.47862 -24.8347 24.8898 -41.778 51 -47h93c67 0 95 -1 99 0c27.1414 3.87735 53 27.1126 53 59c0 48.5893 -51.4276 456.099 -46 476c6 24 25 42 49 47zM366 570h11
c32.4493 0 51.9351 -22.0953 59 -48c2 -6 2 -22 0 -28c-8.76073 -29.7865 -24.2179 -38.8065 -55 -50c-11 -4 -19 -8 -19 -8c15.496 -7.748 30.9633 -14.1485 44 -26c18.1463 -18.1463 33 -42.9083 33 -76c0 -38 -21 -72 -55 -91c-6 -3 -8 -4 -41 -16
c-83 -31 -77 -30 -87 -31c-43.0676 -4.78529 -82.6247 44.1633 -64 87c11.9505 31.0713 36.9817 33.1927 74 48c0 0 -2 2 -6 3c-32 11 -56 36 -66 68c-16.7166 56.8365 11.5833 102.792 52 123c11.3555 5.67774 109.992 45 120 45zM688 342
c0 55.9254 73.6091 84.7888 110 40c3 -4 114 -166 119 -174c55.7052 -94.6989 -8.37572 -209.766 -112 -220c-9 -1 -98 -1 -105 0c-10 1 -20 5 -28 11c-4 3 -43 42 -51 51c-13.9759 15.7228 -20.5412 31.8354 -14 58c5 18 16 32 33 40c19 9 40 8 59 -3c4 -2 8 -6 20 -18
l15 -15l32 1h31c7.946 3.973 21.29 14.4199 14 29c-0.320836 0.641671 -111.32 160.64 -116 170c-5 8 -7 20 -7 30zM576 29c-36.6828 -4.23263 -69.1103 -45.4277 -49 -89c26.0552 -56.4529 118 -43.8183 118 27c0 10 1 11 -1 16c-7 22 -23 38 -45 44c-7 2 -17 3 -23 2z" />
  </g>

</svg>
