<?xml version="1.0" standalone="no"?>
<!DOCTYPE svg PUBLIC "-//W3C//DTD SVG 1.1//EN" "http://www.w3.org/Graphics/SVG/1.1/DTD/svg11.dtd" >
<svg xmlns="http://www.w3.org/2000/svg" xmlns:xlink="http://www.w3.org/1999/xlink" version="1.1" viewBox="-10 0 1010 1000">
  <g transform="matrix(1 0 0 -1 0 800)">
   <path fill="currentColor"
d="M488 695c39 6 67 -19 73 -48c0 0 53 -455 49 -489c-8 -87 -74 -162 -172 -170c-10 -1 -193 -1 -203 0c-88 7 -153 73 -169 150c-3 15 -3 18 -3 51c0 34 -1 37 2 46c9 27 34 49 73 43c24 -5 41 -23 48 -47c1 -5 2 -6 2 -35c0 -28 0 -31 1 -36c6 -25 25 -42 51 -47h93
c67 0 95 -1 99 0c27 4 53 27 53 59c0 49 -51 456 -46 476c6 24 25 42 49 47zM366 570h11c32 0 52 -22 59 -48c2 -6 2 -22 0 -28c-9 -30 -24 -39 -55 -50c-11 -4 -19 -8 -19 -8c15 -8 31 -14 44 -26c18 -18 33 -43 33 -76c0 -38 -21 -72 -55 -91c-6 -3 -8 -4 -41 -16
c-83 -31 -77 -30 -87 -31c-43 -5 -83 44 -64 87c12 31 37 33 74 48c0 0 -2 2 -6 3c-32 11 -56 36 -66 68c-17 57 12 103 52 123c11 6 110 45 120 45zM688 342c0 56 74 85 110 40c3 -4 114 -166 119 -174c56 -95 -8 -210 -112 -220c-9 -1 -98 -1 -105 0c-10 1 -20 5 -28 11
c-4 3 -43 42 -51 51c-14 16 -21 32 -14 58c5 18 16 32 33 40c19 9 40 8 59 -3c4 -2 8 -6 20 -18l15 -15l32 1h31c8 4 21 14 14 29c0 1 -111 161 -116 170c-5 8 -7 20 -7 30zM527 -60c-22.157 48.7454 19.9397 101.874 72 87c22 -6 38 -22 45 -44c2 -5 1 -6 1 -16
c0 -71 -92 -83 -118 -27z" />
  </g>

</svg>
