<?xml version="1.0" standalone="no"?>
<!DOCTYPE svg PUBLIC "-//W3C//DTD SVG 1.1//EN" "http://www.w3.org/Graphics/SVG/1.1/DTD/svg11.dtd" >
<svg xmlns="http://www.w3.org/2000/svg" xmlns:xlink="http://www.w3.org/1999/xlink" version="1.1" viewBox="-10 0 1010 1000">
  <g transform="matrix(1 0 0 -1 0 800)">
   <path fill="currentColor"
d="M439 688c7.62288 31.762 36.0921 57.227 77 47c23 -6 40 -24 45 -47c1 -5 1 -8 1 -44s0 -40 -1 -45c-6 -28 -30 -48 -58 -49c-30 -2 -57 19 -64 49c-1 5 -1 9 -1 45s0 39 1 44zM251 626c7.08957 29.5399 36.794 57.0515 77 47c22 -6 39 -23 45 -46c1 -5 2 -5 2 -72v-67
h354l21 15c11 9 21 16 21 16s-15 10 -32 23c-19 15 -32 26 -34 28c-9.89405 11.3075 -17 21.3236 -17 42c0 42.7496 38.8807 72.177 78 61c12 -3 11 -2 84 -57c45 -34 69 -52 71 -54c9.27979 -11.5997 16 -22.9975 16 -43c0 -20.0335 -6.69586 -31.3698 -16 -43
c-2 -2 -26 -20 -71 -54c-76.6205 -57.4654 -67.3846 -55.2308 -90 -59h-99l-98 -1l-1 -57c0 -56 0 -56 -1 -61c-8.85777 -30.3695 -32.2861 -52.9591 -74 -47c-21 5 -39 20 -46 41c-3 10 -3 11 -3 70v54h-65c-55 0 -66 0 -71 1c-24.6383 3.79051 -45.108 25.432 -51 49
c-1 5 -1 10 -1 107s0 102 1 107zM242 300c-10 -2 -17 -5 -24 -9s-135 -100 -139 -104c-10.7574 -12.2941 -21.1444 -33.4223 -15 -58c3 -11 8 -20 15 -28c4 -4 132 -101 139 -105c6.27182 -3.76309 13.6955 -6.33911 22 -8h99l98 -1l1 -36c0 -34 0 -36 1 -41
c16.4027 -61.51 106.529 -61.8847 122 0c1 5 1 7 1 41l1 36l67 1h67c26.912 4.48533 46.5624 23.9869 52 49c1 5 1 10 1 107s0 102 -1 107c-6 28 -31 48 -59 49c-30 1 -55 -18 -63 -48c-1 -5 -2 -5 -2 -72v-68h-354l-21 16c-11 9 -21 16 -21 16s15 10 32 23
c19 15 32 26 34 28c11.0181 12.5921 22.4158 31.3367 16 57c-6 23 -23 40 -45 46c-6 2 -20 3 -24 2z" />
  </g>

</svg>
