<?xml version="1.0" standalone="no"?>
<!DOCTYPE svg PUBLIC "-//W3C//DTD SVG 1.1//EN" "http://www.w3.org/Graphics/SVG/1.1/DTD/svg11.dtd" >
<svg xmlns="http://www.w3.org/2000/svg" xmlns:xlink="http://www.w3.org/1999/xlink" version="1.1" viewBox="-10 0 1010 1000">
  <g transform="matrix(1 0 0 -1 0 800)">
   <path fill="currentColor"
d="M439 688c8 32 36 57 77 47c23 -6 40 -24 45 -47c1 -5 1 -8 1 -44s0 -40 -1 -45c-6 -28 -30 -48 -58 -49c-30 -2 -57 19 -64 49c-1 5 -1 9 -1 45s0 39 1 44zM251 626c7 30 37 57 77 47c22 -6 39 -23 45 -46c1 -5 2 -5 2 -72v-67h354l21 15c11 9 21 16 21 16s-15 10 -32 23
c-19 15 -32 26 -34 28c-10 11 -17 21 -17 42c0 43 39 72 78 61c12 -3 11 -2 84 -57c45 -34 69 -52 71 -54c9 -12 16 -23 16 -43s-7 -31 -16 -43c-2 -2 -26 -20 -71 -54c-77 -57 -67 -55 -90 -59h-99l-98 -1l-1 -57c0 -56 0 -56 -1 -61c-9 -30 -32 -53 -74 -47
c-21 5 -39 20 -46 41c-3 10 -3 11 -3 70v54h-65c-55 0 -66 0 -71 1c-25 4 -45 25 -51 49c-1 5 -1 10 -1 107s0 102 1 107zM218 291c11.7151 6.69432 28.6765 13.4412 48 7c22 -6 39 -23 45 -46c6 -26 -5 -44 -16 -57c-2 -2 -15 -13 -34 -28c-17 -13 -32 -23 -32 -23
s10 -7 21 -16l21 -16h354v68c0 67 1 67 2 72c8 30 33 49 63 48c28 -1 53 -21 59 -49c1 -5 1 -10 1 -107s0 -102 -1 -107c-5 -25 -25 -45 -52 -49h-67l-67 -1l-1 -36c0 -34 0 -36 -1 -41c-15 -62 -106 -62 -122 0c-1 5 -1 7 -1 41l-1 36l-98 1h-99c-8 2 -16 4 -22 8
c-7 4 -135 101 -139 105c-7 8 -12 17 -15 28c-6 25 4 46 15 58c4 4 132 100 139 104z" />
  </g>

</svg>
