<?xml version="1.0" standalone="no"?>
<!DOCTYPE svg PUBLIC "-//W3C//DTD SVG 1.1//EN" "http://www.w3.org/Graphics/SVG/1.1/DTD/svg11.dtd" >
<svg xmlns="http://www.w3.org/2000/svg" xmlns:xlink="http://www.w3.org/1999/xlink" version="1.1" viewBox="-10 0 1010 1000">
  <g transform="matrix(1 0 0 -1 0 800)">
   <path fill="currentColor"
d="M231 646c6 31 36 57 77 47c25 -7 43 -27 46 -53c1 -7 1 -380 0 -388c-4 -37 -46 -70 -89 -50c-18 8 -31 24 -35 45v197c0 190 0 196 1 202zM605 521c6 32 38 57 78 47c14 -4 27 -12 35 -24c4 -5 94 -161 97 -167c24 -48 15 -107 -23 -145c-21 -21 -49 -34 -80 -36
c-11 -1 -87 -1 -94 0c-33 3 -56 35 -55 66c2 27 20 49 46 57c5 1 6 1 50 1c26 0 44 1 44 1c-56 96 -85 144 -93 161c-4 8 -5 15 -5 24c0 7 -1 10 0 15zM448 320c2 0 6 1 10 1c35 0 63 -28 63 -63c0 -37 -34 -71 -79 -60c-18 5 -32 16 -40 33c-17 37 6 81 46 89zM298 195
c6 1 23 1 29 0c28 -3 54 -16 73 -35c11 -11 20 -24 20 -44c0 -29 -13 -44 -30 -57c18 -12 28 -35 26 -57c-4 -29 -27 -52 -56 -56h-83c-69 0 -77 0 -81 1c-14 3 -25 9 -34 19c-23 24 -22 63 2 87c7 7 15 10 23 14v5c0 67 55 115 111 123z" />
  </g>

</svg>
