<?xml version="1.0" standalone="no"?>
<!DOCTYPE svg PUBLIC "-//W3C//DTD SVG 1.1//EN" "http://www.w3.org/Graphics/SVG/1.1/DTD/svg11.dtd" >
<svg xmlns="http://www.w3.org/2000/svg" xmlns:xlink="http://www.w3.org/1999/xlink" version="1.1" viewBox="-10 0 1010 1000">
  <g transform="matrix(1 0 0 -1 0 800)">
   <path fill="currentColor"
d="M231 646c6.43754 30.9002 36.492 57.127 77 47c25 -7 43 -27 46 -53c1 -7 1 -380 0 -388c-3.71739 -37.1739 -45.9212 -70.4058 -89 -50c-17.8544 8.40209 -30.7971 23.9854 -35 45v197c0 190 0 196 1 202zM605 521c6.32631 31.6316 37.7725 57.0569 78 47
c14 -4 27 -12 35 -24c4 -5 94 -161 97 -167c24 -48 15 -107 -23 -145c-21 -21 -49 -34 -80 -36c-11 -1 -87 -1 -94 0c-32.8998 2.99089 -56.409 35.0013 -55 66c2 27 20 49 46 57c5 1 6 1 50 1c26 0 44 1 44 1c-56.1346 96.4051 -84.715 144.43 -93 161c-4 8 -5 15 -5 24
c0 7 -1 10 0 15zM448 320c2 0 6 1 10 1c35 0 63 -28 63 -63c0 -37.2856 -33.8089 -71.2978 -79 -60c-18 5 -32 16 -40 33c-17.2396 36.9419 5.59422 80.9188 46 89zM298 195c-56.4514 -7.62857 -111 -55.9469 -111 -123v-5c-7.66225 -3.83113 -16.3571 -7.35709 -23 -14
c-24 -24 -25 -63 -2 -87c9 -10 20 -16 34 -19c4 -1 12 -1 81 -1h83c29.301 3.66262 52.3264 26.611 56 56c2.17328 21.7328 -8.47375 45.3158 -26 57c16.7834 12.5876 30 27.7606 30 57c0 20.4038 -8.8098 32.8098 -20 44c-19 19 -45 32 -73 35c-6 1 -23 1 -29 0z" />
  </g>

</svg>
