<?xml version="1.0" standalone="no"?>
<!DOCTYPE svg PUBLIC "-//W3C//DTD SVG 1.1//EN" "http://www.w3.org/Graphics/SVG/1.1/DTD/svg11.dtd" >
<svg xmlns="http://www.w3.org/2000/svg" xmlns:xlink="http://www.w3.org/1999/xlink" version="1.1" viewBox="-10 0 1010 1000">
  <g transform="matrix(1 0 0 -1 0 800)">
   <path fill="currentColor"
d="M406 438c-52.4588 26.2294 -93 71.0772 -93 143c0 41.3286 12.0352 70.4446 33 97c23.4177 32.7848 64.8054 54.924 111 59c62.6323 0 102.755 -19.0064 134 -59c21.2609 -25.5131 34 -55.7077 34 -97c0 -72.6862 -41.5901 -116.795 -94 -143v-13h166
c25.9421 -8.64736 43.8666 -20.6553 51 -48c9.97194 -39.8877 -17.7005 -67.8784 -45 -75l-6 -2h-166v-62l83 -1h83c14.6587 -2.44311 27.5652 -9.36026 36 -19c4 -4 193 -256 196 -261c6.17466 -10.2911 11.7523 -29.3669 7 -46
c-11.362 -45.4482 -65.7861 -63.4887 -103 -32c-3 3 -27 33 -91 119l-86 114h-96c-83 0 -97 0 -102 1c-26.0423 4.0065 -45.8368 26.184 -51 52l-1 137v136zM461 612c-14 -3 -23 -17 -23 -31c0 -17 14 -31 31 -31s31 14 31 31s-15 31 -32 31h-7zM305 425
c-94.8925 -18.9785 -164.575 -64.3575 -202 -138c-87.7669 -175.534 40.8538 -395.044 224 -413c66.6248 -6.0568 109.032 7.70125 157 31c25 12 51 29 60 38c11.1916 11.1916 18 23.1448 18 45c0 37.5269 -27.9001 60.8893 -59 62c-21.0532 0 -26.465 -2.64333 -45 -15
c-13 -8 -21 -13 -33 -19c-104.282 -51.0317 -183.726 13.7805 -212 88c-18 47 -16 97 5 133c20.0681 34.1158 53.7161 53.1492 101 63c30.0259 4.28942 47.388 21.552 54 48c10.4478 41.7914 -22.4486 77 -59 77h-9z" />
  </g>

</svg>
