<?xml version="1.0" standalone="no"?>
<!DOCTYPE svg PUBLIC "-//W3C//DTD SVG 1.1//EN" "http://www.w3.org/Graphics/SVG/1.1/DTD/svg11.dtd" >
<svg xmlns="http://www.w3.org/2000/svg" xmlns:xlink="http://www.w3.org/1999/xlink" version="1.1" viewBox="-10 0 1010 1000">
  <g transform="matrix(1 0 0 -1 0 800)">
   <path fill="currentColor"
d="M406 438c-52 26 -93 71 -93 143c0 41 12 70 33 97c23 33 65 55 111 59c63 0 103 -19 134 -59c21 -26 34 -56 34 -97c0 -73 -42 -117 -94 -143v-13h166c26 -9 44 -21 51 -48c10 -40 -18 -68 -45 -75l-6 -2h-166v-62l83 -1h83c15 -2 28 -9 36 -19c4 -4 193 -256 196 -261
c6 -10 12 -29 7 -46c-11 -45 -66 -63 -103 -32c-3 3 -27 33 -91 119l-86 114h-96c-83 0 -97 0 -102 1c-26 4 -46 26 -51 52l-1 137v136zM461 612c-14 -3 -23 -17 -23 -31c0 -17 14 -31 31 -31s31 14 31 31s-15 31 -32 31h-7zM305 425h9c37 0 69 -35 59 -77
c-7 -26 -24 -44 -54 -48c-47 -10 -81 -29 -101 -63c-21 -36 -23 -86 -5 -133c28 -74 108 -139 212 -88c12 6 20 11 33 19c19 12 24 15 45 15c31 -1 59 -24 59 -62c0 -22 -7 -34 -18 -45c-9 -9 -35 -26 -60 -38c-48 -23 -90 -37 -157 -31c-183 18 -312 237 -224 413
c37 74 107 119 202 138z" />
  </g>

</svg>
