<?xml version="1.0" standalone="no"?>
<!DOCTYPE svg PUBLIC "-//W3C//DTD SVG 1.1//EN" "http://www.w3.org/Graphics/SVG/1.1/DTD/svg11.dtd" >
<svg xmlns="http://www.w3.org/2000/svg" xmlns:xlink="http://www.w3.org/1999/xlink" version="1.1" viewBox="-10 0 1010 1000">
  <g transform="matrix(1 0 0 -1 0 800)">
   <path fill="currentColor"
d="M425 622c21 23 51 37 90 31c31 -4 59 -24 75 -52c28 -50 11 -114 -39 -142c-41 -23 -93 -15 -126 19c-39 40 -39 104 0 144zM199 362c6 1 595 1 601 0c24 -3 46 -22 52 -45c10 -36 -15 -74 -52 -79c-7 -1 -593 -1 -600 0c-24 3 -45 21 -52 45c-9 33 10 67 42 77
c3 1 7 2 9 2zM425 122c21.4631 22.7256 51.0917 36.5583 90 31c31 -4 59 -24 75 -52c28 -50 11 -114 -39 -142c-44 -25 -100 -14 -132 25c-33 41 -30 100 6 138z" />
  </g>

</svg>
