<?xml version="1.0" standalone="no"?>
<!DOCTYPE svg PUBLIC "-//W3C//DTD SVG 1.1//EN" "http://www.w3.org/Graphics/SVG/1.1/DTD/svg11.dtd" >
<svg xmlns="http://www.w3.org/2000/svg" xmlns:xlink="http://www.w3.org/1999/xlink" version="1.1" viewBox="-10 0 1010 1000">
  <g transform="matrix(1 0 0 -1 0 800)">
   <path fill="currentColor"
d="M581 719c15 15 33 23 60 16c25 -7 46 -27 46 -60c0 -15 -2 -22 -12 -38c-29 -46 -43 -103 -8 -149c28 -37 77 -50 126 -34c15 5 28 11 44 21c42 27 100 6 100 -50c0 -27 -11 -42 -30 -54c-34 -22 -75 -39 -111 -45c-20 -4 -43 -5 -58 -3v-2c0 -1 1 -8 1 -14
c2 -86 -41 -156 -92 -196c-36 -28 -77 -44 -124 -49c-11 -1 -39 -2 -46 0l1 -7c0 -40 -7 -73 -19 -104c-10 -24 -28 -58 -38 -69c-36 -39 -108 -15 -108 43c0 15 2 22 12 38c29 46 43 102 8 149c-28 37 -77 50 -126 34c-15 -5 -28 -11 -44 -21c-39 -25 -89 -8 -99 36
c-8 32 10 55 28 67c43 28 92 50 156 50h14c-2 7 -1 36 0 48c12 112 102 198 212 212c12 1 41 2 48 0v14c0 28 4 51 12 78c10 32 33 75 47 89zM488 414c-49 -5 -90 -43 -100 -91c-13 -65 34 -125 94 -136c9 -2 27 -2 36 0c53 8 96 51 96 113c0 74 -63 121 -126 114z" />
  </g>

</svg>
