<?xml version="1.0" standalone="no"?>
<!DOCTYPE svg PUBLIC "-//W3C//DTD SVG 1.1//EN" "http://www.w3.org/Graphics/SVG/1.1/DTD/svg11.dtd" >
<svg xmlns="http://www.w3.org/2000/svg" xmlns:xlink="http://www.w3.org/1999/xlink" version="1.1" viewBox="-10 0 1010 1000">
  <g transform="matrix(1 0 0 -1 0 800)">
   <path fill="currentColor"
d="M581 719c14.5823 14.5823 32.7564 22.8109 60 16c24.9909 -6.81571 46 -27.3496 46 -60c0 -15 -2 -22 -12 -38c-29.033 -46.1112 -42.839 -102.548 -8 -149c28 -37 77 -50 126 -34c15 5 28 11 44 21c41.7089 26.8129 100 6.06405 100 -50
c0 -26.9727 -10.8272 -42.017 -30 -54c-34 -22 -75 -39 -111 -45c-19.7664 -3.70619 -42.6419 -5.19402 -58 -3v-2c0 -1 1 -8 1 -14c2.25179 -85.568 -40.7909 -155.764 -92 -196c-36 -28 -77 -44 -124 -49c-11.205 -1.40063 -39.4079 -1.64804 -46 0l1 -7
c0 -39.9358 -7.0781 -72.705 -19 -104c-10 -24 -28 -58 -38 -69c-35.9185 -39.1838 -108 -14.9269 -108 43c0 15 2 22 12 38c28.7755 45.7023 42.9017 102.464 8 149c-28 37 -77 50 -126 34c-15 -5 -28 -11 -44 -21c-39.1924 -25.1951 -88.6456 -8.37618 -99 36
c-7.89566 31.5826 9.66496 55.2132 28 67c42.6259 28.4172 92.0889 50 156 50h14c-2.27252 6.81757 -1.23717 35.6283 0 48c11.9685 111.706 101.583 198.198 212 212c12.292 1.2292 41.2738 2.24207 48 0v14c0 28 4 51 12 78c10 32 33 75 47 89zM488 414
c-49 -5 -90 -43 -100 -91c-13.3544 -65.1027 33.6199 -125.499 94 -136c9 -2 27 -2 36 0c52.8594 8.45751 96 50.5925 96 113c0 74.3284 -62.5088 120.926 -126 114z" />
  </g>

</svg>
