<?xml version="1.0" standalone="no"?>
<!DOCTYPE svg PUBLIC "-//W3C//DTD SVG 1.1//EN" "http://www.w3.org/Graphics/SVG/1.1/DTD/svg11.dtd" >
<svg xmlns="http://www.w3.org/2000/svg" xmlns:xlink="http://www.w3.org/1999/xlink" version="1.1" viewBox="-10 0 1010 1000">
  <g transform="matrix(1 0 0 -1 0 800)">
   <path fill="currentColor"
d="M489 737c-25 -5 -43 -22 -50 -47c-1 -5 -1 -7 -1 -41l-1 -37h-14c-54.9334 0 -92.3628 -14.6357 -124 -41c-7 -6 -22 -20 -27 -27c-74.1244 -91.0671 -43.8128 -216.82 39 -274c21 -14 45 -24 69 -29c18 -3 12 -3 116 -3c87 0 97 -1 101 -2
c26.143 -6.97146 48 -26.5971 48 -61c0 -36.5652 -21.9175 -56.8196 -53 -62h-90c-84 0 -90 0 -94 1c-23.8321 6.80917 -37.3089 19.0996 -46 43c-9.74669 22.7423 -32.4912 42.9298 -67 38c-33.1198 -5.09535 -61.5807 -35.6771 -51 -78
c18.4102 -57.5318 69.7962 -107.949 130 -123c17 -4 26 -6 47 -6l16 -1l1 -36c0 -34 0 -36 1 -41c16.4027 -61.51 106.529 -61.8847 122 0c1 5 1 7 1 41l1 36l18 1c128.149 0 205.433 110.037 187 218c-11.7375 76.2935 -71.6661 136.696 -146 152c-18 4 -12 4 -118 4l-97 1
c-29.6938 4.94897 -52 27.4667 -52 62c0 22.2752 5.41333 31.4133 17 43c9.5865 9.5865 20.2353 16.3726 36 19h90c84 0 90 0 94 -1c23.8321 -6.80917 37.3089 -19.0996 46 -43c5.805 -17.415 23.8551 -31.428 41 -36c46.9607 -11.7402 91.5699 25.0053 77 76
c-19.488 63.3358 -72.3106 108.25 -134 124c-16 4 -28 5 -47 5h-12l-1 37c0 34 0 36 -1 41c-7.39638 28.3528 -34.4383 52.366 -72 47z" />
  </g>

</svg>
