<svg width="16" height="16" viewBox="0 0 16 16" fill="none" xmlns="http://www.w3.org/2000/svg">
<path d="M14 4H11.3333C10.8029 4 10.2942 4.21071 9.91912 4.58579C9.54405 4.96086 9.33333 5.46957 9.33333 6C9.33333 6.53043 9.54405 7.03914 9.91912 7.41421C10.2942 7.78929 10.8029 8 11.3333 8H12C12.5304 8 13.0391 8.21071 13.4142 8.58579C13.7893 8.96086 14 9.46957 14 10C14 10.5304 13.7893 11.0391 13.4142 11.4142C13.0391 11.7893 12.5304 12 12 12H9.33333M6.66667 4H4C3.46957 4 2.96086 4.21071 2.58579 4.58579C2.21071 4.96086 2 5.46957 2 6C2 6.53043 2.21071 7.03914 2.58579 7.41421C2.96086 7.78929 3.46957 8 4 8H4.66667C5.1971 8 5.70581 8.21071 6.08088 8.58579C6.45595 8.96086 6.66667 9.46957 6.66667 10C6.66667 10.5304 6.45595 11.0391 6.08088 11.4142C5.70581 11.7893 5.1971 12 4.66667 12H2M11.3333 13.3333V12M12 4V2.66667" stroke="#24282B" stroke-width="2" stroke-linecap="round" stroke-linejoin="round"/>
</svg>
