<?xml version="1.0" standalone="no"?>
<!DOCTYPE svg PUBLIC "-//W3C//DTD SVG 1.1//EN" "http://www.w3.org/Graphics/SVG/1.1/DTD/svg11.dtd" >
<svg xmlns="http://www.w3.org/2000/svg" xmlns:xlink="http://www.w3.org/1999/xlink" version="1.1" viewBox="-10 0 1010 1000">
  <g transform="matrix(1 0 0 -1 0 800)">
   <path fill="currentColor"
d="M489 737c38 5 65 -19 72 -47c1 -5 1 -7 1 -41l1 -37h12c19 0 31 -1 47 -5c62 -16 115 -61 134 -124c15 -51 -30 -88 -77 -76c-17 5 -35 19 -41 36c-9 24 -22 36 -46 43c-4 1 -10 1 -94 1h-90c-16 -3 -26 -9 -36 -19c-12 -12 -17 -21 -17 -43c0 -35 22 -57 52 -62l97 -1
c106 0 100 0 118 -4c74 -15 134 -76 146 -152c18 -108 -59 -218 -187 -218l-18 -1l-1 -36c0 -34 0 -36 -1 -41c-15 -62 -106 -62 -122 0c-1 5 -1 7 -1 41l-1 36l-16 1c-21 0 -30 2 -47 6c-60 15 -112 65 -130 123c-11 42 18 73 51 78c35 5 57 -15 67 -38
c9 -24 22 -36 46 -43c4 -1 10 -1 94 -1h90c31 5 53 25 53 62c0 34 -22 54 -48 61c-4 1 -14 2 -101 2c-104 0 -98 0 -116 3c-24 5 -48 15 -69 29c-83 57 -113 183 -39 274c5 7 20 21 27 27c32 26 69 41 124 41h14l1 37c0 34 0 36 1 41c7 25 25 42 50 47z" />
  </g>

</svg>
