<?xml version="1.0" standalone="no"?>
<!DOCTYPE svg PUBLIC "-//W3C//DTD SVG 1.1//EN" "http://www.w3.org/Graphics/SVG/1.1/DTD/svg11.dtd" >
<svg xmlns="http://www.w3.org/2000/svg" xmlns:xlink="http://www.w3.org/1999/xlink" version="1.1" viewBox="-10 0 1010 1000">
  <g transform="matrix(1 0 0 -1 0 800)">
   <path fill="currentColor"
d="M575 -12c-31 5 -48 28 -54 58l-1 -4c-3 -25 -21 -46 -46 -52s-51 3 -66 23c-7 9 -7 10 -26 78l-19 63h-143l-18 -62c-10 -34 -19 -65 -20 -67c-24 -60 -130 -42 -119 33c1 6 138 488 141 495c11 29 38 52 70 59c31 8 59 -6 75 -18c13 -10 23 -25 29 -39
c4 -10 141 -492 143 -501v4c2 28 25 46 50 53c2 1 25 1 96 1c93 0 93 1 98 2c24 6 41 25 46 48c2 7 2 20 0 27c-6 23 -23 41 -46 47c-5 1 -7 2 -39 2c-56 1 -66 1 -101 19c-53 27 -95 80 -103 146c-6 62 11 102 40 139c27 37 70 61 125 69l1 16c0 14 0 17 1 21
c7 24 25 42 49 47c39 7 65 -19 73 -47c1 -4 1 -7 1 -20l1 -16h33c27 0 35 1 39 0c30 -5 61 -35 51 -76c-7 -25 -24 -43 -51 -48l-93 -1c-71 0 -94 0 -96 -1c-14 -4 -23 -8 -32 -17c-24 -24 -24 -64 0 -88c8 -8 17 -13 30 -17c4 -1 6 -2 38 -2c36 0 41 -1 57 -4
c69 -15 124 -67 142 -135c10 -37 8 -78 -5 -113c-25 -66 -83 -112 -155 -121v-15c0 -46 -31 -79 -79 -67c-25 7 -43 27 -46 53v28h-71zM292 404l-36 -124c0 -1 2 -1 36 -1c20 0 36 1 36 1c0 1 -36 123 -36 124z" />
  </g>

</svg>
