<svg width="16" height="16" viewBox="0 0 16 16" fill="none" xmlns="http://www.w3.org/2000/svg">
<path d="M2 12L4.186 4.34934C4.21591 4.24494 4.27899 4.15312 4.36571 4.08775C4.45243 4.02239 4.55807 3.98703 4.66667 3.98703C4.77526 3.98703 4.88091 4.02239 4.96763 4.08775C5.05435 4.15312 5.11743 4.24494 5.14733 4.34934L7.33333 12M14 4H11.3333C10.8029 4 10.2942 4.21071 9.91912 4.58579C9.54405 4.96086 9.33333 5.46957 9.33333 6C9.33333 6.53043 9.54405 7.03914 9.91912 7.41421C10.2942 7.78929 10.8029 8 11.3333 8H12C12.5304 8 13.0391 8.21071 13.4142 8.58579C13.7893 8.96086 14 9.46957 14 10C14 10.5304 13.7893 11.0391 13.4142 11.4142C13.0391 11.7893 12.5304 12 12 12H9.33333M11.3333 13.3333V12M12 4V2.66667M3 9.33333H6.33333" stroke="#24282B" stroke-width="2" stroke-linecap="round" stroke-linejoin="round"/>
</svg>
