<?xml version="1.0" standalone="no"?>
<!DOCTYPE svg PUBLIC "-//W3C//DTD SVG 1.1//EN" "http://www.w3.org/Graphics/SVG/1.1/DTD/svg11.dtd" >
<svg xmlns="http://www.w3.org/2000/svg" xmlns:xlink="http://www.w3.org/1999/xlink" version="1.1" viewBox="-10 0 1010 1000">
  <g transform="matrix(1 0 0 -1 0 800)">
   <path fill="currentColor"
d="M885 612c30 -5 61 -35 51 -76c-7 -25 -24 -43 -51 -48l-93 -1c-71 0 -94 0 -96 -1c-14 -4 -23 -8 -32 -17c-24 -24 -24 -64 0 -88c8 -8 17 -13 30 -17c4 -1 6 -2 38 -2c36 0 41 -1 57 -4c69 -15 124 -67 142 -135c10 -37 8 -78 -5 -113c-25 -66 -83 -112 -155 -121v-15
c0 -46 -31 -79 -79 -67c-25 7 -43 27 -46 53v28h-33c-35 0 -40 -1 -48 2c-40 13 -56 60 -33 95c9 13 21 21 39 26c2 1 25 1 96 1c93 0 93 1 98 2c24 6 41 25 46 48c2 7 2 20 0 27c-6 23 -23 41 -46 47c-5 1 -7 2 -39 2c-56 1 -66 1 -101 19c-53 27 -95 80 -103 146
c-6 62 11 101 40 139c27 36 70 61 125 69l1 16c0 14 0 17 1 21c7 24 25 42 49 47c39 7 65 -19 73 -47c1 -4 1 -7 1 -20l1 -15l36 -1h36zM358 612c11 1 63 1 67 0c37 -5 62 -43 52 -79c-5 -20 -22 -36 -41 -42c-8 -3 -9 -4 -44 -4c-37 -1 -40 -1 -56 -4
c-72 -15 -129 -72 -144 -144c-13 -62 5 -127 50 -172c32 -32 73 -50 118 -54h34c28 0 33 0 41 -3c32 -10 51 -44 42 -77c-14 -47 -57 -50 -121 -45c-151 10 -275 127 -292 281c-2 14 -2 48 0 62c15 158 139 267 280 280c6 1 12 1 14 1z" />
  </g>

</svg>
