<?xml version="1.0" standalone="no"?>
<!DOCTYPE svg PUBLIC "-//W3C//DTD SVG 1.1//EN" "http://www.w3.org/Graphics/SVG/1.1/DTD/svg11.dtd" >
<svg xmlns="http://www.w3.org/2000/svg" xmlns:xlink="http://www.w3.org/1999/xlink" version="1.1" viewBox="-10 0 1010 1000">
  <g transform="matrix(1 0 0 -1 0 800)">
   <path fill="currentColor"
d="M738 695c39 7 65 -19 73 -47c1 -4 1 -7 1 -20l1 -15l36 -1h36c26 -9 44 -21 51 -48c10 -41 -20 -71 -51 -76l-93 -1c-71 0 -94 0 -96 -1c-14 -4 -23 -8 -32 -17c-24 -24 -24 -64 0 -88c8 -8 17 -13 30 -17c4 -1 6 -2 38 -2c36 0 41 -1 57 -4c69 -15 124 -67 142 -135
c10 -37 8 -78 -5 -113c-25 -66 -83 -112 -155 -121v-15c0 -46 -31 -79 -79 -67c-25 7 -43 27 -46 53v28h-33c-35 0 -40 -1 -48 2c-40 13 -56 60 -33 95c9 13 21 21 39 26c2 1 25 1 96 1c93 0 93 1 98 2c24 6 41 25 46 48c2 7 2 20 0 27c-6 23 -23 41 -46 47c-5 1 -7 2 -39 2
c-57 1 -66 2 -102 20c-53 27 -94 80 -102 145c-6 62 11 101 40 139c27 36 70 61 125 69l1 16c0 14 0 17 1 21c7 24 25 42 49 47zM238 612h187c37 -5 62 -43 52 -79c-7 -24 -28 -42 -52 -45h-92c-94 0 -93 -1 -102 -4c-21 -7 -37 -24 -42 -45c-10 -40 19 -68 46 -75
c5 -1 8 -2 40 -2c36 0 41 -1 57 -4c72 -17 129 -71 143 -146c15 -75 -14 -132 -51 -169c-11 -11 -16 -17 -29 -25c-22 -13 -47 -24 -77 -29c-9 -1 -9 -1 -103 -1c-83 0 -95 -1 -100 0c-25 4 -45 24 -51 48c-10 41 21 71 51 76c5 1 17 0 93 0c95 0 94 1 104 4
c20 7 34 22 40 42c9 32 -8 65 -40 76c-9 3 -14 4 -43 4h-34c-89 8 -155 74 -169 153c-2 13 -3 19 -3 34c0 23 3 41 10 61c24 69 80 117 165 126z" />
  </g>

</svg>
