<?xml version="1.0" standalone="no"?>
<!DOCTYPE svg PUBLIC "-//W3C//DTD SVG 1.1//EN" "http://www.w3.org/Graphics/SVG/1.1/DTD/svg11.dtd" >
<svg xmlns="http://www.w3.org/2000/svg" xmlns:xlink="http://www.w3.org/1999/xlink" version="1.1" viewBox="-10 0 1010 1000">
  <g transform="matrix(1 0 0 -1 0 800)">
   <path fill="currentColor"
d="M575 -12c-30.8998 4.57775 -48.0458 28.2289 -54 58l-1 -4c-3 -25 -21 -46 -46 -52s-51 3 -66 23c-7 9 -7 10 -26 78l-19 63h-143l-18 -62c-10 -34 -19 -65 -20 -67c-24.1209 -60.3022 -129.734 -42.1413 -119 33c1 6 138 488 141 495
c11.183 29.0759 38.3149 52.3295 70 59c30.9788 7.7447 58.6408 -6.10243 75 -18c13 -10 23 -25 29 -39c4.40687 -10.2827 141.141 -491.706 143 -501v4c2.16183 28.1037 24.8902 45.8258 50 53c2 1 25 1 96 1c93 0 93 1 98 2c24 6 41 25 46 48c2 7 2 20 0 27
c-6 23 -23 41 -46 47c-5 1 -7 2 -39 2c-56.2771 1.443 -65.694 1.34698 -101 19c-53.4378 26.7189 -95.3633 80.324 -103 146c-5.62818 61.9099 11.1008 102.219 40 139c27.3943 36.5257 69.8101 61.1157 125 69l1 16c0 14 0 17 1 21c7 24 25 42 49 47
c39.2318 6.53863 64.8638 -18.5234 73 -47c1 -4 1 -7 1 -20l1 -16h33c27 0 35 1 39 0c29.7595 -4.57838 61.211 -35.1559 51 -76c-6.52092 -24.9968 -23.9635 -43.4939 -51 -48l-93 -1c-71 0 -94 0 -96 -1c-14 -4 -23 -8 -32 -17c-24 -24 -24 -64 0 -88c8 -8 17 -13 30 -17
c4 -1 6 -2 38 -2c36 0 41 -1 57 -4c69 -15 124 -67 142 -135c10 -37 8 -78 -5 -113c-24.8666 -66.311 -82.7658 -111.971 -155 -121v-15c0 -46.0298 -30.7254 -79.0686 -79 -67c-25 7 -43 27 -46 53v28h-71zM274 343c-10 -34 -18 -62 -18 -63s2 -1 36 -1c20 0 36 1 36 1
c0 1 -36 123 -36 124c0 0 -8 -27 -18 -61z" />
  </g>

</svg>
