<?xml version="1.0" standalone="no"?>
<!DOCTYPE svg PUBLIC "-//W3C//DTD SVG 1.1//EN" "http://www.w3.org/Graphics/SVG/1.1/DTD/svg11.dtd" >
<svg xmlns="http://www.w3.org/2000/svg" xmlns:xlink="http://www.w3.org/1999/xlink" version="1.1" viewBox="-10 0 1010 1000">
  <g transform="matrix(1 0 0 -1 0 800)">
   <path fill="currentColor"
d="M885 612c30.0449 -5.00748 61.2924 -34.8306 51 -76c-6.52092 -24.9968 -23.9635 -43.4939 -51 -48l-93 -1c-71 0 -94 0 -96 -1c-14 -4 -23 -8 -32 -17c-24 -24 -24 -64 0 -88c8 -8 17 -13 30 -17c4 -1 6 -2 38 -2c36 0 41 -1 57 -4c69 -15 124 -67 142 -135
c10 -37 8 -78 -5 -113c-24.8666 -66.311 -82.7658 -111.971 -155 -121v-15c0 -46.0298 -30.7254 -79.0686 -79 -67c-25 7 -43 27 -46 53v28h-33c-35 0 -40 -1 -48 2c-40 13 -56 60 -33 95c9 13 21 21 39 26c2 1 25 1 96 1c93 0 93 1 98 2c24 6 41 25 46 48c2 7 2 20 0 27
c-6 23 -23 41 -46 47c-5 1 -7 2 -39 2c-56.2771 1.443 -65.694 1.34698 -101 19c-53.4378 26.7189 -95.3633 80.324 -103 146c-5.67396 62.4136 11.1611 100.985 40 139c27.3749 36.4999 69.6731 61.0962 125 69l1 16c0 14 0 17 1 21c7 24 25 42 49 47
c39.2318 6.53863 64.8638 -18.5234 73 -47c1 -4 1 -7 1 -20l1 -15l36 -1h36zM358 612c-2 0 -8 0 -14 -1c-140.656 -13.454 -264.727 -122.181 -280 -280c-2 -14 -2 -48 0 -62c17.1135 -154.021 141.047 -270.823 292 -281c64.1884 -4.93757 107.354 -1.78536 121 45
c9 33 -10 67 -42 77c-8 3 -13 3 -41 3h-34c-45 4 -86 22 -118 54c-45 45 -63 110 -50 172c15 72 72 129 144 144c16 3 19 3 56 4c35 0 36 1 44 4c19 6 36 22 41 42c10 36 -15 74 -52 79c-4 1 -56 1 -67 0z" />
  </g>

</svg>
