<?xml version="1.0" standalone="no"?>
<!DOCTYPE svg PUBLIC "-//W3C//DTD SVG 1.1//EN" "http://www.w3.org/Graphics/SVG/1.1/DTD/svg11.dtd" >
<svg xmlns="http://www.w3.org/2000/svg" xmlns:xlink="http://www.w3.org/1999/xlink" version="1.1" viewBox="-10 0 1010 1000">
  <g transform="matrix(1 0 0 -1 0 800)">
   <path fill="currentColor"
d="M738 695c39.2318 6.53863 64.8638 -18.5234 73 -47c1 -4 1 -7 1 -20l1 -15l36 -1h36c25.9421 -8.64736 43.8666 -20.6553 51 -48c10.3258 -41.3033 -19.9215 -70.8203 -51 -76l-93 -1c-71 0 -94 0 -96 -1c-14 -4 -23 -8 -32 -17c-24 -24 -24 -64 0 -88
c8 -8 17 -13 30 -17c4 -1 6 -2 38 -2c36 0 41 -1 57 -4c69 -15 124 -67 142 -135c10 -37 8 -78 -5 -113c-24.8666 -66.311 -82.7658 -111.971 -155 -121v-15c0 -46.0298 -30.7254 -79.0686 -79 -67c-25 7 -43 27 -46 53v28h-33c-35 0 -40 -1 -48 2c-40 13 -56 60 -33 95
c9 13 21 21 39 26c2 1 25 1 96 1c93 0 93 1 98 2c24 6 41 25 46 48c2 7 2 20 0 27c-6 23 -23 41 -46 47c-5 1 -7 2 -39 2c-57.1585 1.4656 -66.3181 2.15904 -102 20c-53.1735 26.5868 -94.411 79.7346 -102 145c-5.67396 62.4136 11.1611 100.985 40 139
c27.3749 36.4999 69.6731 61.0962 125 69l1 16c0 14 0 17 1 21c7 24 25 42 49 47zM238 612c-84.9118 -8.93809 -140.576 -56.5842 -165 -126c-7 -20 -10 -38 -10 -61c0 -15 1 -21 3 -34c14.4374 -78.6035 80.3687 -144.943 169 -153h34c29 0 34 -1 43 -4
c32 -11 49 -44 40 -76c-6 -20 -20 -35 -40 -42c-10 -3 -9 -4 -104 -4c-76 0 -88 1 -93 0c-29.7595 -4.57838 -61.211 -35.1559 -51 -76c5.9845 -23.938 25.9528 -44.1466 51 -48c5 -1 17 0 100 0c94 0 94 0 103 1c29.5992 4.9332 54.6981 15.6189 77 29c13 8 18 14 29 25
c37.4788 37.4788 66.0262 93.8689 51 169c-14.3304 75.2346 -70.7786 128.804 -143 146c-16 3 -21 4 -57 4c-32 0 -35 1 -40 2c-26.7316 7.29044 -55.9525 35.19 -46 75c5 21 21 38 42 45c9 3 8 4 102 4h92c24 3 45 21 52 45c10 36 -15 74 -52 79h-187z" />
  </g>

</svg>
