<?xml version="1.0" standalone="no"?>
<!DOCTYPE svg PUBLIC "-//W3C//DTD SVG 1.1//EN" "http://www.w3.org/Graphics/SVG/1.1/DTD/svg11.dtd" >
<svg xmlns="http://www.w3.org/2000/svg" xmlns:xlink="http://www.w3.org/1999/xlink" version="1.1" viewBox="-10 0 1010 1000">
  <g transform="matrix(1 0 0 -1 0 800)">
   <path fill="currentColor"
d="M422 710c48.0469 37.3698 118.253 36.9879 164 -7c27.0939 -25.6679 47.194 -65.6269 36 -116c-7 -33 -28 -62 -56 -80c-37 -23 -82 -26 -121 -7c-62 30 -87 105 -57 167c8 17 19 31 34 43zM422 398c47.1347 36.6603 119.375 35.9091 164 -7
c27.2733 -25.8379 47.3059 -66.1234 36 -117c-7 -33 -28 -62 -56 -80c-37 -23 -82 -25 -121 -6c-62 30 -87 105 -57 167c8 17 19 31 34 43zM487 112c-45.9428 -5.74285 -81.6722 -33.1783 -99 -70c-30 -62 -5 -137 57 -167c39 -19 84 -16 121 7
c36.856 23.6931 69.6605 69.5276 56 131c-11.9896 57.55 -69.1255 106.319 -135 99z" />
  </g>

</svg>
