<?xml version="1.0" standalone="no"?>
<!DOCTYPE svg PUBLIC "-//W3C//DTD SVG 1.1//EN" "http://www.w3.org/Graphics/SVG/1.1/DTD/svg11.dtd" >
<svg xmlns="http://www.w3.org/2000/svg" xmlns:xlink="http://www.w3.org/1999/xlink" version="1.1" viewBox="-10 0 1010 1000">
  <g transform="matrix(1 0 0 -1 0 800)">
   <path fill="currentColor"
d="M109 398c47.3962 36.8637 119.53 35.7593 164 -7c58.2253 -55.5787 50.2415 -153.724 -19 -197c-37 -23 -82 -25 -121 -6c-62 30 -88 105 -58 167c8 17 19 31 34 43zM422 398c47.1347 36.6603 119.375 35.9091 164 -7c27.2733 -25.8379 47.3059 -66.1234 36 -117
c-7 -33 -28 -62 -56 -80c-37 -23 -82 -25 -121 -6c-62 30 -87 105 -57 167c8 17 19 31 34 43zM800 424c-44.7009 -5.58762 -83.1256 -33.142 -100 -69c-30 -62 -4 -137 58 -167c39 -19 84 -17 121 6c69.2037 43.2523 77.2549 141.393 19 197c-26 25 -62 37 -98 33z" />
  </g>

</svg>
