<?xml version="1.0" standalone="no"?>
<!DOCTYPE svg PUBLIC "-//W3C//DTD SVG 1.1//EN" "http://www.w3.org/Graphics/SVG/1.1/DTD/svg11.dtd" >
<svg xmlns="http://www.w3.org/2000/svg" xmlns:xlink="http://www.w3.org/1999/xlink" version="1.1" viewBox="-10 0 1010 1000">
  <g transform="matrix(1 0 0 -1 0 800)">
   <path fill="currentColor"
d="M733 709c47 39 120 38 165 -6c58 -56 50 -153 -19 -196c-37 -23 -82 -26 -121 -7c-62 30 -88 105 -58 167c8 17 19 30 33 42zM422 398c47 37 119 36 164 -7c27 -26 47 -66 36 -117c-7 -33 -28 -62 -56 -80c-37 -23 -82 -25 -121 -6c-62 30 -87 105 -57 167
c8 17 19 31 34 43zM175 112c36 4 72 -9 98 -34c58 -56 50 -153 -19 -196c-37 -23 -82 -26 -121 -7c-62 30 -88 105 -58 167c17 36 54 64 100 70z" />
  </g>

</svg>
