<?xml version="1.0" standalone="no"?>
<!DOCTYPE svg PUBLIC "-//W3C//DTD SVG 1.1//EN" "http://www.w3.org/Graphics/SVG/1.1/DTD/svg11.dtd" >
<svg xmlns="http://www.w3.org/2000/svg" xmlns:xlink="http://www.w3.org/1999/xlink" version="1.1" viewBox="-10 0 1010 1000">
  <g transform="matrix(1 0 0 -1 0 800)">
   <path fill="currentColor"
d="M438 685c6.88798 34.4399 35.692 60.577 78 50c23.8344 -6.50028 40.7796 -23.8981 46 -50v-180l1 -179l42 43c26 26 45 44 47 45c40.8953 25.5596 85.7898 2.13901 96 -37c4.574 -18.296 -0.854014 -37.281 -8 -48c-6.97887 -11.6314 -202.552 -203.701 -203 -204
c-18.9354 -15.7795 -56.272 -15.9097 -76 1c-42.7155 42.7155 -194.494 192.156 -201 203c-7.17594 10.7639 -12.5875 29.6501 -8 48c3 12 9 22 17 30c22 21 56 24 80 6c2 -2 23 -22 46 -45l42 -42l1 179v180zM114 112c-25 -5 -44 -24 -50 -49c-1 -5 -1 -8 -1 -75
s0 -71 1 -76c6.14342 -24.5737 25.3196 -45.0492 51 -49c5 -1 48 0 387 0h383c26.9752 4.49587 45.5523 23.9407 51 49c1 5 1 9 1 76s0 70 -1 75c-13.5264 63.1231 -105.337 64.4868 -122 2c-1 -5 -1 -7 -1 -41l-1 -36h-624l-1 36c0 34 0 36 -1 41
c-7.39638 28.3528 -34.4383 52.366 -72 47z" />
  </g>

</svg>
