<?xml version="1.0" standalone="no"?>
<!DOCTYPE svg PUBLIC "-//W3C//DTD SVG 1.1//EN" "http://www.w3.org/Graphics/SVG/1.1/DTD/svg11.dtd" >
<svg xmlns="http://www.w3.org/2000/svg" xmlns:xlink="http://www.w3.org/1999/xlink" version="1.1" viewBox="-10 0 1010 1000">
  <g transform="matrix(1 0 0 -1 0 800)">
   <path fill="currentColor"
d="M438 685c7 34 36 61 78 50c24 -6 41 -24 46 -50v-180l1 -179l42 43c26 26 45 44 47 45c56 36 124 -28 88 -85c-7 -12 -203 -204 -203 -204c-19 -16 -56 -16 -76 1c-43 43 -194 192 -201 203s-13 30 -8 48c3 12 9 22 17 30c22 21 56 24 80 6c2 -2 23 -22 46 -45l42 -42
l1 179v180zM114 112c38 5 65 -19 72 -47c1 -5 1 -7 1 -41l1 -36h624l1 36c0 34 0 36 1 41c17 62 108 61 122 -2c1 -5 1 -8 1 -75s0 -71 -1 -76c-5 -25 -24 -45 -51 -49h-383c-339 0 -382 -1 -387 0c-26 4 -45 24 -51 49c-1 5 -1 9 -1 76s0 70 1 75c6 25 25 44 50 49z" />
  </g>

</svg>
