<?xml version="1.0" standalone="no"?>
<!DOCTYPE svg PUBLIC "-//W3C//DTD SVG 1.1//EN" "http://www.w3.org/Graphics/SVG/1.1/DTD/svg11.dtd" >
<svg xmlns="http://www.w3.org/2000/svg" xmlns:xlink="http://www.w3.org/1999/xlink" version="1.1" viewBox="-10 0 1010 1000">
  <g transform="matrix(1 0 0 -1 0 800)">
   <path fill="currentColor"
d="M234 710c48.3172 37.5801 118.413 36.8335 164 -7c27.3847 -25.9434 48.3679 -64.8445 37 -116c-7 -33 -28 -62 -56 -80c-37 -23 -82 -26 -121 -7c-62 30 -88 105 -58 167c8 17 19 31 34 43zM608 709c46.9541 39.1284 119.629 37.6262 165 -6
c58.3139 -55.6632 50.1413 -152.787 -19 -196c-37 -23 -82 -26 -121 -7c-62 30 -88 105 -58 167c8 17 19 30 33 42zM234 398c47.3962 36.8637 119.53 35.7593 164 -7c27.5676 -26.1167 48.4823 -65.3296 37 -117c-7 -33 -28 -62 -56 -80c-37 -23 -82 -25 -121 -6
c-62 30 -88 105 -58 167c8 17 19 31 34 43zM608 396c46.1829 38.4858 119.797 38.4647 165 -5c58.2253 -55.5787 50.2415 -153.724 -19 -197c-37 -23 -82 -25 -121 -6c-62 30 -88 105 -58 167c8 17 19 29 33 41zM233 84c46.9541 39.1284 119.629 37.6262 165 -6
c27.3847 -25.9434 48.3679 -64.8445 37 -116c-7 -33 -28 -62 -56 -80c-37 -23 -82 -26 -121 -7c-62 30 -88 105 -58 167c8 17 19 30 33 42zM675 112c-47.6536 -3.40383 -82.6566 -35.3131 -100 -70c-30 -62 -4 -137 58 -167c39 -19 84 -16 121 7
c69.1055 43.1909 77.3462 140.306 19 196c-26 25 -62 38 -98 34z" />
  </g>

</svg>
