<?xml version="1.0" standalone="no"?>
<!DOCTYPE svg PUBLIC "-//W3C//DTD SVG 1.1//EN" "http://www.w3.org/Graphics/SVG/1.1/DTD/svg11.dtd" >
<svg xmlns="http://www.w3.org/2000/svg" xmlns:xlink="http://www.w3.org/1999/xlink" version="1.1" viewBox="-10 0 1010 1000">
  <g transform="matrix(1 0 0 -1 0 800)">
   <path fill="currentColor"
d="M81 719c14.5823 14.5823 32.7564 22.8109 60 16c22 -6 39 -23 45 -46c2 -7 2 -22 0 -29c-8.85777 -30.3695 -32.2861 -52.9591 -74 -47c-39.6388 7.20705 -69.8831 68.6722 -31 106zM231 691c8.60262 31.5429 49.1539 61.1888 88 40
c49.4785 -24.7393 43.8427 -95.2629 -3 -114c-42.7173 -17.5895 -75.4068 12.2205 -85 41c-2 5 -1 6 -1 16s0 12 1 17zM400 651c-18.6834 49.8225 34.335 108.726 87 80c19.4556 -10.3763 33 -27.6746 33 -57c0 -10 1 -11 -1 -16c-7.73625 -24.3139 -29.4008 -46 -60 -46
c-27.8494 0 -51.4881 17.9667 -59 39zM581 719c14.5823 14.5823 32.7564 22.8109 60 16c22 -6 39 -23 45 -46c2 -7 2 -22 0 -29c-8.85777 -30.3695 -32.2861 -52.9591 -74 -47c-39.6388 7.20705 -69.8831 68.6722 -31 106zM113 570c39.9398 6.65663 64.718 -19.0129 73 -48
c6.06892 -36.4135 -11.549 -59.4348 -34 -70c-10 -5 -15 -6 -27 -6c-40.777 0 -68.6623 30.0264 -61 76c6 24 25 43 49 48zM302 549c4 1 48 1 294 1h289c25.8068 -8.60225 45.0365 -21.5678 51 -49c1 -5 1 -9 1 -76s0 -71 -1 -76c-6 -28 -30 -48 -58 -49
c-30 -1 -56 18 -64 48c-1 5 -1 7 -1 41l-1 36h-437v-437l67 -1h68c27.0471 -4.50784 44.4776 -22.9976 51 -48c10.3258 -41.3033 -19.9215 -70.8203 -51 -76h-101c-88 0 -102 -1 -107 0c-24.6383 3.79051 -45.108 25.432 -51 49c-1 5 -1 14 -1 294s0 290 1 295
c6 25 26 43 51 48zM63 338c-2.60267 42.9441 37.6845 77.7718 85 62c19 -7 32 -23 38 -44c2 -7 2 -22 0 -29c-7 -28 -30 -47 -58 -48c-31.6269 -1.05423 -65 22.3088 -65 59zM441 280c-13.5664 44.5754 20.8837 88.8738 69 82c8 -1 386 -127 393 -131
c20.1904 -10.0952 41.4215 -36.3141 33 -70c-3 -11 -8 -21 -15 -29c-2 -2 -24 -18 -62 -47l-57 -43l-29 -72c-23 -58 -30 -74 -33 -78c-23.176 -37.9244 -80.3293 -38.0061 -105 -1c-4 7 -192 383 -194 389zM81 219c14.5823 14.5823 32.7564 22.8109 60 16
c22 -6 39 -23 45 -46c2 -7 2 -22 0 -29c-8.85777 -30.3695 -32.2861 -52.9591 -74 -47c-40.2134 6.70224 -69.4868 69.0526 -31 106zM652 135c16 -31 29 -56 29 -56c5.06814 10.8603 18.1358 39.3251 23 45c2 2 12 10 21 17l17 12l-59 20c-32 11 -59 19 -59 19
s12 -26 28 -57z" />
  </g>

</svg>
