<?xml version="1.0" standalone="no"?>
<!DOCTYPE svg PUBLIC "-//W3C//DTD SVG 1.1//EN" "http://www.w3.org/Graphics/SVG/1.1/DTD/svg11.dtd" >
<svg xmlns="http://www.w3.org/2000/svg" xmlns:xlink="http://www.w3.org/1999/xlink" version="1.1" viewBox="-10 0 1010 1000">
  <g transform="matrix(1 0 0 -1 0 800)">
   <path fill="currentColor"
d="M81 719c15 15 33 23 60 16c22 -6 39 -23 45 -46c2 -7 2 -22 0 -29c-9 -30 -32 -53 -74 -47c-40 7 -70 69 -31 106zM231 691c9 32 49 61 88 40c49 -25 44 -95 -3 -114c-43 -18 -75 12 -85 41c-2 5 -1 6 -1 16s0 12 1 17zM400 651c-19 50 34 109 87 80
c19 -10 33 -28 33 -57c0 -10 1 -11 -1 -16c-8 -24 -29 -46 -60 -46c-28 0 -51 18 -59 39zM581 719c15 15 33 23 60 16c22 -6 39 -23 45 -46c2 -7 2 -22 0 -29c-9 -30 -32 -53 -74 -47c-40 7 -70 69 -31 106zM113 570c40 7 65 -19 73 -48c6 -36 -12 -59 -34 -70
c-10 -5 -15 -6 -27 -6c-41 0 -69 30 -61 76c6 24 25 43 49 48zM302 549c4 1 48 1 294 1h289c26 -9 45 -22 51 -49c1 -5 1 -9 1 -76s0 -71 -1 -76c-6 -28 -30 -48 -58 -49c-30 -1 -56 18 -64 48c-1 5 -1 7 -1 41l-1 36h-437v-437l67 -1h68c27 -5 44 -23 51 -48
c10 -41 -20 -71 -51 -76h-101c-88 0 -102 -1 -107 0c-25 4 -45 25 -51 49c-1 5 -1 14 -1 294s0 290 1 295c6 25 26 43 51 48zM63 338c-3 43 38 78 85 62c19 -7 32 -23 38 -44c2 -7 2 -22 0 -29c-7 -28 -30 -47 -58 -48c-32 -1 -65 22 -65 59zM441 280c-14 45 21 89 69 82
c8 -1 386 -127 393 -131c20 -10 41 -36 33 -70c-3 -11 -8 -21 -15 -29c-2 -2 -24 -18 -62 -47l-57 -43l-29 -72c-23 -58 -30 -74 -33 -78c-23 -38 -80 -38 -105 -1c-4 7 -192 383 -194 389zM81 219c15 15 33 23 60 16c22 -6 39 -23 45 -46c2 -7 2 -22 0 -29
c-9 -30 -32 -53 -74 -47c-40 7 -69 69 -31 106zM624 192c-3 3 57 -113 57 -113c5 11 18 39 23 45c2 2 12 10 21 17l17 12l-59 20c-32 11 -59 19 -59 19z" />
  </g>

</svg>
