<?xml version="1.0" standalone="no"?>
<!DOCTYPE svg PUBLIC "-//W3C//DTD SVG 1.1//EN" "http://www.w3.org/Graphics/SVG/1.1/DTD/svg11.dtd" >
<svg xmlns="http://www.w3.org/2000/svg" xmlns:xlink="http://www.w3.org/1999/xlink" version="1.1" viewBox="-10 0 1010 1000">
  <g transform="matrix(1 0 0 -1 0 800)">
   <path fill="currentColor"
d="M456 719c12 12 33 24 59 17c12 -3 22 -9 30 -17c5 -5 262 -391 264 -396c25 -46 34 -93 29 -157c-6 -49 -22 -94 -44 -130c-55 -91 -157 -169 -287 -173c-76 -2 -154 25 -217 76c-66 54 -111 127 -125 205c-12 63 -2 125 27 180c2 3 248 379 264 395zM500 562
c-108.8 -159.574 -202 -305 -202 -305c-49.4566 -126.389 57.5738 -238.532 153 -263c19 -5 29 -6 49 -6c21 0 34 2 53 7c58 16 111 60 140 116c25 48 29 98 9 146c-7 16 -160 242 -202 305z" />
  </g>

</svg>
