<?xml version="1.0" standalone="no"?>
<!DOCTYPE svg PUBLIC "-//W3C//DTD SVG 1.1//EN" "http://www.w3.org/Graphics/SVG/1.1/DTD/svg11.dtd" >
<svg xmlns="http://www.w3.org/2000/svg" xmlns:xlink="http://www.w3.org/1999/xlink" version="1.1" viewBox="-10 0 1010 1000">
  <g transform="matrix(1 0 0 -1 0 800)">
   <path fill="currentColor"
d="M456 719c12.4226 12.4226 33.405 24.3128 59 17c12 -3 22 -9 30 -17c5.47401 -5.47401 261.7 -391.399 264 -396c25.0058 -45.844 34.3102 -93.2771 29 -157c-6.36581 -49.335 -21.5225 -94.036 -44 -130c-54.7355 -90.5967 -157.061 -168.808 -287 -173
c-76 -2 -154 25 -217 76c-66 54 -111 127 -125 205c-12 63 -2 125 27 180c1.76024 2.93373 248.432 379.432 264 395zM468 514c-132 -199 -167 -250 -170 -257c-9.44258 -22.6622 -15.7813 -47.9683 -12 -82c13.4897 -91.0554 87.2995 -161.222 165 -181c19 -5 29 -6 49 -6
c21 0 34 2 53 7c58 16 111 60 140 116c25.4439 47.7074 29.3728 97.6147 9 146c-6.73966 15.7259 -159.911 242.287 -202 305c0 0 -15 -22 -32 -48z" />
  </g>

</svg>
