<?xml version="1.0" standalone="no"?>
<!DOCTYPE svg PUBLIC "-//W3C//DTD SVG 1.1//EN" "http://www.w3.org/Graphics/SVG/1.1/DTD/svg11.dtd" >
<svg xmlns="http://www.w3.org/2000/svg" xmlns:xlink="http://www.w3.org/1999/xlink" version="1.1" viewBox="-10 0 1010 1000">
  <g transform="matrix(1 0 0 -1 0 800)">
   <path fill="currentColor"
d="M519 737c9 1 49 0 58 -1c76.2427 -8.86543 145.474 -39.8031 194 -82c11 -9 32 -32 41 -42c48 -57 76 -122 83 -197c4.45474 -57.9117 -4.8597 -110.121 -20 -151c-11 -31 -25 -58 -39 -75c-24 -31 -49 -56 -80 -81c-28 -23 -54 -60 -71 -101
c-44.3261 -103.428 -187.529 -187.886 -333 -120c-19 9 -45 26 -55 36c-35.8315 35.8315 -11.4029 106 44 106c4 0 10 -1 12 -1c10 -2 19 -6 27 -12c27.1368 -20.3526 52.3718 -31.9587 97 -27c43 7 80 34 95 71c21.2162 52.2244 62.7562 112.043 103 143c22 17 46 41 62 62
c19.3122 25.7497 34.5858 79.597 33 124c0 68.8491 -26.7068 116.707 -64 154c-37 38 -82 60 -136 68c-6 1 -12 1 -28 1c-123.421 0 -205.897 -85.0126 -225 -184c-3 -13 -3 -23 -4 -40c0 -8 -2 -15 -2 -17c-6.96679 -30.6539 -39.1721 -62.8569 -83 -46
c-43.5652 15.8419 -44.2154 54.4919 -36 112c24.7631 165.088 164.426 288.951 327 300zM528 572c-67 -5 -125 -45 -154 -104c-14 -28 -20 -56 -19 -85c0 -43.5734 41.2311 -68.9422 77 -60c23 6 41 25 46 49c0 2 1 8 1 14c0 46.9653 54.4161 78.6137 96 52
c22.3576 -12.7758 37.4283 -49.5402 23 -80c-3 -7 -7 -12 -15 -20c-19.5278 -19.5278 -29.4571 -50.4687 -11 -80c10.5809 -17.1939 26.7042 -28 53 -28c23.7475 0 35.0282 9.02818 49 23c44 45 63 107 51 169c-16.9996 84.9978 -90.2223 155.62 -197 150z" />
  </g>

</svg>
