<?xml version="1.0" standalone="no"?>
<!DOCTYPE svg PUBLIC "-//W3C//DTD SVG 1.1//EN" "http://www.w3.org/Graphics/SVG/1.1/DTD/svg11.dtd" >
<svg xmlns="http://www.w3.org/2000/svg" xmlns:xlink="http://www.w3.org/1999/xlink" version="1.1" viewBox="-10 0 1010 1000">
  <g transform="matrix(1 0 0 -1 0 800)">
   <path fill="currentColor"
d="M519 737c9 1 49 0 58 -1c76 -9 145 -40 194 -82c11 -9 32 -32 41 -42c48 -57 76 -122 83 -197c4 -58 -5 -110 -20 -151c-11 -31 -25 -58 -39 -75c-24 -31 -49 -56 -80 -81c-28 -23 -54 -60 -71 -101c-44 -103 -188 -188 -333 -120c-19 9 -45 26 -55 36
c-36 36 -11 106 44 106c4 0 10 -1 12 -1c10 -2 19 -6 27 -12c27 -20 52 -32 97 -27c43 7 80 34 95 71c21 52 63 112 103 143c22 17 46 41 62 62c19 26 35 80 33 124c0 69 -27 117 -64 154c-37 38 -82 60 -136 68c-6 1 -12 1 -28 1c-123 0 -206 -85 -225 -184
c-3 -13 -3 -23 -4 -40c0 -8 -2 -15 -2 -17c-7 -31 -39 -63 -83 -46c-44 16 -44 54 -36 112c25 165 164 289 327 300zM528 572c107 6 180 -65 197 -150c12 -62 -7 -124 -51 -169c-14 -14 -25 -23 -49 -23c-26 0 -42 11 -53 28c-18 30 -9 60 11 80c8 8 12 13 15 20
c14 30 -1 67 -23 80c-42 27 -96 -5 -96 -52c0 -6 -1 -12 -1 -14c-5 -24 -23 -43 -46 -49c-36 -9 -77 16 -77 60c-1 29 5 57 19 85c29 59 87 99 154 104z" />
  </g>

</svg>
