<?xml version="1.0" standalone="no"?>
<!DOCTYPE svg PUBLIC "-//W3C//DTD SVG 1.1//EN" "http://www.w3.org/Graphics/SVG/1.1/DTD/svg11.dtd" >
<svg xmlns="http://www.w3.org/2000/svg" xmlns:xlink="http://www.w3.org/1999/xlink" version="1.1" viewBox="-10 0 1010 1000">
  <g transform="matrix(1 0 0 -1 0 800)">
   <path fill="currentColor"
d="M230 60c4.31914 24.7874 20.7179 40.627 41 49v129h-71c-24 3 -45 21 -52 45c-1.13938 3.41814 -43 384.412 -43 395c1.91816 30.6906 23.5125 52.8955 52 59c4 1 38 0 178 0h175c26.8104 -4.4684 45.5594 -23.0615 51 -47c3 -11 3 0 -20 -209
c-15 -132 -21 -194 -22 -197c-5 -20 -21 -36 -40 -43c-9 -3 -13 -3 -50 -3h-33v-65c0 -51 -1 -64 0 -64c2 0 13 -6 17 -9c11 -9 20 -23 23 -37c1 -5 1 -8 1 -75s0 -71 -1 -76c-5.44627 -25.0528 -24.0371 -44.5062 -51 -49h-51c-51 0 -51 0 -57 1
c-24.917 6.5001 -42.5087 24.0522 -47 51v145zM796 725c40.1549 30.1162 92.0002 1.99888 99 -40v-770c-4.56647 -27.3988 -24.5283 -48.0755 -52 -52c-5 -1 -10 0 -33 0c-27 0 -28 -1 -34 1c-23.7814 6.48585 -41.6796 25.0776 -46 51v145
c3.73509 22.4105 18.4083 39.5633 37 47c4 2 4 2 4 4v1h-76c-65 0 -75 0 -80 1c-24.412 3.7557 -45.1722 23.6889 -51 47c-1 5 -1 7 -1 30c-1 67 4 127 14 176c23 110 74 205 163 303c13 15 51 52 56 56zM402 363c26.6443 235.992 28 243.05 28 249c0 1 -19 0 -97 0h-97
l14 -124c8 -69 14 -125 14 -125h138zM766 500c-47.7014 -72.589 -72.4262 -142.524 -78 -254v-8h83v134c0 74 -1 134 -1 134s-2 -2 -4 -6z" />
  </g>

</svg>
