<?xml version="1.0" standalone="no"?>
<!DOCTYPE svg PUBLIC "-//W3C//DTD SVG 1.1//EN" "http://www.w3.org/Graphics/SVG/1.1/DTD/svg11.dtd" >
<svg xmlns="http://www.w3.org/2000/svg" xmlns:xlink="http://www.w3.org/1999/xlink" version="1.1" viewBox="-10 0 1010 1000">
  <g transform="matrix(1 0 0 -1 0 800)">
   <path fill="currentColor"
d="M230 60c4 25 21 41 41 49v129h-71c-24 3 -45 21 -52 45c-1 3 -43 384 -43 395c2 31 24 53 52 59c4 1 38 0 178 0h175c27 -4 46 -23 51 -47c3 -11 3 0 -20 -209c-15 -132 -21 -194 -22 -197c-5 -20 -21 -36 -40 -43c-9 -3 -13 -3 -50 -3h-33v-65c0 -51 -1 -64 0 -64
c2 0 13 -6 17 -9c11 -9 20 -23 23 -37c1 -5 1 -8 1 -75s0 -71 -1 -76c-5 -25 -24 -45 -51 -49h-51c-51 0 -51 0 -57 1c-25 6 -43 24 -47 51v145zM796 725c40 30 92 2 99 -40v-770c-5 -27 -25 -48 -52 -52c-5 -1 -10 0 -33 0c-27 0 -28 -1 -34 1c-24 6 -42 25 -46 51v145
c4 22 18 40 37 47c4 2 4 2 4 4v1h-76c-65 0 -75 0 -80 1c-24 4 -45 24 -51 47c-1 5 -1 7 -1 30c-1 67 4 127 14 176c23 110 74 205 163 303c13 15 51 52 56 56zM402 363c27 236 28 243 28 249c0 1 -19 0 -97 0h-97l14 -124c8 -69 14 -125 14 -125h138zM770 506
c-49.7129 -74.5693 -75.8199 -145.668 -82 -260v-8h83v134c0 74 -1 134 -1 134z" />
  </g>

</svg>
