<?xml version="1.0" standalone="no"?>
<!DOCTYPE svg PUBLIC "-//W3C//DTD SVG 1.1//EN" "http://www.w3.org/Graphics/SVG/1.1/DTD/svg11.dtd" >
<svg xmlns="http://www.w3.org/2000/svg" xmlns:xlink="http://www.w3.org/1999/xlink" version="1.1" viewBox="-10 0 1010 1000">
  <g transform="matrix(1 0 0 -1 0 800)">
   <path fill="currentColor"
d="M695 707c52 43 128 50 188 5c7 -5 21 -20 26 -26c25 -32 44 -89 25 -145c-5 -15 -15 -32 -25 -45c-6 -7 -366 -367 -372 -371c-8 -6 -15 -10 -27 -12h-70c-60 0 -70 -1 -75 0c-26 4 -45 24 -51 49c-1 5 -1 9 -1 76c0 79 -1 74 4 85c5 12 -8 0 190 198
c100 100 185 183 188 186zM799 616c-18 4 -19 1 -34 -14l-10 -10l18 -19l19 -18l10 11c9 9 11 11 13 15c7 14 -1 30 -16 35zM105 440c8 68 60 122 128 130h153c26 -5 43 -23 50 -48c2 -6 2 -22 0 -28c-7 -24 -24 -41 -48 -47c-4 -1 -10 -1 -74 -1l-70 -1
c-7 -2 -12 -7 -14 -14v-387c2 -7 7 -12 14 -14h387c7 2 12 7 14 14l1 70c0 76 0 73 4 83c22 57 108 51 120 -11v-72c0 -76 1 -79 -2 -93c-13 -60 -63 -107 -126 -116l-200 -1c-145 0 -202 0 -207 1c-24 2 -48 11 -67 24c-9 6 -14 12 -22 20c-22 22 -36 49 -41 84l-1 200
c0 141 1 202 1 207zM667 503c-76.8521 -75.8146 -153.193 -152.14 -229 -229v-36h36c77 76 153 152 229 229z" />
  </g>

</svg>
