<?xml version="1.0" standalone="no"?>
<!DOCTYPE svg PUBLIC "-//W3C//DTD SVG 1.1//EN" "http://www.w3.org/Graphics/SVG/1.1/DTD/svg11.dtd" >
<svg xmlns="http://www.w3.org/2000/svg" xmlns:xlink="http://www.w3.org/1999/xlink" version="1.1" viewBox="-10 0 1010 1000">
  <g transform="matrix(1 0 0 -1 0 800)">
   <path fill="currentColor"
d="M695 707c51.7108 42.7176 128.312 49.7657 188 5c7 -5 21 -20 26 -26c25.4501 -32.391 44.1361 -89.3313 25 -145c-5 -15 -15 -32 -25 -45c-6 -7 -366 -367 -372 -371c-7.7197 -6.43308 -15.4583 -10.0764 -27 -12h-70c-60 0 -70 -1 -75 0
c-25.6715 3.94946 -44.8583 24.4332 -51 49c-1 5 -1 9 -1 76c0 79 -1 74 4 85c5 12 -8 0 190 198c100 100 185 183 188 186zM799 616c-17.6558 4.41396 -19.3637 0.636286 -34 -14l-10 -10l18 -19l19 -18l10 11c9 9 11 11 13 15c7 14 -1 30 -16 35zM105 440
c7.87236 68.2271 59.8243 121.819 128 130h153c26.4068 -5.28136 43.4611 -23.479 50 -48c2 -6 2 -22 0 -28c-7 -24 -24 -41 -48 -47c-4 -1 -10 -1 -74 -1l-70 -1c-7.02659 -2.3422 -11.6467 -6.93997 -14 -14v-387c2.02648 -6.83765 7.16311 -11.9738 14 -14h387
c7.02659 2.3422 11.6467 6.93997 14 14l1 70c0 76 0 73 4 83c21.7289 57.0383 107.565 51.1759 120 -11v-72c0 -76 1 -79 -2 -93c-12.799 -59.7288 -62.6148 -106.945 -126 -116l-200 -1c-145 0 -202 0 -207 1c-24 2 -48 11 -67 24c-9 6 -14 12 -22 20
c-22.4538 22.4538 -35.9928 48.9493 -41 84l-1 200c0 141 1 202 1 207zM552 389l-114 -115v-36h36c76.8521 75.8146 153.193 152.14 229 229l-36 36l-115 -114z" />
  </g>

</svg>
