<?xml version="1.0" standalone="no"?>
<!DOCTYPE svg PUBLIC "-//W3C//DTD SVG 1.1//EN" "http://www.w3.org/Graphics/SVG/1.1/DTD/svg11.dtd" >
<svg xmlns="http://www.w3.org/2000/svg" xmlns:xlink="http://www.w3.org/1999/xlink" version="1.1" viewBox="-10 0 1010 1000">
  <g transform="matrix(1 0 0 -1 0 800)">
   <path fill="currentColor"
d="M443 730c164 38 253 -82 303 -196c51 -119 79 -276 62 -413c-19 -124 -102 -218 -219 -247c-64 -17 -135 -15 -196 5c-111 36 -191 127 -204 262c-2 24 -3 73 -1 103c12 214 89 442 255 486zM490 612c-27 -4 -46 -13 -67 -34c-56 -56 -98 -180 -109 -323
c-8 -94 0 -151 36 -200c31 -42 81 -67 150 -67c107 0 171 59 185 153c4 24 4 68 1 106c-7 84 -27 172 -55 237c-26 61 -59 104 -93 120c-13 6 -21 8 -36 8h-12z" />
  </g>

</svg>
