<?xml version="1.0" standalone="no"?>
<!DOCTYPE svg PUBLIC "-//W3C//DTD SVG 1.1//EN" "http://www.w3.org/Graphics/SVG/1.1/DTD/svg11.dtd" >
<svg xmlns="http://www.w3.org/2000/svg" xmlns:xlink="http://www.w3.org/1999/xlink" version="1.1" viewBox="-10 0 1010 1000">
  <g transform="matrix(1 0 0 -1 0 800)">
   <path fill="currentColor"
d="M443 730c164.104 37.8702 252.979 -82.0624 303 -196c50.8368 -119.004 79.1513 -275.789 62 -413c-19.1682 -123.528 -102.322 -217.831 -219 -247c-64 -17 -135 -15 -196 5c-110.702 36.4152 -191.138 126.953 -204 262c-2 24 -3 73 -1 103
c12.2672 213.799 88.8647 442.159 255 486zM490 612c-27 -4 -46 -13 -67 -34c-56 -56 -98 -180 -109 -323c-8.32692 -93.6779 0.464618 -151.139 36 -200c31.3785 -41.838 80.5226 -67 150 -67c107.235 0 170.54 59.0102 185 153c4 24 4 68 1 106c-7 84 -27 172 -55 237
c-26 61 -59 104 -93 120c-13 6 -21 8 -36 8h-12z" />
  </g>

</svg>
