<?xml version="1.0" standalone="no"?>
<!DOCTYPE svg PUBLIC "-//W3C//DTD SVG 1.1//EN" "http://www.w3.org/Graphics/SVG/1.1/DTD/svg11.dtd" >
<svg xmlns="http://www.w3.org/2000/svg" xmlns:xlink="http://www.w3.org/1999/xlink" version="1.1" viewBox="-10 0 1010 1000">
  <g transform="matrix(1 0 0 -1 0 800)">
   <path fill="currentColor"
d="M472 731c14 9 37 9 55 1c4 -1 383 -254 392 -263s15 -19 18 -34v-457c-6 -28 -25 -47 -51 -52c-4 -1 -48 -1 -386 -1c-370 0 -382 0 -387 1c-26 5 -45 25 -50 52v457c3 15 8 26 18 35c3 3 389 260 391 261zM500 599l-262 -174c0 -1 261 -174 262 -174s262 173 262 174
s-261 174 -262 174zM188 223v-85l50 51c28 28 51 52 51 52s-99 66 -101 67c-1 0 0 -17 0 -85zM761 274l-50 -34c34 -34 68 -68 101 -102v170s-23 -15 -51 -34zM336 110l-60 -60h448l-119 119l-37 -24c-20 -13 -38 -26 -41 -27c-17 -8 -38 -7 -55 1l-76 50s-27 -26 -60 -59z
" />
  </g>

</svg>
