<?xml version="1.0" standalone="no"?>
<!DOCTYPE svg PUBLIC "-//W3C//DTD SVG 1.1//EN" "http://www.w3.org/Graphics/SVG/1.1/DTD/svg11.dtd" >
<svg xmlns="http://www.w3.org/2000/svg" xmlns:xlink="http://www.w3.org/1999/xlink" version="1.1" viewBox="-10 0 1010 1000">
  <g transform="matrix(1 0 0 -1 0 800)">
   <path fill="currentColor"
d="M114 674c4 1 62 1 388 1h383c26 -9 45 -22 51 -49c1 -5 1 -15 1 -326s0 -321 -1 -326c-6 -27 -25 -40 -51 -49h-383c-339 0 -382 0 -387 1c-26 4 -45 23 -51 48c-1 5 -1 15 -1 326s0 321 1 326c6 25 25 43 50 48zM228 549c1 -1 63 -48 137 -106l135 -106l273 213h-273
c-266 0 -273 0 -272 -1zM188 236v-186h624v186c0 145 1 185 0 185c-2 0 -275 -214 -281 -217c-10 -6 -19 -8 -31 -8c-13 0 -24 3 -34 10c-14 9 -277 215 -278 215s0 -36 0 -185z" />
  </g>

</svg>
