<?xml version="1.0" standalone="no"?>
<!DOCTYPE svg PUBLIC "-//W3C//DTD SVG 1.1//EN" "http://www.w3.org/Graphics/SVG/1.1/DTD/svg11.dtd" >
<svg xmlns="http://www.w3.org/2000/svg" xmlns:xlink="http://www.w3.org/1999/xlink" version="1.1" viewBox="-10 0 1010 1000">
  <g transform="matrix(1 0 0 -1 0 800)">
   <path fill="currentColor"
d="M472 731c14.3102 8.58614 37.0225 9.17159 55 1c3.95487 -1.31829 382.669 -253.669 392 -263c9.30304 -9.30304 15.0245 -19.1223 18 -34v-457c-5.61288 -28.0644 -24.5206 -46.7041 -51 -52c-4 -1 -48 -1 -386 -1c-370 0 -382 0 -387 1
c-26.073 5.43188 -44.5843 24.9216 -50 52v457c2.94475 14.7237 7.70905 25.8525 18 35c3.35771 3.35771 389.064 260.032 391 261zM500 599c-0.2 0 -262 -173.994 -262 -174c0 -1 261 -174 262 -174s262 173 262 174s-261 174 -262 174zM188 223v-85l50 51
c28 28 51 52 51 52s-99 66 -101 67c-1 0 0 -17 0 -85zM761 274l-50 -34c33.9251 -33.7416 67.6 -67.7334 101 -102v170s-23 -15 -51 -34zM336 110l-60 -60h448l-119 119l-37 -24c-20 -13 -38 -26 -41 -27c-17 -8 -38 -7 -55 1c0 0 -75.852 49.904 -76 50
c0 0 -27 -26 -60 -59z" />
  </g>

</svg>
