<?xml version="1.0" standalone="no"?>
<!DOCTYPE svg PUBLIC "-//W3C//DTD SVG 1.1//EN" "http://www.w3.org/Graphics/SVG/1.1/DTD/svg11.dtd" >
<svg xmlns="http://www.w3.org/2000/svg" xmlns:xlink="http://www.w3.org/1999/xlink" version="1.1" viewBox="-10 0 1010 1000">
  <g transform="matrix(1 0 0 -1 0 800)">
   <path fill="currentColor"
d="M177 487c4 1 52 0 325 0h320c27.0471 -4.50784 44.4776 -22.9976 51 -48c10.3258 -41.3033 -19.9215 -70.8203 -51 -76h-320c-284 0 -320 -1 -325 0c-35.9427 5.52965 -69.9853 54.0221 -42 96c9 14 25 25 42 28zM177 237c-25.6019 -4.51798 -42.8505 -22.9769 -50 -48
c-6.36148 -25.4459 5.17576 -46.1758 17 -58c9 -9 20 -16 33 -18c5 -1 41 0 325 0h320c27.0471 4.50784 44.4776 22.9976 51 48c10.3258 41.3033 -19.9215 70.8203 -51 76h-320c-273 0 -321 1 -325 0z" />
  </g>

</svg>
