<?xml version="1.0" standalone="no"?>
<!DOCTYPE svg PUBLIC "-//W3C//DTD SVG 1.1//EN" "http://www.w3.org/Graphics/SVG/1.1/DTD/svg11.dtd" >
<svg xmlns="http://www.w3.org/2000/svg" xmlns:xlink="http://www.w3.org/1999/xlink" version="1.1" viewBox="-10 0 1010 1000">
  <g transform="matrix(1 0 0 -1 0 800)">
   <path fill="currentColor"
d="M177 487c4 1 52 0 325 0h320c27 -5 44 -23 51 -48c10 -41 -20 -71 -51 -76h-320c-284 0 -320 -1 -325 0c-36 6 -70 54 -42 96c9 14 25 25 42 28zM177 237c4 1 52 0 325 0h320c31 -5 61 -35 51 -76c-7 -25 -24 -43 -51 -48h-320c-284 0 -320 -1 -325 0
c-31.2009 4.80013 -59.2402 37.4994 -50 76c7 25 24 43 50 48z" />
  </g>

</svg>
