<?xml version="1.0" standalone="no"?>
<!DOCTYPE svg PUBLIC "-//W3C//DTD SVG 1.1//EN" "http://www.w3.org/Graphics/SVG/1.1/DTD/svg11.dtd" >
<svg xmlns="http://www.w3.org/2000/svg" xmlns:xlink="http://www.w3.org/1999/xlink" version="1.1" viewBox="-10 0 1010 1000">
  <g transform="matrix(1 0 0 -1 0 800)">
   <path fill="currentColor"
d="M601 724c35 5 59 -8 79 -24c8 -7 220 -220 224 -225c28 -39 27 -90 -3 -128c-28 -28 -219 -221 -274 -276c0 0 40 -1 88 -1h88c49 -10 68 -68 33 -105c-11 -11 -22 -17 -38 -19h-240c-215 0 -233 0 -237 1c-10 2 -18 6 -25 11l-92 92c-92 92 -92 91 -99 103
c-9 16 -16 41 -12 66c3 17 9 32 19 46c13 18 432 433 435 436c15 12 33 20 54 23zM613 591c-14 -12 -27 -25 -39 -39l178 -178c14 12 27 25 39 39zM485 464c-86 -87 -172 -174 -259 -260c45 -44 90 -88 134 -133h89c71 72 143 143 215 214c-59 60 -119 120 -179 179z" />
  </g>

</svg>
