<?xml version="1.0" standalone="no"?>
<!DOCTYPE svg PUBLIC "-//W3C//DTD SVG 1.1//EN" "http://www.w3.org/Graphics/SVG/1.1/DTD/svg11.dtd" >
<svg xmlns="http://www.w3.org/2000/svg" xmlns:xlink="http://www.w3.org/1999/xlink" version="1.1" viewBox="-10 0 1010 1000">
  <g transform="matrix(1 0 0 -1 0 800)">
   <path fill="currentColor"
d="M601 724c35.0427 5.00609 59.2197 -8.45832 79 -24c8 -7 220 -220 224 -225c28.3004 -39.1852 27.374 -90.0325 -3 -128c-27.4998 -27.4998 -219.203 -220.797 -274 -276c0 0 40 -1 88 -1h88c48.7912 -9.75823 67.5241 -67.8202 33 -105c-11 -11 -22 -17 -38 -19h-240
c-215 0 -233 0 -237 1c-10 2 -18 6 -25 11l-92 92c-92 92 -92 91 -99 103c-9.43549 15.7258 -16.189 40.8658 -12 66c3 17 9 32 19 46c13.1267 17.5023 432.416 433.416 435 436c15 12 33 20 54 23zM613 591c-13.5187 -12.4813 -26.5262 -25.4738 -39 -39l178 -178
c13.5187 12.4813 26.5262 25.4738 39 39zM356 334l-130 -130c44.9287 -44.0713 89.5957 -88.4043 134 -133h89c71.4068 71.5932 143.072 142.928 215 214c-59.1479 60.1854 -118.807 119.86 -179 179l-129 -130z" />
  </g>

</svg>
