<?xml version="1.0" standalone="no"?>
<!DOCTYPE svg PUBLIC "-//W3C//DTD SVG 1.1//EN" "http://www.w3.org/Graphics/SVG/1.1/DTD/svg11.dtd" >
<svg xmlns="http://www.w3.org/2000/svg" xmlns:xlink="http://www.w3.org/1999/xlink" version="1.1" viewBox="-10 0 1010 1000">
  <g transform="matrix(1 0 0 -1 0 800)">
   <path fill="currentColor"
d="M456 719c15 15 33 23 60 16c11 -3 22 -10 30 -18c4 -5 257 -383 260 -389c8 -18 8 -38 0 -56c-3 -6 -256 -384 -260 -389c-24 -27 -67 -25 -90 -2c-16 16 -262 390 -262 391c-8 18 -8 38 0 56c0 1 246 375 262 391zM500 562c-27 -40 -7 -10 -67 -100c23 9 51 31 83 23
c5 -1 10 -3 28 -12c12 -6 23 -11 23 -11c-60 90 -54 80 -67 100zM500 355c-29 -14 -58 -29 -87 -43c29 -10 58 -20 87 -29c29 9 58 19 87 29l-44 21c-24 12 -43 22 -43 22zM451 111c27 -40 49 -73 49 -73s22 33 49 73l48 72l-41 -14c-22 -7 -43 -14 -45 -14s-8 -1 -11 -1
s-9 1 -11 1s-23 7 -45 14l-41 14z" />
  </g>

</svg>
