<?xml version="1.0" standalone="no"?>
<!DOCTYPE svg PUBLIC "-//W3C//DTD SVG 1.1//EN" "http://www.w3.org/Graphics/SVG/1.1/DTD/svg11.dtd" >
<svg xmlns="http://www.w3.org/2000/svg" xmlns:xlink="http://www.w3.org/1999/xlink" version="1.1" viewBox="-10 0 1010 1000">
  <g transform="matrix(1 0 0 -1 0 800)">
   <path fill="currentColor"
d="M456 719c14.5823 14.5823 32.7564 22.8109 60 16c11 -3 22 -10 30 -18c4 -5 257 -383 260 -389c8 -18 8 -38 0 -56c-3 -6 -256 -384 -260 -389c-24.4624 -27.1805 -67.4246 -24.5754 -90 -2c-15.7787 15.7787 -261.539 390.079 -262 391c-8 18 -8 38 0 56
c0.460654 0.921308 246.221 375.221 262 391zM500 562c-27.0735 -39.814 -7.32691 -9.58623 -67 -100c23.0542 9.22182 50.558 31.1105 83 23c5 -1 10 -3 28 -12c12 -6 23 -11 23 -11c-59.6732 90.414 -53.6462 79.9692 -67 100zM500 355
c-28.8672 -14.4336 -57.8551 -28.7664 -87 -43c28.7485 -9.91816 57.7291 -19.6043 87 -29c29.2672 9.39945 58.2552 19.0781 87 29l-44 21c-24 12 -43 22 -43 22zM451 111c27 -40 49 -73 49 -73s22 33 49 73l48 72l-41 -14c-22 -7 -43 -14 -45 -14s-8 -1 -11 -1s-9 1 -11 1
s-23 7 -45 14l-41 14l48 -72z" />
  </g>

</svg>
