<?xml version="1.0" standalone="no"?>
<!DOCTYPE svg PUBLIC "-//W3C//DTD SVG 1.1//EN" "http://www.w3.org/Graphics/SVG/1.1/DTD/svg11.dtd" >
<svg xmlns="http://www.w3.org/2000/svg" xmlns:xlink="http://www.w3.org/1999/xlink" version="1.1" viewBox="-10 0 1010 1000">
  <g transform="matrix(1 0 0 -1 0 800)">
   <path fill="currentColor"
d="M523 737c-121 -9 -228 -91 -288 -218c-9.02947 -19.1876 -20.333 -44.6652 -24 -63h-45c-38 0 -46 0 -51 -1c-30.5151 -4.69463 -61.468 -34.1279 -51 -76c6.0896 -24.3584 25.4417 -43.068 51 -47c4 -1 12 -1 39 -1h34v-62h-34c-27 0 -35 0 -39 -1
c-30.5151 -4.69463 -61.468 -34.1279 -51 -76c6.0896 -24.3584 25.4417 -43.068 51 -47c5 -1 13 -1 51 -1h45c2.61822 -7.85465 3.33002 -13.1034 8 -24c32 -88 87 -159 156 -205c118.333 -78.8889 262.117 -64.6423 367 20c25 20 55 53 63 68
c15.6886 29.951 3.09232 67.7446 -19 81c-10.6339 6.38031 -18.5794 10 -36 10c-16.2445 0 -17.2559 -2.41865 -28 -6c-10 -5 -14 -10 -27 -25c-31.1989 -35.6559 -77.941 -67.0474 -128 -74c-9 -1 -34 -1 -43 0c-71.1686 10.6753 -129.418 61.7909 -163 120
c-5 9 -17 33 -17 34s29 1 112 1c97 0 112 0 117 1c29.799 4.76785 60.5026 33.9896 50 76c-6.5001 24.917 -24.0522 42.5087 -51 47l-129 1h-129c-1.91677 7.66708 -2.64341 54.0698 0 62h129l129 1c29.8181 4.96968 53 27.6854 53 62c0 35.5343 -23.8662 56.1732 -53 62
h-114l-114 1l7 13c21.6928 46.4846 53.542 85.028 91 110c25 17 51 27 80 31c10 2 34 2 45 0c49.1257 -6.63861 101.138 -38.5167 130 -77c16.4184 -18.9443 25.4593 -28 53 -28c26.991 0 40.8083 10.2125 52 27c13 19 14 43 3 64c-7 13 -34 42 -56 61
c-45.2611 39.3575 -103.966 70.3206 -175 78c-11 1 -41 2 -51 1z" />
  </g>

</svg>
