<?xml version="1.0" standalone="no"?>
<!DOCTYPE svg PUBLIC "-//W3C//DTD SVG 1.1//EN" "http://www.w3.org/Graphics/SVG/1.1/DTD/svg11.dtd" >
<svg xmlns="http://www.w3.org/2000/svg" xmlns:xlink="http://www.w3.org/1999/xlink" version="1.1" viewBox="-10 0 1010 1000">
  <g transform="matrix(1 0 0 -1 0 800)">
   <path fill="currentColor"
d="M523 737c10 1 40 0 51 -1c71 -8 130 -39 175 -78c22 -19 49 -48 56 -61c11 -21 10 -45 -3 -64c-11 -17 -25 -27 -52 -27c-28 0 -37 9 -53 28c-29 38 -81 70 -130 77c-11 2 -35 2 -45 0c-29 -4 -55 -14 -80 -31c-37 -25 -69 -64 -91 -110l-7 -13l114 -1h114
c29 -6 53 -26 53 -62c0 -34 -23 -57 -53 -62l-129 -1h-129c-3 -8 -2 -54 0 -62h129l129 -1c27 -4 45 -22 51 -47c11 -42 -20 -71 -50 -76c-5 -1 -20 -1 -117 -1c-83 0 -112 0 -112 -1s12 -25 17 -34c34 -58 92 -109 163 -120c9 -1 34 -1 43 0c50 7 97 38 128 74
c13 15 17 20 27 25c11 4 12 6 28 6c17 0 25 -4 36 -10c22 -13 35 -51 19 -81c-8 -15 -38 -48 -63 -68c-105 -85 -249 -99 -367 -20c-69 46 -124 117 -156 205c-5 11 -5 16 -8 24h-45c-38 0 -46 0 -51 1c-26 4 -45 23 -51 47c-10 42 20 71 51 76c4 1 12 1 39 1h34v62h-34
c-27 0 -35 0 -39 1c-26 4 -45 23 -51 47c-10 42 20 71 51 76c5 1 13 1 51 1h45c4 18 15 44 24 63c60 127 167 209 288 218z" />
  </g>

</svg>
