<?xml version="1.0" standalone="no"?>
<!DOCTYPE svg PUBLIC "-//W3C//DTD SVG 1.1//EN" "http://www.w3.org/Graphics/SVG/1.1/DTD/svg11.dtd" >
<svg xmlns="http://www.w3.org/2000/svg" xmlns:xlink="http://www.w3.org/1999/xlink" version="1.1" viewBox="-10 0 1010 1000">
  <g transform="matrix(1 0 0 -1 0 800)">
   <path fill="currentColor"
d="M439 626c7 30 36 57 77 47c23 -6 40 -24 45 -47c1 -5 1 -13 1 -232s0 -227 -1 -232c-6 -28 -30 -48 -58 -49c-30 -2 -57 19 -64 49c-1 5 -1 13 -1 232s0 227 1 232zM438 -12c0 65 81 81 114 34c23 -35 7 -81 -33 -94c-39 -12 -81 14 -81 60z" />
  </g>

</svg>
