<?xml version="1.0" standalone="no"?>
<!DOCTYPE svg PUBLIC "-//W3C//DTD SVG 1.1//EN" "http://www.w3.org/Graphics/SVG/1.1/DTD/svg11.dtd" >
<svg xmlns="http://www.w3.org/2000/svg" xmlns:xlink="http://www.w3.org/1999/xlink" version="1.1" viewBox="-10 0 1010 1000">
  <g transform="matrix(1 0 0 -1 0 800)">
   <path fill="currentColor"
d="M751 237c23 0 42 -5 60 -10c1 0 2 0 2 1c0 0 -25 86 -55 192l-55 192h-41c-34 0 -42 0 -47 1c-30 5 -61 35 -51 76c6 24 26 44 51 48c5 1 15 0 75 0h70c23 -4 41 -19 48 -39c3 -8 128 -446 129 -452c1 -4 0 -33 0 -109c0 -114 0 -107 -4 -126c-17 -78 -80 -136 -159 -147
c-11 -2 -36 -2 -47 0c-76 12 -126 56 -151 117l-3 6h-146l-3 -6c-16 -42 -47 -76 -87 -97c-47 -25 -104 -28 -154 -9c-59 23 -103 74 -116 136c-4 19 -4 12 -4 126c0 76 -1 105 0 109c1 6 126 444 129 452c8 19 25 34 47 39c4 1 17 0 75 0h71c27 -5 44 -23 51 -48
c10 -39 -18 -67 -45 -74l-6 -2h-44l-44 -1l-55 -192c-30 -106 -55 -192 -55 -192c0 -1 1 -1 2 -1c60 22 133 5 174 -27c28 -21 48 -49 61 -81l3 -6h146l3 6c23 59 75 103 137 115c15 3 21 3 38 3zM250 -12c36 0 62 26 62 62c0 39 -31 68 -73 62c-28 -6 -51 -28 -51 -62
c0 -36 26 -62 62 -62zM742 112c-31 -4 -54 -28 -54 -62c0 -36 26 -62 62 -62s62 26 62 62c0 37 -28 61 -60 62h-10z" />
  </g>

</svg>
