<?xml version="1.0" standalone="no"?>
<!DOCTYPE svg PUBLIC "-//W3C//DTD SVG 1.1//EN" "http://www.w3.org/Graphics/SVG/1.1/DTD/svg11.dtd" >
<svg xmlns="http://www.w3.org/2000/svg" xmlns:xlink="http://www.w3.org/1999/xlink" version="1.1" viewBox="-10 0 1010 1000">
  <g transform="matrix(1 0 0 -1 0 800)">
   <path fill="currentColor"
d="M751 237c23.3125 0 41.8238 -5.45595 60 -10c1 0 2 0 2 1c0 0 -25 86 -55 192l-55 192h-41c-34 0 -42 0 -47 1c-29.7595 4.57838 -61.211 35.1559 -51 76c5.9845 23.938 25.9528 44.1466 51 48c5 1 15 0 75 0h70c23.1659 -3.86098 41.2284 -18.6851 48 -39
c3 -8 128 -446 129 -452c1 -4 0 -33 0 -109c0 -114 0 -107 -4 -126c-17.4043 -78.3194 -79.9684 -136.153 -159 -147c-11 -2 -36 -2 -47 0c-76.1988 12.1918 -126.425 55.5634 -151 117l-3 6h-146l-3 -6c-16 -42 -47 -76 -87 -97c-47 -25 -104 -28 -154 -9
c-59 23 -103 74 -116 136c-4 19 -4 12 -4 126c0 76 -1 105 0 109c1 6 126 444 129 452c7.65499 19.1375 25.395 34.1989 47 39c4 1 17 0 75 0h71c27.0471 -4.50784 44.4776 -22.9976 51 -48c9.82512 -39.3005 -18.0495 -66.9694 -45 -74l-6 -2h-44l-44 -1l-55 -192
c-30 -106 -55 -192 -55 -192c0 -1 1 -1 2 -1c59.7043 22.3891 132.674 4.7893 174 -27c28 -21 48 -49 61 -81l3 -6h146l3 6c23 59 75 103 137 115c15 3 21 3 38 3zM250 -12c35.9688 0 62 26.0521 62 62c0 38.5145 -31.317 67.9547 -73 62
c-27.6711 -6.38564 -51 -28.0959 -51 -62c0 -35.9688 26.0521 -62 62 -62zM742 112c-30.9016 -4.41451 -54 -27.7669 -54 -62c0 -36.2784 25.996 -62 62 -62c36.2784 0 62 25.996 62 62c0 37.2901 -27.9945 60.8569 -60 62h-10z" />
  </g>

</svg>
