<?xml version="1.0" standalone="no"?>
<!DOCTYPE svg PUBLIC "-//W3C//DTD SVG 1.1//EN" "http://www.w3.org/Graphics/SVG/1.1/DTD/svg11.dtd" >
<svg xmlns="http://www.w3.org/2000/svg" xmlns:xlink="http://www.w3.org/1999/xlink" version="1.1" viewBox="-10 0 1010 1000">
  <g transform="matrix(1 0 0 -1 0 800)">
   <path fill="currentColor"
d="M175 737h74c74 0 73 0 83 -3c26 -9 50 -36 41 -73c-7 -25 -24 -43 -51 -48h-67l-67 -1l-1 -67c0 -67 0 -67 -1 -72c-16 -63 -105 -63 -122 0c-1 5 -1 6 -1 74c0 73 -1 78 2 91c11 53 56 93 110 99zM824 737c60 -6 107 -54 113 -114v-76c0 -68 0 -69 -1 -74
c-16 -63 -105 -63 -122 0c-1 5 -1 5 -1 72l-1 67h-64c-70 0 -71 1 -80 4c-23 9 -43 28 -43 59c0 34 24 57 52 62c4 1 17 0 73 0h74zM427 460c23 -35 7 -82 -33 -95c-36 -11 -70 12 -80 46c-16 63 72 107 113 49zM563 425c0 65 81 83 114 35c23 -35 7 -82 -33 -95
c-38 -11 -81 15 -81 60zM314 189c9 32 36 56 77 46c11 -3 19 -7 29 -16c20 -17 61 -31 103 -23c25 3 43 10 58 23c20 20 55 26 82 6c14 -11 24 -26 24 -50c0 -26 -9 -37 -27 -53c-31 -27 -73 -44 -121 -50c-76 -10 -151 9 -199 50c-15 13 -22 24 -26 39c-2 8 -2 20 0 28z
M64 127c8 30 36 56 77 46c22 -6 39 -23 45 -46c1 -5 1 -5 1 -72l1 -67l67 -1h67c27 -5 44 -23 51 -48c9.24634 -38.5264 -18.8233 -71.2036 -50 -76c-5 -1 -15 -1 -73 -1c-42 0 -70 1 -74 1c-54 5 -100 45 -111 99c-3 13 -2 18 -2 91c0 68 0 69 1 74zM864 174
c39 6 64 -18 72 -47c1 -5 1 -6 1 -74v-76c-6 -59 -54 -108 -113 -114c-4 0 -32 -1 -74 -1c-58 0 -68 0 -73 1c-24 4 -44 25 -50 48c-10 40 21 72 50 76c5 1 16 1 71 1h64l1 67c0 67 0 67 1 72c7 25 25 42 50 47z" />
  </g>

</svg>
