<?xml version="1.0" standalone="no"?>
<!DOCTYPE svg PUBLIC "-//W3C//DTD SVG 1.1//EN" "http://www.w3.org/Graphics/SVG/1.1/DTD/svg11.dtd" >
<svg xmlns="http://www.w3.org/2000/svg" xmlns:xlink="http://www.w3.org/1999/xlink" version="1.1" viewBox="-10 0 1010 1000">
  <g transform="matrix(1 0 0 -1 0 800)">
   <path fill="currentColor"
d="M177 737c4 1 34 0 200 0h195l6 -1c13 -4 7 0 147 -105c89 -67 131 -98 133 -101c7 -8 14 -18 16 -29c1 -5 1 -15 1 -295s0 -289 -1 -294c-5 -25 -25 -45 -52 -49h-320c-284 0 -320 -1 -325 0c-25 4 -45 25 -51 49c-1 5 -1 16 -1 388s0 383 1 388c6 25 26 44 51 49z
M250 612v-624h500v437h-96c-83 0 -97 0 -102 1c-25 4 -43 22 -50 47c-1 5 -2 5 -2 72v67h-250zM344 300c0 52.9387 56.1022 78.2986 99 51c19 -19 38 -38 57 -56l27 27c16 16 29 27 31 29c43 30 98 -1 98 -51c0 -10 -2 -16 -5 -24c-4 -10 -7 -14 -36 -43l-27 -27l27 -27
c22 -22 28 -28 31 -32c8 -11 14 -30 9 -49c-10 -41 -58 -63 -97 -37c-2 2 -15 14 -31 30l-27 27l-27 -27c-15 -15 -28 -27 -30 -29c-39 -30 -99 -2 -99 50c0 10 2 17 5 25c4 10 7 13 36 42l27 27l-27 27c-29 29 -32 33 -36 43c-3 8 -5 14 -5 24z" />
  </g>

</svg>
