<?xml version="1.0" standalone="no"?>
<!DOCTYPE svg PUBLIC "-//W3C//DTD SVG 1.1//EN" "http://www.w3.org/Graphics/SVG/1.1/DTD/svg11.dtd" >
<svg xmlns="http://www.w3.org/2000/svg" xmlns:xlink="http://www.w3.org/1999/xlink" version="1.1" viewBox="-10 0 1010 1000">
  <g transform="matrix(1 0 0 -1 0 800)">
   <path fill="currentColor"
d="M177 737c4 1 34 0 200 0h195l6 -1c13 -4 7 0 147 -105c89 -67 131 -98 133 -101c7 -8 14 -18 16 -29c1 -5 1 -15 1 -295s0 -289 -1 -294c-5.43619 -25.0065 -25.102 -44.517 -52 -49h-320c-284 0 -320 -1 -325 0c-24.6383 3.79051 -45.108 25.432 -51 49
c-1 5 -1 16 -1 388s0 383 1 388c6 25 26 44 51 49zM250 612v-624h500v437h-96c-83 0 -97 0 -102 1c-25 4 -43 22 -50 47c-1 5 -2 5 -2 72v67h-250zM333 549c4 1 12 1 44 1h39c25.9421 -8.64736 43.8666 -20.6553 51 -48c9.97194 -39.8877 -17.7005 -67.8784 -45 -75l-6 -2
h-38c-33 0 -39 0 -44 1c-30.5151 4.69463 -61.468 34.1279 -51 76c6.92495 24.2373 25.0625 42.5993 50 47zM635 331c28.4533 -9.48443 52 -24.3889 52 -62c0 -35.5593 -21.6233 -56.9372 -52 -62l-132 -1c-116 0 -133 0 -138 1c-30.5151 4.69463 -61.468 34.1279 -51 76
c6.92495 24.2373 25.0625 42.5993 50 47c4 1 26 1 138 1h133zM520 143c-27.3976 -4.83488 -51 -28.1573 -51 -62c0 -34.3868 22.9871 -56.5365 52 -61c5 -1 14 -1 60 -1h54c25.9421 8.64736 43.8666 20.6553 51 48c10.4998 41.9994 -19.4834 70.7472 -51 76l-55 1
c-45 0 -56 0 -60 -1z" />
  </g>

</svg>
