<?xml version="1.0" standalone="no"?>
<!DOCTYPE svg PUBLIC "-//W3C//DTD SVG 1.1//EN" "http://www.w3.org/Graphics/SVG/1.1/DTD/svg11.dtd" >
<svg xmlns="http://www.w3.org/2000/svg" xmlns:xlink="http://www.w3.org/1999/xlink" version="1.1" viewBox="-10 0 1010 1000">
  <g transform="matrix(1 0 0 -1 0 800)">
   <path fill="currentColor"
d="M177 737c4 1 34 0 200 0h195l6 -1c13 -4 7 0 147 -105c89 -67 131 -98 133 -101c7 -8 14 -18 16 -29c1 -5 1 -15 1 -295s0 -289 -1 -294c-5.43619 -25.0065 -25.102 -44.517 -52 -49h-320c-284 0 -320 -1 -325 0c-24.6383 3.79051 -45.108 25.432 -51 49
c-1 5 -1 16 -1 388s0 383 1 388c6 25 26 44 51 49zM250 612v-624h500v437h-96c-83 0 -97 0 -102 1c-25 4 -43 22 -50 47c-1 5 -2 5 -2 72v67h-250zM364 362c-25 -5 -44 -24 -50 -49c-1 -5 -1 -10 -1 -107s0 -102 1 -107c7 -30 34 -51 64 -49c28 1 51 21 58 48c1 3 1 6 1 7
s1 1 1 1v-1c0 -1 0 -4 1 -7c7 -29 34 -49 64 -48c28 1 51 21 58 48c1 3 1 6 1 7v1s1 0 1 -1s0 -4 1 -7c7 -29 34 -49 64 -48c28 1 52 21 58 49c1 5 1 9 1 76s0 71 -1 76c-6 28 -30 48 -58 49c-30 1 -56 -18 -64 -48c-1 -5 -1 -7 -1 -54c0 -27 -1 -46 -1 -46
c0 25.3397 -24.6644 46.1812 -46 52c-34 9 -69 -12 -77 -46c-1 -3 -1 -5 -1 -6c0 0 -1 34 -1 78c0 79 0 80 -1 85c-7.39638 28.3528 -34.4383 52.366 -72 47z" />
  </g>

</svg>
