<?xml version="1.0" standalone="no"?>
<!DOCTYPE svg PUBLIC "-//W3C//DTD SVG 1.1//EN" "http://www.w3.org/Graphics/SVG/1.1/DTD/svg11.dtd" >
<svg xmlns="http://www.w3.org/2000/svg" xmlns:xlink="http://www.w3.org/1999/xlink" version="1.1" viewBox="-10 0 1010 1000">
  <g transform="matrix(1 0 0 -1 0 800)">
   <path fill="currentColor"
d="M177 737c4 1 34 0 200 0h195l6 -1c13 -4 7 0 147 -105c89 -67 131 -98 133 -101c7 -8 14 -18 16 -29c1 -5 1 -15 1 -295s0 -289 -1 -294c-5 -25 -25 -45 -52 -49h-320c-284 0 -320 -1 -325 0c-25 4 -45 25 -51 49c-1 5 -1 16 -1 388s0 383 1 388c6 25 26 44 51 49z
M250 612v-624h500v437h-96c-83 0 -97 0 -102 1c-25 4 -43 22 -50 47c-1 5 -2 5 -2 72v67h-250zM469 331c0 51.7131 60.6902 82.1626 100 50c3 -2 33 -33 70 -70c71 -71 70 -70 75 -81c3 -8 4 -14 4 -24s-1 -16 -4 -24c-5 -11 -4 -10 -75 -81c-37 -37 -67 -68 -70 -70
c-40 -28 -100 -4 -100 50c0 27 7 33 25 51l11 12h-67c-58 0 -68 0 -73 1c-26 4 -45 23 -51 47c-10 42 20 71 51 76c5 1 15 1 73 1h67l-11 11c-18 18 -25 25 -25 51z" />
  </g>

</svg>
