<?xml version="1.0" standalone="no"?>
<!DOCTYPE svg PUBLIC "-//W3C//DTD SVG 1.1//EN" "http://www.w3.org/Graphics/SVG/1.1/DTD/svg11.dtd" >
<svg xmlns="http://www.w3.org/2000/svg" xmlns:xlink="http://www.w3.org/1999/xlink" version="1.1" viewBox="-10 0 1010 1000">
  <g transform="matrix(1 0 0 -1 0 800)">
   <path fill="currentColor"
d="M177 737c4 1 34 0 200 0h195l6 -1c13 -4 7 0 147 -105c89 -67 131 -98 133 -101c7 -8 14 -18 16 -29c1 -5 1 -15 1 -295s0 -289 -1 -294c-5 -25 -25 -45 -52 -49h-320c-284 0 -320 -1 -325 0c-25 4 -45 25 -51 49c-1 5 -1 16 -1 388s0 383 1 388c6 25 26 44 51 49z
M250 612v-624h500v437h-96c-83 0 -97 0 -102 1c-25 4 -43 22 -50 47c-1 5 -2 5 -2 72v67h-250zM489 393c39 6 64 -18 72 -47c1 -5 1 -6 1 -59l1 -55l11 12c12 12 15 14 23 18c44 23 90 -12 90 -56c0 -10 -1 -16 -4 -24c-5 -11 -4 -10 -75 -81c-37 -37 -68 -68 -71 -70
c-21 -18 -58 -14 -76 2c-3 3 -131 127 -138 139c-35 53 24 118 79 90c8 -4 12 -7 24 -19l11 -11l1 55c0 53 0 54 1 59c7 25 25 42 50 47z" />
  </g>

</svg>
