<?xml version="1.0" standalone="no"?>
<!DOCTYPE svg PUBLIC "-//W3C//DTD SVG 1.1//EN" "http://www.w3.org/Graphics/SVG/1.1/DTD/svg11.dtd" >
<svg xmlns="http://www.w3.org/2000/svg" xmlns:xlink="http://www.w3.org/1999/xlink" version="1.1" viewBox="-10 0 1010 1000">
  <g transform="matrix(1 0 0 -1 0 800)">
   <path fill="currentColor"
d="M177 737c4 1 34 0 200 0h195l6 -1c13 -4 7 0 147 -105c89 -67 131 -98 133 -101c7 -8 14 -18 16 -29c1 -5 1 -15 1 -295s0 -289 -1 -294c-5 -25 -25 -45 -52 -49h-320c-284 0 -320 -1 -325 0c-25 4 -45 25 -51 49c-1 5 -1 16 -1 388s0 383 1 388c6 25 26 44 51 49z
M250 612v-624h500v437h-96c-83 0 -97 0 -102 1c-25 4 -43 22 -50 47c-1 5 -2 5 -2 72v67h-250zM362 313c13 13 34 23 60 16c37 -9 58 -52 40 -88c-1 -1 -42 -65 -43 -66c0 0 35 -50 43 -66c19 -41 -8 -88 -53 -90c-18 -1 -34 5 -47 18c-4 4 -9 12 -39 56
c-19 28 -34 53 -35 55c-8 18 -8 36 0 54c1 2 16 27 35 55c30 44 35 52 39 56zM583 330c26 4 44 -6 57 -19c4 -5 69 -103 72 -109c8 -18 8 -36 0 -54c-3 -6 -68 -104 -72 -109c-23 -23 -63 -29 -90 -2c-19 19 -24 48 -12 72c8 16 43 66 43 66c-1 1 -42 65 -43 66
c-19 38 7 83 45 89z" />
  </g>

</svg>
