<?xml version="1.0" standalone="no"?>
<!DOCTYPE svg PUBLIC "-//W3C//DTD SVG 1.1//EN" "http://www.w3.org/Graphics/SVG/1.1/DTD/svg11.dtd" >
<svg xmlns="http://www.w3.org/2000/svg" xmlns:xlink="http://www.w3.org/1999/xlink" version="1.1" viewBox="-10 0 1010 1000">
  <g transform="matrix(1 0 0 -1 0 800)">
   <path fill="currentColor"
d="M177 737c4 1 34 0 200 0h195l6 -1c13 -4 7 0 147 -105c89 -67 131 -98 133 -101c7 -8 14 -18 16 -29c1 -5 1 -15 1 -295s0 -289 -1 -294c-5.43619 -25.0065 -25.102 -44.517 -52 -49h-320c-284 0 -320 -1 -325 0c-24.6383 3.79051 -45.108 25.432 -51 49
c-1 5 -1 16 -1 388s0 383 1 388c6 25 26 44 51 49zM250 612v-624h500v437h-96c-83 0 -97 0 -102 1c-25 4 -43 22 -50 47c-1 5 -2 5 -2 72v67h-250zM438 367c2.47458 37.1186 35.4138 66.6465 78 56c26 -7 44 -29 46 -56l1 -4c8.93935 -1.78787 19.2473 -3.12367 27 -7
c20.7777 -9.77776 41.506 -35.976 33 -70c-7 -27 -28 -46 -55 -48l-5 -1l-1 -4c-3 -32 -27 -56 -59 -58c-33 -2 -62 24 -65 58l-1 5h-2c-31.962 0 -50.5352 21.8732 -58 48c-10.2567 41.0269 20.1058 76 58 76h2zM427 143c-27.4342 -4.84134 -52 -28.4472 -52 -62
c0 -32.726 24.1377 -56.7135 52 -61c5 -1 16 -1 76 -1h69c25.9421 8.64736 43.8666 20.6553 51 48c10.4998 41.9994 -19.4834 70.7472 -51 76l-70 1c-58 0 -71 0 -75 -1z" />
  </g>

</svg>
