<?xml version="1.0" standalone="no"?>
<!DOCTYPE svg PUBLIC "-//W3C//DTD SVG 1.1//EN" "http://www.w3.org/Graphics/SVG/1.1/DTD/svg11.dtd" >
<svg xmlns="http://www.w3.org/2000/svg" xmlns:xlink="http://www.w3.org/1999/xlink" version="1.1" viewBox="-10 0 1010 1000">
  <g transform="matrix(1 0 0 -1 0 800)">
   <path fill="currentColor"
d="M177 737c4 1 34 0 200 0h195l6 -1c13 -4 7 0 147 -105c89 -67 131 -98 133 -101c7 -8 14 -18 16 -29c1 -5 1 -15 1 -295s0 -289 -1 -294c-5 -25 -25 -45 -52 -49h-320c-284 0 -320 -1 -325 0c-25 4 -45 25 -51 49c-1 5 -1 16 -1 388s0 383 1 388c6 25 26 44 51 49z
M250 612v-624h500v437h-96c-83 0 -97 0 -102 1c-25 4 -43 22 -50 47c-1 5 -2 5 -2 72v67h-250zM439 377c9 34 46 61 88 42c3 -1 27 -17 55 -36c56 -37 57 -38 64 -49c7 -10 10 -18 10 -34c0 -52 -51 -75 -93 -54c0 0 -1 -29 -1 -64v-63c-3 -16 -13 -32 -25 -41
c-9 -4 -15 -11 -25 -17c-61 -33 -122 10 -134 61c-10 43 10 86 49 106c3 2 7 3 8 3l2 1l1 70c0 70 0 70 1 75z" />
  </g>

</svg>
