<?xml version="1.0" standalone="no"?>
<!DOCTYPE svg PUBLIC "-//W3C//DTD SVG 1.1//EN" "http://www.w3.org/Graphics/SVG/1.1/DTD/svg11.dtd" >
<svg xmlns="http://www.w3.org/2000/svg" xmlns:xlink="http://www.w3.org/1999/xlink" version="1.1" viewBox="-10 0 1010 1000">
  <g transform="matrix(1 0 0 -1 0 800)">
   <path fill="currentColor"
d="M177 737c4 1 34 0 200 0h195l6 -1c13 -4 7 0 147 -105c89 -67 131 -98 133 -101c7 -8 14 -18 16 -29c1 -5 1 -15 1 -295s0 -289 -1 -294c-5 -25 -25 -45 -52 -49h-320c-284 0 -320 -1 -325 0c-25 4 -45 25 -51 49c-1 5 -1 16 -1 388s0 383 1 388c6 25 26 44 51 49z
M250 612v-624h500v437h-96c-83 0 -97 0 -102 1c-25 4 -43 22 -50 47c-1 5 -2 5 -2 72v67h-250zM464 383c22 14 54 13 73 -2c3 -2 34 -33 71 -70c71 -71 70 -70 75 -81c3 -8 4 -14 4 -24c0 -37 -28 -61 -59 -62c-24 -2 -39 10 -54 25l-11 11l-1 -54c0 -53 0 -54 -1 -59
c-16 -63 -105 -63 -122 0c-1 5 -1 6 -1 59l-1 54l-11 -11c-6 -6 -13 -12 -15 -14c-36 -28 -88 -2 -97 37c-5 20 2 37 9 48c4 7 140 142 141 143z" />
  </g>

</svg>
