<?xml version="1.0" standalone="no"?>
<!DOCTYPE svg PUBLIC "-//W3C//DTD SVG 1.1//EN" "http://www.w3.org/Graphics/SVG/1.1/DTD/svg11.dtd" >
<svg xmlns="http://www.w3.org/2000/svg" xmlns:xlink="http://www.w3.org/1999/xlink" version="1.1" viewBox="-10 0 1010 1000">
  <g transform="matrix(1 0 0 -1 0 800)">
   <path fill="currentColor"
d="M177 737c4 1 34 0 200 0h195l6 -1c13 -4 7 0 147 -105c89 -67 131 -98 133 -101c7 -8 14 -18 16 -29c1 -5 1 -15 1 -295s0 -289 -1 -294c-5 -25 -25 -45 -52 -49h-320c-284 0 -320 -1 -325 0c-25 4 -45 25 -51 49c-1 5 -1 16 -1 388s0 383 1 388c6 25 26 44 51 49z
M250 612v-624h500v437h-96c-83 0 -97 0 -102 1c-25 4 -43 22 -50 47c-1 5 -2 5 -2 72v67h-250zM464 383c46 29 112 -6 97 -66c-4 -14 -9 -22 -24 -37l-11 -11h70l70 -1c30 -5 52 -26 52 -62c0 -38 -24 -53 -52 -62h-140l11 -12c18 -18 25 -24 25 -51c0 -53 -63 -81 -101 -48
c-2 2 -33 32 -69 68c-71 71 -70 70 -75 81c-3 8 -4 14 -4 24s1 16 4 24c5 11 4 10 77 83c42 42 68 69 70 70z" />
  </g>

</svg>
