<?xml version="1.0" standalone="no"?>
<!DOCTYPE svg PUBLIC "-//W3C//DTD SVG 1.1//EN" "http://www.w3.org/Graphics/SVG/1.1/DTD/svg11.dtd" >
<svg xmlns="http://www.w3.org/2000/svg" xmlns:xlink="http://www.w3.org/1999/xlink" version="1.1" viewBox="-10 0 1010 1000">
  <g transform="matrix(1 0 0 -1 0 800)">
   <path fill="currentColor"
d="M177 737c4 1 34 0 200 0h195l6 -1c13 -4 7 0 147 -105c89 -67 131 -98 133 -101c7 -8 14 -18 16 -29c1 -5 1 -15 1 -295s0 -289 -1 -294c-5.43619 -25.0065 -25.102 -44.517 -52 -49h-320c-284 0 -320 -1 -325 0c-24.6383 3.79051 -45.108 25.432 -51 49
c-1 5 -1 16 -1 388s0 383 1 388c6 25 26 44 51 49zM250 612v-624h500v437h-96c-83 0 -97 0 -102 1c-25 4 -43 22 -50 47c-1 5 -2 5 -2 72v67h-250zM614 362c-9 -2 -17 -6 -25 -11c-9 -6 -10 -7 -70 -91c-31 -44 -58 -80 -58 -81c-1.14819 -1.14819 -47.6154 44.6154 -50 47
c-28.3728 22.0677 -70.4184 9.37239 -88 -17c-12.358 -18.537 -13.5394 -47.6909 0 -68c9.32779 -15.5463 106.382 -107.382 107 -108c23.2583 -19.9357 64.0197 -16.8346 84 6c3 3 158 218 164 228c30.3807 45.5711 -11.7451 102.465 -64 95z" />
  </g>

</svg>
