<?xml version="1.0" standalone="no"?>
<!DOCTYPE svg PUBLIC "-//W3C//DTD SVG 1.1//EN" "http://www.w3.org/Graphics/SVG/1.1/DTD/svg11.dtd" >
<svg xmlns="http://www.w3.org/2000/svg" xmlns:xlink="http://www.w3.org/1999/xlink" version="1.1" viewBox="-10 0 1010 1000">
  <g transform="matrix(1 0 0 -1 0 800)">
   <path fill="currentColor"
d="M177 737c4 1 34 0 200 0h195l6 -1c13 -4 7 0 147 -105c89 -67 131 -98 133 -101c7 -8 14 -18 16 -29c1 -5 1 -15 1 -295s0 -289 -1 -294c-5.43619 -25.0065 -25.102 -44.517 -52 -49h-320c-284 0 -320 -1 -325 0c-24.6383 3.79051 -45.108 25.432 -51 49
c-1 5 -1 16 -1 388s0 383 1 388c6 25 26 44 51 49zM250 612v-624h500v437h-96c-83 0 -97 0 -102 1c-25 4 -43 22 -50 47c-1 5 -2 5 -2 72v67h-250zM489 424c-25 -5 -43 -22 -50 -47c-1 -5 -1 -5 -1 -75l-1 -70l-2 -1c-1 0 -5 -1 -8 -3c-39 -20 -59 -63 -49 -106
c12.2648 -50.5923 73.2367 -94.4198 134 -61c9.89275 5.653 16.1079 12.5539 25 17c11.6586 8.74396 21.7123 24.5614 25 41v63c0 35 1 64 1 64c41.5278 -20.7639 93 2.22058 93 54c0 16.303 -3.34204 24.0131 -10 34c-7 11 -8 12 -64 49c-28 19 -52 35 -55 36
c-11 5 -27 7 -38 5z" />
  </g>

</svg>
