<?xml version="1.0" standalone="no"?>
<!DOCTYPE svg PUBLIC "-//W3C//DTD SVG 1.1//EN" "http://www.w3.org/Graphics/SVG/1.1/DTD/svg11.dtd" >
<svg xmlns="http://www.w3.org/2000/svg" xmlns:xlink="http://www.w3.org/1999/xlink" version="1.1" viewBox="-10 0 1010 1000">
  <g transform="matrix(1 0 0 -1 0 800)">
   <path fill="currentColor"
d="M177 737c4 1 34 0 200 0h195l6 -1c13 -4 7 0 147 -105c89 -67 131 -98 133 -101c7 -8 14 -18 16 -29c1 -5 1 -15 1 -295s0 -289 -1 -294c-5.43619 -25.0065 -25.102 -44.517 -52 -49h-320c-284 0 -320 -1 -325 0c-24.6383 3.79051 -45.108 25.432 -51 49
c-1 5 -1 16 -1 388s0 383 1 388c6 25 26 44 51 49zM250 612v-624h500v437h-96c-83 0 -97 0 -102 1c-25 4 -43 22 -50 47c-1 5 -2 5 -2 72v67h-250zM489 393c-9 -2 -17 -5 -25 -10c-1.26977 -0.634885 -136.808 -136.014 -141 -143
c-7.43159 -11.1474 -13.8824 -28.4703 -9 -48c9.19412 -39.4034 61.1773 -64.8621 97 -37c2 2 9 8 15 14l11 11l1 -54c0 -53 0 -54 1 -59c16.6829 -62.561 106.254 -62.9853 122 0c1 5 1 6 1 59l1 54l11 -11c14.9484 -14.9484 30.3514 -26.8191 54 -25
c31.1035 1.11084 59 24.598 59 62c0 10 -1 16 -4 24c-5 11 -4 10 -75 81c-37 37 -68 68 -71 70c-10.8843 9.07023 -27.9304 14.8671 -48 12z" />
  </g>

</svg>
