<?xml version="1.0" standalone="no"?>
<!DOCTYPE svg PUBLIC "-//W3C//DTD SVG 1.1//EN" "http://www.w3.org/Graphics/SVG/1.1/DTD/svg11.dtd" >
<svg xmlns="http://www.w3.org/2000/svg" xmlns:xlink="http://www.w3.org/1999/xlink" version="1.1" viewBox="-10 0 1010 1000">
  <g transform="matrix(1 0 0 -1 0 800)">
   <path fill="currentColor"
d="M427 737c4 1 21 0 106 0h102c6.88622 -1.1477 11.427 -4.14232 17 -6c6 -3 257 -160 262 -164c11 -8 19 -21 22 -35c1 -5 1 -12 1 -216s0 -212 -1 -217c-5.95755 -27.4047 -25.1979 -40.3993 -51 -49h-197l-1 -67c0 -67 0 -68 -1 -73
c-6.47558 -24.823 -25.0005 -42.6668 -51 -47h-257c-228 0 -258 -1 -263 0c-25.6715 3.94946 -44.8583 24.4332 -51 49c-1 5 -1 14 -1 294s0 290 1 295c5 22 20 39 41 46c10 3 6 3 143 3h127v67c0 67 1 68 2 73c7 25 26 43 50 47zM500 612v-437h312v281h-96
c-104 0 -101 0 -111 3c-20 7 -35 24 -41 45c-1 5 -1 6 -1 57l-1 51h-62zM188 206v-218h374v62h-64c-55 0 -66 0 -71 1c-25 4 -43 22 -50 47l-2 5v322h-187v-219z" />
  </g>

</svg>
