<?xml version="1.0" standalone="no"?>
<!DOCTYPE svg PUBLIC "-//W3C//DTD SVG 1.1//EN" "http://www.w3.org/Graphics/SVG/1.1/DTD/svg11.dtd" >
<svg xmlns="http://www.w3.org/2000/svg" xmlns:xlink="http://www.w3.org/1999/xlink" version="1.1" viewBox="-10 0 1010 1000">
  <g transform="matrix(1 0 0 -1 0 800)">
   <path fill="currentColor"
d="M177 737c4 1 34 0 200 0h195l6 -1c13 -4 7 0 147 -105c89 -67 131 -98 133 -101c7 -8 14 -18 16 -29c1 -5 1 -15 1 -295s0 -289 -1 -294c-5 -25 -25 -45 -52 -49h-320c-284 0 -320 -1 -325 0c-25 4 -45 25 -51 49c-1 5 -1 16 -1 388s0 383 1 388c6 25 26 44 51 49z
M250 612v-624h500v437h-96c-83 0 -97 0 -102 1c-25 4 -43 22 -50 47c-1 5 -2 5 -2 72v67h-250zM364 362c38 5 65 -19 72 -47c1 -5 1 -6 1 -85c0 -44 1 -78 1 -78c0 1 0 3 1 6c8 34 43 55 77 46c21 -6 46 -27 46 -52c0 0 1 19 1 46c0 47 0 49 1 54c8 30 34 49 64 48
c28 -1 52 -21 58 -49c1 -5 1 -9 1 -76s0 -71 -1 -76c-6 -28 -30 -48 -58 -49c-30 -1 -57 19 -64 48c-1 3 -1 6 -1 7s-1 1 -1 1v-1c0 -1 0 -4 -1 -7c-7 -27 -30 -47 -58 -48c-30 -1 -57 19 -64 48c-1 3 -1 6 -1 7v1s-1 0 -1 -1s0 -4 -1 -7c-7 -27 -30 -47 -58 -48
c-30 -2 -57 19 -64 49c-1 5 -1 10 -1 107s0 102 1 107c6 25 25 44 50 49z" />
  </g>

</svg>
