<?xml version="1.0" standalone="no"?>
<!DOCTYPE svg PUBLIC "-//W3C//DTD SVG 1.1//EN" "http://www.w3.org/Graphics/SVG/1.1/DTD/svg11.dtd" >
<svg xmlns="http://www.w3.org/2000/svg" xmlns:xlink="http://www.w3.org/1999/xlink" version="1.1" viewBox="-10 0 1010 1000">
  <g transform="matrix(1 0 0 -1 0 800)">
   <path fill="currentColor"
d="M177 737c4 1 34 0 200 0h195l6 -1c13 -4 7 0 147 -105c89 -67 131 -98 133 -101c7 -8 14 -18 16 -29c1 -5 1 -15 1 -295s0 -289 -1 -294c-5 -25 -25 -45 -52 -49h-320c-284 0 -320 -1 -325 0c-25 4 -45 25 -51 49c-1 5 -1 16 -1 388s0 383 1 388c6 25 26 44 51 49z
M250 612v-624h500v437h-96c-83 0 -97 0 -102 1c-25 4 -43 22 -50 47c-1 5 -2 5 -2 72v67h-250zM438 367c2 37 35 67 78 56c26 -7 44 -29 46 -56l1 -4c9 -2 19 -3 27 -7c21 -10 42 -36 33 -70c-7 -27 -28 -46 -55 -48l-5 -1l-1 -4c-3 -32 -27 -56 -59 -58
c-33 -2 -62 24 -65 58l-1 5h-2c-32 0 -51 22 -58 48c-10 41 20 76 58 76h2zM427 143c4 1 17 1 75 1l70 -1c32 -5 61 -34 51 -76c-7 -27 -25 -39 -51 -48h-69c-60 0 -71 0 -76 1c-28 4 -52 28 -52 61c0 34 25 57 52 62z" />
  </g>

</svg>
