<?xml version="1.0" standalone="no"?>
<!DOCTYPE svg PUBLIC "-//W3C//DTD SVG 1.1//EN" "http://www.w3.org/Graphics/SVG/1.1/DTD/svg11.dtd" >
<svg xmlns="http://www.w3.org/2000/svg" xmlns:xlink="http://www.w3.org/1999/xlink" version="1.1" viewBox="-10 0 1010 1000">
  <g transform="matrix(1 0 0 -1 0 800)">
   <path fill="currentColor"
d="M177 737c4 1 34 0 200 0h195l6 -1c13 -4 7 0 147 -105c89 -67 131 -98 133 -101c7 -8 14 -18 16 -29c1 -5 1 -15 1 -295s0 -289 -1 -294c-5.43619 -25.0065 -25.102 -44.517 -52 -49h-320c-284 0 -320 -1 -325 0c-24.6383 3.79051 -45.108 25.432 -51 49
c-1 5 -1 16 -1 388s0 383 1 388c6 25 26 44 51 49zM250 612v-624h500v437h-96c-83 0 -97 0 -102 1c-25 4 -43 22 -50 47c-1 5 -2 5 -2 72v67h-250zM489 393c-9 -2 -17 -5 -25 -10c-2 -1 -28 -28 -70 -70c-73 -73 -72 -72 -77 -83c-3 -8 -4 -14 -4 -24s1 -16 4 -24
c5 -11 4 -10 75 -81c36 -36 67 -66 69 -68c38.1504 -32.7003 101 -4.92753 101 48c0 26.7112 -6.80204 32.802 -25 51l-11 12h140c28.3281 9.44271 52 24.3278 52 62c0 35.5593 -21.6233 56.9372 -52 62l-70 1h-70l11 11c15 15 20 23 24 37
c10.0013 40.0054 -18.5201 67.7782 -45 75c-8 2 -20 2 -27 1z" />
  </g>

</svg>
