<?xml version="1.0" standalone="no"?>
<!DOCTYPE svg PUBLIC "-//W3C//DTD SVG 1.1//EN" "http://www.w3.org/Graphics/SVG/1.1/DTD/svg11.dtd" >
<svg xmlns="http://www.w3.org/2000/svg" xmlns:xlink="http://www.w3.org/1999/xlink" version="1.1" viewBox="-10 0 1010 1000">
  <g transform="matrix(1 0 0 -1 0 800)">
   <path fill="currentColor"
d="M177 737c4 1 34 0 200 0h195l6 -1c13 -4 7 0 147 -105c89 -67 131 -98 133 -101c7 -8 14 -18 16 -29c1 -5 1 -15 1 -295s0 -289 -1 -294c-5.43619 -25.0065 -25.102 -44.517 -52 -49h-320c-284 0 -320 -1 -325 0c-24.6383 3.79051 -45.108 25.432 -51 49
c-1 5 -1 16 -1 388s0 383 1 388c6 25 26 44 51 49zM250 612v-624h500v437h-96c-83 0 -97 0 -102 1c-25 4 -43 22 -50 47c-1 5 -2 5 -2 72v67h-250zM364 268c-28.6945 -5.06374 -60.2447 -35.0212 -50 -76c6.0896 -24.3584 25.4417 -43.068 51 -47c5 -1 22 -1 138 -1h132
c28.3281 9.44271 52 24.3278 52 62c0 35.5593 -21.6233 56.9372 -52 62l-133 1c-112 0 -134 0 -138 -1z" />
  </g>

</svg>
