<?xml version="1.0" standalone="no"?>
<!DOCTYPE svg PUBLIC "-//W3C//DTD SVG 1.1//EN" "http://www.w3.org/Graphics/SVG/1.1/DTD/svg11.dtd" >
<svg xmlns="http://www.w3.org/2000/svg" xmlns:xlink="http://www.w3.org/1999/xlink" version="1.1" viewBox="-10 0 1010 1000">
  <g transform="matrix(1 0 0 -1 0 800)">
   <path fill="currentColor"
d="M177 737c4 1 34 0 200 0h195l6 -1c13 -4 7 0 147 -105c89 -67 131 -98 133 -101c7 -8 14 -18 16 -29c1 -5 1 -15 1 -295s0 -289 -1 -294c-5.43619 -25.0065 -25.102 -44.517 -52 -49h-320c-284 0 -320 -1 -325 0c-24.6383 3.79051 -45.108 25.432 -51 49
c-1 5 -1 16 -1 388s0 383 1 388c6 25 26 44 51 49zM250 612v-624h500v437h-96c-83 0 -97 0 -102 1c-25 4 -43 22 -50 47c-1 5 -2 5 -2 72v67h-250zM489 393c-25 -5 -43 -22 -50 -47c-1 -5 -1 -6 -1 -59l-1 -55l-11 11c-12 12 -16 15 -24 19
c-55.3972 27.6986 -114.139 -37.2917 -79 -90c6.97389 -11.6232 134.789 -135.789 138 -139c18.3265 -15.7085 54.8457 -19.6286 76 -2c3 2 34 33 71 70c71 71 70 70 75 81c3 8 4 14 4 24c0 44.061 -46.2867 78.8974 -90 56c-8 -4 -11 -6 -23 -18l-11 -12l-1 55
c0 53 0 54 -1 59c-7.58702 29.0836 -32.8175 52.5975 -72 47z" />
  </g>

</svg>
