<?xml version="1.0" standalone="no"?>
<!DOCTYPE svg PUBLIC "-//W3C//DTD SVG 1.1//EN" "http://www.w3.org/Graphics/SVG/1.1/DTD/svg11.dtd" >
<svg xmlns="http://www.w3.org/2000/svg" xmlns:xlink="http://www.w3.org/1999/xlink" version="1.1" viewBox="-10 0 1010 1000">
  <g transform="matrix(1 0 0 -1 0 800)">
   <path fill="currentColor"
d="M177 737c4 1 34 0 200 0h195l6 -1c13 -4 7 0 147 -105c89 -67 131 -98 133 -101c7 -8 14 -18 16 -29c1 -5 1 -15 1 -295s0 -289 -1 -294c-5.43619 -25.0065 -25.102 -44.517 -52 -49h-320c-284 0 -320 -1 -325 0c-24.6383 3.79051 -45.108 25.432 -51 49
c-1 5 -1 16 -1 388s0 383 1 388c6 25 26 44 51 49zM250 612v-624h500v437h-96c-83 0 -97 0 -102 1c-25 4 -43 22 -50 47c-1 5 -2 5 -2 72v67h-250zM438 362c0 65.4546 80.5641 82.7656 114 35c23 -35 7 -81 -33 -94c-38.0678 -11.2793 -81 13.9338 -81 59zM427 268
c-27.4342 -4.84134 -52 -28.4472 -52 -62c0 -31.2212 20.3021 -49.9209 43 -59c4 -1 13 -3 17 -3h2l1 -36c0 -34 0 -36 1 -41c6.0896 -24.3584 25.4417 -43.068 51 -47c5 -1 11 -1 44 -1h38c26.9711 8.99038 53 25.7149 53 62c0 34.4794 -26.0458 60.3371 -58 63h-4l-1 36
c0 34 0 36 -1 41c-6.47558 24.823 -25.0005 42.6668 -51 47l-39 1c-32 0 -40 0 -44 -1z" />
  </g>

</svg>
