<?xml version="1.0" standalone="no"?>
<!DOCTYPE svg PUBLIC "-//W3C//DTD SVG 1.1//EN" "http://www.w3.org/Graphics/SVG/1.1/DTD/svg11.dtd" >
<svg xmlns="http://www.w3.org/2000/svg" xmlns:xlink="http://www.w3.org/1999/xlink" version="1.1" viewBox="-10 0 1010 1000">
  <g transform="matrix(1 0 0 -1 0 800)">
   <path fill="currentColor"
d="M177 737c4 1 34 0 200 0h195l6 -1c13 -4 7 0 147 -105c89 -67 131 -98 133 -101c7 -8 14 -18 16 -29c1 -5 1 -15 1 -295s0 -289 -1 -294c-5.43619 -25.0065 -25.102 -44.517 -52 -49h-320c-284 0 -320 -1 -325 0c-24.6383 3.79051 -45.108 25.432 -51 49
c-1 5 -1 16 -1 388s0 383 1 388c6 25 26 44 51 49zM250 612v-624h500v437h-96c-83 0 -97 0 -102 1c-25 4 -43 22 -50 47c-1 5 -2 5 -2 72v67h-250zM395 362c-28.2222 -5.64443 -51 -27.2735 -51 -62c0 -10 2 -16 5 -24c4 -10 7 -14 36 -43l27 -27l-27 -27
c-29 -29 -32 -32 -36 -42c-3 -8 -5 -15 -5 -25c0 -52.4434 60.0042 -80.3301 99 -50c2 2 15 14 30 29l27 27l27 -27c16 -16 29 -28 31 -30c38.7838 -25.8559 86.6754 -4.2984 97 37c4.87142 19.4857 -1.48046 37.7207 -9 49c-3 4 -9 10 -31 32l-27 27l27 27
c29 29 32 33 36 43c3 8 5 14 5 24c0 49.7935 -54.9548 80.5936 -98 51c-2 -2 -15 -13 -31 -29l-27 -27c-19.1968 18.4858 -38.1608 37.1608 -57 56c-11.0181 7.3454 -30.5484 13.4931 -48 11z" />
  </g>

</svg>
