<?xml version="1.0" standalone="no"?>
<!DOCTYPE svg PUBLIC "-//W3C//DTD SVG 1.1//EN" "http://www.w3.org/Graphics/SVG/1.1/DTD/svg11.dtd" >
<svg xmlns="http://www.w3.org/2000/svg" xmlns:xlink="http://www.w3.org/1999/xlink" version="1.1" viewBox="-10 0 1010 1000">
  <g transform="matrix(1 0 0 -1 0 800)">
   <path fill="currentColor"
d="M177 737c4 1 34 0 200 0h195l6 -1c13 -4 7 0 147 -105c89 -67 131 -98 133 -101c7 -8 14 -18 16 -29c1 -5 1 -15 1 -295s0 -289 -1 -294c-5 -25 -25 -45 -52 -49h-320c-284 0 -320 -1 -325 0c-25 4 -45 25 -51 49c-1 5 -1 16 -1 388s0 383 1 388c6 25 26 44 51 49z
M250 612v-624h500v437h-96c-83 0 -97 0 -102 1c-25 4 -43 22 -50 47c-1 5 -2 5 -2 72v67h-250zM438 362c0 65 81 83 114 35c23 -35 7 -81 -33 -94c-38 -11 -81 14 -81 59zM427 268c4 1 12 1 44 1l39 -1c26 -4 45 -22 51 -47c1 -5 1 -7 1 -41l1 -36h4c32 -3 58 -29 58 -63
c0 -36 -26 -53 -53 -62h-38c-33 0 -39 0 -44 1c-26 4 -45 23 -51 47c-1 5 -1 7 -1 41l-1 36h-2c-4 0 -13 2 -17 3c-23 9 -43 28 -43 59c0 34 25 57 52 62z" />
  </g>

</svg>
