<?xml version="1.0" standalone="no"?>
<!DOCTYPE svg PUBLIC "-//W3C//DTD SVG 1.1//EN" "http://www.w3.org/Graphics/SVG/1.1/DTD/svg11.dtd" >
<svg xmlns="http://www.w3.org/2000/svg" xmlns:xlink="http://www.w3.org/1999/xlink" version="1.1" viewBox="-10 0 1010 1000">
  <g transform="matrix(1 0 0 -1 0 800)">
   <path fill="currentColor"
d="M937 612c0 -38 -24 -53 -52 -62h-383c-339 0 -382 0 -387 1c-31 5 -61 34 -51 76c7 24 25 43 50 47c4 1 62 1 388 1h383c29 -10 52 -25 52 -63zM239 455c4 1 44 1 263 1h258c26 -9 44 -21 51 -48c10 -42 -19 -71 -51 -76l-258 -1c-228 0 -257 0 -262 1
c-31 5 -61 34 -51 76c7 24 25 43 50 47zM635 206c28 -9 52 -24 52 -62c0 -36 -22 -57 -52 -62l-132 -1c-116 0 -133 0 -138 1c-31 5 -61 34 -51 76c7 24 25 43 50 47c4 1 26 1 138 1h133zM438 -75c0 65 81 83 114 35c23 -35 7 -82 -33 -95c-38 -11 -81 15 -81 60z" />
  </g>

</svg>
