<?xml version="1.0" standalone="no"?>
<!DOCTYPE svg PUBLIC "-//W3C//DTD SVG 1.1//EN" "http://www.w3.org/Graphics/SVG/1.1/DTD/svg11.dtd" >
<svg xmlns="http://www.w3.org/2000/svg" xmlns:xlink="http://www.w3.org/1999/xlink" version="1.1" viewBox="-10 0 1010 1000">
  <g transform="matrix(1 0 0 -1 0 800)">
   <path fill="currentColor"
d="M937 612c0 -37.6465 -23.5396 -52.5132 -52 -62h-383c-339 0 -382 0 -387 1c-30.5151 4.69463 -61.468 34.1279 -51 76c6.92495 24.2373 25.0625 42.5993 50 47c4 1 62 1 388 1h383c28.9956 -9.66519 52 -24.5685 52 -63zM239 455c4 1 44 1 263 1h258
c25.9421 -8.64736 43.8666 -20.6553 51 -48c10.4998 -41.9994 -19.4834 -70.7472 -51 -76l-258 -1c-228 0 -257 0 -262 1c-30.5151 4.69463 -61.468 34.1279 -51 76c6.92495 24.2373 25.0625 42.5993 50 47zM635 206c28.4533 -9.48443 52 -24.3889 52 -62
c0 -35.5593 -21.6233 -56.9372 -52 -62l-132 -1c-116 0 -133 0 -138 1c-30.5151 4.69463 -61.468 34.1279 -51 76c6.92495 24.2373 25.0625 42.5993 50 47c4 1 26 1 138 1h133zM489 -13c-27.2531 -4.80938 -51 -28.3986 -51 -62c0 -44.7094 42.9015 -71.2884 81 -60
c40 13 56 60 33 95c-14 20 -39 31 -63 27z" />
  </g>

</svg>
