<?xml version="1.0" standalone="no"?>
<!DOCTYPE svg PUBLIC "-//W3C//DTD SVG 1.1//EN" "http://www.w3.org/Graphics/SVG/1.1/DTD/svg11.dtd" >
<svg xmlns="http://www.w3.org/2000/svg" xmlns:xlink="http://www.w3.org/1999/xlink" version="1.1" viewBox="-10 0 1010 1000">
  <g transform="matrix(1 0 0 -1 0 800)">
   <path fill="currentColor"
d="M114 364c-28 4 -51 28 -51 61c0 21 7 33 18 44c5 5 9 9 16 12c6 3 760 255 767 256c38 5 65 -19 72 -48c8 -34 -13 -60 -33 -70c-3 -2 -32 -11 -86 -29l-82 -28c105 -26 185 -116 200 -228c2 -17 2 -27 2 -161v-133c-5 -29 -26 -46 -52 -52h-37l-38 -1l-6 -5
c-56 -49 -151 -46 -195 3l-2 3h-296c-47 -47 -128 -54 -183 -18c-35 23 -58 59 -64 101c-1 7 -1 13 -1 122c0 110 0 115 1 120c6 25 26 44 50 48c3 0 5 1 5 1s-2 2 -5 2zM375 442l-63 -20v-60h126v51c0 28 -1 50 -1 50s-28 -10 -62 -21zM579 446h-17v-167
c0 -125 0 -166 1 -166c0 0 1 3 2 7c12 61 62 111 132 117h-6c-28 0 -52 17 -61 38c-1 2 -13 42 -27 88zM711 438c0 0 6 -17 12 -38l11 -38h32c18 0 32 1 32 1c0 1 -6 12 -10 18c-17 25 -42 45 -70 55c-7 3 -7 3 -7 2zM187 380c-2 -1 -48 -16 -51 -16c-5 -1 -4 -1 23 -1
l29 -1v9c0 5 -1 9 -1 9zM188 237c0 -1 10 -1 11 0c0 0 -2 1 -5 1c-4 0 -6 -1 -6 -1zM222 237c69 -6 121 -58 131 -125h85v126l-111 -1h-105zM722 237c35 -3 67 -20 90 -43v44l-47 -1h-43zM202 111c-19 -6 -16 -29 -3 -38c19 -10 38 13 27 30c-5 8 -16 11 -24 8zM702 111
c-19 -6 -16 -29 -3 -38c25 -12 42 26 18 37c-4 2 -11 2 -15 1z" />
  </g>

</svg>
