<?xml version="1.0" standalone="no"?>
<!DOCTYPE svg PUBLIC "-//W3C//DTD SVG 1.1//EN" "http://www.w3.org/Graphics/SVG/1.1/DTD/svg11.dtd" >
<svg xmlns="http://www.w3.org/2000/svg" xmlns:xlink="http://www.w3.org/1999/xlink" version="1.1" viewBox="-10 0 1010 1000">
  <g transform="matrix(1 0 0 -1 0 800)">
   <path fill="currentColor"
d="M114 364c-28.2783 3.53479 -51 28.0121 -51 61c0 21.2304 7.07345 33.0735 18 44c5 5 9 9 16 12c6 3 760 255 767 256c37.8982 5.41403 64.544 -19.4189 72 -48c8.4113 -33.6452 -12.8391 -59.9196 -33 -70c-3 -2 -32 -11 -86 -29l-82 -28
c104.699 -26.1747 184.912 -115.917 200 -228c2 -17 2 -27 2 -161v-133c-5.10252 -28.7299 -25.5946 -45.5199 -52 -52h-37l-38 -1l-6 -5c-55.7181 -48.7534 -150.886 -45.525 -195 3l-2 3h-296c-47.4128 -47.4128 -128.337 -54.4422 -183 -18c-35 23 -58 59 -64 101
c-1 7 -1 13 -1 122c0 110 0 115 1 120c6 25 26 44 50 48c3 0 5 1 5 1s-2 2 -5 2zM375 442l-63 -20v-60h126v51c0 28 -1 50 -1 50s-28 -10 -62 -21zM579 446h-17v-167c0 -125 0 -166 1 -166c0 0 1 3 2 7c12.101 60.5052 61.6135 110.601 132 117h-6
c-28.0368 0 -52.4128 16.5321 -61 38c-1 2 -13 42 -27 88zM711 438c0 0 6 -17 12 -38l11 -38h32c18 0 32 1 32 1c0 1 -6 12 -10 18c-17 25 -42 45 -70 55c-7 3 -7 3 -7 2zM187 380c-1.80572 -0.628076 -47.9844 -16 -51 -16c-5 -1 -4 -1 23 -1l29 -1v9c0 5 -1 9 -1 9z
M188 237c0 -1 10 -1 11 0c0 0 -2 1 -5 1c-4 0 -6 -1 -6 -1zM222 237c68.7162 -6.24693 121.49 -58.4313 131 -125h85v126l-111 -1h-105zM722 237c35.3408 -3.3132 67.0646 -20.0646 90 -43v44l-47 -1h-43zM202 111c-19.1938 -6.39792 -15.9135 -29.391 -3 -38
c19.2243 -9.61215 38.2516 13.1226 27 30c-5 8 -16 11 -24 8zM702 111c-19.1938 -6.39792 -15.9135 -29.391 -3 -38c24.7588 -12.3794 41.8907 25.9735 18 37c-4 2 -11 2 -15 1z" />
  </g>

</svg>
