<?xml version="1.0" standalone="no"?>
<!DOCTYPE svg PUBLIC "-//W3C//DTD SVG 1.1//EN" "http://www.w3.org/Graphics/SVG/1.1/DTD/svg11.dtd" >
<svg xmlns="http://www.w3.org/2000/svg" xmlns:xlink="http://www.w3.org/1999/xlink" version="1.1" viewBox="-10 0 1010 1000">
  <g transform="matrix(1 0 0 -1 0 800)">
   <path fill="currentColor"
d="M114 737c4 1 57 0 357 0h351c26.912 -4.48533 46.5624 -23.9869 52 -49c1 -5 1 -13 1 -232s0 -227 -1 -232c-5.94478 -27.346 -26.2654 -40.4218 -52 -49h-634l-1 -130v-130c-6.1938 -30.969 -29.5563 -50.9484 -59 -52c-30 -2 -57 19 -64 49c-1 5 -1 16 -1 388
s0 383 1 388c6 25 25 44 50 49zM188 456v-156h562v312h-562v-156z" />
  </g>

</svg>
