<?xml version="1.0" standalone="no"?>
<!DOCTYPE svg PUBLIC "-//W3C//DTD SVG 1.1//EN" "http://www.w3.org/Graphics/SVG/1.1/DTD/svg11.dtd" >
<svg xmlns="http://www.w3.org/2000/svg" xmlns:xlink="http://www.w3.org/1999/xlink" version="1.1" viewBox="-10 0 1010 1000">
  <g transform="matrix(1 0 0 -1 0 800)">
   <path fill="currentColor"
d="M218 762c10 1 45 1 56 0c98.6132 -7.4425 207.396 -47.673 263 -99c23.1874 -20.8687 47.2001 -28.5214 89 -33c55.8081 -7.97258 120.048 7.91706 143 28c36.2271 33.4404 95.1193 14.11 105 -32c1 -5 1 -12 1 -201s0 -196 -1 -201c-2 -10 -9 -21 -16 -29
s-28 -24 -41 -33c-30 -19 -68 -34 -105 -41c-98.088 -17.2317 -196.45 16.3536 -255 71c-19 17 -42 29 -74 37c-63 16 -137 9 -186 -17l-9 -4l-1 -146v-147c-6.1938 -30.969 -29.5563 -50.9484 -59 -52c-30 -2 -57 19 -64 49c-1 5 -1 16 -1 388s0 383 1 388
c5.01091 23.3842 18.9175 36.63 40 46c34 16 72 25 114 28zM226 638c-1 0 -5 -1 -9 -1c-8.70184 -1.24312 -20.8201 -2.95503 -29 -5v-288c71.8278 20.5222 159.087 25.087 235 4c49 -14 88 -35 120 -65c12 -12 21 -18 36 -25c47 -23 110 -22 157 1
c5.137 3.42467 9.40596 5.70298 14 8v123c0 108 0 124 -1 124c-2 -1 -20 -5 -30 -6c-101.726 -14.7666 -207.98 7.50485 -261 58c-41.2806 36.6939 -110.8 63.3636 -178 71c-9 1 -48 2 -54 1z" />
  </g>

</svg>
