<?xml version="1.0" standalone="no"?>
<!DOCTYPE svg PUBLIC "-//W3C//DTD SVG 1.1//EN" "http://www.w3.org/Graphics/SVG/1.1/DTD/svg11.dtd" >
<svg xmlns="http://www.w3.org/2000/svg" xmlns:xlink="http://www.w3.org/1999/xlink" version="1.1" viewBox="-10 0 1010 1000">
  <g transform="matrix(1 0 0 -1 0 800)">
   <path fill="currentColor"
d="M114 737c4 1 57 0 357 0h351c27 -4 47 -24 52 -49c1 -5 1 -13 1 -232s0 -227 -1 -232c-6 -27 -26 -40 -52 -49h-634l-1 -130v-130c-13.0446 -67.3972 -107.767 -68.2848 -123 -3c-1 5 -1 16 -1 388s0 383 1 388c6 25 25 44 50 49zM188 612v-312h562v312h-562z" />
  </g>

</svg>
