<?xml version="1.0" standalone="no"?>
<!DOCTYPE svg PUBLIC "-//W3C//DTD SVG 1.1//EN" "http://www.w3.org/Graphics/SVG/1.1/DTD/svg11.dtd" >
<svg xmlns="http://www.w3.org/2000/svg" xmlns:xlink="http://www.w3.org/1999/xlink" version="1.1" viewBox="-10 0 1010 1000">
  <g transform="matrix(1 0 0 -1 0 800)">
   <path fill="currentColor"
d="M218 762c10 1 45 1 56 0c99 -7 207 -48 263 -99c23 -21 47 -29 89 -33c56 -8 120 8 143 28c36 33 95 14 105 -32c1 -5 1 -12 1 -201s0 -196 -1 -201c-2 -10 -9 -21 -16 -29s-28 -24 -41 -33c-30 -19 -68 -34 -105 -41c-98 -17 -196 16 -255 71c-19 17 -42 29 -74 37
c-63 16 -137 9 -186 -17l-9 -4l-1 -146v-147c-13.0446 -67.3972 -107.767 -68.2848 -123 -3c-1 5 -1 16 -1 388s0 383 1 388c5 23 19 37 40 46c34 16 72 25 114 28zM226 638c-1 0 -5 -1 -9 -1c-9 -1 -21 -3 -29 -5v-288c72 21 159 25 235 4c49 -14 88 -35 120 -65
c12 -12 21 -18 36 -25c47 -23 110 -22 157 1c5 3 9 6 14 8v123c0 108 0 124 -1 124c-2 -1 -20 -5 -30 -6c-102 -15 -208 8 -261 58c-41 37 -111 63 -178 71c-9 1 -48 2 -54 1z" />
  </g>

</svg>
