<?xml version="1.0" standalone="no"?>
<!DOCTYPE svg PUBLIC "-//W3C//DTD SVG 1.1//EN" "http://www.w3.org/Graphics/SVG/1.1/DTD/svg11.dtd" >
<svg xmlns="http://www.w3.org/2000/svg" xmlns:xlink="http://www.w3.org/1999/xlink" version="1.1" viewBox="-10 0 1010 1000">
  <g transform="matrix(1 0 0 -1 0 800)">
   <path fill="currentColor"
d="M875 300c0 -34 -24 -57 -53 -62h-317l-317 -1l-1 -161v-161c-13.0446 -67.3972 -107.767 -68.2848 -123 -3c-1 5 -1 16 -1 388s0 383 1 388c6 25 25 44 50 49c4 1 57 0 357 0h351c29 -5 53 -29 53 -62c0 -10 -2 -16 -5 -24c-5 -11 -2 -9 -82 -89l-75 -74l75 -75
c80 -80 77 -78 82 -89c3 -8 5 -14 5 -24zM188 612v-250h474l-43 43c-46 46 -48 47 -52 58c-3 8 -4 15 -4 25s1 16 4 24c4 11 6 12 52 58l43 42h-474z" />
  </g>

</svg>
