<?xml version="1.0" standalone="no"?>
<!DOCTYPE svg PUBLIC "-//W3C//DTD SVG 1.1//EN" "http://www.w3.org/Graphics/SVG/1.1/DTD/svg11.dtd" >
<svg xmlns="http://www.w3.org/2000/svg" xmlns:xlink="http://www.w3.org/1999/xlink" version="1.1" viewBox="-10 0 1010 1000">
  <g transform="matrix(1 0 0 -1 0 800)">
   <path fill="currentColor"
d="M375 670c0 44 31 77 78 65c12 -3 23 -9 31 -18c42 -45 86 -141 102 -223c5 -28 7 -47 8 -76v-21c10 13 21 29 31 45c12 20 13 22 18 27c19 19 55 26 82 6c15 -11 32 -38 44 -69c20 -51 36 -127 42 -200c1 -16 1 -48 0 -61c-7 -64 -31 -120 -72 -170
c-8 -9 -30 -31 -39 -39c-50 -41 -106 -65 -170 -72c-14 -2 -46 -2 -59 0c-150 17 -264 142 -281 277c-2 18 -3 37 -2 67c4 98 29 143 79 197c60 64 102 165 108 265zM458 481c-24 -60 -63 -122 -102 -163c-35 -38 -43 -61 -43 -133c0 -26 0 -29 4 -45c8 -37 31 -76 62 -103
c53 -47 117 -61 180 -39c28 10 51 23 73 45c33 33 51 73 55 118c2 20 -1 57 -7 95c-2 14 -8 39 -8 39l-8 -8c-47 -50 -118 -93 -191 -44c-20 14 -35 28 -35 57c0 14 2 22 10 35c15 25 20 41 20 80c0 25 -4 51 -8 70z" />
  </g>

</svg>
