<?xml version="1.0" standalone="no"?>
<!DOCTYPE svg PUBLIC "-//W3C//DTD SVG 1.1//EN" "http://www.w3.org/Graphics/SVG/1.1/DTD/svg11.dtd" >
<svg xmlns="http://www.w3.org/2000/svg" xmlns:xlink="http://www.w3.org/1999/xlink" version="1.1" viewBox="-10 0 1010 1000">
  <g transform="matrix(1 0 0 -1 0 800)">
   <path fill="currentColor"
d="M375 670c0 44.0878 31.4381 76.6405 78 65c12 -3 23 -9 31 -18c42 -45 86 -141 102 -223c5 -28 7 -47 8 -76v-21c9.55931 13.383 20.8489 28.5044 31 45c12 20 13 22 18 27c19.3333 19.3333 54.8875 25.9776 82 6c15 -11 32 -38 44 -69c20 -51 36 -127 42 -200
c1 -16 1 -48 0 -61c-7 -64 -31 -120 -72 -170c-8 -9 -30 -31 -39 -39c-50 -41 -106 -65 -170 -72c-14 -2 -46 -2 -59 0c-149.793 17.2838 -264.122 141.974 -281 277c-2 18 -3 37 -2 67c3.56257 97.9706 28.9322 142.76 79 197c59.6352 64.2225 101.759 165.144 108 265z
M458 481c-23.9029 -59.7572 -63.4899 -121.528 -102 -163c-35 -38 -43 -61 -43 -133c0 -26 0 -29 4 -45c8 -37 31 -76 62 -103c53 -47 117 -61 180 -39c28 10 51 23 73 45c33 33 51 73 55 118c2 20 -1 57 -7 95c-2 14 -8 39 -8 39l-8 -8
c-46.8303 -50.0599 -117.587 -92.942 -191 -44c-20.1879 13.9763 -35 28.1858 -35 57c0 14 2 22 10 35c14.7075 25.0027 20 40.8819 20 80c0 24.7844 -4.33158 50.9242 -8 70l-2 -4z" />
  </g>

</svg>
