<?xml version="1.0" standalone="no"?>
<!DOCTYPE svg PUBLIC "-//W3C//DTD SVG 1.1//EN" "http://www.w3.org/Graphics/SVG/1.1/DTD/svg11.dtd" >
<svg xmlns="http://www.w3.org/2000/svg" xmlns:xlink="http://www.w3.org/1999/xlink" version="1.1" viewBox="-10 0 1010 1000">
  <g transform="matrix(1 0 0 -1 0 800)">
   <path fill="currentColor"
d="M302 737c4 1 34 0 200 0h195c27 -5 44 -23 51 -48c10 -39 -19 -67 -45 -74c-6 -2 -7 -2 -22 -2l-17 -1l1 -1s20 -168 23 -176c2 -8 116 -452 124 -502c6 -38 -21 -65 -52 -70h-258c-228 0 -257 -1 -262 0c-29 4 -58 33 -52 70c9 56 121 491 126 506l10 85
c6 47 11 86 11 87l1 1h-14c-28 0 -40 6 -53 19c-17 17 -27 52 -9 78c9 14 25 25 42 28zM461 612c0 -1 -15 -121 -15 -123v-1h108v1c0 2 -15 122 -15 123h-78zM422 362c-6 -13 -31 -117 -48 -190c-18 -72 -45 -183 -45 -184h342c0 1 -29 121 -45 186c-18 74 -42 177 -48 188
h-156z" />
  </g>

</svg>
