<?xml version="1.0" standalone="no"?>
<!DOCTYPE svg PUBLIC "-//W3C//DTD SVG 1.1//EN" "http://www.w3.org/Graphics/SVG/1.1/DTD/svg11.dtd" >
<svg xmlns="http://www.w3.org/2000/svg" xmlns:xlink="http://www.w3.org/1999/xlink" version="1.1" viewBox="-10 0 1010 1000">
  <g transform="matrix(1 0 0 -1 0 800)">
   <path fill="currentColor"
d="M302 737c4 1 34 0 200 0h195c27.0471 -4.50784 44.4776 -22.9976 51 -48c9.85321 -39.4129 -18.8736 -66.8746 -45 -74c-6 -2 -7 -2 -22 -2l-17 -1l1 -1c0 -0.3517 20.3284 -167.985 23 -176c2.41607 -7.90714 115.712 -452.272 124 -502
c6.32577 -37.9546 -21.4609 -64.9101 -52 -70h-258c-228 0 -257 -1 -262 0c-28.7842 4.42834 -58.2107 32.7356 -52 70c9.35893 56.1536 121.044 491.131 126 506l10 85c6 47 11 86 11 87l1 1h-14c-27.5447 0 -39.9743 5.97426 -53 19
c-16.5468 16.5468 -26.624 51.5639 -9 78c9 14 25 25 42 28zM461 612c0 -1 -15 -121 -15 -123v-1h108v1c0 2 -15 122 -15 123h-78zM421 360c-4 -12 -30 -117 -47 -188c-18 -72 -45 -183 -45 -184h342c0 1 -29 121 -45 186c-18.3659 74.4838 -42.3127 176.625 -48 188h-156
l-1 -2z" />
  </g>

</svg>
