<?xml version="1.0" standalone="no"?>
<!DOCTYPE svg PUBLIC "-//W3C//DTD SVG 1.1//EN" "http://www.w3.org/Graphics/SVG/1.1/DTD/svg11.dtd" >
<svg xmlns="http://www.w3.org/2000/svg" xmlns:xlink="http://www.w3.org/1999/xlink" version="1.1" viewBox="-10 0 1010 1000">
  <g transform="matrix(1 0 0 -1 0 800)">
   <path fill="currentColor"
d="M230 686c6 32 39 63 80 49c6 -2 428 -213 434 -217c16 -11 30 -34 26 -61c-4 -26 -24 -46 -49 -51c-6 -1 -13 -2 -221 -2c-207 0 -216 1 -221 2c-24 5 -43 24 -48 48c-1 6 -1 10 -1 119v113zM354 574v-45h45c24 0 43 1 43 1zM937 300c0 -35 -22 -57 -52 -62h-383
c-339 0 -382 -1 -387 0c-38 6 -70 54 -42 96c9 14 24 25 41 28c4 1 62 0 388 0h383c30 -5 52 -27 52 -62zM279 194c5 1 16 2 221 2c209 0 215 -1 221 -2c31 -6 58 -37 47 -77c-4 -14 -12 -27 -24 -35c-6 -4 -428 -215 -434 -217c-43 -12 -74 17 -80 49v113
c0 109 0 113 1 119c5 24 24 43 48 48zM354 71v-45l88 44s-19 1 -43 1h-45z" />
  </g>

</svg>
