<?xml version="1.0" standalone="no"?>
<!DOCTYPE svg PUBLIC "-//W3C//DTD SVG 1.1//EN" "http://www.w3.org/Graphics/SVG/1.1/DTD/svg11.dtd" >
<svg xmlns="http://www.w3.org/2000/svg" xmlns:xlink="http://www.w3.org/1999/xlink" version="1.1" viewBox="-10 0 1010 1000">
  <g transform="matrix(1 0 0 -1 0 800)">
   <path fill="currentColor"
d="M439 688c7.62288 31.762 36.0921 57.227 77 47c23 -6 40 -24 45 -47c1 -5 1 -16 1 -388s0 -383 -1 -388c-6 -28 -30 -48 -58 -49c-30 -2 -57 19 -64 49c-1 5 -1 16 -1 388s0 383 1 388zM114 30c-30.1145 6.0229 -48.901 29.6631 -51 58c0 8 0 15 2 22
c2 6 213 428 217 434c12.8761 18.5988 34.4999 29.9167 64 25c24 -5 43 -24 48 -48c1 -5 2 -14 2 -221s-1 -216 -2 -221c-5 -24 -24 -43 -48 -48c-6 -1 -10 -1 -119 -1h-113zM606 521c6.43754 30.9002 36.492 57.127 77 47c14 -4 27 -12 35 -24c4 -6 215 -428 217 -434
c11.1243 -34.7633 -13.4673 -73.9112 -50 -80h-228c-26.9752 4.49587 -45.5523 23.9407 -51 49c-1 5 -2 14 -2 221s1 216 2 221zM270 242l-44 -88h45v44c0 24 -1 44 -1 44zM729 199v-45h45l-44 88s-1 -19 -1 -43z" />
  </g>

</svg>
