<?xml version="1.0" standalone="no"?>
<!DOCTYPE svg PUBLIC "-//W3C//DTD SVG 1.1//EN" "http://www.w3.org/Graphics/SVG/1.1/DTD/svg11.dtd" >
<svg xmlns="http://www.w3.org/2000/svg" xmlns:xlink="http://www.w3.org/1999/xlink" version="1.1" viewBox="-10 0 1010 1000">
  <g transform="matrix(1 0 0 -1 0 800)">
   <path fill="currentColor"
d="M230 686c6.33851 31.6926 39.0025 62.6658 80 49c6 -2 428 -213 434 -217c16.3534 -10.9023 29.8934 -33.746 26 -61c-4 -26 -24 -46 -49 -51c-6 -1 -13 -2 -221 -2c-207 0 -216 1 -221 2c-24 5 -43 24 -48 48c-1 6 -1 10 -1 119v113zM354 574v-45h45c24 0 43 1 43 1z
M937 300c0 -34.6641 -22.2278 -57.038 -52 -62h-383c-339 0 -382 -1 -387 0c-37.9737 5.84211 -70.2495 53.6258 -42 96c9 14 24 25 41 28c4 1 62 0 388 0h383c29.7764 -4.96273 52 -27.3788 52 -62zM279 194c5 1 16 2 221 2c209 0 215 -1 221 -2
c30.982 -6.19639 58.4369 -36.9709 47 -77c-4 -14 -12 -27 -24 -35c-6 -4 -428 -215 -434 -217c-42.7616 -11.6623 -73.666 17.3299 -80 49v113c0 109 0 113 1 119c5 24 24 43 48 48zM354 48v-22l88 44s-19 1 -43 1h-45v-23z" />
  </g>

</svg>
