<?xml version="1.0" standalone="no"?>
<!DOCTYPE svg PUBLIC "-//W3C//DTD SVG 1.1//EN" "http://www.w3.org/Graphics/SVG/1.1/DTD/svg11.dtd" >
<svg xmlns="http://www.w3.org/2000/svg" xmlns:xlink="http://www.w3.org/1999/xlink" version="1.1" viewBox="-10 0 1010 1000">
  <g transform="matrix(1 0 0 -1 0 800)">
   <path fill="currentColor"
d="M937 -85c-5.5887 -27.9123 -24.1518 -47.2913 -52 -52h-383c-339 0 -382 -1 -387 0c-25.6715 3.94946 -44.8583 24.4332 -51 49c-1 5 -1 16 -1 388s0 383 1 388c6 25 25 44 50 49c4 1 52 0 325 0h321c15.9978 -2.6663 26.2858 -10.2858 36 -20c4 -5 132 -196 135 -202
s5 -11 6 -17c1 -5 0 -38 0 -294v-289zM188 612v-624h624v480l-62 94v-42c0 -41 -1 -42 -2 -47c-7.07667 -27.1272 -25.9792 -39.6597 -51 -48h-163c-144 0 -164 0 -169 1c-25 4 -44 22 -51 47c-1 5 -1 5 -1 72l-1 67h-124zM438 612v-62h187v62h-187zM520 362
c92.4042 0 151.844 -51.8978 166 -134c5.4238 -48.8142 -7.67732 -82.016 -27 -111c-26 -37 -64 -60 -109 -66c-7 -1 -31 -1 -38 0c-70.3647 10.0521 -123.611 62.1414 -136 134c-5.8508 52.6572 9.08177 87.4378 33 118c23.7305 33.2227 64.0453 54.8569 111 59zM524 237
c-14 -3 -24 -17 -24 -31c0 -17 14 -31 31 -31s31 14 31 31s-14 31 -31 31h-7z" />
  </g>

</svg>
