<?xml version="1.0" standalone="no"?>
<!DOCTYPE svg PUBLIC "-//W3C//DTD SVG 1.1//EN" "http://www.w3.org/Graphics/SVG/1.1/DTD/svg11.dtd" >
<svg xmlns="http://www.w3.org/2000/svg" xmlns:xlink="http://www.w3.org/1999/xlink" version="1.1" viewBox="-10 0 1010 1000">
  <g transform="matrix(1 0 0 -1 0 800)">
   <path fill="currentColor"
d="M937 -85c-6 -28 -24 -47 -52 -52h-383c-339 0 -382 -1 -387 0c-26 4 -45 24 -51 49c-1 5 -1 16 -1 388s0 383 1 388c6 25 25 44 50 49c4 1 52 0 325 0h321c16 -3 26 -10 36 -20c4 -5 132 -196 135 -202s5 -11 6 -17c1 -5 0 -38 0 -294v-289zM188 612v-624h624v480l-62 94
v-42c0 -41 -1 -42 -2 -47c-7 -27 -26 -40 -51 -48h-163c-144 0 -164 0 -169 1c-25 4 -44 22 -51 47c-1 5 -1 5 -1 72l-1 67h-124zM438 612v-62h187v62h-187zM520 362c92 0 152 -52 166 -134c10 -99 -56 -166 -136 -177c-7 -1 -31 -1 -38 0c-70 10 -124 62 -136 134
c-6 53 9 87 33 118c24 33 64 55 111 59zM524 237c-14 -3 -24 -17 -24 -31c0 -17 14 -31 31 -31s31 14 31 31s-14 31 -31 31h-7z" />
  </g>

</svg>
