<?xml version="1.0" standalone="no"?>
<!DOCTYPE svg PUBLIC "-//W3C//DTD SVG 1.1//EN" "http://www.w3.org/Graphics/SVG/1.1/DTD/svg11.dtd" >
<svg xmlns="http://www.w3.org/2000/svg" xmlns:xlink="http://www.w3.org/1999/xlink" version="1.1" viewBox="-10 0 1010 1000">
  <g transform="matrix(1 0 0 -1 0 800)">
   <path fill="currentColor"
d="M189 688c8 32 36 57 77 47c12 -3 13 -4 63 -41l46 -35l45 34c25 18 46 35 48 36c12 7 30 10 48 6c12 -3 13 -4 63 -41l46 -35l45 34c25 18 46 35 48 36c12 7 30 10 48 6c23 -6 40 -24 45 -47c1 -5 1 -9 1 -80c0 -74 0 -75 -1 -85c-4 -30 -14 -58 -29 -88
c-39 -77 -113 -147 -190 -178c-9 -3 -28 -10 -29 -10s-1 -7 -1 -41v-42l2 1c56 40 140 67 227 72c51 2 72 -12 82 -48c1 -5 2 -6 2 -19c0 -15 -1 -25 -3 -40c-12 -84 -59 -154 -134 -202c-59 -38 -135 -61 -215 -65c-90 -5 -188 19 -259 64c-67 43 -119 107 -135 195
c-4 26 -5 56 -2 68c6 24 25 43 50 47c12 2 47 -1 78 -5c70 -10 130 -35 183 -68v83c-81 23 -161 87 -208 166c-19 32 -33 66 -39 99c-3 17 -3 18 -3 97c0 70 0 74 1 79zM454 562c-46 -35 -50 -37 -59 -40c-30 -11 -49 3 -69 18l-14 10v-2c0 -5 2 -17 4 -24
c15 -53 73 -120 125 -145c43 -22 74 -21 117 0c57 27 124 106 129 166l1 5l-15 -11c-9 -6 -17 -13 -20 -14c-20 -10 -41 -9 -60 2c-2 1 -26 19 -93 70c0 0 -21 -16 -46 -35zM266 100c21 -41 61 -73 118 -93c10 -4 36 -11 39 -11c1 0 -2 6 -7 14c-25 41 -70 70 -122 86
c-9 3 -28 8 -29 8c0 0 0 -2 1 -4zM726 102c-62 -15 -115 -46 -142 -93c-5 -8 -8 -13 -7 -13s16 4 25 7c48 14 90 37 117 73c8 11 18 28 16 28c0 0 -5 -1 -9 -2z" />
  </g>

</svg>
