<?xml version="1.0" standalone="no"?>
<!DOCTYPE svg PUBLIC "-//W3C//DTD SVG 1.1//EN" "http://www.w3.org/Graphics/SVG/1.1/DTD/svg11.dtd" >
<svg xmlns="http://www.w3.org/2000/svg" xmlns:xlink="http://www.w3.org/1999/xlink" version="1.1" viewBox="-10 0 1010 1000">
  <g transform="matrix(1 0 0 -1 0 800)">
   <path fill="currentColor"
d="M189 688c7.62288 31.762 36.0921 57.227 77 47c12 -3 13 -4 63 -41l46 -35l45 34c25 18 46 35 48 36c12.0478 7.22867 30.2364 10.4409 48 6c12 -3 13 -4 63 -41l46 -35l45 34c25 18 46 35 48 36c12.0478 7.22867 30.2364 10.4409 48 6c23 -6 40 -24 45 -47
c1 -5 1 -9 1 -80c0 -74 0 -75 -1 -85c-4 -30 -14 -58 -29 -88c-39 -77 -113 -147 -190 -178c-9 -3 -28 -10 -29 -10s-1 -7 -1 -41v-42l2 1c56.3181 39.754 139.946 67.3364 227 72c50.9798 2.03919 72.4536 -11.7239 82 -48c1 -5 2 -6 2 -19c0 -15 -1 -25 -3 -40
c-12 -84 -59 -154 -134 -202c-59 -38 -135 -61 -215 -65c-90 -5 -188 19 -259 64c-67.4412 42.5944 -119.181 106.865 -135 195c-4 26 -5 56 -2 68c6 24 25 43 50 47c12 2 47 -1 78 -5c69.5253 -9.62658 130.076 -34.9227 183 -68v83
c-81.4559 23.2731 -160.638 86.7208 -208 166c-19 32 -33 66 -39 99c-3 17 -3 18 -3 97c0 70 0 74 1 79zM454 562c-46 -35 -50 -37 -59 -40c-29.7699 -10.6321 -49.4069 2.6054 -69 18l-14 10v-2c0 -5 2 -17 4 -24c14.5328 -53.287 72.6989 -120.095 125 -145
c43 -22 74 -21 117 0c57.4094 27.4567 124.115 105.755 129 166l1 5l-15 -11c-9 -6 -17 -13 -20 -14c-20 -10 -41 -9 -60 2c-2.26052 1.13026 -25.5535 19.0404 -93 70c0 0 -21 -16 -46 -35zM266 100c21 -41 61 -73 118 -93c10 -4 36 -11 39 -11c1 0 -2 6 -7 14
c-24.7562 40.5101 -70.0587 70.018 -122 86c-9 3 -28 8 -29 8c0 0 0 -2 1 -4zM726 102c-61.7646 -15.4411 -114.685 -45.8196 -142 -93c-5 -8 -8 -13 -7 -13s16 4 25 7c48.061 14.1356 90.2468 37.329 117 73c8 11 18 28 16 28c0 0 -5 -1 -9 -2z" />
  </g>

</svg>
