<?xml version="1.0" standalone="no"?>
<!DOCTYPE svg PUBLIC "-//W3C//DTD SVG 1.1//EN" "http://www.w3.org/Graphics/SVG/1.1/DTD/svg11.dtd" >
<svg xmlns="http://www.w3.org/2000/svg" xmlns:xlink="http://www.w3.org/1999/xlink" version="1.1" viewBox="-10 0 1010 1000">
  <g transform="matrix(1 0 0 -1 0 800)">
   <path fill="currentColor"
d="M438 677c3.10883 40.4148 34.5227 68.8693 78 58c24.5614 -6.69857 46 -26.8846 46 -58c0 -10.3454 0.785804 -6.69645 10 -9c34 -6 72 -20 104 -37c99 -53 170 -147 192 -257l2 -11c11.2597 -1.60854 23.2358 -1.99189 32 -7c21.0414 -9.90186 42.6392 -35.4432 34 -70
c-7 -28 -30 -46 -59 -48l-7 -1l-2 -11c-26.0842 -130.421 -116.379 -230.931 -229 -275c-23.717 -9.48681 -52.8061 -15.8458 -76 -21c0 0 -1 -2 -1 -7c-2.84572 -34.1486 -26.5146 -58.4531 -59 -60c-32.2655 -1.07552 -65 22.5914 -65 60l-1 7l-11 2
c-142.269 29.0063 -262.023 141.22 -294 294l-2 11c-13.8022 1.97175 -25.8998 2.83323 -37 9c-19.2812 10.2833 -36.9334 36.2663 -29 68c7.63718 32.458 29.8399 43.8343 66 49l2 10c29.4017 149.459 149.955 265.848 294 295l11 2zM604 527
c-74.5729 34.2632 -157.396 28.5248 -224 -8c-21 -12 -40 -25 -57 -42c-90.0302 -90.0302 -99.6896 -250.7 -4 -350c89.794 -94.2837 241.932 -99.4746 338 -22c41.6258 34.0574 74.8101 85.6217 87 142c16 75 -1 151 -49 210c-23.6302 28.8814 -56.2502 54.5557 -91 70z
M487 424c-45.2167 -3.93188 -82.4579 -33.8481 -99 -69c-30 -62 -5 -137 57 -167c39 -19 84 -17 121 6c37.111 23.8571 69.7889 69.9499 56 132c-5 24 -17 47 -36 65c-26 25 -63 37 -99 33z" />
  </g>

</svg>
