<?xml version="1.0" standalone="no"?>
<!DOCTYPE svg PUBLIC "-//W3C//DTD SVG 1.1//EN" "http://www.w3.org/Graphics/SVG/1.1/DTD/svg11.dtd" >
<svg xmlns="http://www.w3.org/2000/svg" xmlns:xlink="http://www.w3.org/1999/xlink" version="1.1" viewBox="-10 0 1010 1000">
  <g transform="matrix(1 0 0 -1 0 800)">
   <path fill="currentColor"
d="M438 677c3 40 35 69 78 58c25 -7 46 -27 46 -58c0 -10 1 -7 10 -9c34 -6 72 -20 104 -37c99 -53 170 -147 192 -257l2 -11c11 -2 23 -2 32 -7c21 -10 43 -35 34 -70c-7 -28 -30 -46 -59 -48l-7 -1l-2 -11c-26 -130 -116 -231 -229 -275c-24 -9 -53 -16 -76 -21
c0 0 -1 -2 -1 -7c-3 -34 -27 -58 -59 -60c-32 -1 -65 23 -65 60l-1 7l-11 2c-142 29 -262 141 -294 294l-2 11c-14 2 -26 3 -37 9c-19 10 -37 36 -29 68s30 44 66 49l2 10c29 149 150 266 294 295l11 2zM604 527c-75 34 -157 29 -224 -8c-21 -12 -40 -25 -57 -42
c-90 -90 -100 -251 -4 -350c90 -94 242 -99 338 -22c42 34 75 86 87 142c16 75 -1 151 -49 210c-24 29 -56 55 -91 70zM487 424c36 4 73 -8 99 -33c19 -18 31 -41 36 -65c14 -62 -19 -108 -56 -132c-37 -23 -82 -25 -121 -6c-62 30 -87 105 -57 167c17 35 54 65 99 69z" />
  </g>

</svg>
