<?xml version="1.0" standalone="no"?>
<!DOCTYPE svg PUBLIC "-//W3C//DTD SVG 1.1//EN" "http://www.w3.org/Graphics/SVG/1.1/DTD/svg11.dtd" >
<svg xmlns="http://www.w3.org/2000/svg" xmlns:xlink="http://www.w3.org/1999/xlink" version="1.1" viewBox="-10 0 1010 1000">
  <g transform="matrix(1 0 0 -1 0 800)">
   <path fill="currentColor"
d="M114 674c4 1 26 1 138 1h133c9.2758 -3.09193 19.1347 -6.50775 26 -12c2 -2 30 -28 60 -58l55 -55h359c25.8068 -8.60225 45.0365 -21.5678 51 -49c1 -5 1 -13 1 -263s0 -259 -1 -264c-5.95755 -27.4047 -25.1979 -40.3993 -51 -49h-383c-339 0 -382 0 -387 1
c-26.177 4.02724 -44.7633 23.0534 -51 48c-1 5 -1 15 -1 326s0 321 1 326c6 25 25 43 50 48zM188 300v-250h624v375h-153c-127 0 -153 0 -149 -1c26.3517 -3.76453 44.5634 -23.8283 51 -47c1 -4 1 -7 1 -25l1 -21h20c20 0 21 0 27 -2
c26.5105 -7.23013 55.0158 -34.937 45 -75c-6 -23 -23 -40 -45 -46c-6 -2 -7 -2 -27 -2h-20l-1 -20c0 -18 0 -22 -1 -26c-6 -23 -23 -39 -45 -45c-34 -9 -68 11 -77 45c-1 4 -1 8 -1 26l-1 20h-18c-31.371 0 -42.9039 3.90388 -57 18
c-12.0137 12.0137 -23.4889 33.0445 -17 59c4.48119 17.9248 17.0049 35.145 33 42c11 6 18 6 41 6h18l1 21c0 29.0315 -0.100845 29.8487 10 45c9 14 25 24 41 27c3 0 5 1 5 1s-2 1 -5 1c-8 1 -17 5 -25 10c-2 1 -24 23 -59 58l-56 56h-161v-250z" />
  </g>

</svg>
