<?xml version="1.0" standalone="no"?>
<!DOCTYPE svg PUBLIC "-//W3C//DTD SVG 1.1//EN" "http://www.w3.org/Graphics/SVG/1.1/DTD/svg11.dtd" >
<svg xmlns="http://www.w3.org/2000/svg" xmlns:xlink="http://www.w3.org/1999/xlink" version="1.1" viewBox="-10 0 1010 1000">
  <g transform="matrix(1 0 0 -1 0 800)">
   <path fill="currentColor"
d="M114 674c4 1 26 1 138 1h133c9 -3 19 -7 26 -12c2 -2 30 -28 60 -58l55 -55h359c26 -9 45 -22 51 -49c1 -5 1 -13 1 -263s0 -259 -1 -264c-6 -27 -25 -40 -51 -49h-383c-339 0 -382 0 -387 1c-26 4 -45 23 -51 48c-1 5 -1 15 -1 326s0 321 1 326c6 25 25 43 50 48z
M188 550v-500h624v375h-158c-171 0 -164 0 -174 3c-5 2 -11 5 -16 8c-2 1 -24 23 -59 58l-56 56h-161zM344 175c0 41.8084 35.6137 55.6137 58 78c0 0 -9 8 -20 17c-23 18 -38 27 -38 61c0 52.1863 52.176 76.904 96 53l60 -49c1 1 61 49 62 50c11 6 19 8 32 8
c37 0 62 -24 62 -62c0 -41.8084 -35.6137 -55.6137 -58 -78c0 0 9 -8 20 -17c23 -18 38 -27 38 -61c0 -36 -26 -62 -62 -62c-13 0 -21 3 -32 9c0 0 -61 48 -62 49c-60 -48 -57 -47 -60 -49c-45 -28 -96 7 -96 53z" />
  </g>

</svg>
