<?xml version="1.0" standalone="no"?>
<!DOCTYPE svg PUBLIC "-//W3C//DTD SVG 1.1//EN" "http://www.w3.org/Graphics/SVG/1.1/DTD/svg11.dtd" >
<svg xmlns="http://www.w3.org/2000/svg" xmlns:xlink="http://www.w3.org/1999/xlink" version="1.1" viewBox="-10 0 1010 1000">
  <g transform="matrix(1 0 0 -1 0 800)">
   <path fill="currentColor"
d="M114 674c4 1 26 1 138 1h133c9 -3 19 -7 26 -12c2 -2 30 -28 60 -58l55 -55h359c26 -9 45 -22 51 -49c1 -5 1 -13 1 -263s0 -259 -1 -264c-6 -27 -25 -40 -51 -49h-383c-339 0 -382 0 -387 1c-26 4 -45 23 -51 48c-1 5 -1 15 -1 326s0 321 1 326c6 25 25 43 50 48z
M188 550v-500h624v375h-158c-171 0 -164 0 -174 3c-5 2 -11 5 -16 8c-2 1 -24 23 -59 58l-56 56h-161zM635 331c29 -10 52 -24 52 -62c0 -35 -22 -57 -52 -62l-132 -1c-116 0 -133 0 -138 1c-26 4 -45 23 -51 47c-10 42 21 71 50 76c4 1 26 1 138 1h133z" />
  </g>

</svg>
