<?xml version="1.0" standalone="no"?>
<!DOCTYPE svg PUBLIC "-//W3C//DTD SVG 1.1//EN" "http://www.w3.org/Graphics/SVG/1.1/DTD/svg11.dtd" >
<svg xmlns="http://www.w3.org/2000/svg" xmlns:xlink="http://www.w3.org/1999/xlink" version="1.1" viewBox="-10 0 1010 1000">
  <g transform="matrix(1 0 0 -1 0 800)">
   <path fill="currentColor"
d="M114 674c4 1 26 1 138 1h133c9.2758 -3.09193 19.1347 -6.50775 26 -12c2 -2 30 -28 60 -58l55 -55h359c25.8068 -8.60225 45.0365 -21.5678 51 -49c1 -5 1 -13 1 -263s0 -259 -1 -264c-5.95755 -27.4047 -25.1979 -40.3993 -51 -49h-383c-339 0 -382 0 -387 1
c-26.177 4.02724 -44.7633 23.0534 -51 48c-1 5 -1 15 -1 326s0 321 1 326c6 25 25 43 50 48zM188 550v-500h624v375h-158c-171 0 -164 0 -174 3c-5 2 -11 5 -16 8c-2 1 -24 23 -59 58l-56 56h-161zM395 393c-28.848 -5.76959 -51 -26.409 -51 -62
c0 -33.8279 15.4597 -42.5579 38 -61c11 -9 20 -17 20 -17c-0.97132 -0.825622 -41.3882 -34.7763 -42 -36c-9.30603 -9.30603 -16 -25.0319 -16 -42c0 -45.7613 50.9086 -81.1821 96 -53c3.12789 1.56395 -0.393866 1.10142 60 49
c0.838961 -0.645357 61.5968 -48.7984 62 -49c11 -6 19 -9 32 -9c35.672 0 62 25.6056 62 62c0 33.8279 -15.4597 42.5579 -38 61c-11 9 -20 17 -20 17c0.97132 0.825622 41.3882 34.7763 42 36c9.30603 9.30603 16 25.0319 16 42c0 37.9245 -24.7924 62 -62 62
c-13 0 -21 -2 -32 -8c-1.0395 -0.519752 -60.9374 -49.1206 -62 -50c0 0 -59.7201 48.86 -60 49c-10.7701 6.46204 -27.503 11.4996 -45 9z" />
  </g>

</svg>
