<?xml version="1.0" standalone="no"?>
<!DOCTYPE svg PUBLIC "-//W3C//DTD SVG 1.1//EN" "http://www.w3.org/Graphics/SVG/1.1/DTD/svg11.dtd" >
<svg xmlns="http://www.w3.org/2000/svg" xmlns:xlink="http://www.w3.org/1999/xlink" version="1.1" viewBox="-10 0 1010 1000">
  <g transform="matrix(1 0 0 -1 0 800)">
   <path fill="currentColor"
d="M114 674c4 1 26 1 138 1h133c9 -3 19 -7 26 -12c2 -2 30 -28 60 -58l55 -55h359c26 -9 45 -22 51 -49c1 -5 1 -13 1 -263s0 -259 -1 -264c-6 -27 -25 -40 -51 -49h-383c-339 0 -382 0 -387 1c-26 4 -45 23 -51 48c-1 5 -1 15 -1 326s0 321 1 326c6 25 25 43 50 48z
M188 550v-500h624v375h-153c-127 0 -153 0 -149 -1c26 -4 45 -24 51 -47c1 -4 1 -7 1 -25l1 -21h20c20 0 21 0 27 -2c27 -7 55 -35 45 -75c-6 -23 -23 -40 -45 -46c-6 -2 -7 -2 -27 -2h-20l-1 -20c0 -18 0 -22 -1 -26c-6 -23 -23 -39 -45 -45c-34 -9 -68 11 -77 45
c-1 4 -1 8 -1 26l-1 20h-18c-31 0 -43 4 -57 18c-12 12 -23 33 -17 59c4 18 17 35 33 42c11 6 18 6 41 6h18l1 21c0 29 0 30 10 45c9 14 25 24 41 27c3 0 5 1 5 1s-2 1 -5 1c-8 1 -17 5 -25 10c-2 1 -24 23 -59 58l-56 56h-161z" />
  </g>

</svg>
