<?xml version="1.0" standalone="no"?>
<!DOCTYPE svg PUBLIC "-//W3C//DTD SVG 1.1//EN" "http://www.w3.org/Graphics/SVG/1.1/DTD/svg11.dtd" >
<svg xmlns="http://www.w3.org/2000/svg" xmlns:xlink="http://www.w3.org/1999/xlink" version="1.1" viewBox="-10 0 1010 1000">
  <g transform="matrix(1 0 0 -1 0 800)">
   <path fill="currentColor"
d="M273 695c3 0 48 1 99 1c89 0 94 -1 99 -2c30.982 -6.19639 58.4369 -36.9709 47 -77c-7.1311 -26.1474 -25.2328 -37.4109 -51 -46h-93c-102 0 -95 -1 -105 -5c-20 -8 -34 -24 -38 -45c-1 -5 -2 -9 -2 -61v-56h194c31.3544 -4.18058 59.741 -34.3308 56 -68
c-3.13087 -27.1342 -21.8514 -50.1703 -51 -56h-99l-100 -1v-277c-3.71787 -37.1787 -44.8262 -70.9244 -89 -50c-17.8544 8.40209 -30.7971 23.9854 -35 45l-1 260c0 188 0 262 1 268c7.49504 89.9405 76.9448 160.581 168 170zM654 694c-24 -5 -43 -24 -48 -48
c-1 -5 -2 -10 -2 -82v-76h-12c-14 0 -20 -1 -27 -3c-32 -10 -51 -44 -42 -77c7 -24 28 -42 52 -45c3 0 10 -1 17 -1h12v-140c0 -94 1 -142 1 -146c8.27222 -68.2458 59.1814 -118.876 126 -129c7 -1 12 -1 59 -1h52c25.765 8.58833 43.8628 19.8304 51 46
c11.1642 39.0747 -13.6361 68.4981 -44 77c-5 1 -6 2 -54 2h-50c-6.67216 3.33608 -11.1357 5.83937 -14 13c-1 3 -2 4 -2 141v137h33c35 0 40 0 48 3c40 13 56 60 33 95c-10 14 -26 25 -43 27c-3 0 -18 1 -38 1h-33v152c-3 26 -21 46 -46 53c-8 2 -21 3 -29 1z" />
  </g>

</svg>
