<?xml version="1.0" standalone="no"?>
<!DOCTYPE svg PUBLIC "-//W3C//DTD SVG 1.1//EN" "http://www.w3.org/Graphics/SVG/1.1/DTD/svg11.dtd" >
<svg xmlns="http://www.w3.org/2000/svg" xmlns:xlink="http://www.w3.org/1999/xlink" version="1.1" viewBox="-10 0 1010 1000">
  <g transform="matrix(1 0 0 -1 0 800)">
   <path fill="currentColor"
d="M273 695c3 0 48 1 99 1c89 0 94 -1 99 -2c31 -6 58 -37 47 -77c-7 -26 -25 -37 -51 -46h-93c-102 0 -95 -1 -105 -5c-20 -8 -34 -24 -38 -45c-1 -5 -2 -9 -2 -61v-56h194c31 -4 60 -34 56 -68c-3 -27 -22 -50 -51 -56h-99l-100 -1v-277c-4 -37 -45 -71 -89 -50
c-18 8 -31 24 -35 45l-1 260c0 188 0 262 1 268c7 90 77 161 168 170zM606 646c6.43754 30.9002 36.492 57.127 77 47c25 -7 43 -27 46 -53v-152h33c20 0 35 -1 38 -1c17 -2 33 -13 43 -27c23 -35 7 -82 -33 -95c-8 -3 -13 -3 -48 -3h-33v-137c0 -137 1 -138 2 -141
c3 -7 7 -10 14 -13h50c48 0 49 -1 54 -2c30 -9 55 -38 44 -77c-7 -26 -25 -37 -51 -46h-52c-47 0 -52 0 -59 1c-67 10 -118 61 -126 129c0 4 -1 52 -1 146v140h-12c-7 0 -14 1 -17 1c-24 3 -45 21 -52 45c-9 33 10 67 42 77c7 2 13 3 27 3h12v76c0 72 1 77 2 82z" />
  </g>

</svg>
