<svg width="16" height="16" viewBox="0 0 16 16" fill="none" xmlns="http://www.w3.org/2000/svg">
<path d="M3.33333 12.6667C4.06971 12.6667 4.66667 12.0697 4.66667 11.3333C4.66667 10.597 4.06971 10 3.33333 10C2.59695 10 2 10.597 2 11.3333C2 12.0697 2.59695 12.6667 3.33333 12.6667Z" stroke="#24282B" stroke-width="2" stroke-linecap="round" stroke-linejoin="round"/>
<path d="M9.33333 12.6667C10.0697 12.6667 10.6667 12.0697 10.6667 11.3333C10.6667 10.597 10.0697 10 9.33333 10C8.59695 10 8 10.597 8 11.3333C8 12.0697 8.59695 12.6667 9.33333 12.6667Z" stroke="#24282B" stroke-width="2" stroke-linecap="round" stroke-linejoin="round"/>
<path d="M4.66667 11.3333H8.00001" stroke="#24282B" stroke-width="2" stroke-linecap="round" stroke-linejoin="round"/>
<path d="M2 11.3333V7.33333H10.6667V11.3333" stroke="#24282B" stroke-width="2" stroke-linecap="round" stroke-linejoin="round"/>
<path d="M3.33333 7.33333V4.66667H5.99999" stroke="#24282B" stroke-width="2" stroke-linecap="round" stroke-linejoin="round"/>
<path d="M6 7.33333V3.33333H8.66667L10.6667 7.33333" stroke="#24282B" stroke-width="2" stroke-linecap="round" stroke-linejoin="round"/>
<path d="M14.6667 10H12.6667V3.33333" stroke="#24282B" stroke-width="2" stroke-linecap="round" stroke-linejoin="round"/>
<path d="M10.6667 8.66667H12.6667" stroke="#24282B" stroke-width="2" stroke-linecap="round" stroke-linejoin="round"/>
</svg>
