<?xml version="1.0" standalone="no"?>
<!DOCTYPE svg PUBLIC "-//W3C//DTD SVG 1.1//EN" "http://www.w3.org/Graphics/SVG/1.1/DTD/svg11.dtd" >
<svg xmlns="http://www.w3.org/2000/svg" xmlns:xlink="http://www.w3.org/1999/xlink" version="1.1" viewBox="-10 0 1010 1000">
  <g transform="matrix(1 0 0 -1 0 800)">
   <path fill="currentColor"
d="M146 515c3.10841 26.9395 22.8631 49.3726 51 55h58l57 1v13c0 40.7626 22.9607 65.8701 56 70c7 1 173 1 180 0c20.88 -2.088 36.3879 -13.5818 46 -28c4 -6 130 -259 132 -264c1 -3 2 -7 2 -10c1 -4 1 17 1 123l1 128c7.12091 35.6045 51.5229 68.5693 95 42
c14.7039 -8.40225 27.1004 -28.0044 29 -47v-360h33c20 0 35 -1 38 -1c17 -2 33 -13 43 -27c23 -35 7 -82 -33 -95c-9 -3 -11 -2 -84 -2h-69c-26.6681 4.44468 -47.7494 24.4962 -52 50c-1 4 -1 -1 -1 -35v-47c-9.65161 -110.993 -135.898 -171.068 -226 -111
c-21 14 -38 33 -50 56l-1 3h-112l-1 -2c-1 -1 -3 -5 -5 -9c-41.2121 -69.9357 -137.366 -93.7558 -206 -48c-30 20 -52 51 -61 85c-5 19 -4 6 -4 156c0 98 -1 135 0 139c3 22 19 42 39 50c9 4 13 4 29 4l15 1v110zM438 529v-125h63c35 0 64 1 64 1l-62 124h-65zM271 446v-42
h41v42h-41zM452 154c24.9946 51.9293 76.5606 89.956 152 82v43h-416v-43c74.7576 8.50492 126.884 -31.2387 152 -82h112zM209 112c-13.4845 0 -22.2224 -10.9984 -21 -22c1 -18 22 -25 35 -13c4 4 5 7 5 15c0 12.3459 -8.17631 20 -19 20zM577 111c-9 -3 -15 -12 -14 -21
c1.42133 -25.5839 41 -24.3361 41 1c0 12.2664 -9.21053 21 -20 21c-3 0 -5 0 -7 -1z" />
  </g>

</svg>
