<?xml version="1.0" standalone="no"?>
<!DOCTYPE svg PUBLIC "-//W3C//DTD SVG 1.1//EN" "http://www.w3.org/Graphics/SVG/1.1/DTD/svg11.dtd" >
<svg xmlns="http://www.w3.org/2000/svg" xmlns:xlink="http://www.w3.org/1999/xlink" version="1.1" viewBox="-10 0 1010 1000">
  <g transform="matrix(1 0 0 -1 0 800)">
   <path fill="currentColor"
d="M146 515c3 27 23 49 51 55h58l57 1v13c0 41 23 66 56 70c7 1 173 1 180 0c21 -2 36 -14 46 -28c4 -6 130 -259 132 -264c1 -3 2 -7 2 -10c1 -4 1 17 1 123l1 128c7 36 52 69 95 42c15 -8 27 -28 29 -47v-360h33c20 0 35 -1 38 -1c17 -2 33 -13 43 -27
c23 -35 7 -82 -33 -95c-9 -3 -11 -2 -84 -2h-69c-27 4 -48 24 -52 50c-1 4 -1 -1 -1 -35v-47c-10 -111 -136 -171 -226 -111c-21 14 -38 33 -50 56l-1 3h-112l-1 -2c-1 -1 -3 -5 -5 -9c-41 -70 -137 -94 -206 -48c-30 20 -52 51 -61 85c-5 19 -4 6 -4 156c0 98 -1 135 0 139
c3 22 19 42 39 50c9 4 13 4 29 4l15 1v110zM438 529v-125h63c35 0 64 1 64 1l-62 124h-65zM271 446v-42h41v42h-41zM452 154c25 52 77 90 152 82v43h-416v-43c75 9 127 -31 152 -82h112zM209 112c-13 0 -22 -11 -21 -22c1 -18 22 -25 35 -13c4 4 5 7 5 15c0 12 -8 20 -19 20
zM584 112c-13.4845 0 -22.2224 -10.9984 -21 -22c1 -26 41 -24 41 1c0 12 -9 21 -20 21z" />
  </g>

</svg>
