<?xml version="1.0" standalone="no"?>
<!DOCTYPE svg PUBLIC "-//W3C//DTD SVG 1.1//EN" "http://www.w3.org/Graphics/SVG/1.1/DTD/svg11.dtd" >
<svg xmlns="http://www.w3.org/2000/svg" xmlns:xlink="http://www.w3.org/1999/xlink" version="1.1" viewBox="-10 0 1010 1000">
  <g transform="matrix(1 0 0 -1 0 800)">
   <path fill="currentColor"
d="M239 737c6 1 23 0 34 -1c37 -5 75 -20 102 -47c32 32 77 46 119 48c37 2 59 -20 67 -48c9 -35 -13 -60 -34 -70c-14 -7 -39 -6 -54 -13c-18 -9 -31 -26 -35 -47v-518c6 -30 27 -51 62 -54c36 -3 62 -23 62 -62s-28 -65 -68 -62c-42 2 -87 16 -119 48
c-45 -45 -166 -81 -186 0c-11 44 22 73 61 77c35 3 56 22 62 53v518c-6 31 -27 50 -62 53c-33 3 -54 22 -61 49c-10 39 20 71 50 76zM250 112c0 -37 -25 -53 -53 -62h-38c-33 0 -39 0 -44 1c-26 4 -45 23 -51 48c-1 5 -1 12 -1 201s0 196 1 201c6 25 25 43 50 48
c4 1 12 1 44 1h39c26 -9 44 -21 51 -48c11 -44 -24 -75 -56 -77h-4v-250h4c33 -5 58 -26 58 -63zM500 488c0 34 24 56 52 61c4 1 30 1 169 1h164l5 -2c23 -6 41 -24 46 -47c1 -5 1 -12 1 -201s0 -196 -1 -201c-5 -23 -23 -41 -46 -47l-5 -2h-164c-177 0 -168 0 -178 3
c-23 9 -43 28 -43 59c0 32 20 51 43 60c10 3 5 3 142 3h127v250h-127c-137 0 -132 0 -142 3c-23 9 -43 28 -43 60zM552 362c34 6 66 -17 72 -51l1 -4c6 28 23 51 52 55c24 4 49 -7 63 -27c23 -35 7 -82 -33 -95c-35 -11 -74 12 -81 48l-1 5c-5 -21 -14 -38 -34 -49
c-41 -21 -91 11 -91 56c0 33 25 57 52 62z" />
  </g>

</svg>
