<?xml version="1.0" standalone="no"?>
<!DOCTYPE svg PUBLIC "-//W3C//DTD SVG 1.1//EN" "http://www.w3.org/Graphics/SVG/1.1/DTD/svg11.dtd" >
<svg xmlns="http://www.w3.org/2000/svg" xmlns:xlink="http://www.w3.org/1999/xlink" version="1.1" viewBox="-10 0 1010 1000">
  <g transform="matrix(1 0 0 -1 0 800)">
   <path fill="currentColor"
d="M239 737c6 1 23 0 34 -1c37.2347 -5.03172 74.8845 -19.8845 102 -47c31.6259 31.6259 76.7491 46.0348 119 48c37.0208 2.46805 59.1748 -19.8294 67 -48c8.62777 -34.5111 -12.9931 -60.1144 -34 -70c-13.8151 -6.90757 -39.2185 -6.43045 -54 -13
c-18.4875 -8.70002 -30.7924 -25.962 -35 -47v-518c6.03208 -30.1604 27.4859 -51.1238 62 -54c36.3874 -3.30794 62 -23.3814 62 -62c0 -38.542 -28.2992 -64.6467 -68 -62c-42.2917 1.96706 -87.3525 16.3525 -119 48c-44.9317 -44.9317 -165.792 -80.8329 -186 0
c-11.1112 44.4446 22.475 73.4977 61 77c34.8438 2.90365 55.8422 22.2112 62 53v518c-6.14235 30.7117 -27.1725 50.0977 -62 53c-33.0551 3.00501 -54.1562 21.6248 -61 49c-9.77609 39.1044 19.9137 70.6906 50 76zM192 175c33.4823 -4.78318 58 -25.9898 58 -63
c0 -31.5011 -21.683 -53.3956 -47 -60l-6 -2h-38c-33 0 -39 0 -44 1c-26.177 4.02724 -44.7633 23.0534 -51 48c-1 5 -1 12 -1 201s0 196 1 201c6 25 25 43 50 48c4 1 12 1 44 1h39c25.9421 -8.64736 43.8666 -20.6553 51 -48c11.0641 -44.2566 -24.3951 -74.6589 -56 -77
h-4v-250h4zM500 488c0 33.9289 24.169 56.0886 52 61c4 1 30 1 169 1h164l5 -2c23 -6 41 -24 46 -47c1 -5 1 -12 1 -201s0 -196 -1 -201c-5 -23 -23 -41 -46 -47l-5 -2h-164c-177 0 -168 0 -178 3c-22.5972 9.03889 -43 27.6767 -43 59c0 31.9698 19.815 50.726 43 60
c10 3 5 3 142 3h127v250h-127c-137 0 -132 0 -142 3c-23.0814 9.23258 -43 27.9301 -43 60zM552 362c-27.2973 -4.81717 -52 -28.688 -52 -62c0 -45.203 49.7293 -76.6353 91 -56c19.8751 10.5221 28.6364 27.5456 34 49l1 -5c7 -36 46 -59 81 -48c40 13 56 60 33 95
c-14 20 -39 31 -63 27c-28.8944 -4.44529 -46.4248 -27.124 -52 -55l-1 4c-6 34 -38 57 -72 51z" />
  </g>

</svg>
