<?xml version="1.0" standalone="no"?>
<!DOCTYPE svg PUBLIC "-//W3C//DTD SVG 1.1//EN" "http://www.w3.org/Graphics/SVG/1.1/DTD/svg11.dtd" >
<svg xmlns="http://www.w3.org/2000/svg" xmlns:xlink="http://www.w3.org/1999/xlink" version="1.1" viewBox="-10 0 1010 1000">
  <g transform="matrix(1 0 0 -1 0 800)">
   <path fill="currentColor"
d="M324 674c-88.3281 -5.5205 -160.792 -54.5301 -205 -112c-63 -84 -74 -197 -28 -291c39.7551 -83.1243 124.787 -149.434 234 -158h204l195 -1l-43 -42c-46 -46 -47 -47 -51 -58c-3 -8 -5 -14 -5 -24c0 -55.8996 59.8436 -78.1095 100 -50c3 2 47 46 102 101
c105 105 101 100 106 112c3 8 4 14 4 24s-1 16 -4 24c-5 12 -1 7 -108 114c-73 73 -100 99 -103 101c-45.6074 28.8047 -97 -3.80037 -97 -52c0 -10 2 -16 5 -24c4 -11 5 -12 51 -58l43 -43l-198 1c-216 0 -199 -1 -216 3c-43.6791 9.9838 -88.4246 43.1342 -107 84
c-26.9179 55.1176 -14.9264 124.342 16 163c19.9984 26.6646 54.4241 49.7677 89 58c17 4 15 4 80 4h59c25.9421 8.64736 43.8666 20.6553 51 48c9.97194 39.8877 -17.7005 67.8784 -45 75l-6 2h-58c-32 0 -61 -1 -65 -1z" />
  </g>

</svg>
