<?xml version="1.0" standalone="no"?>
<!DOCTYPE svg PUBLIC "-//W3C//DTD SVG 1.1//EN" "http://www.w3.org/Graphics/SVG/1.1/DTD/svg11.dtd" >
<svg xmlns="http://www.w3.org/2000/svg" xmlns:xlink="http://www.w3.org/1999/xlink" version="1.1" viewBox="-10 0 1010 1000">
  <g transform="matrix(1 0 0 -1 0 800)">
   <path fill="currentColor"
d="M677 674c-28.0989 -4.95864 -52 -27.6316 -52 -62c0 -10 2 -16 5 -24c4 -11 5 -12 51 -58l43 -42l-195 -1c-196 0 -204 0 -221 -2c-80.0593 -9.53086 -147.58 -56.1544 -189 -110c-63 -84 -74 -198 -28 -292c38.4133 -80.3187 118.572 -142.924 221 -156
c11 -1 13 -2 73 -2h62c25.9421 8.64736 43.8666 20.6553 51 48c9.97194 39.8877 -17.7005 67.8784 -45 75l-6 2h-59c-50 0 -61 0 -66 1c-25 4 -45 12 -65 25c-10 6 -15 12 -24 21c-22.7977 22.7977 -37.3679 49.4183 -44 87c-6.92616 34.6308 3.37949 68.2418 14 91
c22.9271 45.8542 64.7299 80.1922 126 87h395l-43 -42c-46 -46 -47 -47 -51 -58c-3 -8 -5 -14 -5 -24c0 -51.9705 56.9341 -80.0461 97 -52c3 2 30 28 103 101c107 107 103 102 108 114c3 8 4 14 4 24s-1 16 -4 24c-5 12 -1 7 -106 112c-55 55 -99 99 -102 101
c-10.7997 8.99979 -28.3288 14.8102 -48 12z" />
  </g>

</svg>
