<?xml version="1.0" standalone="no"?>
<!DOCTYPE svg PUBLIC "-//W3C//DTD SVG 1.1//EN" "http://www.w3.org/Graphics/SVG/1.1/DTD/svg11.dtd" >
<svg xmlns="http://www.w3.org/2000/svg" xmlns:xlink="http://www.w3.org/1999/xlink" version="1.1" viewBox="-10 0 1010 1000">
  <g transform="matrix(1 0 0 -1 0 800)">
   <path fill="currentColor"
d="M625 612c0 51 61 82 100 50c3 -2 47 -46 102 -101c105 -105 101 -100 106 -112c3 -8 4 -14 4 -24s-1 -16 -4 -24c-5 -12 -1 -7 -108 -114c-73 -73 -100 -99 -103 -101c-40 -28 -97 0 -97 52c0 10 2 16 5 24c4 11 5 12 51 58l43 42h-395c-61 -7 -103 -41 -126 -87
c-11 -23 -21 -56 -14 -91c7 -38 21 -64 44 -87c9 -9 14 -15 24 -21c20 -13 40 -21 65 -25c5 -1 16 -1 66 -1h59l6 -2c27 -7 55 -35 45 -75c-7 -27 -25 -39 -51 -48h-62c-60 0 -62 1 -73 2c-102 13 -183 76 -221 156c-46 94 -35 208 28 292c41 54 109 100 189 110
c17 2 25 2 221 2l195 1l-43 42c-46 46 -47 47 -51 58c-3 8 -5 14 -5 24z" />
  </g>

</svg>
