<?xml version="1.0" standalone="no"?>
<!DOCTYPE svg PUBLIC "-//W3C//DTD SVG 1.1//EN" "http://www.w3.org/Graphics/SVG/1.1/DTD/svg11.dtd" >
<svg xmlns="http://www.w3.org/2000/svg" xmlns:xlink="http://www.w3.org/1999/xlink" version="1.1" viewBox="-10 0 1010 1000">
  <g transform="matrix(1 0 0 -1 0 800)">
   <path fill="currentColor"
d="M324 674c4 0 33 1 65 1h58l6 -2c27 -7 55 -35 45 -75c-7 -27 -25 -39 -51 -48h-59c-65 0 -63 0 -80 -4c-35 -8 -69 -31 -89 -58c-31 -39 -43 -108 -16 -163c19 -41 63 -74 107 -84c17 -4 0 -3 216 -3l198 -1l-43 43c-46 46 -47 47 -51 58c-3 8 -5 14 -5 24
c0 48 51 81 97 52c3 -2 30 -28 103 -101c107 -107 103 -102 108 -114c3 -8 4 -14 4 -24s-1 -16 -4 -24c-5 -12 -1 -7 -106 -112c-55 -55 -99 -99 -102 -101c-40 -28 -100 -6 -100 50c0 10 2 16 5 24c4 11 5 12 51 58l43 42l-195 1h-204c-109 9 -194 75 -234 158
c-46 94 -35 207 28 291c44 57 117 106 205 112z" />
  </g>

</svg>
