<?xml version="1.0" standalone="no"?>
<!DOCTYPE svg PUBLIC "-//W3C//DTD SVG 1.1//EN" "http://www.w3.org/Graphics/SVG/1.1/DTD/svg11.dtd" >
<svg xmlns="http://www.w3.org/2000/svg" xmlns:xlink="http://www.w3.org/1999/xlink" version="1.1" viewBox="-10 0 1010 1000">
  <g transform="matrix(1 0 0 -1 0 800)">
   <path fill="currentColor"
d="M448 654c-66.7829 -5.23788 -121.594 -54.6982 -134 -125c-1 -6 -1 -15 -1 -149l-1 -142l-15 -1c-40.7885 0 -67 -21.7699 -67 -62c0 -40.206 26.3433 -62 67 -62l15 -1v-54c0 -59 1 -60 4 -70c8.95593 -26.8678 33.2708 -46.5327 72 -41c24 5 41 23 48 47c1 5 1 5 1 61
l1 57h12c42.7416 0 70 21.4464 70 63c0 41.3775 -27.3989 63 -70 63h-12v41l120 1h120c48.7912 9.75823 67.5241 67.8202 33 105c-11 11 -23 17 -38 19h-235v54c0 59 -1 56 3 62c1 2 4 4 6 5c7 4 -4 4 139 4c124 0 130 1 135 2c30.982 6.19639 58.4369 36.9709 47 77
c-7.1311 26.1474 -25.2328 37.4109 -51 46h-269z" />
  </g>

</svg>
