<?xml version="1.0" standalone="no"?>
<!DOCTYPE svg PUBLIC "-//W3C//DTD SVG 1.1//EN" "http://www.w3.org/Graphics/SVG/1.1/DTD/svg11.dtd" >
<svg xmlns="http://www.w3.org/2000/svg" xmlns:xlink="http://www.w3.org/1999/xlink" version="1.1" viewBox="-10 0 1010 1000">
  <g transform="matrix(1 0 0 -1 0 800)">
   <path fill="currentColor"
d="M448 654h269c26 -9 44 -20 51 -46c11 -40 -16 -71 -47 -77c-5 -1 -11 -2 -135 -2c-143 0 -132 0 -139 -4c-2 -1 -5 -3 -6 -5c-4 -6 -3 -3 -3 -62v-54h235c15 -2 27 -8 38 -19c35 -37 16 -95 -33 -105h-120l-120 -1v-41h12c43 0 70 -22 70 -63c0 -42 -27 -63 -70 -63h-12
l-1 -57c0 -56 0 -56 -1 -61c-7 -24 -24 -42 -48 -47c-39 -6 -63 14 -72 41c-3 10 -4 11 -4 70v54l-15 1c-41 0 -67 22 -67 62s26 62 67 62l15 1l1 142c0 134 0 143 1 149c12 70 67 120 134 125z" />
  </g>

</svg>
