<?xml version="1.0" standalone="no"?>
<!DOCTYPE svg PUBLIC "-//W3C//DTD SVG 1.1//EN" "http://www.w3.org/Graphics/SVG/1.1/DTD/svg11.dtd" >
<svg xmlns="http://www.w3.org/2000/svg" xmlns:xlink="http://www.w3.org/1999/xlink" version="1.1" viewBox="-10 0 1010 1000">
  <g transform="matrix(1 0 0 -1 0 800)">
   <path fill="currentColor"
d="M114 612c4 1 62 0 388 0h383c26.9752 -4.49587 45.5523 -23.9407 51 -49c1 -5 1 -13 1 -263s0 -258 -1 -263c-5.44627 -25.0528 -24.0371 -44.5062 -51 -49h-383c-339 0 -382 -1 -387 0c-25.6715 3.94946 -44.8583 24.4332 -51 49c-1 5 -1 13 -1 263s0 258 1 263
c6 25 25 44 50 49zM188 488v-376h624v376h-624zM314 408c7.22313 28.8925 36.2057 56.1986 77 46c22 -6 39 -23 45 -46c1 -4 1 -7 1 -25l1 -20l20 -1c20 0 20 0 26 -2c25.1426 -6.85708 47 -27.1395 47 -60c0 -32.752 -20.9969 -53.181 -46 -60c-6 -2 -7 -2 -27 -2l-20 -1
l-1 -20c0 -18 0 -21 -1 -25c-7 -28 -30 -47 -58 -48c-30 -1 -56 19 -64 48c-1 4 -1 7 -1 25l-1 21h-18c-13 0 -19 -1 -23 0c-29.5209 4.72335 -61.4082 34.3671 -51 76c6 25 26 44 51 48c4 1 10 0 23 0h18l1 21c0 18 0 21 1 25zM581 407
c15.5245 15.5245 44.1703 24.9148 70 12c36.9565 -17.5983 49.8381 -69.1619 18 -101c-24.2905 -22.0822 -61.9382 -26.0618 -88 0c-24 24 -25 65 0 89zM708 299c-17 -3 -32 -13 -41 -27c-26.9828 -41.7008 2.06615 -108.587 65 -96c24 5 40 22 47 46
c11.3604 39.7614 -16.6033 68.5282 -44 76c-8 2 -20 2 -27 1z" />
  </g>

</svg>
