<?xml version="1.0" standalone="no"?>
<!DOCTYPE svg PUBLIC "-//W3C//DTD SVG 1.1//EN" "http://www.w3.org/Graphics/SVG/1.1/DTD/svg11.dtd" >
<svg xmlns="http://www.w3.org/2000/svg" xmlns:xlink="http://www.w3.org/1999/xlink" version="1.1" viewBox="-10 0 1010 1000">
  <g transform="matrix(1 0 0 -1 0 800)">
   <path fill="currentColor"
d="M114 612c4 1 62 0 388 0h383c27 -4 46 -24 51 -49c1 -5 1 -13 1 -263s0 -258 -1 -263c-5 -25 -24 -45 -51 -49h-383c-339 0 -382 -1 -387 0c-26 4 -45 24 -51 49c-1 5 -1 13 -1 263s0 258 1 263c6 25 25 44 50 49zM188 488v-376h624v376h-624zM314 408c7 29 36 56 77 46
c22 -6 39 -23 45 -46c1 -4 1 -7 1 -25l1 -20l20 -1c20 0 20 0 26 -2c25 -7 47 -27 47 -60s-21 -53 -46 -60c-6 -2 -7 -2 -27 -2l-20 -1l-1 -20c0 -18 0 -21 -1 -25c-7 -28 -30 -47 -58 -48c-30 -1 -56 19 -64 48c-1 4 -1 7 -1 25l-1 21h-18c-13 0 -19 -1 -23 0
c-30 5 -61 34 -51 76c6 25 26 44 51 48c4 1 10 0 23 0h18l1 21c0 18 0 21 1 25zM581 407c16 16 44 25 70 12c37 -18 50 -69 18 -101c-24 -22 -62 -26 -88 0c-24 24 -25 65 0 89zM667 272c12.187 18.9576 36.2885 33.9279 68 26c27 -7 55 -36 44 -76c-7 -24 -23 -41 -47 -46
c-63 -13 -92 54 -65 96z" />
  </g>

</svg>
