<?xml version="1.0" standalone="no"?>
<!DOCTYPE svg PUBLIC "-//W3C//DTD SVG 1.1//EN" "http://www.w3.org/Graphics/SVG/1.1/DTD/svg11.dtd" >
<svg xmlns="http://www.w3.org/2000/svg" xmlns:xlink="http://www.w3.org/1999/xlink" version="1.1" viewBox="-10 0 1010 1000">
  <g transform="matrix(1 0 0 -1 0 800)">
   <path fill="currentColor"
d="M296 211c0 -2 40 85 70 146c-29 29 -47 67 -52 109c-1 8 -1 35 0 43c10 77 58 133 123 155l1 10c3 42 33 72 78 61c26 -7 46 -28 46 -61l1 -10c64 -25 114 -80 123 -155c1 -9 1 -34 0 -43c-5 -40 -21 -76 -47 -104l-4 -5l72 -144c1 -1 23 15 33 22c31 24 56 52 74 84
c15 27 31 45 64 43c31 -1 59 -25 59 -62c0 -13 -2 -20 -10 -34c-23 -43 -54 -82 -91 -114c-20 -17 -50 -39 -72 -50c-1 0 6 -14 37 -77l40 -80c13 -40 -15 -80 -57 -82c-22 -1 -43 10 -55 28c-3 4 -83 162 -83 162c-5 -2 -31 -7 -48 -10c-80 -13 -162 -10 -239 8
c-77 -157 -76 -159 -78 -161c-6 -8 -14 -16 -23 -21c-37 -18 -91 4 -91 53c0 9 1 15 3 22l72 153c0 1 -1 1 -3 2c-5 3 -20 12 -30 19c-40 26 -73 58 -102 95c-16 21 -37 54 -41 67c-7 22 -2 47 15 64c29 28 76 23 97 -11c7 -10 10 -19 18 -30c19 -29 43 -54 73 -75
c9 -6 26 -17 27 -17zM492 550c-30 -6 -54 -29 -54 -62s21 -54 47 -61c40 -10 68 16 76 46c2 8 1 22 -1 30c-7 27 -30 46 -58 47h-10zM476 297l-62 -129c0 -1 8 -2 22 -4c51 -7 108 -4 153 4c0 0 -15 31 -33 67l-33 66h-6c-8 -1 -26 -1 -34 0h-6z" />
  </g>

</svg>
