<?xml version="1.0" standalone="no"?>
<!DOCTYPE svg PUBLIC "-//W3C//DTD SVG 1.1//EN" "http://www.w3.org/Graphics/SVG/1.1/DTD/svg11.dtd" >
<svg xmlns="http://www.w3.org/2000/svg" xmlns:xlink="http://www.w3.org/1999/xlink" version="1.1" viewBox="-10 0 1010 1000">
  <g transform="matrix(1 0 0 -1 0 800)">
   <path fill="currentColor"
d="M296 211c-0.368898 -1.63361 39.5599 85.2241 70 146c-28.5175 28.5175 -46.7237 66.7894 -52 109c-1 8 -1 35 0 43c9.8975 76.7056 57.8979 133.299 123 155l1 10c2.82507 42.3761 32.8342 72.2915 78 61c25.517 -6.95918 46 -27.5968 46 -61l1 -10
c27.5566 -11.0226 55.9618 -28.7353 76 -51c27 -30 42 -64 47 -104c1 -9 1 -34 0 -43c-5 -40 -21 -76 -47 -104l-4 -5l72 -144c1 -1 23 15 33 22c31 24 56 52 74 84c15.143 26.9209 30.8937 44.8392 64 43c31.1035 -1.11084 59 -24.598 59 -62c0 -13 -2 -20 -10 -34
c-23.3324 -43.3317 -54.3039 -81.8909 -91 -114c-19.6324 -17.0147 -49.9848 -38.9924 -72 -50c-1 0 6 -14 37 -77l40 -80c13 -40 -15 -80 -57 -82c-22 -1 -43 10 -55 28c-2.80721 4.21082 -83 162 -83 162c-5 -2 -31 -7 -48 -10c-79.5327 -13.4276 -161.99 -10.479 -239 8
c-76.6757 -157.387 -75.5458 -158.546 -78 -161c-6 -8 -14 -16 -23 -21c-36.9714 -18.4857 -91 4.48078 -91 53c0 9 1 15 3 22c0.00258393 0.00516785 72 152.974 72 153c0 1 -1 1 -3 2c-5 3 -20 12 -30 19c-40 26 -73 58 -102 95c-16 21 -37 54 -41 67c-7 22 -2 47 15 64
c29 28 76 23 97 -11c6.5624 -9.8436 10.3821 -18.5731 18 -30c19 -29 43 -54 73 -75c9 -6 26 -17 27 -17zM492 550c-30.3882 -5.52512 -54 -28.9069 -54 -62c0 -32.6171 21.3084 -53.9932 47 -61c40.2669 -10.0667 67.9362 16.4328 76 46c2 8 1 22 -1 30
c-7 27 -30 46 -58 47h-10zM476 297c0 0 -62 -128.607 -62 -129c0 -1 8 -2 22 -4c50.8567 -7.09629 107.865 -4.20634 153 4c0 0 -15 31 -33 67l-33 66h-6c-8 -1 -26 -1 -34 0h-6l-1 -4z" />
  </g>

</svg>
