<?xml version="1.0" standalone="no"?>
<!DOCTYPE svg PUBLIC "-//W3C//DTD SVG 1.1//EN" "http://www.w3.org/Graphics/SVG/1.1/DTD/svg11.dtd" >
<svg xmlns="http://www.w3.org/2000/svg" xmlns:xlink="http://www.w3.org/1999/xlink" version="1.1" viewBox="-10 0 1010 1000">
  <g transform="matrix(1 0 0 -1 0 800)">
   <path fill="currentColor"
d="M479 695c6 1 37 1 45 0c77 -6 150 -35 208 -86c17 -15 36 -36 50 -54c44 -58 68 -124 72 -197c1 -18 1 -327 0 -334c-7 -63 -59 -112 -119 -119c-55 -6 -90 14 -119 45c-7 7 -9 8 -16 -1c-21 -25 -50 -40 -82 -45c-9 -1 -27 -1 -36 0c-32 5 -61 20 -82 45
c-8 9 -9 9 -16 1c-26 -28 -64 -52 -119 -45c-64 8 -111 58 -119 119c-1 7 -1 317 0 334c2 41 10 77 25 114c38 96 116 172 214 205c27 9 57 15 83 17c4 0 10 1 11 1zM718 29c5 0 9 4 11 8v154c0 152 0 165 -2 180c-16 128 -149 238 -302 187c-77 -28 -142 -98 -153 -189
c-2 -14 -1 -32 -1 -178v-154c2 -4 6 -8 11 -8c4 0 7 2 12 8c22 25 64 53 117 42c35 -6 63 -23 83 -47c3 -4 3 -4 6 -4c6 0 11 10 16 15c54 54 147 46 190 -6c5 -6 7 -8 12 -8zM404 444c7 2 19 2 26 0c31 -6 57 -36 47 -77c-8 -25 -28 -46 -60 -46s-52 21 -60 46
c-10 41 14 70 47 77zM554 438c12 5 28 12 46 6c22 -7 39 -24 45 -47c2 -6 1 -22 -1 -28c-8 -28 -31 -55 -72 -47c-56 10 -71 88 -18 116zM409 279c18 3 30 -2 44 -11c11 -7 19 -10 31 -13c43 -12 64 24 100 24c31 0 51 -22 59 -46c8 -32 -4 -54 -26 -69
c-27 -18 -57 -29 -91 -34c-11 -2 -41 -2 -52 0c-34 5 -62 15 -89 33c-19 13 -30 27 -30 56c0 33 27 57 54 60z" />
  </g>

</svg>
