<?xml version="1.0" standalone="no"?>
<!DOCTYPE svg PUBLIC "-//W3C//DTD SVG 1.1//EN" "http://www.w3.org/Graphics/SVG/1.1/DTD/svg11.dtd" >
<svg xmlns="http://www.w3.org/2000/svg" xmlns:xlink="http://www.w3.org/1999/xlink" version="1.1" viewBox="-10 0 1010 1000">
  <g transform="matrix(1 0 0 -1 0 800)">
   <path fill="currentColor"
d="M479 695c6 1 37 1 45 0c77 -6 150 -35 208 -86c17 -15 36 -36 50 -54c44 -58 68 -124 72 -197c1 -18 1 -327 0 -334c-6.62165 -62.9057 -59.0765 -111.809 -119 -119c-54.5634 -6.0626 -90.1925 13.6875 -119 45c-7 7 -9 8 -16 -1c-21 -25 -50 -40 -82 -45
c-9 -1 -27 -1 -36 0c-32 5 -61 20 -82 45c-8 9 -9 9 -16 1c-25.9906 -27.8471 -63.6112 -51.9236 -119 -45c-63.508 8.46774 -110.803 57.5262 -119 119c-1 7 -1 317 0 334c2 41 10 77 25 114c38 96 116 172 214 205c27 9 57 15 83 17c4 0 10 1 11 1zM718 29
c5.06561 0 9.03475 4.0695 11 8v154c0 152 0 165 -2 180c-16.0598 128.478 -148.856 238.048 -302 187c-77.3511 -27.6254 -141.865 -97.6961 -153 -189c-2 -14 -1 -32 -1 -178v-154c1.96754 -3.93509 5.92962 -8 11 -8c4 0 7 2 12 8c22.3272 24.56 64.4526 52.5095 117 42
c34.5516 -5.7586 63.1075 -23.129 83 -47c3 -4 3 -4 6 -4c5.73654 0 10.8905 9.89048 16 15c54.2967 54.2967 146.926 45.6893 190 -6c5 -6 7 -8 12 -8zM404 444c7 2 19 2 26 0c30.737 -6.40354 57.2406 -36.0375 47 -77c-7.92668 -24.9124 -28.4455 -46 -60 -46
c-31.6713 0 -52.07 21.077 -60 46c-10.185 40.74 14.4229 70.2131 47 77zM554 438c11.7837 4.71348 28.3615 11.8795 46 6c21.9398 -7.31326 38.9501 -24.3127 45 -47c2 -6 1 -22 -1 -28c-8.28144 -28.3935 -31.3866 -55.1227 -72 -47
c-55.9155 10.1665 -70.653 87.7931 -18 116zM409 279c-27.4407 -2.6134 -54 -27.3173 -54 -60c0 -28.8302 10.7184 -42.6512 30 -56c27 -18 55 -28 89 -33c11 -2 41 -2 52 0c34 5 64 16 91 34c22.0583 14.7056 34.0901 36.6398 26 69c-7.75957 24.3872 -28.2645 46 -59 46
c-36.4376 0 -57.1842 -36.2331 -100 -24c-12 3 -20 6 -31 13c-13.5012 8.5917 -25.8885 14.0186 -44 11z" />
  </g>

</svg>
