<?xml version="1.0" standalone="no"?>
<!DOCTYPE svg PUBLIC "-//W3C//DTD SVG 1.1//EN" "http://www.w3.org/Graphics/SVG/1.1/DTD/svg11.dtd" >
<svg xmlns="http://www.w3.org/2000/svg" xmlns:xlink="http://www.w3.org/1999/xlink" version="1.1" viewBox="-10 0 1010 1000">
  <g transform="matrix(1 0 0 -1 0 800)">
   <path fill="currentColor"
d="M63 436c5 47 40 84 88 92c0 0 0 3 -1 6c-15 71 14 134 58 166c25 20 54 33 84 36c3 0 8 1 9 1c5 1 31 0 38 -1c59 -8 115 -45 156 -104c3 -4 5 -7 5 -7s2 3 5 7c40 57 93 94 150 103c51 9 93 -5 124 -25c54 -36 88 -99 70 -182c48 -8 83 -47 88 -92c0 -4 1 -24 1 -53
c0 -51 -1 -56 -4 -68c-10 -36 -38 -65 -77 -75h-3v-241c-6 -71 -61 -130 -133 -136c-6 -1 -68 0 -226 0c-206 0 -218 0 -224 1c-68 11 -119 66 -125 135v241h-3c-39 8 -68 41 -77 75c-3 12 -4 17 -4 68c0 29 1 49 1 53zM329 611c-31 10 -58 -12 -58 -40c0 -16 10 -31 23 -37
c9 -5 7 -4 65 -4h52c-20 32 -44 72 -82 81zM729 571c0 23 -17 41 -41 41c-19 0 -28 -3 -41 -12c-22 -14 -43 -39 -58 -70h51c58 0 57 -1 66 4c13 6 23 20 23 37zM188 404v-42h250v42h-250zM562 404v-42h250v42h-250zM271 122c0 -127 0 -119 4 -125c1 -2 3 -5 5 -6
c6 -4 1 -3 83 -3h75v250h-167v-116zM562 238v-250h75c81 0 77 -1 83 3c2 1 4 3 5 5c4 6 4 -2 4 126v116h-167z" />
  </g>

</svg>
