<?xml version="1.0" standalone="no"?>
<!DOCTYPE svg PUBLIC "-//W3C//DTD SVG 1.1//EN" "http://www.w3.org/Graphics/SVG/1.1/DTD/svg11.dtd" >
<svg xmlns="http://www.w3.org/2000/svg" xmlns:xlink="http://www.w3.org/1999/xlink" version="1.1" viewBox="-10 0 1010 1000">
  <g transform="matrix(1 0 0 -1 0 800)">
   <path fill="currentColor"
d="M63 436c5.28923 46.5452 40.215 84.0358 88 92c0 0 0 3 -1 6c-15.0103 71.2988 13.8129 134.438 58 166c25 20 54 33 84 36c3 0 8 1 9 1c5 1 31 0 38 -1c59 -8 115 -45 156 -104c3 -4 5 -7 5 -7s2 3 5 7c40 57 93 94 150 103c50.7601 9.22911 93.0599 -4.97995 124 -25
c54.0478 -36.0318 87.5029 -98.845 70 -182c48.0498 -8.00831 83.457 -46.5703 88 -92c0 -4 1 -24 1 -53c0 -51 -1 -56 -4 -68c-10.0668 -36.492 -38.0942 -65.2735 -77 -75h-3v-241c-5.73383 -70.7172 -61.0051 -129.648 -133 -136c-6 -1 -68 0 -226 0
c-206 0 -218 0 -224 1c-68.2374 10.6621 -119.394 65.8548 -125 135v241h-3c-38.5236 7.70473 -67.5512 40.7481 -77 75c-3 12 -4 17 -4 68c0 29 1 49 1 53zM329 611c-30.6176 10.2059 -58 -11.5891 -58 -40c0 -16.1598 10.2613 -30.6306 23 -37c9 -5 7 -4 65 -4h52
c-20.0098 32.0157 -44.1776 71.5444 -82 81zM729 571c0 23.3272 -17.012 41 -41 41c-19.0421 0 -27.7043 -3.13618 -41 -12c-21.5305 -13.9949 -42.7233 -39.4465 -58 -70h51c58 0 57 -1 66 4c12.7288 6.36438 23 20.0862 23 37zM188 404v-42h250v42h-250zM562 404v-42h250
v42h-250zM271 122c0 -127 0 -119 4 -125c1 -2 3 -5 5 -6c6 -4 1 -3 83 -3h75v250h-167v-116zM562 112v-124h75c81 0 77 -1 83 3c2 1 4 3 5 5c4 6 4 -2 4 126v116h-167v-126z" />
  </g>

</svg>
