<?xml version="1.0" standalone="no"?>
<!DOCTYPE svg PUBLIC "-//W3C//DTD SVG 1.1//EN" "http://www.w3.org/Graphics/SVG/1.1/DTD/svg11.dtd" >
<svg xmlns="http://www.w3.org/2000/svg" xmlns:xlink="http://www.w3.org/1999/xlink" version="1.1" viewBox="-10 0 1010 1000">
  <g transform="matrix(1 0 0 -1 0 800)">
   <path fill="currentColor"
d="M438 685c7 34 36 61 78 50c24 -6 41 -24 46 -50v-104l1 -104c62 -25 108 -75 121 -140c3 -15 3 -21 3 -37c0 -91 -54 -148 -118 -174l-6 -3l-1 -104v-104c-13.3136 -68.7869 -109.637 -67.7091 -124 0v104l-1 104l-6 3c-59 23 -103 75 -115 137c-3 15 -3 21 -3 37
s0 22 3 37c12 60 55 115 115 137l6 3l1 104v104zM492 362c-31 -5 -54 -27 -54 -62c0 -40 33 -71 78 -60c29 8 54 36 44 76c-7 27 -30 45 -58 46h-10z" />
  </g>

</svg>
