<?xml version="1.0" standalone="no"?>
<!DOCTYPE svg PUBLIC "-//W3C//DTD SVG 1.1//EN" "http://www.w3.org/Graphics/SVG/1.1/DTD/svg11.dtd" >
<svg xmlns="http://www.w3.org/2000/svg" xmlns:xlink="http://www.w3.org/1999/xlink" version="1.1" viewBox="-10 0 1010 1000">
  <g transform="matrix(1 0 0 -1 0 800)">
   <path fill="currentColor"
d="M375 581c0 -73 -42 -117 -94 -143v-294h99l-27 27c-22 22 -27 28 -30 32c-8 11 -14 29 -9 49c3 12 9 22 17 30c22 22 57 24 81 5c3 -2 41 -39 87 -85c88 -88 85 -86 90 -97c3 -8 4 -14 4 -24s-1 -16 -4 -24c-5 -11 -2 -8 -92 -98c-61 -61 -84 -84 -87 -86
c-37 -26 -87 -1 -96 38c-5 19 2 37 9 48c3 4 8 11 30 33l27 27h-83c-72 0 -84 0 -89 1c-27 4 -46 25 -51 52l-1 183v183c-54 27 -102 76 -92 163c10 74 66 129 143 136c51 0 80 -10 111 -36c34 -27 57 -66 57 -120zM844 162c52 -26 93 -71 93 -143c0 -57 -23 -93 -59 -122
c-22 -18 -48 -29 -78 -33c-7 -1 -31 -1 -38 0c-70 10 -124 62 -136 134c-2 10 -2 32 0 42c10 58 45 98 93 122v294h-99l27 -27c22 -22 27 -28 30 -32c8 -11 14 -29 9 -49c-6 -23 -23 -40 -45 -46c-23 -6 -42 1 -55 12c-2 2 -40 39 -85 84c-88 88 -85 86 -90 97
c-3 8 -4 14 -4 24s1 16 4 24c5 11 2 8 92 98c56 56 84 84 87 86c16 10 40 16 61 5c29 -13 50 -55 26 -91c-3 -4 -8 -11 -30 -33l-27 -27h171c27 -9 46 -22 52 -53l1 -183v-183zM211 612c-14 -3 -23 -17 -23 -31c0 -17 14 -31 31 -31s31 14 31 31s-15 31 -32 31h-7zM774 49
c-14 -3 -24 -16 -24 -30c0 -17 14 -31 31 -31s31 14 31 31s-14 31 -31 31c-2 0 -5 -1 -7 -1z" />
  </g>

</svg>
