<?xml version="1.0" standalone="no"?>
<!DOCTYPE svg PUBLIC "-//W3C//DTD SVG 1.1//EN" "http://www.w3.org/Graphics/SVG/1.1/DTD/svg11.dtd" >
<svg xmlns="http://www.w3.org/2000/svg" xmlns:xlink="http://www.w3.org/1999/xlink" version="1.1" viewBox="-10 0 1010 1000">
  <g transform="matrix(1 0 0 -1 0 800)">
   <path fill="currentColor"
d="M156 438c-52 26 -93 71 -93 143c0 41 12 70 33 97c23 33 65 55 111 59c50 0 79 -10 110 -35c27 -21 46 -53 54 -86c3 -13 4 -20 4 -35c0 -73 -42 -117 -94 -143v-276c52 -26 94 -70 94 -143c0 -19 -3 -33 -8 -49c-16 -49 -54 -86 -103 -101c-15 -5 -27 -6 -45 -6
c-14 0 -19 1 -31 3c-62 12 -115 62 -124 132c-2 10 -2 32 0 42c6 36 19 64 44 89c14 14 31 23 48 33v276zM844 162c52 -26 93 -71 93 -143c0 -19 -2 -33 -7 -49c-16 -49 -55 -86 -104 -101c-15 -5 -27 -6 -45 -6c-14 0 -19 1 -31 3c-62 12 -115 62 -124 132
c-2 10 -2 32 0 42c10 58 45 98 93 122v294h-99l27 -27c22 -22 27 -28 30 -32c8 -11 14 -29 9 -49c-6 -23 -23 -40 -45 -46c-23 -6 -42 1 -55 12c-2 2 -40 39 -85 84c-88 88 -85 86 -90 97c-3 8 -4 14 -4 24s1 16 4 24c5 11 2 8 92 98c56 56 84 84 87 86c16 10 40 16 61 5
c29 -13 50 -55 26 -91c-3 -4 -8 -11 -30 -33l-27 -27h171c27 -9 46 -22 52 -53l1 -183v-183zM211 612c-14 -3 -23 -17 -23 -31c0 -17 14 -31 31 -31s31 14 31 31s-15 31 -32 31h-7zM211 49c-14 -3 -23 -16 -23 -30c0 -17 14 -31 31 -31s31 14 31 31s-15 31 -32 31
c-2 0 -5 -1 -7 -1zM774 49c-14 -3 -24 -16 -24 -30c0 -17 14 -31 31 -31s31 14 31 31s-14 31 -31 31c-2 0 -5 -1 -7 -1z" />
  </g>

</svg>
