<?xml version="1.0" standalone="no"?>
<!DOCTYPE svg PUBLIC "-//W3C//DTD SVG 1.1//EN" "http://www.w3.org/Graphics/SVG/1.1/DTD/svg11.dtd" >
<svg xmlns="http://www.w3.org/2000/svg" xmlns:xlink="http://www.w3.org/1999/xlink" version="1.1" viewBox="-10 0 1010 1000">
  <g transform="matrix(1 0 0 -1 0 800)">
   <path fill="currentColor"
d="M375 581c0 -72.6862 -41.5901 -116.795 -94 -143v-294h99l-27 27c-22 22 -27 28 -30 32c-7.54295 11.3144 -13.8865 29.454 -9 49c3 12 9 22 17 30c22 22 57 24 81 5c3 -2 41 -39 87 -85c88 -88 85 -86 90 -97c3 -8 4 -14 4 -24s-1 -16 -4 -24c-5 -11 -2 -8 -92 -98
c-61 -61 -84 -84 -87 -86c-36.9212 -25.8448 -86.8209 -1.33888 -96 38c-4.78938 19.1575 1.56921 36.8538 9 48c3 4 8 11 30 33l27 27h-83c-72 0 -84 0 -89 1c-27.0705 4.1647 -45.6354 25.177 -51 52l-1 183v183c-54.2291 27.1146 -101.656 76.0971 -92 163
c10.2125 74.0408 65.6172 129.172 143 136c50.7101 0 79.8871 -10.298 111 -36c33.6028 -27.1407 57 -66.0123 57 -120zM844 162c52.4588 -26.2294 93 -71.0772 93 -143c0 -56.5471 -23.4491 -92.7975 -59 -122c-22 -18 -48 -29 -78 -33c-7 -1 -31 -1 -38 0
c-70.3647 10.0521 -123.611 62.1414 -136 134c-2 10 -2 32 0 42c9.63556 57.8134 44.9612 97.9806 93 122v294h-99l27 -27c22 -22 27 -28 30 -32c7.54295 -11.3144 13.8865 -29.454 9 -49c-6 -23 -23 -40 -45 -46c-22.826 -5.70651 -42.0013 0.858291 -55 12
c-2 2 -40 39 -85 84c-88 88 -85 86 -90 97c-3 8 -4 14 -4 24s1 16 4 24c5 11 2 8 92 98c56 56 84 84 87 86c16.0846 10.0528 39.593 15.7035 61 5c29.1858 -12.9715 50.0106 -54.9841 26 -91c-3 -4 -8 -11 -30 -33l-27 -27h171c26.7859 -8.92862 45.8898 -22.4488 52 -53
l1 -183v-183zM211 612c-14 -3 -23 -17 -23 -31c0 -17 14 -31 31 -31s31 14 31 31s-15 31 -32 31h-7zM774 49c-14 -3 -24 -16 -24 -30c0 -17 14 -31 31 -31s31 14 31 31s-14 31 -31 31c-2 0 -5 -1 -7 -1z" />
  </g>

</svg>
