<?xml version="1.0" standalone="no"?>
<!DOCTYPE svg PUBLIC "-//W3C//DTD SVG 1.1//EN" "http://www.w3.org/Graphics/SVG/1.1/DTD/svg11.dtd" >
<svg xmlns="http://www.w3.org/2000/svg" xmlns:xlink="http://www.w3.org/1999/xlink" version="1.1" viewBox="-10 0 1020 1000">
  <g transform="matrix(1 0 0 -1 0 800)">
   <path fill="currentColor"
d="M156 438c-52.4588 26.2294 -93 71.0772 -93 143c0 41.3286 12.0352 70.4446 33 97c23.4177 32.7848 64.8054 54.924 111 59c62.6323 0 102.755 -19.0064 134 -59c21.2609 -25.5131 34 -55.7077 34 -97c0 -72.6862 -41.5901 -116.795 -94 -143v-276
c36.6795 -16.4387 64.5751 -44.3088 81 -81h357v99l-27 -27c-15 -15 -29 -28 -31 -29c-35.7943 -27.84 -87.8092 -2.38902 -97 37c-4.78938 19.1575 1.56921 36.8538 9 48c7.41402 12.3567 69.1302 71.1302 169 171c18.6898 16.0198 56.0685 18.4429 77 1
c3 -2 40 -39 86 -85c88 -88 85 -86 90 -97c3 -8 5 -14 5 -24c0 -52.0089 -57.2583 -78.1611 -98 -51c-2 1 -15 13 -31 29l-27 27v-85c0 -85 -1 -86 -2 -91c-6.47558 -24.823 -25.0005 -42.6668 -51 -47l-215 -1h-214c-24.0453 -48.0907 -62.6145 -82.5561 -124 -92
c-7 -1 -31 -1 -38 0c-70.3647 10.0521 -123.611 62.1414 -136 134c-7.26901 65.4211 18.2853 114.632 58 143c10.5975 7.94814 22.6801 14.5315 34 21v276zM770 737c93.1032 0 151.731 -52.2409 166 -135c5.36772 -48.3095 -7.82829 -81.2424 -27 -110
c-26.3339 -38.1842 -68.5759 -67 -128 -67c-15 0 -22 1 -35 4c-61.2533 14.1354 -108.651 62.9038 -120 131c-5.88102 52.9292 8.69992 86.9499 33 118c23.7305 33.2227 64.0453 54.8569 111 59zM211 612c-14 -3 -23 -17 -23 -31c0 -17 14 -31 31 -31s31 14 31 31
s-15 31 -32 31h-7zM774 612c-14 -3 -24 -17 -24 -31c0 -17 14 -31 31 -31s31 14 31 31s-14 31 -31 31h-7zM211 49c-14 -3 -23 -16 -23 -30c0 -17 14 -31 31 -31s31 14 31 31s-15 31 -32 31c-2 0 -5 -1 -7 -1z" />
  </g>

</svg>
