<?xml version="1.0" standalone="no"?>
<!DOCTYPE svg PUBLIC "-//W3C//DTD SVG 1.1//EN" "http://www.w3.org/Graphics/SVG/1.1/DTD/svg11.dtd" >
<svg xmlns="http://www.w3.org/2000/svg" xmlns:xlink="http://www.w3.org/1999/xlink" version="1.1" viewBox="-10 0 1020 1000">
  <g transform="matrix(1 0 0 -1 0 800)">
   <path fill="currentColor"
d="M156 438c-52 26 -93 71 -93 143c0 41 12 70 33 97c23 33 65 55 111 59c63 0 103 -19 134 -59c21 -26 34 -56 34 -97c0 -73 -42 -117 -94 -143v-276c37 -16 65 -44 81 -81h357v99l-27 -27c-15 -15 -29 -28 -31 -29c-36 -28 -88 -2 -97 37c-5 19 2 37 9 48
c7 12 69 71 169 171c19 16 56 18 77 1c3 -2 40 -39 86 -85c88 -88 85 -86 90 -97c3 -8 5 -14 5 -24c0 -52 -57 -78 -98 -51c-2 1 -15 13 -31 29l-27 27v-85c0 -85 -1 -86 -2 -91c-6 -25 -25 -43 -51 -47l-215 -1h-214c-24 -48 -63 -83 -124 -92c-7 -1 -31 -1 -38 0
c-70 10 -124 62 -136 134c-7 65 18 115 58 143c11 8 23 15 34 21v276zM770 737c93 0 152 -52 166 -135c5 -48 -8 -81 -27 -110c-26 -38 -69 -67 -128 -67c-15 0 -22 1 -35 4c-61 14 -109 63 -120 131c-6 53 9 87 33 118c24 33 64 55 111 59zM211 612c-14 -3 -23 -17 -23 -31
c0 -17 14 -31 31 -31s31 14 31 31s-15 31 -32 31h-7zM774 612c-14 -3 -24 -17 -24 -31c0 -17 14 -31 31 -31s31 14 31 31s-14 31 -31 31h-7zM211 49c-14 -3 -23 -16 -23 -30c0 -17 14 -31 31 -31s31 14 31 31s-15 31 -32 31c-2 0 -5 -1 -7 -1z" />
  </g>

</svg>
