<?xml version="1.0" standalone="no"?>
<!DOCTYPE svg PUBLIC "-//W3C//DTD SVG 1.1//EN" "http://www.w3.org/Graphics/SVG/1.1/DTD/svg11.dtd" >
<svg xmlns="http://www.w3.org/2000/svg" xmlns:xlink="http://www.w3.org/1999/xlink" version="1.1" viewBox="-10 0 1010 1000">
  <g transform="matrix(1 0 0 -1 0 800)">
   <path fill="currentColor"
d="M156 438c-52 26 -93 71 -93 143c0 41 12 70 33 97c23 33 65 55 111 59c63 0 103 -19 134 -59c21 -26 34 -56 34 -97c0 -73 -42 -117 -94 -143v-76h438v76c-53 26 -94 71 -94 143s42 121 96 144c20 8 38 12 60 12c82 0 137 -56 152 -121c3 -13 4 -19 4 -34
c0 -72 -39 -117 -93 -144v-74c0 -73 -1 -74 -2 -79c-6 -25 -25 -43 -51 -47h-114l-115 -1v-75c52 -26 94 -70 94 -143c0 -19 -3 -33 -8 -49c-16 -49 -54 -86 -103 -101c-15 -5 -27 -6 -45 -6c-14 0 -19 1 -31 3c-62 12 -115 62 -124 132c-2 10 -2 32 0 42
c10 58 45 98 93 122v76h-112c-97 0 -113 -1 -118 0c-24 4 -44 24 -50 47c-1 5 -2 6 -2 79v74zM211 612c-14 -3 -23 -17 -23 -31c0 -17 14 -31 31 -31s31 14 31 31s-15 31 -32 31h-7zM774 612c-14 -3 -24 -17 -24 -31c0 -17 14 -31 31 -31s31 14 31 31s-14 31 -31 31h-7z
M493 49c-14 -3 -24 -16 -24 -30c0 -17 14 -31 31 -31s31 14 31 31s-14 31 -31 31c-2 0 -5 -1 -7 -1z" />
  </g>

</svg>
