<?xml version="1.0" standalone="no"?>
<!DOCTYPE svg PUBLIC "-//W3C//DTD SVG 1.1//EN" "http://www.w3.org/Graphics/SVG/1.1/DTD/svg11.dtd" >
<svg xmlns="http://www.w3.org/2000/svg" xmlns:xlink="http://www.w3.org/1999/xlink" version="1.1" viewBox="-10 0 1010 1000">
  <g transform="matrix(1 0 0 -1 0 800)">
   <path fill="currentColor"
d="M156 438c-52.4588 26.2294 -93 71.0772 -93 143c0 41.3286 12.0352 70.4446 33 97c23.4177 32.7848 64.8054 54.924 111 59c62.6323 0 102.755 -19.0064 134 -59c21.2609 -25.5131 34 -55.7077 34 -97c0 -72.6862 -41.5901 -116.795 -94 -143v-76h438v76
c-52.5991 26.2996 -94 70.8389 -94 143c0 72.0838 42.4076 121.435 96 144c20 8 38 12 60 12c82.2424 0 137.48 -56.3213 152 -121c3 -13 4 -19 4 -34c0 -72.1773 -39.3509 -117.175 -93 -144v-74c0 -73 -1 -74 -2 -79c-6.47558 -24.823 -25.0005 -42.6668 -51 -47h-114
l-115 -1v-75c52.3984 -26.1992 94 -70.3559 94 -143c0 -19 -3 -33 -8 -49c-16 -49 -54 -86 -103 -101c-15 -5 -27 -6 -45 -6c-14 0 -19 1 -31 3c-61.876 12.3752 -114.654 61.908 -124 132c-2 10 -2 32 0 42c9.63556 57.8134 44.9612 97.9806 93 122v76h-112
c-97 0 -113 -1 -118 0c-23.8526 3.66964 -44.3008 24.2032 -50 47c-1 5 -2 6 -2 79v74zM211 612c-14 -3 -23 -17 -23 -31c0 -17 14 -31 31 -31s31 14 31 31s-15 31 -32 31h-7zM774 612c-14 -3 -24 -17 -24 -31c0 -17 14 -31 31 -31s31 14 31 31s-14 31 -31 31h-7zM493 49
c-14 -3 -24 -16 -24 -30c0 -17 14 -31 31 -31s31 14 31 31s-14 31 -31 31c-2 0 -5 -1 -7 -1z" />
  </g>

</svg>
