<?xml version="1.0" standalone="no"?>
<!DOCTYPE svg PUBLIC "-//W3C//DTD SVG 1.1//EN" "http://www.w3.org/Graphics/SVG/1.1/DTD/svg11.dtd" >
<svg xmlns="http://www.w3.org/2000/svg" xmlns:xlink="http://www.w3.org/1999/xlink" version="1.1" viewBox="-10 0 1010 1000">
  <g transform="matrix(1 0 0 -1 0 800)">
   <path fill="currentColor"
d="M156 438c-52.4588 26.2294 -93 71.0772 -93 143c0 41.3286 12.0352 70.4446 33 97c23.4177 32.7848 64.8054 54.924 111 59c50.3217 0 79.1409 -9.50774 110 -35c27 -21 46 -53 54 -86c3 -13 4 -20 4 -35c0 -72.6862 -41.5901 -116.795 -94 -143v-276
c52.3984 -26.1992 94 -70.3559 94 -143c0 -19 -3 -33 -8 -49c-16 -49 -54 -86 -103 -101c-15 -5 -27 -6 -45 -6c-14 0 -19 1 -31 3c-61.876 12.3752 -114.654 61.908 -124 132c-2 10 -2 32 0 42c6 36 19 64 44 89c14.0506 14.0506 30.6256 23.0718 48 33v276zM844 162
c52.4588 -26.2294 93 -71.0772 93 -143c0 -19 -2 -33 -7 -49c-16 -49 -55 -86 -104 -101c-15 -5 -27 -6 -45 -6c-14 0 -19 1 -31 3c-61.876 12.3752 -114.654 61.908 -124 132c-2 10 -2 32 0 42c9.63556 57.8134 44.9612 97.9806 93 122v294h-99l27 -27
c22 -22 27 -28 30 -32c7.54295 -11.3144 13.8865 -29.454 9 -49c-6 -23 -23 -40 -45 -46c-22.826 -5.70651 -42.0013 0.858291 -55 12c-2 2 -40 39 -85 84c-88 88 -85 86 -90 97c-3 8 -4 14 -4 24s1 16 4 24c5 11 2 8 92 98c56 56 84 84 87 86
c16.0846 10.0528 39.593 15.7035 61 5c29.1858 -12.9715 50.0106 -54.9841 26 -91c-3 -4 -8 -11 -30 -33l-27 -27h171c26.7859 -8.92862 45.8898 -22.4488 52 -53l1 -183v-183zM211 612c-14 -3 -23 -17 -23 -31c0 -17 14 -31 31 -31s31 14 31 31s-15 31 -32 31h-7zM211 49
c-14 -3 -23 -16 -23 -30c0 -17 14 -31 31 -31s31 14 31 31s-15 31 -32 31c-2 0 -5 -1 -7 -1zM774 49c-14 -3 -24 -16 -24 -30c0 -17 14 -31 31 -31s31 14 31 31s-14 31 -31 31c-2 0 -5 -1 -7 -1z" />
  </g>

</svg>
