<?xml version="1.0" standalone="no"?>
<!DOCTYPE svg PUBLIC "-//W3C//DTD SVG 1.1//EN" "http://www.w3.org/Graphics/SVG/1.1/DTD/svg11.dtd" >
<svg xmlns="http://www.w3.org/2000/svg" xmlns:xlink="http://www.w3.org/1999/xlink" version="1.1" viewBox="-10 0 1010 1000">
  <g transform="matrix(1 0 0 -1 0 800)">
   <path fill="currentColor"
d="M156 438c-52 26 -93 71 -93 143c0 41 12 70 33 97c23 33 65 55 111 59c63 0 103 -19 134 -59c21 -26 34 -56 34 -97c0 -52 -22 -92 -54 -118l7 -9c40 -48 92 -81 166 -90c6 -1 15 -1 44 -1l37 -1c25 51 70 94 143 94c14 0 21 0 33 -3c68 -15 124 -71 124 -153
c0 -19 -3 -32 -8 -48c-14 -44 -46 -80 -89 -97c-75 -31 -162 2 -199 75l-4 8h-32c-87 0 -127 9 -187 38c-26 13 -49 28 -70 45l-5 3v-162c47 -24 83 -61 93 -122c2 -10 2 -32 0 -42c-12 -72 -66 -124 -136 -134c-7 -1 -31 -1 -38 0c-70 10 -124 62 -136 134
c-7 65 18 115 58 143c11 8 23 15 34 21v276zM211 612c-14 -3 -23 -17 -23 -31c0 -17 14 -31 31 -31s31 14 31 31s-15 31 -32 31h-7zM711 330c-14 -3 -23 -16 -23 -30c0 -17 14 -31 31 -31s31 14 31 31s-15 31 -32 31c-2 0 -5 -1 -7 -1zM211 49c-14 -3 -23 -16 -23 -30
c0 -17 14 -31 31 -31s31 14 31 31s-15 31 -32 31c-2 0 -5 -1 -7 -1z" />
  </g>

</svg>
