<?xml version="1.0" standalone="no"?>
<!DOCTYPE svg PUBLIC "-//W3C//DTD SVG 1.1//EN" "http://www.w3.org/Graphics/SVG/1.1/DTD/svg11.dtd" >
<svg xmlns="http://www.w3.org/2000/svg" xmlns:xlink="http://www.w3.org/1999/xlink" version="1.1" viewBox="-10 0 1010 1000">
  <g transform="matrix(1 0 0 -1 0 800)">
   <path fill="currentColor"
d="M438 685c6.88798 34.4399 35.692 60.577 78 50c23.8344 -6.50028 40.7796 -23.8981 46 -50v-104l1 -104c61.8337 -24.7335 108.425 -74.8366 121 -140c3 -15 3 -21 3 -37c0 -91.0002 -54.0266 -148.411 -118 -174l-6 -3l-1 -104v-104
c-6.1938 -30.969 -29.5563 -50.9484 -59 -52c-31.9346 -1.06449 -58.3952 18.9762 -65 52v104l-1 104l-6 3c-59 23 -103 75 -115 137c-3 15 -3 21 -3 37s0 22 3 37c12.4783 60.1225 55.2212 114.583 115 137l6 3l1 104v104zM492 362c-30.9363 -5.15605 -54 -27.3697 -54 -62
c0 -40.2982 33.4612 -71.1347 78 -60c29.0037 7.91009 54.0591 35.7636 44 76c-7 27 -30 45 -58 46h-10z" />
  </g>

</svg>
