<?xml version="1.0" standalone="no"?>
<!DOCTYPE svg PUBLIC "-//W3C//DTD SVG 1.1//EN" "http://www.w3.org/Graphics/SVG/1.1/DTD/svg11.dtd" >
<svg xmlns="http://www.w3.org/2000/svg" xmlns:xlink="http://www.w3.org/1999/xlink" version="1.1" viewBox="-10 0 1010 1000">
  <g transform="matrix(1 0 0 -1 0 800)">
   <path fill="currentColor"
d="M156 438c-52.4588 26.2294 -93 71.0772 -93 143c0 41.3286 12.0352 70.4446 33 97c23.4177 32.7848 64.8054 54.924 111 59c62.6323 0 102.755 -19.0064 134 -59c21.2609 -25.5131 34 -55.7077 34 -97c0 -52.4701 -22.345 -91.6208 -54 -118l7 -9
c39.776 -48.0627 91.807 -80.7259 166 -90c6 -1 15 -1 44 -1l37 -1c25.2509 50.5018 69.9806 94 143 94c14 0 21 0 33 -3c67.5966 -14.8942 124 -71.4415 124 -153c0 -19 -3 -32 -8 -48c-14 -44 -46 -80 -89 -97c-75 -31 -162 2 -199 75l-4 8h-32
c-87.177 0 -126.983 8.84868 -187 38c-26 13 -49 28 -70 45l-5 3v-162c47.281 -23.6405 82.8594 -61.1566 93 -122c2 -10 2 -32 0 -42c-12.3888 -71.8549 -65.6351 -123.948 -136 -134c-7 -1 -31 -1 -38 0c-70.3647 10.0521 -123.611 62.1414 -136 134
c-7.26901 65.4211 18.2853 114.632 58 143c10.5975 7.94814 22.6801 14.5315 34 21v276zM211 612c-14 -3 -23 -17 -23 -31c0 -17 14 -31 31 -31s31 14 31 31s-15 31 -32 31h-7zM711 330c-14 -3 -23 -16 -23 -30c0 -17 14 -31 31 -31s31 14 31 31s-15 31 -32 31
c-2 0 -5 -1 -7 -1zM211 49c-14 -3 -23 -16 -23 -30c0 -17 14 -31 31 -31s31 14 31 31s-15 31 -32 31c-2 0 -5 -1 -7 -1z" />
  </g>

</svg>
