<?xml version="1.0" standalone="no"?>
<!DOCTYPE svg PUBLIC "-//W3C//DTD SVG 1.1//EN" "http://www.w3.org/Graphics/SVG/1.1/DTD/svg11.dtd" >
<svg xmlns="http://www.w3.org/2000/svg" xmlns:xlink="http://www.w3.org/1999/xlink" version="1.1" viewBox="-10 0 1010 1000">
  <g transform="matrix(1 0 0 -1 0 800)">
   <path fill="currentColor"
d="M302 737c4 1 34 0 200 0h195c19.0784 -3.17974 32.755 -13.2017 43 -28c7 -11 5 -1 40 -177l32 -160v-14c0 -71.4155 -36.0332 -137.627 -84 -176c-41 -33 -96 -55 -157 -64l-8 -2v-64l-1 -64l68 -1h67c27.0471 -4.50784 44.4776 -22.9976 51 -48
c10.3258 -41.3033 -19.9215 -70.8203 -51 -76h-194c-172 0 -196 -1 -201 0c-29.2486 4.49979 -60.0465 35.814 -50 76c5.86748 23.4699 25.5328 44.2358 50 48c5 1 16 1 71 1h65l-1 64v65c-68.3445 9.7635 -121.328 31.0329 -165 65c-47.9542 38.3633 -84 105.382 -84 176
v14l32 160c36 177 33 166 40 177c9 14 25 25 42 28zM364 611c0 -1 -12 -58 -26 -128l-26 -127l1 -6c5 -49 38 -83 98 -101c42 -13 99 -15 147 -7c64.304 10.2886 123.457 41.4796 129 108l1 6l-26 127c-14 70 -26 127 -26 128s-7 1 -136 1s-136 0 -136 -1z" />
  </g>

</svg>
