<?xml version="1.0" standalone="no"?>
<!DOCTYPE svg PUBLIC "-//W3C//DTD SVG 1.1//EN" "http://www.w3.org/Graphics/SVG/1.1/DTD/svg11.dtd" >
<svg xmlns="http://www.w3.org/2000/svg" xmlns:xlink="http://www.w3.org/1999/xlink" version="1.1" viewBox="-10 0 1010 1000">
  <g transform="matrix(1 0 0 -1 0 800)">
   <path fill="currentColor"
d="M302 737c4 1 34 0 200 0h195c19 -3 33 -13 43 -28c7 -11 5 -1 40 -177l32 -160v-14c0 -71 -36 -138 -84 -176c-41 -33 -96 -55 -157 -64l-8 -2v-64l-1 -64l68 -1h67c27 -5 44 -23 51 -48c10 -41 -20 -71 -51 -76h-194c-172 0 -196 -1 -201 0c-29 4 -60 36 -50 76
c6 23 26 44 50 48c5 1 16 1 71 1h65l-1 64v65c-68 10 -121 31 -165 65c-48 38 -84 105 -84 176v14l32 160c36 177 33 166 40 177c9 14 25 25 42 28zM364 611c0 -1 -12 -58 -26 -128l-26 -127l1 -6c5 -49 38 -83 98 -101c42 -13 99 -15 147 -7c64 10 123 41 129 108l1 6
l-26 127c-14 70 -26 127 -26 128s-7 1 -136 1s-136 0 -136 -1z" />
  </g>

</svg>
