<?xml version="1.0" standalone="no"?>
<!DOCTYPE svg PUBLIC "-//W3C//DTD SVG 1.1//EN" "http://www.w3.org/Graphics/SVG/1.1/DTD/svg11.dtd" >
<svg xmlns="http://www.w3.org/2000/svg" xmlns:xlink="http://www.w3.org/1999/xlink" version="1.1" viewBox="-10 0 1010 1000">
  <g transform="matrix(1 0 0 -1 0 800)">
   <path fill="currentColor"
d="M750 -75c0 -34 -24 -57 -53 -62h-194c-172 0 -196 -1 -201 0c-29 4 -60 36 -50 76c6 23 26 44 50 48c5 1 16 1 71 1h65l-1 33v34l-11 2c-42 8 -81 24 -116 45c-31 18 -49 27 -58 57c-2 5 -2 7 -2 16c0 53 57 79 99 51c23 -16 35 -23 54 -31c85 -36 182 -23 254 35
c11 9 29 27 38 38c73 93 72 223 0 314c-9 12 -27 28 -40 39c-12 9 -15 13 -20 20c-32 49 14 107 68 94c11 -3 20 -8 37 -22c61 -51 105 -120 124 -196c17 -69 15 -143 -8 -211c-40 -121 -140 -213 -264 -244c-10 -3 -21 -7 -29 -7c-1 0 -1 -8 -1 -34v-33l68 -1h67
c29 -5 53 -29 53 -62zM488 612c5 1 30 0 36 -1c83 -11 151 -73 162 -165c5 -45 -5 -84 -22 -113c-23 -41 -60 -71 -105 -86c-59 -20 -125 -8 -174 30c-40 31 -64 75 -71 127c-1 8 -1 34 0 42c12 91 81 156 165 165c4 0 8 1 9 1zM492 487c-32 -6 -54 -28 -54 -62
c0 -40 33 -71 78 -60c29 8 54 36 44 76c-7 27 -30 45 -58 46h-10z" />
  </g>

</svg>
