<?xml version="1.0" standalone="no"?>
<!DOCTYPE svg PUBLIC "-//W3C//DTD SVG 1.1//EN" "http://www.w3.org/Graphics/SVG/1.1/DTD/svg11.dtd" >
<svg xmlns="http://www.w3.org/2000/svg" xmlns:xlink="http://www.w3.org/1999/xlink" version="1.1" viewBox="-10 0 1010 1000">
  <g transform="matrix(1 0 0 -1 0 800)">
   <path fill="currentColor"
d="M750 -75c0 -33.5162 -23.7874 -57.1312 -53 -62h-194c-172 0 -196 -1 -201 0c-29.2486 4.49979 -60.0465 35.814 -50 76c5.86748 23.4699 25.5328 44.2358 50 48c5 1 16 1 71 1h65l-1 33v34l-11 2c-42 8 -81 24 -116 45c-31.3026 18.4133 -49.1481 27.4937 -58 57
c-2 5 -2 7 -2 16c0 52.5232 57.473 78.6846 99 51c23 -16 35 -23 54 -31c85 -36 182 -23 254 35c11 9 29 27 38 38c72.9857 92.7116 72.2153 223.215 0 314c-9 12 -27 28 -40 39c-12 9 -15 13 -20 20c-31.5744 49.335 14.1335 107.467 68 94c11 -3 20 -8 37 -22
c61 -51 105 -120 124 -196c17 -69 15 -143 -8 -211c-40 -121 -140 -213 -264 -244c-10.0146 -2.86133 -21.4223 -7 -29 -7c-1 0 -1 -8 -1 -34v-33l68 -1h67c29.2192 -4.86987 53 -28.5254 53 -62zM488 612c5 1 30 0 36 -1c82.9246 -11.0566 150.927 -72.7249 162 -165
c5.04787 -45.4308 -4.70142 -84.169 -22 -113c-23 -41 -60 -71 -105 -86c-59 -20 -125 -8 -174 30c-40 31 -64 75 -71 127c-1 8 -1 34 0 42c11.7053 90.7164 80.7726 155.641 165 165c4 0 8 1 9 1zM492 487c-31.6165 -5.74846 -54 -27.5213 -54 -62
c0 -40.2982 33.4612 -71.1347 78 -60c29.0037 7.91009 54.0591 35.7636 44 76c-7 27 -30 45 -58 46h-10z" />
  </g>

</svg>
