<?xml version="1.0" standalone="no"?>
<!DOCTYPE svg PUBLIC "-//W3C//DTD SVG 1.1//EN" "http://www.w3.org/Graphics/SVG/1.1/DTD/svg11.dtd" >
<svg xmlns="http://www.w3.org/2000/svg" xmlns:xlink="http://www.w3.org/1999/xlink" version="1.1" viewBox="-10 0 1010 1000">
  <g transform="matrix(1 0 0 -1 0 800)">
   <path fill="currentColor"
d="M297 710c48.0469 37.3698 118.253 36.9879 164 -7c27.0939 -25.6679 47.194 -65.6269 36 -116c-7 -33 -28 -62 -56 -80c-37 -23 -82 -26 -121 -7c-62 30 -87 105 -57 167c8 17 19 31 34 43zM733 709c46.9541 39.1284 119.629 37.6262 165 -6
c58.3139 -55.6632 50.1413 -152.787 -19 -196c-37 -23 -82 -26 -121 -7c-62 30 -88 105 -58 167c8 17 19 30 33 42zM109 523c47.3962 36.8637 119.53 35.7593 164 -7c58.2253 -55.5787 50.2415 -153.724 -19 -197c-37 -23 -82 -25 -121 -6c-62 30 -88 105 -58 167
c8 17 19 31 34 43zM547 523c47.1347 36.6603 119.375 35.9091 164 -7c58.183 -55.5384 48.1211 -154.424 -20 -197c-37 -23 -82 -25 -121 -6c-62 30 -87 105 -57 167c8 17 19 31 34 43zM359 335c48.3172 37.5801 118.413 36.8335 164 -7
c27.3847 -25.9434 48.3679 -64.8445 37 -116c-7 -33 -28 -62 -56 -80c-37 -23 -82 -26 -121 -7c-62 30 -88 105 -58 167c8 17 19 31 34 43zM733 334c46.9541 39.1284 119.629 37.6262 165 -6c58.3139 -55.6632 50.1413 -152.787 -19 -196c-37 -23 -82 -26 -121 -7
c-62 30 -88 105 -58 167c8 17 19 30 33 42zM108 84c46.9541 39.1284 119.629 37.6262 165 -6c58.3139 -55.6632 50.1413 -152.787 -19 -196c-37 -23 -82 -26 -121 -7c-62 30 -88 105 -58 167c8 17 19 30 33 42zM612 112c-45.9428 -5.74285 -81.6722 -33.1783 -99 -70
c-30 -62 -5 -137 57 -167c39 -19 84 -16 121 7c67.9978 42.4986 78.2992 140.351 20 196c-26 25 -63 38 -99 34z" />
  </g>

</svg>
