<?xml version="1.0" standalone="no"?>
<!DOCTYPE svg PUBLIC "-//W3C//DTD SVG 1.1//EN" "http://www.w3.org/Graphics/SVG/1.1/DTD/svg11.dtd" >
<svg xmlns="http://www.w3.org/2000/svg" xmlns:xlink="http://www.w3.org/1999/xlink" version="1.1" viewBox="-10 0 1010 1000">
  <g transform="matrix(1 0 0 -1 0 800)">
   <path fill="currentColor"
d="M297 710c48 37 118 37 164 -7c27 -26 47 -66 36 -116c-7 -33 -28 -62 -56 -80c-37 -23 -82 -26 -121 -7c-62 30 -87 105 -57 167c8 17 19 31 34 43zM733 709c47 39 120 38 165 -6c58 -56 50 -153 -19 -196c-37 -23 -82 -26 -121 -7c-62 30 -88 105 -58 167
c8 17 19 30 33 42zM109 523c47 37 120 36 164 -7c58 -56 50 -154 -19 -197c-37 -23 -82 -25 -121 -6c-62 30 -88 105 -58 167c8 17 19 31 34 43zM547 523c47 37 119 36 164 -7c58 -56 48 -154 -20 -197c-37 -23 -82 -25 -121 -6c-62 30 -87 105 -57 167c8 17 19 31 34 43z
M359 335c48 38 118 37 164 -7c27 -26 48 -65 37 -116c-7 -33 -28 -62 -56 -80c-37 -23 -82 -26 -121 -7c-62 30 -88 105 -58 167c8 17 19 31 34 43zM733 334c47 39 120 38 165 -6c58 -56 50 -153 -19 -196c-37 -23 -82 -26 -121 -7c-62 30 -88 105 -58 167c8 17 19 30 33 42
zM108 84c47 39 120 38 165 -6c58 -56 50 -153 -19 -196c-37 -23 -82 -26 -121 -7c-62 30 -88 105 -58 167c8 17 19 30 33 42zM612 112c36 4 73 -9 99 -34c58 -56 48 -154 -20 -196c-37 -23 -82 -26 -121 -7c-62 30 -87 105 -57 167c17 37 53 64 99 70z" />
  </g>

</svg>
