<?xml version="1.0" standalone="no"?>
<!DOCTYPE svg PUBLIC "-//W3C//DTD SVG 1.1//EN" "http://www.w3.org/Graphics/SVG/1.1/DTD/svg11.dtd" >
<svg xmlns="http://www.w3.org/2000/svg" xmlns:xlink="http://www.w3.org/1999/xlink" version="1.1" viewBox="-10 0 1010 1000">
  <g transform="matrix(1 0 0 -1 0 800)">
   <path fill="currentColor"
d="M239 612c-24.6628 -4.35226 -43.1443 -24.0051 -50 -48c-7.50761 -30.0305 9.47778 -54.9852 26 -66c78.88 -39.44 39.4038 -19.7927 394 -198c-157.76 -78.88 -236.24 -119.12 -394 -198c-16.5421 -11.028 -33.5189 -35.9245 -26 -66
c8.09416 -32.3766 40.8318 -54.22 77 -46c6 1 26 11 261 129c273 137 261 129 269 138c9.27979 11.5997 16 22.9975 16 43c0 20.0335 -6.69586 31.3698 -16 43c-8 9 4 1 -269 138c-235 117 -255 128 -261 129c-8 2 -20 3 -27 2z" />
  </g>

</svg>
