<?xml version="1.0" standalone="no"?>
<!DOCTYPE svg PUBLIC "-//W3C//DTD SVG 1.1//EN" "http://www.w3.org/Graphics/SVG/1.1/DTD/svg11.dtd" >
<svg xmlns="http://www.w3.org/2000/svg" xmlns:xlink="http://www.w3.org/1999/xlink" version="1.1" viewBox="-10 0 1010 1000">
  <g transform="matrix(1 0 0 -1 0 800)">
   <path fill="currentColor"
d="M189 627c9 31 36 56 77 46c6 -1 26 -12 261 -129c273 -137 261 -130 269 -139c9 -12 16 -22 16 -43c0 -20 -7 -30 -16 -42c-8 -9 4 -2 -269 -139c-235 -118 -255 -128 -261 -129c-36 -8 -69 14 -77 46c-8 31 9 55 26 66c81 40 5 4 394 198c-237 118 -355 179 -394 199
c-17 11 -34 35 -26 66zM239 -13c4 1 44 0 263 0h258c31 -5 61 -35 51 -76c-7 -25 -24 -43 -51 -48h-258c-228 0 -257 -1 -262 0c-32 5 -61 37 -51 76c7 24 25 44 50 48z" />
  </g>

</svg>
