<?xml version="1.0" standalone="no"?>
<!DOCTYPE svg PUBLIC "-//W3C//DTD SVG 1.1//EN" "http://www.w3.org/Graphics/SVG/1.1/DTD/svg11.dtd" >
<svg xmlns="http://www.w3.org/2000/svg" xmlns:xlink="http://www.w3.org/1999/xlink" version="1.1" viewBox="-10 0 1010 1000">
  <g transform="matrix(1 0 0 -1 0 800)">
   <path fill="currentColor"
d="M189 627c8.78665 30.7533 36.3736 56.1566 77 46c6 -1 26 -12 261 -129c273 -137 261 -130 269 -139c9.47057 -11.8382 16 -22.2814 16 -43c0 -20.19 -6.69859 -30.3732 -16 -42c-8 -9 4 -2 -269 -139c-235 -118 -255 -128 -261 -129
c-36.1549 -8.21703 -68.9061 13.6245 -77 46c-7.69433 30.7773 9.2366 54.8244 26 66c80.7292 40.3646 4.67271 4.33463 394 198c-236.88 118.44 -354.52 179.26 -394 199c-16.787 11.1914 -33.7074 35.1706 -26 66zM239 -13c-24.6628 -4.35226 -43.1443 -24.0051 -50 -48
c-9.85757 -39.4303 19.4245 -71.1422 51 -76c5 -1 34 0 262 0h258c27.0471 4.50784 44.4776 22.9976 51 48c10.3258 41.3033 -19.9215 70.8203 -51 76h-258c-219 0 -259 1 -263 0z" />
  </g>

</svg>
