<?xml version="1.0" standalone="no"?>
<!DOCTYPE svg PUBLIC "-//W3C//DTD SVG 1.1//EN" "http://www.w3.org/Graphics/SVG/1.1/DTD/svg11.dtd" >
<svg xmlns="http://www.w3.org/2000/svg" xmlns:xlink="http://www.w3.org/1999/xlink" version="1.1" viewBox="-10 0 1010 1000">
  <g transform="matrix(1 0 0 -1 0 800)">
   <path fill="currentColor"
d="M189 564c9 31 36 56 77 46c6 -1 26 -12 261 -129c273 -137 261 -129 269 -138c9 -12 16 -23 16 -43s-7 -31 -16 -43c-8 -9 4 -1 -269 -138c-235 -118 -255 -128 -261 -129c-36 -8 -69 14 -77 46c-8 30 9 55 26 66c158 79 236 119 394 198c-355 178 -315 159 -394 198
c-17 11 -34 36 -26 66z" />
  </g>

</svg>
