<?xml version="1.0" standalone="no"?>
<!DOCTYPE svg PUBLIC "-//W3C//DTD SVG 1.1//EN" "http://www.w3.org/Graphics/SVG/1.1/DTD/svg11.dtd" >
<svg xmlns="http://www.w3.org/2000/svg" xmlns:xlink="http://www.w3.org/1999/xlink" version="1.1" viewBox="-10 0 1010 1000">
  <g transform="matrix(1 0 0 -1 0 800)">
   <path fill="currentColor"
d="M109 523c47.3962 36.8637 119.53 35.7593 164 -7c58.2253 -55.5787 50.2415 -153.724 -19 -197c-37 -23 -82 -25 -121 -6c-62 30 -88 105 -58 167c8 17 19 31 34 43zM422 523c47.1347 36.6603 119.375 35.9091 164 -7c27.2733 -25.8379 47.3059 -66.1234 36 -117
c-7 -33 -28 -62 -56 -80c-37 -23 -82 -25 -121 -6c-62 30 -87 105 -57 167c8 17 19 31 34 43zM733 521c46.1829 38.4858 119.797 38.4647 165 -5c58.2253 -55.5787 50.2415 -153.724 -19 -197c-37 -23 -82 -25 -121 -6c-62 30 -88 105 -58 167c8 17 19 29 33 41zM108 209
c46.9541 39.1284 119.629 37.6262 165 -6c58.3139 -55.6632 50.1413 -152.787 -19 -196c-37 -23 -82 -26 -121 -7c-62 30 -88 105 -58 167c8 17 19 30 33 42zM420 209c46.8889 39.0741 120.51 37.7402 166 -6c27.0939 -25.6679 47.194 -65.6269 36 -116
c-7 -33 -28 -62 -56 -80c-37 -23 -82 -26 -121 -7c-62 30 -87 105 -57 167c8 17 18 30 32 42zM800 237c-47.6536 -3.40383 -82.6566 -35.3131 -100 -70c-30 -62 -4 -137 58 -167c39 -19 84 -16 121 7c69.1055 43.1909 77.3462 140.306 19 196c-26 25 -62 38 -98 34z" />
  </g>

</svg>
