<?xml version="1.0" standalone="no"?>
<!DOCTYPE svg PUBLIC "-//W3C//DTD SVG 1.1//EN" "http://www.w3.org/Graphics/SVG/1.1/DTD/svg11.dtd" >
<svg xmlns="http://www.w3.org/2000/svg" xmlns:xlink="http://www.w3.org/1999/xlink" version="1.1" viewBox="-10 0 1010 1000">
  <g transform="matrix(1 0 0 -1 0 800)">
   <path fill="currentColor"
d="M583 471c16.1204 6.44818 37.2674 17 60 17h3v92c4.03107 80.6214 84.6032 129.267 155 112c51 -13 88 -56 94 -108v-476l-1 -10c-14.8828 -111.621 -78.2046 -196.467 -169 -243c-40 -20 -81 -32 -127 -34c-19 -1 -96 0 -110 1
c-81.0545 5.78961 -151.457 41.4566 -200 90c-26 26 -40 46 -73 103c-32 54 -114 199 -119 210c-8 17 -12 33 -12 52c0 34 13 65 37 89c36 36 92 48 141 31c3 -1 7 -2 8 -2s1 6 1 114c0 127 0 119 4 135c17.7091 68.1121 92.3927 116.689 171 83c41 -18 68 -55 74 -100
c0 -3 1 -29 1 -72v-67l3 -1c18.8101 0 42.549 -7.77448 59 -16zM520 293c-2 -13 -7 -27 -17 -37c-24 -25 -64 -25 -89 0c-10.2397 10.2397 -14.7041 21.5206 -18 38v-22c0 -18 0 -22 -1 -26c-5.79588 -27.8202 -27.4265 -50 -62 -50c-10 0 -16 2 -24 5
c-23.9234 9.56936 -77.0714 74.6905 -87 78c-2.19008 0.54752 -13.1049 0.209722 -12 -2c15.4259 -30.8518 132.306 -235.133 153 -261c26 -32 60 -54 100 -64c21 -5 33 -6 91 -6c48 0 50 0 67 4c75.2624 14.4735 131.561 74.807 146 147c3 18 4 18 4 110c0 47 -1 83 -1 83
c-4.72129 -28.3277 -27.9793 -52 -62 -52c-33.0482 0 -57.0706 24.4941 -61 52l-1 5c-3.2115 -16.0575 -7.28012 -27.089 -18 -39c-19 -20 -48 -24 -73 -12c-18 9 -32 28 -34 48v5l-1 -4z" />
  </g>

</svg>
