<?xml version="1.0" standalone="no"?>
<!DOCTYPE svg PUBLIC "-//W3C//DTD SVG 1.1//EN" "http://www.w3.org/Graphics/SVG/1.1/DTD/svg11.dtd" >
<svg xmlns="http://www.w3.org/2000/svg" xmlns:xlink="http://www.w3.org/1999/xlink" version="1.1" viewBox="-10 0 1010 1000">
  <g transform="matrix(1 0 0 -1 0 800)">
   <path fill="currentColor"
d="M583 471c16 6 37 17 60 17h3v92c4 81 85 129 155 112c51 -13 88 -56 94 -108v-476l-1 -10c-15 -112 -78 -196 -169 -243c-40 -20 -81 -32 -127 -34c-19 -1 -96 0 -110 1c-81 6 -151 41 -200 90c-26 26 -40 46 -73 103c-32 54 -114 199 -119 210c-8 17 -12 33 -12 52
c0 34 13 65 37 89c36 36 92 48 141 31c3 -1 7 -2 8 -2s1 6 1 114c0 127 0 119 4 135c18 68 92 117 171 83c41 -18 68 -55 74 -100c0 -3 1 -29 1 -72v-67l3 -1c19 0 43 -8 59 -16zM521 297c-3.77502 -15.1001 -6.32803 -29.328 -18 -41c-24 -25 -64 -25 -89 0
c-10 10 -15 22 -18 38v-22c0 -18 0 -22 -1 -26c-6 -28 -27 -50 -62 -50c-10 0 -16 2 -24 5c-24 10 -77 75 -87 78c-2 1 -13 0 -12 -2c15 -31 132 -235 153 -261c26 -32 60 -54 100 -64c21 -5 33 -6 91 -6c48 0 50 0 67 4c75 14 132 75 146 147c3 18 4 18 4 110
c0 47 -1 83 -1 83c-5 -28 -28 -52 -62 -52c-33 0 -57 24 -61 52l-1 5c-3 -16 -7 -27 -18 -39c-19 -20 -48 -24 -73 -12c-18 9 -32 28 -34 48v5z" />
  </g>

</svg>
