<?xml version="1.0" standalone="no"?>
<!DOCTYPE svg PUBLIC "-//W3C//DTD SVG 1.1//EN" "http://www.w3.org/Graphics/SVG/1.1/DTD/svg11.dtd" >
<svg xmlns="http://www.w3.org/2000/svg" xmlns:xlink="http://www.w3.org/1999/xlink" version="1.1" viewBox="-10 0 1010 1000">
  <g transform="matrix(1 0 0 -1 0 800)">
   <path fill="currentColor"
d="M264 240c0 3 31 115 31 121c0 1 -5 2 -90 2h-91c-26 9 -42 20 -49 46c-10 35 13 72 51 78h105l105 1l1 2c0 1 52 207 53 209c10 25 38 45 73 36c24 -7 47 -29 47 -60v-10l-22 -87c-12 -48 -23 -88 -23 -89s5 -1 92 -1h92v2c0 1 52 207 53 209c11 26 43 45 74 36
c25 -7 46 -27 46 -60v-10l-22 -87c-12 -48 -22 -88 -22 -89s3 -2 59 -2h59c35 -7 60 -45 49 -80c-8 -24 -28 -41 -53 -44c-3 0 -31 -1 -76 -1h-70v-2c0 -3 -31 -115 -31 -121c0 -1 5 -2 90 -2h90c27 -5 44 -23 51 -48c10 -41 -20 -71 -51 -76h-106l-105 -1l-1 -2
c0 -1 -52 -207 -53 -209c-20 -59 -120 -46 -120 24v10l22 87c12 48 23 88 23 89s-5 1 -92 1h-92v-2c0 -1 -52 -207 -53 -209c-1 -3 -4 -7 -6 -10c-31 -48 -114 -31 -114 34v10l22 87c12 48 22 88 22 89s-3 1 -56 1c-48 0 -56 0 -61 1c-30 5 -61 35 -51 76c6 24 26 44 51 48
c5 1 16 1 77 1h72v2zM423 360c0 -6 -30 -118 -30 -121c0 -1 4 -1 91 -1h92l1 2c0 6 30 118 30 121c0 1 -4 1 -91 1h-92z" />
  </g>

</svg>
