<?xml version="1.0" standalone="no"?>
<!DOCTYPE svg PUBLIC "-//W3C//DTD SVG 1.1//EN" "http://www.w3.org/Graphics/SVG/1.1/DTD/svg11.dtd" >
<svg xmlns="http://www.w3.org/2000/svg" xmlns:xlink="http://www.w3.org/1999/xlink" version="1.1" viewBox="-10 0 1010 1000">
  <g transform="matrix(1 0 0 -1 0 800)">
   <path fill="currentColor"
d="M264 240c0 3.025 31 114.95 31 121c0 1 -5 2 -90 2h-91c-25.8733 8.62444 -42.0364 20.467 -49 46c-9.59288 34.7742 12.652 71.6087 51 78h105l105 1l1 2c0 1.48096 52.2366 206.71 53 209c9.95839 24.896 37.8179 44.7955 73 36c24.422 -6.66054 47 -28.5215 47 -60
v-10l-22 -87c-12 -48 -23 -88 -23 -89s5 -1 92 -1h92v2c0 1.48096 52.2366 206.71 53 209c11.1492 26.0148 43.3203 44.7656 74 36c24.9962 -6.81713 46 -27.3179 46 -60v-10l-22 -87c-12 -48 -22 -88 -22 -89s3 -2 59 -2h59c35.364 -7.07279 60.1743 -45.0804 49 -80
c-8 -24 -28 -41 -53 -44c-3 0 -31 -1 -76 -1h-70v-2c0 -3.025 -31 -114.95 -31 -121c0 -1 5 -2 90 -2h90c27.0471 -4.50784 44.4776 -22.9976 51 -48c10.3258 -41.3033 -19.9215 -70.8203 -51 -76h-106l-105 -1l-1 -2c0 -1.48096 -52.2366 -206.71 -53 -209
c-19.8072 -59.4217 -120 -45.6328 -120 24v10l22 87c12 48 23 88 23 89s-5 1 -92 1h-92v-2c0 -1.48096 -52.2366 -206.71 -53 -209c-1 -3 -4 -7 -6 -10c-30.7744 -47.5604 -114 -30.5329 -114 34v10l22 87c12 48 22 88 22 89s-3 1 -56 1c-48 0 -56 0 -61 1
c-29.7595 4.57838 -61.211 35.1559 -51 76c5.9845 23.938 25.9528 44.1466 51 48c5 1 16 1 77 1h72v2zM423 360c0 -6.05 -30 -117.975 -30 -121c0 -1 4 -1 91 -1h92l1 2c0 6.05 30 117.975 30 121c0 1 -4 1 -91 1h-92l-1 -2z" />
  </g>

</svg>
