<?xml version="1.0" standalone="no"?>
<!DOCTYPE svg PUBLIC "-//W3C//DTD SVG 1.1//EN" "http://www.w3.org/Graphics/SVG/1.1/DTD/svg11.dtd" >
<svg xmlns="http://www.w3.org/2000/svg" xmlns:xlink="http://www.w3.org/1999/xlink" version="1.1" viewBox="-10 0 1010 1000">
  <g transform="matrix(1 0 0 -1 0 800)">
   <path fill="currentColor"
d="M211 636c80.0757 68.2126 186.549 110.246 330 100c129.543 -10.7952 222.274 -67.401 291 -143c63 -75 100 -169 105 -271v-319c-7.71389 -61.7111 -45.5862 -105.195 -99 -123c-63.3564 -21.5988 -135.503 0.502828 -172 37c-22 22 -35 49 -40 81c-1 7 -1 13 -1 68
c0 67 0 66 4 82c16.2161 60.8105 67.9517 102.869 133 111c12.1032 2.01719 42.6018 2.19908 51 -2l-1 33c0 33 0 40 -3 58c-22.5829 156.343 -147.271 276.087 -331 264c-160.863 -10.2678 -261.957 -113.155 -286 -256c-4 -22 -4 -37 -4 -72c0 -24 -1 -27 0 -27s5 1 9 2
c12 2 36 1 48 -1c67.8261 -10.9988 117.048 -54.0954 128 -122c1 -8 2 -9 2 -70s-1 -63 -2 -71c-8.52986 -56.2971 -47.6837 -98.2279 -98 -115c-63.1608 -21.5321 -134.563 0.562889 -171 37c-22 22 -35 48 -40 80c-1 6 -1 17 -1 159v166
c6.92673 114.291 43.9518 196.299 103 268c9 11 35 38 45 46zM212 135c-9 -2 -16 -6 -20 -10c-5 -5 -4 -2 -4 -59s-1 -55 4 -60c10.149 -10.149 49.7014 -15.2466 57 3c1 3 1 8 1 57c0 58 0 56 -4 60c-4.96504 4.96504 -12.5467 9 -24 9h-10zM775 135c-9 -2 -17 -6 -21 -10
c-5 -5 -4 -2 -4 -59s0 -55 5 -60c10.0744 -10.0744 48.6141 -15.4647 56 3c1 3 1 8 1 57c0 58 1 56 -3 60c-4.94795 4.94795 -13.72 9 -25 9h-9z" />
  </g>

</svg>
