<?xml version="1.0" standalone="no"?>
<!DOCTYPE svg PUBLIC "-//W3C//DTD SVG 1.1//EN" "http://www.w3.org/Graphics/SVG/1.1/DTD/svg11.dtd" >
<svg xmlns="http://www.w3.org/2000/svg" xmlns:xlink="http://www.w3.org/1999/xlink" version="1.1" viewBox="-10 0 1010 1000">
  <g transform="matrix(1 0 0 -1 0 800)">
   <path fill="currentColor"
d="M166 590c78.6282 96.1011 204.869 157.897 375 146c130 -11 222 -67 291 -143c63 -75 100 -169 105 -271v-319c-8 -62 -46 -105 -99 -123c-63 -22 -136 1 -172 37c-22 22 -35 49 -40 81c-1 7 -1 13 -1 68c0 67 0 66 4 82c16 61 68 103 133 111c12 2 43 2 51 -2l-1 33
c0 33 0 40 -3 58c-23 156 -147 276 -331 264c-161 -10 -262 -113 -286 -256c-4 -22 -4 -37 -4 -72c0 -24 -1 -27 0 -27s5 1 9 2c12 2 36 1 48 -1c68 -11 117 -54 128 -122c1 -8 2 -9 2 -70s-1 -63 -2 -71c-9 -56 -48 -98 -98 -115c-63 -22 -135 1 -171 37
c-22 22 -35 48 -40 80c-1 6 -1 17 -1 159v166c7 114 44 196 103 268zM212 135c-9 -2 -16 -6 -20 -10c-5 -5 -4 -2 -4 -59s-1 -55 4 -60c10 -10 50 -15 57 3c1 3 1 8 1 57c0 58 0 56 -4 60c-5 5 -13 9 -24 9h-10zM775 135c-9 -2 -17 -6 -21 -10c-5 -5 -4 -2 -4 -59
s0 -55 5 -60c10 -10 49 -15 56 3c1 3 1 8 1 57c0 58 1 56 -3 60c-5 5 -14 9 -25 9h-9z" />
  </g>

</svg>
