<?xml version="1.0" standalone="no"?>
<!DOCTYPE svg PUBLIC "-//W3C//DTD SVG 1.1//EN" "http://www.w3.org/Graphics/SVG/1.1/DTD/svg11.dtd" >
<svg xmlns="http://www.w3.org/2000/svg" xmlns:xlink="http://www.w3.org/1999/xlink" version="1.1" viewBox="-10 0 1010 1000">
  <g transform="matrix(1 0 0 -1 0 800)">
   <path fill="currentColor"
d="M218 673c43 24 89 37 149 30c46 -6 87 -25 125 -55l8 -6s4 2 7 5c38 31 78 49 123 55c29 4 65 2 94 -6c111 -30 214 -145 214 -289c0 -21 -2 -36 -6 -56c-10 -50 -31 -97 -65 -145c-11 -15 -321 -325 -330 -331c-9 -8 -20 -12 -36 -12c-10 0 -16 1 -24 4
c-11 4 -12 6 -43 33c-100 87 -219 201 -293 295c-45 58 -70 119 -78 182c-6 69 8 117 31 163c28 57 70 103 124 133zM323 578c-69 -10 -136 -80 -136 -171c0 -43 18 -90 52 -134c57 -74 166 -179 246 -251l12 -12l134 134c128 128 134 135 139 142c24 35 38 70 42 104
c1 11 2 30 0 40c-10 59 -45 110 -94 135c-46 23 -91 18 -132 -15c-12 -9 -31 -33 -43 -45c-10 -10 -24 -17 -42 -17c-29 0 -38 9 -54 29c-28 35 -57 55 -89 61c-9 2 -26 1 -35 0z" />
  </g>

</svg>
