<?xml version="1.0" standalone="no"?>
<!DOCTYPE svg PUBLIC "-//W3C//DTD SVG 1.1//EN" "http://www.w3.org/Graphics/SVG/1.1/DTD/svg11.dtd" >
<svg xmlns="http://www.w3.org/2000/svg" xmlns:xlink="http://www.w3.org/1999/xlink" version="1.1" viewBox="-10 0 1010 1000">
  <g transform="matrix(1 0 0 -1 0 800)">
   <path fill="currentColor"
d="M218 673c43.2759 24.3427 89.0799 36.6578 149 30c46 -6 87 -25 125 -55l8 -6s4 2 7 5c38 31 78 49 123 55c29 4 65 2 94 -6c110.51 -30.4302 214 -144.635 214 -289c0 -21 -2 -36 -6 -56c-10 -50 -31 -97 -65 -145c-10.6777 -14.9488 -320.902 -324.935 -330 -331
c-9.00913 -7.50761 -20.246 -12 -36 -12c-10 0 -16 1 -24 4c-11 4 -12 6 -43 33c-100.272 86.9023 -218.892 200.681 -293 295c-45 58 -70 119 -78 182c-5.77236 69.2684 8.016 117.032 31 163c28 57 70 103 124 133zM323 578c-69.1297 -10.3695 -136 -79.7411 -136 -171
c0 -43 18 -90 52 -134c56.7765 -74.3968 165.912 -179.254 246 -251l12 -12l134 134c128 128 134 135 139 142c24 35 38 70 42 104c1 11 2 30 0 40c-10 59 -45 110 -94 135c-46 23 -91 18 -132 -15c-11.797 -9.17542 -31.0051 -33.0051 -43 -45
c-9.73393 -9.73393 -23.5439 -17 -42 -17c-28.5646 0 -38.2404 9.30052 -54 29c-28 35 -57 55 -89 61c-9 2 -26 1 -35 0z" />
  </g>

</svg>
