<?xml version="1.0" standalone="no"?>
<!DOCTYPE svg PUBLIC "-//W3C//DTD SVG 1.1//EN" "http://www.w3.org/Graphics/SVG/1.1/DTD/svg11.dtd" >
<svg xmlns="http://www.w3.org/2000/svg" xmlns:xlink="http://www.w3.org/1999/xlink" version="1.1" viewBox="-10 0 1010 1000">
  <g transform="matrix(1 0 0 -1 0 800)">
   <path fill="currentColor"
d="M356 366c11.5937 61.8331 57.223 108.537 120 119c2 0 3 2 3 2c0 1 -28 1 -137 1h-142c-47.7064 5.96329 -73.2616 67.7384 -35 106c9 9 22 16 34 18h321c290 0 319 0 324 -1c27.1393 -5.42785 51 -25.7602 51 -61c0 -31.4955 -17.2071 -50.6725 -41 -59
c-10 -4 -5 -4 -133 -4h-113c93.4835 -4.0645 166.067 -26.803 224 -68c48.1313 -35.5753 87.158 -84.6499 100 -151c17.8544 -89.272 -14.9665 -151.483 -76 -182c-17 -9 -40 -15 -56 -15h-4l3 -1c23 -4 40 -16 49 -35c19.7636 -41.7232 -10.2183 -85.0218 -50 -89h-177
c-156 0 -171 0 -175 1c-14 4 -25 9 -34 19c-17 18 -21 46 -10 69c8 17 22 28 40 34c6 2 6 2 28 2h20c-68.3706 6.21551 -118.012 52.5051 -132 111c-3 13 -4 21 -4 40v15l-98 1h-99c-18.9802 3.16336 -32.8022 13.2033 -42 27c-4 6 -48 94 -50 100
c-12.2639 37.9067 12.9892 80 60 80c23.698 0 42.0609 -12.0914 52 -27c1 -2 9 -16 16 -30l12 -26h151v4zM480 211c1.69385 -7.64092 9.37328 -11.3094 15 -15h123c-24.2588 0 -45.0344 21.1032 -52 42c-3 10 -4 11 -4 70v54h-32c-25 0 -34 1 -36 0c-1 0 -3 -2 -4 -2
c-4.10415 -2.7361 -8.29905 -6.89716 -10 -12v-137zM688 335v-14h67c-13.5894 5.43575 -30.3023 16.0365 -47 22c-7 2 -19 6 -20 6s0 -3 0 -14z" />
  </g>

</svg>
