<?xml version="1.0" standalone="no"?>
<!DOCTYPE svg PUBLIC "-//W3C//DTD SVG 1.1//EN" "http://www.w3.org/Graphics/SVG/1.1/DTD/svg11.dtd" >
<svg xmlns="http://www.w3.org/2000/svg" xmlns:xlink="http://www.w3.org/1999/xlink" version="1.1" viewBox="-10 0 1010 1000">
  <g transform="matrix(1 0 0 -1 0 800)">
   <path fill="currentColor"
d="M356 366c12 62 57 109 120 119c2 0 3 2 3 2c0 1 -28 1 -137 1h-142c-48 6 -73 68 -35 106c9 9 22 16 34 18h321c290 0 319 0 324 -1c27 -5 51 -26 51 -61c0 -31 -17 -51 -41 -59c-10 -4 -5 -4 -133 -4h-113c93 -4 166 -27 224 -68c48 -36 87 -85 100 -151
c18 -89 -15 -151 -76 -182c-17 -9 -40 -15 -56 -15h-4l3 -1c23 -4 40 -16 49 -35c20 -42 -10 -85 -50 -89h-177c-156 0 -171 0 -175 1c-14 4 -25 9 -34 19c-17 18 -21 46 -10 69c8 17 22 28 40 34c6 2 6 2 28 2h20c-68 6 -118 53 -132 111c-3 13 -4 21 -4 40v15l-98 1h-99
c-19 3 -33 13 -42 27c-4 6 -48 94 -50 100c-12 38 13 80 60 80c24 0 42 -12 52 -27c1 -2 9 -16 16 -30l12 -26h151v4zM480 211c2 -8 9 -11 15 -15h123c-24 0 -45 21 -52 42c-3 10 -4 11 -4 70v54h-32c-25 0 -34 1 -36 0c-1 0 -3 -2 -4 -2c-4 -3 -8 -7 -10 -12v-137zM688 335
v-14h67c-14 5 -30 16 -47 22c-7 2 -19 6 -20 6s0 -3 0 -14z" />
  </g>

</svg>
