<?xml version="1.0" standalone="no"?>
<!DOCTYPE svg PUBLIC "-//W3C//DTD SVG 1.1//EN" "http://www.w3.org/Graphics/SVG/1.1/DTD/svg11.dtd" >
<svg xmlns="http://www.w3.org/2000/svg" xmlns:xlink="http://www.w3.org/1999/xlink" version="1.1" viewBox="-10 0 1010 1000">
  <g transform="matrix(1 0 0 -1 0 800)">
   <path fill="currentColor"
d="M476 737c102 6 204 -25 285 -86c48 -36 89 -81 119 -133c66 -114 75 -255 27 -378c-33.1228 -83.9112 -89.8359 -153.592 -160 -201c-86 -58 -188 -84 -291 -74c-89 9 -174 45 -242 104c-102.104 83.5396 -162.888 233.809 -149 375c9 92 47 179 109 248
c72.3508 80.3898 185.342 138.987 302 145zM483 612c-79 -5 -150 -36 -205 -92c-83 -83 -111 -207 -74 -319c24 -72 74 -134 140 -172s143 -50 218 -35c101.357 20.0356 190.883 92.8954 229 192c41 104 23 222 -47 309c-60 75 -151 118 -246 117h-15zM371 511
c35.8891 35.8891 84.1936 70.9677 156 59c77.517 -11.9257 134.465 -70.7621 145 -143c11.4149 -75.3382 -32.5766 -157.216 -104 -184l-5 -2l-1 -7c-2 -33 -26 -57 -59 -59c-30 -1 -57 19 -64 48c-2 7 -2 22 -1 33c6 46 36 83 79 101c4 2 10 4 12 6
c36.8572 25.2181 15.8258 81.6573 -24 84c-11 1 -19 -3 -28 -9c-5 -4 -19 -17 -25 -24c-34.1225 -40.947 -108 -15.7856 -108 42c0 27.5353 7.5125 34.2945 27 55zM492 156c-24 -3 -45 -20 -52 -43c-3 -8 -2 -14 -2 -28c0 -42.0253 29.7884 -67.1737 65 -66
c39.2265 1.40095 65.169 34.6483 59 84c-4 29 -26 49 -55 53c-6 1 -9 1 -15 0z" />
  </g>

</svg>
