<?xml version="1.0" standalone="no"?>
<!DOCTYPE svg PUBLIC "-//W3C//DTD SVG 1.1//EN" "http://www.w3.org/Graphics/SVG/1.1/DTD/svg11.dtd" >
<svg xmlns="http://www.w3.org/2000/svg" xmlns:xlink="http://www.w3.org/1999/xlink" version="1.1" viewBox="-10 0 1010 1000">
  <g transform="matrix(1 0 0 -1 0 800)">
   <path fill="currentColor"
d="M459 722c23 12 21 13 44 13c16 0 20 -2 51 -20c53 -30 142 -86 268 -169c54 -36 61 -40 66 -45c8 -8 14 -19 17 -31c1 -5 1 -12 1 -201s0 -196 -1 -201c-4 -17 -15 -32 -29 -40c-94.1737 -43.9477 -355 -162 -355 -162c-12 -4 -27 -4 -39 0c-4 1 -345 155 -354 159
c-16 7 -28 25 -33 43c-1 5 -1 12 -1 201s0 196 1 201c3 14 12 27 22 35c5 4 69 46 125 82c99 64 175 112 217 135zM484 592c-56 -33 -146 -91 -237 -151c-15 -10 -26 -16 -28 -18v-301l71 -33c77 -35 112 -50 176 -80l35 -15c93 43 186 85 280 127v302l-21 14
c-76 50 -153 100 -203 131c-27 17 -55 33 -56 33c0 0 -8 -4 -17 -9z" />
  </g>

</svg>
