<?xml version="1.0" standalone="no"?>
<!DOCTYPE svg PUBLIC "-//W3C//DTD SVG 1.1//EN" "http://www.w3.org/Graphics/SVG/1.1/DTD/svg11.dtd" >
<svg xmlns="http://www.w3.org/2000/svg" xmlns:xlink="http://www.w3.org/1999/xlink" version="1.1" viewBox="-10 0 1010 1000">
  <g transform="matrix(1 0 0 -1 0 800)">
   <path fill="currentColor"
d="M141 735c8 -2 15 -5 21 -10c4 -2 756 -751 765 -766c7 -10 10 -18 10 -34c0 -53 -57 -79 -98 -51c-2 1 -30 28 -76 74l-73 73c-75 -28 -172 -41 -265 -29c-170 21 -305 130 -356 277c-5 15 -6 21 -6 31s1 16 6 31c23 66 69 134 120 176l9 7l-61 61c-53 53 -61 61 -64 66
c-32 48 13 108 68 94zM504 487c-37 0 -66 25 -66 63c0 34 24 57 51 62c11 2 54 0 84 -4c171 -22 307 -128 358 -276c8 -23 8 -35 3 -53c-9 -30 -26 -68 -47 -99c-13 -19 -27 -30 -54 -30c-37 0 -59 25 -62 59c0 18 4 28 12 41c9 14 17 28 23 43c1 3 3 6 3 7s-2 4 -3 7
c-49 108 -149 180 -302 180zM278 418c-11 -8 -31 -29 -40 -39c-14 -16 -25 -34 -35 -53c-4 -8 -12 -24 -12 -26c0 -1 4 -10 9 -20c57 -115 182 -188 365 -163c9 1 25 4 25 4s-13 14 -30 31l-31 30c-15 -6 -31 -9 -55 -4c-61 13 -117 77 -92 152c-32 31 -64 63 -95 95z" />
  </g>

</svg>
