<?xml version="1.0" standalone="no"?>
<!DOCTYPE svg PUBLIC "-//W3C//DTD SVG 1.1//EN" "http://www.w3.org/Graphics/SVG/1.1/DTD/svg11.dtd" >
<svg xmlns="http://www.w3.org/2000/svg" xmlns:xlink="http://www.w3.org/1999/xlink" version="1.1" viewBox="-10 0 1010 1000">
  <g transform="matrix(1 0 0 -1 0 800)">
   <path fill="currentColor"
d="M141 735c8 -2 15 -5 21 -10c3.65769 -2.43846 755.892 -750.819 765 -766c6.63016 -9.94524 10 -17.7625 10 -34c0 -52.9614 -56.5999 -78.6001 -98 -51c-2 1 -30 28 -76 74l-73 73c-74.7877 -28.0454 -171.857 -40.5121 -265 -29
c-169.898 21.0349 -305.051 129.517 -356 277c-5 15 -6 21 -6 31s1 16 6 31c22.5155 65.9382 69.1556 134.128 120 176l9 7l-61 61c-53 53 -61 61 -64 66c-32.0124 48.0186 12.5572 107.861 68 94zM504 487c-37.0958 0 -66 24.5083 -66 63c0 33.7667 23.6529 57.174 51 62
c11 2 54 0 84 -4c171.333 -21.8365 307.095 -128.377 358 -276c8 -23 8 -35 3 -53c-9 -30 -26 -68 -47 -99c-12.5262 -18.7893 -26.8155 -30 -54 -30c-36.5108 0 -59.2013 25.4152 -62 59c0 17.5269 3.97867 28.1659 12 41c9 14 17 28 23 43c1 3 3 6 3 7s-2 4 -3 7
c-48.538 108.497 -148.764 180 -302 180zM278 418c-11 -8 -31 -29 -40 -39c-14 -16 -25 -34 -35 -53c-4 -8 -12 -24 -12 -26c0 -1 4 -10 9 -20c57.295 -114.59 181.83 -187.658 365 -163c9 1 25 4 25 4s-13 14 -30 31l-31 30c-15.3108 -6.12433 -31.2715 -8.74571 -55 -4
c-60.5601 12.6167 -116.986 77.0428 -92 152c-32.1854 31.1479 -63.8595 62.8071 -95 95l-9 -7z" />
  </g>

</svg>
