<?xml version="1.0" standalone="no"?>
<!DOCTYPE svg PUBLIC "-//W3C//DTD SVG 1.1//EN" "http://www.w3.org/Graphics/SVG/1.1/DTD/svg11.dtd" >
<svg xmlns="http://www.w3.org/2000/svg" xmlns:xlink="http://www.w3.org/1999/xlink" version="1.1" viewBox="-10 0 1010 1000">
  <g transform="matrix(1 0 0 -1 0 800)">
   <path fill="currentColor"
d="M669 219c22 11 49 18 82 18c16 0 24 -1 38 -4c73 -15 131 -73 145 -146c3 -15 3 -21 3 -37c0 -20 -2 -37 -7 -54c-15 -49 -48 -88 -93 -112c-47 -25 -104 -28 -154 -9c-60 23 -105 75 -117 138c-3 15 -3 21 -3 37c0 29 7 57 16 76c1 1 1 3 1 3s-18 13 -40 28l-40 26
l-39 -26c-22 -15 -41 -27 -41 -27c3 -12 11 -28 14 -43s3 -21 3 -37c0 -20 -2 -37 -7 -54c-15 -49 -48 -88 -93 -112c-47 -25 -104 -28 -154 -9c-60 23 -105 75 -117 138c-3 15 -3 21 -3 37s0 22 3 36c17 89 106 173 226 147c12 -3 29 -9 39 -14c6 6 26 18 57 39l49 34v81
l-6 3c-59 23 -103 75 -115 137c-3 15 -3 21 -3 37s0 22 3 36c12 63 57 116 117 139c14 5 32 10 46 11c4 0 8 1 9 1c5 1 30 0 36 -1c83 -11 151 -73 162 -165c11 -101 -49 -168 -117 -195l-6 -3v-40l-1 -41l50 -33c32 -22 50 -33 57 -40zM492 612c-32 -6 -54 -28 -54 -62
c0 -40 33 -71 78 -60c29 8 54 36 44 76c-7 27 -30 45 -58 46h-10zM312 50c0 37 -28 61 -60 62h-10c-32 -6 -54 -28 -54 -62c0 -40 33 -71 78 -60c25 7 46 28 46 60zM742 112c-32 -6 -54 -28 -54 -62c0 -40 33 -71 78 -60c25 7 46 28 46 60c0 37 -28 61 -60 62h-10z" />
  </g>

</svg>
