<?xml version="1.0" standalone="no"?>
<!DOCTYPE svg PUBLIC "-//W3C//DTD SVG 1.1//EN" "http://www.w3.org/Graphics/SVG/1.1/DTD/svg11.dtd" >
<svg xmlns="http://www.w3.org/2000/svg" xmlns:xlink="http://www.w3.org/1999/xlink" version="1.1" viewBox="-10 0 1010 1000">
  <g transform="matrix(1 0 0 -1 0 800)">
   <path fill="currentColor"
d="M669 219c22.4296 11.2148 48.8256 18 82 18c16 0 24 -1 38 -4c73 -15 131 -73 145 -146c3 -15 3 -21 3 -37c0 -20 -2 -37 -7 -54c-15 -49 -48 -88 -93 -112c-47 -25 -104 -28 -154 -9c-60 23 -105 75 -117 138c-3 15 -3 21 -3 37c0 29.3395 6.54817 57.0963 16 76
c1 1 1 3 1 3s-18 13 -40 28l-40 26l-39 -26c-22 -15 -41 -27 -41 -27c3.01783 -12.0713 10.5059 -27.859 14 -43c3 -15 3 -21 3 -37c0 -20 -2 -37 -7 -54c-15 -49 -48 -88 -93 -112c-47 -25 -104 -28 -154 -9c-60 23 -105 75 -117 138c-3 15 -3 21 -3 37s0 22 3 36
c16.9266 88.8646 105.887 172.97 226 147c12.1692 -2.70428 28.993 -8.99649 39 -14c6.10518 6.10518 25.8624 18.2416 57 39l49 34v81l-6 3c-59 23 -103 75 -115 137c-3 15 -3 21 -3 37s0 22 3 36c12 63 57 116 117 139c14 5 32 10 46 11c4 0 8 1 9 1c5 1 30 0 36 -1
c82.9246 -11.0566 150.927 -72.7249 162 -165c5.04787 -45.4308 -4.70142 -84.169 -22 -113c-22 -38 -55 -66 -95 -82l-6 -3v-40l-1 -41l50 -33c32.2675 -21.5117 49.6971 -32.6971 57 -40zM492 612c-31.6234 -5.7497 -54 -27.5216 -54 -62
c0 -40.2982 33.4612 -71.1347 78 -60c29.0037 7.91009 54.0591 35.7636 44 76c-7 27 -30 45 -58 46h-10zM312 50c0 37.2901 -27.9945 60.8569 -60 62h-10c-31.6234 -5.7497 -54 -27.5216 -54 -62c0 -40.2982 33.4612 -71.1347 78 -60c25.3005 6.90015 46 28.1169 46 60z
M742 112c-31.6165 -5.74846 -54 -27.5213 -54 -62c0 -40.2982 33.4612 -71.1347 78 -60c25.3005 6.90015 46 28.1169 46 60c0 37.2901 -27.9945 60.8569 -60 62h-10z" />
  </g>

</svg>
