<?xml version="1.0" standalone="no"?>
<!DOCTYPE svg PUBLIC "-//W3C//DTD SVG 1.1//EN" "http://www.w3.org/Graphics/SVG/1.1/DTD/svg11.dtd" >
<svg xmlns="http://www.w3.org/2000/svg" xmlns:xlink="http://www.w3.org/1999/xlink" version="1.1" viewBox="-10 0 1010 1000">
  <g transform="matrix(1 0 0 -1 0 800)">
   <path fill="currentColor"
d="M322 237c29 -5 53 -29 53 -62c0 -32 -23 -54 -48 -61c-5 -1 -7 -1 -29 -1l-24 -1l17 -16c66 -64 134 -120 243 -106c77 10 153 55 202 109c67 78 91 175 67 272c-29 118 -126 219 -251 238c-142 23 -250 -64 -310 -152c-17 -26 -60 -44 -93 -18c-16 12 -29 36 -22 65
c3 11 7 19 23 40c47 65 116 125 194 158c47 21 92 32 141 35h24c27 0 46 -2 70 -6c181 -32 339 -186 357 -401c5 -64 -4 -117 -20 -163c-40 -118 -130 -219 -249 -269c-130 -54 -256 -47 -368 28c-29 19 -62 47 -95 80c-8 7 -14 13 -14 13s-1 -9 -1 -21c0 -20 0 -21 -1 -26
c-7 -24 -26 -42 -50 -46c-36 -6 -69 19 -73 55c-1 8 -1 194 0 201c4 29 26 51 54 55h203zM489 549c39 6 64 -18 72 -47c1 -5 1 -4 1 -90l1 -86l55 -56c48 -48 56 -56 59 -61c41 -61 -40 -126 -91 -83l-69 69c-71 72 -70 70 -75 82s-4 3 -4 117c0 97 0 102 1 107
c6 25 25 43 50 48z" />
  </g>

</svg>
