<?xml version="1.0" standalone="no"?>
<!DOCTYPE svg PUBLIC "-//W3C//DTD SVG 1.1//EN" "http://www.w3.org/Graphics/SVG/1.1/DTD/svg11.dtd" >
<svg xmlns="http://www.w3.org/2000/svg" xmlns:xlink="http://www.w3.org/1999/xlink" version="1.1" viewBox="-10 0 1010 1000">
  <g transform="matrix(1 0 0 -1 0 800)">
   <path fill="currentColor"
d="M322 237c29.2192 -4.86987 53 -28.5254 53 -62c0 -31.5953 -22.5948 -54.3725 -48 -61c-5 -1 -7 -1 -29 -1l-24 -1l17 -16c65.8308 -63.836 133.657 -119.885 243 -106c76.7284 10.4038 153.023 54.581 202 109c67 78 91 175 67 272
c-28.855 117.825 -125.948 219.124 -251 238c-141.917 22.8899 -249.86 -64.2282 -310 -152c-17.1407 -25.711 -59.5929 -43.8146 -93 -18c-15.8383 11.5188 -29.267 35.9321 -22 65c3 11 7 19 23 40c47.2382 64.9525 116.164 124.642 194 158c47 21 92 32 141 35h24
c27 0 46 -2 70 -6c181.426 -32.4943 338.82 -186.47 357 -401c5.29833 -63.5799 -4.25068 -117.184 -20 -163c-39.58 -117.576 -129.673 -219.28 -249 -269c-129.543 -53.7725 -255.733 -47.403 -368 28c-29 19 -62 47 -95 80c-8 7 -14 13 -14 13s-1 -9 -1 -21
c0 -20 0 -21 -1 -26c-7 -24 -26 -42 -50 -46c-36 -6 -69 19 -73 55c-1 8 -1 194 0 201c4 29 26 51 54 55h203zM489 549c-25 -5 -44 -23 -50 -48c-1 -5 -1 -10 -1 -107c0 -114 -1 -105 4 -117s4 -10 75 -82l69 -69c50.6964 -43.454 131.512 22.2324 91 83c-3 5 -11 13 -59 61
l-55 56l-1 86c0 86 0 85 -1 90c-7.58702 29.0836 -32.8175 52.5975 -72 47z" />
  </g>

</svg>
