<?xml version="1.0" standalone="no"?>
<!DOCTYPE svg PUBLIC "-//W3C//DTD SVG 1.1//EN" "http://www.w3.org/Graphics/SVG/1.1/DTD/svg11.dtd" >
<svg xmlns="http://www.w3.org/2000/svg" xmlns:xlink="http://www.w3.org/1999/xlink" version="1.1" viewBox="-10 0 1010 1000">
  <g transform="matrix(1 0 0 -1 0 800)">
   <path fill="currentColor"
d="M464 726c14.7495 9.21845 29.2658 14.6836 52 9c8 -2 15 -5 21 -10c1.81531 -1.2102 383.598 -380.33 390 -391c27.0233 -40.535 -3.75522 -92.7967 -47 -96l-5 -1v-102c0 -92 0 -103 -1 -109c-13.6396 -84.5652 -73.522 -145.769 -151 -160c-18 -3 -6 -3 -223 -3
c-220 0 -206 -1 -225 3c-73 15 -131 72 -146 145c-4 19 -4 12 -4 124v103h-2c-48.5066 0 -76.355 56.4675 -50 96c4.63978 7.73297 387.189 390.094 391 392zM750 310c2.84986 5.6872 3.78097 13.6787 7 19l-128 129c-71 71 -129 128 -129 128s-58 -57 -129 -128l-128 -129
c3.21889 -5.32161 4.14905 -13.3142 7 -19v-270c4.55385 -13.6615 8.13347 -24.1335 18 -34c13.2857 -13.2857 26.7557 -14.6889 44 -19l1 102c0 111 0 103 4 120c9.93362 39.7345 32.5351 69.1297 65 90c52 34 129 42 193 20c54.4386 -18.6237 92.7648 -52.8681 108 -110
c4 -17 4 -9 4 -120l1 -102c30.9055 1.52404 56.6187 23.7632 62 53v270zM489 206c-23.2157 -2.44376 -42.7818 -8.56366 -50 -23c-1 -2 -1 -5 -1 -99l-1 -96h126l-1 96v97c-5.77623 11.5525 -19.1948 19.7292 -41 23c-7 1 -26 3 -32 2z" />
  </g>

</svg>
