<?xml version="1.0" standalone="no"?>
<!DOCTYPE svg PUBLIC "-//W3C//DTD SVG 1.1//EN" "http://www.w3.org/Graphics/SVG/1.1/DTD/svg11.dtd" >
<svg xmlns="http://www.w3.org/2000/svg" xmlns:xlink="http://www.w3.org/1999/xlink" version="1.1" viewBox="-10 0 1010 1000">
  <g transform="matrix(1 0 0 -1 0 800)">
   <path fill="currentColor"
d="M464 726c15 9 29 15 52 9c8 -2 15 -5 21 -10c2 -1 384 -380 390 -391c27 -41 -4 -93 -47 -96l-5 -1v-102c0 -92 0 -103 -1 -109c-14 -85 -74 -146 -151 -160c-18 -3 -6 -3 -223 -3c-220 0 -206 -1 -225 3c-73 15 -131 72 -146 145c-4 19 -4 12 -4 124v103h-2
c-49 0 -76 56 -50 96c5 8 387 390 391 392zM750 310c3 6 4 14 7 19l-128 129c-71 71 -129 128 -129 128s-58 -57 -129 -128l-128 -129c3 -5 4 -13 7 -19v-270c5 -14 8 -24 18 -34c13 -13 27 -15 44 -19l1 102c0 111 0 103 4 120c10 40 33 69 65 90c52 34 129 42 193 20
c54 -19 93 -53 108 -110c4 -17 4 -9 4 -120l1 -102c31 2 57 24 62 53v270zM562 181c-15.7431 31.4862 -106.107 34.2502 -123 2c-1 -2 -1 -5 -1 -99l-1 -96h126l-1 96v97z" />
  </g>

</svg>
