<?xml version="1.0" standalone="no"?>
<!DOCTYPE svg PUBLIC "-//W3C//DTD SVG 1.1//EN" "http://www.w3.org/Graphics/SVG/1.1/DTD/svg11.dtd" >
<svg xmlns="http://www.w3.org/2000/svg" xmlns:xlink="http://www.w3.org/1999/xlink" version="1.1" viewBox="-10 0 1010 1000">
  <g transform="matrix(1 0 0 -1 0 800)">
   <path fill="currentColor"
d="M499 738c32 0 30 0 52 -4c144 -16 267 -108 329 -216c66 -114 75 -255 27 -378c-26 -66 -69 -128 -122 -172c-59 -51 -145 -94 -236 -103c-20 -4 -22 -2 -52 -2c-27 0 -35 0 -61 4c-103 15 -197 70 -262 141c-82 92 -121 214 -109 336c20 200 177 361 371 389
c25 4 32 5 63 5zM500 583c-14 -25 -26 -58 -35 -85l-3 -10h76l-3 10c-9 28 -23 61 -35 85zM361 580c-44 -22 -82 -54 -111 -92h82l1 2c0 1 1 4 2 6c5 21 16 56 26 84zM638 579c9 -22 24 -64 30 -91h82c-26 32 -53 59 -88 80c-8 5 -23 12 -24 12v-1zM194 362
c-5 -16 -6 -35 -6 -62s1 -46 6 -62h118v2c-3 22 -3 98 0 120v2h-118zM566 300c0 20 0 58 -4 62h-124l-1 -1c0 -1 0 -7 -1 -15c-2 -20 -2 -72 0 -92c1 -8 1 -14 1 -15l1 -1h124c4 4 4 42 4 62zM812 300c0 27 -1 46 -6 62h-118v-2c3 -21 3 -99 0 -120v-2h118c5 16 6 35 6 62z
M252 110c31 -39 66 -68 110 -90c0 0 -1 4 -3 8c-7 18 -20 58 -24 76c-1 2 -2 5 -2 6l-1 2h-82zM465 102c9 -27 21 -60 35 -85l5 10c12 26 22 49 30 75l3 10h-76zM667 110c0 -1 -1 -4 -2 -6c-5 -22 -19 -63 -27 -84c44 22 78 50 110 90l2 2h-82z" />
  </g>

</svg>
