<?xml version="1.0" standalone="no"?>
<!DOCTYPE svg PUBLIC "-//W3C//DTD SVG 1.1//EN" "http://www.w3.org/Graphics/SVG/1.1/DTD/svg11.dtd" >
<svg xmlns="http://www.w3.org/2000/svg" xmlns:xlink="http://www.w3.org/1999/xlink" version="1.1" viewBox="-10 0 1010 1000">
  <g transform="matrix(1 0 0 -1 0 800)">
   <path fill="currentColor"
d="M499 738c31.5804 0 30.0365 -0.339422 52 -4c144.322 -15.6024 266.623 -107.88 329 -216c66 -114 75 -255 27 -378c-26.2199 -65.5497 -68.9757 -127.813 -122 -172c-58.8194 -50.7064 -144.618 -93.6753 -236 -103c-20.029 -4.0058 -21.7901 -2 -52 -2
c-27 0 -35 0 -61 4c-102.573 15.0107 -197.273 69.8 -262 141c-82 92 -121 214 -109 336c19.5911 200.265 177.09 360.623 371 389c25.1925 4.19874 32.1141 5 63 5zM500 583c-14.3372 -25.0901 -26.3843 -58.0759 -35 -85l-3 -10h76l-3 10
c-9.11229 28.4759 -23.4937 60.9405 -35 85zM361 580c-43.5899 -21.795 -82.1754 -53.5671 -111 -92h82l1 2c0 1 1 4 2 6c5.26114 21.0445 15.6078 55.9399 26 84zM638 579c8.98446 -22.4612 23.6202 -64.4207 30 -91h82c-26.3794 31.6552 -53.3342 59.4172 -88 80
c-8 5 -23 12 -24 12v-1zM194 362c-5.46601 -16.398 -6 -35.2069 -6 -62c0 -26.837 0.524895 -45.5747 6 -62h118v2c-3 22 -3 98 0 120v2h-118zM566 300c0 20.4792 -0.475597 58.4756 -4 62h-124l-1 -1c0 -1 0 -7 -1 -15c-2 -20 -2 -72 0 -92c1 -8 1 -14 1 -15l1 -1h124
c3.53028 3.53028 4 41.5291 4 62zM812 300c0 26.837 -0.524895 45.5747 -6 62h-118v-2c3 -21 3 -99 0 -120v-2h118c5.46601 16.398 6 35.2069 6 62zM252 110c30.5536 -38.7795 66.3045 -68.1522 110 -90c0 0 -1 4 -3 8c-7 18 -20 58 -24 76c-1 2 -2 5 -2 6l-1 2h-82z
M465 102c8.6757 -27.1116 20.53 -59.6775 35 -85l5 10c12 26 22 49 30 75l3 10h-76zM667 110c0 -1 -1 -4 -2 -6c-4.83294 -21.7482 -19.2646 -63.3723 -27 -84c44.2787 22.1395 78.165 49.9114 110 90l2 2h-82l-1 -2z" />
  </g>

</svg>
