<?xml version="1.0" standalone="no"?>
<!DOCTYPE svg PUBLIC "-//W3C//DTD SVG 1.1//EN" "http://www.w3.org/Graphics/SVG/1.1/DTD/svg11.dtd" >
<svg xmlns="http://www.w3.org/2000/svg" xmlns:xlink="http://www.w3.org/1999/xlink" version="1.1" viewBox="-10 0 1010 1000">
  <g transform="matrix(1 0 0 -1 0 800)">
   <path fill="currentColor"
d="M254 588c21.864 107.498 136.483 175.793 278 164c112.088 -13.4505 195.434 -72.497 214 -164c4 -18 4 -1 4 -285c0 -253 0 -261 -1 -266c-5.43619 -25.0065 -25.102 -44.517 -52 -49h-67l-67 -1l-1 -36c0 -34 0 -36 -1 -41c-15.4465 -61.786 -105.571 -61.61 -122 0
c-1 5 -1 7 -1 41l-1 37h-64c-55 0 -66 -1 -71 0c-24.6383 3.79051 -45.108 25.432 -51 49c-1 5 -1 13 -1 266c0 284 0 267 4 285zM526 627c-54.7253 7.81789 -108.812 -9.81245 -133 -34c-9 -8 -13 -16 -16 -27c-1 -5 -2 -7 -2 -54v-48l240 120
c-16.2764 21.7018 -47.6242 37.5558 -89 43zM500 386l-125 -62v-48c82.9891 42.0109 166.314 83.6858 250 125v48s-56 -29 -125 -63zM500 199l-125 -63v-24h250v149s-56 -28 -125 -62z" />
  </g>

</svg>
