<?xml version="1.0" standalone="no"?>
<!DOCTYPE svg PUBLIC "-//W3C//DTD SVG 1.1//EN" "http://www.w3.org/Graphics/SVG/1.1/DTD/svg11.dtd" >
<svg xmlns="http://www.w3.org/2000/svg" xmlns:xlink="http://www.w3.org/1999/xlink" version="1.1" viewBox="-10 0 1010 1000">
  <g transform="matrix(1 0 0 -1 0 800)">
   <path fill="currentColor"
d="M114 737c4 1 62 0 388 0h383c26.9752 -4.49587 45.5523 -23.9407 51 -49c1 -5 1 -16 1 -388s0 -383 -1 -388c-5.44627 -25.0528 -24.0371 -44.5062 -51 -49h-383c-339 0 -382 -1 -387 0c-25.6715 3.94946 -44.8583 24.4332 -51 49c-1 5 -1 16 -1 388s0 383 1 388
c6 25 25 44 50 49zM188 612v-312h134c13.434 -4.478 27.2333 -8.98087 36 -19c2 -2 20 -27 41 -55l39 -51h124l40 52c40 53 42 57 50 62c4 3 11 6 16 8c9 3 10 3 80 3h64v312h-624zM188 81v-93h624v187h-93l-39 -51c-21 -28 -39 -53 -41 -55
c-8.91561 -10.1893 -21.7668 -14.9334 -36 -19h-100c-109 0 -106 0 -116 3c-5 2 -12 5 -16 8c-8 5 -10 9 -50 62l-40 52h-93v-94z" />
  </g>

</svg>
