<?xml version="1.0" standalone="no"?>
<!DOCTYPE svg PUBLIC "-//W3C//DTD SVG 1.1//EN" "http://www.w3.org/Graphics/SVG/1.1/DTD/svg11.dtd" >
<svg xmlns="http://www.w3.org/2000/svg" xmlns:xlink="http://www.w3.org/1999/xlink" version="1.1" viewBox="-10 0 1010 1000">
  <g transform="matrix(1 0 0 -1 0 800)">
   <path fill="currentColor"
d="M114 737c4 1 62 0 388 0h383c27 -4 46 -24 51 -49c1 -5 1 -16 1 -388s0 -383 -1 -388c-5 -25 -24 -45 -51 -49h-383c-339 0 -382 -1 -387 0c-26 4 -45 24 -51 49c-1 5 -1 16 -1 388s0 383 1 388c6 25 25 44 50 49zM188 612v-312h134c13 -4 27 -9 36 -19
c2 -2 20 -27 41 -55l39 -51h124l40 52c40 53 42 57 50 62c4 3 11 6 16 8c9 3 10 3 80 3h64v312h-624zM188 175v-187h624v187h-93l-39 -51c-21 -28 -39 -53 -41 -55c-9 -10 -22 -15 -36 -19h-100c-109 0 -106 0 -116 3c-5 2 -12 5 -16 8c-8 5 -10 9 -50 62l-40 52h-93z" />
  </g>

</svg>
