<?xml version="1.0" standalone="no"?>
<!DOCTYPE svg PUBLIC "-//W3C//DTD SVG 1.1//EN" "http://www.w3.org/Graphics/SVG/1.1/DTD/svg11.dtd" >
<svg xmlns="http://www.w3.org/2000/svg" xmlns:xlink="http://www.w3.org/1999/xlink" version="1.1" viewBox="-10 0 1010 1000">
  <g transform="matrix(1 0 0 -1 0 800)">
   <path fill="currentColor"
d="M269 518c80 0 126 -19 187 -74c10 -9 34 -33 43 -44l8 9c10 11 32 32 42 41c53 45 104 67 163 69c72 3 145 -30 181 -78c25 -32 38 -68 43 -114c9 -82 -17 -141 -56 -182c-23 -23 -48 -40 -81 -51c-38 -13 -83 -16 -122 -9c-47 9 -90 32 -134 72c-10 9 -34 33 -43 44
c-14 -18 -42 -42 -58 -56c-41 -34 -83 -55 -127 -61c-34 -5 -64 -3 -95 8c-63 22 -116 71 -141 129c-12 28 -19 61 -15 103c13 107 98 185 205 194zM299 392c-48 8 -86 -20 -102 -52c-30 -56 11 -106 52 -125c18 -9 33 -10 51 -7c33 6 69 33 113 84c4 4 7 8 7 8
c0 1 -11 15 -23 27c-36 39 -69 60 -98 65zM740 392c-23.6124 3.3732 -45.7462 0.101511 -61 -6c-24 -9 -52 -31 -80 -62c-8 -9 -20 -22 -20 -23s14 -16 25 -28c10 -10 23 -24 32 -31c24 -20 44 -30 65 -34c49 -6 87 11 101 40c12 23 14 65 5 93s-32 45 -67 51z" />
  </g>

</svg>
