<?xml version="1.0" standalone="no"?>
<!DOCTYPE svg PUBLIC "-//W3C//DTD SVG 1.1//EN" "http://www.w3.org/Graphics/SVG/1.1/DTD/svg11.dtd" >
<svg xmlns="http://www.w3.org/2000/svg" xmlns:xlink="http://www.w3.org/1999/xlink" version="1.1" viewBox="-10 0 1010 1000">
  <g transform="matrix(1 0 0 -1 0 800)">
   <path fill="currentColor"
d="M269 518c79.9105 0 126.051 -18.9115 187 -74c10.2217 -8.94403 34.0432 -32.804 43 -44l8 9c10 11 32 32 42 41c53 45 104 67 163 69c72.0726 2.62082 144.863 -29.817 181 -78c25 -32 38 -68 43 -114c9.14102 -82.2692 -17.431 -140.676 -56 -182
c-23 -23 -48 -40 -81 -51c-38 -13 -83 -16 -122 -9c-47 9 -90 32 -134 72c-10.2096 8.93344 -34.4976 33.3721 -43 44c-14.064 -17.58 -42.2236 -42.4774 -58 -56c-41 -34 -83 -55 -127 -61c-34 -5 -64 -3 -95 8c-63 22 -116 71 -141 129
c-11.533 28.0087 -19.2214 60.7859 -15 103c12.6812 106.522 98.1979 184.506 205 194zM299 392c-47.7805 7.96342 -86.4955 -19.7984 -102 -52c-29.7011 -56.4321 10.5208 -105.742 52 -125c18 -9 33 -10 51 -7c33 6 69 33 113 84c4 4 7 8 7 8c0 1 -11 15 -23 27
c-36 39 -69 60 -98 65zM708 393c-14 -2 -19 -3 -29 -7c-24 -9 -52 -31 -80 -62c-8 -9 -20 -22 -20 -23s14 -16 25 -28c10 -10 23 -24 32 -31c24 -20 44 -30 65 -34c48.727 -6.09088 86.6242 11.2485 101 40c12 23 14 65 5 93s-32 45 -67 51c-7 1 -27 2 -32 1z" />
  </g>

</svg>
