<?xml version="1.0" standalone="no"?>
<!DOCTYPE svg PUBLIC "-//W3C//DTD SVG 1.1//EN" "http://www.w3.org/Graphics/SVG/1.1/DTD/svg11.dtd" >
<svg xmlns="http://www.w3.org/2000/svg" xmlns:xlink="http://www.w3.org/1999/xlink" version="1.1" viewBox="-10 0 1010 1000">
  <g transform="matrix(1 0 0 -1 0 800)">
   <path fill="currentColor"
d="M114 737c4 1 62 0 388 0h383c26.9752 -4.49587 45.5523 -23.9407 51 -49c1 -5 1 -16 1 -388s0 -383 -1 -388c-5.44627 -25.0528 -24.0371 -44.5062 -51 -49h-383c-339 0 -382 -1 -387 0c-25.6715 3.94946 -44.8583 24.4332 -51 49c-1 5 -1 16 -1 388s0 383 1 388
c6 25 25 44 50 49zM188 612v-624h624v624h-624zM493 529c30.3162 5.05269 56.4638 -16.2367 65 -39c15.4077 -38.5191 -9.2776 -85 -57 -85c-38.4998 0 -60.623 25.9106 -63 58c-2 33 22 62 55 66zM427 362c-27.2973 -4.81717 -52 -28.688 -52 -62
c0 -31.2212 20.3021 -49.9209 43 -59c4 -1 13 -3 17 -3h2l1 -68c0 -67 0 -67 1 -72c6.0896 -24.3584 25.4417 -43.068 51 -47c5 -1 11 -1 44 -1h38c27.7626 9.2542 53 25.5248 53 62c0 37.3649 -24.4577 58.2082 -58 63h-4l-1 67c0 67 0 68 -1 73
c-7.05053 27.027 -26.0708 38.6903 -51 47h-39c-32 0 -40 1 -44 0z" />
  </g>

</svg>
