<?xml version="1.0" standalone="no"?>
<!DOCTYPE svg PUBLIC "-//W3C//DTD SVG 1.1//EN" "http://www.w3.org/Graphics/SVG/1.1/DTD/svg11.dtd" >
<svg xmlns="http://www.w3.org/2000/svg" xmlns:xlink="http://www.w3.org/1999/xlink" version="1.1" viewBox="-10 0 1010 1000">
  <g transform="matrix(1 0 0 -1 0 800)">
   <path fill="currentColor"
d="M476 737c102 6 204 -25 285 -86c48 -36 89 -81 119 -133c66 -114 75 -255 27 -378c-33.1228 -83.9112 -89.8359 -153.592 -160 -201c-86 -58 -188 -84 -291 -74c-89 9 -174 45 -242 104c-102.104 83.5396 -162.888 233.809 -149 375c9 92 47 179 109 248
c72.3508 80.3898 185.342 138.987 302 145zM483 612c-79 -5 -150 -36 -205 -92c-83 -83 -111 -207 -74 -319c24 -72 74 -134 140 -172s143 -50 218 -35c101.357 20.0356 190.883 92.8954 229 192c41 104 23 222 -47 309c-60 75 -151 118 -246 117h-15zM493 529
c30.3162 5.05269 56.4638 -16.2367 65 -39c15.4077 -38.5191 -9.2776 -85 -57 -85c-38.4998 0 -60.623 25.9106 -63 58c-2 33 22 62 55 66zM427 362c-27.2973 -4.81717 -52 -28.688 -52 -62c0 -31.2212 20.3021 -49.9209 43 -59c4 -1 13 -3 17 -3h2l1 -68c0 -67 0 -67 1 -72
c6.0896 -24.3584 25.4417 -43.068 51 -47c5 -1 11 -1 44 -1h38c27.7626 9.2542 53 25.5248 53 62c0 37.3649 -24.4577 58.2082 -58 63h-4l-1 67c0 67 0 68 -1 73c-7.05053 27.027 -26.0708 38.6903 -51 47h-39c-32 0 -40 1 -44 0z" />
  </g>

</svg>
