<?xml version="1.0" standalone="no"?>
<!DOCTYPE svg PUBLIC "-//W3C//DTD SVG 1.1//EN" "http://www.w3.org/Graphics/SVG/1.1/DTD/svg11.dtd" >
<svg xmlns="http://www.w3.org/2000/svg" xmlns:xlink="http://www.w3.org/1999/xlink" version="1.1" viewBox="-10 0 1010 1000">
  <g transform="matrix(1 0 0 -1 0 800)">
   <path fill="currentColor"
d="M438 612c0 65.4546 80.5641 82.7656 114 35c23 -35 7 -81 -33 -94c-38.0678 -11.2793 -81 13.9338 -81 59zM364 487c-24.6628 -4.35226 -43.1443 -24.0051 -50 -48c-9.85757 -39.4303 19.4245 -71.1422 51 -76c4 -1 12 -1 39 -1h33l1 -192v-192
c5.47493 -27.3746 24.3278 -47.7427 52 -52c5 -1 15 -1 75 -1h70c25.9421 8.64736 43.8666 20.6553 51 48c9.97194 39.8877 -17.7005 67.8784 -45 75l-6 2h-72l-1 192v193c-5.5761 27.8805 -24.1185 47.3531 -52 52h-71c-58 0 -71 1 -75 0z" />
  </g>

</svg>
