<?xml version="1.0" standalone="no"?>
<!DOCTYPE svg PUBLIC "-//W3C//DTD SVG 1.1//EN" "http://www.w3.org/Graphics/SVG/1.1/DTD/svg11.dtd" >
<svg xmlns="http://www.w3.org/2000/svg" xmlns:xlink="http://www.w3.org/1999/xlink" version="1.1" viewBox="-10 0 1010 1000">
  <g transform="matrix(1 0 0 -1 0 800)">
   <path fill="currentColor"
d="M114 737c4 1 62 0 388 0h383c27 -4 46 -24 51 -49c1 -5 1 -16 1 -388s0 -383 -1 -388c-5 -25 -24 -45 -51 -49h-383c-339 0 -382 -1 -387 0c-26 4 -45 24 -51 49c-1 5 -1 16 -1 388s0 383 1 388c6 25 25 44 50 49zM188 612v-624h624v624h-624zM493 529
c30 5 56 -16 65 -39c15 -39 -9 -85 -57 -85c-38 0 -61 26 -63 58c-2 33 22 62 55 66zM427 362c4 1 12 0 44 0h39c25 -8 44 -20 51 -47c1 -5 1 -6 1 -73l1 -67h4c34 -5 58 -26 58 -63c0 -36 -25 -53 -53 -62h-38c-33 0 -39 0 -44 1c-26 4 -45 23 -51 47c-1 5 -1 5 -1 72
l-1 68h-2c-4 0 -13 2 -17 3c-23 9 -43 28 -43 59c0 33 25 57 52 62z" />
  </g>

</svg>
