<?xml version="1.0" standalone="no"?>
<!DOCTYPE svg PUBLIC "-//W3C//DTD SVG 1.1//EN" "http://www.w3.org/Graphics/SVG/1.1/DTD/svg11.dtd" >
<svg xmlns="http://www.w3.org/2000/svg" xmlns:xlink="http://www.w3.org/1999/xlink" version="1.1" viewBox="-10 0 1010 1000">
  <g transform="matrix(1 0 0 -1 0 800)">
   <path fill="currentColor"
d="M476 737c102 6 204 -25 285 -86c48 -36 89 -81 119 -133c66 -114 75 -255 27 -378c-33 -84 -90 -154 -160 -201c-86 -58 -188 -84 -291 -74c-89 9 -174 45 -242 104c-102 84 -163 234 -149 375c20.549 210.056 195.029 381.925 411 393zM483 612
c-79 -5 -150 -36 -205 -92c-83 -83 -111 -207 -74 -319c24 -72 74 -134 140 -172s143 -50 218 -35c101 20 191 93 229 192c41 104 23 222 -47 309c-60 75 -151 118 -246 117h-15zM493 529c30 5 56 -16 65 -39c15 -39 -9 -85 -57 -85c-38 0 -61 26 -63 58c-2 33 22 62 55 66z
M427 362c4 1 12 0 44 0h39c25 -8 44 -20 51 -47c1 -5 1 -6 1 -73l1 -67h4c34 -5 58 -26 58 -63c0 -36 -25 -53 -53 -62h-38c-33 0 -39 0 -44 1c-26 4 -45 23 -51 47c-1 5 -1 5 -1 72l-1 68h-2c-4 0 -13 2 -17 3c-23 9 -43 28 -43 59c0 33 25 57 52 62z" />
  </g>

</svg>
