<?xml version="1.0" standalone="no"?>
<!DOCTYPE svg PUBLIC "-//W3C//DTD SVG 1.1//EN" "http://www.w3.org/Graphics/SVG/1.1/DTD/svg11.dtd" >
<svg xmlns="http://www.w3.org/2000/svg" xmlns:xlink="http://www.w3.org/1999/xlink" version="1.1" viewBox="-10 0 1010 1000">
  <g transform="matrix(1 0 0 -1 0 800)">
   <path fill="currentColor"
d="M438 612c0 65 81 83 114 35c23 -35 7 -81 -33 -94c-38 -11 -81 14 -81 59zM364 487c4 1 17 0 75 0h71c28 -5 46 -24 52 -52v-193l1 -192h72l6 -2c27 -7 55 -35 45 -75c-7 -27 -25 -39 -51 -48h-70c-60 0 -70 0 -75 1c-28 4 -47 25 -52 52v192l-1 192h-33
c-27 0 -35 0 -39 1c-32 5 -61 37 -51 76c7 24 25 44 50 48z" />
  </g>

</svg>
