<?xml version="1.0" standalone="no"?>
<!DOCTYPE svg PUBLIC "-//W3C//DTD SVG 1.1//EN" "http://www.w3.org/Graphics/SVG/1.1/DTD/svg11.dtd" >
<svg xmlns="http://www.w3.org/2000/svg" xmlns:xlink="http://www.w3.org/1999/xlink" version="1.1" viewBox="-10 0 1010 1000">
  <g transform="matrix(1 0 0 -1 0 800)">
   <path fill="currentColor"
d="M840 727c57 41 131 -37 82 -93c0 -1 -54 -47 -55 -48c-2 -2 58 -54 66 -74c3 -8 4 -14 4 -24c0 -54 -56 -80 -98 -52c-2 1 -17 16 -36 35l-32 32l-35 -30c-20 -17 -36 -30 -38 -32l19 -20c20 -21 24 -24 28 -34c3 -8 5 -15 5 -25c0 -52 -57 -78 -98 -51
c-2 1 -13 12 -26 25l-23 23l-2 -1c-1 -1 -24 -20 -50 -43l-48 -41c33 -33 53 -87 58 -137c1 -11 1 -41 0 -52c-14 -117 -105 -209 -224 -221c-9 -1 -40 -1 -49 0c-119 12 -210 104 -224 221c-2 13 -2 42 0 55c15 122 113 217 242 222c31 1 62 -3 91 -14l220 188
c121 104 221 190 223 191zM299 237c-90 -8 -147 -119 -85 -201c19 -28 59 -48 98 -48c27 0 55 9 77 26c5 4 17 14 21 20c36 45 36 109 1 155c-4 5 -14 17 -20 21c-26 21 -59 30 -92 27z" />
  </g>

</svg>
