<?xml version="1.0" standalone="no"?>
<!DOCTYPE svg PUBLIC "-//W3C//DTD SVG 1.1//EN" "http://www.w3.org/Graphics/SVG/1.1/DTD/svg11.dtd" >
<svg xmlns="http://www.w3.org/2000/svg" xmlns:xlink="http://www.w3.org/1999/xlink" version="1.1" viewBox="-10 0 1010 1000">
  <g transform="matrix(1 0 0 -1 0 800)">
   <path fill="currentColor"
d="M114 612c4 1 62 0 388 0h383c27 -4 46 -24 51 -49c1 -5 1 -13 1 -263s0 -258 -1 -263c-5 -25 -24 -45 -51 -49h-383c-339 0 -382 -1 -387 0c-26 4 -45 24 -51 49c-1 5 -1 13 -1 263s0 258 1 263c6 25 25 44 50 49zM188 488v-376h624v376h-624zM229 203
c-25 42 4 106 59 97c25 -3 45 -19 53 -43c10 -33 -8 -68 -40 -79c-27 -9 -57 2 -72 25zM375 238c0 34 24 56 52 61c8 1 138 1 146 0c30 -5 61 -34 50 -76c-6 -25 -25 -43 -50 -47c-8 -1 -138 -1 -146 0c-28 4 -52 29 -52 62zM667 272c18 28 59 37 90 15c27 -18 33 -67 6 -94
c-21 -21 -55 -24 -80 -7c-28 19 -35 57 -16 86z" />
  </g>

</svg>
