<?xml version="1.0" standalone="no"?>
<!DOCTYPE svg PUBLIC "-//W3C//DTD SVG 1.1//EN" "http://www.w3.org/Graphics/SVG/1.1/DTD/svg11.dtd" >
<svg xmlns="http://www.w3.org/2000/svg" xmlns:xlink="http://www.w3.org/1999/xlink" version="1.1" viewBox="-10 0 1010 1000">
  <g transform="matrix(1 0 0 -1 0 800)">
   <path fill="currentColor"
d="M114 612c4 1 62 0 388 0h383c26.9752 -4.49587 45.5523 -23.9407 51 -49c1 -5 1 -13 1 -263s0 -258 -1 -263c-5.44627 -25.0528 -24.0371 -44.5062 -51 -49h-383c-339 0 -382 -1 -387 0c-25.6715 3.94946 -44.8583 24.4332 -51 49c-1 5 -1 13 -1 263s0 258 1 263
c6 25 25 44 50 49zM188 488v-376h624v376h-624zM229 203c-25.4585 42.4308 4.49253 106.085 59 97c25 -3 45 -19 53 -43c10 -33 -8 -68 -40 -79c-27 -9 -57 2 -72 25zM375 238c0 33.9289 24.169 56.0886 52 61c8 1 138 1 146 0c29.799 -4.76785 60.5026 -33.9896 50 -76
c-6 -25 -25 -43 -50 -47c-8 -1 -138 -1 -146 0c-28.3145 4.35607 -52 28.897 -52 62zM708 299c-17 -3 -32 -13 -41 -27c-19 -29 -12 -67 16 -86c25 -17 59 -14 80 7c26.9352 26.9352 21.2781 75.8146 -6 94c-14 10 -32 15 -49 12z" />
  </g>

</svg>
