<?xml version="1.0" standalone="no"?>
<!DOCTYPE svg PUBLIC "-//W3C//DTD SVG 1.1//EN" "http://www.w3.org/Graphics/SVG/1.1/DTD/svg11.dtd" >
<svg xmlns="http://www.w3.org/2000/svg" xmlns:xlink="http://www.w3.org/1999/xlink" version="1.1" viewBox="-10 0 1010 1000">
  <g transform="matrix(1 0 0 -1 0 800)">
   <path fill="currentColor"
d="M146 557c3.97424 35.7681 48.3986 72.2371 91 49c16.3665 -8.72882 28.9861 -24.9307 33 -45v-94c0 -59 1 -93 1 -93c1 0 11 4 18 8c57 29 99 86 106 149c1 4 1 11 1 14c0 12 2 22 6 31c18 40 71 49 101 18c21.2486 -21.2486 21.865 -49.1288 13 -97
c-9 -52 -33 -102 -67 -144c-16.1937 -19.4325 -39.0192 -42.3461 -55 -53c7.3539 -3.67704 18.923 -13.923 28 -23c47.2814 -44.6546 86.2637 -115.355 96 -190c3 -21 4 -44 1 -53c-6 -22 -23 -38 -45 -44c-39.2081 -9.46402 -78 18.1525 -78 65c0 13 -3 31 -8 46
c-15 51 -53 95 -100 118c-7 3 -16 7 -17 7c0 0 -1 -34 -1 -93v-94c-5.0426 -25.213 -22.2379 -42.5194 -46 -49c-37 -9 -74 15 -78 53c-1 8 -1 507 0 514zM678 416c34.8714 17.4357 75.9535 30.119 114 29c36.8288 0 58.5 -25.6667 62 -56c3 -28 -15 -56 -42 -65
c-6 -2 -12 -2 -23 -3c-50.8612 -2.99183 -87.6622 -36.6489 -98 -78c-3 -12 -3 -7 -3 -108c0 -94 -1 -95 -2 -100c-7 -25 -26 -43 -51 -47c-33.8333 -5.63888 -61.9603 17.3612 -71 49c-1 5 -1 11 -1 180c0 165 0 176 1 180c6 25 25 43 49 48
c29.2035 4.86725 50.5331 -8.23305 62 -24c2 -2 3 -5 3 -5zM824 112c-2 0 -6 -1 -9 -2c-59.0259 -18.551 -54.588 -99.4045 -5 -118c42.6876 -16.0078 74.4029 12.2086 84 41c2 5 1 6 1 16c0 39.505 -29.6897 69.8851 -71 63z" />
  </g>

</svg>
