<?xml version="1.0" standalone="no"?>
<!DOCTYPE svg PUBLIC "-//W3C//DTD SVG 1.1//EN" "http://www.w3.org/Graphics/SVG/1.1/DTD/svg11.dtd" >
<svg xmlns="http://www.w3.org/2000/svg" xmlns:xlink="http://www.w3.org/1999/xlink" version="1.1" viewBox="-10 0 1010 1000">
  <g transform="matrix(1 0 0 -1 0 800)">
   <path fill="currentColor"
d="M146 557c4 36 48 72 91 49c16 -9 29 -25 33 -45v-94c0 -59 1 -93 1 -93c1 0 11 4 18 8c57 29 99 86 106 149c1 4 1 11 1 14c0 12 2 22 6 31c18 40 71 49 101 18c21 -21 22 -49 13 -97c-9 -52 -33 -102 -67 -144c-16 -19 -39 -42 -55 -53c7 -4 19 -14 28 -23
c47 -45 86 -115 96 -190c3 -21 4 -44 1 -53c-6 -22 -23 -38 -45 -44c-39 -9 -78 18 -78 65c0 13 -3 31 -8 46c-15 51 -53 95 -100 118c-7 3 -16 7 -17 7c0 0 -1 -34 -1 -93v-94c-5 -25 -22 -43 -46 -49c-37 -9 -74 15 -78 53c-1 8 -1 507 0 514zM678 416c35 17 76 30 114 29
c37 0 58 -26 62 -56c3 -28 -15 -56 -42 -65c-6 -2 -12 -2 -23 -3c-51 -3 -88 -37 -98 -78c-3 -12 -3 -7 -3 -108c0 -94 -1 -95 -2 -100c-7 -25 -26 -43 -51 -47c-34 -6 -62 17 -71 49c-1 5 -1 11 -1 180c0 165 0 176 1 180c6 25 25 43 49 48c29 5 51 -8 62 -24
c2 -2 3 -5 3 -5zM824 112c41 7 71 -23 71 -63c0 -10 1 -11 -1 -16c-10 -29 -41 -57 -84 -41c-50 19 -54 99 5 118c3 1 7 2 9 2z" />
  </g>

</svg>
