<?xml version="1.0" standalone="no"?>
<!DOCTYPE svg PUBLIC "-//W3C//DTD SVG 1.1//EN" "http://www.w3.org/Graphics/SVG/1.1/DTD/svg11.dtd" >
<svg xmlns="http://www.w3.org/2000/svg" xmlns:xlink="http://www.w3.org/1999/xlink" version="1.1" viewBox="-10 0 1010 1000">
  <g transform="matrix(1 0 0 -1 0 800)">
   <path fill="currentColor"
d="M146 557c3.97424 35.7681 48.3986 72.2371 91 49c16.3665 -8.72882 28.9861 -24.9307 33 -45v-94c0 -59 1 -93 1 -93c1 0 10 4 17 7c47 23 85 67 100 118c5 15 8 33 8 46c0 12 2 22 6 31c18 40 71 49 101 18c19.1486 -19.1486 20.9757 -39.1701 15 -81
c-7 -57 -32 -114 -69 -160c-16.1937 -19.4325 -39.0192 -42.3461 -55 -53c7.3539 -3.67704 18.923 -13.923 28 -23c47.2814 -44.6546 86.2637 -115.355 96 -190c3 -21 4 -44 1 -53c-6 -22 -23 -38 -45 -44c-39.2081 -9.46402 -78 18.1525 -78 65c0 13 -3 31 -8 46
c-15 51 -52 94 -99 118c-7 4 -17 7 -18 7c0 0 -1 -34 -1 -93v-94c-5.0426 -25.213 -22.2379 -42.5194 -46 -49c-37 -9 -74 15 -78 53c-1 8 -1 507 0 514zM563 550c0 41.7983 34.7654 70.8086 78 60c8 -2 15 -5 21 -10c3 -2 15 -13 26 -24l20 -21l23 22c16 16 23 23 26 25
c26 16 59 13 80 -9c18 -18 22 -46 11 -69c-5 -10 -6 -12 -50 -56c-23 -23 -45 -44 -48 -47c-15.7228 -13.9759 -31.8354 -20.5412 -58 -14c-8 2 -15 6 -21 10c-3 2 -25 23 -50 48c-48 48 -49 50 -54 61c-3 8 -4 14 -4 24zM692 362
c-40.4855 -2.69903 -75.1256 -20.6701 -101 -41c-36.1187 -27.089 -62.196 -75.0109 -69 -124c-10.421 -114.631 59.3215 -191.22 160 -208c9 -1 11 -1 61 -1c55 0 58 -1 67 2c40 13 56 60 33 95c-10 14 -26 25 -43 27h-51c-38 0 -47 0 -51 1c-37 6 -60 43 -50 79
c5 19 21 35 40 42c9 3 11 4 61 4c49 0 52 -1 61 2c40 13 56 60 33 95c-10 14 -26 25 -43 27c-6 1 -99 1 -108 0z" />
  </g>

</svg>
