<?xml version="1.0" standalone="no"?>
<!DOCTYPE svg PUBLIC "-//W3C//DTD SVG 1.1//EN" "http://www.w3.org/Graphics/SVG/1.1/DTD/svg11.dtd" >
<svg xmlns="http://www.w3.org/2000/svg" xmlns:xlink="http://www.w3.org/1999/xlink" version="1.1" viewBox="-10 0 1010 1000">
  <g transform="matrix(1 0 0 -1 0 800)">
   <path fill="currentColor"
d="M146 557c4 36 48 72 91 49c16 -9 29 -25 33 -45v-94c0 -59 1 -93 1 -93c1 0 10 4 17 7c47 23 85 67 100 118c5 15 8 33 8 46c0 12 2 22 6 31c18 40 71 49 101 18c19 -19 21 -39 15 -81c-7 -57 -32 -114 -69 -160c-16 -19 -39 -42 -55 -53c7 -4 19 -14 28 -23
c47 -45 86 -115 96 -190c3 -21 4 -44 1 -53c-6 -22 -23 -38 -45 -44c-39 -9 -78 18 -78 65c0 13 -3 31 -8 46c-15 51 -52 94 -99 118c-7 4 -17 7 -18 7c0 0 -1 -34 -1 -93v-94c-5 -25 -22 -43 -46 -49c-37 -9 -74 15 -78 53c-1 8 -1 507 0 514zM563 550c0 42 35 71 78 60
c8 -2 15 -5 21 -10c3 -2 15 -13 26 -24l20 -21l23 22c16 16 23 23 26 25c26 16 59 13 80 -9c18 -18 22 -46 11 -69c-5 -10 -6 -12 -50 -56c-23 -23 -45 -44 -48 -47c-16 -14 -32 -21 -58 -14c-8 2 -15 6 -21 10c-3 2 -25 23 -50 48c-48 48 -49 50 -54 61c-3 8 -4 14 -4 24z
M692 362c9 1 102 1 108 0c17 -2 33 -13 43 -27c23 -35 7 -82 -33 -95c-9 -3 -12 -2 -61 -2c-50 0 -52 -1 -61 -4c-19 -7 -35 -23 -40 -42c-10 -36 13 -73 50 -79c4 -1 13 -1 51 -1h51c17 -2 33 -13 43 -27c23 -35 7 -82 -33 -95c-9 -3 -12 -2 -67 -2c-50 0 -52 0 -61 1
c-101 17 -170 93 -160 208c7 49 33 97 69 124c26 20 61 38 101 41z" />
  </g>

</svg>
