<?xml version="1.0" standalone="no"?>
<!DOCTYPE svg PUBLIC "-//W3C//DTD SVG 1.1//EN" "http://www.w3.org/Graphics/SVG/1.1/DTD/svg11.dtd" >
<svg xmlns="http://www.w3.org/2000/svg" xmlns:xlink="http://www.w3.org/1999/xlink" version="1.1" viewBox="-10 0 1010 1000">
  <g transform="matrix(1 0 0 -1 0 800)">
   <path fill="currentColor"
d="M181 606c44 18 82 -9 89 -45v-94c0 -59 1 -93 1 -93c1 0 11 4 18 8c57 29 99 86 106 149c1 4 1 11 1 14c0 39 23 63 54 67s61 -15 69 -46c1 -5 1 -7 1 -21c0 -9 -1 -20 -1 -24c-1 -11 -4 -31 -7 -42c-18 -69 -60 -140 -118 -179c7 -4 19 -14 28 -23c28 -26 50 -59 67 -94
c20 -39 31 -75 31 -128c0 -27 -4 -36 -17 -49c-21 -24 -65 -23 -88 0c-13 13 -19 28 -19 49c0 13 -3 31 -8 46c-15 51 -53 95 -100 118c-7 3 -16 7 -17 7c0 0 -1 -34 -1 -93v-94c-5 -27 -26 -46 -51 -50c-36 -6 -69 18 -73 54c-1 8 -1 506 0 514c2 22 15 39 35 49zM613 445
c29 5 58 -9 65 -29c35 18 76 30 114 29c75 0 81 -101 20 -121c-6 -2 -12 -2 -23 -3c-51 -3 -88 -37 -98 -78c-3 -12 -3 -7 -3 -108c0 -94 -1 -95 -2 -100c-7 -28 -30 -46 -58 -47c-30 -2 -57 19 -64 49c-1 5 -1 11 -1 180c0 165 0 176 1 180c6 25 25 43 49 48z" />
  </g>

</svg>
