<?xml version="1.0" standalone="no"?>
<!DOCTYPE svg PUBLIC "-//W3C//DTD SVG 1.1//EN" "http://www.w3.org/Graphics/SVG/1.1/DTD/svg11.dtd" >
<svg xmlns="http://www.w3.org/2000/svg" xmlns:xlink="http://www.w3.org/1999/xlink" version="1.1" viewBox="-10 0 1010 1000">
  <g transform="matrix(1 0 0 -1 0 800)">
   <path fill="currentColor"
d="M181 606c17.0723 6.8289 37.1035 10.3072 56 0c16.3665 -8.72882 28.9861 -24.9307 33 -45v-94c0 -59 1 -93 1 -93c1 0 11 4 18 8c57 29 99 86 106 149c1 4 1 11 1 14c0 38.5703 22.9178 63.1147 54 67c31 4 61 -15 69 -46c1 -5 1 -7 1 -21c0 -9 -1 -20 -1 -24
c-1 -11 -4 -31 -7 -42c-17.5296 -68.9499 -60.1696 -140.446 -118 -179c7.3539 -3.67704 18.923 -13.923 28 -23c28 -26 50 -59 67 -94c19.623 -39.246 31 -74.8666 31 -128c0 -27.2854 -3.51314 -35.5131 -17 -49c-21.3982 -23.7758 -64.5669 -23.4331 -88 0
c-13 13 -19 28 -19 49c0 13 -3 31 -8 46c-15 51 -53 95 -100 118c-7 3 -16 7 -17 7c0 0 -1 -34 -1 -93v-94c-5.41987 -27.0993 -25.5559 -45.7593 -51 -50c-36 -6 -69 18 -73 54c-1 8 -1 506 0 514c2 22 15 39 35 49zM613 445c-24 -5 -43 -23 -49 -48c-1 -4 -1 -15 -1 -180
c0 -169 0 -175 1 -180c7 -30 34 -51 64 -49c28 1 51 19 58 47c1 5 2 6 2 100c0 101 0 96 3 108c10.336 41.344 47.1925 75.0113 98 78c11 1 17 1 23 3c27 9 45 37 42 65c-3.49864 30.3216 -25.3142 56 -62 56c-38.2896 1.12617 -78.7831 -11.3916 -114 -29
c-6.62289 19.8673 -36.3884 33.7686 -65 29z" />
  </g>

</svg>
