<?xml version="1.0" standalone="no"?>
<!DOCTYPE svg PUBLIC "-//W3C//DTD SVG 1.1//EN" "http://www.w3.org/Graphics/SVG/1.1/DTD/svg11.dtd" >
<svg xmlns="http://www.w3.org/2000/svg" xmlns:xlink="http://www.w3.org/1999/xlink" version="1.1" viewBox="-10 0 1020 1000">
  <g transform="matrix(1 0 0 -1 0 800)">
   <path fill="currentColor"
d="M1 706c4.778 47.78 38.9985 87.9998 90 94h221c12.6923 -6.34614 24.226 -9.22602 34 -19c9 -9 13 -17 17 -32c1 -5 34 -134 73 -285l70 -275l1 -8c0 -37.9824 -22.9628 -56.1322 -54 -65h-77l-76 -1l-92 -96c-101 -107 -103 -109 -109 -113
c-39.4318 -29.5739 -90.4997 -2.00179 -98 40c-1 5 -1 39 -1 380c0 261 1 376 1 380zM471 799c2 0 101 1 222 1h219c29.4227 -9.80758 54.0247 -19.0412 69 -44c10 -15 16 -32 18 -50c1 -8 1 -488 0 -496c-6 -51 -43 -89 -91 -94h-150c-131 0 -143 0 -147 1
c-23.1073 5.33244 -40.8664 20.5103 -47 43c-3 9 -144 563 -145 568c-5.65251 39.5675 19.0064 65.5011 52 71zM225 628c0 -1.0625 -100 -337.875 -100 -340c0 -1 5 -1 25 -1h25c1.86392 7.4557 5.67191 19.7944 13 43l10 35h104l11 -36
c7.00504 -23.3501 9.99675 -35.9903 12 -42h50v1c0 1 -23 78 -50 171l-50 169l-25 1c-20 0 -25 0 -25 -1zM635 287c38.006 1.08589 72.301 12.129 107 27c11.682 -2.92051 27.0739 -10.4747 40 -14c28 -8 52 -12 81 -13h12v52l-10 1
c-24.5053 1.11388 -47.6789 4.90825 -69 11l11 11c44.2117 44.2117 68 94.2515 68 179v35h-100v53h-50v-53h-100v-52h200v-7c-3 -51 -27 -99 -65 -130c-6 -5 -17 -13 -18 -13c0 0 -4 2 -8 5c-36 23 -57 55 -59 87v5h-50v-3c0 -55.0195 30.7777 -88.7777 62 -120
c-14.5377 -5.01571 -41.399 -7.4512 -62 -9v-52h10zM232 481c-10 -34 -18 -62 -18 -62s16 -1 36 -1c29 0 36 0 36 1s-36 123 -36 123s-8 -27 -18 -61z" />
  </g>

</svg>
