<?xml version="1.0" standalone="no"?>
<!DOCTYPE svg PUBLIC "-//W3C//DTD SVG 1.1//EN" "http://www.w3.org/Graphics/SVG/1.1/DTD/svg11.dtd" >
<svg xmlns="http://www.w3.org/2000/svg" xmlns:xlink="http://www.w3.org/1999/xlink" version="1.1" viewBox="-10 0 1020 1000">
  <g transform="matrix(1 0 0 -1 0 800)">
   <path fill="currentColor"
d="M1 706c5 48 39 88 90 94h221c13 -6 24 -9 34 -19c9 -9 13 -17 17 -32c1 -5 34 -134 73 -285l70 -275l1 -8c0 -38 -23 -56 -54 -65h-77l-76 -1l-92 -96c-101 -107 -103 -109 -109 -113c-39 -30 -90 -2 -98 40c-1 5 -1 39 -1 380c0 261 1 376 1 380zM471 799
c2 0 101 1 222 1h219c29 -10 54 -19 69 -44c10 -15 16 -32 18 -50c1 -8 1 -488 0 -496c-6 -51 -43 -89 -91 -94h-150c-131 0 -143 0 -147 1c-23 5 -41 21 -47 43c-3 9 -144 563 -145 568c-6 40 19 66 52 71zM225 628c0 -1 -100 -338 -100 -340c0 -1 5 -1 25 -1h25
c2 7 6 20 13 43l10 35h104l11 -36c7 -23 10 -36 12 -42h50v1c0 1 -23 78 -50 171l-50 169l-25 1c-20 0 -25 0 -25 -1zM635 287c38 1 72 12 107 27c12 -3 27 -10 40 -14c28 -8 52 -12 81 -13h12v52l-10 1c-25 1 -48 5 -69 11l11 11c44 44 68 94 68 179v35h-100v53h-50v-53
h-100v-52h200v-7c-3 -51 -27 -99 -65 -130c-6 -5 -17 -13 -18 -13c0 0 -4 2 -8 5c-36 23 -57 55 -59 87v5h-50v-3c0 -55 31 -89 62 -120c-15 -5 -41 -7 -62 -9v-52h10zM214 419l36 123s36 -122 36 -123s-7 -1 -36 -1c-20 0 -36 1 -36 1z" />
  </g>

</svg>
