<?xml version="1.0" standalone="no"?>
<!DOCTYPE svg PUBLIC "-//W3C//DTD SVG 1.1//EN" "http://www.w3.org/Graphics/SVG/1.1/DTD/svg11.dtd" >
<svg xmlns="http://www.w3.org/2000/svg" xmlns:xlink="http://www.w3.org/1999/xlink" version="1.1" viewBox="-10 0 1010 1000">
  <g transform="matrix(1 0 0 -1 0 800)">
   <path fill="currentColor"
d="M937 -12c0 -38.4636 -22.997 -53.3323 -52 -63h-383c-339 0 -382 0 -387 1c-30.5151 4.69463 -61.468 34.1279 -51 76c6.0896 24.3584 25.4417 43.068 51 47c4 1 12 1 36 1c28 0 30 0 26 1c-25.1565 3.87023 -45.0099 24.0395 -51 48c-1 5 -1 13 -1 263s0 259 1 264
c6 25 26 43 51 48c4 1 52 1 325 1h320c25.7416 -8.58054 46.0491 -21.6259 52 -49c1 -5 1 -14 1 -264s0 -258 -1 -263c-4 -19 -17 -35 -34 -43c-5 -3 -16 -6 -20 -6h65c28.4533 -9.48443 52 -24.3889 52 -62zM250 362v-187h500v375h-500v-188z" />
  </g>

</svg>
