<?xml version="1.0" standalone="no"?>
<!DOCTYPE svg PUBLIC "-//W3C//DTD SVG 1.1//EN" "http://www.w3.org/Graphics/SVG/1.1/DTD/svg11.dtd" >
<svg xmlns="http://www.w3.org/2000/svg" xmlns:xlink="http://www.w3.org/1999/xlink" version="1.1" viewBox="-10 0 1010 1000">
  <g transform="matrix(1 0 0 -1 0 800)">
   <path fill="currentColor"
d="M937 -12c0 -38 -23 -53 -52 -63h-383c-339 0 -382 0 -387 1c-31 5 -61 34 -51 76c6 24 25 43 51 47c4 1 12 1 36 1c28 0 30 0 26 1c-25 4 -45 24 -51 48c-1 5 -1 13 -1 263s0 259 1 264c6 25 26 43 51 48c4 1 52 1 325 1h320c26 -9 46 -22 52 -49c1 -5 1 -14 1 -264
s0 -258 -1 -263c-4 -19 -17 -35 -34 -43c-5 -3 -16 -6 -20 -6h65c28 -9 52 -24 52 -62zM250 550v-375h500v375h-500z" />
  </g>

</svg>
