<?xml version="1.0" standalone="no"?>
<!DOCTYPE svg PUBLIC "-//W3C//DTD SVG 1.1//EN" "http://www.w3.org/Graphics/SVG/1.1/DTD/svg11.dtd" >
<svg xmlns="http://www.w3.org/2000/svg" xmlns:xlink="http://www.w3.org/1999/xlink" version="1.1" viewBox="-10 0 1010 1000">
  <g transform="matrix(1 0 0 -1 0 800)">
   <path fill="currentColor"
d="M114 737c4 1 62 0 388 0h383c26.9752 -4.49587 45.5523 -23.9407 51 -49c1 -5 1 -16 1 -388s0 -383 -1 -388c-5.44627 -25.0528 -24.0371 -44.5062 -51 -49h-383c-339 0 -382 -1 -387 0c-25.6715 3.94946 -44.8583 24.4332 -51 49c-1 5 -1 16 -1 388s0 383 1 388
c6 25 25 44 50 49zM188 612v-624h250v624h-250zM562 300v-312h250v624h-250v-312z" />
  </g>

</svg>
