<?xml version="1.0" standalone="no"?>
<!DOCTYPE svg PUBLIC "-//W3C//DTD SVG 1.1//EN" "http://www.w3.org/Graphics/SVG/1.1/DTD/svg11.dtd" >
<svg xmlns="http://www.w3.org/2000/svg" xmlns:xlink="http://www.w3.org/1999/xlink" version="1.1" viewBox="-10 0 1010 1000">
  <g transform="matrix(1 0 0 -1 0 800)">
   <path fill="currentColor"
d="M114 737c4 1 26 0 138 0h133c26.9752 -4.49587 45.5523 -23.9407 51 -49c1 -5 1 -16 1 -388s0 -383 -1 -388c-5.44627 -25.0528 -24.0371 -44.5062 -51 -49h-132c-116 0 -133 -1 -138 0c-25.6715 3.94946 -44.8583 24.4332 -51 49c-1 5 -1 16 -1 388s0 383 1 388
c6 25 25 44 50 49zM614 737c4 1 26 0 138 0h133c26.9752 -4.49587 45.5523 -23.9407 51 -49c1 -5 1 -11 1 -200s0 -196 -1 -201c-5.44627 -25.0528 -24.0371 -44.5062 -51 -49h-132c-116 0 -133 -1 -138 0c-25.6715 3.94946 -44.8583 24.4332 -51 49c-1 5 -1 12 -1 201
s0 195 1 200c6 25 25 44 50 49zM188 612v-624h124v624h-124zM688 488v-126h124v250h-124v-124z" />
  </g>

</svg>
