<?xml version="1.0" standalone="no"?>
<!DOCTYPE svg PUBLIC "-//W3C//DTD SVG 1.1//EN" "http://www.w3.org/Graphics/SVG/1.1/DTD/svg11.dtd" >
<svg xmlns="http://www.w3.org/2000/svg" xmlns:xlink="http://www.w3.org/1999/xlink" version="1.1" viewBox="-10 0 1010 1000">
  <g transform="matrix(1 0 0 -1 0 800)">
   <path fill="currentColor"
d="M175 737c8 1 641 1 649 0c59.1717 -5.22104 105.7 -52.1636 113 -113c1 -9 1 -139 0 -148c-6.19691 -59.9035 -50.9798 -105.247 -113 -113c-9 -1 -639 -1 -648 0c-63.1574 8.42098 -107.625 53.8697 -113 113c-1 9 -1 140 0 149
c5.05968 55.6565 52.2793 106.807 112 112zM188 612v-124h624v124h-624zM175 237c8 1 641 1 649 0c59.1717 -5.22104 105.7 -52.1636 113 -113c1 -9 1 -139 0 -148c-6.19691 -59.9035 -50.9798 -105.247 -113 -113c-9 -1 -639 -1 -648 0
c-63.1574 8.42098 -107.625 53.8697 -113 113c-1 9 -1 140 0 149c5.05968 55.6565 52.2793 106.807 112 112zM188 50v-62h624v124h-624v-62z" />
  </g>

</svg>
