<?xml version="1.0" standalone="no"?>
<!DOCTYPE svg PUBLIC "-//W3C//DTD SVG 1.1//EN" "http://www.w3.org/Graphics/SVG/1.1/DTD/svg11.dtd" >
<svg xmlns="http://www.w3.org/2000/svg" xmlns:xlink="http://www.w3.org/1999/xlink" version="1.1" viewBox="-10 0 1010 1000">
  <g transform="matrix(1 0 0 -1 0 800)">
   <path fill="currentColor"
d="M114 737c4 1 26 0 138 0h133c27 -4 46 -24 51 -49c1 -5 1 -16 1 -388s0 -383 -1 -388c-5 -25 -24 -45 -51 -49h-132c-116 0 -133 -1 -138 0c-26 4 -45 24 -51 49c-1 5 -1 16 -1 388s0 383 1 388c6 25 25 44 50 49zM614 737c4 1 26 0 138 0h133c27 -4 46 -24 51 -49
c1 -5 1 -11 1 -200s0 -196 -1 -201c-5 -25 -24 -45 -51 -49h-132c-116 0 -133 -1 -138 0c-26 4 -45 24 -51 49c-1 5 -1 12 -1 201s0 195 1 200c6 25 25 44 50 49zM188 612v-624h124v624h-124zM688 612v-250h124v250h-124z" />
  </g>

</svg>
