<?xml version="1.0" standalone="no"?>
<!DOCTYPE svg PUBLIC "-//W3C//DTD SVG 1.1//EN" "http://www.w3.org/Graphics/SVG/1.1/DTD/svg11.dtd" >
<svg xmlns="http://www.w3.org/2000/svg" xmlns:xlink="http://www.w3.org/1999/xlink" version="1.1" viewBox="-10 0 1010 1000">
  <g transform="matrix(1 0 0 -1 0 800)">
   <path fill="currentColor"
d="M175 737c8 1 641 1 649 0c59 -5 106 -52 113 -113c1 -9 1 -139 0 -148c-6 -60 -51 -105 -113 -113c-9 -1 -639 -1 -648 0c-63 8 -108 54 -113 113c-1 9 -1 140 0 149c5 56 52 107 112 112zM188 612v-124h624v124h-624zM175 237c8 1 641 1 649 0c59 -5 106 -52 113 -113
c1 -9 1 -139 0 -148c-6 -60 -51 -105 -113 -113c-9 -1 -639 -1 -648 0c-63 8 -108 54 -113 113c-1 9 -1 140 0 149c5 56 52 107 112 112zM188 112v-124h624v124h-624z" />
  </g>

</svg>
