<?xml version="1.0" standalone="no"?>
<!DOCTYPE svg PUBLIC "-//W3C//DTD SVG 1.1//EN" "http://www.w3.org/Graphics/SVG/1.1/DTD/svg11.dtd" >
<svg xmlns="http://www.w3.org/2000/svg" xmlns:xlink="http://www.w3.org/1999/xlink" version="1.1" viewBox="-10 0 1010 1000">
  <g transform="matrix(1 0 0 -1 0 800)">
   <path fill="currentColor"
d="M832 737h34c18 0 19 0 25 -2c22 -6 39 -23 45 -46c1 -5 1 -6 1 -25c0 -112 -29 -224 -80 -318c-91 -167 -254 -286 -461 -335c-56 -13 -114 -21 -176 -23c-9 0 -17 -1 -17 -1c-1 -1 -5 -12 -7 -21c-3 -12 -6 -26 -8 -40c-1 -7 -3 -15 -3 -17c-4 -26 -31 -45 -57 -46
c-40 -1 -71 28 -64 77c6.35939 48.3314 22.088 104.654 44 143l-4 11c-13 43 -20 77 -24 117c-1 14 -2 50 -1 64c5 77 31 146 78 207c76 98 206 170 381 214c91 23 194 38 294 41zM796 610c-183 -13 -356 -59 -466 -136c-64 -45 -103 -98 -119 -159c-7 -22 -8 -35 -8 -66
c0 -13 1 -23 1 -23s2 1 4 3c61 65 126 116 205 160c23 13 58 30 67 33c45 16 82 -19 82 -60c0 -35 -19 -48 -44 -60c-92 -42 -175 -105 -236 -178c-3 -3 -5 -6 -5 -6c1 0 26 2 43 5c124 21 233 70 317 144c19 17 45 45 62 66c59 73 98 166 109 264c1 4 1 10 1 11v3h-3
c-2 0 -6 -1 -10 -1z" />
  </g>

</svg>
