<?xml version="1.0" standalone="no"?>
<!DOCTYPE svg PUBLIC "-//W3C//DTD SVG 1.1//EN" "http://www.w3.org/Graphics/SVG/1.1/DTD/svg11.dtd" >
<svg xmlns="http://www.w3.org/2000/svg" xmlns:xlink="http://www.w3.org/1999/xlink" version="1.1" viewBox="-10 0 1010 1000">
  <g transform="matrix(1 0 0 -1 0 800)">
   <path fill="currentColor"
d="M832 737h34c18 0 19 0 25 -2c22 -6 39 -23 45 -46c1 -5 1 -6 1 -25c0 -112 -29 -224 -80 -318c-91 -167 -254 -286 -461 -335c-56 -13 -114 -21 -176 -23c-9 0 -17 -1 -17 -1c-1 -1 -5 -12 -7 -21c-3 -12 -6 -26 -8 -40c-1 -7 -3 -15 -3 -17
c-4.39491 -26.3695 -31.2724 -44.7749 -57 -46c-39.683 -1.32277 -70.9557 28.3102 -64 77c5 38 14 75 29 111c4.8933 12.2332 10.5059 25.2588 15 32l-4 11c-13 43 -20 77 -24 117c-1 14 -2 50 -1 64c5 77 31 146 78 207c76 98 206 170 381 214c91 23 194 38 294 41z
M796 610c-182.544 -13.0389 -356.28 -59.1963 -466 -136c-64 -45 -103 -98 -119 -159c-6.69772 -22.3257 -8 -35.049 -8 -66c0 -13 1 -23 1 -23s2 1 4 3c60.9035 65.4148 125.68 116.121 205 160c23 13 58 30 67 33c44.6909 16.2512 82 -19.1315 82 -60
c0 -34.9903 -19.2685 -47.6343 -44 -60c-92 -42 -175 -105 -236 -178c-3 -3 -5 -6 -5 -6c1 0 26 2 43 5c124 21 233 70 317 144c19 17 45 45 62 66c59 73 98 166 109 264c1 4 1 10 1 11v3h-3c-2 0 -6 -1 -10 -1z" />
  </g>

</svg>
