<?xml version="1.0" standalone="no"?>
<!DOCTYPE svg PUBLIC "-//W3C//DTD SVG 1.1//EN" "http://www.w3.org/Graphics/SVG/1.1/DTD/svg11.dtd" >
<svg xmlns="http://www.w3.org/2000/svg" xmlns:xlink="http://www.w3.org/1999/xlink" version="1.1" viewBox="-10 0 1010 1000">
  <g transform="matrix(1 0 0 -1 0 800)">
   <path fill="currentColor"
d="M739 612c62 8 95 -64 57 -105c-11 -12 -10 -7 -405 -207c406 -204 396 -197 405 -207c9 -12 16 -23 16 -43c0 -37 -28 -61 -59 -62c-8 0 -16 1 -23 3c-5 2 -509 253 -515 257c-12 8 -22 23 -26 38c-8 30 9 55 26 66c10 7 515 260 524 260z" />
  </g>

</svg>
