<?xml version="1.0" standalone="no"?>
<!DOCTYPE svg PUBLIC "-//W3C//DTD SVG 1.1//EN" "http://www.w3.org/Graphics/SVG/1.1/DTD/svg11.dtd" >
<svg xmlns="http://www.w3.org/2000/svg" xmlns:xlink="http://www.w3.org/1999/xlink" version="1.1" viewBox="-10 0 1010 1000">
  <g transform="matrix(1 0 0 -1 0 800)">
   <path fill="currentColor"
d="M812 112c0 -38 -28 -61 -59 -62c-8 0 -16 1 -23 3c-5 2 -509 254 -515 258c-17 11 -34 35 -26 66c4 15 14 29 26 37c6 4 510 256 515 258c2 1 6 2 9 2c62.5882 9.62896 94.4561 -63.1388 57 -104c-10 -11 1 -2 -405 -208c395 -200 394 -195 405 -207c9 -12 16 -22 16 -43
zM239 -13c4 1 44 0 263 0h258c31 -5 61 -35 51 -76c-7 -25 -24 -43 -51 -48h-258c-228 0 -257 -1 -262 0c-32 5 -61 37 -51 76c7 24 25 44 50 48z" />
  </g>

</svg>
