<?xml version="1.0" standalone="no"?>
<!DOCTYPE svg PUBLIC "-//W3C//DTD SVG 1.1//EN" "http://www.w3.org/Graphics/SVG/1.1/DTD/svg11.dtd" >
<svg xmlns="http://www.w3.org/2000/svg" xmlns:xlink="http://www.w3.org/1999/xlink" version="1.1" viewBox="-10 0 1010 1000">
  <g transform="matrix(1 0 0 -1 0 800)">
   <path fill="currentColor"
d="M812 112c0 -37.5269 -27.9001 -60.8893 -59 -62c-8 0 -16 1 -23 3c-5 2 -509 254 -515 258c-16.787 11.1914 -33.7074 35.1706 -26 66c4 15 14 29 26 37c6 4 510 256 515 258c2 1 6 2 9 2c39.1153 5.5879 64.4177 -17.9346 72 -47
c6.16084 -24.6433 -4.29862 -44.7699 -15 -57c-9.50103 -10.6887 0.934824 -1.91001 -405 -208c394.792 -199.665 394.017 -194.644 405 -207c9.47057 -11.8382 16 -22.2814 16 -43zM239 -13c-24.6628 -4.35226 -43.1443 -24.0051 -50 -48
c-9.85757 -39.4303 19.4245 -71.1422 51 -76c5 -1 34 0 262 0h258c27.0471 4.50784 44.4776 22.9976 51 48c10.3258 41.3033 -19.9215 70.8203 -51 76h-258c-219 0 -259 1 -263 0z" />
  </g>

</svg>
