<?xml version="1.0" standalone="no"?>
<!DOCTYPE svg PUBLIC "-//W3C//DTD SVG 1.1//EN" "http://www.w3.org/Graphics/SVG/1.1/DTD/svg11.dtd" >
<svg xmlns="http://www.w3.org/2000/svg" xmlns:xlink="http://www.w3.org/1999/xlink" version="1.1" viewBox="-10 0 1010 1000">
  <g transform="matrix(1 0 0 -1 0 800)">
   <path fill="currentColor"
d="M739 612c-8.89655 0 -513.914 -253.276 -524 -260c-16.5421 -11.028 -33.5189 -35.9245 -26 -66c4 -15 14 -30 26 -38c6 -4 510 -255 515 -257c7 -2 15 -3 23 -3c31.1035 1.11084 59 24.598 59 62c0 20.0335 -6.69586 31.3698 -16 43
c-9.09517 10.2321 0.574673 3.17273 -405 207c394.792 199.665 394.017 194.644 405 207c10.6122 12.1282 21.0347 32.8614 15 57c-7.46271 28.607 -34.0332 53.4238 -72 48z" />
  </g>

</svg>
