<?xml version="1.0" standalone="no"?>
<!DOCTYPE svg PUBLIC "-//W3C//DTD SVG 1.1//EN" "http://www.w3.org/Graphics/SVG/1.1/DTD/svg11.dtd" >
<svg xmlns="http://www.w3.org/2000/svg" xmlns:xlink="http://www.w3.org/1999/xlink" version="1.1" viewBox="-10 0 1010 1000">
  <g transform="matrix(1 0 0 -1 0 800)">
   <path fill="currentColor"
d="M284 654c32 5 59 -18 67 -42c4 -10 3 8 3 -230l1 -218c5 -26 25 -46 52 -51l155 -1c170 0 158 1 168 -3c23 -9 40 -27 40 -59c0 -35 -22 -57 -52 -62h-154c-155 0 -161 0 -175 2c-90 11 -152 87 -159 168v445c5 26 26 48 54 51z" />
  </g>

</svg>
