<?xml version="1.0" standalone="no"?>
<!DOCTYPE svg PUBLIC "-//W3C//DTD SVG 1.1//EN" "http://www.w3.org/Graphics/SVG/1.1/DTD/svg11.dtd" >
<svg xmlns="http://www.w3.org/2000/svg" xmlns:xlink="http://www.w3.org/1999/xlink" version="1.1" viewBox="-10 0 1010 1000">
  <g transform="matrix(1 0 0 -1 0 800)">
   <path fill="currentColor"
d="M188 685c5.33185 27.8189 24.1889 46.6625 52 52h536c88.3586 -3.92705 165.232 -70.0069 161 -161c-2.36412 -85.1083 -67.4806 -128.365 -144 -145c-13 -3 -36 -6 -42 -6h-1v-510l-2 -5c-7 -25 -25 -43 -50 -47c-5 -1 -35 -1 -261 -1c-172 0 -257 1 -261 1
c-59.8377 6.41118 -107.236 54.4366 -113 114v76c0 68 0 69 1 74c7 25 26 43 51 47c4 1 12 1 39 1h33l1 255v255zM312 612v-437h198c25.0298 -8.34327 43.9165 -20.8467 51 -48c1 -5 1 -5 1 -72l1 -67h62v624h-313zM768 612c-10.9402 0 -11.7648 -0.441208 -18 -2v-60l4 1
c26 3 52 13 57 22c12.1536 24.3071 -20.6485 39 -43 39zM375 488c0 33.9289 24.169 56.0886 52 61c4 1 12 1 44 1h39c25.9421 -8.64736 43.8666 -20.6553 51 -48c9.97194 -39.8877 -17.7005 -67.8784 -45 -75l-6 -2h-39c-33 0 -39 0 -44 1
c-28.3145 4.35607 -52 28.897 -52 62zM375 300c0 33.617 24.4606 57.1401 52 62c4 1 12 0 44 0h39c25.9421 -8.64736 43.8666 -20.6553 51 -48c9.82512 -39.3005 -18.0495 -66.9694 -45 -74l-6 -2h-39c-33 0 -39 -1 -44 0c-27.3023 4.20036 -52 30.0714 -52 62zM188 19v-31
h250v62h-250v-31z" />
  </g>

</svg>
