<?xml version="1.0" standalone="no"?>
<!DOCTYPE svg PUBLIC "-//W3C//DTD SVG 1.1//EN" "http://www.w3.org/Graphics/SVG/1.1/DTD/svg11.dtd" >
<svg xmlns="http://www.w3.org/2000/svg" xmlns:xlink="http://www.w3.org/1999/xlink" version="1.1" viewBox="-10 0 1010 1000">
  <g transform="matrix(1 0 0 -1 0 800)">
   <path fill="currentColor"
d="M188 685c5 28 24 47 52 52h536c88 -4 165 -70 161 -161c-2 -85 -67 -128 -144 -145c-13 -3 -36 -6 -42 -6h-1v-510l-2 -5c-7 -25 -25 -43 -50 -47c-5 -1 -35 -1 -261 -1c-172 0 -257 1 -261 1c-60 6 -107 54 -113 114v76c0 68 0 69 1 74c7 25 26 43 51 47c4 1 12 1 39 1
h33l1 255v255zM312 612v-437h198c25 -8 44 -21 51 -48c1 -5 1 -5 1 -72l1 -67h62v624h-313zM768 612c-11 0 -12 0 -18 -2v-60l4 1c26 3 52 13 57 22c12 24 -21 39 -43 39zM375 488c0 34 24 56 52 61c4 1 12 1 44 1h39c26 -9 44 -21 51 -48c10 -40 -18 -68 -45 -75l-6 -2h-39
c-33 0 -39 0 -44 1c-28 4 -52 29 -52 62zM375 300c0 34 24 57 52 62c4 1 12 0 44 0h39c26 -9 44 -21 51 -48c10 -39 -18 -67 -45 -74l-6 -2h-39c-33 0 -39 -1 -44 0c-27 4 -52 30 -52 62zM188 50v-62h250v62h-250z" />
  </g>

</svg>
