<svg width="16" height="16" viewBox="0 0 16 16" fill="none" xmlns="http://www.w3.org/2000/svg">
<path d="M9.39103 9.43702C9.76656 9.07344 10 8.56398 10 8C10 7.45861 9.78489 6.96746 9.43547 6.60736M9.39103 9.43702C9.03108 9.78552 8.54059 10 8 10C7.49278 10 7.02965 9.81118 6.67709 9.5M9.39103 9.43702L12.2523 12.233M6.67709 9.5C6.26188 9.13353 6 8.59735 6 8C6 7.43295 6.23599 6.92102 6.6151 6.55706M6.67709 9.5L3.75409 12.2394M6.6151 6.55706C6.97448 6.21205 7.46248 6 8 6C8.56318 6 9.07199 6.23278 9.43547 6.60736M6.6151 6.55706L3.76166 3.75307M9.43547 6.60736L12.2474 3.76216M12.2523 12.233C13.3324 11.1479 14 9.65193 14 8C14 6.34559 13.3304 4.84757 12.2474 3.76216M12.2523 12.233C11.1658 13.3244 9.66178 14 8 14C6.34148 14 4.84014 13.3271 3.75409 12.2394M3.75409 12.2394C2.67023 11.1538 2 9.65519 2 8C2 6.34096 2.67335 4.83919 3.76166 3.75307M3.76166 3.75307C4.8471 2.6698 6.34533 2 8 2C9.6593 2 11.1613 2.67355 12.2474 3.76216" stroke="#24282B" stroke-width="2" stroke-linecap="round" stroke-linejoin="round"/>
</svg>
