<?xml version="1.0" standalone="no"?>
<!DOCTYPE svg PUBLIC "-//W3C//DTD SVG 1.1//EN" "http://www.w3.org/Graphics/SVG/1.1/DTD/svg11.dtd" >
<svg xmlns="http://www.w3.org/2000/svg" xmlns:xlink="http://www.w3.org/1999/xlink" version="1.1" viewBox="-10 0 1010 1000">
  <g transform="matrix(1 0 0 -1 0 800)">
   <path fill="currentColor"
d="M476 737c116 7 229 -34 316 -112c17 -16 40 -39 54 -57c83 -107 111 -245 78 -376c-23.0578 -92.2312 -79.2308 -174.553 -147 -230c-96 -78 -218 -113 -341 -95c-138.024 20.5171 -255.179 109.564 -316 216c-62 108 -75 238 -35 357
c51.4367 157.168 206.588 287.494 391 297zM421 471c48.1237 20.2552 113.004 22.1144 161 -2l31 30c13.2057 13.2057 60.4603 60.5397 59 62c-1 0 -6 4 -11 7c-43 26 -90 41 -141 44c-9 1 -29 0 -36 0c-47 -3 -86 -13 -125 -33c-11 -6 -30 -17 -30 -18s91 -90 92 -90z
M334 213c-24.9572 43.2045 -29.833 120.93 -2 170l-41 40c-27.0696 27.0696 -41.8951 40.8951 -51 50c-56.2084 -84.3127 -71.9148 -208.855 -18 -315c5 -10 15 -27 18 -31c1 -1 4 2 47 43zM669 218c2.45276 -4.90552 91.995 -90 92 -90c1 0 11 18 18 32
c40.3511 80.7023 45.2895 191.645 0 281c-5 10 -17 30 -18 30l-46 -46c-26 -27 -45 -46 -45 -46c11.1878 -22.3756 17 -47.7251 17 -79c0 -31.0395 -6.66487 -55.5514 -18 -82zM516 360c-42.8721 12.2492 -78 -19.746 -78 -60c0 -32.3798 20.4611 -53.0348 46 -60
c39.3243 -9.83107 67.8291 14.04 76 44c10.2169 40.8677 -15.1626 68.1353 -44 76zM576 129c-17.0926 -9.76722 -48.9072 -16 -76 -16c-30.3305 0 -51.8117 7.27056 -75 15l-96 -90l4 -2c92 -59 211 -64 309 -14c12 6 30 16 30 17s-92 91 -93 91c0 0 -2 0 -3 -1z" />
  </g>

</svg>
