<?xml version="1.0" standalone="no"?>
<!DOCTYPE svg PUBLIC "-//W3C//DTD SVG 1.1//EN" "http://www.w3.org/Graphics/SVG/1.1/DTD/svg11.dtd" >
<svg xmlns="http://www.w3.org/2000/svg" xmlns:xlink="http://www.w3.org/1999/xlink" version="1.1" viewBox="-10 0 1010 1000">
  <g transform="matrix(1 0 0 -1 0 800)">
   <path fill="currentColor"
d="M476 737c116 7 229 -34 316 -112c17 -16 40 -39 54 -57c83 -107 111 -245 78 -376c-23 -92 -79 -175 -147 -230c-96 -78 -218 -113 -341 -95c-138 21 -255 110 -316 216c-62 108 -75 238 -35 357c51 157 207 287 391 297zM421 471c48 20 113 22 161 -2l31 30
c13 13 60 61 59 62c-1 0 -6 4 -11 7c-43 26 -90 41 -141 44c-9 1 -29 0 -36 0c-47 -3 -86 -13 -125 -33c-11 -6 -30 -17 -30 -18s91 -90 92 -90zM334 213c-25 43 -30 121 -2 170l-41 40c-27 27 -42 41 -51 50c-56 -84 -72 -209 -18 -315c5 -10 15 -27 18 -31c1 -1 4 2 47 43
zM669 218c2 -5 92 -90 92 -90c1 0 11 18 18 32c40 81 45 192 0 281c-5 10 -17 30 -18 30l-46 -46c-26 -27 -45 -46 -45 -46c11 -22 17 -48 17 -79s-7 -56 -18 -82zM516 360c-43 12 -78 -20 -78 -60c0 -32 20 -53 46 -60c39 -10 68 14 76 44c10 41 -15 68 -44 76zM576 129
c-17 -10 -49 -16 -76 -16c-30 0 -52 7 -75 15l-96 -90l4 -2c92 -59 211 -64 309 -14c12 6 30 16 30 17s-92 91 -93 91c0 0 -2 0 -3 -1z" />
  </g>

</svg>
