<?xml version="1.0" standalone="no"?>
<!DOCTYPE svg PUBLIC "-//W3C//DTD SVG 1.1//EN" "http://www.w3.org/Graphics/SVG/1.1/DTD/svg11.dtd" >
<svg xmlns="http://www.w3.org/2000/svg" xmlns:xlink="http://www.w3.org/1999/xlink" version="1.1" viewBox="-10 0 1010 1000">
  <g transform="matrix(1 0 0 -1 0 800)">
   <path fill="currentColor"
d="M114 362c4 1 12 0 44 0h39c25.9421 -8.64736 43.8666 -20.6553 51 -48c9.82512 -39.3005 -18.0495 -66.9694 -45 -74l-6 -2h-38c-33 0 -39 -1 -44 0c-37.9737 5.84211 -70.2495 53.6258 -42 96c9 14 24 25 41 28zM407 300c0 33.7148 23.7213 57.1861 51 62c4 1 12 0 44 0
h39c25.9421 -8.64736 43.8666 -20.6553 51 -48c9.82512 -39.3005 -18.0495 -66.9694 -45 -74l-6 -2h-38c-33 0 -39 -1 -44 0c-28.4124 4.37114 -52 28.337 -52 62zM802 362c-27.2973 -4.81717 -52 -28.688 -52 -62c0 -32.3089 24.6359 -57.7901 52 -62c5 -1 11 0 44 0h39
c25.9421 8.64736 43.8666 20.6553 51 48c9.82512 39.3005 -18.0495 66.9694 -45 74l-6 2h-39c-32 0 -40 1 -44 0z" />
  </g>

</svg>
