<?xml version="1.0" standalone="no"?>
<!DOCTYPE svg PUBLIC "-//W3C//DTD SVG 1.1//EN" "http://www.w3.org/Graphics/SVG/1.1/DTD/svg11.dtd" >
<svg xmlns="http://www.w3.org/2000/svg" xmlns:xlink="http://www.w3.org/1999/xlink" version="1.1" viewBox="-10 0 1010 1000">
  <g transform="matrix(1 0 0 -1 0 800)">
   <path fill="currentColor"
d="M81 344c14.5823 14.5823 32.7564 22.8109 60 16c22 -6 39 -23 45 -46c2 -7 2 -22 0 -29c-8.85777 -30.3695 -32.2861 -52.9591 -74 -47c-39.6388 7.20705 -69.8831 68.6722 -31 106zM269 344c14.434 14.434 32.2467 22.6883 59 16c22 -6 39 -23 45 -46c2 -7 2 -22 0 -29
c-8.74046 -29.9673 -31.9458 -52.8649 -73 -47c-11 2 -24 10 -32 18c-24 24 -24 64 1 88zM456 344c14.5823 14.5823 32.7564 22.8109 60 16c22 -6 39 -23 45 -46c2 -7 2 -22 0 -29c-8.85777 -30.3695 -32.2861 -52.9591 -74 -47c-39.6388 7.20705 -69.8831 68.6722 -31 106z
M644 344c14.434 14.434 32.2467 22.6883 59 16c22 -6 39 -23 45 -46c2 -7 2 -22 0 -29c-8.74046 -29.9673 -31.9458 -52.8649 -73 -47c-11 2 -24 10 -32 18c-24 24 -24 64 1 88zM864 362c-13 -2 -24 -9 -33 -18c-38.8376 -37.2841 -8.69322 -98.7831 31 -106
c41.6496 -5.94994 65.1453 16.6412 74 47c2 7 2 22 0 29c-7.46271 28.607 -34.0332 53.4238 -72 48z" />
  </g>

</svg>
