<?xml version="1.0" standalone="no"?>
<!DOCTYPE svg PUBLIC "-//W3C//DTD SVG 1.1//EN" "http://www.w3.org/Graphics/SVG/1.1/DTD/svg11.dtd" >
<svg xmlns="http://www.w3.org/2000/svg" xmlns:xlink="http://www.w3.org/1999/xlink" version="1.1" viewBox="-10 0 1010 1000">
  <g transform="matrix(1 0 0 -1 0 800)">
   <path fill="currentColor"
d="M214 726c15 9 29 15 52 9c8 -2 15 -5 21 -10c3 -2 34 -33 71 -70c71 -71 70 -70 75 -81c3 -8 4 -14 4 -24c0 -53 -57 -79 -98 -51c-2 1 -9 7 -15 13l-12 12v-448l12 12c12 12 15 14 23 18c57 30 115 -37 80 -90c-5 -8 -139 -141 -140 -141c-19 -16 -56 -16 -76 1l-69 69
c-57 57 -66 66 -69 71c-35 52 24 117 79 90c8 -4 12 -7 24 -19l12 -11v448l-12 -11c-15 -15 -24 -23 -48 -25c-35 -1 -76 29 -64 76c2 7 5 14 9 20c4 7 137 140 141 142zM937 550c0 -35 -22 -57 -52 -62h-164c-177 0 -168 0 -178 3c-23 9 -43 28 -43 59c0 34 24 57 52 62
c4 1 30 0 169 0h164c30 -5 52 -27 52 -62zM937 300c0 -35 -22 -57 -52 -62h-164c-177 0 -168 0 -178 3c-23 9 -43 28 -43 59c0 34 24 57 52 62c4 1 30 0 169 0h164c30 -5 52 -27 52 -62zM552 112c4 1 30 0 169 0h164c30 -5 52 -27 52 -62s-22 -57 -52 -62h-164
c-177 0 -168 0 -178 3c-23 9 -43 28 -43 59c0 33 25 57 52 62z" />
  </g>

</svg>
