<?xml version="1.0" standalone="no"?>
<!DOCTYPE svg PUBLIC "-//W3C//DTD SVG 1.1//EN" "http://www.w3.org/Graphics/SVG/1.1/DTD/svg11.dtd" >
<svg xmlns="http://www.w3.org/2000/svg" xmlns:xlink="http://www.w3.org/1999/xlink" version="1.1" viewBox="-10 0 1010 1000">
  <g transform="matrix(1 0 0 -1 0 800)">
   <path fill="currentColor"
d="M214 726c14.7495 9.21845 29.2658 14.6836 52 9c8 -2 15 -5 21 -10c3 -2 34 -33 71 -70c71 -71 70 -70 75 -81c3 -8 4 -14 4 -24c0 -52.9614 -56.5999 -78.6001 -98 -51c-2 1 -9 7 -15 13l-12 12v-448l12 12c12 12 15 14 23 18c56.953 29.8325 115.113 -37.3311 80 -90
c-4.82711 -8.04518 -139.413 -140.609 -140 -141c-18.9354 -15.7795 -56.272 -15.9097 -76 1l-69 69c-57 57 -66 66 -69 71c-34.7313 52.0969 24.4453 117.277 79 90c8 -4 12 -7 24 -19l12 -11v448l-12 -11c-14.7805 -14.7805 -24.458 -23.0382 -48 -25
c-34.7761 -1.1592 -75.8351 28.6594 -64 76c2 7 5 14 9 20c4.14095 6.90159 137.494 140.247 141 142zM937 550c0 -34.6641 -22.2278 -57.038 -52 -62h-164c-177 0 -168 0 -178 3c-22.5972 9.03889 -43 27.6767 -43 59c0 33.8898 24.3532 57.1212 52 62c4 1 30 0 169 0h164
c29.7764 -4.96273 52 -27.3788 52 -62zM937 300c0 -34.6641 -22.2278 -57.038 -52 -62h-164c-177 0 -168 0 -178 3c-22.5972 9.03889 -43 27.6767 -43 59c0 33.8898 24.3532 57.1212 52 62c4 1 30 0 169 0h164c29.7764 -4.96273 52 -27.3788 52 -62zM552 112
c-27.2973 -4.81717 -52 -28.688 -52 -62c0 -31.2212 20.3021 -49.9209 43 -59c10 -3 1 -3 178 -3h164c29.812 4.96866 52 27.3286 52 62c0 34.7769 -22.1989 57.0332 -52 62h-164c-139 0 -165 1 -169 0z" />
  </g>

</svg>
