<?xml version="1.0" standalone="no"?>
<!DOCTYPE svg PUBLIC "-//W3C//DTD SVG 1.1//EN" "http://www.w3.org/Graphics/SVG/1.1/DTD/svg11.dtd" >
<svg xmlns="http://www.w3.org/2000/svg" xmlns:xlink="http://www.w3.org/1999/xlink" version="1.1" viewBox="-10 0 1010 1000">
  <g transform="matrix(1 0 0 -1 0 800)">
   <path fill="currentColor"
d="M114 362c4 1 12 0 44 0h39c26 -9 44 -21 51 -48c10 -39 -18 -67 -45 -74l-6 -2h-38c-33 0 -39 -1 -44 0c-38 6 -70 54 -42 96c9 14 24 25 41 28zM407 300c0 34 24 57 51 62c4 1 12 0 44 0h39c26 -9 44 -21 51 -48c10 -39 -18 -67 -45 -74l-6 -2h-38c-33 0 -39 -1 -44 0
c-28 4 -52 28 -52 62zM802 362c4 1 12 0 44 0h39l6 -2c27 -7 55 -35 45 -74c-7 -27 -25 -39 -51 -48h-39c-33 0 -39 -1 -44 0c-27 4 -52 30 -52 62c0 33 25 57 52 62z" />
  </g>

</svg>
