<?xml version="1.0" standalone="no"?>
<!DOCTYPE svg PUBLIC "-//W3C//DTD SVG 1.1//EN" "http://www.w3.org/Graphics/SVG/1.1/DTD/svg11.dtd" >
<svg xmlns="http://www.w3.org/2000/svg" xmlns:xlink="http://www.w3.org/1999/xlink" version="1.1" viewBox="-10 0 1010 1000">
  <g transform="matrix(1 0 0 -1 0 800)">
   <path fill="currentColor"
d="M218 175c22.4055 0 39.0083 -4.66942 58 -11l360 360c-7.22237 21.6671 -13.4857 46.6285 -10 78c10.1125 73.3155 67.5507 128.254 144 135c49.9762 0 80.1627 -10.5257 111 -36c33.018 -26.6684 56 -66.2033 56 -119c0 -19 -2 -33 -7 -49
c-24.0932 -73.7854 -105.848 -130.384 -206 -97l-360 -360c5.89456 -17.6837 11 -35.7501 11 -57c0 -18 -3 -33 -8 -49c-16 -49 -54 -86 -103 -101c-15 -5 -27 -6 -45 -6c-14 0 -19 1 -31 3c-61.876 12.3752 -114.654 61.908 -124 132c-2 10 -2 32 0 42
c12.1804 73.0824 67.6873 135 154 135zM774 612c-14 -3 -24 -17 -24 -31c0 -17 14 -31 31 -31s31 14 31 31s-14 31 -31 31h-7zM211 49c-14 -3 -23 -16 -23 -30c0 -17 14 -31 31 -31s31 14 31 31s-15 31 -32 31c-2 0 -5 -1 -7 -1z" />
  </g>

</svg>
