<?xml version="1.0" standalone="no"?>
<!DOCTYPE svg PUBLIC "-//W3C//DTD SVG 1.1//EN" "http://www.w3.org/Graphics/SVG/1.1/DTD/svg11.dtd" >
<svg xmlns="http://www.w3.org/2000/svg" xmlns:xlink="http://www.w3.org/1999/xlink" version="1.1" viewBox="-10 0 1010 1000">
  <g transform="matrix(1 0 0 -1 0 800)">
   <path fill="currentColor"
d="M81 344c15 15 33 23 60 16c22 -6 39 -23 45 -46c2 -7 2 -22 0 -29c-9 -30 -32 -53 -74 -47c-40 7 -70 69 -31 106zM269 344c14 14 32 23 59 16c22 -6 39 -23 45 -46c2 -7 2 -22 0 -29c-9 -30 -32 -53 -73 -47c-11 2 -24 10 -32 18c-24 24 -24 64 1 88zM456 344
c15 15 33 23 60 16c22 -6 39 -23 45 -46c2 -7 2 -22 0 -29c-9 -30 -32 -53 -74 -47c-40 7 -70 69 -31 106zM644 344c14 14 32 23 59 16c22 -6 39 -23 45 -46c2 -7 2 -22 0 -29c-9 -30 -32 -53 -73 -47c-11 2 -24 10 -32 18c-24 24 -24 64 1 88zM864 362c38 5 65 -19 72 -48
c2 -7 2 -22 0 -29c-9 -30 -32 -53 -74 -47c-40 7 -70 69 -31 106c9 9 20 16 33 18z" />
  </g>

</svg>
