<?xml version="1.0" standalone="no"?>
<!DOCTYPE svg PUBLIC "-//W3C//DTD SVG 1.1//EN" "http://www.w3.org/Graphics/SVG/1.1/DTD/svg11.dtd" >
<svg xmlns="http://www.w3.org/2000/svg" xmlns:xlink="http://www.w3.org/1999/xlink" version="1.1" viewBox="-10 0 1010 1000">
  <g transform="matrix(1 0 0 -1 0 800)">
   <path fill="currentColor"
d="M630 689c128.85 34.3599 237.979 -46.4043 263 -159c14.0759 -68.6201 -9.13466 -133.55 -42 -174c-7 -9 -190 -192 -199 -199c-32 -25 -64 -39 -104 -45c-11 -2 -43 -2 -54 0c-45 7 -83 25 -115 55c-17.1345 15.7066 -24 24.6277 -24 52
c0 42.0403 42.5495 66.6126 77 58c11 -3 19 -8 28 -16c30.1758 -26.9994 72.1975 -35.6142 108 -11c7 4 182 180 188 188c10.613 15.1614 21.7386 39.0457 15 66c-8.19653 36.8844 -41.1977 68 -83 68c-35.1198 0 -47.3406 -11.3406 -70 -34c-18 -18 -23 -22 -34 -26
c-51.8099 -20.7239 -99.7486 35.2783 -79 83c4 10 7 13 26 32c10 10 21 21 25 24c21 17 49 31 74 38zM463 489c-1 0 -5 -1 -8 -1c-33 -4 -65 -16 -93 -35c-4 -3 -11 -7 -14 -10c-9 -7 -192 -190 -199 -199c-34.5227 -42.6457 -59.761 -113.825 -38 -189
c19.1601 -68.429 73.0128 -123.17 141 -143c49 -15 101 -12 147 9c14 6 29 17 43 27c5 4 15 12 27 24c20 20 22 23 26 33c22.0603 50.7387 -32.2184 104.275 -83 81c-8 -4 -14 -8 -30 -24s-22 -20 -31 -25c-12 -6 -25 -9 -39 -9c-45.9718 0 -75.9547 33.3642 -83 70
c-6.58942 26.3577 4.30594 48.7228 15 64c6 8 181 184 188 188c32.6953 22.8867 88.2885 14.282 108 -12c9.17256 -9.17256 25.7507 -17 44 -17c32.897 0 61 26.5495 61 60c0 25.622 -9.28294 37.2829 -24 52c-31 29 -70 48 -113 55c-7 1 -12 1 -26 1h-19z" />
  </g>

</svg>
