<?xml version="1.0" standalone="no"?>
<!DOCTYPE svg PUBLIC "-//W3C//DTD SVG 1.1//EN" "http://www.w3.org/Graphics/SVG/1.1/DTD/svg11.dtd" >
<svg xmlns="http://www.w3.org/2000/svg" xmlns:xlink="http://www.w3.org/1999/xlink" version="1.1" viewBox="-10 0 1010 1000">
  <g transform="matrix(1 0 0 -1 0 800)">
   <path fill="currentColor"
d="M630 689c129 34 238 -46 263 -159c14 -69 -9 -134 -42 -174c-7 -9 -190 -192 -199 -199c-32 -25 -64 -39 -104 -45c-11 -2 -43 -2 -54 0c-45 7 -83 25 -115 55c-17 16 -24 25 -24 52c0 42 43 67 77 58c11 -3 19 -8 28 -16c30 -27 72 -36 108 -11c7 4 182 180 188 188
c11 15 22 39 15 66c-8 37 -41 68 -83 68c-35 0 -47 -11 -70 -34c-18 -18 -23 -22 -34 -26c-52 -21 -100 35 -79 83c4 10 7 13 26 32c10 10 21 21 25 24c21 17 49 31 74 38zM463 489h19c14 0 19 0 26 -1c43 -7 82 -26 113 -55c15 -15 24 -26 24 -52c0 -33 -28 -60 -61 -60
c-18 0 -35 8 -44 17c-20 26 -75 35 -108 12c-7 -4 -182 -180 -188 -188c-11 -15 -22 -38 -15 -64c7 -37 37 -70 83 -70c34.9842 0 47.069 11.069 70 34c16 16 22 20 30 24c51 23 105 -30 83 -81c-4 -10 -6 -13 -26 -33c-12 -12 -22 -20 -27 -24c-14 -10 -29 -21 -43 -27
c-46 -21 -98 -24 -147 -9c-68 20 -122 75 -141 143c-22 75 3 146 38 189c7 9 190 192 199 199c3 3 10 7 14 10c28 19 60 31 93 35c3 0 7 1 8 1z" />
  </g>

</svg>
