<?xml version="1.0" standalone="no"?>
<!DOCTYPE svg PUBLIC "-//W3C//DTD SVG 1.1//EN" "http://www.w3.org/Graphics/SVG/1.1/DTD/svg11.dtd" >
<svg xmlns="http://www.w3.org/2000/svg" xmlns:xlink="http://www.w3.org/1999/xlink" version="1.1" viewBox="-10 0 1010 1000">
  <g transform="matrix(1 0 0 -1 0 800)">
   <path fill="currentColor"
d="M409 654c37 6 66 -26 70 -56v-72l41 21c47 23 47 23 61 23c7 0 10 1 15 0c26 -5 45 -26 49 -52c4 -27 -10 -50 -26 -61c-2 -1 -35 -17 -72 -36l-68 -34v-14c0 -7 1 -13 1 -13c1 0 82 41 83 41c8 3 12 3 21 3c30 0 52 -22 59 -46c9 -30 -5 -55 -25 -68
c-3 -2 -35 -19 -72 -37l-67 -33v-91c0 -56 1 -91 1 -91c2 0 18 7 26 10c28 11 51 28 72 49c38 38 65 86 68 155c0 37 17 57 46 66c41 10 70 -14 77 -47c1 -7 2 -23 1 -37c-15 -182 -152 -308 -312 -327c-22 -3 -45 -3 -54 -1c-24 5 -43 24 -48 48c-1 5 -2 10 -2 104v99
s-19 -9 -41 -20c-46 -23 -47 -23 -60 -24c-30 -1 -57 18 -64 48c-8 30 9 55 26 66c2 1 35 17 72 36l67 34v27s-19 -10 -42 -21c-48 -24 -46 -23 -62 -23c-26 0 -42 11 -53 28c-18 28 -10 66 17 85c3 2 31 16 72 37l68 34l1 69v70c5 26 26 48 54 51z" />
  </g>

</svg>
