<?xml version="1.0" standalone="no"?>
<!DOCTYPE svg PUBLIC "-//W3C//DTD SVG 1.1//EN" "http://www.w3.org/Graphics/SVG/1.1/DTD/svg11.dtd" >
<svg xmlns="http://www.w3.org/2000/svg" xmlns:xlink="http://www.w3.org/1999/xlink" version="1.1" viewBox="-10 0 1010 1000">
  <g transform="matrix(1 0 0 -1 0 800)">
   <path fill="currentColor"
d="M409 654c-27.6721 -3.07468 -48.718 -24.5901 -54 -51v-70l-1 -69l-68 -34c-41 -21 -69 -35 -72 -37c-27 -19 -35 -57 -17 -85c10.5809 -17.1939 26.7042 -28 53 -28c16 0 14 -1 62 23c23 11 42 21 42 21v-27l-67 -34c-37 -19 -70 -35 -72 -36
c-16.5421 -11.028 -33.5189 -35.9245 -26 -66c7 -30 34 -49 64 -48c13 1 14 1 60 24c22 11 41 20 41 20v-99c0 -94 1 -99 2 -104c5 -24 24 -43 48 -48c9 -2 32 -2 54 1c160.242 19.0117 297.145 145.031 312 327c1 14 0 30 -1 37c-6.78551 32.5705 -36.1896 57.2026 -77 47
c-29.2402 -8.89919 -46 -28.8134 -46 -66c-3.46029 -69.2058 -30.0836 -117.084 -68 -155c-21.2064 -21.2064 -43.72 -37.688 -72 -49c-8 -3 -24 -10 -26 -10c0 0 -1 35 -1 91v91l67 33c37 18 69 35 72 37c20.0073 13.3382 33.687 37.5954 25 68
c-6.64392 24.361 -28.5545 46 -59 46c-9 0 -13 0 -21 -3c-0.993285 -0.331095 -82.4838 -40.7353 -83 -41c0 0 -1 6 -1 13v14l68 34c37 19 70 35 72 36c16.3534 10.9023 29.8934 33.746 26 61c-4 26 -23 47 -49 52c-5 1 -8 0 -15 0c-14 0 -14 0 -61 -23l-41 -21v72
c-4.01782 30.1336 -32.6501 62.225 -70 56z" />
  </g>

</svg>
