<?xml version="1.0" standalone="no"?>
<!DOCTYPE svg PUBLIC "-//W3C//DTD SVG 1.1//EN" "http://www.w3.org/Graphics/SVG/1.1/DTD/svg11.dtd" >
<svg xmlns="http://www.w3.org/2000/svg" xmlns:xlink="http://www.w3.org/1999/xlink" version="1.1" viewBox="-10 0 1010 1000">
  <g transform="matrix(1 0 0 -1 0 800)">
   <path fill="currentColor"
d="M308 758c38.7771 24.2357 86.5146 3.19408 97 -37c4.87142 -19.4857 -1.48046 -37.7207 -9 -49c-4.82711 -8.04518 -139.413 -140.609 -140 -141c-10.3063 -8.58856 -31.9309 -15.7673 -51 -11c-9 2 -18 7 -25 13c-2 2 -19 18 -38 37c-29 29 -35 35 -38 40
c-34.6141 51.9212 24.3098 117.345 79 90c8 -4 13 -7 25 -19l11 -11l43 43c26 26 44 44 46 45zM438 612c0 34.749 22.8704 57.036 51 62c4 1 34 1 200 1h196c25.9421 -8.64736 43.8666 -20.6553 51 -48c9.97194 -39.8877 -17.7005 -67.8784 -45 -75l-6 -2h-195
c-172 0 -195 0 -200 1c-28.8629 4.44044 -52 26.8554 -52 61zM308 445c38.7771 24.2357 86.5146 3.19408 97 -37c4.86762 -19.4705 -1.59631 -36.8945 -9 -48c-4.82711 -8.04518 -139.413 -140.609 -140 -141c-18.7111 -15.5926 -55.3916 -16.6644 -76 1c-2 2 -19 18 -38 37
c-29 29 -35 35 -38 40c-34.9752 52.4628 23.406 117.797 79 90c8 -4 13 -7 25 -19l11 -11l43 43c26 26 44 44 46 45zM438 300c0 33.7148 23.7213 57.1861 51 62c4 1 34 0 200 0h196c27.0471 -4.50784 44.4776 -22.9976 51 -48c10.3258 -41.3033 -19.9215 -70.8203 -51 -76
h-195c-172 0 -195 -1 -200 0c-28.4124 4.37114 -52 28.337 -52 62zM308 164c38.7771 24.2357 86.5146 3.19408 97 -37c4.86762 -19.4705 -1.59631 -36.8945 -9 -48c-8.58357 -14.3059 -137.406 -139.271 -140 -141c-10.6774 -8.89784 -30.7931 -17.0517 -51 -12
c-9 2 -19 8 -26 14c-3 3 -36 41 -60 69c-9.7373 11.3602 -16 20.0686 -16 41c0 33.9576 21.3244 53.7248 48 61c25.7681 7.3623 45.8646 -4.86463 58 -17l10 -10l3 -4l42 41c25 25 42 42 44 43zM489 49c-27.5139 -4.85539 -51 -27.0741 -51 -61
c0 -35.103 22.4259 -57.4501 52 -62c5 -1 28 -1 200 -1h195c25.9421 8.64736 43.8666 20.6553 51 48c9.97194 39.8877 -17.7005 67.8784 -45 75l-6 2h-196c-166 0 -196 0 -200 -1z" />
  </g>

</svg>
