<?xml version="1.0" standalone="no"?>
<!DOCTYPE svg PUBLIC "-//W3C//DTD SVG 1.1//EN" "http://www.w3.org/Graphics/SVG/1.1/DTD/svg11.dtd" >
<svg xmlns="http://www.w3.org/2000/svg" xmlns:xlink="http://www.w3.org/1999/xlink" version="1.1" viewBox="-10 0 1010 1000">
  <g transform="matrix(1 0 0 -1 0 800)">
   <path fill="currentColor"
d="M64 627c8.78665 30.7533 36.3736 56.1566 77 46c26.5105 -7.23013 55.0158 -34.937 45 -75c-15.7148 -62.8591 -105.283 -62.6896 -122 0c-2 8 -2 21 0 29zM302 674c4 1 48 1 294 1h289c25.9421 -8.64736 43.8666 -20.6553 51 -48
c9.97194 -39.8877 -17.7005 -67.8784 -45 -75l-6 -2h-289c-256 0 -289 0 -294 1c-30.0146 4.61763 -60.293 34.8278 -50 76c7.21615 25.2565 24.1182 42.4326 50 47zM547 487h14c77.7922 1.36478 152.827 -40.2333 196 -93c31 -39 49 -82 54 -132
c5.91579 -65.0737 -10.9238 -114.873 -35 -155c4.1953 -2.09765 9.36803 -4.36803 13 -8c2 -2 34 -33 70 -69c70 -71 69 -70 74 -81c3 -8 4 -14 4 -24c0 -52.9614 -56.5999 -78.6001 -98 -51c-9.17178 6.87883 -138.875 135.749 -144 146l-2 4
c-31.6506 -18.0861 -66.6912 -30.6324 -106 -35c-9 -1 -40 -1 -49 0c-118.865 11.8865 -209.64 103.726 -224 221c-2 13 -2 42 0 55c7 59 31 108 72 149c37.3436 37.3436 96.0335 68.9396 161 73zM64 314c9.15055 32.0269 36.4821 56.1295 77 46
c26.1585 -7.13414 54.8648 -34.5409 45 -74c-15.7148 -62.8591 -105.283 -62.6896 -122 0c-2 8 -2 20 0 28zM641 335c-46.1412 37.2679 -113.998 35.8348 -157 0c-6 -4 -16 -16 -20 -21c-8 -11 -16 -24 -20 -37c-17.022 -51.0659 4.72931 -107.608 40 -137
c22 -18 50 -27 78 -27c50.0619 0 95.7184 31.1163 113 70c21 43 15 93 -14 131c-4 5 -14 17 -20 21zM114 49c-29.1368 -5.14179 -60.394 -34.4241 -50 -76c16.6829 -62.561 106.254 -62.9853 122 0c10.0013 40.0054 -18.5201 67.7782 -45 75c-8 2 -20 2 -27 1z" />
  </g>

</svg>
