<?xml version="1.0" standalone="no"?>
<!DOCTYPE svg PUBLIC "-//W3C//DTD SVG 1.1//EN" "http://www.w3.org/Graphics/SVG/1.1/DTD/svg11.dtd" >
<svg xmlns="http://www.w3.org/2000/svg" xmlns:xlink="http://www.w3.org/1999/xlink" version="1.1" viewBox="-10 0 1010 1000">
  <g transform="matrix(1 0 0 -1 0 800)">
   <path fill="currentColor"
d="M64 627c9 31 36 56 77 46c27 -7 55 -35 45 -75c-16 -63 -105 -63 -122 0c-2 8 -2 21 0 29zM302 674c4 1 48 1 294 1h289c26 -9 44 -21 51 -48c10 -40 -18 -68 -45 -75l-6 -2h-289c-256 0 -289 0 -294 1c-30 5 -60 35 -50 76c7 25 24 42 50 47zM547 487h14
c78 1 153 -40 196 -93c31 -39 49 -82 54 -132c6 -65 -11 -115 -35 -155c4 -2 9 -4 13 -8c2 -2 34 -33 70 -69c70 -71 69 -70 74 -81c3 -8 4 -14 4 -24c0 -53 -57 -79 -98 -51c-9 7 -139 136 -144 146l-2 4c-42.8019 -24.076 -89.3299 -42.2967 -155 -35
c-119 12 -210 104 -224 221c-2 13 -2 42 0 55c7 59 31 108 72 149c37 37 96 69 161 73zM64 314c9 32 36 56 77 46c26 -7 55 -35 45 -74c-16 -63 -105 -63 -122 0c-2 8 -2 20 0 28zM641 335c-46 37 -114 36 -157 0c-6 -4 -16 -16 -20 -21c-8 -11 -16 -24 -20 -37
c-17 -51 5 -108 40 -137c22 -18 50 -27 78 -27c50 0 96 31 113 70c21 43 15 93 -14 131c-4 5 -14 17 -20 21zM114 49c7 1 19 1 27 -1c26 -7 55 -35 45 -75c-16 -63 -105 -63 -122 0c-10 42 21 71 50 76z" />
  </g>

</svg>
