<?xml version="1.0" standalone="no"?>
<!DOCTYPE svg PUBLIC "-//W3C//DTD SVG 1.1//EN" "http://www.w3.org/Graphics/SVG/1.1/DTD/svg11.dtd" >
<svg xmlns="http://www.w3.org/2000/svg" xmlns:xlink="http://www.w3.org/1999/xlink" version="1.1" viewBox="-10 0 1010 1000">
  <g transform="matrix(1 0 0 -1 0 800)">
   <path fill="currentColor"
d="M81 657c13 13 34 23 60 16c22 -6 39 -23 45 -46c2 -7 2 -23 0 -30c-9 -30 -33 -52 -74 -46c-11 2 -23 9 -31 17c-24 24 -25 65 0 89zM302 674c4 1 48 1 294 1h289c26 -9 44 -21 51 -48c10 -40 -18 -68 -45 -75l-6 -2h-289c-256 0 -289 0 -294 1c-30 5 -60 35 -50 76
c7 25 24 42 50 47zM81 344c15 15 33 23 60 16c22 -6 39 -23 45 -46c2 -7 2 -22 0 -29c-9 -30 -32 -53 -74 -47c-40 7 -70 69 -31 106zM302 362c4 1 48 0 294 0h289c27 -5 44 -23 51 -48c10 -41 -20 -71 -51 -76h-289c-256 0 -289 -1 -294 0c-36 6 -70 54 -42 96
c9 14 25 25 42 28zM81 32c13 13 34 23 60 16c22 -6 39 -23 45 -46c2 -7 2 -23 0 -30c-9 -30 -33 -52 -74 -46c-12 2 -23 9 -31 17c-24 24 -25 65 0 89zM302 49c4 1 48 1 294 1h289l6 -2c27 -7 55 -35 45 -75c-7 -27 -25 -39 -51 -48h-289c-256 0 -289 0 -294 1
c-32 5 -60 36 -50 76c7 25 24 42 50 47z" />
  </g>

</svg>
