<?xml version="1.0" standalone="no"?>
<!DOCTYPE svg PUBLIC "-//W3C//DTD SVG 1.1//EN" "http://www.w3.org/Graphics/SVG/1.1/DTD/svg11.dtd" >
<svg xmlns="http://www.w3.org/2000/svg" xmlns:xlink="http://www.w3.org/1999/xlink" version="1.1" viewBox="-10 0 1010 1000">
  <g transform="matrix(1 0 0 -1 0 800)">
   <path fill="currentColor"
d="M81 657c13.2988 13.2988 33.5807 22.6048 60 16c22 -6 39 -23 45 -46c2 -7 2 -23 0 -30c-8.7916 -30.1426 -32.6562 -51.9063 -74 -46c-11 2 -23 9 -31 17c-24 24 -25 65 0 89zM302 674c4 1 48 1 294 1h289c25.9421 -8.64736 43.8666 -20.6553 51 -48
c9.97194 -39.8877 -17.7005 -67.8784 -45 -75l-6 -2h-289c-256 0 -289 0 -294 1c-30.0146 4.61763 -60.293 34.8278 -50 76c7.21615 25.2565 24.1182 42.4326 50 47zM81 344c14.5823 14.5823 32.7564 22.8109 60 16c22 -6 39 -23 45 -46c2 -7 2 -22 0 -29
c-8.85777 -30.3695 -32.2861 -52.9591 -74 -47c-39.6388 7.20705 -69.8831 68.6722 -31 106zM302 362c4 1 48 0 294 0h289c27.0471 -4.50784 44.4776 -22.9976 51 -48c10.3258 -41.3033 -19.9215 -70.8203 -51 -76h-289c-256 0 -289 -1 -294 0
c-35.9427 5.52965 -69.9853 54.0221 -42 96c9 14 25 25 42 28zM81 32c13.2988 13.2988 33.5807 22.6048 60 16c22 -6 39 -23 45 -46c2 -7 2 -23 0 -30c-8.7916 -30.1426 -32.6562 -51.9063 -74 -46c-12 2 -23 9 -31 17c-24 24 -25 65 0 89zM302 49
c-25.862 -4.56388 -42.7831 -21.7407 -50 -47c-9.91991 -39.6796 18.1345 -71.0976 50 -76c5 -1 38 -1 294 -1h289c25.9421 8.64736 43.8666 20.6553 51 48c9.97194 39.8877 -17.7005 67.8784 -45 75l-6 2h-289c-246 0 -290 0 -294 -1z" />
  </g>

</svg>
