<?xml version="1.0" standalone="no"?>
<!DOCTYPE svg PUBLIC "-//W3C//DTD SVG 1.1//EN" "http://www.w3.org/Graphics/SVG/1.1/DTD/svg11.dtd" >
<svg xmlns="http://www.w3.org/2000/svg" xmlns:xlink="http://www.w3.org/1999/xlink" version="1.1" viewBox="-10 0 1010 1000">
  <g transform="matrix(1 0 0 -1 0 800)">
   <path fill="currentColor"
d="M308 758c39 24 87 3 97 -37c5 -19 -1 -38 -9 -49c-5 -8 -139 -141 -140 -141c-19.4879 -17.5391 -56.4742 -14.7364 -76 2c-2 2 -19 18 -38 37c-29 29 -35 35 -38 40c-35 52 24 117 79 90c8 -4 13 -7 25 -19l11 -11l43 43c26 26 44 44 46 45zM438 612c0 35 23 57 51 62
c4 1 34 1 200 1h196c26 -9 44 -21 51 -48c10 -40 -18 -68 -45 -75l-6 -2h-195c-172 0 -195 0 -200 1c-29 4 -52 27 -52 61zM308 445c39 24 87 3 97 -37c5 -19 -2 -37 -9 -48c-5 -8 -139 -141 -140 -141c-19 -16 -55 -17 -76 1c-2 2 -19 18 -38 37c-29 29 -35 35 -38 40
c-35 52 23 118 79 90c8 -4 13 -7 25 -19l11 -11l43 43c26 26 44 44 46 45zM438 300c0 34 24 57 51 62c4 1 34 0 200 0h196c27 -5 44 -23 51 -48c10 -41 -20 -71 -51 -76h-195c-172 0 -195 -1 -200 0c-28 4 -52 28 -52 62zM308 164c39 24 87 3 97 -37c5 -19 -2 -37 -9 -48
c-9 -14 -137 -139 -140 -141c-11 -9 -31 -17 -51 -12c-9 2 -19 8 -26 14c-3 3 -36 41 -60 69c-10 11 -16 20 -16 41c0 34 21 54 48 61c26 7 46 -5 58 -17l10 -10l3 -4l42 41c25 25 42 42 44 43zM489 49c4 1 34 1 200 1h196l6 -2c27 -7 55 -35 45 -75c-7 -27 -25 -39 -51 -48
h-195c-172 0 -195 0 -200 1c-30 5 -52 27 -52 62c0 34 23 56 51 61z" />
  </g>

</svg>
