<?xml version="1.0" standalone="no"?>
<!DOCTYPE svg PUBLIC "-//W3C//DTD SVG 1.1//EN" "http://www.w3.org/Graphics/SVG/1.1/DTD/svg11.dtd" >
<svg xmlns="http://www.w3.org/2000/svg" xmlns:xlink="http://www.w3.org/1999/xlink" version="1.1" viewBox="-10 0 1010 1000">
  <g transform="matrix(1 0 0 -1 0 800)">
   <path fill="currentColor"
d="M391 654c5 1 14 -1 20 -2c24 -6 47 -27 47 -58c0 -16 -4 -33 -22 -166c104 46 117 51 130 57c45 12 79 -19 79 -60c0 -26 -11 -41 -27 -52c-5 -4 -202 -91 -203 -91c-2 0 -27 -194 -27 -194c1 -9 9 -12 16 -17h178l179 -1c27 -5 43 -23 50 -48c2 -6 2 -22 0 -28
c-7 -24 -25 -42 -49 -47c-5 -1 -12 -1 -184 -1s-180 0 -188 1c-70 11 -132 71 -127 153c0 1 16 118 16 121c-10 -4 -57 -24 -57 -24c-6 -2 -19 -1 -25 0c-24 5 -43 22 -49 46c-7 25 3 52 25 67c1 1 128 59 128 59c0 1 34 237 34 238c7 26 29 44 56 47z" />
  </g>

</svg>
