<?xml version="1.0" standalone="no"?>
<!DOCTYPE svg PUBLIC "-//W3C//DTD SVG 1.1//EN" "http://www.w3.org/Graphics/SVG/1.1/DTD/svg11.dtd" >
<svg xmlns="http://www.w3.org/2000/svg" xmlns:xlink="http://www.w3.org/1999/xlink" version="1.1" viewBox="-10 0 1010 1000">
  <g transform="matrix(1 0 0 -1 0 800)">
   <path fill="currentColor"
d="M391 654c-27 -3 -49 -21 -56 -47c-0.443093 -0.886187 -34 -237.441 -34 -238c0 0 -126.524 -58.0161 -128 -59c-22 -15 -32 -42 -25 -67c6 -24 25 -41 49 -46c6 -1 19 -2 25 0c0 0 46.9731 19.7028 57 24c-0.395679 -3.29731 -16 -119.886 -16 -121
c-5.45546 -81.8319 57.1448 -142.085 127 -153c8 -1 16 -1 188 -1s179 0 184 1c24 5 42 23 49 47c2 6 2 22 0 28c-6.5492 24.5595 -23.4756 42.6951 -50 48l-179 1h-178c-7.21765 4.81177 -14.6928 7.84969 -16 17c0 0 24.9556 194 27 194c1.26875 0 197.505 86.8788 203 91
c16.1159 10.7439 27 25.7365 27 52c0 41.2816 -34.3875 71.8967 -79 60c-12.664 -6.33201 -26.2309 -10.8804 -130 -57c18.4285 132.685 22 149.545 22 166c0 30.7281 -23.1768 51.5028 -47 58c-6 1 -15 3 -20 2z" />
  </g>

</svg>
