<?xml version="1.0" standalone="no"?>
<!DOCTYPE svg PUBLIC "-//W3C//DTD SVG 1.1//EN" "http://www.w3.org/Graphics/SVG/1.1/DTD/svg11.dtd" >
<svg xmlns="http://www.w3.org/2000/svg" xmlns:xlink="http://www.w3.org/1999/xlink" version="1.1" viewBox="-10 0 1010 1000">
  <g transform="matrix(1 0 0 -1 0 800)">
   <path fill="currentColor"
d="M175 737h74c74 0 73 0 83 -3c26 -9 50 -36 41 -73c-7 -25 -24 -43 -51 -48h-67l-67 -1l-1 -67c0 -67 0 -67 -1 -72c-16 -63 -105 -63 -122 0c-1 5 -1 6 -1 74c0 73 -1 78 2 91c11 53 56 93 110 99zM824 737c60 -6 107 -54 113 -114v-76c0 -68 0 -69 -1 -74
c-16 -63 -105 -63 -122 0c-1 5 -1 5 -1 72l-1 67h-64c-70 0 -71 1 -80 4c-23 9 -43 28 -43 59c0 34 24 57 52 62c4 1 17 0 73 0h74zM483 581c9 1 34 0 43 -1c107 -13 189 -110 201 -216c2 -13 2 -42 0 -54c-4 -29 -11 -51 -24 -76c-5 -12 -151 -220 -156 -225
c-18 -23 -55 -28 -83 -10c-9 6 -8 5 -88 119c-68 97 -76 108 -80 117c-77 155 36 332 187 346zM488 455c-62 -10 -111 -88 -82 -161c2 -3 93 -135 94 -135s92 132 94 135c24 48 -2 108 -30 135c-19 17 -42 31 -76 26zM456 376c13 13 34 23 60 16c22 -6 39 -23 45 -46
c2 -7 2 -23 0 -30c-9 -30 -33 -52 -74 -46c-11 2 -23 9 -31 17c-24 24 -25 65 0 89zM64 127c8 30 36 56 77 46c22 -6 39 -23 45 -46c1 -5 1 -5 1 -72l1 -67l67 -1h67c27 -5 44 -23 51 -48c9.24634 -38.5264 -18.8233 -71.2036 -50 -76c-5 -1 -15 -1 -73 -1
c-42 0 -70 1 -74 1c-54 5 -100 45 -111 99c-3 13 -2 18 -2 91c0 68 0 69 1 74zM864 174c39 6 64 -18 72 -47c1 -5 1 -6 1 -74v-76c-6 -59 -54 -108 -113 -114c-4 0 -32 -1 -74 -1c-58 0 -68 0 -73 1c-24 4 -44 25 -50 48c-10 40 21 72 50 76c5 1 16 1 71 1h64l1 67
c0 67 0 67 1 72c7 25 25 42 50 47z" />
  </g>

</svg>
