<?xml version="1.0" standalone="no"?>
<!DOCTYPE svg PUBLIC "-//W3C//DTD SVG 1.1//EN" "http://www.w3.org/Graphics/SVG/1.1/DTD/svg11.dtd" >
<svg xmlns="http://www.w3.org/2000/svg" xmlns:xlink="http://www.w3.org/1999/xlink" version="1.1" viewBox="-10 0 1010 1000">
  <g transform="matrix(1 0 0 -1 0 800)">
   <path fill="currentColor"
d="M864 737c40.916 5.84514 73 -22.8839 73 -62c0 -11 -1 -14 -6 -28c-21 -55 -114 -280 -256 -616c-56 -134 -56 -135 -60 -140c-20.3062 -31.3824 -68.4586 -38.5414 -97 -10c-9 9 -10 12 -25 51c-42 110 -72 187 -93 236c-7 17 -10 20 -11 21
c-0.0260479 0 -291.951 117.976 -292 118c-20.5296 10.2648 -41.6082 35.5672 -33 70c4.75324 19.013 16.9325 32.9662 33 41c4 2 43 18 151 64c302 128 507 214 586 244c20 8 24 10 30 11zM747 557c-105 -43 -406 -170 -455 -191l-3 -2l88 -35c48 -19 90 -36 92 -37
c13 -7 20 -17 28 -34c9.46419 -20.6491 43.1277 -107.211 68 -166c7.95337 19.8831 21.1407 49.5807 46 108c43.4757 103.255 112.49 269.267 151 363c0 0 -7 -3 -15 -6z" />
  </g>

</svg>
