<?xml version="1.0" standalone="no"?>
<!DOCTYPE svg PUBLIC "-//W3C//DTD SVG 1.1//EN" "http://www.w3.org/Graphics/SVG/1.1/DTD/svg11.dtd" >
<svg xmlns="http://www.w3.org/2000/svg" xmlns:xlink="http://www.w3.org/1999/xlink" version="1.1" viewBox="-10 0 1010 1000">
  <g transform="matrix(1 0 0 -1 0 800)">
   <path fill="currentColor"
d="M864 737c41 6 73 -23 73 -62c0 -11 -1 -14 -6 -28c-21 -55 -114 -280 -256 -616c-56 -134 -56 -135 -60 -140c-20 -31 -68 -39 -97 -10c-9 9 -10 12 -25 51c-42 110 -72 187 -93 236c-7 17 -10 20 -11 21l-292 118c-21 10 -42 36 -33 70c5 19 17 33 33 41
c4 2 43 18 151 64c302 128 507 214 586 244c20 8 24 10 30 11zM747 557c-105 -43 -406 -170 -455 -191l-3 -2l88 -35c48 -19 90 -36 92 -37c13 -7 20 -17 28 -34c9 -21 43 -107 68 -166c8 20 21 50 46 108c43 103 112 269 151 363c0 0 -7 -3 -15 -6z" />
  </g>

</svg>
