<?xml version="1.0" standalone="no"?>
<!DOCTYPE svg PUBLIC "-//W3C//DTD SVG 1.1//EN" "http://www.w3.org/Graphics/SVG/1.1/DTD/svg11.dtd" >
<svg xmlns="http://www.w3.org/2000/svg" xmlns:xlink="http://www.w3.org/1999/xlink" version="1.1" viewBox="-10 0 1010 1000">
  <g transform="matrix(1 0 0 -1 0 800)">
   <path fill="currentColor"
d="M482 737c8 0 30 1 40 0c102.873 -6.33065 177.298 -56.407 193 -148c3 -18 4 -15 4 -93v-73l1 -1c11.5092 0 32.2993 -8.14966 42 -13c56 -25 97 -74 109 -134c4 -18 4 -13 4 -131s0 -113 -4 -131c-12.8592 -61.0812 -48.8657 -103.429 -97 -129c-18 -9 -38 -16 -58 -19
c-15 -2 -21 -2 -222 -2c-219 0 -200 0 -220 4c-77.3407 17.1868 -130.124 74.3258 -145 146c-4 18 -4 13 -4 131c0 116 0 111 3 129c14.1664 73.8676 75.456 137.922 153 149v74c0 80 0 78 4 97c18.3032 88.4653 89.4559 138.34 197 144zM593 562
c-4.956 39.648 -40.941 50 -89 50h-20c-7 -1 -21 -2 -26 -3c-29 -6 -44 -18 -49 -37c-2 -10 -3 -13 -3 -81v-66h188v65c0 40 -1 69 -1 72zM305 300c-26.1516 -3.73594 -46.8707 -22.4829 -53 -47l-2 -6v-207c8.95547 -26.8664 22.9714 -45.9943 53 -52h394
c30.1671 5.02785 44.1447 25.4341 53 52v207c-8.31687 24.9506 -20.9148 43.8858 -47 51l-6 2h-392z" />
  </g>

</svg>
