<?xml version="1.0" standalone="no"?>
<!DOCTYPE svg PUBLIC "-//W3C//DTD SVG 1.1//EN" "http://www.w3.org/Graphics/SVG/1.1/DTD/svg11.dtd" >
<svg xmlns="http://www.w3.org/2000/svg" xmlns:xlink="http://www.w3.org/1999/xlink" version="1.1" viewBox="-10 0 1010 1000">
  <g transform="matrix(1 0 0 -1 0 800)">
   <path fill="currentColor"
d="M482 737c8 0 30 1 40 0c103 -6 177 -56 193 -148c3 -18 4 -15 4 -93v-73l1 -1c12 0 32 -8 42 -13c56 -25 97 -74 109 -134c4 -18 4 -13 4 -131s0 -113 -4 -131c-13 -61 -49 -103 -97 -129c-18 -9 -38 -16 -58 -19c-15 -2 -21 -2 -222 -2c-219 0 -200 0 -220 4
c-77 17 -130 74 -145 146c-4 18 -4 13 -4 131c0 116 0 111 3 129c14 74 75 138 153 149v74c0 80 0 78 4 97c18 88 89 138 197 144zM593 562c-5 40 -41 50 -89 50h-20c-7 -1 -21 -2 -26 -3c-29 -6 -44 -18 -49 -37c-2 -10 -3 -13 -3 -81v-66h188v65c0 40 -1 69 -1 72z
M305 300c-26 -4 -47 -22 -53 -47l-2 -6v-207c9 -27 23 -46 53 -52h394c30 5 44 25 53 52v207c-8 25 -21 44 -47 51l-6 2h-392z" />
  </g>

</svg>
