<?xml version="1.0" standalone="no"?>
<!DOCTYPE svg PUBLIC "-//W3C//DTD SVG 1.1//EN" "http://www.w3.org/Graphics/SVG/1.1/DTD/svg11.dtd" >
<svg xmlns="http://www.w3.org/2000/svg" xmlns:xlink="http://www.w3.org/1999/xlink" version="1.1" viewBox="-10 0 1010 1000">
  <g transform="matrix(1 0 0 -1 0 800)">
   <path fill="currentColor"
d="M482 737c8 0 30 1 40 0c56 -3 99 -18 133 -44c18 -14 26 -27 30 -42c1 -5 2 -7 2 -15c0 -42.2393 -40.6894 -72.5079 -80 -60c-10 3 -16 6 -30 18c-17.5202 14.0162 -66.3252 23.4458 -105 17c-39 -5 -57 -17 -63 -39c-2 -10 -3 -13 -3 -81v-66h149c163 0 152 0 170 -4
c73 -15 131 -73 146 -146c4 -18 4 -13 4 -131s0 -113 -4 -131c-12.8592 -61.0812 -48.8657 -103.429 -97 -129c-18 -9 -38 -16 -58 -19c-15 -2 -21 -2 -222 -2c-219 0 -200 0 -220 4c-77.3407 17.1868 -130.124 74.3258 -145 146c-4 18 -4 13 -4 131c0 116 0 111 3 129
c14.1664 73.8676 75.456 137.922 153 149v74c0 80 0 78 4 97c18.3032 88.4653 89.4559 138.34 197 144zM305 300c-26.1516 -3.73594 -46.8707 -22.4829 -53 -47l-2 -6v-207c8.95547 -26.8664 22.9714 -45.9943 53 -52h394c30.1671 5.02785 44.1447 25.4341 53 52v207
c-8.31687 24.9506 -20.9148 43.8858 -47 51l-6 2h-392z" />
  </g>

</svg>
