<?xml version="1.0" standalone="no"?>
<!DOCTYPE svg PUBLIC "-//W3C//DTD SVG 1.1//EN" "http://www.w3.org/Graphics/SVG/1.1/DTD/svg11.dtd" >
<svg xmlns="http://www.w3.org/2000/svg" xmlns:xlink="http://www.w3.org/1999/xlink" version="1.1" viewBox="-10 0 1010 1000">
  <g transform="matrix(1 0 0 -1 0 800)">
   <path fill="currentColor"
d="M114 737c4 1 44 0 263 0h258c26.9752 -4.49587 45.5523 -23.9407 51 -49c1 -5 1 -9 1 -76s0 -70 -1 -75c-13.5264 -63.1231 -105.337 -64.4868 -122 -2c-1 5 -1 7 -1 41l-1 36h-374v-624h374l1 36c0 34 0 36 1 41c16.6293 62.3598 108.445 61.2589 122 -2
c1 -5 1 -8 1 -75s0 -71 -1 -76c-5.44627 -25.0528 -24.0371 -44.5062 -51 -49h-257c-228 0 -258 -1 -263 0c-25.6715 3.94946 -44.8583 24.4332 -51 49c-1 5 -1 16 -1 388s0 383 1 388c6 25 25 44 50 49zM427 487c-9 -2 -17 -6 -25 -11c-2 -1 -29 -27 -71 -69
c-73 -73 -71 -72 -76 -83c-3 -8 -5 -14 -5 -24c0 -19 6 -31 23 -49c5.99317 -5.99317 110.02 -117.02 116 -123c37.455 -33.7095 103 -6.97146 103 47c0 12 -1 18 -6 27c-4 8 -7 13 -19 25l-10 10l214 1h214c27.0471 4.50784 44.4776 22.9976 51 48
c10.3258 41.3033 -19.9215 70.8203 -51 76h-211l-210 1l11 11c15 15 19 23 23 37c9.85321 39.4129 -18.8736 66.8746 -45 74c-8 2 -19 3 -26 2z" />
  </g>

</svg>
