<?xml version="1.0" standalone="no"?>
<!DOCTYPE svg PUBLIC "-//W3C//DTD SVG 1.1//EN" "http://www.w3.org/Graphics/SVG/1.1/DTD/svg11.dtd" >
<svg xmlns="http://www.w3.org/2000/svg" xmlns:xlink="http://www.w3.org/1999/xlink" version="1.1" viewBox="-10 0 1010 1000">
  <g transform="matrix(1 0 0 -1 0 800)">
   <path fill="currentColor"
d="M114 737c4 1 44 0 263 0h258c27 -4 46 -24 51 -49c1 -5 1 -9 1 -76s0 -70 -1 -75c-14 -63 -105 -64 -122 -2c-1 5 -1 7 -1 41l-1 36h-374v-624h374l1 36c0 34 0 36 1 41c17 62 108 61 122 -2c1 -5 1 -8 1 -75s0 -71 -1 -76c-5 -25 -24 -45 -51 -49h-257
c-228 0 -258 -1 -263 0c-26 4 -45 24 -51 49c-1 5 -1 16 -1 388s0 383 1 388c6 25 25 44 50 49zM402 476c14.6183 9.13642 28.6756 14.5811 51 9c26 -7 55 -35 45 -74c-4 -14 -8 -22 -23 -37l-11 -11l210 -1h211c31 -5 61 -35 51 -76c-7 -25 -24 -43 -51 -48h-214l-214 -1
l10 -10c12 -12 15 -17 19 -25c5 -9 6 -15 6 -27c0 -54 -66 -81 -103 -47c-6 6 -110 117 -116 123c-17 18 -23 30 -23 49c0 10 2 16 5 24c5 11 3 10 76 83c42 42 69 68 71 69z" />
  </g>

</svg>
