<?xml version="1.0" standalone="no"?>
<!DOCTYPE svg PUBLIC "-//W3C//DTD SVG 1.1//EN" "http://www.w3.org/Graphics/SVG/1.1/DTD/svg11.dtd" >
<svg xmlns="http://www.w3.org/2000/svg" xmlns:xlink="http://www.w3.org/1999/xlink" version="1.1" viewBox="-10 0 1010 1000">
  <g transform="matrix(1 0 0 -1 0 800)">
   <path fill="currentColor"
d="M114 737c4 1 44 0 263 0h258c26.9752 -4.49587 45.5523 -23.9407 51 -49c1 -5 1 -9 1 -76s0 -70 -1 -75c-13.5264 -63.1231 -105.337 -64.4868 -122 -2c-1 5 -1 7 -1 41l-1 36h-374v-624h374l1 36c0 34 0 36 1 41c16.6293 62.3598 108.445 61.2589 122 -2
c1 -5 1 -8 1 -75s0 -71 -1 -76c-5.44627 -25.0528 -24.0371 -44.5062 -51 -49h-257c-228 0 -258 -1 -263 0c-25.6715 3.94946 -44.8583 24.4332 -51 49c-1 5 -1 16 -1 388s0 383 1 388c6 25 25 44 50 49zM739 487c-27.2531 -4.80938 -51 -28.3986 -51 -62
c0 -25.6763 7.13604 -33.136 25 -51l11 -12h-208c-184 0 -209 1 -214 0c-29.2486 -4.49979 -60.0465 -35.814 -50 -76c5.86748 -23.4699 25.5328 -44.2358 50 -48c5 -1 30 0 214 0h208l-11 -12c-17.8403 -17.8403 -25 -25.4136 -25 -51c0 -54.3158 59.2577 -77.8196 99 -50
c3 2 34 33 71 70c71 71 70 70 75 81c3 8 4 14 4 24s-1 16 -4 24c-5 11 -4 10 -75 81c-37 37 -68 68 -71 70c-10.1158 8.42987 -30.1729 14.5467 -48 12z" />
  </g>

</svg>
