<?xml version="1.0" standalone="no"?>
<!DOCTYPE svg PUBLIC "-//W3C//DTD SVG 1.1//EN" "http://www.w3.org/Graphics/SVG/1.1/DTD/svg11.dtd" >
<svg xmlns="http://www.w3.org/2000/svg" xmlns:xlink="http://www.w3.org/1999/xlink" version="1.1" viewBox="-10 0 1010 1000">
  <g transform="matrix(1 0 0 -1 0 800)">
   <path fill="currentColor"
d="M114 737c4 1 44 0 263 0h258c27 -4 46 -24 51 -49c1 -5 1 -9 1 -76s0 -70 -1 -75c-14 -63 -105 -64 -122 -2c-1 5 -1 7 -1 41l-1 36h-374v-624h374l1 36c0 34 0 36 1 41c17 62 108 61 122 -2c1 -5 1 -8 1 -75s0 -71 -1 -76c-5 -25 -24 -45 -51 -49h-257
c-228 0 -258 -1 -263 0c-26 4 -45 24 -51 49c-1 5 -1 16 -1 388s0 383 1 388c6 25 25 44 50 49zM688 425c0 51.7466 59.5914 81.5269 99 50c3 -2 34 -33 71 -70c71 -71 70 -70 75 -81c3 -8 4 -14 4 -24s-1 -16 -4 -24c-5 -11 -4 -10 -75 -81c-37 -37 -68 -68 -71 -70
c-40 -28 -99 -4 -99 50c0 26 7 33 25 51l11 12h-208c-184 0 -209 -1 -214 0c-24 4 -44 25 -50 48c-10 40 21 72 50 76c5 1 30 0 214 0h208l-11 12c-18 18 -25 25 -25 51z" />
  </g>

</svg>
