<?xml version="1.0" standalone="no"?>
<!DOCTYPE svg PUBLIC "-//W3C//DTD SVG 1.1//EN" "http://www.w3.org/Graphics/SVG/1.1/DTD/svg11.dtd" >
<svg xmlns="http://www.w3.org/2000/svg" xmlns:xlink="http://www.w3.org/1999/xlink" version="1.1" viewBox="-10 0 1010 1000">
  <g transform="matrix(1 0 0 -1 0 800)">
   <path fill="currentColor"
d="M488 695c21 3 39 -3 50 -12c9 -7 28 -28 41 -46c47 -64 84 -156 100 -252l3 -14c37 23 81 41 126 49c66 12 116 8 128 -43c1 -5 1 -7 1 -23c0 -113 -38 -231 -103 -318c-73 -99 -176 -159 -292 -171c-102 -10 -202 17 -283 77c-110 81 -187 217 -196 396
c-1 20 -1 32 1 39c6 25 26 43 51 47c13 2 50 0 77 -4c45 -8 88 -25 126 -49l2 10c18 112 66 223 130 290c14 15 23 21 38 24zM493 517c-30 -60 -50 -132 -55 -201c-1 -11 -1 -45 0 -47c0 -1 2 -4 4 -6c19 -22 36 -48 52 -76l6 -10c16 31 36 61 57 85c3 3 5 6 5 7
c1 3 1 37 0 47c-4 61 -21 124 -45 179c-5 11 -16 34 -17 34c0 0 -4 -5 -7 -12zM807 291c-46 -14 -78 -33 -128 -82c-53 -51 -89 -116 -107 -197c-3 -14 -3 -16 -2 -16s6 1 12 3c125 39 201 154 225 292zM193 291c0 -2 5 -26 8 -37c27 -111 95 -205 194 -246
c13 -5 34 -13 35 -12c0 0 0 5 -1 10c-14 68 -44 131 -82 176c-7 8 -30 30 -42 41c-37 33 -68 54 -100 65c-10 3 -12 4 -12 3z" />
  </g>

</svg>
