<?xml version="1.0" standalone="no"?>
<!DOCTYPE svg PUBLIC "-//W3C//DTD SVG 1.1//EN" "http://www.w3.org/Graphics/SVG/1.1/DTD/svg11.dtd" >
<svg xmlns="http://www.w3.org/2000/svg" xmlns:xlink="http://www.w3.org/1999/xlink" version="1.1" viewBox="-10 0 1010 1000">
  <g transform="matrix(1 0 0 -1 0 800)">
   <path fill="currentColor"
d="M488 695c20.5241 3.42069 38.9118 -3.12942 50 -12c9 -7 28 -28 41 -46c47 -64 84 -156 100 -252l3 -14c36.9588 23.0993 80.9299 41.4883 126 49c65.9722 12.2171 115.798 7.84136 128 -43c1 -5 1 -7 1 -23c0 -113 -38 -231 -103 -318c-73 -99 -176 -159 -292 -171
c-102 -10 -202 17 -283 77c-110.446 81.3812 -186.581 217.045 -196 396c-1 20 -1 32 1 39c6 25 26 43 51 47c13 2 50 0 77 -4c45.0852 -7.5142 87.9239 -25.2024 126 -49l2 10c17.846 111.943 65.9779 223.31 130 290c14 15 23 21 38 24zM493 517
c-30 -60 -50 -132 -55 -201c-1 -11 -1 -45 0 -47c0 -1 2 -4 4 -6c19 -22 36 -48 52 -76l6 -10c15.5933 31.1865 36.1636 60.8736 57 85c3 3 5 6 5 7c1 3 1 37 0 47c-4 61 -21 124 -45 179c-5 11 -16 34 -17 34c0 0 -4 -5 -7 -12zM807 291
c-46.0679 -13.8204 -78.3144 -33.3945 -128 -82c-53.1428 -50.9285 -89.2204 -116.183 -107 -197c-3 -14 -3 -16 -2 -16s6 1 12 3c124.757 39.2093 200.753 154.046 225 292zM193 291c0 -2 5 -26 8 -37c27.1193 -111.49 95.4704 -205.429 194 -246c13 -5 34 -13 35 -12
c0 0 0 5 -1 10c-14 68 -44 131 -82 176c-7 8 -30 30 -42 41c-37 33 -68 54 -100 65c-10 3 -12 4 -12 3z" />
  </g>

</svg>
