<?xml version="1.0" standalone="no"?>
<!DOCTYPE svg PUBLIC "-//W3C//DTD SVG 1.1//EN" "http://www.w3.org/Graphics/SVG/1.1/DTD/svg11.dtd" >
<svg xmlns="http://www.w3.org/2000/svg" xmlns:xlink="http://www.w3.org/1999/xlink" version="1.1" viewBox="-10 0 1010 1000">
  <g transform="matrix(1 0 0 -1 0 800)">
   <path fill="currentColor"
d="M492 737h10c10 0 18 -2 26 -6c13 -6 0 8 175 -202c87 -105 160 -192 162 -195c6.04359 -9.06538 10 -19.9413 10 -34c0 -14.1345 -3.93388 -24.9008 -10 -34c-2 -3 -75 -90 -162 -195c-175 -210 -162 -196 -175 -202c-9 -5 -16 -6 -27 -6
c-19.4653 0 -29.1381 5.10359 -41 14c-4.59151 4.59151 -315.546 375.319 -326 391c-6 10 -9 19 -9 32s3 22 9 32c10.4539 15.6808 321.408 386.408 326 391c9 8 18 11 32 14zM385 439c-63 -76 -115 -138 -115 -139s229 -277 230 -277s230 276 230 277s-229 277 -230 277
c0 0 -52 -62 -115 -138z" />
  </g>

</svg>
