<?xml version="1.0" standalone="no"?>
<!DOCTYPE svg PUBLIC "-//W3C//DTD SVG 1.1//EN" "http://www.w3.org/Graphics/SVG/1.1/DTD/svg11.dtd" >
<svg xmlns="http://www.w3.org/2000/svg" xmlns:xlink="http://www.w3.org/1999/xlink" version="1.1" viewBox="-10 0 1010 1000">
  <g transform="matrix(1 0 0 -1 0 800)">
   <path fill="currentColor"
d="M492 737h10c10 0 18 -2 26 -6c13 -6 0 8 175 -202c87 -105 160 -192 162 -195c6 -9 10 -20 10 -34s-4 -25 -10 -34c-2 -3 -75 -90 -162 -195c-175 -210 -162 -196 -175 -202c-9 -5 -16 -6 -27 -6c-19 0 -29 5 -41 14c-5 5 -316 375 -326 391c-6 10 -9 19 -9 32s3 22 9 32
c10 16 321 386 326 391c9 8 18 11 32 14zM500 577c-0.24375 0 -230 -276.225 -230 -277c0 -1 229 -277 230 -277s230 276 230 277s-229 277 -230 277z" />
  </g>

</svg>
