<?xml version="1.0" standalone="no"?>
<!DOCTYPE svg PUBLIC "-//W3C//DTD SVG 1.1//EN" "http://www.w3.org/Graphics/SVG/1.1/DTD/svg11.dtd" >
<svg xmlns="http://www.w3.org/2000/svg" xmlns:xlink="http://www.w3.org/1999/xlink" version="1.1" viewBox="-10 0 1010 1000">
  <g transform="matrix(1 0 0 -1 0 800)">
   <path fill="currentColor"
d="M614 718c52 40 140 56 217 30c54 -19 101 -61 106 -124c1 -11 0 -408 -1 -418c-5 -50 -15 -86 -34 -125c-40 -82 -115 -148 -212 -186c-122 -48 -268 -50 -387 -3c-123 48 -215 143 -236 287c-4 28 -4 13 -4 236c0 147 -1 205 0 210c0 4 1 11 2 15c14 69 81 115 171 119
c99 3 184 -39 200 -127c1 -5 1 -22 1 -206c0 -220 1 -202 5 -213c8 -21 30 -34 58 -34s50 14 58 34c4 11 5 -8 5 214v202c0 1 1 4 1 6c5 34 27 64 50 83zM808 620c-26 21 -100 21 -120 -5v-70h124v35c0 39 1 36 -4 40zM312 614c-9 14 -40 21 -66 21c0 0 -4 -1 -8 -1
c-23 -1 -40 -8 -50 -18v-32l-1 -33h125v63zM188 327c0 -101 0 -109 2 -127c9 -72 48 -130 112 -169c63 -38 147 -54 231 -46c63 6 123 26 170 56c58 38 95 91 106 153c3 20 3 16 3 125l1 101h-125l-1 -100c0 -109 0 -104 -4 -123c-11 -53 -43 -95 -90 -120
c-57 -30 -129 -30 -186 0c-47 25 -79 67 -90 120c-4 19 -4 13 -4 126l-1 103h-124v-99z" />
  </g>

</svg>
