<?xml version="1.0" standalone="no"?>
<!DOCTYPE svg PUBLIC "-//W3C//DTD SVG 1.1//EN" "http://www.w3.org/Graphics/SVG/1.1/DTD/svg11.dtd" >
<svg xmlns="http://www.w3.org/2000/svg" xmlns:xlink="http://www.w3.org/1999/xlink" version="1.1" viewBox="-10 0 1010 1000">
  <g transform="matrix(1 0 0 -1 0 800)">
   <path fill="currentColor"
d="M614 718c51.5915 39.9418 139.551 55.8163 217 30c54.2809 -18.6591 101.119 -60.5482 106 -124c1 -11 0 -408 -1 -418c-5 -50 -15 -86 -34 -125c-40 -82 -115 -148 -212 -186c-122 -48 -268 -50 -387 -3c-123.275 48.0292 -214.626 142.727 -236 287c-4 28 -4 13 -4 236
c0 147 -1 205 0 210c0 4 1 11 2 15c14 69 81 115 171 119c98.7679 3.40579 184.084 -39.4617 200 -127c1 -5 1 -22 1 -206c0 -220 1 -202 5 -213c8 -21 30 -34 58 -34s50 14 58 34c4 11 5 -8 5 214v202c0 1 1 4 1 6c4.80756 33.6529 26.6195 63.5162 50 83zM808 620
c-26.1721 20.5638 -100.157 21.4572 -120 -5v-70h124v35c0 39 1 36 -4 40zM312 614c-9.16379 13.7457 -39.9103 21 -66 21c0 0 -4 -1 -8 -1c-23.4351 -1.17175 -40.2093 -8.2093 -50 -18v-32l-1 -33h125v63zM188 327c0 -101 0 -109 2 -127c9 -72 48 -130 112 -169
c63 -38 147 -54 231 -46c63 6 123 26 170 56c58 38 95 91 106 153c3 20 3 16 3 125l1 101h-125l-1 -100c0 -109 0 -104 -4 -123c-11 -53 -43 -95 -90 -120c-57 -30 -129 -30 -186 0c-47 25 -79 67 -90 120c-4 19 -4 13 -4 126l-1 103h-124v-99z" />
  </g>

</svg>
