<?xml version="1.0" standalone="no"?>
<!DOCTYPE svg PUBLIC "-//W3C//DTD SVG 1.1//EN" "http://www.w3.org/Graphics/SVG/1.1/DTD/svg11.dtd" >
<svg xmlns="http://www.w3.org/2000/svg" xmlns:xlink="http://www.w3.org/1999/xlink" version="1.1" viewBox="-10 0 1010 1000">
  <g transform="matrix(1 0 0 -1 0 800)">
   <path fill="currentColor"
d="M347 428c16 65 68 116 141 122c63 0 103 -19 134 -59c15 -18 25 -39 31 -63v-3h169c29 -10 53 -26 53 -64c0 -15 -2 -28 -7 -46c-20 -71 -88 -173 -205 -307c-44 -51 -114 -125 -125 -133c-21 -15 -51 -17 -74 -1c-9 6 -80 80 -127 134c-120 137 -188 241 -206 313
c-14 52 -1 88 37 101c10 3 9 3 97 3h82v3zM276 296c32 -56 90 -132 168 -220c23 -26 55 -60 56 -60s33 34 56 60c78 88 136 164 168 220l2 4h-101c-24 -34 -62 -55 -106 -61c-7 -1 -31 -1 -38 0c-44 6 -82 27 -106 61h-101z" />
  </g>

</svg>
