<?xml version="1.0" standalone="no"?>
<!DOCTYPE svg PUBLIC "-//W3C//DTD SVG 1.1//EN" "http://www.w3.org/Graphics/SVG/1.1/DTD/svg11.dtd" >
<svg xmlns="http://www.w3.org/2000/svg" xmlns:xlink="http://www.w3.org/1999/xlink" version="1.1" viewBox="-10 0 1010 1000">
  <g transform="matrix(1 0 0 -1 0 800)">
   <path fill="currentColor"
d="M347 428c16.3219 65.2875 68.1687 115.574 141 122c62.6323 0 102.755 -19.0064 134 -59c15 -18 25 -39 31 -63v-3h169c29.0088 -9.6696 53 -25.7628 53 -64c0 -15 -2 -28 -7 -46c-20 -71 -88 -173 -205 -307c-44 -51 -114 -125 -125 -133
c-21.3708 -14.9595 -50.7008 -16.5328 -74 -1c-9 6 -80 80 -127 134c-120 137 -188 241 -206 313c-13.6482 52.3182 -1.24967 87.6126 37 101c10 3 9 3 97 3h82v3zM276 296c32 -56 90 -132 168 -220c23 -26 55 -60 56 -60s33 34 56 60c78 88 136 164 168 220l2 4h-101
c-24.1747 -33.8446 -61.9708 -54.5567 -106 -61c-7 -1 -31 -1 -38 0c-44.0372 6.44447 -81.8172 27.144 -106 61h-101l2 -4z" />
  </g>

</svg>
