<?xml version="1.0" standalone="no"?>
<!DOCTYPE svg PUBLIC "-//W3C//DTD SVG 1.1//EN" "http://www.w3.org/Graphics/SVG/1.1/DTD/svg11.dtd" >
<svg xmlns="http://www.w3.org/2000/svg" xmlns:xlink="http://www.w3.org/1999/xlink" version="1.1" viewBox="-10 0 1010 1000">
  <g transform="matrix(1 0 0 -1 0 800)">
   <path fill="currentColor"
d="M839 726c13 10 30 14 52 9c23 -6 40 -24 45 -47c1 -5 1 -14 1 -294s0 -290 -1 -295c-2 -11 -8 -21 -15 -29c-8 -9 -5 -7 -144 -76c-148 -74 -135 -69 -152 -69h-10c-77 20 -154 40 -232 59l-118 -59c-131 -65 -122 -61 -137 -62c-30 -2 -57 19 -64 49c-1 5 -1 14 -1 294
s0 290 1 295c4 15 14 30 26 38c6 4 260 131 265 133c12 4 24 4 36 1c6 -1 16 -7 117 -57l111 -55l108 81c60 45 110 83 112 84zM750 503l-62 -47v-367l124 62v399s-28 -21 -62 -47zM312 511l-124 -62v-423c41 21 82 42 124 63v422zM438 511v-412l2 -1c6 0 118 -30 121 -30
c1 0 1 9 1 190v191z" />
  </g>

</svg>
