<?xml version="1.0" standalone="no"?>
<!DOCTYPE svg PUBLIC "-//W3C//DTD SVG 1.1//EN" "http://www.w3.org/Graphics/SVG/1.1/DTD/svg11.dtd" >
<svg xmlns="http://www.w3.org/2000/svg" xmlns:xlink="http://www.w3.org/1999/xlink" version="1.1" viewBox="-10 0 1010 1000">
  <g transform="matrix(1 0 0 -1 0 800)">
   <path fill="currentColor"
d="M438 612c0 35 23 57 51 62c4 1 30 1 169 1h164c26 -9 46 -22 52 -49c1 -5 1 -10 1 -138s0 -134 -1 -139c-6 -28 -31 -48 -59 -49c-30 -1 -55 18 -63 48c-1 5 -2 6 -2 59v54l-168 -168c21 -31 36 -73 41 -118c8 -57 -4 -102 -21 -142c-33 -77 -99 -136 -179 -159
c-113 -32 -211 7 -271 64c-61 57 -95 140 -89 224c8 104 74 195 159 235c66 32 154 38 230 6c13 -5 30 -14 41 -21l168 168h-85c-85 0 -86 1 -91 2c-26 7 -47 27 -47 60zM366 298c-80 13 -137 -35 -163 -86c-24 -50 -18 -111 8 -151c29 -45 79 -80 154 -72
c74 11 135 70 135 155c0 57 -27 98 -62 124c-21 16 -45 26 -72 30z" />
  </g>

</svg>
