<?xml version="1.0" standalone="no"?>
<!DOCTYPE svg PUBLIC "-//W3C//DTD SVG 1.1//EN" "http://www.w3.org/Graphics/SVG/1.1/DTD/svg11.dtd" >
<svg xmlns="http://www.w3.org/2000/svg" xmlns:xlink="http://www.w3.org/1999/xlink" version="1.1" viewBox="-10 0 1010 1000">
  <g transform="matrix(1 0 0 -1 0 800)">
   <path fill="currentColor"
d="M438 612c0 34.749 22.8704 57.036 51 62c4 1 30 1 169 1h164c25.7416 -8.58054 46.0491 -21.6259 52 -49c1 -5 1 -10 1 -138s0 -134 -1 -139c-6 -28 -31 -48 -59 -49c-30 -1 -55 18 -63 48c-1 5 -2 6 -2 59v54l-168 -168c20.7421 -31.1131 36.0423 -73.3808 41 -118
c7.53465 -56.5099 -4.11965 -102.101 -21 -142c-33 -77 -99 -136 -179 -159c-113.233 -32.3523 -210.519 6.97524 -271 64c-61 57 -95 140 -89 224c7.53559 103.991 73.8529 195.265 159 235c65.5285 31.5507 153.933 38.1171 230 6
c12.9114 -5.16456 30.3834 -13.9223 41 -21l168 168h-85c-85 0 -86 1 -91 2c-26.0513 6.79598 -47 27.1856 -47 60zM331 300c-61.5372 -6.15372 -105.084 -42.1684 -128 -88c-24.0299 -49.6617 -17.6224 -111.143 8 -151c28.8224 -44.8349 78.581 -80.3799 154 -72
c74.2724 10.9224 135 69.9401 135 155c0 57.2284 -26.7775 97.5831 -62 124c-21 16 -45 26 -72 30c-6 1 -29 3 -35 2z" />
  </g>

</svg>
