<?xml version="1.0" standalone="no"?>
<!DOCTYPE svg PUBLIC "-//W3C//DTD SVG 1.1//EN" "http://www.w3.org/Graphics/SVG/1.1/DTD/svg11.dtd" >
<svg xmlns="http://www.w3.org/2000/svg" xmlns:xlink="http://www.w3.org/1999/xlink" version="1.1" viewBox="-10 0 1010 1000">
  <g transform="matrix(1 0 0 -1 0 800)">
   <path fill="currentColor"
d="M937 675c0 -35 -22 -57 -52 -62h-137l-137 -1v-2l-178 -709c-17 -44 -82 -51 -110 -10c-3 5 -10 19 -60 145l-55 139h-46c-45 0 -47 1 -52 2c-28 6 -56 35 -46 75c6 24 25 43 51 47c5 1 15 1 75 1h70c14 -5 27 -10 36 -20c8 -9 9 -9 38 -83c15 -38 27 -68 27 -68
c93 370 139 556 144 570c7 19 26 33 47 38c4 1 30 0 169 0h164c30 -5 52 -27 52 -62zM614 237c18 3 36 -4 47 -11c2 -2 24 -22 47 -45l42 -43l43 43c26 26 44 44 46 45c44 27 98 1 98 -51c0 -10 -1 -16 -4 -24c-4 -11 -6 -12 -52 -58l-43 -43l43 -43c46 -46 48 -47 52 -58
c3 -8 4 -14 4 -24c0 -53 -57 -78 -98 -51c-2 1 -20 19 -46 45l-43 43l-42 -43c-23 -23 -45 -43 -47 -45c-9 -7 -21 -10 -33 -11c-34 -1 -65 22 -65 62c0 10 1 16 4 24c4 11 6 12 52 58l43 43l-43 43c-46 46 -48 47 -52 58c-3 8 -4 14 -4 24c0 34 24 57 51 62z" />
  </g>

</svg>
