<?xml version="1.0" standalone="no"?>
<!DOCTYPE svg PUBLIC "-//W3C//DTD SVG 1.1//EN" "http://www.w3.org/Graphics/SVG/1.1/DTD/svg11.dtd" >
<svg xmlns="http://www.w3.org/2000/svg" xmlns:xlink="http://www.w3.org/1999/xlink" version="1.1" viewBox="-10 0 1010 1000">
  <g transform="matrix(1 0 0 -1 0 800)">
   <path fill="currentColor"
d="M156 664c0 44 18 66 52 73c37 5 65 -19 72 -47c1 -4 1 -8 1 -26v-20h21c20 0 20 0 26 -2c25 -7 47 -29 47 -61s-23 -53 -47 -60c-6 -2 -6 -2 -26 -2h-21v-21c0 -18 0 -21 -1 -25c-7 -28 -30 -47 -58 -48c-30 -1 -56 19 -64 48c-1 4 -2 7 -2 25v21h-18c-33 0 -42 3 -57 18
c-12 12 -23 33 -17 59c8 33 30 48 74 48h18v20zM438 685c7 34 36 61 78 50c24 -6 41 -24 46 -50v-161l1 -161l161 -1h161c27 -5 44 -23 51 -48c10 -41 -20 -71 -51 -76h-161l-161 -1l-1 -161v-161c-13 -69 -110 -68 -124 0v161l-1 162h-158c-139 0 -159 -1 -164 0
c-30 5 -61 35 -51 76c6 24 26 44 51 48c5 1 25 0 164 0h158l1 162v161zM625 675c0 50 55 80 99 51c2 -2 16 -15 31 -30l26 -26l28 27c16 16 28 28 30 29c43 27 98 0 98 -51c0 -10 -1 -16 -4 -24c-4 -10 -7 -14 -36 -43l-27 -27l27 -27c22 -22 27 -28 30 -32
c8 -11 14 -29 9 -49c-10 -41 -58 -63 -97 -37c-2 1 -14 14 -30 30l-28 27l-26 -27c-15 -15 -29 -27 -31 -29c-39 -30 -99 -1 -99 51c0 10 2 16 5 24c4 10 7 13 36 42l27 27l-27 27c-29 29 -32 33 -36 43c-3 8 -5 14 -5 24zM750 112c0 65 82 83 115 35c23 -35 7 -81 -33 -94
c-39 -11 -82 14 -82 59zM375 50c0 -34 -24 -57 -53 -62h-101c-88 0 -101 -1 -106 0c-38 6 -70 54 -42 96c9 14 24 25 41 28c4 1 22 0 107 0h101c29 -5 53 -29 53 -62zM750 -75c0 64 82 83 115 35c23 -35 7 -82 -33 -95c-38 -11 -82 15 -82 60z" />
  </g>

</svg>
