<?xml version="1.0" standalone="no"?>
<!DOCTYPE svg PUBLIC "-//W3C//DTD SVG 1.1//EN" "http://www.w3.org/Graphics/SVG/1.1/DTD/svg11.dtd" >
<svg xmlns="http://www.w3.org/2000/svg" xmlns:xlink="http://www.w3.org/1999/xlink" version="1.1" viewBox="-10 0 1010 1000">
  <g transform="matrix(1 0 0 -1 0 800)">
   <path fill="currentColor"
d="M500 300c0 -36.61 -25.4798 -52.8266 -53 -62h-32l-31 -1l-6 -22c-11 -45 -22 -81 -37 -126c-15 -44 -38 -105 -45 -119c-6 -11 -15 -24 -24 -32c-41 -39 -103 -43 -150 -11c-9 6 -15 10 -31 27c-18 18 -22 23 -26 36c-12 38 13 80 60 80c31 0 45 -19 63 -36
c0 0 2 6 5 13c23 60 48 129 62 191h-36c-30 0 -38 -1 -42 0c-29 4 -60 36 -50 76c6 23 26 44 50 48c5 1 14 0 56 0h50c12 54 34 124 54 182c14 40 33 88 40 102c19 37 56 62 98 65c4 0 7 1 8 1s5 -1 10 -1c16 -1 30 -5 44 -11c9 -4 61 -36 66 -40c15 -12 28 -35 20 -62
c-9 -38 -50 -60 -89 -41c-2 1 -45 27 -47 28c-22 -52 -48 -124 -64 -181c-4 -13 -11 -40 -11 -41c0 0 8 -1 18 -1c39 0 60 -18 68 -48c1 -4 2 -7 2 -14zM583 424c10 2 28 1 45 -2c40 -7 74 -27 99 -57l5 -5c14 10 41 28 54 36c24 15 70 33 99 28s52 -26 52 -62
c0 -37 -27 -60 -57 -62c-8 -1 -19 -5 -34 -14c-17 -10 -45 -29 -62 -46c10 -30 23 -54 34 -60c6 -3 12 -4 24 -5c39 -3 64 -23 64 -63c0 -31 -18 -51 -43 -59c-9 -3 -20 -3 -36 -2c-52 4 -88 27 -116 59c-8 9 -16 25 -22 33l-14 -14c-14 -14 -25 -23 -36 -32
c-38 -31 -74 -47 -107 -47c-30 0 -54 21 -62 48c-11 44 24 75 56 77c4 0 6 1 10 3c23 11 62 47 97 91l5 6c-12 15 -17 24 -43 25c-38 3 -63 23 -63 62c0 35 23 57 51 62z" />
  </g>

</svg>
