<?xml version="1.0" standalone="no"?>
<!DOCTYPE svg PUBLIC "-//W3C//DTD SVG 1.1//EN" "http://www.w3.org/Graphics/SVG/1.1/DTD/svg11.dtd" >
<svg xmlns="http://www.w3.org/2000/svg" xmlns:xlink="http://www.w3.org/1999/xlink" version="1.1" viewBox="-10 0 1010 1000">
  <g transform="matrix(1 0 0 -1 0 800)">
   <path fill="currentColor"
d="M156 664c0 43.6558 17.7736 66.1547 52 73c37.493 5.35614 64.6112 -18.6763 72 -47c1 -4 1 -8 1 -26v-20h21c20 0 20 0 26 -2c24.9423 -6.80245 47 -28.7979 47 -61c0 -31.5425 -22.5812 -53.3403 -47 -60c-6 -2 -6 -2 -26 -2h-21v-21c0 -18 0 -21 -1 -25
c-7 -28 -30 -47 -58 -48c-30 -1 -56 19 -64 48c-1 4 -2 7 -2 25v21h-18c-33.1503 0 -42.0994 3.09945 -57 18c-12.0137 12.0137 -23.4889 33.0445 -17 59c8.24156 32.9662 30.4787 48 74 48h18v20zM438 685c6.88798 34.4399 35.692 60.577 78 50
c23.8344 -6.50028 40.7796 -23.8981 46 -50v-161l1 -161l161 -1h161c27.0471 -4.50784 44.4776 -22.9976 51 -48c10.3258 -41.3033 -19.9215 -70.8203 -51 -76h-161l-161 -1l-1 -161v-161c-6.1938 -30.969 -29.5563 -50.9484 -59 -52
c-31.9346 -1.06449 -58.3952 18.9762 -65 52v161l-1 162h-158c-139 0 -159 -1 -164 0c-29.7595 4.57838 -61.211 35.1559 -51 76c5.9845 23.938 25.9528 44.1466 51 48c5 1 25 0 164 0h158l1 162v161zM625 675c0 49.9798 55.1177 80.2549 99 51c2 -2 16 -15 31 -30l26 -26
l28 27c16 16 28 28 30 29c43.3365 27.0853 98 0.285457 98 -51c0 -10 -1 -16 -4 -24c-4 -10 -7 -14 -36 -43l-27 -27l27 -27c22 -22 27 -28 30 -32c7.54295 -11.3144 13.8865 -29.454 9 -49c-10.3021 -41.2083 -57.9618 -63.0255 -97 -37c-2 1 -14 14 -30 30l-28 27l-26 -27
c-15 -15 -29 -27 -31 -29c-39.1666 -30.4629 -99 -1.1306 -99 51c0 10 2 16 5 24c4 10 7 13 36 42l27 27l-27 27c-29 29 -32 33 -36 43c-3 8 -5 14 -5 24zM750 112c0 65.1368 81.5415 82.7978 115 35c23 -35 7 -81 -33 -94c-38.6749 -11.4592 -82 14.1065 -82 59zM375 50
c0 -33.5162 -23.7874 -57.1312 -53 -62h-101c-88 0 -101 -1 -106 0c-37.9737 5.84211 -70.2495 53.6258 -42 96c9 14 24 25 41 28c4 1 22 0 107 0h101c29.2192 -4.86987 53 -28.5254 53 -62zM802 -13c-27.2973 -4.81717 -52 -28.688 -52 -62
c0 -44.7374 43.6498 -71.363 82 -60c40 13 56 60 33 95c-14 20 -39 31 -63 27z" />
  </g>

</svg>
