<?xml version="1.0" standalone="no"?>
<!DOCTYPE svg PUBLIC "-//W3C//DTD SVG 1.1//EN" "http://www.w3.org/Graphics/SVG/1.1/DTD/svg11.dtd" >
<svg xmlns="http://www.w3.org/2000/svg" xmlns:xlink="http://www.w3.org/1999/xlink" version="1.1" viewBox="-10 0 1010 1000">
  <g transform="matrix(1 0 0 -1 0 800)">
   <path fill="currentColor"
d="M937 675c0 -34.6641 -22.2278 -57.038 -52 -62h-137l-137 -1v-2c0 -0.00519909 -177.967 -708.902 -178 -709c-17.0415 -43.8211 -81.7123 -51.4887 -110 -10c-3 5 -10 19 -60 145l-55 139h-46c-45 0 -47 1 -52 2c-27.9455 6.21012 -55.9293 35.2829 -46 75
c6.0896 24.3584 25.4417 43.068 51 47c5 1 15 1 75 1h70c13.6768 -4.55892 27.0922 -9.81964 36 -20c8 -9 9 -9 38 -83c15 -38 27 -68 27 -68c93.2811 370.497 139.455 556.364 144 570c7.44587 18.6147 26.0036 33.3341 47 38c4 1 30 0 169 0h164
c29.7764 -4.96273 52 -27.3788 52 -62zM614 237c-27.2531 -4.80938 -51 -28.3986 -51 -62c0 -10 1 -16 4 -24c4 -11 6 -12 52 -58l43 -43l-43 -43c-46 -46 -48 -47 -52 -58c-3 -8 -4 -14 -4 -24c0 -39.8361 31.4713 -63.1176 65 -62c12 1 24 4 33 11c2 2 24 22 47 45l42 43
l43 -43c26 -26 44 -44 46 -45c41.2013 -27.4675 98 -1.95807 98 51c0 10 -1 16 -4 24c-4 11 -6 12 -52 58l-43 43l43 43c46 46 48 47 52 58c3 8 4 14 4 24c0 51.5058 -54.4313 78.2305 -98 51c-2 -1 -20 -19 -46 -45l-43 -43l-42 43c-23 23 -45 43 -47 45
c-10.9356 7.29041 -29.4832 13.5024 -47 11z" />
  </g>

</svg>
