<?xml version="1.0" standalone="no"?>
<!DOCTYPE svg PUBLIC "-//W3C//DTD SVG 1.1//EN" "http://www.w3.org/Graphics/SVG/1.1/DTD/svg11.dtd" >
<svg xmlns="http://www.w3.org/2000/svg" xmlns:xlink="http://www.w3.org/1999/xlink" version="1.1" viewBox="-10 0 1010 1000">
  <g transform="matrix(1 0 0 -1 0 800)">
   <path fill="currentColor"
d="M125 70c31.0495 0 44.7574 -19.1607 63 -36c0 0 2 6 5 13c23.1466 59.9709 48.1367 128.615 62 191h-36c-30 0 -38 -1 -42 0c-29.2486 4.49979 -60.0465 35.814 -50 76c5.86748 23.4699 25.5328 44.2358 50 48c5 1 14 0 56 0h50c11.9513 53.7808 33.6578 124.185 54 182
c14 40 33 88 40 102c19 37 56 62 98 65c4 0 7 1 8 1s5 -1 10 -1c16 -1 30 -5 44 -11c9 -4 61 -36 66 -40c14.8697 -11.8958 27.8376 -34.5684 20 -62c-9.47415 -37.8966 -50.2275 -60.3863 -89 -41c-2.38097 0.793656 -44.9832 26.7515 -47 28
c-22.0721 -52.0272 -48.1488 -124.2 -64 -181c-4 -13 -11 -40 -11 -41c0 0 8 -1 18 -1c38.7096 0 60.0592 -17.5603 68 -48c1 -4 2 -7 2 -14c0 -31.5011 -21.683 -53.3956 -47 -60l-6 -2h-32l-31 -1l-6 -22c-11 -45 -22 -81 -37 -126c-15 -44 -38 -105 -45 -119
c-6 -11 -15 -24 -24 -32c-41 -39 -103 -43 -150 -11c-9 6 -15 10 -31 27c-18 18 -22 23 -26 36c-12.2639 37.9067 12.9892 80 60 80zM583 424c-28.0669 -4.95298 -51 -27.3346 -51 -62c0 -39.3897 25.3398 -58.8617 63 -62c26.3882 -1.19946 30.7877 -9.73459 43 -25l-5 -6
c-35 -44 -74 -80 -97 -91c-4 -2 -6 -3 -10 -3c-31.6356 -2.34338 -67.0765 -32.6941 -56 -77c7.80396 -27.3139 31.8065 -48 62 -48c33 0 69 16 107 47c11 9 22 18 36 32l14 14c6.23882 -8.31843 14.2811 -23.9946 22 -33c28.1371 -32.1567 64.3381 -54.5718 116 -59
c16 -1 27 -1 36 2c24.5656 8.18853 43 28.0314 43 59c0 40.4891 -25.1557 60.012 -64 63c-12 1 -18 2 -24 5c-11.4809 6.26231 -24.0899 30.2698 -34 60c16.6022 16.6022 44.8443 35.9084 62 46c15 9 26 13 34 14c29.9672 2.21979 57 25.3889 57 62
c0 35.5749 -23.0116 57.3619 -52 62c-29.2648 5.48715 -75.3801 -12.9691 -99 -28c-13.2375 -7.94249 -39.9116 -26.1381 -54 -36l-5 5c-25 30 -59 50 -99 57c-17 3 -35 4 -45 2z" />
  </g>

</svg>
