<?xml version="1.0" standalone="no"?>
<!DOCTYPE svg PUBLIC "-//W3C//DTD SVG 1.1//EN" "http://www.w3.org/Graphics/SVG/1.1/DTD/svg11.dtd" >
<svg xmlns="http://www.w3.org/2000/svg" xmlns:xlink="http://www.w3.org/1999/xlink" version="1.1" viewBox="-10 0 1010 1000">
  <g transform="matrix(1 0 0 -1 0 800)">
   <path fill="currentColor"
d="M937 550c0 -35 -22 -57 -52 -62h-383c-339 0 -382 -1 -387 0c-38 6 -70 54 -42 96c9 14 24 25 41 28c4 1 62 0 388 0h383c30 -5 52 -27 52 -62zM937 300c0 -35 -22 -57 -52 -62h-383c-339 0 -382 -1 -387 0c-38 6 -70 54 -42 96c9 14 24 25 41 28c4 1 62 0 388 0h383
c30 -5 52 -27 52 -62zM114 112c4 1 62 0 388 0h383c30 -5 52 -27 52 -62s-22 -57 -52 -62h-383c-339 0 -382 -1 -387 0c-32 5 -61 37 -51 76c7 24 25 44 50 48z" />
  </g>

</svg>
