<?xml version="1.0" standalone="no"?>
<!DOCTYPE svg PUBLIC "-//W3C//DTD SVG 1.1//EN" "http://www.w3.org/Graphics/SVG/1.1/DTD/svg11.dtd" >
<svg xmlns="http://www.w3.org/2000/svg" xmlns:xlink="http://www.w3.org/1999/xlink" version="1.1" viewBox="-10 0 1010 1000">
  <g transform="matrix(1 0 0 -1 0 800)">
   <path fill="currentColor"
d="M937 550c0 -34.6641 -22.2278 -57.038 -52 -62h-383c-339 0 -382 -1 -387 0c-37.9737 5.84211 -70.2495 53.6258 -42 96c9 14 24 25 41 28c4 1 62 0 388 0h383c29.7764 -4.96273 52 -27.3788 52 -62zM937 300c0 -34.6641 -22.2278 -57.038 -52 -62h-383
c-339 0 -382 -1 -387 0c-37.9737 5.84211 -70.2495 53.6258 -42 96c9 14 24 25 41 28c4 1 62 0 388 0h383c29.7764 -4.96273 52 -27.3788 52 -62zM114 112c-24.6628 -4.35226 -43.1443 -24.0051 -50 -48c-9.85757 -39.4303 19.4245 -71.1422 51 -76c5 -1 48 0 387 0h383
c29.812 4.96866 52 27.3286 52 62c0 34.7769 -22.1989 57.0332 -52 62h-383c-326 0 -384 1 -388 0z" />
  </g>

</svg>
