<?xml version="1.0" standalone="no"?>
<!DOCTYPE svg PUBLIC "-//W3C//DTD SVG 1.1//EN" "http://www.w3.org/Graphics/SVG/1.1/DTD/svg11.dtd" >
<svg xmlns="http://www.w3.org/2000/svg" xmlns:xlink="http://www.w3.org/1999/xlink" version="1.1" viewBox="-10 0 1010 1000">
  <g transform="matrix(1 0 0 -1 0 800)">
   <path fill="currentColor"
d="M128 -137c-34 -2 -72 26 -65 70c0 3 12 46 25 96l24 90c-6 12 -16 29 -21 42c-21 51 -32 97 -27 168c16 176 103 301 232 364c94 46 224 58 340 26c130 -37 229 -131 275 -261c107.95 -303.767 -127.278 -513.891 -367 -543c-74 -9 -145 -2 -208 20c-7 2 -13 4 -14 4
c-2 1 3 3 -77 -31c-56 -24 -88 -37 -94 -40c-8 -3 -15 -5 -23 -5zM480 612c-166 -9 -271 -119 -290 -275c-3 -23 -3 -49 -1 -66c5 -35 17 -69 38 -101c10 -15 13 -22 14 -35c1.72871 -17.2871 -23.6 -102.8 -22 -102c2 1 84 36 85 36c5 2 7 1 17 1c13 0 16 0 27 -5
c33 -15 62 -23 99 -27c17 -2 48 -3 67 -1c112 11 216 70 266 151c29 48 40 99 27 173c-25 141 -120 235 -271 250c-10 1 -46 2 -56 1zM269 344c14 14 32 23 59 16c22 -6 39 -23 45 -46c2 -7 2 -22 0 -29c-9 -30 -32 -53 -73 -47c-11 2 -24 10 -32 18c-24 24 -24 64 1 88z
M456 344c15 15 33 23 60 16c22 -6 39 -23 45 -46c2 -7 2 -22 0 -29c-9 -30 -32 -53 -74 -47c-40 7 -70 69 -31 106zM677 362c37 5 64 -20 71 -48c2 -7 2 -22 0 -29c-7 -24 -24 -42 -48 -47c-27 -4 -44 5 -57 18c-24 24 -24 64 1 88c9 9 20 16 33 18z" />
  </g>

</svg>
