<?xml version="1.0" standalone="no"?>
<!DOCTYPE svg PUBLIC "-//W3C//DTD SVG 1.1//EN" "http://www.w3.org/Graphics/SVG/1.1/DTD/svg11.dtd" >
<svg xmlns="http://www.w3.org/2000/svg" xmlns:xlink="http://www.w3.org/1999/xlink" version="1.1" viewBox="-10 0 1010 1000">
  <g transform="matrix(1 0 0 -1 0 800)">
   <path fill="currentColor"
d="M114 674c4 1 62 1 388 1h383c25.8068 -8.60225 45.0365 -21.5678 51 -49c1 -5 1 -14 1 -264s0 -258 -1 -263c-5.95755 -27.4047 -25.1979 -40.3993 -51 -49h-547l-86 -86c-48 -48 -89 -88 -91 -90c-9 -7 -21 -10 -33 -11c-30 -2 -57 19 -64 49c-1 5 -1 16 -1 357
s0 352 1 357c6 25 25 43 50 48zM188 550v-474l42 43c26 26 45 44 47 45c5 3 11 6 16 8c10 3 -6 3 267 3h252v375h-624zM269 407c13.1473 13.1473 33.0447 22.4888 59 16c22 -6 39 -23 45 -46c2 -7 2 -23 0 -30c-8.67656 -29.7482 -32.3038 -51.8137 -73 -46
c-11 2 -24 9 -32 17c-24 24 -24 65 1 89zM456 407c13.2988 13.2988 33.5807 22.6048 60 16c22 -6 39 -23 45 -46c2 -7 2 -23 0 -30c-8.7916 -30.1426 -32.6562 -51.9063 -74 -46c-11 2 -23 9 -31 17c-24 24 -25 65 0 89zM677 424c-13 -2 -24 -8 -33 -17
c-25 -24 -25 -65 -1 -89c13.1015 -13.1015 31.1336 -20.6952 57 -17c24 5 41 22 48 46c2 7 2 23 0 30c-7.48008 28.6736 -32.465 52.505 -71 47z" />
  </g>

</svg>
