<?xml version="1.0" standalone="no"?>
<!DOCTYPE svg PUBLIC "-//W3C//DTD SVG 1.1//EN" "http://www.w3.org/Graphics/SVG/1.1/DTD/svg11.dtd" >
<svg xmlns="http://www.w3.org/2000/svg" xmlns:xlink="http://www.w3.org/1999/xlink" version="1.1" viewBox="-10 0 1010 1000">
  <g transform="matrix(1 0 0 -1 0 800)">
   <path fill="currentColor"
d="M114 674c4 1 62 1 388 1h383c26 -9 45 -22 51 -49c1 -5 1 -14 1 -264s0 -258 -1 -263c-6 -27 -25 -40 -51 -49h-547l-86 -86c-48 -48 -89 -88 -91 -90c-9 -7 -21 -10 -33 -11c-30 -2 -57 19 -64 49c-1 5 -1 16 -1 357s0 352 1 357c6 25 25 43 50 48zM188 550v-474l42 43
c26 26 45 44 47 45c5 3 11 6 16 8c10 3 -6 3 267 3h252v375h-624zM269 407c13 13 33 22 59 16c22 -6 39 -23 45 -46c2 -7 2 -23 0 -30c-9 -30 -32 -52 -73 -46c-11 2 -24 9 -32 17c-24 24 -24 65 1 89zM456 407c13 13 34 23 60 16c22 -6 39 -23 45 -46c2 -7 2 -23 0 -30
c-9 -30 -33 -52 -74 -46c-11 2 -23 9 -31 17c-24 24 -25 65 0 89zM677 424c39 6 64 -18 71 -47c2 -7 2 -23 0 -30c-7 -24 -24 -41 -48 -46c-26 -4 -44 4 -57 17c-24 24 -24 65 1 89c9 9 20 15 33 17z" />
  </g>

</svg>
