<?xml version="1.0" standalone="no"?>
<!DOCTYPE svg PUBLIC "-//W3C//DTD SVG 1.1//EN" "http://www.w3.org/Graphics/SVG/1.1/DTD/svg11.dtd" >
<svg xmlns="http://www.w3.org/2000/svg" xmlns:xlink="http://www.w3.org/1999/xlink" version="1.1" viewBox="-10 0 1010 1000">
  <g transform="matrix(1 0 0 -1 0 800)">
   <path fill="currentColor"
d="M128 -137c-34.1944 -2.27963 -72.2739 26.3568 -65 70c0 3 12 46 25 96l24 90c-5.88333 11.7667 -15.8358 29.0895 -21 42c-21.4968 50.6711 -31.7402 96.8973 -27 168c15.9997 175.997 102.995 300.931 232 364c94.3427 46.2813 224.173 58.4316 340 26
c130 -37 229 -131 275 -261c42.6403 -120.814 34.0331 -245.699 -29 -342c-68 -106 -198 -184 -338 -201c-74 -9 -145 -2 -208 20c-7 2 -13 4 -14 4c-2 1 3 3 -77 -31c-56 -24 -88 -37 -94 -40c-8 -3 -15 -5 -23 -5zM480 612c-165.714 -9.20632 -271.371 -118.98 -290 -275
c-3 -23 -3 -49 -1 -66c5 -35 17 -69 38 -101c10 -15 13 -22 14 -35c1 -10 0 -14 -12 -60c-6 -23 -10 -42 -10 -42c1.51478 0.64378 83.7511 35.5837 85 36c5 2 7 1 17 1c13 0 16 0 27 -5c33 -15 62 -23 99 -27c17 -2 48 -3 67 -1c112 11 216 70 266 151
c29.125 47.9706 40.1388 99.4226 27 173c-25.3206 140.67 -119.647 234.865 -271 250c-10 1 -46 2 -56 1zM269 344c14.434 14.434 32.2467 22.6883 59 16c22 -6 39 -23 45 -46c2 -7 2 -22 0 -29c-8.74046 -29.9673 -31.9458 -52.8649 -73 -47c-11 2 -24 10 -32 18
c-24 24 -24 64 1 88zM456 344c14.5823 14.5823 32.7564 22.8109 60 16c22 -6 39 -23 45 -46c2 -7 2 -22 0 -29c-8.85777 -30.3695 -32.2861 -52.9591 -74 -47c-39.6388 7.20705 -69.8831 68.6722 -31 106zM677 362c-13 -2 -24 -9 -33 -18c-25 -24 -25 -64 -1 -88
c13.408 -13.408 30.3397 -21.8086 57 -18c24 5 41 23 48 47c2 7 2 22 0 29c-7.35552 28.1961 -33.687 53.3304 -71 48z" />
  </g>

</svg>
