<?xml version="1.0" standalone="no"?>
<!DOCTYPE svg PUBLIC "-//W3C//DTD SVG 1.1//EN" "http://www.w3.org/Graphics/SVG/1.1/DTD/svg11.dtd" >
<svg xmlns="http://www.w3.org/2000/svg" xmlns:xlink="http://www.w3.org/1999/xlink" version="1.1" viewBox="-10 0 1010 1000">
  <g transform="matrix(1 0 0 -1 0 800)">
   <path fill="currentColor"
d="M529 182c-10.7943 -4.3177 -16.6906 -7 -32 -7c-21.9035 0 -45.7978 4.71911 -64 12c-59 23 -103 75 -116 137c-3 16 -4 19 -4 48l-1 27l-118 119c-105 105 -118 118 -121 123c-12.358 18.537 -13.5394 47.6909 0 68c13.1765 20.4967 35.8901 34.0275 68 26
c8 -2 15 -5 21 -10c3.65769 -2.43846 755.892 -750.819 765 -766c6.63016 -9.94524 10 -17.7625 10 -34c0 -52.9614 -56.5999 -78.6001 -98 -51c-2 1 -36 34 -92 90l-88 89l-3 -1c-1 -1 -7 -3 -12 -5c-20 -8 -45 -15 -68 -20l-13 -3v-18l-1 -18l68 -1h67
c29.2192 -4.86987 53 -28.5254 53 -62c0 -33.5162 -23.7874 -57.1312 -53 -62h-194c-172 0 -196 -1 -201 0c-29.2486 4.49979 -60.0465 35.814 -50 76c5.86748 23.4699 25.5328 44.2358 50 48c5 1 16 1 71 1h65l-1 18v18l-13 3c-110.56 23.2757 -201.569 89.0136 -254 175
c-24.5876 38.6377 -45 100.45 -45 155c0 25.4031 6.3943 37.3943 19 50c41.1174 41.1174 106 7.52959 106 -48c1 -14 2 -24 4 -35c19.2649 -92.4713 114.177 -166.421 219 -179c12 -2 41 -2 54 0c13 1 33 5 33 6c0 0 -7 8 -15 16zM412 716
c31.404 16.4497 67.0003 25.625 112 20c85.5169 -12.2167 145.458 -73.6478 160 -149c4 -18 3 -16 3 -96c0 -70 0 -74 -1 -79c-13.5264 -63.1231 -105.337 -64.4868 -122 -2c-1 5 -1 7 -1 78l-1 72c-4.90894 29.4537 -28.0043 52 -62 52c-13 0 -18 -1 -31 -8s-19 -8 -31 -8
c-60.5486 0 -80.5315 70.4685 -45 106c6 6 10 9 19 14zM802 424c-29.9603 -5.99206 -52 -29.1197 -52 -65c-1 -20 -3 -33 -8 -50c-2 -5 -2 -7 -2 -17c0 -53.8575 67.5195 -83.3605 107 -42c9 10 14 17 19 38c6 23 9 46 9 69c0 42.5165 -27.8108 73.4556 -73 67z" />
  </g>

</svg>
