<?xml version="1.0" standalone="no"?>
<!DOCTYPE svg PUBLIC "-//W3C//DTD SVG 1.1//EN" "http://www.w3.org/Graphics/SVG/1.1/DTD/svg11.dtd" >
<svg xmlns="http://www.w3.org/2000/svg" xmlns:xlink="http://www.w3.org/1999/xlink" version="1.1" viewBox="-10 0 1010 1000">
  <g transform="matrix(1 0 0 -1 0 800)">
   <path fill="currentColor"
d="M529 182c-11 -4 -17 -7 -32 -7c-22 0 -46 5 -64 12c-59 23 -103 75 -116 137c-3 16 -4 19 -4 48l-1 27l-118 119c-105 105 -118 118 -121 123c-12 19 -14 48 0 68c13 20 36 34 68 26c8 -2 15 -5 21 -10c4 -2 756 -751 765 -766c7 -10 10 -18 10 -34
c0 -53 -57 -79 -98 -51c-2 1 -36 34 -92 90l-88 89l-3 -1c-1 -1 -7 -3 -12 -5c-20 -8 -45 -15 -68 -20l-13 -3v-18l-1 -18l68 -1h67c29 -5 53 -29 53 -62c0 -34 -24 -57 -53 -62h-194c-172 0 -196 -1 -201 0c-29 4 -60 36 -50 76c6 23 26 44 50 48c5 1 16 1 71 1h65l-1 18
v18l-13 3c-111 23 -202 89 -254 175c-25 39 -45 100 -45 155c0 25 6 37 19 50c41 41 106 8 106 -48c1 -14 2 -24 4 -35c19 -92 114 -166 219 -179c12 -2 41 -2 54 0c13 1 33 5 33 6c0 0 -7 8 -15 16zM412 716c31 16 67 26 112 20c86 -12 145 -74 160 -149c4 -18 3 -16 3 -96
c0 -70 0 -74 -1 -79c-14 -63 -105 -64 -122 -2c-1 5 -1 7 -1 78l-1 72c-5 29 -28 52 -62 52c-13 0 -18 -1 -31 -8s-19 -8 -31 -8c-61 0 -81 70 -45 106c6 6 10 9 19 14zM802 424c45 6 73 -24 73 -67c0 -23 -3 -46 -9 -69c-5 -21 -10 -28 -19 -38c-39 -41 -107 -12 -107 42
c0 10 0 12 2 17c5 17 7 30 8 50c0 36 22 59 52 65z" />
  </g>

</svg>
