<?xml version="1.0" standalone="no"?>
<!DOCTYPE svg PUBLIC "-//W3C//DTD SVG 1.1//EN" "http://www.w3.org/Graphics/SVG/1.1/DTD/svg11.dtd" >
<svg xmlns="http://www.w3.org/2000/svg" xmlns:xlink="http://www.w3.org/1999/xlink" version="1.1" viewBox="-10 0 1010 1000">
  <g transform="matrix(1 0 0 -1 0 800)">
   <path fill="currentColor"
d="M488 737c5 1 30 0 36 -1c82.9246 -11.0566 150.927 -72.7249 162 -165c1 -10 1 -220 0 -230c-9.60516 -80.043 -61.0732 -134.024 -127 -156c-59 -20 -125 -9 -174 29c-40 31 -64 75 -71 127c-1 9 -1 221 0 230c11.7053 90.7164 80.7726 155.641 165 165c4 0 8 1 9 1z
M562 560c-5.15539 30.9323 -30.5998 50.95 -60 52h-10c-27.7378 -5.04324 -45.9063 -21.6254 -52 -46l-2 -6v-207c5.18582 -31.1149 35.4614 -61.6347 78 -51c24.0663 6.56353 40.8994 25.4969 46 51v207zM177 424c-30.8067 -5.43647 -52 -28.5873 -52 -67
c0 -54.6187 20.3577 -116.276 45 -155c51.7813 -84.9214 143.743 -153.722 254 -175l13 -3v-18l1 -18h-65c-55 0 -66 0 -71 -1c-29.2486 -4.49979 -60.0465 -35.814 -50 -76c5.86748 -23.4699 25.5328 -44.2358 50 -48c5 -1 29 0 201 0h194
c29.2533 4.87554 53 28.4809 53 62c0 33.6038 -23.8337 57.139 -53 62h-67l-68 1v18c0 14 0 18 1 18l10 2c52 10 105 32 149 62c21 14 35 27 54 46c52.1831 52.1831 99 128.892 99 223c0 36.6003 -19.3792 58.467 -47 66c-39.263 10.3932 -78 -17.76 -78 -64
c-1 -19 -4 -33 -8 -48c-25.3657 -85.0497 -110.065 -153.665 -218 -166c-64.3215 -5.84741 -108.412 8.64509 -151 32c-63 34 -106 87 -119 147c-2 11 -3 21 -4 35c0 40.2933 -29.0585 71.2774 -73 65z" />
  </g>

</svg>
