<?xml version="1.0" standalone="no"?>
<!DOCTYPE svg PUBLIC "-//W3C//DTD SVG 1.1//EN" "http://www.w3.org/Graphics/SVG/1.1/DTD/svg11.dtd" >
<svg xmlns="http://www.w3.org/2000/svg" xmlns:xlink="http://www.w3.org/1999/xlink" version="1.1" viewBox="-10 0 1010 1000">
  <g transform="matrix(1 0 0 -1 0 800)">
   <path fill="currentColor"
d="M488 737c5 1 30 0 36 -1c83 -11 151 -73 162 -165c1 -10 1 -220 0 -230c-10 -80 -61 -134 -127 -156c-59 -20 -125 -9 -174 29c-40 31 -64 75 -71 127c-1 9 -1 221 0 230c12 91 81 156 165 165c4 0 8 1 9 1zM562 560c-5 31 -31 51 -60 52h-10c-28 -5 -46 -22 -52 -46
l-2 -6v-207c5 -31 35 -62 78 -51c24 7 41 25 46 51v207zM177 424c44 6 73 -25 73 -65c1 -14 2 -24 4 -35c13 -60 56 -113 119 -147c43 -23 87 -38 151 -32c108 12 193 81 218 166c4 15 7 29 8 48c0 46 39 74 78 64c28 -8 47 -29 47 -66c0 -94 -47 -171 -99 -223
c-19 -19 -33 -32 -54 -46c-44 -30 -97 -52 -149 -62l-10 -2c-1 0 -1 -4 -1 -18v-18l68 -1h67c29 -5 53 -28 53 -62s-24 -57 -53 -62h-194c-172 0 -196 -1 -201 0c-24 4 -44 25 -50 48c-10 40 21 72 50 76c5 1 16 1 71 1h65l-1 18v18l-13 3c-110 21 -202 90 -254 175
c-25 39 -45 100 -45 155c0 38 21 62 52 67z" />
  </g>

</svg>
