<?xml version="1.0" standalone="no"?>
<!DOCTYPE svg PUBLIC "-//W3C//DTD SVG 1.1//EN" "http://www.w3.org/Graphics/SVG/1.1/DTD/svg11.dtd" >
<svg xmlns="http://www.w3.org/2000/svg" xmlns:xlink="http://www.w3.org/1999/xlink" version="1.1" viewBox="-10 0 1010 1000">
  <g transform="matrix(1 0 0 -1 0 800)">
   <path fill="currentColor"
d="M252 690c8.65613 30.9147 36.0148 54.9963 76 45c22 -6 39 -22 45 -45c1 -5 2 -6 2 -74c0 -73 0 -79 -3 -92c-10.7867 -50.3377 -52.1863 -93.1822 -110 -98c-4 0 -32 -1 -74 -1c-58 0 -68 0 -73 1c-30.5151 4.69463 -61.468 34.1279 -51 76
c6.0896 24.3584 25.4417 43.068 51 47c5 1 15 1 70 1h65v67c0 67 1 68 2 73zM627 690c8.65613 30.9147 36.0148 54.9963 76 45c22 -6 39 -22 45 -45c1 -5 2 -6 2 -73v-67h135c25.9421 -8.64736 43.8666 -20.6553 51 -48c10.0948 -40.3793 -18.5715 -71.011 -51 -76
c-5 -1 -15 -1 -73 -1c-42 0 -70 1 -74 1c-53.8206 4.74888 -98.6454 44.0658 -110 98c-3 13 -3 19 -3 92c0 68 1 69 2 74zM262 174c60.7233 -6.50607 106.148 -52.5247 112 -113c0 -5 1 -30 1 -77c0 -68 -1 -69 -2 -74c-15.4344 -61.7374 -104.568 -61.6191 -121 0
c-1 5 -2 6 -2 73v67h-65c-55 0 -65 0 -70 1c-30.5151 4.69463 -61.468 34.1279 -51 76c6.92495 24.2373 25.0625 42.5993 50 47c4 1 17 1 73 1c43 0 71 -1 75 -1zM737 174c-58.6154 -6.51283 -105.285 -53.9412 -111 -113c0 -5 -1 -30 -1 -77c0 -68 1 -69 2 -74
c16.4057 -61.5213 105.541 -61.8375 121 0c1 5 2 6 2 73v67h135c25.9421 8.64736 43.8666 20.6553 51 48c9.48792 37.9517 -15.162 65.3873 -41 74c-10 3 -10 3 -84 3c-38 0 -71 -1 -74 -1z" />
  </g>

</svg>
