<?xml version="1.0" standalone="no"?>
<!DOCTYPE svg PUBLIC "-//W3C//DTD SVG 1.1//EN" "http://www.w3.org/Graphics/SVG/1.1/DTD/svg11.dtd" >
<svg xmlns="http://www.w3.org/2000/svg" xmlns:xlink="http://www.w3.org/1999/xlink" version="1.1" viewBox="-10 0 1010 1000">
  <g transform="matrix(1 0 0 -1 0 800)">
   <path fill="currentColor"
d="M252 690c9 31 36 55 76 45c22 -6 39 -22 45 -45c1 -5 2 -6 2 -74c0 -73 0 -79 -3 -92c-11 -50 -52 -93 -110 -98c-4 0 -32 -1 -74 -1c-58 0 -68 0 -73 1c-31 5 -61 34 -51 76c6 24 25 43 51 47c5 1 15 1 70 1h65v67c0 67 1 68 2 73zM627 690c9 31 36 55 76 45
c22 -6 39 -22 45 -45c1 -5 2 -6 2 -73v-67h135c26 -9 44 -21 51 -48c10 -40 -19 -71 -51 -76c-5 -1 -15 -1 -73 -1c-42 0 -70 1 -74 1c-54 5 -99 44 -110 98c-3 13 -3 19 -3 92c0 68 1 69 2 74zM262 174c61 -7 106 -53 112 -113c0 -5 1 -30 1 -77c0 -68 -1 -69 -2 -74
c-15 -62 -105 -62 -121 0c-1 5 -2 6 -2 73v67h-65c-55 0 -65 0 -70 1c-31 5 -61 34 -51 76c7 24 25 43 50 47c4 1 17 1 73 1c43 0 71 -1 75 -1zM737 174c3 0 36 1 74 1c74 0 74 0 84 -3c26 -9 50 -36 41 -74c-7 -27 -25 -39 -51 -48h-135v-67c0 -67 -1 -68 -2 -73
c-15 -62 -105 -62 -121 0c-1 5 -2 6 -2 74c0 47 1 72 1 77c6 59 52 106 111 113z" />
  </g>

</svg>
