<?xml version="1.0" standalone="no"?>
<!DOCTYPE svg PUBLIC "-//W3C//DTD SVG 1.1//EN" "http://www.w3.org/Graphics/SVG/1.1/DTD/svg11.dtd" >
<svg xmlns="http://www.w3.org/2000/svg" xmlns:xlink="http://www.w3.org/1999/xlink" version="1.1" viewBox="-10 0 1010 1000">
  <g transform="matrix(1 0 0 -1 0 800)">
   <path fill="currentColor"
d="M177 737c4 1 17 0 75 0h70c27.0471 -4.50784 44.4776 -22.9976 51 -48c10.3258 -41.3033 -19.9215 -70.8203 -51 -76h-69c-60 0 -71 -1 -76 0c-35.9427 5.52965 -69.9853 54.0221 -42 96c9 14 25 25 42 28zM438 675c0 33.7148 23.7213 57.1861 51 62c4 1 34 0 200 0h196
c27.0471 -4.50784 44.4776 -22.9976 51 -48c10.3258 -41.3033 -19.9215 -70.8203 -51 -76h-195c-172 0 -195 -1 -200 0c-28.4124 4.37114 -52 28.337 -52 62zM625 425c0 -33.5162 -23.7874 -57.1312 -53 -62h-226c-200 0 -226 -1 -231 0
c-37.9737 5.84211 -70.2495 53.6258 -42 96c9 14 24 25 41 28c4 1 40 0 232 0h226c29.2192 -4.86987 53 -28.5254 53 -62zM688 425c0 33.7148 23.7213 57.1861 51 62c4 1 12 0 44 0h39c25.9421 -8.64736 43.8666 -20.6553 51 -48
c9.82512 -39.3005 -18.0495 -66.9694 -45 -74l-6 -2h-38c-33 0 -39 -1 -44 0c-28.4124 4.37114 -52 28.337 -52 62zM437 175c0 -34.6641 -22.2278 -57.038 -52 -62h-101c-88 0 -102 -1 -107 0c-35.9427 5.52965 -69.9853 54.0221 -42 96c9 14 25 25 42 28c4 1 21 0 106 0
h102c29.7764 -4.96273 52 -27.3788 52 -62zM937 175c0 -34.6641 -22.2278 -57.038 -52 -62h-164c-177 0 -168 0 -178 3c-22.5972 9.03889 -43 27.6767 -43 59c0 33.8898 24.3532 57.1212 52 62c4 1 30 0 169 0h164c29.7764 -4.96273 52 -27.3788 52 -62zM562 -75
c0 -34.6641 -22.2278 -57.038 -52 -62h-195c-172 0 -195 -1 -200 0c-37.9737 5.84211 -70.2495 53.6258 -42 96c9 14 24 25 41 28c4 1 34 0 200 0h196c29.7764 -4.96273 52 -27.3788 52 -62zM677 -13c-27.2973 -4.81717 -52 -28.688 -52 -62
c0 -32.3089 24.6359 -57.7901 52 -62c5 -1 16 0 76 0h69c27.0471 4.50784 44.4776 22.9976 51 48c10.3258 41.3033 -19.9215 70.8203 -51 76h-70c-58 0 -71 1 -75 0z" />
  </g>

</svg>
