<?xml version="1.0" standalone="no"?>
<!DOCTYPE svg PUBLIC "-//W3C//DTD SVG 1.1//EN" "http://www.w3.org/Graphics/SVG/1.1/DTD/svg11.dtd" >
<svg xmlns="http://www.w3.org/2000/svg" xmlns:xlink="http://www.w3.org/1999/xlink" version="1.1" viewBox="-10 0 1010 1000">
  <g transform="matrix(1 0 0 -1 0 800)">
   <path fill="currentColor"
d="M177 737c4 1 17 0 75 0h70c27 -5 44 -23 51 -48c10 -41 -20 -71 -51 -76h-69c-60 0 -71 -1 -76 0c-36 6 -70 54 -42 96c9 14 25 25 42 28zM438 675c0 34 24 57 51 62c4 1 34 0 200 0h196c27 -5 44 -23 51 -48c10 -41 -20 -71 -51 -76h-195c-172 0 -195 -1 -200 0
c-28 4 -52 28 -52 62zM625 425c0 -34 -24 -57 -53 -62h-226c-200 0 -226 -1 -231 0c-38 6 -70 54 -42 96c9 14 24 25 41 28c4 1 40 0 232 0h226c29 -5 53 -29 53 -62zM688 425c0 34 24 57 51 62c4 1 12 0 44 0h39c26 -9 44 -21 51 -48c10 -39 -18 -67 -45 -74l-6 -2h-38
c-33 0 -39 -1 -44 0c-28 4 -52 28 -52 62zM437 175c0 -35 -22 -57 -52 -62h-101c-88 0 -102 -1 -107 0c-36 6 -70 54 -42 96c9 14 25 25 42 28c4 1 21 0 106 0h102c30 -5 52 -27 52 -62zM937 175c0 -35 -22 -57 -52 -62h-164c-177 0 -168 0 -178 3c-23 9 -43 28 -43 59
c0 34 24 57 52 62c4 1 30 0 169 0h164c30 -5 52 -27 52 -62zM562 -75c0 -35 -22 -57 -52 -62h-195c-172 0 -195 -1 -200 0c-38 6 -70 54 -42 96c9 14 24 25 41 28c4 1 34 0 200 0h196c30 -5 52 -27 52 -62zM677 -13c4 1 17 0 75 0h70c31 -5 61 -35 51 -76
c-7 -25 -24 -43 -51 -48h-69c-60 0 -71 -1 -76 0c-27 4 -52 30 -52 62c0 33 25 57 52 62z" />
  </g>

</svg>
