<?xml version="1.0" standalone="no"?>
<!DOCTYPE svg PUBLIC "-//W3C//DTD SVG 1.1//EN" "http://www.w3.org/Graphics/SVG/1.1/DTD/svg11.dtd" >
<svg xmlns="http://www.w3.org/2000/svg" xmlns:xlink="http://www.w3.org/1999/xlink" version="1.1" viewBox="-10 0 1010 1000">
  <g transform="matrix(1 0 0 -1 0 800)">
   <path fill="currentColor"
d="M114 612c4 1 62 0 388 0h383c27 -4 46 -24 51 -49c1 -5 1 -13 1 -263s0 -258 -1 -263c-5 -25 -24 -45 -51 -49h-383c-339 0 -382 -1 -387 0c-25 4 -45 24 -51 49c-1 5 -1 13 -1 263s0 258 1 263c6 25 25 44 50 49zM188 488v-63h4c28 -2 52 -24 57 -49c1 -5 1 -9 1 -76
s0 -71 -1 -76c-5 -25 -29 -47 -57 -49h-4v-63h624v376h-624zM708 362c31 6 63 -14 71 -45c9 -32 -8 -65 -40 -76c-38 -13 -82 14 -82 59c0 34 23 57 51 62z" />
  </g>

</svg>
