<?xml version="1.0" standalone="no"?>
<!DOCTYPE svg PUBLIC "-//W3C//DTD SVG 1.1//EN" "http://www.w3.org/Graphics/SVG/1.1/DTD/svg11.dtd" >
<svg xmlns="http://www.w3.org/2000/svg" xmlns:xlink="http://www.w3.org/1999/xlink" version="1.1" viewBox="-10 0 1010 1000">
  <g transform="matrix(1 0 0 -1 0 800)">
   <path fill="currentColor"
d="M239 737c4 1 44 0 263 0h258c27 -4 46 -24 51 -49c1 -5 1 -16 1 -388s0 -383 -1 -388c-5 -25 -24 -45 -51 -49h-258c-228 0 -257 -1 -262 0c-26 4 -45 24 -51 49c-1 5 -1 16 -1 388s0 383 1 388c6 25 25 44 50 49zM312 612v-624h376v624h-63v-4c-2 -27 -21 -49 -47 -56
l-6 -2h-69c-60 0 -71 0 -76 1c-27 4 -50 29 -52 57v4h-63zM489 143c72 9 102 -89 37 -119c-24 -11 -51 -6 -70 13c-24 24 -25 65 0 89c9 9 20 15 33 17z" />
  </g>

</svg>
