<?xml version="1.0" standalone="no"?>
<!DOCTYPE svg PUBLIC "-//W3C//DTD SVG 1.1//EN" "http://www.w3.org/Graphics/SVG/1.1/DTD/svg11.dtd" >
<svg xmlns="http://www.w3.org/2000/svg" xmlns:xlink="http://www.w3.org/1999/xlink" version="1.1" viewBox="-10 0 1010 1000">
  <g transform="matrix(1 0 0 -1 0 800)">
   <path fill="currentColor"
d="M476 737c102 6 204 -25 285 -86c48 -36 89 -81 119 -133c66 -114 75 -255 27 -378c-33.1228 -83.9112 -89.8359 -153.592 -160 -201c-86 -58 -188 -84 -291 -74c-89 9 -174 45 -242 104c-102.104 83.5396 -162.888 233.809 -149 375c9 92 47 179 109 248
c72.3508 80.3898 185.342 138.987 302 145zM483 612c-79 -5 -150 -36 -205 -92c-83 -83 -111 -207 -74 -319c24 -72 74 -134 140 -172s143 -50 218 -35c101.357 20.0356 190.883 92.8954 229 192c41 104 23 222 -47 309c-60 75 -151 118 -246 117h-15zM427 460
c23 -35 7 -82 -33 -95c-35.8735 -10.6292 -70.3192 12.1174 -80 46c-15.6817 62.7269 72.457 106.919 113 49zM563 425c0 64.9624 80.5585 82.7735 114 35c23 -35 7 -82 -33 -95c-37.7764 -11.193 -81 15.1621 -81 60zM577 238c-88.3245 -3.60508 -179.42 -34.7408 -237 -74
c-16.0826 -10.7218 -27 -26.2303 -27 -52c0 -39.7383 31.5709 -64.2286 65 -62c8 0 15 2 21 5l14 7c61 36 129 54 198 51c44.7568 -2.63275 76 18.7312 76 62c0 30.8508 -17.5757 50.8586 -42 59c-13.2154 3.77582 -48.0069 5.11073 -68 4z" />
  </g>

</svg>
