<?xml version="1.0" standalone="no"?>
<!DOCTYPE svg PUBLIC "-//W3C//DTD SVG 1.1//EN" "http://www.w3.org/Graphics/SVG/1.1/DTD/svg11.dtd" >
<svg xmlns="http://www.w3.org/2000/svg" xmlns:xlink="http://www.w3.org/1999/xlink" version="1.1" viewBox="-10 0 1010 1000">
  <g transform="matrix(1 0 0 -1 0 800)">
   <path fill="currentColor"
d="M476 737c102 6 204 -25 285 -86c48 -36 89 -81 119 -133c66 -114 75 -255 27 -378c-33 -84 -90 -154 -160 -201c-86 -58 -188 -84 -291 -74c-89 9 -174 45 -242 104c-102 84 -163 234 -149 375c20.549 210.056 195.029 381.925 411 393zM483 612
c-79 -5 -150 -36 -205 -92c-83 -83 -111 -207 -74 -319c24 -72 74 -134 140 -172s143 -50 218 -35c101 20 191 93 229 192c41 104 23 222 -47 309c-60 75 -151 118 -246 117h-15zM427 460c23 -35 7 -82 -33 -95c-36 -11 -70 12 -80 46c-16 63 72 107 113 49zM563 425
c0 65 81 83 114 35c23 -35 7 -82 -33 -95c-38 -11 -81 15 -81 60zM577 238c20 1 55 0 68 -4c24 -8 42 -28 42 -59c0 -43 -31 -65 -76 -62c-69 3 -137 -15 -198 -51l-14 -7c-6 -3 -13 -5 -21 -5c-33 -2 -65 22 -65 62c0 26 11 41 27 52c58 39 149 70 237 74z" />
  </g>

</svg>
