<?xml version="1.0" standalone="no"?>
<!DOCTYPE svg PUBLIC "-//W3C//DTD SVG 1.1//EN" "http://www.w3.org/Graphics/SVG/1.1/DTD/svg11.dtd" >
<svg xmlns="http://www.w3.org/2000/svg" xmlns:xlink="http://www.w3.org/1999/xlink" version="1.1" viewBox="-10 0 1010 1000">
  <g transform="matrix(1 0 0 -1 0 800)">
   <path fill="currentColor"
d="M475 737c15 1 29 1 35 0c29.5209 -4.72335 61.4082 -34.3671 51 -76c-5.42767 -21.7107 -26.5912 -38.8868 -38 -56c-26.4689 -40.3336 -42 -85.8297 -42 -152c0 -64.3902 13.0627 -106.5 39 -148c33.5432 -55.2477 98.1955 -88.9411 181 -95
c56.4315 -5.64315 104.237 5.68674 146 21c12 4 16 6 25 6c42.0842 2.47554 75.1679 -40.615 62 -82c-23.881 -47.762 -51.2063 -91.7321 -87 -132c-74.1431 -82.3812 -181.86 -146.572 -296 -166c-123 -21 -244 5 -334 72c-82.4843 60.9667 -143.318 172.066 -156 301
c-1 15 -2 64 -1 78c1 15 4 29 6 41c33.5116 201.07 183.309 373.152 409 388zM368 582c-95.4063 -46.6882 -168.362 -151.31 -182 -276c-17.0444 -204.533 114.592 -353.416 323 -328c81.7684 9.19894 162.816 45.8155 223 106h-14c-87.0071 0 -174.478 32.354 -228 72
c-46.2445 34.1807 -76.6173 76.5849 -101 132c-23.6891 56.5907 -38.9184 114.061 -33 191c2.14547 37.5457 9.87019 76.6106 20 107l-8 -4z" />
  </g>

</svg>
