<?xml version="1.0" standalone="no"?>
<!DOCTYPE svg PUBLIC "-//W3C//DTD SVG 1.1//EN" "http://www.w3.org/Graphics/SVG/1.1/DTD/svg11.dtd" >
<svg xmlns="http://www.w3.org/2000/svg" xmlns:xlink="http://www.w3.org/1999/xlink" version="1.1" viewBox="-10 0 1010 1000">
  <g transform="matrix(1 0 0 -1 0 800)">
   <path fill="currentColor"
d="M475 737c15 1 29 1 35 0c30 -5 61 -34 51 -76c-5 -22 -27 -39 -38 -56c-26 -40 -42 -86 -42 -152c0 -147.855 80.3029 -232.901 220 -243c56 -6 104 6 146 21c12 4 16 6 25 6c42 2 75 -41 62 -82c-24 -48 -51 -92 -87 -132c-74 -82 -182 -147 -296 -166
c-123 -21 -244 5 -334 72c-82 61 -143 172 -156 301c-1 15 -2 64 -1 78c1 15 4 29 6 41c34 201 183 373 409 388zM368 582c-95 -47 -168 -151 -182 -276c-17 -205 115 -353 323 -328c82 9 163 46 223 106h-14c-87 0 -174 32 -228 72c-46 34 -77 77 -101 132
c-24 57 -39 114 -33 191c2 38 10 77 20 107z" />
  </g>

</svg>
