<?xml version="1.0" standalone="no"?>
<!DOCTYPE svg PUBLIC "-//W3C//DTD SVG 1.1//EN" "http://www.w3.org/Graphics/SVG/1.1/DTD/svg11.dtd" >
<svg xmlns="http://www.w3.org/2000/svg" xmlns:xlink="http://www.w3.org/1999/xlink" version="1.1" viewBox="-10 0 1010 1000">
  <g transform="matrix(1 0 0 -1 0 800)">
   <path fill="currentColor"
d="M21 133c0 109 84 182 177 187c5 0 8 1 8 1c-1 2 -16 47 -17 49c-7 42 18 69 50 75h184c101 0 184 1 184 1s-4 10 -10 21l-11 20l-27 1c-27 0 -27 -1 -33 1c-26 7 -46 28 -46 61c0 35 23 56 52 62c3 1 15 0 53 0h50c18 -6 31 -12 42 -28c2 -3 32 -63 68 -134l65 -130h3
c90 -11 153 -76 165 -165c6 -70 -15 -115 -54 -154c-30 -30 -69 -49 -111 -54c-45 -4 -74 4 -105 19c-50 25 -86 71 -99 126c-3 14 -4 23 -4 41c0 59 23 102 54 133c9 9 22 19 26 21c2 0 -1 4 -1 4l-61 -61c-67 -67 -66 -66 -78 -71s-9 -5 -83 -5h-67v-19
c0 -41 -6 -61 -20 -88c-29 -56 -84 -93 -147 -100c-17 -2 -40 0 -57 3c-74 15 -131 72 -146 146c-3 12 -4 23 -4 37zM505 321l-42 -42h32l42 42h-32zM196 195c-32 -7 -53 -36 -50 -68c4 -39 43 -65 80 -54c21 6 36 23 42 44c10 41 -15 78 -58 78c-7 0 -11 1 -14 0zM781 195
c-34 -5 -59 -37 -49 -78c7 -24 29 -46 59 -46c35 0 63 28 63 63c0 32 -23 55 -50 61c-5 1 -18 1 -23 0z" />
  </g>

</svg>
