<svg width="16" height="16" viewBox="0 0 16 16" fill="none" xmlns="http://www.w3.org/2000/svg">
<path d="M3.33334 12.6667C4.43791 12.6667 5.33334 11.7712 5.33334 10.6667C5.33334 9.56209 4.43791 8.66666 3.33334 8.66666C2.22877 8.66666 1.33334 9.56209 1.33334 10.6667C1.33334 11.7712 2.22877 12.6667 3.33334 12.6667Z" stroke="#24282B" stroke-width="2" stroke-linecap="round" stroke-linejoin="round"/>
<path d="M12.6667 12.6667C13.7712 12.6667 14.6667 11.7712 14.6667 10.6667C14.6667 9.56209 13.7712 8.66666 12.6667 8.66666C11.5621 8.66666 10.6667 9.56209 10.6667 10.6667C10.6667 11.7712 11.5621 12.6667 12.6667 12.6667Z" stroke="#24282B" stroke-width="2" stroke-linecap="round" stroke-linejoin="round"/>
<path d="M5 9.33333L7.66667 6.66666M5 9.33333H8.33333L11 6.66666H4L5 9.33333Z" stroke="#24282B" stroke-width="2" stroke-linecap="round" stroke-linejoin="round"/>
<path d="M8.66666 4H10L11 6L12.3333 8.66667" stroke="#24282B" stroke-width="2" stroke-linecap="round" stroke-linejoin="round"/>
</svg>
