<?xml version="1.0" standalone="no"?>
<!DOCTYPE svg PUBLIC "-//W3C//DTD SVG 1.1//EN" "http://www.w3.org/Graphics/SVG/1.1/DTD/svg11.dtd" >
<svg xmlns="http://www.w3.org/2000/svg" xmlns:xlink="http://www.w3.org/1999/xlink" version="1.1" viewBox="-10 0 1010 1000">
  <g transform="matrix(1 0 0 -1 0 800)">
   <path fill="currentColor"
d="M21 133c0 109.035 84.0617 182.41 177 187c5 0 8 1 8 1c-0.660569 1.89913 -16.0858 47.1716 -17 49c-7.00743 42.0446 18.1904 68.6381 50 75h184c101 0 184 1 184 1s-4 10 -10 21l-11 20l-27 1c-27 0 -27 -1 -33 1c-26.1623 7.13517 -46 27.552 -46 61
c0 22.2752 5.41333 31.4133 17 43c9 10 21 16 35 19c3 1 15 0 53 0h50c18.1645 -6.05482 31.0581 -12.1951 42 -28c2 -3 32 -63 68 -134l65 -130h3c89.9123 -11.239 153.396 -76.0339 165 -165c6.36002 -69.9602 -15.1479 -115.148 -54 -154c-30 -30 -69 -49 -111 -54
c-44.925 -4.08409 -74.1648 4.31655 -105 19c-50 25 -86 71 -99 126c-3 14 -4 23 -4 41c0 59.3483 22.6889 101.689 54 133c9 9 22 19 26 21c2.26058 0 -0.722628 3.72263 -1 4l-61 -61c-67 -67 -66 -66 -78 -71s-9 -5 -83 -5h-67v-19c0 -41.0149 -6.25777 -60.5155 -20 -88
c-29 -56 -84 -93 -147 -100c-17 -2 -40 0 -57 3c-74 15 -131 72 -146 146c-3 12 -4 23 -4 37zM505 321l-42 -42h32l42 42h-32zM196 195c-32 -7 -53 -36 -50 -68c4 -39 43 -65 80 -54c21 6 36 23 42 44c10.3173 41.2693 -14.5447 78 -58 78c-7 0 -11 1 -14 0zM781 195
c-33.857 -5.41712 -59.2376 -37.0494 -49 -78c6.64392 -24.361 28.5545 -46 59 -46c35.4529 0 63 27.549 63 63c0 32.4682 -23.4504 55.4688 -50 61c-5 1 -18 1 -23 0z" />
  </g>

</svg>
