<?xml version="1.0" standalone="no"?>
<!DOCTYPE svg PUBLIC "-//W3C//DTD SVG 1.1//EN" "http://www.w3.org/Graphics/SVG/1.1/DTD/svg11.dtd" >
<svg xmlns="http://www.w3.org/2000/svg" xmlns:xlink="http://www.w3.org/1999/xlink" version="1.1" viewBox="-10 0 1010 1000">
  <g transform="matrix(1 0 0 -1 0 800)">
   <path fill="currentColor"
d="M362 737h141c151 0 141 1 159 -3c73 -15 132 -74 147 -147c4 -19 3 1 3 -287s1 -268 -3 -287c-17 -81 -81 -138 -163 -149c-9 -1 -283 -1 -292 0c-94 11 -154 81 -165 165c-1 10 -1 532 0 542c11 88 77 156 173 166zM687 560c-5 28 -24 47 -52 52h-267
c-28 -4 -50 -24 -55 -52v-520c5 -28 25 -47 53 -52h269c27 5 47 25 52 52v520zM489 549c40 6 66 -19 72 -48c1 -5 1 -9 1 -76s0 -71 -1 -76c-6 -28 -30 -48 -58 -49c-30 -2 -57 19 -64 49c-1 5 -1 9 -1 76s0 71 1 76c6 25 25 43 50 48z" />
  </g>

</svg>
