<?xml version="1.0" standalone="no"?>
<!DOCTYPE svg PUBLIC "-//W3C//DTD SVG 1.1//EN" "http://www.w3.org/Graphics/SVG/1.1/DTD/svg11.dtd" >
<svg xmlns="http://www.w3.org/2000/svg" xmlns:xlink="http://www.w3.org/1999/xlink" version="1.1" viewBox="-10 0 1010 1000">
  <g transform="matrix(1 0 0 -1 0 800)">
   <path fill="currentColor"
d="M362 737h141c151 0 141 1 159 -3c73 -15 132 -74 147 -147c4 -19 3 1 3 -287s1 -268 -3 -287c-17.37 -81.0598 -81.4536 -138.023 -163 -149c-9 -1 -283 -1 -292 0c-94.0834 10.8558 -153.933 80.6124 -165 165c-1 10 -1 532 0 542
c11.0411 88.329 76.6998 155.589 173 166zM687 560c-4.94401 27.9374 -24.0828 47.0394 -52 52h-267c-28.089 -3.74519 -50.3634 -24.1804 -55 -52v-520c5.05238 -27.6151 25.4485 -46.888 53 -52h269c27.1961 5.18309 46.8096 24.8129 52 52v520zM489 549
c-25 -5 -44 -23 -50 -48c-1 -5 -1 -9 -1 -76s0 -71 1 -76c7 -30 34 -51 64 -49c28 1 52 21 58 49c1 5 1 9 1 76s0 71 -1 76c-6.35702 29.2423 -32.2598 53.6772 -72 48z" />
  </g>

</svg>
