<?xml version="1.0" standalone="no"?>
<!DOCTYPE svg PUBLIC "-//W3C//DTD SVG 1.1//EN" "http://www.w3.org/Graphics/SVG/1.1/DTD/svg11.dtd" >
<svg xmlns="http://www.w3.org/2000/svg" xmlns:xlink="http://www.w3.org/1999/xlink" version="1.1" viewBox="-10 0 1010 1000">
  <g transform="matrix(1 0 0 -1 0 800)">
   <path fill="currentColor"
d="M114 674c4 1 48 1 294 1h289c25 -8 44 -21 51 -48c1 -5 2 -5 2 -72v-67l67 -1h68c27 -4 46 -24 51 -49c1 -5 1 -11 1 -169s0 -165 -1 -170c-6 -27 -25 -40 -51 -49h-135v-8c-4 -76 -45 -129 -101 -158c-18 -9 -38 -16 -58 -19c-15 -2 -20 -2 -190 -2
c-184 0 -170 0 -190 4c-77 17 -130 74 -145 146c-4 19 -3 -3 -3 315c0 283 0 293 1 298c6 25 25 43 50 48zM572 -12c28 4 47 25 53 52v510h-438l1 -255v-255c5 -28 25 -47 53 -52h331zM750 362v-187h62v187h-62z" />
  </g>

</svg>
