<?xml version="1.0" standalone="no"?>
<!DOCTYPE svg PUBLIC "-//W3C//DTD SVG 1.1//EN" "http://www.w3.org/Graphics/SVG/1.1/DTD/svg11.dtd" >
<svg xmlns="http://www.w3.org/2000/svg" xmlns:xlink="http://www.w3.org/1999/xlink" version="1.1" viewBox="-10 0 1010 1000">
  <g transform="matrix(1 0 0 -1 0 800)">
   <path fill="currentColor"
d="M114 674c4 1 48 1 294 1h289c25.0298 -8.34327 43.9165 -20.8467 51 -48c1 -5 2 -5 2 -72v-67l67 -1h68c26.9752 -4.49587 45.5523 -23.9407 51 -49c1 -5 1 -11 1 -169s0 -165 -1 -170c-5.95755 -27.4047 -25.1979 -40.3993 -51 -49h-135v-8
c-3.80605 -76.121 -45.2173 -129.428 -101 -158c-18 -9 -38 -16 -58 -19c-15 -2 -20 -2 -190 -2c-184 0 -170 0 -190 4c-77.3407 17.1868 -130.124 74.3258 -145 146c-4 19 -3 -3 -3 315c0 283 0 293 1 298c6 25 25 43 50 48zM572 -12
c28.2651 4.46995 46.7967 25.4879 53 52v510h-438l1 -255v-255c5.05238 -27.6151 25.4485 -46.888 53 -52h331zM750 269v-94h62v187h-62v-93z" />
  </g>

</svg>
