<?xml version="1.0" standalone="no"?>
<!DOCTYPE svg PUBLIC "-//W3C//DTD SVG 1.1//EN" "http://www.w3.org/Graphics/SVG/1.1/DTD/svg11.dtd" >
<svg xmlns="http://www.w3.org/2000/svg" xmlns:xlink="http://www.w3.org/1999/xlink" version="1.1" viewBox="-10 0 1010 1000">
  <g transform="matrix(1 0 0 -1 0 800)">
   <path fill="currentColor"
d="M313 685c6 28 26 48 51 52c4 1 40 0 232 0h226c27 -4 47 -24 52 -49c1 -5 1 -15 1 -329c0 -352 0 -327 -4 -346c-13 -61 -49 -103 -97 -129c-64 -34 -144 -27 -201 18c-40 31 -65 75 -72 127c-6 46 6 85 23 113c30 53 81 86 142 94c30 3 64 -2 83 -9c1 0 1 5 1 99v99
h-312l-1 -196c0 -180 0 -197 -1 -203c-11 -68 -47 -114 -99 -142c-64 -34 -145 -27 -202 18c-40 31 -64 75 -71 127c-1 8 -1 34 0 42c4 26 10 51 22 71c30 53 82 86 143 94c30 3 63 -2 82 -9c1 0 2 12 2 229v229zM438 612v-62h312v62h-312zM312 50c0 37 -28 61 -60 62h-10
c-32 -6 -54 -28 -54 -62c0 -40 33 -71 78 -60c25 7 46 28 46 60zM680 112c-32 -6 -55 -27 -55 -62c0 -40 34 -71 78 -60c26 7 47 27 47 60c0 37 -29 61 -61 62h-9z" />
  </g>

</svg>
