<?xml version="1.0" standalone="no"?>
<!DOCTYPE svg PUBLIC "-//W3C//DTD SVG 1.1//EN" "http://www.w3.org/Graphics/SVG/1.1/DTD/svg11.dtd" >
<svg xmlns="http://www.w3.org/2000/svg" xmlns:xlink="http://www.w3.org/1999/xlink" version="1.1" viewBox="-10 0 1010 1000">
  <g transform="matrix(1 0 0 -1 0 800)">
   <path fill="currentColor"
d="M313 685c5.58912 27.9456 25.5094 47.7516 51 52c4 1 40 0 232 0h226c26.912 -4.48533 46.5624 -23.9869 52 -49c1 -5 1 -15 1 -329c0 -352 0 -327 -4 -346c-12.8592 -61.0812 -48.8657 -103.429 -97 -129c-64 -34 -144 -27 -201 18c-40 31 -65 75 -72 127
c-5.72101 45.768 6.32792 85.2132 23 113c30 53 81 86 142 94c29.8482 2.98482 63.8399 -1.81496 83 -9c1 0 1 5 1 99v99h-312l-1 -196c0 -180 0 -197 -1 -203c-10.5667 -67.6268 -47.2475 -114.275 -99 -142c-64 -34 -145 -27 -202 18c-40 31 -64 75 -71 127
c-1 8 -1 34 0 42c4 26 10 51 22 71c30 53 82 86 143 94c29.6782 2.96782 63.0901 -1.90878 82 -9c1 0 2 12 2 229v229zM438 612v-62h312v62h-312zM312 50c0 37.2901 -27.9945 60.8569 -60 62h-10c-31.6234 -5.7497 -54 -27.5216 -54 -62c0 -40.2982 33.4612 -71.1347 78 -60
c25.3005 6.90015 46 28.1169 46 60zM680 112c-32.2671 -5.86674 -55 -26.7967 -55 -62c0 -40.1462 33.8329 -71.0418 78 -60c25.8705 7.0556 47 27.3886 47 60c0 37.475 -28.8474 60.8517 -61 62h-9z" />
  </g>

</svg>
