<?xml version="1.0" standalone="no"?>
<!DOCTYPE svg PUBLIC "-//W3C//DTD SVG 1.1//EN" "http://www.w3.org/Graphics/SVG/1.1/DTD/svg11.dtd" >
<svg xmlns="http://www.w3.org/2000/svg" xmlns:xlink="http://www.w3.org/1999/xlink" version="1.1" viewBox="-10 0 1010 1000">
  <g transform="matrix(1 0 0 -1 0 800)">
   <path fill="currentColor"
d="M324 612c42 4 80 -17 100 -47c1 -2 16 -29 34 -61l32 -58h156v53c0 54 0 59 2 68c6 23 28 42 52 45c32 4 63 -17 70 -51l1 -58v-57h16c33 0 50 -13 61 -36c17 -39 -5 -73 -32 -84c-10 -4 -17 -5 -34 -5h-11v-42h11c21 0 31 -2 43 -9c45 -27 36 -98 -17 -114
c-5 -2 -6 -2 -21 -2h-16v-37c0 -35 -1 -37 -2 -43c-9 -42 -40 -75 -82 -84c-3 -1 -9 -2 -14 -2c-37 -3 -76 15 -97 47c-1 2 -16 29 -34 61l-32 58h-156v-111c-4 -38 -41 -62 -78 -53c-24 6 -41 24 -46 49l-1 58v57h-16c-40 0 -63 25 -67 57c-3 28 15 56 42 65c8 3 12 3 27 3
l14 1v40l-14 1c-27 0 -40 5 -53 20c-17 18 -21 46 -10 69s28 36 61 36h16v37c0 35 1 37 2 43c10 46 47 81 93 86zM354 321v-42h86c-3 6 -7 12 -14 25l-9 17h-63zM560 321c3 -6 7 -12 14 -25l9 -17h63v42h-86z" />
  </g>

</svg>
