<svg width="16" height="16" viewBox="0 0 16 16" fill="none" xmlns="http://www.w3.org/2000/svg">
<path d="M4.66667 12V4.70133C4.66662 4.54622 4.7181 4.39548 4.81302 4.27279C4.90793 4.1501 5.04091 4.06242 5.19107 4.0235C5.34122 3.98459 5.50005 3.99666 5.64261 4.0578C5.78517 4.11895 5.90337 4.22572 5.97867 4.36133L10.0213 11.6387C10.0966 11.7743 10.2148 11.881 10.3574 11.9422C10.5 12.0033 10.6588 12.0154 10.8089 11.9765C10.9591 11.9376 11.0921 11.8499 11.187 11.7272C11.2819 11.6045 11.3334 11.4538 11.3333 11.2987V4M3.33334 6.66667H12.6667M3.33334 9.33333H12.6667" stroke="#24282B" stroke-width="2" stroke-linecap="round" stroke-linejoin="round"/>
</svg>
