<?xml version="1.0" standalone="no"?>
<!DOCTYPE svg PUBLIC "-//W3C//DTD SVG 1.1//EN" "http://www.w3.org/Graphics/SVG/1.1/DTD/svg11.dtd" >
<svg xmlns="http://www.w3.org/2000/svg" xmlns:xlink="http://www.w3.org/1999/xlink" version="1.1" viewBox="-10 0 1010 1000">
  <g transform="matrix(1 0 0 -1 0 800)">
   <path fill="currentColor"
d="M324 612c41.5431 4.0203 80.1177 -17.1766 100 -47c1 -2 16 -29 34 -61l32 -58h156v53c0 54 0 59 2 68c6 23 28 42 52 45c32.4467 4.18667 63.1569 -16.7845 70 -51l1 -58v-57h16c33.3898 0 50.1525 -12.949 61 -36c16.9078 -38.6465 -4.67246 -73.069 -32 -84
c-10 -4 -17 -5 -34 -5h-11v-42h11c21 0 31 -2 43 -9c45.0319 -27.0191 35.5942 -97.9295 -17 -114c-5 -2 -6 -2 -21 -2h-16v-37c0 -35 -1 -37 -2 -43c-9 -42 -40 -75 -82 -84c-3 -1 -9 -2 -14 -2c-37 -3 -76 15 -97 47c-1 2 -16 29 -34 61l-32 58h-156v-111
c-4 -38 -41 -62 -78 -53c-23.7568 6.47912 -40.9591 23.7953 -46 49l-1 58v57h-16c-40.0727 0 -63.3095 25.016 -67 57c-3 28 15 56 42 65c8 3 12 3 27 3l14 1v40l-14 1c-26.6061 0 -39.6893 5.21038 -53 20c-17 18 -21 46 -10 69c10.8128 22.9773 27.8512 36 61 36h16v37
c0 35 1 37 2 43c10 46 47 81 93 86zM354 321v-42h86c-3.225 6.45 -7.00932 12.4168 -14 25l-9 17h-63zM562 317c1 -2 7 -12 12 -21l9 -17h63v42h-86l2 -4z" />
  </g>

</svg>
