<?xml version="1.0" standalone="no"?>
<!DOCTYPE svg PUBLIC "-//W3C//DTD SVG 1.1//EN" "http://www.w3.org/Graphics/SVG/1.1/DTD/svg11.dtd" >
<svg xmlns="http://www.w3.org/2000/svg" xmlns:xlink="http://www.w3.org/1999/xlink" version="1.1" viewBox="-10 0 1010 1000">
  <g transform="matrix(1 0 0 -1 0 800)">
   <path fill="currentColor"
d="M802 674c-9 -2 -17 -5 -25 -10c-2 -1 -36 -34 -91 -89l-87 -87h-208c-184 0 -209 0 -214 -1c-29.2486 -4.49979 -60.0465 -35.814 -50 -76c5.86748 -23.4699 25.5328 -44.2358 50 -48c5 -1 23 -1 151 -1h146c-41.4065 -41.5935 -83.0731 -82.9269 -125 -124h-83
c-89 0 -88 -1 -98 -4c-22.5972 -9.03889 -43 -27.6767 -43 -59c0 -31.2212 20.3021 -49.9209 43 -59c8 -3 13 -4 35 -4h21l-43 -42c-36 -36 -43 -43 -46 -48c-7.24214 -10.8632 -12.5813 -30.6747 -8 -49c9.57799 -41.0485 60.9294 -64.0549 97 -36c2 2 42 41 90 89l87 86
l211 1h210c29.2533 4.87554 53 28.4809 53 62c0 33.6038 -23.8337 57.139 -53 62l-148 1h-148c41.9232 41.0768 83.5972 82.4028 125 124l86 1h85c29.2533 4.87554 53 28.4809 53 62c0 31.5425 -22.5812 53.3403 -47 60c-6 2 -6 2 -29 2l-23 1l43 42c36 36 43 43 46 48
c30.4873 45.731 -9.66476 103.619 -63 96z" />
  </g>

</svg>
