<?xml version="1.0" standalone="no"?>
<!DOCTYPE svg PUBLIC "-//W3C//DTD SVG 1.1//EN" "http://www.w3.org/Graphics/SVG/1.1/DTD/svg11.dtd" >
<svg xmlns="http://www.w3.org/2000/svg" xmlns:xlink="http://www.w3.org/1999/xlink" version="1.1" viewBox="-10 0 1010 1000">
  <g transform="matrix(1 0 0 -1 0 800)">
   <path fill="currentColor"
d="M777 664c58 36 125 -30 88 -86c-3 -5 -10 -12 -46 -48l-43 -42l23 -1c23 0 23 0 29 -2c24 -7 47 -28 47 -60c0 -34 -24 -57 -53 -62h-85l-86 -1c-41 -42 -83 -83 -125 -124h148l148 -1c29 -5 53 -28 53 -62s-24 -57 -53 -62h-210l-211 -1l-87 -86
c-48 -48 -88 -87 -90 -89c-36 -28 -87 -5 -97 36c-5 18 1 38 8 49c3 5 10 12 46 48l43 42h-21c-22 0 -27 1 -35 4c-23 9 -43 28 -43 59s20 50 43 59c10 3 9 4 98 4h83c42 41 84 82 125 124h-146c-128 0 -146 0 -151 1c-24 4 -44 25 -50 48c-10 40 21 72 50 76
c5 1 30 1 214 1h208l87 87c55 55 89 88 91 89z" />
  </g>

</svg>
