<?xml version="1.0" standalone="no"?>
<!DOCTYPE svg PUBLIC "-//W3C//DTD SVG 1.1//EN" "http://www.w3.org/Graphics/SVG/1.1/DTD/svg11.dtd" >
<svg xmlns="http://www.w3.org/2000/svg" xmlns:xlink="http://www.w3.org/1999/xlink" version="1.1" viewBox="-10 0 1010 1000">
  <g transform="matrix(1 0 0 -1 0 800)">
   <path fill="currentColor"
d="M114 737c4 1 62 0 388 0h383c26.9752 -4.49587 45.5523 -23.9407 51 -49c1 -5 1 -13 1 -232s0 -227 -1 -232c-2 -7 -5 -14 -9 -20c-5.41255 -9.02092 -326.297 -328.532 -327 -329c-7.71632 -6.43027 -16.5471 -10.0912 -28 -12h-226c-200 0 -226 -1 -231 0
c-25.6715 3.94946 -44.8583 24.4332 -51 49c-1 5 -1 16 -1 388s0 383 1 388c6 25 25 44 50 49zM188 612v-624h312v259c5.46395 13.6599 9.15296 25.153 19 35c9 9 20 15 33 17c5 1 22 1 133 1h127v312h-624zM625 125v-49l99 99h-99v-50z" />
  </g>

</svg>
