<?xml version="1.0" standalone="no"?>
<!DOCTYPE svg PUBLIC "-//W3C//DTD SVG 1.1//EN" "http://www.w3.org/Graphics/SVG/1.1/DTD/svg11.dtd" >
<svg xmlns="http://www.w3.org/2000/svg" xmlns:xlink="http://www.w3.org/1999/xlink" version="1.1" viewBox="-10 0 1010 1000">
  <g transform="matrix(1 0 0 -1 0 800)">
   <path fill="currentColor"
d="M114 737c4 1 62 0 388 0h383c27 -4 46 -24 51 -49c1 -5 1 -13 1 -232s0 -227 -1 -232c-2 -7 -5 -14 -9 -20c-5 -9 -326 -329 -327 -329c-8 -6 -17 -10 -28 -12h-226c-200 0 -226 -1 -231 0c-26 4 -45 24 -51 49c-1 5 -1 16 -1 388s0 383 1 388c6 25 25 44 50 49zM188 612
v-624h312v259c9 25 23 48 52 52c5 1 22 1 133 1h127v312h-624zM625 175v-99l99 99h-99z" />
  </g>

</svg>
