<?xml version="1.0" standalone="no"?>
<!DOCTYPE svg PUBLIC "-//W3C//DTD SVG 1.1//EN" "http://www.w3.org/Graphics/SVG/1.1/DTD/svg11.dtd" >
<svg xmlns="http://www.w3.org/2000/svg" xmlns:xlink="http://www.w3.org/1999/xlink" version="1.1" viewBox="-10 0 1010 1000">
  <g transform="matrix(1 0 0 -1 0 800)">
   <path fill="currentColor"
d="M705 737h13c113.775 1.99605 205.456 -85.2392 218 -195c6.52845 -58.756 -9.13532 -101.341 -32 -139c-31.8249 -52.4175 -89.4213 -93.4613 -162 -102c-9 -1 -37 -1 -46 0c-106.069 13.5986 -182.762 87.9208 -195 195c-1 9 -1 37 0 46
c12.2568 105.408 94.3528 186.566 204 195zM114 612c4 1 26 0 138 0h133c27.0471 -4.50784 44.4776 -22.9976 51 -48c10.3258 -41.3033 -19.9215 -70.8203 -51 -76h-99l-98 -1v-499h499l1 98v99c6.60482 33.0241 33.062 53.0646 65 52c28 -1 52 -21 58 -49
c1 -5 1 -10 1 -138s0 -133 -1 -138c-5.44627 -25.0528 -24.0371 -44.5062 -51 -49h-320c-284 0 -320 -1 -325 0c-25.6715 3.94946 -44.8583 24.4332 -51 49c-1 5 -1 15 -1 326s0 320 1 325c6 25 25 44 50 49zM706 612c-60.6252 -8.84118 -101.745 -77.0459 -70 -136
c13 -26 37 -44 66 -50c22.1516 -5.53791 44.9126 1.95632 59 9c26 13 44 38 50 67c2 8 2 25 0 33c-8.15498 44.2699 -46.946 84.2567 -105 77z" />
  </g>

</svg>
