<?xml version="1.0" standalone="no"?>
<!DOCTYPE svg PUBLIC "-//W3C//DTD SVG 1.1//EN" "http://www.w3.org/Graphics/SVG/1.1/DTD/svg11.dtd" >
<svg xmlns="http://www.w3.org/2000/svg" xmlns:xlink="http://www.w3.org/1999/xlink" version="1.1" viewBox="-10 0 1010 1000">
  <g transform="matrix(1 0 0 -1 0 800)">
   <path fill="currentColor"
d="M705 737h13c114 2 205 -85 218 -195c7 -59 -9 -101 -32 -139c-32 -52 -89 -93 -162 -102c-9 -1 -37 -1 -46 0c-106 14 -183 88 -195 195c-1 9 -1 37 0 46c12 105 94 187 204 195zM114 612c4 1 26 0 138 0h133c27 -5 44 -23 51 -48c10 -41 -20 -71 -51 -76h-99l-98 -1
v-499h499l1 98v99c7 33 33 53 65 52c28 -1 52 -21 58 -49c1 -5 1 -10 1 -138s0 -133 -1 -138c-5 -25 -24 -45 -51 -49h-320c-284 0 -320 -1 -325 0c-26 4 -45 24 -51 49c-1 5 -1 15 -1 326s0 320 1 325c6 25 25 44 50 49zM706 612c-61 -9 -102 -77 -70 -136
c13 -26 37 -44 66 -50c22 -6 45 2 59 9c26 13 44 38 50 67c2 8 2 25 0 33c-8 44 -47 84 -105 77z" />
  </g>

</svg>
