<?xml version="1.0" standalone="no"?>
<!DOCTYPE svg PUBLIC "-//W3C//DTD SVG 1.1//EN" "http://www.w3.org/Graphics/SVG/1.1/DTD/svg11.dtd" >
<svg xmlns="http://www.w3.org/2000/svg" xmlns:xlink="http://www.w3.org/1999/xlink" version="1.1" viewBox="-10 0 1010 1000">
  <g transform="matrix(1 0 0 -1 0 800)">
   <path fill="currentColor"
d="M364 737c4 1 26 0 138 0h133c11.5434 -1.92389 19.2751 -5.56257 27 -12c4.39094 -2.92729 258.27 -254.784 265 -266c4 -6 7 -14 9 -21c1 -5 1 -10 1 -138s0 -133 -1 -138c-2 -7 -5 -15 -9 -21c-6.72951 -11.2159 -260.609 -263.073 -265 -266
c-7.7197 -6.43308 -15.4583 -10.0764 -27 -12h-132c-143 0 -138 0 -148 3c-5 2 -11 5 -16 8c-2.57239 1.28619 -261.68 259.8 -266 267c-4 6 -7 14 -9 21c-1 5 -1 10 -1 138s0 133 1 138c2 7 5 15 9 21c4.3199 7.19984 263.428 265.714 266 267c8 5 16 9 25 11zM294 506
l-106 -107v-198c70.4813 -71.5187 141.474 -142.526 213 -213h198c71.5187 70.4813 142.526 141.474 213 213v198c-70.4813 71.5187 -141.474 142.526 -213 213h-198l-107 -106z" />
  </g>

</svg>
