<?xml version="1.0" standalone="no"?>
<!DOCTYPE svg PUBLIC "-//W3C//DTD SVG 1.1//EN" "http://www.w3.org/Graphics/SVG/1.1/DTD/svg11.dtd" >
<svg xmlns="http://www.w3.org/2000/svg" xmlns:xlink="http://www.w3.org/1999/xlink" version="1.1" viewBox="-10 0 1010 1000">
  <g transform="matrix(1 0 0 -1 0 800)">
   <path fill="currentColor"
d="M364 737c4 1 26 0 138 0h133c12 -2 19 -6 27 -12c4 -3 258 -255 265 -266c4 -6 7 -14 9 -21c1 -5 1 -10 1 -138s0 -133 -1 -138c-2 -7 -5 -15 -9 -21c-7 -11 -261 -263 -265 -266c-8 -6 -15 -10 -27 -12h-132c-143 0 -138 0 -148 3c-5 2 -11 5 -16 8
c-3 1 -262 260 -266 267c-4 6 -7 14 -9 21c-1 5 -1 10 -1 138s0 133 1 138c2 7 5 15 9 21c4 7 263 266 266 267c8 5 16 9 25 11zM401 612c-72 -70 -143 -141 -213 -213v-198c70 -72 141 -143 213 -213h198c72 70 143 141 213 213v198c-70 72 -141 143 -213 213h-198z" />
  </g>

</svg>
