<?xml version="1.0" standalone="no"?>
<!DOCTYPE svg PUBLIC "-//W3C//DTD SVG 1.1//EN" "http://www.w3.org/Graphics/SVG/1.1/DTD/svg11.dtd" >
<svg xmlns="http://www.w3.org/2000/svg" xmlns:xlink="http://www.w3.org/1999/xlink" version="1.1" viewBox="-10 0 1010 1000">
  <g transform="matrix(1 0 0 -1 0 800)">
   <path fill="currentColor"
d="M482 675c-190.689 -11.0544 -327.741 -153.662 -353 -321c-3 -22 -4 -30 -4 -62c0 -43 3 -68 8 -100c14 -81 50 -141 119 -196l10 -8l-73 -1c-73 0 -74 0 -79 -1c-25.9802 -6.77744 -47 -28.3061 -47 -61c0 -32.2429 18.7358 -49.6943 42 -59c10 -3 5 -3 148 -3h132
c26.9752 4.49587 45.5523 23.9407 51 49c1 5 1 8 1 44s0 40 -1 45c-3 12 -9 23 -17 31c-5 5 -6 5 -28 19c-40 25 -66 45 -87 66c-41.4949 41.4949 -54 92.845 -54 174c0 27 0 32 3 49c17.5185 107.806 102.553 194.194 221 209c11 1 42 1 54 0
c113.562 -14.1953 201.276 -102.657 219 -209c3 -17 3 -22 3 -49c0 -62 -6 -100 -22 -131c-18 -36 -54 -68 -120 -109c-21 -13 -22 -14 -27 -19c-8 -8 -14 -19 -17 -31c-1 -5 -1 -9 -1 -45s0 -39 1 -44c6.14342 -24.5737 25.3196 -45.0492 51 -49c5 -1 22 0 138 0h132
c29.812 4.96866 52 27.3286 52 62c0 34.7769 -22.1989 57.0332 -52 62h-74l-73 1l9 7c82.9035 66.3228 128 148.649 128 297c0 31 -1 40 -4 62c-18.3725 120.569 -96.9427 228.471 -204 282c-52 26 -110 40 -169 39h-16z" />
  </g>

</svg>
