<?xml version="1.0" standalone="no"?>
<!DOCTYPE svg PUBLIC "-//W3C//DTD SVG 1.1//EN" "http://www.w3.org/Graphics/SVG/1.1/DTD/svg11.dtd" >
<svg xmlns="http://www.w3.org/2000/svg" xmlns:xlink="http://www.w3.org/1999/xlink" version="1.1" viewBox="-10 0 1010 1000">
  <g transform="matrix(1 0 0 -1 0 800)">
   <path fill="currentColor"
d="M482 675h16c59 1 117 -13 169 -39c107 -54 186 -161 204 -282c3 -22 4 -31 4 -62c0 -148 -45 -231 -128 -297l-9 -7l73 -1h74c30 -5 52 -27 52 -62s-22 -57 -52 -62h-132c-116 0 -133 -1 -138 0c-26 4 -45 24 -51 49c-1 5 -1 8 -1 44s0 40 1 45c3 12 9 23 17 31
c5 5 6 6 27 19c66 41 102 73 120 109c16 31 22 69 22 131c0 27 0 32 -3 49c-18 106 -105 195 -219 209c-12 1 -43 1 -54 0c-118 -15 -203 -101 -221 -209c-3 -17 -3 -22 -3 -49c0 -81 13 -133 54 -174c21 -21 47 -41 87 -66c22 -14 23 -14 28 -19c8 -8 14 -19 17 -31
c1 -5 1 -9 1 -45s0 -39 -1 -44c-5 -25 -24 -45 -51 -49h-132c-143 0 -138 0 -148 3c-23 9 -42 27 -42 59c0 33 21 54 47 61c5 1 6 1 79 1l73 1l-10 8c-92.6336 73.8384 -127 151.354 -127 296c0 32 1 40 4 62c25 167 162 310 353 321z" />
  </g>

</svg>
