<?xml version="1.0" standalone="no"?>
<!DOCTYPE svg PUBLIC "-//W3C//DTD SVG 1.1//EN" "http://www.w3.org/Graphics/SVG/1.1/DTD/svg11.dtd" >
<svg xmlns="http://www.w3.org/2000/svg" xmlns:xlink="http://www.w3.org/1999/xlink" version="1.1" viewBox="-10 0 1010 1000">
  <g transform="matrix(1 0 0 -1 0 800)">
   <path fill="currentColor"
d="M114 737c4 1 26 0 138 0h133c27 -5 44 -23 51 -48c10 -41 -20 -71 -51 -76h-99l-98 -1v-624h624l1 98v99c7 33 33 53 65 52c28 -1 52 -21 58 -49c1 -5 1 -10 1 -138s0 -133 -1 -138c-5 -25 -24 -45 -51 -49h-383c-339 0 -382 -1 -387 0c-26 4 -45 24 -51 49
c-1 5 -1 16 -1 388s0 383 1 388c6 25 25 44 50 49zM614 737c4 1 26 0 138 0h133c27 -4 46 -24 51 -49c1 -5 1 -10 1 -138s0 -133 -1 -138c-14 -63 -105 -64 -122 -2c-1 5 -1 7 -1 60l-1 54l-104 -105c-58 -58 -107 -105 -109 -107c-51 -40 -128 26 -89 84c3 5 16 18 109 111
l105 105h-52c-56 0 -58 1 -67 4c-23 9 -42 27 -42 59c0 34 24 57 51 62z" />
  </g>

</svg>
