<?xml version="1.0" standalone="no"?>
<!DOCTYPE svg PUBLIC "-//W3C//DTD SVG 1.1//EN" "http://www.w3.org/Graphics/SVG/1.1/DTD/svg11.dtd" >
<svg xmlns="http://www.w3.org/2000/svg" xmlns:xlink="http://www.w3.org/1999/xlink" version="1.1" viewBox="-10 0 1010 1000">
  <g transform="matrix(1 0 0 -1 0 800)">
   <path fill="currentColor"
d="M114 737c4 1 26 0 138 0h133c27.0471 -4.50784 44.4776 -22.9976 51 -48c10.3258 -41.3033 -19.9215 -70.8203 -51 -76h-99l-98 -1v-624h624l1 98v99c6.60482 33.0241 33.062 53.0646 65 52c28 -1 52 -21 58 -49c1 -5 1 -10 1 -138s0 -133 -1 -138
c-5.44627 -25.0528 -24.0371 -44.5062 -51 -49h-383c-339 0 -382 -1 -387 0c-25.6715 3.94946 -44.8583 24.4332 -51 49c-1 5 -1 16 -1 388s0 383 1 388c6 25 25 44 50 49zM614 737c-27.2531 -4.80938 -51 -28.3986 -51 -62c0 -32.2429 18.7358 -49.6943 42 -59
c9 -3 11 -4 67 -4h52l-105 -105c-93 -93 -106 -106 -109 -111c-38.5867 -57.8801 37.8103 -123.814 89 -84c2 2 51 49 109 107l104 105l1 -54c0 -53 0 -55 1 -60c16.6293 -62.3598 108.445 -61.2589 122 2c1 5 1 10 1 138s0 133 -1 138
c-5.44627 25.0528 -24.0371 44.5062 -51 49h-133c-112 0 -134 1 -138 0z" />
  </g>

</svg>
