<?xml version="1.0" standalone="no"?>
<!DOCTYPE svg PUBLIC "-//W3C//DTD SVG 1.1//EN" "http://www.w3.org/Graphics/SVG/1.1/DTD/svg11.dtd" >
<svg xmlns="http://www.w3.org/2000/svg" xmlns:xlink="http://www.w3.org/1999/xlink" version="1.1" viewBox="-10 0 1010 1000">
  <g transform="matrix(1 0 0 -1 0 800)">
   <path fill="currentColor"
d="M239 737c4 1 34 0 200 0h196c12 -2 19 -6 27 -12c3 -2 47 -46 102 -101c106 -106 101 -101 106 -113c4 -11 5 -11 5 -55c0 -36 0 -39 -1 -44c-5 -25 -25 -45 -52 -49h-132c-116 0 -133 -1 -138 0c-24 4 -44 24 -50 47l-2 5v197h-187l-1 -98v-99c-13 -67 -108 -68 -123 -3
c-1 5 -1 10 -1 138s0 133 1 138c6 25 25 44 50 49zM625 586v-98h99l-49 49c-27 27 -50 49 -50 49zM114 299c4 1 17 1 75 1h71c26 -9 44 -21 51 -48c10 -40 -18 -68 -45 -75l-6 -2h-70c-60 0 -70 0 -75 1c-31 5 -61 34 -51 76c7 24 25 43 50 47zM375 238c0 34 24 56 52 61
c4 1 17 1 75 1h70c26 -9 44 -21 51 -48c10 -40 -18 -68 -45 -75l-6 -2h-69c-60 0 -71 0 -76 1c-28 4 -52 29 -52 62zM688 238c0 34 23 56 51 61c4 1 17 1 75 1h71c26 -9 44 -21 51 -48c10 -40 -18 -68 -45 -75l-6 -2h-70c-60 0 -70 0 -75 1c-29 5 -52 27 -52 62zM239 112
c38 5 65 -19 72 -47c1 -5 1 -7 1 -41l1 -36h437v36c0 34 1 36 2 41c8 30 33 48 63 47c28 -1 53 -21 59 -49c1 -5 1 -8 1 -75s0 -71 -1 -76c-5 -25 -25 -45 -52 -49h-288c-256 0 -289 -1 -294 0c-26 4 -45 24 -51 49c-1 5 -1 9 -1 76s0 70 1 75c6 25 25 44 50 49z" />
  </g>

</svg>
