<?xml version="1.0" standalone="no"?>
<!DOCTYPE svg PUBLIC "-//W3C//DTD SVG 1.1//EN" "http://www.w3.org/Graphics/SVG/1.1/DTD/svg11.dtd" >
<svg xmlns="http://www.w3.org/2000/svg" xmlns:xlink="http://www.w3.org/1999/xlink" version="1.1" viewBox="-10 0 1010 1000">
  <g transform="matrix(1 0 0 -1 0 800)">
   <path fill="currentColor"
d="M239 737c4 1 34 0 200 0h196c11.5434 -1.92389 19.2751 -5.56257 27 -12c3 -2 47 -46 102 -101c106 -106 101 -101 106 -113c4 -11 5 -11 5 -55c0 -36 0 -39 -1 -44c-5.43619 -25.0065 -25.102 -44.517 -52 -49h-132c-116 0 -133 -1 -138 0
c-23.8526 3.66964 -44.3008 24.2032 -50 47l-2 5v197h-187l-1 -98v-99c-6.1938 -30.969 -29.5563 -50.9484 -59 -52c-30 -2 -57 19 -64 49c-1 5 -1 10 -1 138s0 133 1 138c6 25 25 44 50 49zM625 586v-98h99l-49 49c-27 27 -50 49 -50 49zM114 299c4 1 17 1 75 1h71
c25.9421 -8.64736 43.8666 -20.6553 51 -48c9.97194 -39.8877 -17.7005 -67.8784 -45 -75l-6 -2h-70c-60 0 -70 0 -75 1c-30.5151 4.69463 -61.468 34.1279 -51 76c6.92495 24.2373 25.0625 42.5993 50 47zM375 238c0 33.9289 24.169 56.0886 52 61c4 1 17 1 75 1h70
c25.9421 -8.64736 43.8666 -20.6553 51 -48c9.97194 -39.8877 -17.7005 -67.8784 -45 -75l-6 -2h-69c-60 0 -71 0 -76 1c-28.3145 4.35607 -52 28.897 -52 62zM688 238c0 34.0141 23.4285 56.1344 51 61c4 1 17 1 75 1h71c25.9421 -8.64736 43.8666 -20.6553 51 -48
c9.97194 -39.8877 -17.7005 -67.8784 -45 -75l-6 -2h-70c-60 0 -70 0 -75 1c-29.4228 4.52658 -52 27.1195 -52 62zM239 112c-25 -5 -44 -24 -50 -49c-1 -5 -1 -8 -1 -75s0 -71 1 -76c6.14342 -24.5737 25.3196 -45.0492 51 -49c5 -1 38 0 294 0h288
c26.912 4.48533 46.5624 23.9869 52 49c1 5 1 9 1 76s0 70 -1 75c-6 28 -31 48 -59 49c-30 1 -55 -17 -63 -47c-1 -5 -2 -7 -2 -41v-36h-437l-1 36c0 34 0 36 -1 41c-7.39638 28.3528 -34.4383 52.366 -72 47z" />
  </g>

</svg>
