<?xml version="1.0" standalone="no"?>
<!DOCTYPE svg PUBLIC "-//W3C//DTD SVG 1.1//EN" "http://www.w3.org/Graphics/SVG/1.1/DTD/svg11.dtd" >
<svg xmlns="http://www.w3.org/2000/svg" xmlns:xlink="http://www.w3.org/1999/xlink" version="1.1" viewBox="-10 0 1010 1000">
  <g transform="matrix(1 0 0 -1 0 800)">
   <path fill="currentColor"
d="M760 300c26.5114 6.20725 47.5308 24.7343 52 53v82c-4.98008 29.8805 -29.0418 49.8494 -57 52l-5 1v-5c-2 -27 -21 -49 -47 -56l-6 -2h-288c-256 0 -289 0 -294 1c-26.177 4.02724 -44.7633 23.0534 -51 48c-1 5 -1 10 -1 107s0 102 1 107c6 25 25 44 50 49
c4 1 48 0 294 0h289c26.0143 -4.33571 44.5231 -22.1721 51 -47c1 -5 2 -7 2 -41v-36l8 -1c98.1232 -5.16438 166.083 -77.4747 178 -166c1 -9 1 -96 0 -105c-10.9818 -85.1087 -73.0627 -146.18 -149 -162c-17 -3 -14 -4 -91 -4h-71v-260
c-7.3094 -26.5096 -24.3549 -47.7504 -53 -52h-101c-88 0 -101 -1 -106 0c-25.6715 3.94946 -44.8583 24.4332 -51 49c-1 5 -1 10 -1 138s0 133 1 138c5 22 20 39 41 46c9 3 13 4 49 4h33c2.01007 31.2277 22.4014 54.7072 53 62h270zM188 612v-62h437v62h-437zM438 50v-62
h62v124h-62v-62z" />
  </g>

</svg>
