<?xml version="1.0" standalone="no"?>
<!DOCTYPE svg PUBLIC "-//W3C//DTD SVG 1.1//EN" "http://www.w3.org/Graphics/SVG/1.1/DTD/svg11.dtd" >
<svg xmlns="http://www.w3.org/2000/svg" xmlns:xlink="http://www.w3.org/1999/xlink" version="1.1" viewBox="-10 0 1010 1000">
  <g transform="matrix(1 0 0 -1 0 800)">
   <path fill="currentColor"
d="M760 300c27 6 48 25 52 53v82c-5 30 -29 50 -57 52l-5 1v-5c-2 -27 -21 -49 -47 -56l-6 -2h-288c-256 0 -289 0 -294 1c-26 4 -45 23 -51 48c-1 5 -1 10 -1 107s0 102 1 107c6 25 25 44 50 49c4 1 48 0 294 0h289c26 -4 45 -22 51 -47c1 -5 2 -7 2 -41v-36l8 -1
c98 -5 166 -77 178 -166c1 -9 1 -96 0 -105c-11 -85 -73 -146 -149 -162c-17 -3 -14 -4 -91 -4h-71v-260c-7 -27 -24 -48 -53 -52h-101c-88 0 -101 -1 -106 0c-26 4 -45 24 -51 49c-1 5 -1 10 -1 138s0 133 1 138c5 22 20 39 41 46c9 3 13 4 49 4h33c2 31 22 55 53 62h270z
M188 612v-62h437v62h-437zM438 112v-124h62v124h-62z" />
  </g>

</svg>
