<?xml version="1.0" standalone="no"?>
<!DOCTYPE svg PUBLIC "-//W3C//DTD SVG 1.1//EN" "http://www.w3.org/Graphics/SVG/1.1/DTD/svg11.dtd" >
<svg xmlns="http://www.w3.org/2000/svg" xmlns:xlink="http://www.w3.org/1999/xlink" version="1.1" viewBox="-10 0 1010 1000">
  <g transform="matrix(1 0 0 -1 0 800)">
   <path fill="currentColor"
d="M875 -78c-2.15672 -29.1157 -22.1005 -53.8501 -53 -59h-320c-284 0 -320 -1 -325 0c-27.808 4.9073 -49.4142 27.9706 -52 59c0 9 1 15 6 31c37 124 56 213 62 288c3 38 3 80 0 118c-6 75 -25 164 -62 288c-4.19975 14.6991 -8.83838 26.0657 -4 43c6 24 26 43 50 47
c4 1 52 0 325 0h320c30.9066 -5.1511 50.843 -29.8798 53 -59c0 -19.1886 -6.51691 -32.0677 -12 -54c-32 -110 -50 -194 -56 -265c-3 -38 -3 -80 0 -118c6 -71 24 -155 56 -265c5.48365 -21.9346 12 -34.7986 12 -54zM271 611c26.6565 -93.2978 49 -199.686 49 -311
c0 -113.524 -21.7223 -215.528 -49 -311c0 -1 11 -1 229 -1s229 0 229 1c-21.2314 77.8486 -40.8784 177.867 -47 255c-1 18 -2 73 -1 94c4 75 17 155 43 252c3 11 5 20 5 21s-11 1 -229 1s-229 0 -229 -1z" />
  </g>

</svg>
