<?xml version="1.0" standalone="no"?>
<!DOCTYPE svg PUBLIC "-//W3C//DTD SVG 1.1//EN" "http://www.w3.org/Graphics/SVG/1.1/DTD/svg11.dtd" >
<svg xmlns="http://www.w3.org/2000/svg" xmlns:xlink="http://www.w3.org/1999/xlink" version="1.1" viewBox="-10 0 1010 1000">
  <g transform="matrix(1 0 0 -1 0 800)">
   <path fill="currentColor"
d="M875 -78c-2 -29 -22 -54 -53 -59h-320c-284 0 -320 -1 -325 0c-28 5 -49 28 -52 59c0 9 1 15 6 31c37 124 56 213 62 288c3 38 3 80 0 118c-6 75 -25 164 -62 288c-4 15 -9 26 -4 43c6 24 26 43 50 47c4 1 52 0 325 0h320c31 -5 51 -30 53 -59c0 -19 -7 -32 -12 -54
c-32 -110 -50 -194 -56 -265c-3 -38 -3 -80 0 -118c6 -71 24 -155 56 -265c5 -22 12 -35 12 -54zM271 611c27 -93 49 -200 49 -311c0 -114 -22 -216 -49 -311c0 -1 11 -1 229 -1s229 0 229 1c-21 78 -41 178 -47 255c-1 18 -2 73 -1 94c4 75 17 155 43 252c3 11 5 20 5 21
s-11 1 -229 1s-229 0 -229 -1z" />
  </g>

</svg>
