<?xml version="1.0" standalone="no"?>
<!DOCTYPE svg PUBLIC "-//W3C//DTD SVG 1.1//EN" "http://www.w3.org/Graphics/SVG/1.1/DTD/svg11.dtd" >
<svg xmlns="http://www.w3.org/2000/svg" xmlns:xlink="http://www.w3.org/1999/xlink" version="1.1" viewBox="-10 0 1010 1000">
  <g transform="matrix(1 0 0 -1 0 800)">
   <path fill="currentColor"
d="M114 674c11 2 20 1 39 -5c123 -37 213 -56 288 -62c22 -2 34 -2 59 -2s38 0 59 2c74 6 161 25 283 61c22 7 27 7 36 7c28 -1 52 -21 58 -49c1 -5 1 -15 1 -326s0 -321 -1 -326c-6 -28 -30 -48 -58 -49c-9 0 -14 0 -36 7c-134 40 -222 57 -306 62c-15 1 -58 1 -72 0
c-85 -5 -175 -22 -311 -63c-7 -2 -15 -4 -18 -5c-34 -6 -62 16 -71 48c-1 5 -1 15 -1 326s0 321 1 326c6 25 25 44 50 48zM188 300v-229c91 25 179 42 257 48c143 8 255 -18 366 -48c1 0 1 11 1 229s0 229 -1 229c-4 -1 -34 -8 -44 -11c-84 -21 -145 -32 -217 -37
c-18 -1 -87 -1 -105 0c-80 6 -175 26 -256 48c-1 0 -1 -11 -1 -229z" />
  </g>

</svg>
