<?xml version="1.0" standalone="no"?>
<!DOCTYPE svg PUBLIC "-//W3C//DTD SVG 1.1//EN" "http://www.w3.org/Graphics/SVG/1.1/DTD/svg11.dtd" >
<svg xmlns="http://www.w3.org/2000/svg" xmlns:xlink="http://www.w3.org/1999/xlink" version="1.1" viewBox="-10 0 1010 1000">
  <g transform="matrix(1 0 0 -1 0 800)">
   <path fill="currentColor"
d="M610 726c-52 -4 -98 -23 -138 -55c-7 -6 -264 -261 -276 -275c-37 -40 -62 -89 -75 -141c-23.0478 -89.3102 -6.46264 -174.699 33 -243c50 -87 135 -145 235 -160c30 -4 67 -4 97 0c65 9 124 38 172 81c4 4 66 65 137 136c140 140 133 132 138 144c3 8 4 15 4 25
c0 51.5058 -54.4313 78.2305 -98 51c-5.75885 -2.87942 -256.864 -258.148 -274 -271c-92.466 -73.4289 -230.432 -50.9072 -294 42c-49.5278 73.1125 -45.8579 172.985 9 242c5.06606 6.33258 267.946 270.964 271 273c66.1979 57.1709 172.342 14.3977 186 -63
c2 -8 2 -22 0 -30c-4 -17 -13 -33 -26 -48c-7.17364 -7.17364 -252.486 -277.743 -261 -282c-20.2932 -9.36609 -45.4807 8.71823 -36 34c1.13428 3.40285 257.298 258.497 263 268c7.43159 11.1474 13.8824 28.4703 9 48c-9.78988 40.7912 -56.4818 61.3109 -97 37
c-4 -3 -258 -256 -266 -266c-34.5316 -39.4647 -48.566 -106.083 -20 -165c27.6256 -55.2512 100.266 -103.245 185 -75c15 5 34 16 47 27c6.96597 5.57278 262.074 281.888 263 283c17 18 29 34 39 53c66.3389 120.832 -1.98725 243.951 -87 296c-30 18 -65 29 -100 33
c-11 1 -30 2 -40 1z" />
  </g>

</svg>
