<?xml version="1.0" standalone="no"?>
<!DOCTYPE svg PUBLIC "-//W3C//DTD SVG 1.1//EN" "http://www.w3.org/Graphics/SVG/1.1/DTD/svg11.dtd" >
<svg xmlns="http://www.w3.org/2000/svg" xmlns:xlink="http://www.w3.org/1999/xlink" version="1.1" viewBox="-10 0 1010 1000">
  <g transform="matrix(1 0 0 -1 0 800)">
   <path fill="currentColor"
d="M472 671c48.8107 39.0485 102.555 60.8586 178 54c35 -4 70 -15 100 -33c85 -52 153 -175 87 -296c-10 -19 -22 -35 -39 -53c-1 -1 -256 -277 -263 -283c-13 -11 -32 -22 -47 -27c-85 -28 -157 20 -185 75c-29 59 -15 126 20 165c8 10 262 263 266 266c41 24 87 4 97 -37
c5 -20 -2 -37 -9 -48c-6 -10 -262 -265 -263 -268c-9 -25 16 -43 36 -34c9 4 254 275 261 282c13 15 22 31 26 48c2 8 2 22 0 30c-14 77 -120 120 -186 63c-3 -2 -266 -267 -271 -273c-55 -69 -59 -169 -9 -242c64 -93 202 -115 294 -42c17 13 268 268 274 271
c44 27 98 1 98 -51c0 -10 -1 -17 -4 -25c-5 -12 2 -4 -138 -144c-71 -71 -133 -132 -137 -136c-48 -43 -107 -72 -172 -81c-30 -4 -67 -4 -97 0c-100 15 -185 73 -235 160c-39 68 -56 154 -33 243c13 52 38 101 75 141c12 14 269 269 276 275z" />
  </g>

</svg>
