<?xml version="1.0" standalone="no"?>
<!DOCTYPE svg PUBLIC "-//W3C//DTD SVG 1.1//EN" "http://www.w3.org/Graphics/SVG/1.1/DTD/svg11.dtd" >
<svg xmlns="http://www.w3.org/2000/svg" xmlns:xlink="http://www.w3.org/1999/xlink" version="1.1" viewBox="-10 0 1010 1000">
  <g transform="matrix(1 0 0 -1 0 800)">
   <path fill="currentColor"
d="M210 723c12 10 34 19 56 12c22 -6 39 -23 45 -46c7 -25 -4 -44 -17 -59c-60 -73 -95 -173 -103 -293c-1 -15 -1 -59 0 -74c8 -120 43 -220 103 -293c10 -12 14 -21 17 -32c2 -7 2 -20 0 -27c-7 -26 -28 -48 -60 -48c-27 0 -38 10 -53 27c-118 142 -170 390 -104 618
c17 60 44 117 75 163c15 22 33 46 41 52zM742 737c30 5 48 -9 64 -28c37 -45 65 -96 87 -155c43 -116 56 -253 34 -382c-19 -110 -60 -206 -121 -280c-8 -9 -12 -15 -18 -19c-25 -17 -59 -13 -80 9c-24 25 -23 64 -1 86c65 78 105 191 105 332c0 139 -40 255 -104 331
c-6 7 -9 12 -12 18c-17 37 5 81 46 88z" />
  </g>

</svg>
