<?xml version="1.0" standalone="no"?>
<!DOCTYPE svg PUBLIC "-//W3C//DTD SVG 1.1//EN" "http://www.w3.org/Graphics/SVG/1.1/DTD/svg11.dtd" >
<svg xmlns="http://www.w3.org/2000/svg" xmlns:xlink="http://www.w3.org/1999/xlink" version="1.1" viewBox="-10 0 1010 1000">
  <g transform="matrix(1 0 0 -1 0 800)">
   <path fill="currentColor"
d="M156 438c-52 26 -93 71 -93 143c0 41 12 70 33 97c23 33 65 55 111 59c93 0 153 -53 167 -135c2 -10 2 -32 0 -42c-7 -50 -40 -94 -80 -116c-2 -1 -4 -2 -4 -3s2 -8 3 -16c6 -36 20 -55 53 -62l132 -1c144 0 135 1 153 -3c73 -15 131 -72 146 -145c3 -13 4 -21 4 -37v-15
c52 -26 94 -70 94 -143c0 -19 -3 -33 -8 -49c-16 -49 -54 -86 -103 -101c-15 -5 -27 -6 -45 -6c-14 0 -19 1 -31 3c-62 12 -115 62 -124 132c-2 10 -2 32 0 42c6 36 19 64 44 89c14 14 31 23 48 33v11c0 36 -22 60 -53 64l-132 1h-135c-1 0 -4 1 -8 2c-16 2 -33 7 -47 13
v-91c47 -24 83 -61 93 -122c2 -10 2 -32 0 -42c-12 -72 -66 -124 -136 -134c-7 -1 -31 -1 -38 0c-70 10 -124 62 -136 134c-7 65 18 115 58 143c11 8 23 15 34 21v276zM211 612c-14 -3 -23 -17 -23 -31c0 -17 14 -31 31 -31s31 14 31 31s-15 31 -32 31h-7zM211 49
c-14 -3 -23 -16 -23 -30c0 -17 14 -31 31 -31s31 14 31 31s-15 31 -32 31c-2 0 -5 -1 -7 -1zM711 49c-14 -3 -23 -16 -23 -30c0 -17 14 -31 31 -31s31 14 31 31s-15 31 -32 31c-2 0 -5 -1 -7 -1z" />
  </g>

</svg>
