<?xml version="1.0" standalone="no"?>
<!DOCTYPE svg PUBLIC "-//W3C//DTD SVG 1.1//EN" "http://www.w3.org/Graphics/SVG/1.1/DTD/svg11.dtd" >
<svg xmlns="http://www.w3.org/2000/svg" xmlns:xlink="http://www.w3.org/1999/xlink" version="1.1" viewBox="-10 0 1010 1000">
  <g transform="matrix(1 0 0 -1 0 800)">
   <path fill="currentColor"
d="M210 723c11.7113 10.41 33.507 19.4977 56 12c22 -6 39 -23 45 -46c7.27625 -25.4669 -4.2686 -43.7223 -17 -59c-60 -73 -95 -173 -103 -293c-1 -15 -1 -59 0 -74c8 -120 43 -220 103 -293c10 -12 14 -21 17 -32c2 -7 2 -20 0 -27
c-6.81616 -26.1286 -28.3432 -48 -60 -48c-27.4352 0 -38.255 9.57404 -53 27c-117.912 142.413 -170.444 389.778 -104 618c17 60 44 117 75 163c15 22 33 46 41 52zM742 737c-41 -7 -63 -51 -46 -88c3 -6 6 -11 12 -18c64.2534 -75.5923 104 -191.738 104 -331
c0 -140.568 -39.5195 -253.927 -105 -332c-21.8752 -21.8752 -22.5665 -61.2551 1 -86c21 -22 55 -26 80 -9c6 4 10 10 18 19c61 74 102 170 121 280c22 129 9 266 -34 382c-22 59 -50 110 -87 155c-15.7078 18.8494 -34.1685 32.9719 -64 28z" />
  </g>

</svg>
