<?xml version="1.0" standalone="no"?>
<!DOCTYPE svg PUBLIC "-//W3C//DTD SVG 1.1//EN" "http://www.w3.org/Graphics/SVG/1.1/DTD/svg11.dtd" >
<svg xmlns="http://www.w3.org/2000/svg" xmlns:xlink="http://www.w3.org/1999/xlink" version="1.1" viewBox="-10 0 1010 1000">
  <g transform="matrix(1 0 0 -1 0 800)">
   <path fill="currentColor"
d="M156 438c-52.4588 26.2294 -93 71.0772 -93 143c0 41.3286 12.0352 70.4446 33 97c23.4177 32.7848 64.8054 54.924 111 59c93.1294 0 152.805 -52.6683 167 -135c2 -10 2 -32 0 -42c-7.33535 -49.8804 -40.0016 -94.1827 -80 -116c-2 -1 -4 -2 -4 -3s2 -8 3 -16
c6.00753 -36.0452 19.92 -55.384 53 -62l132 -1c144 0 135 1 153 -3c73 -15 131 -72 146 -145c3 -13 4 -21 4 -37v-15c52.3984 -26.1992 94 -70.3559 94 -143c0 -19 -3 -33 -8 -49c-16 -49 -54 -86 -103 -101c-15 -5 -27 -6 -45 -6c-14 0 -19 1 -31 3
c-61.876 12.3752 -114.654 61.908 -124 132c-2 10 -2 32 0 42c6 36 19 64 44 89c14.0506 14.0506 30.6256 23.0718 48 33v11c0 35.971 -21.6313 59.5188 -53 64l-132 1h-135c-1 0 -4 1 -8 2c-16.0423 2.46805 -33.2689 7.11522 -47 13v-91
c47.281 -23.6405 82.8594 -61.1566 93 -122c2 -10 2 -32 0 -42c-12.3888 -71.8549 -65.6351 -123.948 -136 -134c-7 -1 -31 -1 -38 0c-70.3647 10.0521 -123.611 62.1414 -136 134c-7.26901 65.4211 18.2853 114.632 58 143c10.5975 7.94814 22.6801 14.5315 34 21v276z
M211 612c-14 -3 -23 -17 -23 -31c0 -17 14 -31 31 -31s31 14 31 31s-15 31 -32 31h-7zM211 49c-14 -3 -23 -16 -23 -30c0 -17 14 -31 31 -31s31 14 31 31s-15 31 -32 31c-2 0 -5 -1 -7 -1zM711 49c-14 -3 -23 -16 -23 -30c0 -17 14 -31 31 -31s31 14 31 31s-15 31 -32 31
c-2 0 -5 -1 -7 -1z" />
  </g>

</svg>
