<?xml version="1.0" standalone="no"?>
<!DOCTYPE svg PUBLIC "-//W3C//DTD SVG 1.1//EN" "http://www.w3.org/Graphics/SVG/1.1/DTD/svg11.dtd" >
<svg xmlns="http://www.w3.org/2000/svg" xmlns:xlink="http://www.w3.org/1999/xlink" version="1.1" viewBox="-10 0 1010 1000">
  <g transform="matrix(1 0 0 -1 0 800)">
   <path fill="currentColor"
d="M476 737c102 6 204 -25 285 -86c48 -36 89 -81 119 -133c66 -114 75 -255 27 -378c-33.1228 -83.9112 -89.8359 -153.592 -160 -201c-86 -58 -188 -84 -291 -74c-89 9 -174 45 -242 104c-102.104 83.5396 -162.888 233.809 -149 375c9 92 47 179 109 248
c72.3508 80.3898 185.342 138.987 302 145zM430 605c-83 -19 -155 -72 -199 -145c-59 -99 -58 -223 1 -321c3 -5 7 -11 7 -11c66.0735 66.2599 132.405 132.261 199 198v140c0 77 -1 140 -1 140s-3 0 -7 -1zM562 606v-280c66.5011 -65.8361 132.832 -131.832 199 -198
c14.7896 18.4874 27.9866 53.1045 36 76c25 79 19 165 -19 238s-102 129 -180 155c-10 3 -26 8 -33 9h-3zM383 94l-55 -55c21.7067 -13.8134 48.4587 -27.8732 74 -36c10 -3 26 -8 33 -9h3v77c0 43 -1 78 -1 78s-24 -25 -54 -55zM562 71v-77h3
c26.9786 3.85409 54.6372 17.564 77 28c12 6 30 16 30 17l-110 110v-78z" />
  </g>

</svg>
