<?xml version="1.0" standalone="no"?>
<!DOCTYPE svg PUBLIC "-//W3C//DTD SVG 1.1//EN" "http://www.w3.org/Graphics/SVG/1.1/DTD/svg11.dtd" >
<svg xmlns="http://www.w3.org/2000/svg" xmlns:xlink="http://www.w3.org/1999/xlink" version="1.1" viewBox="-10 0 1010 1000">
  <g transform="matrix(1 0 0 -1 0 800)">
   <path fill="currentColor"
d="M476 737c102 6 204 -25 285 -86c48 -36 89 -81 119 -133c66 -114 75 -255 27 -378c-33 -84 -90 -154 -160 -201c-86 -58 -188 -84 -291 -74c-89 9 -174 45 -242 104c-102 84 -163 234 -149 375c21 210 195 382 411 393zM430 605c-83 -19 -155 -72 -199 -145
c-59 -99 -58 -223 1 -321c3 -5 7 -11 7 -11c66 66 132 132 199 198v140c0 77 -1 140 -1 140s-3 0 -7 -1zM562 606v-280c67 -66 133 -132 199 -198c15 18 28 53 36 76c25 79 19 165 -19 238s-102 129 -180 155c-10 3 -26 8 -33 9h-3zM383 94l-55 -55c22 -14 48 -28 74 -36
c10 -3 26 -8 33 -9h3v77c0 43 -1 78 -1 78s-24 -25 -54 -55zM562 149v-155h3c27 4 55 18 77 28c12 6 30 16 30 17z" />
  </g>

</svg>
