<?xml version="1.0" standalone="no"?>
<!DOCTYPE svg PUBLIC "-//W3C//DTD SVG 1.1//EN" "http://www.w3.org/Graphics/SVG/1.1/DTD/svg11.dtd" >
<svg xmlns="http://www.w3.org/2000/svg" xmlns:xlink="http://www.w3.org/1999/xlink" version="1.1" viewBox="-10 0 1010 1000">
  <g transform="matrix(1 0 0 -1 0 800)">
   <path fill="currentColor"
d="M642 719c147.823 42.2351 283.488 -69.2023 303 -203c6.65626 -66.5626 -9.44098 -109.481 -44 -153c-6 -7 -483 -484 -489 -488c-7.7197 -6.43308 -15.4583 -10.0764 -27 -12h-132c-116 0 -133 -1 -138 0c-25.6715 3.94946 -44.8583 24.4332 -51 49c-1 5 -1 10 -1 138
s0 133 1 138c3 12 9 23 17 31s503 471 506 474c10 8 37 21 55 26zM797 435c15.0445 15.0445 25 29.4288 25 57c0 14 -3 24 -10 39c-17 35 -52 63 -88 71c-4 1 -8 1 -17 1h-13c-22.2569 -2.22569 -32.4799 -10.4799 -45 -23l60 -59c33 -33 68 -66 75 -73zM372 321l-184 -173
v-160h161c120.185 119.148 239.86 238.807 359 359c-7.97592 7.97592 -148.065 145.105 -150 147c0 0 -84 -78 -186 -173z" />
  </g>

</svg>
