<?xml version="1.0" standalone="no"?>
<!DOCTYPE svg PUBLIC "-//W3C//DTD SVG 1.1//EN" "http://www.w3.org/Graphics/SVG/1.1/DTD/svg11.dtd" >
<svg xmlns="http://www.w3.org/2000/svg" xmlns:xlink="http://www.w3.org/1999/xlink" version="1.1" viewBox="-10 0 1010 1000">
  <g transform="matrix(1 0 0 -1 0 800)">
   <path fill="currentColor"
d="M642 719c148 42 283 -69 303 -203c7 -67 -9 -109 -44 -153c-6 -7 -483 -484 -489 -488c-8 -6 -15 -10 -27 -12h-132c-116 0 -133 -1 -138 0c-26 4 -45 24 -51 49c-1 5 -1 10 -1 138s0 133 1 138c3 12 9 23 17 31s503 471 506 474c10 8 37 21 55 26zM797 435
c15 15 25 29 25 57c0 14 -3 24 -10 39c-17 35 -52 63 -88 71c-4 1 -8 1 -17 1h-13c-22 -2 -32 -10 -45 -23l60 -59c33 -33 68 -66 75 -73zM372 321l-184 -173v-160h161c120 119 240 239 359 359c-8 8 -148 145 -150 147c0 0 -84 -78 -186 -173z" />
  </g>

</svg>
