<?xml version="1.0" standalone="no"?>
<!DOCTYPE svg PUBLIC "-//W3C//DTD SVG 1.1//EN" "http://www.w3.org/Graphics/SVG/1.1/DTD/svg11.dtd" >
<svg xmlns="http://www.w3.org/2000/svg" xmlns:xlink="http://www.w3.org/1999/xlink" version="1.1" viewBox="-10 0 1010 1000">
  <g transform="matrix(1 0 0 -1 0 800)">
   <path fill="currentColor"
d="M377 690c9 31 36 55 76 45c27 -7 47 -28 47 -64v-13l168 -56c114 -38 170 -57 173 -59c18 -9 34 -29 34 -55c0 -20 -8 -31 -17 -43c-8 -9 -2 -6 -186 -98l-172 -86v-273l36 -1h36c26 -9 44 -21 51 -48c10 -41 -20 -71 -51 -76h-132c-116 0 -133 -1 -138 0
c-29 4 -60 36 -50 76c6 23 26 44 50 48c4 1 12 1 39 1h34v697zM500 463v-62c49 25 99 50 149 75l-73 24c-40 13 -74 25 -75 25s-1 -3 -1 -62z" />
  </g>

</svg>
