<?xml version="1.0" standalone="no"?>
<!DOCTYPE svg PUBLIC "-//W3C//DTD SVG 1.1//EN" "http://www.w3.org/Graphics/SVG/1.1/DTD/svg11.dtd" >
<svg xmlns="http://www.w3.org/2000/svg" xmlns:xlink="http://www.w3.org/1999/xlink" version="1.1" viewBox="-10 0 1010 1000">
  <g transform="matrix(1 0 0 -1 0 800)">
   <path fill="currentColor"
d="M377 690c8.65613 30.9147 36.0148 54.9963 76 45c27.1666 -7.40906 47 -28.213 47 -64v-13l168 -56c114 -38 170 -57 173 -59c18.2148 -9.10741 34 -28.9382 34 -55c0 -19.8074 -7.77738 -31.4717 -17 -43c-8 -9 -2 -6 -186 -98l-172 -86v-273l36 -1h36
c25.9421 -8.64736 43.8666 -20.6553 51 -48c10.3258 -41.3033 -19.9215 -70.8203 -51 -76h-132c-116 0 -133 -1 -138 0c-29.2486 4.49979 -60.0465 35.814 -50 76c5.86748 23.4699 25.5328 44.2358 50 48c4 1 12 1 39 1h34v697zM500 463v-62
c49.498 25.1687 99.1568 50.1765 149 75l-73 24c-40 13 -74 25 -75 25s-1 -3 -1 -62z" />
  </g>

</svg>
