<?xml version="1.0" standalone="no"?>
<!DOCTYPE svg PUBLIC "-//W3C//DTD SVG 1.1//EN" "http://www.w3.org/Graphics/SVG/1.1/DTD/svg11.dtd" >
<svg xmlns="http://www.w3.org/2000/svg" xmlns:xlink="http://www.w3.org/1999/xlink" version="1.1" viewBox="-10 0 1010 1000">
  <g transform="matrix(1 0 0 -1 0 800)">
   <path fill="currentColor"
d="M238 737c5 1 30 0 36 -1c83 -11 151 -73 162 -165c5 -45 -5 -84 -22 -113c-23 -41 -60 -71 -105 -86c-59 -20 -125 -8 -174 30c-40 31 -64 75 -71 127c-1 8 -1 34 0 42c12 91 81 156 165 165c4 0 8 1 9 1zM777 664c39 24 86 3 96 -37c5 -18 -1 -37 -8 -48
c-9 -15 -638 -640 -640 -641c-37 -26 -88 -9 -98 35c-5 18 1 38 8 49c4 7 641 641 642 642zM242 612c-32 -6 -54 -28 -54 -62c0 -40 33 -71 78 -60c29 8 54 36 44 76c-7 27 -30 45 -58 46h-10zM738 237c5 1 30 0 36 -1c83 -11 151 -73 162 -165c4 -34 -2 -64 -11 -88
c-16 -42 -47 -78 -88 -99c-64 -34 -145 -27 -202 18c-40 31 -64 75 -71 127c-1 8 -1 34 0 42c12 91 81 156 165 165c4 0 8 1 9 1zM742 112c-32 -6 -54 -28 -54 -62c0 -40 33 -71 78 -60c25 7 46 28 46 60c0 37 -28 61 -60 62h-10z" />
  </g>

</svg>
