<?xml version="1.0" standalone="no"?>
<!DOCTYPE svg PUBLIC "-//W3C//DTD SVG 1.1//EN" "http://www.w3.org/Graphics/SVG/1.1/DTD/svg11.dtd" >
<svg xmlns="http://www.w3.org/2000/svg" xmlns:xlink="http://www.w3.org/1999/xlink" version="1.1" viewBox="-10 0 1010 1000">
  <g transform="matrix(1 0 0 -1 0 800)">
   <path fill="currentColor"
d="M114 737c11 2 -10 5 397 -63c207 -35 378 -63 381 -64c22 -7 40 -23 44 -47c1 -5 1 -13 1 -263s0 -258 -1 -263c-4 -24 -22 -40 -44 -47c-8 -2 -756 -127 -764 -127c-31 -1 -56 20 -64 49c-1 5 -1 16 -1 388s0 383 1 388c6 25 25 44 50 49zM188 601v-602h2
c1 0 141 24 312 52l310 52v394l-310 52c-171 28 -311 52 -312 52h-2z" />
  </g>

</svg>
