<?xml version="1.0" standalone="no"?>
<!DOCTYPE svg PUBLIC "-//W3C//DTD SVG 1.1//EN" "http://www.w3.org/Graphics/SVG/1.1/DTD/svg11.dtd" >
<svg xmlns="http://www.w3.org/2000/svg" xmlns:xlink="http://www.w3.org/1999/xlink" version="1.1" viewBox="-10 0 1010 1000">
  <g transform="matrix(1 0 0 -1 0 800)">
   <path fill="currentColor"
d="M114 737c4 1 26 0 138 0h133c19.1664 -3.19439 31.7316 -13.1679 42 -28c4 -6 130 -258 132 -264c8 -26 -1 -54 -22 -70c-4 -3 -14 -8 -44 -23l-39 -20c19.6307 -32.7178 56.5236 -64.6937 85 -83l6 -3l20 20c21.2709 21.2709 31.9619 36.3875 63 34
c9.96125 0 260.098 -62.0491 274 -69c19.9254 -9.37666 35 -27.6115 35 -56v-10l-32 -130c-20 -78 -34 -131 -35 -134c-5 -13 -16 -26 -29 -32s-19 -6 -44 -6c-295.771 5.99536 -511.872 164.563 -627 371c-62.1004 109.589 -107 272.799 -107 427c0 22 0 23 1 28
c6.85556 23.9945 25.3323 43.6469 50 48zM190 610c0 -1 1 -6 1 -11s1 -14 2 -20c32.8379 -302.109 219.153 -539.733 516 -584c20 -3 54 -7 55 -6s35 141 35 141s-36 8 -78 19l-77 19l-21 -21c-21 -21 -25 -24 -33 -28c-18 -9 -42 -8 -71 2c-70 24 -160 110 -193 185
c-7.57151 18.1716 -19.1834 45.858 -12 71c4 15 14 29 26 37c2 1 20 11 40 21l36 18c-26.4943 53.1724 -53.1559 106.177 -80 159h-147l1 -2z" />
  </g>

</svg>
