<?xml version="1.0" standalone="no"?>
<!DOCTYPE svg PUBLIC "-//W3C//DTD SVG 1.1//EN" "http://www.w3.org/Graphics/SVG/1.1/DTD/svg11.dtd" >
<svg xmlns="http://www.w3.org/2000/svg" xmlns:xlink="http://www.w3.org/1999/xlink" version="1.1" viewBox="-10 0 1010 1000">
  <g transform="matrix(1 0 0 -1 0 800)">
   <path fill="currentColor"
d="M114 737c4 1 26 0 138 0h133c19 -3 32 -13 42 -28c4 -6 130 -258 132 -264c8 -26 -1 -54 -22 -70c-4 -3 -14 -8 -44 -23l-39 -20c20 -33 57 -65 85 -83l6 -3l20 20c21 21 32 36 63 34c10 0 260 -62 274 -69c20 -9 35 -28 35 -56v-10l-32 -130c-20 -78 -34 -131 -35 -134
c-5 -13 -16 -26 -29 -32s-19 -6 -44 -6c-296 6 -512 165 -627 371c-62 110 -107 273 -107 427c0 22 0 23 1 28c7 24 25 44 50 48zM190 610c0 -1 1 -6 1 -11s1 -14 2 -20c33 -302 219 -540 516 -584c20 -3 54 -7 55 -6s35 141 35 141s-36 8 -78 19l-77 19l-21 -21
c-21 -21 -25 -24 -33 -28c-18 -9 -42 -8 -71 2c-70 24 -160 110 -193 185c-8 18 -19 46 -12 71c4 15 14 29 26 37c2 1 20 11 40 21l36 18c-26 53 -53 106 -80 159h-147z" />
  </g>

</svg>
