<?xml version="1.0" standalone="no"?>
<!DOCTYPE svg PUBLIC "-//W3C//DTD SVG 1.1//EN" "http://www.w3.org/Graphics/SVG/1.1/DTD/svg11.dtd" >
<svg xmlns="http://www.w3.org/2000/svg" xmlns:xlink="http://www.w3.org/1999/xlink" version="1.1" viewBox="-10 0 1010 1000">
  <g transform="matrix(1 0 0 -1 0 800)">
   <path fill="currentColor"
d="M114 737c4 1 62 0 388 0h383c27 -4 46 -24 51 -49c1 -5 1 -16 1 -388s0 -383 -1 -388c-5 -25 -24 -45 -51 -49h-383c-339 0 -382 -1 -387 0c-26 4 -45 24 -51 49c-1 5 -1 16 -1 388s0 383 1 388c6 25 25 44 50 49zM188 612v-326l8 9c24 25 100 104 153 160
c18 20 22 23 34 28c8 3 14 4 24 4c11 0 18 -2 27 -6c10 -5 14 -8 34 -31c83 -95 111 -127 112 -127s54 25 93 38c4 1 7 1 15 1c11 0 17 -1 26 -5c3 -1 26 -17 52 -34l46 -31v320h-624zM563 488c0 65 81 81 114 34c23 -35 7 -81 -33 -94c-39 -11 -81 14 -81 60zM404 332
c-65.2778 -68.3862 -147.545 -154.562 -179 -187c-22 -23 -23 -22 -37 -29v-128h624v154c-43 30 -87 59 -131 88c-2 -1 -12 -5 -12 -6s40 -45 58 -63c17 -17 28 -33 21 -63c-10 -39 -55 -63 -96 -37c-12 7 -94 98 -226 247c-11 13 -22 24 -22 24z" />
  </g>

</svg>
