<?xml version="1.0" standalone="no"?>
<!DOCTYPE svg PUBLIC "-//W3C//DTD SVG 1.1//EN" "http://www.w3.org/Graphics/SVG/1.1/DTD/svg11.dtd" >
<svg xmlns="http://www.w3.org/2000/svg" xmlns:xlink="http://www.w3.org/1999/xlink" version="1.1" viewBox="-10 0 1010 1000">
  <g transform="matrix(1 0 0 -1 0 800)">
   <path fill="currentColor"
d="M114 737c4 1 62 0 388 0h383c26.9752 -4.49587 45.5523 -23.9407 51 -49c1 -5 1 -16 1 -388s0 -383 -1 -388c-5.44627 -25.0528 -24.0371 -44.5062 -51 -49h-383c-339 0 -382 -1 -387 0c-25.6715 3.94946 -44.8583 24.4332 -51 49c-1 5 -1 16 -1 388s0 383 1 388
c6 25 25 44 50 49zM188 612v-326l8 9c24 25 100 104 153 160c18 20 22 23 34 28c8 3 14 4 24 4c11 0 18 -2 27 -6c10 -5 14 -8 34 -31c83 -95 111 -127 112 -127c1.05726 0 54.4167 25.1389 93 38c4 1 7 1 15 1c11 0 17 -1 26 -5c3 -1 26 -17 52 -34l46 -31v320h-624z
M563 488c0 64.9113 81.0436 81.0806 114 34c23 -35 7 -81 -33 -94c-38.7122 -11.4703 -81 14.268 -81 60zM383 310c-69 -73 -126 -132 -158 -165c-21.5448 -22.6788 -22.7642 -21.8821 -37 -29v-128h624v154c-43.4566 29.5434 -87.1236 58.8764 -131 88
c-1.72914 -0.864568 -12 -5.34611 -12 -6c0 -1 40 -45 58 -63c16.609 -16.609 28.4885 -33.046 21 -63c-10.2089 -39.134 -55.0761 -62.5775 -96 -37c-12 7 -94 98 -226 247c-11 13 -22 24 -22 24s-10 -10 -21 -22z" />
  </g>

</svg>
