<?xml version="1.0" standalone="no"?>
<!DOCTYPE svg PUBLIC "-//W3C//DTD SVG 1.1//EN" "http://www.w3.org/Graphics/SVG/1.1/DTD/svg11.dtd" >
<svg xmlns="http://www.w3.org/2000/svg" xmlns:xlink="http://www.w3.org/1999/xlink" version="1.1" viewBox="-10 0 1010 1000">
  <g transform="matrix(1 0 0 -1 0 800)">
   <path fill="currentColor"
d="M937 -75c0 -35 -22 -57 -52 -62h-383c-339 0 -382 -1 -387 0c-30 5 -61 35 -51 76c8 31 30 49 69 49h13v323c-45 27 -78 84 -83 141c-1 10 -1 59 0 65c0 3 2 8 3 11c2 6 87 176 91 182c7 12 26 25 42 27c6 1 595 1 601 0c17 -2 34 -13 43 -27c4 -6 89 -176 91 -182
c1 -3 3 -8 3 -11c1 -6 1 -55 0 -65c-5 -60 -38 -108 -79 -139l-4 -2v-323l16 -1c40 0 67 -22 67 -62zM237 592c-6 -11 -11 -21 -11 -21h548s-5 10 -11 21l-10 20h-506zM191 445c0 -1 4 -9 7 -13c9 -14 25 -24 42 -27c32 -5 58 14 67 36l2 4s-27 1 -59 1s-59 -1 -59 -1z
M691 445c0 -1 4 -9 7 -13c9 -14 25 -24 42 -27c32 -5 58 14 67 36l2 4s-27 1 -59 1s-59 -1 -59 -1zM505 425c-24 -4 -43 -7 -43 -7c-1 -1 12 -9 19 -11c8 -2 13 -2 22 -2c16 1 29 6 40 17c4 4 9 9 9 10s-4 0 -47 -7zM375 327c-24 -24 -65 -40 -104 -47c-1 0 0 -30 0 -146
v-146h41l1 59c0 66 0 64 4 81c13 51 52 90 102 104c19 5 25 5 87 5c56 0 54 0 70 -4c61 -13 105 -68 111 -128v-62l1 -55h41v292c-40 6 -76 22 -104 47c-27 -27 -69 -44 -108 -47c-9 -1 -25 -1 -34 0c-41 4 -78 22 -108 47zM453 112c-7 -1 -13 -8 -15 -15v-55l-1 -54h126
l-1 54v55c-3 7 -7 12 -15 15h-94z" />
  </g>

</svg>
