<?xml version="1.0" standalone="no"?>
<!DOCTYPE svg PUBLIC "-//W3C//DTD SVG 1.1//EN" "http://www.w3.org/Graphics/SVG/1.1/DTD/svg11.dtd" >
<svg xmlns="http://www.w3.org/2000/svg" xmlns:xlink="http://www.w3.org/1999/xlink" version="1.1" viewBox="-10 0 1010 1000">
  <g transform="matrix(1 0 0 -1 0 800)">
   <path fill="currentColor"
d="M937 -75c0 -34.6641 -22.2278 -57.038 -52 -62h-383c-339 0 -382 -1 -387 0c-29.7595 4.57838 -61.211 35.1559 -51 76c7.67464 30.6986 29.6799 49 69 49h13v323c-45.407 27.2442 -77.7984 83.7824 -83 141c-1 10 -1 59 0 65c0 3 2 8 3 11c2 6 87 176 91 182
c7.07746 11.7958 25.8475 25.2053 42 27c6 1 595 1 601 0c17 -2 34 -13 43 -27c4 -6 89 -176 91 -182c1 -3 3 -8 3 -11c1 -6 1 -55 0 -65c-4.58182 -59.5637 -37.9274 -108.196 -79 -139l-4 -2v-323l16 -1c39.7356 0 67 -22.48 67 -62zM237 592c-6 -11 -11 -21 -11 -21h548
s-5 10 -11 21l-10 20h-506zM191 445c0 -1 4 -9 7 -13c9 -14 25 -24 42 -27c32.2114 -5.36856 58.2371 14.0928 67 36l2 4s-27 1 -59 1s-59 -1 -59 -1zM691 445c0 -1 4 -9 7 -13c9 -14 25 -24 42 -27c32.2114 -5.36856 58.2371 14.0928 67 36l2 4s-27 1 -59 1s-59 -1 -59 -1z
M505 425c-24 -4 -43 -7 -43 -7c-1 -1 12 -9 19 -11c8 -2 13 -2 22 -2c16 1 29 6 40 17c4 4 9 9 9 10s-4 0 -47 -7zM375 327c-23.5436 -23.6669 -64.5722 -39.7754 -104 -47c-1 0 0 -30 0 -146v-146h41l1 59c0 66 0 64 4 81c13 51 52 90 102 104c19 5 25 5 87 5
c56 0 54 0 70 -4c60.8706 -12.8149 105.27 -67.8395 111 -128v-62l1 -55h41v292c-40.0097 5.81596 -76.2339 21.6364 -104 47c-26.7513 -26.7513 -69.3535 -43.949 -108 -47c-9 -1 -25 -1 -34 0c-41.1444 4.44804 -77.8398 21.8665 -108 47zM453 112
c-7.00398 -1.16733 -12.5119 -7.53571 -15 -15v-55l-1 -54h126l-1 54v55c-3.47439 6.94878 -7.07974 12.3599 -15 15h-94z" />
  </g>

</svg>
