<?xml version="1.0" standalone="no"?>
<!DOCTYPE svg PUBLIC "-//W3C//DTD SVG 1.1//EN" "http://www.w3.org/Graphics/SVG/1.1/DTD/svg11.dtd" >
<svg xmlns="http://www.w3.org/2000/svg" xmlns:xlink="http://www.w3.org/1999/xlink" version="1.1" viewBox="-10 0 1010 1000">
  <g transform="matrix(1 0 0 -1 0 800)">
   <path fill="currentColor"
d="M584 724c132 44 246 -39 300 -117c9 -14 14 -22 21 -37c28 -57 37 -127 15 -192c-13 -39 -32 -70 -60 -98c-21 -22 -346 -346 -354 -353c-43 -36 -86 -56 -138 -62c-10 -1 -42 0 -53 1c-33 4 -65 14 -93 30c-84 46 -142 130 -153 221c-7 84 15 137 61 192
c6 7 330 332 350 351c34 32 66 52 104 64zM671 610c-31 5 -57 -6 -79 -19c-13 -9 -18 -14 -84 -80l-66 -65l204 -204l64 65c38 38 67 67 70 71c36 45 38 105 1 159c-27 40 -68 68 -110 73zM289 293c-38 -38 -66 -68 -69 -71c-19 -24 -27 -49 -27 -77c0 -75 64 -138 122 -152
c11 -3 14 -3 28 -3c36 0 53 9 78 29c3 3 34 33 71 70l66 65l-204 204z" />
  </g>

</svg>
