<?xml version="1.0" standalone="no"?>
<!DOCTYPE svg PUBLIC "-//W3C//DTD SVG 1.1//EN" "http://www.w3.org/Graphics/SVG/1.1/DTD/svg11.dtd" >
<svg xmlns="http://www.w3.org/2000/svg" xmlns:xlink="http://www.w3.org/1999/xlink" version="1.1" viewBox="-10 0 1010 1000">
  <g transform="matrix(1 0 0 -1 0 800)">
   <path fill="currentColor"
d="M584 724c131.509 43.8364 246.446 -38.7295 300 -117c9 -14 14 -22 21 -37c28.4619 -56.9238 37.4088 -127.263 15 -192c-13.4376 -38.6332 -32.0598 -70.0598 -60 -98c-21 -22 -346 -346 -354 -353c-43 -36 -86 -56 -138 -62c-10 -1 -42 0 -53 1c-33 4 -65 14 -93 30
c-84 46 -142 130 -153 221c-7.00798 84.0957 14.5342 136.743 61 192c6 7 330 332 350 351c34 32 66 52 104 64zM671 610c-31.456 5.24266 -57.4365 -5.52283 -79 -19c-13 -9 -18 -14 -84 -80l-66 -65l204 -204l64 65c38 38 67 67 70 71
c36.365 45.4562 37.7436 104.759 1 159c-27 40 -68 68 -110 73zM289 293c-38 -38 -66 -68 -69 -71c-19 -24 -27 -49 -27 -77c0 -75.2645 63.6761 -137.813 122 -152c11 -3 14 -3 28 -3c36.2522 0 53.0968 9.33962 78 29c3 3 34 33 71 70l66 65l-204 204l-65 -65z" />
  </g>

</svg>
