<?xml version="1.0" standalone="no"?>
<!DOCTYPE svg PUBLIC "-//W3C//DTD SVG 1.1//EN" "http://www.w3.org/Graphics/SVG/1.1/DTD/svg11.dtd" >
<svg xmlns="http://www.w3.org/2000/svg" xmlns:xlink="http://www.w3.org/1999/xlink" version="1.1" viewBox="-10 0 1010 1000">
  <g transform="matrix(1 0 0 -1 0 800)">
   <path fill="currentColor"
d="M566 600c-9.33244 12.4433 -18 26.3245 -18 44c0 47.4188 55.3634 80.4244 98 52c5 -3 271 -270 278 -278c8.06983 -9.68379 14 -22.3176 14 -39c0 -51.0769 -60.4073 -82.8676 -103 -47l-4 3c-38.2602 -38.0731 -76.26 -76.4067 -114 -115v-162
c-3.63693 -9.09234 -6.13668 -15.705 -11 -23c-7.33202 -12.22 -101.488 -102.658 -105 -105c-21 -14 -47 -15 -68 -2c-4 3 -14 12 -74 72l-69 69s-22 -21 -47 -46c-45 -45 -49 -48 -57 -52c-56.5279 -30.8334 -117.816 36.3765 -80 91c19.1 19.1 8.13964 10.9877 95 96
c0 0 -31 32 -69 70c-76 76 -74 73 -78 85c-3 8 -4 13 -4 22c0 10 3 20 7 28c10.9821 19.7679 103.963 108.978 109 112c7.4882 4.99213 12.8777 8.14629 24 10h81l81 1zM587 444c-37 -37 -69 -68 -71 -70c-7.71783 -6.17426 -20.8406 -13 -33 -13h-156l-26 -26l265 -265
c8.94022 8.05978 17.5925 16.4075 26 25v156c1 11 5 22 11 31c2 3 25 27 71 73l69 68c-29.078 29.922 -58.4025 59.5975 -88 89l-68 -68z" />
  </g>

</svg>
