<?xml version="1.0" standalone="no"?>
<!DOCTYPE svg PUBLIC "-//W3C//DTD SVG 1.1//EN" "http://www.w3.org/Graphics/SVG/1.1/DTD/svg11.dtd" >
<svg xmlns="http://www.w3.org/2000/svg" xmlns:xlink="http://www.w3.org/1999/xlink" version="1.1" viewBox="-10 0 1010 1000">
  <g transform="matrix(1 0 0 -1 0 800)">
   <path fill="currentColor"
d="M566 600c-9 12 -18 26 -18 44c0 47 55 80 98 52c5 -3 271 -270 278 -278c8 -10 14 -22 14 -39c0 -51 -60 -83 -103 -47l-4 3c-38 -38 -76 -76 -114 -115v-162c-4 -9 -6 -16 -11 -23c-7 -12 -101 -103 -105 -105c-21 -14 -47 -15 -68 -2c-4 3 -14 12 -74 72l-69 69
s-22 -21 -47 -46c-45 -45 -49 -48 -57 -52c-57 -31 -118 36 -80 91c19 19 8 11 95 96c0 0 -31 32 -69 70c-76 76 -74 73 -78 85c-3 8 -4 13 -4 22c0 10 3 20 7 28c11 20 104 109 109 112c7 5 13 8 24 10h81l81 1zM587 444c-37 -37 -69 -68 -71 -70c-8 -6 -21 -13 -33 -13
h-156l-26 -26l265 -265c9 8 18 16 26 25v156c1 11 5 22 11 31c2 3 25 27 71 73l69 68c-29 30 -58 60 -88 89z" />
  </g>

</svg>
