<?xml version="1.0" standalone="no"?>
<!DOCTYPE svg PUBLIC "-//W3C//DTD SVG 1.1//EN" "http://www.w3.org/Graphics/SVG/1.1/DTD/svg11.dtd" >
<svg xmlns="http://www.w3.org/2000/svg" xmlns:xlink="http://www.w3.org/1999/xlink" version="1.1" viewBox="-10 0 1010 1000">
  <g transform="matrix(1 0 0 -1 0 800)">
   <path fill="currentColor"
d="M302 674c4 1 34 1 200 1h195c25.9421 -8.64736 43.8666 -20.6553 51 -48c11.0641 -44.2566 -24.3951 -74.6589 -56 -77h-4v-162l55 -55c60 -60 60 -60 65 -72c5 -11 4 -7 4 -86c0 -67 0 -71 -1 -76c-5.95755 -27.4047 -25.1979 -40.3993 -51 -49h-197l-1 -67
c0 -67 0 -68 -1 -73c-15.4465 -61.786 -105.571 -61.61 -122 0c-1 5 -1 6 -1 73l-1 67h-96c-83 0 -96 0 -101 1c-26.177 4.02724 -44.7633 23.0534 -51 48c-1 5 -1 9 -1 76c0 79 -1 75 4 86c5 12 5 12 65 72l55 55v162h-2c-32.1017 0 -50.5221 21.8273 -58 48
c-10.2981 41.1925 18.726 70.4811 50 76zM437 451v-98c-1.93624 -9.68118 -5.01242 -17.5186 -10 -25c-3 -5 -11 -13 -59 -61l-56 -55v-37h376v37l-56 55c-48 48 -56 56 -59 61c-4.98344 7.47516 -8.06517 15.3259 -10 25v98l-1 99h-124l-1 -99z" />
  </g>

</svg>
