<?xml version="1.0" standalone="no"?>
<!DOCTYPE svg PUBLIC "-//W3C//DTD SVG 1.1//EN" "http://www.w3.org/Graphics/SVG/1.1/DTD/svg11.dtd" >
<svg xmlns="http://www.w3.org/2000/svg" xmlns:xlink="http://www.w3.org/1999/xlink" version="1.1" viewBox="-10 0 1010 1000">
  <g transform="matrix(1 0 0 -1 0 800)">
   <path fill="currentColor"
d="M302 674c4 1 34 1 200 1h195c26 -9 44 -21 51 -48c11 -44 -24 -75 -56 -77h-4v-162l55 -55c60 -60 60 -60 65 -72c5 -11 4 -7 4 -86c0 -67 0 -71 -1 -76c-6 -27 -25 -40 -51 -49h-197l-1 -67c0 -67 0 -68 -1 -73c-15 -62 -106 -62 -122 0c-1 5 -1 6 -1 73l-1 67h-96
c-83 0 -96 0 -101 1c-26 4 -45 23 -51 48c-1 5 -1 9 -1 76c0 79 -1 75 4 86c5 12 5 12 65 72l55 55v162h-2c-32 0 -51 22 -58 48c-10 41 19 70 50 76zM437 451v-98c-2 -10 -5 -18 -10 -25c-3 -5 -11 -13 -59 -61l-56 -55v-37h376v37l-56 55c-48 48 -56 56 -59 61
c-5 7 -8 15 -10 25v98l-1 99h-124z" />
  </g>

</svg>
