<?xml version="1.0" standalone="no"?>
<!DOCTYPE svg PUBLIC "-//W3C//DTD SVG 1.1//EN" "http://www.w3.org/Graphics/SVG/1.1/DTD/svg11.dtd" >
<svg xmlns="http://www.w3.org/2000/svg" xmlns:xlink="http://www.w3.org/1999/xlink" version="1.1" viewBox="-10 0 1010 1000">
  <g transform="matrix(1 0 0 -1 0 800)">
   <path fill="currentColor"
d="M447 708c14 20 36 35 69 27c15 -4 29 -13 37 -27c2 -3 65 -123 142 -268l140 -263l48 -81c26 -44 49 -82 50 -84c3 -8 4 -14 4 -24c0 -25 -10 -39 -25 -50c-14 -10 -75 -37 -119 -51c-78 -25 -155 -38 -245 -43c-18 -1 -82 -1 -100 0c-112 6 -207 27 -299 64
c-23 9 -51 22 -58 27c-16 10 -28 27 -28 52c0 11 1 17 5 26c1 3 24 41 50 84c68 108 124 228 186 342c77 145 141 266 143 269zM500 541c-185 -347 -193 -363 -193 -364s30 -12 54 -19c105 -31 186 -32 278 -4c23 7 55 19 55 20s-194 367 -194 367zM456 407
c13 13 34 23 60 16c22 -6 39 -23 45 -46c2 -7 2 -23 0 -30c-9 -30 -33 -52 -74 -46c-11 2 -23 9 -31 17c-24 24 -25 65 0 89zM394 282c13 13 33 22 59 16c22 -6 39 -23 45 -46c2 -7 2 -23 0 -30c-9 -30 -32 -52 -73 -46c-11 2 -24 9 -32 17c-24 24 -24 65 1 89zM246 65
c-4.47024 0 -30 -49 -30 -49c0 -1 -1 -1 12 -5c154 -54 348 -56 505 -11c12 3 49 15 51 16c3 0 -27 47 -27 47c-1 1 -5 -1 -17 -6c-144 -58 -268 -63 -417 -18c-23 7 -59 19 -77 26z" />
  </g>

</svg>
