<?xml version="1.0" standalone="no"?>
<!DOCTYPE svg PUBLIC "-//W3C//DTD SVG 1.1//EN" "http://www.w3.org/Graphics/SVG/1.1/DTD/svg11.dtd" >
<svg xmlns="http://www.w3.org/2000/svg" xmlns:xlink="http://www.w3.org/1999/xlink" version="1.1" viewBox="-10 0 1010 1000">
  <g transform="matrix(1 0 0 -1 0 800)">
   <path fill="currentColor"
d="M447 708c13.5204 20.2805 36.4117 35.1471 69 27c15 -4 29 -13 37 -27c2 -3 65 -123 142 -268l140 -263l48 -81c26 -44 49 -82 50 -84c3 -8 4 -14 4 -24c0 -25.3888 -9.68271 -38.512 -25 -50c-14 -10 -75 -37 -119 -51c-78 -25 -155 -38 -245 -43c-18 -1 -82 -1 -100 0
c-112 6 -207 27 -299 64c-23 9 -51 22 -58 27c-16.381 10.0806 -28 27.4147 -28 52c0 11 1 17 5 26c1 3 24 41 50 84c67.7834 108.217 124.062 227.938 186 342c77 145 141 266 143 269zM500 541c-184.748 -346.641 -193 -363.3 -193 -364c0 -1 30 -12 54 -19
c104.671 -30.959 186.38 -32.4338 278 -4c23 7 55 19 55 20s-194 367 -194 367zM456 407c13.2988 13.2988 33.5807 22.6048 60 16c22 -6 39 -23 45 -46c2 -7 2 -23 0 -30c-8.7916 -30.1426 -32.6562 -51.9063 -74 -46c-11 2 -23 9 -31 17c-24 24 -25 65 0 89zM394 282
c13.1473 13.1473 33.0447 22.4888 59 16c22 -6 39 -23 45 -46c2 -7 2 -23 0 -30c-8.67656 -29.7482 -32.3038 -51.8137 -73 -46c-11 2 -24 9 -32 17c-24 24 -24 65 1 89zM244 64c-3 -4 -28 -48 -28 -48c0 -1 -1 -1 12 -5c153.512 -54.1808 348.245 -56.2178 505 -11
c12 3 49 15 51 16c2.75745 0 -26.8958 46.8958 -27 47c-1 1 -5 -1 -17 -6c-144 -58 -268 -63 -417 -18c-23 7 -59 19 -77 26c-1 0 -1 0 -2 -1z" />
  </g>

</svg>
