<?xml version="1.0" standalone="no"?>
<!DOCTYPE svg PUBLIC "-//W3C//DTD SVG 1.1//EN" "http://www.w3.org/Graphics/SVG/1.1/DTD/svg11.dtd" >
<svg xmlns="http://www.w3.org/2000/svg" xmlns:xlink="http://www.w3.org/1999/xlink" version="1.1" viewBox="-10 0 1010 1000">
  <g transform="matrix(1 0 0 -1 0 800)">
   <path fill="currentColor"
d="M377 690c8.65613 30.9147 36.0148 54.9963 76 45c6.86417 -1.14403 142.469 -65.6794 155 -80c2 -2 5 -6 7 -9c7 -11 5 -2 35 -154c15 -76 29 -140 29 -140c45.8056 -7.63427 171.459 -37.7837 177 -40c54.117 -17.5515 94.8759 -60.2701 98 -129
c3.1886 -82.9036 -53.9693 -142.516 -120 -154c-10 -2 -35 -2 -45 0c-15 3 -620 149 -625 151c-13 5 -22 13 -29 24s-5 0 -40 176l-32 161v9c0 42.9483 38.3513 69.0111 78 60c6.12152 -1.02025 139.113 -64.1133 155 -80c2 -2 15 -22 29 -43l26 -39l11 -2c6 -1 12 -3 12 -3
c1 0 1 25 1 121v121zM813 152c10.9565 0 16 14.7072 16 26c0 7 -2 11 -7 14c-4.83 2.415 -212.17 46.585 -217 49c-13 4 -24 13 -32 25c-7 11 -5 1 -37 160l-29 144l-3 2l-4 2v-221c-10.8145 -27.0363 -24.6948 -53 -62 -53h-10l-68 17c-41 10 -69 18 -72 19
c-9 4 -17 10 -23 17c-2 2 -14 20 -28 41l-24 36c0 -6.63703 0.0236654 -1.11833 28 -141c454.041 -109.111 571.559 -137 572 -137zM114 -13c-24.6628 -4.35226 -43.1443 -24.0051 -50 -48c-9.85757 -39.4303 19.4245 -71.1422 51 -76c5 -1 48 0 387 0h383
c29.812 4.96866 52 27.3286 52 62c0 34.7769 -22.1989 57.0332 -52 62h-383c-326 0 -384 1 -388 0z" />
  </g>

</svg>
