<?xml version="1.0" standalone="no"?>
<!DOCTYPE svg PUBLIC "-//W3C//DTD SVG 1.1//EN" "http://www.w3.org/Graphics/SVG/1.1/DTD/svg11.dtd" >
<svg xmlns="http://www.w3.org/2000/svg" xmlns:xlink="http://www.w3.org/1999/xlink" version="1.1" viewBox="-10 0 1010 1000">
  <g transform="matrix(1 0 0 -1 0 800)">
   <path fill="currentColor"
d="M820 495c78.4414 3.20169 146 -60.1291 146 -150c0 -65.6527 -37.2039 -109.981 -86 -130c-5 -2 -7 -3 -382 -127c-52 -17 -112 -36 -132 -43c-41 -13 -44 -15 -55 -14c-15 1 -29 6 -39 15c-4 3 -214 242 -219 249c-6.52076 9.78114 -12 20.8084 -12 37
c0 35.0764 25.5645 58.5877 54 62c8 1 140 9 148 9c7 0 14 -1 21 -3c2 -1 22 -11 45 -22l41 -20l11 3l12 4c-118.863 206.986 -113.697 196.394 -119 207c-3 8 -5 15 -5 24c0 34.6796 23.6238 57.065 52 62c2.17264 0.724212 142.583 10 145 10h4c1 0 4 -1 7 -1
c14 -1 27 -6 37 -16c13.7796 -13.7796 180.96 -208 183 -208c4.30087 0 91.6156 43.1539 111 48c11 3 20 4 32 4zM825 371c-12.3961 0 -131.2 -67 -164 -67c-21.5455 0 -33.5598 7.55983 -45 19c-6.8463 6.8463 -193 218 -193 218h-4l-3 -1l54 -93
c34.8647 -59.2701 53.3345 -90.0035 58 -104c2 -5 2 -6 2 -16c0 -35.1541 -20.435 -53.8386 -49 -62c-23 -7 -123 -35 -127 -36h-13c-14 0 -14 1 -61 24c-22 11 -40 19 -40 19c0.828723 -0.945825 89.4585 -103.729 94 -106l236 78c130 43 242 80 250 83s15 5 16 6
c10.3331 6.45821 4.14233 38 -11 38zM114 -13c-24.6628 -4.35226 -43.1443 -24.0051 -50 -48c-9.85757 -39.4303 19.4245 -71.1422 51 -76c5 -1 48 0 387 0h383c29.812 4.96866 52 27.3286 52 62c0 34.7769 -22.1989 57.0332 -52 62h-383c-326 0 -384 1 -388 0z" />
  </g>

</svg>
