<?xml version="1.0" standalone="no"?>
<!DOCTYPE svg PUBLIC "-//W3C//DTD SVG 1.1//EN" "http://www.w3.org/Graphics/SVG/1.1/DTD/svg11.dtd" >
<svg xmlns="http://www.w3.org/2000/svg" xmlns:xlink="http://www.w3.org/1999/xlink" version="1.1" viewBox="-10 0 1010 1000">
  <g transform="matrix(1 0 0 -1 0 800)">
   <path fill="currentColor"
d="M114 737c9 2 58 0 87 -3c151 -14 255 -78 310 -188l7 -13c74 74 178 104 325 110c28 1 40 1 48 -1c22 -6 39 -23 45 -46c1 -5 1 -7 1 -22c0 -72 -22 -138 -52 -185c-59 -86 -168 -138 -307 -148c-13 -1 -15 -2 -15 -3s10 -1 67 -1h67c27 -4 47 -24 52 -49
c1 -5 1 -9 1 -79c0 -80 0 -78 -4 -96c-18 -82 -80 -138 -162 -149c-9 -1 -158 -1 -167 0c-88 10 -147 73 -163 149c-4 18 -4 16 -4 96c0 70 0 74 1 79c5 22 21 39 42 46c9 3 10 4 80 4h65v33l-5 1c-232 20 -370 146 -370 393c0 31 3 39 18 54c9 9 20 16 33 18zM192 608
c0 -2 3 -22 5 -30c26 -113 102 -169 232 -180c0 0 -1 4 -2 10c-26 124 -90 182 -215 199c-21 3 -20 3 -20 1zM805 515c0 1 -41 -4 -45 -5c-68 -12 -129 -34 -163 -75c-12 -14 -22 -31 -27 -47c-3 -8 -6 -22 -5 -23c0 0 5 0 11 1c107 11 191 44 221 124c3 8 8 23 8 25z
M375 112v-72c9 -27 23 -46 53 -52h144c30 5 44 25 53 52v72h-250z" />
  </g>

</svg>
