<?xml version="1.0" standalone="no"?>
<!DOCTYPE svg PUBLIC "-//W3C//DTD SVG 1.1//EN" "http://www.w3.org/Graphics/SVG/1.1/DTD/svg11.dtd" >
<svg xmlns="http://www.w3.org/2000/svg" xmlns:xlink="http://www.w3.org/1999/xlink" version="1.1" viewBox="-10 0 1010 1000">
  <g transform="matrix(1 0 0 -1 0 800)">
   <path fill="currentColor"
d="M114 737c9 2 58 0 87 -3c151.076 -14.2749 254.902 -77.8049 310 -188l7 -13c73.6782 73.6782 178.22 104.069 325 110c28 1 40 1 48 -1c22 -6 39 -23 45 -46c1 -5 1 -7 1 -22c0 -71.73 -21.6435 -137.779 -52 -185c-58.6436 -86.4993 -168.326 -138.095 -307 -148
c-13 -1 -15 -2 -15 -3s10 -1 67 -1h67c26.912 -4.48533 46.5624 -23.9869 52 -49c1 -5 1 -9 1 -79c0 -80 0 -78 -4 -96c-17.5039 -81.685 -79.9638 -137.957 -162 -149c-9 -1 -158 -1 -167 0c-88.3898 10.1988 -147.272 73.2184 -163 149c-4 18 -4 16 -4 96c0 70 0 74 1 79
c5 22 21 39 42 46c9 3 10 4 80 4h65v33l-5 1c-231.917 19.6539 -370 145.653 -370 393c0 31.4362 3.22967 39.2297 18 54c9 9 20 16 33 18zM192 608c0 -2 3 -22 5 -30c26.0066 -112.695 102.203 -169.184 232 -180c0 0 -1 4 -2 10
c-26.1447 124.187 -90.2206 182.363 -215 199c-21 3 -20 3 -20 1zM805 515c0 1.33311 -40.8742 -4.48428 -45 -5c-67.5194 -11.5277 -128.839 -34.0069 -163 -75c-12 -14 -22 -31 -27 -47c-3 -8 -6 -22 -5 -23c0 0 5 0 11 1c106.98 10.8794 190.663 43.8247 221 124
c3 8 8 23 8 25zM375 76v-36c8.95547 -26.8664 22.9714 -45.9943 53 -52h144c30.1671 5.02785 44.1447 25.4341 53 52v72h-250v-36z" />
  </g>

</svg>
