<?xml version="1.0" standalone="no"?>
<!DOCTYPE svg PUBLIC "-//W3C//DTD SVG 1.1//EN" "http://www.w3.org/Graphics/SVG/1.1/DTD/svg11.dtd" >
<svg xmlns="http://www.w3.org/2000/svg" xmlns:xlink="http://www.w3.org/1999/xlink" version="1.1" viewBox="-10 0 1010 1000">
  <g transform="matrix(1 0 0 -1 0 800)">
   <path fill="currentColor"
d="M482 675h16c200 2 359 -153 376 -345c1 -15 1 -54 -1 -65l5 -4c35 -37 64 -80 80 -122c26 -66 24 -135 -12 -171c-59 -59 -165 -30 -249 1l-12 5l-9 -5c-18 -10 -38 -18 -59 -25c-103 -34 -217 -21 -310 35c-52 32 -96 76 -128 128c-45 76 -64 166 -49 253l-10 11
c-47 58 -77 111 -88 154c-21 75 22 127 81 137c43 7 100 -4 182 -37l11 -4l4 2c52 31 111 49 172 52zM268 394c109 -110 251 -209 402 -278l9 9c80 82 99 230 16 332c-9 11 -27 29 -38 38c-61 49 -158 74 -243 40c-64 -23 -116 -73 -143 -135zM161 536c0 -1 15 -31 21 -37
l6 9c3 5 12 18 12 18c-7 2 -39 12 -39 10zM260 229c0 -1 1 -2 2 -4c32 -95 116 -171 230 -175c11 0 29 0 29 1c0 0 -2 2 -4 3c-8 5 -38 22 -51 30c-80 49 -139 92 -205 145c-1 1 -1 1 -1 0zM827 116c-5 -10 -22 -35 -31 -47c0 -2 45 -10 50 -10c4 0 4 0 2 11
c-2 8 -5 20 -9 29c-3 8 -9 20 -10 20c0 0 -1 -2 -2 -3z" />
  </g>

</svg>
