<?xml version="1.0" standalone="no"?>
<!DOCTYPE svg PUBLIC "-//W3C//DTD SVG 1.1//EN" "http://www.w3.org/Graphics/SVG/1.1/DTD/svg11.dtd" >
<svg xmlns="http://www.w3.org/2000/svg" xmlns:xlink="http://www.w3.org/1999/xlink" version="1.1" viewBox="-10 0 1010 1000">
  <g transform="matrix(1 0 0 -1 0 800)">
   <path fill="currentColor"
d="M377 690c9 31 36 55 76 45c7 -1 142 -66 155 -80c2 -2 5 -6 7 -9c7 -11 5 -2 35 -154c15 -76 29 -140 29 -140c46 -8 171 -38 177 -40c54 -18 95 -60 98 -129c3 -83 -54 -143 -120 -154c-10 -2 -35 -2 -45 0c-15 3 -620 149 -625 151c-13 5 -22 13 -29 24s-5 0 -40 176
l-32 161v9c0 43 38 69 78 60c6 -1 139 -64 155 -80c2 -2 15 -22 29 -43l26 -39l11 -2c6 -1 12 -3 12 -3c1 0 1 25 1 121v121zM813 152c11 0 16 15 16 26c0 7 -2 11 -7 14c-5 2 -212 47 -217 49c-13 4 -24 13 -32 25c-7 11 -5 1 -37 160l-29 144l-3 2l-4 2v-221
c-11 -27 -25 -53 -62 -53h-10l-68 17c-41 10 -69 18 -72 19c-9 4 -17 10 -23 17c-2 2 -14 20 -28 41l-24 36c0 -7 0 -1 28 -141c454 -109 572 -137 572 -137zM114 -13c4 1 62 0 388 0h383c30 -5 52 -27 52 -62s-22 -57 -52 -62h-383c-339 0 -382 -1 -387 0
c-32 5 -61 37 -51 76c7 24 25 44 50 48z" />
  </g>

</svg>
