<?xml version="1.0" standalone="no"?>
<!DOCTYPE svg PUBLIC "-//W3C//DTD SVG 1.1//EN" "http://www.w3.org/Graphics/SVG/1.1/DTD/svg11.dtd" >
<svg xmlns="http://www.w3.org/2000/svg" xmlns:xlink="http://www.w3.org/1999/xlink" version="1.1" viewBox="-10 0 1010 1000">
  <g transform="matrix(1 0 0 -1 0 800)">
   <path fill="currentColor"
d="M313 675c0 34 24 57 51 62c4 1 17 0 75 0h71c16 -3 26 -9 36 -20c2 -2 38 -56 89 -132l86 -129h54c51 0 53 0 61 -1c41 -7 75 -27 99 -60c31 -41 42 -95 26 -150c-16 -51 -57 -86 -110 -97c-16 -3 -18 -4 -76 -4h-54l-86 -129c-51 -76 -87 -130 -89 -132
c-10 -11 -20 -17 -36 -20h-70c-60 0 -70 -1 -75 0c-28 4 -52 28 -52 62v9l23 104c13 57 23 105 23 105s-6 1 -13 1h-13l-56 -43c-67 -50 -58 -44 -80 -51h-38c-33 0 -39 0 -44 1c-32 5 -57 37 -52 71c1 4 10 31 30 92l29 86l-29 86c-20 61 -29 88 -30 92c-5 36 17 60 42 69
c9 3 13 3 54 3h38c22 -7 13 -1 80 -51l56 -43h13c7 0 13 1 13 1s-10 48 -23 105l-23 104v9zM453 612c0 0 10 -48 23 -105l24 -104v-9c0 -34 -23 -57 -53 -62h-71c-80 0 -76 0 -87 4c-8 3 -11 5 -37 25c-14 10 -25 18 -25 18s5 -14 11 -31c11 -33 12 -39 12 -48
s-1 -15 -12 -48c-6 -17 -11 -31 -11 -31s11 8 25 18c27 20 30 22 37 25c11 5 7 4 87 4h71c30 -5 53 -28 53 -62v-9l-24 -104c-13 -57 -23 -105 -23 -105h14l85 128c78 118 86 129 91 134c10 10 20 16 34 18c5 1 15 1 73 1c74 0 75 0 82 3c20 10 8 49 -7 57l-5 2h-71
c-70 0 -71 1 -76 2c-13 3 -25 10 -33 20c-2 2 -41 62 -88 132l-85 127h-14z" />
  </g>

</svg>
