<?xml version="1.0" standalone="no"?>
<!DOCTYPE svg PUBLIC "-//W3C//DTD SVG 1.1//EN" "http://www.w3.org/Graphics/SVG/1.1/DTD/svg11.dtd" >
<svg xmlns="http://www.w3.org/2000/svg" xmlns:xlink="http://www.w3.org/1999/xlink" version="1.1" viewBox="-10 0 1010 1000">
  <g transform="matrix(1 0 0 -1 0 800)">
   <path fill="currentColor"
d="M482 675h16c200.357 2.27679 358.526 -152.79 376 -345c1.34328 -14.7761 0.776625 -54.3403 -1 -65l5 -4c35 -37 64 -80 80 -122c25.536 -65.856 24.221 -134.779 -12 -171c-58.5024 -58.5024 -164.692 -30.4088 -249 1l-12 5l-9 -5c-18 -10 -38 -18 -59 -25
c-103 -34 -217 -21 -310 35c-52 32 -96 76 -128 128c-45.1662 75.9613 -63.5792 165.525 -49 253l-10 11c-47 58 -77 111 -88 154c-20.5356 75.2972 21.582 127.327 81 137c43 7 100 -4 182 -37l11 -4l4 2c52 31 111 49 172 52zM268 394
c108.838 -110.441 251.243 -208.873 402 -278l9 9c80.0475 82.4732 99.3763 229.517 16 332c-9 11 -27 29 -38 38c-60.8351 48.9649 -158 73.9999 -243 40c-64 -23 -116 -73 -143 -135zM161 536c0 -1.13565 15.0405 -31.0405 21 -37l6 9c2.726 4.54333 12 18 12 18
c-6.5057 2.00175 -39 12.1234 -39 10zM260 229c0 -1 1 -2 2 -4c31.7144 -95.1431 115.51 -170.837 230 -175c11 0 29 0 29 1c0 0 -2 2 -4 3c-8 5 -38 22 -51 30c-80.0836 48.5355 -139.349 92.4791 -205 145c-1 1 -1 1 -1 0zM827 116
c-5.15435 -10.3087 -22.2943 -35.0293 -31 -47c0 -2.17347 44.7729 -10 50 -10c4 0 4 0 2 11c-2 8 -5 20 -9 29c-3 8 -9 20 -10 20c0 0 -1 -2 -2 -3z" />
  </g>

</svg>
