<?xml version="1.0" standalone="no"?>
<!DOCTYPE svg PUBLIC "-//W3C//DTD SVG 1.1//EN" "http://www.w3.org/Graphics/SVG/1.1/DTD/svg11.dtd" >
<svg xmlns="http://www.w3.org/2000/svg" xmlns:xlink="http://www.w3.org/1999/xlink" version="1.1" viewBox="-10 0 1010 1000">
  <g transform="matrix(1 0 0 -1 0 800)">
   <path fill="currentColor"
d="M820 495c78 3 146 -60 146 -150c0 -66 -37 -110 -86 -130c-5 -2 -7 -3 -382 -127c-52 -17 -112 -36 -132 -43c-41 -13 -44 -15 -55 -14c-15 1 -29 6 -39 15c-4 3 -214 242 -219 249c-7 10 -12 21 -12 37c0 35 26 59 54 62c8 1 140 9 148 9c7 0 14 -1 21 -3
c2 -1 22 -11 45 -22l41 -20l11 3l12 4c-119 207 -114 196 -119 207c-3 8 -5 15 -5 24c0 35 24 57 52 62c2 1 143 10 145 10h4c1 0 4 -1 7 -1c14 -1 27 -6 37 -16c14 -14 181 -208 183 -208c4 0 92 43 111 48c11 3 20 4 32 4zM825 371c-12 0 -131 -67 -164 -67
c-22 0 -34 8 -45 19c-7 7 -193 218 -193 218h-4l-3 -1l54 -93c35 -59 53 -90 58 -104c2 -5 2 -6 2 -16c0 -35 -20 -54 -49 -62c-23 -7 -123 -35 -127 -36h-13c-14 0 -14 1 -61 24c-22 11 -40 19 -40 19c1 -1 89 -104 94 -106l236 78c130 43 242 80 250 83s15 5 16 6
c10 6 4 38 -11 38zM114 -13c4 1 62 0 388 0h383c30 -5 52 -27 52 -62s-22 -57 -52 -62h-383c-339 0 -382 -1 -387 0c-32 5 -61 37 -51 76c7 24 25 44 50 48z" />
  </g>

</svg>
