<?xml version="1.0" standalone="no"?>
<!DOCTYPE svg PUBLIC "-//W3C//DTD SVG 1.1//EN" "http://www.w3.org/Graphics/SVG/1.1/DTD/svg11.dtd" >
<svg xmlns="http://www.w3.org/2000/svg" xmlns:xlink="http://www.w3.org/1999/xlink" version="1.1" viewBox="-10 0 1010 1000">
  <g transform="matrix(1 0 0 -1 0 800)">
   <path fill="currentColor"
d="M562 675c0 -35 -22 -57 -52 -62h-195c-172 0 -195 -1 -200 0c-38 6 -70 54 -42 96c9 14 24 25 41 28c4 1 34 0 200 0h196c30 -5 52 -27 52 -62zM937 675c0 -35 -22 -57 -52 -62h-68l-67 -1v-289c0 -268 0 -291 -1 -297c-11 -68 -48 -114 -100 -142
c-64 -34 -144 -27 -201 18c-40 31 -65 75 -72 127c-6 46 6 85 23 113c30 53 81 86 142 94c30 3 64 -2 83 -9c1 0 1 12 1 229v229l2 5c7 25 26 43 50 47c4 1 21 0 106 0h102c30 -5 52 -27 52 -62zM562 488c0 -38 -23 -53 -52 -63h-195c-172 0 -195 0 -200 1
c-31 5 -61 34 -51 76c7 24 25 43 50 47c4 1 34 1 200 1h196c28 -9 52 -24 52 -62zM114 362c4 1 26 0 138 0h133c27 -5 44 -23 51 -48c10 -41 -20 -71 -51 -76h-132c-116 0 -133 -1 -138 0c-38 6 -70 54 -42 96c9 14 24 25 41 28zM555 112c-32 -6 -55 -27 -55 -62
c0 -40 34 -71 78 -60c26 7 47 27 47 60c0 37 -29 61 -61 62h-9z" />
  </g>

</svg>
