<?xml version="1.0" standalone="no"?>
<!DOCTYPE svg PUBLIC "-//W3C//DTD SVG 1.1//EN" "http://www.w3.org/Graphics/SVG/1.1/DTD/svg11.dtd" >
<svg xmlns="http://www.w3.org/2000/svg" xmlns:xlink="http://www.w3.org/1999/xlink" version="1.1" viewBox="-10 0 1010 1000">
  <g transform="matrix(1 0 0 -1 0 800)">
   <path fill="currentColor"
d="M64 626c7 30 36 57 77 47c7 -2 16 -6 22 -11c6 -4 291 -320 296 -328c12 -17 13 -49 0 -68c-5 -8 -290 -324 -296 -328c-38 -26 -89 -9 -99 36c-1 5 -1 15 -1 326s0 321 1 326zM533 626c7 30 36 57 77 47c7 -2 15 -6 21 -11c6 -4 291 -320 296 -328c12 -19 14 -48 0 -68
c-5 -8 -290 -324 -296 -328c-37 -26 -88 -9 -98 36c-1 5 -1 15 -1 326s0 321 1 326zM188 449v-298c4 4 134 149 134 149s-130 145 -134 149zM656 300c0 -90 1 -149 1 -149c4 4 134 149 134 149s-130 145 -134 149c0 0 -1 -59 -1 -149z" />
  </g>

</svg>
