<?xml version="1.0" standalone="no"?>
<!DOCTYPE svg PUBLIC "-//W3C//DTD SVG 1.1//EN" "http://www.w3.org/Graphics/SVG/1.1/DTD/svg11.dtd" >
<svg xmlns="http://www.w3.org/2000/svg" xmlns:xlink="http://www.w3.org/1999/xlink" version="1.1" viewBox="-10 0 1010 1000">
  <g transform="matrix(1 0 0 -1 0 800)">
   <path fill="currentColor"
d="M368 662c12.5819 9.78593 32.0679 18.3107 54 11c23 -6 40 -24 45 -47c1 -5 1 -15 1 -326s0 -321 -1 -326c-5 -23 -22 -41 -45 -47c-21.8989 -5.47474 -41.4254 0.221779 -54 11c-5 4 -291 321 -295 328c-12.358 18.537 -13.5394 47.6909 0 68c4 7 290 324 295 328z
M836 662c12.6381 9.82966 33.1823 18.2726 55 11c23 -6 40 -24 45 -47c1 -5 1 -15 1 -326s0 -321 -1 -326c-5 -23 -22 -41 -45 -47c-21.7956 -5.4489 -42.3682 0.172768 -55 11c-5 4 -291 321 -295 328c-11.5707 17.356 -12.5388 49.1918 0 68c4 7 290 324 295 328zM277 375
c-37 -41 -67 -75 -67 -75s30 -34 67 -75l66 -74l1 74v150l-1 74zM745 375c-37 -41 -67 -75 -67 -75s30 -34 67 -75l67 -74v298l-67 -74z" />
  </g>

</svg>
