<?xml version="1.0" standalone="no"?>
<!DOCTYPE svg PUBLIC "-//W3C//DTD SVG 1.1//EN" "http://www.w3.org/Graphics/SVG/1.1/DTD/svg11.dtd" >
<svg xmlns="http://www.w3.org/2000/svg" xmlns:xlink="http://www.w3.org/1999/xlink" version="1.1" viewBox="-10 0 1010 1000">
  <g transform="matrix(1 0 0 -1 0 800)">
   <path fill="currentColor"
d="M368 662c13 10 32 18 54 11c23 -6 40 -24 45 -47c1 -5 1 -15 1 -326s0 -321 -1 -326c-5 -23 -22 -41 -45 -47c-22 -5 -41 0 -54 11c-5 4 -291 321 -295 328c-12 19 -14 48 0 68c4 7 290 324 295 328zM836 662c13 10 33 18 55 11c23 -6 40 -24 45 -47c1 -5 1 -15 1 -326
s0 -321 -1 -326c-5 -23 -22 -41 -45 -47c-22 -5 -42 0 -55 11c-5 4 -291 321 -295 328c-12 17 -13 49 0 68c4 7 290 324 295 328zM277 375c-37 -41 -67 -75 -67 -75s30 -34 67 -75l66 -74l1 74v150l-1 74zM745 375c-37 -41 -67 -75 -67 -75s30 -34 67 -75l67 -74v298z" />
  </g>

</svg>
