<?xml version="1.0" standalone="no"?>
<!DOCTYPE svg PUBLIC "-//W3C//DTD SVG 1.1//EN" "http://www.w3.org/Graphics/SVG/1.1/DTD/svg11.dtd" >
<svg xmlns="http://www.w3.org/2000/svg" xmlns:xlink="http://www.w3.org/1999/xlink" version="1.1" viewBox="-10 0 1010 1000">
  <g transform="matrix(1 0 0 -1 0 800)">
   <path fill="currentColor"
d="M281 737h222c205 0 220 0 226 -1c66.3328 -10.3645 121.35 -62.0021 125 -135c1 -11 1 -591 0 -602c-3.65125 -73.0249 -59.5587 -124.445 -125 -135c-7 -1 -18 -1 -229 -1c-210 0 -222 0 -229 1c-66.2107 10.3454 -121.324 61.4763 -125 135c-1 11 -1 591 0 602
c2.34102 46.8204 27.5086 83.4478 57 106c22 17 48 27 78 30zM285 611c-6 -2 -10 -5 -13 -11c-1 -3 -1 -4 -1 -24c0 -19 0 -20 1 -16c4.29506 24.3387 25.346 49.0384 52 52h-16c-17 0 -20 0 -23 -1zM729 597c-3.92755 5.77123 -7.3592 13.9432 -16 15h-186
c-154 0 -187 1 -183 0c29.2425 -4.17749 52 -28.8406 52 -62c0 -36.8886 -27.8748 -59.7768 -59 -62c-31.1301 -1.19731 -59.6334 19.8002 -65 52c-1 4 -1 -43 -1 -266v-271c3.92755 -5.77123 7.3592 -13.9432 16 -15h187c154 0 187 -1 183 0
c-28.0271 5.3385 -52 26.7453 -52 62c0 69.673 92.5564 82.9555 119 26c2 -4 3 -9 5 -16v537zM456 511c22.5475 22.5475 62.9419 25.0581 87 1c4 -4 131 -172 136 -180c6 -9 8 -20 8 -32s-2 -23 -8 -32c-5 -8 -132 -176 -136 -180c-24 -23 -63 -23 -87 1
c-4 4 -131 172 -135 179c-6 9 -8 20 -8 32s2 23 8 32c4 7 131 175 135 179zM476 331l-23 -31l23 -31c13 -17 24 -31 24 -31s11 14 24 31l23 31l-23 31c-13 17 -24 31 -24 31s-11 -14 -24 -31zM729 40c0 -11.5382 -10.3668 -27.3668 -17 -34c-9 -9 -21 -16 -34 -18
c-5 -1 14 0 14 0c21 0 23 -1 28 3c2 1 5 4 6 6c4 5 3 8 3 28v15z" />
  </g>

</svg>
