<?xml version="1.0" standalone="no"?>
<!DOCTYPE svg PUBLIC "-//W3C//DTD SVG 1.1//EN" "http://www.w3.org/Graphics/SVG/1.1/DTD/svg11.dtd" >
<svg xmlns="http://www.w3.org/2000/svg" xmlns:xlink="http://www.w3.org/1999/xlink" version="1.1" viewBox="-10 0 1010 1000">
  <g transform="matrix(1 0 0 -1 0 800)">
   <path fill="currentColor"
d="M64 688c8 35 46 63 88 44c3 -1 120 -80 289 -193c313 -209 291 -193 299 -205c6 -9 10 -20 10 -34s-4 -25 -10 -34c-8 -12 14 4 -299 -205c-169 -113 -286 -192 -289 -193c-7 -3 -16 -5 -24 -5c-30 -2 -57 19 -64 49c-1 5 -1 16 -1 388s0 383 1 388zM814 688
c8 32 36 57 77 47c23 -6 40 -24 45 -47c1 -5 1 -16 1 -388s0 -383 -1 -388c-6 -28 -30 -48 -58 -49c-30 -2 -57 19 -64 49c-1 5 -1 16 -1 388s0 383 1 388zM188 558v-516l1 1c23 15 385 257 385 257s-362 242 -385 257z" />
  </g>

</svg>
