<?xml version="1.0" standalone="no"?>
<!DOCTYPE svg PUBLIC "-//W3C//DTD SVG 1.1//EN" "http://www.w3.org/Graphics/SVG/1.1/DTD/svg11.dtd" >
<svg xmlns="http://www.w3.org/2000/svg" xmlns:xlink="http://www.w3.org/1999/xlink" version="1.1" viewBox="-10 0 1010 1000">
  <g transform="matrix(1 0 0 -1 0 800)">
   <path fill="currentColor"
d="M64 626c7.18713 29.9464 35.9287 57.2678 77 47c7 -2 16 -6 22 -11c6 -4 291 -320 296 -328c11.5707 -17.356 12.5388 -49.1918 0 -68c-5 -8 -290 -324 -296 -328c-37.8295 -26.4806 -88.5095 -8.95944 -99 36c-1 5 -1 15 -1 326s0 321 1 326zM533 626
c7.18713 29.9464 35.9287 57.2678 77 47c7 -2 15 -6 21 -11c6 -4 291 -320 296 -328c12.358 -18.537 13.5394 -47.6909 0 -68c-5 -8 -290 -324 -296 -328c-37.4596 -26.2217 -87.5299 -8.87204 -98 36c-1 5 -1 15 -1 326s0 321 1 326zM188 449v-298c4 4 134 149 134 149
s-130 145 -134 149zM656 300c0 -90 1 -149 1 -149c4 4 134 149 134 149s-130 145 -134 149c0 0 -1 -59 -1 -149z" />
  </g>

</svg>
