<?xml version="1.0" standalone="no"?>
<!DOCTYPE svg PUBLIC "-//W3C//DTD SVG 1.1//EN" "http://www.w3.org/Graphics/SVG/1.1/DTD/svg11.dtd" >
<svg xmlns="http://www.w3.org/2000/svg" xmlns:xlink="http://www.w3.org/1999/xlink" version="1.1" viewBox="-10 0 1010 1000">
  <g transform="matrix(1 0 0 -1 0 800)">
   <path fill="currentColor"
d="M189 688c8.29228 34.5512 45.5643 63.289 88 44c3 -1 120 -80 289 -193c313 -209 291 -193 299 -205c6.04359 -9.06538 10 -19.9413 10 -34c0 -14.1345 -3.93388 -24.9008 -10 -34c-8 -12 14 4 -299 -205c-169 -113 -286 -192 -289 -193c-7 -3 -16 -5 -24 -5
c-30 -2 -57 19 -64 49c-1 5 -1 16 -1 388s0 383 1 388zM312 300v-258c23.8888 14.8122 385.846 257.454 387 258c-1.12462 0.532346 -363.136 243.2 -387 258v-258z" />
  </g>

</svg>
