<?xml version="1.0" standalone="no"?>
<!DOCTYPE svg PUBLIC "-//W3C//DTD SVG 1.1//EN" "http://www.w3.org/Graphics/SVG/1.1/DTD/svg11.dtd" >
<svg xmlns="http://www.w3.org/2000/svg" xmlns:xlink="http://www.w3.org/1999/xlink" version="1.1" viewBox="-10 0 1010 1000">
  <g transform="matrix(1 0 0 -1 0 800)">
   <path fill="currentColor"
d="M562 675c0 -34.6641 -22.2278 -57.038 -52 -62h-195c-172 0 -195 -1 -200 0c-37.9737 5.84211 -70.2495 53.6258 -42 96c9 14 24 25 41 28c4 1 34 0 200 0h196c29.7764 -4.96273 52 -27.3788 52 -62zM937 675c0 -34.6641 -22.2278 -57.038 -52 -62h-68l-67 -1v-289
c0 -268 0 -291 -1 -297c-10.6788 -68.3442 -47.7075 -113.986 -100 -142c-64 -34 -144 -27 -201 18c-40 31 -65 75 -72 127c-5.72101 45.768 6.32792 85.2132 23 113c30 53 81 86 142 94c29.8482 2.98482 63.8399 -1.81496 83 -9c1 0 1 12 1 229v229l2 5c7 25 26 43 50 47
c4 1 21 0 106 0h102c29.7764 -4.96273 52 -27.3788 52 -62zM562 488c0 -38.4636 -22.997 -53.3323 -52 -63h-195c-172 0 -195 0 -200 1c-30.5151 4.69463 -61.468 34.1279 -51 76c6.92495 24.2373 25.0625 42.5993 50 47c4 1 34 1 200 1h196
c28.4533 -9.48443 52 -24.3889 52 -62zM114 362c4 1 26 0 138 0h133c27.0471 -4.50784 44.4776 -22.9976 51 -48c10.3258 -41.3033 -19.9215 -70.8203 -51 -76h-132c-116 0 -133 -1 -138 0c-37.9737 5.84211 -70.2495 53.6258 -42 96c9 14 24 25 41 28zM555 112
c-32.2671 -5.86674 -55 -26.7967 -55 -62c0 -40.1462 33.8329 -71.0418 78 -60c25.8705 7.0556 47 27.3886 47 60c0 37.475 -28.8474 60.8517 -61 62h-9z" />
  </g>

</svg>
