<?xml version="1.0" standalone="no"?>
<!DOCTYPE svg PUBLIC "-//W3C//DTD SVG 1.1//EN" "http://www.w3.org/Graphics/SVG/1.1/DTD/svg11.dtd" >
<svg xmlns="http://www.w3.org/2000/svg" xmlns:xlink="http://www.w3.org/1999/xlink" version="1.1" viewBox="-10 0 1010 1000">
  <g transform="matrix(1 0 0 -1 0 800)">
   <path fill="currentColor"
d="M64 688c7.62288 31.762 36.0921 57.227 77 47c23 -6 40 -24 45 -47c1 -5 1 -16 1 -388s0 -383 -1 -388c-6 -28 -30 -48 -58 -49c-30 -2 -57 19 -64 49c-1 5 -1 16 -1 388s0 383 1 388zM848 731c11.2517 6.75101 26.215 8.19626 43 4c23 -6 40 -24 45 -47
c1 -5 1 -16 1 -388s0 -383 -1 -388c-3 -15 -11 -28 -23 -37c-19 -14 -44 -16 -65 -6c-2 1 -132 88 -289 192c-312 208 -292 193 -299 205c-11.5707 17.356 -12.5388 49.1918 0 68c7 12 -13 -3 299 205c157 104 287 191 289 192zM619 429c-106 -71 -193 -129 -193 -129
s87 -58 193 -129l193 -129v516s-87 -58 -193 -129z" />
  </g>

</svg>
