<?xml version="1.0" standalone="no"?>
<!DOCTYPE svg PUBLIC "-//W3C//DTD SVG 1.1//EN" "http://www.w3.org/Graphics/SVG/1.1/DTD/svg11.dtd" >
<svg xmlns="http://www.w3.org/2000/svg" xmlns:xlink="http://www.w3.org/1999/xlink" version="1.1" viewBox="-10 0 1010 1000">
  <g transform="matrix(1 0 0 -1 0 800)">
   <path fill="currentColor"
d="M177 737c4 1 21 0 106 0h102c26.9752 -4.49587 45.5523 -23.9407 51 -49c1 -5 1 -16 1 -388s0 -383 -1 -388c-5.44627 -25.0528 -24.0371 -44.5062 -51 -49h-101c-88 0 -102 -1 -107 0c-24.6383 3.79051 -45.108 25.432 -51 49c-1 5 -1 16 -1 388s0 383 1 388
c6 25 26 44 51 49zM552 737c4 1 21 0 106 0h102c26.9752 -4.49587 45.5523 -23.9407 51 -49c1 -5 1 -16 1 -388s0 -383 -1 -388c-5.44627 -25.0528 -24.0371 -44.5062 -51 -49h-101c-88 0 -102 -1 -107 0c-24.6383 3.79051 -45.108 25.432 -51 49c-1 5 -1 16 -1 388
s0 383 1 388c6 25 26 44 51 49zM250 612v-624h62v624h-62zM625 300v-312h63v624h-63v-312z" />
  </g>

</svg>
