<?xml version="1.0" standalone="no"?>
<!DOCTYPE svg PUBLIC "-//W3C//DTD SVG 1.1//EN" "http://www.w3.org/Graphics/SVG/1.1/DTD/svg11.dtd" >
<svg xmlns="http://www.w3.org/2000/svg" xmlns:xlink="http://www.w3.org/1999/xlink" version="1.1" viewBox="-10 0 1010 1000">
  <g transform="matrix(1 0 0 -1 0 800)">
   <path fill="currentColor"
d="M314 690c8.74835 31.2441 36.3962 55.1509 77 45c22 -6 39 -22 45 -45c1 -5 1 -6 1 -73l1 -67h124l1 67c0 67 0 68 1 73c9 34 43 54 77 45c22 -6 39 -22 45 -45c1 -5 1 -6 1 -73l1 -67h72c25.8068 -8.60225 45.0365 -21.5678 51 -49c1 -5 1 -11 1 -142
c0 -148 1 -140 -3 -159c-15.6154 -74.9541 -77.7225 -133.823 -148 -147c-15 -3 -18 -3 -59 -3h-40c1.71571 -8.57856 2.24666 -18.4933 6 -26c8 -17 23 -30 42 -35c5 -1 6 -1 78 -1l72 -1c25.9421 -8.64736 43.8666 -20.6553 51 -48
c10.3987 -41.5949 -21.5095 -71.2815 -51 -76c-5 -1 -15 0 -79 0c-80 0 -76 0 -95 4c-18 4 -37 10 -53 19c-57 32 -92 91 -95 156l-1 8h-39c-43 0 -45 0 -62 4c-76.222 16.9382 -130.31 75.2193 -145 146c-4 19 -3 11 -3 159c0 131 0 137 1 142c5 22 20 39 41 46
c9 3 13 3 49 3h33l1 67c0 67 0 68 1 73zM313 326v-98c4.96811 -29.8087 26.8295 -44.2765 53 -53h269c26.3591 8.78637 46.9614 22.7681 52 53v98l1 99h-376l1 -99z" />
  </g>

</svg>
