<?xml version="1.0" standalone="no"?>
<!DOCTYPE svg PUBLIC "-//W3C//DTD SVG 1.1//EN" "http://www.w3.org/Graphics/SVG/1.1/DTD/svg11.dtd" >
<svg xmlns="http://www.w3.org/2000/svg" xmlns:xlink="http://www.w3.org/1999/xlink" version="1.1" viewBox="-10 0 1010 1000">
  <g transform="matrix(1 0 0 -1 0 800)">
   <path fill="currentColor"
d="M314 690c9 31 36 55 77 45c22 -6 39 -22 45 -45c1 -5 1 -6 1 -73l1 -67h124l1 67c0 67 0 68 1 73c9 34 43 54 77 45c22 -6 39 -22 45 -45c1 -5 1 -6 1 -73l1 -67h72c26 -9 45 -22 51 -49c1 -5 1 -11 1 -142c0 -148 1 -140 -3 -159c-16 -75 -78 -134 -148 -147
c-15 -3 -18 -3 -59 -3h-40c2 -9 2 -18 6 -26c8 -17 23 -30 42 -35c5 -1 6 -1 78 -1l72 -1c26 -9 44 -21 51 -48c10 -42 -22 -71 -51 -76c-5 -1 -15 0 -79 0c-80 0 -76 0 -95 4c-18 4 -37 10 -53 19c-57 32 -92 91 -95 156l-1 8h-39c-43 0 -45 0 -62 4
c-76 17 -130 75 -145 146c-4 19 -3 11 -3 159c0 131 0 137 1 142c5 22 20 39 41 46c9 3 13 3 49 3h33l1 67c0 67 0 68 1 73zM313 326v-98c5 -30 27 -44 53 -53h269c26 9 47 23 52 53v98l1 99h-376z" />
  </g>

</svg>
