<?xml version="1.0" standalone="no"?>
<!DOCTYPE svg PUBLIC "-//W3C//DTD SVG 1.1//EN" "http://www.w3.org/Graphics/SVG/1.1/DTD/svg11.dtd" >
<svg xmlns="http://www.w3.org/2000/svg" xmlns:xlink="http://www.w3.org/1999/xlink" version="1.1" viewBox="-10 0 1010 1000">
  <g transform="matrix(1 0 0 -1 0 800)">
   <path fill="currentColor"
d="M489 674c-26.4791 -5.29581 -45.3878 -23.9388 -51 -52v-130l-1 -130h-127c-111 0 -128 1 -133 0c-29.2486 -4.49979 -60.0465 -35.814 -50 -76c5.86748 -23.4699 25.5328 -44.2358 50 -48c5 -1 22 0 133 0h127l1 -130v-130c6.5965 -32.9825 33.1046 -54.0632 65 -53
c29.4029 1.0501 52.8153 22.0766 59 53v130l1 129l129 1h130c27.0471 4.50784 44.4776 22.9976 51 48c10.3258 41.3033 -19.9215 70.8203 -51 76h-130l-129 1l-1 129v130c-6.42613 32.1306 -31.6311 57.9098 -73 52z" />
  </g>

</svg>
