<?xml version="1.0" standalone="no"?>
<!DOCTYPE svg PUBLIC "-//W3C//DTD SVG 1.1//EN" "http://www.w3.org/Graphics/SVG/1.1/DTD/svg11.dtd" >
<svg xmlns="http://www.w3.org/2000/svg" xmlns:xlink="http://www.w3.org/1999/xlink" version="1.1" viewBox="-10 0 1010 1000">
  <g transform="matrix(1 0 0 -1 0 800)">
   <path fill="currentColor"
d="M527 653c79 0 135 -25 177 -67c20 -20 38 -46 42 -61c8 -28 -8 -58 -28 -70c-33 -19 -70 -3 -86 20c-17 27 -39 44 -68 51c-64 14 -114 -32 -125 -83c-1 -7 -1 -6 -1 -64l-1 -58l77 -1h76c30 -5 48 -29 51 -56c4 -33 -24 -64 -55 -68h-148l-1 -46v-45s3 -1 7 -1
c32 -3 61 -9 90 -21c44 -18 96 -18 141 0c12 5 16 6 21 7c32 7 63 -12 72 -44c13 -50 -20 -69 -56 -83c-74 -27 -155 -25 -228 5c-38 16 -107 17 -138 -3c-10 -6 -30 -15 -39 -17c-34 -9 -77 16 -77 58c0 13 2 23 8 34c8 13 16 21 41 33c12 6 15 7 20 14c6 8 10 16 13 26v41
l1 41l-17 1c-19 0 -23 0 -32 4c-17 7 -30 22 -36 40c-11 34 9 69 44 79c5 1 7 1 23 1l17 1l1 55v65c10 118 105 205 214 212z" />
  </g>

</svg>
