<?xml version="1.0" standalone="no"?>
<!DOCTYPE svg PUBLIC "-//W3C//DTD SVG 1.1//EN" "http://www.w3.org/Graphics/SVG/1.1/DTD/svg11.dtd" >
<svg xmlns="http://www.w3.org/2000/svg" xmlns:xlink="http://www.w3.org/1999/xlink" version="1.1" viewBox="-10 0 1010 1000">
  <g transform="matrix(1 0 0 -1 0 800)">
   <path fill="currentColor"
d="M527 653c-108.881 -7.25872 -204.4 -93.5951 -214 -212v-65l-1 -55l-17 -1c-16 0 -18 0 -23 -1c-35 -10 -55 -45 -44 -79c6 -18 19 -33 36 -40c9 -4 13 -4 32 -4l17 -1l-1 -41v-41c-3.24956 -9.74868 -6.70073 -18.4409 -13 -26c-5 -7 -8 -8 -20 -14
c-25 -12 -33 -20 -41 -33c-6 -11 -8 -21 -8 -34c0 -42.0403 42.5495 -66.6126 77 -58c9 2 29 11 39 17c31.2223 19.5139 100.398 18.9086 138 3c73 -30 154 -32 228 -5c35.7008 14.2803 68.5295 32.8821 56 83c-9 32 -40 51 -72 44c-5 -1 -9 -2 -21 -7
c-45 -18 -97 -18 -141 0c-29 12 -58 18 -90 21c-4 0 -7 1 -7 1v45l1 46h148c30.8362 4.1115 58.6681 34.9868 55 68c-3.13701 27.1874 -21.0029 51.0005 -51 56h-76l-77 1l1 58c0 58 0 57 1 64c10.5258 50.8745 61.0848 97.2034 125 83c29 -7 51 -24 68 -51
c15.6069 -23.4103 53.0729 -39.4569 86 -20c20.1591 11.5195 36.3728 41.5323 28 70c-4 15 -22 41 -42 61c-41.5327 41.5327 -97.6787 67 -177 67z" />
  </g>

</svg>
