<?xml version="1.0" standalone="no"?>
<!DOCTYPE svg PUBLIC "-//W3C//DTD SVG 1.1//EN" "http://www.w3.org/Graphics/SVG/1.1/DTD/svg11.dtd" >
<svg xmlns="http://www.w3.org/2000/svg" xmlns:xlink="http://www.w3.org/1999/xlink" version="1.1" viewBox="-10 0 1010 1000">
  <g transform="matrix(1 0 0 -1 0 800)">
   <path fill="currentColor"
d="M488 695c39.6038 6.60063 65.1329 -18.4983 73 -48c1 -4 1 -15 1 -180c0 -169 0 -175 -1 -180c-6 -28 -30 -48 -58 -49c-30 -2 -57 19 -64 49c-1 5 -1 11 -1 180c0 165 0 176 1 180c6 25 25 43 49 48zM282 612c-18 -3 -28 -10 -55 -37
c-84.5486 -84.5486 -140.626 -224.835 -88 -385c17 -53 42 -98 77 -140c9 -11 29 -30 40 -40c55 -48 119 -78 189 -88c20 -3 27 -4 55 -4s37 1 58 4c67 10 128 38 181 82c9 8 34 32 42 42c77 89 112 208 95 323c-10 69 -40 134 -85 187c-14 16 -38 39 -48 46
c-32 22 -75 9 -91 -26c-15.7863 -31.5727 1.50027 -60.2502 19 -76c49.4912 -43.6687 84 -102.257 84 -187c0 -17 -2 -27 -4 -43c-16.9984 -114.353 -98.8323 -208.093 -220 -225c-17 -2 -48 -3 -66 0c-66 10 -125 46 -166 103c-45 62 -64 142 -50 214c10 53 36 99 78 136
c5 4 10 9 12 11c37.1664 43.3609 -1.73783 113.362 -57 103z" />
  </g>

</svg>
