<?xml version="1.0" standalone="no"?>
<!DOCTYPE svg PUBLIC "-//W3C//DTD SVG 1.1//EN" "http://www.w3.org/Graphics/SVG/1.1/DTD/svg11.dtd" >
<svg xmlns="http://www.w3.org/2000/svg" xmlns:xlink="http://www.w3.org/1999/xlink" version="1.1" viewBox="-10 0 1010 1000">
  <g transform="matrix(1 0 0 -1 0 800)">
   <path fill="currentColor"
d="M488 695c40 7 65 -18 73 -48c1 -4 1 -15 1 -180c0 -169 0 -175 -1 -180c-6 -28 -30 -48 -58 -49c-30 -2 -57 19 -64 49c-1 5 -1 11 -1 180c0 165 0 176 1 180c6 25 25 43 49 48zM282 612c55 10 94 -60 57 -103c-2 -2 -7 -7 -12 -11c-42 -37 -68 -83 -78 -136
c-14 -72 5 -152 50 -214c41 -57 100 -93 166 -103c18 -3 49 -2 66 0c121 17 203 111 220 225c2 16 4 26 4 43c0 85 -35 143 -84 187c-18 16 -35 44 -19 76c16 35 59 48 91 26c10 -7 34 -30 48 -46c45 -53 75 -118 85 -187c17 -115 -18 -234 -95 -323c-8 -10 -33 -34 -42 -42
c-53 -44 -114 -72 -181 -82c-21 -3 -30 -4 -58 -4s-35 1 -55 4c-70 10 -134 40 -189 88c-11 10 -31 29 -40 40c-35 42 -60 87 -77 140c-53 160 3 300 88 385c27 27 37 34 55 37z" />
  </g>

</svg>
