<?xml version="1.0" standalone="no"?>
<!DOCTYPE svg PUBLIC "-//W3C//DTD SVG 1.1//EN" "http://www.w3.org/Graphics/SVG/1.1/DTD/svg11.dtd" >
<svg xmlns="http://www.w3.org/2000/svg" xmlns:xlink="http://www.w3.org/1999/xlink" version="1.1" viewBox="-10 0 1010 1000">
  <g transform="matrix(1 0 0 -1 0 800)">
   <path fill="currentColor"
d="M697 737c28.645 -4.25907 45.6995 -25.4785 53 -52v-197l67 -1h68c26.9752 -4.49587 45.5523 -23.9407 51 -49c1 -5 1 -11 1 -200s0 -196 -1 -201c-5.44627 -25.0528 -24.0371 -44.5062 -51 -49h-68l-67 -1v-36c0 -34 -1 -36 -2 -41
c-6.47558 -24.823 -25.0005 -42.6668 -51 -47h-194c-172 0 -196 -1 -201 0c-23.8526 3.66964 -44.3008 24.2032 -50 47c-1 5 -2 7 -2 41v37h-65c-55 0 -65 -1 -70 0c-25.6715 3.94946 -44.8583 24.4332 -51 49c-1 5 -1 12 -1 201s0 195 1 200c5 22 20 39 41 46
c9 3 10 4 80 4h65v197l2 5c7 25 26 43 50 47c4 1 34 0 200 0h195zM375 612v-124h250v124h-250zM188 362v-250h62v37c0 34 1 36 2 41c5.70582 22.8233 26.1478 43.3304 50 47c5 1 29 0 201 0h194c26.0143 -4.33571 44.5231 -22.1721 51 -47c1 -5 2 -7 2 -41v-37h62v250h-624z
M375 50v-62h250v124h-250v-62z" />
  </g>

</svg>
