<?xml version="1.0" standalone="no"?>
<!DOCTYPE svg PUBLIC "-//W3C//DTD SVG 1.1//EN" "http://www.w3.org/Graphics/SVG/1.1/DTD/svg11.dtd" >
<svg xmlns="http://www.w3.org/2000/svg" xmlns:xlink="http://www.w3.org/1999/xlink" version="1.1" viewBox="-10 0 1010 1000">
  <g transform="matrix(1 0 0 -1 0 800)">
   <path fill="currentColor"
d="M127 564c9 32 36 56 76 46c7 -2 16 -6 22 -10c10 -6 233 -254 242 -263c14 -17 18 -56 0 -74c-9 -9 -232 -257 -242 -263c-40 -28 -100 -3 -100 50c0 14 4 25 10 34c2 4 30 35 100 111l97 105l-97 105c-70 76 -98 107 -100 111c-7 11 -13 30 -8 48zM489 112
c4 1 34 0 200 0h196c31 -5 61 -35 51 -76c-7 -25 -24 -43 -51 -48h-195c-172 0 -195 -1 -200 0c-28 5 -52 27 -52 62c0 34 23 57 51 62z" />
  </g>

</svg>
