<?xml version="1.0" standalone="no"?>
<!DOCTYPE svg PUBLIC "-//W3C//DTD SVG 1.1//EN" "http://www.w3.org/Graphics/SVG/1.1/DTD/svg11.dtd" >
<svg xmlns="http://www.w3.org/2000/svg" xmlns:xlink="http://www.w3.org/1999/xlink" version="1.1" viewBox="-10 0 1010 1000">
  <g transform="matrix(1 0 0 -1 0 800)">
   <path fill="currentColor"
d="M127 564c9.21835 32.2642 35.5226 56.1194 76 46c7 -2 16 -6 22 -10c9.50327 -6.33552 233.077 -254.077 242 -263c13.8249 -17.2812 18.0501 -55.9499 0 -74c-8.92347 -8.92347 -232.497 -256.664 -242 -263c-40.0127 -28.0089 -100 -3.49428 -100 50
c0 14.1345 3.93388 24.9008 10 34c2 4 30 35 100 111l97 105l-97 105c-70 76 -98 107 -100 111c-7.19965 10.7995 -12.5076 29.9698 -8 48zM489 112c-28.2002 -4.51204 -51 -27.5476 -51 -62c0 -34.7344 23.654 -57.4646 52 -62c5 -1 28 0 200 0h195
c27.0471 4.50784 44.4776 22.9976 51 48c10.3258 41.3033 -19.9215 70.8203 -51 76h-196c-166 0 -196 1 -200 0z" />
  </g>

</svg>
