<?xml version="1.0" standalone="no"?>
<!DOCTYPE svg PUBLIC "-//W3C//DTD SVG 1.1//EN" "http://www.w3.org/Graphics/SVG/1.1/DTD/svg11.dtd" >
<svg xmlns="http://www.w3.org/2000/svg" xmlns:xlink="http://www.w3.org/1999/xlink" version="1.1" viewBox="-10 0 1010 1000">
  <g transform="matrix(1 0 0 -1 0 800)">
   <path fill="currentColor"
d="M315 665c46 54 131 85 233 69c75 -10 135 -48 159 -107c9 -20 13 -39 13 -62c0 -56 -24 -117 -77 -195c-3 -4 -3 -6 -3 -7c16 -21 28 -42 38 -66c0 0 4 0 9 -1c52 -7 102 -23 151 -46c52 -24 89 -63 98 -123c2 -12 2 -37 0 -49c-9 -74 -59 -156 -112 -190
c-60 -41 -126 -30 -178 12c-42 33 -77 71 -123 134l-12 16h-23c-40 -60 -89 -121 -149 -161c-46 -30 -98 -35 -145 -12c-63 30 -119 124 -130 201c-2 12 -2 37 0 49c16.7067 107.666 129.402 147.172 234 166c4 1 23 4 24 4v1c0 1 5 12 9 20c7 14 15 28 25 40c4 5 5 6 4 7
c0 1 -5 6 -9 13c-49 75 -71 133 -71 187c0 37 12 71 35 100zM485 612c-40 -3 -84 -15 -79 -53c3 -31 18 -65 54 -119l12 -17h4c19 2 30 2 49 0h4l11 17c35 53 51 87 54 117c1 13 0 21 -6 28c-15 21 -58 27 -103 27zM516 298c-40 11 -69 -18 -77 -46c-2 -8 -1 -22 1 -30
c7 -27 35 -55 76 -45c25 7 46 29 46 61c0 31 -21 53 -46 60zM371 101c-21 21 -36 44 -47 70h-3c-36 -6 -69 -17 -104 -33c-17 -8 -22 -11 -26 -19c-15 -31 33 -123 61 -131c7 -2 13 1 28 13c35 28 65 61 91 100zM675 169c0 -1 -2 -5 -4 -9c-9 -21 -25 -40 -42 -59l8 -11
c30 -39 50 -64 85 -91c19 -15 25 -16 43 2c23 23 45 69 47 97c1 18 -4 28 -21 36c-34 17 -71 29 -104 35c-5 1 -9 2 -10 2s-1 -1 -2 -2z" />
  </g>

</svg>
