<?xml version="1.0" standalone="no"?>
<!DOCTYPE svg PUBLIC "-//W3C//DTD SVG 1.1//EN" "http://www.w3.org/Graphics/SVG/1.1/DTD/svg11.dtd" >
<svg xmlns="http://www.w3.org/2000/svg" xmlns:xlink="http://www.w3.org/1999/xlink" version="1.1" viewBox="-10 0 1010 1000">
  <g transform="matrix(1 0 0 -1 0 800)">
   <path fill="currentColor"
d="M315 665c46.4696 54.2145 130.826 85.1328 233 69c75.1415 -10.3643 134.892 -48.4526 159 -107c9 -20 13 -39 13 -62c0 -56 -24 -117 -77 -195c-3 -4 -3 -6 -3 -7c15.6495 -20.8661 28.473 -42.1825 38 -66c0 0 4 0 9 -1c52 -7 102 -23 151 -46
c52.066 -24.2975 88.9311 -63.4046 98 -123c2 -12 2 -37 0 -49c-9.01024 -74.3345 -58.7735 -156.129 -112 -190c-59.9904 -40.7078 -125.608 -29.5522 -178 12c-42 33 -77 71 -123 134l-12 16h-23c-40.028 -60.042 -89.3484 -121.232 -149 -161c-46 -30 -98 -35 -145 -12
c-63.0404 30.4333 -119.228 123.799 -130 201c-2 12 -2 37 0 49c8.85677 57.569 46.2263 99.423 96 123c46 22 88 34 138 43c4 1 23 4 24 4v1c0 1 5 12 9 20c7 14 15 28 25 40c4 5 5 6 4 7c0 1 -5 6 -9 13c-49 75 -71 133 -71 187c0 37 12 71 35 100zM485 612
c-40.0287 -2.96509 -83.505 -14.7076 -79 -53c3 -31 18 -65 54 -119l12 -17h4c19 2 30 2 49 0h4l11 17c35 53 51 87 54 117c1 13 0 21 -6 28c-14.9641 20.9497 -57.7208 27 -103 27zM516 298c-39.9274 11.4078 -68.9036 -17.6626 -77 -46c-2 -8 -1 -22 1 -30
c7.44645 -27.3036 34.5625 -55.3594 76 -45c25.4041 6.9284 46 29.0197 46 61c0 31.3537 -21.1043 53.2103 -46 60zM371 101c-21.296 21.296 -35.7931 43.8506 -47 70h-3c-36 -6 -69 -17 -104 -33c-17 -8 -22 -11 -26 -19c-15.307 -30.6139 33.3856 -122.503 61 -131
c7 -2 13 1 28 13c34.7766 28.4536 65.3171 61.4757 91 100zM675 169c0 -1 -2 -5 -4 -9c-9.16286 -20.6164 -25.4935 -39.7424 -42 -59l8 -11c30.2252 -39.2928 50.1795 -64.215 85 -91c18.6581 -14.5119 24.6724 -16.3276 43 2c23 23 45 69 47 97c1 18 -4 28 -21 36
c-34 17 -71 29 -104 35c-5 1 -9 2 -10 2s-1 -1 -2 -2z" />
  </g>

</svg>
