<?xml version="1.0" standalone="no"?>
<!DOCTYPE svg PUBLIC "-//W3C//DTD SVG 1.1//EN" "http://www.w3.org/Graphics/SVG/1.1/DTD/svg11.dtd" >
<svg xmlns="http://www.w3.org/2000/svg" xmlns:xlink="http://www.w3.org/1999/xlink" version="1.1" viewBox="-10 0 1010 1000">
  <g transform="matrix(1 0 0 -1 0 800)">
   <path fill="currentColor"
d="M313 461c0 120.67 84.5294 205.693 199 213c136.034 9.22267 221.446 -76.1136 236 -198c2 -14 2 -48 1 -61c-3 -34 -14 -65 -34 -93c-15 -21 -32 -37 -70 -70c-35 -31 -48 -44 -60 -62c-15.2264 -21.9938 -19.6617 -41.2643 -22 -74
c0 -38.5664 -27.0141 -64.8219 -60 -66c-30 -1 -56 18 -64 48c-1 5 -1 7 -1 20c0 107.222 54.7986 166.671 124 227c25 21 43 39 50 48c9.80614 13.7286 13 18.7412 13 42c0 53.9318 -16.4502 93.0478 -53 108c-22 9 -54 10 -77 2
c-35.3011 -11.767 -54.8212 -40.2442 -57 -86c-2.1113 -38.0033 -26.1504 -63.3075 -60 -65c-30 -1 -56 18 -64 48c-1 5 -1 7 -1 19zM489 -13c-13 -2 -24 -9 -33 -18c-38.454 -36.9159 -9.23881 -99.2935 31 -106c41.6496 -5.94994 65.1453 16.6412 74 47c2 7 2 22 0 29
c-7.46271 28.607 -34.0332 53.4238 -72 48z" />
  </g>

</svg>
