<?xml version="1.0" standalone="no"?>
<!DOCTYPE svg PUBLIC "-//W3C//DTD SVG 1.1//EN" "http://www.w3.org/Graphics/SVG/1.1/DTD/svg11.dtd" >
<svg xmlns="http://www.w3.org/2000/svg" xmlns:xlink="http://www.w3.org/1999/xlink" version="1.1" viewBox="-10 0 1010 1000">
  <g transform="matrix(1 0 0 -1 0 800)">
   <path fill="currentColor"
d="M313 461c0 121 85 206 199 213c136 9 221 -76 236 -198c2 -14 2 -48 1 -61c-3 -34 -14 -65 -34 -93c-15 -21 -32 -37 -70 -70c-35 -31 -48 -44 -60 -62c-15 -22 -20 -41 -22 -74c0 -39 -27 -65 -60 -66c-30 -1 -56 18 -64 48c-1 5 -1 7 -1 20c0 107 55 167 124 227
c25 21 43 39 50 48c10 14 13 19 13 42c0 54 -16 93 -53 108c-22 9 -54 10 -77 2c-35 -12 -55 -40 -57 -86c-2 -38 -26 -63 -60 -65c-30 -1 -56 18 -64 48c-1 5 -1 7 -1 19zM489 -13c38 5 65 -19 72 -48c2 -7 2 -22 0 -29c-9 -30 -32 -53 -74 -47c-40 7 -69 69 -31 106
c9 9 20 16 33 18z" />
  </g>

</svg>
