<?xml version="1.0" standalone="no"?>
<!DOCTYPE svg PUBLIC "-//W3C//DTD SVG 1.1//EN" "http://www.w3.org/Graphics/SVG/1.1/DTD/svg11.dtd" >
<svg xmlns="http://www.w3.org/2000/svg" xmlns:xlink="http://www.w3.org/1999/xlink" version="1.1" viewBox="-10 0 1010 1000">
  <g transform="matrix(1 0 0 -1 0 800)">
   <path fill="currentColor"
d="M738 695c39 7 65 -19 73 -47c1 -4 1 -7 1 -20l1 -15l36 -1h36c26 -9 44 -21 51 -48c10 -41 -20 -71 -51 -76l-93 -1c-71 0 -94 0 -96 -1c-14 -4 -23 -8 -32 -17c-24 -24 -24 -64 0 -88c8 -8 17 -14 30 -17c4 -1 7 -2 39 -2c36 0 39 0 54 -3c65 -13 118 -60 140 -123
c14 -40 14 -86 -1 -126c-25 -66 -83 -112 -155 -121v-15c0 -46 -31 -79 -79 -67c-25 7 -43 27 -46 53v28h-33c-35 0 -40 -1 -48 2c-40 13 -56 60 -33 95c9 13 21 21 39 26c2 1 25 1 96 1c93 0 93 1 98 2c24 6 41 25 46 48c2 7 2 20 0 27c-6 23 -23 41 -46 47
c-5 1 -7 1 -39 1c-77 0 -113 18 -151 56s-59 84 -53 154c12 88 74 151 165 164l1 16c0 14 0 17 1 21c7 24 25 42 49 47zM105 560c5 28 25 47 52 52c3 1 19 0 78 0c73 0 74 0 83 -1c62 -10 104 -44 133 -88c26 -42 39 -107 16 -165c-3 -9 -11 -23 -16 -31
c-14 -22 -34 -44 -55 -58c8 -14 18 -27 26 -43c13 -25 20 -47 34 -97c7 -25 11 -40 16 -50c18 -35 0 -77 -37 -89c-22 -7 -47 -1 -63 16c-6 6 -9 12 -13 21c-9 18 -13 32 -27 81c-19 67 -35 108 -101 123h-2v-188c-2 -21 -15 -40 -34 -49c-37 -19 -83 2 -90 46v520zM229 488
v-126h34c36 0 40 1 49 4c20 7 34 22 40 42c9 32 -8 65 -40 76c-9 3 -13 4 -49 4h-34z" />
  </g>

</svg>
