<?xml version="1.0" standalone="no"?>
<!DOCTYPE svg PUBLIC "-//W3C//DTD SVG 1.1//EN" "http://www.w3.org/Graphics/SVG/1.1/DTD/svg11.dtd" >
<svg xmlns="http://www.w3.org/2000/svg" xmlns:xlink="http://www.w3.org/1999/xlink" version="1.1" viewBox="-10 0 1010 1000">
  <g transform="matrix(1 0 0 -1 0 800)">
   <path fill="currentColor"
d="M738 695c39.2318 6.53863 64.8638 -18.5234 73 -47c1 -4 1 -7 1 -20l1 -15l36 -1h36c25.9421 -8.64736 43.8666 -20.6553 51 -48c10.3258 -41.3033 -19.9215 -70.8203 -51 -76l-93 -1c-71 0 -94 0 -96 -1c-14 -4 -23 -8 -32 -17c-24 -24 -24 -64 0 -88
c8 -8 17 -14 30 -17c4 -1 7 -2 39 -2c36 0 39 0 54 -3c65 -13 118 -60 140 -123c14 -40 14 -86 -1 -126c-24.8666 -66.311 -82.7658 -111.971 -155 -121v-15c0 -46.0298 -30.7254 -79.0686 -79 -67c-25 7 -43 27 -46 53v28h-33c-35 0 -40 -1 -48 2c-40 13 -56 60 -33 95
c9 13 21 21 39 26c2 1 25 1 96 1c93 0 93 1 98 2c24 6 41 25 46 48c2 7 2 20 0 27c-6 23 -23 41 -46 47c-5 1 -7 1 -39 1c-77.0734 0 -112.808 17.8082 -151 56c-38.02 38.02 -59.3751 83.8735 -53 154c12.1817 87.7079 74.1979 151.028 165 164l1 16c0 14 0 17 1 21
c7 24 25 42 49 47zM105 560c4.65697 27.9418 24.656 46.5312 52 52c3 1 19 0 78 0c73 0 74 0 83 -1c61.5396 -10.2566 104.442 -44.2117 133 -88c25.8199 -42.2508 38.8825 -106.914 16 -165c-3 -9 -11 -23 -16 -31c-14.3932 -22.1434 -33.9674 -43.6073 -55 -58
c8.0808 -14.1414 17.8357 -26.6713 26 -43c13 -25 20 -47 34 -97c7 -25 11 -40 16 -50c17.6192 -35.2384 0.0762 -77.4137 -37 -89c-22 -7 -47 -1 -63 16c-6 6 -9 12 -13 21c-9 18 -13 32 -27 81c-18.9503 67.379 -35.469 108.438 -101 123h-2v-188c-2 -21 -15 -40 -34 -49
c-37.2825 -18.6413 -82.7448 2.46877 -90 46v520zM229 425v-63h34c36 0 40 1 49 4c20 7 34 22 40 42c9 32 -8 65 -40 76c-9 3 -13 4 -49 4h-34v-63z" />
  </g>

</svg>
