<?xml version="1.0" standalone="no"?>
<!DOCTYPE svg PUBLIC "-//W3C//DTD SVG 1.1//EN" "http://www.w3.org/Graphics/SVG/1.1/DTD/svg11.dtd" >
<svg xmlns="http://www.w3.org/2000/svg" xmlns:xlink="http://www.w3.org/1999/xlink" version="1.1" viewBox="-10 0 1010 1000">
  <g transform="matrix(1 0 0 -1 0 800)">
   <path fill="currentColor"
d="M238 487c5 1 30 0 36 -1c83 -11 151 -73 162 -165c3 -29 -2 -63 -9 -82c0 -1 3 -1 73 -1s73 0 73 1c-7 19 -13 53 -9 82c10 86 73 147 149 163c15 3 21 3 38 3c16 0 24 -1 38 -4c73 -15 131 -73 145 -146c3 -15 3 -21 3 -37c0 -20 -2 -37 -7 -54
c-19 -65 -75 -120 -152 -131c-15 -2 -19 -2 -284 -2c-241 0 -262 0 -268 1c-90 14 -151 80 -162 165c-1 8 -1 34 0 42c12 91 81 156 165 165c4 0 8 1 9 1zM242 362c-32 -6 -54 -28 -54 -62c0 -40 33 -71 78 -60c29 8 54 36 44 76c-7 27 -30 45 -58 46h-10zM742 362
c-32 -6 -54 -28 -54 -62c0 -40 33 -71 78 -60c25 7 46 28 46 60c0 37 -28 61 -60 62h-10z" />
  </g>

</svg>
