<?xml version="1.0" standalone="no"?>
<!DOCTYPE svg PUBLIC "-//W3C//DTD SVG 1.1//EN" "http://www.w3.org/Graphics/SVG/1.1/DTD/svg11.dtd" >
<svg xmlns="http://www.w3.org/2000/svg" xmlns:xlink="http://www.w3.org/1999/xlink" version="1.1" viewBox="-10 0 1010 1000">
  <g transform="matrix(1 0 0 -1 0 800)">
   <path fill="currentColor"
d="M238 487c5 1 30 0 36 -1c82.9246 -11.0566 150.927 -72.7249 162 -165c3.22922 -29.063 -1.93541 -63.1611 -9 -82c0 -1 3 -1 73 -1s73 0 73 1c-6.97826 18.6087 -12.6302 52.9588 -9 82c10.1704 86.4484 73.3091 147.381 149 163c15 3 21 3 38 3c16 0 24 -1 38 -4
c73 -15 131 -73 145 -146c3 -15 3 -21 3 -37c0 -20 -2 -37 -7 -54c-19.0576 -65.3402 -75.4397 -120.063 -152 -131c-15 -2 -19 -2 -284 -2c-241 0 -262 0 -268 1c-89.8372 14.0371 -151.384 80.0715 -162 165c-1 8 -1 34 0 42c11.7053 90.7164 80.7726 155.641 165 165
c4 0 8 1 9 1zM242 362c-31.6234 -5.7497 -54 -27.5216 -54 -62c0 -40.2982 33.4612 -71.1347 78 -60c29.0037 7.91009 54.0591 35.7636 44 76c-7 27 -30 45 -58 46h-10zM742 362c-31.6165 -5.74846 -54 -27.5213 -54 -62c0 -40.2982 33.4612 -71.1347 78 -60
c25.3005 6.90015 46 28.1169 46 60c0 37.2901 -27.9945 60.8569 -60 62h-10z" />
  </g>

</svg>
