<?xml version="1.0" standalone="no"?>
<!DOCTYPE svg PUBLIC "-//W3C//DTD SVG 1.1//EN" "http://www.w3.org/Graphics/SVG/1.1/DTD/svg11.dtd" >
<svg xmlns="http://www.w3.org/2000/svg" xmlns:xlink="http://www.w3.org/1999/xlink" version="1.1" viewBox="-10 0 1010 1000">
  <g transform="matrix(1 0 0 -1 0 800)">
   <path fill="currentColor"
d="M456 719c15 15 33 23 60 16c10 -3 22 -8 29 -16c5 -5 0 -1 179 -238c0 0 1 1 1 2c11 33 62 47 94 23c18 -13 27 -37 24 -58c-1 -7 -33 -125 -35 -131c-9 -20 -28 -37 -56 -37l-8 -1l-67 12c-39 7 -69 11 -71 12c-25 8 -52 35 -42 74c6 23 23 41 47 46l-54 72
c-29 39 -54 71 -54 71c-7 -9 -22 -31 -28 -35c-56 -41 -120 24 -94 78c0 0 66 101 75 110zM333 518c35 5 59 -14 68 -38c1 -3 9 -33 19 -72l17 -67v-9c0 -34 -20 -54 -46 -61c-24 -6 -46 2 -58 14l-1 -2c-1 -1 -25 -55 -55 -118l-54 -115h18c17 0 19 0 25 -2
c27 -7 55 -35 45 -75c-7 -27 -25 -39 -51 -48h-70c-60 0 -70 0 -75 1c-36 6 -61 44 -49 81c8 16 -1 1 150 323c0 0 -2 1 -6 2c-31 4 -63 33 -52 76c4 15 14 30 26 38c10 7 138 72 149 72zM802 237c32 5 59 -15 68 -37c2 -4 67 -201 67 -202c5 -36 -17 -61 -42 -70
c-10 -3 -3 -3 -162 -3h-147s1 -3 2 -5c13 -27 5 -58 -19 -76c-21 -16 -51 -17 -73 -2c-6 4 -121 99 -125 103c-7 7 -12 17 -15 27c-7 25 3 45 15 58c3 3 85 71 119 98c13 12 33 20 57 14c39 -10 59 -52 39 -92h101c81 0 101 0 101 1l-18 54c-12 37 -18 56 -19 60
c-6 40 21 66 51 72z" />
  </g>

</svg>
