<?xml version="1.0" standalone="no"?>
<!DOCTYPE svg PUBLIC "-//W3C//DTD SVG 1.1//EN" "http://www.w3.org/Graphics/SVG/1.1/DTD/svg11.dtd" >
<svg xmlns="http://www.w3.org/2000/svg" xmlns:xlink="http://www.w3.org/1999/xlink" version="1.1" viewBox="-10 0 1010 1000">
  <g transform="matrix(1 0 0 -1 0 800)">
   <path fill="currentColor"
d="M456 719c14.5823 14.5823 32.7564 22.8109 60 16c10 -3 22 -8 29 -16c4.84913 -4.84913 0.0295443 -0.713328 179 -238c0 0 1 1 1 2c11.101 33.3029 61.8522 47.4323 94 23c18 -13 27 -37 24 -58c-1 -7 -33 -125 -35 -131c-8.68611 -19.5437 -27.5762 -37 -56 -37l-8 -1
l-67 12c-39 7 -69 11 -71 12c-25.1262 8.37541 -51.7547 34.9811 -42 74c5.80818 23.2327 22.7617 41.1523 47 46l-54 72c-29 39 -54 71 -54 71c-6.64269 -9.13369 -22.0728 -30.7663 -28 -35c-55.5106 -40.9025 -119.805 24.2397 -94 78
c0.0995727 0.199145 65.8287 100.829 75 110zM333 518c35.4223 5.06033 58.6332 -13.9139 68 -38c1 -3 9 -33 19 -72l17 -67v-9c0 -33.5706 -20.4564 -54.0336 -46 -61c-23.6848 -5.9212 -45.6989 1.69888 -58 14l-1 -2c-1 -1 -25 -55 -55 -118l-54 -115h18c17 0 19 0 25 -2
c26.5105 -7.23013 55.0158 -34.937 45 -75c-7.12679 -27.3193 -25.0598 -39.3533 -51 -48h-70c-60 0 -70 0 -75 1c-35.9765 5.53485 -60.8906 43.6296 -49 81c7.95019 15.9004 -1.1405 0.566925 150 323c0 0 -2 1 -6 2c-30.8974 4.41392 -62.6275 33.4899 -52 76
c4 15 14 30 26 38c10.3937 6.92915 138.132 72 149 72zM802 237c-30.4209 -6.08418 -56.6968 -32.1221 -51 -72c1 -4 7 -23 19 -60l18 -54c0 -1 -20 -1 -101 -1h-101c19.9332 39.8663 -0.103831 81.9158 -39 92c-23.9558 5.98895 -43.7387 -2.21215 -57 -14
c-34 -27 -116 -95 -119 -98c-11.73 -13.1962 -22.1913 -32.8304 -15 -58c3 -10 8 -20 15 -27c4 -4 119 -99 125 -103c22 -15 52 -14 73 2c24 18 32 49 19 76c-1 2 -2 5 -2 5h147c159 0 152 0 162 3c25.4189 8.89661 47.2101 33.5293 42 70
c-0.153386 0.613545 -64.7687 197.537 -67 202c-9.03916 21.9522 -36.0046 41.5708 -68 37z" />
  </g>

</svg>
