<?xml version="1.0" standalone="no"?>
<!DOCTYPE svg PUBLIC "-//W3C//DTD SVG 1.1//EN" "http://www.w3.org/Graphics/SVG/1.1/DTD/svg11.dtd" >
<svg xmlns="http://www.w3.org/2000/svg" xmlns:xlink="http://www.w3.org/1999/xlink" version="1.1" viewBox="-10 0 1010 1000">
  <g transform="matrix(1 0 0 -1 0 800)">
   <path fill="currentColor"
d="M579 737c-25 -5 -43 -22 -50 -47c-2 -7 -2 -23 0 -30c4 -15 7 -20 26 -39l16 -16h-49c-49 0 -51 0 -72 -3c-164.035 -21.5127 -305.171 -150.477 -324 -335c-7.64215 -57.3161 4.41258 -107.728 18 -150c39 -118 136 -208 257 -241c39 -11 81 -15 125 -13
c156.404 7.53753 291.865 92.8013 340 210c7 18 10 28 9 39c-1.18815 33.2682 -32.7101 69.6542 -77 57c-22 -6 -38 -19 -46 -42c-26.5273 -75.7924 -109.586 -123.567 -198 -136c-18 -3 -30 -3 -52 -3s-30 0 -46 3c-103.323 18.6728 -191.002 99.3538 -205 216
c-2 13 -2 41 0 54c6 47 24 89 53 126c7 9 26 27 34 34c39 32 79 50 130 57c9 1 13 2 56 2h47l-33 -33c-8.16504 -10.2063 -13.7012 -33.1954 -9 -52c10.642 -39.5276 59.2232 -63.3326 97 -35c3 2 117 113 139 136c22.4497 22.4497 27.5419 55.1871 9 83
c-3 4 -10 11 -123 123c-12 12 -24 22 -26 24c-11.5699 7.71325 -27.247 14.1255 -46 11z" />
  </g>

</svg>
