<?xml version="1.0" standalone="no"?>
<!DOCTYPE svg PUBLIC "-//W3C//DTD SVG 1.1//EN" "http://www.w3.org/Graphics/SVG/1.1/DTD/svg11.dtd" >
<svg xmlns="http://www.w3.org/2000/svg" xmlns:xlink="http://www.w3.org/1999/xlink" version="1.1" viewBox="-10 0 1010 1000">
  <g transform="matrix(1 0 0 -1 0 800)">
   <path fill="currentColor"
d="M529 690c11 40 58 62 96 36c2 -2 14 -12 26 -24c113 -112 120 -119 123 -123c19 -28 13 -61 -9 -83c-22 -23 -136 -134 -139 -136c-38 -28 -86 -5 -97 35c-5 19 1 42 9 52l33 33h-47c-43 0 -47 -1 -56 -2c-51 -7 -91 -25 -130 -57c-8 -7 -27 -25 -34 -34
c-29 -37 -47 -79 -53 -126c-2 -13 -2 -41 0 -54c14 -117 102 -197 205 -216c16 -3 24 -3 46 -3s34 0 52 3c88 12 171 60 198 136c8 23 24 36 46 42c44 13 76 -24 77 -57c1 -11 -2 -21 -9 -39c-48 -117 -184 -202 -340 -210c-44 -2 -86 2 -125 13c-121 33 -218 123 -257 241
c-14 42 -26 93 -18 150c19 185 160 313 324 335c21 3 23 3 72 3h49l-16 16c-19 19 -22 24 -26 39c-2 7 -2 23 0 30z" />
  </g>

</svg>
