<?xml version="1.0" standalone="no"?>
<!DOCTYPE svg PUBLIC "-//W3C//DTD SVG 1.1//EN" "http://www.w3.org/Graphics/SVG/1.1/DTD/svg11.dtd" >
<svg xmlns="http://www.w3.org/2000/svg" xmlns:xlink="http://www.w3.org/1999/xlink" version="1.1" viewBox="-10 0 1010 1000">
  <g transform="matrix(1 0 0 -1 0 800)">
   <path fill="currentColor"
d="M197 530c-33 7 -60 39 -49 77c7 26 28 44 55 47c6 1 590 1 595 0c31 -4 60 -34 56 -68c-3 -27 -22 -50 -51 -56h-606zM199 487c6 1 595 1 601 0c17 -2 33 -13 43 -27c23 -35 7 -82 -33 -95c-9 -3 -11 -3 -68 -3h-54v-136c0 -150 -1 -140 3 -146s13 -10 20 -9
c12 3 16 9 18 24c2 23 17 45 36 53c50 24 92 -19 89 -65c-3 -52 -37 -100 -79 -121c-97 -48 -192 19 -209 97c-4 16 -3 5 -3 161l-1 142h-124l-1 -59v-71c-6 -111 -38 -173 -89 -252c-10 -16 -19 -24 -32 -29c-51 -21 -92 22 -86 67c2 11 4 17 16 35c46 70 62 115 66 181
v128h-54c-35 0 -55 1 -58 1c-24 3 -45 21 -52 45c-9 33 10 67 42 77c3 1 7 2 9 2z" />
  </g>

</svg>
