<?xml version="1.0" standalone="no"?>
<!DOCTYPE svg PUBLIC "-//W3C//DTD SVG 1.1//EN" "http://www.w3.org/Graphics/SVG/1.1/DTD/svg11.dtd" >
<svg xmlns="http://www.w3.org/2000/svg" xmlns:xlink="http://www.w3.org/1999/xlink" version="1.1" viewBox="-10 0 1010 1000">
  <g transform="matrix(1 0 0 -1 0 800)">
   <path fill="currentColor"
d="M197 530c-33.2545 6.65089 -59.7972 39.2097 -49 77c7 26 28 44 55 47c6 1 590 1 595 0c31.3544 -4.18058 59.741 -34.3308 56 -68c-3.13087 -27.1342 -21.8514 -50.1703 -51 -56h-606zM199 487c-2 0 -6 -1 -9 -2c-32 -10 -51 -44 -42 -77c7 -24 28 -42 52 -45
c3 0 23 -1 58 -1h54v-128c-4 -66 -20 -111 -66 -181c-12 -18 -14 -24 -16 -35c-6.44328 -45.103 35.2335 -87.9039 86 -67c13 5 22 13 32 29c51.2865 78.7615 82.9536 141.149 89 252v71l1 59h124l1 -142c0 -156 -1 -145 3 -161c17.2267 -77.5199 112.271 -145.364 209 -97
c41.8574 20.9287 76.1865 68.951 79 121c2.68757 45.6887 -39.338 88.5241 -89 65c-19.4099 -7.76395 -34.1928 -29.5063 -36 -53c-1.68365 -15.1528 -5.6991 -20.9248 -18 -24c-7 -1 -16 3 -20 9s-3 -4 -3 146v136h54c57 0 59 0 68 3c40 13 56 60 33 95
c-10 14 -26 25 -43 27c-6 1 -595 1 -601 0z" />
  </g>

</svg>
