<svg width="16" height="16" viewBox="0 0 16 16" fill="none" xmlns="http://www.w3.org/2000/svg">
<path d="M6.66667 8C6.66667 9.10457 5.77124 10 4.66667 10C3.5621 10 2.66667 9.10457 2.66667 8C2.66667 6.89543 3.5621 6 4.66667 6C5.77124 6 6.66667 6.89543 6.66667 8ZM6.66667 8L8.66667 8M8.66667 8L10 6.33333M8.66667 8L10 9.66667M13.3333 4.66667C13.3333 5.77124 12.4379 6.66667 11.3333 6.66667C10.2288 6.66667 9.33333 5.77124 9.33333 4.66667C9.33333 3.5621 10.2288 2.66667 11.3333 2.66667C12.4379 2.66667 13.3333 3.5621 13.3333 4.66667ZM13.3333 11.3333C13.3333 12.4379 12.4379 13.3333 11.3333 13.3333C10.2288 13.3333 9.33333 12.4379 9.33333 11.3333C9.33333 10.2288 10.2288 9.33333 11.3333 9.33333C12.4379 9.33333 13.3333 10.2288 13.3333 11.3333Z" stroke="#24282B" stroke-width="2" stroke-linecap="round" stroke-linejoin="round"/>
</svg>
