<?xml version="1.0" standalone="no"?>
<!DOCTYPE svg PUBLIC "-//W3C//DTD SVG 1.1//EN" "http://www.w3.org/Graphics/SVG/1.1/DTD/svg11.dtd" >
<svg xmlns="http://www.w3.org/2000/svg" xmlns:xlink="http://www.w3.org/1999/xlink" version="1.1" viewBox="-10 0 1010 1000">
  <g transform="matrix(1 0 0 -1 0 800)">
   <path fill="currentColor"
d="M692 695h19c50 0 80 -14 113 -39c54 -41 93 -135 58 -217c-34 -85 -127 -140 -234 -108c-1 0 -5 -4 -14 -15l-12 -16l12 -16c9 -11 13 -15 14 -15c124 37 226 -37 246 -152c2 -11 2 -39 0 -50c-13 -85 -75 -148 -161 -161c-36 -6 -70 3 -94 12c-64 27 -118 87 -118 174
c0 36 10 69 25 93c2 4 2 5 2 6s-8 12 -18 24l-18 23h-44c-2 -11 -12 -27 -17 -36c-32 -49 -82 -89 -159 -89c-17 0 -24 1 -39 4c-81 17 -141 85 -148 167c-1 16 0 38 3 54c14 68 66 125 134 143c17 5 30 6 49 6c21 0 36 -2 55 -8c55 -17 98 -58 121 -112l1 -4h22l22 -1
l18 23c10 12 18 23 18 24s0 2 -2 6c-17 29 -29 66 -24 113c10 86 74 156 170 167zM696 570c-32 -7 -53 -36 -50 -68c4 -39 43 -65 80 -54c21 6 36 23 42 44c10 41 -14 70 -47 77c-7 1 -19 2 -25 1zM336 344c-41 41 -106 8 -106 -44c0 -21 6 -32 17 -43c24 -25 65 -26 89 -1
s25 63 0 88zM724 152c-49.0793 14.0227 -89.4067 -32.1939 -76 -78c6 -21 23 -36 44 -42c49 -12 89 25 76 76c-6 22 -22 39 -44 44z" />
  </g>

</svg>
