<?xml version="1.0" standalone="no"?>
<!DOCTYPE svg PUBLIC "-//W3C//DTD SVG 1.1//EN" "http://www.w3.org/Graphics/SVG/1.1/DTD/svg11.dtd" >
<svg xmlns="http://www.w3.org/2000/svg" xmlns:xlink="http://www.w3.org/1999/xlink" version="1.1" viewBox="-10 0 1010 1000">
  <g transform="matrix(1 0 0 -1 0 800)">
   <path fill="currentColor"
d="M692 695h19c49.7721 0 80.4299 -13.6677 113 -39c54.266 -40.6995 93.0647 -135.182 58 -217c-34.1676 -85.419 -126.562 -140.232 -234 -108c-1 0 -5 -4 -14 -15l-12 -16l12 -16c9 -11 13 -15 14 -15c123.724 37.1172 225.675 -36.827 246 -152c2 -11 2 -39 0 -50
c-12.5418 -85.2844 -75.4263 -148.034 -161 -161c-35.8709 -5.97848 -70.3787 2.91488 -94 12c-64.0178 26.7982 -118 86.7206 -118 174c0 36.3133 9.85965 69.208 25 93c2 4 2 5 2 6s-8 12 -18 24l-18 23h-44c-2.12732 -10.6366 -11.7937 -26.8889 -17 -36
c-31.6581 -48.9262 -82.1516 -89 -159 -89c-17 0 -24 1 -39 4c-81 17 -141 85 -148 167c-1 16 0 38 3 54c14 68 66 125 134 143c17 5 30 6 49 6c21 0 36 -2 55 -8c55.0946 -16.6565 97.7847 -57.8309 121 -112l1 -4h22l22 -1l18 23c10 12 18 23 18 24s0 2 -2 6
c-17.3442 28.907 -29.1843 66.3409 -24 113c9.88322 86.4782 74.2623 156.362 170 167zM696 570c-32 -7 -53 -36 -50 -68c4 -39 43 -65 80 -54c21 6 36 23 42 44c10.2365 40.946 -14.4375 70.2161 -47 77c-7 1 -19 2 -25 1zM336 344c-41.099 41.099 -106 8.31146 -106 -44
c0 -21.041 5.99544 -31.9954 17 -43c24 -25 65 -26 89 -1s25 63 0 88zM701 154c-34.8866 -3.87629 -64.9316 -39.4326 -53 -80c6 -21 23 -36 44 -42c48.9842 -12.246 88.7579 24.9683 76 76c-6 22 -22 39 -44 44c-7 2 -17 3 -23 2z" />
  </g>

</svg>
