<?xml version="1.0" standalone="no"?>
<!DOCTYPE svg PUBLIC "-//W3C//DTD SVG 1.1//EN" "http://www.w3.org/Graphics/SVG/1.1/DTD/svg11.dtd" >
<svg xmlns="http://www.w3.org/2000/svg" xmlns:xlink="http://www.w3.org/1999/xlink" version="1.1" viewBox="-10 0 1010 1000">
  <g transform="matrix(1 0 0 -1 0 800)">
   <path fill="currentColor"
d="M564 440c8.74835 31.2441 36.3962 55.1509 77 45c23 -6 40 -24 45 -47c1 -5 1 -8 1 -57c0 -48 0 -53 -1 -60c-10.5687 -66.0545 -59.7618 -114.395 -127 -124c-45.2527 -5.02808 -73.7215 7.95092 -101 25c-8.90348 -5.34209 -24.3623 -14.0109 -35 -18
c-19 -6 -39 -9 -57 -8c-5 0 -10 1 -11 1c-2 0 -2 1 -4 -9c-12.0145 -54.0655 -48.418 -93.1019 -97 -110c-21 -7 -47 -9 -69 -5c-59 10 -107 55 -119 114c-3 13 -3 14 -3 69c0 49 0 52 1 57c7 30 34 51 64 49c28 -1 51 -19 58 -47c1 -5 1 -6 1 -54c0 -49 1 -49 2 -52
c6.00018 -14.0004 31.0822 -18.2945 38 -1l2 4v91c0 84 1 91 2 95c9.3402 32.0236 36.3367 55.1658 77 45c25 -7 43 -27 46 -53v-29c0 -22 1 -24 2 -27c2.95861 -7.39652 9.20992 -13 19 -13c9.8004 0 16.0412 5.6031 19 13c1 3 2 5 2 27v29c3 26 21 46 46 53
c40.8231 10.2058 70.3225 -13.6126 77 -47c1 -5 2 -9 2 -31c0 -27 0 -29 3 -34c9.38838 -15.0214 31.0266 -10.9379 37 3c1 3 2 3 2 52c0 48 0 49 1 54zM856 398c7.63127 30.5251 37.4551 54.8862 77 45c46.0873 -12.9044 50.4824 -52.2469 46 -115
c-8.26117 -137.686 -113.063 -239.239 -236 -255c-51.9588 -7.42269 -84.0427 4.82305 -95 45c-9.61209 38.4483 18.0211 74.6939 61 78c18 1 26 1 39 5c52 14 92 57 103 110c3 12 3 17 3 50c0 27 1 34 2 37zM739 362c-13 -2 -24 -9 -33 -18c-28 -27 -23 -74 9 -96
c50.6168 -33.7446 110.583 14.9587 96 66c-7.26593 27.6105 -33.7199 54.96 -72 48z" />
  </g>

</svg>
