<?xml version="1.0" standalone="no"?>
<!DOCTYPE svg PUBLIC "-//W3C//DTD SVG 1.1//EN" "http://www.w3.org/Graphics/SVG/1.1/DTD/svg11.dtd" >
<svg xmlns="http://www.w3.org/2000/svg" xmlns:xlink="http://www.w3.org/1999/xlink" version="1.1" viewBox="-10 0 1010 1000">
  <g transform="matrix(1 0 0 -1 0 800)">
   <path fill="currentColor"
d="M564 440c9 31 36 55 77 45c23 -6 40 -24 45 -47c1 -5 1 -8 1 -57c0 -48 0 -53 -1 -60c-11 -66 -60 -114 -127 -124c-45 -5 -74 8 -101 25c-9 -5 -24 -14 -35 -18c-19 -6 -39 -9 -57 -8c-5 0 -10 1 -11 1c-2 0 -2 1 -4 -9c-12 -54 -48 -93 -97 -110c-21 -7 -47 -9 -69 -5
c-59 10 -107 55 -119 114c-3 13 -3 14 -3 69c0 49 0 52 1 57c7 30 34 51 64 49c28 -1 51 -19 58 -47c1 -5 1 -6 1 -54c0 -49 1 -49 2 -52c6 -14 31 -18 38 -1l2 4v91c0 84 1 91 2 95c9 32 36 55 77 45c25 -7 43 -27 46 -53v-29c0 -22 1 -24 2 -27c3 -7 9 -13 19 -13
s16 6 19 13c1 3 2 5 2 27v29c3 26 21 46 46 53c41 10 70 -14 77 -47c1 -5 2 -9 2 -31c0 -27 0 -29 3 -34c9 -15 31 -11 37 3c1 3 2 3 2 52c0 48 0 49 1 54zM856 398c8 31 37 55 77 45c46 -13 50 -52 46 -115c-8 -138 -113 -239 -236 -255c-52 -7 -84 5 -95 45
c-10 38 18 75 61 78c18 1 26 1 39 5c52 14 92 57 103 110c3 12 3 17 3 50c0 27 1 34 2 37zM739 362c38 7 65 -20 72 -48c15 -51 -45 -100 -96 -66c-32 22 -37 69 -9 96c9 9 20 16 33 18z" />
  </g>

</svg>
