<?xml version="1.0" standalone="no"?>
<!DOCTYPE svg PUBLIC "-//W3C//DTD SVG 1.1//EN" "http://www.w3.org/Graphics/SVG/1.1/DTD/svg11.dtd" >
<svg xmlns="http://www.w3.org/2000/svg" xmlns:xlink="http://www.w3.org/1999/xlink" version="1.1" viewBox="-10 0 1010 1000">
  <g transform="matrix(1 0 0 -1 0 800)">
   <path fill="currentColor"
d="M696 695c6 1 32 0 38 -1c85 -13 154 -80 161 -169c3 -37 -7 -99 -26 -149c-40 -106 -117 -190 -218 -240l-9 -5c-4 -12 -7 -31 -12 -45c-15 -47 -41 -89 -76 -124c-15 -15 -30 -26 -47 -38c-26 -17 -34 -25 -65 -17c-29 8 -43 29 -47 64l-8 -6
c-57.4976 -44.5606 -136.918 -74.0895 -235 -59c-27 7 -44 27 -48 58c-9 79 13 159 61 223l6 8c-35 4 -56 18 -64 47c-1 4 -2 7 -2 14c-1 14 2 23 10 37c44 75 114 129 210 147l6 2l6 12c43 86 113 155 198 197c51 25 101 39 161 44zM283 291c95 -42 168 -113 208 -208
c5 5 10 16 14 25c8 19 13 38 15 58c2 18 2 21 3 26c7 23 22 35 45 44c76 28 136 85 172 157c16 34 26 68 30 106c5 44 -27 76 -72 71c-128 -12 -223 -100 -262 -203c-12 -31 -27 -43 -70 -47c-26 -3 -67 -13 -83 -29zM550 497c23 25 59 40 102 29c38 -10 67 -41 75 -79
c10 -44 -11 -91 -51 -113c-41 -23 -93 -15 -126 19c-39 40 -39 104 0 144zM645 425c0 13 -8 20 -19 20h-7c-9 -3 -14 -9 -14 -20c0 -13 7 -20 20 -20s20 7 20 20zM285 134c-24 -23 -40 -50 -50 -82c-2 -6 -5 -19 -5 -21s1 -1 11 1c25 6 50 17 71 33c12 9 30 26 29 28
s-14 18 -22 26c-9 9 -25 22 -26 22c0 0 -4 -3 -8 -7z" />
  </g>

</svg>
