<?xml version="1.0" standalone="no"?>
<!DOCTYPE svg PUBLIC "-//W3C//DTD SVG 1.1//EN" "http://www.w3.org/Graphics/SVG/1.1/DTD/svg11.dtd" >
<svg xmlns="http://www.w3.org/2000/svg" xmlns:xlink="http://www.w3.org/1999/xlink" version="1.1" viewBox="-10 0 1010 1000">
  <g transform="matrix(1 0 0 -1 0 800)">
   <path fill="currentColor"
d="M696 695c6 1 32 0 38 -1c85.2431 -12.9156 153.543 -79.5172 161 -169c3 -37 -7 -99 -26 -149c-40 -106 -117 -190 -218 -240l-9 -5c-4.03468 -12.104 -6.93957 -31.0838 -12 -45c-15 -47 -41 -89 -76 -124c-15 -15 -30 -26 -47 -38
c-25.6904 -17.1269 -33.5441 -24.864 -65 -17c-29.1973 8.11037 -43.0956 28.8604 -47 64l-8 -6c-40 -31 -88 -51 -139 -59c-30.7559 -4.61339 -69.6662 -4.38897 -96 0c-27.0212 6.75531 -43.567 26.9691 -48 58c-9 79 13 159 61 223l6 8
c-35.1159 3.90176 -55.9206 17.9141 -64 47c-1 4 -2 7 -2 14c-1 14 2 23 10 37c44.2415 74.5786 114.093 129.017 210 147l6 2l6 12c43 86 113 155 198 197c51 25 101 39 161 44zM283 291c95.1877 -42.3 168.451 -112.537 208 -208c4.63039 4.63039 10.3138 16.3989 14 25
c8 19 13 38 15 58c2 18 2 21 3 26c6.91123 23.4982 21.7514 34.7005 45 44c76.2292 28.2786 135.903 84.8065 172 157c16 34 26 68 30 106c4.88756 43.988 -27.085 75.9906 -72 71c-127.814 -12.2898 -222.976 -99.5012 -262 -203
c-12.4366 -31.0915 -27.1704 -43.1064 -70 -47c-26.0634 -2.74352 -66.5486 -12.5486 -83 -29zM550 497c23.4825 24.8639 58.9204 39.7699 102 29c38 -10 67 -41 75 -79c10 -44 -11 -91 -51 -113c-41 -23 -93 -15 -126 19c-39 40 -39 104 0 144zM645 425
c0 12.5143 -7.65339 20 -19 20h-7c-9.05661 -3.01887 -14 -8.9911 -14 -20c0 -13.2152 6.79996 -20 20 -20c13.2152 0 20 6.79996 20 20zM285 134c-24 -23 -40 -50 -50 -82c-2 -6 -5 -19 -5 -21s1 -1 11 1c25 6 50 17 71 33c12 9 30 26 29 28s-14 18 -22 26
c-9 9 -25 22 -26 22c0 0 -4 -3 -8 -7z" />
  </g>

</svg>
