<?xml version="1.0" standalone="no"?>
<!DOCTYPE svg PUBLIC "-//W3C//DTD SVG 1.1//EN" "http://www.w3.org/Graphics/SVG/1.1/DTD/svg11.dtd" >
<svg xmlns="http://www.w3.org/2000/svg" xmlns:xlink="http://www.w3.org/1999/xlink" version="1.1" viewBox="-10 0 1010 1000">
  <g transform="matrix(1 0 0 -1 0 800)">
   <path fill="currentColor"
d="M600 706h23c84 1 167 -23 239 -68c24 -15 51 -36 60 -47c10 -12 20 -32 14 -55c-7 -26 -28 -48 -60 -48c-26 0 -32 7 -50 22c-16 14 -37 27 -60 38c-100 49 -217 43 -311 -16c-13 -8 -27 -18 -35 -26c-38 -35 -107 -15 -107 44c0 10 1 16 4 24c6 13 18 26 44 45
c68 51 152 82 239 87zM611 551c67 0 105 -9 156 -34c21 -10 27 -15 35 -27c7 -10 10 -17 10 -34c0 -42 -36 -67 -72 -61c-8 1 -12 2 -28 10c-25 12 -41 17 -64 20c-11 2 -35 2 -46 0c-26 -3 -58 -16 -82 -28c-42 -14 -73 16 -81 45c-14 54 34 74 73 88c31 12 64 19 99 21z
M566 362c19 53 95 56 117 3c4 -10 4 -11 4 -39l1 -26h197c26 -9 45 -22 51 -49c1 -5 1 -12 1 -170s0 -164 -1 -169c-5 -25 -24 -45 -51 -49h-383c-339 0 -382 -1 -387 0c-26 4 -45 24 -51 49c-1 5 -1 11 -1 169s0 165 1 170c5 22 20 39 41 46c10 3 -3 3 236 3h221v23
c0 25 1 30 4 39zM188 175v-187h624v187h-624zM519 126c13 13 33 22 59 16c22 -6 39 -23 45 -46c2 -7 2 -23 0 -30c-9 -30 -32 -52 -73 -46c-12 2 -24 9 -32 17c-24 24 -24 65 1 89zM675 126c40 40 122 6 104 -60c-7 -24 -23 -41 -47 -46c-27 -4 -45 4 -58 17
c-24 24 -24 65 1 89z" />
  </g>

</svg>
