<?xml version="1.0" standalone="no"?>
<!DOCTYPE svg PUBLIC "-//W3C//DTD SVG 1.1//EN" "http://www.w3.org/Graphics/SVG/1.1/DTD/svg11.dtd" >
<svg xmlns="http://www.w3.org/2000/svg" xmlns:xlink="http://www.w3.org/1999/xlink" version="1.1" viewBox="-10 0 1010 1000">
  <g transform="matrix(1 0 0 -1 0 800)">
   <path fill="currentColor"
d="M600 706h23c84 1 167 -23 239 -68c24 -15 51 -36 60 -47c10.4365 -11.9274 20.4687 -32.3595 14 -55c-6.81616 -26.1286 -28.3432 -48 -60 -48c-26.1159 0 -31.6089 6.67412 -50 22c-16 14 -37 27 -60 38c-100 49 -217 43 -311 -16c-13 -8 -27 -18 -35 -26
c-38.2126 -35.2731 -107 -15.4412 -107 44c0 10 1 16 4 24c6 13 18 26 44 45c68 51 152 82 239 87zM611 551c66.6783 0 104.632 -8.97439 156 -34c21 -10 27 -15 35 -27c6.78188 -10.1728 10 -17.0304 10 -34c0 -41.5218 -36.2517 -66.958 -72 -61c-8 1 -12 2 -28 10
c-25 12 -41 17 -64 20c-11 2 -35 2 -46 0c-25.6241 -3.34228 -57.6519 -15.8259 -82 -28c-41.6599 -13.8866 -72.8233 15.564 -81 45c-13.6143 54.457 34.064 73.8415 73 88c31 12 64 19 99 21zM566 362c18.5424 53.3095 94.575 56.0046 117 3c4 -10 4 -11 4 -39l1 -26h197
c25.8068 -8.60225 45.0365 -21.5678 51 -49c1 -5 1 -12 1 -170s0 -164 -1 -169c-5.44627 -25.0528 -24.0371 -44.5062 -51 -49h-383c-339 0 -382 -1 -387 0c-25.6715 3.94946 -44.8583 24.4332 -51 49c-1 5 -1 11 -1 169s0 165 1 170c5 22 20 39 41 46c10 3 -3 3 236 3h221
v23c0 25 1 30 4 39zM188 175v-187h624v187h-624zM519 126c13.1473 13.1473 33.0447 22.4888 59 16c22 -6 39 -23 45 -46c2 -7 2 -23 0 -30c-8.67656 -29.7482 -32.3038 -51.8137 -73 -46c-12 2 -24 9 -32 17c-24 24 -24 65 1 89zM708 143c-13 -2 -24 -8 -33 -17
c-25 -24 -25 -65 -1 -89c13.0321 -13.0321 31.2909 -20.8156 58 -17c24 5 40 22 47 46c11.3604 39.7614 -16.6033 68.5282 -44 76c-8 2 -20 2 -27 1z" />
  </g>

</svg>
