<?xml version="1.0" standalone="no"?>
<!DOCTYPE svg PUBLIC "-//W3C//DTD SVG 1.1//EN" "http://www.w3.org/Graphics/SVG/1.1/DTD/svg11.dtd" >
<svg xmlns="http://www.w3.org/2000/svg" xmlns:xlink="http://www.w3.org/1999/xlink" version="1.1" viewBox="-10 0 1010 1000">
  <g transform="matrix(1 0 0 -1 0 800)">
   <path fill="currentColor"
d="M188 175c0 41 29 63 70 63h13v41l-16 1c-14 0 -17 0 -21 1c-56 15 -62 97 -7 119c9 4 13 4 29 4l15 1v193c3 30 27 53 57 56h136c120 0 134 0 141 -1c11 -1 23 -4 31 -7c72 -21 131 -83 134 -174c1 -20 0 -34 -5 -52c-19 -72 -77 -126 -154 -139c-8 -1 -9 -2 -112 -2
h-103v-41h96c105 0 102 0 112 -4c24 -8 41 -28 41 -59c0 -35 -23 -56 -51 -61c-5 -1 -16 -2 -102 -2h-96l-1 -57v-58c-6 -28 -29 -51 -61 -51c-4 0 -10 1 -12 1c-28 6 -48 27 -51 55v110h-13c-21 0 -31 3 -44 12c-14 11 -26 26 -26 51zM396 529v-125h97c92 0 98 1 103 2
c33 7 57 36 47 77c-8 26 -25 37 -51 46h-196z" />
  </g>

</svg>
