<?xml version="1.0" standalone="no"?>
<!DOCTYPE svg PUBLIC "-//W3C//DTD SVG 1.1//EN" "http://www.w3.org/Graphics/SVG/1.1/DTD/svg11.dtd" >
<svg xmlns="http://www.w3.org/2000/svg" xmlns:xlink="http://www.w3.org/1999/xlink" version="1.1" viewBox="-10 0 1010 1000">
  <g transform="matrix(1 0 0 -1 0 800)">
   <path fill="currentColor"
d="M395 -3c-5.68362 -28.4181 -29.1303 -51 -61 -51c-4 0 -10 1 -12 1c-28 6 -48 27 -51 55v110h-13c-21 0 -31 3 -44 12c-14.4747 10.856 -26 26.1102 -26 51c0 24.9275 11.4954 40.1215 26 51c13 9 23 12 44 12h13v41l-16 1c-14 0 -17 0 -21 1
c-56.1958 15.1296 -61.706 97.1176 -7 119c9 4 13 4 29 4l15 1v193c3 30 27 53 57 56h136c120 0 134 0 141 -1c11 -1 23 -4 31 -7c72.4835 -21.3187 130.746 -82.8827 134 -174c1 -20 0 -34 -5 -52c-18.9807 -71.705 -76.8844 -125.834 -154 -139c-8 -1 -9 -2 -112 -2h-103
v-41h96c105 0 102 0 112 -4c23.7586 -8.31552 41 -27.6733 41 -59c0 -35.2098 -23.0801 -55.6819 -51 -61c-5 -1 -16 -2 -102 -2h-96l-1 -57v-58zM396 529v-125h97c92 0 98 1 103 2c33.3857 6.67714 57.2218 36.1128 47 77c-8.32089 26.1514 -25.0067 37.3356 -51 46h-196z
" />
  </g>

</svg>
