<?xml version="1.0" standalone="no"?>
<!DOCTYPE svg PUBLIC "-//W3C//DTD SVG 1.1//EN" "http://www.w3.org/Graphics/SVG/1.1/DTD/svg11.dtd" >
<svg xmlns="http://www.w3.org/2000/svg" xmlns:xlink="http://www.w3.org/1999/xlink" version="1.1" viewBox="-10 0 1010 1000">
  <g transform="matrix(1 0 0 -1 0 800)">
   <path fill="currentColor"
d="M562 -85c-6 -28 -24 -47 -52 -52h-195c-172 0 -195 -1 -200 0c-26 4 -45 24 -51 49c-1 5 -1 16 -1 388s0 383 1 388c6 25 25 44 50 49c4 1 62 0 388 0h383c27 -4 46 -24 51 -49c1 -5 1 -11 1 -200s0 -196 -1 -201c-5 -25 -24 -45 -51 -49h-161l-161 -1l-1 -161v-161z
M188 612v-124l36 -1h36c26 -9 44 -21 51 -48c10 -39 -18 -67 -45 -74l-6 -2h-36l-36 -1v-62h72c26 -9 44 -21 51 -48c10 -40 -18 -68 -45 -75l-6 -2h-72v-62l36 -1h36c28 -9 52 -24 52 -62c0 -33.4042 -22.698 -57.814 -52 -62c-4 -1 11 0 87 0h90l1 161v161
c5 26 25 48 52 52c5 1 25 0 164 0h158v250h-62v-36c0 -34 -1 -36 -2 -41c-6 -23 -23 -39 -45 -45c-34 -9 -67 11 -76 45c-1 5 -2 7 -2 41v36h-62l-1 -36c0 -34 0 -36 -1 -41c-6 -23 -23 -39 -45 -45c-34 -9 -68 11 -77 45c-1 5 -1 7 -1 41l-1 36h-62v-36
c0 -34 -1 -36 -2 -41c-6 -23 -23 -39 -45 -45c-34 -9 -67 11 -76 45c-1 5 -2 7 -2 41v36h-62z" />
  </g>

</svg>
