<?xml version="1.0" standalone="no"?>
<!DOCTYPE svg PUBLIC "-//W3C//DTD SVG 1.1//EN" "http://www.w3.org/Graphics/SVG/1.1/DTD/svg11.dtd" >
<svg xmlns="http://www.w3.org/2000/svg" xmlns:xlink="http://www.w3.org/1999/xlink" version="1.1" viewBox="-10 0 1010 1000">
  <g transform="matrix(1 0 0 -1 0 800)">
   <path fill="currentColor"
d="M562 -85c-5.5887 -27.9123 -24.1518 -47.2913 -52 -52h-195c-172 0 -195 -1 -200 0c-25.6715 3.94946 -44.8583 24.4332 -51 49c-1 5 -1 16 -1 388s0 383 1 388c6 25 25 44 50 49c4 1 62 0 388 0h383c26.9752 -4.49587 45.5523 -23.9407 51 -49c1 -5 1 -11 1 -200
s0 -196 -1 -201c-5.44627 -25.0528 -24.0371 -44.5062 -51 -49h-161l-161 -1l-1 -161v-161zM188 550v-62l36 -1h36c25.9421 -8.64736 43.8666 -20.6553 51 -48c9.82512 -39.3005 -18.0495 -66.9694 -45 -74l-6 -2h-36l-36 -1v-62h72
c25.9421 -8.64736 43.8666 -20.6553 51 -48c9.97194 -39.8877 -17.7005 -67.8784 -45 -75l-6 -2h-72v-62l36 -1h36c28.3281 -9.44271 52 -24.3278 52 -62c0 -28.4695 -15.0555 -46.6144 -35 -56c-6 -3 -10 -5 -17 -6c-4 -1 11 0 87 0h90l1 161v161
c5.28709 26.4355 25.4042 47.9083 52 52c5 1 25 0 164 0h158v250h-62v-36c0 -34 -1 -36 -2 -41c-6 -23 -23 -39 -45 -45c-34 -9 -67 11 -76 45c-1 5 -2 7 -2 41v36h-62l-1 -36c0 -34 0 -36 -1 -41c-6 -23 -23 -39 -45 -45c-34 -9 -68 11 -77 45c-1 5 -1 7 -1 41l-1 36h-62
v-36c0 -34 -1 -36 -2 -41c-6 -23 -23 -39 -45 -45c-34 -9 -67 11 -76 45c-1 5 -2 7 -2 41v36h-62v-62z" />
  </g>

</svg>
