<?xml version="1.0" standalone="no"?>
<!DOCTYPE svg PUBLIC "-//W3C//DTD SVG 1.1//EN" "http://www.w3.org/Graphics/SVG/1.1/DTD/svg11.dtd" >
<svg xmlns="http://www.w3.org/2000/svg" xmlns:xlink="http://www.w3.org/1999/xlink" version="1.1" viewBox="-10 0 1010 1000">
  <g transform="matrix(1 0 0 -1 0 800)">
   <path fill="currentColor"
d="M284 654c-25 -3 -45 -21 -52 -46c-9.98856 -39.9543 12.2203 -67.7309 44 -77c5 -1 5 -2 78 -2c72 0 74 0 81 -1c27.949 -4.65817 47.093 -22.093 65 -40h-109l-109 -1c-29.6938 -4.94897 -52 -27.4667 -52 -62c0 -35.49 21.8321 -56.972 52 -62l109 -1h109
c-17.9091 -17.9091 -37.0344 -35.3391 -65 -40c-7 -1 -9 -1 -81 -1c-73 0 -73 -1 -78 -2c-31.787 -9.2712 -54.0069 -36.9725 -44 -77c2 -8 6 -15 10 -21c5 -7 259 -261 264 -264c21 -14 47 -15 69 -2c25.6258 14.6433 39.3159 57.0262 18 89
c-2.54818 3.82226 -1.1164 1.09095 -151 153c0 0 1 1 2 1c3 0 20 3 29 5c79.5006 19.5001 137.726 80.1789 164 159l61 1h62c29.812 4.96866 52 27.3286 52 62c0 34.7769 -22.1989 57.0332 -52 62h-62l-61 1c-4.19988 12.5996 -10.6302 28.4705 -16 41c0 0 32 1 70 1h70
c26.2493 5.24986 43.4911 23.0491 50 48c2 6 2 22 0 28c-7 24 -24 41 -48 47c-4 1 -16 1 -240 1h-239z" />
  </g>

</svg>
