<?xml version="1.0" standalone="no"?>
<!DOCTYPE svg PUBLIC "-//W3C//DTD SVG 1.1//EN" "http://www.w3.org/Graphics/SVG/1.1/DTD/svg11.dtd" >
<svg xmlns="http://www.w3.org/2000/svg" xmlns:xlink="http://www.w3.org/1999/xlink" version="1.1" viewBox="-10 0 1010 1000">
  <g transform="matrix(1 0 0 -1 0 800)">
   <path fill="currentColor"
d="M284 654h239c224 0 236 0 240 -1c24 -6 41 -23 48 -47c2 -6 2 -22 0 -28c-7 -25 -24 -43 -50 -48h-70c-38 0 -70 -1 -70 -1c5 -13 12 -28 16 -41l61 -1h62c30 -5 52 -27 52 -62s-22 -57 -52 -62h-62l-61 -1c-26 -79 -84 -139 -164 -159c-9 -2 -26 -5 -29 -5
c-1 0 -2 -1 -2 -1c150 -152 148 -149 151 -153c21 -32 8 -74 -18 -89c-22 -13 -48 -12 -69 2c-5 3 -259 257 -264 264c-4 6 -8 13 -10 21c-10 40 12 68 44 77c5 1 5 2 78 2c72 0 74 0 81 1c28 5 47 22 65 40h-109l-109 1c-30 5 -52 27 -52 62s22 57 52 62l109 1h109
c-18 18 -37 35 -65 40c-7 1 -9 1 -81 1c-73 0 -73 1 -78 2c-32 9 -54 37 -44 77c7 25 27 43 52 46z" />
  </g>

</svg>
