<svg width="16" height="16" viewBox="0 0 16 16" fill="none" xmlns="http://www.w3.org/2000/svg">
<path d="M1.33333 13.3333C1.48478 13.5443 1.68531 13.7153 1.91761 13.8314C2.14991 13.9476 2.407 14.0054 2.66666 14C2.92633 14.0054 3.18341 13.9476 3.41571 13.8314C3.64801 13.7153 3.84855 13.5443 3.99999 13.3333C4.15144 13.1223 4.35198 12.9514 4.58428 12.8352C4.81658 12.7191 5.07366 12.6612 5.33333 12.6667C5.59299 12.6612 5.85008 12.7191 6.08238 12.8352C6.31468 12.9514 6.51521 13.1223 6.66666 13.3333C6.81811 13.5443 7.01864 13.7153 7.25094 13.8314C7.48325 13.9476 7.74033 14.0054 8 14C8.25966 14.0054 8.51674 13.9476 8.74905 13.8314C8.98135 13.7153 9.18188 13.5443 9.33333 13.3333C9.48478 13.1223 9.68531 12.9514 9.91761 12.8352C10.1499 12.7191 10.407 12.6612 10.6667 12.6667C10.9263 12.6612 11.1834 12.7191 11.4157 12.8352C11.648 12.9514 11.8485 13.1223 12 13.3333C12.1514 13.5443 12.352 13.7153 12.5843 13.8314C12.8166 13.9476 13.0737 14.0054 13.3333 14C13.593 14.0054 13.8501 13.9476 14.0824 13.8314C14.3147 13.7153 14.5152 13.5443 14.6667 13.3333" stroke="#24282B" stroke-width="2" stroke-linecap="round" stroke-linejoin="round"/>
<path d="M2.66667 12L2 10H14L13.3333 12" stroke="#24282B" stroke-width="2" stroke-linecap="round" stroke-linejoin="round"/>
<path d="M7.33333 8H12L7.33333 2V8Z" stroke="#24282B" stroke-width="2" stroke-linecap="round" stroke-linejoin="round"/>
<path d="M5.33333 4.66667L4 8.00001" stroke="#24282B" stroke-width="2" stroke-linecap="round" stroke-linejoin="round"/>
</svg>
