<?xml version="1.0" standalone="no"?>
<!DOCTYPE svg PUBLIC "-//W3C//DTD SVG 1.1//EN" "http://www.w3.org/Graphics/SVG/1.1/DTD/svg11.dtd" >
<svg xmlns="http://www.w3.org/2000/svg" xmlns:xlink="http://www.w3.org/1999/xlink" version="1.1" viewBox="-10 0 1010 1000">
  <g transform="matrix(1 0 0 -1 0 800)">
   <path fill="currentColor"
d="M396 682c2.88218 25.9396 25.7186 51.9687 53 55c19 3 38 -4 52 -17c4 -4 297 -379 302 -387c6.45656 -8.07071 9 -18.2768 9 -33c0 -28.4695 -15.0555 -46.6144 -35 -56c-5 -3 -15 -6 -19 -6h62l65 -1c27.0471 -4.50784 44.4776 -22.9976 51 -48c2 -8 2 -20 0 -28
c-1 -5 -45 -134 -46 -137c0 -1 1 0 4 1c59.5039 23.1404 109.503 -46.7769 72 -96c-30.0946 -40.512 -70.6364 -66 -132 -66c-19 0 -29 1 -43 5c-37 10 -66 29 -90 60c-7 8 -13 13 -20 16c-24.3078 8.10261 -37.9178 -3.23283 -50 -18
c-35.3077 -40.3516 -91.4078 -77.4743 -169 -59c-37 8 -71 29 -94 60c-11 14 -19 19 -35 19s-23 -5 -34 -19c-27 -35 -65 -57 -108 -63c-15 -2 -38 -2 -53 1c-42 7 -79 30 -104 64c-33.078 43.5236 2.43587 100 50 100c4.28847 0 26 -5 26 -5c-1 3 -45 132 -46 137
c-9.85757 39.4303 19.4245 71.1422 51 76c5 1 15 1 67 1c55 0 61 -1 57 0c-24.6628 4.35226 -43.1443 24.0051 -50 48c-2 8 -2 20 0 28c1 5 85 215 89 222c8 16 22 27 39 32c40.74 10.185 70.2131 -14.4229 77 -47c1 -5 2 -4 2 75v86zM395 499
c0 -8.21105 -90.4828 -229.224 -91 -230c-10 -16 -25 -28 -44 -31c-4 -1 12 0 94 0h95c-9 1 -20 7 -27 12c-13 9 -21 21 -25 38c-1 4 -1 15 -1 108c0 58 -1 103 -1 103zM521 428v-66h50c40 0 50 0 50 1c-1 1 -99 128 -100 129s0 -8 0 -64zM212 112c3 -7 15 -48 16 -51
c1 -5 1 -18 0 -23c0 -2 -1 -5 -1 -5c31.0295 23.2721 59.4568 37 111 37c20 0 33 -2 50 -8c31 -11 56 -29 77 -56c8.42452 -11.2327 18.4633 -18 35 -18c18.0519 0 25.3668 6.95851 35 19c25.694 32.1175 62.2327 55.0051 107 62c10 2 40 2 50 0
c31.099 -4.60726 57.3671 -19.1194 81 -36c-0.000101371 6.08183 -2.57373 20.1314 -1 28c1 3 13 44 16 51c0 1 -58 0 -288 0s-288 1 -288 0z" />
  </g>

</svg>
