<?xml version="1.0" standalone="no"?>
<!DOCTYPE svg PUBLIC "-//W3C//DTD SVG 1.1//EN" "http://www.w3.org/Graphics/SVG/1.1/DTD/svg11.dtd" >
<svg xmlns="http://www.w3.org/2000/svg" xmlns:xlink="http://www.w3.org/1999/xlink" version="1.1" viewBox="-10 0 1010 1000">
  <g transform="matrix(1 0 0 -1 0 800)">
   <path fill="currentColor"
d="M396 682c6 49 66 74 105 38c4 -4 297 -379 302 -387c6 -8 9 -18 9 -33c0 -28 -15 -47 -35 -56c-5 -3 -15 -6 -19 -6h62l65 -1c27 -5 44 -23 51 -48c2 -8 2 -20 0 -28c-1 -5 -45 -134 -46 -137c0 -1 1 0 4 1c60 23 110 -47 72 -96c-30 -41 -71 -66 -132 -66
c-19 0 -29 1 -43 5c-37 10 -66 29 -90 60c-7 8 -13 13 -20 16c-24 8 -38 -3 -50 -18c-35 -40 -91 -77 -169 -59c-37 8 -71 29 -94 60c-11 14 -19 19 -35 19s-23 -5 -34 -19c-27 -35 -65 -57 -108 -63c-15 -2 -38 -2 -53 1c-42 7 -79 30 -104 64c-33 44 2 100 50 100
c4 0 26 -5 26 -5c-1 3 -45 132 -46 137c-10 39 19 71 51 76c5 1 15 1 67 1c55 0 61 -1 57 0c-25 4 -43 24 -50 48c-2 8 -2 20 0 28c1 5 85 215 89 222c8 16 22 27 39 32c41 10 70 -14 77 -47c1 -5 2 -4 2 75v86zM395 499c0 -8 -90 -229 -91 -230c-10 -16 -25 -28 -44 -31
c-4 -1 12 0 94 0h95c-9 1 -20 7 -27 12c-13 9 -21 21 -25 38c-1 4 -1 15 -1 108c0 58 -1 103 -1 103zM521 428v-66h50c40 0 50 0 50 1c-1 1 -99 128 -100 129s0 -8 0 -64zM212 112c3 -7 15 -48 16 -51c1 -5 1 -18 0 -23c0 -2 -1 -5 -1 -5c31 23 59 37 111 37
c20 0 33 -2 50 -8c31 -11 56 -29 77 -56c8 -11 18 -18 35 -18c18 0 25 7 35 19c26 32 62 55 107 62c10 2 40 2 50 0c31 -5 57 -19 81 -36c0 6 -3 20 -1 28c1 3 13 44 16 51c0 1 -58 0 -288 0s-288 1 -288 0z" />
  </g>

</svg>
