<?xml version="1.0" standalone="no"?>
<!DOCTYPE svg PUBLIC "-//W3C//DTD SVG 1.1//EN" "http://www.w3.org/Graphics/SVG/1.1/DTD/svg11.dtd" >
<svg xmlns="http://www.w3.org/2000/svg" xmlns:xlink="http://www.w3.org/1999/xlink" version="1.1" viewBox="-10 0 1010 1000">
  <g transform="matrix(1 0 0 -1 0 800)">
   <path fill="currentColor"
d="M493 154c32 91 102 161 194 195v81c0 89 1 84 -3 90c-1 2 -3 4 -5 5c-6 4 -6 4 -37 4c-27 0 -28 1 -33 2c-26 7 -44 30 -46 57c-2 33 22 62 55 66c6 1 48 1 58 0c73 -4 125 -59 135 -125c1 -7 1 -14 1 -122c0 -110 0 -115 -1 -120c-6 -24 -25 -43 -49 -48
c-7 -1 -7 -2 6 -3c65 -7 120 -61 127 -130c7 -71 -31 -122 -81 -145c-58 -29 -124 -15 -167 28c-27 27 -38 58 -43 97c-4 -29 -22 -50 -51 -56h-86l-85 -1c-25 -49 -82 -93 -156 -81c-40 6 -76 29 -98 63c-37 56 -31 132 16 181c25 26 59 45 106 45c15 0 22 -1 34 -4
c40 -10 76 -37 94 -73l4 -6h111zM230 93c0 -13 7 -22 20 -22c22 0 28 30 8 40c-14 7 -28 -5 -28 -18zM758 111c-15.1991 7.59953 -28 -5.73069 -28 -18c0 -14 7 -22 20 -22c22 0 28 30 8 40z" />
  </g>

</svg>
