<?xml version="1.0" standalone="no"?>
<!DOCTYPE svg PUBLIC "-//W3C//DTD SVG 1.1//EN" "http://www.w3.org/Graphics/SVG/1.1/DTD/svg11.dtd" >
<svg xmlns="http://www.w3.org/2000/svg" xmlns:xlink="http://www.w3.org/1999/xlink" version="1.1" viewBox="-10 0 1010 1000">
  <g transform="matrix(1 0 0 -1 0 800)">
   <path fill="currentColor"
d="M493 154c32.0559 91.1824 101.609 161.407 194 195v81c0 89 1 84 -3 90c-1 2 -3 4 -5 5c-6 4 -6 4 -37 4c-27 0 -28 1 -33 2c-26 7 -44 30 -46 57c-2 33 22 62 55 66c6 1 48 1 58 0c73.4879 -3.67439 124.695 -59.0512 135 -125c1 -7 1 -14 1 -122c0 -110 0 -115 -1 -120
c-6 -24 -25 -43 -49 -48c-7 -1 -7 -2 6 -3c65.3382 -7.2598 119.611 -61.0387 127 -130c7.11962 -71.1962 -31.0499 -121.69 -81 -145c-57.7307 -28.8653 -123.607 -15.3927 -167 28c-27.1536 27.1536 -38.0701 57.5609 -43 97c-4.15969 -29.4117 -21.784 -49.7792 -51 -56
h-86l-85 -1c-24.5415 -49.0831 -82.3011 -93.2831 -156 -81c-40 6 -76 29 -98 63c-37 56 -31 132 16 181c25.061 26.38 59.4685 45 106 45c15 0 22 -1 34 -4c40 -10 76 -37 94 -73l4 -6h111zM230 93c0 -13.4849 7.12121 -22 20 -22c21.9512 0 27.9606 30.0197 8 40
c-14.436 7.21802 -28 -5.14082 -28 -18zM744 112c-7.65219 -1.91305 -14 -10.1816 -14 -19c0 -13.5373 7.05003 -22 20 -22c21.9512 0 27.9606 30.0197 8 40c-4 2 -11 2 -14 1z" />
  </g>

</svg>
