<?xml version="1.0" standalone="no"?>
<!DOCTYPE svg PUBLIC "-//W3C//DTD SVG 1.1//EN" "http://www.w3.org/Graphics/SVG/1.1/DTD/svg11.dtd" >
<svg xmlns="http://www.w3.org/2000/svg" xmlns:xlink="http://www.w3.org/1999/xlink" version="1.1" viewBox="-10 0 1010 1000">
  <g transform="matrix(1 0 0 -1 0 800)">
   <path fill="currentColor"
d="M419 737c17 1 41 0 59 -2c66 -7 132 -33 184 -72c87 -65 139 -162 149 -271c1 -12 1 -48 0 -60c-6 -67 -26 -125 -63 -180l-6 -9c4.18407 -5.57875 166.961 -163.961 173 -170c15.7092 -15.7092 28.3071 -32.7716 21 -62c-6 -23 -23 -40 -45 -46
c-22.7179 -5.67947 -40.5041 1.3601 -54 11c-6.28664 3.14332 -177.935 173.701 -185 179l-9 -6c-125.103 -83.4022 -304.825 -82.2087 -431 14c-62 47 -106 109 -130 182c-41 123 -16 258 67 357c67 81 165 130 270 135zM422 612c-11 -1 -31 -3 -42 -6
c-75 -18 -138 -70 -170 -140c-33 -71 -30 -156 8 -224c54 -97 163 -147 272 -124c94.5872 20.4513 171.473 97.0646 192 192c16 75 -2 150 -50 209c-44.2789 54.1186 -116.397 97.566 -210 93z" />
  </g>

</svg>
