<?xml version="1.0" standalone="no"?>
<!DOCTYPE svg PUBLIC "-//W3C//DTD SVG 1.1//EN" "http://www.w3.org/Graphics/SVG/1.1/DTD/svg11.dtd" >
<svg xmlns="http://www.w3.org/2000/svg" xmlns:xlink="http://www.w3.org/1999/xlink" version="1.1" viewBox="-10 0 1010 1000">
  <g transform="matrix(1 0 0 -1 0 800)">
   <path fill="currentColor"
d="M239 612c4 1 20 0 101 0c95 0 96 0 105 -1c105.635 -15.9449 189.964 -99.6103 200 -208c0 -5 1 -41 1 -100c0 -88 -1 -94 -2 -99c-6.78551 -32.5705 -36.1896 -57.2026 -77 -47c-23 7 -39 23 -45 47c-1 4 -1 11 -1 99l-1 95c-7.95332 47.7199 -44.5539 83.3065 -92 89
c-3 0 -25 1 -60 1h-55l-1 -224v-224c-6.1938 -30.969 -29.5563 -50.9484 -59 -52c-30 -2 -57 19 -64 49c-1 5 -1 13 -1 263s0 258 1 263c6 25 25 44 50 49zM739 612c-26.4791 -5.29581 -45.3878 -23.9388 -51 -52v-224l-1 -224l-54 1h-61
c-47.3535 5.68242 -84.0686 41.4114 -92 89l-1 95c0 88 0 95 -1 99c-6 24 -22 40 -45 47c-40.8231 10.2058 -70.3225 -13.6126 -77 -47c-1 -6 -1 -9 -1 -103c0 -88 0 -98 1 -105c15.1011 -109.483 96.2378 -185.031 202 -199c8 -1 16 -1 105 -1h97
c26.9752 4.49587 45.5523 23.9407 51 49c1 5 1 13 1 263s0 258 -1 263c-6.2553 28.7744 -33.4682 54.5045 -72 49z" />
  </g>

</svg>
