<?xml version="1.0" standalone="no"?>
<!DOCTYPE svg PUBLIC "-//W3C//DTD SVG 1.1//EN" "http://www.w3.org/Graphics/SVG/1.1/DTD/svg11.dtd" >
<svg xmlns="http://www.w3.org/2000/svg" xmlns:xlink="http://www.w3.org/1999/xlink" version="1.1" viewBox="-10 0 1010 1000">
  <g transform="matrix(1 0 0 -1 0 800)">
   <path fill="currentColor"
d="M239 612c4 1 20 0 101 0c95 0 96 0 105 -1c106 -16 190 -100 200 -208c0 -5 1 -41 1 -100c0 -88 -1 -94 -2 -99c-7 -33 -36 -57 -77 -47c-23 7 -39 23 -45 47c-1 4 -1 11 -1 99l-1 95c-8 48 -45 83 -92 89c-3 0 -25 1 -60 1h-55l-1 -224v-224
c-13.0446 -67.3972 -107.767 -68.2848 -123 -3c-1 5 -1 13 -1 263s0 258 1 263c6 25 25 44 50 49zM739 612c39 6 66 -20 72 -49c1 -5 1 -13 1 -263s0 -258 -1 -263c-5 -25 -24 -45 -51 -49h-97c-89 0 -97 0 -105 1c-106 14 -187 90 -202 199c-1 7 -1 17 -1 105
c0 94 0 97 1 103c7 33 36 57 77 47c23 -7 39 -23 45 -47c1 -4 1 -11 1 -99l1 -95c8 -48 45 -83 92 -89h61l54 -1l1 224v224c6 28 25 47 51 52z" />
  </g>

</svg>
