<?xml version="1.0" standalone="no"?>
<!DOCTYPE svg PUBLIC "-//W3C//DTD SVG 1.1//EN" "http://www.w3.org/Graphics/SVG/1.1/DTD/svg11.dtd" >
<svg xmlns="http://www.w3.org/2000/svg" xmlns:xlink="http://www.w3.org/1999/xlink" version="1.1" viewBox="-10 0 1010 1000">
  <g transform="matrix(1 0 0 -1 0 800)">
   <path fill="currentColor"
d="M302 737c4 1 34 0 200 0h195c27.0471 -4.50784 44.4776 -22.9976 51 -48c10.3258 -41.3033 -19.9215 -70.8203 -51 -76h-194c-172 0 -196 -1 -201 0c-35.9427 5.52965 -69.9853 54.0221 -42 96c9 14 25 25 42 28zM302 174c-25.862 -4.56388 -42.7831 -21.7407 -50 -47
c-4.574 -18.296 0.854014 -37.281 8 -48c6.50645 -10.8441 158.285 -160.285 201 -203c18.2867 -15.6743 55.9481 -17.7099 76 -1c0.896569 0.597713 196.021 192.369 203 204c7.17594 10.7639 12.5875 29.6501 8 48c-10.2089 39.134 -55.0761 62.5775 -96 37
c-2 -1 -31 -29 -78 -76l-74 -75l-74 74c-40 40 -75 74 -77 76c-11.6351 7.75671 -27.611 13.7699 -47 11z" />
  </g>

</svg>
