<?xml version="1.0" standalone="no"?>
<!DOCTYPE svg PUBLIC "-//W3C//DTD SVG 1.1//EN" "http://www.w3.org/Graphics/SVG/1.1/DTD/svg11.dtd" >
<svg xmlns="http://www.w3.org/2000/svg" xmlns:xlink="http://www.w3.org/1999/xlink" version="1.1" viewBox="-10 0 1010 1000">
  <g transform="matrix(1 0 0 -1 0 800)">
   <path fill="currentColor"
d="M464 726c15 9 29 15 52 9c8 -2 15 -5 21 -10c1 -1 196 -192 203 -204c7 -11 13 -30 8 -48c-10 -41 -57 -63 -96 -37c-2 1 -31 29 -78 76l-74 75l-74 -74c-40 -40 -75 -74 -77 -76c-36 -28 -87 -5 -97 36c-5 18 1 38 8 49c4 7 199 201 204 204zM302 174c19 3 35 -3 47 -11
c2 -2 37 -36 77 -76l74 -74l74 75c47 47 76 75 78 76c56 36 124 -28 88 -85c-7 -12 -202 -203 -203 -204c-20 -17 -58 -15 -76 1c-43 43 -194 192 -201 203s-13 30 -8 48c7 25 24 42 50 47z" />
  </g>

</svg>
