<?xml version="1.0" standalone="no"?>
<!DOCTYPE svg PUBLIC "-//W3C//DTD SVG 1.1//EN" "http://www.w3.org/Graphics/SVG/1.1/DTD/svg11.dtd" >
<svg xmlns="http://www.w3.org/2000/svg" xmlns:xlink="http://www.w3.org/1999/xlink" version="1.1" viewBox="-10 0 1010 1000">
  <g transform="matrix(1 0 0 -1 0 800)">
   <path fill="currentColor"
d="M302 737c4 1 34 0 200 0h195c27 -5 44 -23 51 -48c10 -41 -20 -71 -51 -76h-194c-172 0 -196 -1 -201 0c-36 6 -70 54 -42 96c9 14 25 25 42 28zM302 174c19 3 35 -3 47 -11c2 -2 37 -36 77 -76l74 -74l74 75c47 47 76 75 78 76c56.3249 35.7182 124.424 -27.7623 88 -85
c-7 -12 -202 -203 -203 -204c-20 -17 -58 -15 -76 1c-43 43 -194 192 -201 203s-13 30 -8 48c7 25 24 42 50 47z" />
  </g>

</svg>
