<?xml version="1.0" standalone="no"?>
<!DOCTYPE svg PUBLIC "-//W3C//DTD SVG 1.1//EN" "http://www.w3.org/Graphics/SVG/1.1/DTD/svg11.dtd" >
<svg xmlns="http://www.w3.org/2000/svg" xmlns:xlink="http://www.w3.org/1999/xlink" version="1.1" viewBox="-10 0 1010 1000">
  <g transform="matrix(1 0 0 -1 0 800)">
   <path fill="currentColor"
d="M464 726c15 9 29 15 52 9c8 -2 15 -5 21 -10c1 -1 196 -192 203 -204c7 -11 13 -30 8 -48c-10 -41 -57 -63 -96 -37c-2 1 -31 29 -78 76l-74 75l-74 -74c-40 -40 -75 -74 -77 -76c-36 -28 -87 -5 -97 36c-5 18 1 38 8 49c4 7 199 201 204 204zM302 -13c4 1 34 0 200 0
h195c31 -5 61 -35 51 -76c-7 -25 -24 -43 -51 -48h-194c-172 0 -196 -1 -201 0c-31.2009 4.80013 -59.2402 37.4994 -50 76c7 25 24 43 50 48z" />
  </g>

</svg>
