<?xml version="1.0" standalone="no"?>
<!DOCTYPE svg PUBLIC "-//W3C//DTD SVG 1.1//EN" "http://www.w3.org/Graphics/SVG/1.1/DTD/svg11.dtd" >
<svg xmlns="http://www.w3.org/2000/svg" xmlns:xlink="http://www.w3.org/1999/xlink" version="1.1" viewBox="-10 0 1010 1000">
  <g transform="matrix(1 0 0 -1 0 800)">
   <path fill="currentColor"
d="M464 726c14.7495 9.21845 29.2658 14.6836 52 9c8 -2 15 -5 21 -10c0.896569 -0.597713 196.021 -192.369 203 -204c7.17594 -10.7639 12.5875 -29.6501 8 -48c-10.2727 -41.0906 -57.3531 -62.7646 -96 -37c-2 1 -31 29 -78 76l-74 75l-74 -74c-40 -40 -75 -74 -77 -76
c-36.0258 -28.0201 -87.4213 -5.05172 -97 36c-4.56953 18.2781 0.784753 38.1771 8 49c4.15741 6.92902 198.849 201.425 204 204zM302 -13c-25.6019 -4.51798 -42.8505 -22.9769 -50 -48c-6.36148 -25.4459 5.17576 -46.1758 17 -58c9 -9 20 -16 33 -18c5 -1 29 0 201 0
h194c27.0471 4.50784 44.4776 22.9976 51 48c10.3258 41.3033 -19.9215 70.8203 -51 76h-195c-166 0 -196 1 -200 0z" />
  </g>

</svg>
