<?xml version="1.0" standalone="no"?>
<!DOCTYPE svg PUBLIC "-//W3C//DTD SVG 1.1//EN" "http://www.w3.org/Graphics/SVG/1.1/DTD/svg11.dtd" >
<svg xmlns="http://www.w3.org/2000/svg" xmlns:xlink="http://www.w3.org/1999/xlink" version="1.1" viewBox="-10 0 1010 1000">
  <g transform="matrix(1 0 0 -1 0 800)">
   <path fill="currentColor"
d="M464 726c14.7495 9.21845 29.2658 14.6836 52 9c8 -2 15 -5 21 -10c0.896569 -0.597713 196.021 -192.369 203 -204c7.17594 -10.7639 12.5875 -29.6501 8 -48c-10.2727 -41.0906 -57.3531 -62.7646 -96 -37c-2 1 -31 29 -78 76l-74 75l-74 -74c-40 -40 -75 -74 -77 -76
c-36.0258 -28.0201 -87.4213 -5.05172 -97 36c-4.56953 18.2781 0.784753 38.1771 8 49c4.15741 6.92902 198.849 201.425 204 204zM302 174c-25.862 -4.56388 -42.7831 -21.7407 -50 -47c-4.574 -18.296 0.854014 -37.281 8 -48
c6.50645 -10.8441 158.285 -160.285 201 -203c18.2867 -15.6743 55.9481 -17.7099 76 -1c0.896569 0.597713 196.021 192.369 203 204c7.17594 10.7639 12.5875 29.6501 8 48c-10.2089 39.134 -55.0761 62.5775 -96 37c-2 -1 -31 -29 -78 -76l-74 -75l-74 74
c-40 40 -75 74 -77 76c-11.6351 7.75671 -27.611 13.7699 -47 11z" />
  </g>

</svg>
