<?xml version="1.0" standalone="no"?>
<!DOCTYPE svg PUBLIC "-//W3C//DTD SVG 1.1//EN" "http://www.w3.org/Graphics/SVG/1.1/DTD/svg11.dtd" >
<svg xmlns="http://www.w3.org/2000/svg" xmlns:xlink="http://www.w3.org/1999/xlink" version="1.1" viewBox="-10 0 1010 1000">
  <g transform="matrix(1 0 0 -1 0 800)">
   <path fill="currentColor"
d="M177 737c4 1 52 0 325 0h320c27 -4 47 -24 52 -49c1 -5 1 -16 1 -388s0 -383 -1 -388c-5 -25 -25 -45 -52 -49h-320c-284 0 -320 -1 -325 0c-25 4 -45 25 -51 49c-1 5 -1 16 -1 388s0 383 1 388c6 25 26 44 51 49zM250 612v-624h500v624h-500zM456 532c13 13 34 23 60 16
c22 -6 39 -23 45 -46c16 -66 -64 -100 -105 -59c-24 24 -24 65 0 89zM488 393c5 1 30 0 36 -1c82 -11 151 -72 162 -164c7 -59 -10 -102 -38 -136c-31 -39 -73 -65 -124 -72c-11 -2 -36 -2 -47 0c-91 15 -152 80 -163 165c-1 9 -1 34 0 43c11 82 72 156 165 164c4 0 8 1 9 1
zM492 268c-31 -5 -54 -27 -54 -62c0 -40 34 -71 78 -60c25 7 46 29 46 60c0 37 -28 61 -60 62h-10z" />
  </g>

</svg>
