<?xml version="1.0" standalone="no"?>
<!DOCTYPE svg PUBLIC "-//W3C//DTD SVG 1.1//EN" "http://www.w3.org/Graphics/SVG/1.1/DTD/svg11.dtd" >
<svg xmlns="http://www.w3.org/2000/svg" xmlns:xlink="http://www.w3.org/1999/xlink" version="1.1" viewBox="-10 0 1010 1000">
  <g transform="matrix(1 0 0 -1 0 800)">
   <path fill="currentColor"
d="M177 737c4 1 52 0 325 0h320c26.912 -4.48533 46.5624 -23.9869 52 -49c1 -5 1 -16 1 -388s0 -383 -1 -388c-5.43619 -25.0065 -25.102 -44.517 -52 -49h-320c-284 0 -320 -1 -325 0c-24.6383 3.79051 -45.108 25.432 -51 49c-1 5 -1 16 -1 388s0 383 1 388
c6 25 26 44 51 49zM250 612v-624h500v624h-500zM456 532c13.2988 13.2988 33.5807 22.6048 60 16c22 -6 39 -23 45 -46c16.4452 -65.7808 -64.1259 -99.8741 -105 -59c-24 24 -24 65 0 89zM488 393c5 1 30 0 36 -1c82.2752 -10.97 151.013 -72.4406 162 -164
c6.56174 -59.0557 -10.4905 -101.941 -38 -136c-31 -39 -73 -65 -124 -72c-11 -2 -36 -2 -47 0c-91.3623 14.618 -151.831 79.8388 -163 165c-1 9 -1 34 0 43c10.7582 82.0309 71.9475 155.908 165 164c4 0 8 1 9 1zM492 268c-30.9363 -5.15605 -54 -27.3697 -54 -62
c0 -40.0277 33.5554 -71.1112 78 -60c25.061 6.83483 46 28.5142 46 60c0 37.2901 -27.9945 60.8569 -60 62h-10z" />
  </g>

</svg>
