<?xml version="1.0" standalone="no"?>
<!DOCTYPE svg PUBLIC "-//W3C//DTD SVG 1.1//EN" "http://www.w3.org/Graphics/SVG/1.1/DTD/svg11.dtd" >
<svg xmlns="http://www.w3.org/2000/svg" xmlns:xlink="http://www.w3.org/1999/xlink" version="1.1" viewBox="-10 0 1010 1000">
  <g transform="matrix(1 0 0 -1 0 800)">
   <path fill="currentColor"
d="M243 529h349c9.27742 -3.09247 19.061 -5.70735 27 -11c9 -6 11 -9 47 -63l34 -51h223c37.5511 -3.75511 70.3399 -46.0601 50 -89c-1.42308 -4.26924 -31.8322 -49.2483 -137 -207c-25.0156 -36.1336 -68.9876 -66.6049 -116 -75c-18 -3 2 -3 -313 -3h-292
c-32.3079 5.38464 -58.1151 32.3096 -51 75c1 2 16 44 34 92c36 96 35 94 44 104c12.913 12.913 22.7663 19 48 19c13 0 13 1 14 2c0 1 17 56 25 84c0 1 -1 2 -5 4c-21 10 -35 30 -36 53c-2 33 22 62 55 66zM359 403c-1 -2 -25 -81 -25 -82s49 -1 59 0c8 1 17 3 24 5
c4 1 145 57 146 58c0 0 -2 4 -6 10l-7 10h-191v-1zM651 279c-34.9901 -4.99859 -35.52 -9.36078 -106 -37c-44 -17 -83 -33 -86 -34c-15 -5 -32 -9 -50 -11c-7 -1 -19 -1 -93 -1h-85c-9.60016 -22.6562 -16.4008 -45.63 -15 -41c0 0 106 -1 237 -1c230 0 237 1 243 2
c8 2 15 5 22 9c10 7 11 7 48 62c18 28 34 52 34 52c0 1 -15 0 -74 0h-75z" />
  </g>

</svg>
