<?xml version="1.0" standalone="no"?>
<!DOCTYPE svg PUBLIC "-//W3C//DTD SVG 1.1//EN" "http://www.w3.org/Graphics/SVG/1.1/DTD/svg11.dtd" >
<svg xmlns="http://www.w3.org/2000/svg" xmlns:xlink="http://www.w3.org/1999/xlink" version="1.1" viewBox="-10 0 1010 1000">
  <g transform="matrix(1 0 0 -1 0 800)">
   <path fill="currentColor"
d="M188 -76c0 13.25 28 251.75 28 265c0 3.70363 -144.095 202.19 -145 204c-23.0304 38.384 4.01133 85.0025 40 93c0.592873 0.197624 220.944 28 221 28c0 0 113.255 191.883 116 196c14.6106 18.2633 35.2864 33.1784 68 25c15 -4 28 -12 36 -25
c2.71512 -2.71512 116 -196 116 -196c2.71713 0 222.854 -28.9636 223 -29c35.1999 -7.99999 60.392 -54.6799 38 -92c-0.905003 -1.81001 -145 -200.296 -145 -204c0 -13.35 28 -240.3 28 -267c-2.52209 -35.3092 -35.7668 -71.0777 -81 -56c-2 1 -55 27 -117 58l-114 56
l-114 -57c-121 -60 -117 -59 -129 -60c-32.0729 -3.84874 -69 22.2265 -69 61zM462 488c-20 -35 -38 -65 -39 -67c-5 -8 -14 -17 -23 -21c-10 -5 -13 -5 -58 -11c-31.8764 -4.34678 -79.4982 -9.90887 -105 -13c0.539486 -0.745005 95.9531 -134.93 96 -135
c7 -10 10 -20 11 -32c0 -8.64667 -0.382189 -0.165121 -19 -176c0.000634521 0.000307647 139.56 68.2802 155 76c11 4 24 4 36 1c6 -1 14 -5 83 -39l76 -38c-18.6178 175.835 -19 167.353 -19 176c1 12 4 22 11 32c0.141191 0.211786 95.3867 134.147 96 135
c0.368006 0.512009 -133.717 15.6792 -151 20c-14 4 -27 13 -35 25c-0.371416 0.742832 -74.9389 126.939 -77 129c-1 1 -10 -14 -38 -62z" />
  </g>

</svg>
