<?xml version="1.0" standalone="no"?>
<!DOCTYPE svg PUBLIC "-//W3C//DTD SVG 1.1//EN" "http://www.w3.org/Graphics/SVG/1.1/DTD/svg11.dtd" >
<svg xmlns="http://www.w3.org/2000/svg" xmlns:xlink="http://www.w3.org/1999/xlink" version="1.1" viewBox="-10 0 1010 1000">
  <g transform="matrix(1 0 0 -1 0 800)">
   <path fill="currentColor"
d="M489 737c-17.6719 -3.92709 -30.7025 -14.1281 -41 -27c-2.74676 -4.12014 -116 -196 -116 -196c-0.0558095 0 -220.501 -27.8335 -221 -28c-37.04 -8.23112 -63.0508 -54.5821 -40 -93c0.905003 -1.81001 145 -200.296 145 -204c0 -13.25 -28 -251.75 -28 -265
c0 -38.7358 36.9325 -64.8481 69 -61c12 1 8 0 129 60l114 57l114 -56c62 -31 115 -57 117 -58c45.1677 -15.0559 78.4786 20.6998 81 56c0 26.7 -28 253.65 -28 267c0 3.70363 144.095 202.19 145 204c22.3278 37.2131 -2.77042 83.9933 -38 92
c-0.145642 0.0364105 -220.283 29 -223 29c0 0 -113.286 193.286 -116 196c-10.7324 17.4401 -34.914 31.0123 -63 27z" />
  </g>

</svg>
