<?xml version="1.0" standalone="no"?>
<!DOCTYPE svg PUBLIC "-//W3C//DTD SVG 1.1//EN" "http://www.w3.org/Graphics/SVG/1.1/DTD/svg11.dtd" >
<svg xmlns="http://www.w3.org/2000/svg" xmlns:xlink="http://www.w3.org/1999/xlink" version="1.1" viewBox="-10 0 1010 1000">
  <g transform="matrix(1 0 0 -1 0 800)">
   <path fill="currentColor"
d="M489 737c28 4 52 -10 63 -27c3 -3 116 -196 116 -196c3 0 223 -29 223 -29c35 -8 60 -55 38 -92c-1 -2 -145 -200 -145 -204c0 -13 28 -240 28 -267c-3 -35 -36 -71 -81 -56c-2 1 -55 27 -117 58l-114 56l-114 -57c-121 -60 -117 -59 -129 -60c-32 -4 -69 22 -69 61
c0 13 28 252 28 265c0 4 -144 202 -145 204c-23 38 3 85 40 93l221 28s113 192 116 196c10 13 23 23 41 27z" />
  </g>

</svg>
