<?xml version="1.0" standalone="no"?>
<!DOCTYPE svg PUBLIC "-//W3C//DTD SVG 1.1//EN" "http://www.w3.org/Graphics/SVG/1.1/DTD/svg11.dtd" >
<svg xmlns="http://www.w3.org/2000/svg" xmlns:xlink="http://www.w3.org/1999/xlink" version="1.1" viewBox="-10 0 1010 1000">
  <g transform="matrix(1 0 0 -1 0 800)">
   <path fill="currentColor"
d="M188 -76c0 13 28 252 28 265c0 4 -144 202 -145 204c-23 38 4 85 40 93c1 0 221 28 221 28s113 192 116 196c15 18 35 33 68 25c15 -4 28 -12 36 -25c3 -3 116 -196 116 -196c3 0 223 -29 223 -29c35 -8 60 -55 38 -92c-1 -2 -145 -200 -145 -204c0 -13 28 -240 28 -267
c-3 -35 -36 -71 -81 -56c-2 1 -55 27 -117 58l-114 56l-114 -57c-121 -60 -117 -59 -129 -60c-32 -4 -69 22 -69 61zM500 550c-3 3 -75 -126 -77 -129c-5 -8 -14 -17 -23 -21c-10 -5 -13 -5 -58 -11c-32 -4 -79 -10 -105 -13c1 -1 96 -135 96 -135c7 -10 10 -20 11 -32
c0 -9 -19 -176 -19 -176s140 68 155 76c11 4 24 4 36 1c6 -1 14 -5 83 -39l76 -38s-19 167 -19 176c1 12 4 22 11 32c0 0 95 134 96 135c0 1 -134 16 -151 20c-14 4 -27 13 -35 25c0 1 -75 127 -77 129z" />
  </g>

</svg>
