<?xml version="1.0" standalone="no"?>
<!DOCTYPE svg PUBLIC "-//W3C//DTD SVG 1.1//EN" "http://www.w3.org/Graphics/SVG/1.1/DTD/svg11.dtd" >
<svg xmlns="http://www.w3.org/2000/svg" xmlns:xlink="http://www.w3.org/1999/xlink" version="1.1" viewBox="-10 0 1010 1000">
  <g transform="matrix(1 0 0 -1 0 800)">
   <path fill="currentColor"
d="M625 738c0 39.4063 34.5886 70.8529 78 60c8 -2 16 -6 22 -11c3 -2 47 -46 102 -101c105 -105 101 -100 106 -112c3 -8 4 -14 4 -24s-1 -16 -4 -24c-5 -12 -1 -7 -106 -112c-55 -55 -99 -99 -102 -101c-39.4886 -27.642 -100 -6.1171 -100 49c0 10 2 17 5 25
c4 11 5 12 51 58l43 43h-146c-128 0 -146 -1 -151 0c-29.2486 4.49979 -60.0465 35.814 -50 76c5.86748 23.4699 25.5328 44.2358 50 48c5 1 23 0 151 0h146l-43 43c-46 46 -47 47 -51 58c-3 8 -5 15 -5 25zM302 299c-9 -2 -17 -5 -25 -10c-2 -1 -39 -38 -102 -101
c-107 -107 -103 -102 -108 -114c-3 -8 -4 -14 -4 -24s1 -16 4 -24c5 -12 1 -7 106 -112l100 -100c38.0042 -32.575 102 -4.14063 102 48c0 10 -2 17 -5 25c-4 11 -5 12 -51 58l-43 42l179 1h180c27.0471 4.50784 44.4776 22.9976 51 48
c10.3258 41.3033 -19.9215 70.8203 -51 76h-180l-179 1l43 42c36 36 43 43 46 48c30.4873 45.731 -9.66476 103.619 -63 96z" />
  </g>

</svg>
