<?xml version="1.0" standalone="no"?>
<!DOCTYPE svg PUBLIC "-//W3C//DTD SVG 1.1//EN" "http://www.w3.org/Graphics/SVG/1.1/DTD/svg11.dtd" >
<svg xmlns="http://www.w3.org/2000/svg" xmlns:xlink="http://www.w3.org/1999/xlink" version="1.1" viewBox="-10 0 1010 1000">
  <g transform="matrix(1 0 0 -1 0 800)">
   <path fill="currentColor"
d="M199 701c28.1495 -5.9262 47.7201 -27.2011 51 -60v-2c18.0572 12.898 35.8207 27.0571 57 40c75.5122 46.4691 183.742 72.9061 295 50c113 -24 208 -96 263 -197c22.9548 -42.0839 2.52884 -98 -53 -98c-33.1239 0 -45.9149 16.699 -59 41c-13 23 -29 44 -48 63
c-50 48 -116 74 -187 74c-61 0 -123 -20 -173 -57c-25.057 -18.5204 -45.6061 -43.8081 -63 -67l49 -1h50c29.4814 -4.91356 52 -26.6123 52 -62c0 -35.5687 -21.6539 -56.9423 -52 -62h-99c-87 0 -100 -1 -105 0c-24.6383 3.79051 -45.108 25.432 -51 49c-1 5 -1 9 -1 120
v116c3.49462 10.4839 7.22085 22.865 14 31c9 11 22 19 37 22c2 0 8 1 12 1s9 -1 11 -1zM655 237c-2 0 -6 -1 -8 -2c-23.2665 -6.46292 -44 -29.1507 -44 -60c0 -33.118 21.4753 -52.4918 47 -61c6 -2 6 -1 37 -1l31 -1c-39.1111 -62.5778 -117.317 -111.753 -201 -122
c-111.833 -13.6685 -221.813 43.9809 -270 135c-7 12 -10 18 -15 23c-24 24 -64 24 -88 0c-39.5912 -39.5912 -12.2497 -79.7063 17 -121c87 -122 235 -183 386 -159c77.6972 12.4315 151.705 47.87 210 99c18.3699 -36.7398 77.0592 -47.0072 106 -8c6 8 10 19 11 29
c1 4 1 32 1 101v96l-2 5c-6.47558 24.823 -25.0005 42.6668 -51 47h-81c-64 0 -83 1 -86 0z" />
  </g>

</svg>
