<?xml version="1.0" standalone="no"?>
<!DOCTYPE svg PUBLIC "-//W3C//DTD SVG 1.1//EN" "http://www.w3.org/Graphics/SVG/1.1/DTD/svg11.dtd" >
<svg xmlns="http://www.w3.org/2000/svg" xmlns:xlink="http://www.w3.org/1999/xlink" version="1.1" viewBox="-10 0 1010 1000">
  <g transform="matrix(1 0 0 -1 0 800)">
   <path fill="currentColor"
d="M199 701c28 -6 48 -27 51 -60v-2c18 13 36 27 57 40c76 46 184 73 295 50c113 -24 208 -96 263 -197c23 -42 3 -98 -53 -98c-33 0 -46 17 -59 41c-13 23 -29 44 -48 63c-50 48 -116 74 -187 74c-61 0 -123 -20 -173 -57c-25 -19 -46 -44 -63 -67l49 -1h50
c29 -5 52 -27 52 -62c0 -36 -22 -57 -52 -62h-99c-87 0 -100 -1 -105 0c-25 4 -45 25 -51 49c-1 5 -1 9 -1 120v116c3 10 7 23 14 31c9 11 22 19 37 22c2 0 8 1 12 1s9 -1 11 -1zM655 237c3 1 22 0 86 0h81c26 -4 45 -22 51 -47l2 -5v-96c0 -69 0 -97 -1 -101
c-1 -10 -5 -21 -11 -29c-29 -39 -88 -29 -106 8c-58 -51 -132 -87 -210 -99c-151 -24 -299 37 -386 159c-29 41 -57 81 -17 121c24 24 64 24 88 0c5 -5 8 -11 15 -23c48 -91 158 -149 270 -135c84 10 162 59 201 122l-31 1c-31 0 -31 -1 -37 1c-26 9 -47 28 -47 61
c0 31 21 54 44 60c2 1 6 2 8 2z" />
  </g>

</svg>
