<?xml version="1.0" standalone="no"?>
<!DOCTYPE svg PUBLIC "-//W3C//DTD SVG 1.1//EN" "http://www.w3.org/Graphics/SVG/1.1/DTD/svg11.dtd" >
<svg xmlns="http://www.w3.org/2000/svg" xmlns:xlink="http://www.w3.org/1999/xlink" version="1.1" viewBox="-10 0 1010 1000">
  <g transform="matrix(1 0 0 -1 0 800)">
   <path fill="currentColor"
d="M177 737c4 1 52 0 325 0h320c27 -4 47 -24 52 -49c1 -5 1 -16 1 -388s0 -383 -1 -388c-5 -25 -25 -45 -52 -49h-320c-284 0 -320 -1 -325 0c-25 4 -45 25 -51 49c-1 5 -1 16 -1 388s0 383 1 388c6 25 26 44 51 49zM250 612v-624h500v624h-500zM450 192c26 18 64 19 94 3
c25 -13 42 -36 48 -64c10 -51 -23 -100 -74 -110s-100 22 -110 73c-8 38 9 77 42 98zM492 143c-18 -6 -33 -33 -14 -52c14 -14 41 -11 50 7c11 24 -12 52 -36 45z" />
  </g>

</svg>
