<?xml version="1.0" standalone="no"?>
<!DOCTYPE svg PUBLIC "-//W3C//DTD SVG 1.1//EN" "http://www.w3.org/Graphics/SVG/1.1/DTD/svg11.dtd" >
<svg xmlns="http://www.w3.org/2000/svg" xmlns:xlink="http://www.w3.org/1999/xlink" version="1.1" viewBox="-10 0 1010 1000">
  <g transform="matrix(1 0 0 -1 0 800)">
   <path fill="currentColor"
d="M362 675c-64.2392 -4.94147 -109.683 -43.928 -132 -96c-10 -24 -13 -57 -9 -75c12.8485 -53.2296 83.9628 -63.8757 113 -19c6 10 9 19 10 33c1.74603 20.9524 8.98233 32 31 32c16 0 26 -7 30 -22c1 -5 1 -7 1 -64v-60h-41c-44 0 -43 0 -52 -3
c-59.8421 -19.9474 -52.9332 -108.613 9 -121h42l42 -1v-76c0 -83 0 -78 4 -96c7 -33 23 -64 46 -89c66 -72 173 -82 250 -24c23.0748 17.5808 42.4275 40.855 55 66c37.7239 18.862 67.8092 72.3816 41 126c-23 46 -79 64 -125 41
c-45.263 -22.0512 -63.4043 -75.39 -43 -123l2 -5l-1 -2c-12.9201 -11.3051 -32.2027 -19.9493 -56 -14c-24.1275 5.56789 -41.9111 25.5556 -47 51l-1 73v72h30c26 0 30 1 35 2c30.982 6.19639 58.4369 36.9709 47 77c-7.1311 26.1474 -25.2328 37.4109 -51 46h-61v128
c-6.88055 77.0621 -64.6183 143 -153 143h-16z" />
  </g>

</svg>
