<?xml version="1.0" standalone="no"?>
<!DOCTYPE svg PUBLIC "-//W3C//DTD SVG 1.1//EN" "http://www.w3.org/Graphics/SVG/1.1/DTD/svg11.dtd" >
<svg xmlns="http://www.w3.org/2000/svg" xmlns:xlink="http://www.w3.org/1999/xlink" version="1.1" viewBox="-10 0 1010 1000">
  <g transform="matrix(1 0 0 -1 0 800)">
   <path fill="currentColor"
d="M362 675h16c88 0 146 -66 153 -143v-128h61c26 -9 44 -20 51 -46c11 -40 -16 -71 -47 -77c-5 -1 -9 -2 -35 -2h-30v-72l1 -73c5 -25 23 -45 47 -51s43 3 56 14l1 2c-20 50 -8 104 41 128c46 23 102 5 125 -41c27 -54 -3 -107 -41 -126c-13 -25 -32 -48 -55 -66
c-77 -58 -184 -48 -250 24c-23 25 -39 56 -46 89c-4 18 -4 13 -4 96v76l-42 1h-42c-62 12 -69 101 -9 121c9 3 8 3 52 3h41v60c0 57 0 59 -1 64c-4 15 -14 22 -30 22c-22 0 -29 -11 -31 -32c-1 -14 -4 -23 -10 -33c-29 -45 -100 -34 -113 19c-4 18 -1 51 9 75
c22 52 68 91 132 96z" />
  </g>

</svg>
