<?xml version="1.0" standalone="no"?>
<!DOCTYPE svg PUBLIC "-//W3C//DTD SVG 1.1//EN" "http://www.w3.org/Graphics/SVG/1.1/DTD/svg11.dtd" >
<svg xmlns="http://www.w3.org/2000/svg" xmlns:xlink="http://www.w3.org/1999/xlink" version="1.1" viewBox="-10 0 1010 1000">
  <g transform="matrix(1 0 0 -1 0 800)">
   <path fill="currentColor"
d="M476 737c102 6 204 -25 285 -86c48 -36 89 -81 119 -133c66 -114 75 -255 27 -378c-33 -84 -90 -154 -160 -201c-86 -58 -188 -84 -291 -74c-89 9 -174 45 -242 104c-102 84 -163 234 -149 375c21 210 195 382 411 393zM430 605c-114 -27 -210 -117 -236 -240v-2l17 -1
c42 0 70 -21 70 -62s-28 -62 -70 -62l-17 -1v-2c1 -7 6 -23 9 -33c30 -94 108 -169 199 -199c10 -3 26 -8 33 -9h2l1 17c0 15 0 18 1 22c8 29 34 49 64 48c28 -1 51 -21 58 -48c1 -4 1 -7 1 -22l1 -17h2c7 1 23 6 33 9c90 31 170 103 199 201c2 7 8 26 9 31v3h-15
c-29 0 -40 4 -54 18c-11 11 -18 23 -18 44s7 33 18 44c14 14 25 18 54 18h15v3c-1 7 -6 23 -9 33c-31 94 -105 168 -199 199c-10 3 -26 8 -33 9h-2l-1 -17c0 -15 0 -18 -1 -22c-6 -23 -23 -40 -45 -46c-34 -9 -68 12 -77 46c-1 4 -1 7 -1 22c0 10 -1 17 -1 17s-3 0 -7 -1z
M488 487c5 1 30 0 36 -1c83 -11 151 -73 162 -165c5 -46 -6 -83 -22 -112c-23 -41 -61 -72 -105 -87c-59 -20 -125 -8 -174 30c-40 31 -64 75 -71 127c-1 9 -1 33 0 42c11 82 72 157 165 165c4 0 8 1 9 1zM492 362c-31 -5 -54 -27 -54 -62c0 -40 33 -71 78 -60
c29 8 54 36 44 76c-7 27 -30 45 -58 46h-10z" />
  </g>

</svg>
