<?xml version="1.0" standalone="no"?>
<!DOCTYPE svg PUBLIC "-//W3C//DTD SVG 1.1//EN" "http://www.w3.org/Graphics/SVG/1.1/DTD/svg11.dtd" >
<svg xmlns="http://www.w3.org/2000/svg" xmlns:xlink="http://www.w3.org/1999/xlink" version="1.1" viewBox="-10 0 1010 1000">
  <g transform="matrix(1 0 0 -1 0 800)">
   <path fill="currentColor"
d="M476 737c102 6 204 -25 285 -86c48 -36 89 -81 119 -133c66 -114 75 -255 27 -378c-33.1228 -83.9112 -89.8359 -153.592 -160 -201c-86 -58 -188 -84 -291 -74c-89 9 -174 45 -242 104c-102.104 83.5396 -162.888 233.809 -149 375c9 92 47 179 109 248
c72.3508 80.3898 185.342 138.987 302 145zM430 605c-114.212 -26.8048 -209.631 -116.946 -236 -240v-2l17 -1c41.9494 0 70 -20.6805 70 -62c0 -41.3104 -28.3314 -62 -70 -62l-17 -1v-2c1 -7 6 -23 9 -33c30.4188 -93.7914 108.241 -169.297 199 -199c10 -3 26 -8 33 -9
h2l1 17c0 15 0 18 1 22c8 29 34 49 64 48c28 -1 51 -21 58 -48c1 -4 1 -7 1 -22l1 -17h2c7 1 23 6 33 9c90.3831 30.552 169.637 103.125 199 201c2 7 8 26 9 31v3h-15c-29.375 0 -40.4186 4.41856 -54 18c-10.8933 10.8933 -18 22.8521 -18 44
c0 21.2304 7.07345 33.0735 18 44c13.5547 13.5547 24.6772 18 54 18h15v3c-1 7 -6 23 -9 33c-31 94 -105 168 -199 199c-10 3 -26 8 -33 9h-2l-1 -17c0 -15 0 -18 -1 -22c-6 -23 -23 -40 -45 -46c-34 -9 -68 12 -77 46c-1 4 -1 7 -1 22c0 10 -1 17 -1 17s-3 0 -7 -1z
M488 487c5 1 30 0 36 -1c82.9246 -11.0566 150.927 -72.7249 162 -165c5.10989 -45.989 -5.84438 -82.6261 -22 -112c-23 -41 -61 -72 -105 -87c-59 -20 -125 -8 -174 30c-40 31 -64 75 -71 127c-1 9 -1 33 0 42c10.7993 82.3447 71.593 156.878 165 165c4 0 8 1 9 1z
M492 362c-30.9363 -5.15605 -54 -27.3697 -54 -62c0 -40.2982 33.4612 -71.1347 78 -60c29.0037 7.91009 54.0591 35.7636 44 76c-7 27 -30 45 -58 46h-10z" />
  </g>

</svg>
