<?xml version="1.0" standalone="no"?>
<!DOCTYPE svg PUBLIC "-//W3C//DTD SVG 1.1//EN" "http://www.w3.org/Graphics/SVG/1.1/DTD/svg11.dtd" >
<svg xmlns="http://www.w3.org/2000/svg" xmlns:xlink="http://www.w3.org/1999/xlink" version="1.1" viewBox="-10 0 1010 1000">
  <g transform="matrix(1 0 0 -1 0 800)">
   <path fill="currentColor"
d="M260 709c15 23 46 38 79 23c3 -1 2 -2 161 -106c105 67 152 101 160 105c55 29 115 -37 80 -90c-7 -11 -8 -11 -70 -53l-57 -38h272c26 -9 45 -22 51 -49c1 -5 1 -15 1 -295s0 -289 -1 -294c-5 -25 -24 -45 -51 -49h-383c-339 0 -382 -1 -387 0c-26 4 -45 24 -51 49
c-1 5 -1 14 -1 294s0 290 1 295c5 23 22 41 46 47l5 2h272l-57 38c-62 41 -63 42 -70 53c-12 17 -13 49 0 68zM188 425v-437h624v437h-624z" />
  </g>

</svg>
