<?xml version="1.0" standalone="no"?>
<!DOCTYPE svg PUBLIC "-//W3C//DTD SVG 1.1//EN" "http://www.w3.org/Graphics/SVG/1.1/DTD/svg11.dtd" >
<svg xmlns="http://www.w3.org/2000/svg" xmlns:xlink="http://www.w3.org/1999/xlink" version="1.1" viewBox="-10 0 1010 1000">
  <g transform="matrix(1 0 0 -1 0 800)">
   <path fill="currentColor"
d="M476 737c102 6 204 -25 285 -86c48 -36 89 -81 119 -133c66 -114 75 -255 27 -378c-33.1228 -83.9112 -89.8359 -153.592 -160 -201c-86 -58 -188 -84 -291 -74c-89 9 -174 45 -242 104c-102.104 83.5396 -162.888 233.809 -149 375c9 92 47 179 109 248
c72.3508 80.3898 185.342 138.987 302 145zM483 612c-79 -5 -150 -36 -205 -92c-83 -83 -111 -207 -74 -319c24 -72 74 -134 140 -172s143 -50 218 -35c101.357 20.0356 190.883 92.8954 229 192c41 104 23 222 -47 309c-60 75 -151 118 -246 117h-15zM489 549
c-25 -5 -44 -23 -50 -48c-1 -5 -1 -10 -1 -107c0 -114 -1 -105 4 -117s4 -10 75 -82l69 -69c50.6964 -43.454 131.512 22.2324 91 83c-3 5 -11 13 -59 61l-55 56l-1 86c0 86 0 85 -1 90c-7.58702 29.0836 -32.8175 52.5975 -72 47z" />
  </g>

</svg>
