<?xml version="1.0" standalone="no"?>
<!DOCTYPE svg PUBLIC "-//W3C//DTD SVG 1.1//EN" "http://www.w3.org/Graphics/SVG/1.1/DTD/svg11.dtd" >
<svg xmlns="http://www.w3.org/2000/svg" xmlns:xlink="http://www.w3.org/1999/xlink" version="1.1" viewBox="-10 0 1010 1000">
  <g transform="matrix(1 0 0 -1 0 800)">
   <path fill="currentColor"
d="M476 737c102 6 204 -25 285 -86c48 -36 89 -81 119 -133c66 -114 75 -255 27 -378c-33 -84 -90 -154 -160 -201c-86 -58 -188 -84 -291 -74c-89 9 -174 45 -242 104c-102 84 -163 234 -149 375c20.549 210.056 195.029 381.925 411 393zM483 612
c-79 -5 -150 -36 -205 -92c-83 -83 -111 -207 -74 -319c24 -72 74 -134 140 -172s143 -50 218 -35c101 20 191 93 229 192c41 104 23 222 -47 309c-60 75 -151 118 -246 117h-15zM489 549c39 6 64 -18 72 -47c1 -5 1 -4 1 -90l1 -86l55 -56c48 -48 56 -56 59 -61
c41 -61 -40 -126 -91 -83l-69 69c-71 72 -70 70 -75 82s-4 3 -4 117c0 97 0 102 1 107c6 25 25 43 50 48z" />
  </g>

</svg>
