<?xml version="1.0" standalone="no"?>
<!DOCTYPE svg PUBLIC "-//W3C//DTD SVG 1.1//EN" "http://www.w3.org/Graphics/SVG/1.1/DTD/svg11.dtd" >
<svg xmlns="http://www.w3.org/2000/svg" xmlns:xlink="http://www.w3.org/1999/xlink" version="1.1" viewBox="-10 0 1010 1000">
  <g transform="matrix(1 0 0 -1 0 800)">
   <path fill="currentColor"
d="M364 737c4 1 26 0 138 0h133c26 -4 45 -22 51 -47c1 -5 1 -6 1 -73l1 -67h197c26 -9 44 -21 51 -48c10 -40 -19 -68 -45 -75c-6 -2 -7 -2 -29 -2c-17 0 -22 0 -22 -1c0 0 -1 -15 -2 -33c-3 -54 -11 -194 -18 -323c-8 -156 -8 -152 -9 -158c-5 -24 -24 -43 -51 -47h-258
c-228 0 -257 -1 -262 0c-25 4 -45 24 -51 47c-1 6 -2 8 -9 146c-6 103 -15 289 -18 335c-1 18 -2 32 -2 33s-3 1 -20 1c-32 0 -43 2 -59 18c-12 12 -23 33 -17 59c6 24 25 43 51 47c5 1 18 1 101 1h96l1 67c0 67 0 68 1 73c7 25 26 43 50 47zM438 612v-62h124v62h-124z
M285 421c1 -8 12 -215 19 -344c2 -45 5 -84 5 -86v-3h382v3c0 2 3 48 6 103c8 148 17 319 18 327v4h-430v-4zM345 345c7 30 36 57 77 47c23 -6 40 -24 45 -47c1 -5 1 -11 1 -139s0 -133 -1 -138c-6 -28 -30 -48 -58 -49c-30 -2 -57 19 -64 49c-1 5 -1 10 -1 138s0 134 1 139
zM583 393c40 6 66 -19 72 -48c1 -5 1 -11 1 -139s0 -133 -1 -138c-6 -28 -30 -48 -58 -49c-30 -2 -57 19 -64 49c-1 5 -1 10 -1 138s0 134 1 139c6 25 25 43 50 48z" />
  </g>

</svg>
