<?xml version="1.0" standalone="no"?>
<!DOCTYPE svg PUBLIC "-//W3C//DTD SVG 1.1//EN" "http://www.w3.org/Graphics/SVG/1.1/DTD/svg11.dtd" >
<svg xmlns="http://www.w3.org/2000/svg" xmlns:xlink="http://www.w3.org/1999/xlink" version="1.1" viewBox="-10 0 1010 1000">
  <g transform="matrix(1 0 0 -1 0 800)">
   <path fill="currentColor"
d="M364 737c4 1 26 0 138 0h133c26.0143 -4.33571 44.5231 -22.1721 51 -47c1 -5 1 -6 1 -73l1 -67h197c25.9421 -8.64736 43.8666 -20.6553 51 -48c10.0013 -40.0054 -18.5201 -67.7782 -45 -75c-6 -2 -7 -2 -29 -2c-17 0 -22 0 -22 -1c0 0 -1 -15 -2 -33
c-3 -54 -11 -194 -18 -323c-8 -156 -8 -152 -9 -158c-5.43942 -23.9334 -24.1995 -42.5333 -51 -47h-258c-228 0 -257 -1 -262 0c-24.6735 3.79592 -44.7648 24.1375 -51 47c-1 6 -2 8 -9 146c-6 103 -15 289 -18 335c-1 18 -2 32 -2 33s-3 1 -20 1
c-31.8089 0 -43.0927 2.09268 -59 18c-12.0137 12.0137 -23.4889 33.0445 -17 59c6.0896 24.3584 25.4417 43.068 51 47c5 1 18 1 101 1h96l1 67c0 67 0 68 1 73c7 25 26 43 50 47zM438 612v-62h124v62h-124zM285 421c1 -8 12 -215 19 -344c2 -45 5 -84 5 -86v-3h382v3
c0 2 3 48 6 103c8 148 17 319 18 327v4h-430v-4zM345 345c7.18713 29.9464 35.9287 57.2678 77 47c23 -6 40 -24 45 -47c1 -5 1 -11 1 -139s0 -133 -1 -138c-6 -28 -30 -48 -58 -49c-30 -2 -57 19 -64 49c-1 5 -1 10 -1 138s0 134 1 139zM583 393c-25 -5 -44 -23 -50 -48
c-1 -5 -1 -11 -1 -139s0 -133 1 -138c7 -30 34 -51 64 -49c28 1 52 21 58 49c1 5 1 10 1 138s0 134 -1 139c-6.35702 29.2423 -32.2598 53.6772 -72 48z" />
  </g>

</svg>
