<?xml version="1.0" standalone="no"?>
<!DOCTYPE svg PUBLIC "-//W3C//DTD SVG 1.1//EN" "http://www.w3.org/Graphics/SVG/1.1/DTD/svg11.dtd" >
<svg xmlns="http://www.w3.org/2000/svg" xmlns:xlink="http://www.w3.org/1999/xlink" version="1.1" viewBox="-10 0 1010 1000">
  <g transform="matrix(1 0 0 -1 0 800)">
   <path fill="currentColor"
d="M270 612c-24.6628 -4.35226 -43.1443 -24.0051 -50 -48c-9.85757 -39.4303 19.4245 -71.1422 51 -76c5 -1 17 0 86 0h81l-1 -66v-65l-73 -30c-40 -17 -76 -32 -79 -33c-20.09 -11.48 -41.9125 -35.3501 -33 -71c7 -30 33 -50 63 -48c4 0 9 1 12 2c4 1 65 26 108 44l3 1
l-1 -11v-10l-73 -31c-40 -17 -76 -32 -79 -33c-20.2401 -11.5658 -42.0161 -33.9357 -33 -70c7 -30 33 -49 63 -48c4 0 9 1 13 2s26 10 58 23l51 21l1 -43c0 -42 0 -44 1 -49c16.6829 -62.561 106.254 -62.9853 122 0c1 5 1 6 1 75l1 70l74 31c41 17 76 32 79 33
c20.2567 10.1284 40.4675 36.1298 32 70c-7.35649 28.1999 -34.488 56.128 -75 46c-20.82 -6.94 -108.273 -44 -109 -44l-2 -1l1 11v10l74 31c41 17 76 32 79 33c20.2567 10.1284 40.4675 36.1298 32 70c-6 23 -23 40 -45 46c-8 2 -22 3 -30 1c0 0 -107.806 -45 -109 -45
l-2 -1v78l83 1h83c30.6211 4.37445 53 27.1309 53 62c0 34.9712 -22.3996 57.6285 -53 62h-226c-192 0 -228 1 -232 0z" />
  </g>

</svg>
