<?xml version="1.0" standalone="no"?>
<!DOCTYPE svg PUBLIC "-//W3C//DTD SVG 1.1//EN" "http://www.w3.org/Graphics/SVG/1.1/DTD/svg11.dtd" >
<svg xmlns="http://www.w3.org/2000/svg" xmlns:xlink="http://www.w3.org/1999/xlink" version="1.1" viewBox="-10 0 1010 1000">
  <g transform="matrix(1 0 0 -1 0 800)">
   <path fill="currentColor"
d="M270 612c4 1 40 0 232 0h226c31 -4 53 -27 53 -62s-22 -58 -53 -62h-83l-83 -1v-78l2 1c1 0 109 45 109 45c8 2 22 1 30 -1c22 -6 39 -23 45 -46c8 -34 -12 -60 -32 -70c-3 -1 -38 -16 -79 -33l-74 -31v-10l-1 -11l2 1c1 0 88 37 109 44c41 10 68 -18 75 -46
c8 -34 -12 -60 -32 -70c-3 -1 -38 -16 -79 -33l-74 -31l-1 -70c0 -69 0 -70 -1 -75c-16 -63 -105 -63 -122 0c-1 5 -1 7 -1 49l-1 43l-51 -21c-32 -13 -54 -22 -58 -23s-9 -2 -13 -2c-30 -1 -56 18 -63 48c-9 36 13 58 33 70c3 1 39 16 79 33l73 31v10l1 11l-3 -1
c-43 -18 -104 -43 -108 -44c-3 -1 -8 -2 -12 -2c-30 -2 -56 18 -63 48c-9 36 13 60 33 71c3 1 39 16 79 33l73 30v65l1 66h-81c-69 0 -81 -1 -86 0c-32 5 -61 37 -51 76c7 24 25 44 50 48z" />
  </g>

</svg>
