<?xml version="1.0" standalone="no"?>
<!DOCTYPE svg PUBLIC "-//W3C//DTD SVG 1.1//EN" "http://www.w3.org/Graphics/SVG/1.1/DTD/svg11.dtd" >
<svg xmlns="http://www.w3.org/2000/svg" xmlns:xlink="http://www.w3.org/1999/xlink" version="1.1" viewBox="-10 0 1010 1000">
  <g transform="matrix(1 0 0 -1 0 800)">
   <path fill="currentColor"
d="M400 737c37 5 64 -19 71 -47c2 -7 2 -23 0 -30c-4 -15 -7 -20 -26 -39l-16 -16h49c49 0 51 0 72 -3c167 -21 289 -149 318 -296c21 -104 -5 -212 -69 -296c-63 -82 -156 -134 -258 -145c-45 -5 -99 -2 -147 9c-111 25 -208 92 -253 184c-12 25 -17 40 -16 54
c1 28 20 49 48 57c39 11 65 -14 75 -42c3 -9 10 -22 16 -32c38 -59 112 -98 202 -106c16 -2 49 -2 62 0c121 16 203 102 219 210c10 68 -10 137 -54 191c-34 42 -87 74 -145 86c-20 4 -22 4 -72 4h-47l15 -15c8 -8 17 -16 18 -18c3 -5 7 -16 9 -22c8 -32 -8 -55 -26 -67
c-22 -14 -51 -14 -72 2c-4 3 -113 110 -138 136c-17 17 -29 45 -14 74c10 18 60 63 152 155c8 6 17 10 27 12z" />
  </g>

</svg>
