<?xml version="1.0" standalone="no"?>
<!DOCTYPE svg PUBLIC "-//W3C//DTD SVG 1.1//EN" "http://www.w3.org/Graphics/SVG/1.1/DTD/svg11.dtd" >
<svg xmlns="http://www.w3.org/2000/svg" xmlns:xlink="http://www.w3.org/1999/xlink" version="1.1" viewBox="-10 0 1010 1000">
  <g transform="matrix(1 0 0 -1 0 800)">
   <path fill="currentColor"
d="M400 737c-10 -2 -19 -6 -27 -12c-92.1 -92.1 -142.212 -137.382 -152 -155c-14.5998 -29.1995 -3.12646 -56.8735 14 -74c25 -26 134 -133 138 -136c21 -16 50 -16 72 -2c17.7018 12.2551 33.9126 35.3498 26 67c-2 6 -6 17 -9 22c-1 2 -10 10 -18 18l-15 15h47
c50 0 52 0 72 -4c57.6134 -11.5227 111.127 -43.6589 145 -86c44 -54 64 -123 54 -191c-16.2108 -108.072 -98.3884 -194.437 -219 -210c-13 -2 -46 -2 -62 0c-89.8363 8.35687 -163.58 47.4548 -202 106c-6 10 -13 23 -16 32c-9.68903 27.856 -35.637 53.2466 -75 42
c-28 -8 -47 -29 -48 -57c-1 -14 4 -29 16 -54c44.8577 -91.9583 141.645 -158.855 253 -184c48 -11 102 -14 147 -9c102 11 195 63 258 145c64 84 90 192 69 296c-29.3649 146.824 -150.51 275.064 -318 296c-21 3 -23 3 -72 3h-49l16 16c19 19 22 24 26 39c2 7 2 23 0 30
c-7.29119 27.9496 -34.0803 52.2742 -71 47z" />
  </g>

</svg>
