<?xml version="1.0" standalone="no"?>
<!DOCTYPE svg PUBLIC "-//W3C//DTD SVG 1.1//EN" "http://www.w3.org/Graphics/SVG/1.1/DTD/svg11.dtd" >
<svg xmlns="http://www.w3.org/2000/svg" xmlns:xlink="http://www.w3.org/1999/xlink" version="1.1" viewBox="-10 0 1010 1000">
  <g transform="matrix(1 0 0 -1 0 800)">
   <path fill="currentColor"
d="M306 731c43.7388 18.0101 81.707 -8.53518 89 -45v-50c0 -48 0 -51 -1 -57c-7 -33 -36 -57 -77 -47c-25 7 -43 27 -46 53c-1 7 -1 89 0 97c2 22 15 39 35 49zM630 689c129 34 238 -46 263 -159c14 -69 -9 -134 -42 -174c-7 -9 -190 -192 -199 -199
c-32 -25 -64 -39 -104 -45c-11 -2 -43 -2 -54 0c-45 7 -83 25 -115 55c-17 16 -24 25 -24 52c0 42 43 67 77 58c11 -3 19 -8 28 -16c30 -27 72 -36 108 -11c7 4 182 180 188 188c11 15 22 39 15 66c-8 37 -41 68 -83 68c-35 0 -47 -11 -70 -34c-18 -18 -23 -22 -34 -26
c-52 -21 -100 35 -79 83c4 10 7 13 26 32c10 10 21 21 25 24c21 17 49 31 74 38zM118 529h99c26 -9 43 -20 51 -46c10 -41 -14 -70 -47 -77c-6 -1 -9 -1 -57 -1h-50c-30 6 -49 30 -51 58c-2 33 22 62 55 66zM463 489h19c14 0 19 0 26 -1c43 -7 82 -26 113 -55
c15 -15 24 -26 24 -52c0 -34 -28 -60 -61 -60c-18 0 -35 8 -44 17c-12 16 -44 32 -74 26c-12 -2 -24 -7 -34 -14c-7 -4 -182 -180 -188 -188c-11 -15 -22 -38 -15 -64c7 -37 37 -70 83 -70c35 0 47 11 70 34c16 16 22 20 30 24c51 23 105 -30 83 -81c-4 -10 -6 -13 -26 -33
c-12 -12 -22 -20 -27 -24c-14 -10 -29 -21 -43 -27c-46 -21 -98 -24 -147 -9c-68 20 -122 74 -141 143c-22 75 4 146 38 189c7 9 190 192 199 199c3 3 10 7 14 10c28 19 60 31 93 35c3 0 7 1 8 1zM780 195c3 1 14 0 55 0h51c26 -5 43 -23 50 -48c2 -6 2 -22 0 -28
c-7 -24 -25 -42 -49 -47c-5 -1 -9 -1 -55 -1h-49c-26 9 -44 20 -51 46c-13 42 19 71 48 78zM655 70c3 1 6 0 13 0c34 0 58 -26 61 -55c1 -7 1 -89 0 -97c-4 -38 -41 -62 -78 -53c-24 6 -41 24 -46 49v50c0 52 -1 54 2 63c7 21 25 38 48 43z" />
  </g>

</svg>
