<?xml version="1.0" standalone="no"?>
<!DOCTYPE svg PUBLIC "-//W3C//DTD SVG 1.1//EN" "http://www.w3.org/Graphics/SVG/1.1/DTD/svg11.dtd" >
<svg xmlns="http://www.w3.org/2000/svg" xmlns:xlink="http://www.w3.org/1999/xlink" version="1.1" viewBox="-10 0 1010 1000">
  <g transform="matrix(1 0 0 -1 0 800)">
   <path fill="currentColor"
d="M306 731c17.0723 6.8289 37.1035 10.3072 56 0c16.3665 -8.72882 28.9861 -24.9307 33 -45v-50c0 -48 0 -51 -1 -57c-6.78551 -32.5705 -36.1896 -57.2026 -77 -47c-25 7 -43 27 -46 53c-1 7 -1 89 0 97c2 22 15 39 35 49zM630 689
c128.85 34.3599 237.979 -46.4043 263 -159c14.0759 -68.6201 -9.13466 -133.55 -42 -174c-7 -9 -190 -192 -199 -199c-32 -25 -64 -39 -104 -45c-11 -2 -43 -2 -54 0c-45 7 -83 25 -115 55c-17.1345 15.7066 -24 24.6277 -24 52c0 42.0403 42.5495 66.6126 77 58
c11 -3 19 -8 28 -16c30.1758 -26.9994 72.1975 -35.6142 108 -11c7 4 182 180 188 188c10.613 15.1614 21.7386 39.0457 15 66c-8.19653 36.8844 -41.1977 68 -83 68c-35.1198 0 -47.3406 -11.3406 -70 -34c-18 -18 -23 -22 -34 -26
c-51.8099 -20.7239 -99.7486 35.2783 -79 83c4 10 7 13 26 32c10 10 21 21 25 24c21 17 49 31 74 38zM118 529h99c25.9902 -8.66341 42.6721 -19.8267 51 -46c10.185 -40.74 -14.4229 -70.2131 -47 -77c-6 -1 -9 -1 -57 -1h-50c-30.1145 6.0229 -48.901 29.6631 -51 58
c-2 33 22 62 55 66zM463 489h19c14 0 19 0 26 -1c43 -7 82 -26 113 -55c14.7669 -14.7669 24 -26.3187 24 -52c0 -33.6738 -28.3532 -60 -61 -60c-18.2904 0 -34.8009 7.80086 -44 17c-12.2798 16.3731 -44.0404 31.9919 -74 26c-12 -2 -24 -7 -34 -14
c-7 -4 -182 -180 -188 -188c-10.7242 -15.3203 -21.6079 -37.5684 -15 -64c7.04723 -36.6456 37.0194 -70 83 -70c34.9842 0 47.069 11.069 70 34c16 16 22 20 30 24c50.7042 23.2394 105.095 -30.1822 83 -81c-4 -10 -6 -13 -26 -33c-12 -12 -22 -20 -27 -24
c-14 -10 -29 -21 -43 -27c-46 -21 -98 -24 -147 -9c-67.8606 19.7927 -121.784 74.3721 -141 143c-21.7455 75.1209 3.51298 146.398 38 189c7 9 190 192 199 199c3 3 10 7 14 10c28 19 60 31 93 35c3 0 7 1 8 1zM780 195c3 1 14 0 55 0h51
c26.4068 -5.28136 43.4611 -23.479 50 -48c2 -6 2 -22 0 -28c-7 -24 -25 -42 -49 -47c-5 -1 -9 -1 -55 -1h-49c-25.765 8.58833 -43.8628 19.8304 -51 46c-12.5668 41.8892 19.3744 71.4942 48 78zM655 70c-23 -5 -41 -22 -48 -43c-3 -9 -2 -11 -2 -63v-50
c5.0426 -25.213 22.2379 -42.5194 46 -49c37 -9 74 15 78 53c1 8 1 90 0 97c-3.33749 28.9249 -26.5635 55 -61 55c-7 0 -10 1 -13 0z" />
  </g>

</svg>
