<?xml version="1.0" standalone="no"?>
<!DOCTYPE svg PUBLIC "-//W3C//DTD SVG 1.1//EN" "http://www.w3.org/Graphics/SVG/1.1/DTD/svg11.dtd" >
<svg xmlns="http://www.w3.org/2000/svg" xmlns:xlink="http://www.w3.org/1999/xlink" version="1.1" viewBox="-10 0 1010 1000">
  <g transform="matrix(1 0 0 -1 0 800)">
   <path fill="currentColor"
d="M464 726c14.7495 9.21845 29.2658 14.6836 52 9c8 -2 15 -5 21 -10c0.896569 -0.597713 196.021 -192.369 203 -204c7.17594 -10.7639 12.5875 -29.6501 8 -48c-10.2727 -41.0906 -57.3531 -62.7646 -96 -37c-2 1 -21 19 -47 45l-42 43l-1 -179v-180
c-6.1938 -30.969 -29.5563 -50.9484 -59 -52c-31.9346 -1.06449 -58.3952 18.9762 -65 52v180l-1 179l-42 -42c-23 -23 -44 -43 -46 -45c-36.0258 -28.0201 -87.4213 -5.05172 -97 36c-4.56953 18.2781 0.784753 38.1771 8 49c4.15741 6.92902 198.849 201.425 204 204z
M114 112c-25 -5 -44 -24 -50 -49c-1 -5 -1 -8 -1 -75s0 -71 1 -76c6.14342 -24.5737 25.3196 -45.0492 51 -49c5 -1 48 0 387 0h383c26.9752 4.49587 45.5523 23.9407 51 49c1 5 1 9 1 76s0 70 -1 75c-13.5264 63.1231 -105.337 64.4868 -122 2c-1 -5 -1 -7 -1 -41l-1 -36
h-624l-1 36c0 34 0 36 -1 41c-7.39638 28.3528 -34.4383 52.366 -72 47z" />
  </g>

</svg>
