<?xml version="1.0" standalone="no"?>
<!DOCTYPE svg PUBLIC "-//W3C//DTD SVG 1.1//EN" "http://www.w3.org/Graphics/SVG/1.1/DTD/svg11.dtd" >
<svg xmlns="http://www.w3.org/2000/svg" xmlns:xlink="http://www.w3.org/1999/xlink" version="1.1" viewBox="-10 0 1010 1000">
  <g transform="matrix(1 0 0 -1 0 800)">
   <path fill="currentColor"
d="M464 726c15 9 29 15 52 9c8 -2 15 -5 21 -10c1 -1 196 -192 203 -204c7 -11 13 -30 8 -48c-10 -41 -57 -63 -96 -37c-2 1 -21 19 -47 45l-42 43l-1 -179v-180c-13 -69 -110 -68 -124 0v180l-1 179l-42 -42c-23 -23 -44 -43 -46 -45c-36 -28 -87 -5 -97 36
c-5 18 1 38 8 49c4 7 199 201 204 204zM114 112c38 5 65 -19 72 -47c1 -5 1 -7 1 -41l1 -36h624l1 36c0 34 0 36 1 41c17 62 108 61 122 -2c1 -5 1 -8 1 -75s0 -71 -1 -76c-5 -25 -24 -45 -51 -49h-383c-339 0 -382 -1 -387 0c-26 4 -45 24 -51 49c-1 5 -1 9 -1 76
s0 70 1 75c6 25 25 44 50 49z" />
  </g>

</svg>
