<?xml version="1.0" standalone="no"?>
<!DOCTYPE svg PUBLIC "-//W3C//DTD SVG 1.1//EN" "http://www.w3.org/Graphics/SVG/1.1/DTD/svg11.dtd" >
<svg xmlns="http://www.w3.org/2000/svg" xmlns:xlink="http://www.w3.org/1999/xlink" version="1.1" viewBox="-10 0 1010 1000">
  <g transform="matrix(1 0 0 -1 0 800)">
   <path fill="currentColor"
d="M488 675c5 1 30 -1 36 -2c82.2752 -10.97 151.013 -72.4406 162 -164c5.16095 -46.4486 -5.71802 -83.3964 -22 -113c-23 -41 -61 -71 -105 -86c-59 -20 -125 -9 -174 29c-40 31 -64 75 -71 127c-1 9 -1 34 0 43c8 61 41 112 94 142c20 12 48 21 71 23c4 0 8 1 9 1z
M492 550c-30.5893 -5.09821 -54 -27.9515 -54 -62c0 -32.6171 21.3084 -53.9932 47 -61c40.2669 -10.0667 67.9362 16.4328 76 46c2 8 1 22 -1 30c-7 27 -30 46 -58 47h-10zM362 237c-83.6749 -6.74797 -160.25 -68.917 -172 -159c-2 -14 -2 -21 -2 -92c0 -70 0 -71 1 -76
c16.4027 -61.51 106.529 -61.8847 122 0c1 5 1 7 1 78l1 72c4.62484 27.7491 24.2575 47.3762 52 52h270c27.7491 -4.62484 47.3762 -24.2575 52 -52l1 -72c0 -71 0 -73 1 -78c16.6293 -62.3598 108.445 -61.2589 122 2c1 5 1 9 1 79c0 80 1 78 -3 96
c-15 73 -74 132 -147 147c-18 4 -8 3 -159 3h-141z" />
  </g>

</svg>
