<?xml version="1.0" standalone="no"?>
<!DOCTYPE svg PUBLIC "-//W3C//DTD SVG 1.1//EN" "http://www.w3.org/Graphics/SVG/1.1/DTD/svg11.dtd" >
<svg xmlns="http://www.w3.org/2000/svg" xmlns:xlink="http://www.w3.org/1999/xlink" version="1.1" viewBox="-10 0 1010 1000">
  <g transform="matrix(1 0 0 -1 0 800)">
   <path fill="currentColor"
d="M362 675c5 1 31 -1 37 -2c82 -11 151 -72 162 -164c5 -46 -6 -83 -22 -113c-23 -41 -61 -71 -105 -86c-59 -20 -125 -9 -174 29c-40 31 -64 75 -71 127c-1 9 -1 34 0 43c8 61 41 112 94 142c20 12 48 21 71 23c4 0 7 1 8 1zM625 612c0 35 24 57 52 62c9 2 30 0 47 -3
c78 -14 140 -81 150 -162c5 -47 -5 -84 -23 -113c-33 -58 -91 -94 -157 -96c-38 -2 -69 23 -69 62c0 38 26 60 63 63c35 2 62 25 62 63s-26 59 -62 62s-63 25 -63 62zM368 550c-31 -5 -55 -27 -55 -62c0 -33 21 -54 47 -61c40 -10 68 16 76 46c2 8 1 22 -1 30
c-7 27 -30 46 -58 47h-9zM237 237h141c151 0 141 1 159 -3c73 -15 132 -74 147 -147c4 -18 3 -16 3 -96c0 -70 0 -74 -1 -79c-14 -63 -105 -64 -122 -2c-1 5 -1 7 -1 78l-1 72c-5 28 -24 47 -52 52h-270c-28 -5 -47 -24 -52 -52l-1 -72c0 -71 0 -73 -1 -78
c-15 -62 -106 -62 -122 0c-1 5 -1 6 -1 76c0 71 0 78 2 92c12 90 88 152 172 159zM739 237c6 1 75 1 85 0c60 -6 107 -54 113 -114v-208c-13.3136 -68.7869 -109.637 -67.7091 -124 0v99l-1 98h-33c-36 0 -40 1 -49 4c-23 9 -42 27 -42 59c0 34 24 57 51 62z" />
  </g>

</svg>
