<?xml version="1.0" standalone="no"?>
<!DOCTYPE svg PUBLIC "-//W3C//DTD SVG 1.1//EN" "http://www.w3.org/Graphics/SVG/1.1/DTD/svg11.dtd" >
<svg xmlns="http://www.w3.org/2000/svg" xmlns:xlink="http://www.w3.org/1999/xlink" version="1.1" viewBox="-10 0 1010 1000">
  <g transform="matrix(1 0 0 -1 0 800)">
   <path fill="currentColor"
d="M362 675c5 1 31 -1 37 -2c82.2752 -10.97 151.013 -72.4406 162 -164c5.16095 -46.4486 -5.71802 -83.3964 -22 -113c-23 -41 -61 -71 -105 -86c-59 -20 -125 -9 -174 29c-40 31 -64 75 -71 127c-1 9 -1 34 0 43c8 61 41 112 94 142c20 12 48 21 71 23c4 0 7 1 8 1z
M625 612c0 34.66 23.6151 56.9909 52 62c9 2 30 0 47 -3c77.8199 -14.3352 139.822 -80.5747 150 -162c5.19599 -46.764 -5.40434 -83.6739 -23 -113c-33 -58 -91 -94 -157 -96c-37.6751 -2.21618 -69 23.442 -69 62c0 38.1826 26.2246 59.6568 63 63
c35.1985 1.85255 62 25.0135 62 63c0 37.7631 -26.3432 58.7585 -62 62c-36.217 3.29246 -63 24.8042 -63 62zM368 550c-31.2482 -5.20803 -55 -27.2655 -55 -62c0 -32.6171 21.3084 -53.9932 47 -61c40.2669 -10.0667 67.9362 16.4328 76 46c2 8 1 22 -1 30
c-7 27 -30 46 -58 47h-9zM237 237h141c151 0 141 1 159 -3c73 -15 132 -74 147 -147c4 -18 3 -16 3 -96c0 -70 0 -74 -1 -79c-13.5264 -63.1231 -105.337 -64.4868 -122 -2c-1 5 -1 7 -1 78l-1 72c-4.62484 27.7491 -24.2575 47.3762 -52 52h-270
c-27.7491 -4.62484 -47.3762 -24.2575 -52 -52l-1 -72c0 -71 0 -73 -1 -78c-15.4465 -61.786 -105.571 -61.61 -122 0c-1 5 -1 6 -1 76c0 71 0 78 2 92c11.7427 90.0271 88.357 152.255 172 159zM739 237c-27.2531 -4.80938 -51 -28.3986 -51 -62
c0 -32.2429 18.7358 -49.6943 42 -59c9 -3 13 -4 49 -4h33l1 -98v-99c6.60482 -33.0241 33.062 -53.0646 65 -52c29.4451 1.05161 52.8062 21.031 59 52v208c-5.76379 59.5592 -53.154 107.588 -113 114c-10 1 -79 1 -85 0z" />
  </g>

</svg>
