<?xml version="1.0" standalone="no"?>
<!DOCTYPE svg PUBLIC "-//W3C//DTD SVG 1.1//EN" "http://www.w3.org/Graphics/SVG/1.1/DTD/svg11.dtd" >
<svg xmlns="http://www.w3.org/2000/svg" xmlns:xlink="http://www.w3.org/1999/xlink" version="1.1" viewBox="-10 0 1010 1000">
  <g transform="matrix(1 0 0 -1 0 800)">
   <path fill="currentColor"
d="M488 675c5 1 30 -1 36 -2c82 -11 151 -72 162 -164c5 -46 -6 -83 -22 -113c-23 -41 -61 -71 -105 -86c-59 -20 -125 -9 -174 29c-40 31 -64 75 -71 127c-1 9 -1 34 0 43c8 61 41 112 94 142c20 12 48 21 71 23c4 0 8 1 9 1zM492 550c-31 -5 -54 -28 -54 -62
c0 -33 21 -54 47 -61c40 -10 68 16 76 46c2 8 1 22 -1 30c-7 27 -30 46 -58 47h-10zM362 237h141c151 0 141 1 159 -3c73 -15 132 -74 147 -147c4 -18 3 -16 3 -96c0 -70 0 -74 -1 -79c-14 -63 -105 -64 -122 -2c-1 5 -1 7 -1 78l-1 72c-5 28 -24 47 -52 52h-270
c-28 -5 -47 -24 -52 -52l-1 -72c0 -71 0 -73 -1 -78c-15 -62 -106 -62 -122 0c-1 5 -1 6 -1 76c0 71 0 78 2 92c12 90 88 152 172 159z" />
  </g>

</svg>
