<?xml version="1.0" standalone="no"?>
<!DOCTYPE svg PUBLIC "-//W3C//DTD SVG 1.1//EN" "http://www.w3.org/Graphics/SVG/1.1/DTD/svg11.dtd" >
<svg xmlns="http://www.w3.org/2000/svg" xmlns:xlink="http://www.w3.org/1999/xlink" version="1.1" viewBox="-10 0 1010 1000">
  <g transform="matrix(1 0 0 -1 0 800)">
   <path fill="currentColor"
d="M484 737c6 1 39 0 47 -1c144.78 -15.7942 246.902 -119.669 274 -244c13 -60 9 -122 -13 -179l-5 -11l63 -108c34 -60 63 -110 64 -112c4 -11 10 -27 5 -43c-7 -26 -28 -44 -54 -47c-11 -2 -105 7 -117 7h-2l-7 -14c-24 -50 -44 -89 -47 -93c-17 -23 -55 -35 -86 -14
c-5 3 -12 12 -16 17c-2 2 0 1 -90 154c-89 -152 -88 -152 -90 -154c-20 -34 -75 -39 -102 -3c-3 4 -24 47 -47 94l-7 13h-7c-4 0 -14 -1 -22 -2c-79 -5 -84 -6 -90 -5c-30 4 -55 27 -55 63c0 14 1 17 5 26c1 2 31 53 65 113l63 108l-4 8c-42 106 -22 227 51 315
c53 64 130 104 212 111c5 0 10 1 12 1zM587 591c-118 61 -244 -14 -269 -123c-25 -108 50 -225 176 -230c82 -3 156 49 183 126c30 88 -7 184 -90 227zM274 158c-11 -18 -19 -33 -19 -33s9 0 19 1c50 2 64 -12 80 -47c5 -9 9 -17 9 -17l38 66l-10 4c-37 14 -68 34 -98 59z
M706 190c-1 -1 -20 -16 -27 -21c-24 -17 -52 -29 -80 -41l39 -66c1 3 17 36 19 38c19 27 44 27 88 25c0 0 -37 65 -38 65h-1z" />
  </g>

</svg>
