<?xml version="1.0" standalone="no"?>
<!DOCTYPE svg PUBLIC "-//W3C//DTD SVG 1.1//EN" "http://www.w3.org/Graphics/SVG/1.1/DTD/svg11.dtd" >
<svg xmlns="http://www.w3.org/2000/svg" xmlns:xlink="http://www.w3.org/1999/xlink" version="1.1" viewBox="-10 0 1010 1000">
  <g transform="matrix(1 0 0 -1 0 800)">
   <path fill="currentColor"
d="M471 612c129 6 243 -28 328 -96c55 -44 99 -103 125 -168c11 -28 15 -43 13 -56c-2 -14 -12 -42 -25 -68c-69 -139 -212 -236 -412 -236c-138 0 -253 44 -336 129c-42 43 -76 96 -95 151c-9 27 -9 38 2 69c61 161 210 266 400 275zM623 470c-101 31 -238 18 -311 -28
c-44 -27 -80 -62 -105 -108c-7 -12 -16 -32 -16 -34c0 -1 4 -10 9 -20c36 -71 97 -126 178 -151c73 -23 170 -23 243 0c87 26 151 85 185 164c1 3 3 6 3 7s-4 10 -9 20c-35 71 -97 125 -177 150zM487 424c36 4 73 -8 99 -33c19 -18 31 -41 36 -65c14 -62 -19 -108 -56 -132
c-37 -23 -82 -25 -121 -6c-62 30 -87 105 -57 167c17 35 54 65 99 69z" />
  </g>

</svg>
