<?xml version="1.0" standalone="no"?>
<!DOCTYPE svg PUBLIC "-//W3C//DTD SVG 1.1//EN" "http://www.w3.org/Graphics/SVG/1.1/DTD/svg11.dtd" >
<svg xmlns="http://www.w3.org/2000/svg" xmlns:xlink="http://www.w3.org/1999/xlink" version="1.1" viewBox="-10 0 1010 1000">
  <g transform="matrix(1 0 0 -1 0 800)">
   <path fill="currentColor"
d="M471 612c129 6 243 -28 328 -96c55 -44 99 -103 125 -168c11 -28 15 -43 13 -56c-2 -14 -12 -42 -25 -68c-68.539 -139.155 -212.133 -236 -412 -236c-138 0 -253 44 -336 129c-42 43 -76 96 -95 151c-9 27 -9 38 2 69c61.4605 160.743 209.621 265.934 400 275zM623 470
c-100.55 31.1226 -237.909 17.6817 -311 -28c-44.3094 -26.8542 -79.5675 -62.2215 -105 -108c-7 -12 -16 -32 -16 -34c0 -1 4 -10 9 -20c35.6999 -71.3999 97.486 -125.575 178 -151c73 -23 170 -23 243 0c86.8007 26.0402 150.608 85.0251 185 164c1 3 3 6 3 7
s-4 10 -9 20c-35.2811 70.5621 -96.5064 124.581 -177 150zM487 424c-45.2167 -3.93188 -82.4579 -33.8481 -99 -69c-30 -62 -5 -137 57 -167c39 -19 84 -17 121 6c37.111 23.8571 69.7889 69.9499 56 132c-5 24 -17 47 -36 65c-26 25 -63 37 -99 33z" />
  </g>

</svg>
