<?xml version="1.0" standalone="no"?>
<!DOCTYPE svg PUBLIC "-//W3C//DTD SVG 1.1//EN" "http://www.w3.org/Graphics/SVG/1.1/DTD/svg11.dtd" >
<svg xmlns="http://www.w3.org/2000/svg" xmlns:xlink="http://www.w3.org/1999/xlink" version="1.1" viewBox="-10 0 1010 1000">
  <g transform="matrix(1 0 0 -1 0 800)">
   <path fill="currentColor"
d="M425 737c8 1 141 1 149 0c51.6882 -4.56072 97.2284 -42.9707 109 -93c4 -15 4 -14 4 -61l1 -44c27.5566 -11.0226 55.9618 -28.7353 76 -51c27 -30 42 -64 47 -104c1 -10 1 -158 0 -168c-8.57113 -70.2832 -56.7211 -130.94 -118 -153l-5 -2l-1 -44c0 -47 0 -46 -4 -61
c-12.5165 -46.9367 -53.0944 -87.4094 -109 -93c-9 -1 -139 -1 -148 0c-51.9119 4.58046 -96.3237 42.2946 -109 93c-4 15 -4 14 -4 61l-1 44c-62.4922 20.8307 -108.732 75.616 -121 139c-4 18 -3 16 -3 100c0 82 0 81 3 98c11.6709 63.5416 57.9315 119.977 121 141l1 44
c0 44 0 45 3 57c10.8597 49.9545 55.6537 91.2843 109 97zM438 612v-62h124v62h-124zM687 372c-4.52438 28.7102 -25.4321 46.3531 -52 53h-267c-27.1337 -3.87624 -46.6365 -21.5461 -53 -47l-2 -6v-144c4.62866 -28.3998 26.8124 -46.1771 53 -53h269
c26.5114 6.20725 47.5308 24.7343 52 53v144zM438 19v-31h124v62h-124v-31z" />
  </g>

</svg>
