<?xml version="1.0" standalone="no"?>
<!DOCTYPE svg PUBLIC "-//W3C//DTD SVG 1.1//EN" "http://www.w3.org/Graphics/SVG/1.1/DTD/svg11.dtd" >
<svg xmlns="http://www.w3.org/2000/svg" xmlns:xlink="http://www.w3.org/1999/xlink" version="1.1" viewBox="-10 0 1010 1000">
  <g transform="matrix(1 0 0 -1 0 800)">
   <path fill="currentColor"
d="M467 611c15 1 66 0 81 -1c102 -8 194 -35 282 -83c29 -16 80 -49 89 -58c11.8521 -11.8521 23.375 -32.4999 17 -58c-9.08525 -36.341 -49.8766 -61.5617 -89 -42c-2 1 -13 9 -24 16c-77.2316 51.4877 -171.893 90.2623 -273 99c-118 11 -237 -16 -339 -77
c-22.4639 -11.2319 -52.682 -44 -83 -44c-34.7761 -1.1592 -75.8351 28.6594 -64 76c2 7 5 14 9 20c6 10 10 14 35 30c99.2704 66.1803 221.066 114.74 359 122zM253 206c-34.161 -1.1387 -65 22.5997 -65 63c0 23.5972 9.49702 37.1976 23 48c4 3 59 38 71 45
c57.6754 32.5348 114.158 52.2339 192 58h29c91.2722 0 156.652 -25.9921 219 -60c17 -10 63 -40 67 -43c14.7974 -11.8379 29.2912 -33.8353 22 -63c-8.72194 -33.4341 -48.4389 -62.8406 -89 -41c-2 1 -16 9 -31 19c-57.0352 36.2952 -94.1043 56.5328 -167 62
c-10 1 -38 1 -48 0c-74.7678 -6.23065 -105.763 -24.177 -165 -61c-16 -10 -31 -20 -34 -21c-7 -3 -16 -6 -24 -6zM347 50c-33.5345 -1.11782 -65 22.2819 -65 62c0 16.9133 3.15385 24.7308 10 35c6 10 10 12 44 35c36 24 39 26 52 32c28 14 57 23 87 26c4 0 9 1 10 1h19
c74.3338 0 111.93 -27.2485 161 -59c33 -22 36 -25 43 -35c6.82292 -10.2344 10 -18.1386 10 -35c0 -48.7324 -48.027 -75.4865 -89 -55c-2 1 -18 11 -34 22c-33 22 -43 27 -56 31c-31 10 -64 8 -94 -6c-17.93 -8.965 -71.7261 -54 -98 -54zM489 49
c-27.5139 -4.85539 -51 -27.0741 -51 -61c0 -45.538 41.9109 -71.582 81 -60c40 13 56 59 33 94c-14 20 -39 31 -63 27z" />
  </g>

</svg>
