<?xml version="1.0" standalone="no"?>
<!DOCTYPE svg PUBLIC "-//W3C//DTD SVG 1.1//EN" "http://www.w3.org/Graphics/SVG/1.1/DTD/svg11.dtd" >
<svg xmlns="http://www.w3.org/2000/svg" xmlns:xlink="http://www.w3.org/1999/xlink" version="1.1" viewBox="-10 0 1010 1000">
  <g transform="matrix(1 0 0 -1 0 800)">
   <path fill="currentColor"
d="M141 735c8 -2 15 -5 21 -10c4 -2 756 -751 765 -766c7 -10 10 -18 10 -34c0 -53 -57 -79 -98 -51c-2 1 -35 34 -90 89l-87 87h-6c-9 0 -19 3 -27 7c-2 1 -18 11 -34 22c-33 22 -43 27 -56 31c-26 8 -52 8 -78 0c-14 -5 -21 -9 -55 -31c-17 -11 -33 -22 -36 -23
c-7 -3 -15 -6 -23 -6c-35 -1 -76 29 -64 77c2 7 5 14 9 20c6 10 10 12 44 35s35 24 45 29c25 14 56 24 84 28c3 0 6 1 6 1s-10 11 -23 24l-24 23l-2 -1c-1 -1 -8 -3 -17 -6c-47 -16 -47 -18 -94 -47c-16 -10 -31 -20 -34 -21c-7 -3 -16 -6 -24 -6c-35 -1 -76 29 -64 77
c3 14 12 26 22 34c25 19 83 54 116 68c-18 18 -36 35 -54 53c-1 0 -23 -10 -32 -15c-21 -11 -36 -20 -63 -38c-21 -14 -26 -22 -50 -22c-35 -1 -76 29 -64 76c2 7 5 14 9 20c6 10 10 14 35 30c32 21 48 31 71 43l-51 52c-44 45 -52 52 -55 57c-32 48 13 108 68 94zM438 551
c0 31 24 53 50 59c9 2 38 1 68 -1c108 -9 212 -42 304 -99c5 -3 20 -13 32 -21c25 -16 29 -20 35 -30c7 -10 10 -18 10 -34c0 -33 -21 -53 -46 -60c-31 -8 -45 5 -67 19c-76 52 -170 90 -270 100c-13 1 -25 1 -44 2c-45 0 -72 22 -72 65zM658 254c-45 39 -14 121 56 107
c6 -2 9 -2 13 -4c5 -3 58 -37 62 -40c13 -11 23 -25 23 -48c0 -47 -44 -77 -89 -56c-7 3 -61 37 -65 41zM438 -12c0 65 81 81 114 34c23 -35 7 -81 -33 -94c-39 -12 -81 14 -81 60z" />
  </g>

</svg>
