<?xml version="1.0" standalone="no"?>
<!DOCTYPE svg PUBLIC "-//W3C//DTD SVG 1.1//EN" "http://www.w3.org/Graphics/SVG/1.1/DTD/svg11.dtd" >
<svg xmlns="http://www.w3.org/2000/svg" xmlns:xlink="http://www.w3.org/1999/xlink" version="1.1" viewBox="-10 0 1010 1000">
  <g transform="matrix(1 0 0 -1 0 800)">
   <path fill="currentColor"
d="M141 735c8 -2 15 -5 21 -10c3.65769 -2.43846 755.892 -750.819 765 -766c6.63016 -9.94524 10 -17.7625 10 -34c0 -52.9614 -56.5999 -78.6001 -98 -51c-2 1 -35 34 -90 89l-87 87h-6c-9 0 -19 3 -27 7c-2 1 -18 11 -34 22c-33 22 -43 27 -56 31c-26 8 -52 8 -78 0
c-14 -5 -21 -9 -55 -31c-17 -11 -33 -22 -36 -23c-7 -3 -15 -6 -23 -6c-35.2322 -1.17441 -75.986 29.0561 -64 77c2 7 5 14 9 20c6 10 10 12 44 35s35 24 45 29c25 14 56 24 84 28c3 0 6 1 6 1s-10 11 -23 24l-24 23l-2 -1c-1 -1 -8 -3 -17 -6
c-46.6906 -15.5635 -46.9092 -17.7713 -94 -47c-16 -10 -31 -20 -34 -21c-7 -3 -16 -6 -24 -6c-35.2322 -1.17441 -75.986 29.0561 -64 77c3 14 12 26 22 34c24.9246 18.6934 83.0209 53.8661 116 68c-18.1772 17.504 -36.1611 35.1611 -54 53c-1 0 -23 -10 -32 -15
c-21 -11 -36 -20 -63 -38c-21.3692 -14.2461 -25.9728 -22 -50 -22c-34.7761 -1.1592 -75.8351 28.6594 -64 76c2 7 5 14 9 20c6 10 10 14 35 30c32.0499 20.9982 47.5221 31.261 71 43l-51 52c-44 45 -52 52 -55 57c-32.0124 48.0186 12.5572 107.861 68 94zM438 551
c0 31.1065 24.2394 53.4799 50 59c9 2 38 1 68 -1c108 -9 212 -42 304 -99c5 -3 20 -13 32 -21c25 -16 29 -20 35 -30c6.63016 -9.94524 10 -17.7625 10 -34c0 -32.752 -20.9969 -53.181 -46 -60c-31.4705 -8.39214 -44.5234 4.69674 -67 19
c-75.8716 51.7307 -169.59 89.8319 -270 100c-13 1 -25 1 -44 2c-45.3463 0 -72 21.8816 -72 65zM658 254c-45.0833 39.4478 -14.4828 121.097 56 107c6 -2 9 -2 13 -4c5 -3 58 -37 62 -40c13.4595 -10.7676 23 -24.5062 23 -48c0 -47.1523 -44.2645 -76.6472 -89 -56
c-7 3 -61 37 -65 41zM489 49c-27.5139 -4.85539 -51 -27.0741 -51 -61c0 -45.538 41.9109 -71.582 81 -60c40 13 56 59 33 94c-14 20 -39 31 -63 27z" />
  </g>

</svg>
