<?xml version="1.0" standalone="no"?>
<!DOCTYPE svg PUBLIC "-//W3C//DTD SVG 1.1//EN" "http://www.w3.org/Graphics/SVG/1.1/DTD/svg11.dtd" >
<svg xmlns="http://www.w3.org/2000/svg" xmlns:xlink="http://www.w3.org/1999/xlink" version="1.1" viewBox="-10 0 1010 1000">
  <g transform="matrix(1 0 0 -1 0 800)">
   <path fill="currentColor"
d="M347 50c-34 -1 -65 22 -65 62c0 17 3 25 10 35c6 10 10 12 44 35c36 24 39 26 52 32c28 14 57 23 87 26c4 0 9 1 10 1h19c74 0 112 -27 161 -59c33 -22 36 -25 43 -35s10 -18 10 -35c0 -49 -48 -75 -89 -55c-2 1 -18 11 -34 22c-33 22 -43 27 -56 31c-31 10 -64 8 -94 -6
c-18 -9 -72 -54 -98 -54zM438 -12c0 64.7142 80.9471 81.2184 114 34c23 -35 7 -81 -33 -94c-39 -12 -81 14 -81 60z" />
  </g>

</svg>
