<?xml version="1.0" standalone="no"?>
<!DOCTYPE svg PUBLIC "-//W3C//DTD SVG 1.1//EN" "http://www.w3.org/Graphics/SVG/1.1/DTD/svg11.dtd" >
<svg xmlns="http://www.w3.org/2000/svg" xmlns:xlink="http://www.w3.org/1999/xlink" version="1.1" viewBox="-10 0 1010 1000">
  <g transform="matrix(1 0 0 -1 0 800)">
   <path fill="currentColor"
d="M456 733c21.3341 3.87893 46.688 6.10092 74 4c119.204 -7.33563 223.511 -86.2658 280 -171c36 -54 57 -111 64 -173c1 -10 1 -22 1 -243c0 -225 0 -233 -1 -238c-5.43619 -25.0065 -25.102 -44.517 -52 -49h-320c-284 0 -320 -1 -325 0
c-24.6383 3.79051 -45.108 25.432 -51 49c-1 5 -1 13 -1 237c0 246 0 236 3 256c22.6408 164.146 180.885 303.481 328 328zM562 605v-305h188v36c0 38 0 46 -3 62c-15 84 -80 165 -159 198c-8 3 -19 8 -23 9h-3zM429 596c-37 -15 -70 -37 -99 -66c-41 -41 -69 -92 -77 -139
c-2 -14 -3 -20 -3 -56v-35h188v149c0 119 0 150 -1 150c0 0 -4 -2 -8 -3zM250 175v-187h188v187h-188zM562 81v-93h188v187h-188v-94z" />
  </g>

</svg>
