<svg width="16" height="16" viewBox="0 0 16 16" fill="none" xmlns="http://www.w3.org/2000/svg">
<path d="M2.5 4L4.83 11.572C4.86322 11.6885 4.93286 11.7912 5.02873 11.8652C5.1246 11.9392 5.24165 11.9805 5.36272 11.9831C5.48379 11.9857 5.60252 11.9495 5.70149 11.8797C5.80045 11.8099 5.87447 11.7102 5.91267 11.5953L8 5L10.0873 11.5953C10.1255 11.7102 10.1995 11.8099 10.2985 11.8797C10.3975 11.9495 10.5162 11.9857 10.6373 11.9831C10.7583 11.9805 10.8754 11.9392 10.9713 11.8652C11.0671 11.7912 11.1368 11.6885 11.17 11.572L13.5 4M14 6.5H2M14 9.5H2" stroke="#24282B" stroke-width="2" stroke-linecap="round" stroke-linejoin="round"/>
</svg>
