<?xml version="1.0" standalone="no"?>
<!DOCTYPE svg PUBLIC "-//W3C//DTD SVG 1.1//EN" "http://www.w3.org/Graphics/SVG/1.1/DTD/svg11.dtd" >
<svg xmlns="http://www.w3.org/2000/svg" xmlns:xlink="http://www.w3.org/1999/xlink" version="1.1" viewBox="-10 0 1010 1000">
  <g transform="matrix(1 0 0 -1 0 800)">
   <path fill="currentColor"
d="M937 206c0 -38 -24 -53 -52 -62h-101l-14 -46c-15 -50 -17 -55 -25 -66c-16 -25 -44 -43 -81 -43c-47 0 -76 26 -90 60c-1 3 -9 25 -17 50l-14 44h-86l-15 -44c-15 -46 -16 -52 -20 -59c-14 -26 -38 -43 -67 -49c-52 -13 -93 19 -109 57c-2 4 -8 26 -16 51l-14 45h-48
c-51 0 -54 0 -63 3c-23 9 -42 27 -42 59c0 34 20 54 47 61c5 1 7 2 36 2h31l-9 31l-10 31h-21c-23 0 -27 1 -36 5c-23 10 -46 35 -37 72c7 24 26 42 50 47c3 0 5 2 5 2s-5 18 -12 39s-11 41 -12 44c-7 46 30 82 77 70c19 -5 35 -18 42 -35c1 -2 9 -30 19 -61l17 -57h175
l8 25c10 30 10 33 15 40c25 38 80 36 104 -1c5 -7 6 -9 15 -39l8 -25h175l17 57c10 31 18 59 19 61c11 24 42 44 74 35c27 -7 50 -33 45 -70c-1 -2 -24 -83 -24 -84h2c4 0 14 -3 19 -6c21 -10 43 -36 34 -71c-6 -23 -23 -40 -45 -46c-6 -2 -7 -2 -28 -2h-21l-10 -31l-9 -31
h31l31 -1c30 -5 52 -27 52 -62zM297 305c5 -18 9 -27 11 -36h57l10 31c5 17 10 31 10 31h-96zM615 330c0 0 5 -14 10 -31l10 -30h57c2 9 6 17 11 36l8 26h-48c-38 0 -48 0 -48 -1zM500 279c-0.452176 -0.691561 -3.13598 -8.03304 -4 -10h8z" />
  </g>

</svg>
