<?xml version="1.0" standalone="no"?>
<!DOCTYPE svg PUBLIC "-//W3C//DTD SVG 1.1//EN" "http://www.w3.org/Graphics/SVG/1.1/DTD/svg11.dtd" >
<svg xmlns="http://www.w3.org/2000/svg" xmlns:xlink="http://www.w3.org/1999/xlink" version="1.1" viewBox="-10 0 1010 1000">
  <g transform="matrix(1 0 0 -1 0 800)">
   <path fill="currentColor"
d="M937 206c0 -37.6465 -23.5396 -52.5132 -52 -62h-101l-14 -46c-15 -50 -17 -55 -25 -66c-15.96 -25.0799 -44.0245 -43 -81 -43c-46.5868 0 -75.9265 26.2237 -90 60c-1 3 -9 25 -17 50l-14 44h-86l-15 -44c-15 -46 -16 -52 -20 -59c-14 -26 -38 -43 -67 -49
c-52.1201 -13.03 -92.5575 19.4171 -109 57c-2 4 -8 26 -16 51l-14 45h-48c-51 0 -54 0 -63 3c-23.1312 9.25248 -42 26.5941 -42 59c0 33.6735 20.4049 54.0622 47 61c5 1 7 2 36 2h31l-9 31l-10 31h-21c-23 0 -27 1 -36 5c-23.4599 9.87787 -46.1731 35.3074 -37 72
c6.93517 24.2731 25.8248 42.4672 50 47c3 0 5 2 5 2s-5 18 -12 39s-11 41 -12 44c-6.63406 46.4384 29.6832 81.8292 77 70c18.8751 -5.14776 35.1733 -17.9333 42 -35c1 -2 9 -30 19 -61l17 -57h175l8 25c10 30 10 33 15 40c25.2121 37.8181 80.3123 35.6083 104 -1
c5 -7 6 -9 15 -39l8 -25h175l17 57c10 31 18 59 19 61c10.6567 23.9776 42.148 43.8478 74 35c26.9625 -7.35342 50.3461 -32.5775 45 -70c-0.707444 -2.12233 -23.6197 -82.7324 -24 -84h2c4 0 14 -3 19 -6c21.3244 -10.035 42.7812 -35.8751 34 -71
c-6 -23 -23 -40 -45 -46c-6 -2 -7 -2 -28 -2h-21l-10 -31l-9 -31h31l31 -1c30.3727 -5.06212 52 -26.5448 52 -62zM297 305c5.27663 -18.4682 9.18602 -26.9301 11 -36h57l10 31c5 17 10 31 10 31h-96zM615 330c0 0 5 -14 10 -31l10 -30h57
c1.83748 9.18739 5.69179 17.4213 11 36l8 26h-48c-38 0 -48 0 -48 -1zM498 274l-2 -5h8l-4 10s-1 -2 -2 -5z" />
  </g>

</svg>
