<?xml version="1.0" standalone="no"?>
<!DOCTYPE svg PUBLIC "-//W3C//DTD SVG 1.1//EN" "http://www.w3.org/Graphics/SVG/1.1/DTD/svg11.dtd" >
<svg xmlns="http://www.w3.org/2000/svg" xmlns:xlink="http://www.w3.org/1999/xlink" version="1.1" viewBox="-10 0 1010 1000">
  <g transform="matrix(1 0 0 -1 0 800)">
   <path fill="currentColor"
d="M270 674c-27.5583 -4.86324 -51 -28.5722 -51 -61c0 -12 2 -23 8 -32c1 -2 42 -59 89 -127l86 -123h-47c-39 0 -48 0 -53 -1c-30.0146 -4.61763 -60.293 -34.8278 -50 -76c5.96081 -23.8432 25.0256 -43.1578 50 -47c5 -1 16 -1 71 -1h65v-62h-65c-55 0 -66 0 -71 -1
c-30.0146 -4.61763 -60.293 -34.8278 -50 -76c5.96081 -23.8432 25.0256 -43.1578 50 -47c5 -1 16 -1 71 -1h64l1 -21c0 -18 0 -21 1 -25c8 -29 34 -49 64 -48c28 1 51 20 58 48c1 4 1 7 1 25l1 21h134c25.9421 8.64736 43.8666 20.6553 51 48
c10.4998 41.9994 -19.4834 70.7472 -51 76l-67 1h-68v62h68l67 1c26.957 4.49284 44.4988 22.0788 51 47c9.70695 38.8278 -16.5185 67.2323 -45 75l-6 2h-99l86 123c47 68 88 125 89 127c33.4171 55.6952 -32.7146 118.803 -90 83
c-9.70565 -6.47043 -15.6622 -16.7897 -183 -255c-172.561 245.218 -168.315 241.315 -173 246c-11.4785 13.1183 -31.9029 22.5853 -57 19z" />
  </g>

</svg>
