<?xml version="1.0" standalone="no"?>
<!DOCTYPE svg PUBLIC "-//W3C//DTD SVG 1.1//EN" "http://www.w3.org/Graphics/SVG/1.1/DTD/svg11.dtd" >
<svg xmlns="http://www.w3.org/2000/svg" xmlns:xlink="http://www.w3.org/1999/xlink" version="1.1" viewBox="-10 0 1010 1000">
  <g transform="matrix(1 0 0 -1 0 800)">
   <path fill="currentColor"
d="M270 674c25 4 46 -6 57 -19c5 -5 0 -1 173 -246c167 238 173 249 183 255c57 36 123 -27 90 -83c-1 -2 -42 -59 -89 -127l-86 -123h99l6 -2c28 -8 55 -36 45 -75c-7 -25 -24 -43 -51 -47l-67 -1h-68v-62h68l67 -1c32 -5 61 -34 51 -76c-7 -27 -25 -39 -51 -48h-134
l-1 -21c0 -18 0 -21 -1 -25c-7 -28 -30 -47 -58 -48c-30 -1 -56 19 -64 48c-1 4 -1 7 -1 25l-1 21h-64c-55 0 -66 0 -71 1c-25 4 -44 23 -50 47c-10 41 20 71 50 76c5 1 16 1 71 1h65v62h-65c-55 0 -66 0 -71 1c-25 4 -44 23 -50 47c-10 41 20 71 50 76c5 1 14 1 53 1h47
l-86 123c-47 68 -88 125 -89 127c-6 9 -8 20 -8 32c0 32 23 56 51 61z" />
  </g>

</svg>
