<?xml version="1.0" standalone="no"?>
<!DOCTYPE svg PUBLIC "-//W3C//DTD SVG 1.1//EN" "http://www.w3.org/Graphics/SVG/1.1/DTD/svg11.dtd" >
<svg xmlns="http://www.w3.org/2000/svg" xmlns:xlink="http://www.w3.org/1999/xlink" version="1.1" viewBox="-10 0 1010 1000">
  <g transform="matrix(1 0 0 -1 0 800)">
   <path fill="currentColor"
d="M771 378c19.7628 11.8577 39.7906 26 63 26c36.7131 0 66.7277 -31.9059 61 -72c-3 -17 -13 -33 -27 -42c-2 -2 -25 -15 -51 -30l-46 -27l-1 -97v-97c-5.30984 -26.5492 -24.1663 -45.8717 -51 -50c-35 -6 -69 18 -73 54v61c0 31 -1 55 -1 55s-7 -4 -16 -9
c-23.4622 -14.338 -22.4896 -16 -45 -16c-59.175 0 -85.5859 74.0111 -40 110c2 2 26 16 53 32l49 29v293c3.50148 33.8476 36.907 65.7409 78 54c23.009 -6.27518 40.9735 -23.8674 46 -49v-113c0 -68 1 -112 1 -112zM203 404c-16 -2 -30 -8 -41 -20
c-17 -18 -21 -46 -10 -69c8.44394 -17.9434 23.0376 -30.6075 45 -35h76l76 -1l-95 -94c-74 -74 -95 -96 -97 -100c-26.567 -42.5071 0.172835 -91.8607 43 -97h310c29.812 4.96866 52 27.3286 52 62c0 34.7769 -22.1989 57.0332 -52 62h-76l-75 1l95 95c87 87 96 96 99 101
c6.36931 9.55396 13.7318 29.8047 8 47c-7 24 -24 41 -48 47c-4 1 -12 1 -156 1h-154z" />
  </g>

</svg>
