<?xml version="1.0" standalone="no"?>
<!DOCTYPE svg PUBLIC "-//W3C//DTD SVG 1.1//EN" "http://www.w3.org/Graphics/SVG/1.1/DTD/svg11.dtd" >
<svg xmlns="http://www.w3.org/2000/svg">
<defs>
  <font id="spices-clove-regular" horiz-adv-x="1000">
    <font-face font-family="spices-clove-regular"
      units-per-em="1000" ascent="1000"
      descent="0" />
    <missing-glyph horiz-adv-x="0" />
    <glyph glyph-name="bahraini"
      unicode="&#x65;&#x61;&#x32;&#x35;"
      horiz-adv-x="1000" d="M125 583.333125V541.666875C125 497.46375 142.559375 455.071875 173.815625 423.8156250000001C205.071875 392.5593750000001 247.46375 375 291.666875 375H375C397.10125 375 418.2975 383.78 433.925625 399.4075000000001C449.55375 415.035625 458.333125 436.2318750000001 458.333125 458.333125V583.333125M291.666875 207.9187500000001V208.33125M583.333125 374.58125V375M708.33125 375H791.83125C807.00625 375.00375 821.89375 379.150625 834.88125 386.9925C847.86875 394.8350000000001 858.475 406.075 865.5437499999999 419.500625C872.61875 432.92625 875.8875 448.0275000000001 875.00625 463.175625C874.125 478.32375 869.125 492.94375 860.54375 505.458125L750 666.666875" />
    <glyph glyph-name="bath"
      unicode="&#x65;&#x61;&#x32;&#x36;"
      horiz-adv-x="1000" d="M553.578125 500C589.0962499999999 500 623.1600000000001 512.541875 648.2750000000001 534.86625C673.3875 557.1912500000001 687.5 587.47 687.5 619.041875V625C687.5 658.151875 672.68125 689.94625 646.3125 713.388125C619.9393749999999 736.830625 584.17125 750 546.875 750H312.5V250H553.578125C589.0962499999999 250 623.1600000000001 262.54375 648.2750000000001 284.86875C673.3875 307.19375 687.5 337.46875 687.5 369.0437500000001V375C687.5 408.151875 672.68125 439.94625 646.3125 463.3881250000001C619.9393749999999 486.8306249999999 584.17125 500 546.875 500H312.5M500 875V750M500 250V125" />
    <glyph glyph-name="bitcoin"
      unicode="&#x65;&#x61;&#x32;&#x37;"
      horiz-adv-x="1000" d="M187.5 750H596.590625C667.1687499999999 750 750 703.973125 750 625C750 546.026875 667.1687499999999 500 596.590625 500C667.1687499999999 500 750 453.973125 750 375C750 296.025 667.1687499999999 250 596.590625 250H187.5M312.5 500H625M312.5 875V125M562.5 875V750M562.5 250V125" />
    <glyph glyph-name="cent"
      unicode="&#x65;&#x61;&#x32;&#x38;"
      horiz-adv-x="1000" d="M666.9562500000001 685.83375C621.1862500000001 727.21 561.6600000000001 750.081875 499.958125 750M499.958125 750C467.149375 749.978125 434.666875 743.494375 404.3637500000001 730.91875C374.0612500000001 718.34375 346.531875 699.9225 323.348125 676.708125C300.164375 653.493125 281.780625 625.939375 269.245 595.62C256.71 565.3006250000001 250.27 532.8087499999999 250.291875 500C250.291875 361.91875 362.041875 250 499.958125 250M499.958125 750L500 833.333125M499.958125 250C561.580625 249.9125 621.0375 272.725 666.7937499999999 314M499.958125 250L500 166.6687500000001" />
    <glyph glyph-name="debug"
      unicode="&#x65;&#x61;&#x32;&#x39;"
      horiz-adv-x="1000" d="M125 875L812.5 187.5M125 875L718.75 593.75M125 875V312.5" />
    <glyph glyph-name="dinar"
      unicode="&#x65;&#x61;&#x32;&#x61;"
      horiz-adv-x="1000" d="M583.333125 166.25V166.6687500000001M250 458.333125L349.416875 495.833125C357.675 498.9456249999999 364.731875 504.599375 369.57 511.98C374.40875 519.3612499999999 376.7781250000001 528.0875 376.3381250000001 536.901875C375.8981250000001 545.71625 372.67 554.163125 367.120625 561.025C361.570625 567.886875 353.9856250000001 572.809375 345.458125 575.083125L282.375 591.916875C273.8637500000001 594.17625 266.286875 599.075 260.7331250000001 605.90875C255.17875 612.743125 251.9325 621.160625 251.460625 629.954375C250.988125 638.7481250000001 253.314375 647.465 258.105 654.854375C262.895625 662.2437500000001 269.904375 667.925 278.125 671.083125L375 708.333125M125 416.666875V375C125 341.85 138.169375 310.05625 161.611875 286.6125000000001C185.05375 263.16875 216.848125 250 250 250H423.375C440.915625 250 458.259375 253.6875 474.28 260.83125C490.300625 267.9749999999999 504.6381250000001 278.4124999999999 516.36125 291.45625C528.084375 304.50625 536.9300000000001 319.875 542.32375 336.5625C547.7175 353.25625 549.5375 370.8937500000001 547.666875 388.333125L500 833.333125M666.66875 291.6687500000001L708.33125 250H791.83125C807.00625 250.00625 821.89375 254.15 834.88125 261.99375C847.86875 269.8375 858.475 281.075 865.5437499999999 294.5C872.61875 307.925 875.8875 323.025 875.00625 338.175C874.125 353.3250000000001 869.125 367.94375 860.54375 380.458125L750 541.666875" />
    <glyph glyph-name="dirham"
      unicode="&#x65;&#x61;&#x32;&#x62;"
      horiz-adv-x="1000" d="M354.166875 208.33125H208.333125M358.291875 313.375C351.229375 320.975 342.38625 326.7000000000001 332.56 330.03125C322.73375 333.3562500000001 312.233125 334.1875 302.005625 332.44375C291.7775000000001 330.7000000000001 282.145 326.44375 273.975625 320.04375C265.8062500000001 313.65 259.358125 305.31875 255.211875 295.8125C251.065625 286.3 249.3525 275.90625 250.226875 265.56875C251.100625 255.2312500000001 254.5350000000001 245.2687500000001 260.219375 236.59375C265.9031250000001 227.9124999999999 273.65875 220.78125 282.785625 215.85C291.913125 210.9187500000001 302.125 208.33125 312.5 208.33125M291.666875 833.333125V458.333125M625 458.333125H703.6687499999999C714.6625 458.33 725.46875 461.22875 734.9875000000001 466.7362499999999C744.50625 472.24375 752.4 480.165 757.8812499999999 489.700625C763.3562499999999 499.23625 766.225 510.04875 766.1875 521.045625C766.15 532.0425 763.20625 542.835 757.66875 552.333125L666.66875 708.333125M458.333125 457.916875V458.333125" />
    <glyph glyph-name="dollar"
      unicode="&#x65;&#x61;&#x32;&#x63;"
      horiz-adv-x="1000" d="M695.8312500000001 666.666875C687.5375 690.198125 672.3937500000001 710.71 652.34375 725.56125C632.2937499999999 740.4124999999999 608.260625 748.92375 583.333125 750H416.66625C383.5143750000001 750 351.72 736.830625 328.278125 713.388125C304.83625 689.94625 291.66625 658.151875 291.66625 625C291.66625 591.848125 304.83625 560.05375 328.278125 536.611875C351.72 513.169375 383.5143750000001 500 416.66625 500H583.333125C616.4849999999999 500 648.28125 486.8306249999999 671.71875 463.3881250000001C695.1625 439.94625 708.33125 408.151875 708.33125 375C708.33125 341.85 695.1625 310.05625 671.71875 286.6125000000001C648.28125 263.16875 616.4849999999999 250 583.333125 250H416.66625C391.739375 251.0750000000001 367.7043750000001 259.5875 347.655 274.4375C327.60625 289.2875 312.4600000000001 309.8 304.1662500000001 333.33125M500 875V750M500 250V125" />
    <glyph glyph-name="dollar-australian"
      unicode="&#x65;&#x61;&#x32;&#x64;"
      horiz-adv-x="1000" d="M125 250L261.625 728.16625C263.494375 734.6912500000001 267.4368750000001 740.43 272.856875 744.515625C278.276875 748.600625 284.879375 750.8106250000001 291.666875 750.8106250000001C298.45375 750.8106250000001 305.056875 748.600625 310.476875 744.515625C315.896875 740.43 319.839375 734.6912500000001 321.708125 728.16625L458.333125 250M875 750H708.33125C675.18125 750 643.3875 736.830625 619.9449999999999 713.388125C596.5031250000001 689.94625 583.333125 658.151875 583.333125 625C583.333125 591.848125 596.5031250000001 560.05375 619.9449999999999 536.611875C643.3875 513.169375 675.18125 500 708.33125 500H750C783.15 500 814.94375 486.8306249999999 838.3874999999999 463.3881250000001C861.8312500000001 439.94625 875 408.151875 875 375C875 341.85 861.8312500000001 310.05625 838.3874999999999 286.6125000000001C814.94375 263.16875 783.15 250 750 250H583.333125M708.33125 166.6687500000001V250M750 750V833.333125M187.5 416.666875H395.833125" />
    <glyph glyph-name="dollar-canadian"
      unicode="&#x65;&#x61;&#x32;&#x65;"
      horiz-adv-x="1000" d="M875 750H708.33125C675.18125 750 643.3875 736.830625 619.9449999999999 713.388125C596.5031250000001 689.94625 583.333125 658.151875 583.333125 625C583.333125 591.848125 596.5031250000001 560.05375 619.9449999999999 536.611875C643.3875 513.169375 675.18125 500 708.33125 500H750C783.15 500 814.94375 486.8306249999999 838.3874999999999 463.3881250000001C861.8312500000001 439.94625 875 408.151875 875 375C875 341.85 861.8312500000001 310.05625 838.3874999999999 286.6125000000001C814.94375 263.16875 783.15 250 750 250H583.333125M416.666875 250H375C308.695625 250 245.1075 276.3375 198.223125 323.225C151.339375 370.10625 125 433.6956250000001 125 500C125 566.304375 151.339375 629.8925 198.223125 676.776875C245.1075 723.660625 308.695625 750 375 750H416.666875M708.33125 166.6687500000001V250M750 750V833.333125" />
    <glyph glyph-name="dollar-singapore"
      unicode="&#x65;&#x61;&#x32;&#x66;"
      horiz-adv-x="1000" d="M875 750H708.33125C675.18125 750 643.3875 736.830625 619.9449999999999 713.388125C596.5031250000001 689.94625 583.333125 658.151875 583.333125 625C583.333125 591.848125 596.5031250000001 560.05375 619.9449999999999 536.611875C643.3875 513.169375 675.18125 500 708.33125 500H750C783.15 500 814.94375 486.8306249999999 838.3874999999999 463.3881250000001C861.8312500000001 439.94625 875 408.151875 875 375C875 341.85 861.8312500000001 310.05625 838.3874999999999 286.6125000000001C814.94375 263.16875 783.15 250 750 250H583.333125M416.666875 750H250C216.848125 750 185.05375 736.830625 161.611875 713.388125C138.169375 689.94625 125 658.151875 125 625C125 591.848125 138.169375 560.05375 161.611875 536.611875C185.05375 513.169375 216.848125 500 250 500H291.666875C324.81875 500 356.613125 486.8306249999999 380.055 463.3881250000001C403.496875 439.94625 416.666875 408.151875 416.666875 375C416.666875 341.85 403.496875 310.05625 380.055 286.6125000000001C356.613125 263.16875 324.81875 250 291.666875 250H125M708.33125 166.6687500000001V250M750 750V833.333125" />
    <glyph glyph-name="ethereum"
      unicode="&#x65;&#x61;&#x33;&#x30;"
      horiz-adv-x="1000" d="M250 500L500 875L750 500M250 500L500 125L750 500M250 500L500 625L750 500M250 500L500 416.666875L750 500" />
    <glyph glyph-name="euro"
      unicode="&#x65;&#x61;&#x33;&#x31;"
      horiz-adv-x="1000" d="M750 767.856875C708.63125 819.535625 656.2125 854.4925 599.3175 868.34375C542.425625 882.194375 483.591875 874.32375 430.1943750000001 845.718125C376.79625 817.111875 331.211875 769.044375 299.155625 707.5425C267.1 646.040625 250 573.8418750000001 250 500C250 426.1581250000001 267.1 353.95625 299.155625 292.45625C331.211875 230.95625 376.79625 182.8874999999999 430.1943750000001 154.28125C483.591875 125.675 542.425625 117.80625 599.3175 131.65625C656.2125 145.5062499999999 708.63125 180.4625 750 232.14375M562.5 593.75H125M125 406.25H562.5" />
    <glyph glyph-name="forint"
      unicode="&#x65;&#x61;&#x33;&#x32;"
      horiz-adv-x="1000" d="M458.333125 833.333125H291.666875C258.5143750000001 833.333125 226.720625 820.1637499999999 203.278125 796.721875C179.83625 773.279375 166.666875 741.485625 166.666875 708.333125V208.33125M416.666875 541.666875H166.666875M666.66875 833.333125V291.6687500000001C666.66875 269.5625 675.44375 248.36875 691.075 232.74375C706.7 217.1125000000001 727.9 208.33125 750 208.33125H833.33125M791.66875 625H583.333125" />
    <glyph glyph-name="frank"
      unicode="&#x65;&#x61;&#x33;&#x33;"
      horiz-adv-x="1000" d="M708.33125 791.666875H458.333125C436.231875 791.666875 415.0356250000001 782.886875 399.4075000000001 767.25875C383.7800000000001 751.630625 375 730.435 375 708.333125V208.33125M291.666875 375H458.333125M375 541.666875H666.66875" />
    <glyph glyph-name="krone-czech"
      unicode="&#x65;&#x61;&#x33;&#x34;"
      horiz-adv-x="1000" d="M208.333125 750V250M458.333125 750C458.333125 625 354.166875 500 208.333125 500C354.166875 500 458.333125 375 458.333125 250M791.66875 750L708.33125 666.666875L625 750M791.66875 500H708.33125C675.18125 500 643.3875 486.8306249999999 619.9449999999999 463.3881250000001C596.5031250000001 439.94625 583.333125 408.151875 583.333125 375C583.333125 341.85 596.5031250000001 310.05625 619.9449999999999 286.6125000000001C643.3875 263.16875 675.18125 250 708.33125 250H791.66875" />
    <glyph glyph-name="krone-danish"
      unicode="&#x65;&#x61;&#x33;&#x35;"
      horiz-adv-x="1000" d="M208.333125 750V250M458.333125 750C458.333125 625 354.166875 500 208.333125 500C354.166875 500 458.333125 375 458.333125 250M625 583.333125V250M791.66875 583.333125C747.4625 583.333125 705.06875 565.7737500000001 673.8125 534.518125C642.5625 503.261875 625 460.869375 625 416.666875M833.33125 249.58125V250" />
    <glyph glyph-name="krone-swedish"
      unicode="&#x65;&#x61;&#x33;&#x36;"
      horiz-adv-x="1000" d="M208.33375 750V250M458.33375 750C458.33375 625 354.166875 500 208.33375 500C354.166875 500 458.33375 375 458.33375 250M625 583.333125V250M791.66875 583.333125C747.4625 583.333125 705.06875 565.7737500000001 673.81875 534.518125C642.5625 503.261875 625 460.869375 625 416.666875" />
    <glyph glyph-name="leu"
      unicode="&#x65;&#x61;&#x33;&#x37;"
      horiz-adv-x="1000" d="M708.33125 250H416.66625C383.5143750000001 250 351.72 263.16875 328.278125 286.6125000000001C304.83625 310.05625 291.66625 341.85 291.66625 375V791.666875" />
    <glyph glyph-name="lira"
      unicode="&#x65;&#x61;&#x33;&#x38;"
      horiz-adv-x="1000" d="M416.666875 791.666875V166.6687500000001C494.02125 166.6687500000001 568.208125 197.3937500000001 622.90625 252.09375C677.6062499999999 306.79375 708.33125 380.97875 708.33125 458.333125M250 375L583.333125 541.666875M583.333125 708.333125L250 541.666875" />
    <glyph glyph-name="litecoin"
      unicode="&#x65;&#x61;&#x33;&#x39;"
      horiz-adv-x="1000" d="M750 208.33125H408.58375C396.643125 208.33125 384.841875 210.9 373.979375 215.8562499999999C363.116875 220.8125 353.446875 228.0437500000001 345.623125 237.06875C337.8 246.0875 332.006875 256.68125 328.635625 268.1375000000001C325.264375 279.59375 324.39375 291.6375000000001 326.08375 303.45625L395.83375 791.666875M583.33375 625L208.33375 458.333125" />
    <glyph glyph-name="naira"
      unicode="&#x65;&#x61;&#x33;&#x61;"
      horiz-adv-x="1000" d="M291.666875 250V706.166875C291.66375 715.8612499999999 294.88125 725.2825 300.81375 732.950625C306.745625 740.61875 315.056875 746.09875 324.441875 748.53125C333.82625 750.963125 343.753125 750.20875 352.6631250000001 746.3875C361.573125 742.565625 368.960625 735.8924999999999 373.666875 727.416875L626.33125 272.58125C631.0375 264.10625 638.4250000000001 257.4375 647.3375 253.6125000000001C656.25 249.7937500000001 666.175 249.0375 675.55625 251.46875C684.9437499999999 253.9 693.25625 259.38125 699.1875 267.05C705.11875 274.71875 708.3375 284.1375000000001 708.33125 293.83125V750M208.33375 583.333125H791.66875M208.33375 416.666875H791.66875" />
    <glyph glyph-name="pound"
      unicode="&#x65;&#x61;&#x33;&#x62;"
      horiz-adv-x="1000" d="M708.33125 229.1625C675.65 214.1875 640.11875 206.43125 604.166875 206.43125C568.21375 206.43125 532.683125 214.1875 500 229.1625C465.8325 240.9625 429.51375 245.20625 393.5475 241.6062500000001C357.580625 238.0125 322.821875 226.65625 291.666875 208.33125C313.975625 216.05625 333.6425 229.9375 348.39 248.36875C363.138125 266.80625 372.36375 289.0374999999999 375 312.5V624.99875C375.22 661.501875 387.418125 696.923125 409.72 725.82125C432.0225 754.72 463.195625 775.4975 498.450625 784.961875C533.7062500000001 794.42625 571.09375 792.0543749999999 604.870625 778.2106249999999C638.6500000000001 764.3668749999999 666.9437499999999 739.8175 685.4187499999999 708.3318750000001M579.166875 458.3318750000001H287.5" />
    <glyph glyph-name="real"
      unicode="&#x65;&#x61;&#x33;&#x63;"
      horiz-adv-x="1000" d="M875 750H708.33125C675.18125 750 643.3875 736.830625 619.9449999999999 713.388125C596.5031250000001 689.94625 583.333125 658.151875 583.333125 625C583.333125 591.848125 596.5031250000001 560.05375 619.9449999999999 536.611875C643.3875 513.169375 675.18125 500 708.33125 500H750C783.15 500 814.94375 486.8306249999999 838.3874999999999 463.3881250000001C861.8312500000001 439.94625 875 408.151875 875 375C875 341.85 861.8312500000001 310.05625 838.3874999999999 286.6125000000001C814.94375 263.16875 783.15 250 750 250H583.333125M166.666875 250V750H291.666875C324.81875 750 356.613125 736.830625 380.055 713.388125C403.496875 689.94625 416.666875 658.151875 416.666875 625C416.666875 591.848125 403.496875 560.05375 380.055 536.611875C356.613125 513.169375 324.81875 500 291.666875 500H166.666875C395.833125 500 375 333.33125 416.666875 250M750 750V833.333125M708.33125 166.6687500000001V250" />
    <glyph glyph-name="renminbi"
      unicode="&#x65;&#x61;&#x33;&#x64;"
      horiz-adv-x="1000" d="M625 625V291.6687500000001C625 269.5625 633.78125 248.36875 649.40625 232.74375C665.0374999999999 217.1125000000001 686.2312499999999 208.33125 708.33125 208.33125C730.4375 208.33125 751.63125 217.1125000000001 767.25625 232.74375C782.8874999999999 248.36875 791.66875 269.5625 791.66875 291.6687500000001M791.66875 625H208.333125M791.66875 791.666875H208.333125M375 625V458.333125C375 354.1687500000001 347.208125 291.6687500000001 291.666875 208.33125" />
    <glyph glyph-name="ripple"
      unicode="&#x65;&#x61;&#x33;&#x65;"
      horiz-adv-x="1000" d="M416.666875 500C416.666875 430.9643749999999 360.7025 375 291.666875 375C222.63125 375 166.666875 430.9643749999999 166.666875 500C166.666875 569.035625 222.63125 625 291.666875 625C360.7025 625 416.666875 569.035625 416.666875 500zM416.666875 500L541.666875 500M541.666875 500L625 604.166875M541.666875 500L625 395.833125M833.33125 708.333125C833.33125 639.2975 777.3687500000001 583.333125 708.33125 583.333125C639.3 583.333125 583.333125 639.2975 583.333125 708.333125C583.333125 777.36875 639.3 833.333125 708.33125 833.333125C777.3687500000001 833.333125 833.33125 777.36875 833.33125 708.333125zM833.33125 291.6687500000001C833.33125 222.6312499999999 777.3687500000001 166.6687500000001 708.33125 166.6687500000001C639.3 166.6687500000001 583.333125 222.6312499999999 583.333125 291.6687500000001C583.333125 360.7000000000001 639.3 416.666875 708.33125 416.666875C777.3687500000001 416.666875 833.33125 360.7000000000001 833.33125 291.6687500000001z" />
    <glyph glyph-name="riyal"
      unicode="&#x65;&#x61;&#x33;&#x66;"
      horiz-adv-x="1000" d="M625 625V541.666875C625 519.565 616.22 498.369375 600.5925 482.74125C584.964375 467.113125 563.7681249999999 458.333125 541.666875 458.333125C519.565 458.333125 498.369375 467.113125 482.74125 482.74125C467.113125 498.369375 458.333125 519.565 458.333125 541.666875M458.333125 541.666875V583.333125M458.333125 541.666875C458.333125 519.565 449.55375 498.369375 433.925625 482.74125C418.2975 467.113125 397.10125 458.333125 375 458.333125C352.89875 458.333125 331.7025 467.113125 316.0743750000001 482.74125C300.44625 498.369375 291.666875 519.565 291.666875 541.666875M291.666875 541.666875V583.333125M291.666875 541.666875V416.666875C291.666875 394.5650000000001 282.886875 373.36875 267.25875 357.74375C251.630625 342.1125000000001 230.435 333.33125 208.333125 333.33125C186.231875 333.33125 165.035625 342.1125000000001 149.4075 357.74375C133.78 373.36875 125 394.5650000000001 125 416.666875V500M750 499.583125V500M916.66875 583.333125V541.666875C916.66875 486.413125 894.71875 433.4231250000001 855.65 394.3525C816.575 355.28125 763.5875 333.33125 708.33125 333.33125" />
    <glyph glyph-name="rubel"
      unicode="&#x65;&#x61;&#x34;&#x30;"
      horiz-adv-x="1000" d="M333.333125 208.33125V791.666875H583.333125C616.485625 791.666875 648.28125 778.496875 671.71875 755.0550000000001C695.1625 731.613125 708.33125 699.8187499999999 708.33125 666.666875C708.33125 633.514375 695.1625 601.72 671.71875 578.278125C648.28125 554.83625 616.485625 541.666875 583.333125 541.666875H250M583.333125 375H250" />
    <glyph glyph-name="rupee"
      unicode="&#x65;&#x61;&#x34;&#x31;"
      horiz-adv-x="1000" d="M750 791.666875H291.66625H416.66625C460.869375 791.666875 503.261875 774.106875 534.5174999999999 742.8512499999999C565.77375 711.595 583.333125 669.2025 583.333125 625C583.333125 580.7975 565.77375 538.405 534.5174999999999 507.14875C503.261875 475.8925 460.869375 458.333125 416.66625 458.333125H291.66625L541.66625 208.33125M291.66625 625H750" />
    <glyph glyph-name="shekel"
      unicode="&#x65;&#x61;&#x34;&#x32;"
      horiz-adv-x="1000" d="M250 250V750H416.666875C460.869375 750 503.261875 732.440625 534.5174999999999 701.184375C565.77375 669.9281249999999 583.333125 627.53625 583.333125 583.333125V416.666875M750 750V250H583.333125C539.130625 250 496.738125 267.5625 465.4825 298.8125C434.22625 330.06875 416.666875 372.4625 416.666875 416.666875V583.333125" />
    <glyph glyph-name="taka"
      unicode="&#x65;&#x61;&#x34;&#x33;"
      horiz-adv-x="1000" d="M281.25 718.75C281.25 764.1387500000001 312.5 812.5 375 812.5C437.5 812.5 468.75 764.1387500000001 468.75 718.75V343.75C468.75 275.6687500000001 525.666875 218.75 593.75 218.75C661.83125 218.75 718.75 275.6687500000001 718.75 343.75M333.333125 541.666875H583.333125M750 343.75C750 326.49375 736.00625 312.5 718.75 312.5C701.49375 312.5 687.5 326.49375 687.5 343.75C687.5 361.00625 701.49375 375 718.75 375C736.00625 375 750 361.00625 750 343.75z" />
    <glyph glyph-name="tugrik"
      unicode="&#x65;&#x61;&#x34;&#x34;"
      horiz-adv-x="1000" d="M281.25 750H718.75M500 750L500 187.5M312.5 281.25L687.5 437.5M687.5 593.75L312.5 437.5" />
    <glyph glyph-name="won"
      unicode="&#x65;&#x61;&#x34;&#x35;"
      horiz-adv-x="1000" d="M156.25 750L301.875 276.75C303.95125 269.46875 308.30375 263.05 314.2956250000001 258.4250000000001C320.2875 253.8000000000001 327.603125 251.21875 335.17 251.05625C342.736875 250.8937500000001 350.1575000000001 253.15625 356.343125 257.5187500000001C362.528125 261.8812499999999 367.154375 268.1125 369.541875 275.2937500000001L500 687.5L630.4562500000001 275.2937500000001C632.84375 268.1125 637.46875 261.8812499999999 643.65625 257.5187500000001C649.84375 253.15625 657.2624999999999 250.8937500000001 664.83125 251.05625C672.3937500000001 251.21875 679.7125000000001 253.8000000000001 685.70625 258.4250000000001C691.69375 263.05 696.05 269.46875 698.125 276.75L843.75 750M875 593.75H125M875 406.25H125" />
    <glyph glyph-name="yen"
      unicode="&#x65;&#x61;&#x34;&#x36;"
      horiz-adv-x="1000" d="M500 187.5V500M500 500L281.25 812.5M500 500L718.75 812.5M312.5 281.25H687.5M312.5 468.75H687.5" />
    <glyph glyph-name="zloty"
      unicode="&#x65;&#x61;&#x34;&#x37;"
      horiz-adv-x="1000" d="M500 250H208.333125L500 541.666875H208.333125M708.33125 250V791.666875M583.333125 395.833125L833.33125 541.666875" />
  </font>
</defs>
</svg>
