<svg width="16" height="16" viewBox="0 0 16 16" fill="none" xmlns="http://www.w3.org/2000/svg">
<path d="M8 8L7.29289 8.70711C7.68342 9.09763 8.31658 9.09763 8.70711 8.70711L8 8ZM3.70711 2.29289C3.31658 1.90237 2.68342 1.90237 2.29289 2.29289C1.90237 2.68342 1.90237 3.31658 2.29289 3.70711L3.70711 2.29289ZM13.7071 3.70711C14.0976 3.31658 14.0976 2.68342 13.7071 2.29289C13.3166 1.90237 12.6834 1.90237 12.2929 2.29289L13.7071 3.70711ZM8.70711 7.29289L3.70711 2.29289L2.29289 3.70711L7.29289 8.70711L8.70711 7.29289ZM8.70711 8.70711L13.7071 3.70711L12.2929 2.29289L7.29289 7.29289L8.70711 8.70711Z" fill="#24282B"/>
<path d="M8 13L7.29289 13.7071C7.68342 14.0976 8.31658 14.0976 8.70711 13.7071L8 13ZM3.70711 7.29289C3.31658 6.90237 2.68342 6.90237 2.29289 7.29289C1.90237 7.68342 1.90237 8.31658 2.29289 8.70711L3.70711 7.29289ZM13.7071 8.70711C14.0976 8.31658 14.0976 7.68342 13.7071 7.29289C13.3166 6.90237 12.6834 6.90237 12.2929 7.29289L13.7071 8.70711ZM8.70711 12.2929L3.70711 7.29289L2.29289 8.70711L7.29289 13.7071L8.70711 12.2929ZM8.70711 13.7071L13.7071 8.70711L12.2929 7.29289L7.29289 12.2929L8.70711 13.7071Z" fill="#24282B"/>
</svg>
