<svg width="16" height="16" viewBox="0 0 16 16" fill="none" xmlns="http://www.w3.org/2000/svg">
<path d="M8 3L8.70711 2.29289C8.31658 1.90237 7.68342 1.90237 7.29289 2.29289L8 3ZM12.2929 8.70711C12.6834 9.09763 13.3166 9.09763 13.7071 8.70711C14.0976 8.31658 14.0976 7.68342 13.7071 7.29289L12.2929 8.70711ZM2.29289 7.29289C1.90237 7.68342 1.90237 8.31658 2.29289 8.70711C2.68342 9.09763 3.31658 9.09763 3.70711 8.70711L2.29289 7.29289ZM7.29289 3.70711L12.2929 8.70711L13.7071 7.29289L8.70711 2.29289L7.29289 3.70711ZM7.29289 2.29289L2.29289 7.29289L3.70711 8.70711L8.70711 3.70711L7.29289 2.29289Z" fill="#24282B"/>
<path d="M8 8L8.70711 7.29289C8.31658 6.90237 7.68342 6.90237 7.29289 7.29289L8 8ZM12.2929 13.7071C12.6834 14.0976 13.3166 14.0976 13.7071 13.7071C14.0976 13.3166 14.0976 12.6834 13.7071 12.2929L12.2929 13.7071ZM2.29289 12.2929C1.90237 12.6834 1.90237 13.3166 2.29289 13.7071C2.68342 14.0976 3.31658 14.0976 3.70711 13.7071L2.29289 12.2929ZM7.29289 8.70711L12.2929 13.7071L13.7071 12.2929L8.70711 7.29289L7.29289 8.70711ZM7.29289 7.29289L2.29289 12.2929L3.70711 13.7071L8.70711 8.70711L7.29289 7.29289Z" fill="#24282B"/>
</svg>
