<svg width="16" height="16" viewBox="0 0 16 16" fill="none" xmlns="http://www.w3.org/2000/svg">
<path d="M2 7C1.44772 7 1 7.44772 1 8C1 8.55228 1.44772 9 2 9V7ZM10 8L10.7071 8.70711C11.0976 8.31658 11.0976 7.68342 10.7071 7.29289L10 8ZM7.70711 4.29289C7.31658 3.90237 6.68342 3.90237 6.29289 4.29289C5.90237 4.68342 5.90237 5.31658 6.29289 5.70711L7.70711 4.29289ZM6.29289 10.2929C5.90237 10.6834 5.90237 11.3166 6.29289 11.7071C6.68342 12.0976 7.31658 12.0976 7.70711 11.7071L6.29289 10.2929ZM2 9H10V7H2V9ZM10.7071 7.29289L7.70711 4.29289L6.29289 5.70711L9.29289 8.70711L10.7071 7.29289ZM9.29289 7.29289L6.29289 10.2929L7.70711 11.7071L10.7071 8.70711L9.29289 7.29289Z" fill="#24282B"/>
<path d="M14 2L14 14" stroke="#24282B" stroke-width="2" stroke-linecap="round"/>
</svg>
