<svg width="16" height="16" viewBox="0 0 16 16" fill="none" xmlns="http://www.w3.org/2000/svg">
<path d="M2 8L1.29289 7.29289C0.902369 7.68342 0.902369 8.31658 1.29289 8.70711L2 8ZM14 8L14.7071 8.70711C15.0976 8.31658 15.0976 7.68342 14.7071 7.29289L14 8ZM11.7071 4.29289C11.3166 3.90237 10.6834 3.90237 10.2929 4.29289C9.90237 4.68342 9.90237 5.31658 10.2929 5.70711L11.7071 4.29289ZM10.2929 10.2929C9.90237 10.6834 9.90237 11.3166 10.2929 11.7071C10.6834 12.0976 11.3166 12.0976 11.7071 11.7071L10.2929 10.2929ZM5.70711 5.70711C6.09763 5.31658 6.09763 4.68342 5.70711 4.29289C5.31658 3.90237 4.68342 3.90237 4.29289 4.29289L5.70711 5.70711ZM4.29289 11.7071C4.68342 12.0976 5.31658 12.0976 5.70711 11.7071C6.09763 11.3166 6.09763 10.6834 5.70711 10.2929L4.29289 11.7071ZM2 9H14V7H2V9ZM14.7071 7.29289L11.7071 4.29289L10.2929 5.70711L13.2929 8.70711L14.7071 7.29289ZM13.2929 7.29289L10.2929 10.2929L11.7071 11.7071L14.7071 8.70711L13.2929 7.29289ZM2.70711 8.70711L5.70711 5.70711L4.29289 4.29289L1.29289 7.29289L2.70711 8.70711ZM1.29289 8.70711L4.29289 11.7071L5.70711 10.2929L2.70711 7.29289L1.29289 8.70711Z" fill="#24282B"/>
</svg>
