<svg width="16" height="16" viewBox="0 0 16 16" fill="none" xmlns="http://www.w3.org/2000/svg">
<path d="M2.29289 12.2929C1.90237 12.6834 1.90237 13.3166 2.29289 13.7071C2.68342 14.0976 3.31658 14.0976 3.70711 13.7071L2.29289 12.2929ZM14 2H15C15 1.44772 14.5523 1 14 1V2ZM7 1C6.44772 1 6 1.44772 6 2C6 2.55228 6.44772 3 7 3V1ZM13 9C13 9.55229 13.4477 10 14 10C14.5523 10 15 9.55229 15 9H13ZM3.70711 13.7071L14.7071 2.70711L13.2929 1.29289L2.29289 12.2929L3.70711 13.7071ZM14 1H7V3H14V1ZM13 2V9H15V2H13Z" fill="#24282B"/>
</svg>
