<svg width="16" height="16" viewBox="0 0 16 16" fill="none" xmlns="http://www.w3.org/2000/svg">
<path d="M3 3L3 2C2.44771 2 2 2.44772 2 3L3 3ZM13 13V14C13.5523 14 14 13.5523 14 13L13 13ZM14 9C14 8.44772 13.5523 8 13 8C12.4477 8 12 8.44771 12 9L14 9ZM9 12C8.44772 12 8 12.4477 8 13C8 13.5523 8.44772 14 9 14L9 12ZM7 4C7.55229 4 8 3.55228 8 3C8 2.44772 7.55229 2 7 2L7 4ZM2 7C2 7.55228 2.44771 8 3 8C3.55228 8 4 7.55228 4 7L2 7ZM2.29289 3.70711L12.2929 13.7071L13.7071 12.2929L3.70711 2.29289L2.29289 3.70711ZM14 13L14 9L12 9L12 13L14 13ZM13 12L9 12L9 14L13 14V12ZM3 4L7 4L7 2L3 2L3 4ZM2 3V7L4 7V3L2 3Z" fill="#24282B"/>
</svg>
