<svg width="16" height="16" viewBox="0 0 16 16" fill="none" xmlns="http://www.w3.org/2000/svg">
<path d="M14 7C14.5523 7 15 7.44772 15 8C15 8.55228 14.5523 9 14 9V7ZM2 8L1.29289 8.70711C0.902369 8.31658 0.902369 7.68342 1.29289 7.29289L2 8ZM6.29289 2.29289C6.68342 1.90237 7.31658 1.90237 7.70711 2.29289C8.09763 2.68342 8.09763 3.31658 7.70711 3.70711L6.29289 2.29289ZM7.70711 12.2929C8.09763 12.6834 8.09763 13.3166 7.70711 13.7071C7.31658 14.0976 6.68342 14.0976 6.29289 13.7071L7.70711 12.2929ZM14 9H2V7H14V9ZM1.29289 7.29289L6.29289 2.29289L7.70711 3.70711L2.70711 8.70711L1.29289 7.29289ZM2.70711 7.29289L7.70711 12.2929L6.29289 13.7071L1.29289 8.70711L2.70711 7.29289Z" fill="#24282B"/>
</svg>
