<svg width="16" height="16" viewBox="0 0 16 16" fill="none" xmlns="http://www.w3.org/2000/svg">
<path d="M9 6C9 5.44772 8.55228 5 8 5C7.44772 5 7 5.44772 7 6H9ZM8 14L7.29289 14.7071C7.68342 15.0976 8.31658 15.0976 8.70711 14.7071L8 14ZM11.7071 11.7071C12.0976 11.3166 12.0976 10.6834 11.7071 10.2929C11.3166 9.90237 10.6834 9.90237 10.2929 10.2929L11.7071 11.7071ZM5.70711 10.2929C5.31658 9.90237 4.68342 9.90237 4.29289 10.2929C3.90237 10.6834 3.90237 11.3166 4.29289 11.7071L5.70711 10.2929ZM7 6V14H9V6H7ZM8.70711 14.7071L11.7071 11.7071L10.2929 10.2929L7.29289 13.2929L8.70711 14.7071ZM8.70711 13.2929L5.70711 10.2929L4.29289 11.7071L7.29289 14.7071L8.70711 13.2929Z" fill="#24282B"/>
<path d="M2 2H14" stroke="#24282B" stroke-width="2" stroke-linecap="round"/>
</svg>
