<svg width="16" height="16" viewBox="0 0 16 16" fill="none" xmlns="http://www.w3.org/2000/svg">
<path d="M14 7C14.5523 7 15 7.44772 15 8C15 8.55228 14.5523 9 14 9V7ZM6 8L5.29289 8.70711C4.90237 8.31658 4.90237 7.68342 5.29289 7.29289L6 8ZM8.29289 4.29289C8.68342 3.90237 9.31658 3.90237 9.70711 4.29289C10.0976 4.68342 10.0976 5.31658 9.70711 5.70711L8.29289 4.29289ZM9.70711 10.2929C10.0976 10.6834 10.0976 11.3166 9.70711 11.7071C9.31658 12.0976 8.68342 12.0976 8.29289 11.7071L9.70711 10.2929ZM14 9H6V7H14V9ZM5.29289 7.29289L8.29289 4.29289L9.70711 5.70711L6.70711 8.70711L5.29289 7.29289ZM6.70711 7.29289L9.70711 10.2929L8.29289 11.7071L5.29289 8.70711L6.70711 7.29289Z" fill="#24282B"/>
<path d="M2 2L2 14" stroke="#24282B" stroke-width="2" stroke-linecap="round"/>
</svg>
