<svg width="16" height="16" viewBox="0 0 16 16" fill="none" xmlns="http://www.w3.org/2000/svg">
<path d="M3 13H2C2 13.5523 2.44772 14 3 14L3 13ZM13 3L14 3C14 2.73478 13.8946 2.48043 13.7071 2.29289C13.5196 2.10536 13.2652 2 13 2L13 3ZM9 2C8.44772 2 8 2.44772 8 3C8 3.55229 8.44771 4 9 4L9 2ZM12 7C12 7.55229 12.4477 8 13 8C13.5523 8 14 7.55229 14 7L12 7ZM4 9C4 8.44772 3.55228 8 3 8C2.44771 8 2 8.44772 2 9L4 9ZM7 14C7.55229 14 8 13.5523 8 13C8 12.4477 7.55229 12 7 12L7 14ZM3.70711 13.7071L13.7071 3.70711L12.2929 2.29289L2.29289 12.2929L3.70711 13.7071ZM13 2L9 2L9 4L13 4L13 2ZM12 3L12 7L14 7L14 3L12 3ZM4 13L4 9L2 9L2 13H4ZM3 14L7 14L7 12L3 12L3 14Z" fill="#24282B"/>
</svg>
