<svg width="16" height="16" viewBox="0 0 16 16" fill="none" xmlns="http://www.w3.org/2000/svg">
<path d="M3.70711 2.29289C3.31658 1.90237 2.68342 1.90237 2.29289 2.29289C1.90237 2.68342 1.90237 3.31658 2.29289 3.70711L3.70711 2.29289ZM14 14V15C14.2652 15 14.5196 14.8946 14.7071 14.7071C14.8946 14.5196 15 14.2652 15 14H14ZM7 13C6.44772 13 6 13.4477 6 14C6 14.5523 6.44772 15 7 15V13ZM15 7C15 6.44772 14.5523 6 14 6C13.4477 6 13 6.44772 13 7H15ZM2.29289 3.70711L13.2929 14.7071L14.7071 13.2929L3.70711 2.29289L2.29289 3.70711ZM14 13L7 13V15L14 15V13ZM15 14V7H13V14H15Z" fill="#24282B"/>
</svg>
