<svg width="16" height="16" viewBox="0 0 16 16" fill="none" xmlns="http://www.w3.org/2000/svg">
<path d="M2 10L1.29289 10.7071C0.902369 10.3166 0.902369 9.68342 1.29289 9.29289L2 10ZM4.29289 6.29289C4.68342 5.90237 5.31658 5.90237 5.70711 6.29289C6.09763 6.68342 6.09763 7.31658 5.70711 7.70711L4.29289 6.29289ZM5.70711 12.2929C6.09763 12.6834 6.09763 13.3166 5.70711 13.7071C5.31658 14.0976 4.68342 14.0976 4.29289 13.7071L5.70711 12.2929ZM9 4C8.44772 4 8 3.55228 8 3C8 2.44772 8.44772 2 9 2V4ZM10.5 11H2V9H10.5V11ZM1.29289 9.29289L4.29289 6.29289L5.70711 7.70711L2.70711 10.7071L1.29289 9.29289ZM2.70711 9.29289L5.70711 12.2929L4.29289 13.7071L1.29289 10.7071L2.70711 9.29289ZM10.5 4H9V2H10.5V4ZM13 6.5C13 5.11929 11.8807 4 10.5 4V2C12.9853 2 15 4.01472 15 6.5H13ZM10.5 9C11.8807 9 13 7.88071 13 6.5H15C15 8.98528 12.9853 11 10.5 11V9Z" fill="#24282B"/>
</svg>
