<svg width="16" height="16" viewBox="0 0 16 16" fill="none" xmlns="http://www.w3.org/2000/svg">
<path d="M8 10L7.29289 10.7071C7.68342 11.0976 8.31658 11.0976 8.70711 10.7071L8 10ZM9 2C9 1.44772 8.55228 1 8 1C7.44772 1 7 1.44772 7 2L9 2ZM5.70711 6.29289C5.31658 5.90237 4.68342 5.90237 4.29289 6.29289C3.90237 6.68342 3.90237 7.31658 4.29289 7.70711L5.70711 6.29289ZM11.7071 7.70711C12.0976 7.31658 12.0976 6.68342 11.7071 6.29289C11.3166 5.90237 10.6834 5.90237 10.2929 6.29289L11.7071 7.70711ZM9 10L9 2L7 2L7 10H9ZM8.70711 9.29289L5.70711 6.29289L4.29289 7.70711L7.29289 10.7071L8.70711 9.29289ZM8.70711 10.7071L11.7071 7.70711L10.2929 6.29289L7.29289 9.29289L8.70711 10.7071Z" fill="#24282B"/>
<path d="M3 12C3 11.4477 2.55228 11 2 11C1.44772 11 1 11.4477 1 12H3ZM15 12C15 11.4477 14.5523 11 14 11C13.4477 11 13 11.4477 13 12H15ZM1 12V13H3V12H1ZM3 15H13V13H3V15ZM15 13V12H13V13H15ZM13 15C14.1046 15 15 14.1046 15 13H13V15ZM1 13C1 14.1046 1.89543 15 3 15V13H1Z" fill="#24282B"/>
</svg>
