<svg width="16" height="16" viewBox="0 0 16 16" fill="none" xmlns="http://www.w3.org/2000/svg">
<path d="M14 10L14.7071 10.7071C15.0976 10.3166 15.0976 9.68342 14.7071 9.29289L14 10ZM11.7071 6.29289C11.3166 5.90237 10.6834 5.90237 10.2929 6.29289C9.90237 6.68342 9.90237 7.31658 10.2929 7.70711L11.7071 6.29289ZM10.2929 12.2929C9.90237 12.6834 9.90237 13.3166 10.2929 13.7071C10.6834 14.0976 11.3166 14.0976 11.7071 13.7071L10.2929 12.2929ZM7 4C7.55228 4 8 3.55228 8 3C8 2.44772 7.55228 2 7 2V4ZM5.5 11H14V9H5.5V11ZM14.7071 9.29289L11.7071 6.29289L10.2929 7.70711L13.2929 10.7071L14.7071 9.29289ZM13.2929 9.29289L10.2929 12.2929L11.7071 13.7071L14.7071 10.7071L13.2929 9.29289ZM5.5 4H7V2H5.5V4ZM3 6.5C3 5.11929 4.11929 4 5.5 4V2C3.01472 2 1 4.01472 1 6.5H3ZM5.5 9C4.11929 9 3 7.88071 3 6.5H1C1 8.98528 3.01472 11 5.5 11V9Z" fill="#24282B"/>
</svg>
