<svg width="16" height="16" viewBox="0 0 16 16" fill="none" xmlns="http://www.w3.org/2000/svg">
<path d="M14 6L14.7071 5.29289C15.0976 5.68342 15.0976 6.31658 14.7071 6.70711L14 6ZM11.7071 9.70711C11.3166 10.0976 10.6834 10.0976 10.2929 9.70711C9.90237 9.31658 9.90237 8.68342 10.2929 8.29289L11.7071 9.70711ZM10.2929 3.70711C9.90237 3.31658 9.90237 2.68342 10.2929 2.29289C10.6834 1.90237 11.3166 1.90237 11.7071 2.29289L10.2929 3.70711ZM7 12C7.55228 12 8 12.4477 8 13C8 13.5523 7.55228 14 7 14V12ZM5.5 5H14V7H5.5V5ZM14.7071 6.70711L11.7071 9.70711L10.2929 8.29289L13.2929 5.29289L14.7071 6.70711ZM13.2929 6.70711L10.2929 3.70711L11.7071 2.29289L14.7071 5.29289L13.2929 6.70711ZM5.5 12H7V14H5.5V12ZM3 9.5C3 10.8807 4.11929 12 5.5 12V14C3.01472 14 1 11.9853 1 9.5H3ZM5.5 7C4.11929 7 3 8.11929 3 9.5H1C1 7.01472 3.01472 5 5.5 5V7Z" fill="#24282B"/>
</svg>
