<svg width="16" height="16" viewBox="0 0 16 16" fill="none" xmlns="http://www.w3.org/2000/svg">
<path d="M5 8L4.29289 7.29289C3.90237 7.68342 3.90237 8.31658 4.29289 8.70711L5 8ZM13 9C13.5523 9 14 8.55228 14 8C14 7.44771 13.5523 7 13 7L13 9ZM7.70711 6.70711C8.09763 6.31658 8.09763 5.68342 7.70711 5.29289C7.31658 4.90237 6.68342 4.90237 6.29289 5.29289L7.70711 6.70711ZM6.29289 10.7071C6.68342 11.0976 7.31658 11.0976 7.70711 10.7071C8.09763 10.3166 8.09763 9.68342 7.70711 9.29289L6.29289 10.7071ZM5 9L13 9L13 7L5 7L5 9ZM5.70711 8.70711L7.70711 6.70711L6.29289 5.29289L4.29289 7.29289L5.70711 8.70711ZM4.29289 8.70711L6.29289 10.7071L7.70711 9.29289L5.70711 7.29289L4.29289 8.70711Z" fill="#24282B"/>
<path d="M11 12C11 11.4477 10.5523 11 10 11C9.44771 11 9 11.4477 9 12L11 12ZM9 4C9 4.55228 9.44771 5 10 5C10.5523 5 11 4.55228 11 4L9 4ZM9 1L3 1L3 3L9 3L9 1ZM1 3L1 13L3 13L3 3L1 3ZM3 15L9 15L9 13L3 13L3 15ZM11 13L11 12L9 12L9 13L11 13ZM9 3L9 4L11 4L11 3L9 3ZM9 15C10.1046 15 11 14.1046 11 13L9 13L9 13L9 15ZM1 13C0.999999 14.1046 1.89543 15 3 15L3 13L1 13ZM3 1C1.89543 1 1 1.89543 1 3L3 3L3 1ZM9 3L11 3C11 1.89543 10.1046 1 9 1L9 3Z" fill="#24282B"/>
</svg>
