<svg width="16" height="16" viewBox="0 0 16 16" fill="none" xmlns="http://www.w3.org/2000/svg">
<path d="M0.292893 14.2929C-0.0976311 14.6834 -0.0976311 15.3166 0.292893 15.7071C0.683417 16.0976 1.31658 16.0976 1.70711 15.7071L0.292893 14.2929ZM5 11H6C6 10.4477 5.55229 10 5 10V11ZM1 10C0.447715 10 0 10.4477 0 11C0 11.5523 0.447715 12 1 12V10ZM4 15C4 15.5523 4.44772 16 5 16C5.55229 16 6 15.5523 6 15H4ZM1.70711 15.7071L5.70711 11.7071L4.29289 10.2929L0.292893 14.2929L1.70711 15.7071ZM5 10H1V12H5V10ZM4 11V15H6V11H4Z" fill="#24282B"/>
<path d="M1.70711 0.292893C1.31658 -0.0976311 0.683417 -0.0976311 0.292893 0.292893C-0.0976311 0.683417 -0.0976311 1.31658 0.292893 1.70711L1.70711 0.292893ZM5 5V6C5.26522 6 5.51957 5.89464 5.70711 5.70711C5.89464 5.51957 6 5.26522 6 5H5ZM1 4C0.447715 4 1.19209e-07 4.44772 0 5C-1.19209e-07 5.55228 0.447715 6 1 6L1 4ZM6 1C6 0.447715 5.55229 0 5 0C4.44772 0 4 0.447715 4 1H6ZM0.292893 1.70711L4.29289 5.70711L5.70711 4.29289L1.70711 0.292893L0.292893 1.70711ZM5 4L1 4L1 6L5 6V4ZM6 5V1H4V5H6Z" fill="#24282B"/>
<path d="M14.2929 15.7071C14.6834 16.0976 15.3166 16.0976 15.7071 15.7071C16.0976 15.3166 16.0976 14.6834 15.7071 14.2929L14.2929 15.7071ZM11 11V10C10.4477 10 10 10.4477 10 11H11ZM15 12C15.5523 12 16 11.5523 16 11C16 10.4477 15.5523 10 15 10V12ZM10 15C10 15.5523 10.4477 16 11 16C11.5523 16 12 15.5523 12 15H10ZM15.7071 14.2929L11.7071 10.2929L10.2929 11.7071L14.2929 15.7071L15.7071 14.2929ZM11 12H15V10H11V12ZM10 11V15H12V11H10Z" fill="#24282B"/>
<path d="M15.7071 1.70711C16.0976 1.31658 16.0976 0.683417 15.7071 0.292893C15.3166 -0.0976311 14.6834 -0.0976311 14.2929 0.292893L15.7071 1.70711ZM11 5H10C10 5.26522 10.1054 5.51957 10.2929 5.70711C10.4804 5.89464 10.7348 6 11 6L11 5ZM15 6C15.5523 6 16 5.55228 16 5C16 4.44772 15.5523 4 15 4L15 6ZM12 1C12 0.447715 11.5523 0 11 0C10.4477 0 10 0.447715 10 1H12ZM14.2929 0.292893L10.2929 4.29289L11.7071 5.70711L15.7071 1.70711L14.2929 0.292893ZM11 6L15 6L15 4L11 4L11 6ZM12 5V1H10V5H12Z" fill="#24282B"/>
</svg>
