<svg width="16" height="16" viewBox="0 0 16 16" fill="none" xmlns="http://www.w3.org/2000/svg">
<path d="M8 14L8.70711 14.7071C8.31658 15.0976 7.68342 15.0976 7.29289 14.7071L8 14ZM10.2929 10.2929C10.6834 9.90237 11.3166 9.90237 11.7071 10.2929C12.0976 10.6834 12.0976 11.3166 11.7071 11.7071L10.2929 10.2929ZM4.29289 11.7071C3.90237 11.3166 3.90237 10.6834 4.29289 10.2929C4.68342 9.90237 5.31658 9.90237 5.70711 10.2929L4.29289 11.7071ZM7.29289 13.2929L10.2929 10.2929L11.7071 11.7071L8.70711 14.7071L7.29289 13.2929ZM7.29289 14.7071L4.29289 11.7071L5.70711 10.2929L8.70711 13.2929L7.29289 14.7071Z" fill="#24282B"/>
<path d="M5 1C4.44772 1 4 1.44772 4 2C4 2.55228 4.44772 3 5 3V1ZM11 3C11.5523 3 12 2.55228 12 2C12 1.44772 11.5523 1 11 1V3ZM5 3L11 3V1L5 1V3Z" fill="#24282B"/>
</svg>
