<svg width="16" height="16" viewBox="0 0 16 16" fill="none" xmlns="http://www.w3.org/2000/svg">
<path d="M8 2L8.70711 1.29289C8.31658 0.902369 7.68342 0.902369 7.29289 1.29289L8 2ZM10.2929 5.70711C10.6834 6.09763 11.3166 6.09763 11.7071 5.70711C12.0976 5.31658 12.0976 4.68342 11.7071 4.29289L10.2929 5.70711ZM4.29289 4.29289C3.90237 4.68342 3.90237 5.31658 4.29289 5.70711C4.68342 6.09763 5.31658 6.09763 5.70711 5.70711L4.29289 4.29289ZM7.29289 2.70711L10.2929 5.70711L11.7071 4.29289L8.70711 1.29289L7.29289 2.70711ZM7.29289 1.29289L4.29289 4.29289L5.70711 5.70711L8.70711 2.70711L7.29289 1.29289Z" fill="#24282B"/>
<path d="M5 13C4.44772 13 4 13.4477 4 14C4 14.5523 4.44772 15 5 15V13ZM11 15C11.5523 15 12 14.5523 12 14C12 13.4477 11.5523 13 11 13V15ZM5 15L11 15V13L5 13V15Z" fill="#24282B"/>
</svg>
