<svg xmlns="http://www.w3.org/2000/svg" xmlns:xlink="http://www.w3.org/1999/xlink"><defs><symbol id="debug" viewBox="0 0 16 16" fill="none" stroke="currentColor" stroke-width="2" stroke-linecap="round" stroke-linejoin="round"><rect x="2" y="5" width="12" height="9" stroke="#24282B" stroke-width="2" stroke-linecap="round" stroke-linejoin="round"/></symbol>
<symbol id="abc" viewBox="0 0 16 16" fill="none" stroke="currentColor" stroke-width="2" stroke-linecap="round" stroke-linejoin="round"><path d="M2 2H12V12M2 2V12H12M2 2L12 12" stroke="#24282B" stroke-width="2" stroke-linecap="round" stroke-linejoin="round"/></symbol>
<symbol id="arrow-up-right" viewBox="0 0 16 16" fill="none" stroke="currentColor" stroke-width="2" stroke-linecap="round" stroke-linejoin="round"><path d="M3 13L14 2M14 2V9M14 2H7" stroke="#24282B" stroke-width="2" stroke-linecap="round" stroke-linejoin="round"/></symbol>
<symbol id="arrow-up-left" viewBox="0 0 16 16" fill="none" stroke="currentColor" stroke-width="2" stroke-linecap="round" stroke-linejoin="round"><path d="M2 2L13 13M2 2H9M2 2V9" stroke="#24282B" stroke-width="2" stroke-linecap="round" stroke-linejoin="round"/></symbol>
<symbol id="arrow-up" viewBox="0 0 16 16" fill="none" stroke="currentColor" stroke-width="2" stroke-linecap="round" stroke-linejoin="round"><path d="M8 14V2M8 2L3 7M8 2L13 7" stroke="#24282B" stroke-width="2" stroke-linecap="round" stroke-linejoin="round"/></symbol>
<symbol id="arrow-right" viewBox="0 0 16 16" fill="none" stroke="currentColor" stroke-width="2" stroke-linecap="round" stroke-linejoin="round"><path d="M9 3L14 8M14 8L9 13M14 8H2" stroke="#24282B" stroke-width="2" stroke-linecap="round" stroke-linejoin="round"/></symbol>
<symbol id="arrow-left" viewBox="0 0 16 16" fill="none" stroke="currentColor" stroke-width="2" stroke-linecap="round" stroke-linejoin="round"><path d="M14 8H2M2 8L7 3M2 8L7 13" stroke="#24282B" stroke-width="2" stroke-linecap="round" stroke-linejoin="round"/></symbol>
<symbol id="arrow-down-right" viewBox="0 0 16 16" fill="none" stroke="currentColor" stroke-width="2" stroke-linecap="round" stroke-linejoin="round"><path d="M14 7V14M14 14H7M14 14L3 3" stroke="#24282B" stroke-width="2" stroke-linecap="round" stroke-linejoin="round"/></symbol>
<symbol id="arrow-down-left" viewBox="0 0 16 16" fill="none" stroke="currentColor" stroke-width="2" stroke-linecap="round" stroke-linejoin="round"><path d="M13 3L2 14M2 14V7M2 14H9" stroke="#24282B" stroke-width="2" stroke-linecap="round" stroke-linejoin="round"/></symbol>
<symbol id="arrow-down" viewBox="0 0 16 16" fill="none" stroke="currentColor" stroke-width="2" stroke-linecap="round" stroke-linejoin="round"><path d="M8 2V14M8 14L13 9M8 14L3 9" stroke="#24282B" stroke-width="2" stroke-linecap="round" stroke-linejoin="round"/></symbol></defs></svg>