<svg xmlns="http://www.w3.org/2000/svg" xmlns:xlink="http://www.w3.org/1999/xlink"><defs><symbol id="debug" viewBox="0 0 16 16" fill="none" stroke="currentColor" stroke-width="2" stroke-linecap="round" stroke-linejoin="round"><line x1="2" y1="7" x2="14" y2="7" stroke="black" stroke-width="2" stroke-linecap="round" stroke-linejoin="round"/></symbol><symbol id="debug2" viewBox="0 0 16 16" fill="none" stroke="currentColor" stroke-width="2" stroke-linecap="round" stroke-linejoin="round"><path fill-rule="evenodd" clip-rule="evenodd" d="M15 8H1V6H15V8Z" fill="black"/></symbol><symbol id="abc" viewBox="0 0 16 16" fill="none" stroke="currentColor" stroke-width="2" stroke-linecap="round" stroke-linejoin="round"><path fill-rule="evenodd" clip-rule="evenodd" d="M1 2C1 1.44772 1.44772 1 2 1H12C12.5523 1 13 1.44772 13 2V12C13 12.5523 12.5523 13 12 13H2C1.44772 13 1 12.5523 1 12V2ZM4.41421 3L11 9.58579V3H4.41421ZM9.58579 11L3 4.41421V11H9.58579Z" fill="#24282B"/></symbol><symbol id="arrow-up-right" viewBox="0 0 16 16" fill="none" stroke="currentColor" stroke-width="2" stroke-linecap="round" stroke-linejoin="round"><path d="M3 13L14 2M14 2V9M14 2H7" stroke="#24282B" stroke-width="2" stroke-linecap="round" stroke-linejoin="round"/></symbol><symbol id="arrow-up-left" viewBox="0 0 16 16" fill="none" stroke="currentColor" stroke-width="2" stroke-linecap="round" stroke-linejoin="round"><path d="M2 2L13 13M2 2H9M2 2V9" stroke="#24282B" stroke-width="2" stroke-linecap="round" stroke-linejoin="round"/></symbol><symbol id="arrow-up" viewBox="0 0 16 16" fill="none" stroke="currentColor" stroke-width="2" stroke-linecap="round" stroke-linejoin="round"><path d="M8 14V2M8 2L3 7M8 2L13 7" stroke="#24282B" stroke-width="2" stroke-linecap="round" stroke-linejoin="round"/></symbol><symbol id="arrow-right" viewBox="0 0 16 16" fill="none" stroke="currentColor" stroke-width="2" stroke-linecap="round" stroke-linejoin="round"><path d="M9 3L14 8M14 8L9 13M14 8H2" stroke="#24282B" stroke-width="2" stroke-linecap="round" stroke-linejoin="round"/></symbol><symbol id="arrow-left" viewBox="0 0 16 16" fill="none" stroke="currentColor" stroke-width="2" stroke-linecap="round" stroke-linejoin="round"><path d="M14 8H2M2 8L7 3M2 8L7 13" stroke="#24282B" stroke-width="2" stroke-linecap="round" stroke-linejoin="round"/></symbol><symbol id="arrow-down-right" viewBox="0 0 16 16" fill="none" stroke="currentColor" stroke-width="2" stroke-linecap="round" stroke-linejoin="round"><path d="M14 7V14M14 14H7M14 14L3 3" stroke="#24282B" stroke-width="2" stroke-linecap="round" stroke-linejoin="round"/></symbol><symbol id="arrow-down-left" viewBox="0 0 16 16" fill="none" stroke="currentColor" stroke-width="2" stroke-linecap="round" stroke-linejoin="round"><path d="M13 3L2 14M2 14V7M2 14H9" stroke="#24282B" stroke-width="2" stroke-linecap="round" stroke-linejoin="round"/></symbol><symbol id="arrow-down" viewBox="0 0 16 16" fill="none" stroke="currentColor" stroke-width="2" stroke-linecap="round" stroke-linejoin="round"><path d="M8 2V14M8 14L13 9M8 14L3 9" stroke="#24282B" stroke-width="2" stroke-linecap="round" stroke-linejoin="round"/></symbol></defs></svg>