<?xml version="1.0" encoding="UTF-8"?><!DOCTYPE svg PUBLIC "-//W3C//DTD SVG 1.1//EN" "http://www.w3.org/Graphics/SVG/1.1/DTD/svg11.dtd"><svg xmlns="http://www.w3.org/2000/svg" xmlns:xlink="http://www.w3.org/1999/xlink"><defs/><symbol id="upload" viewBox="0 0 16 16">
<path d="M8 2L8.70711 1.29289C8.31658 0.902369 7.68342 0.902369 7.29289 1.29289L8 2ZM7 10C7 10.5523 7.44772 11 8 11C8.55228 11 9 10.5523 9 10H7ZM10.2929 5.70711C10.6834 6.09763 11.3166 6.09763 11.7071 5.70711C12.0976 5.31658 12.0976 4.68342 11.7071 4.29289L10.2929 5.70711ZM4.29289 4.29289C3.90237 4.68342 3.90237 5.31658 4.29289 5.70711C4.68342 6.09763 5.31658 6.09763 5.70711 5.70711L4.29289 4.29289ZM7 2V10H9V2H7ZM7.29289 2.70711L10.2929 5.70711L11.7071 4.29289L8.70711 1.29289L7.29289 2.70711ZM7.29289 1.29289L4.29289 4.29289L5.70711 5.70711L8.70711 2.70711L7.29289 1.29289Z" fill="#24282B"/>
<path d="M3 12C3 11.4477 2.55228 11 2 11C1.44772 11 1 11.4477 1 12H3ZM15 12C15 11.4477 14.5523 11 14 11C13.4477 11 13 11.4477 13 12H15ZM1 12V13H3V12H1ZM3 15H13V13H3V15ZM15 13V12H13V13H15ZM13 15C14.1046 15 15 14.1046 15 13H13V15ZM1 13C1 14.1046 1.89543 15 3 15V13H1Z" fill="#24282B"/>
</symbol><symbol id="undo" viewBox="0 0 16 16">
<path d="M3 11.0588C3.5 12.5 5.23858 14 8 14C10.7614 14 13 11.7878 13 9.05882C13 6.32989 10.7614 4.11765 8 4.11765H4.42857M4.42857 4.11765L6.57143 2M4.42857 4.11765L6.57143 6.23529" stroke="#24282B" stroke-width="2" stroke-linecap="round" stroke-linejoin="round"/>
</symbol><symbol id="switch-horizontal" viewBox="0 0 16 16">
<path d="M2 12L1.29289 11.2929C0.902369 11.6834 0.902369 12.3166 1.29289 12.7071L2 12ZM10 13C10.5523 13 11 12.5523 11 12C11 11.4477 10.5523 11 10 11V13ZM5.70711 9.70711C6.09763 9.31658 6.09763 8.68342 5.70711 8.29289C5.31658 7.90237 4.68342 7.90237 4.29289 8.29289L5.70711 9.70711ZM4.29289 15.7071C4.68342 16.0976 5.31658 16.0976 5.70711 15.7071C6.09763 15.3166 6.09763 14.6834 5.70711 14.2929L4.29289 15.7071ZM2 13H10V11H2V13ZM2.70711 12.7071L5.70711 9.70711L4.29289 8.29289L1.29289 11.2929L2.70711 12.7071ZM1.29289 12.7071L4.29289 15.7071L5.70711 14.2929L2.70711 11.2929L1.29289 12.7071Z" fill="#24282B"/>
<path d="M7 3C6.44772 3 6 3.44772 6 4C6 4.55228 6.44772 5 7 5V3ZM14 4L14.7071 4.70711C15.0976 4.31658 15.0976 3.68342 14.7071 3.29289L14 4ZM11.7071 0.292893C11.3166 -0.0976311 10.6834 -0.0976311 10.2929 0.292893C9.90237 0.683417 9.90237 1.31658 10.2929 1.70711L11.7071 0.292893ZM10.2929 6.29289C9.90237 6.68342 9.90237 7.31658 10.2929 7.70711C10.6834 8.09763 11.3166 8.09763 11.7071 7.70711L10.2929 6.29289ZM7 5H14V3H7V5ZM14.7071 3.29289L11.7071 0.292893L10.2929 1.70711L13.2929 4.70711L14.7071 3.29289ZM13.2929 3.29289L10.2929 6.29289L11.7071 7.70711L14.7071 4.70711L13.2929 3.29289Z" fill="#24282B"/>
</symbol><symbol id="sort-up" viewBox="0 0 16 16">
<path d="M8 2L8.70711 1.29289C8.31658 0.902369 7.68342 0.902369 7.29289 1.29289L8 2ZM10.2929 5.70711C10.6834 6.09763 11.3166 6.09763 11.7071 5.70711C12.0976 5.31658 12.0976 4.68342 11.7071 4.29289L10.2929 5.70711ZM4.29289 4.29289C3.90237 4.68342 3.90237 5.31658 4.29289 5.70711C4.68342 6.09763 5.31658 6.09763 5.70711 5.70711L4.29289 4.29289ZM7.29289 2.70711L10.2929 5.70711L11.7071 4.29289L8.70711 1.29289L7.29289 2.70711ZM7.29289 1.29289L4.29289 4.29289L5.70711 5.70711L8.70711 2.70711L7.29289 1.29289Z" fill="#24282B"/>
<path d="M5 13C4.44772 13 4 13.4477 4 14C4 14.5523 4.44772 15 5 15V13ZM11 15C11.5523 15 12 14.5523 12 14C12 13.4477 11.5523 13 11 13V15ZM5 15L11 15V13L5 13V15Z" fill="#24282B"/>
</symbol><symbol id="sort-desc" viewBox="0 0 16 16">
<path d="M8 14L8.70711 14.7071C8.31658 15.0976 7.68342 15.0976 7.29289 14.7071L8 14ZM10.2929 10.2929C10.6834 9.90237 11.3166 9.90237 11.7071 10.2929C12.0976 10.6834 12.0976 11.3166 11.7071 11.7071L10.2929 10.2929ZM4.29289 11.7071C3.90237 11.3166 3.90237 10.6834 4.29289 10.2929C4.68342 9.90237 5.31658 9.90237 5.70711 10.2929L4.29289 11.7071ZM7.29289 13.2929L10.2929 10.2929L11.7071 11.7071L8.70711 14.7071L7.29289 13.2929ZM7.29289 14.7071L4.29289 11.7071L5.70711 10.2929L8.70711 13.2929L7.29289 14.7071Z" fill="#24282B"/>
<path d="M5 1C4.44772 1 4 1.44772 4 2C4 2.55228 4.44772 3 5 3V1ZM11 3C11.5523 3 12 2.55228 12 2C12 1.44772 11.5523 1 11 1V3ZM5 3L11 3V1L5 1V3Z" fill="#24282B"/>
</symbol><symbol id="sort" viewBox="0 0 16 16">
<path d="M8 2L8.70711 1.29289C8.31658 0.902369 7.68342 0.902369 7.29289 1.29289L8 2ZM10.2929 5.70711C10.6834 6.09763 11.3166 6.09763 11.7071 5.70711C12.0976 5.31658 12.0976 4.68342 11.7071 4.29289L10.2929 5.70711ZM4.29289 4.29289C3.90237 4.68342 3.90237 5.31658 4.29289 5.70711C4.68342 6.09763 5.31658 6.09763 5.70711 5.70711L4.29289 4.29289ZM7.29289 2.70711L10.2929 5.70711L11.7071 4.29289L8.70711 1.29289L7.29289 2.70711ZM7.29289 1.29289L4.29289 4.29289L5.70711 5.70711L8.70711 2.70711L7.29289 1.29289Z" fill="#24282B"/>
<path d="M8 14L8.70711 14.7071C8.31658 15.0976 7.68342 15.0976 7.29289 14.7071L8 14ZM10.2929 10.2929C10.6834 9.90237 11.3166 9.90237 11.7071 10.2929C12.0976 10.6834 12.0976 11.3166 11.7071 11.7071L10.2929 10.2929ZM4.29289 11.7071C3.90237 11.3166 3.90237 10.6834 4.29289 10.2929C4.68342 9.90237 5.31658 9.90237 5.70711 10.2929L4.29289 11.7071ZM7.29289 13.2929L10.2929 10.2929L11.7071 11.7071L8.70711 14.7071L7.29289 13.2929ZM7.29289 14.7071L4.29289 11.7071L5.70711 10.2929L8.70711 13.2929L7.29289 14.7071Z" fill="#24282B"/>
</symbol><symbol id="sync" viewBox="0 0 16 16">
<path d="M3 6V2.57143M3 6H5.94117M3 6C3.53498 3.70973 5.7746 2 8.29412 2C10.3728 2 12.1337 3.16375 13 4.85714" stroke="#24282B" stroke-width="2" stroke-linecap="round" stroke-linejoin="round"/>
<path d="M13 10V12.8571M13 10H10.6471M13 10C12.465 12.2903 10.2254 14 7.70588 14C5.62723 14 3.8663 12.8362 3 11.1429" stroke="#24282B" stroke-width="2" stroke-linecap="round" stroke-linejoin="round"/>
</symbol><symbol id="redo" viewBox="0 0 16 16">
<path d="M13 11.0588C12.5 12.5 10.7614 14 8 14C5.23858 14 3 11.7878 3 9.05882C3 6.32989 5.23858 4.11765 8 4.11765H11.5714M11.5714 4.11765L9.42857 2M11.5714 4.11765L9.42857 6.23529" stroke="#24282B" stroke-width="2" stroke-linecap="round" stroke-linejoin="round"/>
</symbol><symbol id="parent" viewBox="0 0 16 16">
<path d="M3.5 14C4.32843 14 5 13.3284 5 12.5C5 11.6716 4.32843 11 3.5 11C2.67157 11 2 11.6716 2 12.5C2 13.3284 2.67157 14 3.5 14Z" stroke="#24282B" stroke-width="2" stroke-linecap="round" stroke-linejoin="round"/>
<path d="M3.5 5C4.32843 5 5 4.32843 5 3.5C5 2.67157 4.32843 2 3.5 2C2.67157 2 2 2.67157 2 3.5C2 4.32843 2.67157 5 3.5 5Z" stroke="#24282B" stroke-width="2" stroke-linecap="round" stroke-linejoin="round"/>
<path d="M11.5 14C12.3284 14 13 13.3284 13 12.5C13 11.6716 12.3284 11 11.5 11C10.6716 11 10 11.6716 10 12.5C10 13.3284 10.6716 14 11.5 14Z" stroke="#24282B" stroke-width="2" stroke-linecap="round" stroke-linejoin="round"/>
<path d="M3.5 5V10.3333" stroke="#24282B" stroke-width="2" stroke-linecap="round" stroke-linejoin="round"/>
<path d="M3.5 5L3.72147 6.3288C3.8822 7.29317 4.71658 8 5.69425 8H9.5C10.6046 8 11.5 8.89543 11.5 10V11" stroke="#24282B" stroke-width="2" stroke-linecap="round" stroke-linejoin="round"/>
</symbol><symbol id="open" viewBox="0 0 16 16">
<path d="M3 1C1.89543 1 1 1.89543 1 3V13C1 14.1046 1.89543 15 3 15H13C14.1046 15 15 14.1046 15 13V10C15 9.44772 14.5523 9 14 9C13.4477 9 13 9.44772 13 10V13H3V3L6 3C6.55228 3 7 2.55228 7 2C7 1.44772 6.55228 1 6 1H3Z" fill="#24282B"/>
<path d="M10 1C9.44771 1 9 1.44772 9 2C9 2.55228 9.44771 3 10 3H11.5858L7.79289 6.79289C7.40237 7.18342 7.40237 7.81658 7.79289 8.20711C8.18342 8.59763 8.81658 8.59763 9.20711 8.20711L13 4.41421V6C13 6.55228 13.4477 7 14 7C14.5523 7 15 6.55228 15 6V2C15 1.44772 14.5523 1 14 1H10Z" fill="#24282B"/>
</symbol><symbol id="minimize" viewBox="0 0 16 16">
<path d="M0.292893 14.2929C-0.0976311 14.6834 -0.0976311 15.3166 0.292893 15.7071C0.683417 16.0976 1.31658 16.0976 1.70711 15.7071L0.292893 14.2929ZM5 11H6C6 10.4477 5.55229 10 5 10V11ZM1 10C0.447715 10 0 10.4477 0 11C0 11.5523 0.447715 12 1 12V10ZM4 15C4 15.5523 4.44772 16 5 16C5.55229 16 6 15.5523 6 15H4ZM1.70711 15.7071L5.70711 11.7071L4.29289 10.2929L0.292893 14.2929L1.70711 15.7071ZM5 10H1V12H5V10ZM4 11V15H6V11H4Z" fill="#24282B"/>
<path d="M1.70711 0.292893C1.31658 -0.0976311 0.683417 -0.0976311 0.292893 0.292893C-0.0976311 0.683417 -0.0976311 1.31658 0.292893 1.70711L1.70711 0.292893ZM5 5V6C5.26522 6 5.51957 5.89464 5.70711 5.70711C5.89464 5.51957 6 5.26522 6 5H5ZM1 4C0.447715 4 1.19209e-07 4.44772 0 5C-1.19209e-07 5.55228 0.447715 6 1 6L1 4ZM6 1C6 0.447715 5.55229 0 5 0C4.44772 0 4 0.447715 4 1H6ZM0.292893 1.70711L4.29289 5.70711L5.70711 4.29289L1.70711 0.292893L0.292893 1.70711ZM5 4L1 4L1 6L5 6V4ZM6 5V1H4V5H6Z" fill="#24282B"/>
<path d="M14.2929 15.7071C14.6834 16.0976 15.3166 16.0976 15.7071 15.7071C16.0976 15.3166 16.0976 14.6834 15.7071 14.2929L14.2929 15.7071ZM11 11V10C10.4477 10 10 10.4477 10 11H11ZM15 12C15.5523 12 16 11.5523 16 11C16 10.4477 15.5523 10 15 10V12ZM10 15C10 15.5523 10.4477 16 11 16C11.5523 16 12 15.5523 12 15H10ZM15.7071 14.2929L11.7071 10.2929L10.2929 11.7071L14.2929 15.7071L15.7071 14.2929ZM11 12H15V10H11V12ZM10 11V15H12V11H10Z" fill="#24282B"/>
<path d="M15.7071 1.70711C16.0976 1.31658 16.0976 0.683417 15.7071 0.292893C15.3166 -0.0976311 14.6834 -0.0976311 14.2929 0.292893L15.7071 1.70711ZM11 5H10C10 5.26522 10.1054 5.51957 10.2929 5.70711C10.4804 5.89464 10.7348 6 11 6L11 5ZM15 6C15.5523 6 16 5.55228 16 5C16 4.44772 15.5523 4 15 4L15 6ZM12 1C12 0.447715 11.5523 0 11 0C10.4477 0 10 0.447715 10 1H12ZM14.2929 0.292893L10.2929 4.29289L11.7071 5.70711L15.7071 1.70711L14.2929 0.292893ZM11 6L15 6L15 4L11 4L11 6ZM12 5V1H10V5H12Z" fill="#24282B"/>
</symbol><symbol id="maximize" viewBox="0 0 16 16">
<path d="M10.7071 9.29289C10.3166 8.90237 9.68342 8.90237 9.29289 9.29289C8.90237 9.68342 8.90237 10.3166 9.29289 10.7071L10.7071 9.29289ZM14 14L14 15C14.2652 15 14.5196 14.8946 14.7071 14.7071C14.8946 14.5196 15 14.2652 15 14H14ZM10 13C9.44772 13 9 13.4477 9 14C9 14.5523 9.44771 15 10 15L10 13ZM15 10C15 9.44772 14.5523 9 14 9C13.4477 9 13 9.44772 13 10H15ZM9.29289 10.7071L13.2929 14.7071L14.7071 13.2929L10.7071 9.29289L9.29289 10.7071ZM14 13L10 13L10 15L14 15L14 13ZM15 14V10H13V14H15Z" fill="#24282B"/>
<path d="M5.70711 11.7071C6.09763 11.3166 6.09763 10.6834 5.70711 10.2929C5.31658 9.90237 4.68342 9.90237 4.29289 10.2929L5.70711 11.7071ZM2 14H1C1 14.2652 1.10536 14.5196 1.29289 14.7071C1.48043 14.8946 1.73478 15 2 15L2 14ZM6 15C6.55229 15 7 14.5523 7 14C7 13.4477 6.55228 13 6 13L6 15ZM3 10C3 9.44772 2.55228 9 2 9C1.44772 9 1 9.44772 1 10H3ZM4.29289 10.2929L1.29289 13.2929L2.70711 14.7071L5.70711 11.7071L4.29289 10.2929ZM2 15L6 15L6 13L2 13L2 15ZM3 14V10H1V14H3Z" fill="#24282B"/>
<path d="M10.2929 4.29289C9.90237 4.68342 9.90237 5.31658 10.2929 5.70711C10.6834 6.09763 11.3166 6.09763 11.7071 5.70711L10.2929 4.29289ZM14 2H15C15 1.44772 14.5523 1 14 1V2ZM10 1C9.44772 1 9 1.44772 9 2C9 2.55228 9.44772 3 10 3V1ZM13 6C13 6.55229 13.4477 7 14 7C14.5523 7 15 6.55229 15 6H13ZM11.7071 5.70711L14.7071 2.70711L13.2929 1.29289L10.2929 4.29289L11.7071 5.70711ZM14 1H10V3H14V1ZM13 2V6H15V2H13Z" fill="#24282B"/>
<path d="M5.29289 6.70711C5.68342 7.09763 6.31658 7.09763 6.70711 6.70711C7.09763 6.31658 7.09763 5.68342 6.70711 5.29289L5.29289 6.70711ZM2 2V1C1.44772 1 1 1.44772 1 2H2ZM6 3C6.55228 3 7 2.55228 7 2C7 1.44772 6.55228 1 6 1V3ZM1 6C1 6.55229 1.44772 7 2 7C2.55228 7 3 6.55229 3 6H1ZM6.70711 5.29289L2.70711 1.29289L1.29289 2.70711L5.29289 6.70711L6.70711 5.29289ZM2 3H6V1H2V3ZM1 2V6H3V2H1Z" fill="#24282B"/>
</symbol><symbol id="logout" viewBox="0 0 16 16">
<path d="M14 8L14.7071 8.70711C15.0976 8.31658 15.0976 7.68342 14.7071 7.29289L14 8ZM6 7C5.44771 7 5 7.44771 5 8C5 8.55228 5.44771 9 6 9L6 7ZM11.2929 9.29289C10.9024 9.68342 10.9024 10.3166 11.2929 10.7071C11.6834 11.0976 12.3166 11.0976 12.7071 10.7071L11.2929 9.29289ZM12.7071 5.29289C12.3166 4.90237 11.6834 4.90237 11.2929 5.29289C10.9024 5.68342 10.9024 6.31658 11.2929 6.70711L12.7071 5.29289ZM14 7L6 7L6 9L14 9L14 7ZM13.2929 7.29289L11.2929 9.29289L12.7071 10.7071L14.7071 8.70711L13.2929 7.29289ZM14.7071 7.29289L12.7071 5.29289L11.2929 6.70711L13.2929 8.70711L14.7071 7.29289Z" fill="#24282B"/>
<path d="M10 12C10 11.4477 9.55228 11 9 11C8.44771 11 8 11.4477 8 12L10 12ZM8 4C8 4.55228 8.44771 5 9 5C9.55228 5 10 4.55228 10 4L8 4ZM8 1L3 1L3 3L8 3L8 1ZM1 3L1 13L3 13L3 3L1 3ZM3 15L8 15L8 13L3 13L3 15ZM10 13L10 12L8 12L8 13L10 13ZM8 3L8 4L10 4L10 3L8 3ZM8 15C9.10457 15 10 14.1046 10 13L8 13L8 13L8 15ZM1 13C0.999999 14.1046 1.89543 15 3 15L3 13L1 13ZM3 1C1.89543 1 1 1.89543 1 3L3 3L3 3L3 1ZM8 3L10 3C10 1.89543 9.10457 1 8 1L8 3Z" fill="#24282B"/>
</symbol><symbol id="login" viewBox="0 0 16 16">
<path d="M5 8L4.29289 7.29289C3.90237 7.68342 3.90237 8.31658 4.29289 8.70711L5 8ZM13 9C13.5523 9 14 8.55228 14 8C14 7.44771 13.5523 7 13 7L13 9ZM7.70711 6.70711C8.09763 6.31658 8.09763 5.68342 7.70711 5.29289C7.31658 4.90237 6.68342 4.90237 6.29289 5.29289L7.70711 6.70711ZM6.29289 10.7071C6.68342 11.0976 7.31658 11.0976 7.70711 10.7071C8.09763 10.3166 8.09763 9.68342 7.70711 9.29289L6.29289 10.7071ZM5 9L13 9L13 7L5 7L5 9ZM5.70711 8.70711L7.70711 6.70711L6.29289 5.29289L4.29289 7.29289L5.70711 8.70711ZM4.29289 8.70711L6.29289 10.7071L7.70711 9.29289L5.70711 7.29289L4.29289 8.70711Z" fill="#24282B"/>
<path d="M11 12C11 11.4477 10.5523 11 10 11C9.44771 11 9 11.4477 9 12L11 12ZM9 4C9 4.55228 9.44771 5 10 5C10.5523 5 11 4.55228 11 4L9 4ZM9 1L3 1L3 3L9 3L9 1ZM1 3L1 13L3 13L3 3L1 3ZM3 15L9 15L9 13L3 13L3 15ZM11 13L11 12L9 12L9 13L11 13ZM9 3L9 4L11 4L11 3L9 3ZM9 15C10.1046 15 11 14.1046 11 13L9 13L9 13L9 15ZM1 13C0.999999 14.1046 1.89543 15 3 15L3 13L1 13ZM3 1C1.89543 1 1 1.89543 1 3L3 3L3 1ZM9 3L11 3C11 1.89543 10.1046 1 9 1L9 3Z" fill="#24282B"/>
</symbol><symbol id="git-pull-request" viewBox="0 0 16 16">
<path d="M3.5 14C4.32843 14 5 13.3284 5 12.5C5 11.6716 4.32843 11 3.5 11C2.67157 11 2 11.6716 2 12.5C2 13.3284 2.67157 14 3.5 14Z" stroke="#24282B" stroke-width="2" stroke-linecap="round" stroke-linejoin="round"/>
<path d="M3.5 5C4.32843 5 5 4.32843 5 3.5C5 2.67157 4.32843 2 3.5 2C2.67157 2 2 2.67157 2 3.5C2 4.32843 2.67157 5 3.5 5Z" stroke="#24282B" stroke-width="2" stroke-linecap="round" stroke-linejoin="round"/>
<path d="M12.5 14C13.3284 14 14 13.3284 14 12.5C14 11.6716 13.3284 11 12.5 11C11.6716 11 11 11.6716 11 12.5C11 13.3284 11.6716 14 12.5 14Z" stroke="#24282B" stroke-width="2" stroke-linecap="round" stroke-linejoin="round"/>
<path d="M3.5 5V11" stroke="#24282B" stroke-width="2" stroke-linecap="round" stroke-linejoin="round"/>
<path d="M7.5 4.5H12.5V11M7.5 4.5L9.99999 7M7.5 4.5L9.99999 2" stroke="#24282B" stroke-width="2" stroke-linecap="round" stroke-linejoin="round"/>
</symbol><symbol id="git-merge" viewBox="0 0 16 16">
<path d="M3.5 14C4.32843 14 5 13.3284 5 12.5C5 11.6716 4.32843 11 3.5 11C2.67157 11 2 11.6716 2 12.5C2 13.3284 2.67157 14 3.5 14Z" stroke="#24282B" stroke-width="2" stroke-linecap="round" stroke-linejoin="round"/>
<path d="M3.5 5C4.32843 5 5 4.32843 5 3.5C5 2.67157 4.32843 2 3.5 2C2.67157 2 2 2.67157 2 3.5C2 4.32843 2.67157 5 3.5 5Z" stroke="#24282B" stroke-width="2" stroke-linecap="round" stroke-linejoin="round"/>
<path d="M11.5 9.5C12.3284 9.5 13 8.82843 13 8C13 7.17157 12.3284 6.5 11.5 6.5C10.6716 6.5 10 7.17157 10 8C10 8.82843 10.6716 9.5 11.5 9.5Z" stroke="#24282B" stroke-width="2" stroke-linecap="round" stroke-linejoin="round"/>
<path d="M3.5 5V10.3333" stroke="#24282B" stroke-width="2" stroke-linecap="round" stroke-linejoin="round"/>
<path d="M3.5 5L4.50077 6.20092C5.45074 7.34088 6.85798 8 8.34188 8H10" stroke="#24282B" stroke-width="2" stroke-linecap="round" stroke-linejoin="round"/>
</symbol><symbol id="git-fork" viewBox="0 0 16 16">
<path d="M8 14C8.82843 14 9.5 13.3284 9.5 12.5C9.5 11.6716 8.82843 11 8 11C7.17157 11 6.5 11.6716 6.5 12.5C6.5 13.3284 7.17157 14 8 14Z" stroke="#24282B" stroke-width="2" stroke-linecap="round" stroke-linejoin="round"/>
<path d="M3.5 5C4.32843 5 5 4.32843 5 3.5C5 2.67157 4.32843 2 3.5 2C2.67157 2 2 2.67157 2 3.5C2 4.32843 2.67157 5 3.5 5Z" stroke="#24282B" stroke-width="2" stroke-linecap="round" stroke-linejoin="round"/>
<path d="M12.5 5C13.3284 5 14 4.32843 14 3.5C14 2.67157 13.3284 2 12.5 2C11.6716 2 11 2.67157 11 3.5C11 4.32843 11.6716 5 12.5 5Z" stroke="#24282B" stroke-width="2" stroke-linecap="round" stroke-linejoin="round"/>
<path d="M3.5 5V8H12.5V5M8 8V11" stroke="#24282B" stroke-width="2" stroke-linecap="round" stroke-linejoin="round"/>
</symbol><symbol id="git-compare" viewBox="0 0 16 16">
<path d="M3.5 5C4.32843 5 5 4.32843 5 3.5C5 2.67157 4.32843 2 3.5 2C2.67157 2 2 2.67157 2 3.5C2 4.32843 2.67157 5 3.5 5Z" stroke="#24282B" stroke-width="2" stroke-linecap="round" stroke-linejoin="round"/>
<path d="M12.5 14C13.3284 14 14 13.3284 14 12.5C14 11.6716 13.3284 11 12.5 11C11.6716 11 11 11.6716 11 12.5C11 13.3284 11.6716 14 12.5 14Z" stroke="#24282B" stroke-width="2" stroke-linecap="round" stroke-linejoin="round"/>
<path d="M8.5 11.5H3.5V5.33334M8.5 11.5L6.00001 9M8.5 11.5L6.00001 14" stroke="#24282B" stroke-width="2" stroke-linecap="round" stroke-linejoin="round"/>
<path d="M7.5 4.5H12.5V11M7.5 4.5L9.99999 7M7.5 4.5L9.99999 2" stroke="#24282B" stroke-width="2" stroke-linecap="round" stroke-linejoin="round"/>
</symbol><symbol id="git-commit" viewBox="0 0 16 16">
<path d="M8 10C9.10457 10 10 9.10457 10 8C10 6.89543 9.10457 6 8 6C6.89543 6 6 6.89543 6 8C6 9.10457 6.89543 10 8 10Z" stroke="#24282B" stroke-width="2" stroke-linecap="round" stroke-linejoin="round"/>
<path d="M8 2V6" stroke="#24282B" stroke-width="2" stroke-linecap="round" stroke-linejoin="round"/>
<path d="M8 10V14" stroke="#24282B" stroke-width="2" stroke-linecap="round" stroke-linejoin="round"/>
</symbol><symbol id="git-branch" viewBox="0 0 16 16">
<path d="M3.5 14C4.32843 14 5 13.3284 5 12.5C5 11.6716 4.32843 11 3.5 11C2.67157 11 2 11.6716 2 12.5C2 13.3284 2.67157 14 3.5 14Z" stroke="#24282B" stroke-width="2" stroke-linecap="round" stroke-linejoin="round"/>
<path d="M3.5 5C4.32843 5 5 4.32843 5 3.5C5 2.67157 4.32843 2 3.5 2C2.67157 2 2 2.67157 2 3.5C2 4.32843 2.67157 5 3.5 5Z" stroke="#24282B" stroke-width="2" stroke-linecap="round" stroke-linejoin="round"/>
<path d="M12.5 5C13.3284 5 14 4.32843 14 3.5C14 2.67157 13.3284 2 12.5 2C11.6716 2 11 2.67157 11 3.5C11 4.32843 11.6716 5 12.5 5Z" stroke="#24282B" stroke-width="2" stroke-linecap="round" stroke-linejoin="round"/>
<path d="M3.5 5L3.5 11" stroke="#24282B" stroke-width="2" stroke-linecap="round" stroke-linejoin="round"/>
<path d="M5 12.5H12.5C12.5 12.5 12.5 10.9289 12.5 8" stroke="#24282B" stroke-width="2" stroke-linecap="round" stroke-linejoin="round"/>
<path d="M10 10L12.5 7.5L15 10" stroke="#24282B" stroke-width="2" stroke-linecap="round" stroke-linejoin="round"/>
</symbol><symbol id="forward-up" viewBox="0 0 16 16">
<path d="M14 6L14.7071 5.29289C15.0976 5.68342 15.0976 6.31658 14.7071 6.70711L14 6ZM11.7071 9.70711C11.3166 10.0976 10.6834 10.0976 10.2929 9.70711C9.90237 9.31658 9.90237 8.68342 10.2929 8.29289L11.7071 9.70711ZM10.2929 3.70711C9.90237 3.31658 9.90237 2.68342 10.2929 2.29289C10.6834 1.90237 11.3166 1.90237 11.7071 2.29289L10.2929 3.70711ZM7 12C7.55228 12 8 12.4477 8 13C8 13.5523 7.55228 14 7 14V12ZM5.5 5H14V7H5.5V5ZM14.7071 6.70711L11.7071 9.70711L10.2929 8.29289L13.2929 5.29289L14.7071 6.70711ZM13.2929 6.70711L10.2929 3.70711L11.7071 2.29289L14.7071 5.29289L13.2929 6.70711ZM5.5 12H7V14H5.5V12ZM3 9.5C3 10.8807 4.11929 12 5.5 12V14C3.01472 14 1 11.9853 1 9.5H3ZM5.5 7C4.11929 7 3 8.11929 3 9.5H1C1 7.01472 3.01472 5 5.5 5V7Z" fill="#24282B"/>
</symbol><symbol id="forward" viewBox="0 0 16 16">
<path d="M14 10L14.7071 10.7071C15.0976 10.3166 15.0976 9.68342 14.7071 9.29289L14 10ZM11.7071 6.29289C11.3166 5.90237 10.6834 5.90237 10.2929 6.29289C9.90237 6.68342 9.90237 7.31658 10.2929 7.70711L11.7071 6.29289ZM10.2929 12.2929C9.90237 12.6834 9.90237 13.3166 10.2929 13.7071C10.6834 14.0976 11.3166 14.0976 11.7071 13.7071L10.2929 12.2929ZM7 4C7.55228 4 8 3.55228 8 3C8 2.44772 7.55228 2 7 2V4ZM5.5 11H14V9H5.5V11ZM14.7071 9.29289L11.7071 6.29289L10.2929 7.70711L13.2929 10.7071L14.7071 9.29289ZM13.2929 9.29289L10.2929 12.2929L11.7071 13.7071L14.7071 10.7071L13.2929 9.29289ZM5.5 4H7V2H5.5V4ZM3 6.5C3 5.11929 4.11929 4 5.5 4V2C3.01472 2 1 4.01472 1 6.5H3ZM5.5 9C4.11929 9 3 7.88071 3 6.5H1C1 8.98528 3.01472 11 5.5 11V9Z" fill="#24282B"/>
</symbol><symbol id="download" viewBox="0 0 16 16">
<path d="M8 10L7.29289 10.7071C7.68342 11.0976 8.31658 11.0976 8.70711 10.7071L8 10ZM9 2C9 1.44772 8.55228 1 8 1C7.44772 1 7 1.44772 7 2L9 2ZM5.70711 6.29289C5.31658 5.90237 4.68342 5.90237 4.29289 6.29289C3.90237 6.68342 3.90237 7.31658 4.29289 7.70711L5.70711 6.29289ZM11.7071 7.70711C12.0976 7.31658 12.0976 6.68342 11.7071 6.29289C11.3166 5.90237 10.6834 5.90237 10.2929 6.29289L11.7071 7.70711ZM9 10L9 2L7 2L7 10H9ZM8.70711 9.29289L5.70711 6.29289L4.29289 7.70711L7.29289 10.7071L8.70711 9.29289ZM8.70711 10.7071L11.7071 7.70711L10.2929 6.29289L7.29289 9.29289L8.70711 10.7071Z" fill="#24282B"/>
<path d="M3 12C3 11.4477 2.55228 11 2 11C1.44772 11 1 11.4477 1 12H3ZM15 12C15 11.4477 14.5523 11 14 11C13.4477 11 13 11.4477 13 12H15ZM1 12V13H3V12H1ZM3 15H13V13H3V15ZM15 13V12H13V13H15ZM13 15C14.1046 15 15 14.1046 15 13H13V15ZM1 13C1 14.1046 1.89543 15 3 15V13H1Z" fill="#24282B"/>
</symbol><symbol id="corner-up-right-double" viewBox="0 0 16 16">
<path d="M2 14V5C2 5 8.36506 5 10 5" stroke="#24282B" stroke-width="2" stroke-linecap="round" stroke-linejoin="round"/>
<path d="M7 8L10 5L7 2M11 8L14 5L11 2" stroke="#24282B" stroke-width="2" stroke-linecap="round" stroke-linejoin="round"/>
</symbol><symbol id="corner-up-right" viewBox="0 0 16 16">
<path d="M2 14V6C2 6 11.922 5.99999 14 5.99999M14 5.99999L10 2M14 5.99999L10 10" stroke="#24282B" stroke-width="2" stroke-linecap="round" stroke-linejoin="round"/>
</symbol><symbol id="corner-up-left-double" viewBox="0 0 16 16">
<path d="M14 14V5C14 5 7.63494 5 6 5" stroke="#24282B" stroke-width="2" stroke-linecap="round" stroke-linejoin="round"/>
<path d="M9 8L6 5L9 2M5 8L2 5L5 2" stroke="#24282B" stroke-width="2" stroke-linecap="round" stroke-linejoin="round"/>
</symbol><symbol id="corner-up-left" viewBox="0 0 16 16">
<path d="M14 14V6C14 6 4.07796 5.99999 2 5.99999M2 5.99999L6 2M2 5.99999L6 10" stroke="#24282B" stroke-width="2" stroke-linecap="round" stroke-linejoin="round"/>
</symbol><symbol id="corner-right-up-double" viewBox="0 0 16 16">
<path d="M2 14H10V6" stroke="#24282B" stroke-width="2" stroke-linecap="round" stroke-linejoin="round"/>
<path d="M7 9L10 6L13 9M7 5L10 2L13 5" stroke="#24282B" stroke-width="2" stroke-linecap="round" stroke-linejoin="round"/>
</symbol><symbol id="corner-right-up" viewBox="0 0 16 16">
<path d="M2.00002 14H10V2M10 2L14 6M10 2L6 6" stroke="#24282B" stroke-width="2" stroke-linecap="round" stroke-linejoin="round"/>
</symbol><symbol id="corner-right-down-double" viewBox="0 0 16 16">
<path d="M2 2H10V10" stroke="#24282B" stroke-width="2" stroke-linecap="round" stroke-linejoin="round"/>
<path d="M7 7L10 10L13 7M7 11L10 14L13 11" stroke="#24282B" stroke-width="2" stroke-linecap="round" stroke-linejoin="round"/>
</symbol><symbol id="corner-right-down" viewBox="0 0 16 16">
<path d="M2.00002 2H10V14M10 14L14 10M10 14L6 10" stroke="#24282B" stroke-width="2" stroke-linecap="round" stroke-linejoin="round"/>
</symbol><symbol id="corner-left-up-double" viewBox="0 0 16 16">
<path d="M13 14H5V6" stroke="#24282B" stroke-width="2" stroke-linecap="round" stroke-linejoin="round"/>
<path d="M8 9L4.99998 6L2 9M8 5L4.99998 2L2 5" stroke="#24282B" stroke-width="2" stroke-linecap="round" stroke-linejoin="round"/>
</symbol><symbol id="corner-left-up" viewBox="0 0 16 16">
<path d="M14 14H5.99998V2M5.99998 2L2 6M5.99998 2L10 6" stroke="#24282B" stroke-width="2" stroke-linecap="round" stroke-linejoin="round"/>
</symbol><symbol id="corner-left-down-double" viewBox="0 0 16 16">
<path d="M13 2H5V10" stroke="#24282B" stroke-width="2" stroke-linecap="round" stroke-linejoin="round"/>
<path d="M8 7L4.99998 10L2 7M8 11L4.99998 14L2 11" stroke="#24282B" stroke-width="2" stroke-linecap="round" stroke-linejoin="round"/>
</symbol><symbol id="corner-left-down" viewBox="0 0 16 16">
<path d="M14 2H5.99998V14M5.99998 14L2 10M5.99998 14L10 10" stroke="#24282B" stroke-width="2" stroke-linecap="round" stroke-linejoin="round"/>
</symbol><symbol id="corner-down-right-double" viewBox="0 0 16 16">
<path d="M2 2V11C2 11 8.36506 11 10 11" stroke="#24282B" stroke-width="2" stroke-linecap="round" stroke-linejoin="round"/>
<path d="M7 8L10 11L7 14M11 8L14 11L11 14" stroke="#24282B" stroke-width="2" stroke-linecap="round" stroke-linejoin="round"/>
</symbol><symbol id="corner-down-right" viewBox="0 0 16 16">
<path d="M2 2V10C2 10 11.922 10 14 10M14 10L10 14M14 10L10 6" stroke="#24282B" stroke-width="2" stroke-linecap="round" stroke-linejoin="round"/>
</symbol><symbol id="corner-down-left-double" viewBox="0 0 16 16">
<path d="M14 2V11C14 11 7.63494 11 6 11" stroke="#24282B" stroke-width="2" stroke-linecap="round" stroke-linejoin="round"/>
<path d="M9 8L6 11L9 14M5 8L2 11L5 14" stroke="#24282B" stroke-width="2" stroke-linecap="round" stroke-linejoin="round"/>
</symbol><symbol id="corner-down-left" viewBox="0 0 16 16">
<path d="M14 2V10C14 10 4.07796 10 2 10M2 10L6 14M2 10L6 6" stroke="#24282B" stroke-width="2" stroke-linecap="round" stroke-linejoin="round"/>
</symbol><symbol id="caret-up" viewBox="0 0 16 16">
<path d="M13.5488 10.3415L8.75258 4.86009C8.35417 4.40476 7.64583 4.40476 7.24742 4.86009L2.45119 10.3415C1.88543 10.9881 2.34461 12 3.20377 12H12.7962C13.6554 12 14.1146 10.9881 13.5488 10.3415Z" fill="#24282B"/>
</symbol><symbol id="caret-right" viewBox="0 0 16 16">
<path d="M4 12.7962V3.20377C4 2.34461 5.01192 1.88543 5.6585 2.45119L11.1399 7.24742C11.5952 7.64583 11.5952 8.35416 11.1399 8.75258L5.6585 13.5488C5.01192 14.1146 4 13.6554 4 12.7962Z" fill="#24282B"/>
</symbol><symbol id="caret-left" viewBox="0 0 16 16">
<path d="M12 12.7962V3.20377C12 2.34461 10.9881 1.88543 10.3415 2.45119L4.86009 7.24742C4.40476 7.64583 4.40476 8.35416 4.86009 8.75258L10.3415 13.5488C10.9881 14.1146 12 13.6554 12 12.7962Z" fill="#24282B"/>
</symbol><symbol id="caret-down" viewBox="0 0 16 16">
<path d="M13.5488 5.6585L8.75258 11.1399C8.35417 11.5952 7.64583 11.5952 7.24742 11.1399L2.45119 5.6585C1.88543 5.01192 2.34461 4 3.20377 4H12.7962C13.6554 4 14.1146 5.01192 13.5488 5.6585Z" fill="#24282B"/>
</symbol><symbol id="back-up" viewBox="0 0 16 16">
<path d="M2 6L1.29289 5.29289C0.902369 5.68342 0.902369 6.31658 1.29289 6.70711L2 6ZM4.29289 9.70711C4.68342 10.0976 5.31658 10.0976 5.70711 9.70711C6.09763 9.31658 6.09763 8.68342 5.70711 8.29289L4.29289 9.70711ZM5.70711 3.70711C6.09763 3.31658 6.09763 2.68342 5.70711 2.29289C5.31658 1.90237 4.68342 1.90237 4.29289 2.29289L5.70711 3.70711ZM9 12C8.44772 12 8 12.4477 8 13C8 13.5523 8.44772 14 9 14V12ZM10.5 5H2V7H10.5V5ZM1.29289 6.70711L4.29289 9.70711L5.70711 8.29289L2.70711 5.29289L1.29289 6.70711ZM2.70711 6.70711L5.70711 3.70711L4.29289 2.29289L1.29289 5.29289L2.70711 6.70711ZM10.5 12H9V14H10.5V12ZM13 9.5C13 10.8807 11.8807 12 10.5 12V14C12.9853 14 15 11.9853 15 9.5H13ZM10.5 7C11.8807 7 13 8.11929 13 9.5H15C15 7.01472 12.9853 5 10.5 5V7Z" fill="#24282B"/>
</symbol><symbol id="back" viewBox="0 0 16 16">
<path d="M2 10L1.29289 10.7071C0.902369 10.3166 0.902369 9.68342 1.29289 9.29289L2 10ZM4.29289 6.29289C4.68342 5.90237 5.31658 5.90237 5.70711 6.29289C6.09763 6.68342 6.09763 7.31658 5.70711 7.70711L4.29289 6.29289ZM5.70711 12.2929C6.09763 12.6834 6.09763 13.3166 5.70711 13.7071C5.31658 14.0976 4.68342 14.0976 4.29289 13.7071L5.70711 12.2929ZM9 4C8.44772 4 8 3.55228 8 3C8 2.44772 8.44772 2 9 2V4ZM10.5 11H2V9H10.5V11ZM1.29289 9.29289L4.29289 6.29289L5.70711 7.70711L2.70711 10.7071L1.29289 9.29289ZM2.70711 9.29289L5.70711 12.2929L4.29289 13.7071L1.29289 10.7071L2.70711 9.29289ZM10.5 4H9V2H10.5V4ZM13 6.5C13 5.11929 11.8807 4 10.5 4V2C12.9853 2 15 4.01472 15 6.5H13ZM10.5 9C11.8807 9 13 7.88071 13 6.5H15C15 8.98528 12.9853 11 10.5 11V9Z" fill="#24282B"/>
</symbol><symbol id="arrows-vertical" viewBox="0 0 16 16">
<path d="M5.33331 4.66667L7.99998 2L10.6666 4.66667" stroke="#24282B" stroke-width="2" stroke-linecap="round" stroke-linejoin="round"/>
<path d="M5.33331 11.3333L7.99998 14L10.6666 11.3333" stroke="#24282B" stroke-width="2" stroke-linecap="round" stroke-linejoin="round"/>
<path d="M8 2V14" stroke="#24282B" stroke-width="2" stroke-linecap="round" stroke-linejoin="round"/>
</symbol><symbol id="arrows-up-right" viewBox="0 0 16 16">
<path d="M11.3333 14L14 11.3333M14 11.3333L11.3333 8.66667M14 11.3333L6.66667 11.3333C6.13623 11.3333 5.62753 11.1226 5.25245 10.7475C4.87738 10.3725 4.66667 9.86377 4.66667 9.33333V2M4.66667 2L7.33333 4.66667M4.66667 2L2 4.66667" stroke="#24282B" stroke-width="2" stroke-linecap="round" stroke-linejoin="round"/>
</symbol><symbol id="arrows-up-left" viewBox="0 0 16 16">
<path d="M14 4.66667L11.3333 2M11.3333 2L8.66667 4.66667M11.3333 2L11.3333 9.33333C11.3333 9.86377 11.1226 10.3725 10.7475 10.7475C10.3725 11.1226 9.86377 11.3333 9.33333 11.3333H2M2 11.3333L4.66667 8.66667M2 11.3333L4.66667 14" stroke="#24282B" stroke-width="2" stroke-linecap="round" stroke-linejoin="round"/>
</symbol><symbol id="arrows-up-down" viewBox="0 0 16 16">
<path d="M4.66666 2V14M4.66666 2L7.66666 5M4.66666 2L1.66666 5" stroke="#24282B" stroke-width="2" stroke-linecap="round" stroke-linejoin="round"/>
<path d="M14.3333 11L11.3333 14M11.3333 14L8.33334 11M11.3333 14V2" stroke="#24282B" stroke-width="2" stroke-linecap="round" stroke-linejoin="round"/>
</symbol><symbol id="arrows-up" viewBox="0 0 16 16">
<path d="M11 2V14M11 2L14 5M11 2L8 5" stroke="#24282B" stroke-width="2" stroke-linecap="round" stroke-linejoin="round"/>
<path d="M2 5L5 2M5 2L8 5M5 2V14" stroke="#24282B" stroke-width="2" stroke-linecap="round" stroke-linejoin="round"/>
</symbol><symbol id="arrows-split" viewBox="0 0 16 16">
<path d="M14 5L10 5C7.49731 4.99989 7.17451 7.9996 4.6 8M4.6 8H2M4.6 8C7.17451 8.0004 7.49731 11.0001 10 11H14" stroke="#24282B" stroke-width="2" stroke-linecap="round" stroke-linejoin="round"/>
<path d="M12 7L14 5L12 3" stroke="#24282B" stroke-width="2" stroke-linecap="round" stroke-linejoin="round"/>
<path d="M12 13L14 11L12 9" stroke="#24282B" stroke-width="2" stroke-linecap="round" stroke-linejoin="round"/>
</symbol><symbol id="arrows-right-left" viewBox="0 0 16 16">
<path d="M14 4.66667H2M14 4.66667L11 7.66667M14 4.66667L11 1.66667" stroke="#24282B" stroke-width="2" stroke-linecap="round" stroke-linejoin="round"/>
<path d="M5 14.3333L2 11.3333M2 11.3333L5 8.33333M2 11.3333H14" stroke="#24282B" stroke-width="2" stroke-linecap="round" stroke-linejoin="round"/>
</symbol><symbol id="arrows-right-down" viewBox="0 0 16 16">
<path d="M2 11.3333L4.66667 14M4.66667 14L7.33333 11.3333M4.66667 14L4.66667 6.66667C4.66667 6.13623 4.87738 5.62753 5.25245 5.25245C5.62753 4.87738 6.13623 4.66667 6.66667 4.66667H14M14 4.66667L11.3333 7.33333M14 4.66667L11.3333 2" stroke="#24282B" stroke-width="2" stroke-linecap="round" stroke-linejoin="round"/>
</symbol><symbol id="arrows-right" viewBox="0 0 16 16">
<path d="M14 11H2M14 11L11 14M14 11L11 8" stroke="#24282B" stroke-width="2" stroke-linecap="round" stroke-linejoin="round"/>
<path d="M11 2L14 5M14 5L11 8M14 5L2 5" stroke="#24282B" stroke-width="2" stroke-linecap="round" stroke-linejoin="round"/>
</symbol><symbol id="arrows-left-right" viewBox="0 0 16 16">
<path d="M5 7.66667L2 4.66667M2 4.66667L5 1.66667M2 4.66667L14 4.66667" stroke="#24282B" stroke-width="2" stroke-linecap="round" stroke-linejoin="round"/>
<path d="M14 11.3333H2M14 11.3333L11 14.3333M14 11.3333L11 8.33333" stroke="#24282B" stroke-width="2" stroke-linecap="round" stroke-linejoin="round"/>
</symbol><symbol id="arrows-left-down" viewBox="0 0 16 16">
<path d="M4.66667 2L2 4.66667M2 4.66667L4.66667 7.33333M2 4.66667L9.33333 4.66667C9.86377 4.66667 10.3725 4.87738 10.7475 5.25245C11.1226 5.62753 11.3333 6.13623 11.3333 6.66667V14M11.3333 14L8.66667 11.3333M11.3333 14L14 11.3333" stroke="#24282B" stroke-width="2" stroke-linecap="round" stroke-linejoin="round"/>
</symbol><symbol id="arrows-left" viewBox="0 0 16 16">
<path d="M2 5H14M2 5L5 2M2 5L5 8" stroke="#24282B" stroke-width="2" stroke-linecap="round" stroke-linejoin="round"/>
<path d="M5 14L2 11M2 11L5 8M2 11H14" stroke="#24282B" stroke-width="2" stroke-linecap="round" stroke-linejoin="round"/>
</symbol><symbol id="arrows-join" viewBox="0 0 16 16">
<path d="M2 5C6 5 6.59775 8.00023 9.70133 8M9.70133 8H14M9.70133 8C6.59775 7.99977 6 11 2 11" stroke="#24282B" stroke-width="2" stroke-linecap="round" stroke-linejoin="round"/>
<path d="M11 11L14 8L11 5" stroke="#24282B" stroke-width="2" stroke-linecap="round" stroke-linejoin="round"/>
</symbol><symbol id="arrows-horizontal" viewBox="0 0 16 16">
<path d="M4.66667 5.33333L2 7.99999L4.66667 10.6667" stroke="#24282B" stroke-width="2" stroke-linecap="round" stroke-linejoin="round"/>
<path d="M11.3333 5.33333L14 7.99999L11.3333 10.6667" stroke="#24282B" stroke-width="2" stroke-linecap="round" stroke-linejoin="round"/>
<path d="M2 8H14" stroke="#24282B" stroke-width="2" stroke-linecap="round" stroke-linejoin="round"/>
</symbol><symbol id="arrows-down-up" viewBox="0 0 16 16">
<path d="M7.66666 11L4.66666 14M4.66666 14L1.66666 11M4.66666 14L4.66666 2" stroke="#24282B" stroke-width="2" stroke-linecap="round" stroke-linejoin="round"/>
<path d="M11.3333 2V14M11.3333 2L14.3333 5M11.3333 2L8.33334 5" stroke="#24282B" stroke-width="2" stroke-linecap="round" stroke-linejoin="round"/>
</symbol><symbol id="arrows-down" viewBox="0 0 16 16">
<path d="M4.99999 14V2M4.99999 14L2 11M4.99999 14L8 11" stroke="#24282B" stroke-width="2" stroke-linecap="round" stroke-linejoin="round"/>
<path d="M14 11L11 14M11 14L8 11M11 14L11 2" stroke="#24282B" stroke-width="2" stroke-linecap="round" stroke-linejoin="round"/>
</symbol><symbol id="arrows-double-sw-ne" viewBox="0 0 16 16">
<path d="M9.33333 2L2 9.33333M2 9.33333V5.66667M2 9.33333H5.66667" stroke="#24282B" stroke-width="2" stroke-linecap="round" stroke-linejoin="round"/>
<path d="M10.3333 6.66667H14M14 6.66667V10.3333M14 6.66667L6.66666 14" stroke="#24282B" stroke-width="2" stroke-linecap="round" stroke-linejoin="round"/>
</symbol><symbol id="arrows-double-se-nw" viewBox="0 0 16 16">
<path d="M2 6.66667L9.33333 14M9.33333 14V10.3333M9.33333 14H5.66667" stroke="#24282B" stroke-width="2" stroke-linecap="round" stroke-linejoin="round"/>
<path d="M10.3333 2H6.66666M6.66666 2V5.66667M6.66666 2L14 9.33333" stroke="#24282B" stroke-width="2" stroke-linecap="round" stroke-linejoin="round"/>
</symbol><symbol id="arrows-double-nw-se" viewBox="0 0 16 16">
<path d="M9.33333 14L2 6.66667M2 6.66667V10.3333M2 6.66667H5.66667" stroke="#24282B" stroke-width="2" stroke-linecap="round" stroke-linejoin="round"/>
<path d="M10.3333 9.33333H14M14 9.33333V5.66667M14 9.33333L6.66666 2" stroke="#24282B" stroke-width="2" stroke-linecap="round" stroke-linejoin="round"/>
</symbol><symbol id="arrows-double-ne-sw" viewBox="0 0 16 16">
<path d="M2 9.33333L9.33333 2M9.33333 2H5.66667M9.33333 2V5.66667" stroke="#24282B" stroke-width="2" stroke-linecap="round" stroke-linejoin="round"/>
<path d="M6.66666 10.3333V14M6.66666 14H10.3333M6.66666 14L14 6.66667" stroke="#24282B" stroke-width="2" stroke-linecap="round" stroke-linejoin="round"/>
</symbol><symbol id="arrow-wave-right-up" viewBox="0 0 16 16">
<path d="M10.3333 6.66667H14M14 6.66667V10.3333M14 6.66667L12.6667 8C12 8.66667 11.0133 9.35533 10 9.33333C8.98667 9.35533 7.92467 8.856 7.33333 8C6.742 7.144 5.68 6.64467 4.66667 6.66667C3.65333 6.64467 2.59133 7.144 2 8" stroke="#24282B" stroke-width="2" stroke-linecap="round" stroke-linejoin="round"/>
</symbol><symbol id="arrow-wave-right-down" viewBox="0 0 16 16">
<path d="M10.3333 9.332H14M14 9.332V5.66533M14 9.332L12.6667 7.99866C12 7.332 11.0133 6.64333 10 6.66533C8.98667 6.64333 7.92467 7.14266 7.33333 7.99866C6.742 8.85466 5.68 9.354 4.66667 9.332C3.65333 9.354 2.59133 8.85466 2 7.99866" stroke="#24282B" stroke-width="2" stroke-linecap="round" stroke-linejoin="round"/>
</symbol><symbol id="arrow-wave-left-up" viewBox="0 0 16 16">
<path d="M5.66667 6.664H2M2 6.664V10.3307M2 6.664L3.33333 7.99733C4 8.664 4.98667 9.35267 6 9.33067C7.01333 9.35267 8.07533 8.85333 8.66667 7.99733C9.258 7.14066 10.32 6.642 11.3333 6.664C12.3467 6.642 13.4087 7.14066 14 7.99733" stroke="#24282B" stroke-width="2" stroke-linecap="round" stroke-linejoin="round"/>
</symbol><symbol id="arrow-wave-left-down" viewBox="0 0 16 16">
<path d="M5.66667 9.332H2M2 9.332V5.66533M2 9.332L3.33333 7.99866C4 7.332 4.98667 6.64333 6 6.66533C7.01333 6.64333 8.07533 7.14266 8.66667 7.99866C9.258 8.85466 10.32 9.354 11.3333 9.332C12.3467 9.354 13.4087 8.85466 14 7.99866" stroke="#24282B" stroke-width="2" stroke-linecap="round" stroke-linejoin="round"/>
</symbol><symbol id="arrow-vertical" viewBox="0 0 16 16">
<path d="M8 2L8.70711 1.29289C8.31658 0.902369 7.68342 0.902369 7.29289 1.29289L8 2ZM8 14L7.29289 14.7071C7.48043 14.8946 7.73478 15 8 15C8.26522 15 8.51957 14.8946 8.70711 14.7071L8 14ZM11.7071 11.7071C12.0976 11.3166 12.0976 10.6834 11.7071 10.2929C11.3166 9.90237 10.6834 9.90237 10.2929 10.2929L11.7071 11.7071ZM5.70711 10.2929C5.31658 9.90237 4.68342 9.90237 4.29289 10.2929C3.90237 10.6834 3.90237 11.3166 4.29289 11.7071L5.70711 10.2929ZM10.2929 5.70711C10.6834 6.09763 11.3166 6.09763 11.7071 5.70711C12.0976 5.31658 12.0976 4.68342 11.7071 4.29289L10.2929 5.70711ZM4.29289 4.29289C3.90237 4.68342 3.90237 5.31658 4.29289 5.70711C4.68342 6.09763 5.31658 6.09763 5.70711 5.70711L4.29289 4.29289ZM7 2L7 14H9L9 2L7 2ZM8.70711 14.7071L11.7071 11.7071L10.2929 10.2929L7.29289 13.2929L8.70711 14.7071ZM8.70711 13.2929L5.70711 10.2929L4.29289 11.7071L7.29289 14.7071L8.70711 13.2929ZM7.29289 2.70711L10.2929 5.70711L11.7071 4.29289L8.70711 1.29289L7.29289 2.70711ZM7.29289 1.29289L4.29289 4.29289L5.70711 5.70711L8.70711 2.70711L7.29289 1.29289Z" fill="#24282B"/>
</symbol><symbol id="arrow-up-right" viewBox="0 0 16 16">
<path d="M2.29289 12.2929C1.90237 12.6834 1.90237 13.3166 2.29289 13.7071C2.68342 14.0976 3.31658 14.0976 3.70711 13.7071L2.29289 12.2929ZM14 2H15C15 1.44772 14.5523 1 14 1V2ZM7 1C6.44772 1 6 1.44772 6 2C6 2.55228 6.44772 3 7 3V1ZM13 9C13 9.55229 13.4477 10 14 10C14.5523 10 15 9.55229 15 9H13ZM3.70711 13.7071L14.7071 2.70711L13.2929 1.29289L2.29289 12.2929L3.70711 13.7071ZM14 1H7V3H14V1ZM13 2V9H15V2H13Z" fill="#24282B"/>
</symbol><symbol id="arrow-up-left" viewBox="0 0 16 16">
<path d="M12.2929 13.7071C12.6834 14.0976 13.3166 14.0976 13.7071 13.7071C14.0976 13.3166 14.0976 12.6834 13.7071 12.2929L12.2929 13.7071ZM2 2V1C1.44772 1 1 1.44772 1 2H2ZM9 3C9.55228 3 10 2.55228 10 2C10 1.44772 9.55228 1 9 1V3ZM1 9C1 9.55229 1.44772 10 2 10C2.55228 10 3 9.55229 3 9H1ZM13.7071 12.2929L2.70711 1.29289L1.29289 2.70711L12.2929 13.7071L13.7071 12.2929ZM2 3H9V1H2V3ZM1 2V9H3V2H1Z" fill="#24282B"/>
</symbol><symbol id="arrow-up" viewBox="0 0 16 16">
<path d="M7 14C7 14.5523 7.44772 15 8 15C8.55228 15 9 14.5523 9 14H7ZM8 2L8.70711 1.29289C8.31658 0.902369 7.68342 0.902369 7.29289 1.29289L8 2ZM12.2929 7.70711C12.6834 8.09763 13.3166 8.09763 13.7071 7.70711C14.0976 7.31658 14.0976 6.68342 13.7071 6.29289L12.2929 7.70711ZM2.29289 6.29289C1.90237 6.68342 1.90237 7.31658 2.29289 7.70711C2.68342 8.09763 3.31658 8.09763 3.70711 7.70711L2.29289 6.29289ZM9 14V2H7V14H9ZM7.29289 2.70711L12.2929 7.70711L13.7071 6.29289L8.70711 1.29289L7.29289 2.70711ZM7.29289 1.29289L2.29289 6.29289L3.70711 7.70711L8.70711 2.70711L7.29289 1.29289Z" fill="#24282B"/>
</symbol><symbol id="arrow-top-tail" viewBox="0 0 16 16">
<path d="M8 12V2M8 12L10 14M8 12L6 14M8 2L11 5M8 2L5 5" stroke="#24282B" stroke-width="2" stroke-linecap="round" stroke-linejoin="round"/>
</symbol><symbol id="arrow-top-square" viewBox="0 0 16 16">
<path d="M8 11.3333V2M8 2L11 5M8 2L5 5M6.66667 14V11.3333H9.33333V14H6.66667Z" stroke="#24282B" stroke-width="2" stroke-linecap="round" stroke-linejoin="round"/>
</symbol><symbol id="arrow-top-circle" viewBox="0 0 16 16">
<path d="M8 11.3333V2M8 11.3333C7.26362 11.3333 6.66667 11.9303 6.66667 12.6667C6.66667 13.403 7.26362 14 8 14C8.73638 14 9.33333 13.403 9.33333 12.6667C9.33333 11.9303 8.73638 11.3333 8 11.3333ZM8 2L11 5M8 2L5 5" stroke="#24282B" stroke-width="2" stroke-linecap="round" stroke-linejoin="round"/>
</symbol><symbol id="arrow-top-bar" viewBox="0 0 16 16">
<path d="M8 14V2M8 2L11 5M8 2L5 5M6 14H10" stroke="#24282B" stroke-width="2" stroke-linecap="round" stroke-linejoin="round"/>
</symbol><symbol id="arrow-right-tail" viewBox="0 0 16 16">
<path d="M11 11L14 8M14 8L11 5M14 8H4M2 10L4 8M4 8L2 6" stroke="#24282B" stroke-width="2" stroke-linecap="round" stroke-linejoin="round"/>
</symbol><symbol id="arrow-right-square" viewBox="0 0 16 16">
<path d="M4.66667 8H14M14 8L11 11M14 8L11 5M2 6.66667H4.66667V9.33333H2V6.66667Z" stroke="#24282B" stroke-width="2" stroke-linecap="round" stroke-linejoin="round"/>
</symbol><symbol id="arrow-right-circle" viewBox="0 0 16 16">
<path d="M11 11L14 8M14 8L11 5M14 8L4.66667 8M4.66667 8C4.66667 8.73638 4.06971 9.33333 3.33333 9.33333C2.59695 9.33333 2 8.73638 2 8C2 7.26362 2.59695 6.66667 3.33333 6.66667C4.06971 6.66667 4.66667 7.26362 4.66667 8Z" stroke="#24282B" stroke-width="2" stroke-linecap="round" stroke-linejoin="round"/>
</symbol><symbol id="arrow-right-bar" viewBox="0 0 16 16">
<path d="M11 11L14 8M14 8L11 5M14 8H2M2 6V10" stroke="#24282B" stroke-width="2" stroke-linecap="round" stroke-linejoin="round"/>
</symbol><symbol id="arrow-right" viewBox="0 0 16 16">
<path d="M2 7C1.44772 7 1 7.44772 1 8C1 8.55228 1.44772 9 2 9V7ZM14 8L14.7071 8.70711C15.0976 8.31658 15.0976 7.68342 14.7071 7.29289L14 8ZM9.70711 2.29289C9.31658 1.90237 8.68342 1.90237 8.29289 2.29289C7.90237 2.68342 7.90237 3.31658 8.29289 3.70711L9.70711 2.29289ZM8.29289 12.2929C7.90237 12.6834 7.90237 13.3166 8.29289 13.7071C8.68342 14.0976 9.31658 14.0976 9.70711 13.7071L8.29289 12.2929ZM2 9H14V7H2V9ZM14.7071 7.29289L9.70711 2.29289L8.29289 3.70711L13.2929 8.70711L14.7071 7.29289ZM13.2929 7.29289L8.29289 12.2929L9.70711 13.7071L14.7071 8.70711L13.2929 7.29289Z" fill="#24282B"/>
</symbol><symbol id="arrow-ramp-right" viewBox="0 0 16 16">
<path d="M4 2V7.80467" stroke="#24282B" stroke-width="2" stroke-linecap="round" stroke-linejoin="round"/>
<path d="M6 4L4 2L2 4" stroke="#24282B" stroke-width="2" stroke-linecap="round" stroke-linejoin="round"/>
<path d="M11 10L14 7M14 7L11 4M14 7C9 7 5 9 5 14" stroke="#24282B" stroke-width="2" stroke-linecap="round" stroke-linejoin="round"/>
</symbol><symbol id="arrow-ramp-left" viewBox="0 0 16 16">
<path d="M12 2V7.80467" stroke="#24282B" stroke-width="2" stroke-linecap="round" stroke-linejoin="round"/>
<path d="M10 4L12 2L14 4" stroke="#24282B" stroke-width="2" stroke-linecap="round" stroke-linejoin="round"/>
<path d="M5 10L2 7M2 7L5 4M2 7C7 7 11 9 11 14" stroke="#24282B" stroke-width="2" stroke-linecap="round" stroke-linejoin="round"/>
</symbol><symbol id="arrow-loop-right" viewBox="0 0 16 16">
<path d="M8 14V5.33333C8 4.80592 7.8436 4.29034 7.55058 3.85181C7.25757 3.41328 6.84109 3.07149 6.35382 2.86965C5.86655 2.66782 5.33037 2.61501 4.81309 2.7179C4.29581 2.8208 3.82065 3.07477 3.44771 3.44771C3.07477 3.82065 2.8208 4.29581 2.7179 4.81309C2.61501 5.33037 2.66782 5.86655 2.86965 6.35382C3.07149 6.84109 3.41328 7.25757 3.85181 7.55058C4.29034 7.8436 4.80592 8 5.33333 8H14M14 8L11 11M14 8L11 5" stroke="#24282B" stroke-width="2" stroke-linecap="round" stroke-linejoin="round"/>
</symbol><symbol id="arrow-loop-left" viewBox="0 0 16 16">
<path d="M8.66667 14V5.33333C8.66667 4.80592 8.82307 4.29034 9.11608 3.85181C9.4091 3.41328 9.82558 3.07149 10.3128 2.86965C10.8001 2.66782 11.3363 2.61501 11.8536 2.7179C12.3709 2.8208 12.846 3.07477 13.219 3.44771C13.5919 3.82065 13.8459 4.29581 13.9488 4.81309C14.0517 5.33037 13.9988 5.86655 13.797 6.35382C13.5952 6.84109 13.2534 7.25757 12.8149 7.55058C12.3763 7.8436 11.8608 8 11.3333 8H2.66667M2.66667 8L5.66667 11M2.66667 8L5.66667 5" stroke="#24282B" stroke-width="2" stroke-linecap="round" stroke-linejoin="round"/>
</symbol><symbol id="arrow-left-tail" viewBox="0 0 16 16">
<path d="M12 8H2M12 8L14 6M12 8L14 10M2 8L5 5M2 8L5 11" stroke="#24282B" stroke-width="2" stroke-linecap="round" stroke-linejoin="round"/>
</symbol><symbol id="arrow-left-square" viewBox="0 0 16 16">
<path d="M11.3333 8H2M2 8L5 5M2 8L5 11M14 9.33333H11.3333V6.66667H14V9.33333Z" stroke="#24282B" stroke-width="2" stroke-linecap="round" stroke-linejoin="round"/>
</symbol><symbol id="arrow-left-circle" viewBox="0 0 16 16">
<path d="M5 5L2 8M2 8L5 11M2 8H11.3333M11.3333 8C11.3333 8.73638 11.9303 9.33333 12.6667 9.33333C13.403 9.33333 14 8.73638 14 8C14 7.26362 13.403 6.66667 12.6667 6.66667C11.9303 6.66667 11.3333 7.26362 11.3333 8Z" stroke="#24282B" stroke-width="2" stroke-linecap="round" stroke-linejoin="round"/>
</symbol><symbol id="arrow-left-bar" viewBox="0 0 16 16">
<path d="M14 8H2M2 8L5 5M2 8L5 11M14 6V10" stroke="#24282B" stroke-width="2" stroke-linecap="round" stroke-linejoin="round"/>
</symbol><symbol id="arrow-left" viewBox="0 0 16 16">
<path d="M14 7C14.5523 7 15 7.44772 15 8C15 8.55228 14.5523 9 14 9V7ZM2 8L1.29289 8.70711C0.902369 8.31658 0.902369 7.68342 1.29289 7.29289L2 8ZM6.29289 2.29289C6.68342 1.90237 7.31658 1.90237 7.70711 2.29289C8.09763 2.68342 8.09763 3.31658 7.70711 3.70711L6.29289 2.29289ZM7.70711 12.2929C8.09763 12.6834 8.09763 13.3166 7.70711 13.7071C7.31658 14.0976 6.68342 14.0976 6.29289 13.7071L7.70711 12.2929ZM14 9H2V7H14V9ZM1.29289 7.29289L6.29289 2.29289L7.70711 3.70711L2.70711 8.70711L1.29289 7.29289ZM2.70711 7.29289L7.70711 12.2929L6.29289 13.7071L1.29289 8.70711L2.70711 7.29289Z" fill="#24282B"/>
</symbol><symbol id="arrow-horizontal" viewBox="0 0 16 16">
<path d="M2 8L1.29289 7.29289C0.902369 7.68342 0.902369 8.31658 1.29289 8.70711L2 8ZM14 8L14.7071 8.70711C15.0976 8.31658 15.0976 7.68342 14.7071 7.29289L14 8ZM11.7071 4.29289C11.3166 3.90237 10.6834 3.90237 10.2929 4.29289C9.90237 4.68342 9.90237 5.31658 10.2929 5.70711L11.7071 4.29289ZM10.2929 10.2929C9.90237 10.6834 9.90237 11.3166 10.2929 11.7071C10.6834 12.0976 11.3166 12.0976 11.7071 11.7071L10.2929 10.2929ZM5.70711 5.70711C6.09763 5.31658 6.09763 4.68342 5.70711 4.29289C5.31658 3.90237 4.68342 3.90237 4.29289 4.29289L5.70711 5.70711ZM4.29289 11.7071C4.68342 12.0976 5.31658 12.0976 5.70711 11.7071C6.09763 11.3166 6.09763 10.6834 5.70711 10.2929L4.29289 11.7071ZM2 9H14V7H2V9ZM14.7071 7.29289L11.7071 4.29289L10.2929 5.70711L13.2929 8.70711L14.7071 7.29289ZM13.2929 7.29289L10.2929 10.2929L11.7071 11.7071L14.7071 8.70711L13.2929 7.29289ZM2.70711 8.70711L5.70711 5.70711L4.29289 4.29289L1.29289 7.29289L2.70711 8.70711ZM1.29289 8.70711L4.29289 11.7071L5.70711 10.2929L2.70711 7.29289L1.29289 8.70711Z" fill="#24282B"/>
</symbol><symbol id="arrow-down-right" viewBox="0 0 16 16">
<path d="M3.70711 2.29289C3.31658 1.90237 2.68342 1.90237 2.29289 2.29289C1.90237 2.68342 1.90237 3.31658 2.29289 3.70711L3.70711 2.29289ZM14 14V15C14.2652 15 14.5196 14.8946 14.7071 14.7071C14.8946 14.5196 15 14.2652 15 14H14ZM7 13C6.44772 13 6 13.4477 6 14C6 14.5523 6.44772 15 7 15V13ZM15 7C15 6.44772 14.5523 6 14 6C13.4477 6 13 6.44772 13 7H15ZM2.29289 3.70711L13.2929 14.7071L14.7071 13.2929L3.70711 2.29289L2.29289 3.70711ZM14 13L7 13V15L14 15V13ZM15 14V7H13V14H15Z" fill="#24282B"/>
</symbol><symbol id="arrow-down-left" viewBox="0 0 16 16">
<path d="M13.7071 3.70711C14.0976 3.31658 14.0976 2.68342 13.7071 2.29289C13.3166 1.90237 12.6834 1.90237 12.2929 2.29289L13.7071 3.70711ZM2 14H1C1 14.2652 1.10536 14.5196 1.29289 14.7071C1.48043 14.8946 1.73478 15 2 15L2 14ZM9 15C9.55228 15 10 14.5523 10 14C10 13.4477 9.55228 13 9 13V15ZM3 7C3 6.44772 2.55228 6 2 6C1.44772 6 1 6.44772 1 7H3ZM12.2929 2.29289L1.29289 13.2929L2.70711 14.7071L13.7071 3.70711L12.2929 2.29289ZM2 15L9 15V13L2 13L2 15ZM3 14V7H1V14H3Z" fill="#24282B"/>
</symbol><symbol id="arrow-down" viewBox="0 0 16 16">
<path d="M9 2C9 1.44772 8.55228 1 8 1C7.44772 1 7 1.44772 7 2H9ZM8 14L7.29289 14.7071C7.68342 15.0976 8.31658 15.0976 8.70711 14.7071L8 14ZM13.7071 9.70711C14.0976 9.31658 14.0976 8.68342 13.7071 8.29289C13.3166 7.90237 12.6834 7.90237 12.2929 8.29289L13.7071 9.70711ZM3.70711 8.29289C3.31658 7.90237 2.68342 7.90237 2.29289 8.29289C1.90237 8.68342 1.90237 9.31658 2.29289 9.70711L3.70711 8.29289ZM7 2V14H9V2H7ZM8.70711 14.7071L13.7071 9.70711L12.2929 8.29289L7.29289 13.2929L8.70711 14.7071ZM8.70711 13.2929L3.70711 8.29289L2.29289 9.70711L7.29289 14.7071L8.70711 13.2929Z" fill="#24282B"/>
</symbol><symbol id="arrow-diagonal-we" viewBox="0 0 16 16">
<path d="M3 13H2C2 13.5523 2.44772 14 3 14L3 13ZM13 3L14 3C14 2.73478 13.8946 2.48043 13.7071 2.29289C13.5196 2.10536 13.2652 2 13 2L13 3ZM9 2C8.44772 2 8 2.44772 8 3C8 3.55229 8.44771 4 9 4L9 2ZM12 7C12 7.55229 12.4477 8 13 8C13.5523 8 14 7.55229 14 7L12 7ZM4 9C4 8.44772 3.55228 8 3 8C2.44771 8 2 8.44772 2 9L4 9ZM7 14C7.55229 14 8 13.5523 8 13C8 12.4477 7.55229 12 7 12L7 14ZM3.70711 13.7071L13.7071 3.70711L12.2929 2.29289L2.29289 12.2929L3.70711 13.7071ZM13 2L9 2L9 4L13 4L13 2ZM12 3L12 7L14 7L14 3L12 3ZM4 13L4 9L2 9L2 13H4ZM3 14L7 14L7 12L3 12L3 14Z" fill="#24282B"/>
</symbol><symbol id="arrow-diagonal-ew" viewBox="0 0 16 16">
<path d="M3 3L3 2C2.44771 2 2 2.44772 2 3L3 3ZM13 13V14C13.5523 14 14 13.5523 14 13L13 13ZM14 9C14 8.44772 13.5523 8 13 8C12.4477 8 12 8.44771 12 9L14 9ZM9 12C8.44772 12 8 12.4477 8 13C8 13.5523 8.44772 14 9 14L9 12ZM7 4C7.55229 4 8 3.55228 8 3C8 2.44772 7.55229 2 7 2L7 4ZM2 7C2 7.55228 2.44771 8 3 8C3.55228 8 4 7.55228 4 7L2 7ZM2.29289 3.70711L12.2929 13.7071L13.7071 12.2929L3.70711 2.29289L2.29289 3.70711ZM14 13L14 9L12 9L12 13L14 13ZM13 12L9 12L9 14L13 14V12ZM3 4L7 4L7 2L3 2L3 4ZM2 3V7L4 7V3L2 3Z" fill="#24282B"/>
</symbol><symbol id="arrow-bottom-tail" viewBox="0 0 16 16">
<path d="M8 4V14M8 4L6 2M8 4L10 2M8 14L5 11M8 14L11 11" stroke="#24282B" stroke-width="2" stroke-linecap="round" stroke-linejoin="round"/>
</symbol><symbol id="arrow-bottom-square" viewBox="0 0 16 16">
<path d="M8 4.66667V14M8 14L5 11M8 14L11 11M9.33333 2V4.66667H6.66667V2H9.33333Z" stroke="#24282B" stroke-width="2" stroke-linecap="round" stroke-linejoin="round"/>
</symbol><symbol id="arrow-bottom-circle" viewBox="0 0 16 16">
<path d="M8 4.66667V14M8 4.66667C8.73638 4.66667 9.33333 4.06971 9.33333 3.33333C9.33333 2.59695 8.73638 2 8 2C7.26362 2 6.66667 2.59695 6.66667 3.33333C6.66667 4.06971 7.26362 4.66667 8 4.66667ZM8 14L5 11M8 14L11 11" stroke="#24282B" stroke-width="2" stroke-linecap="round" stroke-linejoin="round"/>
</symbol><symbol id="arrow-bottom-bar" viewBox="0 0 16 16">
<path d="M8 2V14M8 14L5 11M8 14L11 11M6 2H10" stroke="#24282B" stroke-width="2" stroke-linecap="round" stroke-linejoin="round"/>
</symbol><symbol id="arrow-big-top" viewBox="0 0 16 16">
<path d="M6 13.3333V8.00001H3.60933C3.4775 7.99998 3.34864 7.96087 3.23903 7.88761C3.12942 7.81436 3.044 7.71025 2.99355 7.58845C2.9431 7.46665 2.9299 7.33263 2.95561 7.20332C2.98132 7.07402 3.04479 6.95525 3.138 6.86201L7.52867 2.47134C7.65369 2.34636 7.82323 2.27615 8 2.27615C8.17678 2.27615 8.34632 2.34636 8.47133 2.47134L12.862 6.86201C12.9552 6.95525 13.0187 7.07402 13.0444 7.20332C13.0701 7.33263 13.0569 7.46665 13.0065 7.58845C12.956 7.71025 12.8706 7.81436 12.761 7.88761C12.6514 7.96087 12.5225 7.99998 12.3907 8.00001H10V13.3333C10 13.5102 9.92976 13.6797 9.80474 13.8048C9.67971 13.9298 9.51015 14 9.33333 14H6.66667C6.48986 14 6.32029 13.9298 6.19526 13.8048C6.07024 13.6797 6 13.5102 6 13.3333V13.3333Z" stroke="#24282B" stroke-width="2" stroke-linecap="round" stroke-linejoin="round"/>
</symbol><symbol id="arrow-big-right" viewBox="0 0 16 16">
<path d="M2.66667 6H8V3.60933C8.00003 3.4775 8.03914 3.34864 8.1124 3.23903C8.18566 3.12942 8.28976 3.044 8.41156 2.99355C8.53336 2.9431 8.66739 2.9299 8.79669 2.95561C8.92599 2.98132 9.04477 3.04479 9.138 3.138L13.5287 7.52867C13.6536 7.65369 13.7239 7.82323 13.7239 8C13.7239 8.17678 13.6536 8.34632 13.5287 8.47133L9.138 12.862C9.04477 12.9552 8.92599 13.0187 8.79669 13.0444C8.66739 13.0701 8.53336 13.0569 8.41156 13.0065C8.28976 12.956 8.18566 12.8706 8.1124 12.761C8.03914 12.6514 8.00003 12.5225 8 12.3907V10H2.66667C2.48986 10 2.32029 9.92976 2.19526 9.80474C2.07024 9.67971 2 9.51015 2 9.33333V6.66667C2 6.48986 2.07024 6.32029 2.19526 6.19526C2.32029 6.07024 2.48986 6 2.66667 6V6Z" stroke="#24282B" stroke-width="2" stroke-linecap="round" stroke-linejoin="round"/>
</symbol><symbol id="arrow-big-left" viewBox="0 0 16 16">
<path d="M13.3333 10H8.00001V12.3907C7.99998 12.5225 7.96087 12.6514 7.88761 12.761C7.81436 12.8706 7.71025 12.956 7.58845 13.0065C7.46665 13.0569 7.33263 13.0701 7.20332 13.0444C7.07402 13.0187 6.95525 12.9552 6.86201 12.862L2.47134 8.47133C2.34636 8.34632 2.27615 8.17678 2.27615 8C2.27615 7.82323 2.34636 7.65369 2.47134 7.52867L6.86201 3.138C6.95525 3.04479 7.07402 2.98132 7.20332 2.95561C7.33263 2.9299 7.46665 2.9431 7.58845 2.99355C7.71025 3.044 7.81436 3.12942 7.88761 3.23903C7.96087 3.34864 7.99998 3.4775 8.00001 3.60933V6H13.3333C13.5102 6 13.6797 6.07024 13.8048 6.19526C13.9298 6.32029 14 6.48986 14 6.66667V9.33333C14 9.51015 13.9298 9.67971 13.8048 9.80474C13.6797 9.92976 13.5102 10 13.3333 10V10Z" stroke="#24282B" stroke-width="2" stroke-linecap="round" stroke-linejoin="round"/>
</symbol><symbol id="arrow-big-down" viewBox="0 0 16 16">
<path d="M10 2.66667V8H12.3907C12.5225 8.00003 12.6514 8.03914 12.761 8.1124C12.8706 8.18566 12.956 8.28976 13.0065 8.41156C13.0569 8.53336 13.0701 8.66739 13.0444 8.79669C13.0187 8.92599 12.9552 9.04477 12.862 9.138L8.47133 13.5287C8.34632 13.6536 8.17678 13.7239 8 13.7239C7.82322 13.7239 7.65369 13.6536 7.52867 13.5287L3.138 9.138C3.04479 9.04477 2.98132 8.92599 2.95561 8.79669C2.9299 8.66739 2.9431 8.53336 2.99355 8.41156C3.044 8.28976 3.12942 8.18566 3.23903 8.1124C3.34864 8.03914 3.4775 8.00003 3.60933 8H6V2.66667C6 2.48986 6.07024 2.32029 6.19526 2.19526C6.32029 2.07024 6.48986 2 6.66667 2H9.33333C9.51015 2 9.67971 2.07024 9.80474 2.19526C9.92976 2.32029 10 2.48986 10 2.66667V2.66667Z" stroke="#24282B" stroke-width="2" stroke-linecap="round" stroke-linejoin="round"/>
</symbol><symbol id="arrow-bar-up" viewBox="0 0 16 16">
<path d="M7 9C7 9.55228 7.44772 10 8 10C8.55228 10 9 9.55228 9 9H7ZM8 2L8.70711 1.29289C8.31658 0.902369 7.68342 0.902369 7.29289 1.29289L8 2ZM10.2929 5.70711C10.6834 6.09763 11.3166 6.09763 11.7071 5.70711C12.0976 5.31658 12.0976 4.68342 11.7071 4.29289L10.2929 5.70711ZM4.29289 4.29289C3.90237 4.68342 3.90237 5.31658 4.29289 5.70711C4.68342 6.09763 5.31658 6.09763 5.70711 5.70711L4.29289 4.29289ZM9 9V2H7V9H9ZM7.29289 2.70711L10.2929 5.70711L11.7071 4.29289L8.70711 1.29289L7.29289 2.70711ZM7.29289 1.29289L4.29289 4.29289L5.70711 5.70711L8.70711 2.70711L7.29289 1.29289Z" fill="#24282B"/>
<path d="M2 14H14" stroke="#24282B" stroke-width="2" stroke-linecap="round"/>
</symbol><symbol id="arrow-bar-to-up" viewBox="0 0 16 16">
<path d="M7 14C7 14.5523 7.44772 15 8 15C8.55228 15 9 14.5523 9 14H7ZM8 7L8.70711 6.29289C8.31658 5.90237 7.68342 5.90237 7.29289 6.29289L8 7ZM10.2929 10.7071C10.6834 11.0976 11.3166 11.0976 11.7071 10.7071C12.0976 10.3166 12.0976 9.68342 11.7071 9.29289L10.2929 10.7071ZM4.29289 9.29289C3.90237 9.68342 3.90237 10.3166 4.29289 10.7071C4.68342 11.0976 5.31658 11.0976 5.70711 10.7071L4.29289 9.29289ZM9 14V7H7V14H9ZM7.29289 7.70711L10.2929 10.7071L11.7071 9.29289L8.70711 6.29289L7.29289 7.70711ZM7.29289 6.29289L4.29289 9.29289L5.70711 10.7071L8.70711 7.70711L7.29289 6.29289Z" fill="#24282B"/>
<path d="M2 2H14" stroke="#24282B" stroke-width="2" stroke-linecap="round"/>
</symbol><symbol id="arrow-bar-to-right" viewBox="0 0 16 16">
<path d="M2 7C1.44772 7 1 7.44772 1 8C1 8.55228 1.44772 9 2 9V7ZM10 8L10.7071 8.70711C11.0976 8.31658 11.0976 7.68342 10.7071 7.29289L10 8ZM7.70711 4.29289C7.31658 3.90237 6.68342 3.90237 6.29289 4.29289C5.90237 4.68342 5.90237 5.31658 6.29289 5.70711L7.70711 4.29289ZM6.29289 10.2929C5.90237 10.6834 5.90237 11.3166 6.29289 11.7071C6.68342 12.0976 7.31658 12.0976 7.70711 11.7071L6.29289 10.2929ZM2 9H10V7H2V9ZM10.7071 7.29289L7.70711 4.29289L6.29289 5.70711L9.29289 8.70711L10.7071 7.29289ZM9.29289 7.29289L6.29289 10.2929L7.70711 11.7071L10.7071 8.70711L9.29289 7.29289Z" fill="#24282B"/>
<path d="M14 2L14 14" stroke="#24282B" stroke-width="2" stroke-linecap="round"/>
</symbol><symbol id="arrow-bar-to-left" viewBox="0 0 16 16">
<path d="M14 7C14.5523 7 15 7.44772 15 8C15 8.55228 14.5523 9 14 9V7ZM6 8L5.29289 8.70711C4.90237 8.31658 4.90237 7.68342 5.29289 7.29289L6 8ZM8.29289 4.29289C8.68342 3.90237 9.31658 3.90237 9.70711 4.29289C10.0976 4.68342 10.0976 5.31658 9.70711 5.70711L8.29289 4.29289ZM9.70711 10.2929C10.0976 10.6834 10.0976 11.3166 9.70711 11.7071C9.31658 12.0976 8.68342 12.0976 8.29289 11.7071L9.70711 10.2929ZM14 9H6V7H14V9ZM5.29289 7.29289L8.29289 4.29289L9.70711 5.70711L6.70711 8.70711L5.29289 7.29289ZM6.70711 7.29289L9.70711 10.2929L8.29289 11.7071L5.29289 8.70711L6.70711 7.29289Z" fill="#24282B"/>
<path d="M2 2L2 14" stroke="#24282B" stroke-width="2" stroke-linecap="round"/>
</symbol><symbol id="arrow-bar-to-down" viewBox="0 0 16 16">
<path d="M9 2C9 1.44772 8.55228 1 8 1C7.44772 1 7 1.44772 7 2H9ZM8 10L7.29289 10.7071C7.68342 11.0976 8.31658 11.0976 8.70711 10.7071L8 10ZM11.7071 7.70711C12.0976 7.31658 12.0976 6.68342 11.7071 6.29289C11.3166 5.90237 10.6834 5.90237 10.2929 6.29289L11.7071 7.70711ZM5.70711 6.29289C5.31658 5.90237 4.68342 5.90237 4.29289 6.29289C3.90237 6.68342 3.90237 7.31658 4.29289 7.70711L5.70711 6.29289ZM7 2V10H9V2H7ZM8.70711 10.7071L11.7071 7.70711L10.2929 6.29289L7.29289 9.29289L8.70711 10.7071ZM8.70711 9.29289L5.70711 6.29289L4.29289 7.70711L7.29289 10.7071L8.70711 9.29289Z" fill="#24282B"/>
<path d="M2 14H14" stroke="#24282B" stroke-width="2" stroke-linecap="round"/>
</symbol><symbol id="arrow-bar-right" viewBox="0 0 16 16">
<path d="M6 7C5.44772 7 5 7.44772 5 8C5 8.55228 5.44772 9 6 9V7ZM14 8L14.7071 8.70711C15.0976 8.31658 15.0976 7.68342 14.7071 7.29289L14 8ZM11.7071 4.29289C11.3166 3.90237 10.6834 3.90237 10.2929 4.29289C9.90237 4.68342 9.90237 5.31658 10.2929 5.70711L11.7071 4.29289ZM10.2929 10.2929C9.90237 10.6834 9.90237 11.3166 10.2929 11.7071C10.6834 12.0976 11.3166 12.0976 11.7071 11.7071L10.2929 10.2929ZM6 9H14V7H6V9ZM14.7071 7.29289L11.7071 4.29289L10.2929 5.70711L13.2929 8.70711L14.7071 7.29289ZM13.2929 7.29289L10.2929 10.2929L11.7071 11.7071L14.7071 8.70711L13.2929 7.29289Z" fill="#24282B"/>
<path d="M2 2L2 14" stroke="#24282B" stroke-width="2" stroke-linecap="round"/>
</symbol><symbol id="arrow-bar-left" viewBox="0 0 16 16">
<path d="M10 7C10.5523 7 11 7.44772 11 8C11 8.55228 10.5523 9 10 9V7ZM2 8L1.29289 8.70711C0.902369 8.31658 0.902369 7.68342 1.29289 7.29289L2 8ZM4.29289 4.29289C4.68342 3.90237 5.31658 3.90237 5.70711 4.29289C6.09763 4.68342 6.09763 5.31658 5.70711 5.70711L4.29289 4.29289ZM5.70711 10.2929C6.09763 10.6834 6.09763 11.3166 5.70711 11.7071C5.31658 12.0976 4.68342 12.0976 4.29289 11.7071L5.70711 10.2929ZM10 9H2V7H10V9ZM1.29289 7.29289L4.29289 4.29289L5.70711 5.70711L2.70711 8.70711L1.29289 7.29289ZM2.70711 7.29289L5.70711 10.2929L4.29289 11.7071L1.29289 8.70711L2.70711 7.29289Z" fill="#24282B"/>
<path d="M14 2L14 14" stroke="#24282B" stroke-width="2" stroke-linecap="round"/>
</symbol><symbol id="arrow-bar-down" viewBox="0 0 16 16">
<path d="M9 6C9 5.44772 8.55228 5 8 5C7.44772 5 7 5.44772 7 6H9ZM8 14L7.29289 14.7071C7.68342 15.0976 8.31658 15.0976 8.70711 14.7071L8 14ZM11.7071 11.7071C12.0976 11.3166 12.0976 10.6834 11.7071 10.2929C11.3166 9.90237 10.6834 9.90237 10.2929 10.2929L11.7071 11.7071ZM5.70711 10.2929C5.31658 9.90237 4.68342 9.90237 4.29289 10.2929C3.90237 10.6834 3.90237 11.3166 4.29289 11.7071L5.70711 10.2929ZM7 6V14H9V6H7ZM8.70711 14.7071L11.7071 11.7071L10.2929 10.2929L7.29289 13.2929L8.70711 14.7071ZM8.70711 13.2929L5.70711 10.2929L4.29289 11.7071L7.29289 14.7071L8.70711 13.2929Z" fill="#24282B"/>
<path d="M2 2H14" stroke="#24282B" stroke-width="2" stroke-linecap="round"/>
</symbol><symbol id="angles-up" viewBox="0 0 16 16">
<path d="M8 3L8.70711 2.29289C8.31658 1.90237 7.68342 1.90237 7.29289 2.29289L8 3ZM12.2929 8.70711C12.6834 9.09763 13.3166 9.09763 13.7071 8.70711C14.0976 8.31658 14.0976 7.68342 13.7071 7.29289L12.2929 8.70711ZM2.29289 7.29289C1.90237 7.68342 1.90237 8.31658 2.29289 8.70711C2.68342 9.09763 3.31658 9.09763 3.70711 8.70711L2.29289 7.29289ZM7.29289 3.70711L12.2929 8.70711L13.7071 7.29289L8.70711 2.29289L7.29289 3.70711ZM7.29289 2.29289L2.29289 7.29289L3.70711 8.70711L8.70711 3.70711L7.29289 2.29289Z" fill="#24282B"/>
<path d="M8 8L8.70711 7.29289C8.31658 6.90237 7.68342 6.90237 7.29289 7.29289L8 8ZM12.2929 13.7071C12.6834 14.0976 13.3166 14.0976 13.7071 13.7071C14.0976 13.3166 14.0976 12.6834 13.7071 12.2929L12.2929 13.7071ZM2.29289 12.2929C1.90237 12.6834 1.90237 13.3166 2.29289 13.7071C2.68342 14.0976 3.31658 14.0976 3.70711 13.7071L2.29289 12.2929ZM7.29289 8.70711L12.2929 13.7071L13.7071 12.2929L8.70711 7.29289L7.29289 8.70711ZM7.29289 7.29289L2.29289 12.2929L3.70711 13.7071L8.70711 8.70711L7.29289 7.29289Z" fill="#24282B"/>
</symbol><symbol id="angles-right" viewBox="0 0 16 16">
<path d="M8 8L8.70711 7.29289C9.09763 7.68342 9.09763 8.31658 8.70711 8.70711L8 8ZM2.29289 3.70711C1.90237 3.31658 1.90237 2.68342 2.29289 2.29289C2.68342 1.90237 3.31658 1.90237 3.70711 2.29289L2.29289 3.70711ZM3.70711 13.7071C3.31658 14.0976 2.68342 14.0976 2.29289 13.7071C1.90237 13.3166 1.90237 12.6834 2.29289 12.2929L3.70711 13.7071ZM7.29289 8.70711L2.29289 3.70711L3.70711 2.29289L8.70711 7.29289L7.29289 8.70711ZM8.70711 8.70711L3.70711 13.7071L2.29289 12.2929L7.29289 7.29289L8.70711 8.70711Z" fill="#24282B"/>
<path d="M13 8L13.7071 7.29289C14.0976 7.68342 14.0976 8.31658 13.7071 8.70711L13 8ZM7.29289 3.70711C6.90237 3.31658 6.90237 2.68342 7.29289 2.29289C7.68342 1.90237 8.31658 1.90237 8.70711 2.29289L7.29289 3.70711ZM8.70711 13.7071C8.31658 14.0976 7.68342 14.0976 7.29289 13.7071C6.90237 13.3166 6.90237 12.6834 7.29289 12.2929L8.70711 13.7071ZM12.2929 8.70711L7.29289 3.70711L8.70711 2.29289L13.7071 7.29289L12.2929 8.70711ZM13.7071 8.70711L8.70711 13.7071L7.29289 12.2929L12.2929 7.29289L13.7071 8.70711Z" fill="#24282B"/>
</symbol><symbol id="angles-left" viewBox="0 0 16 16">
<path d="M3 8L2.29289 7.29289C1.90237 7.68342 1.90237 8.31658 2.29289 8.70711L3 8ZM8.70711 3.70711C9.09763 3.31658 9.09763 2.68342 8.70711 2.29289C8.31658 1.90237 7.68342 1.90237 7.29289 2.29289L8.70711 3.70711ZM7.29289 13.7071C7.68342 14.0976 8.31658 14.0976 8.70711 13.7071C9.09763 13.3166 9.09763 12.6834 8.70711 12.2929L7.29289 13.7071ZM3.70711 8.70711L8.70711 3.70711L7.29289 2.29289L2.29289 7.29289L3.70711 8.70711ZM2.29289 8.70711L7.29289 13.7071L8.70711 12.2929L3.70711 7.29289L2.29289 8.70711Z" fill="#24282B"/>
<path d="M8 8L7.29289 7.29289C6.90237 7.68342 6.90237 8.31658 7.29289 8.70711L8 8ZM13.7071 3.70711C14.0976 3.31658 14.0976 2.68342 13.7071 2.29289C13.3166 1.90237 12.6834 1.90237 12.2929 2.29289L13.7071 3.70711ZM12.2929 13.7071C12.6834 14.0976 13.3166 14.0976 13.7071 13.7071C14.0976 13.3166 14.0976 12.6834 13.7071 12.2929L12.2929 13.7071ZM8.70711 8.70711L13.7071 3.70711L12.2929 2.29289L7.29289 7.29289L8.70711 8.70711ZM7.29289 8.70711L12.2929 13.7071L13.7071 12.2929L8.70711 7.29289L7.29289 8.70711Z" fill="#24282B"/>
</symbol><symbol id="angles-down" viewBox="0 0 16 16">
<path d="M8 8L7.29289 8.70711C7.68342 9.09763 8.31658 9.09763 8.70711 8.70711L8 8ZM3.70711 2.29289C3.31658 1.90237 2.68342 1.90237 2.29289 2.29289C1.90237 2.68342 1.90237 3.31658 2.29289 3.70711L3.70711 2.29289ZM13.7071 3.70711C14.0976 3.31658 14.0976 2.68342 13.7071 2.29289C13.3166 1.90237 12.6834 1.90237 12.2929 2.29289L13.7071 3.70711ZM8.70711 7.29289L3.70711 2.29289L2.29289 3.70711L7.29289 8.70711L8.70711 7.29289ZM8.70711 8.70711L13.7071 3.70711L12.2929 2.29289L7.29289 7.29289L8.70711 8.70711Z" fill="#24282B"/>
<path d="M8 13L7.29289 13.7071C7.68342 14.0976 8.31658 14.0976 8.70711 13.7071L8 13ZM3.70711 7.29289C3.31658 6.90237 2.68342 6.90237 2.29289 7.29289C1.90237 7.68342 1.90237 8.31658 2.29289 8.70711L3.70711 7.29289ZM13.7071 8.70711C14.0976 8.31658 14.0976 7.68342 13.7071 7.29289C13.3166 6.90237 12.6834 6.90237 12.2929 7.29289L13.7071 8.70711ZM8.70711 12.2929L3.70711 7.29289L2.29289 8.70711L7.29289 13.7071L8.70711 12.2929ZM8.70711 13.7071L13.7071 8.70711L12.2929 7.29289L7.29289 12.2929L8.70711 13.7071Z" fill="#24282B"/>
</symbol><symbol id="angle-up-right" viewBox="0 0 16 16">
<path d="M13 3H14C14 2.44772 13.5523 2 13 2V3ZM6 2C5.44772 2 5 2.44772 5 3C5 3.55228 5.44772 4 6 4V2ZM12 10C12 10.5523 12.4477 11 13 11C13.5523 11 14 10.5523 14 10H12ZM13 2H6V4H13V2ZM12 3V10H14V3H12Z" fill="#24282B"/>
</symbol><symbol id="angle-up-left" viewBox="0 0 16 16">
<path d="M2 2V1C1.44772 1 1 1.44772 1 2H2ZM9 3C9.55228 3 10 2.55228 10 2C10 1.44772 9.55228 1 9 1V3ZM1 9C1 9.55228 1.44772 10 2 10C2.55228 10 3 9.55228 3 9H1ZM2 3H9V1H2V3ZM1 2V9H3V2H1Z" fill="#24282B"/>
</symbol><symbol id="angle-up" viewBox="0 0 16 16">
<path d="M8 2L8.70711 1.29289C8.31658 0.902369 7.68342 0.902369 7.29289 1.29289L8 2ZM12.2929 7.70711C12.6834 8.09763 13.3166 8.09763 13.7071 7.70711C14.0976 7.31658 14.0976 6.68342 13.7071 6.29289L12.2929 7.70711ZM2.29289 6.29289C1.90237 6.68342 1.90237 7.31658 2.29289 7.70711C2.68342 8.09763 3.31658 8.09763 3.70711 7.70711L2.29289 6.29289ZM7.29289 2.70711L12.2929 7.70711L13.7071 6.29289L8.70711 1.29289L7.29289 2.70711ZM7.29289 1.29289L2.29289 6.29289L3.70711 7.70711L8.70711 2.70711L7.29289 1.29289Z" fill="#24282B"/>
</symbol><symbol id="angle-right" viewBox="0 0 16 16">
<path d="M14 8L14.7071 7.29289C15.0976 7.68342 15.0976 8.31658 14.7071 8.70711L14 8ZM8.29289 3.70711C7.90237 3.31658 7.90237 2.68342 8.29289 2.29289C8.68342 1.90237 9.31658 1.90237 9.70711 2.29289L8.29289 3.70711ZM9.70711 13.7071C9.31658 14.0976 8.68342 14.0976 8.29289 13.7071C7.90237 13.3166 7.90237 12.6834 8.29289 12.2929L9.70711 13.7071ZM13.2929 8.70711L8.29289 3.70711L9.70711 2.29289L14.7071 7.29289L13.2929 8.70711ZM14.7071 8.70711L9.70711 13.7071L8.29289 12.2929L13.2929 7.29289L14.7071 8.70711Z" fill="#24282B"/>
</symbol><symbol id="angle-left" viewBox="0 0 16 16">
<path d="M2 8L1.29289 7.29289C0.902369 7.68342 0.902369 8.31658 1.29289 8.70711L2 8ZM7.70711 3.70711C8.09763 3.31658 8.09763 2.68342 7.70711 2.29289C7.31658 1.90237 6.68342 1.90237 6.29289 2.29289L7.70711 3.70711ZM6.29289 13.7071C6.68342 14.0976 7.31658 14.0976 7.70711 13.7071C8.09763 13.3166 8.09763 12.6834 7.70711 12.2929L6.29289 13.7071ZM2.70711 8.70711L7.70711 3.70711L6.29289 2.29289L1.29289 7.29289L2.70711 8.70711ZM1.29289 8.70711L6.29289 13.7071L7.70711 12.2929L2.70711 7.29289L1.29289 8.70711Z" fill="#24282B"/>
</symbol><symbol id="angle-down-right" viewBox="0 0 16 16">
<path d="M14 14V15C14.5523 15 15 14.5523 15 14H14ZM7 13C6.44772 13 6 13.4477 6 14C6 14.5523 6.44772 15 7 15V13ZM15 7C15 6.44772 14.5523 6 14 6C13.4477 6 13 6.44772 13 7H15ZM14 13H7V15H14V13ZM15 14V7H13V14H15Z" fill="#24282B"/>
</symbol><symbol id="angle-down-left" viewBox="0 0 16 16">
<path d="M2 14H1C1 14.5523 1.44772 15 2 15V14ZM9 15C9.55228 15 10 14.5523 10 14C10 13.4477 9.55228 13 9 13V15ZM3 7C3 6.44772 2.55228 6 2 6C1.44772 6 1 6.44772 1 7H3ZM2 15H9V13H2V15ZM3 14V7H1V14H3Z" fill="#24282B"/>
</symbol><symbol id="angle-down"/></svg>